<?xml version="1.0" encoding="utf-8"?>
<!-- Generator: Adobe Illustrator 22.1.0, SVG Export Plug-In . SVG Version: 6.00 Build 0)  -->
<svg version="1.1" id="Layer_1" xmlns="http://www.w3.org/2000/svg" xmlns:xlink="http://www.w3.org/1999/xlink" x="0px" y="0px"
	 width="344.7px" height="114.4px" viewBox="0 0 344.7 114.4" style="enable-background:new 0 0 344.7 114.4;" xml:space="preserve"
	>
<style type="text/css">
	.st0{enable-background:new    ;}
	.st1{fill:#0012FF;}
	.st2{fill:#009245;}
	.st3{fill:#999999;}
	.st4{fill:#737373;}
	.st5{fill:#0000FF;}
	.st6{fill:#666666;}
	.st7{fill:none;stroke:#008272;stroke-width:4;stroke-miterlimit:10;}
	.st8{fill:#FF8C00;}
	.st9{fill:#D2D2D2;}
</style>
<title>Asset 2</title>
<g class="st0">
	<path class="st1" d="M7.9,92.1v-7.9h3.5c0.7,0,1.2,0.1,1.6,0.2s0.7,0.4,0.9,0.8s0.3,0.8,0.3,1.2c0,0.6-0.2,1-0.5,1.4
		c-0.4,0.4-0.9,0.6-1.7,0.7c0.3,0.1,0.5,0.3,0.6,0.4c0.3,0.3,0.6,0.6,0.9,1l1.4,2.1h-1.3l-1-1.6c-0.3-0.5-0.6-0.8-0.8-1.1
		c-0.2-0.3-0.4-0.4-0.5-0.5c-0.2-0.1-0.3-0.2-0.5-0.2c-0.1,0-0.3,0-0.6,0H8.9v3.5H7.9z M8.9,87.7h2.2c0.5,0,0.8,0,1.1-0.1
		s0.5-0.3,0.6-0.5s0.2-0.5,0.2-0.7c0-0.4-0.1-0.7-0.4-0.9c-0.3-0.2-0.7-0.4-1.3-0.4H8.9V87.7z"/>
	<path class="st1" d="M19.6,90.2l1,0.1c-0.2,0.6-0.4,1-0.9,1.4s-1,0.5-1.6,0.5c-0.8,0-1.5-0.3-2-0.8s-0.7-1.2-0.7-2.2
		s0.2-1.7,0.7-2.2s1.1-0.8,1.9-0.8s1.4,0.3,1.9,0.8s0.7,1.2,0.7,2.2c0,0.1,0,0.1,0,0.3h-4.3c0,0.6,0.2,1.1,0.5,1.4s0.7,0.5,1.2,0.5
		c0.4,0,0.7-0.1,0.9-0.3S19.4,90.6,19.6,90.2z M16.4,88.7h3.2c0-0.5-0.2-0.8-0.4-1.1C18.9,87.2,18.5,87,18,87
		c-0.4,0-0.8,0.1-1.1,0.4C16.6,87.8,16.4,88.2,16.4,88.7z"/>
	<path class="st1" d="M25.5,92.1v-0.7c-0.4,0.6-0.9,0.8-1.6,0.8c-0.5,0-0.9-0.1-1.3-0.4s-0.7-0.6-0.9-1c-0.2-0.4-0.3-1-0.3-1.5
		c0-0.6,0.1-1.1,0.3-1.5s0.5-0.8,0.9-1.1c0.4-0.2,0.8-0.4,1.3-0.4c0.3,0,0.6,0.1,0.9,0.2s0.5,0.3,0.7,0.6v-2.8h1v7.9L25.5,92.1
		L25.5,92.1z M22.4,89.2c0,0.7,0.2,1.3,0.5,1.6c0.3,0.4,0.7,0.5,1.1,0.5s0.8-0.2,1.1-0.5c0.3-0.3,0.4-0.9,0.4-1.6
		c0-0.8-0.2-1.4-0.5-1.7S24.4,87,23.9,87c-0.4,0-0.8,0.2-1.1,0.5C22.6,87.9,22.4,88.5,22.4,89.2z"/>
	<path class="st1" d="M32,92.1l-1.7-5.7h1l0.9,3.3l0.3,1.2c0-0.1,0.1-0.5,0.3-1.2l0.9-3.3h1l0.9,3.3l0.3,1.1l0.3-1.1l1-3.3h0.9
		l-1.8,5.7h-1l-0.9-3.4l-0.2-1L33,92.1H32z"/>
	<path class="st1" d="M38.9,85.3v-1.1h1v1.1H38.9z M38.9,92.1v-5.7h1v5.7H38.9z"/>
	<path class="st1" d="M41.3,92.1v-5.7h0.9v0.8c0.4-0.6,1-0.9,1.8-0.9c0.3,0,0.7,0.1,0.9,0.2c0.3,0.1,0.5,0.3,0.6,0.5
		s0.2,0.4,0.3,0.7c0,0.2,0.1,0.5,0.1,0.9v3.5h-1v-3.5c0-0.4,0-0.7-0.1-0.9s-0.2-0.4-0.4-0.5S44,87,43.7,87c-0.4,0-0.8,0.1-1.1,0.4
		s-0.4,0.8-0.4,1.5V92L41.3,92.1L41.3,92.1z"/>
	<path class="st1" d="M51.4,90.2l1,0.1c-0.2,0.6-0.4,1-0.9,1.4s-1,0.5-1.6,0.5c-0.8,0-1.5-0.3-2-0.8s-0.7-1.2-0.7-2.2
		s0.2-1.7,0.7-2.2s1.1-0.8,1.9-0.8c0.8,0,1.4,0.3,1.9,0.8s0.7,1.2,0.7,2.2c0,0.1,0,0.1,0,0.3h-4.3c0,0.6,0.2,1.1,0.5,1.4
		s0.7,0.5,1.2,0.5c0.4,0,0.7-0.1,0.9-0.3S51.2,90.6,51.4,90.2z M48.2,88.7h3.2c0-0.5-0.2-0.8-0.4-1.1c-0.3-0.4-0.7-0.6-1.2-0.6
		c-0.4,0-0.8,0.1-1.1,0.4C48.4,87.8,48.2,88.2,48.2,88.7z"/>
	<path class="st1" d="M53.2,90.4l1-0.2c0.1,0.4,0.2,0.7,0.4,0.9c0.2,0.2,0.6,0.3,1,0.3s0.8-0.1,1-0.3s0.3-0.4,0.3-0.6
		s-0.1-0.4-0.3-0.5c-0.1-0.1-0.5-0.2-1-0.3c-0.7-0.2-1.2-0.3-1.5-0.5c-0.3-0.1-0.5-0.3-0.6-0.5s-0.2-0.5-0.2-0.8s0.1-0.5,0.2-0.7
		c0.1-0.2,0.3-0.4,0.5-0.5s0.4-0.2,0.6-0.3c0.3-0.1,0.5-0.1,0.8-0.1c0.4,0,0.8,0.1,1.2,0.2c0.3,0.1,0.6,0.3,0.7,0.5
		c0.2,0.2,0.3,0.5,0.3,0.9L56.8,88c0-0.3-0.2-0.5-0.4-0.7s-0.5-0.2-0.9-0.2s-0.8,0.1-1,0.2s-0.3,0.3-0.3,0.5c0,0.1,0,0.2,0.1,0.3
		c0.1,0.1,0.2,0.2,0.4,0.3c0.1,0,0.4,0.1,0.9,0.2c0.7,0.2,1.2,0.3,1.4,0.4c0.3,0.1,0.5,0.3,0.6,0.5s0.2,0.5,0.2,0.8
		s-0.1,0.6-0.3,0.9s-0.5,0.5-0.8,0.7c-0.4,0.2-0.8,0.2-1.2,0.2c-0.7,0-1.3-0.2-1.7-0.5C53.6,91.4,53.3,91,53.2,90.4z"/>
</g>
<g class="st0">
	<path class="st1" d="M14.2,108.1l1,0.3c-0.2,0.9-0.6,1.5-1.2,2c-0.6,0.4-1.3,0.7-2.1,0.7s-1.5-0.2-2.1-0.5
		c-0.5-0.3-0.9-0.8-1.2-1.5s-0.4-1.4-0.4-2.1c0-0.8,0.2-1.5,0.5-2.1s0.8-1.1,1.3-1.4c0.6-0.3,1.2-0.5,1.9-0.5c0.8,0,1.5,0.2,2,0.6
		s0.9,1,1.1,1.7l-1,0.2c-0.2-0.6-0.4-1-0.8-1.3s-0.8-0.4-1.3-0.4c-0.6,0-1.1,0.1-1.5,0.4s-0.7,0.7-0.9,1.2s-0.2,1-0.2,1.5
		c0,0.7,0.1,1.3,0.3,1.8s0.5,0.9,0.9,1.1s0.9,0.4,1.3,0.4c0.6,0,1.1-0.2,1.5-0.5C13.8,109.3,14.1,108.8,14.2,108.1z"/>
	<path class="st1" d="M16.4,110.9v-5.7h0.9v0.9c0.2-0.4,0.4-0.7,0.6-0.8c0.2-0.1,0.4-0.2,0.6-0.2c0.3,0,0.7,0.1,1,0.3l-0.3,0.9
		c-0.2-0.1-0.5-0.2-0.7-0.2s-0.4,0.1-0.6,0.2s-0.3,0.3-0.4,0.5c-0.1,0.3-0.2,0.7-0.2,1.1v3C17.3,110.9,16.4,110.9,16.4,110.9z"/>
	<path class="st1" d="M23.8,110.2c-0.4,0.3-0.7,0.5-1,0.6s-0.7,0.2-1.1,0.2c-0.6,0-1.1-0.2-1.4-0.5s-0.5-0.7-0.5-1.2
		c0-0.3,0.1-0.5,0.2-0.8c0.1-0.2,0.3-0.4,0.5-0.6c0.2-0.1,0.4-0.2,0.7-0.3c0.2,0,0.5-0.1,0.9-0.1c0.8-0.1,1.4-0.2,1.7-0.3
		c0-0.1,0-0.2,0-0.3c0-0.4-0.1-0.7-0.3-0.8c-0.2-0.2-0.6-0.3-1.1-0.3s-0.8,0.1-1,0.2c-0.2,0.2-0.4,0.4-0.5,0.8l-0.9-0.1
		c0.1-0.4,0.2-0.7,0.4-1s0.5-0.4,0.9-0.6c0.4-0.1,0.8-0.2,1.3-0.2s0.9,0.1,1.2,0.2s0.5,0.3,0.7,0.4s0.2,0.4,0.3,0.7
		c0,0.2,0,0.5,0,0.9v1.3c0,0.9,0,1.5,0.1,1.7c0,0.2,0.1,0.5,0.2,0.7h-1C23.9,110.7,23.9,110.4,23.8,110.2z M23.7,108
		c-0.4,0.1-0.9,0.3-1.6,0.4c-0.4,0.1-0.7,0.1-0.8,0.2c-0.2,0.1-0.3,0.2-0.4,0.3s-0.1,0.3-0.1,0.5c0,0.3,0.1,0.5,0.3,0.6
		c0.2,0.2,0.5,0.3,0.9,0.3s0.7-0.1,1-0.2s0.5-0.4,0.6-0.7c0.1-0.2,0.2-0.5,0.2-1V108H23.7z"/>
	<path class="st1" d="M26.5,110.9v-5h-0.9v-0.8h0.9v-0.6c0-0.4,0-0.7,0.1-0.9c0.1-0.3,0.3-0.5,0.5-0.6c0.2-0.2,0.6-0.2,1-0.2
		c0.3,0,0.6,0,0.9,0.1l-0.1,0.8c-0.2,0-0.4-0.1-0.6-0.1c-0.3,0-0.5,0.1-0.6,0.2s-0.2,0.4-0.2,0.7v0.5h1.1v0.8h-1.1v5L26.5,110.9
		L26.5,110.9z"/>
	<path class="st1" d="M31.4,110l0.1,0.9c-0.3,0.1-0.5,0.1-0.7,0.1c-0.4,0-0.6-0.1-0.8-0.2c-0.2-0.1-0.3-0.3-0.4-0.4
		s-0.1-0.6-0.1-1.1V106h-0.7v-0.8h0.7v-1.4l1-0.6v2h1v0.8h-1v3.3c0,0.3,0,0.5,0.1,0.5c0,0.1,0.1,0.1,0.2,0.2c0.1,0,0.2,0.1,0.3,0.1
		C31.1,110.1,31.2,110,31.4,110z"/>
	<path class="st1" d="M36.3,110.9h-0.9V103h1v2.8c0.4-0.5,0.9-0.8,1.6-0.8c0.4,0,0.7,0.1,1,0.2s0.6,0.3,0.8,0.6
		c0.2,0.3,0.4,0.6,0.5,0.9c0.1,0.4,0.2,0.7,0.2,1.2c0,1-0.2,1.7-0.7,2.3c-0.5,0.5-1.1,0.8-1.7,0.8c-0.7,0-1.2-0.3-1.6-0.8v0.7
		C36.5,110.9,36.3,110.9,36.3,110.9z M36.3,108c0,0.7,0.1,1.2,0.3,1.5c0.3,0.5,0.7,0.7,1.2,0.7c0.4,0,0.8-0.2,1.1-0.6
		s0.5-0.9,0.5-1.6s-0.1-1.3-0.4-1.6c-0.3-0.4-0.7-0.5-1.1-0.5c-0.4,0-0.8,0.2-1.1,0.6S36.3,107.3,36.3,108z"/>
	<path class="st1" d="M45.4,109l1,0.1c-0.2,0.6-0.4,1-0.9,1.4s-1,0.5-1.6,0.5c-0.8,0-1.5-0.3-2-0.8s-0.7-1.2-0.7-2.2
		s0.2-1.7,0.7-2.2s1.1-0.8,1.9-0.8c0.8,0,1.4,0.3,1.9,0.8s0.7,1.2,0.7,2.2c0,0.1,0,0.1,0,0.3h-4.3c0,0.6,0.2,1.1,0.5,1.4
		s0.7,0.5,1.2,0.5c0.4,0,0.7-0.1,0.9-0.3S45.3,109.5,45.4,109z M42.2,107.5h3.2c0-0.5-0.2-0.8-0.4-1.1c-0.3-0.4-0.7-0.6-1.2-0.6
		c-0.4,0-0.8,0.1-1.1,0.4C42.4,106.6,42.3,107,42.2,107.5z"/>
	<path class="st1" d="M51.5,109l1,0.1c-0.2,0.6-0.4,1-0.9,1.4s-1,0.5-1.6,0.5c-0.8,0-1.5-0.3-2-0.8s-0.7-1.2-0.7-2.2
		s0.2-1.7,0.7-2.2s1.1-0.8,1.9-0.8c0.8,0,1.4,0.3,1.9,0.8s0.7,1.2,0.7,2.2c0,0.1,0,0.1,0,0.3h-4.3c0,0.6,0.2,1.1,0.5,1.4
		s0.7,0.5,1.2,0.5c0.4,0,0.7-0.1,0.9-0.3S51.4,109.5,51.5,109z M48.4,107.5h3.2c0-0.5-0.2-0.8-0.4-1.1c-0.3-0.4-0.7-0.6-1.2-0.6
		c-0.4,0-0.8,0.1-1.1,0.4C48.6,106.6,48.4,107,48.4,107.5z"/>
	<path class="st1" d="M53.7,110.9v-5.7h0.9v0.9c0.2-0.4,0.4-0.7,0.6-0.8c0.2-0.1,0.4-0.2,0.6-0.2c0.3,0,0.7,0.1,1,0.3l-0.3,0.9
		c-0.2-0.1-0.5-0.2-0.7-0.2s-0.4,0.1-0.6,0.2s-0.3,0.3-0.4,0.5c-0.1,0.3-0.2,0.7-0.2,1.1v3C54.6,110.9,53.7,110.9,53.7,110.9z"/>
</g>
<g class="st0">
	<path class="st1" d="M133.2,92.1l-2.1-7.9h1.1l1.2,5.2c0.1,0.5,0.2,1.1,0.3,1.6c0.2-0.8,0.3-1.3,0.4-1.5l1.5-5.3h1.3l1.1,4
		c0.3,1,0.5,1.9,0.6,2.8c0.1-0.5,0.2-1.1,0.4-1.7l1.2-5.1h1l-2.2,7.9h-1l-1.7-6c-0.1-0.5-0.2-0.8-0.2-0.9c-0.1,0.4-0.2,0.7-0.2,0.9
		l-1.7,6H133.2z"/>
</g>
<g class="st0">
	<path class="st1" d="M145.4,91.4c-0.4,0.3-0.7,0.5-1,0.6s-0.7,0.2-1.1,0.2c-0.6,0-1.1-0.2-1.4-0.5c-0.3-0.3-0.5-0.7-0.5-1.2
		c0-0.3,0.1-0.5,0.2-0.8c0.1-0.2,0.3-0.4,0.5-0.6c0.2-0.1,0.4-0.2,0.7-0.3c0.2,0,0.5-0.1,0.9-0.1c0.8-0.1,1.4-0.2,1.7-0.3
		c0-0.1,0-0.2,0-0.3c0-0.4-0.1-0.7-0.3-0.8c-0.2-0.2-0.6-0.3-1.1-0.3s-0.8,0.1-1,0.2c-0.2,0.2-0.4,0.4-0.5,0.8l-0.9-0.1
		c0.1-0.4,0.2-0.7,0.4-1s0.5-0.4,0.9-0.6c0.4-0.1,0.8-0.2,1.3-0.2s0.9,0.1,1.2,0.2s0.5,0.3,0.7,0.4s0.2,0.4,0.3,0.7
		c0,0.2,0,0.5,0,0.9v1.3c0,0.9,0,1.5,0.1,1.7c0,0.2,0.1,0.5,0.2,0.7h-1C145.5,91.9,145.4,91.6,145.4,91.4z M145.3,89.2
		c-0.4,0.1-0.9,0.3-1.6,0.4c-0.4,0.1-0.7,0.1-0.8,0.2c-0.2,0.1-0.3,0.2-0.4,0.3s-0.1,0.3-0.1,0.5c0,0.3,0.1,0.5,0.3,0.6
		c0.2,0.2,0.5,0.3,0.9,0.3s0.7-0.1,1-0.2s0.5-0.4,0.6-0.7c0.1-0.2,0.2-0.5,0.2-1L145.3,89.2L145.3,89.2z"/>
	<path class="st1" d="M147.4,90.4l1-0.2c0.1,0.4,0.2,0.7,0.4,0.9c0.2,0.2,0.6,0.3,1,0.3s0.8-0.1,1-0.3s0.3-0.4,0.3-0.6
		s-0.1-0.4-0.3-0.5c-0.1-0.1-0.5-0.2-1-0.3c-0.7-0.2-1.2-0.3-1.5-0.5c-0.3-0.1-0.5-0.3-0.6-0.5s-0.2-0.5-0.2-0.8s0.1-0.5,0.2-0.7
		c0.1-0.2,0.3-0.4,0.5-0.5s0.4-0.2,0.6-0.3c0.3-0.1,0.5-0.1,0.8-0.1c0.4,0,0.8,0.1,1.2,0.2c0.3,0.1,0.6,0.3,0.7,0.5
		c0.2,0.2,0.3,0.5,0.3,0.9L151,88c0-0.3-0.2-0.5-0.4-0.7s-0.5-0.2-0.9-0.2s-0.8,0.1-1,0.2s-0.3,0.3-0.3,0.5c0,0.1,0,0.2,0.1,0.3
		c0.1,0.1,0.2,0.2,0.4,0.3c0.1,0,0.4,0.1,0.9,0.2c0.7,0.2,1.2,0.3,1.4,0.4c0.3,0.1,0.5,0.3,0.6,0.5s0.2,0.5,0.2,0.8
		s-0.1,0.6-0.3,0.9s-0.5,0.5-0.8,0.7c-0.4,0.2-0.8,0.2-1.2,0.2c-0.7,0-1.3-0.2-1.7-0.5C147.8,91.4,147.5,91,147.4,90.4z"/>
	<path class="st1" d="M153.3,92.1v-7.9h1V87c0.5-0.5,1-0.8,1.7-0.8c0.4,0,0.8,0.1,1.1,0.2c0.3,0.2,0.5,0.4,0.7,0.7
		c0.1,0.3,0.2,0.7,0.2,1.3V92h-1v-3.6c0-0.5-0.1-0.8-0.3-1.1c-0.2-0.2-0.5-0.3-0.9-0.3c-0.3,0-0.6,0.1-0.8,0.2
		c-0.3,0.1-0.4,0.3-0.5,0.6c-0.1,0.3-0.2,0.6-0.2,1.1V92L153.3,92.1L153.3,92.1z"/>
	<path class="st1" d="M159.4,85.3v-1.1h1v1.1H159.4z M159.4,92.1v-5.7h1v5.7H159.4z"/>
	<path class="st1" d="M161.9,92.1v-5.7h0.9v0.8c0.4-0.6,1-0.9,1.8-0.9c0.3,0,0.7,0.1,0.9,0.2c0.3,0.1,0.5,0.3,0.6,0.5
		s0.2,0.4,0.3,0.7c0,0.2,0.1,0.5,0.1,0.9v3.5h-1v-3.5c0-0.4,0-0.7-0.1-0.9s-0.2-0.4-0.4-0.5s-0.4-0.2-0.7-0.2
		c-0.4,0-0.8,0.1-1.1,0.4s-0.4,0.8-0.4,1.5V92L161.9,92.1L161.9,92.1z"/>
	<path class="st1" d="M167.8,92.5l0.9,0.1c0,0.3,0.1,0.5,0.3,0.6c0.2,0.2,0.6,0.3,1,0.3s0.8-0.1,1-0.3s0.4-0.4,0.5-0.8
		c0.1-0.2,0.1-0.6,0.1-1.2c-0.4,0.5-0.9,0.7-1.6,0.7c-0.8,0-1.4-0.3-1.8-0.8s-0.6-1.2-0.6-2c0-0.5,0.1-1,0.3-1.5s0.5-0.8,0.9-1.1
		c0.4-0.3,0.8-0.4,1.3-0.4c0.7,0,1.2,0.3,1.7,0.8v-0.7h0.9v4.9c0,0.9-0.1,1.5-0.3,1.9s-0.5,0.7-0.9,0.9c-0.4,0.2-0.9,0.3-1.4,0.3
		c-0.7,0-1.2-0.2-1.6-0.5C168,93.6,167.8,93.1,167.8,92.5z M168.6,89.1c0,0.7,0.1,1.3,0.4,1.6s0.7,0.5,1.1,0.5
		c0.4,0,0.8-0.2,1.1-0.5s0.5-0.9,0.5-1.6s-0.2-1.2-0.5-1.6s-0.7-0.5-1.1-0.5c-0.4,0-0.8,0.2-1.1,0.5
		C168.8,87.9,168.6,88.4,168.6,89.1z"/>
	<path class="st1" d="M176.2,91.2l0.1,0.9c-0.3,0.1-0.5,0.1-0.7,0.1c-0.4,0-0.6-0.1-0.8-0.2s-0.3-0.3-0.4-0.4
		c-0.1-0.2-0.1-0.6-0.1-1.1v-3.3h-0.7v-0.8h0.7V85l1-0.6v2h1v0.8h-1v3.3c0,0.3,0,0.5,0.1,0.5c0,0.1,0.1,0.1,0.2,0.2
		c0.1,0,0.2,0.1,0.3,0.1C175.9,91.2,176,91.2,176.2,91.2z"/>
	<path class="st1" d="M176.8,89.2c0-1.1,0.3-1.8,0.9-2.3c0.5-0.4,1.1-0.6,1.8-0.6c0.8,0,1.4,0.3,1.9,0.8s0.7,1.2,0.7,2.1
		c0,0.7-0.1,1.3-0.3,1.7c-0.2,0.4-0.5,0.7-1,1c-0.4,0.2-0.9,0.3-1.4,0.3c-0.8,0-1.4-0.3-1.9-0.8C177.1,90.9,176.8,90.2,176.8,89.2z
		 M177.8,89.2c0,0.7,0.2,1.3,0.5,1.6c0.3,0.4,0.7,0.5,1.2,0.5s0.9-0.2,1.2-0.5c0.3-0.4,0.5-0.9,0.5-1.7c0-0.7-0.2-1.2-0.5-1.6
		S180,87,179.5,87s-0.9,0.2-1.2,0.5C178,87.9,177.8,88.5,177.8,89.2z"/>
	<path class="st1" d="M183.3,92.1v-5.7h0.9v0.8c0.4-0.6,1-0.9,1.8-0.9c0.3,0,0.7,0.1,0.9,0.2c0.3,0.1,0.5,0.3,0.6,0.5
		s0.2,0.4,0.3,0.7c0,0.2,0.1,0.5,0.1,0.9v3.5h-1v-3.5c0-0.4,0-0.7-0.1-0.9s-0.2-0.4-0.4-0.5S186,87,185.7,87c-0.4,0-0.8,0.1-1.1,0.4
		s-0.4,0.8-0.4,1.5V92L183.3,92.1L183.3,92.1z"/>
	<path class="st1" d="M193.5,92.1l-1.7-5.7h1l0.9,3.3l0.3,1.2c0-0.1,0.1-0.5,0.3-1.2l0.9-3.3h1l0.9,3.3l0.3,1.1l0.3-1.1l1-3.3h0.9
		l-1.8,5.7h-1l-0.9-3.4l-0.2-1l-1.2,4.4H193.5z"/>
	<path class="st1" d="M200.4,85.3v-1.1h1v1.1H200.4z M200.4,92.1v-5.7h1v5.7H200.4z"/>
	<path class="st1" d="M202.8,92.1v-5.7h0.9v0.8c0.4-0.6,1-0.9,1.8-0.9c0.3,0,0.7,0.1,0.9,0.2c0.3,0.1,0.5,0.3,0.6,0.5
		s0.2,0.4,0.3,0.7c0,0.2,0.1,0.5,0.1,0.9v3.5h-1v-3.5c0-0.4,0-0.7-0.1-0.9s-0.2-0.4-0.4-0.5s-0.4-0.2-0.7-0.2
		c-0.4,0-0.8,0.1-1.1,0.4s-0.4,0.8-0.4,1.5V92L202.8,92.1L202.8,92.1z"/>
	<path class="st1" d="M212.9,90.2l1,0.1c-0.2,0.6-0.4,1-0.9,1.4c-0.4,0.3-1,0.5-1.6,0.5c-0.8,0-1.5-0.3-2-0.8s-0.7-1.2-0.7-2.2
		s0.2-1.7,0.7-2.2s1.1-0.8,1.9-0.8c0.8,0,1.4,0.3,1.9,0.8s0.7,1.2,0.7,2.2c0,0.1,0,0.1,0,0.3h-4.3c0,0.6,0.2,1.1,0.5,1.4
		s0.7,0.5,1.2,0.5c0.4,0,0.7-0.1,0.9-0.3C212.5,90.9,212.7,90.6,212.9,90.2z M209.7,88.7h3.2c0-0.5-0.2-0.8-0.4-1.1
		c-0.3-0.4-0.7-0.6-1.2-0.6c-0.4,0-0.8,0.1-1.1,0.4C209.9,87.8,209.7,88.2,209.7,88.7z"/>
	<path class="st1" d="M214.7,90.4l1-0.2c0.1,0.4,0.2,0.7,0.4,0.9c0.2,0.2,0.6,0.3,1,0.3s0.8-0.1,1-0.3s0.3-0.4,0.3-0.6
		s-0.1-0.4-0.3-0.5c-0.1-0.1-0.5-0.2-1-0.3c-0.7-0.2-1.2-0.3-1.5-0.5c-0.3-0.1-0.5-0.3-0.6-0.5s-0.2-0.5-0.2-0.8s0.1-0.5,0.2-0.7
		s0.3-0.4,0.5-0.5s0.4-0.2,0.6-0.3c0.3-0.1,0.5-0.1,0.8-0.1c0.4,0,0.8,0.1,1.2,0.2c0.3,0.1,0.6,0.3,0.7,0.5c0.2,0.2,0.3,0.5,0.3,0.9
		l-0.9,0.1c0-0.3-0.2-0.5-0.4-0.7S217.4,87,217,87s-0.8,0.1-1,0.2s-0.3,0.3-0.3,0.5c0,0.1,0,0.2,0.1,0.3c0.1,0.1,0.2,0.2,0.4,0.3
		c0.1,0,0.4,0.1,0.9,0.2c0.7,0.2,1.2,0.3,1.4,0.4s0.5,0.3,0.6,0.5c0.2,0.2,0.2,0.5,0.2,0.8s-0.1,0.6-0.3,0.9s-0.5,0.5-0.8,0.7
		c-0.4,0.2-0.8,0.2-1.2,0.2c-0.7,0-1.3-0.2-1.7-0.5S214.8,91,214.7,90.4z"/>
</g>
<g class="st0">
	<path class="st1" d="M138.2,108.1l1,0.3c-0.2,0.9-0.6,1.5-1.2,2c-0.6,0.4-1.3,0.7-2.1,0.7s-1.5-0.2-2.1-0.5
		c-0.5-0.3-0.9-0.8-1.2-1.5s-0.4-1.4-0.4-2.1c0-0.8,0.2-1.5,0.5-2.1s0.8-1.1,1.3-1.4c0.6-0.3,1.2-0.5,1.9-0.5c0.8,0,1.5,0.2,2,0.6
		s0.9,1,1.1,1.7l-1,0.2c-0.2-0.6-0.4-1-0.8-1.3s-0.8-0.4-1.3-0.4c-0.6,0-1.1,0.1-1.5,0.4s-0.7,0.7-0.9,1.2s-0.2,1-0.2,1.5
		c0,0.7,0.1,1.3,0.3,1.8s0.5,0.9,0.9,1.1s0.9,0.4,1.3,0.4c0.6,0,1.1-0.2,1.5-0.5C137.8,109.3,138.1,108.8,138.2,108.1z"/>
	<path class="st1" d="M144.2,110.2c-0.4,0.3-0.7,0.5-1,0.6s-0.7,0.2-1.1,0.2c-0.6,0-1.1-0.2-1.4-0.5c-0.3-0.3-0.5-0.7-0.5-1.2
		c0-0.3,0.1-0.5,0.2-0.8c0.1-0.2,0.3-0.4,0.5-0.6c0.2-0.1,0.4-0.2,0.7-0.3c0.2,0,0.5-0.1,0.9-0.1c0.8-0.1,1.4-0.2,1.7-0.3
		c0-0.1,0-0.2,0-0.3c0-0.4-0.1-0.7-0.3-0.8c-0.2-0.2-0.6-0.3-1.1-0.3s-0.8,0.1-1,0.2c-0.2,0.2-0.4,0.4-0.5,0.8l-0.9-0.1
		c0.1-0.4,0.2-0.7,0.4-1s0.5-0.4,0.9-0.6c0.4-0.1,0.8-0.2,1.3-0.2s0.9,0.1,1.2,0.2s0.5,0.3,0.7,0.4s0.2,0.4,0.3,0.7
		c0,0.2,0,0.5,0,0.9v1.3c0,0.9,0,1.5,0.1,1.7c0,0.2,0.1,0.5,0.2,0.7h-1C144.3,110.7,144.2,110.4,144.2,110.2z M144.1,108
		c-0.4,0.1-0.9,0.3-1.6,0.4c-0.4,0.1-0.7,0.1-0.8,0.2c-0.2,0.1-0.3,0.2-0.4,0.3s-0.1,0.3-0.1,0.5c0,0.3,0.1,0.5,0.3,0.6
		c0.2,0.2,0.5,0.3,0.9,0.3s0.7-0.1,1-0.2s0.5-0.4,0.6-0.7c0.1-0.2,0.2-0.5,0.2-1L144.1,108L144.1,108z"/>
	<path class="st1" d="M146.5,110.9V103h1v7.9H146.5z"/>
	<path class="st1" d="M149,104.1V103h1v1.1H149z M149,110.9v-5.7h1v5.7H149z"/>
	<path class="st1" d="M151.7,110.9v-5h-0.9v-0.8h0.9v-0.6c0-0.4,0-0.7,0.1-0.9c0.1-0.3,0.3-0.5,0.5-0.6c0.2-0.2,0.6-0.2,1-0.2
		c0.3,0,0.6,0,0.9,0.1l-0.1,0.8c-0.2,0-0.4-0.1-0.6-0.1c-0.3,0-0.5,0.1-0.6,0.2s-0.2,0.4-0.2,0.7v0.5h1.1v0.8h-1.1v5L151.7,110.9
		L151.7,110.9z"/>
	<path class="st1" d="M154.1,108c0-1.1,0.3-1.8,0.9-2.3c0.5-0.4,1.1-0.6,1.8-0.6c0.8,0,1.4,0.3,1.9,0.8s0.7,1.2,0.7,2.1
		c0,0.7-0.1,1.3-0.3,1.7c-0.2,0.4-0.5,0.7-1,1c-0.4,0.2-0.9,0.3-1.4,0.3c-0.8,0-1.4-0.3-1.9-0.8C154.4,109.7,154.1,109,154.1,108z
		 M155.1,108c0,0.7,0.2,1.3,0.5,1.6s0.7,0.5,1.2,0.5s0.9-0.2,1.2-0.5s0.5-0.9,0.5-1.7c0-0.7-0.2-1.2-0.5-1.6s-0.7-0.5-1.2-0.5
		s-0.9,0.2-1.2,0.5S155.1,107.3,155.1,108z"/>
	<path class="st1" d="M160.6,110.9v-5.7h0.9v0.9c0.2-0.4,0.4-0.7,0.6-0.8c0.2-0.1,0.4-0.2,0.6-0.2c0.3,0,0.7,0.1,1,0.3l-0.3,0.9
		c-0.2-0.1-0.5-0.2-0.7-0.2s-0.4,0.1-0.6,0.2s-0.3,0.3-0.4,0.5c-0.1,0.3-0.2,0.7-0.2,1.1v3C161.5,110.9,160.6,110.9,160.6,110.9z"/>
	<path class="st1" d="M164.3,110.9v-5.7h0.9v0.8c0.4-0.6,1-0.9,1.8-0.9c0.3,0,0.7,0.1,0.9,0.2c0.3,0.1,0.5,0.3,0.6,0.5
		s0.2,0.4,0.3,0.7c0,0.2,0.1,0.5,0.1,0.9v3.5h-1v-3.5c0-0.4,0-0.7-0.1-0.9s-0.2-0.4-0.4-0.5s-0.4-0.2-0.7-0.2
		c-0.4,0-0.8,0.1-1.1,0.4s-0.4,0.8-0.4,1.5v3.1L164.3,110.9L164.3,110.9z"/>
	<path class="st1" d="M170.4,104.1V103h1v1.1H170.4z M170.4,110.9v-5.7h1v5.7H170.4z"/>
	<path class="st1" d="M176.6,110.2c-0.4,0.3-0.7,0.5-1,0.6s-0.7,0.2-1.1,0.2c-0.6,0-1.1-0.2-1.4-0.5c-0.3-0.3-0.5-0.7-0.5-1.2
		c0-0.3,0.1-0.5,0.2-0.8c0.1-0.2,0.3-0.4,0.5-0.6c0.2-0.1,0.4-0.2,0.7-0.3c0.2,0,0.5-0.1,0.9-0.1c0.8-0.1,1.4-0.2,1.7-0.3
		c0-0.1,0-0.2,0-0.3c0-0.4-0.1-0.7-0.3-0.8c-0.2-0.2-0.6-0.3-1.1-0.3s-0.8,0.1-1,0.2s-0.4,0.4-0.5,0.8l-0.9-0.1
		c0.1-0.4,0.2-0.7,0.4-1c0.2-0.2,0.5-0.4,0.9-0.6c0.4-0.1,0.8-0.2,1.3-0.2s0.9,0.1,1.2,0.2s0.5,0.3,0.7,0.4c0.1,0.2,0.2,0.4,0.3,0.7
		c0,0.2,0,0.5,0,0.9v1.3c0,0.9,0,1.5,0.1,1.7s0.1,0.5,0.2,0.7h-1C176.7,110.7,176.6,110.4,176.6,110.2z M176.5,108
		c-0.4,0.1-0.9,0.3-1.6,0.4c-0.4,0.1-0.7,0.1-0.8,0.2c-0.2,0.1-0.3,0.2-0.4,0.3s-0.1,0.3-0.1,0.5c0,0.3,0.1,0.5,0.3,0.6
		c0.2,0.2,0.5,0.3,0.9,0.3s0.7-0.1,1-0.2s0.5-0.4,0.6-0.7c0.1-0.2,0.2-0.5,0.2-1L176.5,108L176.5,108z"/>
	<path class="st1" d="M183.1,110.9l-1.7-5.7h1l0.9,3.3l0.3,1.2c0-0.1,0.1-0.5,0.3-1.2l0.9-3.3h1l0.9,3.3l0.3,1.1l0.3-1.1l1-3.3h0.9
		l-1.8,5.7h-1l-0.9-3.4l-0.2-1l-1.2,4.4H183.1z"/>
	<path class="st1" d="M190,104.1V103h1v1.1H190z M190,110.9v-5.7h1v5.7H190z"/>
	<path class="st1" d="M192.4,110.9v-5.7h0.9v0.8c0.4-0.6,1-0.9,1.8-0.9c0.3,0,0.7,0.1,0.9,0.2c0.3,0.1,0.5,0.3,0.6,0.5
		s0.2,0.4,0.3,0.7c0,0.2,0.1,0.5,0.1,0.9v3.5h-1v-3.5c0-0.4,0-0.7-0.1-0.9s-0.2-0.4-0.4-0.5s-0.4-0.2-0.7-0.2
		c-0.4,0-0.8,0.1-1.1,0.4s-0.4,0.8-0.4,1.5v3.1L192.4,110.9L192.4,110.9z"/>
	<path class="st1" d="M202.4,109l1,0.1c-0.2,0.6-0.4,1-0.9,1.4c-0.4,0.3-1,0.5-1.6,0.5c-0.8,0-1.5-0.3-2-0.8s-0.7-1.2-0.7-2.2
		s0.2-1.7,0.7-2.2s1.1-0.8,1.9-0.8c0.8,0,1.4,0.3,1.9,0.8s0.7,1.2,0.7,2.2c0,0.1,0,0.1,0,0.3h-4.3c0,0.6,0.2,1.1,0.5,1.4
		s0.7,0.5,1.2,0.5c0.4,0,0.7-0.1,0.9-0.3C202.1,109.7,202.3,109.5,202.4,109z M199.3,107.5h3.2c0-0.5-0.2-0.8-0.4-1.1
		c-0.3-0.4-0.7-0.6-1.2-0.6c-0.4,0-0.8,0.1-1.1,0.4C199.5,106.6,199.3,107,199.3,107.5z"/>
	<path class="st1" d="M204.3,109.2l1-0.2c0.1,0.4,0.2,0.7,0.4,0.9c0.2,0.2,0.6,0.3,1,0.3s0.8-0.1,1-0.3s0.3-0.4,0.3-0.6
		s-0.1-0.4-0.3-0.5c-0.1-0.1-0.5-0.2-1-0.3c-0.7-0.2-1.2-0.3-1.5-0.5c-0.3-0.1-0.5-0.3-0.6-0.5s-0.2-0.5-0.2-0.8s0.1-0.5,0.2-0.7
		c0.1-0.2,0.3-0.4,0.5-0.5s0.4-0.2,0.6-0.3c0.3-0.1,0.5-0.1,0.8-0.1c0.4,0,0.8,0.1,1.2,0.2s0.6,0.3,0.7,0.5c0.2,0.2,0.3,0.5,0.3,0.9
		l-0.9,0.1c0-0.3-0.2-0.5-0.4-0.7s-0.5-0.2-0.9-0.2s-0.8,0.1-1,0.2s-0.3,0.3-0.3,0.5c0,0.1,0,0.2,0.1,0.3c0.1,0.1,0.2,0.2,0.4,0.3
		c0.1,0,0.4,0.1,0.9,0.2c0.7,0.2,1.2,0.3,1.4,0.4c0.3,0.1,0.5,0.3,0.6,0.5c0.2,0.2,0.2,0.5,0.2,0.8s-0.1,0.6-0.3,0.9
		s-0.5,0.5-0.8,0.7c-0.4,0.2-0.8,0.2-1.2,0.2c-0.7,0-1.3-0.2-1.7-0.5C204.6,110.2,204.4,109.8,204.3,109.2z"/>
</g>
<g>
	<path class="st1" d="M12.7,14.4l1.2,0.2c-0.1,0.8-0.5,1.5-1,1.9c-0.5,0.5-1.2,0.7-2,0.7c-1,0-1.8-0.3-2.3-1
		c-0.6-0.6-0.9-1.5-0.9-2.7c0-0.8,0.1-1.4,0.4-2s0.6-1,1.2-1.3c0.5-0.3,1.1-0.4,1.7-0.4c0.8,0,1.4,0.2,1.9,0.6
		c0.5,0.4,0.8,0.9,0.9,1.7l-1.2,0.2c-0.1-0.5-0.3-0.8-0.6-1.1s-0.6-0.4-1-0.4c-0.6,0-1.1,0.2-1.5,0.7c-0.4,0.4-0.6,1.1-0.6,2.1
		s0.2,1.7,0.5,2.1c0.3,0.4,0.8,0.6,1.4,0.6c0.5,0,0.9-0.1,1.2-0.4C12.4,15.5,12.6,15,12.7,14.4z"/>
	<path class="st1" d="M14.5,13.5c0-1.3,0.4-2.3,1.1-2.9c0.6-0.5,1.4-0.8,2.2-0.8c1,0,1.8,0.3,2.4,1c0.6,0.6,0.9,1.5,0.9,2.7
		c0,0.9-0.1,1.6-0.4,2.2c-0.3,0.5-0.7,0.9-1.2,1.2s-1.1,0.4-1.7,0.4c-1,0-1.8-0.3-2.4-1C14.8,15.6,14.5,14.7,14.5,13.5z M15.7,13.5
		c0,0.9,0.2,1.6,0.6,2s0.9,0.7,1.5,0.7s1.1-0.2,1.5-0.7c0.4-0.5,0.6-1.2,0.6-2.1s-0.2-1.5-0.6-2s-0.9-0.7-1.5-0.7s-1.1,0.2-1.5,0.7
		S15.7,12.6,15.7,13.5z"/>
	<path class="st1" d="M22.6,17V7.2h1.2v3.5c0.6-0.7,1.3-1,2.1-1c0.5,0,1,0.1,1.4,0.3s0.7,0.5,0.8,0.9c0.2,0.4,0.3,0.9,0.3,1.6V17
		h-1.2v-4.5c0-0.6-0.1-1-0.4-1.3s-0.6-0.4-1.1-0.4c-0.4,0-0.7,0.1-1,0.3s-0.5,0.4-0.7,0.8c-0.1,0.3-0.2,0.8-0.2,1.3V17H22.6z"/>
	<path class="st1" d="M29.7,13.5c0-1.3,0.4-2.3,1.1-2.9c0.6-0.5,1.4-0.8,2.2-0.8c1,0,1.8,0.3,2.4,1c0.6,0.6,0.9,1.5,0.9,2.7
		c0,0.9-0.1,1.6-0.4,2.2c-0.3,0.5-0.7,0.9-1.2,1.2s-1.1,0.4-1.7,0.4c-1,0-1.8-0.3-2.4-1C30,15.6,29.7,14.7,29.7,13.5z M31,13.5
		c0,0.9,0.2,1.6,0.6,2s0.9,0.7,1.5,0.7s1.1-0.2,1.5-0.7c0.4-0.5,0.6-1.2,0.6-2.1s-0.2-1.5-0.6-2c-0.4-0.5-0.9-0.7-1.5-0.7
		s-1.1,0.2-1.5,0.7S31,12.6,31,13.5z"/>
	<path class="st1" d="M39.1,17L37,9.9h1.2l1.1,4.1l0.4,1.5c0-0.1,0.1-0.6,0.4-1.5l1.1-4.2h1.2l1.1,4.1l0.4,1.4l0.4-1.4l1.2-4.1h1.2
		L44.5,17h-1.3l-1.1-4.3l-0.3-1.2L40.4,17H39.1z"/>
	<path class="st1" d="M47.7,8.6V7.2h1.2v1.4C48.9,8.6,47.7,8.6,47.7,8.6z M47.7,17V9.9h1.2V17H47.7z"/>
	<path class="st1" d="M50.8,17V9.9h1.1v1c0.5-0.8,1.3-1.2,2.3-1.2c0.4,0,0.8,0.1,1.2,0.2c0.4,0.2,0.6,0.4,0.8,0.6
		c0.2,0.2,0.3,0.5,0.4,0.9c0,0.2,0.1,0.6,0.1,1.2V17h-1.2v-4.3c0-0.5,0-0.9-0.1-1.1s-0.3-0.4-0.5-0.6c-0.2-0.1-0.5-0.2-0.8-0.2
		c-0.5,0-1,0.2-1.3,0.5c-0.4,0.3-0.6,0.9-0.6,1.9V17H50.8z"/>
	<path class="st1" d="M63.3,14.7l1.2,0.2c-0.2,0.7-0.6,1.3-1.1,1.7c-0.5,0.4-1.2,0.6-2,0.6c-1,0-1.9-0.3-2.5-1
		c-0.6-0.6-0.9-1.5-0.9-2.7s0.3-2.1,0.9-2.8c0.6-0.7,1.4-1,2.4-1s1.7,0.3,2.3,1c0.6,0.6,0.9,1.6,0.9,2.7c0,0.1,0,0.2,0,0.3h-5.3
		c0,0.8,0.3,1.4,0.7,1.8c0.4,0.4,0.9,0.6,1.5,0.6c0.4,0,0.8-0.1,1.1-0.3S63.1,15.2,63.3,14.7z M59.3,12.8h4c-0.1-0.6-0.2-1-0.5-1.3
		c-0.4-0.5-0.9-0.7-1.5-0.7s-1,0.2-1.4,0.6C59.6,11.7,59.4,12.2,59.3,12.8z"/>
	<path class="st1" d="M66,17V9.9h1.1V11c0.3-0.5,0.5-0.8,0.8-1c0.2-0.2,0.5-0.2,0.8-0.2c0.4,0,0.8,0.1,1.2,0.4l-0.4,1.1
		c-0.3-0.2-0.6-0.3-0.9-0.3s-0.5,0.1-0.7,0.2c-0.2,0.2-0.4,0.4-0.4,0.7c-0.1,0.4-0.2,0.9-0.2,1.4V17H66z"/>
	<path class="st1" d="M7.2,19v-1h62.5v1H7.2z"/>
</g>
<g class="st0">
	<path class="st1" d="M70.6,19.8l-0.1-1.1c0.3,0.1,0.5,0.1,0.7,0.1c0.3,0,0.5,0,0.6-0.1c0.2-0.1,0.3-0.2,0.4-0.4
		c0.1-0.1,0.2-0.4,0.4-0.9c0-0.1,0.1-0.2,0.1-0.3L70,10h1.3l1.5,4.1c0.2,0.5,0.4,1.1,0.5,1.6c0.1-0.6,0.3-1.1,0.5-1.6l1.5-4.1h1.2
		l-2.7,7.2c-0.3,0.8-0.5,1.3-0.7,1.6c-0.2,0.4-0.5,0.7-0.7,0.9c-0.3,0.2-0.6,0.3-1,0.3C71.1,19.9,70.9,19.9,70.6,19.8z"/>
	<path class="st1" d="M69.7,19v-1h5.9v1H69.7z"/>
</g>
<g class="st0">
	<path class="st1" d="M76.8,17v-1.4h1.4V17H76.8z"/>
	<path class="st1" d="M84.9,14.4l1.2,0.2c-0.1,0.8-0.5,1.5-1,1.9c-0.5,0.5-1.2,0.7-2,0.7c-1,0-1.8-0.3-2.3-1
		c-0.6-0.6-0.9-1.5-0.9-2.7c0-0.8,0.1-1.4,0.4-2s0.6-1,1.2-1.3c0.5-0.3,1.1-0.4,1.7-0.4c0.8,0,1.4,0.2,1.9,0.6
		c0.5,0.4,0.8,0.9,0.9,1.7l-1.2,0.2c-0.1-0.5-0.3-0.8-0.6-1.1s-0.6-0.4-1-0.4c-0.6,0-1.1,0.2-1.5,0.7c-0.4,0.4-0.6,1.1-0.6,2.1
		s0.2,1.7,0.5,2.1c0.3,0.4,0.8,0.6,1.4,0.6c0.5,0,0.9-0.1,1.2-0.4C84.6,15.5,84.8,15,84.9,14.4z"/>
	<path class="st1" d="M86.7,13.5c0-1.3,0.4-2.3,1.1-2.9c0.6-0.5,1.4-0.8,2.2-0.8c1,0,1.8,0.3,2.4,1c0.6,0.6,0.9,1.5,0.9,2.7
		c0,0.9-0.1,1.6-0.4,2.2c-0.3,0.5-0.7,0.9-1.2,1.2s-1.1,0.4-1.7,0.4c-1,0-1.8-0.3-2.4-1C87,15.6,86.7,14.7,86.7,13.5z M87.9,13.5
		c0,0.9,0.2,1.6,0.6,2s0.9,0.7,1.5,0.7s1.1-0.2,1.5-0.7c0.4-0.5,0.6-1.2,0.6-2.1s-0.2-1.5-0.6-2s-0.9-0.7-1.5-0.7s-1.1,0.2-1.5,0.7
		S87.9,12.6,87.9,13.5z"/>
	<path class="st1" d="M94.8,17V9.9h1.1v1c0.2-0.3,0.5-0.6,0.9-0.8s0.8-0.3,1.3-0.3s1,0.1,1.3,0.3s0.6,0.5,0.7,0.9
		c0.6-0.8,1.3-1.2,2.2-1.2c0.7,0,1.2,0.2,1.6,0.6c0.4,0.4,0.6,1,0.6,1.8V17h-1.2v-4.5c0-0.5,0-0.8-0.1-1s-0.2-0.4-0.4-0.5
		c-0.2-0.1-0.4-0.2-0.7-0.2c-0.5,0-0.9,0.2-1.2,0.5c-0.3,0.3-0.5,0.9-0.5,1.6V17H99v-4.6c0-0.5-0.1-0.9-0.3-1.2
		c-0.2-0.3-0.5-0.4-1-0.4c-0.3,0-0.7,0.1-0.9,0.3c-0.3,0.2-0.5,0.4-0.6,0.8C96,12.2,96,12.7,96,13.3V17H94.8z"/>
	<path class="st1" d="M109.5,14.1v-1.2h3.7v1.2H109.5z"/>
	<path class="st1" d="M125.5,13.6l1.3,0.3c-0.3,1.1-0.8,1.9-1.5,2.4c-0.7,0.5-1.6,0.8-2.6,0.8c-1.1,0-1.9-0.2-2.6-0.6
		s-1.2-1.1-1.5-1.9c-0.3-0.8-0.5-1.7-0.5-2.6c0-1,0.2-1.9,0.6-2.7s0.9-1.3,1.7-1.7s1.5-0.6,2.4-0.6c1,0,1.8,0.2,2.5,0.8
		s1.1,1.2,1.4,2.1l-1.3,0.3c-0.2-0.7-0.6-1.2-1-1.6c-0.4-0.3-1-0.5-1.6-0.5c-0.8,0-1.4,0.2-1.9,0.5c-0.5,0.4-0.9,0.8-1.1,1.5
		c-0.2,0.6-0.3,1.2-0.3,1.9c0,0.8,0.1,1.6,0.4,2.2c0.2,0.6,0.6,1.1,1.1,1.4c0.5,0.3,1.1,0.5,1.7,0.5c0.7,0,1.3-0.2,1.8-0.6
		C125,15,125.4,14.4,125.5,13.6z"/>
	<path class="st1" d="M127.8,13.5c0-1.3,0.4-2.3,1.1-2.9c0.6-0.5,1.4-0.8,2.2-0.8c1,0,1.8,0.3,2.4,1c0.6,0.6,0.9,1.5,0.9,2.7
		c0,0.9-0.1,1.6-0.4,2.2c-0.3,0.5-0.7,0.9-1.2,1.2s-1.1,0.4-1.7,0.4c-1,0-1.8-0.3-2.4-1C128.2,15.6,127.8,14.7,127.8,13.5z
		 M129.1,13.5c0,0.9,0.2,1.6,0.6,2s0.9,0.7,1.5,0.7s1.1-0.2,1.5-0.7c0.4-0.5,0.6-1.2,0.6-2.1s-0.2-1.5-0.6-2
		c-0.4-0.5-0.9-0.7-1.5-0.7s-1.1,0.2-1.5,0.7S129.1,12.6,129.1,13.5z"/>
	<path class="st1" d="M135.9,17V7.2h1.2v3.5c0.6-0.7,1.3-1,2.1-1c0.5,0,1,0.1,1.4,0.3s0.7,0.5,0.8,0.9c0.2,0.4,0.3,0.9,0.3,1.6V17
		h-1.2v-4.5c0-0.6-0.1-1-0.4-1.3s-0.6-0.4-1.1-0.4c-0.4,0-0.7,0.1-1,0.3s-0.5,0.4-0.7,0.8c-0.1,0.3-0.2,0.8-0.2,1.3V17H135.9z"/>
	<path class="st1" d="M143.1,13.5c0-1.3,0.4-2.3,1.1-2.9c0.6-0.5,1.4-0.8,2.2-0.8c1,0,1.8,0.3,2.4,1c0.6,0.6,0.9,1.5,0.9,2.7
		c0,0.9-0.1,1.6-0.4,2.2c-0.3,0.5-0.7,0.9-1.2,1.2s-1.1,0.4-1.7,0.4c-1,0-1.8-0.3-2.4-1C143.4,15.6,143.1,14.7,143.1,13.5z
		 M144.3,13.5c0,0.9,0.2,1.6,0.6,2s0.9,0.7,1.5,0.7s1.1-0.2,1.5-0.7c0.4-0.5,0.6-1.2,0.6-2.1s-0.2-1.5-0.6-2
		c-0.4-0.5-0.9-0.7-1.5-0.7s-1.1,0.2-1.5,0.7S144.3,12.6,144.3,13.5z"/>
	<path class="st1" d="M156.9,17l-2.6-9.8h1.3l1.5,6.4c0.2,0.7,0.3,1.3,0.4,2c0.3-1,0.4-1.7,0.4-1.8l1.9-6.6h1.6l1.4,5
		c0.4,1.2,0.6,2.4,0.8,3.5c0.1-0.6,0.3-1.3,0.5-2.1l1.5-6.3h1.3l-2.7,9.8h-1.3l-2.1-7.5c-0.2-0.6-0.3-1-0.3-1.2
		c-0.1,0.5-0.2,0.8-0.3,1.2l-2.1,7.5h-1.2L156.9,17L156.9,17z"/>
	<path class="st1" d="M168,8.6V7.2h1.2v1.4C169.2,8.6,168,8.6,168,8.6z M168,17V9.9h1.2V17H168z"/>
	<path class="st1" d="M171,17V9.9h1.1v1c0.5-0.8,1.3-1.2,2.3-1.2c0.4,0,0.8,0.1,1.2,0.2c0.4,0.2,0.6,0.4,0.8,0.6
		c0.2,0.2,0.3,0.5,0.4,0.9c0,0.2,0.1,0.6,0.1,1.2V17h-1.2v-4.3c0-0.5,0-0.9-0.1-1.1s-0.3-0.4-0.5-0.6c-0.2-0.1-0.5-0.2-0.8-0.2
		c-0.5,0-1,0.2-1.3,0.5s-0.6,0.9-0.6,1.9V17H171z"/>
	<path class="st1" d="M183.5,14.7l1.2,0.2c-0.2,0.7-0.6,1.3-1.1,1.7c-0.5,0.4-1.2,0.6-2,0.6c-1,0-1.9-0.3-2.5-1
		c-0.6-0.6-0.9-1.5-0.9-2.7s0.3-2.1,0.9-2.8c0.6-0.7,1.4-1,2.4-1s1.7,0.3,2.3,1c0.6,0.6,0.9,1.6,0.9,2.7c0,0.1,0,0.2,0,0.3h-5.3
		c0,0.8,0.3,1.4,0.7,1.8c0.4,0.4,0.9,0.6,1.5,0.6c0.4,0,0.8-0.1,1.1-0.3C183.1,15.6,183.3,15.2,183.5,14.7z M179.5,12.8h4
		c-0.1-0.6-0.2-1-0.5-1.3c-0.4-0.5-0.9-0.7-1.5-0.7s-1,0.2-1.4,0.6C179.8,11.7,179.6,12.2,179.5,12.8z"/>
	<path class="st1" d="M186.2,17V9.9h1.1V11c0.3-0.5,0.5-0.8,0.8-1s0.5-0.2,0.8-0.2c0.4,0,0.8,0.1,1.2,0.4l-0.4,1.1
		c-0.3-0.2-0.6-0.3-0.9-0.3c-0.3,0-0.5,0.1-0.7,0.2c-0.2,0.2-0.4,0.4-0.4,0.7c-0.1,0.4-0.2,0.9-0.2,1.4V17H186.2z"/>
	<path class="st1" d="M190.8,19.8l-0.1-1.1c0.3,0.1,0.5,0.1,0.7,0.1c0.3,0,0.5,0,0.6-0.1c0.2-0.1,0.3-0.2,0.4-0.4
		c0.1-0.1,0.2-0.4,0.4-0.9c0-0.1,0.1-0.2,0.1-0.3l-2.7-7.1h1.3l1.5,4.1c0.2,0.5,0.4,1.1,0.5,1.6c0.1-0.6,0.3-1.1,0.5-1.6l1.5-4.1
		h1.2l-2.7,7.2c-0.3,0.8-0.5,1.3-0.7,1.6c-0.2,0.4-0.5,0.7-0.7,0.9c-0.3,0.2-0.6,0.3-1,0.3C191.3,19.9,191.1,19.9,190.8,19.8z"/>
	<path class="st1" d="M201,14.1v-1.2h3.7v1.2H201z"/>
	<path class="st1" d="M75.6,19v-1h129.6v1H75.6z"/>
</g>
<g class="st0">
	<path class="st1" d="M205.2,19v-1h3v1H205.2z"/>
</g>
<g class="st0">
	<path class="st1" d="M208.2,17l3.8-9.8h1.4l4,9.8H216l-1.1-3h-4.1l-1.1,3H208.2z M211.1,13h3.3l-1-2.7c-0.3-0.8-0.5-1.5-0.7-2
		c-0.1,0.6-0.3,1.3-0.5,1.9L211.1,13z"/>
	<path class="st1" d="M218.3,17V7.2h1.2V17H218.3z"/>
	<path class="st1" d="M221.3,17V7.2h1.2V17H221.3z"/>
	<path class="st1" d="M228.2,17V9.9h1.1V11c0.3-0.5,0.5-0.8,0.8-1s0.5-0.2,0.8-0.2c0.4,0,0.8,0.1,1.2,0.4l-0.4,1.1
		c-0.3-0.2-0.6-0.3-0.9-0.3c-0.3,0-0.5,0.1-0.7,0.2c-0.2,0.2-0.4,0.4-0.4,0.7c-0.1,0.4-0.2,0.9-0.2,1.4V17H228.2z"/>
	<path class="st1" d="M237.7,14.7l1.2,0.2c-0.2,0.7-0.6,1.3-1.1,1.7c-0.5,0.4-1.2,0.6-2,0.6c-1,0-1.9-0.3-2.5-1
		c-0.6-0.6-0.9-1.5-0.9-2.7s0.3-2.1,0.9-2.8c0.6-0.7,1.4-1,2.4-1s1.7,0.3,2.3,1c0.6,0.6,0.9,1.6,0.9,2.7c0,0.1,0,0.2,0,0.3h-5.3
		c0,0.8,0.3,1.4,0.7,1.8c0.4,0.4,0.9,0.6,1.5,0.6c0.4,0,0.8-0.1,1.1-0.3C237.2,15.6,237.5,15.2,237.7,14.7z M233.7,12.8h4
		c-0.1-0.6-0.2-1-0.5-1.3c-0.4-0.5-0.9-0.7-1.5-0.7s-1,0.2-1.4,0.6C234,11.7,233.7,12.2,233.7,12.8z"/>
	<path class="st1" d="M245,17v-0.9c-0.5,0.7-1.1,1.1-2,1.1c-0.6,0-1.1-0.2-1.6-0.5s-0.8-0.7-1.1-1.3c-0.3-0.6-0.4-1.2-0.4-1.9
		s0.1-1.4,0.4-1.9c0.2-0.6,0.6-1,1.1-1.3s1-0.5,1.6-0.5c0.4,0,0.8,0.1,1.1,0.3s0.6,0.4,0.8,0.7V7.2h1.2V17H245z M241.2,13.5
		c0,0.9,0.2,1.6,0.6,2c0.4,0.5,0.8,0.7,1.4,0.7c0.5,0,1-0.2,1.3-0.6c0.4-0.4,0.6-1.1,0.6-2c0-1-0.2-1.7-0.6-2.1
		c-0.4-0.5-0.8-0.7-1.4-0.7c-0.5,0-1,0.2-1.3,0.7C241.4,11.8,241.2,12.5,241.2,13.5z"/>
	<path class="st1" d="M253.2,17L251,9.9h1.2l1.1,4.1l0.4,1.5c0-0.1,0.1-0.6,0.4-1.5l1.1-4.2h1.2l1.1,4.1l0.4,1.4l0.4-1.4l1.2-4.1
		h1.2l-2.2,7.1h-1.3l-1.1-4.3l-0.3-1.2l-1.4,5.5h-1.2L253.2,17L253.2,17z"/>
	<path class="st1" d="M261.8,8.6V7.2h1.2v1.4C263,8.6,261.8,8.6,261.8,8.6z M261.8,17V9.9h1.2V17H261.8z"/>
	<path class="st1" d="M264.8,17V9.9h1.1v1c0.5-0.8,1.3-1.2,2.3-1.2c0.4,0,0.8,0.1,1.2,0.2c0.4,0.2,0.6,0.4,0.8,0.6
		c0.2,0.2,0.3,0.5,0.4,0.9c0,0.2,0.1,0.6,0.1,1.2V17h-1.2v-4.3c0-0.5,0-0.9-0.1-1.1s-0.3-0.4-0.5-0.6c-0.2-0.1-0.5-0.2-0.8-0.2
		c-0.5,0-1,0.2-1.3,0.5s-0.6,0.9-0.6,1.9V17H264.8z"/>
	<path class="st1" d="M277.3,14.7l1.2,0.2c-0.2,0.7-0.6,1.3-1.1,1.7c-0.5,0.4-1.2,0.6-2,0.6c-1,0-1.9-0.3-2.5-1
		c-0.6-0.6-0.9-1.5-0.9-2.7s0.3-2.1,0.9-2.8c0.6-0.7,1.4-1,2.4-1s1.7,0.3,2.3,1s0.9,1.6,0.9,2.7c0,0.1,0,0.2,0,0.3h-5.3
		c0,0.8,0.3,1.4,0.7,1.8c0.4,0.4,0.9,0.6,1.5,0.6c0.4,0,0.8-0.1,1.1-0.3C276.9,15.6,277.1,15.2,277.3,14.7z M273.4,12.8h4
		c-0.1-0.6-0.2-1-0.5-1.3c-0.4-0.5-0.9-0.7-1.5-0.7s-1,0.2-1.4,0.6C273.6,11.7,273.4,12.2,273.4,12.8z"/>
	<path class="st1" d="M279.6,14.9l1.2-0.2c0.1,0.5,0.3,0.8,0.6,1.1c0.3,0.3,0.7,0.4,1.3,0.4c0.6,0,1-0.1,1.2-0.3
		c0.3-0.2,0.4-0.5,0.4-0.8s-0.1-0.5-0.4-0.6c-0.2-0.1-0.6-0.2-1.2-0.4c-0.9-0.2-1.5-0.4-1.8-0.6s-0.6-0.4-0.8-0.7s-0.3-0.6-0.3-1
		c0-0.3,0.1-0.6,0.2-0.9c0.1-0.3,0.3-0.5,0.6-0.7c0.2-0.1,0.4-0.3,0.8-0.4c0.3-0.1,0.7-0.1,1-0.1c0.6,0,1,0.1,1.5,0.2
		s0.7,0.4,0.9,0.7s0.3,0.6,0.4,1.1l-1.2,0.2c-0.1-0.4-0.2-0.7-0.5-0.9s-0.6-0.3-1.1-0.3c-0.6,0-0.9,0.1-1.2,0.3
		c-0.2,0.2-0.4,0.4-0.4,0.6c0,0.2,0,0.3,0.1,0.4c0.1,0.1,0.3,0.2,0.5,0.3c0.1,0,0.5,0.1,1.1,0.3c0.9,0.2,1.4,0.4,1.8,0.6
		s0.6,0.4,0.8,0.6c0.2,0.3,0.3,0.6,0.3,1s-0.1,0.8-0.4,1.1c-0.2,0.4-0.6,0.6-1,0.8s-0.9,0.3-1.5,0.3c-0.9,0-1.6-0.2-2.1-0.6
		C280,16.2,279.7,15.7,279.6,14.9z"/>
	<path class="st1" d="M290.3,13.5c0-1.3,0.4-2.3,1.1-2.9c0.6-0.5,1.4-0.8,2.2-0.8c1,0,1.8,0.3,2.4,1c0.6,0.6,0.9,1.5,0.9,2.7
		c0,0.9-0.1,1.6-0.4,2.2c-0.3,0.5-0.7,0.9-1.2,1.2s-1.1,0.4-1.7,0.4c-1,0-1.8-0.3-2.4-1S290.3,14.7,290.3,13.5z M291.5,13.5
		c0,0.9,0.2,1.6,0.6,2s0.9,0.7,1.5,0.7s1.1-0.2,1.5-0.7c0.4-0.5,0.6-1.2,0.6-2.1s-0.2-1.5-0.6-2s-0.9-0.7-1.5-0.7s-1.1,0.2-1.5,0.7
		S291.5,12.6,291.5,13.5z"/>
	<path class="st1" d="M298.4,17V9.9h1.1v1c0.5-0.8,1.3-1.2,2.3-1.2c0.4,0,0.8,0.1,1.2,0.2c0.4,0.2,0.6,0.4,0.8,0.6
		c0.2,0.2,0.3,0.5,0.4,0.9c0,0.2,0.1,0.6,0.1,1.2V17H303v-4.3c0-0.5,0-0.9-0.1-1.1s-0.3-0.4-0.5-0.6c-0.2-0.1-0.5-0.2-0.8-0.2
		c-0.5,0-1,0.2-1.3,0.5c-0.4,0.3-0.6,0.9-0.6,1.9V17H298.4z"/>
	<path class="st1" d="M309.3,14.9l1.2-0.2c0.1,0.5,0.3,0.8,0.6,1.1c0.3,0.3,0.7,0.4,1.3,0.4c0.6,0,1-0.1,1.2-0.3
		c0.3-0.2,0.4-0.5,0.4-0.8s-0.1-0.5-0.4-0.6c-0.2-0.1-0.6-0.2-1.2-0.4c-0.9-0.2-1.5-0.4-1.8-0.6s-0.6-0.4-0.8-0.7s-0.3-0.6-0.3-1
		c0-0.3,0.1-0.6,0.2-0.9c0.1-0.3,0.3-0.5,0.6-0.7c0.2-0.1,0.4-0.3,0.8-0.4c0.3-0.1,0.7-0.1,1-0.1c0.6,0,1,0.1,1.5,0.2
		s0.7,0.4,0.9,0.7s0.3,0.6,0.4,1.1l-1.2,0.2c-0.1-0.4-0.2-0.7-0.5-0.9s-0.6-0.3-1.1-0.3c-0.6,0-0.9,0.1-1.2,0.3
		c-0.2,0.2-0.4,0.4-0.4,0.6c0,0.2,0,0.3,0.1,0.4c0.1,0.1,0.3,0.2,0.5,0.3c0.1,0,0.5,0.1,1.1,0.3c0.9,0.2,1.4,0.4,1.8,0.6
		s0.6,0.4,0.8,0.6c0.2,0.3,0.3,0.6,0.3,1s-0.1,0.8-0.4,1.1c-0.2,0.4-0.6,0.6-1,0.8s-0.9,0.3-1.5,0.3c-0.9,0-1.6-0.2-2.1-0.6
		C309.8,16.2,309.5,15.7,309.3,14.9z"/>
	<path class="st1" d="M321.3,16.1c-0.4,0.4-0.9,0.6-1.3,0.8s-0.9,0.2-1.3,0.2c-0.8,0-1.4-0.2-1.8-0.6s-0.6-0.9-0.6-1.5
		c0-0.3,0.1-0.7,0.2-1c0.2-0.3,0.4-0.5,0.6-0.7c0.3-0.2,0.5-0.3,0.9-0.4c0.2-0.1,0.6-0.1,1.1-0.2c1-0.1,1.7-0.3,2.2-0.4
		c0-0.2,0-0.3,0-0.3c0-0.5-0.1-0.8-0.3-1c-0.3-0.3-0.8-0.4-1.4-0.4s-1,0.1-1.3,0.3s-0.5,0.6-0.6,1.1l-1.2-0.2
		c0.1-0.5,0.3-0.9,0.5-1.2s0.6-0.5,1.1-0.7s1-0.3,1.6-0.3s1.1,0.1,1.5,0.2c0.4,0.1,0.7,0.3,0.8,0.5s0.3,0.5,0.4,0.8
		c0,0.2,0.1,0.6,0.1,1.1V14c0,1.1,0,1.8,0.1,2.1c0.1,0.3,0.2,0.6,0.3,0.9h-1.3C321.4,16.8,321.4,16.5,321.3,16.1z M321.2,13.4
		c-0.4,0.2-1.1,0.3-2,0.5c-0.5,0.1-0.8,0.2-1.1,0.2c-0.2,0.1-0.4,0.2-0.5,0.4s-0.2,0.4-0.2,0.6c0,0.3,0.1,0.6,0.4,0.8
		c0.2,0.2,0.6,0.3,1.1,0.3s0.9-0.1,1.2-0.3c0.4-0.2,0.6-0.5,0.8-0.8c0.1-0.3,0.2-0.7,0.2-1.2v-0.5C321.1,13.4,321.2,13.4,321.2,13.4
		z"/>
	<path class="st1" d="M324.3,17V7.2h1.2V17H324.3z"/>
	<path class="st1" d="M332.2,14.7l1.2,0.2c-0.2,0.7-0.6,1.3-1.1,1.7c-0.5,0.4-1.2,0.6-2,0.6c-1,0-1.9-0.3-2.5-1
		c-0.6-0.6-0.9-1.5-0.9-2.7s0.3-2.1,0.9-2.8c0.6-0.7,1.4-1,2.4-1s1.7,0.3,2.3,1s0.9,1.6,0.9,2.7c0,0.1,0,0.2,0,0.3h-5.3
		c0,0.8,0.3,1.4,0.7,1.8c0.4,0.4,0.9,0.6,1.5,0.6c0.4,0,0.8-0.1,1.1-0.3C331.8,15.6,332.1,15.2,332.2,14.7z M328.3,12.8h4
		c-0.1-0.6-0.2-1-0.5-1.3c-0.4-0.5-0.9-0.7-1.5-0.7s-1,0.2-1.4,0.6C328.5,11.7,328.3,12.2,328.3,12.8z"/>
	<path class="st1" d="M335.6,14.6l-0.4-5.2V7.2h1.5v2.2l-0.3,5.2C336.4,14.6,335.6,14.6,335.6,14.6z M335.3,17v-1.4h1.4V17H335.3z"
		/>
	<path class="st1" d="M208.3,19v-1h129.6v1H208.3z"/>
</g>
<g class="st0">
	<path class="st2" d="M27.1,32.6l0.9,0.1c-0.1,0.7-0.4,1.2-0.8,1.5c-0.4,0.4-1,0.6-1.6,0.6c-0.8,0-1.4-0.3-1.9-0.8S23,32.8,23,31.8
		c0-0.6,0.1-1.2,0.3-1.6s0.5-0.8,0.9-1s0.9-0.3,1.4-0.3c0.6,0,1.1,0.2,1.5,0.5s0.6,0.8,0.8,1.3L27,30.8c-0.1-0.4-0.2-0.7-0.5-0.9
		c-0.2-0.2-0.5-0.3-0.8-0.3c-0.5,0-0.9,0.2-1.2,0.5S24,31,24,31.8s0.1,1.3,0.4,1.7s0.7,0.5,1.1,0.5s0.7-0.1,0.9-0.3
		C26.9,33.4,27.1,33,27.1,32.6z"/>
	<path class="st2" d="M28.6,31.8c0-1.1,0.3-1.8,0.9-2.3c0.5-0.4,1.1-0.6,1.8-0.6c0.8,0,1.4,0.3,1.9,0.8s0.7,1.2,0.7,2.1
		c0,0.7-0.1,1.3-0.3,1.7s-0.5,0.7-1,1s-0.9,0.3-1.4,0.3c-0.8,0-1.4-0.3-1.9-0.8C28.8,33.5,28.6,32.8,28.6,31.8z M29.5,31.8
		c0,0.7,0.2,1.3,0.5,1.6c0.3,0.4,0.7,0.5,1.2,0.5s0.9-0.2,1.2-0.5c0.3-0.4,0.5-0.9,0.5-1.7c0-0.7-0.2-1.2-0.5-1.6s-0.7-0.5-1.2-0.5
		s-0.9,0.2-1.2,0.5C29.7,30.5,29.5,31.1,29.5,31.8z"/>
	<path class="st2" d="M35,34.6v-7.9h1v2.8c0.5-0.5,1-0.8,1.7-0.8c0.4,0,0.8,0.1,1.1,0.2s0.5,0.4,0.7,0.7c0.1,0.3,0.2,0.7,0.2,1.3
		v3.6h-1V31c0-0.5-0.1-0.8-0.3-1.1c-0.2-0.2-0.5-0.3-0.9-0.3c-0.3,0-0.6,0.1-0.8,0.2s-0.4,0.3-0.5,0.6S36,31.1,36,31.5v3.1H35z"/>
	<path class="st2" d="M40.8,31.8c0-1.1,0.3-1.8,0.9-2.3c0.5-0.4,1.1-0.6,1.8-0.6c0.8,0,1.4,0.3,1.9,0.8s0.7,1.2,0.7,2.1
		c0,0.7-0.1,1.3-0.3,1.7s-0.5,0.7-1,1s-0.9,0.3-1.4,0.3c-0.8,0-1.4-0.3-1.9-0.8S40.8,32.8,40.8,31.8z M41.8,31.8
		c0,0.7,0.2,1.3,0.5,1.6c0.3,0.4,0.7,0.5,1.2,0.5s0.9-0.2,1.2-0.5c0.3-0.4,0.5-0.9,0.5-1.7c0-0.7-0.2-1.2-0.5-1.6s-0.7-0.5-1.2-0.5
		s-0.9,0.2-1.2,0.5C41.9,30.5,41.8,31.1,41.8,31.8z"/>
	<path class="st2" d="M48.3,34.6L46.5,29h1l0.9,3.3l0.3,1.2c0-0.1,0.1-0.5,0.3-1.2l1-3.3h1l0.9,3.3l0.3,1.1l0.3-1.1l1-3.3h0.9
		l-1.8,5.7h-1l-0.9-3.4l-0.2-1l-1.2,4.4h-1V34.6z"/>
	<path class="st2" d="M55.2,27.9v-1.1h1v1.1H55.2z M55.2,34.6V29h1v5.7h-1V34.6z"/>
	<path class="st2" d="M57.6,34.6V29h0.9v0.8c0.4-0.6,1-0.9,1.8-0.9c0.3,0,0.7,0.1,0.9,0.2c0.3,0.1,0.5,0.3,0.6,0.5s0.2,0.4,0.3,0.7
		c0,0.2,0.1,0.5,0.1,0.9v3.5h-1v-3.5c0-0.4,0-0.7-0.1-0.9c-0.1-0.2-0.2-0.3-0.4-0.5s-0.4-0.2-0.7-0.2c-0.4,0-0.8,0.1-1.1,0.4
		s-0.4,0.8-0.4,1.5v3.1H57.6z"/>
	<path class="st2" d="M67.6,32.8l1,0.1c-0.2,0.6-0.4,1-0.9,1.4c-0.4,0.3-1,0.5-1.6,0.5c-0.8,0-1.5-0.3-2-0.8s-0.7-1.2-0.7-2.2
		s0.2-1.7,0.7-2.2s1.1-0.8,1.9-0.8s1.4,0.3,1.9,0.8s0.7,1.2,0.7,2.2c0,0.1,0,0.1,0,0.3h-4.2c0,0.6,0.2,1.1,0.5,1.4
		c0.3,0.3,0.7,0.5,1.2,0.5c0.4,0,0.7-0.1,0.9-0.3C67.3,33.5,67.5,33.2,67.6,32.8z M64.4,31.3h3.2c0-0.5-0.2-0.8-0.4-1.1
		c-0.3-0.4-0.7-0.6-1.2-0.6c-0.4,0-0.8,0.1-1.1,0.4C64.6,30.4,64.5,30.8,64.4,31.3z"/>
	<path class="st2" d="M69.8,34.6V29h0.9v0.9c0.2-0.4,0.4-0.7,0.6-0.8c0.2-0.1,0.4-0.2,0.6-0.2c0.3,0,0.7,0.1,1,0.3L72.6,30
		c-0.2-0.1-0.5-0.2-0.7-0.2s-0.4,0.1-0.6,0.2s-0.3,0.3-0.4,0.5c-0.1,0.3-0.2,0.7-0.2,1.1v3H69.8z"/>
</g>
<g class="st0">
	<path class="st2" d="M73.4,36.8l-0.1-0.9c0.2,0.1,0.4,0.1,0.6,0.1s0.4,0,0.5-0.1s0.2-0.2,0.3-0.3c0.1-0.1,0.2-0.3,0.3-0.7
		c0-0.1,0-0.1,0.1-0.2L72.9,29h1l1.2,3.3c0.2,0.4,0.3,0.9,0.4,1.3c0.1-0.4,0.2-0.9,0.4-1.3l1.2-3.3h1L76,34.7
		c-0.2,0.6-0.4,1.1-0.5,1.3c-0.2,0.3-0.4,0.6-0.6,0.7S74.4,37,74,37C73.9,37,73.6,36.9,73.4,36.8z"/>
</g>
<g class="st0">
	<path class="st2" d="M78.4,34.6v-1.1h1.1v1.1H78.4z"/>
	<path class="st2" d="M84.9,32.6l0.9,0.1c-0.1,0.7-0.4,1.2-0.8,1.5c-0.4,0.4-1,0.6-1.6,0.6c-0.8,0-1.4-0.3-1.9-0.8s-0.7-1.2-0.7-2.2
		c0-0.6,0.1-1.2,0.3-1.6s0.5-0.8,0.9-1s0.9-0.3,1.4-0.3c0.6,0,1.1,0.2,1.5,0.5s0.6,0.8,0.8,1.3l-0.9,0.1c-0.1-0.4-0.2-0.7-0.5-0.9
		c-0.2-0.2-0.5-0.3-0.8-0.3c-0.5,0-0.9,0.2-1.2,0.5s-0.5,0.9-0.5,1.7s0.1,1.3,0.4,1.7S83,34,83.5,34c0.4,0,0.7-0.1,0.9-0.3
		C84.7,33.4,84.8,33,84.9,32.6z"/>
	<path class="st2" d="M86.3,31.8c0-1.1,0.3-1.8,0.9-2.3c0.5-0.4,1.1-0.6,1.8-0.6c0.8,0,1.4,0.3,1.9,0.8s0.7,1.2,0.7,2.1
		c0,0.7-0.1,1.3-0.3,1.7c-0.2,0.4-0.5,0.7-1,1s-0.9,0.3-1.4,0.3c-0.8,0-1.4-0.3-1.9-0.8C86.6,33.5,86.3,32.8,86.3,31.8z M87.3,31.8
		c0,0.7,0.2,1.3,0.5,1.6c0.3,0.4,0.7,0.5,1.2,0.5s0.9-0.2,1.2-0.5c0.3-0.4,0.5-0.9,0.5-1.7c0-0.7-0.2-1.2-0.5-1.6s-0.7-0.5-1.2-0.5
		s-0.9,0.2-1.2,0.5C87.5,30.5,87.3,31.1,87.3,31.8z"/>
	<path class="st2" d="M92.8,34.6V29h0.9v0.8c0.2-0.3,0.4-0.5,0.7-0.7c0.3-0.2,0.6-0.3,1-0.3s0.8,0.1,1,0.3s0.5,0.4,0.6,0.7
		c0.5-0.7,1-1,1.8-1c0.6,0,1,0.2,1.3,0.5s0.5,0.8,0.5,1.4v3.9h-1V31c0-0.4,0-0.7-0.1-0.8c-0.1-0.2-0.2-0.3-0.3-0.4
		c-0.2-0.1-0.4-0.2-0.6-0.2c-0.4,0-0.7,0.1-1,0.4s-0.4,0.7-0.4,1.3v3.3h-1V31c0-0.4-0.1-0.8-0.2-1c-0.2-0.2-0.4-0.3-0.8-0.3
		c-0.3,0-0.5,0.1-0.8,0.2s-0.4,0.4-0.5,0.6s-0.2,0.7-0.2,1.2v3h-0.9V34.6z"/>
	<path class="st2" d="M104.6,32.3v-1h3v1H104.6z"/>
	<path class="st2" d="M111.5,30.8c0-1.3,0.4-2.3,1.1-3.1c0.7-0.7,1.6-1.1,2.7-1.1c0.7,0,1.4,0.2,2,0.5s1,0.8,1.3,1.5
		c0.3,0.6,0.5,1.3,0.5,2.1c0,0.8-0.2,1.5-0.5,2.1c-0.3,0.6-0.8,1.1-1.4,1.4c-0.6,0.3-1.2,0.5-1.9,0.5c-0.7,0-1.4-0.2-2-0.5
		s-1-0.8-1.3-1.5C111.7,32.2,111.5,31.5,111.5,30.8z M112.6,30.8c0,0.9,0.3,1.7,0.8,2.2s1.1,0.8,1.9,0.8s1.4-0.3,1.9-0.8
		s0.8-1.3,0.8-2.3c0-0.6-0.1-1.2-0.3-1.7c-0.2-0.5-0.5-0.8-0.9-1.1s-0.9-0.4-1.4-0.4c-0.7,0-1.4,0.3-1.9,0.8S112.6,29.7,112.6,30.8z
		"/>
</g>
<g class="st0">
	<path class="st2" d="M120.5,34.6v-4.9h-0.9V29h0.9v-0.6c0-0.4,0-0.7,0.1-0.9c0.1-0.2,0.3-0.5,0.5-0.6s0.6-0.2,1-0.2
		c0.3,0,0.6,0,0.9,0.1l-0.1,0.8c-0.2,0-0.4-0.1-0.6-0.1c-0.3,0-0.5,0.1-0.6,0.2s-0.2,0.4-0.2,0.7V29h1.1v0.8h-1.1v4.9h-1
		C120.5,34.7,120.5,34.6,120.5,34.6z"/>
</g>
<g class="st0">
	<path class="st2" d="M123.3,34.6v-4.9h-0.9V29h0.9v-0.6c0-0.4,0-0.7,0.1-0.9c0.1-0.2,0.3-0.5,0.5-0.6c0.2-0.2,0.6-0.2,1-0.2
		c0.3,0,0.6,0,0.9,0.1l-0.1,0.8c-0.2,0-0.4-0.1-0.6-0.1c-0.3,0-0.5,0.1-0.6,0.2s-0.2,0.4-0.2,0.7V29h1.1v0.8h-1.1v4.9h-1
		C123.3,34.7,123.3,34.6,123.3,34.6z"/>
	<path class="st2" d="M126.1,27.9v-1.1h1v1.1H126.1z M126.1,34.6V29h1v5.7h-1V34.6z"/>
	<path class="st2" d="M132.3,32.6l0.9,0.1c-0.1,0.7-0.4,1.2-0.8,1.5c-0.4,0.4-1,0.6-1.6,0.6c-0.8,0-1.4-0.3-1.9-0.8
		s-0.7-1.2-0.7-2.2c0-0.6,0.1-1.2,0.3-1.6s0.5-0.8,0.9-1s0.9-0.3,1.4-0.3c0.6,0,1.1,0.2,1.5,0.5s0.6,0.8,0.8,1.3l-0.9,0.1
		c-0.1-0.4-0.2-0.7-0.5-0.9c-0.2-0.2-0.5-0.3-0.8-0.3c-0.5,0-0.9,0.2-1.2,0.5s-0.5,0.9-0.5,1.7s0.1,1.3,0.4,1.7s0.7,0.5,1.1,0.5
		c0.4,0,0.7-0.1,0.9-0.3C132.1,33.4,132.2,33,132.3,32.6z"/>
	<path class="st2" d="M134.1,27.9v-1.1h1v1.1H134.1z M134.1,34.6V29h1v5.7h-1V34.6z"/>
	<path class="st2" d="M140.2,33.9c-0.4,0.3-0.7,0.5-1,0.6s-0.7,0.2-1.1,0.2c-0.6,0-1.1-0.2-1.4-0.5s-0.5-0.7-0.5-1.2
		c0-0.3,0.1-0.5,0.2-0.8c0.1-0.2,0.3-0.4,0.5-0.6c0.2-0.1,0.4-0.2,0.7-0.3c0.2,0,0.5-0.1,0.9-0.1c0.8-0.1,1.4-0.2,1.7-0.3
		c0-0.1,0-0.2,0-0.3c0-0.4-0.1-0.7-0.3-0.8c-0.2-0.2-0.6-0.3-1.1-0.3s-0.8,0.1-1,0.2s-0.4,0.4-0.5,0.8l-0.9-0.1
		c0.1-0.4,0.2-0.7,0.4-1c0.2-0.2,0.5-0.4,0.9-0.6c0.4-0.1,0.8-0.2,1.3-0.2s0.9,0.1,1.2,0.2s0.5,0.3,0.7,0.4c0.1,0.2,0.2,0.4,0.3,0.7
		c0,0.2,0,0.5,0,0.9v1.3c0,0.9,0,1.5,0.1,1.7s0.1,0.5,0.2,0.7h-1C140.3,34.4,140.2,34.2,140.2,33.9z M140.1,31.8
		c-0.4,0.1-0.9,0.3-1.6,0.4c-0.4,0.1-0.7,0.1-0.8,0.2c-0.2,0.1-0.3,0.2-0.4,0.3s-0.1,0.3-0.1,0.5c0,0.3,0.1,0.5,0.3,0.6
		s0.5,0.3,0.9,0.3s0.7-0.1,1-0.2c0.3-0.2,0.5-0.4,0.6-0.7c0.1-0.2,0.2-0.5,0.2-1L140.1,31.8L140.1,31.8z"/>
	<path class="st2" d="M142.6,34.6v-7.9h1v7.9H142.6z"/>
	<path class="st2" d="M147.7,33l1-0.2c0.1,0.4,0.2,0.7,0.4,0.9s0.6,0.3,1,0.3s0.8-0.1,1-0.3s0.3-0.4,0.3-0.6c0-0.2-0.1-0.4-0.3-0.5
		c-0.1-0.1-0.5-0.2-1-0.3c-0.7-0.2-1.2-0.3-1.5-0.5c-0.3-0.1-0.5-0.3-0.6-0.5s-0.2-0.5-0.2-0.8s0.1-0.5,0.2-0.7
		c0.1-0.2,0.3-0.4,0.5-0.5c0.1-0.1,0.4-0.2,0.6-0.3s0.5-0.1,0.8-0.1c0.4,0,0.8,0.1,1.2,0.2c0.3,0.1,0.6,0.3,0.7,0.5
		c0.2,0.2,0.3,0.5,0.3,0.9l-0.9,0.1c0-0.3-0.2-0.5-0.4-0.7s-0.5-0.2-0.9-0.2s-0.8,0.1-0.9,0.2c-0.2,0.1-0.3,0.3-0.3,0.5
		c0,0.1,0,0.2,0.1,0.3c0.1,0.1,0.2,0.2,0.4,0.3c0.1,0,0.4,0.1,0.9,0.2c0.7,0.2,1.2,0.3,1.4,0.4c0.3,0.1,0.5,0.3,0.6,0.5
		s0.2,0.5,0.2,0.8s-0.1,0.6-0.3,0.9c-0.2,0.3-0.5,0.5-0.8,0.7s-0.8,0.2-1.2,0.2c-0.7,0-1.3-0.2-1.7-0.5
		C148.1,34,147.8,33.6,147.7,33z"/>
	<path class="st2" d="M153.6,27.9v-1.1h1v1.1H153.6z M153.6,34.6V29h1v5.7h-1V34.6z"/>
	<path class="st2" d="M158.1,33.8l0.1,0.9c-0.3,0.1-0.5,0.1-0.7,0.1c-0.4,0-0.6-0.1-0.8-0.2c-0.2-0.1-0.3-0.3-0.4-0.4
		s-0.1-0.6-0.1-1.1v-3.3h-0.7V29h0.7v-1.4l1-0.6v2h1v0.8h-1V33c0,0.3,0,0.5,0.1,0.5c0,0.1,0.1,0.1,0.2,0.2c0.1,0,0.2,0.1,0.3,0.1
		C157.8,33.8,158,33.8,158.1,33.8z"/>
	<path class="st2" d="M163,32.8l1,0.1c-0.2,0.6-0.4,1-0.9,1.4c-0.4,0.3-1,0.5-1.6,0.5c-0.8,0-1.5-0.3-2-0.8s-0.7-1.2-0.7-2.2
		s0.2-1.7,0.7-2.2s1.1-0.8,1.9-0.8c0.8,0,1.4,0.3,1.9,0.8s0.7,1.2,0.7,2.2c0,0.1,0,0.1,0,0.3h-4.2c0,0.6,0.2,1.1,0.5,1.4
		c0.3,0.3,0.7,0.5,1.2,0.5c0.4,0,0.7-0.1,0.9-0.3C162.6,33.5,162.8,33.2,163,32.8z M159.8,31.3h3.2c0-0.5-0.2-0.8-0.4-1.1
		c-0.3-0.4-0.7-0.6-1.2-0.6c-0.4,0-0.8,0.1-1.1,0.4C160,30.4,159.8,30.8,159.8,31.3z"/>
</g>
<g class="st0">
	<path class="st3" d="M171.1,32.1l1-0.1c0,0.4,0.2,0.7,0.3,1c0.2,0.3,0.4,0.5,0.8,0.6s0.8,0.2,1.2,0.2s0.7-0.1,1.1-0.2
		s0.5-0.3,0.7-0.5s0.2-0.4,0.2-0.7c0-0.2-0.1-0.5-0.2-0.6c-0.1-0.2-0.4-0.3-0.7-0.5c-0.2-0.1-0.7-0.2-1.4-0.4
		c-0.7-0.2-1.2-0.3-1.5-0.5c-0.4-0.2-0.7-0.4-0.8-0.7c-0.2-0.3-0.3-0.6-0.3-1s0.1-0.8,0.3-1.1s0.6-0.6,1-0.8s0.9-0.3,1.4-0.3
		c0.6,0,1.1,0.1,1.5,0.3c0.4,0.2,0.8,0.5,1,0.8s0.4,0.8,0.4,1.2l-1,0.1c-0.1-0.5-0.2-0.9-0.5-1.1c-0.3-0.3-0.8-0.4-1.4-0.4
		c-0.6,0-1.1,0.1-1.4,0.3s-0.4,0.5-0.4,0.8s0.1,0.5,0.3,0.7s0.7,0.4,1.6,0.6c0.8,0.2,1.4,0.4,1.7,0.5c0.5,0.2,0.8,0.5,1,0.8
		s0.3,0.7,0.3,1.1c0,0.4-0.1,0.8-0.4,1.2c-0.2,0.4-0.6,0.7-1,0.9s-1,0.3-1.5,0.3c-0.7,0-1.3-0.1-1.8-0.3s-0.9-0.5-1.1-0.9
		C171.2,33.1,171.1,32.6,171.1,32.1z"/>
	<path class="st3" d="M178.6,27.9v-1.1h1v1.1H178.6z M178.6,34.6V29h1v5.7h-1V34.6z"/>
	<path class="st3" d="M183.2,33.8l0.1,0.9c-0.3,0.1-0.5,0.1-0.7,0.1c-0.4,0-0.6-0.1-0.8-0.2c-0.2-0.1-0.3-0.3-0.4-0.4
		c-0.1-0.2-0.1-0.6-0.1-1.1v-3.3h-0.7V29h0.7v-1.4l1-0.6v2h1v0.8h-1V33c0,0.3,0,0.5,0.1,0.5c0,0.1,0.1,0.1,0.2,0.2
		c0.1,0,0.2,0.1,0.3,0.1C182.8,33.8,183,33.8,183.2,33.8z"/>
	<path class="st3" d="M188,32.8l1,0.1c-0.2,0.6-0.4,1-0.9,1.4c-0.4,0.3-1,0.5-1.6,0.5c-0.8,0-1.5-0.3-2-0.8s-0.7-1.2-0.7-2.2
		s0.2-1.7,0.7-2.2s1.1-0.8,1.9-0.8c0.8,0,1.4,0.3,1.9,0.8s0.7,1.2,0.7,2.2c0,0.1,0,0.1,0,0.3h-4.2c0,0.6,0.2,1.1,0.5,1.4
		c0.3,0.3,0.7,0.5,1.2,0.5c0.4,0,0.7-0.1,0.9-0.3C187.6,33.5,187.8,33.2,188,32.8z M184.8,31.3h3.2c0-0.5-0.2-0.8-0.4-1.1
		c-0.3-0.4-0.7-0.6-1.2-0.6c-0.4,0-0.8,0.1-1.1,0.4C185,30.4,184.9,30.8,184.8,31.3z"/>
	<path class="st3" d="M192.9,33l1-0.2c0.1,0.4,0.2,0.7,0.4,0.9s0.6,0.3,1,0.3s0.8-0.1,1-0.3s0.3-0.4,0.3-0.6c0-0.2-0.1-0.4-0.3-0.5
		c-0.1-0.1-0.5-0.2-1-0.3c-0.7-0.2-1.2-0.3-1.5-0.5c-0.3-0.1-0.5-0.3-0.6-0.5s-0.2-0.5-0.2-0.8s0.1-0.5,0.2-0.7
		c0.1-0.2,0.3-0.4,0.5-0.5s0.4-0.2,0.6-0.3c0.3-0.1,0.5-0.1,0.8-0.1c0.4,0,0.8,0.1,1.2,0.2c0.3,0.1,0.6,0.3,0.7,0.5
		c0.2,0.2,0.3,0.5,0.3,0.9l-0.9,0.1c0-0.3-0.2-0.5-0.4-0.7s-0.5-0.2-0.9-0.2s-0.8,0.1-0.9,0.2c-0.2,0.1-0.3,0.3-0.3,0.5
		c0,0.1,0,0.2,0.1,0.3c0.1,0.1,0.2,0.2,0.4,0.3c0.1,0,0.4,0.1,0.9,0.2c0.7,0.2,1.2,0.3,1.4,0.4c0.3,0.1,0.5,0.3,0.6,0.5
		c0.2,0.2,0.2,0.5,0.2,0.8s-0.1,0.6-0.3,0.9s-0.5,0.5-0.8,0.7c-0.4,0.2-0.8,0.2-1.2,0.2c-0.7,0-1.3-0.2-1.7-0.5
		C193.2,34,193,33.6,192.9,33z"/>
	<path class="st3" d="M202.6,32.8l1,0.1c-0.2,0.6-0.4,1-0.9,1.4c-0.4,0.3-1,0.5-1.6,0.5c-0.8,0-1.5-0.3-2-0.8s-0.7-1.2-0.7-2.2
		s0.2-1.7,0.7-2.2s1.1-0.8,1.9-0.8c0.8,0,1.4,0.3,1.9,0.8s0.7,1.2,0.7,2.2c0,0.1,0,0.1,0,0.3h-4.2c0,0.6,0.2,1.1,0.5,1.4
		c0.3,0.3,0.7,0.5,1.2,0.5c0.4,0,0.7-0.1,0.9-0.3C202.3,33.5,202.5,33.2,202.6,32.8z M199.5,31.3h3.2c0-0.5-0.2-0.8-0.4-1.1
		c-0.3-0.4-0.7-0.6-1.2-0.6c-0.4,0-0.8,0.1-1.1,0.4S199.5,30.8,199.5,31.3z"/>
	<path class="st3" d="M208.6,32.6l0.9,0.1c-0.1,0.7-0.4,1.2-0.8,1.5c-0.4,0.4-1,0.6-1.6,0.6c-0.8,0-1.4-0.3-1.9-0.8
		s-0.7-1.2-0.7-2.2c0-0.6,0.1-1.2,0.3-1.6c0.2-0.5,0.5-0.8,0.9-1s0.9-0.3,1.4-0.3c0.6,0,1.1,0.2,1.5,0.5s0.6,0.8,0.8,1.3l-0.9,0.1
		c-0.1-0.4-0.2-0.7-0.5-0.9c-0.2-0.2-0.5-0.3-0.8-0.3c-0.5,0-0.9,0.2-1.2,0.5s-0.5,0.9-0.5,1.7s0.1,1.3,0.4,1.7s0.7,0.5,1.1,0.5
		c0.4,0,0.7-0.1,0.9-0.3C208.3,33.4,208.5,33,208.6,32.6z"/>
	<path class="st3" d="M214.1,34.6v-0.8c-0.4,0.6-1,1-1.8,1c-0.3,0-0.6-0.1-0.9-0.2c-0.3-0.1-0.5-0.3-0.6-0.5s-0.2-0.4-0.3-0.7
		c0-0.2-0.1-0.5-0.1-0.9V29h1v3.2c0,0.5,0,0.8,0.1,1c0.1,0.3,0.2,0.5,0.4,0.6s0.4,0.2,0.7,0.2s0.6-0.1,0.8-0.2s0.4-0.4,0.5-0.6
		c0.1-0.3,0.2-0.6,0.2-1.1v-3h1v5.7h-1L214.1,34.6L214.1,34.6z"/>
	<path class="st3" d="M216.4,34.6V29h0.9v0.9c0.2-0.4,0.4-0.7,0.6-0.8c0.2-0.1,0.4-0.2,0.6-0.2c0.3,0,0.7,0.1,1,0.3l-0.3,0.9
		c-0.2-0.1-0.5-0.2-0.7-0.2s-0.4,0.1-0.6,0.2s-0.3,0.3-0.4,0.5c-0.1,0.3-0.2,0.7-0.2,1.1v3L216.4,34.6L216.4,34.6z"/>
	<path class="st3" d="M224,32.8l1,0.1c-0.2,0.6-0.4,1-0.9,1.4c-0.4,0.3-1,0.5-1.6,0.5c-0.8,0-1.5-0.3-2-0.8s-0.7-1.2-0.7-2.2
		s0.2-1.7,0.7-2.2s1.1-0.8,1.9-0.8c0.8,0,1.4,0.3,1.9,0.8s0.7,1.2,0.7,2.2c0,0.1,0,0.1,0,0.3h-4.2c0,0.6,0.2,1.1,0.5,1.4
		c0.3,0.3,0.7,0.5,1.2,0.5c0.4,0,0.7-0.1,0.9-0.3C223.7,33.5,223.9,33.2,224,32.8z M220.8,31.3h3.2c0-0.5-0.2-0.8-0.4-1.1
		c-0.3-0.4-0.7-0.6-1.2-0.6c-0.4,0-0.8,0.1-1.1,0.4C221,30.4,220.9,30.8,220.8,31.3z"/>
	<path class="st3" d="M229.9,34.6v-0.7c-0.4,0.6-0.9,0.8-1.6,0.8c-0.5,0-0.9-0.1-1.3-0.4c-0.4-0.2-0.7-0.6-0.9-1s-0.3-1-0.3-1.5
		c0-0.6,0.1-1.1,0.3-1.5c0.2-0.5,0.5-0.8,0.9-1.1c0.4-0.2,0.8-0.4,1.3-0.4c0.3,0,0.6,0.1,0.9,0.2c0.3,0.1,0.5,0.3,0.7,0.6v-2.8h1
		v7.9L229.9,34.6L229.9,34.6z M226.9,31.8c0,0.7,0.2,1.3,0.5,1.6c0.3,0.4,0.7,0.5,1.1,0.5c0.4,0,0.8-0.2,1.1-0.5s0.4-0.9,0.4-1.6
		c0-0.8-0.1-1.4-0.5-1.7c-0.3-0.4-0.7-0.5-1.1-0.5c-0.4,0-0.8,0.2-1.1,0.5S226.9,31.1,226.9,31.8z"/>
	<path class="st3" d="M236.3,34.6h-0.9v-7.9h1v2.8c0.4-0.5,0.9-0.8,1.6-0.8c0.3,0,0.7,0.1,1,0.2s0.6,0.3,0.8,0.6
		c0.2,0.3,0.4,0.6,0.5,0.9c0.1,0.4,0.2,0.7,0.2,1.2c0,1-0.2,1.7-0.7,2.3c-0.5,0.5-1.1,0.8-1.7,0.8c-0.7,0-1.2-0.3-1.6-0.8v0.7
		C236.5,34.6,236.3,34.6,236.3,34.6z M236.2,31.8c0,0.7,0.1,1.2,0.3,1.5c0.3,0.5,0.7,0.7,1.2,0.7c0.4,0,0.8-0.2,1.1-0.5
		c0.3-0.4,0.5-0.9,0.5-1.6c0-0.7-0.1-1.3-0.4-1.6s-0.7-0.5-1.1-0.5c-0.4,0-0.8,0.2-1.1,0.5S236.2,31.1,236.2,31.8z"/>
	<path class="st3" d="M241.4,36.8l-0.1-0.9c0.2,0.1,0.4,0.1,0.6,0.1c0.2,0,0.4,0,0.5-0.1s0.2-0.2,0.3-0.3s0.2-0.3,0.3-0.7
		c0-0.1,0-0.1,0.1-0.2l-2.2-5.7h1l1.2,3.3c0.2,0.4,0.3,0.9,0.4,1.3c0.1-0.4,0.2-0.9,0.4-1.3l1.2-3.3h1l-2.2,5.8
		c-0.2,0.6-0.4,1.1-0.5,1.3c-0.2,0.3-0.4,0.6-0.6,0.7S242.3,37,242,37C241.9,37,241.7,36.9,241.4,36.8z"/>
	<path class="st3" d="M250.1,34.6v-7.9h1.1l4.1,6.2v-6.2h1v7.9h-1.1l-4.1-6.2v6.2H250.1z"/>
	<path class="st3" d="M257.6,31.8c0-1.1,0.3-1.8,0.9-2.3c0.5-0.4,1.1-0.6,1.8-0.6c0.8,0,1.4,0.3,1.9,0.8s0.7,1.2,0.7,2.1
		c0,0.7-0.1,1.3-0.3,1.7c-0.2,0.4-0.5,0.7-1,1s-0.9,0.3-1.4,0.3c-0.8,0-1.4-0.3-1.9-0.8C257.8,33.5,257.6,32.8,257.6,31.8z
		 M258.6,31.8c0,0.7,0.2,1.3,0.5,1.6c0.3,0.4,0.7,0.5,1.2,0.5s0.9-0.2,1.2-0.5c0.3-0.4,0.5-0.9,0.5-1.7c0-0.7-0.2-1.2-0.5-1.6
		s-0.7-0.5-1.2-0.5s-0.9,0.2-1.2,0.5C258.7,30.5,258.6,31.1,258.6,31.8z"/>
	<path class="st3" d="M264,34.6V29h0.9v0.9c0.2-0.4,0.4-0.7,0.6-0.8c0.2-0.1,0.4-0.2,0.6-0.2c0.3,0,0.7,0.1,1,0.3l-0.3,0.9
		c-0.2-0.1-0.5-0.2-0.7-0.2s-0.4,0.1-0.6,0.2s-0.3,0.3-0.4,0.5c-0.1,0.3-0.2,0.7-0.2,1.1v3L264,34.6L264,34.6z"/>
	<path class="st3" d="M269.8,33.8l0.1,0.9c-0.3,0.1-0.5,0.1-0.7,0.1c-0.4,0-0.6-0.1-0.8-0.2c-0.2-0.1-0.3-0.3-0.4-0.4
		c-0.1-0.2-0.1-0.6-0.1-1.1v-3.3h-0.7V29h0.7v-1.4l1-0.6v2h1v0.8h-1V33c0,0.3,0,0.5,0.1,0.5c0,0.1,0.1,0.1,0.2,0.2
		c0.1,0,0.2,0.1,0.3,0.1C269.5,33.8,269.6,33.8,269.8,33.8z"/>
	<path class="st3" d="M270.4,31.8c0-1.1,0.3-1.8,0.9-2.3c0.5-0.4,1.1-0.6,1.8-0.6c0.8,0,1.4,0.3,1.9,0.8s0.7,1.2,0.7,2.1
		c0,0.7-0.1,1.3-0.3,1.7c-0.2,0.4-0.5,0.7-1,1s-0.9,0.3-1.4,0.3c-0.8,0-1.4-0.3-1.9-0.8S270.4,32.8,270.4,31.8z M271.4,31.8
		c0,0.7,0.2,1.3,0.5,1.6c0.3,0.4,0.7,0.5,1.2,0.5s0.9-0.2,1.2-0.5c0.3-0.4,0.5-0.9,0.5-1.7c0-0.7-0.2-1.2-0.5-1.6s-0.7-0.5-1.2-0.5
		s-0.9,0.2-1.2,0.5C271.5,30.5,271.4,31.1,271.4,31.8z"/>
	<path class="st3" d="M276.9,34.6V29h0.9v0.8c0.4-0.6,1-0.9,1.8-0.9c0.3,0,0.7,0.1,0.9,0.2c0.3,0.1,0.5,0.3,0.6,0.5s0.2,0.4,0.3,0.7
		c0,0.2,0.1,0.5,0.1,0.9v3.5h-1v-3.5c0-0.4,0-0.7-0.1-0.9c-0.1-0.2-0.2-0.3-0.4-0.5s-0.4-0.2-0.7-0.2c-0.4,0-0.8,0.1-1.1,0.4
		c-0.3,0.3-0.4,0.8-0.4,1.5v3.1H276.9z"/>
</g>
<g class="st0">
	<path d="M7.1,52.3l3-7.9h1.1l3.2,7.9h-1.2l-0.9-2.4H9.1l-0.9,2.4H7.1z M9.4,49.1h2.7l-0.8-2.2c-0.3-0.7-0.4-1.2-0.6-1.6
		c-0.1,0.5-0.2,1-0.4,1.5L9.4,49.1z"/>
	<path d="M15.2,52.3v-7.9h1v7.9H15.2z"/>
	<path d="M17.6,52.3v-7.9h1v7.9H17.6z"/>
	<path d="M23.1,52.3v-5.7H24v0.9c0.2-0.4,0.4-0.7,0.6-0.8s0.4-0.2,0.6-0.2c0.3,0,0.7,0.1,1,0.3l-0.3,0.9c-0.2-0.1-0.5-0.2-0.7-0.2
		s-0.4,0.1-0.6,0.2s-0.3,0.3-0.4,0.5c-0.1,0.3-0.2,0.7-0.2,1.1v3H23.1z"/>
	<path d="M30.7,50.5l1,0.1c-0.2,0.6-0.4,1-0.9,1.4c-0.4,0.3-1,0.5-1.6,0.5c-0.8,0-1.5-0.3-2-0.8s-0.7-1.2-0.7-2.2s0.2-1.7,0.7-2.2
		s1.1-0.8,1.9-0.8s1.4,0.3,1.9,0.8s0.7,1.2,0.7,2.2c0,0.1,0,0.1,0,0.3h-4.2c0,0.6,0.2,1.1,0.5,1.4c0.3,0.3,0.7,0.5,1.2,0.5
		c0.4,0,0.7-0.1,0.9-0.3S30.5,50.9,30.7,50.5z M27.5,48.9h3.2c0-0.5-0.2-0.8-0.4-1.1c-0.3-0.4-0.7-0.6-1.2-0.6
		c-0.4,0-0.8,0.1-1.1,0.4C27.7,48,27.6,48.4,27.5,48.9z"/>
	<path d="M36.6,52.3v-0.7c-0.4,0.6-0.9,0.8-1.6,0.8c-0.5,0-0.9-0.1-1.3-0.4c-0.4-0.2-0.7-0.6-0.9-1s-0.3-1-0.3-1.5
		c0-0.6,0.1-1.1,0.3-1.5c0.2-0.5,0.5-0.8,0.9-1.1c0.4-0.2,0.8-0.4,1.3-0.4c0.3,0,0.6,0.1,0.9,0.2s0.5,0.3,0.7,0.6v-2.8h1v7.9
		L36.6,52.3L36.6,52.3z M33.5,49.4c0,0.7,0.2,1.3,0.5,1.6c0.3,0.4,0.7,0.5,1.1,0.5c0.4,0,0.8-0.2,1.1-0.5s0.4-0.9,0.4-1.6
		c0-0.8-0.1-1.4-0.5-1.7s-0.7-0.5-1.1-0.5c-0.4,0-0.8,0.2-1.1,0.5C33.7,48.1,33.5,48.7,33.5,49.4z"/>
	<path d="M43.1,52.3l-1.7-5.7h1l0.9,3.3l0.3,1.2c0-0.1,0.1-0.5,0.3-1.2l0.9-3.3h1l0.9,3.3L47,51l0.3-1.1l1-3.3h0.9l-1.8,5.7h-1
		l-0.9-3.4l-0.2-1l-1.2,4.4C44.1,52.3,43.1,52.3,43.1,52.3z"/>
	<path d="M50,45.5v-1.1h1v1.1H50z M50,52.3v-5.7h1v5.7H50z"/>
	<path d="M52.4,52.3v-5.7h0.9v0.8c0.4-0.6,1-0.9,1.8-0.9c0.3,0,0.7,0.1,0.9,0.2c0.3,0.1,0.5,0.3,0.6,0.5s0.2,0.4,0.3,0.7
		c0,0.2,0.1,0.5,0.1,0.9v3.5h-1v-3.5c0-0.4,0-0.7-0.1-0.9s-0.2-0.3-0.4-0.5s-0.4-0.2-0.7-0.2c-0.4,0-0.8,0.1-1.1,0.4
		c-0.3,0.3-0.4,0.8-0.4,1.5v3.1h-0.9C52.4,52.2,52.4,52.3,52.4,52.3z"/>
	<path d="M62.4,50.5l1,0.1c-0.2,0.6-0.4,1-0.9,1.4c-0.4,0.3-1,0.5-1.6,0.5c-0.8,0-1.5-0.3-2-0.8s-0.7-1.2-0.7-2.2s0.2-1.7,0.7-2.2
		s1.1-0.8,1.9-0.8c0.8,0,1.4,0.3,1.9,0.8s0.7,1.2,0.7,2.2c0,0.1,0,0.1,0,0.3h-4.2c0,0.6,0.2,1.1,0.5,1.4c0.3,0.3,0.7,0.5,1.2,0.5
		c0.4,0,0.7-0.1,0.9-0.3C62.1,51.2,62.3,50.9,62.4,50.5z M59.3,48.9h3.2c0-0.5-0.2-0.8-0.4-1.1c-0.3-0.4-0.7-0.6-1.2-0.6
		c-0.4,0-0.8,0.1-1.1,0.4C59.5,48,59.3,48.4,59.3,48.9z"/>
	<path d="M64.3,50.6l1-0.2c0.1,0.4,0.2,0.7,0.4,0.9c0.2,0.2,0.6,0.3,1,0.3s0.8-0.1,1-0.3S68,51,68,50.7c0-0.2-0.1-0.4-0.3-0.5
		c-0.1-0.1-0.5-0.2-1-0.3c-0.7-0.2-1.2-0.3-1.5-0.5c-0.3-0.1-0.5-0.3-0.6-0.5s-0.2-0.5-0.2-0.8s0.1-0.5,0.2-0.7s0.3-0.4,0.5-0.5
		c0.1-0.1,0.4-0.2,0.6-0.3s0.5-0.1,0.8-0.1c0.4,0,0.8,0.1,1.2,0.2c0.3,0.1,0.6,0.3,0.7,0.5c0.2,0.2,0.3,0.5,0.3,0.9l-0.9,0.1
		c0-0.3-0.2-0.5-0.4-0.7s-0.5-0.2-0.9-0.2s-0.8,0.1-0.9,0.2c-0.2,0.1-0.3,0.3-0.3,0.5c0,0.1,0,0.2,0.1,0.3s0.2,0.2,0.4,0.3
		c0.1,0,0.4,0.1,0.9,0.2c0.7,0.2,1.2,0.3,1.4,0.4c0.3,0.1,0.5,0.3,0.6,0.5s0.2,0.5,0.2,0.8s-0.1,0.6-0.3,0.9
		c-0.2,0.3-0.5,0.5-0.8,0.7s-0.8,0.2-1.2,0.2c-0.7,0-1.3-0.2-1.7-0.5C64.6,51.7,64.4,51.2,64.3,50.6z"/>
	<path d="M72.8,49.4c0-1.1,0.3-1.8,0.9-2.3c0.5-0.4,1.1-0.6,1.8-0.6c0.8,0,1.4,0.3,1.9,0.8s0.7,1.2,0.7,2.1c0,0.7-0.1,1.3-0.3,1.7
		c-0.2,0.4-0.5,0.7-1,1s-0.9,0.3-1.4,0.3c-0.8,0-1.4-0.3-1.9-0.8C73.1,51.1,72.8,50.4,72.8,49.4z M73.8,49.4c0,0.7,0.2,1.3,0.5,1.6
		c0.3,0.4,0.7,0.5,1.2,0.5s0.9-0.2,1.2-0.5c0.3-0.4,0.5-0.9,0.5-1.7c0-0.7-0.2-1.2-0.5-1.6c-0.3-0.4-0.7-0.5-1.2-0.5
		s-0.9,0.2-1.2,0.5C74,48.2,73.8,48.7,73.8,49.4z"/>
	<path d="M79.3,52.3v-5.7h0.9v0.8c0.4-0.6,1-0.9,1.8-0.9c0.3,0,0.7,0.1,0.9,0.2c0.3,0.1,0.5,0.3,0.6,0.5s0.2,0.4,0.3,0.7
		c0,0.2,0.1,0.5,0.1,0.9v3.5h-1v-3.5c0-0.4,0-0.7-0.1-0.9s-0.2-0.3-0.4-0.5s-0.4-0.2-0.7-0.2c-0.4,0-0.8,0.1-1.1,0.4
		c-0.3,0.3-0.4,0.8-0.4,1.5v3.1h-0.9C79.3,52.2,79.3,52.3,79.3,52.3z"/>
	<path d="M88.1,50.6l1-0.2c0.1,0.4,0.2,0.7,0.4,0.9c0.2,0.2,0.6,0.3,1,0.3s0.8-0.1,1-0.3s0.3-0.4,0.3-0.6c0-0.2-0.1-0.4-0.3-0.5
		c-0.1-0.1-0.5-0.2-1-0.3c-0.7-0.2-1.2-0.3-1.5-0.5c-0.3-0.1-0.5-0.3-0.6-0.5s-0.2-0.5-0.2-0.8s0.1-0.5,0.2-0.7s0.3-0.4,0.5-0.5
		c0.1-0.1,0.4-0.2,0.6-0.3s0.5-0.1,0.8-0.1c0.4,0,0.8,0.1,1.2,0.2c0.3,0.1,0.6,0.3,0.7,0.5c0.2,0.2,0.3,0.5,0.3,0.9l-0.9,0.1
		c0-0.3-0.2-0.5-0.4-0.7s-0.5-0.2-0.9-0.2s-0.8,0.1-0.9,0.2c-0.2,0.1-0.3,0.3-0.3,0.5c0,0.1,0,0.2,0.1,0.3s0.2,0.2,0.4,0.3
		c0.1,0,0.4,0.1,0.9,0.2c0.7,0.2,1.2,0.3,1.4,0.4c0.3,0.1,0.5,0.3,0.6,0.5s0.2,0.5,0.2,0.8s-0.1,0.6-0.3,0.9
		c-0.2,0.3-0.5,0.5-0.8,0.7s-0.8,0.2-1.2,0.2c-0.7,0-1.3-0.2-1.7-0.5C88.4,51.7,88.2,51.2,88.1,50.6z"/>
	<path d="M97.6,51.6c-0.4,0.3-0.7,0.5-1,0.6s-0.7,0.2-1.1,0.2c-0.6,0-1.1-0.2-1.4-0.5s-0.5-0.7-0.5-1.2c0-0.3,0.1-0.5,0.2-0.8
		c0.1-0.2,0.3-0.4,0.5-0.6c0.2-0.1,0.4-0.2,0.7-0.3c0.2,0,0.5-0.1,0.9-0.1c0.8-0.1,1.4-0.2,1.7-0.3c0-0.1,0-0.2,0-0.3
		c0-0.4-0.1-0.7-0.3-0.8c-0.2-0.2-0.6-0.3-1.1-0.3s-0.8,0.1-1,0.2s-0.4,0.4-0.5,0.8l-0.9-0.1c0.1-0.4,0.2-0.7,0.4-1
		c0.2-0.2,0.5-0.4,0.9-0.6c0.4-0.1,0.8-0.2,1.3-0.2s0.9,0.1,1.2,0.2c0.3,0.1,0.5,0.3,0.7,0.4c0.1,0.2,0.2,0.4,0.3,0.7
		c0,0.2,0,0.5,0,0.9v1.3c0,0.9,0,1.5,0.1,1.7s0.1,0.5,0.2,0.7h-1C97.7,52.1,97.7,51.9,97.6,51.6z M97.6,49.4
		c-0.4,0.1-0.9,0.3-1.6,0.4c-0.4,0.1-0.7,0.1-0.8,0.2c-0.2,0.1-0.3,0.2-0.4,0.3s-0.1,0.3-0.1,0.5c0,0.3,0.1,0.5,0.3,0.6
		s0.5,0.3,0.9,0.3s0.7-0.1,1-0.2c0.3-0.2,0.5-0.4,0.6-0.7c0.1-0.2,0.2-0.5,0.2-1L97.6,49.4L97.6,49.4z"/>
	<path d="M100,52.3v-7.9h1v7.9H100z"/>
	<path d="M106.4,50.5l1,0.1c-0.2,0.6-0.4,1-0.9,1.4c-0.4,0.3-1,0.5-1.6,0.5c-0.8,0-1.5-0.3-2-0.8s-0.7-1.2-0.7-2.2s0.2-1.7,0.7-2.2
		s1.1-0.8,1.9-0.8s1.4,0.3,1.9,0.8s0.7,1.2,0.7,2.2c0,0.1,0,0.1,0,0.3h-4.2c0,0.6,0.2,1.1,0.5,1.4c0.3,0.3,0.7,0.5,1.2,0.5
		c0.4,0,0.7-0.1,0.9-0.3C106,51.2,106.2,50.9,106.4,50.5z M103.2,48.9h3.2c0-0.5-0.2-0.8-0.4-1.1c-0.3-0.4-0.7-0.6-1.2-0.6
		c-0.4,0-0.8,0.1-1.1,0.4C103.4,48,103.2,48.4,103.2,48.9z"/>
	<path d="M109.1,50.3l-0.3-4.2v-1.7h1.2v1.7l-0.3,4.2H109.1z M108.8,52.3v-1.1h1.1v1.1H108.8z"/>
	<path d="M114.9,52.3v-7.9h5.3v0.9h-4.3v2.4h3.7v0.9h-3.7v3.6L114.9,52.3L114.9,52.3z"/>
	<path d="M121.4,52.3v-5.7h0.9v0.9c0.2-0.4,0.4-0.7,0.6-0.8s0.4-0.2,0.6-0.2c0.3,0,0.7,0.1,1,0.3l-0.3,0.9c-0.2-0.1-0.5-0.2-0.7-0.2
		s-0.4,0.1-0.6,0.2s-0.3,0.3-0.4,0.5c-0.1,0.3-0.2,0.7-0.2,1.1v3H121.4z"/>
	<path d="M128.9,50.5l1,0.1c-0.2,0.6-0.4,1-0.9,1.4c-0.4,0.3-1,0.5-1.6,0.5c-0.8,0-1.5-0.3-2-0.8s-0.7-1.2-0.7-2.2s0.2-1.7,0.7-2.2
		s1.1-0.8,1.9-0.8s1.4,0.3,1.9,0.8s0.7,1.2,0.7,2.2c0,0.1,0,0.1,0,0.3h-4.2c0,0.6,0.2,1.1,0.5,1.4c0.3,0.3,0.7,0.5,1.2,0.5
		c0.4,0,0.7-0.1,0.9-0.3C128.6,51.2,128.8,50.9,128.9,50.5z M125.8,48.9h3.2c0-0.5-0.2-0.8-0.4-1.1c-0.3-0.4-0.7-0.6-1.2-0.6
		c-0.4,0-0.8,0.1-1.1,0.4C126,48,125.8,48.4,125.8,48.9z"/>
	<path d="M135.1,50.5l1,0.1c-0.2,0.6-0.4,1-0.9,1.4c-0.4,0.3-1,0.5-1.6,0.5c-0.8,0-1.5-0.3-2-0.8s-0.7-1.2-0.7-2.2s0.2-1.7,0.7-2.2
		s1.1-0.8,1.9-0.8c0.8,0,1.4,0.3,1.9,0.8s0.7,1.2,0.7,2.2c0,0.1,0,0.1,0,0.3h-4.2c0,0.6,0.2,1.1,0.5,1.4c0.3,0.3,0.7,0.5,1.2,0.5
		c0.4,0,0.7-0.1,0.9-0.3C134.7,51.2,134.9,50.9,135.1,50.5z M131.9,48.9h3.2c0-0.5-0.2-0.8-0.4-1.1c-0.3-0.4-0.7-0.6-1.2-0.6
		c-0.4,0-0.8,0.1-1.1,0.4C132.1,48,131.9,48.4,131.9,48.9z"/>
	<path d="M140.1,52.8l0.9,0.1c0,0.3,0.1,0.5,0.3,0.6c0.2,0.2,0.6,0.3,1,0.3s0.8-0.1,1-0.3s0.4-0.4,0.5-0.8c0-0.2,0.1-0.6,0.1-1.2
		c-0.4,0.5-0.9,0.7-1.6,0.7c-0.8,0-1.4-0.3-1.8-0.8c-0.4-0.6-0.6-1.2-0.6-2c0-0.5,0.1-1,0.3-1.5s0.5-0.8,0.9-1.1s0.8-0.4,1.3-0.4
		c0.7,0,1.2,0.3,1.7,0.8v-0.7h0.9v4.9c0,0.9-0.1,1.5-0.3,1.9s-0.5,0.7-0.9,0.9s-0.9,0.3-1.4,0.3c-0.7,0-1.2-0.2-1.6-0.5
		C140.3,53.8,140.1,53.4,140.1,52.8z M140.9,49.3c0,0.7,0.1,1.3,0.4,1.6c0.3,0.3,0.7,0.5,1.1,0.5c0.4,0,0.8-0.2,1.1-0.5
		s0.5-0.9,0.5-1.6c0-0.7-0.2-1.2-0.5-1.6c-0.3-0.4-0.7-0.5-1.1-0.5c-0.4,0-0.8,0.2-1.1,0.5S140.9,48.7,140.9,49.3z"/>
	<path d="M146.4,45.5v-1.1h1v1.1H146.4z M146.4,52.3v-5.7h1v5.7H146.4z"/>
	<path d="M149.1,52.3v-4.9h-0.9v-0.8h0.9V46c0-0.4,0-0.7,0.1-0.9s0.3-0.5,0.5-0.6c0.2-0.2,0.6-0.2,1-0.2c0.3,0,0.6,0,0.9,0.1
		l-0.1,0.8c-0.2,0-0.4-0.1-0.6-0.1c-0.3,0-0.5,0.1-0.6,0.2c-0.1,0.1-0.2,0.4-0.2,0.7v0.5h1.1v0.8H150v4.9L149.1,52.3L149.1,52.3z"/>
	<path d="M154,51.4l0.1,0.9c-0.3,0.1-0.5,0.1-0.7,0.1c-0.4,0-0.6-0.1-0.8-0.2c-0.2-0.1-0.3-0.3-0.4-0.4s-0.1-0.6-0.1-1.1v-3.3h-0.7
		v-0.8h0.7v-1.4l1-0.6v2h1v0.8h-1v3.3c0,0.3,0,0.5,0.1,0.5c0,0.1,0.1,0.1,0.2,0.2c0.1,0,0.2,0.1,0.3,0.1
		C153.7,51.5,153.8,51.5,154,51.4z"/>
	<path d="M159.1,52.3l-1.7-5.7h1l0.9,3.3l0.3,1.2c0-0.1,0.1-0.5,0.3-1.2l0.9-3.3h1l0.9,3.3L163,51l0.3-1.1l1-3.3h0.9l-1.8,5.7h-1
		l-0.9-3.4l-0.2-1l-1.2,4.4C160.1,52.3,159.1,52.3,159.1,52.3z"/>
	<path d="M165.9,45.5v-1.1h1v1.1H165.9z M165.9,52.3v-5.7h1v5.7H165.9z"/>
	<path d="M170.5,51.4l0.1,0.9c-0.3,0.1-0.5,0.1-0.7,0.1c-0.4,0-0.6-0.1-0.8-0.2c-0.2-0.1-0.3-0.3-0.4-0.4s-0.1-0.6-0.1-1.1v-3.3
		h-0.7v-0.8h0.7v-1.4l1-0.6v2h1v0.8h-1v3.3c0,0.3,0,0.5,0.1,0.5c0,0.1,0.1,0.1,0.2,0.2c0.1,0,0.2,0.1,0.3,0.1
		C170.2,51.5,170.3,51.5,170.5,51.4z"/>
	<path d="M171.4,52.3v-7.9h1v2.8c0.5-0.5,1-0.8,1.7-0.8c0.4,0,0.8,0.1,1.1,0.2c0.3,0.2,0.5,0.4,0.7,0.7s0.2,0.7,0.2,1.3v3.6h-1v-3.6
		c0-0.5-0.1-0.8-0.3-1.1c-0.2-0.2-0.5-0.3-0.9-0.3c-0.3,0-0.6,0.1-0.8,0.2s-0.4,0.3-0.5,0.6s-0.2,0.6-0.2,1.1v3.1h-1V52.3z"/>
	<path d="M180.6,54.5v-7.9h0.9v0.7c0.2-0.3,0.4-0.5,0.7-0.7c0.3-0.1,0.6-0.2,0.9-0.2c0.5,0,0.9,0.1,1.3,0.4c0.4,0.2,0.7,0.6,0.8,1.1
		c0.2,0.5,0.3,1,0.3,1.5c0,0.6-0.1,1.1-0.3,1.6s-0.5,0.8-0.9,1.1c-0.4,0.2-0.8,0.4-1.3,0.4c-0.3,0-0.6-0.1-0.9-0.2s-0.5-0.3-0.6-0.5
		v2.8L180.6,54.5L180.6,54.5z M181.5,49.5c0,0.7,0.1,1.3,0.4,1.6c0.3,0.4,0.7,0.5,1.1,0.5c0.4,0,0.8-0.2,1.1-0.5
		c0.3-0.4,0.5-0.9,0.5-1.7c0-0.7-0.1-1.3-0.4-1.6c-0.3-0.4-0.7-0.5-1.1-0.5c-0.4,0-0.8,0.2-1.1,0.6
		C181.6,48.2,181.5,48.7,181.5,49.5z"/>
	<path d="M190.4,52.3v-0.8c-0.4,0.6-1,1-1.8,1c-0.3,0-0.6-0.1-0.9-0.2c-0.3-0.1-0.5-0.3-0.6-0.5s-0.2-0.4-0.3-0.7
		c0-0.2-0.1-0.5-0.1-0.9v-3.5h1v3.2c0,0.5,0,0.8,0.1,1c0.1,0.3,0.2,0.5,0.4,0.6s0.4,0.2,0.7,0.2s0.6-0.1,0.8-0.2s0.4-0.4,0.5-0.6
		c0.1-0.3,0.2-0.6,0.2-1.1v-3h1v5.7h-1L190.4,52.3L190.4,52.3z"/>
	<path d="M192.8,52.3v-5.7h0.9v0.9c0.2-0.4,0.4-0.7,0.6-0.8c0.2-0.1,0.4-0.2,0.6-0.2c0.3,0,0.7,0.1,1,0.3l-0.3,0.9
		c-0.2-0.1-0.5-0.2-0.7-0.2s-0.4,0.1-0.6,0.2s-0.3,0.3-0.4,0.5c-0.1,0.3-0.2,0.7-0.2,1.1v3H192.8z"/>
	<path d="M200.2,50.2l0.9,0.1c-0.1,0.7-0.4,1.2-0.8,1.5c-0.4,0.4-1,0.6-1.6,0.6c-0.8,0-1.4-0.3-1.9-0.8s-0.7-1.2-0.7-2.2
		c0-0.6,0.1-1.2,0.3-1.6c0.2-0.5,0.5-0.8,0.9-1s0.9-0.3,1.4-0.3c0.6,0,1.1,0.2,1.5,0.5s0.6,0.8,0.8,1.3l-0.9,0.1
		c-0.1-0.4-0.2-0.7-0.5-0.9c-0.2-0.2-0.5-0.3-0.8-0.3c-0.5,0-0.9,0.2-1.2,0.5s-0.5,0.9-0.5,1.7s0.1,1.3,0.4,1.7s0.7,0.5,1.1,0.5
		c0.4,0,0.7-0.1,0.9-0.3C199.9,51,200.1,50.7,200.2,50.2z"/>
	<path d="M201.9,52.3v-7.9h1v2.8c0.5-0.5,1-0.8,1.7-0.8c0.4,0,0.8,0.1,1.1,0.2c0.3,0.2,0.5,0.4,0.7,0.7s0.2,0.7,0.2,1.3v3.6h-1v-3.6
		c0-0.5-0.1-0.8-0.3-1.1c-0.2-0.2-0.5-0.3-0.9-0.3c-0.3,0-0.6,0.1-0.8,0.2s-0.4,0.3-0.5,0.6s-0.2,0.6-0.2,1.1v3.1h-1V52.3z"/>
	<path d="M211.8,51.6c-0.4,0.3-0.7,0.5-1,0.6s-0.7,0.2-1.1,0.2c-0.6,0-1.1-0.2-1.4-0.5s-0.5-0.7-0.5-1.2c0-0.3,0.1-0.5,0.2-0.8
		c0.1-0.2,0.3-0.4,0.5-0.6c0.2-0.1,0.4-0.2,0.7-0.3c0.2,0,0.5-0.1,0.9-0.1c0.8-0.1,1.4-0.2,1.7-0.3c0-0.1,0-0.2,0-0.3
		c0-0.4-0.1-0.7-0.3-0.8c-0.2-0.2-0.6-0.3-1.1-0.3s-0.8,0.1-1,0.2c-0.2,0.2-0.4,0.4-0.5,0.8l-0.9-0.1c0.1-0.4,0.2-0.7,0.4-1
		c0.2-0.2,0.5-0.4,0.9-0.6c0.4-0.1,0.8-0.2,1.3-0.2s0.9,0.1,1.2,0.2c0.3,0.1,0.5,0.3,0.7,0.4c0.1,0.2,0.2,0.4,0.3,0.7
		c0,0.2,0,0.5,0,0.9v1.3c0,0.9,0,1.5,0.1,1.7s0.1,0.5,0.2,0.7h-1C211.9,52.1,211.8,51.9,211.8,51.6z M211.7,49.4
		c-0.4,0.1-0.9,0.3-1.6,0.4c-0.4,0.1-0.7,0.1-0.8,0.2s-0.3,0.2-0.4,0.3c-0.1,0.1-0.1,0.3-0.1,0.5c0,0.3,0.1,0.5,0.3,0.6
		c0.2,0.2,0.5,0.3,0.9,0.3s0.7-0.1,1-0.2c0.3-0.2,0.5-0.4,0.6-0.7c0.1-0.2,0.2-0.5,0.2-1L211.7,49.4L211.7,49.4z"/>
	<path d="M213.8,50.6l1-0.2c0.1,0.4,0.2,0.7,0.4,0.9s0.6,0.3,1,0.3s0.8-0.1,1-0.3s0.3-0.4,0.3-0.6c0-0.2-0.1-0.4-0.3-0.5
		c-0.1-0.1-0.5-0.2-1-0.3c-0.7-0.2-1.2-0.3-1.5-0.5c-0.3-0.1-0.5-0.3-0.6-0.5s-0.2-0.5-0.2-0.8s0.1-0.5,0.2-0.7
		c0.1-0.2,0.3-0.4,0.5-0.5c0.1-0.1,0.4-0.2,0.6-0.3c0.3-0.1,0.5-0.1,0.8-0.1c0.4,0,0.8,0.1,1.2,0.2c0.3,0.1,0.6,0.3,0.7,0.5
		s0.3,0.5,0.3,0.9l-0.9,0.1c0-0.3-0.2-0.5-0.4-0.7s-0.5-0.2-0.9-0.2s-0.8,0.1-0.9,0.2c-0.2,0.1-0.3,0.3-0.3,0.5c0,0.1,0,0.2,0.1,0.3
		s0.2,0.2,0.4,0.3c0.1,0,0.4,0.1,0.9,0.2c0.7,0.2,1.2,0.3,1.4,0.4s0.5,0.3,0.6,0.5c0.2,0.2,0.2,0.5,0.2,0.8s-0.1,0.6-0.3,0.9
		c-0.2,0.3-0.5,0.5-0.8,0.7c-0.4,0.2-0.8,0.2-1.2,0.2c-0.7,0-1.3-0.2-1.7-0.5C214.1,51.7,213.9,51.2,213.8,50.6z"/>
	<path d="M223.5,50.5l1,0.1c-0.2,0.6-0.4,1-0.9,1.4c-0.4,0.3-1,0.5-1.6,0.5c-0.8,0-1.5-0.3-2-0.8s-0.7-1.2-0.7-2.2s0.2-1.7,0.7-2.2
		s1.1-0.8,1.9-0.8c0.8,0,1.4,0.3,1.9,0.8s0.7,1.2,0.7,2.2c0,0.1,0,0.1,0,0.3h-4.2c0,0.6,0.2,1.1,0.5,1.4c0.3,0.3,0.7,0.5,1.2,0.5
		c0.4,0,0.7-0.1,0.9-0.3C223.2,51.2,223.4,50.9,223.5,50.5z M220.4,48.9h3.2c0-0.5-0.2-0.8-0.4-1.1c-0.3-0.4-0.7-0.6-1.2-0.6
		c-0.4,0-0.8,0.1-1.1,0.4S220.4,48.4,220.4,48.9z"/>
	<path d="M226,52.3v-1.1h1.1v1.1H226z"/>
</g>
<g class="st0">
	<path class="st4" d="M11.6,67.8l0.9,0.1c-0.1,0.7-0.4,1.2-0.8,1.5c-0.4,0.4-1,0.6-1.6,0.6c-0.8,0-1.4-0.3-1.9-0.8S7.5,68,7.5,67
		c0-0.6,0.1-1.2,0.3-1.6c0.2-0.4,0.5-0.8,0.9-1s0.9-0.3,1.4-0.3c0.6,0,1.1,0.2,1.5,0.5s0.6,0.8,0.8,1.3L11.5,66
		c-0.1-0.4-0.2-0.7-0.5-0.9c-0.2-0.2-0.5-0.3-0.8-0.3c-0.5,0-0.9,0.2-1.2,0.5S8.5,66.2,8.5,67s0.1,1.3,0.4,1.7s0.7,0.5,1.1,0.5
		c0.4,0,0.7-0.1,0.9-0.3C11.4,68.7,11.5,68.3,11.6,67.8z"/>
	<path class="st4" d="M13,67.1c0-1.1,0.3-1.8,0.9-2.3c0.5-0.4,1.1-0.6,1.8-0.6c0.8,0,1.4,0.3,1.9,0.8s0.7,1.2,0.7,2.1
		c0,0.7-0.1,1.3-0.3,1.7c-0.2,0.4-0.5,0.7-1,1S16.2,70,15.7,70c-0.8,0-1.4-0.3-1.9-0.8C13.3,68.8,13,68,13,67.1z M14,67.1
		c0,0.7,0.2,1.3,0.5,1.6c0.3,0.4,0.7,0.5,1.2,0.5c0.5,0,0.9-0.2,1.2-0.5c0.3-0.4,0.5-0.9,0.5-1.7c0-0.7-0.2-1.2-0.5-1.6
		s-0.7-0.5-1.2-0.5c-0.5,0-0.9,0.2-1.2,0.5C14.2,65.8,14,66.3,14,67.1z"/>
	<path class="st4" d="M19.5,69.9V62h1v2.8c0.5-0.5,1-0.8,1.7-0.8c0.4,0,0.8,0.1,1.1,0.2s0.5,0.4,0.7,0.7c0.1,0.3,0.2,0.7,0.2,1.3
		v3.6h-1v-3.6c0-0.5-0.1-0.8-0.3-1.1c-0.2-0.2-0.5-0.3-0.9-0.3c-0.3,0-0.6,0.1-0.8,0.2s-0.4,0.3-0.5,0.6s-0.2,0.6-0.2,1.1v3.1h-1
		C19.5,69.8,19.5,69.9,19.5,69.9z"/>
	<path class="st4" d="M25.2,67.1c0-1.1,0.3-1.8,0.9-2.3c0.5-0.4,1.1-0.6,1.8-0.6c0.8,0,1.4,0.3,1.9,0.8s0.7,1.2,0.7,2.1
		c0,0.7-0.1,1.3-0.3,1.7c-0.2,0.4-0.5,0.7-1,1S28.4,70,27.9,70c-0.8,0-1.4-0.3-1.9-0.8C25.5,68.8,25.2,68,25.2,67.1z M26.2,67.1
		c0,0.7,0.2,1.3,0.5,1.6c0.3,0.4,0.7,0.5,1.2,0.5s0.9-0.2,1.2-0.5c0.3-0.4,0.5-0.9,0.5-1.7c0-0.7-0.2-1.2-0.5-1.6s-0.7-0.5-1.2-0.5
		s-0.9,0.2-1.2,0.5C26.4,65.8,26.2,66.3,26.2,67.1z"/>
	<path class="st4" d="M32.7,69.9L31,64.2h1l0.9,3.3l0.3,1.2c0-0.1,0.1-0.5,0.3-1.2l0.9-3.3h1l0.9,3.3l0.3,1.1l0.3-1.1l1-3.3h0.9
		L37,69.9h-1l-0.9-3.4l-0.2-1l-1.2,4.4H32.7z"/>
	<path class="st4" d="M39.6,63.2v-1.1h1v1.1H39.6z M39.6,69.9v-5.7h1v5.7H39.6z"/>
	<path class="st4" d="M42.1,69.9v-5.7H43V65c0.4-0.6,1-0.9,1.8-0.9c0.3,0,0.7,0.1,0.9,0.2c0.3,0.1,0.5,0.3,0.6,0.5s0.2,0.4,0.3,0.7
		c0,0.2,0.1,0.5,0.1,0.9v3.5h-1v-3.5c0-0.4,0-0.7-0.1-0.9c-0.1-0.2-0.2-0.3-0.4-0.5s-0.4-0.2-0.7-0.2c-0.4,0-0.8,0.1-1.1,0.4
		S43,66,43,66.7v3.1h-0.9V69.9z"/>
	<path class="st4" d="M52.1,68.1l1,0.1c-0.2,0.6-0.4,1-0.9,1.4c-0.4,0.3-1,0.5-1.6,0.5c-0.8,0-1.5-0.3-2-0.8s-0.7-1.2-0.7-2.2
		s0.2-1.7,0.7-2.2s1.1-0.8,1.9-0.8c0.8,0,1.4,0.3,1.9,0.8s0.7,1.2,0.7,2.2c0,0.1,0,0.1,0,0.3h-4.2c0,0.6,0.2,1.1,0.5,1.4
		s0.7,0.5,1.2,0.5c0.4,0,0.7-0.1,0.9-0.3C51.7,68.8,51.9,68.5,52.1,68.1z M48.9,66.5h3.2c0-0.5-0.2-0.8-0.4-1.1
		c-0.3-0.4-0.7-0.6-1.2-0.6c-0.4,0-0.8,0.1-1.1,0.4C49.1,65.6,48.9,66,48.9,66.5z"/>
	<path class="st4" d="M54.3,69.9v-5.7h0.9v0.9c0.2-0.4,0.4-0.7,0.6-0.8c0.2-0.1,0.4-0.2,0.6-0.2c0.3,0,0.7,0.1,1,0.3L57,65.3
		c-0.2-0.1-0.5-0.2-0.7-0.2s-0.4,0.1-0.6,0.2s-0.3,0.3-0.4,0.5c-0.1,0.3-0.2,0.7-0.2,1.1v3H54.3z"/>
</g>
<g class="st0">
	<path class="st4" d="M57.9,72.1l-0.1-0.9c0.2,0.1,0.4,0.1,0.6,0.1c0.2,0,0.4,0,0.5-0.1s0.2-0.2,0.3-0.3c0.1-0.1,0.2-0.3,0.3-0.7
		c0-0.1,0-0.1,0.1-0.2l-2.2-5.7h1l1.2,3.3c0.2,0.4,0.3,0.9,0.4,1.3c0.1-0.4,0.2-0.9,0.4-1.3l1.2-3.3h1L60.4,70
		c-0.2,0.6-0.4,1.1-0.5,1.3c-0.2,0.3-0.4,0.6-0.6,0.7s-0.5,0.2-0.8,0.2C58.3,72.2,58.1,72.2,57.9,72.1z"/>
</g>
<g class="st0">
	<path class="st4" d="M62.9,69.9v-1.1H64v1.1H62.9z"/>
	<path class="st4" d="M69.4,67.8l0.9,0.1c-0.1,0.7-0.4,1.2-0.8,1.5c-0.4,0.4-1,0.6-1.6,0.6c-0.8,0-1.4-0.3-1.9-0.8S65.3,68,65.3,67
		c0-0.6,0.1-1.2,0.3-1.6s0.5-0.8,0.9-1s0.9-0.3,1.4-0.3c0.6,0,1.1,0.2,1.5,0.5s0.6,0.8,0.8,1.3L69.3,66c-0.1-0.4-0.2-0.7-0.5-0.9
		c-0.2-0.2-0.5-0.3-0.8-0.3c-0.5,0-0.9,0.2-1.2,0.5s-0.5,0.9-0.5,1.7c0,0.8,0.1,1.3,0.4,1.7s0.7,0.5,1.1,0.5s0.7-0.1,0.9-0.3
		C69.1,68.7,69.3,68.3,69.4,67.8z"/>
	<path class="st4" d="M70.8,67.1c0-1.1,0.3-1.8,0.9-2.3c0.5-0.4,1.1-0.6,1.8-0.6c0.8,0,1.4,0.3,1.9,0.8s0.7,1.2,0.7,2.1
		c0,0.7-0.1,1.3-0.3,1.7c-0.2,0.4-0.5,0.7-1,1S74,70,73.5,70c-0.8,0-1.4-0.3-1.9-0.8C71,68.8,70.8,68,70.8,67.1z M71.8,67.1
		c0,0.7,0.2,1.3,0.5,1.6c0.3,0.4,0.7,0.5,1.2,0.5s0.9-0.2,1.2-0.5c0.3-0.4,0.5-0.9,0.5-1.7c0-0.7-0.2-1.2-0.5-1.6s-0.7-0.5-1.2-0.5
		s-0.9,0.2-1.2,0.5C71.9,65.8,71.8,66.3,71.8,67.1z"/>
	<path class="st4" d="M77.3,69.9v-5.7h0.9V65c0.2-0.3,0.4-0.5,0.7-0.7c0.3-0.2,0.6-0.3,1-0.3s0.8,0.1,1,0.3s0.5,0.4,0.6,0.7
		c0.5-0.7,1-1,1.8-1c0.6,0,1,0.2,1.3,0.5s0.5,0.8,0.5,1.4v3.9h-1v-3.6c0-0.4,0-0.7-0.1-0.8c-0.1-0.2-0.2-0.3-0.3-0.4
		c-0.2-0.1-0.4-0.2-0.6-0.2c-0.4,0-0.7,0.1-1,0.4s-0.4,0.7-0.4,1.3v3.3h-1v-3.7c0-0.4-0.1-0.8-0.2-1c-0.2-0.2-0.4-0.3-0.8-0.3
		c-0.3,0-0.5,0.1-0.8,0.2s-0.4,0.4-0.5,0.6s-0.2,0.7-0.2,1.2v3L77.3,69.9L77.3,69.9z"/>
	<path class="st4" d="M89.5,63.2v-1.1h1v1.1H89.5z M89.5,69.9v-5.7h1v5.7H89.5z"/>
	<path class="st4" d="M91.5,68.2l1-0.2c0.1,0.4,0.2,0.7,0.4,0.9c0.2,0.2,0.6,0.3,1,0.3s0.8-0.1,1-0.3s0.3-0.4,0.3-0.6
		s-0.1-0.4-0.3-0.5c-0.1-0.1-0.5-0.2-1-0.3c-0.7-0.2-1.2-0.3-1.5-0.5c-0.3-0.1-0.5-0.3-0.6-0.5s-0.2-0.5-0.2-0.8s0.1-0.5,0.2-0.7
		s0.3-0.4,0.5-0.5c0.1-0.1,0.4-0.2,0.6-0.3s0.5-0.1,0.8-0.1c0.4,0,0.8,0.1,1.2,0.2c0.3,0.1,0.6,0.3,0.7,0.5c0.2,0.2,0.3,0.5,0.3,0.9
		L95,65.8c0-0.3-0.2-0.5-0.4-0.7s-0.5-0.2-0.9-0.2s-0.8,0.1-0.9,0.2c-0.2,0.1-0.3,0.3-0.3,0.5c0,0.1,0,0.2,0.1,0.3
		c0.1,0.1,0.2,0.2,0.4,0.3c0.1,0,0.4,0.1,0.9,0.2c0.7,0.2,1.2,0.3,1.4,0.4c0.3,0.1,0.5,0.3,0.6,0.5s0.2,0.5,0.2,0.8S96,68.7,95.8,69
		s-0.5,0.5-0.8,0.7S94.4,70,93.9,70c-0.7,0-1.3-0.2-1.7-0.5C91.9,69.3,91.6,68.8,91.5,68.2z"/>
	<path class="st4" d="M100.4,69.9v-5.7h0.9v0.9c0.2-0.4,0.4-0.7,0.6-0.8c0.2-0.1,0.4-0.2,0.6-0.2c0.3,0,0.7,0.1,1,0.3l-0.3,0.9
		c-0.2-0.1-0.5-0.2-0.7-0.2s-0.4,0.1-0.6,0.2s-0.3,0.3-0.4,0.5c-0.1,0.3-0.2,0.7-0.2,1.1v3C101.3,69.9,100.4,69.9,100.4,69.9z"/>
	<path class="st4" d="M107.8,69.2c-0.4,0.3-0.7,0.5-1,0.6s-0.7,0.2-1.1,0.2c-0.6,0-1.1-0.2-1.4-0.5s-0.5-0.7-0.5-1.2
		c0-0.3,0.1-0.5,0.2-0.8c0.1-0.2,0.3-0.4,0.5-0.6c0.2-0.1,0.4-0.2,0.7-0.3c0.2,0,0.5-0.1,0.9-0.1c0.8-0.1,1.4-0.2,1.7-0.3
		c0-0.1,0-0.2,0-0.3c0-0.4-0.1-0.7-0.3-0.8c-0.2-0.2-0.6-0.3-1.1-0.3s-0.8,0.1-1,0.2s-0.4,0.4-0.5,0.8l-0.9-0.1
		c0.1-0.4,0.2-0.7,0.4-1c0.2-0.2,0.5-0.4,0.9-0.6c0.4-0.1,0.8-0.2,1.3-0.2s0.9,0.1,1.2,0.2c0.3,0.1,0.5,0.3,0.7,0.4
		c0.1,0.2,0.2,0.4,0.3,0.7c0,0.2,0,0.5,0,0.9v1.3c0,0.9,0,1.5,0.1,1.7s0.1,0.5,0.2,0.7h-1C107.9,69.7,107.8,69.5,107.8,69.2z
		 M107.7,67.1c-0.4,0.1-0.9,0.3-1.6,0.4c-0.4,0.1-0.7,0.1-0.8,0.2c-0.2,0.1-0.3,0.2-0.4,0.3s-0.1,0.3-0.1,0.5c0,0.3,0.1,0.5,0.3,0.6
		s0.5,0.3,0.9,0.3s0.7-0.1,1-0.2c0.3-0.2,0.5-0.4,0.6-0.7c0.1-0.2,0.2-0.5,0.2-1L107.7,67.1L107.7,67.1z"/>
	<path class="st4" d="M112.3,69.1l0.1,0.9c-0.3,0.1-0.5,0.1-0.7,0.1c-0.4,0-0.6-0.1-0.8-0.2c-0.2-0.1-0.3-0.3-0.4-0.4
		s-0.1-0.6-0.1-1.1V65h-0.7v-0.8h0.7v-1.4l1-0.6v2h1V65h-1v3.3c0,0.3,0,0.5,0.1,0.5c0,0.1,0.1,0.1,0.2,0.2c0.1,0,0.2,0.1,0.3,0.1
		C112,69.1,112.1,69.1,112.3,69.1z"/>
	<path class="st4" d="M117.1,68.1l1,0.1c-0.2,0.6-0.4,1-0.9,1.4c-0.4,0.3-1,0.5-1.6,0.5c-0.8,0-1.5-0.3-2-0.8s-0.7-1.2-0.7-2.2
		s0.2-1.7,0.7-2.2s1.1-0.8,1.9-0.8s1.4,0.3,1.9,0.8s0.7,1.2,0.7,2.2c0,0.1,0,0.1,0,0.3h-4.2c0,0.6,0.2,1.1,0.5,1.4s0.7,0.5,1.2,0.5
		c0.4,0,0.7-0.1,0.9-0.3C116.8,68.8,117,68.5,117.1,68.1z M114,66.5h3.2c0-0.5-0.2-0.8-0.4-1.1c-0.3-0.4-0.7-0.6-1.2-0.6
		c-0.4,0-0.8,0.1-1.1,0.4C114.2,65.6,114,66,114,66.5z"/>
	<path class="st4" d="M123,69.9v-0.7c-0.4,0.6-0.9,0.8-1.6,0.8c-0.5,0-0.9-0.1-1.3-0.4c-0.4-0.2-0.7-0.6-0.9-1
		c-0.2-0.4-0.3-1-0.3-1.5c0-0.6,0.1-1.1,0.3-1.5c0.2-0.5,0.5-0.8,0.9-1.1c0.4-0.2,0.8-0.4,1.3-0.4c0.3,0,0.6,0.1,0.9,0.2
		s0.5,0.3,0.7,0.6v-2.8h1V70L123,69.9L123,69.9z M120,67.1c0,0.7,0.2,1.3,0.5,1.6c0.3,0.4,0.7,0.5,1.1,0.5s0.8-0.2,1.1-0.5
		c0.3-0.3,0.4-0.9,0.4-1.6c0-0.8-0.1-1.4-0.5-1.7s-0.7-0.5-1.1-0.5s-0.8,0.2-1.1,0.5C120.1,65.8,120,66.3,120,67.1z"/>
	<path class="st4" d="M195.3,67.1c0-1.1,0.3-1.8,0.9-2.3c0.5-0.4,1.1-0.6,1.8-0.6c0.8,0,1.4,0.3,1.9,0.8s0.7,1.2,0.7,2.1
		c0,0.7-0.1,1.3-0.3,1.7s-0.5,0.7-1,1s-0.9,0.3-1.4,0.3c-0.8,0-1.4-0.3-1.9-0.8C195.5,68.8,195.3,68,195.3,67.1z M196.3,67.1
		c0,0.7,0.2,1.3,0.5,1.6c0.3,0.4,0.7,0.5,1.2,0.5s0.9-0.2,1.2-0.5c0.3-0.4,0.5-0.9,0.5-1.7c0-0.7-0.2-1.2-0.5-1.6s-0.7-0.5-1.2-0.5
		s-0.9,0.2-1.2,0.5C196.4,65.8,196.3,66.3,196.3,67.1z"/>
	<path class="st4" d="M201.7,69.9v-5.7h0.9V65c0.4-0.6,1-0.9,1.8-0.9c0.3,0,0.7,0.1,0.9,0.2c0.3,0.1,0.5,0.3,0.6,0.5
		s0.2,0.4,0.3,0.7c0,0.2,0.1,0.5,0.1,0.9v3.5h-1v-3.5c0-0.4,0-0.7-0.1-0.9c-0.1-0.2-0.2-0.3-0.4-0.5s-0.4-0.2-0.7-0.2
		c-0.4,0-0.8,0.1-1.1,0.4s-0.4,0.8-0.4,1.5v3.1h-0.9L201.7,69.9L201.7,69.9z"/>
	<path class="st4" d="M211,69.9V62h2.9c0.6,0,1.1,0.1,1.4,0.2c0.4,0.2,0.6,0.4,0.9,0.7c0.2,0.3,0.3,0.7,0.3,1c0,0.3-0.1,0.7-0.3,0.9
		s-0.5,0.5-0.8,0.7c0.5,0.1,0.8,0.4,1.1,0.7s0.4,0.7,0.4,1.2c0,0.4-0.1,0.7-0.2,1s-0.3,0.6-0.6,0.7c-0.2,0.2-0.5,0.3-0.9,0.4
		c-0.3,0.1-0.8,0.1-1.3,0.1H211V69.9z M212,65.4h1.7c0.5,0,0.8,0,1-0.1c0.3-0.1,0.5-0.2,0.6-0.4c0.1-0.2,0.2-0.4,0.2-0.7
		c0-0.3-0.1-0.5-0.2-0.7s-0.3-0.3-0.5-0.4s-0.6-0.1-1.2-0.1H212V65.4z M212,69h2c0.3,0,0.6,0,0.7,0c0.2,0,0.4-0.1,0.6-0.2
		c0.2-0.1,0.3-0.2,0.4-0.4s0.2-0.4,0.2-0.7c0-0.3-0.1-0.5-0.2-0.8c-0.2-0.2-0.4-0.4-0.6-0.5s-0.6-0.1-1.2-0.1H212V69z"/>
	<path class="st4" d="M218.2,63.2v-1.1h1v1.1H218.2z M218.2,69.9v-5.7h1v5.7H218.2z"/>
	<path class="st4" d="M220.6,69.9v-5.7h0.9V65c0.4-0.6,1-0.9,1.8-0.9c0.3,0,0.7,0.1,0.9,0.2c0.3,0.1,0.5,0.3,0.6,0.5
		s0.2,0.4,0.3,0.7c0,0.2,0.1,0.5,0.1,0.9v3.5h-1v-3.5c0-0.4,0-0.7-0.1-0.9c-0.1-0.2-0.2-0.3-0.4-0.5s-0.4-0.2-0.7-0.2
		c-0.4,0-0.8,0.1-1.1,0.4s-0.4,0.8-0.4,1.5v3.1h-0.9L220.6,69.9L220.6,69.9z"/>
	<path class="st4" d="M226.6,70.4l0.9,0.1c0,0.3,0.1,0.5,0.3,0.6c0.2,0.2,0.6,0.3,1,0.3s0.8-0.1,1-0.3s0.4-0.4,0.5-0.8
		c0-0.2,0.1-0.6,0.1-1.2c-0.4,0.5-0.9,0.7-1.6,0.7c-0.8,0-1.4-0.3-1.8-0.8c-0.4-0.6-0.6-1.2-0.6-2c0-0.5,0.1-1,0.3-1.5
		s0.5-0.8,0.9-1.1c0.4-0.2,0.8-0.4,1.3-0.4c0.7,0,1.2,0.3,1.7,0.8v-0.7h0.9V69c0,0.9-0.1,1.5-0.3,1.9s-0.5,0.7-0.9,0.9
		c-0.4,0.2-0.9,0.3-1.4,0.3c-0.7,0-1.2-0.2-1.6-0.5C226.8,71.5,226.6,71,226.6,70.4z M227.4,67c0,0.7,0.1,1.3,0.4,1.6
		s0.7,0.5,1.1,0.5c0.4,0,0.8-0.2,1.1-0.5s0.5-0.9,0.5-1.6s-0.2-1.2-0.5-1.6s-0.7-0.5-1.1-0.5c-0.4,0-0.8,0.2-1.1,0.5
		C227.5,65.8,227.4,66.3,227.4,67z"/>
	<path class="st4" d="M237.8,72.2c-0.5-0.7-1-1.5-1.4-2.4s-0.6-1.8-0.6-2.8c0-0.9,0.1-1.7,0.4-2.4c0.3-0.9,0.8-1.8,1.5-2.7h0.7
		c-0.4,0.7-0.7,1.3-0.9,1.6c-0.2,0.5-0.4,1-0.5,1.5c-0.2,0.7-0.2,1.3-0.2,2c0,1.7,0.5,3.4,1.6,5.2L237.8,72.2L237.8,72.2z"/>
</g>
<g class="st0">
	<path class="st5" d="M239.4,68.1l0.9-0.1c0.1,0.4,0.2,0.8,0.5,0.9c0.2,0.2,0.5,0.3,0.9,0.3c0.3,0,0.6-0.1,0.8-0.2s0.4-0.3,0.5-0.5
		s0.3-0.5,0.4-0.9c0.1-0.4,0.1-0.8,0.1-1.2c0,0,0-0.1,0-0.2c-0.2,0.3-0.5,0.6-0.8,0.7s-0.7,0.3-1.1,0.3c-0.7,0-1.2-0.2-1.7-0.7
		s-0.7-1.1-0.7-1.9c0-0.8,0.2-1.4,0.7-1.9s1.1-0.7,1.8-0.7c0.5,0,1,0.1,1.4,0.4c0.4,0.3,0.7,0.7,1,1.2c0.2,0.5,0.3,1.2,0.3,2.2
		s-0.1,1.8-0.3,2.4s-0.5,1-1,1.4c-0.4,0.3-0.9,0.5-1.5,0.5s-1.1-0.2-1.5-0.5S239.5,68.7,239.4,68.1z M243.4,64.6
		c0-0.6-0.1-1-0.4-1.3s-0.6-0.5-1.1-0.5c-0.4,0-0.8,0.2-1.1,0.5s-0.5,0.8-0.5,1.4c0,0.5,0.2,0.9,0.5,1.2s0.7,0.5,1.1,0.5
		c0.4,0,0.8-0.2,1.1-0.5C243.2,65.6,243.4,65.2,243.4,64.6z"/>
	<path class="st5" d="M246.9,65.7c-0.4-0.1-0.7-0.4-0.9-0.6c-0.2-0.3-0.3-0.6-0.3-1c0-0.6,0.2-1.1,0.6-1.4s1-0.6,1.6-0.6
		c0.7,0,1.2,0.2,1.7,0.6s0.6,0.9,0.6,1.5c0,0.4-0.1,0.7-0.3,1s-0.5,0.5-0.9,0.6c0.5,0.2,0.8,0.4,1.1,0.8s0.4,0.8,0.4,1.3
		c0,0.7-0.2,1.2-0.7,1.7s-1.1,0.7-1.9,0.7s-1.4-0.2-1.9-0.7s-0.7-1-0.7-1.7c0-0.5,0.1-0.9,0.4-1.3C246,66,246.4,65.8,246.9,65.7z
		 M246.4,67.7c0,0.3,0.1,0.5,0.2,0.8c0.1,0.3,0.3,0.5,0.6,0.6s0.5,0.2,0.8,0.2c0.5,0,0.8-0.1,1.1-0.4s0.5-0.7,0.5-1.1
		c0-0.5-0.2-0.8-0.5-1.2c-0.3-0.3-0.7-0.5-1.2-0.5s-0.8,0.1-1.1,0.5C246.5,66.8,246.4,67.2,246.4,67.7z M246.7,64
		c0,0.4,0.1,0.7,0.4,0.9c0.2,0.2,0.6,0.4,0.9,0.4c0.4,0,0.7-0.1,0.9-0.4c0.2-0.2,0.4-0.5,0.4-0.9s-0.1-0.7-0.4-0.9
		c-0.2-0.2-0.5-0.4-0.9-0.4s-0.7,0.1-0.9,0.4C246.8,63.4,246.7,63.7,246.7,64z"/>
	<path class="st5" d="M254.8,69.9v-5.7h0.9v0.9c0.2-0.4,0.4-0.7,0.6-0.8c0.2-0.1,0.4-0.2,0.6-0.2c0.3,0,0.7,0.1,1,0.3l-0.3,0.9
		c-0.2-0.1-0.5-0.2-0.7-0.2s-0.4,0.1-0.6,0.2s-0.3,0.3-0.4,0.5c-0.1,0.3-0.2,0.7-0.2,1.1v3C255.7,69.9,254.8,69.9,254.8,69.9z"/>
	<path class="st5" d="M262.4,68.1l1,0.1c-0.2,0.6-0.4,1-0.9,1.4c-0.4,0.3-1,0.5-1.6,0.5c-0.8,0-1.5-0.3-2-0.8s-0.7-1.2-0.7-2.2
		s0.2-1.7,0.7-2.2s1.1-0.8,1.9-0.8s1.4,0.3,1.9,0.8s0.7,1.2,0.7,2.2c0,0.1,0,0.1,0,0.3h-4.2c0,0.6,0.2,1.1,0.5,1.4s0.7,0.5,1.2,0.5
		c0.4,0,0.7-0.1,0.9-0.3C262,68.8,262.2,68.5,262.4,68.1z M259.2,66.5h3.2c0-0.5-0.2-0.8-0.4-1.1c-0.3-0.4-0.7-0.6-1.2-0.6
		c-0.4,0-0.8,0.1-1.1,0.4S259.2,66,259.2,66.5z"/>
	<path class="st5" d="M266.2,69.9l-2.2-5.7h1l1.2,3.4c0.1,0.4,0.3,0.8,0.4,1.1c0.1-0.3,0.2-0.7,0.4-1.1l1.3-3.5h1l-2.2,5.7
		L266.2,69.9L266.2,69.9z"/>
	<path class="st5" d="M270.1,63.2v-1.1h1v1.1H270.1z M270.1,69.9v-5.7h1v5.7H270.1z"/>
	<path class="st5" d="M276.4,68.1l1,0.1c-0.2,0.6-0.4,1-0.9,1.4c-0.4,0.3-1,0.5-1.6,0.5c-0.8,0-1.5-0.3-2-0.8s-0.7-1.2-0.7-2.2
		s0.2-1.7,0.7-2.2s1.1-0.8,1.9-0.8s1.4,0.3,1.9,0.8s0.7,1.2,0.7,2.2c0,0.1,0,0.1,0,0.3h-4.2c0,0.6,0.2,1.1,0.5,1.4s0.7,0.5,1.2,0.5
		c0.4,0,0.7-0.1,0.9-0.3C276.1,68.8,276.3,68.5,276.4,68.1z M273.2,66.5h3.2c0-0.5-0.2-0.8-0.4-1.1c-0.3-0.4-0.7-0.6-1.2-0.6
		c-0.4,0-0.8,0.1-1.1,0.4S273.3,66,273.2,66.5z"/>
	<path class="st5" d="M279.7,69.9l-1.7-5.7h1l0.9,3.3l0.3,1.2c0-0.1,0.1-0.5,0.3-1.2l0.9-3.3h1l0.9,3.3l0.3,1.1l0.3-1.1l1-3.3h0.9
		l-1.8,5.7h-1l-0.9-3.4l-0.2-1l-1.2,4.4H279.7z"/>
	<path class="st5" d="M286.2,68.2l1-0.2c0.1,0.4,0.2,0.7,0.4,0.9c0.2,0.2,0.6,0.3,1,0.3s0.8-0.1,1-0.3c0.2-0.2,0.3-0.4,0.3-0.6
		s-0.1-0.4-0.3-0.5c-0.1-0.1-0.5-0.2-1-0.3c-0.7-0.2-1.2-0.3-1.5-0.5c-0.3-0.1-0.5-0.3-0.6-0.5s-0.2-0.5-0.2-0.8s0.1-0.5,0.2-0.7
		s0.3-0.4,0.5-0.5s0.4-0.2,0.6-0.3c0.3-0.1,0.5-0.1,0.8-0.1c0.4,0,0.8,0.1,1.2,0.2c0.3,0.1,0.6,0.3,0.7,0.5c0.2,0.2,0.3,0.5,0.3,0.9
		l-0.9,0.1c0-0.3-0.2-0.5-0.4-0.7c-0.2-0.2-0.5-0.2-0.9-0.2s-0.8,0.1-0.9,0.2c-0.2,0.1-0.3,0.3-0.3,0.5c0,0.1,0,0.2,0.1,0.3
		c0.1,0.1,0.2,0.2,0.4,0.3c0.1,0,0.4,0.1,0.9,0.2c0.7,0.2,1.2,0.3,1.4,0.4c0.3,0.1,0.5,0.3,0.6,0.5c0.2,0.2,0.2,0.5,0.2,0.8
		s-0.1,0.6-0.3,0.9s-0.5,0.5-0.8,0.7c-0.4,0.2-0.8,0.2-1.2,0.2c-0.7,0-1.3-0.2-1.7-0.5C286.5,69.3,286.3,68.8,286.2,68.2z"/>
</g>
<g class="st0">
	<path class="st4" d="M292.7,72.2H292c1.1-1.7,1.6-3.4,1.6-5.2c0-0.7-0.1-1.3-0.2-2c-0.1-0.5-0.3-1.1-0.5-1.5
		c-0.1-0.3-0.4-0.9-0.9-1.6h0.7c0.7,0.9,1.2,1.8,1.5,2.7c0.3,0.8,0.4,1.6,0.4,2.4c0,1-0.2,1.9-0.6,2.8
		C293.6,70.8,293.2,71.6,292.7,72.2z"/>
</g>
<path class="st6" d="M10.2,25.4c-5.7,10.5,12.7,9.2,6.7,0H10.2z M10.9,26.1h5.4C21,33.5,6.3,34.6,10.9,26.1z"/>
<path class="st6" d="M13,32.5v3.2c-1,0.1-2,0.6-2.7,1.3c2.1,0.1,4.2,0.1,6.3,0.1c-0.7-0.8-1.7-1.2-2.8-1.3v-3.3
	C13.5,32.4,13.3,32.4,13,32.5z"/>
<polygon class="st6" points="9,28 17.8,28 17.7,30 16.4,31.6 14.5,32.4 12.5,32.6 11,32.1 9.8,31.1 9,29.9 "/>
<rect x="2" y="2" class="st7" width="108" height="20"/>
<polygon class="st8" points="137.9,60.6 139.1,63.8 142.5,64 139.9,66.2 140.8,69.5 137.9,67.6 135,69.5 135.9,66.2 133.2,64 
	136.6,63.8 "/>
<polygon class="st8" points="149,60.6 150.3,63.8 153.7,64 151,66.2 151.9,69.5 149,67.6 146.1,69.5 147,66.2 144.4,64 147.8,63.8 
	"/>
<polygon class="st8" points="160.5,60.6 161.8,63.8 165.2,64 162.5,66.2 163.4,69.5 160.5,67.6 157.6,69.5 158.5,66.2 155.9,64 
	159.3,63.8 "/>
<polygon class="st8" points="171.5,60.6 172.7,63.8 176.2,64 173.5,66.2 174.4,69.5 171.5,67.6 168.6,69.5 169.5,66.2 166.8,64 
	170.3,63.8 "/>
<polygon class="st9" points="182.5,60.6 183.7,63.8 187.1,64 184.5,66.2 185.4,69.5 182.5,67.6 179.6,69.5 180.5,66.2 177.8,64 
	181.2,63.8 "/>
</svg>
