<?xml version="1.0" encoding="utf-8"?>
<!-- Generator: Adobe Illustrator 19.2.1, SVG Export Plug-In . SVG Version: 6.00 Build 0)  -->
<svg version="1.1" id="Layer_1" xmlns="http://www.w3.org/2000/svg" xmlns:xlink="http://www.w3.org/1999/xlink" x="0px" y="0px"
	 width="100px" height="82.2px" viewBox="0 0 100 82.2" style="enable-background:new 0 0 100 82.2;" xml:space="preserve">
<style type="text/css">
	.st0{fill:#737373;}
	.st1{fill:#00B294;}
</style>
<title>BA_Conc_Target</title>
<path class="st0" d="M77.1,18.5l3.1-4.6c0.1-0.1,0.2-0.3,0.4-0.3l13.6-6.2c0.5-0.2,1,0.1,1.2,0.5c0.1,0.3,0.1,0.6-0.1,0.8l-4.4,6.6
	l8.4,1.4c0.5,0.1,0.8,0.6,0.7,1.1c-0.1,0.3-0.2,0.5-0.5,0.6l-13.8,6.3c-0.2,0.1-0.4,0.1-0.5,0.1L79,23.7l-19.5,8.9l1.6,3.5
	c0.2,0.4,0,0.8-0.4,1c-0.1,0-0.2,0.1-0.2,0.1l-20.7,2.3c-0.5,0-1-0.4-1-0.9c0-0.3,0.1-0.5,0.3-0.7l15.1-14c0.4-0.3,1-0.3,1.3,0.1
	c0.1,0.1,0.1,0.1,0.1,0.2l1.5,3.3L77.1,18.5L77.1,18.5L77.1,18.5z"/>
<path class="st1" d="M38.5,21.1c-9.5,0-17.3,7.7-17.3,17.3c0,9.5,7.7,17.3,17.3,17.3c8.2,0,15.3-5.8,16.9-13.8l-9.3,1
	c-2.5,4.2-7.9,5.6-12.1,3.1c-4.2-2.5-5.6-7.9-3.1-12.1c2.2-3.7,6.9-5.3,10.9-3.7l6.5-6C45.4,22.1,42,21.1,38.5,21.1L38.5,21.1
	L38.5,21.1z"/>
<path class="st0" d="M54.8,73.4c1,1.8,5.1,5.4,6.7,7c5.2,5.2,13.5-2.8,8.2-8.2L64.4,67c10.4-9.5,14.8-23.8,11.5-37.5l-8.4,3.9
	c2.8,16-7.9,31.2-23.9,34.1c-16,2.8-31.2-7.9-34.1-23.9s7.9-31.2,23.9-34.1c11-1.9,22.1,2.5,28.7,11.5l8.4-3.8
	C63.4,6.4,51.3,0,38.5,0C17.8,0,0,16.7,0,38.5C0,49.3,4.6,59.7,12.7,67l-5.2,5.2c-5.4,5.4,2.7,13.6,8.2,8.2c1.6-1.6,5.6-5.2,6.7-6.9
	C32.6,78.2,44.5,78.2,54.8,73.4L54.8,73.4z"/>
</svg>
