<?xml version="1.0" encoding="utf-8"?>
<!-- Generator: Adobe Illustrator 20.1.0, SVG Export Plug-In . SVG Version: 6.00 Build 0)  -->
<svg version="1.1" xmlns="http://www.w3.org/2000/svg" xmlns:xlink="http://www.w3.org/1999/xlink" x="0px" y="0px" width="220px"
	 height="186px" viewBox="0 0 220 186" style="enable-background:new 0 0 220 186;" xml:space="preserve">
<style type="text/css">
	.st0{fill:#FFFFFF;}
	.st1{fill:none;stroke:#999999;stroke-width:0.6;stroke-miterlimit:10;}
	.st2{fill:#FBB13B;}
	.st3{fill:none;stroke:#FFFFFF;stroke-width:0.6;stroke-miterlimit:10;}
	.st4{fill:#FFFFFF;stroke:#D2D2D2;stroke-width:0.6;stroke-miterlimit:10;}
	.st5{fill:#515050;}
	.st6{fill-rule:evenodd;clip-rule:evenodd;fill:#FFFFFF;}
	.st7{fill:#D2D2D2;}
	.st8{fill:#B3B2B3;}
	.st9{fill:#BABABA;}
	.st10{fill:#000100;}
	.st11{font-family:'Verdana';}
	.st12{font-size:1.8472px;}
	.st13{fill:#0000FF;}
	.st14{fill:#006837;}
	.st15{fill:#505050;}
	.st16{fill-rule:evenodd;clip-rule:evenodd;fill:#D2D2D2;}
	.st17{font-family:'SegoeBlack';}
	.st18{font-size:11.4px;}
	
		.st19{fill-rule:evenodd;clip-rule:evenodd;fill:none;stroke:#737373;stroke-width:2;stroke-linecap:round;stroke-linejoin:round;stroke-miterlimit:10;stroke-dasharray:0,3;}
</style>
<g id="Layer_2">
	<rect x="27.6" y="2.6" class="st0" width="168.6" height="122.2"/>
	<rect x="50" y="14.7" class="st1" width="107.6" height="5.7"/>
	<path class="st2" d="M156.5,19.7H153c-0.1,0-0.3-0.1-0.3-0.3v-3.5c0-0.1,0.1-0.3,0.3-0.3h3.5c0.1,0,0.3,0.1,0.3,0.3v3.5
		C156.8,19.6,156.7,19.7,156.5,19.7z"/>
	<g>
		<ellipse transform="matrix(0.6971 -0.7169 0.7169 0.6971 34.574 116.4747)" class="st3" cx="155.1" cy="17.3" rx="1" ry="1"/>
		<path class="st0" d="M153.4,18.8c-0.1,0.1,0,0.2,0,0.2l0,0c0.1,0.1,0.2,0.1,0.2,0l0.8-0.9c0.1-0.1,0-0.2,0-0.2l0,0
			c-0.1-0.1-0.2-0.1-0.2,0L153.4,18.8z"/>
	</g>
	<rect x="27.6" y="134.7" class="st4" width="168.7" height="50.2"/>
	<g>
		<path class="st5" d="M37.4,19.1v-3.9h1.1c0.3,0,0.6,0.1,0.8,0.2c0.2,0.2,0.3,0.4,0.3,0.6c0,0.2-0.1,0.4-0.2,0.6
			c-0.1,0.2-0.3,0.3-0.5,0.3v0c0.3,0,0.5,0.1,0.6,0.3c0.2,0.2,0.2,0.4,0.2,0.7c0,0.3-0.1,0.6-0.4,0.8c-0.2,0.2-0.5,0.3-0.9,0.3H37.4
			z M37.8,15.6v1.3h0.5c0.3,0,0.4-0.1,0.6-0.2c0.1-0.1,0.2-0.3,0.2-0.5c0-0.4-0.2-0.6-0.7-0.6H37.8z M37.8,17.2v1.4h0.6
			c0.3,0,0.5-0.1,0.6-0.2c0.1-0.1,0.2-0.3,0.2-0.5c0-0.5-0.3-0.7-0.9-0.7H37.8z M40.9,15.4c0-0.1,0-0.1-0.1-0.2
			c-0.1-0.1-0.1-0.1-0.2-0.1c-0.1,0-0.2,0-0.2,0.1c-0.1,0.1-0.1,0.1-0.1,0.2c0,0.1,0,0.2,0.1,0.2c0.1,0.1,0.1,0.1,0.2,0.1
			c0.1,0,0.1,0,0.2-0.1C40.8,15.5,40.9,15.5,40.9,15.4 M40.8,16.3h-0.4v2.8h0.4V16.3z M43.8,17.4c0-0.4-0.1-0.6-0.2-0.8
			c-0.2-0.2-0.4-0.3-0.7-0.3c-0.4,0-0.7,0.2-0.9,0.5h0v-0.5h-0.4v2.8H42v-1.6c0-0.3,0.1-0.5,0.2-0.6c0.1-0.2,0.3-0.2,0.5-0.2
			c0.4,0,0.6,0.3,0.6,0.9v1.6h0.4V17.4z M47,18.8c0,1-0.5,1.5-1.5,1.5c-0.3,0-0.6-0.1-0.9-0.2l0.1-0.4c0.3,0.1,0.5,0.2,0.8,0.2
			c0.7,0,1-0.4,1-1.1v-0.3h0c-0.2,0.4-0.5,0.5-0.9,0.5c-0.2,0-0.4-0.1-0.6-0.2c-0.2-0.1-0.3-0.3-0.4-0.5c-0.1-0.2-0.1-0.4-0.1-0.7
			c0-0.5,0.1-0.8,0.3-1.1c0.2-0.3,0.5-0.4,0.9-0.4c0.4,0,0.6,0.1,0.8,0.4h0v-0.4H47V18.8z M46.5,17.8v-0.4c0-0.2-0.1-0.4-0.2-0.6
			c-0.2-0.2-0.3-0.2-0.5-0.2c-0.3,0-0.5,0.1-0.6,0.3c-0.2,0.2-0.2,0.5-0.2,0.8c0,0.3,0.1,0.5,0.2,0.7c0.1,0.2,0.3,0.3,0.6,0.3
			c0.2,0,0.4-0.1,0.6-0.3S46.5,18.1,46.5,17.8"/>
		<polygon class="st5" points="32.5,16 33.1,17.4 34,17.8 32.2,18.9 32.2,14.3 30.9,13.9 30.9,19.6 32.2,20.4 35.4,18.5 35.4,17 		
			"/>
	</g>
</g>
<g id="Layer_1">
	<rect x="27.8" y="134.6" class="st6" width="168.1" height="1.5"/>
	<g>
		<path class="st7" d="M197.5,2.1c0-0.6-0.8-1.3-1.6-1.3H27.8c-0.8,0-1.4,0.7-1.4,1.3v122c0,0.6,0.5,1,1.4,1h168.1
			c0.8,0,1.6-0.4,1.6-1V2.1z M196.3,123.8H27.7V9.2h168.6V123.8z"/>
	</g>
	<rect x="41.1" y="3.5" class="st0" width="38" height="4"/>
	<g>
		<g>
			<path class="st8" d="M76.2,7C76.1,7,76,7,76,7c-0.1-0.1-0.1-0.3,0-0.4l0.8-0.8c0.1-0.1,0.3-0.1,0.4,0c0.1,0.1,0.1,0.3,0,0.4
				L76.4,7C76.3,7,76.2,7,76.2,7z"/>
		</g>
		<g>
			<path class="st8" d="M77.6,6.3c-0.1,0-0.2,0-0.2,0c-0.6-0.1-0.9-0.7-0.8-1.2c0.1-0.5,0.5-0.8,1-0.8c0.1,0,0.2,0,0.2,0
				c0.3,0.1,0.5,0.2,0.6,0.5c0.1,0.2,0.2,0.5,0.1,0.8C78.5,6,78.1,6.3,77.6,6.3z M77.6,4.6c-0.3,0-0.6,0.2-0.7,0.5
				c-0.1,0.4,0.1,0.8,0.5,0.9c0.1,0,0.1,0,0.2,0c0.3,0,0.6-0.2,0.7-0.5c0-0.2,0-0.4-0.1-0.5c-0.1-0.2-0.3-0.3-0.4-0.3
				C77.8,4.6,77.7,4.6,77.6,4.6z"/>
		</g>
	</g>
	<g>
		<g>
			<path class="st9" d="M30.8,3.7c-1.7,0-3.1,1.4-3.1,3.1c0,1,0.5,1.9,1.2,2.5h0.7c-0.9-0.4-1.6-1.4-1.6-2.5c0-1.5,1.2-2.7,2.7-2.7
				c1.5,0,2.7,1.2,2.7,2.7c0,1.1-0.7,2-1.6,2.5h0.7c0.8-0.6,1.2-1.5,1.2-2.5C33.9,5.1,32.5,3.7,30.8,3.7z M32.4,7.1V6.5h-2.1
				l0.9-0.9h-0.8l-1.3,1.2l1.3,1.2h0.8l-0.9-0.9H32.4z"/>
		</g>
	</g>
	<text transform="matrix(1 0 0 1 42.241 6.4544)" class="st10 st11 st12">http://www.bing.com</text>
	<g>
		<polygon class="st9" points="36.6,6.9 36,7.4 36.5,7.4 37.3,6.7 36.5,5.9 36,5.9 36.6,6.5 35.3,6.5 35.3,6.9 		"/>
		<path class="st9" d="M36.3,5C37.2,5,38,5.7,38,6.7c0,0.9-0.8,1.7-1.7,1.7c-0.9,0-1.7-0.8-1.7-1.7C34.6,5.7,35.3,5,36.3,5
			 M36.3,4.7c-1.1,0-2,0.9-2,2c0,1.1,0.9,2,2,2c1.1,0,2-0.9,2-2C38.2,5.6,37.4,4.7,36.3,4.7L36.3,4.7z"/>
	</g>
	<g>
		<rect x="37.3" y="26.1" class="st13" width="88.2" height="2.6"/>
		<rect x="37.3" y="30.1" class="st14" width="44.8" height="2.6"/>
		<rect x="37.3" y="34.2" class="st15" width="82.8" height="2.6"/>
		<rect x="37.3" y="38.3" class="st15" width="75.3" height="2.6"/>
	</g>
	<g>
		<rect x="37.3" y="47.9" class="st13" width="68.8" height="2.6"/>
		<rect x="37.3" y="52" class="st14" width="62.7" height="2.6"/>
		<rect x="37.3" y="56" class="st15" width="81" height="2.6"/>
		<rect x="37.3" y="60.1" class="st15" width="75.3" height="2.6"/>
	</g>
	<g>
		<rect x="37.3" y="69.7" class="st13" width="68.3" height="2.6"/>
		<rect x="37.3" y="73.8" class="st14" width="48.6" height="2.6"/>
		<rect x="37.3" y="77.6" class="st15" width="64.7" height="2.9"/>
		<rect x="37.3" y="81.9" class="st15" width="23.7" height="2.6"/>
	</g>
	<g>
		<rect x="140.3" y="25.8" class="st13" width="35.3" height="2.6"/>
		<rect x="140.3" y="29.9" class="st14" width="32.1" height="2.6"/>
		<rect x="140.3" y="34" class="st15" width="41.5" height="2.6"/>
		<rect x="140.3" y="38" class="st15" width="38.6" height="2.6"/>
	</g>
	<g>
		<rect x="140.3" y="45.3" class="st13" width="35" height="2.6"/>
		<rect x="140.3" y="49.4" class="st14" width="24.9" height="2.6"/>
		<rect x="140.3" y="53.1" class="st15" width="33.2" height="2.9"/>
		<rect x="140.3" y="57.5" class="st15" width="12.2" height="2.6"/>
	</g>
	<g>
		<rect x="140.3" y="64.8" class="st13" width="35.3" height="2.6"/>
		<rect x="140.3" y="68.9" class="st14" width="32.1" height="2.6"/>
		<rect x="140.3" y="72.9" class="st15" width="41.5" height="2.6"/>
		<rect x="140.3" y="77" class="st15" width="38.6" height="2.6"/>
	</g>
	<g>
		<rect x="140.3" y="84.3" class="st13" width="35" height="2.6"/>
		<rect x="140.3" y="88.4" class="st14" width="24.9" height="2.6"/>
		<rect x="140.3" y="92.1" class="st15" width="33.2" height="2.9"/>
		<rect x="140.3" y="96.5" class="st15" width="12.2" height="2.6"/>
	</g>
	<g>
		<rect x="140.3" y="103.8" class="st13" width="35" height="2.6"/>
		<rect x="140.3" y="107.8" class="st14" width="24.9" height="2.6"/>
		<rect x="140.3" y="111.6" class="st15" width="33.2" height="2.9"/>
		<rect x="140.3" y="116" class="st15" width="12.2" height="2.6"/>
	</g>
	<g>
		<rect x="37.3" y="91.6" class="st13" width="75.6" height="2.6"/>
		<rect x="37.3" y="95.6" class="st14" width="20.7" height="2.6"/>
		<rect x="37.3" y="99.7" class="st15" width="78.2" height="2.6"/>
		<rect x="37.3" y="103.8" class="st15" width="50.5" height="2.6"/>
	</g>
	<g>
		<rect x="37.3" y="142.7" class="st13" width="68.3" height="2.6"/>
		<rect x="37.3" y="146.8" class="st14" width="48.6" height="2.6"/>
		<rect x="37.3" y="150.5" class="st15" width="64.7" height="2.9"/>
		<rect x="37.3" y="154.9" class="st15" width="23.7" height="2.6"/>
	</g>
	<g>
		<rect x="37.3" y="164.5" class="st13" width="75.6" height="2.6"/>
		<rect x="37.3" y="168.6" class="st14" width="20.7" height="2.6"/>
		<rect x="37.3" y="172.7" class="st15" width="78.2" height="2.6"/>
		<rect x="37.3" y="176.7" class="st15" width="50.5" height="2.6"/>
	</g>
	<g>
		<g>
			<g>
				<path class="st16" d="M44,134.3c-0.1,0.1-0.2,0.1-0.3,0l-1.1-0.9c-0.1-0.1-0.2-0.2-0.3-0.1l-0.9,0.9c-0.1,0.1-0.2,0.1-0.3,0
					l-1.1-0.9c-0.1-0.1-0.2-0.2-0.3,0l-0.9,0.9c-0.1,0.1-0.2,0.1-0.3,0l-1.1-0.9c-0.1-0.1-0.2-0.2-0.3,0l-1,1c-0.1,0-0.1,0-0.2,0
					l-1.1-0.9c-0.1-0.1-0.2-0.2-0.3-0.1l-0.9,0.9c-0.1,0.1-0.2,0.1-0.3,0l-1.1-0.9c-0.1-0.1-0.2-0.2-0.3,0l-0.9,0.9
					c-0.1,0.1-0.2,0.1-0.3,0l-1.1-0.9c-0.1-0.1-0.2-0.2-0.3,0l-1.4,1.4v0.5l0.7-0.8c0.1-0.1,0.2,0,0.3,0l1.1,0.9
					c0.1,0.1,0.2,0.1,0.3,0l0.9-0.9c0.1-0.1,0.2,0,0.3,0l1.1,0.9c0.1,0.1,0.2,0.1,0.3,0l0.9-0.9c0.1-0.1,0.2,0,0.3,0l1.1,0.9
					c0.1,0.1,0.2,0.1,0.3,0l0.9-0.9c0.1,0,0.2,0,0.3,0.1l1.1,0.9c0.1,0.1,0.2,0.1,0.3,0l0.9-0.9c0.1-0.1,0.2,0,0.3,0l1.1,0.9
					c0.1,0.1,0.2,0.1,0.3,0l0.9-0.9c0.1-0.1,0.2,0,0.3,0l1.1,0.9c0.1,0.1,0.2,0.1,0.3,0l1.4-1.4v-0.5L44,134.3z"/>
				<path class="st16" d="M59.9,134.3c-0.1,0.1-0.2,0.1-0.3,0l-1.1-0.9c-0.1-0.1-0.2-0.2-0.3-0.1l-0.9,0.9c-0.1,0.1-0.2,0.1-0.3,0
					l-1.1-0.9c-0.1-0.1-0.2-0.2-0.3,0l-0.9,0.9c-0.1,0.1-0.2,0.1-0.3,0l-1.1-0.9c-0.1-0.1-0.2-0.2-0.3,0l-1,1c-0.1,0-0.1,0-0.2,0
					l-1.1-0.9c-0.1-0.1-0.2-0.2-0.3-0.1l-0.9,0.9c-0.1,0.1-0.2,0.1-0.3,0l-1.1-0.9c-0.1-0.1-0.2-0.2-0.3,0l-0.9,0.9
					c-0.1,0.1-0.2,0.1-0.3,0l-1.1-0.9c-0.1-0.1-0.2-0.2-0.3,0l-1.4,1.4v0.5l0.7-0.8c0.1-0.1,0.2,0,0.3,0l1.1,0.9
					c0.1,0.1,0.2,0.1,0.3,0l0.9-0.9c0.1-0.1,0.2,0,0.3,0l1.1,0.9c0.1,0.1,0.2,0.1,0.3,0l0.9-0.9c0.1-0.1,0.2,0,0.3,0l1.1,0.9
					c0.1,0.1,0.2,0.1,0.3,0l0.9-0.9c0.1,0,0.2,0,0.3,0.1l1.1,0.9c0.1,0.1,0.2,0.1,0.3,0l0.9-0.9c0.1-0.1,0.2,0,0.3,0l1.1,0.9
					c0.1,0.1,0.2,0.1,0.3,0l0.9-0.9c0.1-0.1,0.2,0,0.3,0l1.1,0.9c0.1,0.1,0.2,0.1,0.3,0l1.4-1.4v-0.5L59.9,134.3z"/>
			</g>
			<g>
				<path class="st16" d="M75.9,134.3c-0.1,0.1-0.2,0.1-0.3,0l-1.1-0.9c-0.1-0.1-0.2-0.2-0.3-0.1l-0.9,0.9c-0.1,0.1-0.2,0.1-0.3,0
					l-1.1-0.9c-0.1-0.1-0.2-0.2-0.3,0l-0.9,0.9c-0.1,0.1-0.2,0.1-0.3,0l-1.1-0.9c-0.1-0.1-0.2-0.2-0.3,0l-1,1c-0.1,0-0.1,0-0.2,0
					l-1.1-0.9c-0.1-0.1-0.2-0.2-0.3-0.1l-0.9,0.9c-0.1,0.1-0.2,0.1-0.3,0l-1.1-0.9c-0.1-0.1-0.2-0.2-0.3,0l-0.9,0.9
					c-0.1,0.1-0.2,0.1-0.3,0l-1.1-0.9c-0.1-0.1-0.2-0.2-0.3,0l-1.4,1.4v0.5l0.7-0.8c0.1-0.1,0.2,0,0.3,0l1.1,0.9
					c0.1,0.1,0.2,0.1,0.3,0l0.9-0.9c0.1-0.1,0.2,0,0.3,0l1.1,0.9c0.1,0.1,0.2,0.1,0.3,0l0.9-0.9c0.1-0.1,0.2,0,0.3,0l1.1,0.9
					c0.1,0.1,0.2,0.1,0.3,0l0.9-0.9c0.1,0,0.2,0,0.3,0.1l1.1,0.9c0.1,0.1,0.2,0.1,0.3,0l0.9-0.9c0.1-0.1,0.2,0,0.3,0l1.1,0.9
					c0.1,0.1,0.2,0.1,0.3,0l0.9-0.9c0.1-0.1,0.2,0,0.3,0l1.1,0.9c0.1,0.1,0.2,0.1,0.3,0l1.4-1.4v-0.5L75.9,134.3z"/>
				<path class="st16" d="M91.8,134.3c-0.1,0.1-0.2,0.1-0.3,0l-1.1-0.9c-0.1-0.1-0.2-0.2-0.3-0.1l-0.9,0.9c-0.1,0.1-0.2,0.1-0.3,0
					l-1.1-0.9c-0.1-0.1-0.2-0.2-0.3,0l-0.9,0.9c-0.1,0.1-0.2,0.1-0.3,0l-1.1-0.9c-0.1-0.1-0.2-0.2-0.3,0l-1,1c-0.1,0-0.1,0-0.2,0
					l-1.1-0.9c-0.1-0.1-0.2-0.2-0.3-0.1l-0.9,0.9c-0.1,0.1-0.2,0.1-0.3,0l-1.1-0.9c-0.1-0.1-0.2-0.2-0.3,0l-0.9,0.9
					c-0.1,0.1-0.2,0.1-0.3,0l-1.1-0.9c-0.1-0.1-0.2-0.2-0.3,0l-1.4,1.4v0.5l0.7-0.8c0.1-0.1,0.2,0,0.3,0l1.1,0.9
					c0.1,0.1,0.2,0.1,0.3,0l0.9-0.9c0.1-0.1,0.2,0,0.3,0l1.1,0.9c0.1,0.1,0.2,0.1,0.3,0l0.9-0.9c0.1-0.1,0.2,0,0.3,0l1.1,0.9
					c0.1,0.1,0.2,0.1,0.3,0l0.9-0.9c0.1,0,0.2,0,0.3,0.1l1.1,0.9c0.1,0.1,0.2,0.1,0.3,0l0.9-0.9c0.1-0.1,0.2,0,0.3,0l1.1,0.9
					c0.1,0.1,0.2,0.1,0.3,0l0.9-0.9c0.1-0.1,0.2,0,0.3,0l1.1,0.9c0.1,0.1,0.2,0.1,0.3,0l1.4-1.4v-0.5L91.8,134.3z"/>
			</g>
		</g>
		<g>
			<g>
				<path class="st16" d="M108,134.3c-0.1,0.1-0.2,0.1-0.3,0l-1.1-0.9c-0.1-0.1-0.2-0.2-0.3-0.1l-0.9,0.9c-0.1,0.1-0.2,0.1-0.3,0
					l-1.1-0.9c-0.1-0.1-0.2-0.2-0.3,0l-0.9,0.9c-0.1,0.1-0.2,0.1-0.3,0l-1.1-0.9c-0.1-0.1-0.2-0.2-0.3,0l-1,1c-0.1,0-0.1,0-0.2,0
					l-1.1-0.9c-0.1-0.1-0.2-0.2-0.3-0.1l-0.9,0.9c-0.1,0.1-0.2,0.1-0.3,0l-1.1-0.9c-0.1-0.1-0.2-0.2-0.3,0l-0.9,0.9
					c-0.1,0.1-0.2,0.1-0.3,0l-1.1-0.9c-0.1-0.1-0.2-0.2-0.3,0l-1.4,1.4v0.5l0.7-0.8c0.1-0.1,0.2,0,0.3,0l1.1,0.9
					c0.1,0.1,0.2,0.1,0.3,0l0.9-0.9c0.1-0.1,0.2,0,0.3,0l1.1,0.9c0.1,0.1,0.2,0.1,0.3,0l0.9-0.9c0.1-0.1,0.2,0,0.3,0l1.1,0.9
					c0.1,0.1,0.2,0.1,0.3,0l0.9-0.9c0.1,0,0.2,0,0.3,0.1l1.1,0.9c0.1,0.1,0.2,0.1,0.3,0l0.9-0.9c0.1-0.1,0.2,0,0.3,0l1.1,0.9
					c0.1,0.1,0.2,0.1,0.3,0l0.9-0.9c0.1-0.1,0.2,0,0.3,0l1.1,0.9c0.1,0.1,0.2,0.1,0.3,0l1.4-1.4v-0.5L108,134.3z"/>
				<path class="st16" d="M123.9,134.3c-0.1,0.1-0.2,0.1-0.3,0l-1.1-0.9c-0.1-0.1-0.2-0.2-0.3-0.1l-0.9,0.9c-0.1,0.1-0.2,0.1-0.3,0
					l-1.1-0.9c-0.1-0.1-0.2-0.2-0.3,0l-0.9,0.9c-0.1,0.1-0.2,0.1-0.3,0l-1.1-0.9c-0.1-0.1-0.2-0.2-0.3,0l-1,1c-0.1,0-0.1,0-0.2,0
					l-1.1-0.9c-0.1-0.1-0.2-0.2-0.3-0.1l-0.9,0.9c-0.1,0.1-0.2,0.1-0.3,0l-1.1-0.9c-0.1-0.1-0.2-0.2-0.3,0l-0.9,0.9
					c-0.1,0.1-0.2,0.1-0.3,0l-1.1-0.9c-0.1-0.1-0.2-0.2-0.3,0l-1.4,1.4v0.5l0.7-0.8c0.1-0.1,0.2,0,0.3,0l1.1,0.9
					c0.1,0.1,0.2,0.1,0.3,0l0.9-0.9c0.1-0.1,0.2,0,0.3,0l1.1,0.9c0.1,0.1,0.2,0.1,0.3,0l0.9-0.9c0.1-0.1,0.2,0,0.3,0l1.1,0.9
					c0.1,0.1,0.2,0.1,0.3,0l0.9-0.9c0.1,0,0.2,0,0.3,0.1l1.1,0.9c0.1,0.1,0.2,0.1,0.3,0l0.9-0.9c0.1-0.1,0.2,0,0.3,0l1.1,0.9
					c0.1,0.1,0.2,0.1,0.3,0l0.9-0.9c0.1-0.1,0.2,0,0.3,0l1.1,0.9c0.1,0.1,0.2,0.1,0.3,0l1.4-1.4v-0.5L123.9,134.3z"/>
			</g>
			<g>
				<path class="st16" d="M140,134.3c-0.1,0.1-0.2,0.1-0.3,0l-1.1-0.9c-0.1-0.1-0.2-0.2-0.3-0.1l-0.9,0.9c-0.1,0.1-0.2,0.1-0.3,0
					l-1.1-0.9c-0.1-0.1-0.2-0.2-0.3,0l-0.9,0.9c-0.1,0.1-0.2,0.1-0.3,0l-1.1-0.9c-0.1-0.1-0.2-0.2-0.3,0l-1,1c-0.1,0-0.1,0-0.2,0
					l-1.1-0.9c-0.1-0.1-0.2-0.2-0.3-0.1l-0.9,0.9c-0.1,0.1-0.2,0.1-0.3,0l-1.1-0.9c-0.1-0.1-0.2-0.2-0.3,0l-0.9,0.9
					c-0.1,0.1-0.2,0.1-0.3,0l-1.1-0.9c-0.1-0.1-0.2-0.2-0.3,0l-1.4,1.4v0.5l0.7-0.8c0.1-0.1,0.2,0,0.3,0l1.1,0.9
					c0.1,0.1,0.2,0.1,0.3,0l0.9-0.9c0.1-0.1,0.2,0,0.3,0l1.1,0.9c0.1,0.1,0.2,0.1,0.3,0l0.9-0.9c0.1-0.1,0.2,0,0.3,0l1.1,0.9
					c0.1,0.1,0.2,0.1,0.3,0l0.9-0.9c0.1,0,0.2,0,0.3,0.1l1.1,0.9c0.1,0.1,0.2,0.1,0.3,0l0.9-0.9c0.1-0.1,0.2,0,0.3,0l1.1,0.9
					c0.1,0.1,0.2,0.1,0.3,0l0.9-0.9c0.1-0.1,0.2,0,0.3,0l1.1,0.9c0.1,0.1,0.2,0.1,0.3,0l1.4-1.4v-0.5L140,134.3z"/>
				<path class="st16" d="M155.9,134.3c-0.1,0.1-0.2,0.1-0.3,0l-1.1-0.9c-0.1-0.1-0.2-0.2-0.3-0.1l-0.9,0.9c-0.1,0.1-0.2,0.1-0.3,0
					l-1.1-0.9c-0.1-0.1-0.2-0.2-0.3,0l-0.9,0.9c-0.1,0.1-0.2,0.1-0.3,0l-1.1-0.9c-0.1-0.1-0.2-0.2-0.3,0l-1,1c-0.1,0-0.1,0-0.2,0
					l-1.1-0.9c-0.1-0.1-0.2-0.2-0.3-0.1l-0.9,0.9c-0.1,0.1-0.2,0.1-0.3,0l-1.1-0.9c-0.1-0.1-0.2-0.2-0.3,0l-0.9,0.9
					c-0.1,0.1-0.2,0.1-0.3,0l-1.1-0.9c-0.1-0.1-0.2-0.2-0.3,0l-1.4,1.4v0.5l0.7-0.8c0.1-0.1,0.2,0,0.3,0l1.1,0.9
					c0.1,0.1,0.2,0.1,0.3,0l0.9-0.9c0.1-0.1,0.2,0,0.3,0l1.1,0.9c0.1,0.1,0.2,0.1,0.3,0l0.9-0.9c0.1-0.1,0.2,0,0.3,0l1.1,0.9
					c0.1,0.1,0.2,0.1,0.3,0l0.9-0.9c0.1,0,0.2,0,0.3,0.1l1.1,0.9c0.1,0.1,0.2,0.1,0.3,0l0.9-0.9c0.1-0.1,0.2,0,0.3,0l1.1,0.9
					c0.1,0.1,0.2,0.1,0.3,0l0.9-0.9c0.1-0.1,0.2,0,0.3,0l1.1,0.9c0.1,0.1,0.2,0.1,0.3,0l1.4-1.4v-0.5L155.9,134.3z"/>
			</g>
		</g>
		<g>
			<g>
				<path class="st16" d="M147.8,134.3c-0.1,0.1-0.2,0.1-0.3,0l-1.1-0.9c-0.1-0.1-0.2-0.2-0.3-0.1l-0.9,0.9c-0.1,0.1-0.2,0.1-0.3,0
					l-1.1-0.9c-0.1-0.1-0.2-0.2-0.3,0l-0.9,0.9c-0.1,0.1-0.2,0.1-0.3,0l-1.1-0.9c-0.1-0.1-0.2-0.2-0.3,0l-1,1c-0.1,0-0.1,0-0.2,0
					l-1.1-0.9c-0.1-0.1-0.2-0.2-0.3-0.1l-0.9,0.9c-0.1,0.1-0.2,0.1-0.3,0l-1.1-0.9c-0.1-0.1-0.2-0.2-0.3,0l-0.9,0.9
					c-0.1,0.1-0.2,0.1-0.3,0l-1.1-0.9c-0.1-0.1-0.2-0.2-0.3,0l-1.4,1.4v0.5l0.7-0.8c0.1-0.1,0.2,0,0.3,0l1.1,0.9
					c0.1,0.1,0.2,0.1,0.3,0l0.9-0.9c0.1-0.1,0.2,0,0.3,0l1.1,0.9c0.1,0.1,0.2,0.1,0.3,0l0.9-0.9c0.1-0.1,0.2,0,0.3,0l1.1,0.9
					c0.1,0.1,0.2,0.1,0.3,0l0.9-0.9c0.1,0,0.2,0,0.3,0.1l1.1,0.9c0.1,0.1,0.2,0.1,0.3,0l0.9-0.9c0.1-0.1,0.2,0,0.3,0l1.1,0.9
					c0.1,0.1,0.2,0.1,0.3,0l0.9-0.9c0.1-0.1,0.2,0,0.3,0l1.1,0.9c0.1,0.1,0.2,0.1,0.3,0l1.4-1.4v-0.5L147.8,134.3z"/>
				<path class="st16" d="M163.7,134.3c-0.1,0.1-0.2,0.1-0.3,0l-1.1-0.9c-0.1-0.1-0.2-0.2-0.3-0.1l-0.9,0.9c-0.1,0.1-0.2,0.1-0.3,0
					l-1.1-0.9c-0.1-0.1-0.2-0.2-0.3,0l-0.9,0.9c-0.1,0.1-0.2,0.1-0.3,0l-1.1-0.9c-0.1-0.1-0.2-0.2-0.3,0l-1,1c-0.1,0-0.1,0-0.2,0
					l-1.1-0.9c-0.1-0.1-0.2-0.2-0.3-0.1l-0.9,0.9c-0.1,0.1-0.2,0.1-0.3,0l-1.1-0.9c-0.1-0.1-0.2-0.2-0.3,0l-0.9,0.9
					c-0.1,0.1-0.2,0.1-0.3,0l-1.1-0.9c-0.1-0.1-0.2-0.2-0.3,0l-1.4,1.4v0.5l0.7-0.8c0.1-0.1,0.2,0,0.3,0l1.1,0.9
					c0.1,0.1,0.2,0.1,0.3,0l0.9-0.9c0.1-0.1,0.2,0,0.3,0l1.1,0.9c0.1,0.1,0.2,0.1,0.3,0l0.9-0.9c0.1-0.1,0.2,0,0.3,0l1.1,0.9
					c0.1,0.1,0.2,0.1,0.3,0l0.9-0.9c0.1,0,0.2,0,0.3,0.1l1.1,0.9c0.1,0.1,0.2,0.1,0.3,0l0.9-0.9c0.1-0.1,0.2,0,0.3,0l1.1,0.9
					c0.1,0.1,0.2,0.1,0.3,0l0.9-0.9c0.1-0.1,0.2,0,0.3,0l1.1,0.9c0.1,0.1,0.2,0.1,0.3,0l1.4-1.4v-0.5L163.7,134.3z"/>
			</g>
			<g>
				<path class="st16" d="M179.8,134.3c-0.1,0.1-0.2,0.1-0.3,0l-1.1-0.9c-0.1-0.1-0.2-0.2-0.3-0.1l-0.9,0.9c-0.1,0.1-0.2,0.1-0.3,0
					l-1.1-0.9c-0.1-0.1-0.2-0.2-0.3,0l-0.9,0.9c-0.1,0.1-0.2,0.1-0.3,0l-1.1-0.9c-0.1-0.1-0.2-0.2-0.3,0l-1,1c-0.1,0-0.1,0-0.2,0
					l-1.1-0.9c-0.1-0.1-0.2-0.2-0.3-0.1l-0.9,0.9c-0.1,0.1-0.2,0.1-0.3,0l-1.1-0.9c-0.1-0.1-0.2-0.2-0.3,0l-0.9,0.9
					c-0.1,0.1-0.2,0.1-0.3,0l-1.1-0.9c-0.1-0.1-0.2-0.2-0.3,0l-1.4,1.4v0.5l0.7-0.8c0.1-0.1,0.2,0,0.3,0l1.1,0.9
					c0.1,0.1,0.2,0.1,0.3,0l0.9-0.9c0.1-0.1,0.2,0,0.3,0l1.1,0.9c0.1,0.1,0.2,0.1,0.3,0l0.9-0.9c0.1-0.1,0.2,0,0.3,0l1.1,0.9
					c0.1,0.1,0.2,0.1,0.3,0l0.9-0.9c0.1,0,0.2,0,0.3,0.1l1.1,0.9c0.1,0.1,0.2,0.1,0.3,0l0.9-0.9c0.1-0.1,0.2,0,0.3,0l1.1,0.9
					c0.1,0.1,0.2,0.1,0.3,0l0.9-0.9c0.1-0.1,0.2,0,0.3,0l1.1,0.9c0.1,0.1,0.2,0.1,0.3,0l1.4-1.4v-0.5L179.8,134.3z"/>
				<path class="st16" d="M195.7,134.5c-0.1-0.1-0.2,0-0.3-0.1l-1.1-0.9c-0.1-0.1-0.2-0.2-0.3-0.1l-0.9,0.9c-0.1,0.1-0.2,0.1-0.3,0
					l-1.1-0.9c-0.1-0.1-0.2-0.2-0.3,0l-0.9,0.9c-0.1,0.1-0.2,0.1-0.3,0l-1.1-0.9c-0.1-0.1-0.2-0.2-0.3,0l-1,1c-0.1,0-0.1,0-0.2,0
					l-1.1-0.9c-0.1-0.1-0.2-0.2-0.3-0.1l-0.9,0.9c-0.1,0.1-0.2,0.1-0.3,0l-1.1-0.9c-0.1-0.1-0.2-0.2-0.3,0l-0.9,0.9
					c-0.1,0.1-0.2,0.1-0.3,0l-1.1-0.9c-0.1-0.1-0.2-0.2-0.3,0l-1.4,1.4v0.5l0.7-0.8c0.1-0.1,0.2,0,0.3,0l1.1,0.9
					c0.1,0.1,0.2,0.1,0.3,0l0.9-0.9c0.1-0.1,0.2,0,0.3,0l1.1,0.9c0.1,0.1,0.2,0.1,0.3,0l0.9-0.9c0.1-0.1,0.2,0,0.3,0l1.1,0.9
					c0.1,0.1,0.2,0.1,0.3,0l0.9-0.9c0.1,0,0.2,0,0.3,0.1l1.1,0.9c0.1,0.1,0.2,0.1,0.3,0l0.9-0.9c0.1-0.1,0.2,0,0.3,0l1.1,0.9
					c0.1,0.1,0.2,0.1,0.3,0l0.9-0.9c0.1-0.1,0.2,0,0.3,0l1.1,0.9c0.1,0.1,0.2,0.1,0.3,0l1.4-1v0L195.7,134.5z"/>
			</g>
		</g>
	</g>
	<text transform="matrix(1 0 0 1 1.885 36.5892)" class="st15 st17 st18">1</text>
	<line class="st19" x1="11.1" y1="32.5" x2="35.1" y2="32.5"/>
	<line class="st19" x1="188.1" y1="32.5" x2="211.1" y2="32.5"/>
	<line class="st19" x1="188.1" y1="52.5" x2="211.1" y2="52.5"/>
	<line class="st19" x1="188.1" y1="73.5" x2="211.1" y2="73.5"/>
	<line class="st19" x1="188.1" y1="92.5" x2="211.1" y2="92.5"/>
	<line class="st19" x1="188.1" y1="109.5" x2="211.1" y2="109.5"/>
	<text transform="matrix(1 0 0 1 1.885 59.389)" class="st15 st17 st18">2</text>
	<line class="st19" x1="11.1" y1="55.5" x2="35.1" y2="55.5"/>
	<text transform="matrix(1 0 0 1 1.885 152.9886)" class="st15 st17 st18">1</text>
	<line class="st19" x1="11.1" y1="149.5" x2="35.1" y2="149.5"/>
	<text transform="matrix(1 0 0 1 1.885 175.7894)" class="st15 st17 st18">2</text>
	<line class="st19" x1="11.1" y1="172.5" x2="35.1" y2="172.5"/>
	<text transform="matrix(1 0 0 1 1.885 80.9886)" class="st15 st17 st18">3</text>
	<line class="st19" x1="11.1" y1="77.5" x2="35.1" y2="77.5"/>
	<text transform="matrix(1 0 0 1 1.885 102.5892)" class="st15 st17 st18">4</text>
	<text transform="matrix(1 0 0 1 211.2849 36.1068)" class="st15 st17 st18">5</text>
	<text transform="matrix(1 0 0 1 211.2849 56.9183)" class="st15 st17 st18">6</text>
	<text transform="matrix(1 0 0 1 211.2849 76.4183)" class="st15 st17 st18">7</text>
	<text transform="matrix(1 0 0 1 211.2849 96.9398)" class="st15 st17 st18">8</text>
	<text transform="matrix(1 0 0 1 211.2849 114.4827)" class="st15 st17 st18">9</text>
	<line class="st19" x1="11.1" y1="98.5" x2="35.1" y2="98.5"/>
	<rect x="27.7" y="120.2" class="st0" width="168.6" height="4.7"/>
	<g>
		<g>
			<g>
				<path class="st16" d="M43.5,124.7c-0.1,0.1-0.2,0.1-0.3,0l-1.2-0.9c-0.1-0.1-0.2-0.2-0.3-0.1l-0.9,0.9c-0.1,0.1-0.2,0.1-0.3,0
					l-1.2-0.9c-0.1-0.1-0.2-0.2-0.3,0l-0.9,0.9c-0.1,0.1-0.2,0.1-0.3,0l-1.2-0.9c-0.1-0.1-0.2-0.2-0.3,0l-1,1c-0.1,0-0.1,0-0.2,0
					l-1.2-0.9c-0.1-0.1-0.2-0.2-0.3-0.1l-0.9,0.9c-0.1,0.1-0.2,0.1-0.3,0l-1.2-0.9c-0.1-0.1-0.2-0.2-0.3,0l-0.9,0.9
					c-0.1,0.1-0.2,0.1-0.3,0l-1.2-0.9c-0.1-0.1-0.2-0.2-0.3,0l-1.4,0.7v0.3l0.2,0.2c0.1-0.1,0.8,0.1,0.8,0.2l1.2,0.9
					c0.1,0.1,0.2,0.1,0.3,0l0.9-0.9c0.1-0.1,0.2,0,0.3,0l1.2,0.9c0.1,0.1,0.2,0.1,0.3,0l0.9-0.9c0.1-0.1,0.2,0,0.3,0l1.2,0.9
					c0.1,0.1,0.2,0.1,0.3,0l0.9-0.9c0.1,0,0.2,0,0.3,0.1l1.2,0.9c0.1,0.1,0.2,0.1,0.3,0l0.9-0.9c0.1-0.1,0.2,0,0.3,0l1.2,0.9
					c0.1,0.1,0.2,0.1,0.3,0l0.9-0.9c0.1-0.1,0.2,0,0.3,0l1.2,0.9c0.1,0.1,0.2,0.1,0.3,0l1.4-1.4V124L43.5,124.7z"/>
				<path class="st16" d="M59.4,124.7c-0.1,0.1-0.2,0.1-0.3,0l-1.2-0.9c-0.1-0.1-0.2-0.2-0.3-0.1l-0.9,0.9c-0.1,0.1-0.2,0.1-0.3,0
					l-1.2-0.9c-0.1-0.1-0.2-0.2-0.3,0l-0.9,0.9c-0.1,0.1-0.2,0.1-0.3,0l-1.2-0.9c-0.1-0.1-0.2-0.2-0.3,0l-1,1c-0.1,0-0.1,0-0.2,0
					l-1.2-0.9c-0.1-0.1-0.2-0.2-0.3-0.1l-0.9,0.9c-0.1,0.1-0.2,0.1-0.3,0l-1.2-0.9c-0.1-0.1-0.2-0.2-0.3,0l-0.9,0.9
					c-0.1,0.1-0.2,0.1-0.3,0l-1.2-0.9c-0.1-0.1-0.2-0.2-0.3,0l-1.4,1.4v0.5l0.7-0.8c0.1-0.1,0.2,0,0.3,0l1.2,0.9
					c0.1,0.1,0.2,0.1,0.3,0l0.9-0.9c0.1-0.1,0.2,0,0.3,0l1.2,0.9c0.1,0.1,0.2,0.1,0.3,0l0.9-0.9c0.1-0.1,0.2,0,0.3,0l1.2,0.9
					c0.1,0.1,0.2,0.1,0.3,0l0.9-0.9c0.1,0,0.2,0,0.3,0.1l1.2,0.9c0.1,0.1,0.2,0.1,0.3,0l0.9-0.9c0.1-0.1,0.2,0,0.3,0l1.2,0.9
					c0.1,0.1,0.2,0.1,0.3,0l0.9-0.9c0.1-0.1,0.2,0,0.3,0l1.2,0.9c0.1,0.1,0.2,0.1,0.3,0l1.4-1.4V124L59.4,124.7z"/>
			</g>
			<g>
				<path class="st16" d="M75.6,124.7c-0.1,0.1-0.2,0.1-0.3,0l-1.2-0.9c-0.1-0.1-0.2-0.2-0.3-0.1l-0.9,0.9c-0.1,0.1-0.2,0.1-0.3,0
					l-1.2-0.9c-0.1-0.1-0.2-0.2-0.3,0l-0.9,0.9c-0.1,0.1-0.2,0.1-0.3,0l-1.2-0.9c-0.1-0.1-0.2-0.2-0.3,0l-1,1c-0.1,0-0.1,0-0.2,0
					l-1.2-0.9c-0.1-0.1-0.2-0.2-0.3-0.1l-0.9,0.9c-0.1,0.1-0.2,0.1-0.3,0l-1.2-0.9c-0.1-0.1-0.2-0.2-0.3,0l-0.9,0.9
					c-0.1,0.1-0.2,0.1-0.3,0l-1.2-0.9c-0.1-0.1-0.2-0.2-0.3,0l-1.4,1.4v0.5l0.7-0.8c0.1-0.1,0.2,0,0.3,0l1.2,0.9
					c0.1,0.1,0.2,0.1,0.3,0l0.9-0.9c0.1-0.1,0.2,0,0.3,0L64,126c0.1,0.1,0.2,0.1,0.3,0l0.9-0.9c0.1-0.1,0.2,0,0.3,0l1.2,0.9
					c0.1,0.1,0.2,0.1,0.3,0l0.9-0.9c0.1,0,0.2,0,0.3,0.1l1.2,0.9c0.1,0.1,0.2,0.1,0.3,0l0.9-0.9c0.1-0.1,0.2,0,0.3,0l1.2,0.9
					c0.1,0.1,0.2,0.1,0.3,0l0.9-0.9c0.1-0.1,0.2,0,0.3,0l1.2,0.9c0.1,0.1,0.2,0.1,0.3,0l1.4-1.4V124L75.6,124.7z"/>
				<path class="st16" d="M91.5,124.7c-0.1,0.1-0.2,0.1-0.3,0l-1.2-0.9c-0.1-0.1-0.2-0.2-0.3-0.1l-0.9,0.9c-0.1,0.1-0.2,0.1-0.3,0
					l-1.2-0.9c-0.1-0.1-0.2-0.2-0.3,0l-0.9,0.9c-0.1,0.1-0.2,0.1-0.3,0l-1.2-0.9c-0.1-0.1-0.2-0.2-0.3,0l-1,1c-0.1,0-0.1,0-0.2,0
					l-1.2-0.9c-0.1-0.1-0.2-0.2-0.3-0.1l-0.9,0.9c-0.1,0.1-0.2,0.1-0.3,0l-1.2-0.9c-0.1-0.1-0.2-0.2-0.3,0l-0.9,0.9
					c-0.1,0.1-0.2,0.1-0.3,0l-1.2-0.9c-0.1-0.1-0.2-0.2-0.3,0l-1.4,1.4v0.5l0.7-0.8c0.1-0.1,0.2,0,0.3,0l1.2,0.9
					c0.1,0.1,0.2,0.1,0.3,0l0.9-0.9c0.1-0.1,0.2,0,0.3,0l1.2,0.9c0.1,0.1,0.2,0.1,0.3,0l0.9-0.9c0.1-0.1,0.2,0,0.3,0l1.2,0.9
					c0.1,0.1,0.2,0.1,0.3,0l0.9-0.9c0.1,0,0.2,0,0.3,0.1l1.2,0.9c0.1,0.1,0.2,0.1,0.3,0l0.9-0.9c0.1-0.1,0.2,0,0.3,0l1.2,0.9
					c0.1,0.1,0.2,0.1,0.3,0l0.9-0.9c0.1-0.1,0.2,0,0.3,0l1.2,0.9c0.1,0.1,0.2,0.1,0.3,0l1.4-1.4V124L91.5,124.7z"/>
			</g>
		</g>
		<g>
			<g>
				<path class="st16" d="M107.7,124.7c-0.1,0.1-0.2,0.1-0.3,0l-1.2-0.9c-0.1-0.1-0.2-0.2-0.3-0.1l-0.9,0.9c-0.1,0.1-0.2,0.1-0.3,0
					l-1.2-0.9c-0.1-0.1-0.2-0.2-0.3,0l-0.9,0.9c-0.1,0.1-0.2,0.1-0.3,0l-1.2-0.9c-0.1-0.1-0.2-0.2-0.3,0l-1,1c-0.1,0-0.1,0-0.2,0
					l-1.2-0.9c-0.1-0.1-0.2-0.2-0.3-0.1l-0.9,0.9c-0.1,0.1-0.2,0.1-0.3,0l-1.2-0.9c-0.1-0.1-0.2-0.2-0.3,0l-0.9,0.9
					c-0.1,0.1-0.2,0.1-0.3,0l-1.2-0.9c-0.1-0.1-0.2-0.2-0.3,0l-1.4,1.4v0.5l0.7-0.8c0.1-0.1,0.2,0,0.3,0l1.2,0.9
					c0.1,0.1,0.2,0.1,0.3,0l0.9-0.9c0.1-0.1,0.2,0,0.3,0l1.2,0.9c0.1,0.1,0.2,0.1,0.3,0l0.9-0.9c0.1-0.1,0.2,0,0.3,0l1.2,0.9
					c0.1,0.1,0.2,0.1,0.3,0l0.9-0.9c0.1,0,0.2,0,0.3,0.1l1.2,0.9c0.1,0.1,0.2,0.1,0.3,0l0.9-0.9c0.1-0.1,0.2,0,0.3,0l1.2,0.9
					c0.1,0.1,0.2,0.1,0.3,0l0.9-0.9c0.1-0.1,0.2,0,0.3,0l1.2,0.9c0.1,0.1,0.2,0.1,0.3,0l1.4-1.4V124L107.7,124.7z"/>
				<path class="st16" d="M123.6,124.7c-0.1,0.1-0.2,0.1-0.3,0l-1.2-0.9c-0.1-0.1-0.2-0.2-0.3-0.1l-0.9,0.9c-0.1,0.1-0.2,0.1-0.3,0
					l-1.2-0.9c-0.1-0.1-0.2-0.2-0.3,0l-0.9,0.9c-0.1,0.1-0.2,0.1-0.3,0l-1.2-0.9c-0.1-0.1-0.2-0.2-0.3,0l-1,1c-0.1,0-0.1,0-0.2,0
					l-1.2-0.9c-0.1-0.1-0.2-0.2-0.3-0.1l-0.9,0.9c-0.1,0.1-0.2,0.1-0.3,0l-1.2-0.9c-0.1-0.1-0.2-0.2-0.3,0l-0.9,0.9
					c-0.1,0.1-0.2,0.1-0.3,0l-1.2-0.9c-0.1-0.1-0.2-0.2-0.3,0l-1.4,1.4v0.5l0.7-0.8c0.1-0.1,0.2,0,0.3,0l1.2,0.9
					c0.1,0.1,0.2,0.1,0.3,0l0.9-0.9c0.1-0.1,0.2,0,0.3,0l1.2,0.9c0.1,0.1,0.2,0.1,0.3,0l0.9-0.9c0.1-0.1,0.2,0,0.3,0l1.2,0.9
					c0.1,0.1,0.2,0.1,0.3,0l0.9-0.9c0.1,0,0.2,0,0.3,0.1l1.2,0.9c0.1,0.1,0.2,0.1,0.3,0l0.9-0.9c0.1-0.1,0.2,0,0.3,0l1.2,0.9
					c0.1,0.1,0.2,0.1,0.3,0l0.9-0.9c0.1-0.1,0.2,0,0.3,0l1.2,0.9c0.1,0.1,0.2,0.1,0.3,0l1.4-1.4V124L123.6,124.7z"/>
			</g>
			<g>
				<path class="st16" d="M139.7,124.7c-0.1,0.1-0.2,0.1-0.3,0l-1.2-0.9c-0.1-0.1-0.2-0.2-0.3-0.1l-0.9,0.9c-0.1,0.1-0.2,0.1-0.3,0
					l-1.2-0.9c-0.1-0.1-0.2-0.2-0.3,0l-0.9,0.9c-0.1,0.1-0.2,0.1-0.3,0l-1.2-0.9c-0.1-0.1-0.2-0.2-0.3,0l-1,1c-0.1,0-0.1,0-0.2,0
					l-1.2-0.9c-0.1-0.1-0.2-0.2-0.3-0.1l-0.9,0.9c-0.1,0.1-0.2,0.1-0.3,0l-1.2-0.9c-0.1-0.1-0.2-0.2-0.3,0l-0.9,0.9
					c-0.1,0.1-0.2,0.1-0.3,0l-1.2-0.9c-0.1-0.1-0.2-0.2-0.3,0l-1.4,1.4v0.5l0.7-0.8c0.1-0.1,0.2,0,0.3,0l1.2,0.9
					c0.1,0.1,0.2,0.1,0.3,0l0.9-0.9c0.1-0.1,0.2,0,0.3,0l1.2,0.9c0.1,0.1,0.2,0.1,0.3,0l0.9-0.9c0.1-0.1,0.2,0,0.3,0l1.2,0.9
					c0.1,0.1,0.2,0.1,0.3,0l0.9-0.9c0.1,0,0.2,0,0.3,0.1l1.2,0.9c0.1,0.1,0.2,0.1,0.3,0l0.9-0.9c0.1-0.1,0.2,0,0.3,0l1.2,0.9
					c0.1,0.1,0.2,0.1,0.3,0l0.9-0.9c0.1-0.1,0.2,0,0.3,0l1.2,0.9c0.1,0.1,0.2,0.1,0.3,0l1.4-1.4V124L139.7,124.7z"/>
				<path class="st16" d="M155.6,124.7c-0.1,0.1-0.2,0.1-0.3,0l-1.2-0.9c-0.1-0.1-0.2-0.2-0.3-0.1l-0.9,0.9c-0.1,0.1-0.2,0.1-0.3,0
					l-1.2-0.9c-0.1-0.1-0.2-0.2-0.3,0l-0.9,0.9c-0.1,0.1-0.2,0.1-0.3,0l-1.2-0.9c-0.1-0.1-0.2-0.2-0.3,0l-1,1c-0.1,0-0.1,0-0.2,0
					l-1.2-0.9c-0.1-0.1-0.2-0.2-0.3-0.1l-0.9,0.9c-0.1,0.1-0.2,0.1-0.3,0l-1.2-0.9c-0.1-0.1-0.2-0.2-0.3,0l-0.9,0.9
					c-0.1,0.1-0.2,0.1-0.3,0l-1.2-0.9c-0.1-0.1-0.2-0.2-0.3,0l-1.4,1.4v0.5l0.7-0.8c0.1-0.1,0.2,0,0.3,0l1.2,0.9
					c0.1,0.1,0.2,0.1,0.3,0l0.9-0.9c0.1-0.1,0.2,0,0.3,0l1.2,0.9c0.1,0.1,0.2,0.1,0.3,0l0.9-0.9c0.1-0.1,0.2,0,0.3,0l1.2,0.9
					c0.1,0.1,0.2,0.1,0.3,0l0.9-0.9c0.1,0,0.2,0,0.3,0.1l1.2,0.9c0.1,0.1,0.2,0.1,0.3,0l0.9-0.9c0.1-0.1,0.2,0,0.3,0l1.2,0.9
					c0.1,0.1,0.2,0.1,0.3,0l0.9-0.9c0.1-0.1,0.2,0,0.3,0l1.2,0.9c0.1,0.1,0.2,0.1,0.3,0l1.4-1.4V124L155.6,124.7z"/>
			</g>
		</g>
		<g>
			<g>
				<path class="st16" d="M147.5,124.7c-0.1,0.1-0.2,0.1-0.3,0l-1.2-0.9c-0.1-0.1-0.2-0.2-0.3-0.1l-0.9,0.9c-0.1,0.1-0.2,0.1-0.3,0
					l-1.2-0.9c-0.1-0.1-0.2-0.2-0.3,0l-0.9,0.9c-0.1,0.1-0.2,0.1-0.3,0l-1.2-0.9c-0.1-0.1-0.2-0.2-0.3,0l-1,1c-0.1,0-0.1,0-0.2,0
					l-1.2-0.9c-0.1-0.1-0.2-0.2-0.3-0.1l-0.9,0.9c-0.1,0.1-0.2,0.1-0.3,0l-1.2-0.9c-0.1-0.1-0.2-0.2-0.3,0l-0.9,0.9
					c-0.1,0.1-0.2,0.1-0.3,0l-1.2-0.9c-0.1-0.1-0.2-0.2-0.3,0l-1.4,1.4v0.5l0.7-0.8c0.1-0.1,0.2,0,0.3,0l1.2,0.9
					c0.1,0.1,0.2,0.1,0.3,0l0.9-0.9c0.1-0.1,0.2,0,0.3,0l1.2,0.9c0.1,0.1,0.2,0.1,0.3,0l0.9-0.9c0.1-0.1,0.2,0,0.3,0l1.2,0.9
					c0.1,0.1,0.2,0.1,0.3,0l0.9-0.9c0.1,0,0.2,0,0.3,0.1l1.2,0.9c0.1,0.1,0.2,0.1,0.3,0l0.9-0.9c0.1-0.1,0.2,0,0.3,0l1.2,0.9
					c0.1,0.1,0.2,0.1,0.3,0l0.9-0.9c0.1-0.1,0.2,0,0.3,0l1.2,0.9c0.1,0.1,0.2,0.1,0.3,0l1.4-1.4V124L147.5,124.7z"/>
				<path class="st16" d="M163.5,124.7c-0.1,0.1-0.2,0.1-0.3,0l-1.2-0.9c-0.1-0.1-0.2-0.2-0.3-0.1l-0.9,0.9c-0.1,0.1-0.2,0.1-0.3,0
					l-1.2-0.9c-0.1-0.1-0.2-0.2-0.3,0l-0.9,0.9c-0.1,0.1-0.2,0.1-0.3,0l-1.2-0.9c-0.1-0.1-0.2-0.2-0.3,0l-1,1c-0.1,0-0.1,0-0.2,0
					l-1.2-0.9c-0.1-0.1-0.2-0.2-0.3-0.1l-0.9,0.9c-0.1,0.1-0.2,0.1-0.3,0l-1.2-0.9c-0.1-0.1-0.2-0.2-0.3,0l-0.9,0.9
					c-0.1,0.1-0.2,0.1-0.3,0l-1.2-0.9c-0.1-0.1-0.2-0.2-0.3,0l-1.4,1.4v0.5l0.7-0.8c0.1-0.1,0.2,0,0.3,0l1.2,0.9
					c0.1,0.1,0.2,0.1,0.3,0l0.9-0.9c0.1-0.1,0.2,0,0.3,0l1.2,0.9c0.1,0.1,0.2,0.1,0.3,0l0.9-0.9c0.1-0.1,0.2,0,0.3,0l1.2,0.9
					c0.1,0.1,0.2,0.1,0.3,0l0.9-0.9c0.1,0,0.2,0,0.3,0.1l1.2,0.9c0.1,0.1,0.2,0.1,0.3,0l0.9-0.9c0.1-0.1,0.2,0,0.3,0l1.2,0.9
					c0.1,0.1,0.2,0.1,0.3,0l0.9-0.9c0.1-0.1,0.2,0,0.3,0l1.2,0.9c0.1,0.1,0.2,0.1,0.3,0l1.4-1.4V124L163.5,124.7z"/>
			</g>
			<g>
				<path class="st16" d="M179.6,124.7c-0.1,0.1-0.2,0.1-0.3,0l-1.2-0.9c-0.1-0.1-0.2-0.2-0.3-0.1l-0.9,0.9c-0.1,0.1-0.2,0.1-0.3,0
					l-1.2-0.9c-0.1-0.1-0.2-0.2-0.3,0l-0.9,0.9c-0.1,0.1-0.2,0.1-0.3,0l-1.2-0.9c-0.1-0.1-0.2-0.2-0.3,0l-1,1c-0.1,0-0.1,0-0.2,0
					l-1.2-0.9c-0.1-0.1-0.2-0.2-0.3-0.1l-0.9,0.9c-0.1,0.1-0.2,0.1-0.3,0l-1.2-0.9c-0.1-0.1-0.2-0.2-0.3,0l-0.9,0.9
					c-0.1,0.1-0.2,0.1-0.3,0l-1.2-0.9c-0.1-0.1-0.2-0.2-0.3,0l-1.4,1.4v0.5l0.7-0.8c0.1-0.1,0.2,0,0.3,0l1.2,0.9
					c0.1,0.1,0.2,0.1,0.3,0l0.9-0.9c0.1-0.1,0.2,0,0.3,0l1.2,0.9c0.1,0.1,0.2,0.1,0.3,0l0.9-0.9c0.1-0.1,0.2,0,0.3,0l1.2,0.9
					c0.1,0.1,0.2,0.1,0.3,0l0.9-0.9c0.1,0,0.2,0,0.3,0.1l1.2,0.9c0.1,0.1,0.2,0.1,0.3,0l0.9-0.9c0.1-0.1,0.2,0,0.3,0l1.2,0.9
					c0.1,0.1,0.2,0.1,0.3,0l0.9-0.9c0.1-0.1,0.2,0,0.3,0l1.2,0.9c0.1,0.1,0.2,0.1,0.3,0l1.4-1.4V124L179.6,124.7z"/>
				<path class="st16" d="M195.5,124.7c-0.1,0.1-0.2,0.1-0.3,0l-1.2-0.9c-0.1-0.1-0.2-0.2-0.3-0.1l-0.9,0.9c-0.1,0.1-0.2,0.1-0.3,0
					l-1.2-0.9c-0.1-0.1-0.2-0.2-0.3,0l-0.9,0.9c-0.1,0.1-0.2,0.1-0.3,0l-1.2-0.9c-0.1-0.1-0.2-0.2-0.3,0l-1,1c-0.1,0-0.1,0-0.2,0
					l-1.2-0.9c-0.1-0.1-0.2-0.2-0.3-0.1l-0.9,0.9c-0.1,0.1-0.2,0.1-0.3,0l-1.2-0.9c-0.1-0.1-0.2-0.2-0.3,0l-0.9,0.9
					c-0.1,0.1-0.2,0.1-0.3,0l-1.2-0.9c-0.1-0.1-0.2-0.2-0.3,0l-1.4,1.4v0.5l0.7-0.8c0.1-0.1,0.2,0,0.3,0l1.2,0.9
					c0.1,0.1,0.2,0.1,0.3,0l0.9-0.9c0.1-0.1,0.2,0,0.3,0l1.2,0.9c0.1,0.1,0.2,0.1,0.3,0l0.9-0.9c0.1-0.1,0.2,0,0.3,0l1.2,0.9
					c0.1,0.1,0.2,0.1,0.3,0l0.9-0.9c0.1,0,0.2,0,0.3,0.1l1.2,0.9c0.1,0.1,0.2,0.1,0.3,0l0.9-0.9c0.1-0.1,0.2,0,0.3,0l1.2,0.9
					c0.1,0.1,0.2,0.1,0.3,0l0.9-0.9c0.1-0.1,0.2,0,0.3,0l1.2,0.9c0.1,0.1,0.2,0.1,0.3,0l2.3-1.3v-0.5L195.5,124.7z"/>
			</g>
		</g>
	</g>
</g>
</svg>
