<?xml version="1.0" encoding="utf-8"?>
<!-- Generator: Adobe Illustrator 19.2.1, SVG Export Plug-In . SVG Version: 6.00 Build 0)  -->
<svg version="1.1" id="Layer_1" xmlns="http://www.w3.org/2000/svg" xmlns:xlink="http://www.w3.org/1999/xlink" x="0px" y="0px"
	 width="160px" height="140px" viewBox="0 0 160 140" style="enable-background:new 0 0 160 140;" xml:space="preserve">
<style type="text/css">
	.st0{fill:#E81123;}
	.st1{fill:#FFFFFF;}
	.st2{fill:#383639;}
	.st3{fill:#F26536;}
	.st4{fill:#C4C3C4;}
	.st5{fill:#FFB900;}
	.st6{fill:#010101;}
	.st7{fill:#008272;}
	.st8{fill:#7ECECF;}
	.st9{opacity:0.2;}
</style>
<g>
	<g>
		<circle class="st0" cx="44.7" cy="42.1" r="40.1"/>
	</g>
	<g>
		<g>
			<polygon class="st1" points="33.7,35.6 56.6,35.6 68.1,35.6 65.2,58.6 56.6,58.6 33.7,58.6 25.2,58.6 22.3,35.6 			"/>
		</g>
		<g>
			<rect x="19.4" y="32.8" class="st2" width="51.5" height="2.9"/>
		</g>
		<g>
			<rect x="55.9" y="38.5" class="st3" width="1.4" height="17.2"/>
		</g>
		<g>
			<rect x="44.5" y="38.5" class="st3" width="1.4" height="17.2"/>
		</g>
		<g>
			<rect x="33" y="38.5" class="st3" width="1.4" height="17.2"/>
		</g>
		<g>
			
				<rect x="36.6" y="15.5" transform="matrix(0.7071 -0.7071 0.7071 0.7071 -6.981 34.4019)" class="st1" width="2.9" height="20.2"/>
		</g>
		<g>
			<circle class="st1" cx="45.2" cy="32.8" r="1.4"/>
		</g>
		<g>
			<g>
				<polygon class="st4" points="33.7,35.6 56.6,35.6 68.1,35.6 67.9,37.1 22.5,37.1 22.3,35.6 				"/>
			</g>
		</g>
	</g>
</g>
<g>
	<circle class="st5" cx="115.3" cy="42.1" r="40.1"/>
</g>
<g>
	<g>
		<rect x="106.7" y="60" class="st2" width="21.4" height="2.9"/>
	</g>
	<g>
		<polygon class="st2" points="128.1,61.4 105.3,61.4 105.3,21.3 95.2,21.3 95.2,19.9 106.7,19.9 106.7,60 128.1,60 		"/>
	</g>
	<g>
		<g>
			<rect x="106.7" y="42.8" class="st1" width="22.9" height="17.2"/>
		</g>
		<g>
			<rect x="106.7" y="25.6" class="st1" width="17.2" height="17.2"/>
		</g>
		<g>
			<rect x="113.9" y="25.6" class="st2" width="2.9" height="5.7"/>
		</g>
	</g>
	<g>
		<circle class="st6" cx="106.7" cy="60" r="5.7"/>
	</g>
	<g>
		<circle class="st2" cx="106.7" cy="60" r="2.9"/>
	</g>
	<g>
		<g>
			<rect x="95.2" y="19.2" class="st6" width="7.9" height="2.9"/>
		</g>
	</g>
</g>
<g>
	<g>
		<circle class="st7" cx="76.9" cy="97.9" r="40.1"/>
	</g>
	<g>
		<g>
			<rect x="104.1" y="104.4" class="st6" width="1.4" height="2.9"/>
		</g>
		<g>
			<rect x="104.1" y="101.5" class="st6" width="1.4" height="2.9"/>
		</g>
		<g>
			<rect x="48.2" y="104.4" class="st6" width="1.4" height="2.9"/>
		</g>
		<g>
			<g>
				<rect x="87.6" y="98.6" class="st1" width="5.7" height="11.5"/>
			</g>
			<g>
				<rect x="93.3" y="98.6" class="st1" width="11.5" height="11.5"/>
			</g>
			<g>
				<rect x="87.6" y="87.2" class="st1" width="5.7" height="11.5"/>
			</g>
			<g>
				<polygon class="st1" points="93.3,87.2 99.1,87.2 104.8,98.6 93.3,98.6 				"/>
			</g>
		</g>
		<g>
			<rect x="49" y="107.2" class="st2" width="55.8" height="2.9"/>
		</g>
		<g>
			<rect x="49" y="81.4" class="st1" width="37.2" height="25.8"/>
		</g>
		<g>
			<rect x="86.2" y="104.4" class="st6" width="1.4" height="2.9"/>
		</g>
		<g>
			<polygon class="st8" points="92.6,88.6 92.6,97.2 102.5,97.2 98.2,88.6 92.6,88.6 			"/>
		</g>
		<g>
			<path class="st4" d="M101.6,110.1c0-3-2.4-5.4-5.4-5.4s-5.4,2.4-5.4,5.4H101.6z"/>
		</g>
		<g>
			<path class="st4" d="M75.8,110.1c0-3-2.4-5.4-5.4-5.4c-3,0-5.4,2.4-5.4,5.4H75.8z"/>
		</g>
		<g>
			<path class="st4" d="M64.3,110.1c0-3-2.4-5.4-5.4-5.4c-3,0-5.4,2.4-5.4,5.4H64.3z"/>
		</g>
		<g>
			<circle class="st6" cx="96.2" cy="110.1" r="4.3"/>
		</g>
		<g>
			<circle class="st2" cx="96.2" cy="110.1" r="2.1"/>
		</g>
		<g>
			<circle class="st6" cx="59" cy="110.1" r="4.3"/>
		</g>
		<g>
			<circle class="st6" cx="70.4" cy="110.1" r="4.3"/>
		</g>
		<g>
			<circle class="st2" cx="59" cy="110.1" r="2.1"/>
		</g>
		<g>
			<circle class="st2" cx="70.4" cy="110.1" r="2.1"/>
		</g>
	</g>
	<g class="st9">
		<g>
			<polygon class="st1" points="92.6,88.6 95.7,88.6 100.6,93.5 102.5,97.2 99.3,97.2 92.6,90.5 			"/>
		</g>
		<g>
			<polygon class="st1" points="96,97.2 94.6,97.2 92.6,95.2 92.6,93.9 			"/>
		</g>
	</g>
	<g>
		<rect x="92.6" y="98.6" class="st2" width="0.7" height="2.9"/>
	</g>
</g>
</svg>
