<?xml version="1.0" encoding="utf-8"?>
<!-- Generator: Adobe Illustrator 22.1.0, SVG Export Plug-In . SVG Version: 6.00 Build 0)  -->
<svg version="1.1" id="Layer_1" xmlns="http://www.w3.org/2000/svg" xmlns:xlink="http://www.w3.org/1999/xlink" x="0px" y="0px"
	 width="453.3px" height="131.7px" viewBox="0 0 453.3 131.7" style="enable-background:new 0 0 453.3 131.7;" xml:space="preserve"
	>
<style type="text/css">
	.st0{fill:#0012FF;}
	.st1{enable-background:new    ;}
	.st2{fill:#009245;}
	.st3{fill:#999999;}
	.st4{fill:#737373;}
	.st5{fill:#0000FF;}
	.st6{fill:#FF8C00;}
	.st7{fill:#D2D2D2;}
	.st8{fill:none;stroke:#008272;stroke-width:3.57;stroke-miterlimit:10;}
</style>
<title>Asset 6</title>
<g>
	<path class="st0" d="M22.8,9.7l2,0.5c-0.5,1.6-1.3,2.8-2.3,3.6c-1.1,0.8-2.4,1.2-3.9,1.2c-1.7,0-2.8-0.3-3.9-0.9
		c-0.9-0.5-1.6-1.5-2.1-2.7c-0.6-1.2-0.8-2.6-0.8-3.9c0-1.5,0.3-2.9,0.9-4c0.6-1.2,1.3-2,2.5-2.6S17.5,0,18.8,0
		c1.5,0,2.7,0.3,3.8,1.2s1.6,1.8,2.1,3.1l-2.1,0.4c-0.3-1.1-0.9-1.8-1.5-2.4c-0.6-0.4-1.5-0.8-2.4-0.8c-1.2,0-2.1,0.3-2.9,0.8
		c-0.8,0.6-1.3,1.2-1.6,2.3c-0.3,0.9-0.5,1.8-0.5,2.9c0,1.2,0.2,2.4,0.6,3.3c0.3,0.9,0.9,1.7,1.7,2.1c0.8,0.5,1.7,0.8,2.5,0.8
		c1,0,2-0.3,2.7-0.9C22,12,22.6,11.1,22.8,9.7z"/>
	<path class="st0" d="M26.2,9.6c0-1.9,0.6-3.4,1.7-4.4C28.8,4.4,30,4,31.2,4c1.5,0,2.7,0.4,3.6,1.5c0.9,0.9,1.4,2.3,1.4,4.1
		c0,1.3-0.2,2.4-0.6,3.3c-0.4,0.8-1,1.3-1.8,1.8s-1.7,0.6-2.6,0.6c-1.5,0-2.7-0.5-3.6-1.5S26.2,11.4,26.2,9.6z M28.2,9.6
		c0,1.3,0.3,2.4,0.9,3s1.3,1,2.3,1s1.7-0.3,2.3-1s0.9-1.8,0.9-3.1s-0.3-2.3-0.9-3s-1.3-1.1-2.3-1.1s-1.7,0.3-2.3,1
		S28.2,8.2,28.2,9.6z"/>
	<path class="st0" d="M38.4,15V0.3h1.8v5.3c0.9-1.1,2-1.5,3.2-1.5c0.8,0,1.5,0.1,2.1,0.4c0.6,0.3,1.1,0.8,1.2,1.4
		c0.3,0.4,0.4,1.3,0.4,2.4v6.8h-1.8V8.3c0-0.9-0.1-1.5-0.6-1.9c-0.4-0.5-0.9-0.6-1.7-0.6c-0.6,0-1.1,0.1-1.5,0.4
		c-0.5,0.3-0.8,0.6-1.1,1.2c-0.1,0.4-0.3,1.2-0.3,1.9v5.8L38.4,15L38.4,15z"/>
	<path class="st0" d="M49.2,9.6c0-1.9,0.6-3.4,1.6-4.4C51.7,4.4,52.9,4,54.1,4c1.5,0,2.7,0.4,3.6,1.5C58.6,6.4,59,7.8,59,9.6
		c0,1.3-0.1,2.4-0.6,3.3c-0.4,0.8-1.1,1.3-1.8,1.8c-0.7,0.5-1.6,0.6-2.5,0.6c-1.5,0-2.7-0.5-3.6-1.5C49.6,12.7,49.2,11.4,49.2,9.6z
		 M51,9.6c0,1.3,0.3,2.4,0.9,3c0.6,0.6,1.4,1,2.3,1c0.9,0,1.6-0.3,2.3-1c0.7-0.7,0.9-1.8,0.9-3.1s-0.3-2.3-0.9-3
		c-0.6-0.8-1.4-1.1-2.3-1.1c-0.9,0-1.6,0.3-2.3,1.1C51.2,7.3,51,8.2,51,9.6z"/>
	<path class="st0" d="M69.9,15L65.8,0.3h1.9L70,9.9c0.3,1,0.4,1.9,0.6,3c0.4-1.5,0.6-2.5,0.6-2.7l3-9.9h2.4l2.1,7.5
		c0.6,1.8,0.9,3.6,1.2,5.2c0.1-0.9,0.4-2,0.8-3.2l2.2-9.5h2L80.8,15h-1.9L75.7,3.7c-0.3-0.9-0.4-1.5-0.4-1.8
		c-0.1,0.8-0.3,1.2-0.4,1.8L71.7,15H69.9z"/>
	<path class="st0" d="M86.4,2.2v-2h1.8v2.1h-1.8V2.2z M86.4,15V4.3h1.8v10.6C88.2,15,86.4,15,86.4,15z"/>
	<path class="st0" d="M91,15V4.3h1.6v1.5C93.4,4.6,94.5,4,96,4c0.6,0,1.2,0.1,1.8,0.3c0.6,0.3,0.9,0.6,1.2,0.9
		c0.3,0.3,0.5,0.8,0.6,1.4c0,0.3,0.1,0.9,0.1,1.8V15h-1.8V8.6c0-0.8,0-1.4-0.1-1.7C97.7,6.6,97.3,6.3,97,6c-0.3-0.1-0.8-0.3-1.2-0.3
		c-0.8,0-1.5,0.3-1.9,0.8C93.3,6.9,93,7.8,93,9.3v5.8L91,15L91,15z"/>
	<path class="st0" d="M109.8,11.5l1.8,0.2c-0.3,1-0.9,1.9-1.6,2.5s-1.8,0.9-3,0.9c-1.5,0-2.9-0.5-3.8-1.5c-0.9-0.9-1.4-2.3-1.4-4
		s0.5-3.2,1.4-4.2c0.9-1,2.1-1.5,3.6-1.5s2.5,0.5,3.5,1.5c0.9,0.9,1.3,2.4,1.3,4.1c0,0.2,0,0.3,0,0.4h-8c0,1.2,0.5,2.1,1,2.7
		c0.6,0.6,1.4,0.9,2.3,0.9c0.6,0,1.2-0.2,1.6-0.5C109.2,12.9,109.5,12.3,109.8,11.5z M103.8,8.5h6c-0.1-0.9-0.3-1.5-0.8-2
		c-0.6-0.8-1.4-1-2.3-1c-0.9,0-1.5,0.3-2.1,0.9C104.2,6.9,103.9,7.6,103.8,8.5z"/>
	<path class="st0" d="M113.8,15V4.3h1.6v1.6c0.5-0.8,0.8-1.2,1.2-1.5c0.3-0.3,0.8-0.3,1.2-0.3c0.6,0,1.2,0.1,1.8,0.6L119,6.2
		c-0.5-0.3-0.9-0.5-1.4-0.5s-0.8,0.1-1,0.3c-0.3,0.3-0.6,0.6-0.6,1.1c-0.1,0.6-0.3,1.4-0.3,2.1v5.6h-2L113.8,15L113.8,15z"/>
	<path class="st0" d="M120.7,19l-0.1-1.7c0.5,0.2,0.8,0.2,1,0.2c0.5,0,0.8,0,0.9-0.2c0.3-0.2,0.5-0.3,0.6-0.6
		c0.1-0.2,0.3-0.6,0.6-1.3c0-0.2,0.1-0.3,0.1-0.5l-4-10.6h2l2.3,6.1c0.3,0.8,0.6,1.7,0.8,2.4c0.1-0.9,0.5-1.7,0.8-2.4l2.3-6.1h1.8
		l-4,10.8c-0.5,1.2-0.8,2-1,2.4c-0.3,0.6-0.8,1-1,1.3c-0.5,0.3-0.9,0.5-1.5,0.5C121.5,19.3,121,19.2,120.7,19z"/>
	<path class="st0" d="M136,10.5V8.7h5.5v1.8H136z"/>
	<path class="st0" d="M10.8,17.8v-1.5h131.5v1.5H10.8z"/>
</g>
<g class="st1">
	<path class="st0" d="M142.3,17.8v-1.5h4.5v1.5H142.3z"/>
</g>
<g class="st1">
	<path class="st0" d="M146.8,15l5.7-14.7h2.1l6,14.7h-2.3l-1.6-4.5h-6.2l-1.6,4.5H146.8z M151,8.8h5l-1.5-4c-0.5-1.2-0.8-2.3-1-3
		c-0.2,0.9-0.5,2-0.8,2.9L151,8.8z"/>
	<path class="st0" d="M162,15V0.3h1.8V15H162z"/>
	<path class="st0" d="M166.5,15V0.3h1.8V15H166.5z"/>
	<path class="st0" d="M176.8,15V4.3h1.6v1.6c0.5-0.8,0.8-1.2,1.2-1.5c0.3-0.3,0.8-0.3,1.2-0.3c0.6,0,1.2,0.1,1.8,0.6l-0.8,1.5
		c-0.5-0.3-0.9-0.5-1.3-0.5c-0.4,0-0.8,0.1-1,0.3c-0.3,0.3-0.6,0.6-0.6,1c-0.1,0.6-0.3,1.4-0.3,2.1v5.7h-1.8
		C176.8,14.8,176.8,15,176.8,15z"/>
	<path class="st0" d="M190.9,11.5l1.8,0.3c-0.3,1-0.9,2-1.7,2.5c-0.8,0.5-1.8,0.9-3,0.9c-1.5,0-2.9-0.5-3.8-1.5
		c-0.9-0.9-1.4-2.2-1.4-4s0.5-3.1,1.4-4.2c0.9-1.1,2.1-1.5,3.6-1.5s2.5,0.4,3.4,1.5c0.9,0.9,1.3,2.4,1.3,4c0,0.2,0,0.3,0,0.5h-8
		c0,1.2,0.5,2.1,1,2.7c0.6,0.6,1.3,0.9,2.3,0.9c0.6,0,1.2-0.2,1.6-0.5C190.3,12.9,190.6,12.3,190.9,11.5z M185.1,8.5h6
		c-0.2-0.9-0.3-1.5-0.8-2c-0.6-0.8-1.4-1-2.3-1c-0.9,0-1.5,0.3-2.1,0.9C185.4,6.9,185.1,7.6,185.1,8.5z"/>
	<path class="st0" d="M202,15v-1.3c-0.8,1-1.7,1.7-3,1.7c-0.9,0-1.7-0.3-2.4-0.8c-0.7-0.5-1.2-1-1.7-2s-0.6-1.8-0.6-2.8
		s0.2-2.1,0.6-2.9c0.3-0.9,0.9-1.5,1.7-1.9c0.8-0.4,1.5-0.8,2.4-0.8c0.6,0,1.2,0.1,1.7,0.5c0.5,0.3,0.9,0.6,1.2,1V0.3h1.8V15
		C203.7,15,202,15,202,15z M196.3,9.6c0,1.3,0.3,2.4,0.9,3c0.6,0.8,1.2,1,2.1,1c0.8,0,1.5-0.3,2-0.9c0.6-0.6,0.9-1.7,0.9-3
		c0-1.5-0.3-2.6-0.9-3.2c-0.6-0.8-1.2-1-2.1-1c-0.8,0-1.5,0.3-2,1C196.6,7.2,196.3,8.2,196.3,9.6z"/>
	<path class="st0" d="M214.2,15l-3.3-10.6h1.8l1.7,6.1l0.6,2.3c0-0.2,0.2-0.9,0.6-2.3l1.7-6.3h1.8l1.7,6.2l0.6,2.1l0.6-2.1l1.8-6.2
		h1.8l-3.5,10.6h-2l-1.7-6.5L218,6.5l-2,8.3L214.2,15L214.2,15z"/>
	<path class="st0" d="M227.1,2.2v-2h1.8v2.1h-1.8V2.2z M227.1,15V4.3h1.8v10.6C228.8,15,227.1,15,227.1,15z"/>
	<path class="st0" d="M231.7,15V4.3h1.7v1.5c0.8-1.2,1.9-1.8,3.4-1.8c0.6,0,1.2,0.1,1.8,0.3c0.6,0.3,0.9,0.6,1.2,0.9
		c0.3,0.3,0.5,0.8,0.6,1.4c0,0.3,0.2,0.9,0.2,1.8V15h-1.8V8.6c0-0.8,0-1.4-0.2-1.7s-0.5-0.6-0.8-0.9c-0.3-0.1-0.8-0.3-1.2-0.3
		c-0.8,0-1.5,0.3-1.9,0.8c-0.6,0.4-0.9,1.3-0.9,2.8v5.8L231.7,15L231.7,15z"/>
	<path class="st0" d="M250.5,11.5l1.8,0.3c-0.3,1-0.9,2-1.7,2.5s-1.8,0.9-3,0.9c-1.5,0-2.8-0.5-3.8-1.5c-0.9-0.9-1.3-2.2-1.3-4
		s0.5-3.1,1.3-4.2c0.9-1.1,2.1-1.5,3.6-1.5s2.6,0.4,3.5,1.5c0.9,0.9,1.3,2.4,1.3,4c0,0.2,0,0.3,0,0.5h-8c0,1.2,0.5,2.1,1.1,2.7
		s1.3,0.9,2.3,0.9c0.6,0,1.2-0.2,1.7-0.5C249.8,12.9,250.2,12.3,250.5,11.5z M244.5,8.5h6c-0.2-0.9-0.3-1.5-0.8-2
		c-0.6-0.8-1.3-1-2.3-1s-1.5,0.3-2.1,0.9C244.9,6.9,244.6,7.6,244.5,8.5z"/>
	<path class="st0" d="M253.9,11.8l1.8-0.3c0.2,0.7,0.5,1.2,0.9,1.7c0.5,0.5,1.1,0.6,2,0.6s1.5-0.2,1.8-0.5c0.5-0.3,0.6-0.8,0.6-1.2
		s-0.2-0.7-0.6-0.9c-0.3-0.2-0.9-0.3-1.8-0.6c-1.3-0.3-2.3-0.6-2.7-0.9c-0.4-0.3-0.9-0.6-1.2-1.1c-0.3-0.4-0.5-0.9-0.5-1.5
		c0-0.4,0.2-0.9,0.3-1.4c0.2-0.4,0.4-0.8,0.9-1c0.3-0.1,0.6-0.5,1.2-0.6c0.5-0.1,1.1-0.1,1.5-0.1c0.9,0,1.5,0.1,2.3,0.3
		c0.8,0.2,1.1,0.6,1.3,1.1c0.3,0.4,0.5,0.9,0.6,1.6l-1.8,0.3c-0.2-0.6-0.3-1.1-0.8-1.4c-0.5-0.3-0.9-0.5-1.7-0.5
		c-0.9,0-1.3,0.2-1.8,0.5c-0.3,0.3-0.6,0.6-0.6,0.9c0,0.3,0,0.5,0.2,0.6s0.5,0.3,0.8,0.4c0.2,0,0.8,0.2,1.7,0.5
		c1.3,0.3,2.1,0.6,2.7,0.9c0.4,0.2,0.9,0.6,1.2,0.9c0.3,0.5,0.5,0.9,0.5,1.5s-0.2,1.2-0.6,1.7c-0.3,0.6-0.9,0.9-1.5,1.2
		s-1.3,0.5-2.3,0.5c-1.3,0-2.4-0.3-3.2-0.9C254.5,13.8,254.1,12.9,253.9,11.8z"/>
	<path class="st0" d="M270,9.6c0-1.9,0.6-3.4,1.7-4.4c0.9-0.8,2.1-1.2,3.3-1.2c1.5,0,2.7,0.4,3.6,1.5c0.9,0.9,1.3,2.3,1.3,4.1
		c0,1.3-0.2,2.4-0.6,3.3c-0.4,0.8-1,1.3-1.8,1.8c-0.8,0.5-1.7,0.6-2.6,0.6c-1.5,0-2.7-0.5-3.6-1.5C270.4,12.7,270,11.4,270,9.6z
		 M271.8,9.6c0,1.3,0.3,2.4,0.9,3s1.3,1,2.3,1s1.7-0.3,2.3-1s0.9-1.8,0.9-3.1s-0.3-2.3-0.9-3c-0.6-0.8-1.3-1.1-2.3-1.1
		s-1.7,0.3-2.3,1.1S271.8,8.2,271.8,9.6z"/>
	<path class="st0" d="M282.1,15V4.3h1.7v1.5c0.8-1.2,2-1.8,3.5-1.8c0.6,0,1.2,0.1,1.8,0.3c0.6,0.3,0.9,0.6,1.2,0.9
		c0.3,0.3,0.4,0.8,0.6,1.4c0,0.3,0.2,0.9,0.2,1.8V15h-1.8V8.6c0-0.8,0-1.4-0.2-1.7c-0.2-0.3-0.4-0.6-0.8-0.9
		c-0.3-0.1-0.8-0.3-1.2-0.3c-0.8,0-1.5,0.3-2,0.8c-0.4,0.4-0.9,1.3-0.9,2.8v5.8L282.1,15L282.1,15z"/>
	<path class="st0" d="M298.5,11.8l1.8-0.3c0.2,0.7,0.5,1.2,0.9,1.7c0.5,0.5,1.1,0.6,2,0.6s1.5-0.2,1.8-0.5c0.5-0.3,0.6-0.8,0.6-1.2
		s-0.2-0.7-0.6-0.9c-0.3-0.2-0.9-0.3-1.8-0.6c-1.3-0.3-2.3-0.6-2.7-0.9c-0.4-0.3-0.9-0.6-1.2-1.1c-0.3-0.4-0.5-0.9-0.5-1.5
		c0-0.4,0.2-0.9,0.3-1.4c0.2-0.4,0.4-0.8,0.9-1c0.3-0.1,0.6-0.5,1.2-0.6c0.5-0.1,1.1-0.1,1.5-0.1c0.9,0,1.5,0.1,2.3,0.3
		c0.8,0.2,1.1,0.6,1.3,1.1c0.3,0.4,0.5,0.9,0.6,1.6l-1.8,0.3c-0.2-0.6-0.3-1-0.8-1.4c-0.5-0.3-0.9-0.4-1.7-0.4
		c-0.9,0-1.3,0.1-1.8,0.4c-0.1,0.3-0.3,0.6-0.3,0.9s0,0.5,0.2,0.6c0.2,0.1,0.4,0.3,0.8,0.5c0.2,0,0.8,0.1,1.7,0.4
		c1.3,0.3,2.1,0.6,2.7,0.9c0.5,0.2,0.9,0.6,1.2,0.9c0.3,0.5,0.4,0.9,0.4,1.5s-0.2,1.2-0.6,1.7c-0.3,0.6-0.9,0.9-1.5,1.2
		s-1.3,0.5-2.3,0.5c-1.3,0-2.4-0.3-3.2-0.9C299.2,13.8,298.6,12.9,298.5,11.8z"/>
	<path class="st0" d="M316.5,13.6c-0.6,0.6-1.3,0.9-2,1.2c-0.6,0.3-1.3,0.3-1.9,0.3c-1.2,0-2.1-0.3-2.7-0.9
		c-0.6-0.6-0.9-1.3-0.9-2.3c0-0.5,0.2-1,0.3-1.5s0.6-0.8,0.9-1.1c0.4-0.3,0.8-0.4,1.3-0.6c0.3-0.1,0.9-0.1,1.7-0.3
		c1.5-0.1,2.5-0.5,3.3-0.6c0-0.3,0-0.4,0-0.4c0-0.8-0.2-1.2-0.4-1.5c-0.5-0.5-1.2-0.6-2.1-0.6c-0.9,0-1.5,0.1-2,0.4
		c-0.4,0.3-0.8,0.9-0.9,1.7l-1.8-0.3c0.2-0.8,0.4-1.4,0.8-1.8c0.3-0.5,0.9-0.8,1.7-1.1c0.8-0.3,1.5-0.4,2.4-0.4s1.7,0.1,2.3,0.3
		s1,0.5,1.2,0.8c0.3,0.3,0.5,0.8,0.6,1.2c0,0.3,0.2,0.9,0.2,1.6v2.4c0,1.7,0,2.7,0.2,3.1c0.2,0.5,0.3,0.9,0.5,1.3h-2
		C316.6,14.5,316.5,14.1,316.5,13.6z M316.3,9.6c-0.6,0.3-1.7,0.5-3,0.8c-0.8,0.2-1.2,0.3-1.7,0.3c-0.3,0.2-0.6,0.3-0.8,0.6
		c-0.2,0.3-0.3,0.6-0.3,0.9c0,0.5,0.2,0.9,0.6,1.2c0.3,0.3,0.9,0.5,1.7,0.5c0.8,0,1.3-0.2,1.8-0.5c0.6-0.3,0.9-0.8,1.2-1.2
		c0.2-0.5,0.3-1,0.3-1.8V9.6C316.1,9.6,316.3,9.6,316.3,9.6z"/>
	<path class="st0" d="M321,15V0.3h1.8V15H321z"/>
	<path class="st0" d="M332.8,11.5l1.8,0.3c-0.3,1-0.9,2-1.7,2.5s-1.8,0.9-3,0.9c-1.5,0-2.8-0.5-3.8-1.5c-0.9-0.9-1.3-2.2-1.3-4
		s0.5-3.1,1.3-4.2c0.9-1.1,2.1-1.5,3.6-1.5c1.5,0,2.6,0.4,3.4,1.5c0.9,0.9,1.4,2.4,1.4,4c0,0.2,0,0.3,0,0.5h-8
		c0,1.2,0.5,2.1,1.1,2.7s1.3,0.9,2.3,0.9c0.6,0,1.2-0.2,1.7-0.5C332.2,12.9,332.5,12.3,332.8,11.5z M326.8,8.5h6
		c-0.1-0.9-0.3-1.5-0.8-2c-0.6-0.8-1.3-1-2.2-1s-1.5,0.3-2.1,0.9C327.3,6.9,327,7.6,326.8,8.5z"/>
	<path class="st0" d="M337.9,11.2l-0.6-7.8V0.2h2.3v3.3l-0.4,7.8L337.9,11.2L337.9,11.2z M337.5,15v-2.1h2.1V15H337.5z"/>
	<path class="st0" d="M146.8,17.8v-1.5h194.4v1.5H146.8z"/>
</g>
<g class="st1">
	<path class="st2" d="M40.8,38.2l1.3,0.2c-0.2,1.1-0.6,1.8-1.2,2.3c-0.6,0.6-1.5,0.9-2.4,0.9c-1.2,0-2.1-0.4-2.9-1.2
		c-0.8-0.8-1-1.8-1-3.3c0-0.9,0.2-1.8,0.4-2.4c0.3-0.8,0.8-1.2,1.4-1.5c0.6-0.3,1.3-0.4,2.1-0.4c0.9,0,1.7,0.3,2.3,0.8
		s0.9,1.2,1.2,1.9l-1.3,0.2c-0.2-0.6-0.3-1.1-0.8-1.3c-0.3-0.3-0.8-0.4-1.2-0.4c-0.8,0-1.4,0.3-1.8,0.8s-0.8,1.3-0.8,2.6
		c0,1.2,0.2,1.9,0.6,2.6c0.5,0.6,1.1,0.8,1.7,0.8s1.1-0.2,1.3-0.4C40.3,39.6,40.6,38.9,40.8,38.2z"/>
	<path class="st2" d="M42.9,37.2c0-1.7,0.4-2.7,1.3-3.4c0.8-0.7,1.7-1,2.7-1c1.2,0,2.1,0.4,2.8,1.2c0.7,0.8,1.1,1.8,1.1,3.2
		c0,1.1-0.1,1.9-0.4,2.6c-0.3,0.7-0.8,1.1-1.5,1.5c-0.7,0.4-1.4,0.4-2.1,0.4c-1.2,0-2.1-0.4-2.9-1.2C43.2,39.7,42.9,38.5,42.9,37.2z
		 M44.4,37.2c0,1.1,0.3,1.9,0.8,2.4c0.4,0.6,1.1,0.8,1.8,0.8c0.7,0,1.4-0.3,1.8-0.8c0.4-0.6,0.8-1.3,0.8-2.6c0-1.1-0.3-1.8-0.8-2.4
		c-0.5-0.6-1.1-0.8-1.8-0.8c-0.7,0-1.3,0.3-1.8,0.8C44.5,35.2,44.4,35.9,44.4,37.2z"/>
	<path class="st2" d="M52.5,41.4V29.5H54v4.2c0.8-0.8,1.5-1.2,2.6-1.2c0.6,0,1.2,0.2,1.6,0.3c0.4,0.3,0.8,0.6,1.1,1.1
		s0.3,1.1,0.3,1.9v5.4h-1.5v-5.4c0-0.7-0.1-1.2-0.4-1.6c-0.3-0.3-0.8-0.4-1.4-0.4c-0.4,0-0.9,0.2-1.2,0.3c-0.3,0.1-0.6,0.4-0.8,0.9
		c-0.2,0.5-0.3,0.9-0.3,1.7v4.6L52.5,41.4L52.5,41.4z"/>
	<path class="st2" d="M61.2,37.2c0-1.7,0.4-2.7,1.4-3.4c0.8-0.6,1.6-0.9,2.7-0.9c1.2,0,2.1,0.4,2.9,1.2s1.1,1.8,1.1,3.2
		c0,1.1-0.1,1.9-0.4,2.6c-0.3,0.7-1,0.9-1.7,1.3s-1.4,0.4-2.1,0.4c-1.2,0-2.1-0.4-2.9-1.2C61.5,39.7,61.2,38.5,61.2,37.2z
		 M62.7,37.2c0,1.1,0.3,1.9,0.8,2.4c0.4,0.6,1.1,0.8,1.8,0.8c0.7,0,1.4-0.3,1.8-0.8c0.4-0.6,0.8-1.3,0.8-2.6c0-1.1-0.3-1.8-0.8-2.4
		c-0.5-0.6-1.1-0.8-1.8-0.8c-0.7,0-1.4,0.3-1.8,0.8C62.8,35.2,62.7,35.9,62.7,37.2z"/>
	<path class="st2" d="M72.4,41.4l-2.5-8.6h1.5l1.4,4.9l0.4,1.8c0-0.1,0.1-0.8,0.4-1.8l1.4-4.9h1.5l1.3,5l0.4,1.7l0.4-1.7l1.5-5h1.5
		l-2.7,8.6h-1.5L76,36.3l-0.3-1.5l-1.8,6.6H72.4z"/>
	<path class="st2" d="M82.8,31.3v-1.6h1.5v1.7L82.8,31.3L82.8,31.3z M82.8,41.4v-8.6h1.5v8.6H82.8z"/>
	<path class="st2" d="M86.4,41.4v-8.6h1.4V34c0.6-0.9,1.5-1.3,2.7-1.3c0.4,0,1.1,0.2,1.4,0.3c0.4,0.2,0.8,0.4,0.9,0.8
		c0.1,0.4,0.3,0.6,0.4,1.1c0,0.3,0.1,0.8,0.1,1.3v5.3h-1.5v-5.3c0-0.6,0-1.1-0.1-1.3c-0.1-0.3-0.3-0.4-0.6-0.8
		c-0.3-0.3-0.6-0.3-1.1-0.3c-0.6,0-1.2,0.2-1.6,0.6c-0.4,0.4-0.6,1.2-0.6,2.2v4.7L86.4,41.4L86.4,41.4z"/>
	<path class="st2" d="M101.4,38.7l1.5,0.1c-0.3,0.9-0.6,1.5-1.4,2.1c-0.6,0.4-1.5,0.8-2.4,0.8c-1.2,0-2.3-0.4-3-1.2
		c-0.7-0.8-1-1.8-1-3.3s0.3-2.6,1-3.3c0.7-0.7,1.6-1.2,2.9-1.2c1.3,0,2.1,0.4,2.9,1.2c0.8,0.8,1,1.8,1,3.3c0,0.1,0,0.1,0,0.4h-6.3
		c0,0.9,0.3,1.6,0.8,2.1s1,0.8,1.8,0.8c0.6,0,1-0.1,1.4-0.4C100.9,39.7,101.2,39.3,101.4,38.7z M96.6,36.3h4.8
		c0-0.7-0.3-1.2-0.6-1.6c-0.5-0.6-1-0.9-1.8-0.9c-0.6,0-1.2,0.2-1.6,0.6C97,34.8,96.7,35.5,96.6,36.3z"/>
	<path class="st2" d="M104.7,41.4v-8.6h1.4v1.3c0.3-0.6,0.6-1.1,0.9-1.2c0.3-0.2,0.6-0.3,0.9-0.3c0.5,0,1,0.2,1.5,0.4l-0.5,1.5
		c-0.3-0.2-0.8-0.3-1-0.3c-0.2,0-0.6,0.2-0.9,0.3c-0.3,0.1-0.5,0.4-0.6,0.8c-0.1,0.4-0.3,1.1-0.3,1.7v4.5L104.7,41.4L104.7,41.4z"/>
</g>
<g class="st1">
	<path class="st2" d="M110.1,44.7l-0.2-1.4c0.3,0.2,0.6,0.2,0.9,0.2s0.6,0,0.8-0.2c0.1-0.1,0.3-0.3,0.5-0.4c0.1-0.1,0.3-0.4,0.5-1.1
		c0-0.1,0-0.1,0.1-0.3l-3.3-8.6h1.5l1.8,4.9c0.3,0.6,0.5,1.4,0.6,1.9c0.1-0.6,0.3-1.3,0.6-1.9l1.8-4.9h1.5l-3.3,8.7
		c-0.3,0.9-0.6,1.7-0.8,1.9c-0.3,0.4-0.6,0.9-0.9,1.1c-0.3,0.2-0.8,0.3-1.2,0.3C110.8,44.8,110.5,44.8,110.1,44.7z"/>
</g>
<g class="st1">
	<path class="st2" d="M117.6,41.4v-1.7h1.6v1.7H117.6z"/>
	<path class="st2" d="M127.3,38.2l1.4,0.2c-0.1,1.1-0.6,1.8-1.2,2.3c-0.6,0.6-1.5,0.9-2.4,0.9c-1.2,0-2.1-0.4-2.9-1.2
		c-0.8-0.8-1-1.8-1-3.3c0-0.9,0.1-1.8,0.5-2.4s0.8-1.2,1.4-1.5c0.6-0.3,1.4-0.4,2.1-0.4c0.9,0,1.6,0.3,2.3,0.8
		c0.7,0.5,0.9,1.2,1.2,1.9l-1.4,0.2c-0.1-0.6-0.3-1.1-0.8-1.3c-0.3-0.3-0.8-0.4-1.2-0.4c-0.8,0-1.4,0.3-1.8,0.8
		c-0.4,0.5-0.8,1.3-0.8,2.6c0,1.2,0.1,1.9,0.6,2.6c0.5,0.7,1,0.8,1.6,0.8s1-0.2,1.4-0.4C127,39.6,127.3,38.9,127.3,38.2z"/>
	<path class="st2" d="M129.4,37.2c0-1.7,0.5-2.7,1.4-3.4c0.8-0.6,1.6-0.9,2.7-0.9c1.2,0,2.1,0.4,2.9,1.2s1,1.8,1,3.2
		c0,1.1-0.1,1.9-0.5,2.6c-0.3,0.6-0.8,1.1-1.5,1.5c-0.7,0.4-1.4,0.4-2.1,0.4c-1.2,0-2.1-0.4-2.9-1.2
		C129.9,39.7,129.4,38.5,129.4,37.2z M130.9,37.2c0,1.1,0.3,1.9,0.8,2.4c0.5,0.6,1,0.8,1.8,0.8s1.4-0.3,1.8-0.8
		c0.5-0.6,0.8-1.3,0.8-2.6c0-1.1-0.3-1.8-0.8-2.4c-0.5-0.6-1-0.8-1.8-0.8s-1.4,0.3-1.8,0.8C131.2,35.2,130.9,35.9,130.9,37.2z"/>
	<path class="st2" d="M139.2,41.4v-8.6h1.4V34c0.3-0.4,0.6-0.8,1-1.1c0.5-0.3,0.9-0.4,1.5-0.4c0.6,0,1.2,0.2,1.5,0.4
		c0.3,0.2,0.8,0.6,0.9,1.1c0.8-1.1,1.5-1.5,2.7-1.5c0.9,0,1.5,0.3,2,0.8s0.8,1.2,0.8,2.1v5.8h-1.5v-5.4c0-0.6,0-1.1-0.1-1.2
		c-0.2-0.3-0.3-0.4-0.5-0.6c-0.3-0.2-0.6-0.3-0.9-0.3c-0.6,0-1,0.2-1.5,0.6c-0.5,0.4-0.6,1.1-0.6,1.9v4.9h-1.5v-5.6
		c0-0.6-0.2-1.2-0.3-1.5c-0.3-0.3-0.6-0.4-1.2-0.4c-0.5,0-0.8,0.2-1.2,0.3c-0.4,0.1-0.6,0.6-0.8,0.9c-0.2,0.3-0.3,1.1-0.3,1.8v4.5
		h-1.4C139.2,41.1,139.2,41.4,139.2,41.4z"/>
	<path class="st2" d="M156.9,37.9v-1.5h4.5v1.5H156.9z"/>
	<path class="st2" d="M167.2,35.7c0-1.9,0.6-3.4,1.7-4.7c1-1.1,2.4-1.7,4-1.7c1,0,2.1,0.3,3,0.8c0.9,0.4,1.5,1.2,2,2.3
		c0.5,0.9,0.8,1.9,0.8,3.2c0,1.2-0.3,2.2-0.8,3.2c-0.5,0.9-1.2,1.6-2.1,2.1c-0.9,0.4-1.8,0.8-2.8,0.8s-2.1-0.3-3-0.8
		c-0.9-0.4-1.5-1.2-2-2.3C167.5,37.6,167.2,36.7,167.2,35.7z M168.9,35.7c0,1.3,0.5,2.6,1.2,3.3s1.6,1.2,2.8,1.2
		c1.2,0,2.1-0.4,2.9-1.2s1.2-1.9,1.2-3.4c0-0.9-0.2-1.8-0.5-2.6s-0.8-1.2-1.4-1.7c-0.6-0.5-1.3-0.6-2.1-0.6c-1,0-2.1,0.4-2.9,1.2
		S168.9,33.9,168.9,35.7z"/>
</g>
<g class="st1">
	<path class="st2" d="M180.7,41.4v-7.3h-1.3v-1.3h1.3v-0.9c0-0.6,0-1.1,0.2-1.3c0.1-0.3,0.5-0.8,0.8-0.9c0.3-0.3,0.9-0.3,1.5-0.3
		c0.5,0,0.9,0,1.3,0.2l-0.1,1.2c-0.3,0-0.6-0.2-0.9-0.2c-0.5,0-0.8,0.2-0.9,0.3c-0.2,0.2-0.3,0.6-0.3,1.1v0.8h1.6V34h-1.8v7.3
		L180.7,41.4C180.7,41.3,180.7,41.4,180.7,41.4z"/>
</g>
<g class="st1">
	<path class="st2" d="M184.9,41.4v-7.3h-1.3v-1.3h1.3v-0.9c0-0.6,0-1.1,0.2-1.3c0.1-0.3,0.5-0.8,0.8-0.9c0.3-0.3,0.9-0.3,1.5-0.3
		c0.5,0,0.9,0,1.3,0.2l-0.1,1.2c-0.3,0-0.6-0.2-0.9-0.2c-0.5,0-0.8,0.2-0.9,0.3c-0.2,0.2-0.3,0.6-0.3,1.1v0.8h1.6V34h-1.6v7.3
		L184.9,41.4C184.9,41.2,184.9,41.4,184.9,41.4z"/>
	<path class="st2" d="M189.3,31.3v-1.6h1.5v1.7L189.3,31.3L189.3,31.3z M189.3,41.4v-8.6h1.5v8.6H189.3z"/>
	<path class="st2" d="M198.4,38.2l1.3,0.2c-0.2,1.1-0.6,1.8-1.2,2.3c-0.6,0.6-1.5,0.9-2.4,0.9c-1.2,0-2.1-0.4-2.8-1.2
		c-0.7-0.8-1-1.8-1-3.3c0-0.9,0.2-1.8,0.5-2.4s0.8-1.2,1.3-1.5s1.3-0.4,2.1-0.4c0.9,0,1.7,0.3,2.3,0.8s0.9,1.2,1.2,1.9l-1.3,0.2
		c-0.2-0.6-0.3-1.1-0.8-1.3c-0.3-0.3-0.8-0.4-1.2-0.4c-0.8,0-1.3,0.3-1.8,0.8s-0.8,1.3-0.8,2.6c0,1.2,0.2,1.9,0.6,2.6
		c0.4,0.7,1,0.8,1.7,0.8c0.6,0,1-0.2,1.3-0.4C198.1,39.6,198.3,38.9,198.4,38.2z"/>
	<path class="st2" d="M201.1,31.3v-1.6h1.5v1.7L201.1,31.3L201.1,31.3z M201.1,41.4v-8.6h1.5v8.6H201.1z"/>
	<path class="st2" d="M210.3,40.3c-0.6,0.4-1,0.8-1.5,0.9c-0.4,0.1-1,0.3-1.7,0.3c-0.9,0-1.7-0.3-2.1-0.8s-0.8-1.1-0.8-1.8
		c0-0.4,0.2-0.8,0.3-1.2c0.2-0.3,0.4-0.6,0.8-0.9c0.3-0.1,0.6-0.3,1-0.4c0.3,0,0.8-0.1,1.3-0.1c1.2-0.2,2.1-0.3,2.6-0.4
		c0-0.2,0-0.3,0-0.4c0-0.6-0.2-1.1-0.5-1.2c-0.3-0.3-0.9-0.4-1.7-0.4s-1.2,0.2-1.5,0.3c-0.3,0.2-0.6,0.6-0.8,1.2l-1.3-0.2
		c0.2-0.6,0.3-1.1,0.6-1.5c0.3-0.3,0.8-0.6,1.3-0.9c0.6-0.2,1.2-0.3,2-0.3s1.3,0.2,1.8,0.3c0.5,0.2,0.8,0.4,1.1,0.6
		c0.2,0.3,0.3,0.6,0.4,1.1c0,0.3,0,0.8,0,1.3v2c0,1.4,0,2.3,0.2,2.6c0.2,0.3,0.2,0.8,0.3,1.1h-1.5C210.4,41.1,210.4,40.8,210.3,40.3
		z M210.1,37.2c-0.6,0.1-1.3,0.4-2.4,0.6c-0.6,0.2-1,0.2-1.2,0.3c-0.3,0.2-0.5,0.3-0.6,0.4s-0.2,0.4-0.2,0.8s0.2,0.8,0.4,0.9
		c0.3,0.1,0.8,0.4,1.3,0.4s1.1-0.2,1.5-0.3c0.5-0.3,0.8-0.6,0.9-1.1c0.2-0.3,0.3-0.8,0.3-1.5V37.2L210.1,37.2z"/>
	<path class="st2" d="M213.8,41.4V29.5h1.5v11.8L213.8,41.4L213.8,41.4z"/>
	<path class="st2" d="M221.5,38.8l1.5-0.3c0.2,0.6,0.3,1.1,0.6,1.4s0.9,0.4,1.5,0.4s1.2-0.2,1.5-0.4c0.3-0.3,0.5-0.6,0.5-0.9
		c0-0.3-0.2-0.6-0.5-0.8c-0.2-0.1-0.8-0.3-1.5-0.4c-1-0.3-1.8-0.4-2.3-0.8c-0.4-0.1-0.8-0.4-0.9-0.8s-0.3-0.7-0.3-1.2
		s0.2-0.8,0.3-1.1c0.2-0.3,0.5-0.6,0.8-0.8c0.2-0.2,0.6-0.3,0.9-0.4s0.8-0.2,1.2-0.2c0.6,0,1.2,0.2,1.8,0.3c0.5,0.2,0.9,0.4,1.1,0.8
		c0.3,0.3,0.4,0.8,0.4,1.3l-1.3,0.2c0-0.4-0.3-0.8-0.6-1.1s-0.8-0.3-1.3-0.3s-1.2,0.2-1.3,0.3c-0.3,0.2-0.4,0.4-0.4,0.8
		c0,0.2,0,0.3,0.2,0.4c0.2,0.2,0.3,0.3,0.6,0.4c0.2,0,0.6,0.1,1.3,0.3c1,0.3,1.8,0.4,2.1,0.6c0.4,0.2,0.8,0.4,0.9,0.8
		s0.3,0.8,0.3,1.2s-0.2,0.9-0.4,1.4c-0.3,0.4-0.8,0.8-1.2,1.1s-1.2,0.3-1.8,0.3c-1.1,0-2-0.3-2.6-0.8
		C222.1,40.4,221.7,39.7,221.5,38.8z"/>
	<path class="st2" d="M230.3,31.3v-1.6h1.5v1.7L230.3,31.3L230.3,31.3z M230.3,41.4v-8.6h1.5v8.6H230.3z"/>
	<path class="st2" d="M237.1,40l0.2,1.4c-0.4,0.1-0.8,0.1-1,0.1c-0.6,0-0.9-0.1-1.2-0.3c-0.3-0.1-0.4-0.4-0.6-0.6
		c-0.2-0.3-0.2-0.9-0.2-1.7V34h-1v-1.2h1v-2.1l1.5-0.9v3h1.5V34h-1.5v4.9c0,0.4,0,0.8,0.2,0.8c0,0.2,0.2,0.2,0.3,0.3
		c0.2,0,0.3,0.2,0.4,0.2C236.7,40.2,237,40.2,237.1,40z"/>
	<path class="st2" d="M244.5,38.7l1.5,0.1c-0.3,0.9-0.6,1.5-1.3,2.1c-0.6,0.4-1.5,0.8-2.4,0.8c-1.2,0-2.3-0.4-3-1.2
		s-1.1-1.8-1.1-3.3s0.3-2.6,1.1-3.3c0.8-0.7,1.7-1.2,2.8-1.2c1.2,0,2.1,0.4,2.8,1.2c0.7,0.8,1,1.8,1,3.3c0,0.1,0,0.1,0,0.4h-6.3
		c0,0.9,0.3,1.6,0.8,2.1c0.4,0.4,1,0.8,1.8,0.8c0.6,0,1.1-0.1,1.3-0.4C243.8,39.7,244.2,39.3,244.5,38.7z M239.7,36.3h4.8
		c0-0.7-0.3-1.2-0.6-1.6c-0.4-0.6-1-0.9-1.8-0.9c-0.6,0-1.2,0.2-1.7,0.6C239.9,34.7,239.8,35.5,239.7,36.3z"/>
</g>
<g class="st1">
	<path class="st3" d="M265.5,37.3l1.5,0.4c-0.3,1.4-0.9,2.3-1.8,3c-0.9,0.6-1.9,1.1-3.2,1.1c-1.2,0-2.3-0.3-3.2-0.8
		c-0.8-0.4-1.3-1.2-1.8-2.3c-0.5-1.1-0.6-2.1-0.6-3.1c0-1.2,0.3-2.3,0.8-3.2c0.4-0.9,1.2-1.7,1.9-2.1c0.9-0.4,1.8-0.8,2.8-0.8
		c1.2,0,2.1,0.3,3,0.9c0.9,0.6,1.3,1.5,1.7,2.6l-1.5,0.3c-0.3-0.9-0.6-1.5-1.2-1.8c-0.5-0.4-1.2-0.6-2-0.6c-0.9,0-1.7,0.2-2.3,0.6
		s-1,1.1-1.3,1.8c-0.3,0.8-0.3,1.5-0.3,2.3c0,1.1,0.2,1.9,0.4,2.7c0.3,0.8,0.8,1.4,1.3,1.7s1.3,0.6,2,0.6c0.9,0,1.7-0.3,2.3-0.8
		C264.8,38.9,265.3,38.2,265.5,37.3z"/>
	<path class="st3" d="M268.3,37.2c0-1.7,0.4-2.7,1.3-3.4c0.8-0.6,1.7-0.9,2.7-0.9c1.2,0,2.1,0.4,2.8,1.2c0.7,0.8,1.1,1.8,1.1,3.2
		c0,1.1-0.2,1.9-0.5,2.6c-0.3,0.6-0.8,1.1-1.5,1.5c-0.7,0.4-1.3,0.4-2.1,0.4c-1.2,0-2.1-0.4-2.8-1.2
		C268.6,39.7,268.3,38.5,268.3,37.2z M269.8,37.2c0,1.1,0.3,1.9,0.8,2.4c0.4,0.6,1,0.8,1.8,0.8c0.8,0,1.3-0.3,1.8-0.8
		c0.4-0.6,0.8-1.3,0.8-2.6c0-1.1-0.3-1.8-0.8-2.4c-0.5-0.6-1.1-0.8-1.8-0.8c-0.7,0-1.3,0.3-1.8,0.8C270,35.2,269.8,35.9,269.8,37.2z
		"/>
	<path class="st3" d="M277.9,41.4V29.5h1.5v4.2c0.8-0.8,1.5-1.2,2.5-1.2c0.6,0,1.2,0.2,1.7,0.3c0.5,0.3,0.8,0.6,1.1,1.1
		c0.2,0.4,0.3,1.1,0.3,1.9v5.4h-1.5v-5.4c0-0.7-0.2-1.2-0.4-1.6c-0.3-0.3-0.8-0.4-1.3-0.4s-0.9,0.2-1.2,0.3
		c-0.3,0.2-0.6,0.4-0.8,0.9c-0.2,0.5-0.3,0.9-0.3,1.7v4.6L277.9,41.4L277.9,41.4z"/>
	<path class="st3" d="M286.6,37.2c0-1.7,0.5-2.7,1.3-3.4c0.8-0.6,1.7-0.9,2.7-0.9c1.2,0,2.1,0.4,2.8,1.2c0.7,0.8,1,1.8,1,3.2
		c0,1.1-0.2,1.9-0.4,2.6c-0.3,0.6-0.8,1.1-1.5,1.5c-0.7,0.4-1.3,0.4-2.1,0.4c-1.2,0-2.1-0.4-2.8-1.2
		C286.9,39.7,286.6,38.5,286.6,37.2z M288.1,37.2c0,1.1,0.3,1.9,0.8,2.4c0.5,0.6,1.1,0.8,1.8,0.8c0.7,0,1.3-0.3,1.8-0.8
		c0.5-0.6,0.8-1.3,0.8-2.6c0-1.1-0.3-1.8-0.8-2.4c-0.4-0.6-1-0.8-1.8-0.8c-0.8,0-1.3,0.3-1.8,0.8C288.3,35.2,288.1,35.9,288.1,37.2z
		"/>
	<path class="st3" d="M303.1,41.4l-3.2-11.9h1.7l1.8,7.8c0.2,0.8,0.3,1.7,0.4,2.4c0.3-1.2,0.5-1.9,0.6-2.3l2.3-8h2l1.7,6
		c0.4,1.5,0.8,2.8,0.9,4.2c0.2-0.8,0.3-1.6,0.6-2.6l1.8-7.5h1.5l-3.3,11.8h-1.5l-2.6-9c-0.2-0.8-0.3-1.2-0.3-1.3
		c-0.2,0.6-0.3,1.1-0.3,1.3l-2.5,9L303.1,41.4L303.1,41.4z"/>
	<path class="st3" d="M316.5,31.3v-1.6h1.5v1.7L316.5,31.3L316.5,31.3z M316.5,41.4v-8.6h1.5v8.6H316.5z"/>
	<path class="st3" d="M320.1,41.4v-8.6h1.3V34c0.6-0.9,1.5-1.3,2.7-1.3c0.5,0,1.1,0.2,1.3,0.3c0.5,0.2,0.8,0.4,0.9,0.8
		c0.1,0.4,0.3,0.6,0.5,1.1c0,0.3,0.2,0.8,0.2,1.3v5.3h-1.5v-5.3c0-0.6,0-1.1-0.2-1.3c-0.2-0.3-0.3-0.4-0.6-0.8
		c-0.3-0.3-0.6-0.3-1.1-0.3c-0.6,0-1.2,0.2-1.7,0.6c-0.4,0.4-0.6,1.2-0.6,2.2v4.7L320.1,41.4L320.1,41.4z"/>
	<path class="st3" d="M335,38.7l1.5,0.1c-0.3,0.9-0.6,1.5-1.3,2.1c-0.6,0.4-1.5,0.8-2.4,0.8c-1.2,0-2.2-0.4-3-1.2
		c-0.8-0.8-1.1-1.8-1.1-3.3s0.3-2.6,1.1-3.3c0.8-0.7,1.7-1.2,2.8-1.2c1.2,0,2.1,0.4,2.8,1.2c0.7,0.8,1.1,1.8,1.1,3.3
		c0,0.1,0,0.1,0,0.4h-6.3c0,0.9,0.3,1.6,0.7,2.1c0.5,0.4,1.1,0.8,1.8,0.8c0.6,0,1-0.1,1.3-0.4C334.6,39.7,334.9,39.3,335,38.7z
		 M330.3,36.3h4.8c0-0.7-0.3-1.2-0.6-1.6c-0.5-0.6-1-0.9-1.8-0.9c-0.6,0-1.2,0.2-1.7,0.6C330.6,34.9,330.4,35.5,330.3,36.3z"/>
	<path class="st3" d="M338.4,41.4v-8.6h1.3v1.3c0.3-0.6,0.6-1.1,0.9-1.2c0.3-0.2,0.6-0.3,0.9-0.3c0.5,0,1,0.2,1.5,0.4l-0.5,1.3
		c-0.3-0.2-0.8-0.3-1-0.3s-0.6,0.2-0.9,0.3c-0.3,0.1-0.5,0.4-0.6,0.8c-0.1,0.4-0.3,1.1-0.3,1.7v4.5L338.4,41.4L338.4,41.4z"/>
</g>
<g class="st1">
	<path class="st3" d="M343.8,44.7l-0.1-1.4c0.3,0.2,0.6,0.2,0.9,0.2s0.6,0,0.8-0.2c0.2-0.1,0.3-0.3,0.5-0.4c0.1-0.1,0.3-0.4,0.5-1.1
		c0-0.1,0-0.1,0.1-0.3l-3.3-8.6h1.5l1.8,4.9c0.3,0.6,0.5,1.4,0.6,1.9c0.1-0.6,0.3-1.3,0.6-1.9l1.8-4.9h1.5l-3.3,8.7
		c-0.3,0.9-0.6,1.7-0.8,1.9c-0.3,0.4-0.6,0.9-0.9,1.1c-0.3,0.2-0.8,0.3-1.2,0.3C344.5,44.8,344,44.8,343.8,44.7z"/>
</g>
<g class="st1">
	<path class="st3" d="M351.3,41.4v-1.7h1.7v1.7c0,0.6-0.2,1.1-0.3,1.5c-0.1,0.3-0.6,0.6-1,0.9l-0.5-0.6c0.3-0.2,0.6-0.3,0.8-0.6
		c0.2-0.3,0.3-0.6,0.3-1.1h-0.9v-0.1C351.4,41.4,351.3,41.4,351.3,41.4z"/>
	<path class="st3" d="M360.1,41.4V29.5h1.5v10.3h5.8v1.3h-7.3V41.4z"/>
	<path class="st3" d="M369.3,41.4V29.5h1.5v10.3h5.9v1.3h-7.4V41.4z"/>
	<path class="st3" d="M387,37.3l1.5,0.4c-0.3,1.4-0.9,2.3-1.8,3c-0.9,0.6-1.9,1.1-3.2,1.1c-1.2,0-2.3-0.3-3.1-0.8
		c-0.8-0.4-1.4-1.2-1.8-2.3c-0.5-1.1-0.6-2.1-0.6-3.1c0-1.2,0.3-2.3,0.8-3.2c0.5-0.9,1.2-1.7,2-2.1s1.8-0.8,2.8-0.8
		c1.2,0,2.1,0.3,3,0.9c0.9,0.6,1.4,1.5,1.7,2.6l-1.5,0.3c-0.3-0.9-0.6-1.5-1.2-1.8c-0.4-0.4-1.2-0.6-1.9-0.6c-0.9,0-1.7,0.2-2.3,0.6
		c-0.6,0.4-1,1.1-1.4,1.8c-0.3,0.8-0.3,1.5-0.3,2.3c0,1.1,0.2,1.9,0.5,2.7s0.8,1.4,1.3,1.7c0.6,0.3,1.4,0.6,1.9,0.6
		c0.9,0,1.7-0.3,2.3-0.8C386.4,38.9,386.7,38.2,387,37.3z"/>
</g>
<g class="st1">
	<path d="M10.8,67.8l4.5-11.9H17l4.8,11.9h-1.9l-1.4-3.4h-5l-1.2,3.4H10.8z M14.1,63h4l-1.2-3.3c-0.4-1-0.6-1.8-0.9-2.4
		c-0.2,0.8-0.3,1.5-0.6,2.3L14.1,63z"/>
	<path d="M22.8,67.8V55.9h1.5v11.9H22.8z"/>
	<path d="M26.4,67.8V55.9h1.5v11.9H26.4z"/>
	<path d="M34.6,67.8v-8.5h1.3v1.4c0.3-0.6,0.6-1.1,0.9-1.2c0.3-0.1,0.6-0.3,0.9-0.3c0.5,0,1.1,0.1,1.5,0.4L38.8,61
		c-0.3-0.1-0.8-0.3-1.1-0.3s-0.6,0.1-0.9,0.3c-0.3,0.2-0.5,0.5-0.6,0.8c-0.1,0.5-0.3,1.1-0.3,1.6v4.4H34.6z"/>
	<path d="M46,65.1l1.5,0.1c-0.3,0.9-0.6,1.5-1.3,2.1c-0.6,0.4-1.5,0.8-2.4,0.8c-1.2,0-2.2-0.5-3-1.2c-0.8-0.7-1.1-1.8-1.1-3.3
		s0.3-2.6,1.1-3.3c0.8-0.7,1.6-1.2,2.8-1.2s2.1,0.4,2.8,1.2c0.7,0.8,1.1,1.8,1.1,3.3c0,0.1,0,0.1,0,0.4h-6.3c0,0.9,0.3,1.6,0.8,2.1
		s1.1,0.8,1.8,0.8c0.6,0,1.1-0.1,1.4-0.4C45.6,66.1,45.9,65.6,46,65.1z M41.2,62.8H46c0-0.8-0.3-1.2-0.6-1.6
		c-0.4-0.6-1.1-0.9-1.8-0.9c-0.6,0-1.2,0.1-1.6,0.6C41.5,61.5,41.4,62.1,41.2,62.8z"/>
	<path d="M54.9,67.8v-1c-0.6,0.9-1.4,1.2-2.4,1.2c-0.8,0-1.4-0.1-1.9-0.6c-0.6-0.3-1.1-0.9-1.4-1.5s-0.4-1.5-0.4-2.3
		c0-0.9,0.1-1.6,0.4-2.3c0.3-0.8,0.8-1.2,1.4-1.6c0.6-0.3,1.2-0.6,1.9-0.6c0.4,0,0.9,0.1,1.4,0.3c0.5,0.2,0.8,0.4,1.1,0.9v-4.2h1.5
		v11.7H54.9z M50.4,63.6c0,1,0.3,1.9,0.8,2.4c0.4,0.6,1.1,0.8,1.6,0.8c0.6,0,1.2-0.3,1.6-0.8c0.4-0.5,0.6-1.4,0.6-2.4
		c0-1.2-0.1-2.1-0.8-2.6c-0.6-0.4-1.1-0.8-1.6-0.8c-0.6,0-1.2,0.3-1.6,0.8C50.5,61.6,50.4,62.5,50.4,63.6z"/>
	<path d="M64.6,67.8L62,59.4h1.5l1.4,5l0.4,1.8c0-0.1,0.1-0.8,0.4-1.8l1.4-5h1.5l1.4,5l0.4,1.6l0.4-1.6l1.5-5h1.4l-2.6,8.4h-1.5
		l-1.4-5.1l-0.3-1.6l-1.8,6.7H64.6z"/>
	<path d="M75,57.7v-1.6h1.5v1.6H75z M75,67.8v-8.5h1.5v8.5H75z"/>
	<path d="M78.6,67.8v-8.5h1.3v1.2c0.6-0.9,1.5-1.4,2.7-1.4c0.4,0,1.1,0.1,1.4,0.3c0.4,0.1,0.8,0.4,0.9,0.8c0.1,0.3,0.3,0.6,0.4,1
		c0,0.3,0.1,0.8,0.1,1.4v5.2H84v-5.3c0-0.6,0-1-0.1-1.4c-0.1-0.3-0.3-0.4-0.6-0.8C83,60,82.7,60,82.2,60c-0.6,0-1.2,0.1-1.6,0.6
		c-0.5,0.5-0.7,1.3-0.7,2.4v4.8H78.6z"/>
	<path d="M93.6,65.1l1.5,0.1c-0.3,0.9-0.6,1.5-1.4,2.1c-0.6,0.4-1.5,0.8-2.4,0.8c-1.2,0-2.2-0.5-3-1.2c-0.8-0.7-1.1-1.8-1.1-3.3
		s0.3-2.6,1.1-3.3c0.8-0.7,1.6-1.2,2.9-1.2c1.2,0,2.1,0.4,2.9,1.2c0.8,0.8,1,1.8,1,3.3c0,0.1,0,0.1,0,0.4h-6.3
		c0,0.9,0.3,1.6,0.8,2.1c0.4,0.5,1.1,0.8,1.8,0.8c0.6,0,1.1-0.1,1.4-0.4C93.1,66.1,93.4,65.6,93.6,65.1z M88.9,62.8h4.8
		c0-0.8-0.3-1.2-0.6-1.6c-0.4-0.6-1.1-0.9-1.8-0.9c-0.6,0-1.2,0.1-1.6,0.6C89.2,61.5,88.9,62.1,88.9,62.8z"/>
	<path d="M96.4,65.4l1.5-0.3c0.1,0.6,0.3,1,0.6,1.4c0.3,0.3,0.9,0.4,1.5,0.4s1.2-0.1,1.5-0.4c0.3-0.3,0.5-0.6,0.5-0.9
		c0-0.3-0.1-0.6-0.5-0.8c-0.1-0.1-0.8-0.3-1.5-0.5c-1-0.3-1.8-0.4-2.3-0.8c-0.5-0.1-0.8-0.4-0.9-0.8c-0.1-0.3-0.3-0.9-0.3-1.2
		c0-0.4,0.1-0.8,0.3-1c0.1-0.3,0.5-0.6,0.8-0.8c0.1-0.1,0.6-0.3,0.9-0.5c0.3-0.2,0.8-0.1,1.2-0.1c0.6,0,1.2,0.1,1.8,0.3
		c0.5,0.1,0.9,0.4,1,0.8c0.3,0.3,0.5,0.8,0.5,1.4l-1.3,0.2c0-0.4-0.3-0.8-0.6-1c-0.3-0.3-0.6-0.5-1.2-0.5c-0.6,0-1.2,0.1-1.4,0.3
		C98.2,60.7,98,61,98,61.4c0,0.1,0,0.3,0.1,0.4c0.1,0.1,0.3,0.3,0.6,0.5c0.1,0,0.6,0.1,1.4,0.3c1,0.3,1.8,0.5,2.1,0.6
		c0.5,0.1,0.8,0.5,0.9,0.8c0.1,0.3,0.3,0.8,0.3,1.2s-0.1,0.9-0.5,1.4c-0.3,0.4-0.8,0.8-1.2,1c-0.4,0.2-1.1,0.2-1.7,0.2
		c-1,0-2-0.3-2.5-0.8C96.9,66.9,96.6,66.3,96.4,65.4z"/>
	<path d="M109.2,63.6c0-1.6,0.5-2.7,1.4-3.5c0.8-0.6,1.6-0.9,2.7-0.9c1.2,0,2.1,0.5,2.9,1.2c0.8,0.7,1,1.8,1,3.1
		c0,1-0.1,1.9-0.5,2.5c-0.3,0.6-0.8,1.1-1.5,1.5c-0.8,0.5-1.4,0.5-2.1,0.5c-1.2,0-2.1-0.5-2.9-1.2C109.6,66.1,109.2,65.1,109.2,63.6
		z M110.7,63.6c0,1,0.3,1.9,0.8,2.4c0.5,0.6,1,0.8,1.8,0.8c0.8,0,1.4-0.3,1.8-0.8c0.5-0.6,0.8-1.4,0.8-2.6c0-1-0.3-1.8-0.8-2.4
		c-0.4-0.4-1-0.8-1.8-0.8c-0.8,0-1.4,0.3-1.8,0.8C111,61.6,110.7,62.5,110.7,63.6z"/>
	<path d="M118.9,67.8v-8.5h1.4v1.2c0.6-0.9,1.5-1.4,2.7-1.4c0.5,0,1,0.1,1.4,0.3c0.5,0.1,0.8,0.4,0.9,0.8c0.1,0.3,0.3,0.6,0.5,1
		c0,0.3,0.1,0.8,0.1,1.4v5.2h-1.5v-5.3c0-0.6,0-1-0.1-1.4c-0.1-0.3-0.3-0.4-0.6-0.8c-0.3-0.3-0.6-0.3-1-0.3c-0.6,0-1.2,0.1-1.6,0.6
		c-0.5,0.4-0.6,1.2-0.6,2.3v4.9H118.9z"/>
	<path d="M132.1,65.4l1.5-0.3c0.1,0.6,0.3,1,0.6,1.4c0.3,0.3,0.9,0.4,1.5,0.4c0.6,0,1.2-0.1,1.5-0.4c0.3-0.3,0.5-0.6,0.5-0.9
		c0-0.3-0.1-0.6-0.5-0.8c-0.1-0.1-0.8-0.3-1.5-0.5c-1-0.3-1.8-0.4-2.3-0.8c-0.5-0.1-0.8-0.4-0.9-0.8c-0.1-0.3-0.3-0.8-0.3-1.2
		c0-0.5,0.1-0.8,0.3-1.1c0.1-0.3,0.5-0.6,0.8-0.8c0.1-0.1,0.6-0.3,0.9-0.4c0.3-0.1,0.8-0.1,1.2-0.1c0.6,0,1.2,0.1,1.8,0.3
		c0.5,0.1,0.9,0.5,1,0.8c0.3,0.3,0.5,0.8,0.5,1.4l-1.3,0.2c0-0.4-0.3-0.8-0.6-1c-0.3-0.3-0.6-0.5-1.2-0.5c-0.6,0-1.2,0.1-1.4,0.3
		c-0.3,0.1-0.5,0.4-0.5,0.8c0,0.1,0,0.3,0.1,0.4c0.1,0.1,0.3,0.3,0.6,0.5c0.1,0,0.6,0.1,1.4,0.3c1,0.3,1.8,0.5,2.1,0.6
		c0.5,0.1,0.8,0.5,0.9,0.8c0.1,0.3,0.3,0.8,0.3,1.2s-0.2,0.9-0.5,1.4c-0.3,0.4-0.8,0.8-1.2,1c-0.4,0.2-1.1,0.2-1.7,0.2
		c-1,0-2-0.3-2.5-0.8C132.6,66.9,132.3,66.3,132.1,65.4z"/>
	<path d="M146.5,66.7c-0.6,0.4-1,0.8-1.5,0.9c-0.5,0.1-1,0.3-1.7,0.3c-0.9,0-1.6-0.3-2.1-0.8c-0.5-0.4-0.8-1-0.8-1.8
		c0-0.5,0.1-0.8,0.3-1.2c0.1-0.3,0.5-0.6,0.8-0.9c0.3-0.1,0.6-0.3,1-0.4c0.3,0,0.8-0.1,1.3-0.1c1.2-0.1,2.1-0.3,2.5-0.5
		c0-0.1,0-0.3,0-0.4c0-0.6-0.1-1.1-0.5-1.2c-0.3-0.3-0.9-0.4-1.6-0.4s-1.2,0.1-1.5,0.3c-0.3,0.2-0.6,0.6-0.8,1.2l-1.2,0.1
		c0.1-0.6,0.3-1.1,0.6-1.5c0.3-0.3,0.8-0.6,1.4-0.9c0.6-0.1,1.2-0.3,2-0.3s1.3,0.1,1.8,0.3c0.5,0.1,0.8,0.4,1,0.6
		c0.1,0.3,0.3,0.6,0.5,1c0,0.3,0,0.8,0,1.4v2c0,1.4,0,2.3,0.1,2.5c0.2,0.3,0.2,0.8,0.3,1.1h-1.5C146.7,67.5,146.5,67.1,146.5,66.7z
		 M146.4,63.6c-0.6,0.1-1.4,0.4-2.4,0.6c-0.6,0.1-1,0.1-1.2,0.3c-0.3,0.1-0.5,0.3-0.6,0.5c-0.2,0.1-0.2,0.4-0.2,0.8
		c0,0.4,0.2,0.8,0.5,0.9s0.8,0.4,1.4,0.4c0.6,0,1-0.1,1.5-0.3c0.5-0.3,0.8-0.6,0.9-1.1c0.2-0.3,0.3-0.8,0.3-1.5L146.4,63.6
		L146.4,63.6z"/>
	<path d="M150,67.8V55.9h1.5v11.9H150z"/>
	<path d="M159.6,65.1l1.5,0.1c-0.3,0.9-0.6,1.5-1.4,2.1c-0.6,0.4-1.5,0.8-2.4,0.8c-1.2,0-2.3-0.5-3-1.2c-0.7-0.7-1-1.8-1-3.3
		s0.3-2.6,1-3.3c0.7-0.7,1.6-1.2,2.8-1.2c1.2,0,2.1,0.4,2.9,1.2c0.8,0.8,1,1.8,1,3.3c0,0.1,0,0.1,0,0.4h-6.3c0,0.9,0.3,1.6,0.8,2.1
		s1,0.8,1.8,0.8c0.6,0,1-0.1,1.3-0.4C159,66.1,159.3,65.6,159.6,65.1z M154.8,62.8h4.8c0-0.8-0.3-1.2-0.6-1.6
		c-0.5-0.6-1-0.9-1.8-0.9c-0.6,0-1.2,0.1-1.6,0.6C155.1,61.5,154.9,62.1,154.8,62.8z"/>
	<path d="M163.6,64.9l-0.5-6.3V56h1.8v2.6l-0.5,6.3H163.6z M163.3,67.8v-1.5h1.6v1.5H163.3z"/>
	<path d="M172.3,67.8V55.9h8v1.4h-6.5v3.6h5.5v1.4h-5.5v5.5H172.3z"/>
	<path d="M182.1,67.8v-8.5h1.3v1.4c0.3-0.6,0.6-1.1,0.9-1.2c0.3-0.1,0.6-0.3,0.9-0.3c0.5,0,1,0.1,1.5,0.4l-0.5,1.4
		c-0.3-0.1-0.8-0.3-1-0.3s-0.6,0.1-0.9,0.3c-0.3,0.2-0.5,0.5-0.6,0.8c-0.1,0.5-0.3,1.1-0.3,1.6v4.4H182.1z"/>
	<path d="M193.5,65.1l1.5,0.1c-0.3,0.9-0.6,1.5-1.3,2.1c-0.6,0.4-1.5,0.8-2.4,0.8c-1.2,0-2.3-0.5-3-1.2c-0.7-0.7-1-1.8-1-3.3
		s0.3-2.6,1-3.3c0.7-0.7,1.6-1.2,2.8-1.2s2.1,0.4,2.8,1.2c0.7,0.8,1,1.8,1,3.3c0,0.1,0,0.1,0,0.4h-6.3c0,0.9,0.3,1.6,0.8,2.1
		s1,0.8,1.8,0.8c0.6,0,1-0.1,1.3-0.4C192.9,66.1,193.2,65.6,193.5,65.1z M188.7,62.8h4.8c0-0.8-0.3-1.2-0.6-1.6
		c-0.5-0.6-1-0.9-1.8-0.9c-0.6,0-1.2,0.1-1.7,0.6C189,61.5,188.7,62.1,188.7,62.8z"/>
	<path d="M202.6,65.1l1.5,0.1c-0.3,0.9-0.6,1.5-1.3,2.1c-0.6,0.4-1.5,0.8-2.4,0.8c-1.2,0-2.3-0.5-3-1.2c-0.7-0.7-1-1.8-1-3.3
		s0.3-2.6,1-3.3c0.7-0.7,1.7-1.2,2.8-1.2c1.2,0,2.1,0.4,2.8,1.2c0.8,0.8,1.1,1.8,1.1,3.3c0,0.1,0,0.1,0,0.4h-6.3
		c0,0.9,0.3,1.6,0.8,2.1s1,0.8,1.8,0.8c0.6,0,1-0.1,1.3-0.4C202,66.1,202.3,65.6,202.6,65.1z M197.8,62.8h4.8c0-0.8-0.3-1.2-0.6-1.6
		c-0.5-0.6-1-0.9-1.8-0.9c-0.6,0-1.2,0.1-1.7,0.6C198.1,61.5,197.8,62.1,197.8,62.8z"/>
	<path d="M210.1,68.5l1.3,0.1c0,0.5,0.2,0.8,0.5,0.9c0.3,0.3,0.9,0.5,1.5,0.5s1.2-0.1,1.5-0.5c0.3-0.3,0.6-0.6,0.8-1.2
		c0-0.3,0.2-0.9,0.2-1.8c-0.6,0.8-1.3,1.1-2.4,1.1c-1.2,0-2.1-0.5-2.7-1.2c-0.6-0.9-0.9-1.8-0.9-3c0-0.8,0.2-1.5,0.5-2.3
		c0.3-0.8,0.8-1.2,1.3-1.6c0.6-0.4,1.2-0.6,1.9-0.6c1.1,0,1.8,0.5,2.6,1.2V59h1.3v7.4c0,1.4-0.2,2.3-0.5,2.9
		c-0.3,0.6-0.8,1.1-1.3,1.4c-0.6,0.3-1.3,0.5-2.1,0.5c-1,0-1.8-0.3-2.4-0.8C210.4,70.1,210.1,69.4,210.1,68.5z M211.3,63.4
		c0,1.1,0.2,2,0.6,2.4c0.4,0.5,1,0.8,1.7,0.8c0.6,0,1.2-0.3,1.7-0.8c0.4-0.4,0.8-1.4,0.8-2.4s-0.3-1.8-0.8-2.4s-1.1-0.8-1.7-0.8
		c-0.6,0-1.2,0.3-1.7,0.8S211.3,62.4,211.3,63.4z"/>
	<path d="M219.6,57.7v-1.6h1.5v1.6H219.6z M219.6,67.8v-8.5h1.5v8.5H219.6z"/>
	<path d="M223.6,67.8v-7.4h-1.3v-1.2h1.3v-0.9c0-0.6,0-1.1,0.2-1.4c0.2-0.3,0.5-0.8,0.8-0.9c0.3-0.3,0.9-0.3,1.5-0.3
		c0.5,0,0.9,0,1.3,0.1l-0.3,1.4c-0.3,0-0.6-0.1-0.9-0.1c-0.5,0-0.8,0.1-0.9,0.3c-0.2,0.1-0.3,0.6-0.3,1v0.8h1.7v1.2h-1.8v7.4H223.6z
		"/>
	<path d="M231,66.6l0.2,1.4c-0.5,0.1-0.8,0.1-1.1,0.1c-0.6,0-0.9-0.1-1.2-0.3c-0.3-0.1-0.5-0.4-0.6-0.6c-0.1-0.2-0.2-0.9-0.2-1.6
		v-4.9H227v-1.2h1v-2.1l1.5-0.9v3h1.5v1.2h-1.5v4.9c0,0.5,0,0.8,0.2,0.8c0,0.1,0.2,0.1,0.3,0.3c0.2,0,0.3,0.1,0.4,0.1
		C230.5,66.6,230.8,66.6,231,66.6z"/>
	<path d="M238.6,67.8l-2.5-8.5h1.5l1.3,4.9l0.4,1.8c0-0.1,0.2-0.8,0.5-1.8l1.3-4.9h1.5l1.3,4.9l0.4,1.6l0.5-1.6l1.5-4.9h1.3
		l-2.7,8.5h-1.5l-1.3-5.1l-0.3-1.5l-1.8,6.6H238.6z"/>
	<path d="M249,57.7v-1.6h1.5v1.6H249z M249,67.8v-8.5h1.5v8.5H249z"/>
	<path d="M255.7,66.6l0.2,1.4c-0.5,0.1-0.8,0.1-1.1,0.1c-0.6,0-0.9-0.1-1.2-0.3c-0.3-0.1-0.5-0.4-0.6-0.6c-0.2-0.3-0.2-0.9-0.2-1.6
		v-4.9h-1.1v-1.2h1.1v-2.1l1.5-0.9v3h1.5v1.2h-1.5v4.9c0,0.5,0,0.8,0.2,0.8c0,0.1,0.2,0.1,0.3,0.3c0.2,0,0.3,0.1,0.5,0.1
		C255.3,66.6,255.4,66.6,255.7,66.6z"/>
	<path d="M257.1,67.8V55.9h1.5v4.4c0.8-0.8,1.5-1.2,2.5-1.2c0.6,0,1.2,0.1,1.7,0.3c0.5,0.3,0.8,0.6,1.1,1.1c0.2,0.4,0.3,1,0.3,1.9
		v5.4h-1.5v-5.4c0-0.8-0.2-1.2-0.4-1.6c-0.3-0.3-0.8-0.4-1.3-0.4s-0.9,0.1-1.2,0.3c-0.3,0.2-0.6,0.5-0.8,0.9
		c-0.2,0.5-0.3,0.9-0.3,1.6v4.6H257.1z"/>
	<path d="M270.8,71.1V59.2h1.3v1c0.3-0.4,0.6-0.8,1.1-1c0.4-0.3,0.9-0.3,1.3-0.3c0.8,0,1.3,0.1,1.9,0.6c0.6,0.3,1.1,0.9,1.2,1.6
		c0.3,0.8,0.4,1.5,0.4,2.3c0,0.9-0.2,1.6-0.4,2.4c-0.3,0.8-0.8,1.2-1.3,1.6c-0.6,0.3-1.2,0.6-2,0.6c-0.4,0-0.9-0.1-1.3-0.3
		c-0.4-0.1-0.8-0.5-0.9-0.8v4.2H270.8L270.8,71.1z M272.2,63.6c0,1,0.2,1.9,0.6,2.4c0.4,0.6,1,0.8,1.7,0.8c0.6,0,1.2-0.3,1.7-0.8
		c0.4-0.6,0.8-1.4,0.8-2.6c0-1-0.2-1.9-0.6-2.4c-0.5-0.6-1.1-0.8-1.7-0.8s-1.2,0.3-1.7,0.9C272.3,61.6,272.2,62.5,272.2,63.6z"/>
	<path d="M285.6,67.8v-1.2c-0.6,0.9-1.5,1.5-2.7,1.5c-0.4,0-0.9-0.1-1.3-0.3c-0.4-0.1-0.8-0.4-0.9-0.8c-0.2-0.3-0.3-0.6-0.4-1
		c0-0.3-0.2-0.8-0.2-1.4v-5.3h1.5v4.8c0,0.8,0,1.2,0.2,1.5c0.2,0.5,0.3,0.8,0.6,0.9c0.3,0.1,0.6,0.3,1,0.3c0.5,0,0.9-0.1,1.2-0.3
		c0.4-0.1,0.6-0.6,0.8-0.9c0.2-0.4,0.3-0.9,0.3-1.6v-4.5h1.5v8.3H285.6z"/>
	<path d="M289.2,67.8v-8.5h1.3v1.4c0.3-0.6,0.6-1.1,0.9-1.2c0.3-0.1,0.6-0.3,0.9-0.3c0.4,0,1,0.1,1.5,0.4l-0.5,1.4
		c-0.3-0.1-0.8-0.3-1-0.3c-0.3,0-0.6,0.1-0.9,0.3c-0.3,0.2-0.5,0.5-0.6,0.8c-0.2,0.5-0.3,1.1-0.3,1.6v4.4H289.2z"/>
	<path d="M300.3,64.8l1.3,0.1c-0.2,1.1-0.6,1.8-1.2,2.3c-0.6,0.6-1.5,0.9-2.4,0.9c-1.2,0-2.1-0.4-2.8-1.2c-0.7-0.8-1.1-1.8-1.1-3.3
		c0-0.9,0.2-1.8,0.5-2.4c0.3-0.8,0.8-1.2,1.3-1.5c0.6-0.3,1.3-0.4,2.1-0.4c0.9,0,1.7,0.3,2.3,0.8c0.6,0.4,0.9,1.2,1.2,1.9l-1.3,0.1
		c-0.2-0.6-0.3-1-0.8-1.4c-0.3-0.3-0.8-0.4-1.2-0.4c-0.8,0-1.3,0.3-1.8,0.8c-0.4,0.4-0.8,1.4-0.8,2.5c0,1.2,0.2,2,0.6,2.6
		c0.4,0.6,1.1,0.8,1.7,0.8s1.1-0.1,1.3-0.5C300,66,300.1,65.4,300.3,64.8z"/>
	<path d="M303,67.8V55.9h1.5v4.4c0.8-0.8,1.5-1.2,2.5-1.2c0.6,0,1.2,0.1,1.7,0.3c0.5,0.3,0.8,0.6,1.1,1.1c0.2,0.4,0.3,1,0.3,1.9v5.4
		h-1.5v-5.4c0-0.8-0.2-1.2-0.4-1.6c-0.3-0.3-0.8-0.4-1.3-0.4s-0.9,0.1-1.2,0.3c-0.3,0.2-0.6,0.5-0.8,0.9c-0.2,0.5-0.3,0.9-0.3,1.6
		v4.6H303z"/>
	<path d="M317.7,66.7c-0.6,0.4-1.1,0.8-1.5,0.9c-0.5,0.1-1.1,0.3-1.7,0.3c-0.9,0-1.7-0.3-2.1-0.8c-0.4-0.4-0.8-1-0.8-1.8
		c0-0.5,0.2-0.8,0.3-1.2c0.2-0.3,0.5-0.6,0.8-0.9c0.3-0.1,0.6-0.3,1.1-0.4c0.3,0,0.8-0.1,1.3-0.1c1.2-0.1,2.1-0.3,2.5-0.5
		c0-0.1,0-0.3,0-0.4c0-0.6-0.2-1.1-0.4-1.2c-0.3-0.3-0.9-0.4-1.7-0.4c-0.8,0-1.2,0.1-1.5,0.3c-0.3,0.3-0.6,0.6-0.8,1.2l-1.3-0.1
		c0.2-0.6,0.3-1.1,0.6-1.5c0.3-0.3,0.8-0.6,1.3-0.9c0.6-0.1,1.2-0.3,1.9-0.3c0.7,0,1.3,0.1,1.8,0.3c0.4,0.1,0.8,0.4,1,0.6
		c0.2,0.3,0.3,0.6,0.5,1c0,0.3,0,0.8,0,1.4v2c0,1.4,0,2.3,0.2,2.5c0.2,0.3,0.2,0.8,0.3,1.1H318C317.8,67.5,317.7,67.1,317.7,66.7z
		 M317.5,63.6c-0.6,0.1-1.3,0.4-2.4,0.6c-0.6,0.1-1,0.1-1.2,0.3c-0.3,0.1-0.5,0.3-0.6,0.5c-0.2,0.1-0.2,0.4-0.2,0.8
		c0,0.4,0.2,0.8,0.4,0.9c0.3,0.3,0.8,0.4,1.3,0.4s1.1-0.1,1.5-0.3c0.5-0.3,0.8-0.6,0.9-1.1c0.2-0.3,0.3-0.8,0.3-1.5V63.6L317.5,63.6
		z"/>
	<path d="M320.7,65.4l1.5-0.3c0.2,0.6,0.3,1,0.6,1.4c0.3,0.3,0.9,0.4,1.5,0.4s1.2-0.1,1.5-0.4c0.3-0.3,0.4-0.6,0.4-0.9
		c0-0.3-0.2-0.6-0.4-0.8c-0.2-0.1-0.8-0.3-1.5-0.5c-1.1-0.3-1.8-0.4-2.3-0.8c-0.5-0.1-0.8-0.4-0.9-0.8c-0.2-0.3-0.3-0.8-0.3-1.2
		c0-0.5,0.2-0.8,0.3-1.1c0.2-0.3,0.4-0.6,0.8-0.8c0.3-0.1,0.6-0.3,0.9-0.4c0.4-0.1,0.8-0.1,1.2-0.1c0.6,0,1.2,0.1,1.8,0.3
		c0.4,0.1,0.9,0.5,1,0.8c0.3,0.3,0.5,0.8,0.5,1.4l-1.2,0.1c0-0.4-0.3-0.8-0.6-1c-0.3-0.3-0.8-0.3-1.3-0.3s-1.2,0.1-1.3,0.3
		c-0.3,0.1-0.5,0.4-0.5,0.8c0,0.1,0,0.3,0.2,0.4c0.2,0.1,0.3,0.3,0.6,0.5c0.2,0,0.6,0.1,1.3,0.3c1.1,0.3,1.8,0.5,2.1,0.6
		c0.5,0.1,0.8,0.5,0.9,0.8c0.3,0.3,0.3,0.8,0.3,1.2s-0.2,0.9-0.5,1.4c-0.3,0.5-0.8,0.8-1.2,1c-0.6,0.3-1.2,0.3-1.8,0.3
		c-1,0-1.9-0.3-2.5-0.8C321.1,66.9,320.8,66.3,320.7,65.4z"/>
	<path d="M335.4,65.1l1.5,0.1c-0.3,0.9-0.6,1.5-1.4,2.1c-0.6,0.4-1.5,0.8-2.4,0.8c-1.2,0-2.3-0.5-3-1.2c-0.7-0.7-1-1.8-1-3.3
		s0.3-2.6,1-3.3c0.7-0.7,1.7-1.2,2.8-1.2c1.2,0,2.1,0.4,2.9,1.2c0.8,0.8,1,1.8,1,3.3c0,0.1,0,0.1,0,0.4h-6.3c0,0.9,0.3,1.6,0.7,2.1
		c0.5,0.5,1.1,0.8,1.8,0.8c0.6,0,1-0.1,1.3-0.4C334.8,66.1,335,65.6,335.4,65.1z M330.6,62.8h4.8c0-0.8-0.3-1.2-0.6-1.6
		c-0.5-0.6-1-0.9-1.8-0.9c-0.6,0-1.2,0.1-1.7,0.6C330.8,61.5,330.6,62.1,330.6,62.8z"/>
	<path d="M339,67.8v-1.5h1.6v1.5H339z"/>
</g>
<g class="st1">
	<path class="st4" d="M17.4,91.1l1.4,0.2c-0.2,1-0.6,1.8-1.2,2.3c-0.6,0.6-1.5,0.9-2.4,0.9c-1.2,0-2.1-0.5-2.8-1.2
		c-0.8-0.8-1-1.8-1-3.3c0-0.9,0.1-1.8,0.4-2.4c0.3-0.6,0.8-1.2,1.4-1.5c0.6-0.3,1.3-0.5,2.1-0.5c0.9,0,1.7,0.3,2.3,0.8
		s0.9,1.2,1.2,2l-1.3,0.1c-0.2-0.6-0.3-1.1-0.8-1.3c-0.3-0.3-0.8-0.5-1.2-0.5c-0.8,0-1.4,0.3-1.8,0.8c-0.5,0.5-0.8,1.4-0.8,2.6
		s0.2,1.9,0.6,2.6c0.5,0.6,1,0.8,1.7,0.8c0.6,0,1-0.2,1.3-0.5C17.1,92.4,17.2,91.9,17.4,91.1z"/>
	<path class="st4" d="M19.5,90c0-1.7,0.5-2.7,1.3-3.4c0.8-0.6,1.7-0.9,2.7-0.9c1.2,0,2.1,0.4,2.8,1.2s1,1.8,1,3.2
		c0,1.1-0.1,1.9-0.4,2.6c-0.3,0.6-0.8,1-1.5,1.5s-1.3,0.5-2.1,0.5c-1.2,0-2.1-0.5-2.9-1.2C19.9,92.5,19.5,91.5,19.5,90z M21,90
		c0,1.1,0.3,1.9,0.8,2.4c0.5,0.6,1,0.8,1.8,0.8s1.4-0.3,1.8-0.8c0.4-0.6,0.8-1.3,0.8-2.5c0-1.1-0.3-1.8-0.8-2.4s-1.1-0.8-1.8-0.8
		s-1.3,0.3-1.8,0.8C21.3,88.1,21,88.9,21,90z"/>
	<path class="st4" d="M29.2,94.3V82.4h1.5v4.2c0.8-0.8,1.5-1.2,2.5-1.2c0.6,0,1.2,0.2,1.7,0.3s0.8,0.6,1.1,1.1
		c0.1,0.4,0.3,1,0.3,1.9v5.4h-1.5v-5.3c0-0.8-0.2-1.2-0.4-1.7c-0.3-0.3-0.8-0.4-1.4-0.4c-0.4,0-0.9,0.1-1.2,0.3
		c-0.3,0.2-0.6,0.4-0.8,0.9s-0.3,0.9-0.3,1.7v4.6L29.2,94.3L29.2,94.3z"/>
	<path class="st4" d="M37.8,90c0-1.7,0.4-2.7,1.3-3.4c0.8-0.6,1.7-0.9,2.7-0.9c1.2,0,2.1,0.4,2.9,1.2s1.1,1.8,1.1,3.2
		c0,1.1-0.1,1.9-0.4,2.6c-0.3,0.6-0.8,1-1.5,1.5s-1.4,0.5-2.1,0.5c-1.2,0-2.1-0.5-2.8-1.2C38.2,92.5,37.8,91.5,37.8,90z M39.3,90
		c0,1.1,0.3,1.9,0.8,2.4c0.4,0.6,1,0.8,1.8,0.8s1.4-0.3,1.8-0.8c0.4-0.6,0.8-1.3,0.8-2.5c0-1.1-0.3-1.8-0.8-2.4s-1.1-0.8-1.8-0.8
		s-1.3,0.3-1.8,0.8C39.6,88.1,39.3,88.9,39.3,90z"/>
	<path class="st4" d="M49.2,94.3l-2.7-8.5H48l1.4,4.9l0.4,1.8c0-0.2,0.1-0.8,0.4-1.8l1.4-4.9h1.5l1.4,4.9l0.4,1.6l0.4-1.6l1.5-4.9
		h1.4l-2.7,8.5H54l-1.4-5.1l-0.3-1.5l-1.8,6.6H49.2z"/>
	<path class="st4" d="M59.4,84.1v-1.6h1.5v1.6H59.4z M59.4,94.3v-8.5h1.5v8.5H59.4z"/>
	<path class="st4" d="M63.1,94.3v-8.5h1.4V87c0.6-0.9,1.5-1.4,2.7-1.4c0.4,0,1.1,0.2,1.4,0.3c0.4,0.2,0.8,0.4,0.9,0.8
		c0.1,0.4,0.3,0.6,0.4,1.1c0,0.3,0.1,0.8,0.1,1.3v5.3h-1.5v-5.3c0-0.6,0-1.1-0.1-1.4c-0.1-0.3-0.3-0.4-0.6-0.7
		c-0.3-0.3-0.6-0.3-1.1-0.3c-0.6,0-1.2,0.2-1.6,0.6s-0.6,1.2-0.6,2.3v4.6L63.1,94.3L63.1,94.3z"/>
	<path class="st4" d="M78.1,91.5l1.5,0.1c-0.3,0.9-0.6,1.5-1.4,2.1c-0.6,0.5-1.5,0.8-2.4,0.8c-1.2,0-2.3-0.5-3-1.2
		c-0.7-0.7-1.1-1.8-1.1-3.3s0.3-2.6,1.1-3.3c0.8-0.7,1.6-1.2,2.9-1.2c1.2,0,2.1,0.4,2.9,1.2s1.1,1.8,1.1,3.3c0,0.2,0,0.2,0,0.4h-6.3
		c0,0.9,0.3,1.7,0.8,2.1c0.4,0.4,1.1,0.8,1.8,0.8c0.6,0,1.1-0.2,1.4-0.4C77.5,92.5,77.8,92.2,78.1,91.5z M73.3,89.2h4.8
		c0-0.8-0.3-1.2-0.6-1.7c-0.4-0.6-1.1-0.9-1.8-0.9c-0.6,0-1.2,0.1-1.6,0.6C73.6,87.9,73.3,88.5,73.3,89.2z"/>
	<path class="st4" d="M81.4,94.3v-8.5h1.4v1.3c0.3-0.6,0.6-1.1,0.9-1.2c0.3-0.2,0.6-0.3,0.9-0.3c0.4,0,1.1,0.2,1.5,0.4l-0.4,1.4
		c-0.3-0.2-0.8-0.3-1.1-0.3s-0.6,0.2-0.9,0.3c-0.3,0.1-0.4,0.4-0.6,0.8s-0.3,1-0.3,1.6v4.5H81.4z"/>
</g>
<g class="st1">
	<path class="st4" d="M86.8,97.6l-0.1-1.3c0.3,0.1,0.6,0.1,0.9,0.1c0.3,0,0.6,0,0.8-0.1c0.1-0.2,0.3-0.3,0.4-0.5s0.3-0.5,0.4-1
		c0-0.2,0-0.2,0.1-0.3l-3.2-8.7h1.5l1.8,4.9c0.3,0.6,0.4,1.3,0.6,1.9c0.1-0.6,0.3-1.3,0.6-1.9l1.8-4.9h1.5l-3.3,8.7
		c-0.3,0.9-0.6,1.6-0.8,2c-0.3,0.5-0.6,0.9-0.9,1c-0.3,0.1-0.8,0.3-1.2,0.3C87.4,97.8,87.1,97.8,86.8,97.6z"/>
</g>
<g class="st1">
	<path class="st4" d="M94.3,94.3v-1.7h1.6v1.7H94.3z"/>
	<path class="st4" d="M104.1,91.1l1.4,0.2c-0.1,1-0.6,1.8-1.2,2.3c-0.6,0.6-1.5,0.9-2.4,0.9c-1.2,0-2.1-0.5-2.9-1.2
		c-0.8-0.8-1-1.8-1-3.3c0-0.9,0.1-1.8,0.5-2.4c0.3-0.8,0.8-1.2,1.4-1.5c0.6-0.3,1.4-0.5,2.1-0.5c0.9,0,1.6,0.3,2.3,0.8
		c0.6,0.5,0.9,1.2,1.2,2h-1.6c-0.1-0.6-0.3-1.1-0.8-1.3c-0.3-0.3-0.8-0.5-1.2-0.5c-0.8,0-1.4,0.3-1.8,0.8s-0.6,1.5-0.6,2.6
		c0,1.2,0.1,1.9,0.6,2.6c0.5,0.6,1,0.8,1.6,0.8c0.6,0,1-0.2,1.4-0.4C103.8,92.4,103.9,91.9,104.1,91.1z"/>
	<path class="st4" d="M106.2,90c0-1.7,0.5-2.7,1.4-3.4c0.8-0.6,1.6-0.9,2.7-0.9c1.2,0,2.1,0.4,2.9,1.2s1,1.8,1,3.2
		c0,1.1-0.1,1.9-0.5,2.6c-0.3,0.6-0.8,1-1.5,1.5c-0.7,0.5-1.4,0.5-2.1,0.5c-1.2,0-2.1-0.5-2.9-1.2S106.2,91.5,106.2,90z M107.7,90
		c0,1.1,0.3,1.9,0.8,2.4c0.5,0.6,1,0.8,1.8,0.8c0.8,0,1.4-0.3,1.8-0.8c0.5-0.6,0.8-1.3,0.8-2.5c0-1.1-0.3-1.8-0.8-2.4
		s-1-0.8-1.8-0.8c-0.8,0-1.4,0.3-1.8,0.8C107.8,88.1,107.7,88.9,107.7,90z"/>
	<path class="st4" d="M115.9,94.3v-8.5h1.4V87c0.3-0.4,0.6-0.8,1-1.1c0.5-0.3,0.9-0.4,1.5-0.4s1.2,0.1,1.5,0.4
		c0.5,0.3,0.8,0.6,0.9,1.1c0.8-1.1,1.5-1.5,2.7-1.5c0.9,0,1.5,0.3,2,0.8s0.8,1.2,0.8,2.1v5.8h-1.5v-5.4c0-0.6,0-1.1-0.1-1.2
		c-0.1-0.3-0.3-0.4-0.5-0.6c-0.3-0.2-0.6-0.3-0.9-0.3c-0.6,0-1,0.2-1.5,0.6s-0.6,1-0.6,1.9v4.9h-1.5v-5.3c0-0.6-0.1-1.2-0.3-1.5
		c-0.3-0.3-0.6-0.5-1.2-0.5c-0.5,0-0.8,0.2-1.2,0.3s-0.6,0.6-0.8,0.9c-0.2,0.3-0.3,1-0.3,1.8v4.5C117.3,94.3,115.9,94.3,115.9,94.3z
		"/>
	<path class="st4" d="M134.2,84.1v-1.6h1.5v1.6H134.2z M134.2,94.3v-8.5h1.5v8.5H134.2z"/>
	<path class="st4" d="M137.2,91.8l1.5-0.3c0.1,0.6,0.3,1.1,0.6,1.3c0.3,0.3,0.9,0.5,1.5,0.5c0.6,0,1.2-0.2,1.5-0.5s0.5-0.6,0.5-0.9
		s-0.2-0.6-0.5-0.8c-0.2-0.2-0.8-0.3-1.5-0.4c-1-0.3-1.8-0.5-2.3-0.8c-0.5-0.2-0.8-0.5-0.9-0.8c-0.1-0.3-0.3-0.8-0.3-1.2
		c0-0.4,0.1-0.8,0.3-1c0.1-0.3,0.5-0.6,0.8-0.8c0.3-0.2,0.6-0.3,0.9-0.5c0.5-0.1,0.8-0.1,1.2-0.1c0.6,0,1.2,0.1,1.8,0.3
		c0.5,0.1,0.9,0.4,1,0.8c0.3,0.3,0.5,0.8,0.5,1.3l-1.4,0.2c0-0.5-0.3-0.8-0.6-1.1c-0.2-0.2-0.7-0.2-1.3-0.2c-0.6,0-1.2,0.2-1.3,0.3
		c-0.3,0.1-0.5,0.4-0.5,0.8c0,0.1,0,0.3,0.1,0.4c0.2,0.2,0.3,0.3,0.6,0.4c0.1,0,0.6,0.2,1.3,0.3c1,0.3,1.8,0.4,2.1,0.6
		c0.5,0.1,0.8,0.4,0.9,0.8c0.3,0.3,0.3,0.8,0.3,1.2s-0.1,0.9-0.5,1.3c-0.3,0.5-0.8,0.8-1.2,1.1c-0.6,0.3-1.2,0.3-1.8,0.3
		c-1,0-2-0.3-2.5-0.8C137.8,93.3,137.4,92.6,137.2,91.8z"/>
	<path class="st4" d="M150.6,94.3v-8.5h1.3v1.3c0.3-0.6,0.6-1.1,0.9-1.2c0.3-0.2,0.6-0.3,0.9-0.3c0.5,0,1,0.2,1.5,0.4l-0.5,1.4
		c-0.3-0.2-0.8-0.3-1-0.3s-0.6,0.2-0.9,0.3s-0.5,0.4-0.6,0.8c-0.1,0.4-0.3,1-0.3,1.6v4.5C151.9,94.3,150.6,94.3,150.6,94.3z"/>
	<path class="st4" d="M161.7,93.3c-0.6,0.5-1,0.8-1.5,0.9c-0.5,0.2-1,0.3-1.6,0.3c-0.9,0-1.7-0.3-2.1-0.8c-0.4-0.5-0.8-1.1-0.8-1.8
		c0-0.4,0.2-0.8,0.3-1.2c0.2-0.3,0.5-0.6,0.8-0.9c0.3-0.2,0.6-0.3,1-0.5c0.3,0,0.8-0.1,1.4-0.1c1.2-0.2,2.1-0.3,2.5-0.4
		c0-0.2,0-0.3,0-0.5c0-0.6-0.2-1-0.5-1.2c-0.3-0.3-0.9-0.4-1.7-0.4c-0.8,0-1.2,0.1-1.5,0.3c-0.3,0.3-0.6,0.6-0.8,1.2l-1.3-0.2
		c0.1-0.6,0.3-1,0.6-1.5c0.3-0.3,0.8-0.6,1.4-0.9c0.6-0.2,1.2-0.3,2-0.3s1.3,0.2,1.8,0.3c0.5,0.1,0.8,0.4,1,0.6
		c0.1,0.3,0.3,0.6,0.5,1.1c0,0.3,0,0.8,0,1.4v1.9c0,1.3,0,2.3,0.1,2.6c0.2,0.3,0.2,0.8,0.3,1h-1.5C161.8,94,161.7,93.6,161.7,93.3z
		 M161.5,90c-0.6,0.1-1.4,0.4-2.4,0.6c-0.6,0.2-1,0.2-1.2,0.3s-0.5,0.3-0.6,0.4c-0.2,0.2-0.2,0.5-0.2,0.8c0,0.5,0.2,0.8,0.5,0.9
		c0.3,0.3,0.8,0.4,1.4,0.4c0.6,0,1-0.1,1.5-0.3c0.5-0.3,0.8-0.6,0.9-1c0.2-0.3,0.3-0.8,0.3-1.5L161.5,90L161.5,90z"/>
	<path class="st4" d="M168.4,93l0.2,1.3c-0.5,0.1-0.8,0.1-1,0.1c-0.6,0-0.9-0.1-1.2-0.3c-0.3-0.1-0.5-0.5-0.6-0.6
		c-0.1-0.3-0.1-0.9-0.1-1.8v-5h-1v-1h1v-2.1l1.5-0.9v3h1.5v1.2h-1.5v4.9c0,0.4,0,0.8,0.1,0.8c0,0.2,0.2,0.2,0.3,0.3
		c0.2,0,0.3,0.1,0.5,0.1C168,93.1,168.1,93,168.4,93z"/>
	<path class="st4" d="M175.6,91.5l1.5,0.1c-0.3,0.9-0.6,1.5-1.4,2.1c-0.6,0.5-1.5,0.8-2.4,0.8c-1.2,0-2.3-0.5-3-1.2
		c-0.8-0.8-1-1.8-1-3.3s0.3-2.6,1-3.3s1.6-1.2,2.8-1.2c1.2,0,2.1,0.4,2.9,1.2s1,1.8,1,3.3c0,0.2,0,0.2,0,0.4h-6.3
		c0,0.9,0.3,1.7,0.8,2.1s1,0.8,1.8,0.8c0.6,0,1-0.2,1.3-0.4C175.2,92.5,175.5,92.2,175.6,91.5z M171,89.2h4.8c0-0.8-0.3-1.2-0.6-1.7
		c-0.5-0.6-1-0.9-1.8-0.9c-0.6,0-1.2,0.1-1.7,0.6C171.3,87.7,171,88.5,171,89.2z"/>
	<path class="st4" d="M184.6,94.3v-1c-0.6,0.9-1.4,1.2-2.4,1.2c-0.8,0-1.3-0.2-2-0.6c-0.6-0.3-1-0.9-1.3-1.5s-0.5-1.5-0.5-2.3
		c0-0.9,0.1-1.6,0.5-2.3c0.3-0.6,0.8-1.2,1.3-1.6c0.6-0.3,1.2-0.6,2-0.6c0.5,0,0.9,0.2,1.4,0.3c0.5,0.1,0.8,0.4,1,0.9v-4.2h1.5v11.9
		h-1.5V94.3z M180,90c0,1.1,0.3,1.9,0.8,2.4c0.5,0.6,1,0.8,1.7,0.8c0.6,0,1.2-0.3,1.6-0.8c0.5-0.4,0.6-1.3,0.6-2.4
		c0-1.2-0.3-2.1-0.8-2.6c-0.5-0.6-1-0.8-1.7-0.8c-0.6,0-1.2,0.3-1.6,0.8C180.1,88,180,88.9,180,90z"/>
	<path class="st4" d="M292.9,90c0-1.7,0.4-2.7,1.3-3.4c0.8-0.6,1.7-0.9,2.7-0.9c1.2,0,2.1,0.4,2.8,1.2c0.7,0.8,1.1,1.8,1.1,3.2
		c0,1.1-0.2,1.9-0.5,2.6c-0.3,0.6-0.8,1-1.5,1.5c-0.7,0.5-1.3,0.5-2.1,0.5c-1.2,0-2.1-0.5-2.8-1.2C293.2,92.5,292.9,91.5,292.9,90z
		 M294.4,90c0,1.1,0.3,1.9,0.8,2.4c0.4,0.6,1,0.8,1.8,0.8c0.8,0,1.3-0.3,1.8-0.8c0.4-0.6,0.8-1.3,0.8-2.5c0-1.1-0.3-1.8-0.8-2.4
		s-1.1-0.8-1.8-0.8c-0.7,0-1.3,0.3-1.8,0.8C294.6,88.1,294.4,88.9,294.4,90z"/>
	<path class="st4" d="M302.5,94.3v-8.5h1.3V87c0.6-0.9,1.5-1.4,2.7-1.4c0.4,0,1,0.2,1.3,0.3c0.4,0.2,0.8,0.4,0.9,0.8
		c0.1,0.4,0.3,0.6,0.4,1.1c0,0.3,0.2,0.8,0.2,1.3v5.3h-1.4v-5.3c0-0.6,0-1.1-0.2-1.4c-0.2-0.3-0.3-0.4-0.6-0.8
		c-0.3-0.3-0.6-0.3-1-0.3c-0.6,0-1.2,0.2-1.7,0.6c-0.5,0.5-0.6,1.2-0.6,2.3v4.7L302.5,94.3L302.5,94.3z"/>
	<path class="st4" d="M316.5,94.3V82.4h4.3c0.9,0,1.7,0.1,2.1,0.3c0.6,0.3,0.9,0.6,1.3,1c0.3,0.5,0.4,1,0.4,1.5c0,0.4-0.2,1-0.4,1.3
		c-0.3,0.4-0.8,0.8-1.2,1.1c0.8,0.1,1.2,0.6,1.7,1.1c0.5,0.4,0.6,1,0.6,1.8c0,0.6-0.2,1.1-0.3,1.5c-0.3,0.5-0.5,0.9-0.9,1.1
		c-0.3,0.3-0.8,0.5-1.3,0.6s-1.2,0.1-2,0.1h-4.3V94.3L316.5,94.3z M318,87.4h2.5c0.8,0,1.2,0,1.5-0.1c0.5-0.2,0.8-0.3,0.9-0.6
		c0.1-0.3,0.3-0.6,0.3-1.1c0-0.4-0.2-0.8-0.3-1c-0.2-0.3-0.4-0.5-0.8-0.6c-0.3-0.2-0.9-0.1-1.8-0.1h-2.4v3.5
		C317.9,87.4,318,87.4,318,87.4z M318,93h3c0.4,0,0.9,0,1,0c0.3,0,0.6-0.2,0.9-0.3c0.3-0.1,0.5-0.3,0.6-0.6c0.2-0.3,0.3-0.6,0.3-1.1
		s-0.2-0.8-0.3-1.2c-0.3-0.3-0.6-0.6-0.9-0.8c-0.4-0.2-1-0.2-1.8-0.2h-2.7L318,93L318,93z"/>
	<path class="st4" d="M327.3,84.1v-1.6h1.5v1.6H327.3z M327.3,94.3v-8.5h1.5v8.5H327.3z"/>
	<path class="st4" d="M331,94.3v-8.5h1.4V87c0.6-0.9,1.5-1.4,2.7-1.4c0.5,0,1.1,0.2,1.4,0.3c0.5,0.2,0.8,0.4,0.9,0.8
		c0.2,0.3,0.3,0.6,0.5,1.1c0,0.3,0.2,0.8,0.2,1.3v5.3h-1.5v-5.3c0-0.6,0-1.1-0.2-1.4c-0.1-0.3-0.3-0.4-0.6-0.8
		c-0.3-0.3-0.6-0.3-1.1-0.3c-0.6,0-1.2,0.2-1.6,0.6s-0.6,1.2-0.6,2.3v4.7L331,94.3L331,94.3z"/>
	<path class="st4" d="M339.9,95.1l1.3,0.1c0,0.5,0.2,0.8,0.5,0.9c0.3,0.3,0.9,0.5,1.5,0.5s1.2-0.2,1.5-0.5s0.6-0.6,0.8-1.2
		c0-0.3,0.1-0.9,0.1-1.8c-0.6,0.8-1.3,1.1-2.4,1.1c-1.2,0-2.1-0.5-2.7-1.2c-0.6-0.9-0.9-1.8-0.9-3c0-0.8,0.1-1.5,0.4-2.3
		s0.8-1.2,1.4-1.6c0.6-0.3,1.2-0.6,2-0.6c1,0,1.8,0.5,2.5,1.2v-0.9h1.3v7.3c0,1.4-0.1,2.3-0.4,2.9s-0.8,1-1.4,1.3s-1.3,0.5-2.1,0.5
		c-1.1,0-1.8-0.3-2.4-0.8S339.9,96,339.9,95.1z M341,89.8c0,1.1,0.2,2,0.6,2.4c0.5,0.4,1,0.8,1.6,0.8s1.2-0.3,1.7-0.8
		s0.8-1.4,0.8-2.4s-0.3-1.8-0.8-2.4s-1-0.8-1.7-0.8c-0.6,0-1.2,0.3-1.6,0.8C341.2,88,341,88.8,341,89.8z"/>
	<path class="st4" d="M356.7,97.8c-0.8-1-1.5-2.3-2.1-3.6c-0.6-1.3-0.9-2.7-0.9-4.2c0-1.4,0.1-2.6,0.6-3.6c0.5-1.3,1.2-2.7,2.3-4
		h1.1c-0.6,1.1-1.1,2-1.4,2.4c-0.3,0.8-0.6,1.5-0.8,2.3c-0.3,1.1-0.3,1.9-0.3,3c0,2.6,0.8,5.1,2.4,7.8
		C357.5,97.8,356.7,97.8,356.7,97.8z"/>
</g>
<g class="st1">
	<path class="st5" d="M359,91.6l1.4-0.1c0.1,0.6,0.3,1.2,0.8,1.3c0.3,0.3,0.8,0.5,1.3,0.5s0.9-0.1,1.2-0.3c0.3-0.2,0.6-0.4,0.8-0.8
		c0.2-0.3,0.5-0.8,0.6-1.3c0.1-0.6,0.1-1.2,0.1-1.8c0,0,0-0.1,0-0.3c-0.3,0.5-0.8,0.9-1.2,1.1c-0.4,0.2-1,0.4-1.6,0.4
		c-1,0-1.8-0.3-2.5-1s-1.1-1.7-1.1-2.9c0-1.2,0.3-2.1,1.1-2.9c0.8-0.8,1.6-1,2.7-1c0.8,0,1.5,0.1,2.1,0.6c0.6,0.4,1,1,1.5,1.8
		c0.3,0.8,0.5,1.8,0.5,3.3s-0.2,2.7-0.5,3.6s-0.8,1.5-1.5,2.1c-0.6,0.5-1.4,0.8-2.3,0.8s-1.7-0.3-2.3-0.8
		C359.5,93.4,359.2,92.5,359,91.6z M365,86.4c0-0.9-0.1-1.5-0.6-1.9s-0.9-0.8-1.7-0.8c-0.6,0-1.2,0.3-1.6,0.8s-0.8,1.2-0.8,2.1
		c0,0.8,0.3,1.4,0.8,1.8s1,0.8,1.6,0.8s1.2-0.3,1.7-0.8C364.8,87.9,365,87.1,365,86.4z"/>
	<path class="st5" d="M370.3,87.9c-0.6-0.1-1-0.6-1.3-0.9c-0.3-0.5-0.5-0.9-0.5-1.5c0-0.9,0.3-1.7,0.9-2.1c0.6-0.5,1.5-0.9,2.4-0.9
		c1,0,1.8,0.3,2.5,0.9c0.8,0.6,0.9,1.4,0.9,2.3c0,0.6-0.2,1.1-0.5,1.5s-0.8,0.8-1.3,0.9c0.8,0.3,1.2,0.6,1.6,1.2s0.6,1.2,0.6,1.9
		c0,1.1-0.3,1.8-1.1,2.5c-0.8,0.8-1.6,1-2.8,1s-2.1-0.3-2.9-1s-1-1.5-1-2.6c0-0.8,0.2-1.3,0.6-1.9C369,88.5,369.5,88,370.3,87.9z
		 M369.5,90.9c0,0.4,0.2,0.8,0.3,1.2c0.1,0.5,0.4,0.8,0.9,0.9s0.8,0.3,1.2,0.3c0.8,0,1.2-0.2,1.6-0.6c0.5-0.4,0.8-1.1,0.8-1.6
		c0-0.8-0.3-1.2-0.8-1.8c-0.4-0.4-1-0.8-1.8-0.8s-1.2,0.1-1.6,0.8C369.7,89.6,369.5,90.3,369.5,90.9z M370,85.5
		c0,0.6,0.2,1.1,0.6,1.3c0.3,0.3,0.9,0.6,1.3,0.6c0.6,0,1-0.2,1.4-0.6c0.3-0.3,0.6-0.8,0.6-1.3c0-0.6-0.1-1.1-0.6-1.4
		c-0.3-0.3-0.8-0.6-1.4-0.6s-1,0.1-1.3,0.6C370.2,84.6,370,85,370,85.5z"/>
	<path class="st5" d="M382.2,94.3v-8.5h1.3v1.3c0.3-0.6,0.6-1.1,0.9-1.2c0.3-0.2,0.6-0.3,0.9-0.3c0.4,0,1.1,0.2,1.5,0.4l-0.4,1.4
		c-0.3-0.2-0.8-0.3-1.1-0.3s-0.6,0.2-0.9,0.3s-0.4,0.4-0.6,0.8c-0.1,0.4-0.3,1.1-0.3,1.6v4.5C383.5,94.3,382.2,94.3,382.2,94.3z"/>
	<path class="st5" d="M393.5,91.5l1.5,0.1c-0.3,0.9-0.6,1.5-1.3,2.1c-0.6,0.5-1.5,0.8-2.4,0.8c-1.2,0-2.3-0.5-3-1.2
		c-0.8-0.8-1.1-1.8-1.1-3.3s0.3-2.6,1.1-3.3s1.7-1.2,2.9-1.2s2.1,0.4,2.8,1.2s1.1,1.8,1.1,3.3c0,0.2,0,0.2,0,0.4h-6.3
		c0,0.9,0.3,1.7,0.8,2.1c0.4,0.4,1.1,0.8,1.8,0.8c0.6,0,1.1-0.2,1.4-0.4C393,92.5,393.2,92.2,393.5,91.5z M388.7,89.2h4.8
		c0-0.8-0.3-1.2-0.6-1.7c-0.4-0.6-1.1-0.9-1.8-0.9c-0.6,0-1.2,0.1-1.7,0.6C389,87.7,388.7,88.5,388.7,89.2z"/>
	<path class="st5" d="M399.2,94.3l-3.3-8.6h1.5l1.8,5.1c0.2,0.6,0.4,1.2,0.6,1.7c0.1-0.4,0.3-1.1,0.6-1.7l1.9-5.3h1.5l-3.3,8.6
		L399.2,94.3L399.2,94.3z"/>
	<path class="st5" d="M405.1,84.1v-1.6h1.5v1.6H405.1z M405.1,94.3v-8.5h1.5v8.5H405.1z"/>
	<path class="st5" d="M414.5,91.5l1.5,0.1c-0.3,0.9-0.6,1.5-1.3,2.1c-0.6,0.5-1.5,0.8-2.4,0.8c-1.2,0-2.3-0.5-3-1.2
		c-0.8-0.8-1.1-1.8-1.1-3.3s0.3-2.6,1.1-3.3s1.7-1.2,2.9-1.2s2.1,0.4,2.8,1.2s1.1,1.8,1.1,3.3c0,0.2,0,0.2,0,0.4h-6.3
		c0,0.9,0.3,1.7,0.8,2.1c0.4,0.4,1.1,0.8,1.8,0.8c0.6,0,1.1-0.2,1.4-0.4C414.1,92.5,414.4,92.2,414.5,91.5z M409.7,89.2h4.8
		c0-0.8-0.3-1.2-0.6-1.7c-0.4-0.6-1.1-0.9-1.8-0.9c-0.6,0-1.2,0.1-1.7,0.6C410,87.7,409.9,88.5,409.7,89.2z"/>
	<path class="st5" d="M419.5,94.3l-2.6-8.6h1.5l1.4,4.9l0.4,1.8c0-0.2,0.1-0.8,0.4-1.8l1.4-4.9h1.5l1.4,4.9l0.4,1.6l0.4-1.6l1.5-4.9
		h1.3l-2.7,8.5h-1.5l-1.3-5.1l-0.3-1.5l-1.8,6.6L419.5,94.3L419.5,94.3z"/>
	<path class="st5" d="M429.2,91.8l1.5-0.3c0.2,0.6,0.3,1.1,0.6,1.3c0.3,0.3,0.9,0.5,1.5,0.5s1.2-0.2,1.5-0.5s0.4-0.6,0.4-0.9
		s-0.2-0.6-0.4-0.8c-0.2-0.2-0.8-0.3-1.5-0.4c-1.1-0.3-1.8-0.5-2.3-0.8c-0.4-0.2-0.8-0.5-0.9-0.8s-0.3-0.8-0.3-1.2
		c0-0.4,0.2-0.8,0.3-1c0.2-0.3,0.4-0.6,0.8-0.8c0.3-0.2,0.6-0.3,0.9-0.5c0.4-0.1,0.8-0.1,1.2-0.1c0.6,0,1.2,0.1,1.8,0.3
		c0.4,0.1,0.9,0.4,1.1,0.8c0.3,0.3,0.4,0.8,0.4,1.3l-1.4,0.2c0-0.5-0.3-0.8-0.6-1.1c-0.3-0.3-0.8-0.3-1.4-0.3s-1.2,0.2-1.3,0.3
		c-0.3,0.1-0.4,0.4-0.4,0.8c0,0.1,0,0.3,0.1,0.4c0.2,0.2,0.3,0.3,0.6,0.4c0.1,0,0.6,0.2,1.3,0.3c1.1,0.3,1.8,0.4,2.1,0.6
		c0.4,0.1,0.8,0.4,0.9,0.8c0.3,0.3,0.3,0.8,0.3,1.2s-0.1,0.9-0.4,1.3c-0.3,0.5-0.8,0.8-1.2,1.1c-0.6,0.3-1.2,0.3-1.8,0.3
		c-1.1,0-1.9-0.3-2.6-0.8C429.7,93.3,429.4,92.6,429.2,91.8z"/>
</g>
<g class="st1">
	<path class="st4" d="M439,97.8h-1.1c1.7-2.5,2.4-5.1,2.4-7.8c0-1.1-0.2-1.9-0.3-3c-0.2-0.8-0.4-1.7-0.8-2.3
		c-0.2-0.4-0.6-1.4-1.4-2.4h1.1c1.1,1.4,1.8,2.7,2.3,4c0.4,1.2,0.6,2.4,0.6,3.6c0,1.5-0.3,2.8-0.9,4.2
		C440.5,95.5,439.7,96.7,439,97.8z"/>
</g>
<g class="st1">
	<path class="st0" d="M12,120.7v-11.8h5.3c1,0,1.8,0.2,2.4,0.3c0.6,0.2,1,0.6,1.3,1c0.3,0.6,0.5,1.2,0.5,1.8c0,0.9-0.3,1.5-0.8,2.1
		c-0.6,0.6-1.3,0.9-2.5,1c0.5,0.1,0.8,0.5,0.9,0.6c0.5,0.5,0.9,0.9,1.4,1.5l2.1,3.2h-2l-1.5-2.4c-0.5-0.8-0.9-1.2-1.2-1.6
		c-0.3-0.5-0.6-0.6-0.8-0.8c-0.3-0.2-0.5-0.3-0.8-0.3c-0.2,0-0.5,0-0.9,0h-1.8v5.3H12C12,120.6,12,120.7,12,120.7z M13.6,114.1h3.3
		c0.8,0,1.2,0,1.7-0.1c0.5-0.2,0.8-0.5,0.9-0.8s0.3-0.8,0.3-1c0-0.6-0.2-1-0.6-1.4c-0.5-0.3-1-0.6-2-0.6h-3.6
		C13.6,110.2,13.6,114.1,13.6,114.1z"/>
	<path class="st0" d="M29.2,119.6c-0.6,0.5-1.1,0.8-1.5,0.9c-0.5,0.1-1.1,0.3-1.7,0.3c-0.9,0-1.7-0.3-2.1-0.8
		c-0.5-0.5-0.8-1-0.8-1.8c0-0.5,0.2-0.8,0.3-1.2c0.2-0.3,0.5-0.6,0.8-0.9c0.3-0.1,0.6-0.3,1.1-0.5c0.3,0,0.8-0.1,1.3-0.1
		c1.2-0.2,2.1-0.3,2.6-0.5c0-0.2,0-0.3,0-0.5c0-0.6-0.2-1-0.5-1.2c-0.3-0.3-0.9-0.5-1.7-0.5s-1.2,0.1-1.5,0.3
		c-0.3,0.1-0.6,0.6-0.8,1.2l-1.3-0.2c0.2-0.6,0.3-1,0.6-1.5c0.3-0.3,0.8-0.6,1.4-0.9c0.6-0.2,1.2-0.3,1.9-0.3s1.3,0.1,1.8,0.3
		c0.4,0.1,0.8,0.5,1,0.6c0.2,0.3,0.3,0.6,0.5,1c0,0.3,0,0.8,0,1.4v2c0,1.3,0,2.3,0.1,2.5c0.2,0.3,0.2,0.8,0.3,1h-1.5
		C29.4,120.4,29.4,120.1,29.2,119.6z M29.2,116.5c-0.6,0.1-1.3,0.5-2.4,0.6c-0.6,0.2-1,0.2-1.2,0.3c-0.3,0.2-0.5,0.3-0.6,0.5
		s-0.1,0.5-0.1,0.8c0,0.5,0.1,0.8,0.4,0.9c0.3,0.1,0.8,0.5,1.3,0.5c0.6,0,1.1-0.2,1.5-0.3c0.5-0.3,0.8-0.6,0.9-1
		c0.2-0.3,0.3-0.8,0.3-1.5v-0.6C29.4,116.5,29.2,116.5,29.2,116.5z"/>
	<path class="st0" d="M36,119.5l0.2,1.3c-0.5,0.2-0.8,0.2-1.1,0.2c-0.6,0-0.9-0.2-1.2-0.3c-0.3-0.2-0.5-0.5-0.6-0.6
		s-0.1-0.9-0.1-1.6v-5h-1.1v-1.2h1.1v-2.1l1.5-0.9v3h1.5v1.2h-1.5v5c0,0.5,0,0.8,0.1,0.8c0,0.1,0.2,0.1,0.3,0.3
		c0.2,0,0.3,0.1,0.4,0.1C35.5,119.5,35.8,119.5,36,119.5z"/>
	<path class="st0" d="M37.5,110.6V109H39v1.6H37.5z M37.5,120.7v-8.5H39v8.5H37.5z"/>
	<path class="st0" d="M41.1,120.7v-8.5h1.3v1.2c0.6-0.9,1.5-1.4,2.7-1.4c0.4,0,1.1,0.2,1.3,0.3c0.4,0.2,0.8,0.5,0.9,0.8
		c0.1,0.3,0.3,0.6,0.4,1c0,0.3,0.1,0.8,0.1,1.4v5.3h-1.5v-5.3c0-0.6,0-1-0.1-1.4c-0.2-0.3-0.3-0.5-0.6-0.8S45,113,44.5,113
		c-0.6,0-1.2,0.2-1.6,0.6c-0.3,0.6-0.4,1.3-0.4,2.4v4.6C42.6,120.7,41.1,120.7,41.1,120.7z"/>
	<path class="st0" d="M49.9,121.5l1.4,0.1c0,0.5,0.1,0.8,0.4,0.9c0.3,0.3,0.9,0.5,1.5,0.5c0.6,0,1.2-0.2,1.5-0.5s0.6-0.6,0.8-1.2
		c0-0.3,0.1-0.9,0.1-1.8c-0.6,0.8-1.4,1-2.4,1c-1.2,0-2.1-0.5-2.7-1.2c-0.6-0.9-0.9-1.8-0.9-3c0-0.8,0.1-1.5,0.4-2.3
		s0.8-1.2,1.4-1.7c0.6-0.4,1.2-0.6,1.9-0.6c1.1,0,1.8,0.5,2.6,1.2v-1h1.4v7.3c0,1.4-0.1,2.3-0.4,2.9s-0.8,1-1.4,1.3
		c-0.6,0.3-1.4,0.5-2.1,0.5c-1.1,0-1.8-0.3-2.4-0.8C50.2,123.1,49.9,122.4,49.9,121.5z M51.1,116.4c0,1,0.1,2,0.6,2.4
		c0.4,0.5,1.1,0.8,1.6,0.8c0.6,0,1.2-0.3,1.6-0.8c0.4-0.5,0.8-1.4,0.8-2.4s-0.3-1.8-0.8-2.4c-0.4-0.6-1.1-0.8-1.6-0.8
		c-0.6,0-1.2,0.3-1.6,0.8C51.3,114.5,51.1,115.3,51.1,116.4z"/>
	<path class="st0" d="M58.8,118.1l1.5-0.3c0.1,0.6,0.3,1,0.6,1.4c0.3,0.3,0.9,0.5,1.5,0.5c0.6,0,1.2-0.2,1.5-0.5s0.4-0.6,0.4-0.9
		s-0.1-0.6-0.4-0.8c-0.1-0.1-0.8-0.3-1.5-0.5c-1.1-0.3-1.8-0.5-2.3-0.8c-0.4-0.1-0.8-0.5-0.9-0.8c-0.1-0.3-0.2-0.8-0.2-1.2
		s0.1-0.8,0.3-1c0.1-0.3,0.4-0.6,0.8-0.8c0.1-0.1,0.6-0.3,0.9-0.5s0.8-0.1,1.2-0.1c0.6,0,1.2,0.1,1.8,0.3c0.4,0.1,0.9,0.5,1.1,0.8
		c0.3,0.3,0.4,0.8,0.4,1.3l-1.4,0.2c0-0.5-0.3-0.8-0.6-1c-0.3-0.2-0.8-0.3-1.4-0.3s-1.2,0.1-1.4,0.3c-0.3,0.1-0.4,0.5-0.4,0.8
		c0,0.1,0,0.3,0.1,0.5c0.1,0.1,0.3,0.3,0.6,0.5c0.1,0,0.6,0.1,1.4,0.3c1.1,0.3,1.8,0.5,2.1,0.6c0.4,0.2,0.8,0.5,0.9,0.8
		s0.3,0.8,0.3,1.2s-0.1,0.9-0.4,1.4c-0.3,0.5-0.8,0.8-1.2,1c-0.4,0.2-1.2,0.3-1.8,0.3c-1.1,0-1.9-0.3-2.6-0.8
		C59.4,119.8,59.1,119.1,58.8,118.1z"/>
</g>
<g class="st1">
	<path class="st4" d="M68.1,113.8v-1.7h1.6v1.7H68.1z M68.1,120.7V119h1.6v1.7H68.1z"/>
	<path class="st4" d="M85.5,116.6l1.5,0.5c-0.3,1.4-0.9,2.3-1.8,3c-0.9,0.6-1.9,1-3.1,1s-2.3-0.3-3.1-0.8c-0.8-0.5-1.4-1.2-1.8-2.3
		s-0.6-2.1-0.6-3.1c0-1.2,0.3-2.3,0.8-3.2c0.4-0.9,1.2-1.6,1.9-2.1c0.9-0.5,1.8-0.8,2.9-0.8c1.2,0,2.1,0.3,3,0.9s1.4,1.5,1.6,2.5
		l-1.5,0.3c-0.4-0.7-0.7-1.3-1.3-1.6c-0.4-0.5-1.2-0.6-1.9-0.6c-0.9,0-1.6,0.1-2.3,0.6c-0.7,0.5-1.1,1-1.4,1.8
		c-0.3,0.8-0.3,1.5-0.3,2.3c0,1,0.1,2,0.4,2.7c0.3,0.7,0.8,1.4,1.4,1.7c0.6,0.3,1.4,0.6,1.9,0.6c0.9,0,1.6-0.3,2.3-0.8
		S85.2,117.6,85.5,116.6z"/>
	<path class="st4" d="M94.3,120.7v-1.2c-0.6,0.9-1.5,1.5-2.7,1.5c-0.4,0-0.9-0.2-1.4-0.3c-0.5-0.2-0.8-0.5-0.9-0.8s-0.3-0.6-0.4-1
		c0-0.3-0.1-0.8-0.1-1.4v-5.3h1.5v4.8c0,0.8,0,1.2,0.1,1.5c0.1,0.5,0.3,0.8,0.6,0.9c0.3,0.1,0.6,0.3,1.1,0.3s0.9-0.2,1.2-0.3
		c0.4-0.2,0.6-0.6,0.8-0.9c0.1-0.5,0.3-0.9,0.3-1.6v-4.5h1.5v8.5h-1.5v-0.2H94.3z"/>
	<path class="st4" d="M97.3,118.1l1.5-0.3c0.1,0.6,0.3,1,0.6,1.4c0.3,0.3,0.9,0.5,1.5,0.5c0.6,0,1.2-0.2,1.5-0.5
		c0.3-0.3,0.5-0.6,0.5-0.9s-0.1-0.6-0.5-0.8c-0.1-0.1-0.8-0.3-1.5-0.5c-1-0.3-1.8-0.5-2.3-0.8c-0.5-0.1-0.8-0.5-0.9-0.8
		c-0.1-0.3-0.3-0.8-0.3-1.2s0.1-0.8,0.3-1c0.2-0.2,0.5-0.6,0.8-0.8c0.1-0.1,0.6-0.3,0.9-0.5c0.3-0.2,0.8-0.1,1.2-0.1
		c0.6,0,1.2,0.1,1.8,0.3c0.5,0.1,0.9,0.5,1,0.8c0.3,0.3,0.5,0.8,0.5,1.3l-1.4,0.2c0-0.5-0.3-0.8-0.6-1c-0.3-0.2-0.8-0.3-1.4-0.3
		s-1.2,0.1-1.4,0.3c-0.3,0.1-0.5,0.5-0.5,0.8c0,0.1,0,0.3,0.1,0.5c0.1,0.1,0.3,0.3,0.6,0.5c0.1,0,0.6,0.1,1.4,0.3
		c1,0.3,1.8,0.5,2.1,0.6c0.5,0.2,0.8,0.5,0.9,0.8c0.1,0.3,0.3,0.8,0.3,1.2s-0.1,0.9-0.5,1.4c-0.3,0.5-0.8,0.8-1.2,1
		s-1.2,0.3-1.8,0.3c-1,0-2-0.3-2.5-0.8C97.8,119.8,97.5,119.1,97.3,118.1z"/>
	<path class="st4" d="M109.3,119.5l0.1,1.3c-0.5,0.2-0.8,0.2-1,0.2c-0.6,0-0.9-0.2-1.2-0.3c-0.3-0.2-0.5-0.5-0.6-0.6
		s-0.1-0.9-0.1-1.6v-5h-1v-1.2h1v-2.1l1.5-0.9v3h1.5v1.2H108v5c0,0.5,0,0.8,0.1,0.8c0,0.1,0.1,0.1,0.3,0.3c0.1,0,0.3,0.1,0.5,0.1
		C108.7,119.5,109,119.5,109.3,119.5z"/>
	<path class="st4" d="M110.1,116.5c0-1.7,0.5-2.7,1.4-3.5c0.8-0.6,1.6-0.9,2.7-0.9c1.2,0,2.1,0.5,2.9,1.2s1,1.8,1,3.2
		c0,1-0.1,2-0.5,2.5c-0.3,0.6-0.8,1-1.5,1.5c-0.7,0.5-1.4,0.5-2.1,0.5c-1.2,0-2.1-0.5-2.9-1.2C110.5,119.1,110.1,117.9,110.1,116.5z
		 M111.6,116.5c0,1,0.3,2,0.8,2.4c0.5,0.6,1,0.8,1.8,0.8c0.8,0,1.4-0.3,1.8-0.8c0.5-0.6,0.8-1.3,0.8-2.5c0-1-0.3-1.8-0.8-2.4
		s-1-0.8-1.8-0.8c-0.8,0-1.4,0.3-1.8,0.8C111.9,114.6,111.6,115.3,111.6,116.5z"/>
	<path class="st4" d="M119.8,120.7v-8.5h1.4v1.2c0.3-0.5,0.6-0.8,1-1c0.5-0.3,0.9-0.5,1.5-0.5s1.2,0.1,1.5,0.5
		c0.3,0.3,0.8,0.6,0.9,1c0.8-1,1.5-1.5,2.7-1.5c0.9,0,1.5,0.3,2,0.8s0.8,1.2,0.8,2.1v5.9h-1.5v-5.4c0-0.6,0-1-0.1-1.2
		c-0.1-0.3-0.3-0.5-0.5-0.6c-0.3-0.2-0.6-0.3-0.9-0.3c-0.6,0-1,0.1-1.5,0.6c-0.5,0.6-0.6,1.2-0.6,2.1v5h-1.6v-5.5
		c0-0.6-0.1-1.2-0.3-1.5c-0.3-0.3-0.6-0.5-1.2-0.5c-0.5,0-0.8,0.1-1.2,0.3c-0.5,0.1-0.6,0.6-0.8,0.9c-0.2,0.3-0.3,1-0.3,1.8v4.5
		C121.2,120.7,119.8,120.7,119.8,120.7z"/>
	<path class="st4" d="M139.5,118l1.5,0.1c-0.3,0.9-0.6,1.5-1.3,2.1c-0.6,0.5-1.5,0.8-2.4,0.8c-1.2,0-2.3-0.5-3-1.2
		c-0.7-0.7-1-1.8-1-3.3s0.3-2.5,1-3.3c0.7-0.8,1.6-1.2,2.9-1.2s2.1,0.5,2.9,1.2s1,1.8,1,3.3c0,0.1,0,0.1,0,0.5h-6.3
		c0,0.9,0.3,1.6,0.8,2.1s1,0.8,1.8,0.8c0.6,0,1-0.1,1.4-0.5C138.9,119.1,139.2,118.6,139.5,118z M134.7,115.6h4.8
		c0-0.8-0.3-1.2-0.6-1.6c-0.5-0.6-1-0.9-1.8-0.9c-0.6,0-1.2,0.2-1.6,0.6C135,114.3,134.7,114.9,134.7,115.6z"/>
	<path class="st4" d="M142.8,120.7v-8.5h1.3v1.3c0.3-0.6,0.6-1,0.9-1.2c0.3-0.1,0.6-0.3,0.9-0.3c0.5,0,1,0.2,1.5,0.5l-0.4,1.3
		c-0.3-0.2-0.8-0.3-1-0.3s-0.6,0.1-0.9,0.3c-0.3,0.1-0.5,0.4-0.6,0.7c-0.1,0.5-0.3,1-0.3,1.6v4.5
		C144.1,120.7,142.8,120.7,142.8,120.7z"/>
	<path class="st4" d="M152.4,117l1.5-0.2c0,0.6,0.3,1,0.5,1.5c0.3,0.5,0.6,0.8,1.2,0.9c0.6,0.1,1.2,0.3,1.8,0.3s1-0.2,1.6-0.3
		c0.6-0.2,0.8-0.5,1-0.8s0.3-0.6,0.3-1c0-0.3-0.1-0.8-0.3-0.9c-0.1-0.3-0.6-0.5-1-0.8c-0.3-0.1-1-0.3-2.1-0.6
		c-1-0.3-1.8-0.5-2.3-0.8c-0.6-0.3-1-0.6-1.2-1c-0.3-0.5-0.5-0.9-0.5-1.5s0.1-1.2,0.5-1.7c0.3-0.4,0.9-0.9,1.5-1.2
		c0.6-0.3,1.3-0.5,2.1-0.5c0.9,0,1.7,0.2,2.3,0.5c0.6,0.3,1.2,0.8,1.5,1.2s0.6,1.2,0.6,1.8l-1.5,0.3c-0.2-0.8-0.3-1.4-0.8-1.7
		s-1.2-0.6-2.1-0.6c-0.9,0-1.6,0.1-2.1,0.5c-0.5,0.3-0.6,0.8-0.6,1.2s0.2,0.8,0.5,1c0.3,0.3,1,0.6,2.4,0.9c1.2,0.3,2.1,0.6,2.5,0.8
		c0.8,0.3,1.2,0.8,1.5,1.2s0.5,1,0.5,1.7c0,0.6-0.2,1.2-0.6,1.8c-0.3,0.6-0.9,1-1.5,1.3c-0.6,0.3-1.5,0.5-2.3,0.5
		c-1,0-2-0.1-2.7-0.5c-0.8-0.3-1.3-0.8-1.6-1.3C152.7,118.5,152.5,117.7,152.4,117z"/>
	<path class="st4" d="M169.3,120.7v-1.2c-0.6,0.9-1.5,1.5-2.7,1.5c-0.5,0-0.9-0.2-1.4-0.3c-0.5-0.2-0.8-0.5-0.9-0.8
		c-0.2-0.3-0.3-0.6-0.5-1c0-0.3-0.2-0.8-0.2-1.4v-5.3h1.5v4.8c0,0.8,0,1.2,0.2,1.5c0.1,0.5,0.3,0.8,0.6,0.9c0.3,0.1,0.6,0.3,1,0.3
		c0.4,0,0.9-0.2,1.2-0.3c0.5-0.2,0.6-0.6,0.8-0.9c0.2-0.5,0.3-0.9,0.3-1.6v-4.5h1.5v8.5h-1.5C169.3,121,169.3,120.7,169.3,120.7z"/>
	<path class="st4" d="M172.9,124v-11.9h1.4v1c0.3-0.5,0.6-0.8,1-1c0.5-0.1,0.9-0.3,1.3-0.3c0.8,0,1.4,0.2,2,0.6
		c0.6,0.5,1,0.9,1.2,1.6c0.3,0.8,0.5,1.5,0.5,2.3c0,0.9-0.1,1.7-0.5,2.4c-0.3,0.8-0.8,1.2-1.3,1.6c-0.6,0.3-1.2,0.6-2,0.6
		c-0.5,0-0.9-0.2-1.4-0.3c-0.5-0.2-0.8-0.5-0.9-0.8v4.2L172.9,124L172.9,124z M174.3,116.5c0,1,0.1,2,0.6,2.4c0.5,0.6,1,0.8,1.7,0.8
		c0.6,0,1.2-0.3,1.6-0.8c0.5-0.6,0.8-1.3,0.8-2.5c0-1-0.1-2-0.6-2.4c-0.5-0.6-1-0.8-1.7-0.8c-0.6,0-1.2,0.3-1.6,0.9
		C174.4,114.6,174.3,115.5,174.3,116.5z"/>
	<path class="st4" d="M182.1,124v-11.9h1.3v1c0.3-0.5,0.6-0.8,1-1c0.5-0.1,0.9-0.3,1.4-0.3c0.8,0,1.3,0.2,2,0.6
		c0.6,0.5,1,0.9,1.2,1.6c0.3,0.8,0.5,1.5,0.5,2.3c0,0.9-0.2,1.7-0.5,2.4c-0.3,0.8-0.8,1.2-1.4,1.6c-0.6,0.3-1.2,0.6-2,0.6
		c-0.5,0-0.9-0.2-1.3-0.3c-0.5-0.2-0.8-0.5-0.9-0.8v4.2L182.1,124L182.1,124z M183.4,116.5c0,1,0.2,2,0.6,2.4c0.5,0.6,1,0.8,1.6,0.8
		c0.6,0,1.2-0.3,1.7-0.8c0.5-0.6,0.8-1.3,0.8-2.5c0-1-0.2-2-0.6-2.4c-0.5-0.6-1-0.8-1.6-0.8c-0.6,0-1.2,0.3-1.7,0.9
		C183.6,114.6,183.4,115.5,183.4,116.5z"/>
	<path class="st4" d="M190.8,116.5c0-1.7,0.5-2.7,1.3-3.5c0.8-0.6,1.7-0.9,2.7-0.9c1.2,0,2.1,0.5,2.8,1.2c0.7,0.7,1,1.8,1,3.2
		c0,1-0.2,2-0.5,2.5c-0.3,0.6-0.8,1-1.5,1.5s-1.3,0.5-2.1,0.5c-1.2,0-2.1-0.5-2.8-1.2C191,119.1,190.8,117.9,190.8,116.5z
		 M192.1,116.5c0,1,0.3,2,0.8,2.4c0.5,0.6,1,0.8,1.8,0.8s1.3-0.3,1.8-0.8c0.5-0.6,0.8-1.3,0.8-2.5c0-1-0.3-1.8-0.8-2.4
		s-1-0.8-1.8-0.8s-1.3,0.3-1.8,0.8C192.4,114.6,192.1,115.3,192.1,116.5z"/>
	<path class="st4" d="M200.4,120.7v-8.5h1.3v1.3c0.3-0.6,0.6-1,0.9-1.2c0.3-0.1,0.6-0.3,0.9-0.3c0.5,0,1.1,0.2,1.5,0.5l-0.4,1.4
		c-0.3-0.2-0.8-0.3-1.1-0.3s-0.6,0.1-0.9,0.3c-0.3,0.1-0.5,0.5-0.6,0.8c-0.2,0.5-0.3,1-0.3,1.6v4.5
		C201.7,120.7,200.4,120.7,200.4,120.7z"/>
	<path class="st4" d="M209.1,119.5l0.2,1.3c-0.5,0.2-0.8,0.2-1.1,0.2c-0.6,0-0.9-0.2-1.2-0.3c-0.3-0.2-0.5-0.5-0.6-0.6
		s-0.2-0.9-0.2-1.6v-5h-1.1v-1.2h1.1v-2.1l1.5-0.9v3h1.5v1.2h-1.5v5c0,0.5,0,0.8,0.2,0.8c0,0.1,0.2,0.1,0.3,0.3
		c0.2,0,0.3,0.1,0.5,0.1C208.6,119.5,208.8,119.5,209.1,119.5z"/>
	<path class="st4" d="M216.8,114.4c-0.6-0.1-1-0.6-1.3-0.9s-0.4-0.9-0.4-1.5c0-0.9,0.3-1.7,0.9-2.1c0.6-0.5,1.5-0.9,2.4-0.9
		c1,0,1.8,0.3,2.5,0.9c0.6,0.6,0.9,1.4,0.9,2.3c0,0.6-0.2,1-0.4,1.5c-0.3,0.5-0.8,0.8-1.3,0.9c0.8,0.3,1.2,0.6,1.7,1.2
		c0.4,0.6,0.6,1.2,0.6,2c0,1-0.3,1.8-1.1,2.5s-1.7,1-2.8,1c-1.2,0-2.1-0.3-2.8-1s-1-1.5-1-2.5c0-0.8,0.2-1.4,0.6-2
		C215.5,114.9,216.1,114.6,216.8,114.4z M216.1,117.4c0,0.5,0.2,0.8,0.3,1.2c0.2,0.5,0.4,0.8,0.9,0.9c0.4,0.1,0.8,0.3,1.2,0.3
		c0.8,0,1.2-0.2,1.7-0.6c0.5-0.5,0.8-1,0.8-1.6c0-0.8-0.3-1.2-0.8-1.8c-0.4-0.6-1-0.8-1.8-0.8s-1.2,0.1-1.7,0.8
		C216.3,116.1,216.1,116.6,216.1,117.4z M216.6,111.9c0,0.6,0.2,1,0.6,1.4c0.3,0.3,0.9,0.6,1.3,0.6c0.6,0,1-0.1,1.3-0.6
		c0.3-0.3,0.6-0.8,0.6-1.4s-0.2-1-0.6-1.3c-0.3-0.3-0.8-0.6-1.3-0.6s-1.1,0.2-1.3,0.6C216.7,111,216.6,111.4,216.6,111.9z"/>
	<path class="st4" d="M223.2,121l3.4-12.2h1.2l-3.5,12.2H223.2z"/>
	<path class="st4" d="M233.8,120.7h-1.5v-9.2c-0.3,0.3-0.8,0.6-1.3,1c-0.6,0.4-1.1,0.6-1.5,0.8V112c0.8-0.5,1.5-0.9,2.1-1.4
		c0.6-0.6,1-1,1.3-1.6h0.9V120.7z"/>
	<path class="st4" d="M237.6,114.9c0-1.3,0.2-2.5,0.4-3.3c0.3-0.8,0.8-1.5,1.3-2s1.3-0.8,2.1-0.8c0.6,0,1.2,0.2,1.7,0.5
		s0.9,0.6,1.2,1c0.3,0.5,0.6,1,0.8,1.8s0.3,1.7,0.3,2.9c0,1.3-0.2,2.5-0.4,3.3c-0.3,0.8-0.8,1.5-1.2,2c-0.6,0.5-1.3,0.8-2.1,0.8
		c-1.2,0-2.1-0.5-2.7-1.2C237.8,118.8,237.6,117.1,237.6,114.9z M239.1,114.9c0,2,0.3,3.2,0.8,3.9c0.4,0.6,1,0.9,1.7,0.9
		c0.6,0,1.2-0.3,1.7-0.9c0.4-0.6,0.8-2,0.8-3.9c0-2-0.3-3.3-0.8-3.9s-1.1-0.9-1.7-0.9c-0.6,0-1.2,0.3-1.7,0.9
		C239.2,111.7,239.1,113.1,239.1,114.9z"/>
	<path class="st4" d="M251.1,117.3v-1.5h4.5v1.5H251.1z"/>
	<path class="st4" d="M261.4,117l1.5-0.2c0,0.6,0.3,1,0.4,1.5c0.1,0.5,0.6,0.8,1.2,0.9c0.6,0.1,1.2,0.3,1.8,0.3s1.1-0.2,1.7-0.3
		c0.5-0.2,0.8-0.5,1.1-0.8c0.3-0.3,0.3-0.6,0.3-1c0-0.3-0.2-0.8-0.3-0.9c-0.2-0.3-0.6-0.5-1.1-0.8c-0.3-0.1-1-0.3-2.1-0.6
		c-1-0.3-1.8-0.5-2.3-0.8c-0.6-0.3-1-0.6-1.2-1c-0.3-0.5-0.5-0.9-0.5-1.5s0.2-1.2,0.5-1.7c0.3-0.4,0.9-0.9,1.5-1.2
		c0.6-0.3,1.3-0.5,2.1-0.5c0.9,0,1.7,0.2,2.3,0.5s1.2,0.8,1.5,1.2c0.3,0.6,0.6,1.2,0.6,1.8l-1.5,0.2c-0.2-0.8-0.3-1.4-0.8-1.7
		c-0.5-0.5-1.2-0.6-2.1-0.6c-0.9,0-1.7,0.1-2.1,0.5c-0.5,0.3-0.6,0.8-0.6,1.2s0.2,0.8,0.4,1c0.3,0.3,1.1,0.6,2.4,0.9
		c1.2,0.3,2.1,0.6,2.6,0.8c0.8,0.3,1.2,0.8,1.5,1.2c0.3,0.5,0.4,1,0.4,1.7c0,0.6-0.2,1.2-0.6,1.8c-0.3,0.6-0.9,1-1.5,1.3
		s-1.5,0.5-2.3,0.5c-1,0-1.9-0.1-2.7-0.5c-0.8-0.3-1.3-0.8-1.7-1.3C261.6,118.5,261.4,117.7,261.4,117z"/>
	<path class="st4" d="M272.7,120.7v-11.8h1.5v4.2c0.8-0.8,1.5-1.2,2.5-1.2c0.6,0,1.2,0.2,1.7,0.3c0.5,0.2,0.8,0.6,1.1,1
		c0.2,0.5,0.3,1,0.3,2v5.4h-1.5v-5.4c0-0.8-0.2-1.2-0.4-1.6c-0.3-0.3-0.8-0.5-1.3-0.5s-0.9,0.1-1.2,0.3c-0.3,0.1-0.6,0.5-0.8,0.9
		c-0.2,0.4-0.3,0.9-0.3,1.7v4.6h-1.5v0.1H272.7z"/>
	<path class="st4" d="M281.8,110.6V109h1.5v1.6H281.8z M281.8,120.7v-8.5h1.5v8.5H281.8z"/>
	<path class="st4" d="M285.6,124v-11.9h1.3v1c0.3-0.5,0.6-0.8,1-1c0.5-0.3,0.9-0.3,1.3-0.3c0.8,0,1.3,0.2,2,0.6
		c0.6,0.3,1,0.9,1.2,1.6c0.3,0.8,0.5,1.5,0.5,2.3c0,0.9-0.2,1.7-0.5,2.4c-0.3,0.8-0.8,1.2-1.3,1.6c-0.6,0.3-1.2,0.6-1.9,0.6
		c-0.5,0-0.9-0.2-1.3-0.3c-0.5-0.2-0.8-0.5-0.9-0.8v4.2h-1.3l0,0C285.7,124,285.6,124,285.6,124z M286.8,116.5c0,1,0.2,2,0.6,2.4
		c0.5,0.6,1.1,0.8,1.7,0.8c0.6,0,1.2-0.3,1.7-0.8c0.5-0.6,0.8-1.3,0.8-2.5c0-1-0.3-2-0.6-2.4c-0.4-0.6-1-0.8-1.7-0.8
		c-0.6,0-1.2,0.3-1.7,0.9C287.1,114.6,286.8,115.5,286.8,116.5z"/>
	<path class="st4" d="M294.7,124v-11.9h1.3v1c0.3-0.5,0.6-0.8,1-1c0.5-0.1,0.9-0.3,1.3-0.3c0.8,0,1.3,0.2,2,0.6
		c0.6,0.5,1,0.9,1.2,1.6c0.3,0.8,0.5,1.5,0.5,2.3c0,0.9-0.2,1.7-0.5,2.4c-0.3,0.8-0.8,1.2-1.3,1.6c-0.6,0.3-1.2,0.6-1.9,0.6
		c-0.5,0-0.9-0.2-1.3-0.3c-0.4-0.2-0.8-0.5-0.9-0.8v4.2h-1.3l0,0C294.8,124,294.7,124,294.7,124z M296.1,116.5c0,1,0.2,2,0.6,2.4
		c0.4,0.6,1,0.8,1.7,0.8c0.6,0,1.2-0.3,1.7-0.8c0.4-0.6,0.8-1.3,0.8-2.5c0-1-0.2-2-0.6-2.4c-0.5-0.6-1.1-0.8-1.7-0.8
		s-1.2,0.3-1.7,0.9C296.2,114.6,296.1,115.5,296.1,116.5z"/>
	<path class="st4" d="M303.8,110.6V109h1.5v1.6H303.8z M303.8,120.7v-8.5h1.5v8.5H303.8z"/>
	<path class="st4" d="M307.5,120.7v-8.5h1.3v1.2c0.6-0.9,1.5-1.4,2.7-1.4c0.5,0,1.1,0.2,1.3,0.3c0.5,0.2,0.8,0.5,0.9,0.8
		c0.1,0.3,0.3,0.6,0.5,1c0,0.3,0.2,0.8,0.2,1.4v5.3h-1.5v-5.3c0-0.6,0-1-0.2-1.4c-0.2-0.3-0.3-0.5-0.6-0.8c-0.3-0.3-0.6-0.3-1.1-0.3
		c-0.6,0-1.2,0.2-1.7,0.6c-0.4,0.5-0.6,1.2-0.6,2.3v4.6L307.5,120.7L307.5,120.7z"/>
	<path class="st4" d="M316.5,121.5l1.3,0.1c0,0.5,0.2,0.8,0.4,0.9c0.3,0.3,0.9,0.5,1.5,0.5s1.2-0.2,1.5-0.5c0.3-0.3,0.6-0.6,0.8-1.2
		c0-0.3,0.2-0.9,0.2-1.8c-0.6,0.8-1.3,1-2.4,1c-1.2,0-2.1-0.5-2.7-1.2c-0.6-0.9-0.9-1.8-0.9-3c0-0.8,0.2-1.5,0.4-2.3
		c0.3-0.8,0.8-1.2,1.3-1.7c0.6-0.4,1.2-0.6,2-0.6c1,0,1.8,0.5,2.5,1.2v-1h1.3v7.3c0,1.4-0.2,2.3-0.4,2.9c-0.3,0.6-0.8,1-1.3,1.3
		c-0.6,0.3-1.3,0.5-2.1,0.5c-1.1,0-1.8-0.3-2.4-0.8C316.9,122.8,316.3,122.4,316.5,121.5z M317.7,116.4c0,1,0.2,2,0.6,2.4
		s1,0.8,1.7,0.8c0.6,0,1.2-0.3,1.7-0.8c0.4-0.5,0.6-1.4,0.6-2.4s-0.3-1.8-0.8-2.4s-1.1-0.8-1.7-0.8s-1.2,0.3-1.7,0.8
		C317.6,114.4,317.7,115.3,317.7,116.4z"/>
	<path class="st4" d="M330.1,117l1.5-0.2c0,0.6,0.3,1,0.4,1.5c0.3,0.5,0.6,0.8,1.2,0.9s1.2,0.3,1.8,0.3c0.6,0,1.1-0.2,1.7-0.3
		c0.6-0.2,0.8-0.5,1-0.8s0.3-0.6,0.3-1c0-0.3-0.1-0.8-0.3-0.9c-0.1-0.3-0.6-0.5-1-0.8c-0.3-0.1-1-0.3-2.1-0.6
		c-1-0.3-1.8-0.5-2.3-0.8c-0.6-0.3-1-0.6-1.2-1c-0.3-0.5-0.5-0.9-0.5-1.5s0.2-1.2,0.5-1.7c0.3-0.5,0.9-0.9,1.5-1.2
		c0.6-0.3,1.3-0.5,2.1-0.5c0.9,0,1.7,0.2,2.3,0.5c0.6,0.3,1.2,0.8,1.5,1.2s0.6,1.2,0.6,1.8l-1.5,0.2c-0.2-0.8-0.3-1.4-0.8-1.7
		c-0.5-0.3-1.2-0.6-2.1-0.6s-1.6,0.1-2.1,0.5c-0.4,0.3-0.6,0.8-0.6,1.2s0.2,0.8,0.5,1s1,0.6,2.4,0.9c1.2,0.3,2.1,0.6,2.6,0.8
		c0.8,0.3,1.2,0.8,1.5,1.2c0.3,0.5,0.4,1,0.4,1.7c0,0.6-0.1,1.2-0.6,1.8c-0.3,0.6-0.9,1-1.5,1.3s-1.5,0.5-2.3,0.5
		c-1,0-2-0.1-2.7-0.5c-0.8-0.3-1.3-0.8-1.7-1.3C330.3,118.5,330.1,117.7,330.1,117z"/>
	<path class="st4" d="M341.4,124v-11.9h1.3v1c0.3-0.5,0.6-0.8,1-1c0.5-0.1,0.9-0.3,1.4-0.3c0.8,0,1.3,0.2,2,0.6
		c0.6,0.5,1,0.9,1.2,1.6c0.3,0.8,0.5,1.5,0.5,2.3c0,0.9-0.1,1.7-0.5,2.4c-0.3,0.8-0.8,1.2-1.3,1.6c-0.6,0.3-1.2,0.6-2,0.6
		c-0.5,0-0.9-0.2-1.3-0.3c-0.4-0.2-0.8-0.5-0.9-0.8v4.2h-1.3l0,0C341.5,124,341.4,124,341.4,124z M342.7,116.5c0,1,0.1,2,0.6,2.4
		c0.5,0.6,1.1,0.8,1.7,0.8s1.2-0.3,1.6-0.8c0.5-0.6,0.8-1.3,0.8-2.5c0-1-0.1-2-0.6-2.4c-0.5-0.6-1-0.8-1.7-0.8
		c-0.6,0-1.2,0.3-1.6,0.9C342.9,114.6,342.7,115.5,342.7,116.5z"/>
	<path class="st4" d="M356.4,118l1.5,0.1c-0.3,0.9-0.6,1.5-1.4,2.1c-0.6,0.5-1.5,0.8-2.4,0.8c-1.2,0-2.3-0.5-3-1.2s-1.1-1.8-1.1-3.3
		s0.3-2.5,1.1-3.3s1.6-1.2,2.8-1.2c1.2,0,2.1,0.5,2.9,1.2s1,1.8,1,3.3c0,0.1,0,0.1,0,0.5h-6.3c0,0.9,0.3,1.6,0.8,2.1
		s1.1,0.8,1.8,0.8c0.6,0,1-0.1,1.3-0.5C355.9,119.1,356.2,118.6,356.4,118z M351.5,115.6h4.8c0-0.8-0.3-1.2-0.6-1.6
		c-0.5-0.6-1-0.9-1.8-0.9c-0.6,0-1.2,0.2-1.7,0.6C351.9,114.3,351.7,114.9,351.5,115.6z"/>
	<path class="st4" d="M365.5,118l1.5,0.1c-0.3,0.9-0.6,1.5-1.3,2.1c-0.6,0.5-1.5,0.8-2.4,0.8c-1.2,0-2.3-0.5-3-1.2s-1-1.8-1-3.3
		s0.3-2.5,1-3.3s1.7-1.2,2.9-1.2s2.1,0.5,2.8,1.2s1,1.8,1,3.3c0,0.1,0,0.1,0,0.5h-6.3c0,0.9,0.3,1.6,0.8,2.1s1,0.8,1.8,0.8
		c0.6,0,1.1-0.1,1.4-0.5C365,119.1,365.4,118.6,365.5,118z M360.9,115.6h4.8c0-0.8-0.3-1.2-0.6-1.6c-0.4-0.6-1-0.9-1.8-0.9
		c-0.6,0-1.2,0.2-1.6,0.6C361.2,114.3,360.9,114.9,360.9,115.6z"/>
	<path class="st4" d="M374.4,120.7v-1c-0.6,0.9-1.4,1.2-2.4,1.2c-0.8,0-1.3-0.2-2-0.6c-0.6-0.3-1-0.9-1.3-1.5s-0.5-1.5-0.5-2.3
		c0-0.9,0.2-1.6,0.5-2.3c0.3-0.8,0.8-1.2,1.3-1.6c0.6-0.3,1.2-0.6,2-0.6c0.5,0,0.9,0.2,1.4,0.3c0.4,0.2,0.8,0.5,1,0.9V109h1.5v11.8
		L374.4,120.7L374.4,120.7z M369.9,116.5c0,1,0.3,2,0.8,2.4c0.4,0.6,1,0.8,1.6,0.8s1.2-0.3,1.7-0.8c0.4-0.5,0.6-1.3,0.6-2.4
		c0-1.2-0.3-2.1-0.8-2.5c-0.5-0.6-1-0.8-1.6-0.8s-1.2,0.3-1.7,0.8C370,114.6,369.9,115.3,369.9,116.5z"/>
	<path class="st4" d="M387.7,120.7h-1.5v-9.2c-0.3,0.3-0.8,0.6-1.4,1s-1.1,0.6-1.5,0.8V112c0.8-0.5,1.5-0.9,2.1-1.4
		c0.6-0.6,1.1-1,1.3-1.6h0.9v11.7H387.7z"/>
	<path class="st4" d="M391.3,114.9c0-1.3,0.2-2.5,0.4-3.3c0.3-0.8,0.8-1.5,1.4-2s1.3-0.8,2.1-0.8c0.6,0,1.2,0.2,1.7,0.5
		c0.4,0.3,0.9,0.6,1.2,1c0.3,0.5,0.6,1,0.8,1.8c0.1,0.8,0.3,1.7,0.3,2.9c0,1.3-0.2,2.5-0.4,3.3c-0.3,0.8-0.8,1.5-1.2,2
		c-0.6,0.5-1.4,0.8-2.1,0.8c-1.2,0-2.1-0.5-2.7-1.2C391.7,118.8,391.3,117.1,391.3,114.9z M392.8,114.9c0,2,0.3,3.2,0.8,3.9
		c0.4,0.6,1.1,0.9,1.7,0.9s1.2-0.3,1.6-0.9c0.5-0.6,0.8-2,0.8-3.9c0-2-0.3-3.3-0.8-3.9c-0.4-0.6-1.1-0.9-1.6-0.9
		c-0.6,0-1.2,0.3-1.7,0.9C393.1,111.7,392.8,113.1,392.8,114.9z"/>
	<path class="st4" d="M399.9,121l3.4-12.2h1.2l-3.4,12.2H399.9z"/>
	<path class="st4" d="M410.5,120.7H409v-9.2c-0.3,0.3-0.8,0.6-1.3,1c-0.6,0.4-1.1,0.6-1.5,0.8V112c0.8-0.5,1.5-0.9,2.1-1.4
		c0.6-0.6,1.1-1,1.4-1.6h0.9v11.7H410.5z"/>
	<path class="st4" d="M414.2,114.9c0-1.3,0.2-2.5,0.4-3.3c0.3-0.8,0.8-1.5,1.4-2s1.3-0.8,2.1-0.8c0.6,0,1.2,0.2,1.7,0.5
		c0.4,0.3,0.9,0.6,1.2,1c0.3,0.5,0.6,1,0.8,1.8c0.1,0.8,0.3,1.7,0.3,2.9c0,1.3-0.2,2.5-0.4,3.3c-0.3,0.8-0.8,1.5-1.2,2
		c-0.6,0.5-1.4,0.8-2.1,0.8c-1.2,0-2.1-0.5-2.7-1.2C414.7,118.8,414.2,117.1,414.2,114.9z M415.7,114.9c0,2,0.3,3.2,0.8,3.9
		c0.4,0.6,1.1,0.9,1.7,0.9s1.2-0.3,1.6-0.9c0.5-0.6,0.8-2,0.8-3.9c0-2-0.3-3.3-0.8-3.9c-0.4-0.6-1.1-0.9-1.6-0.9
		c-0.6,0-1.2,0.3-1.7,0.9C415.9,111.7,415.7,113.1,415.7,114.9z"/>
</g>
<polygon class="st6" points="203.8,81.9 205.6,86.6 210.7,87 206.8,90.1 208.2,95.2 203.8,92.4 199.5,95.2 200.8,90.1 196.8,87 
	201.9,86.6 "/>
<polygon class="st6" points="220.5,81.9 222.4,86.6 227.5,87 223.5,90.1 224.8,95.2 220.5,92.4 216.3,95.2 217.5,90.1 213.6,87 
	218.7,86.6 "/>
<polygon class="st6" points="237.7,81.9 239.7,86.6 244.8,87 240.7,90.1 242.1,95.2 237.7,92.4 233.3,95.2 234.7,90.1 230.8,87 
	235.9,86.6 "/>
<polygon class="st6" points="254.2,81.9 256,86.6 261.3,87 257.2,90.1 258.6,95.2 254.2,92.4 249.8,95.2 251.2,90.1 247.2,87 
	252.4,86.6 "/>
<polygon class="st7" points="270.7,81.9 272.5,86.6 277.8,87 273.7,90.1 275.1,95.2 270.7,92.4 266.3,95.2 267.7,90.1 263.7,87 
	268.9,86.6 "/>
<rect x="1.8" y="99.6" class="st8" width="449.7" height="30.3"/>
</svg>
