<svg xmlns="http://www.w3.org/2000/svg" width="107.2" height="151.9" viewBox="0 0 107.2 151.9"><defs><style>.cls-1{fill:#737373;}.cls-2{fill:#969696;}.cls-3{fill:#505050;}.cls-4{fill:none;}.cls-5{fill:#fff;}.cls-6{fill:#b4b4b4;}.cls-7{fill:#d2d2d2;}.cls-8{isolation:isolate;}</style></defs><title>BA_Conc_Clipboard</title><g id="Layer_2" data-name="Layer 2"><g id="Layer_1-2" data-name="Layer 1"><path class="cls-1" d="M107.1,147.3a4.53,4.53,0,0,1-4.6,4.6H4.6A4.53,4.53,0,0,1,0,147.3L.1,11.7A4.53,4.53,0,0,1,4.7,7.1h97.9a4.53,4.53,0,0,1,4.6,4.6l-.1,135.6Z"/><path class="cls-2" d="M78.6,17.3A6.88,6.88,0,0,0,72.1,11h-37a6.58,6.58,0,0,0-6.5,6.3Z"/><path class="cls-3" d="M31.7,19.6A1.63,1.63,0,0,1,30,21.3h0a1.57,1.57,0,0,1-1.4-1.7v-6A1.58,1.58,0,0,1,30,11.9h0a1.68,1.68,0,0,1,1.7,1.7Z"/><path class="cls-3" d="M78.6,19.6a1.63,1.63,0,0,1-1.7,1.7h0a1.57,1.57,0,0,1-1.4-1.7v-6a1.58,1.58,0,0,1,1.4-1.7h0a1.68,1.68,0,0,1,1.7,1.7Z"/><rect class="cls-4" x="0.4" width="106.7" height="151.6"/><rect class="cls-4" x="0.4" width="106.7" height="151.6"/><rect class="cls-5" x="6.4" y="21" width="95.2" height="123.3"/><rect class="cls-6" x="13" y="51.6" width="83.1" height="3.6"/><rect class="cls-6" x="19.9" y="58.6" width="76.2" height="3.6"/><rect class="cls-6" x="19.9" y="65.7" width="53.6" height="3.6"/><rect class="cls-6" x="12.9" y="72.9" width="83.2" height="3.6"/><rect class="cls-6" x="19.9" y="80" width="76.2" height="3.6"/><rect class="cls-6" x="12.9" y="94.2" width="83.2" height="3.6"/><rect class="cls-6" x="18.8" y="101.3" width="76.2" height="3.6"/><rect class="cls-6" x="12.9" y="108.5" width="83.3" height="3.6"/><rect class="cls-6" x="19.9" y="115.6" width="76.2" height="3.6"/><rect class="cls-6" x="18.8" y="122.7" width="76.2" height="3.6"/><rect class="cls-6" x="12.8" y="129.8" width="82.2" height="3.6"/><rect class="cls-6" x="12.8" y="136.9" width="82.2" height="3.6"/><rect class="cls-5" x="18.2" y="24.9" width="3.4" height="115.3"/><rect class="cls-5" x="94.4" y="24.9" width="3.4" height="115.3"/><path class="cls-7" d="M53.6,3.7A3.26,3.26,0,0,1,57,7.1a3.51,3.51,0,0,1-3.4,3.7,3.76,3.76,0,0,1-3.7-3.7A3.51,3.51,0,0,1,53.6,3.7ZM75.2,15.4H68.7a8.16,8.16,0,0,1-8-8h0a7.15,7.15,0,1,0-14.3,0h0a8.16,8.16,0,0,1-8,8H31.9a12.22,12.22,0,0,0-12,11.1H87.1A11.91,11.91,0,0,0,75.2,15.4Z"/><g class="cls-8"><path class="cls-3" d="M26.18,39.46l.07.15.09-.14q.61-.91,1-1.44l.55-.7a2.33,2.33,0,0,1,.27-.24.54.54,0,0,1,.25-.06.74.74,0,0,1,.28.06.71.71,0,0,1,.22.15.34.34,0,0,1,.08.2.5.5,0,0,1,0,.16,5.31,5.31,0,0,0-.14.79c0,.18,0,.52-.08,1,0,.32-.05.69-.06,1.1s0,.87,0,1V42c0,.11,0,.19,0,.24a.59.59,0,0,0,0,.14l0,.09a.25.25,0,0,1,0,.12.28.28,0,0,1-.15.23.57.57,0,0,1-.34.1.5.5,0,0,1-.27-.07.52.52,0,0,1-.2-.19,3.13,3.13,0,0,1-.09-1c0-.35,0-.75,0-1.22s0-.79.05-1.28l0-.18c-.21.28-.49.69-.85,1.24a3.86,3.86,0,0,0-.25.43,1.31,1.31,0,0,0-.11.35.32.32,0,0,1-.09.22.29.29,0,0,1-.22.07.72.72,0,0,1-.32-.07.58.58,0,0,1-.22-.22,3.5,3.5,0,0,1-.23-.51c-.05-.12-.09-.23-.12-.32s-.08-.22-.14-.38l-.16-.44L25,39.1s0,0,0-.05,0,0,0-.06c0,.44-.07.82-.08,1.14s0,.65,0,1,0,.6,0,.82a1.62,1.62,0,0,0,.06.44l.05.14a.3.3,0,0,1,0,.1.29.29,0,0,1-.16.23.69.69,0,0,1-.36.1c-.28,0-.45-.19-.51-.55,0-.16,0-.35-.05-.59s0-.58,0-1.06c0-.28,0-.59,0-1s0-.45,0-.64,0-.34,0-.46a6.6,6.6,0,0,1,.19-1.33.53.53,0,0,1,.22-.25.51.51,0,0,1,.32-.1.84.84,0,0,1,.59.25.24.24,0,0,1,.09.12,1.54,1.54,0,0,1,.07.24c.06.25.13.49.21.73l.19.52Z"/><path class="cls-3" d="M30.52,42.59a.31.31,0,0,1-.13.23.54.54,0,0,1-.3.1.46.46,0,0,1-.41-.22,1,1,0,0,1-.14-.61s0-.19,0-.53,0-.61,0-.8l0-.63q0-.54,0-.63v-.15a1.36,1.36,0,0,0,0-.2l0-.1v0a.26.26,0,0,1,.16-.22.8.8,0,0,1,.38-.1.5.5,0,0,1,.33.1.33.33,0,0,1,.11.28,2.13,2.13,0,0,1,0,.3l-.06.52c0,.16,0,.39-.05.68s0,.5,0,.65,0,.37,0,.56v.33c0,.08,0,.14,0,.17a.89.89,0,0,0,.06.2A.52.52,0,0,1,30.52,42.59Zm-.86-4.88a.39.39,0,0,1,.16-.28.58.58,0,0,1,.35-.1.78.78,0,0,1,.46.14.4.4,0,0,1,.18.33.35.35,0,0,1-.14.29.52.52,0,0,1-.35.11.73.73,0,0,1-.46-.15A.43.43,0,0,1,29.66,37.71Z"/><path class="cls-3" d="M33.5,41.05a.52.52,0,0,1,.31.16.5.5,0,0,1,.11.32.79.79,0,0,1-.11.36,1.9,1.9,0,0,1-.31.45,1.71,1.71,0,0,1-.56.45,1.48,1.48,0,0,1-.64.16,1.25,1.25,0,0,1-.64-.17,1.1,1.1,0,0,1-.43-.45,1.44,1.44,0,0,1-.15-.67,3.84,3.84,0,0,1,.17-1.07,4.76,4.76,0,0,1,.46-1.09,1.77,1.77,0,0,1,.4-.51.56.56,0,0,1,.39-.16A1,1,0,0,1,33,39a1.32,1.32,0,0,1,.39.39.8.8,0,0,1,.16.46.38.38,0,0,1-.13.3.43.43,0,0,1-.31.12.32.32,0,0,1-.19-.07.38.38,0,0,1-.12-.17l-.05-.17c0-.07,0-.1-.1-.1s-.16.13-.29.37a4.4,4.4,0,0,0-.29.76,2.44,2.44,0,0,0-.12.68A.83.83,0,0,0,32,42a.34.34,0,0,0,.29.17.63.63,0,0,0,.34-.13,1.42,1.42,0,0,0,.34-.35,1.65,1.65,0,0,0,.22-.44.27.27,0,0,1,.09-.15A.32.32,0,0,1,33.5,41.05Z"/><path class="cls-3" d="M35.36,39.44v.05a2,2,0,0,1,1.31-.61.56.56,0,0,1,.38.12.37.37,0,0,1,.15.31.6.6,0,0,1-.15.39.45.45,0,0,1-.34.18h-.07l-.11,0h-.1A.77.77,0,0,0,36,40a1.49,1.49,0,0,0-.38.41,1.62,1.62,0,0,0-.23.57,3.31,3.31,0,0,0-.07.77,2.43,2.43,0,0,0,0,.42,1.73,1.73,0,0,0,.07.31.41.41,0,0,1,0,.15.29.29,0,0,1-.16.23A.6.6,0,0,1,35,43a.4.4,0,0,1-.31-.12.82.82,0,0,1-.16-.42,5.76,5.76,0,0,1,0-.82c0-.24,0-.44,0-.61l0-.66q0-.69,0-.93c0-.12,0-.24,0-.35a.3.3,0,0,1,0-.13.28.28,0,0,1,.15-.23.6.6,0,0,1,.35-.1c.27,0,.4.11.4.33V39l0,.24v.15S35.37,39.44,35.36,39.44Z"/><path class="cls-3" d="M38.83,38.84a.66.66,0,0,1,.43-.15,1,1,0,0,1,.46.11,1.14,1.14,0,0,1,.34.32,2,2,0,0,1,.23.51,2.76,2.76,0,0,1,.07.67,3.79,3.79,0,0,1-.14,1.07,3,3,0,0,1-.4.91,1.7,1.7,0,0,1-.51.49,1.34,1.34,0,0,1-.65.17,1.23,1.23,0,0,1-.69-.19,1.18,1.18,0,0,1-.44-.54,2.17,2.17,0,0,1-.15-.84,3.52,3.52,0,0,1,0-.64,5.23,5.23,0,0,1,.15-.66,5.5,5.5,0,0,1,.23-.61c.23-.51.47-.76.72-.76A.37.37,0,0,1,38.83,38.84ZM38.49,40a6.1,6.1,0,0,0-.22.8,3.76,3.76,0,0,0-.08.71,1,1,0,0,0,.11.51.33.33,0,0,0,.31.18.47.47,0,0,0,.33-.16,1.22,1.22,0,0,0,.3-.44,3.09,3.09,0,0,0,.2-.63,3.61,3.61,0,0,0,.07-.73,1.17,1.17,0,0,0-.1-.55.31.31,0,0,0-.29-.18.4.4,0,0,0-.23.08.51.51,0,0,0-.17.21l0,.12c0,.07-.07.1-.12.1A.07.07,0,0,1,38.49,40Z"/><path class="cls-3" d="M40.8,42.26a.41.41,0,0,1,.12-.28.36.36,0,0,1,.24-.13.24.24,0,0,1,.16.08l.11.1a1.12,1.12,0,0,0,.8.23c.38,0,.57-.06.57-.19s0-.08-.12-.12,0,0,0,0l-.16-.08L42,41.61a5.2,5.2,0,0,1-.74-.39.9.9,0,0,1-.34-.33.74.74,0,0,1-.1-.4,1.07,1.07,0,0,1,.17-.55,1.79,1.79,0,0,1,.48-.52,3.45,3.45,0,0,1,.86-.48,2.18,2.18,0,0,1,.83-.19.6.6,0,0,1,.49.22.91.91,0,0,1,.18.61,1.42,1.42,0,0,1-.16.65c-.1.19-.21.29-.34.29a.39.39,0,0,1-.27-.12.36.36,0,0,1-.13-.25.72.72,0,0,1,.09-.24.59.59,0,0,0,.08-.22c0-.09,0-.14-.16-.14a1,1,0,0,0-.39.11,2.13,2.13,0,0,0-.44.26q-.36.28-.36.48a.27.27,0,0,0,.13.21,2.87,2.87,0,0,0,.56.29,3.54,3.54,0,0,1,.95.52.73.73,0,0,1,.27.55.8.8,0,0,1-.4.71,2,2,0,0,1-1.09.28,2.15,2.15,0,0,1-1-.21C40.93,42.61,40.8,42.45,40.8,42.26Z"/><path class="cls-3" d="M45.67,38.84a.66.66,0,0,1,.43-.15,1,1,0,0,1,.46.11,1.14,1.14,0,0,1,.34.32,2,2,0,0,1,.23.51,2.76,2.76,0,0,1,.07.67,4.18,4.18,0,0,1-.13,1.07,3,3,0,0,1-.41.91,1.7,1.7,0,0,1-.51.49,1.34,1.34,0,0,1-.65.17,1.16,1.16,0,0,1-1.13-.73,2.17,2.17,0,0,1-.15-.84,4.72,4.72,0,0,1,.05-.64,5.28,5.28,0,0,1,.16-.66,5.48,5.48,0,0,1,.22-.61c.23-.51.47-.76.73-.76A.37.37,0,0,1,45.67,38.84ZM45.33,40a6.1,6.1,0,0,0-.22.8,3.76,3.76,0,0,0-.08.71,1,1,0,0,0,.11.51.33.33,0,0,0,.31.18.49.49,0,0,0,.34-.16,1.35,1.35,0,0,0,.29-.44,3.09,3.09,0,0,0,.2-.63,3.61,3.61,0,0,0,.07-.73,1.34,1.34,0,0,0-.09-.55.32.32,0,0,0-.29-.18.43.43,0,0,0-.24.08.6.6,0,0,0-.17.21l-.05.12c0,.07-.07.1-.12.1A.07.07,0,0,1,45.33,40Z"/><path class="cls-3" d="M49,39.53c0,.26-.08.57-.1.9s0,.66,0,1a3,3,0,0,1,0,.33,2,2,0,0,0,.07.63l.05.12a.43.43,0,0,1,0,.11.21.21,0,0,1-.12.2.53.53,0,0,1-.32.08.48.48,0,0,1-.33-.1.71.71,0,0,1-.15-.37,7.46,7.46,0,0,1,0-.84q0-.47,0-.93c0-.32.05-.66.09-1l-.11,0-.29,0a.22.22,0,0,1-.16-.1.32.32,0,0,1-.07-.22.61.61,0,0,1,.06-.25.44.44,0,0,1,.16-.17,1.48,1.48,0,0,1,.41-.15l.1,0a3.23,3.23,0,0,1,.14-.56,1.33,1.33,0,0,1,.24-.39,1.38,1.38,0,0,1,.49-.41,1.23,1.23,0,0,1,.59-.15.71.71,0,0,1,.43.12.4.4,0,0,1,.16.32.48.48,0,0,1-.13.31.43.43,0,0,1-.31.14h-.09l-.09,0-.11,0a.35.35,0,0,0-.29.16.87.87,0,0,0-.17.44h.43a1.08,1.08,0,0,1,.59.11.44.44,0,0,1,.17.4.34.34,0,0,1,0,.18.13.13,0,0,1-.12.07h-.22A6.89,6.89,0,0,0,49,39.53Z"/><path class="cls-3" d="M51,39.75l-.38,0a.61.61,0,0,1-.18,0,.43.43,0,0,1-.22-.42.61.61,0,0,1,0-.28c0-.08.08-.12.13-.12l0,0a2.09,2.09,0,0,0,.48,0h.18v-.29a4.07,4.07,0,0,0,0-.59.69.69,0,0,1,0-.13.23.23,0,0,1,.13-.2.56.56,0,0,1,.3-.08.53.53,0,0,1,.37.12A.35.35,0,0,1,52,38c0,.07,0,.23,0,.47s0,.23,0,.34a4.14,4.14,0,0,1,.59-.06.26.26,0,0,1,.28.29,2.44,2.44,0,0,1-.08.44l-.05.13a.15.15,0,0,1-.1,0h-.27l-.35,0H51.9c0,.21,0,.45,0,.7v.21a.2.2,0,0,0,0,.07v.17c0,.26,0,.44,0,.54A3.88,3.88,0,0,0,52,42.54a.23.23,0,0,1,0,.11.22.22,0,0,1-.13.19.45.45,0,0,1-.28.09.48.48,0,0,1-.47-.32,2.86,2.86,0,0,1-.15-1.1c0-.21,0-.62,0-1.23C51,40.19,51,40,51,39.75Z"/><path class="cls-3" d="M59.36,40.5l0,.13a1.09,1.09,0,0,1,.49.18.41.41,0,0,1,.15.35.56.56,0,0,1-.07.26c-.05.08-.1.12-.16.12h-.09l-.08,0,0,.08a.1.1,0,0,1,0,0l.07.22a2.72,2.72,0,0,0,.25.54.46.46,0,0,1,.08.21.33.33,0,0,1-.13.25.49.49,0,0,1-.31.11.51.51,0,0,1-.31-.11.73.73,0,0,1-.24-.28,7,7,0,0,1-.31-1l0-.09h-.27a8.57,8.57,0,0,0-.94,0,1,1,0,0,0-.27.07.34.34,0,0,0-.13.17,1.85,1.85,0,0,0-.11.58s0,.08,0,.12l0,.15a.24.24,0,0,1-.12.2.43.43,0,0,1-.26.09.49.49,0,0,1-.37-.16.5.5,0,0,1-.15-.37,3.49,3.49,0,0,1,.18-.82l.14-.47.17-.56s0-.14.08-.25.07-.22.1-.31l.09-.28.1-.3.38-1.1.22-.55a1.64,1.64,0,0,1,.3-.56.49.49,0,0,1,.36-.14.52.52,0,0,1,.45.24.8.8,0,0,1,.13.45,15.5,15.5,0,0,0,.31,1.88l.12.52Zm-1,.15h.17a.24.24,0,0,0,0-.11l-.11-.46-.11-.48-.09-.49,0-.21c-.1.24-.19.49-.28.75s-.22.64-.31.93l0,.14.39,0Z"/><path class="cls-3" d="M62.7,39a6.8,6.8,0,0,0,.12-1.15s0-.05,0-.06v-.11a.26.26,0,0,1,.12-.22.51.51,0,0,1,.3-.08.56.56,0,0,1,.36.12.39.39,0,0,1,.14.33,2.11,2.11,0,0,1,0,.38c0,.1,0,.17,0,.23s0,.13,0,.23,0,.22,0,.39c0,.42-.08.78-.1,1.09s0,.57,0,.78a5.48,5.48,0,0,0,.16,1.41.64.64,0,0,1,0,.15.31.31,0,0,1-.14.23.5.5,0,0,1-.3.11.4.4,0,0,1-.23-.08.51.51,0,0,1-.18-.2,2.92,2.92,0,0,1-.1-.53,1.84,1.84,0,0,1-.24.39,1.59,1.59,0,0,1-.29.29.92.92,0,0,1-.3.17,1,1,0,0,1-.34.06,1,1,0,0,1-.57-.18,1.1,1.1,0,0,1-.38-.53,1.89,1.89,0,0,1-.14-.77,3.61,3.61,0,0,1,.13-1,4.18,4.18,0,0,1,.36-.94,2.46,2.46,0,0,1,.52-.68,1,1,0,0,1,.6-.23A.88.88,0,0,1,62.7,39Zm-.23,1.2a1.2,1.2,0,0,0-.09-.51.28.28,0,0,0-.25-.19c-.21,0-.41.28-.61.83a3.93,3.93,0,0,0-.24,1.28c0,.37.09.56.26.56s.17-.06.28-.18a1.55,1.55,0,0,0,.3-.44,3.33,3.33,0,0,0,.26-.68A3.55,3.55,0,0,0,62.47,40.2Z"/><path class="cls-3" d="M65.42,41.43l0-.17c.11-.37.23-.7.35-1a8,8,0,0,1,.5-1.13.54.54,0,0,1,.17-.19.33.33,0,0,1,.21-.06.59.59,0,0,1,.36.13.42.42,0,0,1,.15.31.46.46,0,0,1-.06.18l-.08.13a7,7,0,0,0-.4.82c-.21.52-.38.94-.48,1.25a4.71,4.71,0,0,0-.14.46c0,.13,0,.28-.07.44s-.2.34-.51.34a.58.58,0,0,1-.4-.12.76.76,0,0,1-.22-.41c-.13-.52-.25-.93-.34-1.24l-.23-.69A6.52,6.52,0,0,1,64,39.16a.31.31,0,0,1,.12-.26.55.55,0,0,1,.34-.09.74.74,0,0,1,.38.09.34.34,0,0,1,.15.29v.06a4.33,4.33,0,0,0,.12.85c0,.21.12.51.22.91C65.32,41.14,65.37,41.28,65.42,41.43Z"/><path class="cls-3" d="M68,41.69a.59.59,0,0,0,.18.35.57.57,0,0,0,.36.11A1.07,1.07,0,0,0,69,42a1.41,1.41,0,0,0,.44-.33.83.83,0,0,0,.24-.46c0-.15.09-.22.25-.22a.51.51,0,0,1,.34.13.44.44,0,0,1,.13.33,1.35,1.35,0,0,1-.54.93,1.9,1.9,0,0,1-1.28.52,1.72,1.72,0,0,1-.75-.17,1.38,1.38,0,0,1-.52-.5,1.42,1.42,0,0,1-.19-.71,3,3,0,0,1,.19-1,4,4,0,0,1,.51-1A2.48,2.48,0,0,1,68.5,39a1.11,1.11,0,0,1,.65-.24.79.79,0,0,1,.61.27,1,1,0,0,1,.24.68,1.45,1.45,0,0,1-.15.63,2.33,2.33,0,0,1-.42.6,3.15,3.15,0,0,1-.64.48A2.93,2.93,0,0,1,68,41.69Zm.14-.85a2.92,2.92,0,0,0,.76-.61,1.07,1.07,0,0,0,.33-.62.13.13,0,0,0,0-.1.11.11,0,0,0-.08,0q-.23,0-.51.42A3.31,3.31,0,0,0,68.16,40.84Z"/><path class="cls-3" d="M71.82,39.44v.05a1.93,1.93,0,0,1,1.3-.61.61.61,0,0,1,.39.12.37.37,0,0,1,.15.31.6.6,0,0,1-.15.39.46.46,0,0,1-.34.18h-.08l-.1,0h-.1a.77.77,0,0,0-.41.15,1.69,1.69,0,0,0-.39.41,1.84,1.84,0,0,0-.23.57,4.07,4.07,0,0,0-.06.77,2.43,2.43,0,0,0,0,.42,1.73,1.73,0,0,0,.07.31.64.64,0,0,1,0,.15.29.29,0,0,1-.15.23.62.62,0,0,1-.34.11.39.39,0,0,1-.31-.12.82.82,0,0,1-.16-.42,5.76,5.76,0,0,1,0-.82c0-.24,0-.44,0-.61l0-.66q0-.69,0-.93A2,2,0,0,0,71,39a.57.57,0,0,1,0-.13.28.28,0,0,1,.15-.23.58.58,0,0,1,.35-.1c.27,0,.4.11.4.33V39l0,.24v.15A.1.1,0,0,1,71.82,39.44Z"/><path class="cls-3" d="M74.48,39.75l-.39,0a.61.61,0,0,1-.18,0,.43.43,0,0,1-.22-.42.78.78,0,0,1,0-.28c0-.08.08-.12.13-.12l0,0a2,2,0,0,0,.48,0h.17a2,2,0,0,0,0-.29,2.81,2.81,0,0,0,0-.59.62.62,0,0,1,0-.13.24.24,0,0,1,.12-.2.58.58,0,0,1,.3-.08.53.53,0,0,1,.37.12.36.36,0,0,1,.14.3c0,.07,0,.23,0,.47s0,.23,0,.34a3.9,3.9,0,0,1,.58-.06c.19,0,.28.1.28.29a1.77,1.77,0,0,1-.08.44.44.44,0,0,1-.05.13.12.12,0,0,1-.09,0h-.27l-.36,0h-.07c0,.21,0,.45,0,.7v.21a.15.15,0,0,1,0,.07v.17c0,.26,0,.44,0,.54a4.25,4.25,0,0,0,.11,1.17.21.21,0,0,1-.09.3.47.47,0,0,1-.28.09.5.5,0,0,1-.48-.32,3.13,3.13,0,0,1-.14-1.1c0-.21,0-.62,0-1.23C74.45,40.19,74.46,40,74.48,39.75Z"/><path class="cls-3" d="M77.5,42.59a.28.28,0,0,1-.13.23.51.51,0,0,1-.29.1.45.45,0,0,1-.41-.22,1,1,0,0,1-.15-.61s0-.19,0-.53,0-.61,0-.8l0-.63c0-.36,0-.57,0-.63v-.15a.69.69,0,0,0,0-.2l0-.1v0a0,0,0,0,1,0,0,.27.27,0,0,1,.17-.22.8.8,0,0,1,.38-.1.52.52,0,0,1,.33.1.36.36,0,0,1,.11.28,2.13,2.13,0,0,1,0,.3l-.06.52c0,.16,0,.39-.05.68a6.45,6.45,0,0,0,0,.65c0,.18,0,.37,0,.56v.33a1.59,1.59,0,0,0,0,.17,1.94,1.94,0,0,0,0,.2A.23.23,0,0,1,77.5,42.59Zm-.85-4.88a.39.39,0,0,1,.16-.28.56.56,0,0,1,.35-.1.73.73,0,0,1,.45.14.38.38,0,0,1,0,.62.57.57,0,0,1-.36.11.72.72,0,0,1-.45-.15A.4.4,0,0,1,76.65,37.71Z"/><path class="cls-3" d="M78.06,42.26a.41.41,0,0,1,.12-.28.36.36,0,0,1,.24-.13.24.24,0,0,1,.16.08l.11.1a1.14,1.14,0,0,0,.8.23c.38,0,.57-.06.57-.19s0-.08-.12-.12,0,0,0,0l-.16-.08-.46-.22a5.2,5.2,0,0,1-.74-.39,1,1,0,0,1-.34-.33.74.74,0,0,1-.1-.4,1.07,1.07,0,0,1,.17-.55,1.79,1.79,0,0,1,.48-.52,3.45,3.45,0,0,1,.86-.48,2.18,2.18,0,0,1,.83-.19.6.6,0,0,1,.49.22.91.91,0,0,1,.18.61,1.31,1.31,0,0,1-.16.65c-.1.19-.21.29-.34.29a.39.39,0,0,1-.27-.12.36.36,0,0,1-.13-.25.72.72,0,0,1,.09-.24.59.59,0,0,0,.08-.22c0-.09-.05-.14-.16-.14a1.06,1.06,0,0,0-.39.11,2.43,2.43,0,0,0-.44.26q-.36.28-.36.48a.27.27,0,0,0,.13.21,2.75,2.75,0,0,0,.57.29,3.43,3.43,0,0,1,.94.52.73.73,0,0,1,.27.55.8.8,0,0,1-.4.71,2,2,0,0,1-1.09.28,2.15,2.15,0,0,1-1-.21C78.19,42.61,78.06,42.45,78.06,42.26Z"/><path class="cls-3" d="M82.55,42.59a.28.28,0,0,1-.13.23.53.53,0,0,1-.29.1.45.45,0,0,1-.41-.22,1,1,0,0,1-.15-.61s0-.19,0-.53,0-.61,0-.8l.05-.63q0-.54,0-.63a.5.5,0,0,0,0-.15.69.69,0,0,0,0-.2l0-.1v0a.27.27,0,0,1,.17-.22.77.77,0,0,1,.38-.1.54.54,0,0,1,.33.1.36.36,0,0,1,.11.28,2.13,2.13,0,0,1,0,.3l-.06.52c0,.16,0,.39-.06.68s0,.5,0,.65,0,.37,0,.56,0,.29,0,.33,0,.14,0,.17l.06.2A.52.52,0,0,1,82.55,42.59Zm-.86-4.88a.43.43,0,0,1,.16-.28.61.61,0,0,1,.36-.1.77.77,0,0,1,.45.14.41.41,0,0,1,.19.33.38.38,0,0,1-.14.29.57.57,0,0,1-.36.11.77.77,0,0,1-.46-.15A.43.43,0,0,1,81.69,37.71Z"/><path class="cls-3" d="M84.2,40.07v.14l.06-.13a4.88,4.88,0,0,1,.62-1,.77.77,0,0,1,.54-.33.44.44,0,0,1,.37.22,1.57,1.57,0,0,1,.23.64,6.14,6.14,0,0,1,.07,1c0,.45,0,.83,0,1.15a5.35,5.35,0,0,1-.11.76c-.06.25-.2.38-.41.38a.52.52,0,0,1-.33-.12.36.36,0,0,1-.14-.26,1.11,1.11,0,0,1,0-.17,3.41,3.41,0,0,0,.1-.56q0-.37,0-.69c0-.62,0-.93-.14-.93s-.17.1-.31.31a5.24,5.24,0,0,0-.51,1,2.55,2.55,0,0,0-.22.89v.24a.29.29,0,0,1-.14.23.54.54,0,0,1-.3.1c-.27,0-.4-.22-.4-.66a5.69,5.69,0,0,1,0-.63l0-.57c0-.12,0-.32,0-.59,0-.5.06-.82.06-1a1.61,1.61,0,0,0-.08-.48.5.5,0,0,1,0-.12.25.25,0,0,1,.15-.22.62.62,0,0,1,.37-.1.4.4,0,0,1,.34.14.71.71,0,0,1,.11.46c0,.12,0,.23,0,.33v.34A1,1,0,0,0,84.2,40.07Z"/><path class="cls-3" d="M88.91,38.85a.53.53,0,0,1,.15-.15.26.26,0,0,1,.17-.05.51.51,0,0,1,.33.13.41.41,0,0,1,.17.28.19.19,0,0,1,0,.08l0,.11a4.74,4.74,0,0,0-.11,1c0,.41,0,.9,0,1.48a2.18,2.18,0,0,0,0,.28v.37a3.89,3.89,0,0,1-.08.87,1.63,1.63,0,0,1-.29.59,2,2,0,0,1-.37.33,2,2,0,0,1-.51.22,2.23,2.23,0,0,1-.56.08,1.74,1.74,0,0,1-.93-.24.67.67,0,0,1-.4-.55.58.58,0,0,1,.13-.33.33.33,0,0,1,.26-.16.24.24,0,0,1,.16.08,1.89,1.89,0,0,0,.44.31.87.87,0,0,0,.4.08.75.75,0,0,0,.64-.32,1.3,1.3,0,0,0,.26-.82c0-.13,0-.26,0-.39a1.85,1.85,0,0,1-.44.57.8.8,0,0,1-.5.17A.89.89,0,0,1,87,42.4a1.8,1.8,0,0,1-.3-1.07,3.61,3.61,0,0,1,.16-1,3.28,3.28,0,0,1,.41-.93q.49-.75,1.05-.75A.91.91,0,0,1,88.91,38.85ZM88.7,40.1c0-.46-.1-.69-.31-.69a.35.35,0,0,0-.22.11,1.09,1.09,0,0,0-.21.26,3.66,3.66,0,0,0-.29.78,3.45,3.45,0,0,0-.12.82c0,.36.1.54.29.54a.51.51,0,0,0,.35-.2,1.63,1.63,0,0,0,.29-.52c0-.17.11-.36.16-.59A2.86,2.86,0,0,0,88.7,40.1Z"/></g></g></g></svg>