<?xml version="1.0" encoding="utf-8"?>
<!-- Generator: Adobe Illustrator 20.1.0, SVG Export Plug-In . SVG Version: 6.00 Build 0)  -->
<svg version="1.1" id="Layer_1" xmlns="http://www.w3.org/2000/svg" xmlns:xlink="http://www.w3.org/1999/xlink" x="0px" y="0px"
	 width="283.7px" height="159.3px" viewBox="0 0 283.7 159.3" style="enable-background:new 0 0 283.7 159.3;" xml:space="preserve"
	>
<style type="text/css">
	.st0{fill:#EDECEB;}
	.st1{fill:#E5E5E4;}
	.st2{fill:none;stroke:#EC008C;stroke-width:2;stroke-miterlimit:10;}
	.st3{fill:none;stroke:#EC008C;stroke-width:1.3969;stroke-linecap:round;stroke-miterlimit:10;}
	.st4{fill:none;stroke:#000000;stroke-miterlimit:10;}
	.st5{fill:none;stroke:#AA278F;stroke-width:3;stroke-miterlimit:10;stroke-dasharray:2.3282;}
	.st6{fill:#505050;}
	.st7{font-family:'Segoe-Light';}
	.st8{font-size:11px;}
	.st9{font-size:9px;}
	.st10{fill:#AA278F;}
	.st11{font-family:'SegoeBlack';}
	.st12{fill:#737373;}
	.st13{font-size:6.0908px;}
	.st14{fill:none;}
	.st15{fill:#FFFFFF;}
	.st16{fill:#EC008C;}
</style>
<rect x="121.3" y="12.6" class="st0" width="98.9" height="118.4"/>
<rect x="22.5" y="12.6" class="st1" width="98.9" height="118.4"/>
<line class="st2" x1="121.7" y1="74" x2="121.7" y2="131"/>
<g>
	<line class="st3" x1="28.8" y1="128.3" x2="22.6" y2="130.6"/>
	<line class="st3" x1="34.9" y1="126" x2="28.8" y2="128.3"/>
	<line class="st3" x1="41.1" y1="120.2" x2="34.9" y2="126"/>
	<line class="st3" x1="47.3" y1="119.1" x2="41.1" y2="120.2"/>
	<line class="st3" x1="53.4" y1="115.6" x2="47.3" y2="119.1"/>
	<line class="st3" x1="59.6" y1="112.2" x2="53.4" y2="115.6"/>
	<line class="st3" x1="65.8" y1="105.3" x2="59.6" y2="112.2"/>
	<line class="st3" x1="71.9" y1="101.9" x2="65.8" y2="105.3"/>
	<line class="st3" x1="78.1" y1="96.1" x2="71.9" y2="101.9"/>
	<line class="st3" x1="84.3" y1="93.8" x2="78.1" y2="96.1"/>
	<line class="st3" x1="90.4" y1="90.4" x2="84.3" y2="93.8"/>
	<line class="st3" x1="96.6" y1="86.9" x2="90.4" y2="90.4"/>
	<line class="st3" x1="102.8" y1="84.6" x2="96.6" y2="86.9"/>
	<line class="st3" x1="108.9" y1="82.3" x2="102.8" y2="84.6"/>
	<line class="st3" x1="115.1" y1="80" x2="108.9" y2="82.3"/>
	<line class="st3" x1="121.3" y1="73.1" x2="115.1" y2="80"/>
</g>
<g>
	<line class="st4" x1="22.7" y1="130.5" x2="139.7" y2="130.5"/>
	<line class="st4" x1="29.2" y1="131" x2="29.2" y2="130"/>
	<line class="st4" x1="37.2" y1="131" x2="37.2" y2="130"/>
	<line class="st4" x1="44.2" y1="131" x2="44.2" y2="130"/>
	<line class="st4" x1="52.2" y1="131" x2="52.2" y2="130"/>
	<line class="st4" x1="59.2" y1="131" x2="59.2" y2="130"/>
	<line class="st4" x1="66.2" y1="131" x2="66.2" y2="130"/>
	<line class="st4" x1="74.2" y1="131" x2="74.2" y2="130"/>
	<line class="st4" x1="81.2" y1="131" x2="81.2" y2="130"/>
	<line class="st4" x1="88.2" y1="131" x2="88.2" y2="130"/>
	<line class="st4" x1="96.2" y1="131" x2="96.2" y2="130"/>
	<line class="st4" x1="103.2" y1="131" x2="103.2" y2="130"/>
	<line class="st4" x1="111.2" y1="131" x2="111.2" y2="130"/>
	<line class="st4" x1="118.2" y1="131" x2="118.2" y2="130"/>
	<line class="st4" x1="125.2" y1="131" x2="125.2" y2="130"/>
	<line class="st4" x1="132.2" y1="131" x2="132.2" y2="130"/>
	<line class="st4" x1="140.2" y1="131" x2="140.2" y2="130"/>
</g>
<g>
	<line class="st4" x1="22.2" y1="131" x2="22.2" y2="49"/>
	<line class="st4" x1="22.7" y1="115.5" x2="25.7" y2="115.5"/>
	<line class="st4" x1="22.7" y1="98.5" x2="25.7" y2="98.5"/>
	<line class="st4" x1="22.7" y1="81.5" x2="25.7" y2="81.5"/>
	<line class="st4" x1="22.7" y1="65.5" x2="25.7" y2="65.5"/>
	<line class="st4" x1="22.7" y1="49.5" x2="25.7" y2="49.5"/>
</g>
<line class="st4" x1="22.2" y1="82" x2="22.2" y2="12"/>
<line class="st4" x1="22.7" y1="65.5" x2="25.7" y2="65.5"/>
<polyline class="st5" points="24.7,50.5 22.7,50.5 219.7,50.5 "/>
<line class="st4" x1="22.7" y1="32.5" x2="25.7" y2="32.5"/>
<g>
	<line class="st3" x1="126" y1="127.3" x2="121.3" y2="130.5"/>
	<line class="st3" x1="130.7" y1="124.1" x2="126" y2="127.3"/>
	<line class="st3" x1="135.4" y1="116.1" x2="130.7" y2="124.1"/>
	<line class="st3" x1="140.2" y1="114.5" x2="135.4" y2="116.1"/>
	<line class="st3" x1="144.9" y1="109.7" x2="140.2" y2="114.5"/>
	<line class="st3" x1="149.6" y1="104.9" x2="144.9" y2="109.7"/>
	<line class="st3" x1="154.3" y1="95.3" x2="149.6" y2="104.9"/>
	<line class="st3" x1="159.1" y1="90.5" x2="154.3" y2="95.3"/>
	<line class="st3" x1="163.8" y1="82.5" x2="159.1" y2="90.5"/>
	<line class="st3" x1="168.5" y1="79.3" x2="163.8" y2="82.5"/>
	<line class="st3" x1="173.2" y1="74.5" x2="168.5" y2="79.3"/>
	<line class="st3" x1="178" y1="69.7" x2="173.2" y2="74.5"/>
	<line class="st3" x1="182.7" y1="66.4" x2="178" y2="69.7"/>
	<line class="st3" x1="187.4" y1="63.2" x2="182.7" y2="66.4"/>
	<line class="st3" x1="192.1" y1="60" x2="187.4" y2="63.2"/>
	<line class="st3" x1="196.9" y1="50.4" x2="192.1" y2="60"/>
</g>
<g>
	<line class="st4" x1="139.7" y1="130.5" x2="257.7" y2="130.5"/>
	<line class="st4" x1="147.2" y1="131" x2="147.2" y2="130"/>
	<line class="st4" x1="155.2" y1="131" x2="155.2" y2="130"/>
	<line class="st4" x1="162.2" y1="131" x2="162.2" y2="130"/>
	<line class="st4" x1="170.2" y1="131" x2="170.2" y2="130"/>
	<line class="st4" x1="177.2" y1="131" x2="177.2" y2="130"/>
	<line class="st4" x1="184.2" y1="131" x2="184.2" y2="130"/>
	<line class="st4" x1="191.2" y1="131" x2="191.2" y2="130"/>
	<line class="st4" x1="198.2" y1="131" x2="198.2" y2="130"/>
	<line class="st4" x1="205.2" y1="131" x2="205.2" y2="130"/>
	<line class="st4" x1="213.2" y1="131" x2="213.2" y2="130"/>
	<line class="st4" x1="220.2" y1="131" x2="220.2" y2="130"/>
	<line class="st4" x1="228.2" y1="131" x2="228.2" y2="130"/>
	<line class="st4" x1="235.2" y1="131" x2="235.2" y2="130"/>
	<line class="st4" x1="242.2" y1="131" x2="242.2" y2="130"/>
	<line class="st4" x1="250.2" y1="131" x2="250.2" y2="130"/>
	<line class="st4" x1="257.2" y1="131" x2="257.2" y2="130"/>
</g>
<g>
	<text transform="matrix(0 -1 1 0 15.0464 117.3625)" class="st6 st7 st8">Amount due</text>
</g>
<text transform="matrix(1 0 0 1 69.1574 9.4331)" class="st6 st7 st9">Month 1</text>
<text transform="matrix(1 0 0 1 226.7852 47.0251)"><tspan x="0" y="0" class="st10 st11 st9">your</tspan><tspan x="0" y="10.8" class="st10 st11 st9">billing</tspan><tspan x="0" y="21.6" class="st10 st11 st9">threshold</tspan></text>
<text transform="matrix(1 0 0 1 153.1536 9.4321)" class="st6 st7 st9">Month 2</text>
<text transform="matrix(1 0 0 1 12.4621 131.1001)" class="st12 st11 st13">$0</text>
<text transform="matrix(1 0 0 1 2.75 51.9717)" class="st12 st11 st9">$50</text>
<rect x="82" y="139.5" class="st14" width="79.8" height="33.5"/>
<text transform="matrix(1 0 0 1 98.4797 146.1279)"><tspan x="0" y="0" class="st6 st11 st9">monthly </tspan><tspan x="-8.1" y="10.8" class="st6 st11 st9">billing date</tspan></text>
<rect x="179.8" y="139.2" class="st14" width="81.4" height="37.2"/>
<text transform="matrix(1 0 0 1 197.1159 145.8691)"><tspan x="0" y="0" class="st6 st11 st9">monthly </tspan><tspan x="-8.1" y="10.8" class="st6 st11 st9">billing date</tspan></text>
<polygon class="st6" points="119.4,136.5 121.9,132.4 124.3,136.5 "/>
<polygon class="st6" points="108.8,70.3 113,72.7 108.8,75.1 "/>
<polygon class="st6" points="199.5,40 197.1,44.2 194.6,40 "/>
<polygon class="st10" points="224.4,54 220.2,51.6 224.4,49.2 "/>
<polygon class="st6" points="218.1,136.5 220.5,132.4 222.9,136.5 "/>
<g>
	<circle class="st15" cx="121.2" cy="73" r="3.6"/>
	<path class="st16" d="M121.2,70.5c1.4,0,2.6,1.2,2.6,2.6s-1.2,2.6-2.6,2.6s-2.6-1.2-2.6-2.6S119.8,70.5,121.2,70.5 M121.2,68.4
		c-2.5,0-4.6,2.1-4.6,4.6s2.1,4.6,4.6,4.6s4.6-2.1,4.6-4.6S123.7,68.4,121.2,68.4L121.2,68.4z"/>
</g>
<g>
	<circle class="st15" cx="197" cy="50.2" r="3.6"/>
	<path class="st16" d="M197,47.6c1.4,0,2.6,1.2,2.6,2.6s-1.2,2.6-2.6,2.6s-2.6-1.2-2.6-2.6S195.6,47.6,197,47.6 M197,45.6
		c-2.5,0-4.6,2.1-4.6,4.6s2.1,4.6,4.6,4.6s4.6-2.1,4.6-4.6S199.5,45.6,197,45.6L197,45.6z"/>
</g>
<g>
	<text transform="matrix(1 0 0 1 67.1547 74.563)" class="st6 st11 st9">you pay</text>
</g>
<g>
	<text transform="matrix(1 0 0 1 176.8522 37.7793)" class="st6 st11 st9">you pay</text>
</g>
<line class="st4" x1="22.7" y1="12.5" x2="25.7" y2="12.5"/>
</svg>
