<?xml version="1.0" encoding="utf-8"?>
<!-- Generator: Adobe Illustrator 22.1.0, SVG Export Plug-In . SVG Version: 6.00 Build 0)  -->
<svg version="1.1" id="Layer_1" xmlns="http://www.w3.org/2000/svg" xmlns:xlink="http://www.w3.org/1999/xlink" x="0px" y="0px"
	 width="431px" height="124.3px" viewBox="0 0 431 124.3" style="enable-background:new 0 0 431 124.3;" xml:space="preserve">
<style type="text/css">
	.st0{fill:#0012FF;}
	.st1{enable-background:new    ;}
	.st2{fill:#009245;}
	.st3{fill:#999999;}
	.st4{fill:#737373;}
	.st5{fill:#0000FF;}
	.st6{fill:#FF8C00;}
	.st7{fill:#D2D2D2;}
	.st8{fill:none;stroke:#008272;stroke-width:3.57;stroke-miterlimit:10;}
	.st9{fill:#666666;}
</style>
<title>Asset 1</title>
<g>
	<path class="st0" d="M12.1,9.7l2,0.5c-0.5,1.6-1.2,2.8-2.3,3.6c-1,0.8-2.4,1.2-3.9,1.2C6.3,15,5,14.7,4,14.1
		c-1.1-0.6-1.8-1.6-2.3-2.8c-0.5-1-0.8-2.4-0.8-3.8c0-1.5,0.3-2.8,0.9-4c0.6-1.1,1.4-2,2.6-2.6S6.7,0,8,0c1.5,0,2.7,0.3,3.8,1.2
		c1.1,0.9,1.7,1.6,2,3.1l-2,0.5c-0.3-1.1-0.9-1.8-1.5-2.4C9.7,2,9,1.6,7.9,1.6C6.7,1.6,5.8,1.9,5,2.4C4.2,3,3.8,3.8,3.5,4.7
		C3.1,5.6,2.9,6.5,2.9,7.5c0,1.2,0.3,2.4,0.6,3.3c0.3,0.9,0.9,1.7,1.7,2.1c0.8,0.5,1.7,0.8,2.6,0.8c1,0,1.9-0.3,2.7-0.9
		C11.4,12,11.8,11.1,12.1,9.7z"/>
	<path class="st0" d="M15.5,9.6c0-1.9,0.6-3.4,1.7-4.3c0.9-0.8,2.1-1.2,3.3-1.2c1.5,0,2.7,0.5,3.6,1.5c0.9,0.9,1.3,2.3,1.3,3.9
		c0,1.3-0.2,2.4-0.6,3.3c-0.5,0.8-1,1.3-1.8,1.8s-1.7,0.6-2.5,0.6c-1.5,0-2.7-0.5-3.6-1.5C16,12.7,15.5,11.4,15.5,9.6z M17.4,9.6
		c0,1.3,0.3,2.4,0.9,3c0.6,0.6,1.3,1,2.3,1c0.9,0,1.6-0.3,2.3-1c0.6-0.8,0.9-1.8,0.9-3.1s-0.3-2.3-0.9-3c-0.6-0.8-1.4-1.1-2.3-1.1
		c-0.9,0-1.7,0.3-2.3,1.1C17.7,7.2,17.4,8.2,17.4,9.6z"/>
	<path class="st0" d="M27.7,15V0.3h1.8v5.3c0.9-1.1,1.9-1.5,3.1-1.5c0.8,0,1.5,0.1,2.1,0.4c0.6,0.3,0.9,0.8,1.2,1.3
		c0.3,0.6,0.4,1.4,0.4,2.4v6.7h-1.8V8.2c0-0.9-0.2-1.5-0.6-1.9c-0.5-0.5-1-0.8-1.6-0.8s-1.1,0.1-1.5,0.4c-0.5,0.3-0.9,0.8-1.1,1.2
		c-0.2,0.5-0.3,1.2-0.3,1.9v5.8C29.5,15,27.7,15,27.7,15z"/>
	<path class="st0" d="M38.4,9.6c0-1.9,0.6-3.4,1.6-4.3c0.9-0.8,2.1-1.2,3.3-1.2c1.5,0,2.7,0.5,3.6,1.5c1,0.9,1.5,2.3,1.5,3.9
		c0,1.3-0.1,2.4-0.6,3.3c-0.5,0.8-1.1,1.3-1.8,1.8c-0.7,0.5-1.6,0.6-2.5,0.6c-1.5,0-2.7-0.5-3.6-1.5C39,12.7,38.4,11.4,38.4,9.6z
		 M40.3,9.6c0,1.3,0.3,2.4,0.9,3c0.6,0.6,1.3,1,2.3,1s1.7-0.3,2.3-1s0.9-1.8,0.9-3.1s-0.3-2.3-0.9-3c-0.6-0.7-1.3-1.1-2.3-1.1
		s-1.7,0.3-2.3,1S40.3,8.2,40.3,9.6z"/>
	<path class="st0" d="M59.1,15L55.2,0.3h1.9l2.3,9.6c0.3,1,0.4,2,0.6,3c0.4-1.5,0.6-2.6,0.6-2.7l3-9.9H66l2.1,7.5
		c0.6,1.8,0.9,3.6,1.2,5.3c0.1-0.9,0.4-2,0.8-3.2l2.1-9.6h1.9L70,15h-1.9L65,3.7c-0.3-0.9-0.4-1.5-0.4-1.8c0,0.8-0.1,1.3-0.3,1.8
		L61.2,15C61.2,15,59.1,15,59.1,15z"/>
	<path class="st0" d="M75.7,2.2v-2h1.8v2.1h-1.8V2.2z M75.7,15V4.3h1.8v10.6C77.5,15,75.7,15,75.7,15z"/>
	<path class="st0" d="M80.2,15V4.3h1.6v1.5C82.6,4.6,83.7,4,85.2,4c0.6,0,1.2,0.1,1.8,0.3c0.6,0.3,0.9,0.6,1.2,0.9
		c0.3,0.3,0.4,0.8,0.6,1.3c0,0.3,0.1,0.9,0.1,1.8v6.6h-1.8V8.5c0-0.8,0-1.4-0.1-1.6c-0.1-0.3-0.4-0.6-0.8-0.9
		c-0.3-0.1-0.8-0.3-1.2-0.3c-0.8,0-1.5,0.3-1.9,0.8c-0.6,0.4-0.9,1.3-0.9,2.8v5.8L80.2,15L80.2,15z"/>
	<path class="st0" d="M99,11.5l1.8,0.3c-0.3,1-0.9,2-1.6,2.5c-0.7,0.5-1.8,0.9-3,0.9c-1.5,0-2.9-0.5-3.8-1.5
		c-0.9-0.9-1.4-2.3-1.4-4.1s0.4-3.1,1.4-4.2c0.9-1.1,2.1-1.5,3.6-1.5s2.5,0.4,3.5,1.5c1,0.9,1.5,2.3,1.5,4c0,0.2,0,0.3,0,0.5h-8
		c0,1.2,0.4,2.1,1.1,2.7c0.6,0.6,1.4,0.9,2.2,0.9c0.6,0,1.2-0.2,1.6-0.5C98.3,12.9,98.8,12.3,99,11.5z M93.1,8.5h6
		c-0.1-0.9-0.3-1.5-0.8-2c-0.6-0.8-1.4-1-2.3-1c-0.9,0-1.5,0.3-2.1,0.9C93.4,6.9,93.1,7.6,93.1,8.5z"/>
	<path class="st0" d="M103.2,15V4.3h1.6V6c0.5-0.8,0.8-1.2,1.2-1.5c0.3-0.3,0.8-0.3,1.2-0.3c0.6,0,1.2,0.1,1.8,0.6l-0.8,1.5
		c-0.5-0.3-0.9-0.5-1.4-0.5s-0.8,0.2-1,0.3c-0.3,0.3-0.6,0.6-0.6,1c-0.2,0.8-0.3,1.4-0.3,2.3v5.5L103.2,15L103.2,15z"/>
	<path class="st0" d="M109.9,19l-0.1-1.6c0.5,0.2,0.8,0.2,1,0.2c0.5,0,0.8,0,0.9-0.2c0.3-0.2,0.5-0.3,0.6-0.6
		c0.1-0.2,0.3-0.6,0.6-1.3c0-0.2,0.1-0.3,0.1-0.5l-4-10.6h1.9l2.3,6.1c0.3,0.7,0.6,1.6,0.8,2.4c0.1-0.9,0.5-1.7,0.8-2.4l2.3-6.2h1.8
		l-4,10.8c-0.5,1.2-0.8,2-1,2.4c-0.3,0.6-0.8,1-1,1.3c-0.5,0.3-0.9,0.5-1.5,0.5C110.8,19.3,110.3,19.2,109.9,19z"/>
	<path class="st0" d="M125.3,10.5V8.7h5.5v1.8H125.3z"/>
	<path class="st0" d="M0,17.8v-1.5h131.5v1.5C131.5,17.8,0,17.8,0,17.8z"/>
</g>
<g class="st1">
	<path class="st0" d="M131.5,17.8v-1.5h4.5v1.5C136,17.8,131.5,17.8,131.5,17.8z"/>
</g>
<g class="st1">
	<path class="st0" d="M136.2,15l5.5-14.7h2.1l6,14.7h-2.3l-1.6-4.5h-6.1l-1.7,4.5C138.1,15,136.2,15,136.2,15z M140.4,8.8h4.9
		l-1.5-4c-0.4-1.2-0.8-2.3-1-3c-0.2,0.9-0.5,2-0.8,2.9L140.4,8.8z"/>
	<path class="st0" d="M151.2,15V0.3h1.8V15C153,15,151.2,15,151.2,15z"/>
	<path class="st0" d="M155.8,15V0.3h1.8V15C157.6,15,155.8,15,155.8,15z"/>
	<path class="st0" d="M166,15V4.3h1.6V6c0.5-0.8,0.8-1.2,1.2-1.5c0.3-0.3,0.8-0.3,1.2-0.3c0.6,0,1.2,0.1,1.8,0.6l-0.6,1.5
		c-0.5-0.3-0.9-0.5-1.4-0.5c-0.4,0-0.8,0.2-1,0.3c-0.3,0.3-0.6,0.6-0.6,1c-0.1,0.6-0.3,1.4-0.3,2.1v5.5h-2V15
		C165.9,15,166,15,166,15z"/>
	<path class="st0" d="M180.2,11.5l1.8,0.3c-0.3,1-0.9,2-1.7,2.5c-0.8,0.5-1.8,0.9-3,0.9c-1.5,0-2.8-0.5-3.8-1.5
		c-0.9-0.9-1.3-2.3-1.3-4.1s0.5-3.1,1.3-4.2c0.9-1.1,2.1-1.5,3.6-1.5s2.5,0.4,3.5,1.5c0.9,0.9,1.3,2.4,1.3,4c0,0.2,0,0.3,0,0.5H174
		c0,1.2,0.4,2.1,1,2.7c0.6,0.6,1.4,0.9,2.3,0.9c0.6,0,1.2-0.2,1.7-0.5C179.7,12.9,180,12.3,180.2,11.5z M174.2,8.5h6
		c-0.1-0.9-0.3-1.5-0.8-2c-0.6-0.8-1.4-1-2.3-1c-0.9,0-1.5,0.3-2.1,0.9C174.7,6.9,174.4,7.6,174.2,8.5z"/>
	<path class="st0" d="M191.4,15v-1.3c-0.8,1-1.7,1.7-3,1.7c-0.9,0-1.7-0.3-2.4-0.7s-1.2-1-1.7-2c-0.4-0.9-0.6-1.8-0.6-2.8
		s0.2-2.1,0.6-2.9c0.3-0.9,0.9-1.5,1.7-1.9s1.5-0.8,2.4-0.8c0.6,0,1.2,0.2,1.6,0.5s0.9,0.6,1.2,1V0.4h1.8v14.7L191.4,15L191.4,15z
		 M185.5,9.6c0,1.3,0.3,2.4,0.9,3c0.6,0.8,1.2,1,2.1,1c0.8,0,1.5-0.3,2-0.9c0.6-0.6,0.9-1.7,0.9-3c0-1.5-0.3-2.6-0.9-3.1
		c-0.6-0.8-1.2-1.1-2.1-1.1c-0.8,0-1.5,0.3-2,1.1C185.8,7.2,185.5,8.2,185.5,9.6z"/>
	<path class="st0" d="M203.5,15l-3.3-10.6h1.8l1.7,6.1l0.6,2.3c0-0.2,0.2-0.9,0.6-2.3l1.7-6.3h1.8l1.6,6.2l0.6,2.1l0.6-2.1l1.8-6.1
		h1.8l-3.3,10.6h-1.9l-1.7-6.5l-0.4-1.8l-2.1,8.3L203.5,15L203.5,15z"/>
	<path class="st0" d="M216.4,2.2v-2h1.8v2.1h-1.8V2.2z M216.4,15V4.3h1.8v10.6C218.2,15,216.4,15,216.4,15z"/>
	<path class="st0" d="M220.9,15V4.3h1.7v1.5c0.8-1.2,1.9-1.8,3.4-1.8c0.6,0,1.2,0.1,1.8,0.3c0.6,0.3,0.9,0.6,1.2,0.9
		c0.3,0.3,0.5,0.8,0.6,1.3c0,0.3,0.1,0.9,0.1,1.8v6.6h-1.8V8.5c0-0.8,0-1.4-0.1-1.6c-0.2-0.3-0.5-0.6-0.8-0.9
		c-0.3-0.1-0.8-0.3-1.2-0.3c-0.8,0-1.5,0.3-2,0.8c-0.6,0.4-0.9,1.4-0.9,2.8v5.8L220.9,15L220.9,15z"/>
	<path class="st0" d="M239.7,11.5l1.8,0.3c-0.3,1-0.9,2-1.6,2.5s-1.8,0.9-3,0.9c-1.5,0-2.9-0.5-3.8-1.5c-0.9-0.9-1.4-2.3-1.4-4.1
		s0.5-3.1,1.4-4.2s2.1-1.5,3.6-1.5s2.6,0.4,3.5,1.5c0.9,0.9,1.3,2.4,1.3,4c0,0.2,0,0.3,0,0.5h-7.9c0,1.2,0.4,2.1,1,2.7
		s1.3,0.9,2.3,0.9c0.6,0,1.2-0.2,1.7-0.5C239.1,12.9,239.5,12.3,239.7,11.5z M233.8,8.5h6c-0.2-0.9-0.3-1.5-0.8-2
		c-0.6-0.8-1.4-1-2.3-1c-0.9,0-1.5,0.3-2.1,0.9C234.1,6.9,233.8,7.6,233.8,8.5z"/>
	<path class="st0" d="M243.1,11.8l1.8-0.3c0.2,0.8,0.5,1.2,0.9,1.7s1.1,0.6,1.9,0.6c0.9,0,1.5-0.2,1.8-0.5c0.4-0.3,0.6-0.8,0.6-1.2
		s-0.2-0.8-0.6-0.9c-0.3-0.2-0.9-0.3-1.8-0.6c-1.3-0.3-2.3-0.6-2.7-0.9c-0.4-0.3-0.9-0.6-1.2-1.1c-0.3-0.4-0.5-0.9-0.5-1.5
		c0-0.4,0.2-0.9,0.3-1.3c0.2-0.5,0.5-0.8,0.9-1.1c0.3-0.1,0.6-0.4,1.2-0.6c0.4-0.1,1.1-0.1,1.5-0.1c0.9,0,1.5,0.1,2.3,0.3
		c0.8,0.1,1.1,0.6,1.3,1s0.5,0.9,0.6,1.6l-1.8,0.3c-0.1-0.6-0.3-1.1-0.8-1.4c-0.4-0.3-0.9-0.4-1.6-0.4c-0.9,0-1.4,0.1-1.8,0.4
		c-0.3,0.3-0.6,0.6-0.6,0.9c0,0.3,0,0.5,0.2,0.6s0.4,0.3,0.8,0.5c0.2,0,0.8,0.1,1.7,0.4c1.3,0.3,2.1,0.6,2.7,0.9
		c0.4,0.2,0.9,0.6,1.2,0.9c0.3,0.5,0.4,0.9,0.4,1.5s-0.1,1.2-0.6,1.7c-0.3,0.6-0.9,0.9-1.5,1.2c-0.6,0.3-1.4,0.5-2.3,0.5
		c-1.4,0-2.4-0.3-3.2-0.9C243.9,13.8,243.4,12.9,243.1,11.8z"/>
	<path class="st0" d="M259.2,9.6c0-1.9,0.6-3.4,1.7-4.3c0.9-0.8,2.1-1.2,3.3-1.2c1.5,0,2.7,0.5,3.6,1.5c0.9,0.9,1.4,2.3,1.4,4.1
		c0,1.3-0.2,2.4-0.6,3.3c-0.4,0.8-1,1.3-1.8,1.8s-1.7,0.6-2.5,0.6c-1.5,0-2.7-0.5-3.6-1.5C259.6,12.7,259.2,11.4,259.2,9.6z
		 M261.1,9.6c0,1.3,0.3,2.4,0.9,3c0.6,0.6,1.4,1,2.3,1c0.9,0,1.7-0.3,2.3-1c0.6-0.8,0.9-1.8,0.9-3.1s-0.3-2.3-0.9-3
		c-0.6-0.8-1.3-1.1-2.3-1.1c-0.9,0-1.6,0.3-2.3,1.1C261.4,7.2,261.1,8.2,261.1,9.6z"/>
	<path class="st0" d="M271.3,15V4.3h1.6v1.5c0.8-1.2,2-1.8,3.5-1.8c0.6,0,1.2,0.1,1.8,0.3c0.6,0.3,0.9,0.6,1.2,0.9
		c0.3,0.3,0.5,0.8,0.6,1.3c0,0.3,0.2,0.9,0.2,1.8v6.6h-1.8V8.5c0-0.8,0-1.4-0.2-1.6c-0.1-0.3-0.4-0.6-0.8-0.9
		c-0.3-0.1-0.8-0.3-1.2-0.3c-0.8,0-1.5,0.3-1.9,0.8c-0.5,0.4-0.9,1.3-0.9,2.8v5.8L271.3,15L271.3,15z"/>
	<path class="st0" d="M287.8,11.8l1.8-0.3c0.2,0.8,0.5,1.2,0.9,1.7s1.1,0.6,1.9,0.6c0.9,0,1.5-0.2,1.8-0.5c0.4-0.3,0.6-0.8,0.6-1.2
		s-0.2-0.8-0.6-0.9c-0.3-0.2-0.9-0.3-1.8-0.6c-1.3-0.3-2.3-0.6-2.7-0.9c-0.4-0.3-0.9-0.6-1.2-1.1c-0.3-0.4-0.5-0.9-0.5-1.5
		c0-0.4,0.2-0.9,0.3-1.3c0.2-0.5,0.5-0.8,0.9-1.1c0.3-0.1,0.6-0.4,1.2-0.6c0.4-0.1,1.1-0.1,1.5-0.1c0.9,0,1.5,0.1,2.3,0.3
		c0.8,0.1,1.1,0.6,1.3,1s0.5,0.9,0.6,1.6l-1.8,0.3c-0.1-0.6-0.3-1.1-0.8-1.4c-0.4-0.3-0.9-0.4-1.6-0.4c-0.9,0-1.4,0.1-1.8,0.4
		c-0.3,0.3-0.6,0.6-0.6,0.9c0,0.3,0,0.5,0.2,0.6s0.4,0.3,0.8,0.5c0.2,0,0.8,0.1,1.7,0.4c1.3,0.3,2.1,0.6,2.7,0.9
		c0.4,0.2,0.9,0.6,1.2,0.9c0.3,0.5,0.4,0.9,0.4,1.5s-0.1,1.2-0.6,1.7c-0.3,0.6-0.9,0.9-1.5,1.2c-0.6,0.3-1.4,0.5-2.3,0.5
		c-1.4,0-2.4-0.3-3.2-0.9C288.4,13.8,287.9,12.9,287.8,11.8z"/>
	<path class="st0" d="M305.7,13.6c-0.6,0.6-1.3,0.9-2,1.2c-0.6,0.3-1.3,0.3-1.9,0.3c-1.2,0-2.1-0.3-2.7-0.9
		c-0.6-0.6-0.9-1.3-0.9-2.3c0-0.5,0.2-1,0.3-1.5c0.1-0.5,0.6-0.8,0.9-1.1c0.5-0.3,0.8-0.4,1.3-0.6c0.3-0.2,0.9-0.2,1.7-0.3
		c1.5-0.1,2.5-0.4,3.3-0.6c0-0.3,0-0.4,0-0.4c0-0.8-0.1-1.2-0.4-1.5c-0.4-0.5-1.2-0.6-2.1-0.6c-0.9,0-1.5,0.1-2,0.5
		c-0.4,0.3-0.8,0.9-0.9,1.6l-1.8-0.1c0.2-0.8,0.5-1.3,0.8-1.8s0.9-0.8,1.7-1.1c0.8-0.3,1.5-0.4,2.4-0.4c0.9,0,1.7,0.1,2.3,0.3
		s1.1,0.5,1.2,0.8c0.3,0.3,0.5,0.8,0.6,1.2c0,0.3,0.2,0.9,0.2,1.6v2.4c0,1.7,0,2.7,0.2,3.1c0.2,0.5,0.3,0.9,0.4,1.3h-1.9
		C305.9,14.5,305.8,14.1,305.7,13.6z M305.5,9.6c-0.6,0.3-1.7,0.5-3,0.8c-0.8,0.2-1.2,0.3-1.7,0.3c-0.3,0.2-0.6,0.3-0.8,0.6
		c-0.2,0.3-0.2,0.5-0.2,0.8c0,0.5,0.1,0.9,0.6,1.2c0.3,0.3,0.9,0.5,1.7,0.5s1.3-0.2,1.8-0.5c0.6-0.3,0.9-0.8,1.2-1.2
		c0.1-0.5,0.3-1,0.3-1.8V9.5h0.1V9.6L305.5,9.6z"/>
	<path class="st0" d="M310.2,15V0.3h1.8V15C312,15,310.2,15,310.2,15z"/>
	<path class="st0" d="M322.2,11.5l1.8,0.3c-0.3,1-0.9,2-1.6,2.5s-1.8,0.9-3,0.9c-1.5,0-2.9-0.5-3.8-1.5c-0.9-0.9-1.4-2.3-1.4-4.1
		s0.5-3.1,1.4-4.2c0.9-1.1,2.1-1.5,3.6-1.5s2.6,0.4,3.5,1.5c0.9,0.9,1.3,2.4,1.3,4c0,0.2,0,0.3,0,0.5h-7.9c0,1.2,0.4,2.1,1,2.7
		s1.3,0.9,2.3,0.9c0.6,0,1.2-0.2,1.7-0.5C321.4,12.9,321.9,12.3,322.2,11.5z M316.2,8.5h6c-0.2-0.9-0.3-1.5-0.8-2
		c-0.6-0.8-1.3-1-2.3-1s-1.5,0.3-2.1,0.9C316.4,6.9,316.2,7.6,316.2,8.5z"/>
	<path class="st0" d="M327.2,11.2l-0.6-7.8V0.2h2.3v3.3l-0.5,7.8L327.2,11.2L327.2,11.2z M326.7,15v-2.1h2.1V15H326.7z"/>
	<path class="st0" d="M136.2,17.8v-1.5h194.4v1.5C330.6,17.8,136.2,17.8,136.2,17.8z"/>
</g>
<g class="st1">
	<path class="st2" d="M25.3,38.2l1.3,0.2c-0.1,1.1-0.6,1.8-1.2,2.3c-0.6,0.6-1.5,0.9-2.4,0.9c-1.2,0-2.1-0.4-2.8-1.2s-1-1.8-1-3.3
		c0-0.9,0.2-1.8,0.5-2.4c0.3-0.8,0.8-1.2,1.3-1.5c0.5-0.3,1.3-0.4,2.1-0.4c0.9,0,1.7,0.3,2.3,0.8s0.9,1.2,1.2,1.9l-1.4,0.1
		c-0.1-0.6-0.3-1.1-0.8-1.3c-0.3-0.3-0.8-0.4-1.2-0.4c-0.8,0-1.4,0.3-1.8,0.8c-0.4,0.4-0.8,1.3-0.8,2.6c0,1.2,0.2,1.9,0.6,2.6
		c0.4,0.6,1,0.8,1.6,0.8s1.1-0.2,1.4-0.4C25,39.6,25.3,39,25.3,38.2z"/>
	<path class="st2" d="M27.5,37.2c0-1.7,0.5-2.7,1.3-3.4c0.8-0.6,1.7-0.9,2.7-0.9c1.2,0,2.1,0.4,2.8,1.2c0.7,0.8,1.1,1.8,1.1,3.2
		c0,1.1-0.2,1.9-0.5,2.6c-0.3,0.6-0.8,1.1-1.5,1.5c-0.7,0.4-1.3,0.4-2.1,0.4c-1.2,0-2.1-0.4-2.8-1.2C27.9,39.7,27.5,38.5,27.5,37.2z
		 M29,37.2c0,1.1,0.3,1.9,0.8,2.4c0.5,0.6,1.1,0.8,1.8,0.8s1.3-0.3,1.8-0.8c0.5-0.6,0.8-1.3,0.8-2.6c0-1.1-0.3-1.8-0.8-2.4
		c-0.4-0.6-1-0.8-1.8-0.8s-1.3,0.3-1.8,0.8C29.2,35.2,29,36,29,37.2z"/>
	<path class="st2" d="M37.1,41.4V29.5h1.5v4.2c0.8-0.8,1.5-1.2,2.6-1.2c0.6,0,1.2,0.2,1.7,0.3c0.4,0.3,0.8,0.6,1,1.1
		c0.2,0.4,0.3,1.1,0.3,1.9v5.4h-1.5v-5.4c0-0.8-0.2-1.2-0.5-1.6c-0.3-0.3-0.8-0.4-1.3-0.4c-0.4,0-0.9,0.2-1.2,0.3
		c-0.3,0.2-0.6,0.7-0.8,1c-0.2,0.3-0.3,0.9-0.3,1.7v4.6C38.6,41.4,37.1,41.4,37.1,41.4z"/>
	<path class="st2" d="M45.9,37.2c0-1.7,0.4-2.7,1.3-3.4c0.8-0.6,1.6-0.9,2.7-0.9c1.2,0,2.1,0.4,2.9,1.2c0.8,0.8,1.1,1.8,1.1,3.2
		c0,1.1-0.1,1.9-0.4,2.6c-0.3,0.6-0.8,1.1-1.5,1.5c-0.7,0.4-1.4,0.4-2.1,0.4c-1.2,0-2.1-0.4-2.9-1.2C46.2,39.7,45.9,38.5,45.9,37.2z
		 M47.4,37.2c0,1.1,0.3,1.9,0.7,2.4c0.4,0.6,1.1,0.8,1.8,0.8c0.7,0,1.4-0.3,1.8-0.8c0.4-0.6,0.8-1.3,0.8-2.6c0-1.1-0.3-1.8-0.8-2.4
		c-0.4-0.6-1.1-0.8-1.8-0.8c-0.7,0-1.4,0.3-1.8,0.8C47.5,35.2,47.4,36,47.4,37.2z"/>
	<path class="st2" d="M57.1,41.4l-2.6-8.5H56l1.4,4.9l0.4,1.8c0-0.1,0.1-0.8,0.4-1.8l1.4-4.9h1.5l1.4,4.9l0.4,1.7l0.4-1.7l1.5-4.9
		h1.4l-2.7,8.6H62l-1.4-5.1l-0.3-1.5l-1.8,6.6L57.1,41.4L57.1,41.4z"/>
	<path class="st2" d="M67.5,31.3v-1.7H69v1.7H67.5z M67.5,41.4v-8.5H69v8.6C69,41.4,67.5,41.4,67.5,41.4z"/>
	<path class="st2" d="M71.1,41.4v-8.5h1.4v1.2c0.6-0.9,1.5-1.3,2.7-1.3c0.4,0,1.1,0.2,1.4,0.3c0.4,0.2,0.8,0.4,0.9,0.8
		c0.1,0.4,0.3,0.6,0.4,1.1c0,0.3,0.1,0.8,0.1,1.3v5.3h-1.5v-5.3c0-0.6,0-1.1-0.1-1.3c-0.1-0.3-0.3-0.4-0.6-0.8
		c-0.3-0.4-0.6-0.3-1.1-0.3c-0.6,0-1.2,0.2-1.6,0.6c-0.4,0.4-0.6,1.2-0.6,2.2v4.7H71.1L71.1,41.4z"/>
	<path class="st2" d="M86.1,38.7l1.5,0.1c-0.3,0.9-0.6,1.5-1.4,2.1c-0.6,0.4-1.5,0.8-2.4,0.8c-1.2,0-2.3-0.4-3-1.2
		c-0.7-0.8-1-1.8-1-3.3s0.3-2.6,1-3.3s1.6-1.2,2.9-1.2c1.2,0,2.1,0.4,2.9,1.2c0.8,0.8,1.1,1.8,1.1,3.3c0,0.1,0,0.1,0,0.4h-6.4
		c0,0.9,0.3,1.6,0.8,2.1s1.1,0.8,1.8,0.8c0.6,0,1.1-0.1,1.4-0.4C85.6,39.7,85.9,39.3,86.1,38.7z M81.3,36.3h4.8
		c0-0.8-0.3-1.2-0.6-1.6c-0.4-0.6-1.1-0.9-1.8-0.9c-0.6,0-1.2,0.2-1.6,0.6C81.6,34.9,81.4,35.5,81.3,36.3z"/>
	<path class="st2" d="M89.3,41.4v-8.5h1.4v1.3c0.3-0.6,0.6-1.1,0.9-1.2c0.3-0.2,0.6-0.3,0.9-0.3c0.4,0,1.1,0.2,1.5,0.4l-0.4,1.3
		c-0.3-0.2-0.8-0.3-1.1-0.3s-0.6,0.2-0.9,0.3c-0.3,0.1-0.4,0.4-0.6,0.7c-0.1,0.4-0.3,1.1-0.3,1.7v4.5L89.3,41.4L89.3,41.4z"/>
</g>
<g class="st1">
	<path class="st2" d="M94.8,44.7l-0.1-1.4c0.3,0.2,0.6,0.2,0.9,0.2c0.3,0,0.6,0,0.7-0.2c0.1-0.1,0.3-0.3,0.5-0.4
		c0.1-0.1,0.3-0.4,0.5-1.1c0-0.1,0-0.1,0.1-0.3l-3.3-8.6h1.5l1.9,4.8c0.3,0.6,0.5,1.4,0.6,1.9c0.1-0.6,0.3-1.3,0.6-1.9l1.8-4.9h1.5
		l-3.3,8.7c-0.3,0.9-0.6,1.7-0.8,1.9c-0.3,0.4-0.6,0.9-0.9,1.1c-0.3,0.2-0.8,0.3-1.2,0.3C95.5,44.8,95.2,44.8,94.8,44.7z"/>
</g>
<g class="st1">
	<path class="st2" d="M102.2,41.4v-1.7h1.6v1.7H102.2z"/>
	<path class="st2" d="M112,38.2l1.4,0.2c-0.1,1.1-0.6,1.8-1.2,2.3c-0.6,0.6-1.5,0.9-2.4,0.9c-1.2,0-2.1-0.4-2.9-1.2s-1-1.8-1-3.3
		c0-0.9,0.1-1.8,0.5-2.4c0.3-0.6,0.8-1.2,1.4-1.5c0.6-0.3,1.4-0.4,2.1-0.4c0.9,0,1.6,0.3,2.3,0.8c0.7,0.5,0.9,1.2,1.2,1.9l-1.4,0.1
		c-0.1-0.6-0.3-1.1-0.8-1.3c-0.3-0.3-0.8-0.4-1.2-0.4c-0.8,0-1.4,0.3-1.8,0.8c-0.4,0.5-0.8,1.3-0.8,2.6c0,1.2,0.1,1.9,0.6,2.6
		s1,0.8,1.6,0.8s1-0.2,1.4-0.4C111.7,39.6,112,39,112,38.2z"/>
	<path class="st2" d="M114.1,37.2c0-1.7,0.5-2.7,1.4-3.4c0.8-0.6,1.6-0.9,2.7-0.9c1.2,0,2.1,0.4,2.9,1.2c0.8,0.8,1,1.8,1,3.2
		c0,1.1-0.1,1.9-0.5,2.6c-0.3,0.6-0.8,1.1-1.5,1.5c-0.7,0.4-1.4,0.4-2.1,0.4c-1.2,0-2.1-0.4-2.9-1.2
		C114.6,39.7,114.1,38.5,114.1,37.2z M115.6,37.2c0,1.1,0.3,1.9,0.8,2.4c0.5,0.6,1,0.8,1.8,0.8c0.8,0,1.4-0.3,1.8-0.8
		c0.5-0.6,0.8-1.3,0.8-2.6c0-1.1-0.3-1.8-0.8-2.4s-1-0.8-1.8-0.8c-0.8,0-1.4,0.3-1.8,0.8C115.9,35.2,115.6,36,115.6,37.2z"/>
	<path class="st2" d="M123.8,41.4v-8.5h1.4v1.2c0.3-0.4,0.6-0.8,1-1.1c0.5-0.3,0.9-0.4,1.5-0.4s1.2,0.2,1.5,0.4
		c0.3,0.2,0.8,0.6,0.9,1.1c0.8-1.1,1.5-1.5,2.7-1.5c0.9,0,1.5,0.3,2,0.8s0.8,1.2,0.8,2.1v5.8h-1.5v-5.4c0-0.6,0-1.1-0.1-1.2
		c-0.1-0.3-0.3-0.4-0.5-0.6c-0.3-0.2-0.6-0.3-0.9-0.3c-0.6,0-1,0.2-1.5,0.6c-0.5,0.4-0.6,1.1-0.6,2v4.9H129v-5.6
		c0-0.6-0.1-1.2-0.3-1.5c-0.3-0.3-0.6-0.4-1.2-0.4c-0.5,0-0.8,0.2-1.2,0.3c-0.4,0.1-0.6,0.6-0.8,0.9s-0.3,1.1-0.3,1.8v4.5
		L123.8,41.4L123.8,41.4z"/>
	<path class="st2" d="M141.6,37.9v-1.5h4.5v1.5H141.6z"/>
	<path class="st2" d="M151.9,35.7c0-1.9,0.6-3.4,1.6-4.7c1.1-1.1,2.4-1.7,4.1-1.7c1,0,2.1,0.3,3,0.8c0.9,0.4,1.5,1.2,1.9,2.3
		c0.5,0.9,0.8,1.9,0.8,3.1s-0.3,2.3-0.8,3.2c-0.4,0.9-1.2,1.6-2.1,2.1c-0.9,0.5-1.8,0.8-2.8,0.8s-2.1-0.3-3-0.8
		c-0.9-0.4-1.5-1.2-2-2.3C152.2,37.6,151.9,36.7,151.9,35.7z M153.6,35.7c0,1.3,0.5,2.6,1.2,3.3c0.7,0.7,1.6,1.2,2.8,1.2
		s2.1-0.4,2.8-1.2c0.7-0.8,1.2-1.9,1.2-3.4c0-0.9-0.2-1.8-0.5-2.6c-0.3-0.8-0.8-1.2-1.3-1.7s-1.3-0.6-2.1-0.6
		c-1.1,0-2.1,0.4-2.9,1.2S153.6,33.9,153.6,35.7z"/>
</g>
<g class="st1">
	<path class="st2" d="M165.4,41.4v-7.3H164v-1.2h1.4v-1c0-0.6,0-1.1,0.1-1.3c0.2-0.3,0.5-0.8,0.8-0.9c0.3-0.3,0.9-0.3,1.5-0.3
		c0.5,0,0.9,0,1.4,0.2l-0.1,1.2c-0.3,0-0.6-0.2-0.9-0.2c-0.5,0-0.8,0.2-0.9,0.3c-0.1,0.2-0.3,0.6-0.3,1.1v0.8h1.6v1.1H167v7.3h-1.5
		C165.4,41.2,165.4,41.4,165.4,41.4z"/>
</g>
<g class="st1">
	<path class="st2" d="M169.6,41.4v-7.3h-1.4v-1.2h1.4v-1c0-0.6,0-1.1,0.1-1.3c0.1-0.3,0.5-0.8,0.8-0.9c0.3-0.3,0.9-0.3,1.5-0.3
		c0.5,0,0.9,0,1.4,0.2l-0.2,1.2c-0.3,0-0.6-0.2-0.9-0.2c-0.4,0-0.8,0.2-0.9,0.3s-0.3,0.6-0.3,1.1v0.8h1.7v1.1h-1.7v7.3h-1.5V41.4z"
		/>
	<path class="st2" d="M173.8,31.3v-1.7h1.5v1.7H173.8z M173.8,41.4v-8.5h1.5v8.6C175.3,41.4,173.8,41.4,173.8,41.4z"/>
	<path class="st2" d="M183.1,38.2l1.3,0.2c-0.2,1.1-0.6,1.8-1.2,2.3c-0.6,0.6-1.5,0.9-2.4,0.9c-1.2,0-2.1-0.4-2.9-1.2s-1-1.8-1-3.3
		c0-0.9,0.2-1.8,0.5-2.4c0.3-0.6,0.8-1.2,1.4-1.5c0.6-0.3,1.3-0.4,2.1-0.4c0.9,0,1.7,0.3,2.3,0.8s0.9,1.2,1.2,1.9l-1.4,0.1
		c-0.1-0.6-0.3-1.1-0.8-1.3c-0.3-0.3-0.8-0.4-1.2-0.4c-0.8,0-1.4,0.3-1.8,0.8c-0.4,0.4-0.8,1.3-0.8,2.6c0,1.2,0.2,1.9,0.6,2.6
		s1,0.8,1.6,0.8c0.6,0,1.1-0.2,1.4-0.4C182.8,39.6,183,39,183.1,38.2z"/>
	<path class="st2" d="M185.8,31.3v-1.7h1.5v1.7H185.8z M185.8,41.4v-8.5h1.5v8.6C187.3,41.4,185.8,41.4,185.8,41.4z"/>
	<path class="st2" d="M195,40.3c-0.6,0.4-1,0.8-1.5,0.9c-0.5,0.1-1,0.3-1.7,0.3c-0.9,0-1.6-0.3-2.1-0.8s-0.8-1.1-0.8-1.8
		c0-0.4,0.2-0.8,0.3-1.2c0.1-0.3,0.5-0.6,0.8-0.9c0.3-0.1,0.6-0.3,1-0.4c0.3,0,0.8-0.1,1.3-0.1c1.2-0.2,2.1-0.3,2.5-0.4
		c0-0.2,0-0.3,0-0.4c0-0.6-0.2-1.1-0.5-1.2c-0.3-0.3-0.9-0.4-1.7-0.4c-0.8,0-1.2,0.2-1.5,0.3c-0.3,0.1-0.6,0.6-0.8,1.2l-1.3-0.2
		c0.1-0.6,0.3-1.1,0.6-1.5c0.3-0.3,0.8-0.6,1.3-0.9c0.6-0.2,1.2-0.3,1.9-0.3c0.7,0,1.3,0.2,1.8,0.3c0.5,0.1,0.8,0.4,1,0.6
		c0.2,0.3,0.3,0.6,0.5,1.1c0,0.3,0,0.7,0,1.3v2.1c0,1.4,0,2.3,0.2,2.6c0.2,0.3,0.2,0.8,0.3,1.1h-1.5C195.1,41.1,195.1,40.8,195,40.3
		z M194.8,37.2c-0.6,0.1-1.3,0.4-2.4,0.6c-0.6,0.2-1,0.2-1.2,0.3c-0.3,0.2-0.5,0.3-0.6,0.4c-0.1,0.1-0.1,0.4-0.1,0.8
		c0,0.4,0.2,0.8,0.5,0.9c0.3,0.1,0.8,0.4,1.3,0.4s1-0.2,1.5-0.3c0.5-0.3,0.8-0.6,0.9-1.1c0.2-0.3,0.3-0.8,0.3-1.5L194.8,37.2
		L194.8,37.2z"/>
	<path class="st2" d="M198.5,41.4V29.5h1.5v11.8L198.5,41.4L198.5,41.4z"/>
	<path class="st2" d="M206.2,38.8l1.5-0.3c0.2,0.6,0.3,1.1,0.6,1.4c0.3,0.3,0.9,0.4,1.5,0.4s1.2-0.2,1.5-0.4
		c0.3-0.3,0.4-0.6,0.4-0.9s-0.2-0.6-0.4-0.8c-0.2-0.1-0.8-0.3-1.5-0.4c-1.1-0.3-1.8-0.4-2.3-0.8c-0.5-0.1-0.8-0.4-0.9-0.8
		c-0.1-0.3-0.3-0.8-0.3-1.2c0-0.4,0.2-0.7,0.3-1.1c0.2-0.3,0.5-0.6,0.8-0.8c0.2-0.2,0.6-0.3,0.9-0.4c0.3-0.1,0.8-0.2,1.2-0.2
		c0.6,0,1.2,0.2,1.8,0.3c0.4,0.2,0.9,0.4,1,0.8c0.3,0.3,0.5,0.8,0.5,1.3l-1.4,0.2c0-0.4-0.3-0.8-0.6-1.1c-0.3-0.3-0.8-0.3-1.4-0.3
		c-0.6,0-1.2,0.2-1.3,0.3c-0.3,0.2-0.5,0.4-0.5,0.8c0,0.1,0,0.3,0.2,0.4c0.2,0.1,0.3,0.3,0.6,0.4c0.2,0,0.6,0.1,1.3,0.3
		c1.1,0.3,1.8,0.4,2.1,0.6c0.5,0.2,0.8,0.4,0.9,0.8c0.1,0.4,0.3,0.8,0.3,1.2s-0.2,0.9-0.5,1.4s-0.8,0.8-1.2,1.1
		c-0.4,0.3-1.2,0.3-1.8,0.3c-1,0-2-0.3-2.5-0.8C206.8,40.5,206.4,39.7,206.2,38.8z"/>
	<path class="st2" d="M215.1,31.3v-1.7h1.5v1.7H215.1z M215.1,41.4v-8.5h1.5v8.6C216.6,41.4,215.1,41.4,215.1,41.4z"/>
	<path class="st2" d="M221.8,40l0.1,1.4c-0.4,0.1-0.8,0.1-1,0.1c-0.6,0-0.9-0.1-1.2-0.3c-0.3-0.1-0.4-0.4-0.6-0.6
		c-0.2-0.3-0.2-0.9-0.2-1.7V34h-1v-1.2h1v-2.1l1.5-0.9v3h1.5V34h-1.5v4.9c0,0.4,0,0.8,0.2,0.8c0,0.2,0.1,0.2,0.3,0.3
		c0.2,0,0.3,0.2,0.5,0.2C221.4,40.2,221.7,40.2,221.8,40z"/>
	<path class="st2" d="M229.2,38.7l1.5,0.1c-0.3,0.9-0.6,1.5-1.3,2.1c-0.6,0.4-1.5,0.8-2.4,0.8c-1.2,0-2.3-0.4-3-1.2
		c-0.7-0.8-1-1.8-1-3.3s0.3-2.6,1-3.3s1.7-1.2,2.8-1.2c1.2,0,2.1,0.4,2.8,1.2s1,1.8,1,3.3c0,0.1,0,0.1,0,0.4h-6.3
		c0,0.9,0.3,1.6,0.8,2.1s1,0.8,1.8,0.8c0.6,0,1.1-0.1,1.4-0.4C228.6,39.7,228.9,39.3,229.2,38.7z M224.4,36.3h4.8
		c0-0.8-0.3-1.2-0.6-1.6c-0.4-0.6-1.1-0.9-1.8-0.9c-0.6,0-1.2,0.2-1.6,0.6C224.7,34.8,224.5,35.5,224.4,36.3z"/>
</g>
<g class="st1">
	<path class="st3" d="M250.2,37.3l1.5,0.4c-0.3,1.4-0.9,2.3-1.8,3c-0.9,0.6-2,1.1-3.2,1.1s-2.3-0.3-3.1-0.8
		c-0.8-0.4-1.4-1.2-1.8-2.3s-0.6-2.1-0.6-3.1c0-1.2,0.3-2.3,0.8-3.2c0.5-0.9,1.2-1.7,2-2.1s1.8-0.8,2.8-0.8c1.2,0,2.1,0.3,3,0.9
		c0.9,0.6,1.4,1.5,1.7,2.6l-1.5,0.3c-0.3-0.9-0.6-1.5-1.2-1.8c-0.5-0.4-1.2-0.6-2-0.6c-0.9,0-1.6,0.2-2.3,0.6
		c-0.6,0.4-1,1.1-1.3,1.8c-0.3,0.8-0.3,1.5-0.3,2.2c0,1.1,0.2,1.9,0.4,2.7c0.3,0.8,0.8,1.4,1.4,1.7c0.6,0.3,1.3,0.6,1.9,0.6
		c0.9,0,1.7-0.3,2.3-0.8C249.6,39,250,38.2,250.2,37.3z"/>
	<path class="st3" d="M253,37.2c0-1.7,0.4-2.7,1.3-3.4c0.8-0.6,1.7-0.9,2.7-0.9c1.2,0,2.1,0.4,2.8,1.2c0.7,0.8,1.1,1.8,1.1,3.2
		c0,1.1-0.2,1.9-0.4,2.6c-0.3,0.6-0.8,1.1-1.5,1.5c-0.7,0.4-1.4,0.4-2.1,0.4c-1.2,0-2.1-0.4-2.8-1.2C253.3,39.7,253,38.5,253,37.2z
		 M254.5,37.2c0,1.1,0.3,1.9,0.8,2.4c0.4,0.6,1.1,0.8,1.8,0.8s1.3-0.3,1.8-0.8c0.5-0.6,0.8-1.3,0.8-2.6c0-1.1-0.3-1.8-0.8-2.4
		s-1-0.8-1.8-0.8s-1.4,0.3-1.8,0.8C254.7,35.2,254.5,36,254.5,37.2z"/>
	<path class="st3" d="M262.6,41.4V29.5h1.5v4.2c0.8-0.8,1.5-1.2,2.5-1.2c0.6,0,1.2,0.2,1.7,0.3c0.4,0.3,0.8,0.6,1.1,1.1
		c0.3,0.5,0.3,1.1,0.3,1.9v5.4h-1.5v-5.4c0-0.8-0.2-1.2-0.5-1.6c-0.3-0.3-0.8-0.4-1.3-0.4s-0.9,0.2-1.2,0.3
		c-0.3,0.1-0.6,0.4-0.8,0.9c-0.2,0.5-0.3,0.9-0.3,1.7v4.6L262.6,41.4L262.6,41.4z"/>
	<path class="st3" d="M271.3,37.2c0-1.7,0.4-2.7,1.3-3.4c0.8-0.6,1.7-0.9,2.7-0.9c1.2,0,2.1,0.4,2.8,1.2c0.7,0.8,1.1,1.8,1.1,3.2
		c0,1.1-0.2,1.9-0.5,2.6c-0.3,0.7-0.8,1.1-1.5,1.5c-0.7,0.4-1.3,0.4-2.1,0.4c-1.2,0-2.1-0.4-2.8-1.2
		C271.6,39.7,271.3,38.5,271.3,37.2z M272.8,37.2c0,1.1,0.3,1.9,0.8,2.4c0.4,0.6,1,0.8,1.8,0.8c0.8,0,1.3-0.3,1.8-0.8
		c0.5-0.6,0.8-1.3,0.8-2.6c0-1.1-0.3-1.8-0.8-2.4c-0.4-0.6-1-0.8-1.8-0.8c-0.8,0-1.3,0.3-1.8,0.8C272.9,35.2,272.8,36,272.8,37.2z"
		/>
	<path class="st3" d="M287.8,41.4l-3.2-11.8h1.7l1.8,7.8c0.2,0.8,0.3,1.7,0.5,2.4c0.3-1.2,0.4-1.9,0.6-2.3l2.3-8h2l1.7,6
		c0.4,1.5,0.8,2.9,0.9,4.2c0.2-0.8,0.3-1.6,0.6-2.6l1.8-7.5h1.5l-3.3,11.8h-1.5l-2.6-9c-0.1-0.8-0.3-1.2-0.3-1.3
		c-0.2,0.6-0.3,1.1-0.3,1.3l-2.6,9H287.8L287.8,41.4z"/>
	<path class="st3" d="M301.2,31.3v-1.7h1.5v1.7H301.2z M301.2,41.4v-8.5h1.5v8.6C302.7,41.4,301.2,41.4,301.2,41.4z"/>
	<path class="st3" d="M304.7,41.4v-8.5h1.3v1.2c0.6-0.9,1.5-1.3,2.7-1.3c0.4,0,1,0.2,1.3,0.3c0.5,0.2,0.8,0.4,0.9,0.8
		c0.1,0.3,0.3,0.6,0.4,1.1c0,0.3,0.2,0.8,0.2,1.3v5.3H310v-5.3c0-0.6,0-1.1-0.2-1.3c-0.2-0.3-0.3-0.4-0.6-0.8
		c-0.3-0.4-0.6-0.3-1-0.3c-0.6,0-1.2,0.2-1.7,0.6c-0.4,0.4-0.6,1.2-0.6,2.2v4.7H304.7L304.7,41.4z"/>
	<path class="st3" d="M319.7,38.7l1.5,0.1c-0.3,0.9-0.6,1.5-1.3,2.1c-0.6,0.4-1.5,0.8-2.4,0.8c-1.2,0-2.3-0.4-3-1.2
		c-0.7-0.8-1.1-1.8-1.1-3.3s0.3-2.6,1.1-3.3s1.7-1.2,2.8-1.2c1.2,0,2.1,0.4,2.8,1.2s1.1,1.8,1.1,3.3c0,0.1,0,0.1,0,0.4h-6.3
		c0,0.9,0.3,1.6,0.8,2.1c0.5,0.4,1.1,0.8,1.8,0.8c0.6,0,1.1-0.1,1.3-0.4C319.3,39.7,319.6,39.3,319.7,38.7z M314.9,36.3h4.8
		c0-0.8-0.3-1.2-0.6-1.6c-0.5-0.6-1-0.9-1.8-0.9c-0.6,0-1.2,0.2-1.7,0.6C315.2,34.8,315.1,35.5,314.9,36.3z"/>
	<path class="st3" d="M323.1,41.4v-8.5h1.3v1.3c0.3-0.6,0.6-1.1,0.9-1.2c0.3-0.2,0.6-0.3,0.9-0.3c0.5,0,1.1,0.2,1.5,0.4l-0.4,1.3
		c-0.3-0.2-0.8-0.3-1.1-0.3c-0.3,0-0.6,0.2-0.9,0.3c-0.3,0.1-0.5,0.4-0.6,0.7c-0.1,0.4-0.3,1.1-0.3,1.7v4.5L323.1,41.4L323.1,41.4z"
		/>
</g>
<g class="st1">
	<path class="st3" d="M328.4,44.7l-0.1-1.4c0.3,0.2,0.6,0.2,0.9,0.2s0.6,0,0.8-0.2c0.2-0.1,0.3-0.3,0.5-0.4c0.1-0.1,0.3-0.4,0.5-1.1
		c0-0.1,0-0.1,0.1-0.3l-3.3-8.6h1.5l1.8,4.9c0.3,0.6,0.5,1.4,0.6,1.9c0.1-0.6,0.3-1.3,0.6-1.9l1.8-4.9h1.5l-3.3,8.7
		c-0.3,0.9-0.6,1.7-0.8,1.9c-0.3,0.4-0.6,0.9-0.9,1.1c-0.3,0.2-0.8,0.3-1.2,0.3C329.2,44.8,328.8,44.8,328.4,44.7z"/>
</g>
<g class="st1">
	<path class="st3" d="M335.9,41.4v-1.7h1.7v1.7c0,0.6-0.2,1.1-0.3,1.5c-0.1,0.3-0.6,0.6-1,0.9l-0.5-0.6c0.3-0.2,0.6-0.3,0.8-0.6
		c0.2-0.3,0.2-0.6,0.3-1.1L335.9,41.4L335.9,41.4C336,41.4,335.9,41.4,335.9,41.4z"/>
	<path class="st3" d="M344.8,41.4V29.5h1.5v10.4h5.8v1.3h-7.3V41.4z"/>
	<path class="st3" d="M353.9,41.4V29.5h1.5v10.4h5.9v1.3h-7.4V41.4z"/>
	<path class="st3" d="M371.7,37.3l1.5,0.4c-0.3,1.4-0.9,2.3-1.8,3c-0.9,0.6-2,1.1-3.2,1.1s-2.3-0.3-3.1-0.8
		c-0.8-0.4-1.4-1.2-1.8-2.3c-0.5-1.1-0.6-2.1-0.6-3.1c0-1.2,0.3-2.3,0.8-3.2c0.5-0.9,1.2-1.7,2-2.1c0.9-0.4,1.8-0.8,2.8-0.8
		c1.2,0,2.1,0.3,3,0.9c0.9,0.6,1.4,1.5,1.7,2.6l-1.5,0.3c-0.3-0.9-0.6-1.5-1.2-1.8c-0.5-0.4-1.2-0.6-2-0.6c-0.9,0-1.6,0.2-2.3,0.6
		c-0.6,0.4-1,1.1-1.3,1.8c-0.3,0.8-0.3,1.5-0.3,2.2c0,1.1,0.2,1.9,0.5,2.7s0.8,1.4,1.4,1.7c0.6,0.3,1.3,0.6,1.9,0.6
		c0.9,0,1.7-0.3,2.3-0.8C371.1,39,371.4,38.2,371.7,37.3z"/>
</g>
<g class="st1">
	<path d="M0,67.8l4.5-11.9h1.7l4.9,11.9H9.3L8,64.2H3l-1.3,3.6H0z M3.4,63h4.1l-1.2-3.3c-0.5-0.9-0.8-1.8-0.9-2.4
		c-0.2,0.8-0.3,1.5-0.6,2.3L3.4,63z"/>
	<path d="M12,67.8V55.9h1.5v11.9H12z"/>
	<path d="M15.7,67.8V55.9h1.5v11.9H15.7z"/>
	<path d="M24,67.8v-8.6h1.3v1.4c0.3-0.6,0.6-1,0.9-1.2c0.3-0.2,0.6-0.3,0.9-0.3c0.4,0,1,0.1,1.5,0.5L28.1,61c-0.3-0.1-0.8-0.3-1-0.3
		c-0.3,0-0.6,0.1-0.9,0.3c-0.3,0.2-0.4,0.4-0.6,0.8c-0.2,0.6-0.2,1.2-0.2,1.8v4.3L24,67.8L24,67.8z"/>
	<path d="M35.4,65.1l1.5,0.1c-0.3,0.9-0.6,1.5-1.3,2.1c-0.6,0.5-1.5,0.8-2.4,0.8c-1.2,0-2.3-0.4-3-1.2c-0.7-0.8-1.1-1.8-1.1-3.3
		s0.3-2.5,1.1-3.3c0.8-0.8,1.7-1.2,2.8-1.2s2.1,0.5,2.8,1.2c0.7,0.7,1.1,1.8,1.1,3.3c0,0.1,0,0.1,0,0.5h-6.3c0,0.9,0.3,1.6,0.8,2.1
		c0.5,0.4,1,0.8,1.8,0.8c0.6,0,1.1-0.1,1.4-0.5C34.8,66.1,35,65.7,35.4,65.1z M30.5,62.8h4.8c0-0.8-0.3-1.2-0.6-1.6
		c-0.5-0.6-1.1-0.9-1.8-0.9c-0.6,0-1.2,0.1-1.7,0.6C30.9,61.5,30.5,62.1,30.5,62.8z"/>
	<path d="M44.2,67.8v-1.1c-0.6,0.9-1.3,1.2-2.4,1.2c-0.8,0-1.3-0.1-1.9-0.6c-0.6-0.3-1.1-0.9-1.3-1.5c-0.3-0.6-0.5-1.5-0.5-2.3
		c0-0.9,0.2-1.6,0.5-2.3c0.3-0.8,0.8-1.2,1.3-1.6c0.6-0.3,1.2-0.6,1.9-0.6c0.5,0,0.9,0.1,1.4,0.3c0.4,0.2,0.8,0.5,1.1,0.9V56h1.5
		v11.7L44.2,67.8L44.2,67.8z M39.5,63.6c0,1.1,0.3,2,0.8,2.4c0.5,0.6,1.1,0.8,1.7,0.8s1.2-0.3,1.7-0.8c0.4-0.4,0.6-1.4,0.6-2.4
		c0-1.2-0.2-2.1-0.8-2.5c-0.6-0.5-1.1-0.8-1.7-0.8c-0.6,0-1.2,0.3-1.6,0.8C39.7,61.6,39.5,62.5,39.5,63.6z"/>
	<path d="M54,67.8l-2.6-8.6h1.5l1.4,5l0.4,1.8c0-0.1,0.1-0.8,0.4-1.8l1.4-5H58l1.4,5l0.4,1.6l0.4-1.6l1.5-5h1.2l-2.6,8.6h-1.5
		l-1.4-5.1l-0.3-1.5l-1.8,6.6H54z"/>
	<path d="M64.3,57.7v-1.6h1.5v1.6H64.3z M64.3,67.8v-8.6h1.5v8.6H64.3z"/>
	<path d="M67.9,67.8v-8.6h1.4v1.2c0.6-0.9,1.5-1.4,2.7-1.4c0.4,0,1.1,0.1,1.4,0.3c0.4,0.1,0.8,0.5,0.9,0.8c0.1,0.3,0.3,0.6,0.4,1.1
		c0,0.3,0.1,0.7,0.1,1.3v5.3h-1.5v-5.3c0-0.6,0-1.1-0.1-1.4c-0.2-0.2-0.4-0.4-0.7-0.7c-0.3-0.3-0.6-0.3-1.1-0.3
		c-0.6,0-1.2,0.1-1.6,0.6s-0.6,1.2-0.6,2.3v4.8C69.2,67.8,67.9,67.8,67.9,67.8z"/>
	<path d="M82.9,65.1l1.5,0.1c-0.3,0.9-0.6,1.5-1.4,2.1c-0.6,0.5-1.5,0.8-2.4,0.8c-1.2,0-2.3-0.4-3-1.2c-0.7-0.8-1.1-1.8-1.1-3.3
		s0.3-2.5,1.1-3.3c0.8-0.8,1.6-1.2,2.9-1.2c1.2,0,2.1,0.5,2.9,1.2c0.8,0.7,1.1,1.8,1.1,3.3c0,0.1,0,0.1,0,0.5h-6.4
		c0,0.9,0.3,1.6,0.8,2.1c0.4,0.4,1,0.7,1.8,0.7c0.6,0,1.1-0.1,1.4-0.5C82.3,66.1,82.6,65.7,82.9,65.1z M78.1,62.8h4.8
		c0-0.8-0.3-1.2-0.6-1.6c-0.4-0.6-1.1-0.9-1.8-0.9c-0.6,0-1.2,0.1-1.6,0.6C78.4,61.5,78.3,62.1,78.1,62.8z"/>
	<path d="M85.6,65.4l1.5-0.3c0.1,0.6,0.3,1.1,0.6,1.4c0.3,0.3,0.9,0.5,1.5,0.5s1.2-0.1,1.5-0.5c0.3-0.3,0.4-0.6,0.4-0.9
		c0-0.3-0.1-0.6-0.4-0.8c-0.1-0.1-0.8-0.3-1.5-0.4c-1.1-0.3-1.8-0.5-2.3-0.8c-0.4-0.1-0.8-0.5-0.9-0.8c-0.1-0.3-0.3-0.8-0.3-1.2
		s0.1-0.8,0.3-1c0.1-0.3,0.4-0.6,0.8-0.8c0.1-0.1,0.6-0.3,0.9-0.5c0.3-0.2,0.8-0.1,1.2-0.1c0.6,0,1.2,0.1,1.8,0.3
		c0.4,0.1,0.9,0.4,1.1,0.8c0.3,0.3,0.4,0.8,0.4,1.4L91,61.8c0-0.5-0.3-0.8-0.6-1.1c-0.3-0.3-0.8-0.4-1.3-0.4c-0.6,0-1.2,0.1-1.4,0.3
		c-0.3,0.1-0.4,0.5-0.4,0.8c0,0.1,0,0.3,0.1,0.5c0.1,0.2,0.3,0.3,0.6,0.4c0.1,0,0.6,0.1,1.4,0.3c1.1,0.3,1.8,0.4,2.1,0.6
		c0.4,0.1,0.8,0.4,0.9,0.8c0.1,0.3,0.3,0.8,0.3,1.2c0,0.5-0.1,0.9-0.4,1.4c-0.3,0.5-0.8,0.8-1.2,1.1C90.7,68,89.9,68,89.3,68
		c-1.1,0-1.9-0.3-2.6-0.8C86.2,66.9,85.8,66.3,85.6,65.4z"/>
	<path d="M98.5,63.6c0-1.6,0.5-2.7,1.4-3.4c0.8-0.6,1.6-0.9,2.7-0.9c1.2,0,2.1,0.4,2.9,1.2c0.8,0.8,1,1.8,1,3.1c0,1.1-0.1,2-0.5,2.6
		c-0.3,0.6-0.8,1-1.5,1.5c-0.8,0.4-1.4,0.4-2.1,0.4c-1.2,0-2.1-0.4-2.9-1.2C98.8,66.1,98.5,65.1,98.5,63.6z M100,63.6
		c0,1.1,0.3,2,0.8,2.4c0.5,0.6,1,0.8,1.8,0.8c0.8,0,1.4-0.3,1.8-0.8c0.5-0.6,0.8-1.4,0.8-2.5s-0.3-1.8-0.8-2.4
		c-0.5-0.6-1-0.8-1.8-0.8c-0.8,0-1.4,0.3-1.8,0.8C100.2,61.6,100,62.5,100,63.6z"/>
	<path d="M108.1,67.8v-8.6h1.4v1.2c0.6-0.9,1.5-1.4,2.7-1.4c0.5,0,1,0.1,1.4,0.3c0.5,0.1,0.8,0.5,0.9,0.8c0.1,0.3,0.3,0.6,0.5,1.1
		c0,0.3,0.1,0.8,0.1,1.4v5.3h-1.5v-5.3c0-0.6,0-1.1-0.1-1.4c-0.1-0.3-0.3-0.5-0.6-0.8c-0.3-0.3-0.6-0.3-1-0.3
		c-0.6,0-1.2,0.1-1.6,0.6c-0.5,0.5-0.6,1.2-0.6,2.3v4.8C109.7,67.8,108.1,67.8,108.1,67.8z"/>
	<path d="M121.3,65.4l1.5-0.3c0.1,0.6,0.3,1.1,0.6,1.4s0.9,0.5,1.5,0.5s1.2-0.1,1.5-0.5c0.3-0.3,0.5-0.6,0.5-0.9
		c0-0.3-0.1-0.6-0.5-0.8c-0.1-0.1-0.8-0.3-1.5-0.4c-1-0.3-1.8-0.5-2.3-0.8c-0.5-0.1-0.8-0.5-0.9-0.8c-0.1-0.3-0.3-0.8-0.3-1.2
		c0-0.5,0.1-0.8,0.3-1.1c0.1-0.3,0.5-0.6,0.8-0.8c0.1-0.1,0.6-0.3,0.9-0.4c0.3-0.1,0.8-0.1,1.2-0.1c0.6,0,1.2,0.1,1.8,0.3
		c0.5,0.1,0.9,0.5,1,0.8c0.3,0.3,0.5,0.8,0.5,1.4l-1.2,0.1c0-0.5-0.3-0.8-0.6-1.1c-0.3-0.3-0.8-0.4-1.4-0.4c-0.6,0-1.2,0.1-1.4,0.3
		c-0.3,0.1-0.5,0.5-0.5,0.8c0,0.1,0,0.3,0.1,0.5c0.1,0.2,0.3,0.3,0.6,0.4c0.1,0,0.6,0.1,1.4,0.3c1,0.3,1.8,0.4,2.1,0.6
		c0.5,0.1,0.8,0.4,0.9,0.8c0.1,0.3,0.3,0.8,0.3,1.2c0,0.5-0.1,0.9-0.5,1.4c-0.3,0.5-0.8,0.8-1.2,1.1c-0.5,0.3-1.2,0.3-1.8,0.3
		c-1,0-2-0.3-2.5-0.8C121.9,66.9,121.5,66.3,121.3,65.4z"/>
	<path d="M135.7,66.7c-0.6,0.5-1,0.8-1.5,0.9c-0.5,0.1-1,0.3-1.6,0.3c-0.9,0-1.6-0.3-2.1-0.8s-0.8-1.1-0.8-1.8
		c0-0.4,0.1-0.8,0.3-1.2c0.1-0.3,0.5-0.6,0.8-0.9c0.3-0.1,0.6-0.3,1-0.5c0.3,0,0.8-0.1,1.4-0.1c1.2-0.1,2.1-0.3,2.5-0.4
		c0-0.1,0-0.3,0-0.5c0-0.6-0.1-1-0.5-1.2c-0.3-0.3-0.9-0.5-1.6-0.5s-1.2,0.1-1.5,0.3c-0.3,0.2-0.6,0.6-0.8,1.2l-1.5,0.3
		c0.1-0.6,0.3-1,0.6-1.5c0.3-0.3,0.8-0.6,1.4-0.9c0.6-0.1,1.2-0.3,2-0.3s1.4,0.1,1.8,0.3c0.5,0.1,0.8,0.5,1,0.6
		c0.1,0.3,0.3,0.6,0.5,1.1c0,0.3,0,0.8,0,1.4v1.9c0,1.4,0,2.3,0.2,2.6c0.1,0.3,0.1,0.8,0.3,1h-1.5C135.9,67.5,135.7,67.2,135.7,66.7
		z M135.6,63.6c-0.6,0.1-1.4,0.5-2.4,0.6c-0.6,0.1-1,0.1-1.2,0.3c-0.3,0.1-0.5,0.3-0.6,0.4c-0.1,0.1-0.1,0.5-0.1,0.8
		c0,0.5,0.1,0.8,0.5,0.9c0.4,0.1,0.8,0.5,1.4,0.5c0.6,0,1-0.1,1.5-0.3c0.5-0.3,0.8-0.6,0.9-1c0.1-0.3,0.3-0.8,0.3-1.5L135.6,63.6
		L135.6,63.6z"/>
	<path d="M139.3,67.8V55.9h1.5v11.9H139.3z"/>
	<path d="M148.7,65.1l1.5,0.1c-0.3,0.9-0.6,1.5-1.4,2.1c-0.6,0.5-1.5,0.8-2.4,0.8c-1.2,0-2.3-0.4-3-1.2c-0.7-0.8-1-1.8-1-3.2
		c0-1.5,0.3-2.5,1-3.3c0.7-0.8,1.6-1.2,2.9-1.2c1.2,0,2.1,0.5,2.8,1.2c0.7,0.7,1,1.8,1,3.3c0,0.1,0,0.1,0,0.5h-6.3
		c0,0.9,0.3,1.6,0.8,2.1c0.5,0.4,1,0.8,1.8,0.8c0.6,0,1-0.1,1.4-0.5C148.3,66.1,148.6,65.7,148.7,65.1z M144.1,62.8h4.8
		c0-0.8-0.3-1.2-0.6-1.6c-0.5-0.6-1-0.9-1.8-0.9c-0.6,0-1.2,0.1-1.6,0.6C144.4,61.5,144.1,62.1,144.1,62.8z"/>
	<path d="M153,64.9l-0.5-6.3v-2.5h1.8v2.5l-0.5,6.3H153z M152.5,67.8v-1.5h1.6v1.5H152.5z"/>
	<path d="M161.5,67.8V55.9h8v1.4H163v3.6h5.5v1.4H163v5.5H161.5z"/>
	<path d="M171.2,67.8v-8.6h1.4v1.4c0.3-0.6,0.6-1,0.9-1.2c0.3-0.2,0.6-0.3,0.9-0.3c0.5,0,1.1,0.1,1.5,0.5l-0.4,1.4
		c-0.3-0.1-0.8-0.3-1.1-0.3s-0.6,0.1-0.9,0.3c-0.3,0.2-0.5,0.4-0.6,0.8c-0.1,0.4-0.3,1-0.3,1.6v4.5L171.2,67.8L171.2,67.8z"/>
	<path d="M182.7,65.1l1.5,0.1c-0.3,0.9-0.6,1.5-1.4,2.1c-0.6,0.5-1.5,0.8-2.4,0.8c-1.2,0-2.3-0.4-3-1.2c-0.7-0.8-1-1.8-1-3.3
		s0.3-2.5,1-3.3c0.7-0.8,1.6-1.2,2.9-1.2c1.2,0,2.1,0.5,2.8,1.2c0.7,0.7,1,1.8,1,3.3c0,0.1,0,0.1,0,0.5h-6.3c0,0.9,0.3,1.6,0.8,2.1
		c0.5,0.4,1,0.8,1.8,0.8c0.6,0,1-0.1,1.4-0.5C182.2,66.1,182.5,65.7,182.7,65.1z M177.9,62.8h4.8c0-0.8-0.3-1.2-0.6-1.6
		c-0.5-0.6-1-0.9-1.8-0.9c-0.6,0-1.2,0.1-1.6,0.6C178.2,61.5,178,62.1,177.9,62.8z"/>
	<path d="M191.8,65.1l1.5,0.1c-0.3,0.9-0.6,1.5-1.3,2.1c-0.6,0.5-1.5,0.8-2.4,0.8c-1.2,0-2.3-0.4-3-1.2c-0.7-0.8-1-1.8-1-3.3
		s0.3-2.5,1-3.3c0.7-0.8,1.7-1.2,2.8-1.2c1.2,0,2.1,0.5,2.9,1.2c0.8,0.7,1,1.8,1,3.3c0,0.1,0,0.1,0,0.5H187c0,0.9,0.3,1.6,0.8,2.1
		c0.5,0.4,1,0.8,1.8,0.8c0.6,0,1-0.1,1.3-0.5C191.4,66.1,191.7,65.7,191.8,65.1z M187,62.8h4.8c0-0.8-0.3-1.2-0.6-1.6
		c-0.5-0.6-1.1-0.9-1.8-0.9c-0.6,0-1.2,0.1-1.6,0.6C187.3,61.5,187.2,62.1,187,62.8z"/>
	<path d="M199.5,68.5l1.3,0.1c0,0.4,0.1,0.8,0.4,0.9c0.3,0.3,0.9,0.4,1.5,0.4s1.2-0.1,1.5-0.4s0.6-0.6,0.8-1.2
		c0-0.3,0.2-0.9,0.2-1.8c-0.6,0.8-1.3,1-2.4,1c-1.2,0-2.1-0.4-2.7-1.2c-0.6-0.9-0.9-1.8-0.9-3c0-0.8,0.2-1.5,0.5-2.3
		c0.3-0.8,0.8-1.2,1.3-1.6c0.6-0.5,1.2-0.6,1.9-0.6c1.1,0,1.8,0.4,2.6,1.2v-1h1.3v7.4c0,1.4-0.2,2.3-0.5,2.9s-0.8,1-1.3,1.4
		c-0.6,0.3-1.4,0.4-2.1,0.4c-1,0-1.8-0.3-2.4-0.8C199.7,70.2,199.5,69.4,199.5,68.5z M200.7,63.4c0,1,0.2,1.9,0.6,2.4
		c0.4,0.4,1.1,0.8,1.7,0.8c0.6,0,1.2-0.3,1.7-0.8c0.4-0.5,0.8-1.4,0.8-2.4c0-1.1-0.3-1.8-0.8-2.4c-0.4-0.6-1.1-0.8-1.7-0.8
		c-0.6,0-1.2,0.3-1.7,0.8S200.7,62.4,200.7,63.4z"/>
	<path d="M208.9,57.7v-1.6h1.5v1.6H208.9z M208.9,67.8v-8.6h1.5v8.6H208.9z"/>
	<path d="M212.8,67.8v-7.4h-1.4v-1.2h1.4v-0.9c0-0.6,0-1,0.1-1.4c0.2-0.3,0.5-0.8,0.8-0.9c0.3-0.3,0.9-0.3,1.5-0.3
		c0.5,0,0.9,0,1.4,0.1l-0.2,1.2c-0.3,0-0.6-0.1-0.9-0.1c-0.5,0-0.8,0.1-0.9,0.3c-0.1,0.1-0.3,0.6-0.3,1V59h1.7v1.2h-1.7v7.5h-1.5
		V67.8z"/>
	<path d="M220.3,66.6l0.1,1.2c-0.4,0.1-0.8,0.1-1,0.1c-0.6,0-0.9-0.1-1.2-0.3c-0.3-0.1-0.4-0.4-0.6-0.6c-0.1-0.2-0.2-0.9-0.2-1.6
		v-4.9h-1v-1.2h1v-2.1l1.5-0.9v3h1.5v1.2h-1.5v4.9c0,0.5,0,0.8,0.2,0.8c0,0.1,0.1,0.1,0.3,0.3c0.2,0,0.3,0.1,0.5,0.1
		C219.9,66.6,220,66.6,220.3,66.6z"/>
	<path d="M227.8,67.8l-2.6-8.6h1.5l1.3,5l0.5,1.8c0-0.1,0.1-0.8,0.4-1.8l1.3-5h1.5l1.3,5l0.4,1.6l0.5-1.6l1.5-5h1.3l-2.7,8.6h-1.5
		l-1.4-5.1l-0.3-1.5l-1.8,6.6H227.8z"/>
	<path d="M238.2,57.7v-1.6h1.5v1.6H238.2z M238.2,67.8v-8.6h1.5v8.6H238.2z"/>
	<path d="M244.9,66.6l0.2,1.4c-0.4,0.1-0.8,0.1-1.1,0.1c-0.6,0-0.9-0.1-1.2-0.3c-0.3-0.1-0.4-0.5-0.6-0.6c-0.2-0.3-0.2-0.9-0.2-1.6
		v-5h-1.1v-1.2h1.1v-2.1l1.5-0.9v3h1.5v1.2h-1.5v5c0,0.4,0,0.8,0.2,0.8c0,0.1,0.2,0.1,0.3,0.3c0.2,0,0.3,0.1,0.5,0.1
		C244.4,66.6,244.7,66.6,244.9,66.6z"/>
	<path d="M246.4,67.8V55.9h1.5v4.4c0.8-0.8,1.5-1.2,2.5-1.2c0.6,0,1.2,0.1,1.7,0.3c0.4,0.3,0.8,0.6,1,1c0.2,0.5,0.3,1.1,0.3,2v5.4
		h-1.5v-5.4c0-0.8-0.1-1.2-0.4-1.6c-0.3-0.3-0.8-0.5-1.3-0.5s-0.9,0.1-1.2,0.3c-0.3,0.2-0.6,0.4-0.8,0.9c-0.1,0.4-0.3,0.9-0.3,1.6
		v4.6h-1.5V67.8z"/>
	<path d="M260.1,71.1V59.2h1.3v1.1c0.3-0.5,0.6-0.8,1.1-1.1c0.4-0.3,0.9-0.3,1.3-0.3c0.8,0,1.3,0.1,2,0.6c0.6,0.3,1,0.9,1.2,1.6
		c0.3,0.8,0.4,1.5,0.4,2.3c0,0.9-0.1,1.6-0.4,2.4s-0.8,1.2-1.3,1.6c-0.6,0.3-1.2,0.6-2,0.6c-0.4,0-0.9-0.1-1.3-0.3
		c-0.5-0.1-0.8-0.4-0.9-0.8v4.2H260.1L260.1,71.1z M261.4,63.6c0,1.1,0.2,2,0.6,2.4c0.4,0.6,1.1,0.8,1.7,0.8c0.6,0,1.2-0.3,1.7-0.8
		c0.4-0.6,0.8-1.4,0.8-2.5s-0.2-2-0.6-2.4c-0.5-0.6-1-0.8-1.7-0.8c-0.6,0-1.2,0.3-1.7,0.9C261.7,61.6,261.4,62.5,261.4,63.6z"/>
	<path d="M274.9,67.8v-1.2c-0.6,0.9-1.5,1.5-2.7,1.5c-0.4,0-0.9-0.1-1.3-0.3c-0.5-0.1-0.8-0.5-0.9-0.8c-0.1-0.3-0.3-0.6-0.4-1.1
		c0-0.3-0.2-0.8-0.2-1.4v-5.3h1.5V64c0,0.8,0,1.2,0.2,1.5c0.2,0.4,0.3,0.8,0.6,0.9c0.3,0.1,0.6,0.3,1,0.3c0.5,0,0.9-0.1,1.2-0.3
		c0.5-0.1,0.6-0.6,0.8-0.9c0.2-0.5,0.3-0.9,0.3-1.6v-4.5h1.5v8.3L274.9,67.8L274.9,67.8z"/>
	<path d="M278.4,67.8v-8.6h1.3v1.4c0.3-0.6,0.6-1,0.9-1.2c0.3-0.1,0.6-0.3,0.9-0.3c0.5,0,1.1,0.1,1.5,0.5l-0.4,1.4
		c-0.3-0.1-0.8-0.3-1.1-0.3s-0.6,0.1-0.9,0.3c-0.3,0.2-0.5,0.4-0.6,0.8c-0.1,0.4-0.3,1-0.3,1.6v4.5L278.4,67.8L278.4,67.8
		L278.4,67.8z"/>
	<path d="M289.4,64.8l1.4,0.1c-0.2,1-0.6,1.8-1.2,2.3c-0.6,0.6-1.5,0.9-2.4,0.9c-1.2,0-2.1-0.5-2.8-1.2c-0.7-0.7-1-1.8-1-3.3
		c0-0.9,0.1-1.8,0.4-2.4c0.3-0.8,0.8-1.2,1.3-1.5c0.6-0.3,1.3-0.5,2.1-0.5c0.9,0,1.7,0.3,2.3,0.8c0.6,0.5,0.9,1.2,1.2,2l-1.3,0.1
		c-0.2-0.6-0.3-1.1-0.8-1.4c-0.3-0.3-0.8-0.5-1.2-0.5c-0.8,0-1.3,0.3-1.8,0.8s-0.8,1.4-0.8,2.6c0,1.2,0.1,1.9,0.6,2.5
		s1.1,0.8,1.7,0.8s1-0.1,1.3-0.4C289.2,66,289.4,65.4,289.4,64.8z"/>
	<path d="M292.2,67.8V55.9h1.5v4.4c0.8-0.8,1.5-1.2,2.5-1.2c0.6,0,1.2,0.1,1.7,0.3c0.4,0.3,0.8,0.6,1,1c0.2,0.5,0.3,1.1,0.3,2v5.4
		h-1.5v-5.4c0-0.8-0.1-1.2-0.4-1.6c-0.3-0.3-0.8-0.5-1.3-0.5s-0.9,0.1-1.2,0.3c-0.3,0.2-0.6,0.4-0.8,0.9c-0.1,0.4-0.3,0.9-0.3,1.6
		v4.6h-1.5V67.8z"/>
	<path d="M306.9,66.7c-0.6,0.5-1.1,0.8-1.5,0.9c-0.5,0.1-1.1,0.3-1.7,0.3c-0.9,0-1.6-0.3-2.1-0.8c-0.4-0.5-0.8-1.1-0.8-1.8
		c0-0.4,0.1-0.8,0.3-1.2c0.2-0.3,0.5-0.6,0.8-0.9c0.3-0.1,0.6-0.3,1-0.5c0.3,0,0.8-0.1,1.4-0.1c1.2-0.1,2.1-0.3,2.5-0.4
		c0-0.1,0-0.3,0-0.5c0-0.6-0.2-1-0.5-1.2c-0.3-0.3-0.9-0.5-1.6-0.5s-1.2,0.1-1.5,0.3c-0.3,0.3-0.6,0.6-0.8,1.2l-1.4-0.1
		c0.2-0.6,0.3-1,0.6-1.5c0.3-0.3,0.8-0.6,1.3-0.9c0.6-0.1,1.2-0.3,2-0.3c0.8,0,1.3,0.1,1.8,0.3c0.5,0.1,0.8,0.5,1.1,0.6
		c0.2,0.3,0.3,0.6,0.4,1.1c0,0.3,0,0.8,0,1.4V64c0,1.4,0,2.3,0.2,2.6c0.1,0.3,0.1,0.8,0.3,1h-1.5C307,67.5,307,67.2,306.9,66.7z
		 M306.7,63.6c-0.6,0.1-1.3,0.5-2.4,0.6c-0.6,0.1-1.1,0.1-1.2,0.3c-0.3,0.1-0.5,0.3-0.6,0.4c-0.2,0.1-0.2,0.5-0.2,0.8
		c0,0.5,0.2,0.8,0.5,0.9c0.3,0.3,0.8,0.5,1.3,0.5c0.6,0,1.1-0.1,1.5-0.3c0.5-0.3,0.8-0.6,0.9-1c0.1-0.3,0.3-0.8,0.3-1.5L306.7,63.6
		L306.7,63.6z"/>
	<path d="M309.9,65.4l1.5-0.3c0.1,0.6,0.3,1.1,0.6,1.4c0.3,0.3,0.9,0.5,1.5,0.5c0.6,0,1.2-0.1,1.5-0.5c0.3-0.3,0.5-0.6,0.5-0.9
		c0-0.3-0.2-0.6-0.5-0.8c-0.1-0.1-0.8-0.3-1.5-0.4c-1-0.3-1.8-0.5-2.3-0.8c-0.4-0.1-0.8-0.5-0.9-0.8c-0.2-0.3-0.3-0.8-0.3-1.2
		s0.2-0.8,0.3-1c0.1-0.3,0.4-0.6,0.8-0.8c0.3-0.1,0.6-0.3,0.9-0.5c0.5-0.1,0.8-0.1,1.2-0.1c0.6,0,1.2,0.1,1.8,0.3
		c0.5,0.1,0.9,0.4,1.1,0.8c0.3,0.3,0.4,0.8,0.4,1.4l-1.3,0.1c0-0.5-0.3-0.8-0.6-1.1c-0.3-0.3-0.8-0.3-1.3-0.3
		c-0.6,0-1.2,0.1-1.4,0.3c-0.3,0.1-0.4,0.5-0.4,0.8c0,0.1,0,0.3,0.2,0.5c0.2,0.2,0.3,0.3,0.6,0.4c0.2,0,0.6,0.1,1.3,0.3
		c1,0.3,1.8,0.4,2.1,0.6c0.4,0.1,0.8,0.4,0.9,0.8c0.3,0.3,0.3,0.8,0.3,1.2c0,0.5-0.1,0.9-0.4,1.4s-0.8,0.8-1.2,1.1
		c-0.6,0.3-1.2,0.3-1.8,0.3c-1.1,0-1.9-0.3-2.6-0.8C310.4,66.9,310,66.3,309.9,65.4z"/>
	<path d="M324.6,65.1l1.5,0.1c-0.3,0.9-0.6,1.5-1.4,2.1c-0.6,0.5-1.5,0.8-2.4,0.8c-1.2,0-2.3-0.4-3-1.2c-0.7-0.8-1.1-1.8-1.1-3.3
		s0.3-2.5,1.1-3.3c0.8-0.8,1.6-1.2,2.8-1.2c1.2,0,2.1,0.5,2.9,1.2c0.8,0.7,1,1.8,1,3.3c0,0.1,0,0.1,0,0.5h-6.3
		c0,0.9,0.3,1.6,0.8,2.1c0.4,0.4,1,0.8,1.8,0.8c0.6,0,1-0.1,1.3-0.5C324.1,66.1,324.4,65.7,324.6,65.1z M319.7,62.8h4.8
		c0-0.8-0.3-1.2-0.6-1.6c-0.4-0.6-1-0.9-1.8-0.9c-0.6,0-1.2,0.1-1.7,0.6C320.1,61.5,319.9,62.1,319.7,62.8z"/>
	<path d="M328.3,67.8v-1.5h1.6v1.5H328.3z"/>
</g>
<g class="st1">
	<path class="st4" d="M6.7,91.2L8,91.4c-0.1,1.1-0.6,1.8-1.2,2.3c-0.6,0.6-1.5,0.9-2.4,0.9c-1.2,0-2.1-0.5-2.8-1.2
		c-0.8-0.8-1.1-1.8-1.1-3.3c0-0.9,0.2-1.8,0.5-2.4s0.8-1.2,1.3-1.5s1.3-0.4,2.1-0.4c0.9,0,1.7,0.3,2.3,0.8c0.6,0.4,0.9,1.2,1.2,1.9
		l-1.4,0.1c-0.2-0.6-0.3-1-0.8-1.3c-0.3-0.3-0.8-0.4-1.2-0.4c-0.8,0-1.3,0.3-1.8,0.8c-0.4,0.4-0.8,1.4-0.8,2.6s0.2,1.9,0.6,2.6
		c0.5,0.6,1.2,0.8,1.8,0.8s1.1-0.2,1.3-0.4C6.3,92.4,6.5,91.9,6.7,91.2z"/>
	<path class="st4" d="M8.8,90c0-1.6,0.5-2.7,1.4-3.4c0.8-0.6,1.6-0.9,2.7-0.9c1.2,0,2.1,0.5,2.8,1.2s1,1.8,1,3.1
		c0,1.1-0.2,1.9-0.5,2.6c-0.3,0.6-0.8,1-1.5,1.5s-1.3,0.5-2.1,0.5c-1.2,0-2.1-0.5-2.8-1.2S8.8,91.5,8.8,90z M10.3,90
		c0,1.1,0.3,1.9,0.8,2.4c0.5,0.6,1.1,0.9,1.7,0.9c0.8,0,1.3-0.3,1.8-0.8c0.5-0.6,0.8-1.4,0.8-2.6c0-1.1-0.3-1.8-0.8-2.4
		s-1-0.8-1.8-0.8S11.5,87,11,87.5C10.5,88.2,10.3,88.9,10.3,90z"/>
	<path class="st4" d="M18.4,94.3V82.5h1.5v4.2c0.8-0.8,1.5-1.2,2.5-1.2c0.6,0,1.2,0.2,1.7,0.3c0.4,0.2,0.8,0.6,1,1.1
		c0.1,0.5,0.3,1.1,0.3,2v5.4h-1.5v-5.4c0-0.8-0.2-1.2-0.5-1.7c-0.3-0.3-0.8-0.4-1.3-0.4s-0.9,0.2-1.2,0.3s-0.6,0.4-0.8,0.9
		s-0.3,0.9-0.3,1.7v4.6H18.4L18.4,94.3z"/>
	<path class="st4" d="M27.1,90c0-1.6,0.4-2.7,1.3-3.4c0.8-0.6,1.7-0.9,2.7-0.9c1.2,0,2.1,0.5,2.9,1.2s1,1.8,1,3.1
		c0,1.1-0.2,1.9-0.4,2.6c-0.3,0.6-0.8,1-1.5,1.5s-1.3,0.5-2.1,0.5c-1.2,0-2.1-0.5-2.9-1.2C27.4,92.5,27.1,91.5,27.1,90z M28.6,90
		c0,1.1,0.3,1.9,0.8,2.4c0.4,0.6,1,0.8,1.8,0.8s1.4-0.3,1.8-0.8c0.4-0.6,0.8-1.4,0.8-2.6c0-1.1-0.3-1.8-0.8-2.4s-1.1-0.8-1.8-0.8
		s-1.3,0.3-1.8,0.8C28.8,88.2,28.6,88.9,28.6,90z"/>
	<path class="st4" d="M38.4,94.3l-2.6-8.5h1.5l1.3,4.9l0.5,1.8c0-0.2,0.2-0.8,0.5-1.8l1.3-4.9h1.5l1.3,4.9l0.4,1.7l0.4-1.7l1.5-4.9
		h1.3l-2.7,8.5h-1.5l-1.3-5.1l-0.3-1.5l-1.8,6.6H38.4z"/>
	<path class="st4" d="M48.7,84.1v-1.6h1.5v1.6H48.7z M48.7,94.3v-8.5h1.5v8.5H48.7z"/>
	<path class="st4" d="M52.3,94.3v-8.5h1.4V87c0.6-0.9,1.5-1.3,2.7-1.3c0.4,0,1.1,0.1,1.4,0.3c0.4,0.2,0.8,0.5,0.9,0.8
		c0.1,0.3,0.3,0.6,0.4,1.1c0,0.3,0.1,0.8,0.1,1.4v5.2h-1.5v-5.3c0-0.6,0-1.1-0.1-1.4c-0.1-0.3-0.3-0.4-0.6-0.7
		c-0.3-0.3-0.6-0.3-1.1-0.3c-0.6,0-1.2,0.2-1.6,0.6c-0.4,0.4-0.6,1.2-0.6,2.3v4.6L52.3,94.3L52.3,94.3z"/>
	<path class="st4" d="M67.3,91.5l1.5,0.2c-0.3,0.9-0.6,1.5-1.4,2.1c-0.6,0.5-1.5,0.8-2.4,0.8c-1.2,0-2.3-0.5-3-1.2s-1.1-1.8-1.1-3.3
		s0.3-2.5,1.1-3.3s1.6-1.2,2.9-1.2c1.2,0,2.1,0.5,2.9,1.2s1,1.7,1,3.2c0,0.2,0,0.2,0,0.5h-6.3c0,0.9,0.3,1.6,0.8,2.1
		c0.4,0.4,1.1,0.8,1.8,0.8c0.6,0,1.1-0.1,1.4-0.4C66.8,92.5,67.2,92.2,67.3,91.5z M62.7,89.2h4.8c0-0.8-0.3-1.2-0.6-1.6
		c-0.4-0.6-1.1-0.9-1.8-0.9c-0.6,0-1.2,0.2-1.6,0.6C63,87.9,62.7,88.5,62.7,89.2z"/>
	<path class="st4" d="M70.6,94.3v-8.5H72v1.3c0.3-0.6,0.6-1,0.9-1.2c0.3-0.1,0.6-0.3,0.9-0.3c0.4,0,1.1,0.2,1.5,0.5l-0.5,1.3
		c-0.3-0.1-0.8-0.3-1.1-0.3c-0.3,0-0.6,0.2-0.9,0.3s-0.4,0.5-0.6,0.8c-0.1,0.4-0.3,1.1-0.3,1.7v4.5L70.6,94.3L70.6,94.3z"/>
</g>
<g class="st1">
	<path class="st4" d="M76.2,97.6l-0.4-1.3c0.3,0.1,0.6,0.1,0.9,0.1c0.3,0,0.6,0,0.8-0.1c0.1-0.2,0.3-0.3,0.4-0.5s0.3-0.5,0.4-1
		c0-0.2,0-0.2,0.1-0.3l-3.3-8.7h1.7l1.8,4.9c0.3,0.6,0.4,1.4,0.6,1.9c0.1-0.6,0.3-1.3,0.6-1.9l1.8-4.9h1.5l-3.3,8.7
		c-0.3,0.9-0.6,1.6-0.8,2c-0.3,0.5-0.6,0.9-0.9,1c-0.3,0.1-0.6,0.3-1.1,0.3C76.8,97.8,76.5,97.8,76.2,97.6z"/>
</g>
<g class="st1">
	<path class="st4" d="M83.5,94.3v-1.7h1.6v1.7H83.5z"/>
	<path class="st4" d="M93.3,91.2l1.4,0.2c-0.1,1.1-0.6,1.8-1.2,2.3c-0.6,0.6-1.5,0.9-2.4,0.9c-1.2,0-2.1-0.5-2.9-1.2
		c-0.8-0.8-1.1-1.8-1.1-3.3c0-0.9,0.1-1.8,0.4-2.4c0.3-0.8,0.8-1.2,1.4-1.5s1.4-0.4,2.1-0.4c0.9,0,1.6,0.3,2.3,0.8
		c0.6,0.4,0.9,1.2,1.2,1.9l-1.4,0.1c-0.1-0.6-0.3-1-0.8-1.3c-0.3-0.3-0.8-0.4-1.2-0.4c-0.8,0-1.4,0.3-1.8,0.8
		c-0.4,0.4-0.8,1.3-0.8,2.5s0.1,2,0.6,2.6s1.1,0.8,1.6,0.8c0.6,0,1.1-0.1,1.4-0.4C93,92.4,93.3,91.9,93.3,91.2z"/>
	<path class="st4" d="M95.3,90c0-1.6,0.4-2.7,1.4-3.4c0.8-0.6,1.6-0.9,2.7-0.9c1.2,0,2.1,0.5,2.9,1.2s1,1.8,1,3.1
		c0,1.1-0.1,1.9-0.5,2.6c-0.3,0.6-0.8,1-1.5,1.5s-1.4,0.5-2.1,0.5c-1.2,0-2.1-0.5-2.9-1.2C95.8,92.5,95.3,91.5,95.3,90z M96.8,90
		c0,1.1,0.3,1.9,0.8,2.4c0.5,0.6,1,0.8,1.8,0.8s1.4-0.3,1.8-0.8c0.5-0.6,0.8-1.4,0.8-2.6c0-1.1-0.3-1.8-0.8-2.4s-1-0.8-1.8-0.8
		s-1.4,0.3-1.8,0.8C97.2,88.2,96.8,88.9,96.8,90z"/>
	<path class="st4" d="M105.1,94.3v-8.5h1.4V87c0.3-0.4,0.6-0.8,1-1.1c0.5-0.3,0.9-0.4,1.5-0.4c0.6,0,1.2,0.2,1.5,0.4
		c0.5,0.3,0.8,0.6,0.9,1.1c0.8-1.1,1.5-1.5,2.7-1.5c0.9,0,1.5,0.3,2,0.8s0.8,1.2,0.8,2.1v5.8h-1.5v-5.4c0-0.6,0-1.1-0.1-1.2
		c-0.1-0.3-0.3-0.5-0.5-0.6c-0.3-0.1-0.6-0.3-0.9-0.3c-0.6,0-1,0.2-1.5,0.6s-0.6,1.1-0.6,1.9v4.9h-1.5v-5.4c0-0.6-0.1-1.2-0.3-1.5
		c-0.3-0.3-0.6-0.4-1.2-0.4c-0.5,0-0.8,0.1-1.2,0.3c-0.5,0.2-0.6,0.6-0.8,0.9s-0.3,1.1-0.3,1.8v4.5
		C106.5,94.3,105.1,94.3,105.1,94.3z"/>
	<path class="st4" d="M123.4,84.1v-1.6h1.5v1.6H123.4z M123.4,94.3v-8.5h1.5v8.5H123.4z"/>
	<path class="st4" d="M126.6,91.8l1.5-0.3c0.1,0.6,0.3,1.1,0.6,1.4s0.9,0.4,1.5,0.4c0.6,0,1.2-0.2,1.5-0.4c0.3-0.3,0.5-0.6,0.5-0.9
		s-0.1-0.6-0.5-0.8c-0.1-0.1-0.8-0.3-1.5-0.4c-1-0.3-1.8-0.4-2.3-0.8c-0.5-0.2-0.8-0.4-0.9-0.8s-0.3-0.8-0.3-1.2
		c0-0.5,0.1-0.8,0.3-1.1s0.5-0.6,0.8-0.8c0.3-0.2,0.6-0.3,0.9-0.4c0.5-0.2,0.8-0.2,1.2-0.2c0.6,0,1.2,0.2,1.8,0.3
		c0.5,0.1,0.9,0.4,1,0.8c0.3,0.3,0.5,0.8,0.5,1.3l-1.4,0.3c0-0.4-0.3-0.8-0.6-1.1c-0.3-0.3-0.8-0.3-1.4-0.3s-1.2,0.2-1.4,0.3
		c-0.3,0.2-0.5,0.4-0.5,0.8c0,0.2,0,0.3,0.1,0.4c0.1,0.2,0.3,0.3,0.6,0.5c0.1,0,0.6,0.1,1.4,0.3c1,0.3,1.8,0.5,2.1,0.6
		c0.5,0.1,0.8,0.4,0.9,0.8c0.3,0.3,0.3,0.8,0.3,1.2s-0.1,0.9-0.5,1.4c-0.3,0.4-0.8,0.7-1.2,1c-0.6,0.3-1.2,0.3-1.8,0.3
		c-1,0-2-0.3-2.5-0.8C127,93.3,126.7,92.7,126.6,91.8z"/>
	<path class="st4" d="M139.9,94.3v-8.5h1.4v1.3c0.3-0.6,0.6-1,0.9-1.2c0.3-0.1,0.6-0.3,0.9-0.3c0.5,0,1.1,0.2,1.5,0.5l-0.6,1.3
		c-0.3-0.1-0.8-0.3-1-0.3c-0.2,0-0.6,0.1-0.9,0.3c-0.3,0.2-0.5,0.5-0.6,0.8c-0.1,0.5-0.3,1.1-0.3,1.7v4.5h-1.3V94.3z"/>
	<path class="st4" d="M151,93.3c-0.6,0.5-1,0.8-1.5,0.9c-0.5,0.2-1,0.3-1.6,0.3c-0.9,0-1.7-0.3-2.1-0.8s-0.8-1-0.8-1.8
		c0-0.5,0.1-0.8,0.3-1.2c0.2-0.3,0.5-0.6,0.8-0.9c0.3-0.2,0.6-0.3,1-0.4c0.3,0,0.8-0.2,1.4-0.2c1.2-0.1,2.1-0.3,2.5-0.4
		c0-0.2,0-0.3,0-0.4c0-0.6-0.1-1.1-0.4-1.2c-0.3-0.3-0.9-0.4-1.7-0.4s-1.2,0.2-1.5,0.3c-0.3,0.3-0.6,0.6-0.8,1.2l-1.3-0.1
		c0.1-0.6,0.3-1.1,0.6-1.5c0.3-0.3,0.8-0.6,1.3-0.9c0.6-0.1,1.2-0.3,2-0.3c0.8,0,1.3,0.2,1.8,0.3c0.5,0.2,0.8,0.4,1.1,0.6
		c0.1,0.3,0.3,0.6,0.4,1c0,0.3,0,0.8,0,1.4v1.9c0,1.4,0,2.3,0.2,2.6c0.2,0.3,0.2,0.8,0.3,1h-1.5C151.2,94,151,93.6,151,93.3z
		 M150.9,90c-0.6,0.2-1.4,0.4-2.4,0.6c-0.6,0.1-1,0.1-1.2,0.3c-0.2,0.2-0.5,0.3-0.6,0.5c-0.1,0.1-0.1,0.4-0.1,0.8s0.1,0.8,0.5,0.9
		c0.3,0.3,0.8,0.4,1.3,0.4c0.6,0,1.1-0.1,1.5-0.3c0.5-0.3,0.8-0.6,0.9-1.1c0.2-0.3,0.3-0.8,0.3-1.5L150.9,90L150.9,90z"/>
	<path class="st4" d="M157.7,93l0.1,1.3c-0.4,0.1-0.8,0.1-1,0.1c-0.6,0-0.9-0.1-1.2-0.3c-0.3-0.1-0.4-0.5-0.6-0.6
		c-0.2-0.3-0.2-0.9-0.2-1.7v-4.9h-1v-1.2h1v-2.1l1.5-0.9v3h1.5v1.2h-1.5v5c0,0.5,0,0.8,0.2,0.8c0,0.2,0.2,0.2,0.3,0.3
		c0.1,0,0.3,0.2,0.5,0.2C157.2,93.1,157.5,93,157.7,93z"/>
	<path class="st4" d="M165,91.5l1.5,0.2c-0.3,0.9-0.6,1.5-1.3,2.1c-0.6,0.5-1.5,0.8-2.4,0.8c-1.2,0-2.3-0.5-3-1.2
		c-0.8-0.8-1-1.8-1-3.3s0.3-2.5,1-3.3c0.7-0.8,1.7-1.2,2.8-1.2c1.2,0,2.1,0.5,2.9,1.2s1,1.8,1,3.3c0,0.2,0,0.2,0,0.5h-6.3
		c0,0.9,0.3,1.6,0.8,2.1c0.5,0.4,1,0.8,1.8,0.8c0.6,0,1-0.1,1.3-0.4C164.5,92.5,164.8,92.2,165,91.5z M160.2,89.2h4.8
		c0-0.8-0.3-1.2-0.6-1.6c-0.5-0.6-1.1-0.9-1.8-0.9c-0.6,0-1.2,0.2-1.6,0.6C160.6,87.7,160.3,88.5,160.2,89.2z"/>
	<path class="st4" d="M173.8,94.3v-1c-0.6,0.9-1.3,1.2-2.4,1.2c-0.8,0-1.4-0.2-2-0.6c-0.6-0.3-1-0.9-1.3-1.5
		c-0.3-0.6-0.5-1.5-0.5-2.3c0-0.9,0.2-1.6,0.5-2.3c0.3-0.6,0.8-1.2,1.3-1.6c0.6-0.3,1.2-0.6,2-0.6c0.5,0,0.9,0.2,1.4,0.3
		c0.4,0.2,0.8,0.4,1,0.9v-4.2h1.5v11.9h-1.5V94.3z M169.3,90c0,1.1,0.3,1.9,0.8,2.4c0.5,0.6,1.1,0.8,1.7,0.8s1.2-0.3,1.7-0.8
		c0.4-0.5,0.6-1.4,0.6-2.4c0-1.2-0.3-2.1-0.8-2.6c-0.5-0.6-1-0.8-1.7-0.8c-0.6,0-1.2,0.3-1.6,0.8C169.5,88,169.3,88.9,169.3,90z"/>
	<path class="st4" d="M282.1,90c0-1.6,0.4-2.7,1.3-3.4c0.8-0.6,1.7-0.9,2.7-0.9c1.2,0,2.1,0.5,2.8,1.2c0.7,0.7,1.1,1.8,1.1,3.1
		c0,1.1-0.2,1.9-0.5,2.6c-0.3,0.6-0.8,1-1.5,1.5c-0.7,0.5-1.3,0.5-2.1,0.5c-1.2,0-2.1-0.5-2.8-1.2C282.6,92.5,282.1,91.5,282.1,90z
		 M283.6,90c0,1.1,0.3,1.9,0.8,2.4c0.4,0.6,1,0.8,1.8,0.8s1.3-0.3,1.8-0.8c0.5-0.6,0.8-1.4,0.8-2.6c0-1.1-0.3-1.8-0.8-2.4
		c-0.4-0.6-1-0.8-1.8-0.8s-1.3,0.3-1.8,0.8C283.9,88.2,283.6,88.9,283.6,90z"/>
	<path class="st4" d="M291.9,94.3v-8.5h1.3V87c0.6-0.9,1.5-1.3,2.7-1.3c0.5,0,1,0.1,1.3,0.3c0.4,0.2,0.8,0.5,0.9,0.8
		c0.2,0.3,0.3,0.6,0.5,1.1c0,0.3,0.1,0.8,0.1,1.4v5.2h-1.5v-5.3c0-0.6,0-1.1-0.1-1.4c-0.2-0.3-0.3-0.4-0.6-0.8
		c-0.3-0.3-0.6-0.3-1-0.3c-0.6,0-1.2,0.1-1.7,0.6s-0.6,1.2-0.6,2.3v4.7L291.9,94.3L291.9,94.3z"/>
	<path class="st4" d="M305.7,94.3V82.5h4.3c0.9,0,1.7,0.1,2.1,0.3c0.6,0.3,0.9,0.6,1.3,1.1c0.3,0.4,0.4,1.1,0.4,1.5
		s-0.1,1.1-0.4,1.3c-0.3,0.5-0.8,0.8-1.2,1.1c0.8,0.2,1.2,0.6,1.6,1.1c0.5,0.4,0.6,1.1,0.6,1.8c0,0.6-0.2,1-0.3,1.5
		c-0.3,0.4-0.4,0.9-0.9,1c-0.3,0.3-0.8,0.5-1.3,0.6c-0.4,0.1-1.2,0.1-1.9,0.1h-4.4L305.7,94.3L305.7,94.3z M307.3,87.4h2.5
		c0.8,0,1.2,0,1.5-0.1c0.5-0.2,0.8-0.3,0.9-0.6c0.2-0.3,0.3-0.6,0.3-1c0-0.5-0.2-0.8-0.3-1.1c-0.2-0.3-0.4-0.4-0.8-0.6
		c-0.3-0.2-0.9-0.1-1.8-0.1h-2.4L307.3,87.4C307.2,87.4,307.3,87.4,307.3,87.4z M307.3,93h3c0.4,0,0.9,0,1,0c0.3,0,0.6-0.1,0.9-0.3
		c0.3-0.1,0.4-0.3,0.6-0.6c0.2-0.3,0.3-0.6,0.3-1.1s-0.1-0.8-0.3-1.2c-0.3-0.3-0.6-0.6-0.9-0.8c-0.4-0.2-1.1-0.2-1.8-0.2h-2.7
		L307.3,93L307.3,93z"/>
	<path class="st4" d="M316.6,84.1v-1.6h1.5v1.6H316.6z M316.6,94.3v-8.5h1.5v8.5H316.6z"/>
	<path class="st4" d="M320.2,94.3v-8.5h1.4V87c0.6-0.9,1.5-1.3,2.7-1.3c0.4,0,1.1,0.1,1.3,0.3c0.5,0.2,0.8,0.5,0.9,0.8
		c0.2,0.3,0.3,0.6,0.4,1.1c0,0.3,0.2,0.8,0.2,1.4v5.2h-1.5v-5.3c0-0.6,0-1.1-0.2-1.4c-0.1-0.3-0.3-0.4-0.6-0.8
		c-0.3-0.3-0.6-0.3-1.1-0.3c-0.6,0-1.2,0.1-1.7,0.6s-0.6,1.2-0.6,2.3v4.7L320.2,94.3L320.2,94.3z"/>
	<path class="st4" d="M329.1,95.1l1.3,0.1c0,0.5,0.2,0.8,0.5,0.9c0.3,0.3,0.9,0.5,1.5,0.5c0.6,0,1.2-0.2,1.5-0.5s0.6-0.6,0.8-1.2
		c0-0.3,0.2-0.9,0.2-1.8c-0.6,0.8-1.4,1.1-2.4,1.1c-1.2,0-2.1-0.5-2.7-1.2c-0.6-0.9-0.9-1.8-0.9-3c0-0.8,0.1-1.5,0.4-2.3
		s0.8-1.2,1.4-1.7c0.6-0.3,1.2-0.6,2-0.6c1,0,1.8,0.4,2.5,1.2v-0.9h1.4V93c0,1.4-0.2,2.3-0.5,2.9s-0.8,1-1.4,1.3
		c-0.6,0.3-1.3,0.5-2.1,0.5c-1.1,0-1.8-0.3-2.4-0.8C329.6,96.4,329.1,96,329.1,95.1z M330.3,89.8c0,1,0.1,1.9,0.6,2.4
		c0.5,0.4,1,0.8,1.7,0.8c0.6,0,1.2-0.3,1.6-0.8c0.4-0.5,0.8-1.3,0.8-2.4s-0.3-1.8-0.8-2.4s-1-0.8-1.6-0.8c-0.6,0-1.2,0.3-1.7,0.8
		C330.6,88,330.3,88.8,330.3,89.8z"/>
	<path class="st4" d="M345.9,97.8c-0.8-1-1.5-2.3-2.1-3.6c-0.6-1.3-0.9-2.7-0.9-4.2c0-1.3,0.1-2.6,0.6-3.6c0.5-1.4,1.2-2.7,2.3-4.1
		h1.1c-0.6,1.1-1.1,1.9-1.4,2.4c-0.3,0.8-0.6,1.5-0.8,2.3c-0.3,1.1-0.3,2-0.3,3c0,2.6,0.8,5.1,2.4,7.8
		C346.8,97.8,345.9,97.8,345.9,97.8z"/>
</g>
<g class="st1">
	<path class="st5" d="M348.4,91.6l1.4-0.1c0.1,0.6,0.3,1.2,0.8,1.3c0.3,0.3,0.8,0.5,1.3,0.5s0.9-0.1,1.2-0.3
		c0.3-0.2,0.6-0.5,0.8-0.8c0.1-0.3,0.5-0.8,0.6-1.4c0.2-0.6,0.2-1.2,0.2-1.8c0,0,0-0.1,0-0.3c-0.3,0.4-0.8,0.9-1.2,1
		c-0.5,0.2-1,0.5-1.7,0.5c-1,0-1.8-0.3-2.5-1.1s-1-1.7-1-2.9c0-1.2,0.3-2.1,1-2.8s1.7-1.1,2.7-1.1c0.8,0,1.5,0.1,2.1,0.6
		c0.6,0.4,1.1,1,1.5,1.8c0.3,0.8,0.5,1.8,0.5,3.3s-0.1,2.7-0.5,3.6c-0.3,0.9-0.8,1.5-1.5,2.1c-0.6,0.5-1.3,0.8-2.3,0.8
		c-0.9,0-1.6-0.3-2.3-0.8C348.8,93.4,348.6,92.5,348.4,91.6z M354.3,86.4c0-0.9-0.2-1.5-0.6-1.9c-0.4-0.4-0.9-0.8-1.6-0.8
		c-0.6,0-1.2,0.3-1.7,0.8s-0.8,1.2-0.8,2.1c0,0.8,0.3,1.3,0.8,1.8s1,0.8,1.7,0.8c0.6,0,1.2-0.3,1.6-0.8
		C354.1,87.9,354.3,87.1,354.3,86.4z"/>
	<path class="st5" d="M359.5,87.9c-0.6-0.1-1.1-0.6-1.4-0.9c-0.3-0.4-0.5-0.9-0.5-1.5c0-0.9,0.3-1.7,0.9-2.1
		c0.6-0.4,1.5-0.9,2.4-0.9c1,0,1.8,0.3,2.5,0.9c0.8,0.6,0.9,1.4,0.9,2.3c0,0.6-0.2,1.1-0.5,1.5c-0.3,0.5-0.8,0.8-1.3,0.9
		c0.8,0.3,1.2,0.6,1.6,1.2c0.5,0.6,0.6,1.2,0.6,1.9c0,1.1-0.3,1.8-1,2.5c-0.8,0.8-1.7,1-2.9,1c-1.2,0-2.1-0.3-2.9-1s-1-1.5-1-2.5
		c0-0.8,0.2-1.4,0.6-2C358.3,88.5,358.9,88,359.5,87.9z M358.8,90.9c0,0.5,0.1,0.8,0.3,1.2c0.1,0.4,0.5,0.8,0.9,0.9
		c0.5,0.2,0.8,0.3,1.2,0.3c0.8,0,1.2-0.2,1.6-0.6c0.5-0.4,0.8-1,0.8-1.6c0-0.8-0.3-1.2-0.8-1.8c-0.4-0.4-1-0.8-1.8-0.8
		s-1.2,0.2-1.6,0.8C359.1,89.7,358.8,90.3,358.8,90.9z M359.2,85.5c0,0.6,0.2,1.1,0.6,1.4c0.3,0.3,0.9,0.6,1.3,0.6
		c0.6,0,1-0.1,1.4-0.6c0.3-0.3,0.6-0.8,0.6-1.4s-0.1-1.1-0.6-1.3c-0.3-0.3-0.8-0.6-1.4-0.6c-0.6,0-1,0.2-1.3,0.6
		S359.2,85,359.2,85.5z"/>
	<path class="st5" d="M371.5,94.3v-8.5h1.3v1.3c0.3-0.6,0.6-1,0.9-1.2c0.3-0.1,0.6-0.3,0.9-0.3c0.5,0,1,0.2,1.5,0.5l-0.5,1.3
		c-0.3-0.1-0.8-0.3-1-0.3s-0.6,0.2-0.9,0.3c-0.3,0.2-0.5,0.4-0.6,0.8c-0.1,0.4-0.3,1.1-0.3,1.7v4.5L371.5,94.3L371.5,94.3z"/>
	<path class="st5" d="M382.8,91.5l1.5,0.2c-0.3,0.9-0.6,1.5-1.3,2.1c-0.6,0.5-1.5,0.8-2.4,0.8c-1.2,0-2.3-0.5-3-1.2
		c-0.8-0.8-1-1.8-1-3.3s0.3-2.5,1-3.3s1.7-1.2,2.9-1.2c1.2,0,2.1,0.5,2.8,1.2c0.7,0.7,1.1,1.8,1.1,3.3c0,0.2,0,0.2,0,0.5h-6.3
		c0,0.9,0.3,1.6,0.8,2.1c0.5,0.4,1.1,0.8,1.8,0.8c0.6,0,1-0.1,1.3-0.4C382.3,92.5,382.6,92.2,382.8,91.5z M378.1,89.2h4.8
		c0-0.8-0.3-1.2-0.6-1.6c-0.4-0.6-1-0.9-1.8-0.9c-0.6,0-1.2,0.2-1.6,0.6C378.4,87.7,378.1,88.5,378.1,89.2z"/>
	<path class="st5" d="M388.4,94.3l-3.3-8.6h1.5l1.8,5.1c0.2,0.6,0.4,1.2,0.6,1.6c0.1-0.4,0.3-1.1,0.6-1.6l1.9-5.3h1.5l-3.3,8.5
		L388.4,94.3L388.4,94.3z"/>
	<path class="st5" d="M394.3,84.1v-1.6h1.5v1.6H394.3z M394.3,94.3v-8.5h1.5v8.5H394.3z"/>
	<path class="st5" d="M403.9,91.5l1.5,0.2c-0.3,0.9-0.6,1.5-1.3,2.1c-0.6,0.5-1.5,0.8-2.4,0.8c-1.2,0-2.3-0.5-3-1.2
		c-0.8-0.8-1.1-1.8-1.1-3.3s0.3-2.5,1.1-3.3c0.8-0.8,1.7-1.2,2.9-1.2c1.2,0,2.1,0.5,2.8,1.2c0.7,0.7,1.1,1.8,1.1,3.3
		c0,0.2,0,0.2,0,0.5h-6.4c0,0.9,0.3,1.6,0.8,2.1c0.4,0.4,1.1,0.8,1.8,0.8c0.6,0,1.1-0.1,1.4-0.4C403.3,92.5,403.6,92.2,403.9,91.5z
		 M399.1,89.2h4.8c0-0.8-0.3-1.2-0.6-1.6c-0.4-0.6-1.1-0.9-1.8-0.9c-0.6,0-1.2,0.2-1.6,0.6C399.4,87.7,399.1,88.5,399.1,89.2z"/>
	<path class="st5" d="M408.7,94.3l-2.6-8.6h1.5l1.4,4.9l0.4,1.8c0-0.1,0.1-0.8,0.4-1.8l1.3-4.9h1.5l1.4,4.9l0.4,1.7l0.4-1.7l1.5-4.9
		h1.3l-2.7,8.6h-1.5l-1.3-5.1l-0.3-1.5l-1.8,6.6H408.7z"/>
	<path class="st5" d="M418.4,91.8l1.5-0.3c0.2,0.6,0.3,1.1,0.6,1.4s0.9,0.4,1.5,0.4c0.6,0,1.2-0.2,1.5-0.4c0.3-0.3,0.4-0.6,0.4-0.9
		s-0.2-0.6-0.4-0.8c-0.2-0.1-0.8-0.3-1.5-0.4c-1.1-0.3-1.8-0.4-2.3-0.8c-0.4-0.2-0.8-0.4-0.9-0.8c-0.1-0.3-0.3-0.8-0.3-1.2
		c0-0.5,0.2-0.8,0.3-1.1c0.2-0.3,0.4-0.6,0.8-0.8c0.3-0.2,0.6-0.3,0.9-0.4c0.4-0.2,0.8-0.2,1.2-0.2c0.6,0,1.2,0.2,1.8,0.3
		c0.4,0.1,0.9,0.4,1.1,0.8c0.3,0.3,0.4,0.8,0.4,1.3l-1.4,0.2c0-0.4-0.3-0.8-0.6-1.1c-0.3-0.3-0.8-0.3-1.4-0.3
		c-0.6,0-1.2,0.2-1.3,0.3c-0.3,0.2-0.4,0.4-0.4,0.8c0,0.2,0,0.3,0.1,0.4c0.2,0.2,0.3,0.3,0.6,0.5c0.1,0,0.6,0.1,1.3,0.3
		c1.1,0.3,1.8,0.5,2.1,0.6c0.4,0.1,0.8,0.4,0.9,0.8c0.3,0.3,0.3,0.8,0.3,1.2s-0.1,0.9-0.4,1.4c-0.3,0.4-0.8,0.7-1.2,1
		c-0.6,0.3-1.2,0.3-1.8,0.3c-1.1,0-1.9-0.3-2.6-0.8C419.1,93.3,418.6,92.7,418.4,91.8z"/>
</g>
<g class="st1">
	<path class="st4" d="M428.2,97.8h-1.1c1.7-2.5,2.4-5.1,2.4-7.8c0-1.1-0.2-1.9-0.3-3c-0.2-0.8-0.4-1.6-0.8-2.3
		c-0.2-0.4-0.6-1.3-1.4-2.4h1.1c1.1,1.4,1.8,2.7,2.3,4c0.4,1.2,0.6,2.4,0.6,3.6c0,1.5-0.3,2.8-0.9,4.2
		C429.7,95.5,429.1,96.7,428.2,97.8z"/>
</g>
<g class="st1">
	<path class="st4" d="M2.2,111v1.6H0.7v-1.3c0-0.8,0.2-1.2,0.3-1.5c0.1-0.5,0.6-0.8,1-0.9l0.3,0.6c-0.3,0.1-0.5,0.3-0.6,0.6
		c-0.2,0-0.3,0.5-0.3,0.9C1.4,111,2.2,111,2.2,111z M4.8,111v1.6H3.3v-1.3c0-0.8,0.1-1.2,0.3-1.5c0.3-0.5,0.6-0.8,1.1-0.9l0.3,0.6
		c-0.3,0.1-0.4,0.3-0.6,0.6s-0.2,0.6-0.3,1L4.8,111L4.8,111z"/>
	<path class="st4" d="M6.7,120.7v-11.8H11c0.9,0,1.7,0.2,2.1,0.3c0.5,0.2,0.9,0.6,1.3,1c0.3,0.5,0.5,1,0.5,1.5s-0.2,1.1-0.5,1.4
		c-0.3,0.5-0.8,0.8-1.2,1c0.8,0.1,1.2,0.6,1.7,1c0.5,0.5,0.6,1,0.6,1.8c0,0.6-0.2,1-0.3,1.5c-0.3,0.5-0.5,0.9-0.9,1
		c-0.3,0.3-0.8,0.5-1.3,0.6c-0.5,0.2-1.2,0.2-2,0.2H6.7C6.7,120.2,6.7,120.7,6.7,120.7z M8.2,114h2.5c0.8,0,1.2,0,1.5-0.2
		c0.5-0.1,0.8-0.3,0.9-0.6c0.1-0.3,0.3-0.6,0.3-1.1s-0.2-0.8-0.3-1c-0.2-0.3-0.5-0.5-0.8-0.6c-0.3-0.2-0.9-0.2-1.8-0.2H8.1L8.2,114
		L8.2,114z M8.2,119.4h3c0.5,0,0.9,0,1,0c0.3,0,0.6-0.1,0.9-0.3c0.3-0.2,0.5-0.3,0.6-0.6c0.2-0.3,0.3-0.6,0.3-1
		c0-0.5-0.2-0.8-0.3-1.2c-0.3-0.3-0.6-0.6-0.9-0.8c-0.5-0.2-0.9-0.2-1.8-0.2H8.2V119.4z"/>
	<path class="st4" d="M23.4,118l1.5,0.1c-0.3,0.9-0.6,1.5-1.3,2.1c-0.6,0.5-1.5,0.8-2.4,0.8c-1.2,0-2.3-0.5-3-1.2s-1-1.8-1-3.3
		s0.3-2.5,1-3.3s1.7-1.2,2.8-1.2c1.2,0,2.1,0.5,2.8,1.2s1.1,1.8,1.1,3.3c0,0.1,0,0.1,0,0.5h-6.3c0,0.9,0.3,1.6,0.8,2.1
		s1,0.8,1.8,0.8c0.6,0,1-0.1,1.3-0.5C22.9,119.1,23.2,118.6,23.4,118z M18.7,115.6h4.8c0-0.8-0.3-1.2-0.6-1.6
		c-0.5-0.6-1-0.9-1.8-0.9c-0.6,0-1.2,0.2-1.7,0.6C19,114.3,18.7,114.9,18.7,115.6z"/>
	<path class="st4" d="M26,118.2l1.5-0.3c0.2,0.6,0.3,1,0.6,1.4c0.3,0.3,0.9,0.5,1.5,0.5s1.2-0.2,1.5-0.5s0.5-0.6,0.5-0.9
		s-0.2-0.6-0.5-0.8c-0.1-0.1-0.8-0.3-1.5-0.5c-1-0.3-1.8-0.5-2.3-0.8c-0.4-0.1-0.8-0.5-0.9-0.8c-0.2-0.3-0.3-0.8-0.3-1.2
		s0.2-0.8,0.3-1c0.1-0.3,0.4-0.6,0.8-0.8c0.1-0.1,0.6-0.3,0.9-0.5c0.3-0.2,0.8-0.1,1.2-0.1c0.6,0,1.2,0.1,1.8,0.3
		c0.5,0.1,0.9,0.5,1.1,0.8c0.3,0.3,0.4,0.8,0.4,1.3l-1.2,0.2c0-0.5-0.3-0.8-0.6-1c-0.3-0.3-0.8-0.3-1.3-0.3c-0.6,0-1.2,0.1-1.4,0.3
		c-0.3,0.1-0.4,0.5-0.4,0.8c0,0.1,0,0.3,0.1,0.5c0.2,0.1,0.3,0.3,0.6,0.5c0.1,0,0.6,0.1,1.3,0.3c1,0.3,1.8,0.5,2.1,0.6
		c0.5,0.2,0.8,0.5,0.9,0.8s0.3,0.8,0.3,1.2s-0.1,0.9-0.4,1.4c-0.3,0.5-0.8,0.8-1.2,1c-0.5,0.3-1.2,0.3-1.8,0.3
		c-1.1,0-1.9-0.3-2.6-0.8C26.6,119.8,26.4,119.1,26,118.2z"/>
	<path class="st4" d="M38,119.5l0.2,1.3c-0.4,0.2-0.8,0.2-1.1,0.2c-0.6,0-0.9-0.2-1.2-0.3c-0.3-0.2-0.4-0.5-0.6-0.6
		c-0.2-0.1-0.2-0.9-0.2-1.6v-5H34v-1.2h1.1v-2.1l1.5-0.9v3h1.5v1.2h-1.5v5c0,0.5,0,0.8,0.2,0.8c0,0.1,0.2,0.1,0.3,0.3
		c0.2,0,0.3,0.1,0.5,0.1C37.6,119.5,37.9,119.5,38,119.5z"/>
	<path class="st4" d="M44,124v-11.8h1.4v1c0.3-0.5,0.6-0.8,1.1-1c0.4-0.1,0.9-0.3,1.3-0.3c0.8,0,1.4,0.2,2,0.6s1.1,0.9,1.2,1.6
		c0.3,0.8,0.4,1.5,0.4,2.3c0,0.9-0.1,1.7-0.4,2.4s-0.8,1.2-1.4,1.6c-0.6,0.3-1.2,0.6-1.9,0.6c-0.4,0-0.9-0.2-1.4-0.3
		c-0.4-0.2-0.8-0.5-0.9-0.8v4.2L44,124C44,124.1,44,124,44,124z M45.4,116.5c0,1,0.1,2,0.6,2.4c0.4,0.6,1,0.8,1.6,0.8
		c0.6,0,1.2-0.3,1.6-0.8c0.4-0.6,0.8-1.3,0.8-2.5c0-1-0.1-2-0.6-2.4c-0.4-0.6-1.1-0.8-1.6-0.8c-0.6,0-1.2,0.3-1.7,0.9
		C45.7,114.6,45.4,115.5,45.4,116.5z"/>
	<path class="st4" d="M53.2,120.7v-8.5h1.4v1.3c0.3-0.6,0.6-1,0.9-1.2c0.3-0.1,0.6-0.3,0.9-0.3c0.4,0,1.1,0.2,1.5,0.5l-0.4,1.4
		c-0.3-0.2-0.8-0.3-1.1-0.3s-0.6,0.1-0.9,0.3c-0.3,0.1-0.4,0.5-0.6,0.8c-0.1,0.5-0.3,1-0.3,1.6v4.5
		C54.6,120.7,53.2,120.7,53.2,120.7z"/>
	<path class="st4" d="M58.8,110.7v-1.6h1.5v1.6H58.8z M58.8,120.7v-8.5h1.5v8.5H58.8z"/>
	<path class="st4" d="M67.9,117.6l1.4,0.1c-0.1,1-0.6,1.8-1.2,2.3c-0.6,0.6-1.5,0.9-2.4,0.9c-1.2,0-2.1-0.5-2.9-1.2s-1-1.8-1-3.3
		c0-0.9,0.1-1.8,0.4-2.4c0.3-0.6,0.8-1.2,1.4-1.5c0.6-0.3,1.4-0.5,2.1-0.5c0.9,0,1.6,0.3,2.3,0.8c0.7,0.5,0.9,1.2,1.2,2l-1.4,0.1
		c-0.1-0.6-0.3-1-0.8-1.4c-0.3-0.3-0.8-0.5-1.2-0.5c-0.8,0-1.4,0.3-1.8,0.8c-0.4,0.5-0.8,1.4-0.8,2.5c0,1.2,0.1,2,0.6,2.5
		s1.1,0.8,1.6,0.8c0.6,0,1.1-0.1,1.4-0.5C67.6,118.9,67.9,118.3,67.9,117.6z"/>
	<path class="st4" d="M76.5,118l1.5,0.1c-0.3,0.9-0.6,1.5-1.4,2.1c-0.6,0.5-1.5,0.8-2.4,0.8c-1.2,0-2.3-0.5-3-1.2
		c-0.7-0.7-1.1-1.8-1.1-3.3s0.3-2.5,1.1-3.3c0.8-0.8,1.6-1.2,2.9-1.2c1.2,0,2.1,0.5,2.9,1.2c0.8,0.7,1.1,1.8,1.1,3.3
		c0,0.1,0,0.1,0,0.5h-6.3c0,0.9,0.3,1.6,0.8,2.1s1.1,0.8,1.8,0.8c0.6,0,1.1-0.1,1.4-0.5C76,119.1,76.3,118.6,76.5,118z M71.7,115.6
		h4.8c0-0.8-0.3-1.2-0.6-1.6c-0.4-0.6-1.1-0.9-1.8-0.9c-0.6,0-1.2,0.2-1.6,0.6C72,114.3,71.8,114.9,71.7,115.6z"/>
	<path class="st4" d="M79.2,118.2l1.5-0.3c0.1,0.6,0.3,1,0.6,1.4c0.3,0.3,0.9,0.5,1.5,0.5s1.2-0.2,1.5-0.5s0.4-0.6,0.4-0.9
		s-0.1-0.6-0.4-0.8c-0.1-0.1-0.8-0.3-1.5-0.5c-1.1-0.3-1.8-0.5-2.3-0.8c-0.4-0.1-0.7-0.4-0.9-0.7c-0.2-0.3-0.1-0.7-0.1-1.2
		s0.1-0.8,0.3-1c0.1-0.3,0.4-0.6,0.8-0.8c0.1-0.1,0.6-0.3,0.9-0.5c0.3-0.2,0.8-0.1,1.2-0.1c0.6,0,1.2,0.1,1.8,0.3
		c0.4,0.1,0.9,0.5,1.1,0.8c0.3,0.3,0.4,0.8,0.4,1.3l-1.4,0.2c0-0.5-0.3-0.8-0.6-1c-0.3-0.2-0.8-0.3-1.4-0.3c-0.6,0-1.2,0.1-1.4,0.3
		c-0.3,0.1-0.4,0.4-0.4,0.7c0,0.1,0,0.3,0.1,0.5c0.1,0.1,0.3,0.3,0.6,0.5c0.1,0,0.6,0.1,1.4,0.3c1.1,0.3,1.8,0.5,2.1,0.6
		c0.4,0.2,0.8,0.5,0.9,0.8s0.3,0.8,0.3,1.2s-0.1,0.9-0.4,1.4c-0.3,0.5-0.8,0.8-1.2,1c-0.4,0.2-1.2,0.3-1.8,0.3
		c-1.1,0-1.9-0.3-2.6-0.8C79.8,119.8,79.3,119.1,79.2,118.2z"/>
	<path class="st4" d="M98.2,119.7c-0.6,0.5-1,0.8-1.5,0.9s-1.1,0.3-1.6,0.3c-0.9,0-1.6-0.3-2.1-0.8s-0.8-1-0.8-1.8
		c0-0.5,0.1-0.8,0.3-1.2c0.1-0.3,0.4-0.6,0.8-0.9c0.3-0.1,0.6-0.3,1.1-0.5c0.3,0,0.8-0.1,1.4-0.1c1.2-0.2,2.1-0.3,2.5-0.5
		c0-0.2,0-0.3,0-0.5c0-0.6-0.1-1-0.5-1.2c-0.3-0.3-0.9-0.5-1.6-0.5c-0.7,0-1.2,0.1-1.5,0.3c-0.3,0.1-0.6,0.6-0.8,1.2l-1.4-0.2
		c0.1-0.6,0.3-1,0.6-1.5c0.3-0.3,0.8-0.6,1.4-0.9c0.6-0.2,1.2-0.3,2-0.3c0.8,0,1.4,0.1,1.8,0.3c0.5,0.1,0.8,0.5,1,0.6
		c0.1,0.3,0.3,0.6,0.5,1c0,0.3,0,0.8,0,1.4v2c0,1.3,0,2.3,0.1,2.5s0.1,0.8,0.3,1h-1.5C98.3,120.4,98.2,120.1,98.2,119.7z
		 M98.1,116.5c-0.6,0.1-1.4,0.5-2.4,0.6c-0.6,0.2-1.1,0.2-1.2,0.3c-0.3,0.2-0.4,0.3-0.6,0.5s-0.1,0.5-0.1,0.8c0,0.5,0.1,0.8,0.4,0.9
		c0.3,0.1,0.8,0.5,1.4,0.5c0.6,0,1.1-0.2,1.5-0.3c0.5-0.3,0.8-0.6,0.9-1c0.1-0.3,0.3-0.8,0.3-1.5L98.1,116.5L98.1,116.5z"/>
	<path class="st4" d="M101.8,120.7v-8.5h1.4v1.2c0.6-0.9,1.5-1.4,2.7-1.4c0.5,0,1,0.2,1.4,0.3c0.5,0.2,0.8,0.5,0.9,0.8
		s0.3,0.6,0.5,1c0,0.3,0.1,0.8,0.1,1.4v5.3h-1.5v-5.3c0-0.6,0-1-0.1-1.4c-0.1-0.3-0.3-0.5-0.6-0.8s-0.6-0.3-1-0.3
		c-0.6,0-1.2,0.2-1.6,0.6c-0.5,0.5-0.6,1.2-0.6,2.3v4.6L101.8,120.7L101.8,120.7z"/>
	<path class="st4" d="M110.8,124l-0.1-1.4c0.3,0.2,0.6,0.2,0.9,0.2s0.6,0,0.8-0.2c0.1-0.1,0.3-0.3,0.5-0.5c0.1-0.1,0.3-0.5,0.5-1
		c0-0.1,0-0.1,0.1-0.3l-3.3-8.5h1.5l1.8,5c0.3,0.6,0.5,1.4,0.6,2c0.1-0.6,0.3-1.3,0.6-2l1.8-5h1.5l-3.3,8.7c-0.3,0.9-0.6,1.7-0.8,2
		c-0.3,0.5-0.6,0.9-0.9,1c-0.3,0.2-0.8,0.3-1.2,0.3C111.6,124.2,111.2,124.2,110.8,124z"/>
	<path class="st4" d="M120.7,120.7l-2.5-8.5h1.5l1.4,5l0.5,1.8c0-0.2,0.1-0.8,0.5-1.8l1.4-5h1.3l1.4,5l0.5,1.6l0.5-1.6l1.5-5h1.4
		l-2.7,8.5h-1.5l-1.4-5.1l-0.3-1.5l-1.8,6.6H120.7z"/>
	<path class="st4" d="M131.1,120.7v-11.8h1.5v4.2c0.8-0.8,1.5-1.2,2.5-1.2c0.6,0,1.2,0.2,1.6,0.3c0.4,0.2,0.8,0.6,1,1
		c0.2,0.5,0.3,1,0.3,2v5.4h-1.5v-5.4c0-0.8-0.1-1.2-0.5-1.6c-0.3-0.3-0.8-0.5-1.4-0.5c-0.5,0-0.9,0.1-1.2,0.3
		c-0.3,0.1-0.6,0.5-0.8,0.9c-0.1,0.4-0.3,0.9-0.3,1.7v4.6h-1.5L131.1,120.7L131.1,120.7z"/>
	<path class="st4" d="M146.1,118l1.5,0.1c-0.3,0.9-0.6,1.5-1.3,2.1c-0.6,0.5-1.5,0.8-2.4,0.8c-1.2,0-2.3-0.5-3-1.2
		c-0.7-0.7-1-1.8-1-3.3s0.3-2.5,1-3.3c0.7-0.8,1.7-1.2,2.9-1.2s2.1,0.5,2.9,1.2c0.8,0.7,1,1.8,1,3.3c0,0.1,0,0.1,0,0.5h-6.3
		c0,0.9,0.3,1.6,0.8,2.1c0.4,0.5,1,0.8,1.8,0.8c0.6,0,1.1-0.1,1.4-0.5C145.6,119.1,145.9,118.6,146.1,118z M141.2,115.6h4.8
		c0-0.8-0.3-1.2-0.6-1.6c-0.5-0.6-1.1-0.9-1.8-0.9c-0.6,0-1.2,0.2-1.6,0.6C141.6,114.3,141.4,114.9,141.2,115.6z"/>
	<path class="st4" d="M149.4,120.7v-8.5h1.3v1.3c0.3-0.6,0.6-1,0.9-1.2c0.3-0.1,0.6-0.3,0.9-0.3c0.5,0,1,0.2,1.5,0.5l-0.5,1.4
		c-0.3-0.2-0.8-0.3-1-0.3s-0.6,0.1-0.9,0.3c-0.3,0.1-0.5,0.5-0.6,0.8c-0.1,0.5-0.3,1-0.3,1.6v4.5
		C150.7,120.7,149.4,120.7,149.4,120.7z"/>
	<path class="st4" d="M160.7,118l1.5,0.1c-0.3,0.9-0.6,1.5-1.4,2.1c-0.6,0.5-1.5,0.8-2.4,0.8c-1.2,0-2.3-0.5-3-1.2
		c-0.7-0.7-1-1.8-1-3.3s0.3-2.5,1-3.3c0.7-0.8,1.6-1.2,2.9-1.2c1.2,0,2.1,0.5,2.8,1.2s1,1.8,1,3.3c0,0.1,0,0.1,0,0.5h-6.3
		c0,0.9,0.3,1.6,0.8,2.1s1,0.8,1.8,0.8c0.6,0,1-0.1,1.4-0.5C160.2,119.1,160.5,118.6,160.7,118z M156,115.6h4.8
		c0-0.8-0.3-1.2-0.6-1.6c-0.4-0.6-1-0.9-1.8-0.9c-0.6,0-1.2,0.2-1.7,0.6C156.2,114.3,156,114.9,156,115.6z"/>
	<path class="st4" d="M164.8,117.9l-0.4-6.3v-2.5h1.8v2.5l-0.5,6.3H164.8z M164.4,120.7V119h1.6v1.7H164.4z"/>
	<path class="st4" d="M168.2,110.5v-1.6h1.5v1.4c0,0.8-0.1,1.2-0.3,1.5c-0.3,0.5-0.6,0.8-1,1l-0.3-0.6c0.3-0.1,0.5-0.3,0.6-0.6
		c0.2-0.3,0.2-0.6,0.3-1h-0.8C168.2,110.6,168.2,110.5,168.2,110.5z M170.7,110.5v-1.6h1.5v1.4c0,0.8-0.1,1.2-0.3,1.5
		c-0.3,0.5-0.6,0.8-1,1l-0.3-0.6c0.3-0.1,0.5-0.3,0.6-0.6c0.2-0.3,0.2-0.6,0.3-1h-0.8C170.7,110.6,170.7,110.5,170.7,110.5z"/>
	<path class="st4" d="M178.2,117.3v-1.5h4.5v1.5H178.2z"/>
	<path class="st4" d="M189.1,120.7v-7.4h-1.4v-1.2h1.4v-0.9c0-0.6,0-1,0.1-1.4c0.1-0.3,0.5-0.8,0.8-0.9c0.3-0.3,0.9-0.3,1.5-0.3
		c0.5,0,0.9,0,1.3,0.1l-0.2,1.2c-0.3,0-0.6-0.1-0.9-0.1c-0.5,0-0.8,0.1-0.9,0.3c-0.2,0.1-0.3,0.6-0.3,1v0.8h1.7v1.2h-1.8v7.3
		L189.1,120.7L189.1,120.7z"/>
	<path class="st4" d="M193.3,120.7v-8.5h1.3v1.3c0.3-0.6,0.6-1,0.9-1.2c0.3-0.1,0.6-0.3,0.9-0.3c0.5,0,1,0.2,1.5,0.5l-0.5,1.4
		c-0.3-0.2-0.8-0.3-1-0.3s-0.6,0.1-0.9,0.3c-0.3,0.1-0.5,0.5-0.6,0.8c-0.2,0.5-0.3,1-0.3,1.6v4.5
		C194.7,120.7,193.3,120.7,193.3,120.7z"/>
	<path class="st4" d="M198.2,116.5c0-1.7,0.5-2.7,1.3-3.5c0.8-0.6,1.7-0.9,2.7-0.9c1.2,0,2.1,0.5,2.8,1.2s1.1,1.8,1.1,3.2
		c0,1-0.2,2-0.4,2.5c-0.3,0.6-0.8,1-1.5,1.5s-1.4,0.5-2.1,0.5c-1.2,0-2.1-0.5-2.8-1.2C198.5,119.1,198.2,117.9,198.2,116.5z
		 M199.7,116.5c0,1,0.3,2,0.8,2.4c0.4,0.6,1.1,0.8,1.8,0.8s1.3-0.3,1.8-0.8c0.5-0.6,0.8-1.3,0.8-2.5c0-1-0.3-1.8-0.8-2.4
		s-1-0.8-1.8-0.8s-1.4,0.3-1.8,0.8C199.9,114.6,199.7,115.3,199.7,116.5z"/>
	<path class="st4" d="M207.9,120.7v-8.5h1.3v1.2c0.3-0.5,0.6-0.8,1.1-1s0.9-0.5,1.5-0.5s1.2,0.1,1.5,0.5c0.3,0.3,0.8,0.6,0.9,1
		c0.8-1,1.5-1.5,2.7-1.5c0.9,0,1.5,0.3,1.9,0.8s0.8,1.2,0.8,2.1v5.9h-1.5v-5.4c0-0.6,0-1-0.2-1.2c-0.2-0.3-0.3-0.5-0.5-0.6
		c-0.3-0.2-0.6-0.3-0.9-0.3c-0.6,0-1.1,0.1-1.5,0.6c-0.5,0.5-0.6,1-0.6,2v5h-1.5v-5.5c0-0.6-0.1-1.2-0.3-1.5
		c-0.3-0.3-0.6-0.5-1.2-0.5c-0.4,0-0.8,0.2-1.2,0.3c-0.4,0.2-0.6,0.6-0.8,0.9s-0.3,1-0.3,1.8v4.5L207.9,120.7L207.9,120.7z"/>
	<path class="st4" d="M231.9,117.6l1.3,0.1c-0.1,1-0.6,1.8-1.2,2.3c-0.6,0.6-1.5,0.9-2.4,0.9c-1.2,0-2.1-0.5-2.8-1.2
		s-1.1-1.8-1.1-3.3c0-0.9,0.2-1.8,0.5-2.4c0.3-0.8,0.8-1.2,1.3-1.5s1.3-0.5,2.1-0.5c0.9,0,1.7,0.3,2.3,0.8s0.9,1.2,1.2,2l-1.4,0.2
		c-0.1-0.6-0.3-1-0.8-1.4c-0.3-0.3-0.8-0.5-1.2-0.5c-0.8,0-1.3,0.3-1.8,0.8c-0.4,0.5-0.8,1.4-0.8,2.5c0,1.2,0.2,2,0.6,2.5
		s1,0.8,1.6,0.8s1.1-0.1,1.4-0.5C231.4,118.9,231.7,118.3,231.9,117.6z"/>
	<path class="st4" d="M233.9,116.5c0-1.7,0.5-2.7,1.4-3.5c0.8-0.6,1.6-0.9,2.7-0.9c1.2,0,2.1,0.5,2.8,1.2s1,1.8,1,3.2
		c0,1-0.1,2-0.4,2.5c-0.3,0.6-0.8,1-1.5,1.5s-1.3,0.5-2.1,0.5c-1.2,0-2.1-0.5-2.8-1.2S233.9,117.9,233.9,116.5z M235.4,116.5
		c0,1,0.3,2,0.8,2.4c0.5,0.6,1.1,0.8,1.8,0.8s1.3-0.3,1.8-0.8c0.4-0.6,0.8-1.3,0.8-2.5c0-1-0.3-1.8-0.8-2.4s-1.1-0.8-1.8-0.8
		s-1.3,0.3-1.8,0.8C235.6,114.6,235.4,115.3,235.4,116.5z"/>
	<path class="st4" d="M243.6,120.7v-8.5h1.3v1.2c0.6-0.9,1.5-1.4,2.7-1.4c0.5,0,1,0.2,1.3,0.3c0.4,0.2,0.8,0.5,0.9,0.8
		s0.3,0.6,0.5,1c0,0.3,0.1,0.8,0.1,1.4v5.3h-1.5v-5.3c0-0.6,0-1-0.1-1.4c-0.2-0.3-0.3-0.5-0.6-0.8s-0.6-0.3-1-0.3
		c-0.6,0-1.2,0.2-1.7,0.6s-0.6,1.2-0.6,2.3v4.6L243.6,120.7L243.6,120.7z"/>
	<path class="st4" d="M252.2,118.2l1.5-0.3c0.2,0.6,0.3,1,0.6,1.4c0.3,0.3,0.9,0.5,1.5,0.5c0.6,0,1.2-0.2,1.5-0.5
		c0.3-0.3,0.5-0.6,0.5-0.9s-0.2-0.6-0.5-0.8c-0.2-0.1-0.8-0.3-1.5-0.5c-1-0.3-1.8-0.5-2.3-0.8c-0.5-0.1-0.8-0.5-0.9-0.8
		s-0.3-0.8-0.3-1.2s0.2-0.8,0.3-1c0.2-0.3,0.4-0.6,0.8-0.8c0.3-0.1,0.6-0.3,0.9-0.5c0.5-0.1,0.8-0.1,1.2-0.1c0.6,0,1.2,0.1,1.8,0.3
		c0.5,0.1,0.9,0.5,1,0.8c0.3,0.3,0.5,0.8,0.5,1.3l-1.3,0.2c0-0.5-0.3-0.8-0.6-1s-0.8-0.3-1.3-0.3c-0.5,0-1.2,0.1-1.3,0.3
		c-0.3,0.1-0.5,0.5-0.5,0.8c0,0.1,0,0.3,0.2,0.5c0.1,0.1,0.3,0.3,0.6,0.5c0.2,0,0.6,0.1,1.4,0.3c1,0.3,1.8,0.5,2.1,0.6
		c0.5,0.2,0.8,0.5,0.9,0.8c0.3,0.3,0.3,0.8,0.3,1.2s-0.2,0.9-0.5,1.4s-0.8,0.8-1.2,1c-0.6,0.3-1.2,0.3-1.8,0.3c-1,0-1.9-0.3-2.5-0.8
		C252.7,119.8,252.4,119.1,252.2,118.2z"/>
	<path class="st4" d="M266.7,120.7v-1.2c-0.6,0.9-1.5,1.5-2.7,1.5c-0.4,0-0.9-0.2-1.3-0.3c-0.5-0.2-0.8-0.5-0.9-0.8
		c-0.1-0.3-0.3-0.6-0.4-1c0-0.3-0.2-0.8-0.2-1.4v-5.3h1.5v4.8c0,0.8,0,1.2,0.2,1.5c0.2,0.5,0.3,0.8,0.6,0.9c0.3,0.1,0.6,0.3,1,0.3
		c0.5,0,0.9-0.2,1.2-0.3c0.5-0.2,0.6-0.6,0.8-0.9c0.2-0.5,0.3-0.9,0.3-1.6v-4.5h1.5v8.5h-1.5L266.7,120.7L266.7,120.7z"/>
	<path class="st4" d="M270.1,120.7v-8.5h1.3v1.2c0.3-0.5,0.6-0.8,1.1-1s0.9-0.5,1.5-0.5c0.6,0,1.2,0.1,1.5,0.5
		c0.4,0.3,0.8,0.6,0.9,1c0.8-1,1.5-1.5,2.7-1.5c0.9,0,1.5,0.3,1.9,0.8s0.8,1.2,0.8,2.1v5.9h-1.5v-5.4c0-0.6,0-1-0.2-1.2
		c-0.2-0.3-0.3-0.5-0.5-0.6c-0.3-0.2-0.6-0.3-0.9-0.3c-0.6,0-1.1,0.1-1.5,0.6c-0.5,0.5-0.6,1-0.6,2v5h-1.5v-5.5
		c0-0.6-0.1-1.2-0.3-1.5c-0.3-0.3-0.6-0.5-1.2-0.5c-0.4,0-0.8,0.2-1.2,0.3c-0.4,0.2-0.6,0.6-0.8,0.9s-0.3,1-0.3,1.8v4.5L270.1,120.7
		L270.1,120.7z"/>
	<path class="st4" d="M289.7,118l1.5,0.1c-0.3,0.9-0.6,1.5-1.3,2.1c-0.6,0.5-1.5,0.8-2.4,0.8c-1.2,0-2.3-0.5-3-1.2s-1.1-1.8-1.1-3.3
		s0.3-2.5,1.1-3.3s1.7-1.2,2.8-1.2c1.2,0,2.1,0.5,2.8,1.2s1.1,1.8,1.1,3.3c0,0.1,0,0.1,0,0.5h-6.3c0,0.9,0.3,1.6,0.8,2.1
		s1.1,0.8,1.8,0.8c0.6,0,1.1-0.1,1.3-0.5C289.2,119.1,289.4,118.6,289.7,118z M284.9,115.6h4.8c0-0.8-0.3-1.2-0.6-1.6
		c-0.5-0.6-1-0.9-1.8-0.9c-0.6,0-1.2,0.2-1.7,0.6C285.2,114.3,285.1,114.9,284.9,115.6z"/>
	<path class="st4" d="M293.1,120.7v-8.5h1.3v1.3c0.3-0.6,0.6-1,0.9-1.2c0.3-0.1,0.6-0.3,0.9-0.3c0.5,0,1.1,0.2,1.5,0.5l-0.4,1.4
		c-0.3-0.2-0.8-0.3-1.1-0.3c-0.3,0-0.6,0.1-0.9,0.3c-0.3,0.1-0.5,0.5-0.6,0.8c-0.1,0.5-0.3,1-0.3,1.6v4.5
		C294.4,120.7,293.1,120.7,293.1,120.7z"/>
	<path class="st4" d="M303.1,120.7v-8.5h1.3v1.3c0.3-0.6,0.6-1,0.9-1.2c0.3-0.1,0.6-0.3,0.9-0.3c0.5,0,1.1,0.2,1.5,0.5l-0.4,1.4
		c-0.3-0.2-0.8-0.3-1.1-0.3c-0.3,0-0.6,0.1-0.9,0.3c-0.3,0.1-0.5,0.5-0.6,0.8c-0.1,0.5-0.3,1-0.3,1.6v4.5
		C304.4,120.7,303.1,120.7,303.1,120.7z"/>
	<path class="st4" d="M314.5,118l1.5,0.1c-0.3,0.9-0.6,1.5-1.3,2.1c-0.6,0.5-1.5,0.8-2.4,0.8c-1.2,0-2.3-0.5-3-1.2
		c-0.7-0.7-1.1-1.8-1.1-3.3s0.3-2.5,1.1-3.3c0.8-0.8,1.7-1.2,2.8-1.2c1.2,0,2.1,0.5,2.8,1.2c0.7,0.7,1.1,1.8,1.1,3.3
		c0,0.1,0,0.1,0,0.5h-6.3c0,0.9,0.3,1.6,0.8,2.1s1.1,0.8,1.8,0.8c0.6,0,1-0.1,1.3-0.5C313.9,119.1,314.2,118.6,314.5,118z
		 M309.7,115.6h4.8c0-0.8-0.3-1.2-0.6-1.6c-0.5-0.6-1-0.9-1.8-0.9c-0.6,0-1.2,0.2-1.7,0.6C310,114.3,309.7,114.9,309.7,115.6z"/>
	<path class="st4" d="M320.1,120.7l-3.3-8.5h1.5l1.8,5.1c0.1,0.6,0.4,1.2,0.6,1.7c0.2-0.5,0.3-1,0.6-1.7l1.9-5.3h1.5l-3.3,8.5
		L320.1,120.7L320.1,120.7z"/>
	<path class="st4" d="M326.1,110.7v-1.6h1.5v1.6H326.1z M326.1,120.7v-8.5h1.5v8.5H326.1z"/>
	<path class="st4" d="M335.5,118l1.5,0.1c-0.3,0.9-0.6,1.5-1.4,2.1c-0.6,0.5-1.5,0.8-2.4,0.8c-1.2,0-2.3-0.5-3-1.2s-1.1-1.8-1.1-3.3
		s0.3-2.5,1.1-3.3c0.8-0.8,1.6-1.2,2.8-1.2c1.2,0,2.1,0.5,2.8,1.2c0.7,0.7,1.1,1.8,1.1,3.3c0,0.1,0,0.1,0,0.5h-6.3
		c0,0.9,0.3,1.6,0.8,2.1s1.1,0.8,1.8,0.8c0.6,0,1-0.1,1.3-0.5C334.9,119.1,335.2,118.6,335.5,118z M330.7,115.6h4.8
		c0-0.8-0.3-1.2-0.6-1.6c-0.5-0.6-1-0.9-1.8-0.9c-0.6,0-1.2,0.2-1.7,0.6C331,114.3,330.9,114.9,330.7,115.6z"/>
	<path class="st4" d="M340.4,120.7l-2.5-8.5h1.5l1.4,5l0.4,1.8c0-0.2,0.2-0.8,0.5-1.8l1.4-5h1.5l1.3,5l0.5,1.6l0.5-1.6l1.5-5h1.3
		l-2.7,8.5h-1.5l-1.3-5.1l-0.3-1.5l-1.8,6.6H340.4z"/>
</g>
<polygon class="st6" points="193,81.9 195,86.7 200.1,87 196,90.1 197.4,95.2 193,92.4 188.7,95.2 190,90.1 186.1,87 191.2,86.7 "/>
<polygon class="st6" points="209.8,81.9 211.6,86.7 216.9,87 212.8,90.1 214.2,95.2 209.8,92.4 205.4,95.2 206.8,90.1 202.7,87 
	207.9,86.7 "/>
<polygon class="st6" points="227.1,81.9 228.9,86.7 233.9,87 230.1,90.1 231.4,95.2 227.1,92.4 222.7,95.2 224.1,90.1 220,87 
	225.1,86.7 "/>
<polygon class="st6" points="243.6,81.9 245.4,86.7 250.4,87 246.6,90.1 247.7,95.2 243.6,92.4 239.2,95.2 240.6,90.1 236.5,87 
	241.6,86.7 "/>
<polygon class="st7" points="259.9,81.9 261.9,86.7 266.9,87 262.9,90.1 264.2,95.2 259.9,92.4 255.6,95.2 256.9,90.1 253,87 
	258.1,86.7 "/>
<rect x="235.7" y="21.6" class="st8" width="144.5" height="26.4"/>
<path class="st9" d="M3.1,26.1c-8.6,15.7,19,13.8,10,0H3.1z M4,27.1h8.1C19.3,38.2-2.9,39.7,4,27.1L4,27.1z"/>
<path class="st9" d="M7.3,36.6v4.8c-1.5,0.2-3,0.9-4,1.9c3.1,0.2,6.3,0.2,9.4,0.2c-1-1.2-2.5-1.8-4.2-1.9v-4.9
	C8,36.6,7.6,36.6,7.3,36.6z"/>
<polygon class="st9" points="1.3,30.3 14.5,30.3 14.4,33 12.4,35.4 9.4,36.4 6.4,36.9 4.3,36 2.4,34.6 1.3,32.7 "/>
</svg>
