<?xml version="1.0" encoding="utf-8"?>
<!-- Generator: Adobe Illustrator 19.2.1, SVG Export Plug-In . SVG Version: 6.00 Build 0)  -->
<svg version="1.1" id="Layer_1" xmlns="http://www.w3.org/2000/svg" xmlns:xlink="http://www.w3.org/1999/xlink" x="0px" y="0px"
	 width="181.1px" height="57px" viewBox="0 0 181.1 57" style="enable-background:new 0 0 181.1 57;" xml:space="preserve">
<style type="text/css">
	.st0{fill:none;stroke:#024B50;stroke-width:2;stroke-miterlimit:10;}
	.st1{fill:#024B50;}
	.st2{fill:#008272;}
</style>
<g>
	<rect x="1" y="1" class="st0" width="54.9" height="54.9"/>
	<g>
		<g>
			<path class="st1" d="M34.1,27.2c3.1-3.1,3.1-8.1,0-11.2l-1.4,1.4c2.3,2.3,2.3,6.1,0,8.4L34.1,27.2z"/>
			<path class="st1" d="M22.8,27.2l1.4-1.4c-1.1-1.1-1.7-2.6-1.7-4.2c0-1.6,0.6-3.1,1.7-4.2l-1.4-1.4c-1.5,1.5-2.3,3.5-2.3,5.6
				C20.6,23.7,21.4,25.7,22.8,27.2z"/>
		</g>
		<g>
			<path class="st2" d="M32.6,21.5c0-2.3-1.8-4.2-4.2-4.2c-2.3,0-4.2,1.8-4.2,4.2c0,1.5,0.8,2.9,2.1,3.6L15.9,46.6h4.2l1.1-2.1h14.6
				l1.1,2.1h4.2L30.6,25C31.8,24.3,32.6,23,32.6,21.5z M22.3,42.4l2.2-4.2h8l2.2,4.2H22.3z M25.6,36.1l2.9-5.6l2.9,5.6H25.6z"/>
		</g>
	</g>
</g>
<g>
	<rect x="63.1" y="1" class="st0" width="54.9" height="54.9"/>
	<g>
		<g>
			<path class="st1" d="M96.2,27.1c3.1-3.1,3.1-8.1,0-11.2l-1.4,1.4c2.3,2.3,2.3,6.1,0,8.4L96.2,27.1z"/>
			<path class="st1" d="M85,27.1l1.4-1.4c-1.1-1.1-1.7-2.6-1.7-4.2c0-1.6,0.6-3.1,1.7-4.2L85,16c-1.5,1.5-2.3,3.5-2.3,5.6
				C82.7,23.6,83.5,25.6,85,27.1z"/>
			<path class="st1" d="M99,13.1l-1.4,1.4c3.8,3.8,3.8,10.1,0,14l1.4,1.4C103.6,25.2,103.6,17.7,99,13.1z"/>
			<path class="st1" d="M80.7,21.5c0-2.7,1-5.1,2.9-7l-1.4-1.4c-2.3,2.3-3.5,5.2-3.5,8.4c0,3.2,1.2,6.2,3.5,8.4l1.4-1.4
				C81.7,26.6,80.7,24.2,80.7,21.5z"/>
		</g>
		<g>
			<path class="st2" d="M94.8,21.4c0-2.3-1.8-4.2-4.2-4.2c-2.3,0-4.2,1.8-4.2,4.2c0,1.5,0.8,2.9,2.1,3.6L78.1,46.5h4.2l1.1-2.1H98
				l1.1,2.1h4.2L92.8,25C94,24.2,94.8,22.9,94.8,21.4z M84.4,42.3l2.2-4.2h8l2.2,4.2H84.4z M87.7,36.1l2.9-5.6l2.9,5.6H87.7z"/>
		</g>
	</g>
</g>
<g>
	<rect x="125.2" y="1.1" class="st0" width="54.9" height="54.9"/>
	<g>
		<g>
			<path class="st1" d="M158.3,27.1c3.1-3.1,3.1-8.1,0-11.2l-1.4,1.4c2.3,2.3,2.3,6.1,0,8.4L158.3,27.1z"/>
			<path class="st1" d="M147,27.1l1.4-1.4c-1.1-1.1-1.7-2.6-1.7-4.2c0-1.6,0.6-3.1,1.7-4.2L147,16c-1.5,1.5-2.3,3.5-2.3,5.6
				C144.8,23.6,145.6,25.6,147,27.1z"/>
			<path class="st1" d="M161.1,13.1l-1.4,1.4c3.8,3.8,3.8,10.1,0,14l1.4,1.4C165.7,25.2,165.7,17.7,161.1,13.1z"/>
			<path class="st1" d="M142.8,21.5c0-2.7,1-5.1,2.9-7l-1.4-1.4c-2.3,2.3-3.5,5.2-3.5,8.4c0,3.2,1.2,6.2,3.5,8.4l1.4-1.4
				C143.8,26.6,142.8,24.2,142.8,21.5z"/>
			<path class="st1" d="M163.9,10.3l-1.4,1.4c5.4,5.4,5.4,14.2,0,19.6l1.4,1.4C170.1,26.5,170.1,16.5,163.9,10.3z"/>
			<path class="st1" d="M142.9,11.7l-1.4-1.4c-3,3-4.7,7-4.7,11.2s1.6,8.2,4.7,11.2l1.4-1.4c-2.6-2.6-4-6.1-4-9.8
				C138.8,17.8,140.3,14.4,142.9,11.7z"/>
		</g>
		<g>
			<path class="st2" d="M156.8,21.4c0-2.3-1.8-4.2-4.2-4.2s-4.2,1.8-4.2,4.2c0,1.5,0.8,2.9,2.1,3.6l-10.4,21.6h4.2l1.1-2.1H160
				l1.1,2.1h4.2L154.8,25C156,24.3,156.8,22.9,156.8,21.4z M146.5,42.4l2.2-4.2h8l2.2,4.2H146.5z M149.7,36.1l2.9-5.6l2.9,5.6H149.7
				z"/>
		</g>
	</g>
</g>
</svg>
