<?xml version="1.0" encoding="utf-8"?>
<!-- Generator: Adobe Illustrator 22.1.0, SVG Export Plug-In . SVG Version: 6.00 Build 0)  -->
<svg version="1.1" id="Layer_1" xmlns="http://www.w3.org/2000/svg" xmlns:xlink="http://www.w3.org/1999/xlink" x="0px" y="0px"
	 width="419.7px" height="131px" viewBox="0 0 419.7 131" style="enable-background:new 0 0 419.7 131;" xml:space="preserve">
<style type="text/css">
	.st0{fill:#0012FF;}
	.st1{enable-background:new    ;}
	.st2{fill:#009245;}
	.st3{fill:#999999;}
	.st4{fill:none;stroke:#008272;stroke-width:4;stroke-miterlimit:10;}
	.st5{fill:#666666;}
</style>
<title>Asset 16</title>
<g>
	<path class="st0" d="M20.3,9.7l2,0.5c-0.5,1.7-1.2,2.8-2.3,3.6c-1.1,0.8-2.4,1.2-3.9,1.2c-1.7,0-2.8-0.3-3.9-0.9
		c-1-0.6-1.8-1.7-2.3-2.8c-0.4-1-0.7-2.4-0.7-3.8c0-1.5,0.3-2.9,0.9-4c0.6-1.2,1.4-2,2.6-2.6C13.9,0.3,15,0,16.3,0
		c1.5,0,2.7,0.3,3.8,1.2s1.7,1.8,2.1,3.1l-1.9,0.4c-0.3-1.1-0.9-1.8-1.5-2.4c-0.6-0.4-1.5-0.8-2.4-0.8c-1.2,0-2.1,0.3-2.8,0.8
		c-0.8,0.6-1.4,1.4-1.7,2.3c-0.3,0.9-0.5,1.8-0.5,2.9c0,1.2,0.2,2.4,0.6,3.3c0.3,0.9,0.9,1.7,1.7,2.1c0.8,0.5,1.7,0.8,2.5,0.8
		c1,0,2-0.3,2.7-0.9C19.5,12,20,11.1,20.3,9.7z"/>
	<path class="st0" d="M23.7,9.6c0-1.9,0.6-3.4,1.7-4.4C26.3,4.4,27.5,4,28.7,4c1.5,0,2.7,0.4,3.6,1.5c0.9,0.9,1.3,2.3,1.3,4.1
		c0,1.3-0.2,2.4-0.6,3.3c-0.4,0.7-1,1.3-1.8,1.8s-1.7,0.6-2.6,0.6c-1.5,0-2.7-0.5-3.6-1.5S23.7,11.4,23.7,9.6z M25.7,9.6
		c0,1.3,0.3,2.4,0.9,3s1.3,1,2.3,1s1.7-0.3,2.3-1c0.6-0.6,0.9-1.7,0.9-3s-0.3-2.3-0.9-3s-1.3-1-2.3-1s-1.7,0.3-2.3,1
		S25.7,8.2,25.7,9.6z"/>
	<path class="st0" d="M35.9,15V0.3h1.8v5.3c0.9-1.1,2-1.5,3.2-1.5c0.8,0,1.5,0.1,2.1,0.4c0.6,0.3,1,0.8,1.2,1.3
		c0.3,0.6,0.4,1.4,0.4,2.4v6.7h-1.8V8.2c0-0.9-0.2-1.5-0.6-1.9c-0.4-0.5-0.9-0.6-1.6-0.6c-0.6,0-1.1,0.1-1.5,0.4
		c-0.5,0.3-0.9,0.6-1,1.1s-0.3,1.2-0.3,1.9v5.8C37.7,15,35.9,15,35.9,15z"/>
	<path class="st0" d="M46.7,9.6c0-1.9,0.6-3.4,1.6-4.4C49.2,4.4,50.4,4,51.6,4c1.5,0,2.7,0.4,3.6,1.5c0.9,0.9,1.4,2.3,1.4,4.1
		c0,1.3-0.1,2.4-0.6,3.3c-0.4,0.8-1.1,1.3-1.8,1.8c-0.7,0.5-1.6,0.6-2.6,0.6c-1.5,0-2.7-0.5-3.6-1.5C47.1,12.7,46.7,11.4,46.7,9.6z
		 M48.5,9.6c0,1.3,0.3,2.4,0.9,3s1.4,1,2.3,1s1.6-0.3,2.3-1s0.9-1.8,0.9-3.1s-0.3-2.3-0.9-3c-0.6-0.8-1.4-1.1-2.3-1.1
		s-1.6,0.3-2.3,1S48.5,8.2,48.5,9.6z"/>
	<path class="st0" d="M67.2,15L63.3,0.3h1.9l2.3,9.6c0.3,1,0.4,1.9,0.6,3c0.5-1.5,0.6-2.6,0.6-2.7l3-9.9h2.4l2.1,7.5
		c0.6,1.8,0.9,3.6,1.2,5.3c0.1-0.9,0.4-2,0.8-3.2l2.2-9.6h1.9l-4,14.7h-1.9L73.2,3.7c-0.3-0.9-0.4-1.5-0.4-1.8
		c-0.2,0.8-0.3,1.4-0.3,1.8L69.3,15H67.2z"/>
	<path class="st0" d="M83.9,2.2v-2h1.8v2.1h-1.8V2.2z M83.9,15V4.3h1.8v10.6C85.7,15,83.9,15,83.9,15z"/>
	<path class="st0" d="M88.5,15V4.3h1.6v1.5C90.9,4.6,91.9,4,93.4,4c0.6,0,1.2,0.1,1.8,0.3c0.6,0.3,0.9,0.6,1.2,0.9
		C96.7,5.5,96.9,6,97,6.6c0,0.3,0.1,0.9,0.1,1.8V15h-1.8V8.6c0-0.8,0-1.4-0.1-1.7c-0.1-0.3-0.5-0.6-0.8-0.9
		c-0.3-0.1-0.8-0.3-1.2-0.3c-0.8,0-1.5,0.3-1.9,0.8c-0.6,0.4-0.9,1.3-0.9,2.8v5.8L88.5,15L88.5,15z"/>
	<path class="st0" d="M107.3,11.5l1.8,0.3c-0.3,1-0.9,2-1.6,2.5s-1.8,0.9-3,0.9c-1.5,0-2.9-0.5-3.8-1.5c-0.9-0.9-1.4-2.2-1.4-4
		s0.5-3.1,1.4-4.2c0.9-1.1,2.1-1.5,3.6-1.5s2.5,0.4,3.5,1.5c0.9,0.9,1.4,2.4,1.4,4c0,0.2,0,0.3,0,0.5h-8c0,1.2,0.5,2.1,1,2.7
		c0.6,0.6,1.4,0.9,2.3,0.9c0.6,0,1.2-0.2,1.6-0.5C106.5,12.9,107,12.3,107.3,11.5z M101.3,8.5h6c-0.1-0.9-0.3-1.5-0.8-2
		c-0.6-0.8-1.4-1-2.3-1c-0.9,0-1.5,0.3-2.1,0.9C101.7,6.9,101.4,7.6,101.3,8.5z"/>
	<path class="st0" d="M111.3,15V4.3h1.6v1.6c0.5-0.8,0.8-1.2,1.2-1.5c0.3-0.3,0.8-0.3,1.2-0.3c0.6,0,1.2,0.1,1.8,0.6l-0.5,1.6
		c-0.5-0.3-0.9-0.5-1.4-0.5s-0.8,0.2-1,0.3c-0.3,0.3-0.6,0.6-0.6,1.1c-0.1,0.6-0.3,1.4-0.3,2.1v5.5h-2C111.3,14.8,111.3,15,111.3,15
		z"/>
	<path class="st0" d="M118.1,19l-0.1-1.7c0.5,0.2,0.8,0.2,1,0.2c0.5,0,0.8,0,0.9-0.2c0.3-0.2,0.5-0.3,0.6-0.6
		c0.1-0.2,0.3-0.6,0.6-1.3c0-0.2,0.1-0.3,0.1-0.5l-4-10.6h2l2.3,6.1c0.3,0.8,0.6,1.7,0.8,2.4c0.1-0.9,0.5-1.7,0.8-2.4l2.3-6.1h1.8
		l-4,10.8c-0.5,1.2-0.8,2-1,2.4c-0.3,0.6-0.8,1-1,1.3c-0.5,0.3-0.9,0.5-1.5,0.5C119,19.3,118.5,19.2,118.1,19z"/>
	<path class="st0" d="M133.5,10.5V8.7h5.5v1.8H133.5z"/>
	<path class="st0" d="M8.3,17.8v-1.5h131.5v1.5C139.8,17.8,8.3,17.8,8.3,17.8z"/>
</g>
<g class="st1">
	<path class="st0" d="M139.8,17.8v-1.5h4.5v1.5C144.3,17.8,139.8,17.8,139.8,17.8z"/>
</g>
<g class="st1">
	<path class="st0" d="M144.3,15L150,0.3h2.1l6,14.7h-2.3l-1.7-4.5H148l-1.6,4.5H144.3z M148.5,8.8h5l-1.5-4c-0.5-1.2-0.8-2.3-1-3
		c-0.1,0.9-0.5,2-0.8,2.9L148.5,8.8z"/>
	<path class="st0" d="M159.3,15V0.3h1.8V15H159.3z"/>
	<path class="st0" d="M164,15V0.3h1.8V15H164z"/>
	<path class="st0" d="M174.3,15V4.3h1.7v1.6c0.5-0.8,0.8-1.2,1.2-1.5c0.3-0.3,0.8-0.3,1.2-0.3c0.6,0,1.2,0.1,1.8,0.6l-0.8,1.5
		c-0.5-0.3-0.9-0.5-1.4-0.5c-0.4,0-0.8,0.1-1,0.3c-0.3,0.3-0.6,0.6-0.6,1c-0.1,0.6-0.3,1.4-0.3,2.1v5.6h-1.8
		C174.3,14.8,174.3,15,174.3,15z"/>
	<path class="st0" d="M188.4,11.5l1.8,0.3c-0.3,1-0.9,2-1.7,2.5c-0.8,0.5-1.8,0.9-3,0.9c-1.5,0-2.8-0.5-3.8-1.5
		c-0.9-0.9-1.3-2.2-1.3-4s0.5-3.1,1.3-4.2c0.9-1.1,2.1-1.5,3.6-1.5s2.5,0.4,3.5,1.5c0.9,0.9,1.3,2.4,1.3,4c0,0.2,0,0.3,0,0.5h-7.9
		c0,1.2,0.4,2.1,1,2.7c0.6,0.6,1.4,0.9,2.3,0.9c0.6,0,1.2-0.2,1.7-0.5C187.8,12.9,188.1,12.3,188.4,11.5z M182.6,8.5h6
		c-0.1-0.9-0.3-1.5-0.8-2c-0.6-0.8-1.3-1-2.3-1c-0.9,0-1.5,0.3-2.1,0.9C182.9,6.9,182.6,7.6,182.6,8.5z"/>
	<path class="st0" d="M199.5,15v-1.3c-0.8,1-1.7,1.7-3,1.7c-0.9,0-1.7-0.3-2.4-0.8s-1.2-1-1.7-2s-0.6-1.8-0.6-2.8s0.2-2.1,0.6-2.9
		c0.3-0.9,0.9-1.5,1.7-1.9s1.5-0.8,2.4-0.8c0.6,0,1.2,0.1,1.7,0.5c0.5,0.3,0.9,0.6,1.2,1V0.3h1.8V15C201.2,15,199.5,15,199.5,15z
		 M193.8,9.6c0,1.3,0.3,2.4,0.9,3c0.6,0.8,1.2,1,2.1,1c0.8,0,1.5-0.3,2-0.9c0.6-0.6,0.9-1.7,0.9-3c0-1.5-0.3-2.6-0.9-3.2
		c-0.6-0.8-1.2-1-2.1-1c-0.8,0-1.5,0.3-2,1C194.1,7.2,193.8,8.2,193.8,9.6z"/>
	<path class="st0" d="M211.7,15l-3.3-10.6h1.8l1.7,6.1l0.6,2.3c0-0.2,0.2-0.9,0.6-2.3l1.7-6.3h1.8l1.7,6.2l0.6,2.1l0.6-2.1l1.8-6.2
		h1.8l-3.5,10.7h-2L216,8.4l-0.5-1.8l-2.1,8.3L211.7,15L211.7,15z"/>
	<path class="st0" d="M224.6,2.2v-2h1.8v2.1h-1.8V2.2z M224.6,15V4.3h1.8v10.6C226.4,15,224.6,15,224.6,15z"/>
	<path class="st0" d="M229.2,15V4.3h1.7v1.5c0.8-1.2,1.9-1.8,3.4-1.8c0.6,0,1.2,0.1,1.8,0.3c0.6,0.3,0.9,0.6,1.2,0.9
		c0.3,0.3,0.4,0.8,0.6,1.4c0,0.3,0.2,0.9,0.2,1.8V15h-1.8V8.6c0-0.8,0-1.4-0.1-1.7c-0.2-0.3-0.5-0.6-0.8-0.9
		c-0.3-0.1-0.8-0.3-1.2-0.3c-0.8,0-1.5,0.3-2,0.8c-0.6,0.4-0.9,1.3-0.9,2.8v5.8L229.2,15L229.2,15z"/>
	<path class="st0" d="M248,11.5l1.8,0.3c-0.3,1-0.9,2-1.7,2.5c-0.8,0.5-1.8,0.9-3,0.9c-1.5,0-2.8-0.5-3.8-1.5
		c-0.9-0.9-1.3-2.2-1.3-4s0.4-3.1,1.3-4.2s2.1-1.5,3.6-1.5s2.6,0.4,3.4,1.5c0.9,1,1.4,2.4,1.4,4c0,0.2,0,0.3,0,0.5h-7.8
		c0,1.2,0.5,2.1,1.1,2.7s1.3,0.9,2.3,0.9c0.6,0,1.2-0.2,1.7-0.5C247.4,12.9,247.7,12.3,248,11.5z M242,8.5h6c-0.1-0.9-0.3-1.5-0.8-2
		c-0.6-0.8-1.3-1-2.3-1c-0.9,0-1.5,0.3-2.1,0.9C242.4,6.9,242.1,7.6,242,8.5z"/>
	<path class="st0" d="M251.4,11.8l1.8-0.3c0.2,0.7,0.5,1.2,0.9,1.7s1,0.6,1.9,0.6s1.5-0.2,1.8-0.5c0.4-0.3,0.6-0.8,0.6-1.2
		s-0.1-0.7-0.6-0.9c-0.3-0.2-0.9-0.3-1.8-0.6c-1.3-0.3-2.3-0.6-2.7-0.9c-0.5-0.3-0.9-0.6-1.2-1.1c-0.3-0.5-0.5-0.9-0.5-1.5
		c0-0.4,0.2-0.9,0.3-1.4c0.2-0.4,0.4-0.8,0.9-1c0.3-0.1,0.6-0.5,1.2-0.6c0.4-0.1,1-0.1,1.5-0.1c0.9,0,1.5,0.1,2.3,0.3
		c0.8,0.2,1,0.6,1.3,1.1c0.3,0.4,0.5,0.9,0.6,1.6l-1.8,0.3c-0.2-0.6-0.3-1.1-0.8-1.4s-0.9-0.5-1.7-0.5c-0.9,0-1.3,0.2-1.8,0.5
		c-0.3,0.3-0.6,0.6-0.6,0.9c0,0.3,0,0.5,0.2,0.6c0.1,0.1,0.4,0.3,0.8,0.4c0.1,0,0.8,0.2,1.6,0.5c1.4,0.3,2.1,0.6,2.7,0.9
		c0.6,0.3,0.9,0.6,1.2,0.9c0.3,0.5,0.4,0.9,0.4,1.5s-0.2,1.2-0.6,1.7c-0.3,0.6-0.9,0.9-1.5,1.2s-1.3,0.5-2.3,0.5
		c-1.3,0-2.4-0.3-3.2-0.9C252,13.8,251.6,12.9,251.4,11.8z"/>
	<path class="st0" d="M267.5,9.6c0-1.9,0.6-3.4,1.7-4.4c0.9-0.8,2.1-1.2,3.3-1.2c1.5,0,2.7,0.4,3.6,1.5c0.9,0.9,1.3,2.3,1.3,4.1
		c0,1.3-0.2,2.4-0.6,3.3c-0.4,0.8-1.1,1.3-1.8,1.8c-0.7,0.5-1.6,0.6-2.5,0.6c-1.5,0-2.7-0.5-3.6-1.5C268,12.8,267.5,11.4,267.5,9.6z
		 M269.3,9.6c0,1.3,0.3,2.4,0.9,3c0.6,0.6,1.3,1,2.3,1s1.7-0.3,2.3-1s0.9-1.8,0.9-3.1s-0.3-2.3-0.9-3c-0.6-0.8-1.3-1.1-2.3-1.1
		s-1.7,0.3-2.3,1.1S269.3,8.2,269.3,9.6z"/>
	<path class="st0" d="M279.5,15V4.3h1.7v1.5c0.8-1.2,1.9-1.8,3.4-1.8c0.6,0,1.2,0.1,1.8,0.3c0.6,0.3,0.9,0.6,1.2,0.9
		c0.3,0.3,0.4,0.8,0.6,1.4c0,0.3,0.2,0.9,0.2,1.8V15h-1.8V8.6c0-0.8,0-1.4-0.1-1.7c-0.2-0.3-0.5-0.6-0.8-0.9
		c-0.3-0.1-0.8-0.3-1.2-0.3c-0.8,0-1.5,0.3-2,0.8c-0.6,0.4-0.9,1.3-0.9,2.8v5.8L279.5,15L279.5,15z"/>
	<path class="st0" d="M296,11.8l1.8-0.3c0.2,0.7,0.4,1.2,0.9,1.7s1,0.6,2,0.6c0.9,0,1.5-0.2,1.8-0.5c0.5-0.3,0.6-0.8,0.6-1.2
		s-0.2-0.7-0.6-0.9c-0.3-0.2-0.9-0.3-1.8-0.6c-1.4-0.3-2.3-0.6-2.7-0.9s-0.9-0.6-1.2-1.1c-0.3-0.4-0.4-0.9-0.4-1.5
		c0-0.4,0.2-0.9,0.3-1.4c0.1-0.4,0.4-0.8,0.9-1c0.3-0.1,0.6-0.5,1.2-0.6c0.5-0.1,1-0.1,1.5-0.1c0.9,0,1.5,0.1,2.3,0.3
		c0.8,0.2,1,0.6,1.3,1.1c0.3,0.5,0.4,0.9,0.6,1.6l-1.8,0.3c-0.2-0.6-0.3-1.1-0.8-1.4c-0.5-0.3-0.9-0.5-1.7-0.5
		c-0.9,0-1.3,0.2-1.8,0.5c-0.3,0.3-0.6,0.6-0.6,0.9c0,0.3,0,0.5,0.2,0.6c0.2,0.1,0.5,0.3,0.8,0.4c0.2,0,0.8,0.2,1.7,0.5
		c1.3,0.3,2.1,0.6,2.7,0.9c0.6,0.3,0.9,0.6,1.2,0.9c0.3,0.5,0.5,0.9,0.5,1.5s-0.2,1.2-0.6,1.7c-0.3,0.6-0.9,0.9-1.5,1.2
		c-0.6,0.3-1.3,0.5-2.3,0.5c-1.3,0-2.4-0.3-3.1-0.9C296.6,13.8,296.1,12.9,296,11.8z"/>
	<path class="st0" d="M314,13.6c-0.6,0.6-1.3,0.9-1.9,1.2c-0.6,0.3-1.3,0.3-1.9,0.3c-1.2,0-2.1-0.3-2.7-0.9
		c-0.6-0.6-0.9-1.3-0.9-2.3c0-0.5,0.2-1,0.3-1.5c0.3-0.5,0.6-0.8,0.9-1.1c0.5-0.3,0.8-0.4,1.4-0.6c0.3-0.1,0.9-0.1,1.6-0.3
		c1.5-0.1,2.6-0.5,3.3-0.6c0-0.3,0-0.4,0-0.4c0-0.8-0.2-1.2-0.4-1.5c-0.5-0.5-1.2-0.6-2.1-0.6c-0.9,0-1.5,0.1-1.9,0.4
		s-0.8,0.9-0.9,1.7L307,7.1c0.1-0.8,0.4-1.4,0.8-1.8c0.3-0.5,0.9-0.8,1.6-1.1c0.8-0.3,1.5-0.4,2.4-0.4s1.6,0.1,2.3,0.3
		c0.6,0.1,1,0.5,1.2,0.8c0.2,0.3,0.4,0.8,0.6,1.2c0,0.3,0.2,0.9,0.2,1.6v2.4c0,1.7,0,2.7,0.2,3.1c0.2,0.5,0.3,0.9,0.5,1.3h-2
		C314.1,14.5,314,14.1,314,13.6z M313.8,9.6c-0.6,0.3-1.7,0.5-3,0.8c-0.8,0.2-1.2,0.3-1.7,0.3c-0.3,0.2-0.6,0.3-0.8,0.6
		c-0.1,0.3-0.3,0.6-0.3,0.9c0,0.5,0.2,0.9,0.6,1.2c0.3,0.3,0.9,0.5,1.7,0.5c0.8,0,1.3-0.2,1.8-0.5c0.6-0.3,0.9-0.8,1.2-1.2
		c0.2-0.5,0.3-1,0.3-1.8V9.6C313.6,9.6,313.8,9.6,313.8,9.6z"/>
	<path class="st0" d="M318.5,15V0.3h1.8V15H318.5z"/>
	<path class="st0" d="M330.3,11.5l1.8,0.3c-0.3,1-0.9,2-1.6,2.5s-1.8,0.9-3,0.9c-1.5,0-2.9-0.5-3.8-1.5c-0.9-0.9-1.3-2.2-1.3-4
		s0.5-3.1,1.3-4.2c0.9-1.1,2.1-1.5,3.6-1.5s2.5,0.4,3.5,1.5c0.9,1,1.3,2.4,1.3,4c0,0.2,0,0.3,0,0.5h-7.9c0,1.2,0.4,2.1,1.1,2.7
		c0.6,0.6,1.3,0.9,2.3,0.9c0.6,0,1.2-0.2,1.6-0.5C329.7,12.9,330,12.3,330.3,11.5z M324.3,8.5h6c-0.2-0.9-0.3-1.5-0.8-2
		c-0.6-0.8-1.4-1-2.3-1s-1.5,0.3-2.1,0.9C324.8,6.9,324.5,7.6,324.3,8.5z"/>
	<path class="st0" d="M335.4,11.2l-0.6-7.8V0.2h2.3v3.3l-0.5,7.9L335.4,11.2L335.4,11.2z M335,15v-2.1h2.1V15H335z"/>
	<path class="st0" d="M144.3,17.8v-1.5h194.4v1.5C338.7,17.8,144.3,17.8,144.3,17.8z"/>
</g>
<g class="st1">
	<path class="st2" d="M38.1,38.2l1.3,0.2c-0.2,1.1-0.6,1.8-1.2,2.3c-0.6,0.6-1.5,0.9-2.4,0.9c-1.2,0-2.1-0.4-2.8-1.2
		c-0.7-0.8-1.1-1.8-1.1-3.3c0-0.9,0.2-1.8,0.4-2.4c0.3-0.6,0.8-1.2,1.4-1.5c0.6-0.3,1.3-0.4,2.1-0.4c0.9,0,1.7,0.3,2.3,0.8
		s0.9,1.2,1.2,1.9L38,35.7c-0.2-0.6-0.3-1.1-0.8-1.3C36.9,34.1,36.4,34,36,34c-0.8,0-1.4,0.3-1.8,0.8s-0.8,1.3-0.8,2.5
		c0,1.2,0.2,1.9,0.6,2.6c0.5,0.6,1.1,0.8,1.7,0.8s1.1-0.1,1.3-0.4C37.8,39.6,38.1,39,38.1,38.2z"/>
	<path class="st2" d="M40.4,37.2c0-1.7,0.4-2.7,1.3-3.4c0.8-0.6,1.7-0.9,2.7-0.9c1.2,0,2.1,0.4,2.9,1.2c0.8,0.8,1.1,1.8,1.1,3.2
		c0,1.1-0.1,1.9-0.4,2.6c-0.3,0.6-0.8,1.1-1.5,1.5c-0.7,0.4-1.4,0.4-2.1,0.4c-1.2,0-2.1-0.4-2.8-1.2C40.7,39.7,40.4,38.5,40.4,37.2z
		 M41.7,37.2c0,1.1,0.3,1.9,0.8,2.4c0.4,0.6,1.1,0.8,1.8,0.8c0.7,0,1.4-0.3,1.8-0.8c0.4-0.6,0.8-1.3,0.8-2.6c0-1.1-0.3-1.8-0.8-2.4
		c-0.5-0.6-1.1-0.8-1.8-0.8c-0.7,0-1.4,0.3-1.8,0.8C42,35.2,41.7,36,41.7,37.2z"/>
	<path class="st2" d="M50,41.4V29.5h1.5v4.2c0.8-0.8,1.5-1.2,2.6-1.2c0.6,0,1.2,0.2,1.6,0.3c0.4,0.1,0.8,0.6,1.1,1.1
		c0.1,0.4,0.3,1.1,0.3,1.9v5.4h-1.5v-5.4c0-0.7-0.1-1.2-0.4-1.6c-0.3-0.3-0.8-0.4-1.4-0.4c-0.4,0-0.9,0.2-1.2,0.3
		c-0.3,0.1-0.6,0.4-0.8,0.9s-0.3,1-0.3,1.8v4.7L50,41.4L50,41.4z"/>
	<path class="st2" d="M58.7,37.2c0-1.7,0.4-2.7,1.4-3.4c0.8-0.6,1.6-0.9,2.7-0.9c1.2,0,2.1,0.4,2.9,1.2c0.8,0.8,0.9,1.7,0.9,3.1
		c0,1.1-0.1,1.9-0.4,2.6c-0.3,0.6-0.8,1.1-1.5,1.5c-0.7,0.4-1.4,0.4-2.1,0.4c-1.2,0-2.1-0.4-2.9-1.2C59,39.7,58.7,38.5,58.7,37.2z
		 M60.2,37.2c0,1.1,0.3,1.9,0.8,2.4c0.4,0.6,1.1,0.8,1.8,0.8s1.4-0.3,1.8-0.8c0.4-0.6,0.8-1.3,0.8-2.6c0-1.1-0.3-1.8-0.8-2.4
		c-0.5-0.6-1.1-0.8-1.8-0.8s-1.4,0.3-1.8,0.8C60.3,35.2,60.2,36,60.2,37.2z"/>
	<path class="st2" d="M69.9,41.4l-2.6-8.5h1.5l1.4,4.9l0.4,1.8c0-0.1,0.1-0.8,0.4-1.8l1.4-4.9h1.5l1.4,4.9l0.4,1.7l0.4-1.7l1.5-4.9
		H79l-2.7,8.6h-1.4l-1.4-5.1l-0.3-1.5l-1.8,6.6L69.9,41.4L69.9,41.4z"/>
	<path class="st2" d="M80.3,31.4v-1.7h1.5v1.7H80.3z M80.3,41.4v-8.5h1.5v8.6C81.8,41.4,80.3,41.4,80.3,41.4z"/>
	<path class="st2" d="M83.9,41.4v-8.5h1.4v1.2c0.6-0.9,1.5-1.3,2.7-1.3c0.4,0,1.1,0.2,1.4,0.3c0.4,0.2,0.8,0.4,0.9,0.8
		s0.3,0.6,0.4,1.1c0,0.3,0.1,0.8,0.1,1.3v5.3h-1.5v-5.3c0-0.6,0-1.1-0.1-1.3c-0.1-0.3-0.3-0.4-0.6-0.8c-0.3-0.4-0.6-0.3-1.1-0.3
		c-0.6,0-1.2,0.2-1.6,0.6c-0.4,0.4-0.6,1.2-0.6,2.2v4.7H83.9L83.9,41.4z"/>
	<path class="st2" d="M98.9,38.7l1.5,0.1c-0.3,0.9-0.6,1.5-1.4,2.1c-0.6,0.5-1.5,0.8-2.4,0.8c-1.2,0-2.3-0.4-3-1.2s-1-1.8-1-3.3
		s0.3-2.6,1.1-3.3c0.8-0.7,1.6-1.2,2.9-1.2s2.1,0.4,2.9,1.2c0.8,0.8,1,1.8,1,3.3c0,0.1,0,0.1,0,0.4h-6.3c0,0.9,0.3,1.6,0.8,2.1
		s1.1,0.8,1.8,0.8c0.6,0,1-0.1,1.4-0.4C98.4,39.7,98.7,39.3,98.9,38.7z M94.1,36.3h4.8c0-0.7-0.3-1.2-0.6-1.6
		c-0.5-0.6-1-0.9-1.8-0.9c-0.6,0-1.2,0.2-1.6,0.6C94.4,35,94.2,35.5,94.1,36.3z"/>
	<path class="st2" d="M102.2,41.4v-8.5h1.4v1.3c0.3-0.6,0.6-1.1,0.9-1.2c0.3-0.2,0.6-0.3,0.9-0.3c0.5,0,1,0.2,1.5,0.4l-0.5,1.3
		c-0.3-0.2-0.8-0.3-1-0.3s-0.6,0.2-0.9,0.3s-0.5,0.4-0.6,0.8c-0.1,0.4-0.3,1.1-0.3,1.7v4.5H102.2z"/>
</g>
<g class="st1">
	<path class="st2" d="M107.6,44.7l-0.1-1.4c0.3,0.2,0.6,0.2,0.9,0.2s0.6,0,0.8-0.2c0.1-0.1,0.3-0.3,0.5-0.4c0.1-0.1,0.3-0.4,0.5-1.1
		c0-0.1,0-0.1,0.1-0.3l-3.3-8.6h1.5l1.8,4.9c0.3,0.6,0.5,1.4,0.6,1.9c0.1-0.6,0.3-1.3,0.6-1.9l1.8-4.9h1.3l-3.2,8.6
		c-0.3,0.9-0.6,1.7-0.8,1.9c-0.3,0.4-0.6,0.9-0.9,1.1c-0.3,0.2-0.8,0.3-1.2,0.3C108.3,44.8,107.9,44.8,107.6,44.7z"/>
</g>
<g class="st1">
	<path class="st2" d="M115.1,41.4v-1.7h1.6v1.7H115.1z"/>
	<path class="st2" d="M124.8,38.2l1.4,0.2c-0.1,1.1-0.6,1.8-1.2,2.3c-0.6,0.6-1.5,0.9-2.4,0.9c-1.2,0-2.1-0.4-2.9-1.2
		c-0.8-0.8-1-1.8-1-3.3c0-0.9,0.1-1.8,0.5-2.4s0.8-1.2,1.4-1.5s1.2-0.5,2-0.5c0.9,0,1.6,0.3,2.3,0.8c0.7,0.5,0.9,1.2,1.2,1.9
		l-1.4,0.2c-0.1-0.6-0.3-1.1-0.8-1.3c-0.3-0.3-0.8-0.4-1.2-0.4c-0.8,0-1.4,0.3-1.8,0.8c-0.4,0.5-0.8,1.3-0.8,2.6
		c0,1.2,0.1,1.9,0.6,2.6s1,0.8,1.6,0.8s1-0.2,1.4-0.4C124.5,39.6,124.7,39,124.8,38.2z"/>
	<path class="st2" d="M126.9,37.2c0-1.7,0.5-2.7,1.4-3.4c0.8-0.6,1.6-0.9,2.7-0.9c1.2,0,2.1,0.4,2.9,1.2c0.8,0.8,1,1.8,1,3.2
		c0,1.1-0.2,1.9-0.5,2.6c-0.3,0.6-0.8,1.1-1.5,1.5c-0.7,0.4-1.3,0.3-2.1,0.3c-1.2,0-2.1-0.4-2.9-1.2
		C127.4,39.7,126.9,38.5,126.9,37.2z M128.4,37.2c0,1.1,0.3,1.9,0.8,2.4c0.5,0.6,1,0.8,1.8,0.8c0.8,0,1.4-0.3,1.8-0.8
		c0.5-0.6,0.8-1.3,0.8-2.6c0-1.1-0.3-1.8-0.8-2.4c-0.5-0.6-1-0.8-1.8-0.8c-0.8,0-1.4,0.3-1.8,0.8C128.7,35.2,128.4,36,128.4,37.2z"
		/>
	<path class="st2" d="M136.7,41.4v-8.5h1.4v1.2c0.3-0.4,0.6-0.8,1-1.1c0.5-0.3,0.9-0.4,1.5-0.4c0.6,0,1.2,0.2,1.5,0.4
		c0.3,0.3,0.8,0.6,0.9,1.1c0.8-1.1,1.5-1.5,2.7-1.5c0.9,0,1.5,0.3,2,0.8s0.8,1.2,0.8,2.1v5.8H147v-5.4c0-0.6,0-1.1-0.2-1.2
		c-0.1-0.3-0.3-0.4-0.4-0.6c-0.3-0.2-0.6-0.3-0.9-0.3c-0.6,0-1,0.2-1.5,0.6c-0.5,0.4-0.6,1.1-0.6,1.9v4.9h-1.5v-5.5
		c0-0.6-0.2-1.2-0.3-1.5c-0.3-0.3-0.6-0.4-1.2-0.4c-0.5,0-0.8,0.2-1.2,0.3c-0.4,0.2-0.6,0.8-0.8,1.2c-0.1,0.4-0.3,1.1-0.3,1.8v4.5
		h-1.4V41.4z"/>
	<path class="st2" d="M154.4,38v-1.5h4.5V38H154.4z"/>
	<path class="st2" d="M164.7,35.7c0-1.9,0.6-3.4,1.7-4.7c1-1.1,2.4-1.7,4-1.7c1.1,0,2.1,0.3,3,0.8c0.9,0.4,1.5,1.2,2,2.3
		c0.4,0.9,0.8,1.9,0.8,3.2c0,1.2-0.3,2.2-0.8,3.2c-0.5,0.9-1.2,1.6-2.1,2.1c-0.9,0.5-1.8,0.8-2.9,0.8c-1,0-2.1-0.3-3-0.8
		c-0.9-0.4-1.5-1.2-1.9-2.3C165,37.6,164.7,36.7,164.7,35.7z M166.4,35.7c0,1.3,0.4,2.6,1.2,3.3c0.8,0.7,1.7,1.2,2.9,1.2
		s2.1-0.4,2.9-1.2c0.8-0.8,1.2-1.9,1.2-3.4c0-0.9-0.1-1.8-0.4-2.6s-0.8-1.2-1.4-1.7c-0.6-0.5-1.4-0.6-2.1-0.6c-1,0-2.1,0.4-2.8,1.2
		S166.4,33.9,166.4,35.7z"/>
</g>
<g class="st1">
	<path class="st2" d="M178.2,41.4v-7.3h-1.3v-1.2h1.3V32c0-0.6,0-1.1,0.2-1.3c0.1-0.3,0.4-0.8,0.8-0.9c0.3-0.2,0.9-0.3,1.5-0.3
		c0.4,0,0.9,0,1.3,0.2l-0.2,1.2c-0.3,0-0.6-0.2-0.9-0.2c-0.5,0-0.8,0.2-0.9,0.3c-0.2,0.2-0.3,0.6-0.3,1.1v0.6h1.7v1.2h-1.7v7.3h-1.5
		V41.4z"/>
</g>
<g class="st1">
	<path class="st2" d="M182.4,41.4v-7.3H181v-1.2h1.4V32c0-0.6,0-1.1,0.1-1.3c0.2-0.3,0.5-0.8,0.8-0.9c0.3-0.3,0.9-0.3,1.5-0.3
		c0.5,0,0.9,0,1.4,0.2l-0.1,1.2c-0.3,0-0.6-0.2-0.9-0.2c-0.5,0-0.8,0.2-0.9,0.3c-0.1,0.2-0.3,0.6-0.3,1.1v0.6h1.6v1.2H184v7.3h-1.5
		C182.4,41.2,182.4,41.4,182.4,41.4z"/>
	<path class="st2" d="M186.6,31.4v-1.7h1.5v1.7H186.6z M186.6,41.4v-8.5h1.5v8.6C188.1,41.4,186.6,41.4,186.6,41.4z"/>
	<path class="st2" d="M195.9,38.2l1.3,0.2c-0.2,1.1-0.6,1.8-1.2,2.3c-0.6,0.6-1.5,0.9-2.4,0.9c-1.2,0-2.1-0.4-2.8-1.2
		c-0.8-0.8-1.1-1.8-1.1-3.3c0-0.9,0.2-1.8,0.5-2.4c0.3-0.6,0.8-1.2,1.3-1.5c0.6-0.3,1.3-0.4,2.1-0.4c0.9,0,1.7,0.3,2.3,0.8
		s0.9,1.2,1.2,1.9l-1.3,0.2c-0.2-0.6-0.3-1.1-0.8-1.3c-0.3-0.3-0.8-0.4-1.2-0.4c-0.8,0-1.3,0.3-1.8,0.8s-0.8,1.3-0.8,2.6
		c0,1.2,0.2,1.9,0.6,2.6c0.4,0.7,1,0.8,1.7,0.8c0.6,0,1-0.2,1.3-0.4C195.6,39.6,195.8,39,195.9,38.2z"/>
	<path class="st2" d="M198.6,31.4v-1.7h1.5v1.7H198.6z M198.6,41.4v-8.5h1.5v8.6C200.1,41.4,198.6,41.4,198.6,41.4z"/>
	<path class="st2" d="M207.8,40.3c-0.6,0.4-1.1,0.8-1.5,0.9s-1.1,0.3-1.7,0.3c-0.9,0-1.7-0.3-2.1-0.8c-0.4-0.5-0.8-1.1-0.8-1.8
		c0-0.4,0.2-0.8,0.3-1.2c0.1-0.3,0.4-0.6,0.8-0.9c0.3-0.1,0.6-0.3,1-0.4c0.3,0,0.8-0.1,1.3-0.1c1.2-0.2,2.1-0.3,2.6-0.4
		c0-0.2,0-0.3,0-0.4c0-0.6-0.2-1.1-0.5-1.2c-0.3-0.3-0.9-0.4-1.7-0.4c-0.8,0-1.2,0.2-1.5,0.3c-0.3,0.1-0.6,0.6-0.8,1.2l-1.3-0.2
		c0.2-0.6,0.3-1.1,0.6-1.5c0.3-0.3,0.8-0.6,1.3-0.9c0.6-0.2,1.2-0.3,2-0.3c0.8,0,1.3,0.2,1.8,0.3s0.8,0.4,1,0.6
		c0.2,0.3,0.3,0.6,0.5,1.1c0,0.3,0,0.8,0,1.3v2.1c0,1.4,0,2.3,0.2,2.6c0.2,0.3,0.2,0.8,0.3,1.1h-1.5
		C207.9,41.1,207.8,40.8,207.8,40.3z M207.6,37.2c-0.6,0.1-1.4,0.4-2.4,0.6c-0.6,0.2-1,0.2-1.2,0.3c-0.3,0.2-0.4,0.3-0.6,0.4
		s-0.2,0.4-0.2,0.8s0.2,0.8,0.4,0.9c0.3,0.1,0.8,0.4,1.4,0.4s1-0.2,1.5-0.3c0.4-0.3,0.8-0.6,0.9-1.1c0.2-0.3,0.3-0.8,0.3-1.5
		L207.6,37.2L207.6,37.2z"/>
	<path class="st2" d="M211.4,41.4V29.5h1.5v11.8L211.4,41.4L211.4,41.4z"/>
	<path class="st2" d="M219,38.8l1.5-0.3c0.2,0.6,0.3,1.1,0.6,1.4c0.3,0.3,0.9,0.4,1.5,0.4s1.2-0.2,1.5-0.4c0.3-0.3,0.5-0.6,0.5-0.9
		c0-0.3-0.2-0.6-0.5-0.8c-0.2-0.1-0.8-0.3-1.5-0.4c-1-0.3-1.8-0.4-2.3-0.8c-0.5-0.1-0.8-0.4-0.9-0.8c-0.1-0.4-0.3-0.7-0.3-1.2
		s0.2-0.8,0.3-1.1c0.2-0.3,0.4-0.6,0.8-0.8c0.2-0.2,0.6-0.3,0.9-0.4s0.8-0.2,1.2-0.2c0.6,0,1.2,0.2,1.8,0.3c0.5,0.2,0.9,0.4,1,0.8
		c0.3,0.3,0.5,0.8,0.5,1.3l-1.3,0.2c0-0.4-0.3-0.8-0.6-1.1c-0.3-0.3-0.8-0.3-1.3-0.3s-1.2,0.2-1.3,0.3c-0.3,0.2-0.5,0.4-0.5,0.8
		c0,0.2,0,0.3,0.2,0.4c0.1,0.2,0.3,0.3,0.6,0.4c0.2,0,0.6,0.1,1.4,0.3c1,0.3,1.8,0.4,2.1,0.6c0.5,0.2,0.8,0.4,0.9,0.8
		c0.1,0.3,0.3,0.8,0.3,1.2s-0.2,0.9-0.5,1.4c-0.3,0.4-0.8,0.8-1.2,1.1s-1.2,0.3-1.8,0.3c-1,0-1.9-0.3-2.5-0.8
		C219.6,40.5,219.2,39.7,219,38.8z"/>
	<path class="st2" d="M227.9,31.4v-1.7h1.5v1.7H227.9z M227.9,41.4v-8.5h1.5v8.6C229.4,41.4,227.9,41.4,227.9,41.4z"/>
	<path class="st2" d="M234.6,40l0.1,1.4c-0.4,0.1-0.8,0.1-1,0.1c-0.6,0-0.9-0.1-1.2-0.3c-0.3-0.1-0.4-0.4-0.6-0.6
		c-0.1-0.2-0.2-0.9-0.2-1.7V34h-1v-1.2h1v-2.1l1.5-0.9v3h1.5V34h-1.5v4.9c0,0.4,0,0.8,0.2,0.8c0,0.2,0.1,0.2,0.3,0.3
		c0.2,0,0.3,0.2,0.5,0.2C234.2,40.2,234.5,40.2,234.6,40z"/>
	<path class="st2" d="M242,38.7l1.5,0.1c-0.3,0.9-0.6,1.5-1.3,2.1c-0.6,0.4-1.5,0.8-2.4,0.8c-1.2,0-2.3-0.4-3-1.2
		c-0.7-0.8-1-1.8-1-3.3s0.3-2.6,1-3.3c0.7-0.7,1.7-1.2,2.9-1.2c1.2,0,2.1,0.4,2.8,1.2c0.7,0.8,1.1,1.8,1.1,3.3c0,0.1,0,0.1,0,0.4
		h-6.3c0,0.9,0.3,1.6,0.8,2.1c0.5,0.4,1.1,0.8,1.8,0.8c0.6,0,1.1-0.1,1.3-0.4C241.4,39.7,241.7,39.3,242,38.7z M237.2,36.3h4.8
		c0-0.7-0.3-1.2-0.6-1.6c-0.5-0.6-1.1-0.9-1.8-0.9c-0.6,0-1.2,0.2-1.7,0.6C237.5,35,237.2,35.5,237.2,36.3z"/>
</g>
<g class="st1">
	<path class="st3" d="M254.1,37.6l1.5-0.2c0,0.6,0.3,1.1,0.4,1.5c0.1,0.4,0.6,0.8,1.2,0.9c0.6,0.1,1.2,0.3,1.8,0.3s1.1-0.2,1.7-0.3
		c0.6-0.2,0.8-0.4,1-0.8c0.3-0.3,0.3-0.6,0.3-1.1c0-0.3-0.2-0.8-0.3-0.9c-0.1-0.3-0.6-0.4-1-0.8c-0.3-0.1-1-0.3-2.1-0.6
		c-1.1-0.3-1.8-0.4-2.3-0.8c-0.6-0.3-1.1-0.6-1.2-1.1c-0.3-0.4-0.5-0.9-0.5-1.5c0-0.6,0.2-1.2,0.5-1.7c0.3-0.4,0.9-0.9,1.5-1.2
		c0.6-0.3,1.3-0.4,2.1-0.4c0.9,0,1.7,0.2,2.3,0.4c0.6,0.3,1.2,0.8,1.5,1.2c0.3,0.4,0.6,1.2,0.6,1.8l-1.5,0.2
		c-0.2-0.8-0.3-1.3-0.8-1.7c-0.5-0.4-1.2-0.6-2.1-0.6c-0.9,0-1.6,0.2-2.1,0.4c-0.5,0.3-0.6,0.8-0.6,1.2c0,0.4,0.2,0.8,0.5,1.1
		c0.3,0.3,1,0.6,2.4,0.9c1.2,0.3,2.1,0.6,2.6,0.8c0.8,0.3,1.2,0.8,1.5,1.2c0.3,0.4,0.4,1.1,0.4,1.7s-0.2,1.2-0.6,1.8
		c-0.3,0.6-0.9,1.1-1.5,1.3c-0.6,0.3-1.5,0.4-2.3,0.4c-1,0-2-0.1-2.7-0.4c-0.8-0.3-1.3-0.8-1.6-1.3
		C254.3,39.1,254.1,38.4,254.1,37.6z"/>
	<path class="st3" d="M265.4,31.4v-1.7h1.5v1.7H265.4z M265.4,41.4v-8.5h1.5v8.6C266.9,41.4,265.4,41.4,265.4,41.4z"/>
	<path class="st3" d="M272.3,40l0.2,1.4c-0.5,0.1-0.8,0.1-1,0.1c-0.6,0-0.9-0.1-1.2-0.3c-0.3-0.1-0.5-0.4-0.6-0.6
		c-0.2-0.3-0.2-0.9-0.2-1.7V34h-1v-1.2h1v-2.1l1.5-0.9v3h1.5V34H271v4.9c0,0.4,0,0.8,0.2,0.8c0,0.2,0.2,0.2,0.3,0.3
		c0.1,0,0.3,0.2,0.4,0.2C271.7,40.2,272,40.2,272.3,40z"/>
	<path class="st3" d="M279.5,38.7l1.5,0.1c-0.3,0.9-0.6,1.5-1.3,2.1c-0.6,0.4-1.5,0.8-2.4,0.8c-1.2,0-2.3-0.4-3-1.2
		c-0.7-0.8-1-1.8-1-3.3s0.3-2.6,1-3.3c0.7-0.7,1.7-1.2,2.9-1.2c1.2,0,2.1,0.4,2.8,1.2c0.7,0.8,1.1,1.8,1.1,3.3c0,0.1,0,0.1,0,0.4
		h-6.3c0,0.9,0.3,1.6,0.8,2.1c0.5,0.4,1.1,0.8,1.8,0.8c0.6,0,1.1-0.1,1.3-0.4C278.9,39.7,279.2,39.3,279.5,38.7z M274.7,36.3h4.8
		c0-0.7-0.3-1.2-0.6-1.6c-0.5-0.6-1.1-0.9-1.8-0.9c-0.6,0-1.2,0.2-1.7,0.6C275,35,274.8,35.5,274.7,36.3z"/>
	<path class="st3" d="M286.8,38.8l1.5-0.3c0.1,0.6,0.3,1.1,0.6,1.4c0.3,0.3,0.9,0.4,1.5,0.4s1.2-0.2,1.5-0.4
		c0.3-0.3,0.5-0.6,0.5-0.9c0-0.3-0.2-0.6-0.5-0.8c-0.1-0.1-0.8-0.3-1.5-0.4c-1-0.3-1.8-0.4-2.3-0.8c-0.4-0.1-0.8-0.4-0.9-0.8
		c-0.2-0.3-0.3-0.7-0.3-1.2s0.2-0.8,0.3-1.1s0.4-0.6,0.8-0.8c0.3-0.2,0.6-0.3,0.9-0.4c0.5-0.2,0.8-0.2,1.2-0.2
		c0.6,0,1.2,0.2,1.8,0.3c0.5,0.2,0.9,0.4,1.1,0.8c0.3,0.3,0.4,0.8,0.4,1.3l-1.3,0.2c0-0.4-0.3-0.8-0.6-1.1c-0.3-0.3-0.8-0.3-1.3-0.3
		c-0.6,0-1.2,0.2-1.4,0.3c-0.3,0.2-0.4,0.4-0.4,0.8c0,0.2,0,0.3,0.2,0.4c0.2,0.2,0.3,0.3,0.6,0.4c0.2,0,0.6,0.1,1.3,0.3
		c1,0.3,1.8,0.4,2.1,0.6c0.4,0.2,0.8,0.4,0.9,0.8c0.3,0.3,0.3,0.8,0.3,1.2s-0.1,0.9-0.4,1.4s-0.8,0.8-1.2,1.1
		c-0.6,0.3-1.2,0.3-1.8,0.3c-1.1,0-1.9-0.3-2.6-0.8C287.3,40.5,287,39.7,286.8,38.8z"/>
	<path class="st3" d="M301.4,38.7l1.5,0.1c-0.3,0.9-0.6,1.5-1.4,2.1c-0.6,0.4-1.5,0.8-2.4,0.8c-1.2,0-2.3-0.4-3-1.2
		c-0.7-0.8-1.1-1.8-1.1-3.3s0.3-2.6,1.1-3.3c0.8-0.7,1.6-1.2,2.8-1.2c1.2,0,2.1,0.4,2.9,1.2c0.8,0.8,1,1.8,1,3.3c0,0.1,0,0.1,0,0.4
		h-6.2c0,0.9,0.3,1.6,0.8,2.1c0.4,0.4,1,0.8,1.8,0.8c0.6,0,1-0.1,1.3-0.4C300.9,39.7,301.2,39.3,301.4,38.7z M296.7,36.3h4.8
		c0-0.7-0.3-1.2-0.6-1.6c-0.5-0.6-1-0.9-1.8-0.9c-0.6,0-1.2,0.2-1.7,0.6C297,34.8,296.7,35.5,296.7,36.3z"/>
	<path class="st3" d="M310.4,38.2l1.3,0.2c-0.1,1.1-0.6,1.8-1.2,2.3c-0.6,0.6-1.5,0.9-2.4,0.9c-1.2,0-2.1-0.4-2.8-1.2
		c-0.7-0.8-1.1-1.8-1.1-3.3c0-0.9,0.2-1.8,0.5-2.4c0.3-0.8,0.8-1.2,1.3-1.5s1.3-0.4,2.1-0.4c0.9,0,1.7,0.3,2.3,0.8s0.9,1.2,1.2,1.9
		l-1.4,0.2c-0.1-0.6-0.3-1.1-0.8-1.3c-0.3-0.3-0.8-0.4-1.2-0.4c-0.8,0-1.3,0.3-1.8,0.8c-0.4,0.4-0.8,1.3-0.8,2.6
		c0,1.2,0.2,1.9,0.6,2.6c0.4,0.7,1,0.8,1.6,0.8s1.1-0.2,1.4-0.4C309.9,39.6,310.2,39,310.4,38.2z"/>
	<path class="st3" d="M318.6,41.4v-1.2c-0.6,0.9-1.5,1.5-2.7,1.5c-0.5,0-0.9-0.2-1.3-0.3c-0.4-0.2-0.8-0.4-0.9-0.8
		c-0.1-0.4-0.3-0.6-0.5-1.1c0-0.3-0.1-0.8-0.1-1.4v-5.2h1.5v4.8c0,0.8,0,1.2,0.1,1.5c0.2,0.4,0.3,0.8,0.6,0.9c0.3,0.1,0.6,0.3,1,0.3
		s0.9-0.2,1.2-0.3c0.3-0.2,0.6-0.6,0.8-0.9c0.1-0.4,0.3-0.9,0.3-1.6v-4.5h1.5v8.6h-1.5V41.4L318.6,41.4z"/>
	<path class="st3" d="M322.1,41.4v-8.5h1.3v1.3c0.3-0.6,0.6-1.1,0.9-1.2c0.3-0.2,0.6-0.3,0.9-0.3c0.5,0,1,0.2,1.5,0.4l-0.5,1.3
		c-0.3-0.2-0.7-0.3-1-0.3c-0.3,0-0.6,0.2-0.9,0.3s-0.5,0.4-0.6,0.8c-0.1,0.4-0.3,1.1-0.3,1.7v4.5H322.1z"/>
	<path class="st3" d="M333.5,38.7l1.5,0.1c-0.3,0.9-0.6,1.5-1.3,2.1c-0.6,0.4-1.5,0.8-2.4,0.8c-1.2,0-2.3-0.4-3-1.2s-1-1.8-1-3.3
		s0.3-2.6,1-3.3c0.7-0.7,1.7-1.2,2.9-1.2s2.1,0.4,2.8,1.2c0.7,0.8,1.1,1.8,1.1,3.3c0,0.1,0,0.1,0,0.4h-6.3c0,0.9,0.3,1.6,0.8,2.1
		c0.5,0.4,1.1,0.8,1.8,0.8c0.6,0,1-0.1,1.3-0.4C333,39.7,333.3,39.3,333.5,38.7z M328.7,36.3h4.8c0-0.7-0.3-1.2-0.6-1.6
		c-0.5-0.6-1-0.9-1.8-0.9c-0.6,0-1.2,0.2-1.7,0.6C329,35,328.8,35.5,328.7,36.3z"/>
	<path class="st3" d="M342.3,41.4v-1.1c-0.6,0.9-1.4,1.2-2.4,1.2c-0.8,0-1.3-0.2-1.9-0.6c-0.6-0.3-1.1-0.9-1.4-1.5s-0.5-1.5-0.5-2.3
		c0-0.9,0.2-1.6,0.5-2.2c0.3-0.8,0.8-1.2,1.4-1.7c0.6-0.3,1.2-0.6,1.9-0.6c0.5,0,0.9,0.2,1.4,0.3c0.5,0.2,0.8,0.4,1,0.9v-4.1h1.5
		v11.8L342.3,41.4L342.3,41.4L342.3,41.4z M337.8,37.2c0,1.1,0.3,1.9,0.8,2.4c0.4,0.6,1,0.8,1.6,0.8s1.2-0.3,1.7-0.8
		s0.6-1.3,0.6-2.4c0-1.2-0.1-2.1-0.8-2.6c-0.5-0.6-1-0.8-1.6-0.8s-1.2,0.3-1.7,0.8C338,35.1,337.8,36,337.8,37.2z"/>
	<path class="st3" d="M351.9,41.4h-1.3V29.5h1.5v4.2c0.6-0.8,1.3-1.2,2.4-1.2c0.5,0,1,0.2,1.5,0.3c0.5,0.1,0.9,0.4,1.2,0.9
		c0.3,0.4,0.6,0.9,0.8,1.3c0.1,0.6,0.3,1.1,0.3,1.8c0,1.5-0.3,2.6-1,3.4c-0.8,0.8-1.7,1.2-2.6,1.2c-1,0-1.8-0.4-2.4-1.2v1.1
		C352.2,41.4,351.9,41.4,351.9,41.4z M351.8,37c0,1.1,0.2,1.8,0.5,2.3c0.5,0.8,1,1.1,1.8,1.1c0.6,0,1.2-0.3,1.7-0.8
		c0.5-0.6,0.8-1.3,0.8-2.4s-0.2-1.9-0.6-2.4c-0.5-0.5-1.1-0.8-1.7-0.8s-1.2,0.3-1.7,0.8C352.1,35.2,351.8,36,351.8,37z"/>
	<path class="st3" d="M359.6,44.7l-0.2-1.4c0.3,0.2,0.6,0.2,0.9,0.2s0.6,0,0.8-0.2c0.1-0.1,0.3-0.3,0.4-0.4c0.2-0.1,0.3-0.4,0.5-1.1
		c0-0.1,0-0.1,0.2-0.3l-3.3-8.6h1.5l1.8,4.9c0.3,0.6,0.5,1.4,0.6,1.9c0.2-0.6,0.3-1.3,0.6-1.9l1.8-4.9h1.5l-3.3,8.7
		c-0.3,0.9-0.6,1.7-0.8,1.9c-0.3,0.4-0.6,0.9-0.9,1.1s-0.8,0.3-1.2,0.3C360.3,44.8,360,44.8,359.6,44.7z"/>
	<path class="st3" d="M372.6,41.4V29.5h1.6l6.2,9.3v-9.3h1.5v11.8h-1.7l-6.1-9.3v9.3C374.1,41.4,372.6,41.4,372.6,41.4z"/>
	<path class="st3" d="M383.9,37.2c0-1.7,0.4-2.7,1.3-3.4c0.8-0.6,1.7-0.9,2.7-0.9c1.2,0,2.1,0.4,2.9,1.2s1.1,1.8,1.1,3.2
		c0,1.1-0.2,1.9-0.4,2.6c-0.3,0.6-0.8,1.1-1.5,1.5s-1.4,0.4-2.1,0.4c-1.2,0-2.1-0.4-2.8-1.2C384.2,39.7,383.9,38.5,383.9,37.2z
		 M385.4,37.2c0,1.1,0.3,1.9,0.8,2.4c0.4,0.6,1.1,0.8,1.8,0.8s1.3-0.3,1.8-0.8c0.4-0.6,0.8-1.3,0.8-2.6c0-1.1-0.3-1.8-0.8-2.4
		c-0.5-0.6-1.1-0.8-1.8-0.8s-1.4,0.3-1.8,0.8C385.5,35.2,385.4,36,385.4,37.2z"/>
	<path class="st3" d="M393.5,41.4v-8.5h1.4v1.3c0.3-0.6,0.6-1.1,0.9-1.2c0.3-0.2,0.6-0.3,0.9-0.3c0.4,0,1.1,0.2,1.5,0.4l-0.4,1.3
		c-0.3-0.2-0.8-0.3-1.1-0.3s-0.6,0.2-0.9,0.3s-0.4,0.4-0.6,0.8c-0.2,0.4-0.3,1.1-0.3,1.7v4.5H393.5z"/>
	<path class="st3" d="M402.2,40l0.2,1.4c-0.4,0.1-0.8,0.1-1.1,0.1c-0.6,0-0.9-0.1-1.2-0.3c-0.3-0.1-0.4-0.4-0.6-0.6
		c-0.1-0.3-0.1-0.9-0.1-1.7V34h-1.1v-1.2h1.1v-2.1l1.5-0.9v3h1.5V34h-1.5v4.9c0,0.4,0,0.8,0.1,0.8c0,0.2,0.2,0.2,0.3,0.3
		c0.2,0,0.3,0.2,0.4,0.2C401.7,40.2,401.9,40.2,402.2,40z"/>
	<path class="st3" d="M403.1,37.2c0-1.7,0.4-2.7,1.3-3.4c0.8-0.6,1.7-0.9,2.7-0.9c1.2,0,2.1,0.4,2.9,1.2s1.1,1.8,1.1,3.2
		c0,1.1-0.2,1.9-0.4,2.6c-0.3,0.6-0.8,1.1-1.5,1.5s-1.4,0.4-2.1,0.4c-1.2,0-2.1-0.4-2.8-1.2C403.4,39.7,403.1,38.5,403.1,37.2z
		 M404.6,37.2c0,1.1,0.3,1.9,0.8,2.4c0.4,0.6,1.1,0.8,1.8,0.8s1.3-0.3,1.8-0.8c0.4-0.6,0.8-1.3,0.8-2.6c0-1.1-0.3-1.8-0.8-2.4
		c-0.5-0.6-1.1-0.8-1.8-0.8s-1.4,0.3-1.8,0.8C404.7,35.2,404.6,36,404.6,37.2z"/>
	<path class="st3" d="M412.8,41.4v-8.5h1.3v1.2c0.6-0.9,1.5-1.3,2.7-1.3c0.4,0,1.1,0.2,1.4,0.3c0.4,0.2,0.8,0.4,0.9,0.8
		c0.2,0.3,0.3,0.6,0.4,1.1c0,0.3,0.2,0.8,0.2,1.3v5.3h-1.5v-5.3c0-0.6,0-1.1-0.2-1.3c-0.1-0.3-0.3-0.4-0.6-0.8
		c-0.3-0.3-0.6-0.3-1.1-0.3c-0.6,0-1.2,0.2-1.7,0.6c-0.4,0.4-0.6,1.2-0.6,2.2v4.7H412.8L412.8,41.4z"/>
</g>
<g class="st1">
	<path d="M8.1,67.8l4.5-11.9h1.7l4.8,11.9h-1.8l-1.4-3.6h-4.8l-1.4,3.6H8.1z M11.6,63h4l-1.2-3.3c-0.4-0.9-0.7-1.8-0.9-2.4
		c-0.2,0.8-0.3,1.5-0.6,2.3L11.6,63z"/>
	<path d="M20.3,67.8V55.9h1.5v11.9H20.3z"/>
	<path d="M23.9,67.8V55.9h1.5v11.9H23.9z"/>
	<path d="M32.1,67.8v-8.5h1.3v1.4c0.3-0.6,0.6-1.1,0.9-1.2c0.3-0.1,0.6-0.3,0.9-0.3c0.4,0,1,0.1,1.5,0.4L36.2,61
		c-0.3-0.1-0.8-0.3-1-0.3c-0.3,0-0.6,0.1-0.9,0.3c-0.3,0.2-0.5,0.5-0.6,0.8c-0.2,0.5-0.3,1-0.3,1.6v4.5L32.1,67.8
		C32.1,67.9,32.1,67.8,32.1,67.8z"/>
	<path d="M43.5,65.1l1.5,0.1c-0.3,0.9-0.6,1.5-1.4,2.1c-0.6,0.4-1.5,0.8-2.4,0.8c-1.2,0-2.3-0.5-3-1.2c-0.7-0.8-1.1-1.8-1.1-3.3
		s0.3-2.6,1.1-3.3c0.8-0.8,1.6-1.2,2.9-1.2c1.2,0,2.1,0.4,2.8,1.2s1.1,1.8,1.1,3.3c0,0.1,0,0.1,0,0.4h-6.3c0,0.9,0.3,1.6,0.8,2.1
		c0.4,0.5,1.1,0.8,1.8,0.8c0.6,0,1.1-0.1,1.4-0.4C42.9,66.2,43.2,65.7,43.5,65.1z M38.7,62.9h4.8c0-0.8-0.3-1.2-0.6-1.6
		c-0.5-0.6-1-0.9-1.8-0.9c-0.6,0-1.2,0.1-1.7,0.6C39,61.5,38.9,62.1,38.7,62.9z"/>
	<path d="M52.4,67.8v-1C51.8,67.7,51,68,50,68c-0.8,0-1.4-0.1-1.9-0.6c-0.6-0.3-1.1-0.9-1.4-1.5c-0.3-0.6-0.4-1.5-0.4-2.3
		c0-0.9,0.1-1.6,0.4-2.3c0.3-0.8,0.8-1.2,1.4-1.6c0.6-0.3,1.2-0.6,1.9-0.6c0.4,0,0.9,0.1,1.4,0.3s0.8,0.4,1.1,0.9v-4.2H54v11.7
		C54,67.8,52.4,67.8,52.4,67.8z M47.7,63.6c0,1,0.3,1.9,0.8,2.4c0.4,0.6,1.1,0.8,1.6,0.8c0.6,0,1.2-0.3,1.6-0.8
		c0.4-0.5,0.6-1.4,0.6-2.4c0-1.2-0.1-2.1-0.8-2.6c-0.6-0.4-0.9-0.8-1.6-0.8c-0.6,0-1.2,0.3-1.6,0.8C48,61.7,47.7,62.5,47.7,63.6z"/>
	<path d="M62.1,67.8l-2.6-8.5H61l1.4,4.9l0.4,1.8c0-0.1,0.1-0.8,0.4-1.8l1.4-4.9h1.5l1.4,4.9l0.4,1.6l0.4-1.6l1.5-4.9h1.4l-2.6,8.5
		h-1.5l-1.4-5.1l-0.3-1.5l-1.8,6.6H62.1z"/>
	<path d="M72.5,57.7v-1.6H74v1.6H72.5z M72.5,67.8v-8.5H74v8.5H72.5z"/>
	<path d="M76.1,67.8v-8.5h1.4v1.2c0.6-0.9,1.5-1.4,2.7-1.4c0.4,0,1.1,0.1,1.4,0.3c0.4,0.1,0.8,0.4,0.9,0.8c0.1,0.3,0.3,0.6,0.4,1
		c0,0.3,0.1,0.8,0.1,1.4v5.3h-1.5v-5.3c0-0.6,0-1-0.1-1.4c-0.1-0.3-0.3-0.4-0.6-0.8c-0.3-0.3-0.6-0.3-1.1-0.3
		c-0.6,0-1.2,0.1-1.6,0.6c-0.4,0.4-0.6,1.2-0.6,2.3v4.8C77.5,67.8,76.1,67.8,76.1,67.8z"/>
	<path d="M91.1,65.1l1.5,0.1c-0.3,0.9-0.6,1.5-1.4,2.1c-0.6,0.4-1.5,0.8-2.4,0.8c-1.2,0-2.3-0.5-3-1.2c-0.7-0.7-1.1-1.8-1.1-3.3
		s0.3-2.6,1.1-3.3c0.8-0.7,1.6-1.2,2.9-1.2c1.2,0,2.1,0.4,2.9,1.2s1.1,1.8,1.1,3.3c0,0.1,0,0.1,0,0.4h-6.3c0,0.9,0.3,1.6,0.8,2.1
		c0.4,0.5,1.1,0.8,1.8,0.8c0.6,0,1.1-0.1,1.4-0.4C90.6,66.2,90.9,65.7,91.1,65.1z M86.4,62.9h4.8c0-0.8-0.3-1.2-0.6-1.6
		c-0.4-0.6-1.1-0.9-1.8-0.9c-0.6,0-1.2,0.1-1.6,0.6C86.7,61.5,86.4,62.1,86.4,62.9z"/>
	<path d="M93.9,65.4l1.5-0.3c0.1,0.6,0.3,1,0.6,1.4c0.3,0.3,0.9,0.4,1.5,0.4c0.6,0,1.2-0.1,1.5-0.4c0.3-0.3,0.5-0.6,0.5-0.9
		S99.4,65,99,64.8c-0.1-0.1-0.8-0.3-1.5-0.5c-1-0.3-1.8-0.4-2.3-0.8c-0.4-0.1-0.8-0.4-0.9-0.8c-0.1-0.3-0.3-0.8-0.3-1.2
		c0-0.5,0.1-0.8,0.3-1.1c0.1-0.3,0.4-0.6,0.8-0.8c0.1-0.1,0.6-0.3,0.9-0.4c0.3-0.1,0.8-0.1,1.2-0.1c0.6,0,1.2,0.1,1.8,0.3
		c0.5,0.1,0.9,0.5,1,0.8c0.3,0.3,0.5,0.8,0.5,1.4l-1.4,0.1c0-0.4-0.3-0.8-0.6-1c-0.3-0.3-0.6-0.5-1.2-0.5s-1.2,0.1-1.4,0.3
		c-0.2,0.2-0.3,0.5-0.3,0.9c0,0.1,0,0.3,0.1,0.4c0.1,0.1,0.3,0.3,0.6,0.5c0.1,0,0.6,0.1,1.4,0.3c1,0.3,1.8,0.5,2.1,0.6
		c0.5,0.1,0.8,0.5,0.9,0.8c0.1,0.3,0.3,0.9,0.3,1.5c0,0.5-0.1,0.9-0.5,1.4c-0.3,0.5-0.8,0.8-1.2,1.1c-0.5,0.3-1.2,0.3-1.8,0.3
		c-1,0-2-0.3-2.6-0.8C94.4,66.9,94.1,66.3,93.9,65.4z"/>
	<path d="M106.7,63.6c0-1.6,0.5-2.7,1.4-3.5c0.8-0.6,1.6-0.9,2.7-0.9c1.2,0,2.1,0.5,2.9,1.2s1,1.8,1,3.1c0,1-0.1,1.9-0.5,2.5
		c-0.3,0.6-0.8,1.1-1.5,1.5c-0.8,0.5-1.4,0.5-2.1,0.5c-1.2,0-2.1-0.5-2.9-1.2C107.1,66.2,106.7,65.1,106.7,63.6z M108.2,63.6
		c0,1,0.3,1.9,0.8,2.4c0.5,0.6,1,0.8,1.8,0.8s1.4-0.3,1.8-0.8c0.5-0.6,0.8-1.4,0.8-2.6c0-1-0.3-1.8-0.8-2.4c-0.4-0.4-1-0.8-1.8-0.8
		s-1.4,0.3-1.8,0.8C108.5,61.7,108.2,62.5,108.2,63.6z"/>
	<path d="M116.4,67.8v-8.5h1.4v1.2c0.6-0.9,1.5-1.4,2.7-1.4c0.5,0,1,0.1,1.4,0.3c0.5,0.1,0.8,0.4,0.9,0.8c0.1,0.3,0.3,0.6,0.5,1
		c0,0.3,0.1,0.8,0.1,1.4v5.3h-1.5v-5.3c0-0.6,0-1-0.1-1.4c-0.1-0.3-0.3-0.4-0.6-0.8c-0.3-0.3-0.6-0.3-1-0.3c-0.6,0-1.2,0.1-1.6,0.6
		c-0.5,0.4-0.6,1.2-0.6,2.3v4.8C118,67.8,116.4,67.8,116.4,67.8z"/>
	<path d="M129.6,65.4l1.5-0.3c0.1,0.6,0.3,1,0.6,1.4c0.3,0.3,0.9,0.4,1.5,0.4s1.2-0.1,1.5-0.4c0.3-0.3,0.5-0.6,0.5-0.9
		s-0.1-0.6-0.5-0.8c-0.2-0.1-0.8-0.3-1.5-0.5c-1-0.3-1.8-0.4-2.3-0.8c-0.5-0.1-0.8-0.4-0.9-0.8c-0.1-0.3-0.3-0.8-0.3-1.2
		c0-0.5,0.1-0.8,0.3-1.1c0.1-0.3,0.5-0.6,0.8-0.8c0.1-0.1,0.6-0.3,0.9-0.4s0.8-0.1,1.2-0.1c0.6,0,1.2,0.1,1.8,0.3
		c0.5,0.1,0.9,0.5,1,0.8c0.3,0.3,0.5,0.8,0.5,1.4l-1.3,0.1c0-0.4-0.3-0.8-0.6-1c-0.3-0.3-0.6-0.5-1.2-0.5s-1.2,0.1-1.4,0.3
		c-0.3,0.1-0.5,0.4-0.5,0.8c0,0.1,0,0.3,0.1,0.4c0.1,0.1,0.3,0.3,0.6,0.5c0.1,0,0.6,0.1,1.4,0.3c1,0.3,1.8,0.5,2.1,0.6
		c0.5,0.1,0.8,0.5,0.9,0.8s0.3,0.8,0.3,1.2c0,0.4-0.1,0.9-0.4,1.4c-0.3,0.4-0.8,0.8-1.2,1c-0.4,0.3-1.2,0.3-1.8,0.3
		c-1,0-2-0.3-2.5-0.8C130.1,66.9,129.8,66.3,129.6,65.4z"/>
	<path d="M143.9,66.7c-0.6,0.4-1.1,0.8-1.5,0.9c-0.5,0.1-1.1,0.3-1.7,0.3c-0.9,0-1.7-0.3-2.1-0.8c-0.5-0.4-0.8-1-0.8-1.8
		c0-0.5,0.1-0.8,0.3-1.2c0.2-0.3,0.5-0.6,0.8-0.9c0.3-0.1,0.6-0.3,1.1-0.4c0.3,0,0.8-0.1,1.3-0.1c1.2-0.1,2.1-0.3,2.5-0.5
		c0-0.1,0-0.3,0-0.4c0-0.6-0.1-1.1-0.5-1.2c-0.3-0.3-0.9-0.4-1.7-0.4c-0.8,0-1.2,0.1-1.5,0.3c-0.3,0.2-0.6,0.6-0.8,1.2l-1.3,0.1
		c0.1-0.6,0.3-1,0.6-1.5c0.3-0.3,0.8-0.6,1.3-0.9c0.6-0.1,1.2-0.3,2-0.3s1.4,0.1,1.8,0.3c0.5,0.1,0.8,0.5,1,0.6
		c0.1,0.3,0.3,0.6,0.5,1.1c0,0.3,0,0.8,0,1.4v1.9c0,1.4,0,2.3,0.2,2.6c0.1,0.3,0.1,0.8,0.3,1h-1.5C144,67.5,144,67.2,143.9,66.7z
		 M143.9,63.6c-0.6,0.1-1.4,0.4-2.4,0.6c-0.6,0.1-1,0.1-1.2,0.3c-0.3,0.1-0.5,0.3-0.6,0.5c-0.1,0.1-0.1,0.4-0.1,0.8
		c0,0.4,0.1,0.8,0.5,0.9c0.4,0.1,0.8,0.4,1.3,0.4c0.6,0,1.1-0.1,1.5-0.3c0.5-0.3,0.8-0.6,0.9-1.1c0.2-0.3,0.3-0.8,0.3-1.5
		L143.9,63.6L143.9,63.6z"/>
	<path d="M147.5,67.8V55.9h1.5v11.9H147.5z"/>
	<path d="M157.1,65.1l1.5,0.1c-0.3,0.9-0.6,1.5-1.3,2.1c-0.6,0.4-1.5,0.8-2.4,0.8c-1.2,0-2.3-0.5-3-1.2c-0.7-0.7-1-1.8-1-3.3
		s0.3-2.6,1-3.3s1.7-1.2,2.9-1.2c1.2,0,2.1,0.4,2.9,1.2s1,1.8,1,3.3c0,0.1,0,0.1,0,0.4h-6.3c0,0.9,0.3,1.6,0.8,2.1
		c0.4,0.5,1,0.8,1.8,0.8c0.6,0,1.1-0.1,1.4-0.4C156.5,66.2,156.8,65.7,157.1,65.1z M152.3,62.9h4.8c0-0.8-0.3-1.2-0.6-1.6
		c-0.5-0.6-1.1-0.9-1.8-0.9c-0.6,0-1.2,0.1-1.6,0.6C152.6,61.5,152.3,62.1,152.3,62.9z"/>
	<path d="M161.1,64.9l-0.5-6.3V56h1.8v2.6l-0.5,6.3H161.1z M160.7,67.8v-1.5h1.6v1.5H160.7z"/>
	<path d="M169.8,67.8V55.9h8v1.4h-6.5v3.6h5.6v1.4h-5.6v5.5C171.3,67.8,169.8,67.8,169.8,67.8z"/>
	<path d="M179.6,67.8v-8.5h1.4v1.4c0.3-0.6,0.6-1.1,0.9-1.2c0.3-0.1,0.6-0.3,0.9-0.3c0.5,0,1,0.1,1.5,0.4l-0.5,1.4
		c-0.3-0.1-0.8-0.3-1-0.3s-0.6,0.1-0.9,0.3c-0.3,0.2-0.4,0.5-0.6,0.8c-0.2,0.5-0.3,1.1-0.3,1.6v4.5L179.6,67.8L179.6,67.8z"/>
	<path d="M190.8,65.1l1.5,0.1c-0.3,0.9-0.6,1.5-1.3,2.1c-0.6,0.4-1.5,0.8-2.4,0.8c-1.2,0-2.3-0.5-3-1.2c-0.7-0.7-1-1.8-1-3.3
		s0.3-2.6,1-3.3s1.7-1.2,2.8-1.2c1.2,0,2.1,0.4,2.9,1.2c0.8,0.8,1,1.8,1,3.3c0,0.1,0,0.1,0,0.4H186c0,0.9,0.3,1.6,0.8,2.1
		s1,0.8,1.8,0.8c0.6,0,1-0.1,1.3-0.4C190.4,66.2,190.7,65.7,190.8,65.1z M186.2,62.9h4.8c0-0.8-0.3-1.2-0.6-1.6
		c-0.5-0.6-1.1-0.9-1.8-0.9c-0.6,0-1.2,0.1-1.6,0.6C186.5,61.5,186.2,62.1,186.2,62.9z"/>
	<path d="M200.1,65.1l1.5,0.1c-0.3,0.9-0.6,1.5-1.4,2.1c-0.6,0.4-1.5,0.8-2.4,0.8c-1.2,0-2.3-0.5-3-1.2c-0.7-0.7-1-1.8-1-3.3
		s0.3-2.6,1-3.3c0.7-0.7,1.7-1.2,2.8-1.2c1.2,0,2.1,0.4,2.9,1.2s1,1.8,1,3.3c0,0.1,0,0.1,0,0.4h-6.3c0,0.9,0.3,1.6,0.8,2.1
		s1,0.8,1.8,0.8c0.6,0,1-0.1,1.3-0.4C199.5,66.2,199.8,65.7,200.1,65.1z M195.3,62.9h4.8c0-0.8-0.3-1.2-0.6-1.6
		c-0.4-0.6-1.1-0.9-1.8-0.9c-0.6,0-1.2,0.1-1.7,0.6C195.6,61.5,195.3,62.1,195.3,62.9z"/>
	<path d="M207.6,68.5l1.3,0.1c0,0.5,0.2,0.8,0.5,0.9c0.3,0.3,0.9,0.5,1.5,0.5s1.2-0.1,1.5-0.5c0.3-0.3,0.6-0.6,0.8-1.2
		c0-0.3,0.2-0.9,0.2-1.8c-0.6,0.8-1.3,1.1-2.4,1.1c-1.2,0-2.1-0.5-2.7-1.2c-0.6-0.9-0.9-1.8-0.9-3c0-0.8,0.1-1.5,0.4-2.3
		s0.8-1.2,1.3-1.6c0.6-0.4,1.2-0.6,2-0.6c1,0,1.8,0.5,2.5,1.2V59h1.3v7.4c0,1.4-0.2,2.3-0.4,2.9c-0.3,0.6-0.8,1.1-1.4,1.4
		c-0.6,0.3-1.3,0.5-2.1,0.5c-1.1,0-1.8-0.3-2.4-0.8C207.9,70.2,207.6,69.4,207.6,68.5z M208.8,63.4c0,1.1,0.1,2,0.6,2.4
		c0.5,0.5,1.1,0.8,1.7,0.8s1.2-0.3,1.6-0.8c0.5-0.4,0.8-1.4,0.8-2.4s-0.3-1.8-0.8-2.4c-0.4-0.6-1-0.8-1.6-0.8s-1.2,0.3-1.7,0.8
		C209,61.5,208.8,62.4,208.8,63.4z"/>
	<path d="M217.1,57.7v-1.6h1.5v1.6H217.1z M217.1,67.8v-8.5h1.5v8.5H217.1z"/>
	<path d="M221.1,67.8v-7.4h-1.4v-1.2h1.4v-0.9c0-0.6,0-1.1,0.1-1.4c0.2-0.3,0.5-0.8,0.8-0.9c0.3-0.3,0.9-0.3,1.5-0.3
		c0.5,0,0.9,0,1.4,0.1l-0.2,1.2c-0.3,0-0.6-0.1-0.9-0.1c-0.5,0-0.8,0.1-0.9,0.3c-0.1,0.1-0.3,0.6-0.3,1.1v0.8h1.7v1.2h-1.8v7.5
		C222.5,67.8,221.1,67.8,221.1,67.8z"/>
	<path d="M228.5,66.6l0.2,1.4c-0.5,0.1-0.8,0.1-1.1,0.1c-0.6,0-0.9-0.1-1.2-0.3c-0.3-0.1-0.5-0.4-0.6-0.6c-0.1-0.2-0.1-0.9-0.1-1.6
		v-4.9h-1.1v-1.2h1.1v-2.1l1.5-0.9v3h1.5v1.2h-1.5v4.9c0,0.5,0,0.8,0.1,0.8c0,0.1,0.2,0.1,0.3,0.3c0.2,0,0.3,0.1,0.4,0.1
		C228,66.6,228.2,66.6,228.5,66.6z"/>
	<path d="M236.1,67.8l-2.6-8.5h1.5l1.3,4.9l0.5,1.8c0-0.1,0.1-0.8,0.4-1.8l1.3-4.9h1.5l1.3,4.9l0.4,1.6l0.5-1.6l1.5-4.9h1.3
		l-2.7,8.5h-1.5l-1.4-5.1l-0.3-1.5l-1.8,6.6H236.1z"/>
	<path d="M246.3,57.7v-1.6h1.5v1.6H246.3z M246.3,67.8v-8.5h1.5v8.5H246.3z"/>
	<path d="M253.2,66.6l0.2,1.4c-0.5,0.1-0.8,0.1-1.1,0.1c-0.6,0-0.9-0.1-1.2-0.3c-0.3-0.1-0.5-0.4-0.6-0.6c-0.1-0.3-0.1-0.9-0.1-1.6
		v-4.9h-1.1v-1.2h1.1v-2.1l1.5-0.9v3h1.5v1.2h-1.5v4.9c0,0.5,0,0.8,0.1,0.8c0,0.1,0.2,0.1,0.3,0.3c0.2,0,0.3,0.1,0.4,0.1
		C252.8,66.6,252.9,66.6,253.2,66.6z"/>
	<path d="M254.6,67.8V55.9h1.5v4.4c0.8-0.8,1.5-1.2,2.5-1.2c0.6,0,1.2,0.1,1.7,0.3c0.4,0.3,0.8,0.6,1.1,1.1c0.3,0.4,0.3,1,0.3,1.9
		v5.4h-1.5v-5.4c0-0.8-0.2-1.2-0.5-1.6c-0.3-0.3-0.8-0.4-1.3-0.4s-0.9,0.1-1.2,0.3c-0.3,0.2-0.6,0.5-0.8,0.9
		c-0.2,0.5-0.3,0.9-0.3,1.6v4.6H254.6z"/>
	<path d="M268.4,71.1V59.2h1.3v1c0.3-0.4,0.6-0.8,1.1-1c0.4-0.1,0.9-0.3,1.3-0.3c0.8,0,1.3,0.1,2,0.6c0.6,0.3,1,0.9,1.2,1.6
		c0.3,0.8,0.4,1.5,0.4,2.3c0,0.9-0.1,1.6-0.4,2.4s-0.8,1.2-1.3,1.6c-0.6,0.3-1.2,0.6-2,0.6c-0.4,0-0.9-0.1-1.3-0.3s-0.8-0.5-0.9-0.8
		v4.2L268.4,71.1L268.4,71.1z M269.7,63.6c0,1,0.2,1.9,0.6,2.4c0.4,0.6,1,0.8,1.6,0.8s1.2-0.3,1.7-0.8c0.4-0.6,0.8-1.4,0.8-2.6
		c0-1-0.2-1.9-0.6-2.4c-0.4-0.6-1-0.8-1.6-0.8s-1.2,0.3-1.7,0.9C269.9,61.7,269.7,62.5,269.7,63.6z"/>
	<path d="M283.1,67.8v-1.2c-0.6,0.9-1.5,1.5-2.7,1.5c-0.5,0-0.9-0.1-1.3-0.3c-0.4-0.1-0.8-0.4-0.9-0.8c-0.2-0.3-0.3-0.6-0.5-1
		c0-0.3-0.1-0.8-0.1-1.4v-5.3h1.5v4.8c0,0.8,0,1.2,0.1,1.5c0.2,0.5,0.3,0.8,0.6,0.9c0.3,0.1,0.6,0.3,1,0.3s0.9-0.1,1.2-0.3
		c0.3-0.2,0.6-0.6,0.8-0.9c0.1-0.4,0.3-0.9,0.3-1.6v-4.5h1.5v8.3H283.1z"/>
	<path d="M286.7,67.8v-8.5h1.3v1.4c0.3-0.6,0.6-1.1,0.9-1.2c0.3-0.1,0.6-0.3,0.9-0.3c0.4,0,1.1,0.1,1.5,0.4l-0.4,1.4
		c-0.3-0.1-0.8-0.3-1.1-0.3c-0.3,0-0.6,0.1-0.9,0.3s-0.5,0.5-0.6,0.8c-0.2,0.5-0.3,1.1-0.3,1.6v4.5L286.7,67.8L286.7,67.8
		L286.7,67.8z"/>
	<path d="M297.8,64.8l1.3,0.1c-0.2,1.1-0.6,1.8-1.2,2.3c-0.6,0.6-1.5,0.9-2.4,0.9c-1.2,0-2.1-0.4-2.9-1.2c-0.8-0.8-1-1.8-1-3.3
		c0-0.9,0.2-1.8,0.5-2.4c0.3-0.8,0.8-1.2,1.3-1.5c0.6-0.3,1.4-0.4,2.1-0.4c0.9,0,1.6,0.3,2.3,0.8c0.6,0.4,0.9,1.2,1.2,1.9l-1.3,0.1
		c-0.2-0.6-0.3-1-0.8-1.4c-0.3-0.3-0.8-0.4-1.2-0.4c-0.8,0-1.3,0.3-1.8,0.8c-0.5,0.4-0.8,1.4-0.8,2.5c0,1.2,0.2,2,0.6,2.6
		c0.4,0.6,1.1,0.8,1.7,0.8s1-0.1,1.3-0.5C297.3,66,297.6,65.4,297.8,64.8z"/>
	<path d="M300.3,67.8V55.9h1.5v4.4c0.8-0.8,1.5-1.2,2.5-1.2c0.6,0,1.2,0.1,1.7,0.3c0.4,0.3,0.8,0.6,1.1,1.1c0.3,0.4,0.3,1,0.3,1.9
		v5.4h-1.5v-5.4c0-0.8-0.2-1.2-0.5-1.6c-0.3-0.3-0.8-0.4-1.3-0.4s-0.9,0.1-1.2,0.3c-0.3,0.2-0.6,0.5-0.8,0.9
		c-0.2,0.5-0.3,0.9-0.3,1.6v4.6H300.3z"/>
	<path d="M315.2,66.7c-0.6,0.4-1,0.8-1.5,0.9c-0.5,0.1-1,0.3-1.7,0.3c-0.9,0-1.7-0.3-2.1-0.8c-0.4-0.4-0.8-1-0.8-1.8
		c0-0.5,0.2-0.8,0.3-1.2c0.2-0.3,0.5-0.6,0.8-0.9c0.3-0.1,0.6-0.3,1.1-0.4c0.3,0,0.8-0.1,1.3-0.1c1.2-0.1,2.1-0.3,2.5-0.5
		c0-0.1,0-0.3,0-0.4c0-0.6-0.1-1.1-0.4-1.2c-0.3-0.3-0.9-0.4-1.7-0.4c-0.8,0-1.2,0.1-1.5,0.3c-0.3,0.3-0.6,0.6-0.8,1.2l-1.3-0.1
		c0.2-0.6,0.3-1.1,0.6-1.5c0.3-0.3,0.8-0.6,1.3-0.9c0.6-0.1,1.2-0.3,1.9-0.3c0.7,0,1.4,0.1,1.8,0.3c0.4,0.1,0.8,0.4,1.1,0.6
		c0.1,0.3,0.3,0.6,0.4,1c0,0.3,0,0.8,0,1.4v2c0,1.4,0,2.3,0.2,2.5c0.2,0.3,0.2,0.8,0.3,1.1h-1.4C315.3,67.5,315.2,67.2,315.2,66.7z
		 M315,63.6c-0.6,0.1-1.3,0.4-2.4,0.6c-0.6,0.1-1,0.1-1.2,0.3c-0.1,0.2-0.4,0.3-0.6,0.5c-0.2,0.1-0.2,0.4-0.2,0.8
		c0,0.4,0.2,0.8,0.5,0.9c0.3,0.3,0.8,0.4,1.3,0.4s1.1-0.1,1.5-0.3c0.4-0.3,0.8-0.6,0.9-1.1c0.2-0.3,0.3-0.8,0.3-1.5L315,63.6
		L315,63.6z"/>
	<path d="M318.2,65.4l1.5-0.3c0.2,0.6,0.3,1,0.6,1.4c0.3,0.3,0.9,0.4,1.5,0.4s1.2-0.1,1.5-0.4c0.3-0.3,0.4-0.6,0.4-0.9
		s-0.1-0.6-0.4-0.8c-0.2-0.1-0.8-0.3-1.5-0.5c-1.1-0.3-1.8-0.4-2.3-0.8c-0.4-0.1-0.8-0.4-0.9-0.8c-0.2-0.3-0.3-0.8-0.3-1.2
		c0-0.5,0.1-0.8,0.3-1.1c0.2-0.3,0.5-0.6,0.8-0.8c0.2-0.1,0.6-0.3,0.9-0.4c0.4-0.1,0.8-0.1,1.2-0.1c0.6,0,1.2,0.1,1.8,0.3
		c0.4,0.1,0.9,0.5,1.1,0.8c0.1,0.3,0.4,0.8,0.4,1.4l-1.3,0.1c0-0.4-0.3-0.8-0.6-1c-0.3-0.3-0.8-0.3-1.3-0.3s-1.2,0.1-1.3,0.3
		c-0.3,0.1-0.4,0.4-0.4,0.8c0,0.1,0,0.3,0.1,0.4c0.2,0.1,0.3,0.3,0.6,0.5c0.1,0,0.6,0.1,1.3,0.3c1.1,0.3,1.8,0.5,2.1,0.6
		c0.3,0.2,0.8,0.5,0.9,0.8c0.3,0.3,0.3,0.8,0.3,1.2s-0.2,0.9-0.4,1.4c-0.3,0.4-0.8,0.8-1.2,1c-0.6,0.3-1.2,0.3-1.8,0.3
		c-1.1,0-2-0.3-2.6-0.8C318.6,66.9,318.3,66.3,318.2,65.4z"/>
	<path d="M332.7,65.1l1.5,0.1c-0.3,0.9-0.6,1.5-1.3,2.1c-0.6,0.4-1.5,0.8-2.4,0.8c-1.2,0-2.3-0.5-3-1.2c-0.7-0.7-1-1.8-1-3.3
		s0.3-2.6,1-3.3s1.7-1.2,2.9-1.2s2.1,0.4,2.8,1.2s1.1,1.8,1.1,3.3c0,0.1,0,0.1,0,0.4H328c0,0.9,0.3,1.6,0.8,2.1s1.1,0.8,1.8,0.8
		c0.6,0,1-0.1,1.3-0.4C332.3,66.2,332.6,65.7,332.7,65.1z M328.1,62.9h4.8c0-0.8-0.3-1.2-0.6-1.6c-0.4-0.6-1-0.9-1.8-0.9
		c-0.6,0-1.2,0.1-1.6,0.6C328.4,61.4,328.1,62.1,328.1,62.9z"/>
	<path d="M336.5,67.8v-1.5h1.7v1.5H336.5z"/>
</g>
<g class="st1">
	<path d="M14.4,93.6h-1.5v-9.1c-0.3,0.3-0.8,0.6-1.3,1c-0.6,0.5-1,0.6-1.5,0.8V85c0.8-0.4,1.5-0.9,2.1-1.4c0.6-0.6,1-1.1,1.3-1.6
		h0.9V93.6z"/>
	<path d="M23.1,93.6V81.7h2.4l2.8,8.4c0.3,0.8,0.4,1.4,0.6,1.8c0.2-0.4,0.3-1.1,0.6-1.9l2.8-8.3h2.1v11.9h-1.5v-9.9l-3.5,9.9h-1.3
		l-3.4-10v10H23.1z"/>
	<path d="M36.8,83.5v-1.6h1.5v1.6H36.8z M36.8,93.6V85h1.5v8.6H36.8z"/>
	<path d="M45.9,90.6l1.4,0.1c-0.1,1.1-0.6,1.8-1.2,2.3c-0.6,0.6-1.5,0.9-2.4,0.9c-1.2,0-2.1-0.5-2.8-1.2s-1.1-1.8-1.1-3.3
		c0-0.9,0.1-1.8,0.4-2.4c0.3-0.6,0.8-1.2,1.3-1.5c0.6-0.3,1.4-0.4,2.1-0.4c0.9,0,1.6,0.3,2.3,0.8c0.7,0.5,0.9,1.2,1.2,1.9L45.8,88
		c-0.2-0.6-0.3-1.1-0.8-1.4c-0.3-0.3-0.8-0.4-1.2-0.4c-0.8,0-1.3,0.3-1.8,0.8c-0.5,0.4-0.8,1.3-0.8,2.6c0,1.2,0.1,1.9,0.6,2.5
		c0.4,0.6,1.1,0.8,1.7,0.8s1-0.1,1.3-0.4C45.6,91.8,45.9,91.2,45.9,90.6z"/>
	<path d="M48.6,93.6V85H50v1.4c0.3-0.6,0.6-1.1,0.9-1.2c0.3-0.2,0.6-0.3,0.9-0.3c0.4,0,1.1,0.1,1.5,0.4l-0.4,1.4
		c-0.3-0.2-0.8-0.3-1.1-0.3c-0.3,0-0.6,0.1-0.9,0.3c-0.3,0.2-0.4,0.4-0.6,0.8c-0.1,0.4-0.3,1-0.3,1.6v4.5
		C50,93.6,48.6,93.6,48.6,93.6z"/>
	<path d="M53.6,89.4c0-1.7,0.4-2.7,1.4-3.5c0.8-0.6,1.6-0.9,2.7-0.9c1.2,0,2.1,0.4,2.9,1.2c0.8,0.8,1.1,1.8,1.1,3.2
		c0,1-0.1,1.9-0.4,2.5c-0.3,0.6-0.8,1.1-1.5,1.5c-0.7,0.4-1.4,0.5-2.1,0.5c-1.2,0-2.1-0.5-2.9-1.2S53.6,90.9,53.6,89.4z M55.1,89.4
		c0,1,0.3,1.9,0.8,2.4c0.4,0.6,1.1,0.8,1.8,0.8c0.7,0,1.4-0.3,1.8-0.8c0.4-0.6,0.8-1.3,0.8-2.6c0-1-0.3-1.8-0.8-2.4
		c-0.4-0.6-1.1-0.8-1.8-0.8c-0.7,0-1.4,0.3-1.8,0.8C55.4,87.5,55.1,88.4,55.1,89.4z"/>
	<path d="M62.7,91.2l1.5-0.3c0.1,0.6,0.3,1.1,0.6,1.3c0.3,0.3,0.9,0.5,1.5,0.5c0.6,0,1.2-0.2,1.5-0.5c0.3-0.3,0.4-0.6,0.4-0.9
		s-0.1-0.6-0.4-0.8c-0.1-0.2-0.8-0.3-1.5-0.4c-1.1-0.3-1.8-0.5-2.3-0.8c-0.4,0-0.7-0.3-0.8-0.6c-0.1-0.3-0.3-0.8-0.3-1.2
		c0-0.4,0.1-0.8,0.3-1c0.1-0.3,0.4-0.6,0.8-0.8c0.1-0.2,0.6-0.3,0.9-0.5c0.3-0.1,0.8-0.1,1.2-0.1c0.6,0,1.2,0.1,1.8,0.3
		c0.4,0.1,0.9,0.4,1.1,0.8c0.3,0.3,0.4,0.8,0.4,1.3L68,87.6c0-0.4-0.3-0.8-0.6-1.1c-0.3-0.3-0.8-0.3-1.4-0.3c-0.6,0-1.2,0.2-1.4,0.3
		c-0.3,0.2-0.4,0.4-0.4,0.8c0,0.2,0,0.3,0.1,0.4c0.1,0.2,0.3,0.3,0.6,0.5c0.1,0,0.6,0.1,1.4,0.3c1.1,0.3,1.8,0.5,2.1,0.6
		c0.4,0.1,0.8,0.4,0.9,0.8c0.1,0.4,0.3,0.7,0.3,1.1c0,0.4-0.1,0.9-0.4,1.4c-0.3,0.4-0.8,0.8-1.2,1s-1.2,0.3-1.8,0.3
		c-1.1,0-1.9-0.3-2.6-0.8C63.2,92.7,62.9,92.1,62.7,91.2z"/>
	<path d="M71,89.4c0-1.7,0.4-2.7,1.4-3.5c0.8-0.6,1.6-0.9,2.7-0.9c1.2,0,2.1,0.4,2.9,1.2c0.8,0.8,1.1,1.8,1.1,3.2
		c0,1-0.1,1.9-0.4,2.5c-0.3,0.6-0.8,1.1-1.5,1.5c-0.7,0.4-1.6,0.5-2.3,0.5c-1.2,0-2.1-0.5-2.9-1.2C71.4,92,71,90.9,71,89.4z
		 M72.5,89.4c0,1,0.3,1.9,0.8,2.4c0.4,0.6,1.1,0.8,1.8,0.8s1.4-0.3,1.8-0.8c0.4-0.6,0.7-1.3,0.7-2.6c0-1-0.3-1.8-0.8-2.4
		C76.4,86.2,75.7,86,75,86c-0.7,0-1.4,0.3-1.8,0.8C72.8,87.5,72.5,88.4,72.5,89.4z"/>
	<path d="M81,93.6v-7.3h-1.4v-1.2H81v-0.7c0-0.6,0-1,0.1-1.4c0.1-0.3,0.4-0.8,0.8-0.9c0.3-0.3,0.9-0.3,1.5-0.3c0.4,0,0.9,0,1.4,0.1
		l-0.3,1.2c-0.3,0-0.6-0.1-0.9-0.1c-0.4,0-0.8,0.1-0.9,0.3c-0.1,0.1-0.3,0.6-0.3,1.1v0.8H84v1.2h-1.6v7.4C82.4,93.6,81,93.6,81,93.6
		z"/>
	<path d="M88.4,92.4l0.1,1.3c-0.4,0.2-0.8,0.2-1.1,0.2c-0.6,0-0.9-0.2-1.2-0.3c-0.3-0.2-0.4-0.5-0.6-0.6c-0.2-0.1-0.1-0.9-0.1-1.6
		v-5h-1v-1.2h1.1v-2.1l1.5-0.9v3h1.5v1.2h-1.5v5c0,0.4,0,0.8,0.1,0.8c0,0.1,0.1,0.1,0.3,0.3c0.1,0,0.3,0.2,0.4,0.2
		C87.9,92.4,88.2,92.4,88.4,92.4z"/>
</g>
<g class="st1">
	<path d="M96.6,93.6l-3.1-11.7h1.6l1.8,7.8c0.1,0.8,0.3,1.7,0.5,2.4c0.3-1.2,0.5-1.9,0.6-2.3l2.3-8h2l1.6,6c0.5,1.5,0.8,2.8,0.9,4.2
		c0.1-0.8,0.3-1.7,0.6-2.6l1.8-7.5h1.4l-3.1,11.5H104l-2.5-9c-0.1-0.8-0.3-1.2-0.3-1.4c-0.1,0.6-0.3,1-0.3,1.4l-2.5,9h-1.8V93.6z"/>
</g>
<g class="st1">
	<path d="M114.9,92.5c-0.6,0.4-1,0.8-1.5,0.9c-0.5,0.1-1,0.3-1.6,0.3c-0.9,0-1.6-0.3-2.1-0.8s-0.8-1.1-0.8-1.8
		c0-0.4,0.1-0.8,0.3-1.2c0.1-0.3,0.5-0.6,0.8-0.9c0.3-0.1,0.6-0.3,1-0.4c0.3,0,0.8-0.2,1.4-0.2c1.2-0.1,2.1-0.3,2.5-0.4
		c0-0.1,0-0.3,0-0.4c0-0.6-0.1-1.1-0.5-1.2c-0.3-0.3-0.9-0.5-1.6-0.5s-1.2,0.2-1.5,0.3s-0.6,0.6-0.8,1.2l-1.3-0.2
		c0.1-0.6,0.3-1.1,0.6-1.5c0.3-0.3,0.8-0.6,1.4-0.9c0.6-0.2,1.2-0.3,2-0.3s1.4,0.1,1.8,0.3c0.5,0.1,0.8,0.4,1,0.6
		c0.1,0.3,0.3,0.6,0.5,1.1c0,0.3,0,0.8,0,1.3v2c0,1.3,0,2.3,0.1,2.5c0.1,0.3,0.1,0.8,0.3,1.1h-1.5C115.1,93.3,114.9,93,114.9,92.5z
		 M114.8,89.4c-0.6,0.1-1.4,0.4-2.4,0.6c-0.6,0.2-1,0.2-1.2,0.3c-0.3,0.1-0.5,0.3-0.6,0.4c-0.1,0.2-0.1,0.4-0.1,0.8
		c0,0.4,0.1,0.8,0.5,0.9c0.3,0.1,0.8,0.4,1.4,0.4s1-0.2,1.5-0.3c0.5-0.3,0.8-0.6,0.9-1.1c0.1-0.3,0.3-0.8,0.3-1.5L114.8,89.4
		L114.8,89.4z"/>
</g>
<g class="st1">
	<path d="M118.4,96.9l-0.1-1.4c0.3,0.2,0.6,0.2,0.9,0.2s0.6,0,0.8-0.2c0.1-0.1,0.3-0.3,0.5-0.5c0.1-0.1,0.3-0.5,0.5-1
		c0-0.1,0-0.1,0.1-0.3l-3.5-8.5h1.5l1.8,5c0.3,0.6,0.5,1.3,0.6,1.9c0.1-0.6,0.3-1.4,0.6-1.9l1.8-5h1.5l-3.3,8.7
		c-0.3,0.9-0.6,1.6-0.8,2c-0.3,0.5-0.6,0.9-0.9,1c-0.3,0.1-0.8,0.3-1.2,0.3C119.1,97.2,118.8,97,118.4,96.9z"/>
</g>
<g class="st1">
	<path d="M125.9,93.6V92h1.6v1.6c0,0.6-0.1,1-0.3,1.5c-0.1,0.3-0.6,0.6-1,0.9l-0.5-0.6c0.3-0.1,0.6-0.3,0.8-0.6
		c0.1-0.3,0.1-0.6,0.3-1L125.9,93.6L125.9,93.6z"/>
	<path d="M134.9,93.6V81.7h5.3c1,0,1.8,0.1,2.4,0.3c0.6,0.1,1,0.6,1.4,1c0.3,0.6,0.4,1.2,0.4,1.8c0,0.9-0.3,1.5-0.8,2.1
		c-0.6,0.6-1.3,0.9-2.5,1.1c0.4,0.2,0.8,0.4,0.9,0.6c0.5,0.4,0.9,0.9,1.4,1.5l2.1,3.1h-2l-1.5-2.4c-0.5-0.8-0.9-1.2-1.2-1.7
		c-0.3-0.4-0.6-0.6-0.8-0.8c-0.3-0.1-0.5-0.3-0.8-0.3c-0.2,0-0.5,0-0.9,0h-1.8v5.3L134.9,93.6L134.9,93.6z M136.4,87.2h3.3
		c0.8,0,1.2,0,1.7-0.2c0.5-0.1,0.8-0.4,0.9-0.8c0.1-0.3,0.3-0.8,0.3-1.1c0-0.6-0.1-1-0.6-1.3s-1-0.6-2-0.6h-3.8v3.9
		C136.2,87.2,136.4,87.2,136.4,87.2z"/>
	<path d="M152.4,90.9l1.5,0.1c-0.3,0.9-0.6,1.5-1.4,2.1c-0.6,0.5-1.5,0.8-2.4,0.8c-1.2,0-2.3-0.5-3-1.2c-0.8-0.7-1-1.8-1-3.3
		s0.3-2.6,1-3.3c0.7-0.7,1.6-1.2,2.9-1.2c1.2,0,2.1,0.4,2.8,1.2c0.7,0.8,1,1.8,1,3.3c0,0.1,0,0.1,0,0.4h-6.2c0,0.9,0.3,1.6,0.8,2.1
		s1,0.8,1.8,0.8c0.6,0,1-0.1,1.4-0.4C151.8,92,152.1,91.5,152.4,90.9z M147.6,88.7h4.8c0-0.8-0.3-1.2-0.6-1.7
		c-0.5-0.6-1-0.9-1.8-0.9c-0.6,0-1.2,0.1-1.6,0.6C147.9,87.3,147.8,87.9,147.6,88.7z"/>
	<path d="M161.3,93.6v-1.1c-0.6,0.9-1.4,1.2-2.4,1.2c-0.8,0-1.4-0.2-2-0.6c-0.6-0.3-1-0.9-1.3-1.5c-0.3-0.6-0.5-1.5-0.5-2.3
		c0-0.9,0.1-1.6,0.5-2.3c0.3-0.8,0.8-1.2,1.3-1.6c0.6-0.3,1.2-0.6,2-0.6c0.4,0,0.9,0.2,1.3,0.3s0.8,0.4,1,0.9v-4.2h1.5v11.9
		L161.3,93.6L161.3,93.6z M156.6,89.4c0,1,0.3,1.9,0.8,2.4c0.4,0.6,1,0.8,1.6,0.8s1.2-0.3,1.6-0.8c0.5-0.4,0.6-1.3,0.6-2.4
		c0-1.2-0.1-2.1-0.8-2.6s-1-0.8-1.6-0.8c-0.6,0-1.2,0.3-1.7,0.8C156.9,87.5,156.6,88.4,156.6,89.4z"/>
	<path d="M164.9,93.6V85h1.3v1.2c0.3-0.5,0.6-0.8,1-1.1c0.5-0.3,0.9-0.4,1.5-0.4c0.6,0,1.2,0.1,1.5,0.4c0.3,0.3,0.8,0.6,0.9,1.1
		c0.8-1.1,1.5-1.5,2.7-1.5c0.9,0,1.5,0.3,1.9,0.8c0.5,0.4,0.8,1.2,0.8,2.1v5.9H175v-5.4c0-0.6,0-1.1-0.1-1.2
		c-0.1-0.3-0.3-0.4-0.5-0.6c-0.3-0.1-0.6-0.3-0.9-0.3c-0.6,0-1,0.1-1.5,0.6c-0.4,0.4-0.6,1.1-0.6,1.9v5h-1.5v-5.6
		c0-0.6-0.2-1.2-0.3-1.5c-0.3-0.3-0.6-0.4-1.2-0.4c-0.5,0-0.8,0.1-1.2,0.3c-0.5,0.2-0.6,0.6-0.8,0.9s-0.3,1.1-0.3,1.8v4.5
		L164.9,93.6L164.9,93.6z"/>
	<path d="M178.1,89.4c0-1.7,0.5-2.7,1.4-3.5c0.8-0.6,1.6-0.9,2.7-0.9c1.2,0,2.1,0.4,2.8,1.2c0.7,0.8,1.1,1.8,1.1,3.2
		c0,1-0.2,1.9-0.5,2.5c-0.3,0.6-0.8,1.1-1.5,1.5c-0.7,0.4-1.3,0.5-2.1,0.5c-1.2,0-2.1-0.5-2.8-1.2C178.4,92,178.1,90.9,178.1,89.4z
		 M179.6,89.4c0,1,0.3,1.9,0.8,2.4c0.5,0.6,1.1,0.8,1.8,0.8c0.7,0,1.3-0.3,1.8-0.8c0.5-0.6,0.8-1.3,0.8-2.6c0-1-0.3-1.8-0.8-2.4
		c-0.4-0.6-1-0.8-1.8-0.8c-0.8,0-1.4,0.3-1.8,0.8C179.7,87.5,179.6,88.4,179.6,89.4z"/>
	<path d="M187.8,93.6V85h1.4v1.2c0.6-0.9,1.5-1.4,2.7-1.4c0.5,0,1,0.2,1.3,0.3c0.5,0.1,0.8,0.4,0.9,0.8c0.1,0.4,0.3,0.6,0.5,1.1
		c0,0.3,0.2,0.8,0.2,1.3v5.3h-1.5v-5.3c0-0.6,0-1.1-0.2-1.3c-0.2-0.3-0.3-0.5-0.6-0.8c-0.3-0.3-0.6-0.3-1-0.3
		c-0.6,0-1.2,0.1-1.7,0.6s-0.6,1.2-0.6,2.3v4.7L187.8,93.6L187.8,93.6z"/>
	<path d="M202.5,93.6v-1.1c-0.6,0.9-1.3,1.2-2.4,1.2c-0.8,0-1.3-0.2-2-0.6c-0.6-0.3-1-0.9-1.3-1.5c-0.3-0.6-0.5-1.5-0.5-2.3
		c0-0.9,0.2-1.6,0.5-2.3c0.3-0.8,0.8-1.2,1.3-1.6c0.6-0.3,1.2-0.6,2-0.6c0.5,0,0.9,0.2,1.3,0.3c0.4,0.1,0.8,0.4,1.1,0.9v-4.2h1.5
		v11.9L202.5,93.6L202.5,93.6z M197.9,89.4c0,1,0.3,1.9,0.8,2.4c0.4,0.6,1,0.8,1.6,0.8s1.2-0.3,1.7-0.8c0.4-0.4,0.6-1.3,0.6-2.4
		c0-1.2-0.1-2.1-0.8-2.6c-0.6-0.4-1-0.8-1.6-0.8s-1.2,0.3-1.7,0.8C198.2,87.5,197.9,88.4,197.9,89.4z"/>
	<path d="M206.4,93.6V92h1.7v1.6c0,0.6-0.2,1-0.3,1.5c-0.1,0.3-0.6,0.6-1,0.9l-0.5-0.6c0.3-0.1,0.6-0.3,0.8-0.6
		c0.2-0.3,0.2-0.6,0.3-1L206.4,93.6L206.4,93.6z"/>
</g>
<g class="st1">
	<path d="M217.5,93.6l-3.1-11.9h1.7l1.8,7.8c0.1,0.8,0.3,1.7,0.4,2.4c0.3-1.2,0.4-1.9,0.6-2.3l2.3-8h2l1.6,6
		c0.5,1.5,0.8,2.8,0.9,4.2c0.1-0.8,0.3-1.7,0.6-2.6l1.8-7.5h1.5l-3.4,12h-1.5l-2.5-9c-0.2-0.8-0.3-1.2-0.3-1.4
		c-0.2,0.6-0.3,1.1-0.3,1.4l-2.6,9L217.5,93.6L217.5,93.6z"/>
</g>
<g class="st1">
	<path d="M229.1,93.6l4.5-11.9h1.6l4.8,11.9h-1.8l-1.3-3.6h-5l-1.3,3.6H229.1z M232.5,88.8h4.1l-1.2-3.3c-0.5-1-0.6-1.8-0.9-2.4
		c-0.2,0.8-0.3,1.5-0.6,2.3L232.5,88.8z"/>
</g>
<g>
	<path class="st0" d="M253.8,93.6V81.7h4c0.9,0,1.7,0,2.1,0.1c0.8,0.1,1.2,0.5,1.8,0.9c0.6,0.6,1,1.2,1.3,2c0.3,0.8,0.5,1.8,0.5,2.8
		c0,0.9-0.2,1.7-0.3,2.4c-0.2,0.8-0.5,1.2-0.8,1.6c-0.3,0.5-0.8,0.8-1.1,1.1c-0.4,0.3-0.9,0.4-1.3,0.6c-0.6,0.1-1.2,0.1-2,0.1h-4.3
		v0.3H253.8z M255.3,92.2h2.5c0.8,0,1.3,0,1.8-0.1c0.5-0.2,0.8-0.3,1.1-0.6c0.3-0.3,0.6-0.9,0.9-1.5c0.2-0.6,0.3-1.3,0.3-2.3
		c0-1.2-0.1-2.3-0.6-2.8c-0.4-0.6-0.9-1.1-1.5-1.4c-0.5-0.1-1.1-0.3-2-0.3h-2.5V92.2z"/>
	<path class="st0" d="M265.7,83.5v-1.6h1.5v1.6H265.7z M265.7,93.6V85h1.5v8.6H265.7z"/>
	<path class="st0" d="M269.1,93.6V85h1.3v1.4c0.3-0.6,0.6-1.1,0.9-1.2c0.3-0.2,0.6-0.3,0.9-0.3c0.5,0,1.1,0.1,1.5,0.4l-0.4,1.4
		c-0.3-0.2-0.8-0.3-1.1-0.3c-0.3,0-0.6,0.1-0.9,0.3c-0.3,0.1-0.5,0.4-0.6,0.8c-0.1,0.4-0.3,1-0.3,1.6v4.5
		C270.4,93.6,269.1,93.6,269.1,93.6z"/>
	<path class="st0" d="M280.7,90.9l1.5,0.1c-0.3,0.9-0.6,1.5-1.3,2.1c-0.6,0.5-1.5,0.8-2.4,0.8c-1.2,0-2.3-0.5-3-1.2
		c-0.7-0.7-1-1.8-1-3.3s0.3-2.6,1-3.3c0.7-0.7,1.7-1.2,2.8-1.2c1.2,0,2.1,0.4,2.8,1.2c0.7,0.8,1,1.8,1,3.3c0,0.1,0,0.1,0,0.4h-6.4
		c0,0.9,0.3,1.6,0.8,2.1s1.1,0.8,1.8,0.8c0.6,0,1-0.1,1.3-0.4C280.1,92,280.4,91.5,280.7,90.9z M275.9,88.5h4.8
		c0-0.8-0.3-1.2-0.6-1.6c-0.4-0.6-1.1-0.9-1.8-0.9c-0.6,0-1.2,0.2-1.6,0.6C276.2,87.3,275.9,87.9,275.9,88.5z"/>
	<path class="st0" d="M289.4,90.6l1.5,0.1c-0.2,1.1-0.6,1.8-1.2,2.3c-0.6,0.6-1.5,0.9-2.4,0.9c-1.2,0-2.1-0.5-2.8-1.2
		c-0.7-0.7-1-1.8-1-3.3c0-0.9,0.1-1.8,0.4-2.4c0.3-0.6,0.8-1.2,1.3-1.5s1.3-0.4,2.1-0.4c0.9,0,1.7,0.3,2.3,0.8s0.9,1.2,1.2,1.9
		l-1.3,0.2c-0.2-0.6-0.3-1.1-0.8-1.4c-0.3-0.3-0.8-0.4-1.2-0.4c-0.8,0-1.3,0.3-1.8,0.8c-0.5,0.4-0.8,1.3-0.8,2.6
		c0,1.2,0.1,1.9,0.6,2.5c0.5,0.5,1.1,0.8,1.7,0.8s1-0.1,1.5-0.4C289.1,91.8,289.4,91.2,289.4,90.6z"/>
	<path class="st0" d="M295.4,92.4l0.1,1.3c-0.4,0.2-0.8,0.2-1,0.2c-0.6,0-0.9-0.2-1.2-0.3c-0.3-0.2-0.4-0.5-0.6-0.6
		c-0.2-0.3-0.2-0.9-0.2-1.6v-5h-1.1v-1.2h1.1v-2.1l1.5-0.9v3h1.5v1.2H294v5c0,0.4,0,0.8,0.2,0.8c0,0.1,0.2,0.1,0.3,0.3
		c0.2,0,0.3,0.2,0.5,0.2C294.8,92.4,295.1,92.4,295.4,92.4z"/>
	<path class="st0" d="M296.9,83.5v-1.6h1.5v1.6H296.9z M296.9,93.6V85h1.5v8.6H296.9z"/>
	<path class="st0" d="M299.9,89.4c0-1.7,0.4-2.7,1.3-3.5c0.8-0.6,1.7-0.9,2.7-0.9c1.2,0,2.1,0.4,2.8,1.2c0.7,0.8,1.1,1.8,1.1,3.2
		c0,1-0.2,1.9-0.5,2.5c-0.3,0.6-0.8,1.1-1.5,1.5c-0.6,0.3-1.3,0.5-2.1,0.5c-1.2,0-2.1-0.5-2.8-1.2C300.3,92,299.9,90.9,299.9,89.4z
		 M301.4,89.4c0,1,0.3,1.9,0.8,2.4c0.4,0.6,1,0.8,1.8,0.8c0.8,0,1.3-0.3,1.8-0.8c0.5-0.6,0.8-1.3,0.8-2.6c0-1-0.3-1.8-0.8-2.4
		c-0.4-0.6-1-0.8-1.8-0.8c-0.8,0-1.3,0.3-1.8,0.8C301.7,87.5,301.4,88.4,301.4,89.4z"/>
	<path class="st0" d="M309.6,93.6V85h1.3v1.2c0.6-0.9,1.5-1.4,2.7-1.4c0.5,0,1,0.2,1.3,0.3c0.4,0.1,0.8,0.4,0.9,0.8
		c0.1,0.4,0.3,0.6,0.5,1.1c0,0.3,0.1,0.8,0.1,1.3v5.3h-1.5v-5.3c0-0.6,0-1.1-0.1-1.3c-0.2-0.3-0.3-0.6-0.6-0.8
		c-0.3-0.2-0.6-0.3-1-0.3c-0.6,0-1.2,0.1-1.7,0.6s-0.6,1.2-0.6,2.3v4.7L309.6,93.6L309.6,93.6z"/>
	<path class="st0" d="M318.2,91l1.5-0.3c0.2,0.6,0.3,1.1,0.6,1.4c0.3,0.3,0.9,0.4,1.5,0.4s1.2-0.1,1.5-0.4c0.3-0.3,0.4-0.6,0.4-0.9
		s-0.1-0.6-0.4-0.8c-0.2-0.1-0.8-0.3-1.5-0.4c-1.1-0.3-1.8-0.4-2.3-0.8c-0.4-0.1-0.8-0.4-0.9-0.8c-0.1-0.4-0.3-0.8-0.3-1.2
		s0.1-0.8,0.3-1.1c0.2-0.3,0.5-0.6,0.8-0.8c0.3-0.1,0.6-0.3,0.9-0.4c0.4-0.2,0.8-0.2,1.2-0.2c0.6,0,1.2,0.2,1.8,0.3
		c0.4,0.2,0.9,0.4,1.1,0.8c0.3,0.3,0.4,0.8,0.4,1.4l-1.3,0.1c0-0.4-0.3-0.8-0.6-1.1c-0.3-0.3-0.8-0.3-1.3-0.3s-1.2,0.1-1.5,0.3
		c-0.3,0.2-0.5,0.5-0.5,0.8c0,0.2,0,0.3,0.2,0.5c0.1,0.1,0.3,0.3,0.6,0.4c0.2,0,0.6,0.1,1.4,0.3c1,0.3,1.8,0.4,2.1,0.6
		c0.3,0.2,0.8,0.4,0.9,0.8c0.3,0.3,0.3,0.8,0.3,1.2c0,0.5-0.2,0.9-0.5,1.4c-0.3,0.4-0.8,0.8-1.2,1.1c-0.6,0.3-1.2,0.3-1.8,0.3
		c-1,0-1.9-0.3-2.5-0.8S318.3,92.1,318.2,91z"/>
	<path class="st0" d="M252.6,96v-1.2h73.3V96H252.6z"/>
</g>
<g class="st1">
	<path d="M14.4,119.5h-1.5v-9.1c-0.3,0.3-0.8,0.6-1.3,1c-0.6,0.4-1,0.6-1.5,0.8v-1.4c0.8-0.5,1.5-0.9,2.1-1.3c0.6-0.6,1-1,1.3-1.7
		h0.9V119.5z"/>
	<path d="M31.7,115.3l1.5,0.5c-0.3,1.4-0.9,2.3-1.8,3c-0.9,0.6-2,1-3.2,1s-2.3-0.3-3.1-0.8s-1.4-1.2-1.8-2.3s-0.6-2.1-0.6-3.1
		c0-1.2,0.3-2.3,0.8-3.2c0.4-0.9,1.2-1.6,1.9-2.1c0.9-0.5,1.8-0.8,2.8-0.8c1.2,0,2.1,0.3,3,0.9c0.9,0.6,1.4,1.5,1.7,2.5l-1.5,0.3
		c-0.3-0.9-0.6-1.5-1.2-1.8c-0.5-0.5-1.2-0.6-2-0.6c-0.9,0-1.6,0.1-2.3,0.6c-0.6,0.5-1,1-1.3,1.8s-0.3,1.5-0.3,2.3
		c0,1,0.1,2,0.4,2.7c0.3,0.8,0.8,1.4,1.3,1.7c0.5,0.3,1.3,0.6,2,0.6c0.9,0,1.6-0.3,2.3-0.8C30.9,117.4,31.4,116.4,31.7,115.3z"/>
	<path d="M34.4,115.2c0-1.7,0.4-2.7,1.3-3.5c0.8-0.6,1.7-0.9,2.7-0.9c1.2,0,2.1,0.5,2.9,1.2c0.8,0.7,1,1.8,1,3.2c0,1-0.1,2-0.4,2.5
		c-0.3,0.6-0.8,1-1.5,1.5s-1.4,0.5-2.1,0.5c-1.2,0-2.1-0.5-2.9-1.2C34.8,117.8,34.4,116.7,34.4,115.2z M35.9,115.2
		c0,1,0.3,2,0.8,2.4c0.4,0.6,1,0.8,1.8,0.8s1.4-0.3,1.8-0.8c0.4-0.6,0.8-1.3,0.8-2.5c0-1-0.3-1.8-0.8-2.4c-0.5-0.6-1.1-0.8-1.8-0.8
		s-1.3,0.3-1.8,0.8C36.2,113.3,35.9,114.2,35.9,115.2z"/>
	<path d="M44.1,119.5V111h1.3v1.2c0.6-0.9,1.5-1.3,2.7-1.3c0.4,0,1.1,0.1,1.4,0.3c0.4,0.1,0.8,0.5,0.9,0.8s0.3,0.6,0.4,1
		c0,0.3,0.1,0.8,0.1,1.3v5.3h-1.5v-5.3c0-0.6,0-1-0.1-1.3c-0.1-0.3-0.3-0.5-0.6-0.8s-0.6-0.3-1.1-0.3c-0.6,0-1.2,0.1-1.6,0.6
		s-0.6,1.2-0.6,2.3v4.7H44.1L44.1,119.5z"/>
	<path d="M56.4,118.2l0.1,1.3c-0.4,0.2-0.8,0.2-1.1,0.2c-0.6,0-0.9-0.2-1.2-0.3c-0.3-0.2-0.4-0.5-0.6-0.6c0-0.1,0-0.9,0-1.6v-5h-1.1
		V111h1.1v-2.1l1.5-0.9v3h1.5v1.2h-1.5v5c0,0.5,0,0.8,0.1,0.8c0,0.1,0.1,0.1,0.3,0.3c0.1,0,0.3,0.1,0.4,0.1
		C56,118.2,56.1,118.2,56.4,118.2z"/>
	<path d="M57.3,115.2c0-1.7,0.4-2.7,1.4-3.5c0.8-0.6,1.6-0.9,2.7-0.9c1.2,0,2.1,0.5,2.9,1.2c0.8,0.7,1.1,1.8,1.1,3.2
		c0,1-0.1,2-0.4,2.5c-0.3,0.6-0.8,1-1.5,1.5c-0.7,0.5-1.4,0.5-2.1,0.5c-1.2,0-2.1-0.5-2.9-1.2C57.6,117.8,57.3,116.7,57.3,115.2z
		 M58.8,115.2c0,1,0.3,2,0.8,2.4c0.4,0.6,1.1,0.8,1.8,0.8s1.4-0.3,1.8-0.8c0.4-0.6,0.8-1.3,0.8-2.5c0-1-0.3-1.8-0.8-2.4
		c-0.4-0.6-1.1-0.8-1.8-0.8s-1.4,0.3-1.8,0.8C59,113.3,58.8,114.2,58.8,115.2z"/>
	<path d="M66.5,117l1.5-0.3c0.1,0.6,0.3,1,0.6,1.4c0.3,0.3,0.9,0.5,1.5,0.5s1.2-0.2,1.5-0.5s0.4-0.6,0.4-0.9s-0.1-0.6-0.4-0.8
		c-0.1-0.1-0.8-0.3-1.5-0.5c-1.1-0.3-1.8-0.5-2.3-0.8c-0.4-0.1-0.8-0.5-0.9-0.8c-0.1-0.3-0.3-0.6-0.3-1c0-0.4,0.1-0.8,0.3-1
		c0.1-0.3,0.4-0.6,0.8-0.8c0.1-0.1,0.6-0.3,0.9-0.5s0.8-0.1,1.2-0.1c0.6,0,1.2,0.1,1.8,0.3c0.4,0.1,0.9,0.5,1.1,0.8
		c0.3,0.3,0.4,0.8,0.4,1.3l-1.4,0.2c0-0.5-0.3-0.8-0.6-1s-0.8-0.3-1.4-0.3s-1.2,0.1-1.4,0.3c-0.3,0.1-0.4,0.4-0.4,0.7
		c0,0.2,0,0.3,0.1,0.5s0.3,0.3,0.6,0.5c0.1,0,0.6,0.2,1.4,0.3c1.1,0.3,1.8,0.5,2.1,0.6c0.5-0.1,0.8,0.3,1,0.6
		c0.2,0.3,0.3,0.8,0.3,1.2s-0.1,0.9-0.4,1.3c-0.3,0.4-0.8,0.8-1.2,1c-0.4,0.2-1.2,0.3-1.8,0.3c-1.1,0-1.9-0.3-2.6-0.8
		C66.9,118.5,66.6,117.9,66.5,117z"/>
	<path d="M74.7,115.2c0-1.7,0.4-2.7,1.4-3.5c0.8-0.6,1.6-0.9,2.7-0.9c1.2,0,2.1,0.5,2.9,1.2s1.1,1.8,1.1,3.2c0,1-0.1,2-0.4,2.5
		c-0.3,0.6-0.8,1-1.5,1.5c-0.7,0.5-1.5,0.5-2.3,0.5c-1.2,0-2.1-0.5-2.9-1.2C75,117.8,74.7,116.7,74.7,115.2z M76.2,115.2
		c0,1,0.3,2,0.8,2.4c0.4,0.6,1.1,0.8,1.8,0.8c0.7,0,1.4-0.3,1.8-0.8c0.4-0.6,0.8-1.3,0.8-2.5c0-1-0.3-1.8-0.8-2.4
		c-0.4-0.6-1.1-0.8-1.8-0.8c-0.7,0-1.4,0.3-1.8,0.8C76.4,113.3,76.2,114.2,76.2,115.2z"/>
	<path d="M89.1,119.5v-11.8h4.1c0.9,0,1.6,0,2.1,0.1c0.8,0.2,1.2,0.5,1.8,0.9c0.6,0.6,1,1.2,1.4,2c0.4,0.8,0.5,1.8,0.5,2.8
		c0,0.9-0.1,1.7-0.3,2.4c-0.2,0.7-0.5,1.2-0.8,1.6c-0.3,0.5-0.8,0.8-1,1c-0.5,0.3-0.9,0.5-1.4,0.6c-0.6,0.1-1.2,0.1-1.9,0.1h-4.4
		C89.1,119.4,89.1,119.5,89.1,119.5z M90.8,118h2.6c0.8,0,1.4,0,1.8-0.1c0.4-0.2,0.8-0.3,1-0.6c0.3-0.3,0.6-0.9,0.9-1.5
		c0.1-0.6,0.3-1.3,0.3-2.3c0-1.2-0.1-2.3-0.6-2.8c-0.5-0.6-0.9-1-1.5-1.4c-0.4-0.1-1.1-0.3-1.9-0.3h-2.6L90.8,118L90.8,118z"/>
	<path d="M100.8,119.5V111h1.4v1.4c0.3-0.6,0.6-1,0.9-1.2c0.3-0.2,0.6-0.3,0.9-0.3c0.5,0,1,0.1,1.5,0.5l-0.5,1.3
		c-0.3-0.1-0.8-0.3-1-0.3s-0.6,0.2-0.9,0.3c-0.3,0.2-0.5,0.5-0.6,0.8c-0.1,0.5-0.3,1-0.3,1.7v4.5
		C102.2,119.5,100.8,119.5,100.8,119.5z"/>
	<path d="M106.4,109.3v-1.6h1.5v1.6H106.4z M106.4,119.5V111h1.5v8.5H106.4z"/>
	<path d="M112.4,119.5l-3.3-8.5h1.5l1.8,5.1c0.1,0.6,0.5,1.2,0.6,1.6c0.1-0.5,0.3-1,0.6-1.6l2-5.3h1.5l-3.3,8.5L112.4,119.5
		L112.4,119.5z"/>
	<path d="M124.1,116.7l1.5,0.1c-0.3,0.9-0.6,1.5-1.4,2.1c-0.6,0.5-1.5,0.8-2.4,0.8c-1.2,0-2.3-0.5-3-1.2s-1-1.8-1-3.3s0.3-2.5,1-3.3
		s1.6-1.2,2.9-1.2s2.1,0.5,2.9,1.2s1,1.8,1,3.3c0,0.1,0,0.1,0,0.5h-6.3c0,0.9,0.3,1.6,0.8,2.1s1,0.8,1.8,0.8c0.6,0,1-0.1,1.4-0.5
		C123.6,117.8,123.9,117.3,124.1,116.7z M119.3,114.5h4.8c0-0.8-0.3-1.2-0.6-1.7c-0.5-0.6-1-0.9-1.8-0.9c-0.6,0-1.2,0.1-1.6,0.6
		C119.6,113.1,119.4,113.7,119.3,114.5z"/>
	<path d="M127.8,119.5v-1.6h1.6v1.6c0,0.6-0.1,1-0.3,1.5c-0.1,0.3-0.6,0.6-1,0.9l-0.5-0.6c0.3-0.1,0.6-0.3,0.8-0.6
		c0.1-0.3,0.1-0.6,0.3-1L127.8,119.5L127.8,119.5z"/>
	<path d="M136.7,119.5v-11.8h4.4c0.9,0,1.6,0.1,2.1,0.3c0.5,0.1,0.9,0.6,1.3,1c0.3,0.5,0.5,1,0.5,1.5s-0.2,1-0.5,1.3
		c-0.3,0.5-0.8,0.8-1.2,1c0.8,0.2,1.2,0.6,1.6,1c0.5,0.5,0.6,1,0.6,1.8c0,0.6-0.2,1-0.3,1.5c-0.3,0.5-0.4,0.9-0.9,1
		c-0.3,0.3-0.8,0.5-1.4,0.6c-0.4,0.1-1.2,0.1-1.9,0.1h-4.4L136.7,119.5L136.7,119.5z M138.2,112.7h2.5c0.8,0,1.2,0,1.5-0.2
		c0.5-0.1,0.8-0.3,0.9-0.6c0.1-0.3,0.3-0.6,0.3-1c0-0.5-0.1-0.8-0.3-1c-0.2-0.3-0.5-0.5-0.8-0.6c-0.3-0.1-0.9-0.1-1.8-0.1h-2.4v3.5
		H138.2z M138.2,118h3c0.5,0,0.9,0,1,0c0.3,0,0.6-0.1,0.9-0.3c0.3-0.1,0.4-0.3,0.6-0.6c0.2-0.3,0.3-0.6,0.3-1c0-0.5-0.1-0.8-0.3-1.2
		c-0.3-0.3-0.6-0.6-0.9-0.8c-0.4-0.2-0.9-0.2-1.8-0.2h-2.7L138.2,118L138.2,118z"/>
	<path d="M153.3,116.7l1.5,0.1c-0.3,0.9-0.6,1.5-1.3,2.1c-0.6,0.5-1.5,0.8-2.4,0.8c-1.2,0-2.3-0.5-3-1.2s-1-1.8-1-3.3s0.3-2.5,1-3.3
		s1.7-1.2,2.9-1.2c1.2,0,2.1,0.5,2.9,1.2s1,1.8,1,3.3c0,0.1,0,0.1,0,0.5h-6.3c0,0.9,0.3,1.6,0.8,2.1c0.4,0.5,1,0.8,1.8,0.8
		c0.6,0,1.1-0.1,1.4-0.5C152.9,117.8,153.2,117.3,153.3,116.7z M148.7,114.5h4.8c0-0.8-0.3-1.2-0.6-1.7c-0.5-0.6-1.1-0.9-1.8-0.9
		c-0.6,0-1.2,0.1-1.6,0.6C149,113.1,148.7,113.7,148.7,114.5z"/>
	<path d="M156.6,119.5v-11.8h1.5v11.8H156.6z"/>
	<path d="M160.4,119.5v-11.8h1.5v11.8H160.4z"/>
	<path d="M169.8,116.7l1.5,0.1c-0.3,0.9-0.6,1.5-1.3,2.1c-0.6,0.5-1.5,0.8-2.4,0.8c-1.2,0-2.3-0.5-3-1.2s-1-1.8-1-3.3s0.3-2.5,1-3.3
		s1.7-1.2,2.9-1.2c1.2,0,2.1,0.5,2.9,1.2s1,1.8,1,3.3c0,0.1,0,0.1,0,0.5h-6.3c0,0.9,0.3,1.6,0.8,2.1c0.4,0.5,1,0.8,1.8,0.8
		c0.6,0,1.1-0.1,1.4-0.5C169.4,117.8,169.7,117.3,169.8,116.7z M165,114.5h4.8c0-0.8-0.3-1.2-0.6-1.7c-0.5-0.6-1.1-0.9-1.8-0.9
		c-0.6,0-1.2,0.1-1.6,0.6C165.3,113.1,165.2,113.7,165,114.5z"/>
	<path d="M175.5,119.5l-3.3-8.5h1.5l1.8,5.1c0.1,0.6,0.5,1.2,0.6,1.6c0.1-0.5,0.3-1,0.6-1.6l2-5.3h1.5l-3.3,8.5L175.5,119.5
		L175.5,119.5z"/>
	<path d="M186.9,119.5v-1.2c-0.6,0.9-1.5,1.5-2.7,1.5c-0.5,0-0.9-0.1-1.3-0.3c-0.5-0.1-0.8-0.5-0.9-0.8s-0.3-0.6-0.5-1
		c0-0.3-0.1-0.8-0.1-1.3v-5.3h1.5v4.8c0,0.8,0,1.2,0.1,1.5c0.1,0.5,0.3,0.8,0.6,0.9c0.3,0.2,0.6,0.3,1,0.3c0.4,0,0.9-0.1,1.2-0.3
		c0.4-0.1,0.6-0.6,0.8-0.9c0.1-0.5,0.3-0.9,0.3-1.7v-4.5h1.5v8.5h-1.5C186.9,119.8,186.9,119.5,186.9,119.5z"/>
	<path d="M196.4,116.7l1.5,0.1c-0.3,0.9-0.6,1.5-1.3,2.1c-0.6,0.5-1.5,0.8-2.4,0.8c-1.2,0-2.3-0.5-3-1.2s-1-1.8-1-3.3s0.3-2.5,1-3.3
		s1.7-1.2,2.8-1.2c1.2,0,2.1,0.5,2.8,1.2s1,1.8,1,3.3c0,0.1,0,0.1,0,0.5h-6.2c0,0.9,0.3,1.6,0.8,2.1s1,0.8,1.8,0.8
		c0.6,0,1-0.1,1.3-0.5C195.9,117.8,196.2,117.3,196.4,116.7z M191.7,114.5h4.8c0-0.8-0.3-1.2-0.6-1.7c-0.5-0.6-1-0.9-1.8-0.9
		c-0.6,0-1.2,0.1-1.7,0.6C192,113.1,191.7,113.7,191.7,114.5z"/>
	<path d="M200.1,119.5v-1.6h1.6v1.6c0,0.6-0.1,1-0.3,1.5c-0.2,0.3-0.6,0.6-1,0.9l-0.5-0.6c0.3-0.1,0.6-0.3,0.8-0.6
		c0.2-0.3,0.2-0.6,0.3-1L200.1,119.5L200.1,119.5z"/>
</g>
<g class="st1">
	<path d="M211.1,119.5l-3.2-11.8h1.7l1.8,7.8c0.2,0.8,0.3,1.6,0.5,2.4c0.3-1.2,0.4-2,0.6-2.3l2.3-8h2l1.7,6c0.4,1.5,0.8,2.9,0.9,4.2
		c0.2-0.8,0.3-1.6,0.6-2.5l1.8-7.5h1.5l-3.3,11.9h-1.5l-2.6-9c-0.1-0.8-0.3-1.2-0.3-1.4c-0.2,0.6-0.3,1-0.3,1.4l-2.6,9L211.1,119.5
		L211.1,119.5z"/>
</g>
<g class="st1">
	<path d="M222.6,119.5l4.5-11.8h1.6l4.8,11.8h-1.8l-1.3-3.6h-5l-1.3,3.6H222.6z M226.1,114.6h4l-1.2-3.3c-0.4-1-0.6-1.8-0.9-2.4
		c-0.2,0.8-0.3,1.5-0.6,2.3L226.1,114.6z"/>
</g>
<g>
	<path class="st0" d="M242.9,119.5v-11.8h4c0.9,0,1.7,0,2.1,0.1c0.8,0.2,1.2,0.5,1.8,0.9c0.6,0.6,1,1.2,1.3,2
		c0.3,0.8,0.5,1.8,0.5,2.8c0,0.9-0.2,1.7-0.3,2.4c-0.2,0.8-0.5,1.2-0.8,1.6c-0.3,0.5-0.8,0.8-1.1,1c-0.4,0.3-0.9,0.5-1.3,0.6
		c-0.6,0.1-1.2,0.1-2,0.1h-4.3v0.3H242.9z M244.4,118h2.5c0.8,0,1.3,0,1.8-0.1c0.5-0.2,0.8-0.3,1.1-0.6c0.3-0.3,0.6-0.9,0.9-1.5
		c0.2-0.6,0.3-1.3,0.3-2.3c0-1.2-0.1-2.3-0.6-2.8c-0.4-0.6-0.9-1-1.5-1.4c-0.5-0.1-1.1-0.3-2-0.3h-2.5V118z"/>
	<path class="st0" d="M254.6,109.3v-1.6h1.5v1.6H254.6z M254.6,119.5V111h1.5v8.5H254.6z"/>
	<path class="st0" d="M258.3,119.5V111h1.3v1.4c0.3-0.6,0.6-1,0.9-1.2s0.6-0.3,0.9-0.3c0.5,0,1.1,0.1,1.5,0.5l-0.4,1.3
		c-0.3-0.1-0.8-0.3-1.1-0.3c-0.3,0-0.6,0.2-0.9,0.3c-0.3,0.2-0.5,0.5-0.6,0.8c-0.1,0.5-0.3,1-0.3,1.7v4.5
		C259.7,119.5,258.3,119.5,258.3,119.5z"/>
	<path class="st0" d="M269.6,116.7l1.5,0.1c-0.3,0.9-0.6,1.5-1.4,2.1c-0.6,0.5-1.5,0.8-2.4,0.8c-1.2,0-2.3-0.5-3-1.2
		c-0.7-0.7-1.1-1.8-1.1-3.3s0.3-2.5,1.1-3.3c0.8-0.8,1.6-1.2,2.8-1.2c1.2,0,2.1,0.5,2.9,1.2s1,1.8,1,3.3c0,0.1,0,0.1,0,0.5h-6.3
		c0,0.9,0.3,1.6,0.8,2.1c0.4,0.5,1,0.8,1.8,0.8c0.6,0,1-0.1,1.3-0.5C269.1,117.8,269.3,117.3,269.6,116.7z M264.8,114.3h4.8
		c0-0.8-0.3-1.2-0.6-1.6c-0.4-0.6-1-0.9-1.8-0.9c-0.6,0-1.2,0.2-1.7,0.6C265.1,113.1,264.8,113.7,264.8,114.3z"/>
	<path class="st0" d="M278.6,116.4l1.5,0.1c-0.2,1-0.6,1.8-1.2,2.3c-0.6,0.6-1.5,0.9-2.4,0.9c-1.2,0-2.1-0.5-2.8-1.2
		c-0.7-0.7-1-1.8-1-3.3c0-0.9,0.1-1.8,0.4-2.4c0.3-0.6,0.8-1.2,1.3-1.5s1.3-0.5,2.1-0.5c0.9,0,1.7,0.3,2.3,0.8s0.9,1.2,1.2,2
		l-1.4,0.1c-0.2-0.6-0.3-1-0.8-1.4c-0.3-0.3-0.8-0.5-1.2-0.5c-0.8,0-1.3,0.3-1.8,0.8s-0.8,1.4-0.8,2.5c0,1.2,0.1,2,0.6,2.5
		s1.1,0.8,1.7,0.8c0.6,0,1-0.1,1.5-0.5C278.1,117.6,278.6,117,278.6,116.4z"/>
	<path class="st0" d="M284.3,118.2l0.2,1.3c-0.5,0.2-0.8,0.2-1,0.2c-0.6,0-0.9-0.2-1.2-0.3c-0.3-0.2-0.5-0.5-0.6-0.6
		c-0.2-0.3-0.2-0.9-0.2-1.6v-5h-1V111h1v-2.1l1.5-0.9v3h1.5v1.2H283v5c0,0.5,0,0.8,0.2,0.8c0,0.1,0.2,0.1,0.3,0.3
		c0.1,0,0.3,0.1,0.4,0.1C283.8,118.2,284.1,118.2,284.3,118.2z"/>
	<path class="st0" d="M285.8,109.3v-1.6h1.5v1.6H285.8z M285.8,119.5V111h1.5v8.5H285.8z"/>
	<path class="st0" d="M288.8,115.2c0-1.7,0.4-2.7,1.3-3.5c0.8-0.6,1.7-0.9,2.7-0.9c1.2,0,2.1,0.5,2.8,1.2c0.7,0.7,1.1,1.8,1.1,3.2
		c0,1-0.2,2-0.4,2.5c-0.3,0.6-0.8,1-1.5,1.5c-0.6,0.3-1.4,0.5-2.1,0.5c-1.2,0-2.1-0.5-2.8-1.2C289.4,117.8,288.8,116.7,288.8,115.2z
		 M290.3,115.2c0,1,0.3,2,0.8,2.4c0.4,0.6,1.1,0.8,1.8,0.8c0.7,0,1.3-0.3,1.8-0.8c0.5-0.6,0.8-1.3,0.8-2.5c0-1-0.3-1.8-0.8-2.4
		c-0.5-0.6-1-0.8-1.8-0.8c-0.8,0-1.4,0.3-1.8,0.8C290.6,113.3,290.3,114.2,290.3,115.2z"/>
	<path class="st0" d="M298.7,119.5V111h1.3v1.2c0.6-0.9,1.5-1.3,2.7-1.3c0.5,0,1.1,0.1,1.4,0.3c0.4,0.1,0.8,0.5,0.9,0.8
		c0.2,0.3,0.3,0.6,0.5,1c0,0.3,0.2,0.8,0.2,1.3v5.3h-1.5v-5.3c0-0.6,0-1-0.2-1.3c-0.2-0.3-0.3-0.6-0.6-0.8c-0.3-0.2-0.6-0.3-1.1-0.3
		c-0.6,0-1.2,0.1-1.6,0.6c-0.5,0.5-0.6,1.2-0.6,2.3v4.7H298.7L298.7,119.5z"/>
	<path class="st0" d="M307.4,116.8l1.5-0.3c0.1,0.6,0.3,1,0.6,1.4c0.3,0.3,0.9,0.5,1.5,0.5s1.2-0.2,1.5-0.5c0.3-0.3,0.5-0.6,0.5-0.9
		s-0.2-0.6-0.5-0.8c-0.1-0.1-0.8-0.3-1.5-0.5c-1-0.3-1.8-0.5-2.3-0.8c-0.4-0.1-0.8-0.5-0.9-0.8c-0.2-0.3-0.3-0.8-0.3-1.2
		s0.2-0.8,0.3-1c0.1-0.3,0.4-0.6,0.8-0.8c0.3-0.1,0.6-0.3,0.9-0.5c0.5-0.1,0.8-0.1,1.2-0.1c0.6,0,1.2,0.1,1.8,0.3
		c0.5,0.1,0.9,0.5,1.1,0.8c0.3,0.3,0.4,0.8,0.4,1.3l-1.3,0.2c0-0.5-0.3-0.8-0.6-1c-0.3-0.3-0.8-0.3-1.3-0.3c-0.6,0-1.2,0.1-1.5,0.3
		c-0.3,0.1-0.5,0.5-0.5,0.8c0,0.1,0,0.3,0.2,0.5c0.2,0.1,0.3,0.3,0.6,0.5c0.2,0,0.6,0.1,1.3,0.3c1.1,0.3,1.8,0.5,2.1,0.6
		c0.3,0.2,0.8,0.5,0.9,0.8c0.3,0.3,0.3,0.8,0.3,1.2s-0.2,0.9-0.5,1.4c-0.3,0.5-0.8,0.8-1.2,1c-0.6,0.3-1.2,0.3-1.8,0.3
		c-1,0-2-0.3-2.5-0.8C307.5,118.2,307.4,117.9,307.4,116.8z"/>
	<path class="st0" d="M241.7,121.8v-1.2h73.4v1.2H241.7z"/>
</g>
<rect x="2" y="75" class="st4" width="339" height="54"/>
<path class="st5" d="M11.3,26.1c-8.5,15.8,19,13.8,10,0H11.3z M12.3,27.1h8.1C27.5,38.2,5.4,39.7,12.3,27.1L12.3,27.1z"/>
<path class="st5" d="M15.5,36.6v4.8c-1.5,0.2-3,0.9-4,1.9c3.1,0.2,6.3,0.2,9.5,0.2c-1-1.2-2.5-1.8-4.2-1.9v-4.9
	C16.2,36.6,15.9,36.6,15.5,36.6z"/>
<polygon class="st5" points="9.5,30 22.7,30 22.5,32.9 20.6,35.4 17.7,36.5 14.7,36.9 12.5,36 10.7,34.6 9.5,32.7 "/>
</svg>
