<svg xmlns="http://www.w3.org/2000/svg" width="323.3" height="392.34" viewBox="0 0 323.3 392.34"><defs><style>.cls-1,.cls-10,.cls-15,.cls-16,.cls-17,.cls-18,.cls-19,.cls-2,.cls-20,.cls-21,.cls-23,.cls-24,.cls-4,.cls-6,.cls-7,.cls-8{fill:none;}.cls-1,.cls-16,.cls-17,.cls-18,.cls-19,.cls-2,.cls-20,.cls-21,.cls-4,.cls-6,.cls-7,.cls-8{stroke:#737373;}.cls-1,.cls-15,.cls-16,.cls-17,.cls-18,.cls-19,.cls-2,.cls-20,.cls-21,.cls-22,.cls-23,.cls-24,.cls-4,.cls-5,.cls-6,.cls-7,.cls-8{stroke-miterlimit:10;}.cls-2{stroke-dasharray:1.59 1.59;}.cls-3{fill:#737373;}.cls-4{stroke-dasharray:1.61 1.61;}.cls-14,.cls-22,.cls-5{fill:#fff;}.cls-15,.cls-5{stroke:#00b294;}.cls-6{stroke-dasharray:1.88 1.88;}.cls-7{stroke-dasharray:1.78 1.78;}.cls-8{stroke-dasharray:1.98 1.98;}.cls-9{fill:#016937;}.cls-11{isolation:isolate;}.cls-12{fill:#ec2127;}.cls-13{fill:#444545;}.cls-16{stroke-dasharray:1.48 1.48;}.cls-17{stroke-dasharray:1.46 1.46;}.cls-18{stroke-dasharray:1.38 1.38;}.cls-19,.cls-20,.cls-21{stroke-width:0.99px;}.cls-20{stroke-dasharray:1.36 1.36;}.cls-21{stroke-dasharray:1.5 1.5;}.cls-22,.cls-23{stroke:#00bcf2;}.cls-24{stroke:#cccccb;stroke-width:0.99px;}</style></defs><title>BA_Conc_Workflow</title><g id="Layer_2" data-name="Layer 2"><g id="Layer_1-2" data-name="Layer 1"><line class="cls-1" x1="73" y1="59.5" x2="73" y2="60.4"/><line class="cls-2" x1="73" y1="62" x2="73" y2="86.6"/><line class="cls-1" x1="73" y1="87.4" x2="73" y2="88.3"/><path class="cls-3" d="M73,94.3a30.7,30.7,0,0,0-4.8-8.5L73,87.5l4.8-1.7A26.37,26.37,0,0,0,73,94.3Z"/><line class="cls-1" x1="112.6" y1="287.9" x2="112.6" y2="288.6"/><line class="cls-4" x1="112.6" y1="290.2" x2="112.6" y2="318.5"/><line class="cls-1" x1="112.6" y1="319.3" x2="112.6" y2="320"/><path class="cls-3" d="M112.6,326.1a30.7,30.7,0,0,0-4.8-8.5l4.8,1.7,4.8-1.7A29.33,29.33,0,0,0,112.6,326.1Z"/><rect class="cls-5" x="1.4" y="326.6" width="69.9" height="65.1" transform="translate(-0.4 0.04) rotate(-0.06)"/><line class="cls-1" x1="71.4" y1="168.4" x2="71.4" y2="169.3"/><line class="cls-6" x1="71.4" y1="171.2" x2="71.4" y2="200.3"/><polyline class="cls-1" points="71.4 201.3 71.4 202.2 70.5 202.2"/><line class="cls-7" x1="68.7" y1="202.2" x2="37.5" y2="202.2"/><polyline class="cls-1" points="36.6 202.2 35.6 202.2 35.6 203.1"/><line class="cls-8" x1="35.6" y1="205.1" x2="35.6" y2="223.9"/><line class="cls-1" x1="35.6" y1="224.9" x2="35.6" y2="225.9"/><path class="cls-3" d="M35.6,231.9a30.7,30.7,0,0,0-4.8-8.5l4.8,1.7,4.8-1.7A29.33,29.33,0,0,0,35.6,231.9Z"/><line class="cls-1" x1="72" y1="101.1" x2="72" y2="102"/><path class="cls-3" d="M72,108a30.7,30.7,0,0,0-4.8-8.5l4.8,1.7,4.8-1.7A30.7,30.7,0,0,0,72,108Z"/><rect class="cls-9" y="233.1" width="68" height="56.9"/><rect class="cls-10" x="4.1" y="243" width="59.3" height="33.9"/><rect class="cls-12" x="76.9" y="233.1" width="68" height="56.9"/><rect class="cls-10" x="80.9" y="243" width="59.3" height="33.9"/><rect class="cls-10" x="9.8" y="320.6" width="50.5" height="46.9"/><rect class="cls-5" x="77.4" y="326.7" width="69.9" height="65.1" transform="translate(-0.4 0.12) rotate(-0.06)"/><rect class="cls-10" x="83.8" y="323.9" width="58.6" height="44.6"/><rect class="cls-5" x="30.4" y="95" width="81.8" height="86.1"/><rect class="cls-10" x="36.7" y="133.6" width="66.8" height="55.6"/><path class="cls-13" d="M65,102.7v10.7H81V102.7Zm8,6.6-5.9-5.4H79Zm-3.2-1.4-3.6,3.6v-6.9Zm.8.8,2.4,2.2,2.4-2.2,3.6,3.6H67Zm5.7-.8,3.6-3.3v6.9Z"/><path class="cls-13" d="M105.5,334.4v10.7h16V334.4Zm8,6.5-5.9-5.4h11.9Zm-3.2-1.4-3.6,3.6v-6.9Zm.8.8,2.4,2.2,2.4-2.2,3.6,3.6H107.4Zm5.7-.8,3.6-3.3v6.9Z"/><rect class="cls-14" x="29.9" y="7.2" width="83.1" height="64.8"/><rect class="cls-15" x="29.9" y="7.2" width="83.1" height="64.8"/><rect class="cls-10" x="31.7" y="38.1" width="81.2" height="41.2"/><path class="cls-13" d="M81.2,18.5,80,19.7v6.9H68V17.4h5.6l1.5-1.5H66.5V28.1H81.6v-10C81.5,18.2,81.4,18.4,81.2,18.5Z"/><path class="cls-13" d="M81.3,16.5a.37.37,0,0,0,.3-.1l.6-.6a1.56,1.56,0,0,0-.3-2.2,1.93,1.93,0,0,0-1.2-.6,1.79,1.79,0,0,0-1,.3,1.72,1.72,0,0,0-.6.6.37.37,0,0,0,0,.6l2,2C81.1,16.4,81.2,16.5,81.3,16.5Z"/><path class="cls-13" d="M78.1,14.9a.37.37,0,0,0-.3.1l-6.3,6.3a.38.38,0,0,0,0,.6l2,2a.5.5,0,0,0,.6,0l6.3-6.3a.38.38,0,0,0,0-.6l-2-2A.37.37,0,0,0,78.1,14.9Z"/><path class="cls-13" d="M70.4,25.2l1.3-.3c.2-.1.3-.2.1-.4l-1-1c-.1-.1-.1-.1-.2-.1a.22.22,0,0,0-.2.2l-.3,1.3a.27.27,0,0,0,.3.3Z"/><line class="cls-1" x1="35.6" y1="287.9" x2="35.6" y2="288.6"/><polyline class="cls-16" points="35.6 290.1 35.6 304.7 35.6 316"/><line class="cls-1" x1="35.6" y1="316.7" x2="35.6" y2="317.5"/><path class="cls-3" d="M35.6,323.5a30.7,30.7,0,0,0-4.8-8.5l4.8,1.7,4.8-1.7A32.21,32.21,0,0,0,35.6,323.5Z"/><line class="cls-1" x1="71.4" y1="202.2" x2="72.1" y2="202.2"/><line class="cls-17" x1="73.6" y1="202.2" x2="110.7" y2="202.2"/><polyline class="cls-1" points="111.5 202.2 112.2 202.2 112.2 202.9"/><line class="cls-18" x1="112.2" y1="204.3" x2="112.2" y2="225.7"/><line class="cls-1" x1="112.2" y1="226.3" x2="112.2" y2="227.1"/><path class="cls-3" d="M112.2,233.1a30.7,30.7,0,0,0-4.8-8.5l4.8,1.7,4.8-1.7A26.37,26.37,0,0,0,112.2,233.1Z"/><line class="cls-19" x1="35.6" y1="304.7" x2="36.3" y2="304.7"/><line class="cls-20" x1="37.6" y1="304.7" x2="94.2" y2="304.7"/><polyline class="cls-19" points="94.9 304.7 95.6 304.7 95.6 305.4"/><line class="cls-21" x1="95.6" y1="306.9" x2="95.6" y2="318.2"/><line class="cls-19" x1="95.6" y1="318.9" x2="95.6" y2="319.6"/><path class="cls-3" d="M95.6,325.6a29.37,29.37,0,0,0-4.7-8.5l4.7,1.7,4.7-1.7A31.93,31.93,0,0,0,95.6,325.6Z"/><path class="cls-13" d="M41.1,330.9h2.8V344h-15V330.9h2.8V330h1v.9h7.5V330h.9Zm-9.4.9H29.8v1.9H42.9v-1.9H41v.9h-.9v-.9H32.7v.9h-1ZM29.9,343H43v-8.4H29.9Zm1.8-4.7v-.9h1v.9Zm0,1.9v-.9h1v.9Zm0,1.9v-.9h1v.9Zm2.8-5.6v-.9h.9v.9Zm0,1.8v-.9h.9v.9Zm0,1.9v-.9h.9v.9Zm0,1.9v-.9h.9v.9Zm2.8-5.6v-.9h.9v.9Zm0,1.8v-.9h.9v.9Zm0,1.9v-.9h.9v.9Zm0,1.9v-.9h.9v.9Zm2.8-5.6v-.9H41v.9Zm0,1.8v-.9H41v.9Zm0,1.9v-.9H41v.9Z"/><rect class="cls-22" x="179.8" y="326.6" width="69.9" height="65.1" transform="translate(-0.4 0.24) rotate(-0.06)"/><line class="cls-1" x1="249.8" y1="168.4" x2="249.8" y2="169.3"/><line class="cls-6" x1="249.8" y1="171.2" x2="249.8" y2="200.3"/><polyline class="cls-1" points="249.8 201.3 249.8 202.2 248.8 202.2"/><line class="cls-7" x1="247.1" y1="202.2" x2="215.8" y2="202.2"/><polyline class="cls-1" points="215 202.2 214 202.2 214 203.1"/><line class="cls-8" x1="214" y1="205.1" x2="214" y2="223.9"/><line class="cls-1" x1="214" y1="224.9" x2="214" y2="225.9"/><path class="cls-3" d="M214,231.9a30.7,30.7,0,0,0-4.8-8.5l4.8,1.7,4.8-1.7A29.33,29.33,0,0,0,214,231.9Z"/><line class="cls-1" x1="250.4" y1="73.2" x2="250.4" y2="74.1"/><line class="cls-2" x1="250.4" y1="75.7" x2="250.4" y2="100.3"/><line class="cls-1" x1="250.4" y1="101.1" x2="250.4" y2="102"/><path class="cls-3" d="M250.4,108a30.7,30.7,0,0,0-4.8-8.5l4.8,1.7,4.8-1.7A26.37,26.37,0,0,0,250.4,108Z"/><rect class="cls-9" x="178" y="233.1" width="68.8" height="56.9" transform="translate(-0.37 0.3) rotate(-0.08)"/><rect class="cls-10" x="182.4" y="243" width="59.3" height="33.9"/><rect class="cls-12" x="255.3" y="233.1" width="68" height="56.9"/><rect class="cls-10" x="259.3" y="243" width="59.3" height="33.9"/><rect class="cls-10" x="188.2" y="320.6" width="50.5" height="46.9"/><rect class="cls-22" x="208.8" y="108.3" width="81.8" height="72.8"/><rect class="cls-10" x="213.4" y="133.6" width="70.2" height="55.6"/><path class="cls-13" d="M242.4,116.3V127h16V116.3Zm8,6.6-5.9-5.4h11.9Zm-3.3-1.4-3.6,3.6v-6.9Zm.9.8,2.4,2.2,2.4-2.2,3.6,3.6H244.3Zm5.7-.8,3.6-3.3v6.9Z"/><rect class="cls-14" x="201.5" y="7.2" width="96.7" height="75.4"/><rect class="cls-23" x="201.5" y="7.2" width="96.7" height="75.4"/><rect class="cls-10" x="210.1" y="38.1" width="81.2" height="41.2"/><path class="cls-13" d="M259.6,18.5l-1.2,1.2v6.9H246.3V17.4h5.6l1.5-1.5h-8.6V28.1h15.1v-10C259.8,18.2,259.7,18.4,259.6,18.5Z"/><path class="cls-13" d="M259.7,16.5a.37.37,0,0,0,.3-.1l.6-.6a1.56,1.56,0,0,0-.3-2.2,1.93,1.93,0,0,0-1.2-.6,1.79,1.79,0,0,0-1,.3,1.72,1.72,0,0,0-.6.6.38.38,0,0,0,0,.6l2,2C259.5,16.4,259.6,16.5,259.7,16.5Z"/><path class="cls-13" d="M256.5,14.9a.37.37,0,0,0-.3.1l-6.3,6.3a.37.37,0,0,0,0,.6l2,2a.5.5,0,0,0,.6,0l6.3-6.3a.38.38,0,0,0,0-.6l-2-2A.37.37,0,0,0,256.5,14.9Z"/><path class="cls-13" d="M248.8,25.2l1.3-.3c.2-.1.3-.2.1-.4l-1-1c-.1-.1-.1-.1-.2-.1a.22.22,0,0,0-.2.2l-.3,1.3q-.15.3.3.3Z"/><line class="cls-1" x1="214" y1="287.9" x2="214" y2="288.6"/><polyline class="cls-16" points="214 290.1 214 304.7 214 316"/><line class="cls-1" x1="214" y1="316.7" x2="214" y2="317.5"/><path class="cls-3" d="M214,323.5a30.7,30.7,0,0,0-4.8-8.5l4.8,1.7,4.8-1.7A27.46,27.46,0,0,0,214,323.5Z"/><line class="cls-1" x1="249.8" y1="202.2" x2="250.5" y2="202.2"/><line class="cls-17" x1="252" y1="202.2" x2="289.1" y2="202.2"/><polyline class="cls-1" points="289.8 202.2 290.6 202.2 290.6 202.9"/><line class="cls-18" x1="290.6" y1="204.3" x2="290.6" y2="225.7"/><line class="cls-1" x1="290.6" y1="226.3" x2="290.6" y2="227.1"/><path class="cls-3" d="M290.6,233.1a30.7,30.7,0,0,0-4.8-8.5l4.8,1.7,4.8-1.7A26.37,26.37,0,0,0,290.6,233.1Z"/><path class="cls-13" d="M219.5,330.9h2.8V344H207.4V330.9h2.8V330h.9v.9h7.5V330h.9Zm-9.4.9h-1.9v1.9h13.1v-1.9h-1.9v.9h-.9v-.9H211v.9h-.9v-.9ZM208.3,343h13.1v-8.4H208.3Zm1.8-4.7v-.9h.9v.9Zm0,1.9v-.9h.9v.9Zm0,1.9v-.9h.9v.9Zm2.8-5.6v-.9h.9v.9Zm0,1.8v-.9h.9v.9Zm0,1.9v-.9h.9v.9Zm0,1.9v-.9h.9v.9Zm2.8-5.6v-.9h.9v.9Zm0,1.8v-.9h.9v.9Zm0,1.9v-.9h.9v.9Zm0,1.9v-.9h.9v.9Zm2.8-5.6v-.9h.9v.9Zm0,1.8v-.9h.9v.9Zm0,1.9v-.9h.9v.9Z"/><line class="cls-24" x1="162.6" x2="162.6" y2="391.8"/></g></g></svg>