<?xml version="1.0" encoding="utf-8"?>
<!-- Generator: Adobe Illustrator 22.1.0, SVG Export Plug-In . SVG Version: 6.00 Build 0)  -->
<svg version="1.1" id="Layer_1" xmlns="http://www.w3.org/2000/svg" xmlns:xlink="http://www.w3.org/1999/xlink" x="0px" y="0px"
	 width="437.9px" height="132.7px" viewBox="0 0 437.9 132.7" style="enable-background:new 0 0 437.9 132.7;" xml:space="preserve"
	>
<style type="text/css">
	.st0{fill:none;stroke:#008272;stroke-width:4;stroke-miterlimit:10;}
	.st1{fill:#0012FF;}
	.st2{enable-background:new    ;}
	.st3{fill:#009245;}
	.st4{fill:#999999;}
	.st5{fill:#737373;}
	.st6{fill:#0000FF;}
	.st7{fill:#FF8C00;}
	.st8{fill:#D2D2D2;}
	.st9{fill:#666666;}
</style>
<title>Asset 8</title>
<rect x="132.6" y="2" class="st0" width="211.4" height="32.6"/>
<rect x="2" y="62" class="st0" width="165" height="24"/>
<g>
	<path class="st1" d="M18.8,20.9l2,0.4c-0.5,1.6-1.2,2.9-2.3,3.6s-2.4,1.2-3.9,1.2c-1.7,0-2.8-0.3-3.9-0.9s-1.8-1.7-2.3-2.8
		C8,21.3,7.7,20,7.7,18.5s0.3-2.8,0.9-4c0.6-1.1,1.5-2,2.6-2.6s2.3-0.9,3.6-0.9c1.5,0,2.7,0.3,3.8,1.2c1,0.9,1.7,1.8,2.1,3.1
		l-1.9,0.4c-0.3-1-0.9-1.8-1.5-2.4c-0.6-0.5-1.5-0.8-2.4-0.8c-1.2,0-2.1,0.3-2.8,0.8c-0.8,0.6-1.4,1.2-1.7,2.3
		c-0.3,0.9-0.4,1.8-0.4,2.8c0,1.2,0.1,2.4,0.6,3.3c0.3,0.9,0.9,1.6,1.6,2.1s1.7,0.8,2.6,0.8c1.1,0,1.9-0.3,2.7-0.9
		C18,23,18.5,22.1,18.8,20.9z"/>
	<path class="st1" d="M22.3,20.8c0-2,0.6-3.5,1.7-4.3c0.9-0.8,2.1-1.2,3.3-1.2c1.5,0,2.7,0.4,3.6,1.5c0.9,0.9,1.4,2.3,1.4,4
		c0,1.3-0.2,2.4-0.6,3.3c-0.4,0.8-1.1,1.4-1.8,1.8c-0.8,0.4-1.7,0.6-2.6,0.6c-1.5,0-2.7-0.4-3.6-1.5C22.7,23.9,22.3,22.5,22.3,20.8z
		 M24.2,20.8c0,1.3,0.3,2.4,0.9,3s1.4,1.1,2.3,1.1s1.7-0.3,2.3-1.1c0.6-0.8,0.9-1.8,0.9-3.2c0-1.3-0.3-2.3-0.9-3
		c-0.6-0.8-1.3-1-2.3-1c-0.9,0-1.6,0.3-2.3,1C24.5,18.3,24.2,19.4,24.2,20.8z"/>
	<path class="st1" d="M34.4,26V11.3h1.8v5.3c0.9-1,2-1.5,3.2-1.5c0.8,0,1.5,0.2,2.1,0.5s1.1,0.8,1.2,1.3c0.3,0.6,0.4,1.4,0.4,2.4V26
		h-1.8v-6.8c0-0.9-0.2-1.5-0.6-2c-0.4-0.5-0.9-0.6-1.6-0.6c-0.6,0-1.1,0.1-1.5,0.5c-0.5,0.3-0.8,0.6-1.1,1.2c-0.1,0.5-0.3,1.2-0.3,2
		V26H34.4z"/>
	<path class="st1" d="M45.2,20.8c0-2,0.6-3.5,1.7-4.3c0.9-0.8,2.1-1.2,3.3-1.2c1.5,0,2.7,0.4,3.6,1.5c0.9,0.9,1.4,2.3,1.4,4
		c0,1.3-0.1,2.4-0.6,3.3c-0.4,0.8-1.1,1.4-1.8,1.8c-0.8,0.4-1.6,0.6-2.5,0.6c-1.5,0-2.7-0.4-3.6-1.5C45.7,23.9,45.2,22.5,45.2,20.8z
		 M47,20.8c0,1.3,0.3,2.4,0.9,3s1.4,1.1,2.3,1.1s1.6-0.3,2.3-1.1s0.9-1.8,0.9-3.2c0-1.3-0.3-2.3-0.9-3c-0.6-0.8-1.4-1-2.3-1
		s-1.6,0.3-2.3,1S47,19.4,47,20.8z"/>
	<path class="st1" d="M65.8,26l-3.9-14.7h2l2.3,9.6c0.3,1,0.4,1.9,0.6,3c0.5-1.5,0.6-2.6,0.6-2.7l2.8-9.9h2.4l2.1,7.5
		c0.6,1.8,0.9,3.6,1.2,5.3c0.1-0.9,0.4-2,0.8-3.1l2.3-9.5h1.9l-4,14.5h-2l-3.1-11.3c-0.3-0.9-0.5-1.5-0.5-1.8
		c-0.1,0.8-0.3,1.2-0.4,1.8l-3,11.3H65.8z"/>
	<path class="st1" d="M82.4,13.4v-2.1h1.8v2.1C84.2,13.4,82.4,13.4,82.4,13.4z M82.4,26V15.3h1.8V26H82.4z"/>
	<path class="st1" d="M87.1,26V15.3h1.6v1.5c0.8-1.2,1.9-1.8,3.4-1.8c0.6,0,1.2,0.2,1.8,0.3c0.6,0.3,0.9,0.6,1.2,0.9
		c0.3,0.3,0.5,0.8,0.6,1.3c0,0.3,0.1,0.9,0.1,1.8V26H94v-6.5c0-0.8,0-1.3-0.2-1.6c-0.1-0.3-0.4-0.6-0.8-0.9
		c-0.3-0.2-0.8-0.3-1.2-0.3c-0.8,0-1.5,0.3-1.9,0.8C89.3,18,89,18.8,89,20.3V26H87.1z"/>
	<path class="st1" d="M105.8,22.5l1.8,0.3c-0.3,1.1-0.9,2-1.6,2.6c-0.8,0.6-1.8,0.9-3,0.9c-1.5,0-2.9-0.4-3.8-1.5
		c-0.9-0.9-1.4-2.3-1.4-4c0-1.8,0.5-3.1,1.4-4.2c0.9-1,2.1-1.5,3.6-1.5s2.5,0.5,3.5,1.5c0.9,0.9,1.4,2.4,1.4,4c0,0.2,0,0.3,0,0.5h-8
		c0,1.2,0.5,2.1,1.1,2.7s1.3,0.9,2.3,0.9c0.6,0,1.2-0.2,1.6-0.5C105,23.9,105.5,23.3,105.8,22.5z M99.8,19.7h6
		c-0.2-0.9-0.3-1.5-0.8-2c-0.6-0.8-1.3-1-2.3-1s-1.5,0.3-2.1,0.9C100.3,18,100,18.8,99.8,19.7z"/>
	<path class="st1" d="M109.9,26V15.3h1.6V17c0.5-0.8,0.8-1.2,1.2-1.5c0.3-0.3,0.8-0.3,1.2-0.3c0.6,0,1.2,0.1,1.8,0.6l-0.6,1.7
		c-0.5-0.3-0.9-0.5-1.4-0.5s-0.8,0.2-1,0.3c-0.3,0.3-0.6,0.6-0.6,1c-0.2,0.6-0.3,1.4-0.3,2.1V26H109.9z"/>
	<path class="st1" d="M116.6,30.2l-0.2-1.6c0.5,0.1,0.8,0.1,1,0.1c0.5,0,0.8,0,0.9-0.1c0.3-0.2,0.5-0.3,0.6-0.6
		c0.1-0.1,0.3-0.6,0.6-1.4c0-0.1,0.1-0.3,0.1-0.4l-4-10.7h2l2.3,6.2c0.3,0.8,0.6,1.6,0.8,2.4c0.1-0.9,0.5-1.6,0.8-2.4l2.3-6.2h1.8
		l-4,10.8c-0.5,1.2-0.8,1.9-1,2.4c-0.3,0.6-0.8,1.1-1,1.4c-0.5,0.3-0.9,0.4-1.5,0.4C117.5,30.3,117,30.3,116.6,30.2z"/>
	<path class="st1" d="M132,21.7v-1.8h5.6v1.8H132z"/>
	<path class="st1" d="M6.8,29v-1.5h131.5V29H6.8z"/>
</g>
<g class="st2">
	<path class="st1" d="M138.4,29v-1.5h4.5V29H138.4z"/>
</g>
<g class="st2">
	<path class="st1" d="M142.9,26l5.7-14.7h2.1l6,14.7h-2.3l-1.6-4.5h-6.2L145,26H142.9z M147,20h5l-1.5-4c-0.5-1.2-0.8-2.3-1-3
		c-0.2,0.9-0.5,1.9-0.8,2.8L147,20z"/>
	<path class="st1" d="M157.9,26V11.3h1.8V26H157.9z"/>
	<path class="st1" d="M162.5,26V11.3h1.8V26H162.5z"/>
	<path class="st1" d="M172.9,26V15.3h1.6V17c0.5-0.8,0.8-1.2,1.2-1.5c0.3-0.3,0.8-0.3,1.2-0.3c0.6,0,1.2,0.1,1.8,0.6l-0.6,1.7
		c-0.5-0.3-0.9-0.5-1.4-0.5s-0.8,0.2-1,0.3c-0.3,0.3-0.6,0.6-0.6,1c-0.1,0.6-0.3,1.4-0.3,2.1V26H172.9z"/>
	<path class="st1" d="M187,22.5l1.8,0.3c-0.3,1.1-0.9,2-1.6,2.6c-0.8,0.6-1.8,0.9-3,0.9c-1.5,0-2.9-0.4-3.8-1.5
		c-0.9-0.9-1.4-2.3-1.4-4c0-1.8,0.5-3.1,1.4-4.2c0.9-1,2.1-1.5,3.6-1.5s2.5,0.5,3.4,1.5c0.9,0.9,1.4,2.4,1.4,4c0,0.2,0,0.3,0,0.5h-8
		c0,1.2,0.5,2.1,1.1,2.7s1.4,0.9,2.3,0.9c0.6,0,1.2-0.2,1.6-0.5C186.4,23.9,186.6,23.3,187,22.5z M181.1,19.7h6
		c-0.1-0.9-0.3-1.5-0.8-2c-0.6-0.8-1.4-1-2.3-1s-1.5,0.3-2.1,0.9C181.4,18,181.1,18.8,181.1,19.7z"/>
	<path class="st1" d="M198,26v-1.3c-0.8,1-1.6,1.6-3,1.6c-0.9,0-1.6-0.3-2.4-0.8s-1.2-1.1-1.7-1.9s-0.6-1.8-0.6-2.8
		c0-1.1,0.1-2.1,0.6-2.9c0.3-0.9,0.9-1.5,1.7-2c0.8-0.4,1.5-0.8,2.4-0.8c0.6,0,1.2,0.2,1.7,0.5c0.4,0.3,0.9,0.6,1.2,1v-5.4h1.8V26
		H198z M192.3,20.8c0,1.3,0.3,2.4,0.9,3c0.6,0.8,1.2,1.1,2.1,1.1c0.8,0,1.5-0.3,1.9-0.9c0.6-0.6,0.9-1.7,0.9-3
		c0-1.5-0.3-2.6-0.9-3.2c-0.6-0.8-1.2-1-2.1-1c-0.8,0-1.5,0.3-2,1C192.7,18.2,192.3,19.3,192.3,20.8z"/>
	<path class="st1" d="M210.2,26l-3.3-10.7h1.8l1.8,6.2l0.6,2.3c0-0.2,0.2-0.9,0.6-2.3l1.7-6.3h1.8l1.6,6.1l0.6,2.1l0.6-1.9l1.8-6.2
		h1.8L218.3,26h-1.9l-1.7-6.5l-0.5-1.8l-2.1,8.3H210.2z"/>
	<path class="st1" d="M223.1,13.4v-2.1h1.8v2.1C224.9,13.4,223.1,13.4,223.1,13.4z M223.1,26V15.3h1.8V26H223.1z"/>
	<path class="st1" d="M227.8,26V15.3h1.7v1.5c0.8-1.2,1.9-1.8,3.4-1.8c0.6,0,1.2,0.2,1.8,0.3c0.6,0.3,0.9,0.6,1.2,0.9
		s0.5,0.8,0.6,1.3c0,0.3,0.1,0.9,0.1,1.8V26h-1.8v-6.5c0-0.8,0-1.3-0.2-1.6s-0.4-0.6-0.8-0.9c-0.3-0.1-0.8-0.3-1.2-0.3
		c-0.8,0-1.5,0.3-2,0.8s-0.9,1.4-0.9,2.9V26H227.8z"/>
	<path class="st1" d="M246.5,22.5l1.8,0.3c-0.3,1.1-0.9,2-1.6,2.6c-0.8,0.6-1.8,0.9-3,0.9c-1.5,0-2.9-0.4-3.8-1.5
		c-0.9-0.9-1.4-2.3-1.4-4c0-1.8,0.5-3.1,1.4-4.2c0.9-1,2.1-1.5,3.6-1.5s2.6,0.5,3.5,1.5s1.3,2.4,1.3,4c0,0.2,0,0.3,0,0.5h-7.8
		c0,1.2,0.5,2.1,1,2.7c0.6,0.6,1.4,0.9,2.3,0.9c0.6,0,1.2-0.2,1.7-0.5C245.9,23.9,246.2,23.3,246.5,22.5z M240.5,19.7h6
		c-0.2-0.9-0.3-1.5-0.8-2c-0.6-0.8-1.3-1-2.3-1s-1.5,0.3-2.1,0.9C241,18,240.7,18.8,240.5,19.7z"/>
	<path class="st1" d="M250,22.8l1.8-0.3c0.2,0.8,0.5,1.2,0.9,1.6s1.1,0.6,1.9,0.6c0.9,0,1.5-0.2,1.8-0.5c0.4-0.3,0.6-0.8,0.6-1.2
		c0-0.5-0.2-0.8-0.6-0.9c-0.3-0.2-0.9-0.3-1.8-0.6c-1.3-0.3-2.3-0.6-2.7-0.9s-0.9-0.6-1.2-1c-0.3-0.5-0.5-0.9-0.5-1.5
		c0-0.5,0.2-0.9,0.3-1.4c0.2-0.4,0.5-0.8,0.9-1c0.3-0.2,0.6-0.5,1.2-0.6c0.4-0.2,1.1-0.2,1.5-0.2c0.9,0,1.5,0.2,2.3,0.3
		c0.8,0.1,1,0.6,1.3,1.1c0.3,0.4,0.5,0.9,0.6,1.6l-1.8,0.3c-0.1-0.6-0.3-1-0.8-1.3c-0.4-0.3-0.9-0.5-1.6-0.5c-0.9,0-1.4,0.1-1.8,0.5
		c-0.3,0.3-0.6,0.6-0.6,0.9s0,0.5,0.2,0.6s0.4,0.3,0.8,0.4c0.2,0,0.8,0.2,1.7,0.5c1.3,0.3,2.1,0.6,2.7,0.9s0.9,0.6,1.2,0.9
		c0.3,0.5,0.5,0.9,0.5,1.5s-0.1,1.2-0.6,1.6c-0.3,0.6-0.9,0.9-1.5,1.2c-0.6,0.3-1.4,0.4-2.3,0.4c-1.4,0-2.4-0.3-3.2-0.9
		C250.5,24.8,250.1,24.1,250,22.8z"/>
	<path class="st1" d="M266,20.8c0-2,0.6-3.5,1.7-4.3c0.9-0.8,2.1-1.2,3.3-1.2c1.5,0,2.7,0.4,3.6,1.5c0.9,0.9,1.4,2.3,1.4,4
		c0,1.3-0.2,2.4-0.6,3.3c-0.5,0.8-1,1.4-1.8,1.8s-1.7,0.6-2.5,0.6c-1.5,0-2.7-0.4-3.6-1.5C266.5,23.9,266,22.5,266,20.8z
		 M267.8,20.8c0,1.3,0.3,2.4,0.9,3s1.3,1.1,2.3,1.1c0.9,0,1.6-0.3,2.3-1.1c0.6-0.8,0.9-1.8,0.9-3.2c0-1.3-0.3-2.3-0.9-3
		s-1.4-1-2.3-1s-1.7,0.3-2.3,1S267.8,19.4,267.8,20.8z"/>
	<path class="st1" d="M278,26V15.3h1.7v1.5c0.8-1.2,1.9-1.8,3.4-1.8c0.6,0,1.2,0.2,1.8,0.3c0.6,0.3,0.9,0.6,1.2,0.9
		c0.3,0.3,0.5,0.8,0.6,1.3c0,0.3,0.1,0.9,0.1,1.8V26H285v-6.5c0-0.8,0-1.3-0.1-1.6c-0.2-0.3-0.5-0.6-0.8-0.9
		c-0.3-0.1-0.8-0.3-1.2-0.3c-0.8,0-1.5,0.3-2,0.8c-0.6,0.5-0.9,1.4-0.9,2.9V26H278z"/>
	<path class="st1" d="M294.5,22.8l1.8-0.3c0.2,0.8,0.5,1.2,0.9,1.6s1,0.6,2,0.6c0.9,0,1.5-0.2,1.8-0.5c0.5-0.3,0.6-0.8,0.6-1.2
		c0-0.5-0.1-0.8-0.6-0.9c-0.3-0.2-0.9-0.3-1.8-0.6c-1.4-0.3-2.3-0.6-2.7-0.9s-0.9-0.6-1.2-1s-0.5-0.9-0.5-1.5c0-0.5,0.2-0.9,0.3-1.4
		c0.2-0.4,0.5-0.8,0.9-1c0.3-0.2,0.6-0.5,1.2-0.6c0.5-0.2,1-0.2,1.5-0.2c0.9,0,1.5,0.2,2.3,0.3s1,0.6,1.3,1.1
		c0.3,0.4,0.5,0.9,0.6,1.6l-1.8,0.3c-0.1-0.6-0.3-1-0.8-1.3c-0.4-0.3-0.9-0.5-1.6-0.5c-0.9,0-1.4,0.1-1.8,0.5
		c-0.3,0.3-0.6,0.6-0.6,0.9s0,0.5,0.2,0.6c0.1,0.1,0.5,0.3,0.8,0.4c0.1,0,0.8,0.2,1.6,0.5c1.4,0.3,2.1,0.6,2.7,0.9s0.9,0.6,1.2,0.9
		c0.3,0.5,0.4,0.9,0.4,1.5s-0.1,1.2-0.6,1.6c-0.3,0.6-0.9,0.9-1.5,1.2c-0.6,0.3-1.3,0.4-2.3,0.4c-1.3,0-2.4-0.3-3.2-0.9
		C295.1,24.8,294.7,24.1,294.5,22.8z"/>
	<path class="st1" d="M312.5,24.7c-0.6,0.6-1.3,0.9-2,1.2c-0.6,0.3-1.3,0.3-2,0.3c-1.2,0-2.1-0.3-2.7-0.9S305,23.9,305,23
		c0-0.5,0.2-1,0.3-1.5c0.3-0.5,0.6-0.8,0.9-1c0.5-0.3,0.8-0.5,1.3-0.6c0.3-0.1,0.9-0.1,1.7-0.3c1.5-0.1,2.5-0.5,3.3-0.6
		c0-0.3,0-0.4,0-0.4c0-0.8-0.2-1.2-0.5-1.5c-0.5-0.5-1.2-0.6-2.1-0.6s-1.5,0.2-2,0.5s-0.8,0.9-0.9,1.7l-1.8-0.3
		c0.2-0.8,0.5-1.3,0.8-1.8s0.9-0.8,1.7-1c0.8-0.3,1.5-0.5,2.4-0.5s1.7,0.2,2.3,0.3c0.6,0.2,1.1,0.5,1.2,0.8c0.1,0.3,0.5,0.8,0.6,1.2
		c0,0.3,0.1,0.9,0.1,1.6v2.7c0,1.7,0,2.7,0.1,3.2c0.2,0.4,0.3,0.9,0.5,1.3h-2C312.7,25.7,312.5,25.3,312.5,24.7z M312.3,20.6
		c-0.6,0.3-1.6,0.5-3,0.8c-0.8,0.2-1.2,0.3-1.6,0.3c-0.3,0.1-0.6,0.3-0.8,0.6c-0.1,0.3-0.3,0.6-0.3,0.9c0,0.4,0.1,0.9,0.6,1.2
		c0.3,0.3,0.9,0.4,1.7,0.4s1.3-0.2,1.8-0.4c0.6-0.3,0.9-0.8,1.2-1.2c0.1-0.5,0.3-1,0.3-1.8L312.3,20.6L312.3,20.6z"/>
	<path class="st1" d="M317,26V11.3h1.8V26H317z"/>
	<path class="st1" d="M328.8,22.5l1.8,0.3c-0.3,1.1-0.9,2-1.7,2.6c-0.8,0.6-1.8,0.9-3,0.9c-1.5,0-2.8-0.4-3.8-1.5
		c-0.9-0.9-1.3-2.3-1.3-4c0-1.8,0.4-3.1,1.3-4.2c0.9-1,2.1-1.5,3.6-1.5s2.5,0.5,3.5,1.5c0.9,1,1.3,2.4,1.3,4c0,0.2,0,0.3,0,0.5h-8
		c0,1.2,0.5,2.1,1,2.7c0.6,0.6,1.4,0.9,2.3,0.9c0.6,0,1.2-0.2,1.7-0.5C328.3,23.9,328.5,23.3,328.8,22.5z M322.8,19.7h6
		c-0.1-0.9-0.3-1.5-0.8-2c-0.6-0.8-1.3-1-2.3-1c-0.9,0-1.5,0.3-2.1,0.9C323.3,18,323,18.8,322.8,19.7z"/>
	<path class="st1" d="M334,22.4l-0.6-7.8v-3.3h2.3v3.3l-0.4,7.8C335.2,22.4,334,22.4,334,22.4z M333.5,26v-2.1h2.1V26H333.5z"/>
	<path class="st1" d="M142.9,29v-1.5h194.4V29H142.9z"/>
</g>
<g class="st2">
	<path class="st3" d="M36.7,49.4l1.3,0.1c-0.2,1.1-0.6,1.8-1.2,2.3c-0.6,0.6-1.5,0.9-2.4,0.9c-1.2,0-2.1-0.5-2.9-1.2
		c-0.8-0.8-1.1-1.8-1.1-3.3c0-0.9,0.2-1.8,0.4-2.4c0.3-0.6,0.8-1.2,1.4-1.5c0.6-0.3,1.3-0.5,2.1-0.5c0.9,0,1.7,0.3,2.3,0.8
		s0.9,1.2,1.2,2l-1.3,0.1c-0.2-0.6-0.3-1-0.8-1.3c-0.3-0.3-0.8-0.4-1.2-0.4c-0.8,0-1.4,0.3-1.8,0.8C32.3,46.1,32,47,32,48.2
		s0.2,2,0.6,2.6c0.5,0.6,1.1,0.8,1.7,0.8s1.1-0.1,1.3-0.4C36.3,50.6,36.7,50,36.7,49.4z"/>
	<path class="st3" d="M38.9,48.2c0-1.6,0.4-2.7,1.3-3.4c0.8-0.6,1.7-0.9,2.7-0.9c1.2,0,2.1,0.5,2.9,1.2s1,1.8,1,3.1
		c0,1.1-0.2,2-0.4,2.6c-0.3,0.6-0.8,1.1-1.5,1.5s-1.3,0.4-2.1,0.4c-1.2,0-2.1-0.4-2.9-1.2C39.2,50.8,38.9,49.7,38.9,48.2z
		 M40.3,48.2c0,1.1,0.3,2,0.8,2.4c0.4,0.6,1.1,0.8,1.8,0.8s1.3-0.3,1.8-0.8c0.5-0.6,0.8-1.4,0.8-2.6c0-1.1-0.3-1.8-0.8-2.4
		s-1-0.8-1.8-0.8s-1.4,0.3-1.8,0.8C40.6,46.3,40.3,47.1,40.3,48.2z"/>
	<path class="st3" d="M48.5,52.4V40.5H50v4.2c0.8-0.8,1.5-1.2,2.6-1.2c0.6,0,1.2,0.1,1.6,0.3c0.5,0.2,0.8,0.6,1.1,1.1
		c0.1,0.4,0.3,1,0.3,1.9v5.4h-1.5V47c0-0.8-0.2-1.2-0.5-1.7c-0.3-0.3-0.8-0.4-1.4-0.4c-0.4,0-0.9,0.2-1.2,0.3
		c-0.3,0.2-0.6,0.5-0.8,0.9c-0.2,0.5-0.3,1-0.3,1.6v4.6h-1.4V52.4z"/>
	<path class="st3" d="M57.2,48.2c0-1.6,0.5-2.7,1.4-3.4c0.8-0.6,1.6-0.9,2.7-0.9c1.2,0,2.1,0.5,2.9,1.2c0.8,0.8,1,1.8,1,3.1
		c0,1.1-0.1,2-0.4,2.6s-0.8,1.1-1.5,1.5s-1.4,0.4-2.1,0.4c-1.2,0-2.1-0.4-2.9-1.2S57.2,49.7,57.2,48.2z M58.7,48.2
		c0,1.1,0.3,2,0.8,2.4c0.5,0.6,1.1,0.8,1.8,0.8s1.4-0.3,1.8-0.8c0.4-0.6,0.8-1.4,0.8-2.6c0-1.1-0.3-1.8-0.8-2.4
		c-0.5-0.6-1.1-0.8-1.8-0.8s-1.4,0.3-1.8,0.8C58.9,46.3,58.7,47.1,58.7,48.2z"/>
	<path class="st3" d="M68.4,52.4L65.8,44h1.5l1.4,4.9l0.4,1.8c0-0.1,0.1-0.8,0.4-1.8L71,44h1.5l1.4,4.9l0.4,1.7l0.4-1.7l1.5-4.9h1.4
		l-2.7,8.6h-1.5l-1.3-5.1L71.8,46L70,52.6h-1.5L68.4,52.4L68.4,52.4z"/>
	<path class="st3" d="M78.8,42.3v-1.7h1.5v1.7H78.8z M78.8,52.4V44h1.5v8.6h-1.5V52.4z"/>
	<path class="st3" d="M82.4,52.4V44h1.4v1.2c0.6-0.9,1.5-1.3,2.7-1.3c0.4,0,1.1,0.2,1.4,0.3c0.4,0.2,0.8,0.4,0.9,0.8
		c0.2,0.3,0.3,0.6,0.4,1c0,0.3,0.2,0.8,0.2,1.4v5.3h-1.5v-5.3c0-0.6,0-1.1-0.2-1.4c-0.1-0.3-0.3-0.4-0.6-0.8
		c-0.3-0.3-0.6-0.3-1.1-0.3c-0.6,0-1.2,0.2-1.6,0.6c-0.5,0.4-0.6,1.2-0.6,2.3v4.6C83.8,52.4,82.4,52.4,82.4,52.4z"/>
	<path class="st3" d="M97.4,49.7l1.5,0.2c-0.3,0.9-0.6,1.5-1.3,2.1c-0.6,0.5-1.5,0.8-2.4,0.8c-1.2,0-2.3-0.4-3-1.2s-1-1.8-1-3.3
		s0.3-2.5,1-3.3s1.7-1.2,2.9-1.2s2.1,0.5,2.9,1.2s1,1.8,1,3.3c0,0.2,0,0.2,0,0.5h-6.3c0,0.9,0.3,1.6,0.8,2.1c0.4,0.4,1,0.8,1.8,0.8
		c0.6,0,1.1-0.1,1.4-0.4C97,50.8,97.3,50.3,97.4,49.7z M92.6,47.4h4.8c0-0.8-0.3-1.2-0.6-1.6c-0.5-0.6-1-0.9-1.8-0.9
		c-0.6,0-1.2,0.2-1.6,0.6C92.9,46.1,92.8,46.7,92.6,47.4z"/>
	<path class="st3" d="M100.7,52.4V44h1.3v1.3c0.3-0.6,0.6-1,0.9-1.2s0.6-0.3,0.9-0.3c0.4,0,1,0.2,1.5,0.5l-0.5,1.2
		c-0.3-0.2-0.8-0.3-1-0.3c-0.3,0-0.6,0.2-0.9,0.3s-0.5,0.4-0.6,0.8c-0.2,0.4-0.3,1.1-0.3,1.6v4.5C102,52.4,100.7,52.4,100.7,52.4z"
		/>
</g>
<g class="st2">
	<path class="st3" d="M106.1,55.7l-0.2-1.3c0.3,0.1,0.6,0.1,0.9,0.1s0.6,0,0.8-0.1c0.1-0.2,0.3-0.3,0.4-0.5c0.2-0.1,0.3-0.5,0.5-1
		c0-0.2,0-0.2,0.1-0.3l-3.3-8.5h1.5l1.8,4.9c0.3,0.6,0.5,1.4,0.6,2c0.1-0.6,0.3-1.4,0.6-2l1.8-4.9h1.5l-3.1,8.6
		c-0.3,0.9-0.6,1.6-0.8,1.9c-0.3,0.4-0.6,0.9-0.9,1.1c-0.3,0.2-0.8,0.4-1.4,0.4C106.9,56,106.4,55.9,106.1,55.7z"/>
</g>
<g class="st2">
	<path class="st3" d="M113.6,52.4v-1.6h1.6v1.6H113.6z"/>
	<path class="st3" d="M123.4,49.4l1.3,0.1c-0.2,1.1-0.6,1.8-1.2,2.3c-0.6,0.6-1.5,0.9-2.4,0.9c-1.2,0-2.1-0.5-2.9-1.2s-1-1.8-1-3.3
		c0-0.9,0.2-1.8,0.5-2.4c0.3-0.6,0.8-1.2,1.4-1.5s1.3-0.4,2.1-0.4c0.9,0,1.7,0.3,2.3,0.8c0.6,0.4,0.9,1.2,1.2,1.9l-1.4,0.2
		c-0.1-0.6-0.3-1-0.8-1.3c-0.3-0.3-0.8-0.5-1.2-0.5c-0.8,0-1.4,0.3-1.8,0.8s-0.8,1.3-0.8,2.5s0.2,2,0.6,2.5c0.5,0.6,1.2,0.8,1.9,0.8
		c0.6,0,1-0.1,1.4-0.4C123,50.6,123.2,50,123.4,49.4z"/>
	<path class="st3" d="M125.5,48.2c0-1.6,0.5-2.7,1.3-3.4c0.8-0.6,1.7-0.9,2.7-0.9c1.2,0,2.1,0.5,2.8,1.2s1.1,1.8,1.1,3.1
		c0,1.1-0.1,2-0.4,2.6s-0.8,1.1-1.5,1.5s-1.4,0.4-2.1,0.4c-1.2,0-2.1-0.4-2.9-1.2C125.9,50.8,125.5,49.7,125.5,48.2z M127,48.2
		c0,1.1,0.3,2,0.8,2.4c0.5,0.6,1,0.8,1.8,0.8s1.4-0.3,1.8-0.8c0.5-0.6,0.8-1.4,0.8-2.6c0-1.1-0.3-1.8-0.8-2.4
		c-0.4-0.6-1-0.8-1.8-0.8s-1.4,0.3-1.8,0.8C127.3,46.3,127,47.1,127,48.2z"/>
	<path class="st3" d="M135.2,52.4V44h1.3v1.2c0.3-0.4,0.6-0.8,1.1-1s0.9-0.5,1.5-0.5s1.2,0.2,1.5,0.5s0.8,0.6,0.9,1
		c0.8-1,1.5-1.5,2.7-1.5c0.9,0,1.5,0.3,1.9,0.8s0.8,1.2,0.8,2.1v5.8h-1.5V47c0-0.6,0-1.1-0.1-1.2c-0.2-0.3-0.3-0.5-0.5-0.6
		c-0.3-0.1-0.6-0.3-0.9-0.3c-0.6,0-1.1,0.2-1.5,0.6s-0.6,1.1-0.6,1.9v5h-1.5V47c0-0.6-0.1-1.2-0.3-1.5c-0.3-0.3-0.6-0.4-1.2-0.4
		c-0.4,0-0.8,0.1-1.2,0.3c-0.5,0.2-0.6,0.6-0.8,0.9c-0.1,0.3-0.3,1-0.3,1.8v4.5h-1.3L135.2,52.4L135.2,52.4z"/>
	<path class="st3" d="M152.9,48.9v-1.5h4.5v1.5H152.9z"/>
	<path class="st3" d="M163.3,46.7c0-1.9,0.6-3.4,1.6-4.6c1.1-1.1,2.4-1.7,4.1-1.7c1,0,2.1,0.3,3,0.8s1.5,1.2,1.9,2.3
		c0.5,0.9,0.8,2,0.8,3.2s-0.3,2.2-0.8,3.1c-0.4,0.9-1.2,1.7-2.1,2.1c-0.9,0.4-1.8,0.8-2.8,0.8s-2.1-0.3-3-0.8s-1.5-1.2-2-2.3
		C163.5,48.8,163.3,47.8,163.3,46.7z M164.9,46.7c0,1.4,0.5,2.6,1.2,3.3s1.6,1.2,2.9,1.2c1.2,0,2.1-0.4,2.8-1.2s1.2-1.9,1.2-3.4
		c0-0.9-0.2-1.8-0.5-2.6s-0.8-1.2-1.3-1.7c-0.6-0.5-1.4-0.6-2.1-0.6c-1.1,0-2.1,0.4-2.9,1.2S164.9,45.1,164.9,46.7z"/>
</g>
<g class="st2">
	<path class="st3" d="M176.8,52.4V45h-1.4v-1h1.4v-0.9c0-0.6,0-1,0.1-1.3s0.5-0.8,0.8-0.9c0.3-0.2,0.9-0.3,1.5-0.3
		c0.5,0,0.9,0,1.4,0.1l-0.1,1.2c-0.3,0-0.6-0.2-0.9-0.2c-0.5,0-0.8,0.2-0.9,0.3c-0.1,0.1-0.3,0.6-0.3,1v1h1.6v1.2h-1.6v7.4h-1.5
		C176.8,52.6,176.8,52.4,176.8,52.4z"/>
</g>
<g class="st2">
	<path class="st3" d="M181,52.4V45h-1.4v-1h1.4v-0.9c0-0.6,0-1,0.1-1.3s0.4-0.8,0.8-0.9c0.3-0.3,0.9-0.3,1.5-0.3
		c0.4,0,0.9,0,1.4,0.1l-0.2,1.2c-0.3,0-0.6-0.2-0.9-0.2c-0.4,0-0.8,0.2-0.9,0.3c-0.2,0.1-0.3,0.6-0.3,1v1h1.6v1.2h-1.6v7.4H181
		C181,52.6,181,52.4,181,52.4z"/>
	<path class="st3" d="M185.1,42.3v-1.7h1.5v1.7H185.1z M185.1,52.4V44h1.5v8.6h-1.5V52.4z"/>
	<path class="st3" d="M194.5,49.4l1.3,0.1c-0.1,1.1-0.6,1.8-1.2,2.3c-0.6,0.6-1.5,0.9-2.4,0.9c-1.2,0-2.1-0.5-2.9-1.2s-1-1.8-1-3.3
		c0-0.9,0.1-1.8,0.4-2.4c0.3-0.6,0.8-1.2,1.4-1.5c0.6-0.3,1.3-0.4,2.1-0.4c0.9,0,1.7,0.3,2.3,0.8c0.6,0.4,0.9,1.2,1.2,1.9l-1.4,0.2
		c-0.1-0.6-0.3-1-0.8-1.3c-0.3-0.3-0.8-0.5-1.2-0.5c-0.8,0-1.4,0.3-1.8,0.8c-0.4,0.5-0.8,1.3-0.8,2.5s0.2,2,0.6,2.5
		c0.5,0.6,1.1,0.8,1.6,0.8c0.6,0,1.1-0.1,1.4-0.4C194.2,50.6,194.3,50,194.5,49.4z"/>
	<path class="st3" d="M197.2,42.3v-1.7h1.5v1.7H197.2z M197.2,52.4V44h1.5v8.6h-1.5V52.4z"/>
	<path class="st3" d="M206.3,51.4c-0.6,0.5-1,0.8-1.5,0.9c-0.4,0.1-1,0.3-1.6,0.3c-0.9,0-1.7-0.3-2.1-0.8c-0.4-0.5-0.8-1.1-0.8-1.8
		c0-0.4,0.2-0.8,0.3-1.2c0.2-0.3,0.4-0.6,0.8-0.9c0.3-0.1,0.6-0.3,1.1-0.4c0.3,0,0.8-0.1,1.3-0.1c1.2-0.1,2.1-0.3,2.6-0.5
		c0-0.1,0-0.3,0-0.4c0-0.6-0.2-1.1-0.4-1.2c-0.3-0.3-0.9-0.5-1.7-0.5s-1.2,0.2-1.5,0.3c-0.3,0.2-0.6,0.6-0.8,1.2l-1.3-0.2
		c0.1-0.6,0.3-1,0.6-1.5c0.3-0.3,0.8-0.6,1.4-0.9c0.6-0.2,1.2-0.3,1.9-0.3s1.3,0.2,1.8,0.3c0.4,0.1,0.8,0.4,1,0.6
		c0.2,0.3,0.3,0.6,0.5,1c0,0.3,0,0.8,0,1.4v1.9c0,1.4,0,2.3,0.1,2.6c0.2,0.3,0.2,0.8,0.3,1h-1.5C206.5,52.1,206.3,51.8,206.3,51.4z
		 M206.2,48.2c-0.6,0.2-1.3,0.5-2.4,0.6c-0.6,0.1-1,0.1-1.2,0.3c-0.3,0.1-0.4,0.3-0.6,0.5c-0.1,0.1-0.2,0.4-0.2,0.8
		c0,0.4,0.2,0.8,0.5,0.9c0.3,0.2,0.8,0.5,1.3,0.5s1.1-0.1,1.5-0.3c0.4-0.3,0.8-0.6,0.9-1.1c0.2-0.3,0.3-0.8,0.3-1.5L206.2,48.2
		L206.2,48.2z"/>
	<path class="st3" d="M209.9,52.4V40.5h1.5v11.8h-1.5V52.4z"/>
	<path class="st3" d="M217.5,50l1.5-0.3c0.2,0.6,0.3,1.1,0.6,1.4c0.3,0.3,0.9,0.4,1.5,0.4s1.2-0.1,1.5-0.4c0.3-0.3,0.4-0.6,0.4-0.9
		c0-0.3-0.2-0.6-0.4-0.8c-0.2-0.1-0.8-0.3-1.5-0.4c-1.1-0.3-1.8-0.4-2.3-0.8c-0.5-0.1-0.8-0.4-0.9-0.8c-0.1-0.3-0.3-0.8-0.3-1.2
		c0-0.5,0.2-0.8,0.3-1.1c0.2-0.3,0.5-0.6,0.8-0.8c0.2-0.2,0.6-0.3,0.9-0.4c0.3-0.2,0.8-0.2,1.2-0.2c0.6,0,1.2,0.2,1.8,0.3
		c0.4,0.2,0.9,0.5,1,0.8s0.5,0.8,0.5,1.4l-1.4,0.1c0-0.4-0.3-0.8-0.6-1c-0.3-0.3-0.8-0.3-1.4-0.3c-0.6,0-1.2,0.2-1.3,0.3
		c-0.3,0.2-0.5,0.4-0.5,0.8c0,0.2,0,0.3,0.2,0.4c0.2,0.2,0.3,0.3,0.6,0.5c0.2,0,0.6,0.1,1.3,0.3c1.1,0.3,1.8,0.5,2.1,0.6
		s0.8,0.4,0.9,0.8c0.3,0.3,0.3,0.8,0.3,1.2c0,0.5-0.2,0.9-0.5,1.4c-0.3,0.4-0.8,0.8-1.2,1c-0.6,0.3-1.2,0.3-1.8,0.3
		c-1,0-2-0.3-2.5-0.8C218.2,51.5,217.7,50.9,217.5,50z"/>
	<path class="st3" d="M226.4,42.3v-1.7h1.5v1.7H226.4z M226.4,52.4V44h1.5v8.6h-1.5V52.4z"/>
	<path class="st3" d="M233.2,51.2l0.2,1.4c-0.5,0.1-0.8,0.1-1,0.1c-0.6,0-0.9-0.1-1.2-0.3c-0.3-0.1-0.5-0.5-0.6-0.6
		c-0.2-0.3-0.2-0.9-0.2-1.6v-5h-1V44h1v-2.1l1.5-0.9v3h1.5v1.2h-1.5V50c0,0.4,0,0.8,0.2,0.8c0,0.1,0.2,0.1,0.3,0.3
		c0.1,0,0.3,0.1,0.4,0.1C232.7,51.2,233,51.2,233.2,51.2z"/>
	<path class="st3" d="M240.5,49.7l1.5,0.2c-0.3,0.9-0.6,1.5-1.3,2.1c-0.6,0.5-1.5,0.8-2.4,0.8c-1.2,0-2.3-0.4-3-1.2s-1-1.8-1-3.3
		s0.3-2.5,1-3.3s1.7-1.2,2.8-1.2c1.2,0,2.1,0.5,2.8,1.2s1,1.8,1,3.3c0,0.2,0,0.2,0,0.5h-6.3c0,0.9,0.3,1.6,0.8,2.1
		c0.5,0.4,1,0.8,1.8,0.8c0.6,0,1.1-0.1,1.4-0.4C239.9,50.8,240.2,50.3,240.5,49.7z M235.7,47.4h4.8c0-0.8-0.3-1.2-0.6-1.6
		c-0.4-0.6-1.1-0.9-1.8-0.9c-0.6,0-1.2,0.2-1.6,0.6C236,46.1,235.7,46.7,235.7,47.4z"/>
</g>
<g class="st2">
	<path class="st4" d="M261.5,48.4l1.5,0.5c-0.3,1.3-0.9,2.3-1.8,3c-0.9,0.6-2,1-3.2,1s-2.3-0.3-3.1-0.8s-1.4-1.2-1.8-2.3
		s-0.6-2.1-0.6-3.2c0-1.2,0.3-2.3,0.8-3.1c0.5-0.9,1.2-1.7,2-2.1c0.9-0.4,1.8-0.8,2.8-0.8c1.2,0,2.1,0.3,3,0.9
		c0.9,0.6,1.4,1.5,1.7,2.5l-1.5,0.3c-0.3-0.9-0.6-1.5-1.2-1.8c-0.5-0.4-1.2-0.6-2-0.6c-0.9,0-1.6,0.2-2.3,0.6
		c-0.6,0.5-1,1.1-1.3,1.8c-0.3,0.8-0.3,1.5-0.3,2.3c0,1.1,0.2,1.9,0.4,2.7c0.3,0.8,0.8,1.4,1.4,1.7s1.3,0.6,2,0.6
		c0.9,0,1.6-0.3,2.3-0.8C260.9,50.1,261.3,49.4,261.5,48.4z"/>
	<path class="st4" d="M264.3,48.2c0-1.6,0.5-2.7,1.4-3.4c0.8-0.6,1.6-0.9,2.7-0.9c1.2,0,2.1,0.5,2.8,1.2s1.1,1.8,1.1,3.1
		c0,1.1-0.2,2-0.5,2.6s-0.8,1.1-1.5,1.5s-1.4,0.4-2.1,0.4c-1.2,0-2.1-0.4-2.8-1.2C264.7,50.8,264.3,49.7,264.3,48.2z M265.7,48.2
		c0,1.1,0.3,2,0.8,2.4c0.5,0.6,1,0.8,1.8,0.8s1.3-0.3,1.8-0.8c0.5-0.6,0.8-1.4,0.8-2.6c0-1.1-0.3-1.8-0.8-2.4s-1-0.8-1.8-0.8
		s-1.3,0.3-1.8,0.8C266,46.3,265.7,47.1,265.7,48.2z"/>
	<path class="st4" d="M274,52.4V40.5h1.5v4.2c0.8-0.8,1.5-1.2,2.5-1.2c0.6,0,1.2,0.1,1.7,0.3c0.4,0.3,0.8,0.6,1,1.1
		c0.1,0.4,0.3,1,0.3,1.9v5.4h-1.5V47c0-0.8-0.2-1.2-0.5-1.7c-0.3-0.3-0.8-0.4-1.3-0.4s-0.9,0.2-1.2,0.3c-0.3,0.2-0.6,0.5-0.8,0.9
		s-0.3,0.9-0.3,1.6v4.6H274V52.4z"/>
	<path class="st4" d="M282.7,48.2c0-1.6,0.4-2.7,1.3-3.4c0.8-0.6,1.7-0.9,2.7-0.9c1.2,0,2.1,0.5,2.8,1.2s1,1.8,1,3.1
		c0,1.1-0.1,2-0.4,2.6s-0.8,1.1-1.5,1.5s-1.4,0.4-2.1,0.4c-1.2,0-2.1-0.4-2.8-1.2S282.7,49.7,282.7,48.2z M284.2,48.2
		c0,1.1,0.3,2,0.8,2.4c0.4,0.6,1,0.8,1.8,0.8s1.3-0.3,1.8-0.8c0.5-0.6,0.8-1.4,0.8-2.6c0-1.1-0.3-1.8-0.8-2.4s-1-0.8-1.8-0.8
		s-1.4,0.3-1.8,0.8C284.3,46.3,284.2,47.1,284.2,48.2z"/>
	<path class="st4" d="M299.2,52.4L296,40.5h1.7l1.8,7.8c0.1,0.8,0.3,1.6,0.5,2.4c0.3-1.2,0.4-1.9,0.6-2.3l2.3-7.9h2l1.6,6
		c0.5,1.5,0.8,2.9,0.9,4.2c0.1-0.8,0.3-1.6,0.6-2.5l1.8-7.5h1.5L308,52.6h-1.5l-2.5-9c-0.1-0.8-0.3-1.2-0.3-1.3
		c-0.2,0.6-0.3,1-0.3,1.3l-2.5,9L299.2,52.4L299.2,52.4z"/>
	<path class="st4" d="M312.5,42.3v-1.7h1.5v1.7H312.5z M312.5,52.4V44h1.5v8.6h-1.5V52.4z"/>
	<path class="st4" d="M316.1,52.4V44h1.4v1.2c0.6-0.9,1.5-1.3,2.7-1.3c0.4,0,1,0.2,1.3,0.3c0.5,0.2,0.8,0.4,0.9,0.8
		c0.1,0.3,0.3,0.6,0.4,1c0,0.3,0.2,0.8,0.2,1.4v5.3h-1.5v-5.3c0-0.6,0-1.1-0.2-1.4c-0.1-0.3-0.3-0.4-0.6-0.8c-0.3-0.3-0.6-0.3-1-0.3
		c-0.6,0-1.2,0.2-1.7,0.6s-0.6,1.2-0.6,2.3v4.6C317.4,52.4,316.1,52.4,316.1,52.4z"/>
	<path class="st4" d="M331.1,49.7l1.5,0.2c-0.3,0.9-0.6,1.5-1.3,2.1c-0.6,0.5-1.5,0.8-2.4,0.8c-1.2,0-2.3-0.4-3-1.2s-1-1.8-1-3.3
		s0.3-2.5,1-3.3s1.7-1.2,2.9-1.2c1.2,0,2.1,0.5,2.9,1.2s1,1.8,1,3.3c0,0.2,0,0.2,0,0.5h-6.3c0,0.9,0.3,1.6,0.8,2.1
		c0.4,0.4,1,0.8,1.8,0.8c0.6,0,1-0.1,1.3-0.4C330.5,50.8,330.8,50.3,331.1,49.7z M326.3,47.4h4.8c0-0.8-0.3-1.2-0.6-1.6
		c-0.5-0.6-1-0.9-1.8-0.9c-0.6,0-1.2,0.2-1.7,0.6C326.6,46.1,326.5,46.7,326.3,47.4z"/>
	<path class="st4" d="M334.4,52.4V44h1.3v1.3c0.3-0.6,0.6-1,0.9-1.2s0.6-0.3,0.9-0.3c0.5,0,1,0.2,1.5,0.5l-0.5,1.3
		c-0.3-0.2-0.8-0.3-1-0.3s-0.6,0.1-0.9,0.3s-0.5,0.5-0.6,0.8c-0.1,0.5-0.3,1-0.3,1.6v4.5L334.4,52.4L334.4,52.4z"/>
</g>
<g class="st2">
	<path class="st4" d="M339.8,55.7l-0.1-1.3c0.3,0.1,0.6,0.1,0.9,0.1s0.6,0,0.8-0.1c0.2-0.2,0.3-0.3,0.5-0.5s0.3-0.5,0.5-1
		c0-0.2,0-0.2,0.1-0.3l-3.3-8.6h1.5l1.8,5c0.3,0.6,0.5,1.4,0.6,2c0.1-0.6,0.3-1.4,0.6-2l2-4.9h1.5l-3.3,8.7c-0.3,0.9-0.6,1.7-0.8,2
		c-0.3,0.5-0.6,0.9-0.9,1c-0.3,0.2-0.8,0.3-1.2,0.3C340.4,56,340.1,55.9,339.8,55.7z"/>
</g>
<g class="st2">
	<path class="st4" d="M347.3,52.4v-1.6h1.7v1.6c0,0.6-0.2,1-0.3,1.5c-0.2,0.3-0.6,0.6-1.1,0.9l-0.4-0.6c0.3-0.1,0.6-0.3,0.8-0.6
		c0.1-0.3,0.1-0.6,0.3-1.1L347.3,52.4L347.3,52.4z"/>
	<path class="st4" d="M356.2,52.4V40.5h1.5v10.3h5.8v1.4L356.2,52.4L356.2,52.4z"/>
	<path class="st4" d="M365.3,52.4V40.5h1.5v10.3h5.9v1.4L365.3,52.4L365.3,52.4z"/>
	<path class="st4" d="M383,48.4l1.5,0.5c-0.3,1.3-0.9,2.3-1.8,3c-0.9,0.6-2,1-3.2,1s-2.3-0.3-3.1-0.8c-0.8-0.5-1.4-1.2-1.8-2.3
		c-0.4-1-0.6-2.1-0.6-3.2c0-1.2,0.3-2.3,0.8-3.1c0.5-0.9,1.2-1.7,2-2.1c0.9-0.4,1.8-0.8,2.8-0.8c1.2,0,2.1,0.3,3,0.9
		s1.4,1.5,1.6,2.5l-1.5,0.3c-0.3-0.9-0.6-1.5-1.2-1.8c-0.4-0.4-1.2-0.6-1.9-0.6c-0.9,0-1.7,0.2-2.3,0.6c-0.6,0.5-1.1,1.1-1.4,1.8
		s-0.3,1.5-0.3,2.3c0,1.1,0.1,1.9,0.4,2.7s0.8,1.4,1.4,1.7s1.4,0.6,2,0.6c0.9,0,1.6-0.3,2.3-0.8C382.4,50.1,382.7,49.4,383,48.4z"/>
</g>
<g class="st2">
	<path d="M6.6,78.9l4.5-11.8h1.7l4.8,11.8h-1.8l-1.3-3.6H9.6l-1.4,3.6H6.6z M10.1,74.1h4.1L13,70.8c-0.5-1.1-0.6-1.8-0.9-2.4
		c-0.1,0.8-0.3,1.5-0.6,2.3L10.1,74.1z"/>
	<path d="M18.8,78.9V67.1h1.5v11.8H18.8z"/>
	<path d="M22.4,78.9V67.1h1.5v11.8H22.4z"/>
	<path d="M30.7,78.9v-8.6H32v1.4c0.3-0.6,0.6-1.1,0.9-1.2c0.3-0.2,0.6-0.3,0.9-0.3c0.4,0,1,0.1,1.5,0.4L34.8,72
		c-0.3-0.2-0.8-0.3-1-0.3c-0.3,0-0.6,0.1-0.9,0.3c-0.3,0.2-0.5,0.4-0.6,0.8c-0.2,0.4-0.3,1.1-0.3,1.6v4.5
		C32,78.9,30.7,78.9,30.7,78.9z"/>
	<path d="M42.1,76.3l1.5,0.1c-0.3,0.9-0.6,1.5-1.4,2.1c-0.6,0.4-1.5,0.8-2.4,0.8c-1.2,0-2.3-0.4-3-1.2s-1.1-1.8-1.1-3.3
		s0.3-2.6,1.1-3.3s1.6-1.2,2.8-1.2s2.1,0.4,2.8,1.2s1.1,1.8,1.1,3.3c0,0.1,0,0.1,0,0.4h-6.3c0,0.9,0.3,1.7,0.8,2.1
		c0.4,0.4,1.1,0.8,1.8,0.8c0.6,0,1-0.2,1.3-0.4C41.4,77.3,41.8,76.9,42.1,76.3z M37.3,73.9h4.8c0-0.8-0.3-1.2-0.6-1.7
		c-0.4-0.6-1-0.9-1.8-0.9c-0.6,0-1.2,0.2-1.7,0.6C37.6,72.5,37.4,73.1,37.3,73.9z"/>
	<path d="M50.9,78.9v-1.1c-0.6,0.9-1.4,1.2-2.4,1.2c-0.8,0-1.4-0.2-1.9-0.6c-0.6-0.3-1.1-0.9-1.4-1.5c-0.3-0.6-0.4-1.5-0.4-2.3
		c0-0.9,0.1-1.6,0.4-2.3c0.3-0.8,0.8-1.2,1.4-1.6c0.6-0.3,1.2-0.6,1.9-0.6c0.4,0,0.9,0.2,1.4,0.3s0.8,0.4,1,0.9v-4.2h1.5V79
		L50.9,78.9L50.9,78.9z M46.3,74.6c0,1,0.3,1.9,0.8,2.4c0.4,0.6,1.1,0.8,1.6,0.8c0.6,0,1.2-0.3,1.6-0.8s0.6-1.4,0.6-2.4
		c0-1.2-0.1-2.1-0.8-2.6s-1-0.8-1.6-0.8s-1.2,0.3-1.7,0.8C46.6,72.6,46.3,73.6,46.3,74.6z"/>
	<path d="M60.6,78.9l-2.5-8.6h1.5l1.3,5l0.5,1.8c0-0.1,0.1-0.8,0.5-1.8l1.3-5h1.5l1.4,5l0.4,1.7l0.4-1.6l1.5-5h1.4L67.1,79h-1.5
		l-1.4-5.1l-0.3-1.5L62.1,79C62.1,79,60.6,79,60.6,78.9z"/>
	<path d="M71,68.8v-1.6h1.5v1.6H71z M71,78.9v-8.6h1.5v8.6H71z"/>
	<path d="M74.6,78.9v-8.6H76v1.2c0.6-0.9,1.5-1.4,2.7-1.4c0.5,0,1.1,0.2,1.4,0.3c0.4,0.2,0.8,0.4,0.9,0.8c0.2,0.3,0.3,0.6,0.5,1.1
		c0,0.3,0.1,0.8,0.1,1.3v5.3H80v-5.3c0-0.6,0-1.1-0.1-1.3c-0.2-0.3-0.3-0.5-0.6-0.8c-0.3-0.3-0.6-0.3-1.1-0.3
		c-0.6,0-1.2,0.2-1.6,0.6C76.2,72.3,76,73,76,74.1v4.7h-1.3C74.6,78.8,74.6,78.9,74.6,78.9z"/>
	<path d="M89.6,76.3l1.5,0.1c-0.3,0.9-0.6,1.5-1.4,2.1c-0.6,0.4-1.5,0.8-2.4,0.8c-1.2,0-2.3-0.4-3-1.2s-1.1-1.8-1.1-3.3
		s0.3-2.6,1.1-3.3s1.6-1.2,2.8-1.2c1.2,0,2.1,0.4,2.8,1.2s1.1,1.8,1.1,3.3c0,0.1,0,0.1,0,0.4h-6.3c0,0.9,0.3,1.7,0.8,2.1
		s1.1,0.8,1.8,0.8c0.6,0,1.1-0.2,1.4-0.4C89.1,77.3,89.4,76.9,89.6,76.3z M84.9,73.9h4.8c0-0.8-0.3-1.2-0.6-1.7
		c-0.4-0.6-1-0.9-1.8-0.9c-0.6,0-1.2,0.2-1.7,0.6C85.3,72.5,84.9,73.1,84.9,73.9z"/>
	<path d="M92.4,76.4l1.5-0.3c0.2,0.6,0.3,1,0.6,1.3s0.9,0.4,1.5,0.4s1.2-0.1,1.5-0.4S98,77,98,76.6c0-0.3-0.1-0.6-0.5-0.8
		c-0.2-0.2-0.8-0.3-1.5-0.4c-1.1-0.3-1.8-0.5-2.3-0.8c-0.4-0.2-0.8-0.5-0.9-0.8s-0.3-0.8-0.3-1.2c0-0.4,0.1-0.8,0.3-1
		c0.2-0.3,0.5-0.6,0.8-0.8c0.2-0.2,0.6-0.3,0.9-0.5c0.3-0.1,0.8-0.1,1.2-0.1c0.6,0,1.2,0.1,1.8,0.3c0.5,0.2,0.9,0.5,1,0.8
		c0.3,0.3,0.5,0.8,0.5,1.4l-1.3,0.1c0-0.4-0.3-0.8-0.6-1c-0.3-0.3-0.8-0.3-1.4-0.3s-1.2,0.2-1.3,0.3c-0.3,0.1-0.4,0.4-0.4,0.8
		c0,0.1,0,0.3,0.1,0.4c0.2,0.2,0.3,0.3,0.6,0.4c0.1,0,0.6,0.2,1.3,0.3c1,0.3,1.8,0.4,2.1,0.6c0.5,0.2,0.8,0.5,0.9,0.8
		s0.3,0.8,0.3,1.2c0,0.4-0.1,0.9-0.4,1.3s-0.8,0.8-1.2,1.1C97.2,79,96.5,79,95.9,79c-1.1,0-2-0.3-2.6-0.8
		C92.9,78.1,92.6,77.3,92.4,76.4z"/>
	<path d="M105.2,74.6c0-1.7,0.5-2.7,1.3-3.5c0.8-0.6,1.7-0.9,2.7-0.9c1.2,0,2.1,0.4,2.8,1.2s1,1.8,1,3.2c0,1-0.1,1.9-0.5,2.5
		c-0.3,0.6-0.8,1.1-1.5,1.5c-0.8,0.5-1.3,0.5-2.1,0.5c-1.2,0-2.1-0.5-2.9-1.2C105.6,77.1,105.2,76.1,105.2,74.6z M106.7,74.6
		c0,1,0.3,1.9,0.8,2.4c0.5,0.6,1,0.8,1.8,0.8s1.4-0.3,1.8-0.8c0.5-0.6,0.8-1.4,0.8-2.6c0-1.1-0.3-1.8-0.8-2.4s-1-0.8-1.8-0.8
		s-1.4,0.3-1.8,0.8C107,72.8,106.7,73.6,106.7,74.6z"/>
	<path d="M115,78.9v-8.6h1.3v1.2c0.6-0.9,1.5-1.4,2.7-1.4c0.4,0,1,0.2,1.3,0.3c0.5,0.2,0.8,0.4,0.9,0.8c0.1,0.3,0.3,0.6,0.4,1.1
		c0,0.3,0.2,0.8,0.2,1.3v5.3h-1.5v-5.3c0-0.6,0-1.1-0.2-1.3c-0.1-0.3-0.3-0.5-0.6-0.8c-0.3-0.3-0.6-0.3-1-0.3
		c-0.6,0-1.2,0.2-1.6,0.6c-0.5,0.5-0.6,1.2-0.6,2.3v4.7H115C115,78.8,115,78.9,115,78.9z"/>
	<path d="M128.1,76.4l1.5-0.3c0.1,0.6,0.3,1,0.6,1.3s0.9,0.4,1.5,0.4s1.2-0.1,1.5-0.4s0.5-0.6,0.5-0.9s-0.2-0.6-0.5-0.8
		c-0.1-0.2-0.8-0.3-1.5-0.4c-1-0.3-1.8-0.5-2.3-0.8c-0.5-0.2-0.8-0.5-0.9-0.8c-0.1-0.3-0.3-0.8-0.3-1.2c0-0.4,0.2-0.8,0.3-1
		c0.1-0.3,0.4-0.6,0.8-0.8c0.1-0.2,0.6-0.3,0.9-0.5c0.3-0.1,0.8-0.1,1.2-0.1c0.6,0,1.2,0.1,1.8,0.3c0.5,0.2,0.9,0.5,1,0.8
		c0.3,0.3,0.5,0.8,0.5,1.4l-1.4,0.1c0-0.4-0.3-0.8-0.6-1c-0.3-0.3-0.8-0.3-1.3-0.3c-0.6,0-1.2,0.2-1.4,0.3c-0.3,0.1-0.4,0.4-0.4,0.8
		c0,0.1,0,0.3,0.1,0.4s0.3,0.3,0.6,0.4c0.1,0,0.6,0.2,1.3,0.3c1.1,0.3,1.8,0.4,2.1,0.6c0.4,0.2,0.8,0.5,0.9,0.8
		c0.2,0.3,0.3,0.8,0.3,1.2c0,0.4-0.1,0.9-0.5,1.3c-0.3,0.4-0.8,0.8-1.2,1.1c-0.5,0.3-1.2,0.3-1.8,0.3c-1,0-1.9-0.3-2.5-0.8
		C128.6,78.1,128.3,77.3,128.1,76.4z"/>
	<path d="M142.4,77.9c-0.6,0.5-1,0.8-1.5,0.9c-0.4,0.2-1,0.3-1.6,0.3c-0.9,0-1.6-0.3-2.1-0.8c-0.4-0.5-0.8-1.1-0.8-1.8
		c0-0.4,0.1-0.8,0.3-1.2c0.1-0.3,0.4-0.6,0.8-0.9c0.3-0.1,0.6-0.3,1-0.4c0.3,0,0.8-0.1,1.4-0.1c1.2-0.2,2.1-0.3,2.6-0.5
		c0-0.1,0-0.3,0-0.4c0-0.6-0.2-1.1-0.5-1.2c-0.3-0.3-0.9-0.5-1.6-0.5s-1.2,0.2-1.5,0.3c-0.3,0.2-0.6,0.6-0.8,1.2l-1.4-0.1
		c0.1-0.6,0.3-1.1,0.6-1.5c0.3-0.3,0.8-0.6,1.4-0.9c0.6-0.2,1.2-0.3,1.9-0.3s1.4,0.1,1.8,0.3c0.4,0.1,0.8,0.4,1,0.6
		c0.1,0.3,0.3,0.6,0.5,1.1c0,0.3,0,0.8,0,1.3v1.9c0,1.4,0,2.3,0.1,2.6s0.1,0.8,0.3,1.1h-1.5C142.5,78.6,142.5,78.4,142.4,77.9z
		 M142.4,74.6c-0.6,0.1-1.4,0.4-2.4,0.6c-0.6,0.2-1,0.2-1.2,0.3c-0.3,0.1-0.4,0.3-0.6,0.4c-0.2,0.2-0.2,0.4-0.2,0.8s0.2,0.8,0.5,0.9
		s0.8,0.4,1.4,0.4s1-0.2,1.5-0.3c0.4-0.3,0.8-0.6,0.9-1.1c0.1-0.3,0.3-0.8,0.3-1.5L142.4,74.6L142.4,74.6z"/>
	<path d="M146,78.9V67.1h1.5v11.8H146z"/>
	<path d="M155.6,76.3l1.5,0.1c-0.3,0.9-0.6,1.5-1.4,2.1c-0.6,0.4-1.5,0.8-2.4,0.8c-1.2,0-2.3-0.4-3-1.2s-1.1-1.8-1.1-3.3
		s0.3-2.6,1.1-3.3s1.6-1.2,2.9-1.2c1.2,0,2.1,0.4,2.8,1.2s1.1,1.8,1.1,3.3c0,0.1,0,0.1,0,0.4h-6.3c0,0.9,0.3,1.7,0.8,2.1
		s1.1,0.8,1.8,0.8c0.6,0,1-0.2,1.4-0.4C155,77.3,155.3,76.9,155.6,76.3z M150.8,73.9h4.8c0-0.8-0.3-1.2-0.6-1.7
		c-0.4-0.6-1-0.9-1.8-0.9c-0.6,0-1.2,0.2-1.7,0.6C151.1,72.5,150.8,73.1,150.8,73.9z"/>
	<path d="M159.6,75.9l-0.4-6.3v-2.5h1.8v2.5l-0.4,6.3H159.6z M159.2,78.9v-1.6h1.6v1.6H159.2z"/>
	<path d="M168.4,78.9V67.1h7.9v1.3h-6.4V72h5.5v1.3h-5.5v5.4L168.4,78.9L168.4,78.9z"/>
	<path d="M178.1,78.9v-8.6h1.4v1.4c0.3-0.6,0.6-1.1,0.9-1.2c0.3-0.2,0.6-0.3,0.9-0.3c0.5,0,1,0.1,1.5,0.4l-0.5,1.4
		c-0.3-0.2-0.8-0.3-1-0.3s-0.6,0.1-0.9,0.3c-0.3,0.2-0.5,0.4-0.6,0.8s-0.3,1.1-0.3,1.6v4.5C179.5,78.9,178.1,78.9,178.1,78.9z"/>
	<path d="M189.4,76.3l1.5,0.1c-0.3,0.9-0.6,1.5-1.4,2.1c-0.6,0.4-1.5,0.8-2.4,0.8c-1.2,0-2.3-0.4-3-1.2s-1.1-1.8-1.1-3.3
		s0.3-2.6,1.1-3.3s1.6-1.2,2.9-1.2c1.2,0,2.1,0.4,2.8,1.2s1.1,1.8,1.1,3.3c0,0.1,0,0.1,0,0.4h-6.3c0,0.9,0.3,1.7,0.8,2.1
		s1.1,0.8,1.8,0.8c0.6,0,1-0.2,1.4-0.4C188.9,77.3,189.2,76.9,189.4,76.3z M184.7,73.9h4.8c0-0.8-0.3-1.2-0.6-1.7
		c-0.4-0.6-1-0.9-1.8-0.9c-0.6,0-1.2,0.2-1.6,0.6C185,72.5,184.7,73.1,184.7,73.9z"/>
	<path d="M198.7,76.3l1.5,0.1c-0.3,0.9-0.6,1.5-1.3,2.1c-0.6,0.4-1.5,0.8-2.4,0.8c-1.2,0-2.3-0.4-3-1.2s-1.1-1.8-1.1-3.3
		s0.3-2.6,1.1-3.3s1.7-1.2,2.8-1.2c1.2,0,2.1,0.4,2.8,1.2s1.1,1.8,1.1,3.3c0,0.1,0,0.1,0,0.4h-6.3c0,0.9,0.3,1.7,0.8,2.1
		c0.4,0.4,1.1,0.8,1.8,0.8c0.6,0,1-0.2,1.3-0.4C198,77.3,198.3,76.9,198.7,76.3z M193.8,73.9h4.8c0-0.8-0.3-1.2-0.6-1.7
		c-0.4-0.6-1-0.9-1.8-0.9c-0.6,0-1.2,0.2-1.7,0.6C194.2,72.5,193.8,73.1,193.8,73.9z"/>
	<path d="M206.2,79.7l1.3,0.2c0,0.4,0.2,0.8,0.5,0.9c0.3,0.3,0.9,0.5,1.5,0.5s1.2-0.2,1.5-0.5s0.6-0.6,0.8-1.2
		c0-0.3,0.1-0.9,0.1-1.8c-0.6,0.8-1.3,1.1-2.4,1.1c-1.2,0-2.1-0.4-2.7-1.2c-0.6-0.9-0.9-1.8-0.9-3c0-0.8,0.2-1.5,0.4-2.3
		c0.3-0.8,0.8-1.2,1.4-1.7c0.6-0.4,1.2-0.6,1.9-0.6c1.1,0,1.8,0.4,2.6,1.2v-1.1h1.3v7.4c0,1.3-0.1,2.3-0.4,2.8
		c-0.3,0.6-0.8,1.1-1.3,1.4s-1.3,0.4-2.1,0.4c-1.1,0-1.8-0.3-2.4-0.8C206.5,81.2,206.2,80.6,206.2,79.7z M207.3,74.4
		c0,1.1,0.2,1.9,0.6,2.4c0.5,0.4,1,0.8,1.7,0.8c0.6,0,1.2-0.3,1.7-0.8s0.8-1.4,0.8-2.4c0-1.1-0.3-1.8-0.8-2.4s-1-0.8-1.7-0.8
		c-0.6,0-1.2,0.3-1.7,0.8S207.3,73.6,207.3,74.4z"/>
	<path d="M215.6,68.8v-1.6h1.5v1.6H215.6z M215.6,78.9v-8.6h1.5v8.6H215.6z"/>
	<path d="M219.7,78.9v-7.3h-1.3v-1.2h1.3v-0.9c0-0.6,0-1.1,0.2-1.4s0.5-0.8,0.8-0.9c0.3-0.3,0.9-0.3,1.5-0.3c0.5,0,0.9,0,1.3,0.2
		l-0.2,1.2c-0.3,0-0.6-0.2-0.9-0.2c-0.4,0-0.8,0.2-0.9,0.3s-0.3,0.6-0.3,1.1v0.8h1.6v1.2H221v7.4L219.7,78.9L219.7,78.9z"/>
	<path d="M227,77.6l0.2,1.3c-0.4,0.2-0.8,0.2-1.1,0.2c-0.6,0-0.9-0.2-1.2-0.3s-0.4-0.4-0.6-0.6c-0.2-0.3-0.2-0.9-0.2-1.6v-4.9H223
		v-1.2h1.1v-2.1l1.5-0.9v3h1.5v1.2h-1.5v4.9c0,0.4,0,0.8,0.2,0.8c0,0.1,0.2,0.1,0.3,0.3c0.2,0,0.3,0.1,0.5,0.1
		C226.5,77.8,226.7,77.8,227,77.6z"/>
	<path d="M234.7,78.9l-2.6-8.6h1.5l1.4,5l0.4,1.8c0-0.1,0.2-0.8,0.4-1.8l1.4-5h1.5l1.3,5l0.5,1.7l0.5-1.6l1.5-5h1.3l-2.7,8.6h-1.5
		l-1.3-5.1l-0.3-1.5l-1.8,6.6C236.2,79,234.7,79,234.7,78.9z"/>
	<path d="M244.8,68.8v-1.6h1.5v1.6H244.8z M244.8,78.9v-8.6h1.5v8.6H244.8z"/>
	<path d="M251.8,77.6l0.2,1.3c-0.4,0.2-0.8,0.2-1.1,0.2c-0.6,0-0.9-0.2-1.2-0.3s-0.4-0.4-0.6-0.6c-0.2-0.3-0.2-0.9-0.2-1.6v-4.9
		h-1.1v-1.2h1.1v-2.1l1.5-0.9v3h1.5v1.2h-1.5v4.9c0,0.4,0,0.8,0.2,0.8c0,0.1,0.2,0.1,0.3,0.3c0.2,0,0.3,0.1,0.5,0.1
		C251.3,77.8,251.5,77.8,251.8,77.6z"/>
	<path d="M253.1,78.9V67.1h1.5v4.2c0.8-0.8,1.5-1.2,2.6-1.2c0.6,0,1.2,0.1,1.6,0.3c0.5,0.3,0.8,0.6,1,1.1c0.3,0.4,0.3,1.1,0.3,1.9
		v5.4h-1.5v-5.4c0-0.8-0.2-1.2-0.5-1.6c-0.3-0.3-0.8-0.4-1.4-0.4c-0.4,0-0.9,0.1-1.2,0.3c-0.3,0.2-0.6,0.4-0.8,0.9
		c-0.2,0.4-0.3,0.9-0.3,1.6v4.7h-1.5l0,0H253.1z"/>
	<path d="M266.9,82.3V70.4h1.3v1.1c0.3-0.4,0.6-0.8,1-1.1c0.5-0.1,0.9-0.3,1.4-0.3c0.8,0,1.3,0.1,1.9,0.6c0.6,0.3,1.1,0.9,1.2,1.7
		c0.3,0.8,0.5,1.5,0.5,2.3c0,0.9-0.2,1.6-0.5,2.4s-0.8,1.2-1.3,1.7c-0.6,0.3-1.2,0.6-2,0.6c-0.5,0-0.9-0.1-1.3-0.3
		c-0.5-0.2-0.8-0.5-0.9-0.8v4.2L266.9,82.3L266.9,82.3z M268.3,74.8c0,1.1,0.2,1.9,0.6,2.4c0.5,0.6,1.1,0.8,1.7,0.8s1.2-0.3,1.7-0.8
		c0.4-0.6,0.8-1.3,0.8-2.5c0-1.1-0.2-2-0.6-2.4c-0.5-0.6-1-0.8-1.6-0.8s-1.2,0.3-1.7,0.9C268.4,72.8,268.3,73.6,268.3,74.8z"/>
	<path d="M281.6,78.9v-1.2c-0.6,0.9-1.5,1.5-2.7,1.5c-0.5,0-0.9-0.1-1.4-0.3c-0.5-0.1-0.8-0.4-0.9-0.8c-0.2-0.3-0.3-0.6-0.5-1.1
		c0-0.3-0.1-0.8-0.1-1.3v-5.3h1.5v4.8c0,0.8,0,1.2,0.1,1.5c0.1,0.4,0.3,0.8,0.6,0.9c0.3,0.2,0.6,0.3,1,0.3s0.9-0.2,1.2-0.3
		c0.3-0.2,0.6-0.6,0.8-0.9c0.1-0.5,0.3-0.9,0.3-1.7v-4.5h1.5v8.6h-1.5v-0.2H281.6z"/>
	<path d="M285.2,78.9v-8.6h1.3v1.4c0.3-0.6,0.6-1.1,0.9-1.2c0.3-0.2,0.6-0.3,0.9-0.3c0.5,0,1.1,0.1,1.5,0.4l-0.4,1.4
		c-0.3-0.2-0.8-0.3-1.1-0.3c-0.3,0-0.6,0.1-0.9,0.3c-0.3,0.2-0.5,0.4-0.6,0.8s-0.3,1.1-0.3,1.6v4.5
		C286.5,78.9,285.2,78.9,285.2,78.9z"/>
	<path d="M296.3,75.8l1.4,0.1c-0.2,1.1-0.6,1.8-1.2,2.3c-0.6,0.6-1.5,0.9-2.4,0.9c-1.2,0-2.1-0.5-2.9-1.2s-1-1.8-1-3.3
		c0-0.9,0.1-1.8,0.4-2.4c0.3-0.8,0.8-1.2,1.4-1.5s1.4-0.4,2.1-0.4c0.9,0,1.6,0.3,2.3,0.8c0.6,0.4,0.9,1.2,1.2,1.9l-1.3,0.2
		c-0.2-0.6-0.3-1.1-0.8-1.4c-0.3-0.3-0.8-0.4-1.2-0.4c-0.8,0-1.4,0.3-1.8,0.8c-0.5,0.4-0.8,1.3-0.8,2.6c0,1.2,0.1,1.9,0.6,2.5
		c0.4,0.6,1.1,0.8,1.7,0.8s1-0.1,1.3-0.4C295.8,77,296.2,76.6,296.3,75.8z"/>
	<path d="M298.8,78.9V67.1h1.5v4.2c0.8-0.8,1.5-1.2,2.6-1.2c0.6,0,1.2,0.1,1.6,0.3c0.5,0.3,0.8,0.6,1,1.1c0.3,0.4,0.3,1.1,0.3,1.9
		v5.4h-1.5v-5.4c0-0.8-0.2-1.2-0.5-1.6c-0.3-0.3-0.8-0.4-1.4-0.4c-0.4,0-0.9,0.1-1.2,0.3c-0.3,0.2-0.6,0.4-0.8,0.9
		c-0.2,0.4-0.3,0.9-0.3,1.6v4.7h-1.5l0,0H298.8z"/>
	<path d="M313.7,77.9c-0.6,0.5-1,0.8-1.5,0.9s-1,0.3-1.7,0.3c-0.9,0-1.6-0.3-2.1-0.8c-0.4-0.5-0.8-1.1-0.8-1.8
		c0-0.4,0.1-0.8,0.3-1.2c0.2-0.3,0.5-0.6,0.8-0.9c0.3-0.1,0.6-0.3,1-0.4c0.3,0,0.8-0.1,1.4-0.1c1.2-0.2,2.1-0.3,2.5-0.5
		c0-0.1,0-0.3,0-0.4c0-0.6-0.1-1.1-0.5-1.2c-0.3-0.3-0.9-0.5-1.6-0.5s-1.2,0.2-1.5,0.3c-0.3,0.3-0.6,0.6-0.8,1.2l-1.4-0.1
		c0.2-0.6,0.3-1.1,0.6-1.5c0.3-0.3,0.8-0.6,1.3-0.9c0.6-0.2,1.2-0.3,2-0.3s1.3,0.1,1.8,0.3c0.5,0.1,0.8,0.4,1,0.6
		c0.2,0.3,0.3,0.6,0.5,1.1c0,0.3,0,0.8,0,1.3v1.9c0,1.4,0,2.3,0.2,2.6c0.1,0.3,0.1,0.8,0.3,1.1H314
		C313.8,78.6,313.7,78.4,313.7,77.9z M313.5,74.6c-0.6,0.1-1.3,0.4-2.4,0.6c-0.6,0.2-1.1,0.2-1.2,0.3s-0.5,0.3-0.6,0.4
		s-0.1,0.4-0.1,0.8s0.1,0.8,0.5,0.9c0.3,0.3,0.8,0.4,1.3,0.4c0.6,0,1.1-0.2,1.5-0.3c0.5-0.3,0.8-0.6,0.9-1.1
		c0.1-0.3,0.3-0.8,0.3-1.5L313.5,74.6L313.5,74.6z"/>
	<path d="M316.7,76.4l1.5-0.3c0.1,0.6,0.3,1,0.6,1.3s0.9,0.4,1.5,0.4s1.2-0.1,1.5-0.4s0.5-0.6,0.5-0.9s-0.2-0.6-0.5-0.8
		c-0.1-0.2-0.8-0.3-1.5-0.4c-1-0.3-1.8-0.5-2.3-0.8c-0.5-0.2-0.8-0.5-0.9-0.8c-0.2-0.3-0.3-0.8-0.3-1.2c0-0.4,0.2-0.8,0.3-1
		c0.1-0.3,0.4-0.6,0.8-0.8c0.1-0.2,0.6-0.3,0.9-0.5c0.5-0.1,0.8-0.1,1.2-0.1c0.6,0,1.2,0.1,1.8,0.3c0.5,0.2,0.9,0.5,1,0.8
		s0.5,0.8,0.5,1.4l-1.3,0.1c0-0.4-0.3-0.8-0.6-1c-0.3-0.3-0.8-0.3-1.3-0.3c-0.6,0-1.2,0.2-1.4,0.3c-0.3,0.1-0.5,0.4-0.5,0.8
		c0,0.1,0,0.3,0.2,0.4s0.3,0.3,0.6,0.4c0.2,0,0.6,0.2,1.4,0.3c1,0.3,1.8,0.4,2.1,0.6c0.3,0.2,0.8,0.5,0.9,0.8
		c0.3,0.3,0.3,0.8,0.3,1.2c0,0.4-0.1,0.9-0.4,1.3s-0.8,0.8-1.2,1.1c-0.6,0.3-1.2,0.3-1.8,0.3c-1.1,0-2-0.3-2.6-0.8
		C317.2,78.1,316.8,77.3,316.7,76.4z"/>
	<path d="M331.3,76.3l1.5,0.1c-0.3,0.9-0.6,1.5-1.3,2.1c-0.6,0.4-1.5,0.8-2.4,0.8c-1.2,0-2.3-0.4-3-1.2s-1-1.8-1-3.3s0.3-2.6,1-3.3
		s1.7-1.2,2.8-1.2c1.2,0,2.1,0.4,2.9,1.2s1,1.8,1,3.3c0,0.1,0,0.1,0,0.4h-6.3c0,0.9,0.3,1.7,0.8,2.1s1,0.8,1.8,0.8
		c0.6,0,1.1-0.2,1.4-0.4C330.8,77.3,331.1,76.9,331.3,76.3z M326.6,73.9h4.8c0-0.8-0.3-1.2-0.6-1.7c-0.5-0.6-1-0.9-1.8-0.9
		c-0.6,0-1.2,0.2-1.7,0.6C326.9,72.4,326.6,73.1,326.6,73.9z"/>
	<path d="M335,78.9v-1.6h1.7v1.6H335z"/>
</g>
<g class="st2">
	<path class="st5" d="M13.4,102.2l1.3,0.2c-0.2,1-0.6,1.8-1.2,2.3c-0.6,0.6-1.5,0.9-2.4,0.9c-1.2,0-2.1-0.5-2.9-1.2s-1-1.8-1-3.3
		c0-0.9,0.1-1.8,0.5-2.4C8,98,8.5,97.4,9.1,97.1s1.4-0.5,2.1-0.5c0.9,0,1.7,0.3,2.3,0.8s0.9,1.2,1.2,2l-1.4,0.1
		c-0.2-0.6-0.3-1-0.8-1.4c-0.3-0.3-0.8-0.4-1.2-0.4c-0.8,0-1.3,0.3-1.8,0.8c-0.4,0.4-0.8,1.3-0.8,2.6s0.1,2,0.6,2.5
		c0.4,0.6,1,0.8,1.6,0.8s1-0.2,1.3-0.5C13.1,103.5,13.3,103,13.4,102.2z"/>
	<path class="st5" d="M15.5,101.1c0-1.6,0.5-2.7,1.3-3.4c0.8-0.6,1.7-0.9,2.7-0.9c1.2,0,2.1,0.5,2.9,1.2c0.7,0.8,1,1.8,1,3.1
		c0,1.1-0.1,2-0.5,2.6c-0.3,0.6-0.8,1-1.5,1.5c-0.8,0.4-1.2,0.3-1.9,0.3c-1.2,0-2.1-0.5-2.8-1.2C16,103.7,15.5,102.5,15.5,101.1z
		 M17,101.1c0,1.1,0.3,2,0.8,2.4c0.5,0.6,1,0.8,1.8,0.8s1.4-0.3,1.8-0.8c0.5-0.6,0.8-1.3,0.8-2.5c0-1-0.3-1.8-0.8-2.4
		c-0.4-0.6-1-0.8-1.8-0.8s-1.3,0.3-1.8,0.8C17.3,99.2,17,100,17,101.1z"/>
	<path class="st5" d="M25.3,105.4V93.5h1.5v4.2c0.8-0.8,1.5-1.2,2.6-1.2c0.6,0,1.2,0.1,1.6,0.3c0.5,0.2,0.8,0.6,1.1,1
		c0.1,0.5,0.3,1,0.3,2v5.4h-1.5v-5.4c0-0.8-0.1-1.2-0.4-1.7c-0.3-0.3-0.8-0.4-1.4-0.4c-0.4,0-0.9,0.1-1.2,0.3
		c-0.3,0.2-0.6,0.5-0.8,0.9s-0.3,0.9-0.3,1.7v4.6h-1.5C25.3,105.2,25.3,105.4,25.3,105.4z"/>
	<path class="st5" d="M33.8,101.1c0-1.6,0.4-2.7,1.3-3.4c0.8-0.6,1.7-0.9,2.7-0.9c1.2,0,2.1,0.5,2.8,1.2s1.1,1.8,1.1,3.1
		c0,1.1-0.2,2-0.4,2.6c-0.3,0.6-0.8,1-1.5,1.5c-0.8,0.4-1.2,0.3-2,0.3c-1.2,0-2.1-0.5-2.8-1.2C34.3,103.7,33.8,102.5,33.8,101.1z
		 M35.3,101.1c0,1.1,0.3,2,0.8,2.4c0.4,0.6,1,0.8,1.8,0.8s1.3-0.3,1.8-0.8c0.5-0.6,0.8-1.3,0.8-2.5c0-1-0.3-1.8-0.8-2.4
		c-0.4-0.6-1-0.8-1.8-0.8s-1.3,0.3-1.8,0.8C35.6,99.2,35.3,100,35.3,101.1z"/>
	<path class="st5" d="M45.1,105.4l-2.6-8.6H44l1.3,5l0.5,1.8c0-0.2,0.1-0.8,0.4-1.8l1.4-5h1.5l1.3,5l0.5,1.6l0.5-1.6l1.5-5h1.3
		l-2.7,8.6H50l-1.4-5.1l-0.3-1.5l-1.8,6.6H45.1z"/>
	<path class="st5" d="M55.4,95.3v-1.7h1.5v1.7H55.4z M55.4,105.4v-8.6h1.5v8.6H55.4z"/>
	<path class="st5" d="M59.1,105.4v-8.6h1.4V98c0.6-0.9,1.5-1.4,2.7-1.4c0.5,0,1.1,0.2,1.4,0.3c0.4,0.1,0.8,0.4,0.9,0.8
		c0.2,0.3,0.3,0.6,0.4,1c0,0.3,0.2,0.8,0.2,1.4v5.3h-1.5v-5.3c0-0.6,0-1-0.2-1.4c-0.1-0.3-0.3-0.4-0.6-0.8c-0.3-0.3-0.6-0.3-1.1-0.3
		c-0.6,0-1.2,0.1-1.6,0.6c-0.5,0.5-0.6,1.2-0.6,2.3v4.7h-1.4C59.1,105.2,59.1,105.4,59.1,105.4z"/>
	<path class="st5" d="M74.1,102.6l1.5,0.2c-0.3,0.9-0.6,1.5-1.3,2.1c-0.6,0.5-1.5,0.8-2.4,0.8c-1.2,0-2.3-0.4-3-1.2s-1-1.8-1-3.3
		s0.3-2.5,1-3.3s1.7-1.2,2.9-1.2c1.2,0,2.1,0.5,2.9,1.2s1,1.8,1,3.3c0,0.2,0,0.2,0,0.5h-6.3c0,0.9,0.3,1.6,0.8,2.1
		c0.4,0.5,1,0.8,1.8,0.8c0.6,0,1.1-0.2,1.4-0.5C73.6,103.7,73.9,103.3,74.1,102.6z M69.4,100.3h4.8c0-0.8-0.3-1.2-0.6-1.6
		c-0.4-0.6-1.1-0.9-1.8-0.9c-0.6,0-1.2,0.2-1.6,0.6C69.6,98.9,69.4,99.5,69.4,100.3z"/>
	<path class="st5" d="M77.4,105.4v-8.6h1.4v1.4c0.3-0.6,0.6-1,0.9-1.2s0.6-0.3,0.9-0.3c0.4,0,1,0.1,1.5,0.5l-0.6,1.3
		c-0.3-0.2-0.8-0.3-1.1-0.3s-0.6,0.1-0.9,0.3s-0.4,0.5-0.6,0.8c-0.1,0.5-0.3,1-0.3,1.7v4.5h-1.2V105.4z"/>
</g>
<g class="st2">
	<path class="st5" d="M82.9,108.6l-0.2-1.3c0.3,0.2,0.6,0.2,0.9,0.2s0.6,0,0.8-0.2c0.1-0.2,0.3-0.3,0.4-0.5c0.1-0.1,0.3-0.5,0.4-1
		c0-0.2,0-0.2,0.1-0.3L82.1,97h1.5l1.8,5c0.3,0.6,0.5,1.4,0.6,2c0.1-0.6,0.3-1.3,0.6-2l1.8-5h1.5l-3.3,8.5c-0.3,0.9-0.6,1.6-0.8,2
		c-0.3,0.5-0.6,0.9-0.9,1s-0.8,0.3-1.2,0.3C83.4,108.8,83.1,108.8,82.9,108.6z"/>
</g>
<g class="st2">
	<path class="st5" d="M90.4,105.4v-1.7H92v1.7H90.4z"/>
	<path class="st5" d="M100.1,102.2l1.3,0.2c-0.2,1-0.6,1.8-1.2,2.3c-0.6,0.6-1.5,0.9-2.4,0.9c-1.2,0-2.1-0.5-2.9-1.2
		s-1.1-1.8-1.1-3.3c0-0.9,0.2-1.8,0.4-2.4c0.3-0.6,0.8-1.2,1.4-1.5s1.4-0.5,2.1-0.5c0.9,0,1.6,0.3,2.3,0.8c0.6,0.5,0.9,1.2,1.2,2
		l-1.3,0.1c-0.2-0.6-0.3-1-0.8-1.4c-0.3-0.3-0.8-0.4-1.2-0.4c-0.8,0-1.4,0.3-1.8,0.8c-0.4,0.4-0.8,1.3-0.8,2.5s0.2,2,0.6,2.6
		c0.5,0.6,1.1,0.8,1.7,0.8s1-0.2,1.3-0.5C99.6,103.5,100,103,100.1,102.2z"/>
	<path class="st5" d="M102.2,101.1c0-1.6,0.5-2.7,1.3-3.4c0.8-0.6,1.7-0.9,2.7-0.9c1.2,0,2.1,0.5,2.8,1.2s1,1.8,1,3.1
		c0,1.1-0.1,2-0.5,2.6c-0.3,0.6-0.8,1-1.5,1.5c-0.8,0.4-1.2,0.3-2,0.3c-1.2,0-2.1-0.5-2.9-1.2C102.5,103.7,102.2,102.5,102.2,101.1z
		 M103.7,101.1c0,1.1,0.3,2,0.8,2.4c0.5,0.6,1,0.8,1.8,0.8s1.4-0.3,1.8-0.8c0.5-0.6,0.8-1.3,0.8-2.5c0-1-0.3-1.8-0.8-2.4
		s-1-0.8-1.8-0.8s-1.4,0.3-1.8,0.8C103.9,99.2,103.7,100,103.7,101.1z"/>
	<path class="st5" d="M112,105.4v-8.6h1.3V98c0.3-0.5,0.6-0.8,1.1-1s0.9-0.5,1.5-0.5s1.2,0.1,1.5,0.5c0.3,0.3,0.8,0.6,0.9,1
		c0.8-1,1.5-1.5,2.7-1.5c0.9,0,1.5,0.3,2,0.8s0.8,1.2,0.8,2.1v5.8h-1.5v-5.4c0-0.6,0-1-0.1-1.2c-0.2-0.3-0.3-0.5-0.5-0.6
		c-0.3-0.1-0.6-0.3-0.9-0.3c-0.6,0-1,0.2-1.5,0.6c-0.5,0.5-0.6,1.1-0.6,2v4.9h-1.5v-5.5c0-0.6-0.1-1.2-0.3-1.5
		c-0.3-0.3-0.6-0.5-1.2-0.5c-0.4,0-0.8,0.2-1.2,0.3c-0.5,0.1-0.6,0.6-0.8,0.9c-0.2,0.3-0.3,1-0.3,1.8v4.5L112,105.4L112,105.4z"/>
	<path class="st5" d="M130.3,95.3v-1.7h1.5v1.7H130.3z M130.3,105.4v-8.6h1.5v8.6H130.3z"/>
	<path class="st5" d="M133.3,102.8l1.5-0.3c0.1,0.6,0.3,1,0.6,1.4c0.3,0.3,0.9,0.4,1.5,0.4s1.2-0.1,1.5-0.4s0.4-0.6,0.4-0.9
		s-0.1-0.6-0.4-0.8c-0.1-0.2-0.8-0.3-1.5-0.5c-1.1-0.3-1.8-0.5-2.3-0.8c-0.5-0.1-0.8-0.5-0.9-0.8c-0.2-0.3-0.3-0.8-0.3-1.2
		s0.1-0.8,0.3-1c0.1-0.3,0.4-0.6,0.8-0.8c0.1-0.1,0.6-0.3,0.9-0.5c0.3-0.2,0.8-0.2,1.2-0.2c0.6,0,1.2,0.2,1.8,0.3
		c0.4,0.1,0.9,0.4,1,0.8c0.3,0.3,0.5,0.8,0.5,1.3l-1.4,0.2c0-0.5-0.3-0.8-0.6-1c-0.3-0.3-0.8-0.3-1.4-0.3c-0.6,0-1.2,0.2-1.3,0.3
		c-0.3,0.1-0.5,0.5-0.5,0.8c0,0.1,0,0.3,0.2,0.5c0.1,0.2,0.3,0.3,0.6,0.5c0.2,0,0.6,0.1,1.4,0.3c1.1,0.3,1.8,0.5,2.1,0.6
		c0.4,0.2,0.8,0.5,0.9,0.8c0.1,0.3,0.3,0.8,0.3,1.2c0,0.4-0.1,0.9-0.4,1.3c-0.3,0.5-0.8,0.8-1.2,1s-0.9,0.5-1.6,0.5
		c-1.1,0-2-0.3-2.6-0.8C133.9,104.5,133.4,103.7,133.3,102.8z"/>
	<path class="st5" d="M146.6,105.4v-8.6h1.4v1.4c0.3-0.6,0.6-1,0.9-1.2c0.3-0.2,0.6-0.3,0.9-0.3c0.5,0,1,0.1,1.5,0.5l-0.5,1.3
		c-0.3-0.1-0.8-0.3-1-0.3s-0.6,0.1-0.9,0.3c-0.3,0.2-0.5,0.5-0.6,0.8c-0.1,0.5-0.3,1.1-0.3,1.7v4.5
		C148,105.4,146.6,105.4,146.6,105.4z"/>
	<path class="st5" d="M157.7,104.3c-0.6,0.5-1.1,0.8-1.5,0.9c-0.5,0.1-1.1,0.3-1.7,0.3c-0.9,0-1.6-0.3-2.1-0.8
		c-0.5-0.4-0.8-1-0.8-1.8c0-0.5,0.1-0.8,0.3-1.2c0.1-0.3,0.5-0.6,0.8-0.9c0.3-0.1,0.6-0.3,1-0.5c0.3,0,0.8-0.2,1.4-0.2
		c1.2-0.1,2.1-0.3,2.6-0.4c0-0.2,0-0.3,0-0.5c0-0.6-0.2-1-0.5-1.2c-0.3-0.3-0.9-0.5-1.6-0.5s-1.2,0.2-1.5,0.3
		c-0.3,0.1-0.6,0.6-0.8,1.2l-1.3,0c0.2-0.6,0.3-1,0.6-1.5c0.3-0.3,0.8-0.6,1.4-0.9c0.6-0.2,1.2-0.3,1.9-0.3s1.4,0.2,1.8,0.3
		c0.4,0.1,0.8,0.4,1,0.6c0.2,0.3,0.3,0.6,0.5,1c0,0.3,0,0.8,0,1.4v1.9c0,1.4,0,2.3,0.1,2.6c0.1,0.3,0.1,0.8,0.3,1h-1.5
		C157.9,105,157.7,104.8,157.7,104.3z M157.5,101.1c-0.6,0.2-1.3,0.5-2.4,0.6c-0.6,0.1-1,0.1-1.2,0.3c-0.3,0.2-0.5,0.3-0.6,0.5
		s-0.1,0.5-0.1,0.8c0,0.5,0.1,0.8,0.4,0.9c0.3,0.2,0.8,0.5,1.4,0.5s1-0.2,1.5-0.3c0.5-0.3,0.8-0.6,0.9-1c0.1-0.3,0.3-0.8,0.3-1.5
		L157.5,101.1L157.5,101.1z"/>
	<path class="st5" d="M164.5,104.1l0.1,1.4c-0.5,0.1-0.8,0.1-1.1,0.1c-0.6,0-0.9-0.1-1.2-0.3c-0.3-0.2-0.5-0.5-0.6-0.6
		s-0.1-0.9-0.1-1.6V98h-1.1v-1.2h1.1v-2.1l1.5-0.9v3h1.5V98h-1.5v5c0,0.5,0,0.8,0.1,0.8c0,0.2,0.1,0.2,0.3,0.3
		c0.2,0,0.3,0.1,0.5,0.1C164,104.1,164.1,104.1,164.5,104.1z"/>
	<path class="st5" d="M171.6,102.6l1.5,0.2c-0.3,0.9-0.6,1.5-1.4,2.1c-0.6,0.5-1.5,0.8-2.4,0.8c-1.2,0-2.3-0.4-3-1.2s-1-1.8-1-3.3
		s0.3-2.5,1-3.3s1.6-1.2,2.9-1.2s2.1,0.5,2.9,1.2s1,1.8,1,3.3c0,0.2,0,0.2,0,0.5h-6.3c0,0.9,0.3,1.6,0.8,2.1c0.4,0.5,1,0.8,1.8,0.8
		c0.6,0,1.1-0.2,1.4-0.5C171.2,103.7,171.5,103.3,171.6,102.6z M167,100.3h4.8c0-0.8-0.3-1.2-0.6-1.6c-0.5-0.6-1.1-0.9-1.8-0.9
		c-0.6,0-1.2,0.2-1.6,0.6C167.3,98.9,167,99.5,167,100.3z"/>
	<path class="st5" d="M180.5,105.4v-1.1c-0.6,0.9-1.4,1.2-2.4,1.2c-0.8,0-1.4-0.2-2-0.6c-0.6-0.3-1-0.9-1.4-1.5
		c-0.3-0.6-0.4-1.5-0.4-2.3c0-0.9,0.1-1.6,0.4-2.3c0.3-0.8,0.8-1.2,1.4-1.6c0.6-0.3,1.2-0.6,2-0.6c0.4,0,0.9,0.1,1.4,0.3
		c0.4,0.2,0.8,0.5,1,0.9v-4.2h1.5v11.8L180.5,105.4L180.5,105.4z M176,101.1c0,1.1,0.3,2,0.8,2.4c0.5,0.6,1,0.8,1.6,0.8
		s1.2-0.3,1.6-0.8c0.5-0.5,0.6-1.3,0.6-2.4c0-1.2-0.1-2.1-0.8-2.5c-0.6-0.4-1-0.8-1.6-0.8s-1.2,0.3-1.6,0.8
		C176.1,99.2,176,100,176,101.1z"/>
	<path class="st5" d="M289,101.1c0-1.6,0.5-2.7,1.3-3.4c0.8-0.6,1.7-0.9,2.7-0.9c1.2,0,2.1,0.5,2.8,1.2s1.1,1.8,1.1,3.1
		c0,1.1-0.2,2-0.5,2.6s-0.8,1-1.5,1.5c-0.8,0.4-1.4,0.4-2.1,0.4c-1.2,0-2.1-0.4-2.8-1.2C289.3,103.7,289,102.5,289,101.1z
		 M290.5,101.1c0,1.1,0.3,2,0.8,2.4c0.5,0.6,1,0.8,1.8,0.8s1.3-0.3,1.8-0.8c0.5-0.6,0.8-1.3,0.8-2.5c0-1-0.3-1.8-0.8-2.4
		s-1-0.8-1.8-0.8s-1.3,0.3-1.8,0.8C290.6,99.2,290.5,100,290.5,101.1z"/>
	<path class="st5" d="M298.5,105.4v-8.6h1.4V98c0.6-0.9,1.5-1.4,2.7-1.4c0.5,0,1.1,0.2,1.4,0.3c0.5,0.1,0.8,0.4,0.9,0.8
		c0.2,0.3,0.3,0.6,0.5,1c0,0.3,0.2,0.8,0.2,1.4v5.3H304v-5.3c0-0.6,0-1-0.2-1.4c-0.1-0.3-0.3-0.4-0.6-0.8c-0.3-0.3-0.6-0.3-1-0.3
		c-0.6,0-1.2,0.1-1.7,0.6s-0.6,1.2-0.6,2.3v4.7h-1.4L298.5,105.4L298.5,105.4z"/>
	<path class="st5" d="M312.5,105.4V93.5h4.3c0.9,0,1.7,0.1,2.1,0.3c0.6,0.3,0.9,0.6,1.4,1.1c0.3,0.4,0.4,1,0.4,1.5
		c0,0.4-0.1,1-0.4,1.3s-0.8,0.8-1.2,1c0.8,0.1,1.2,0.6,1.6,1c0.5,0.4,0.6,1,0.6,1.8c0,0.6-0.2,1-0.3,1.5c-0.1,0.5-0.5,0.9-0.9,1
		c-0.3,0.3-0.8,0.5-1.3,0.6c-0.5,0.2-1.2,0.2-2,0.2h-4.3L312.5,105.4L312.5,105.4z M314,98.6h2.5c0.8,0,1.2,0,1.5-0.2
		c0.5-0.2,0.8-0.3,0.9-0.6c0.1-0.3,0.3-0.6,0.3-1.1s-0.2-0.8-0.3-1c-0.1-0.3-0.5-0.5-0.8-0.6s-0.9-0.1-1.8-0.1H314V98.6z M314,104h3
		c0.5,0,0.9,0,1,0c0.3,0,0.6-0.1,0.9-0.3c0.3-0.2,0.5-0.3,0.6-0.6c0.1-0.3,0.3-0.6,0.3-1.1s-0.1-0.8-0.3-1.2
		c-0.3-0.3-0.6-0.6-0.9-0.8c-0.3-0.2-0.9-0.2-1.8-0.2H314V104z"/>
	<path class="st5" d="M323.3,95.3v-1.7h1.5v1.7H323.3z M323.3,105.4v-8.6h1.5v8.6H323.3z"/>
	<path class="st5" d="M326.9,105.4v-8.6h1.3V98c0.6-0.9,1.5-1.4,2.7-1.4c0.5,0,1,0.2,1.3,0.3c0.5,0.1,0.8,0.4,0.9,0.8
		c0.1,0.3,0.3,0.6,0.5,1c0,0.3,0.1,0.8,0.1,1.4v5.3h-1.5v-5.3c0-0.6,0-1-0.1-1.4c-0.2-0.3-0.3-0.4-0.6-0.8c-0.3-0.3-0.6-0.3-1-0.3
		c-0.6,0-1.2,0.1-1.7,0.6c-0.4,0.5-0.6,1.2-0.6,2.3v4.7h-1.4v0.2H326.9z"/>
	<path class="st5" d="M335.9,106.1l1.3,0.1c0,0.5,0.2,0.8,0.5,0.9c0.3,0.3,0.9,0.5,1.5,0.5s1.2-0.2,1.5-0.5s0.6-0.6,0.8-1.2
		c0-0.3,0.1-0.9,0.1-1.8c-0.6,0.8-1.3,1.1-2.4,1.1c-1.2,0-2.1-0.5-2.7-1.2c-0.6-0.9-0.9-1.8-0.9-3c0-0.8,0.2-1.5,0.5-2.3
		s0.8-1.2,1.4-1.6c0.6-0.3,1.2-0.6,1.9-0.6c1.1,0,1.8,0.5,2.6,1.2v-1.1h1.3v7.4c0,1.4-0.1,2.3-0.4,2.9s-0.8,1-1.4,1.3
		s-1.4,0.5-2.1,0.5c-1,0-1.8-0.3-2.4-0.8C336.2,107.8,335.9,107,335.9,106.1z M337.1,101c0,1,0.2,2,0.6,2.4s1,0.8,1.6,0.8
		s1.2-0.3,1.7-0.8c0.5-0.4,0.8-1.3,0.8-2.4s-0.3-1.8-0.8-2.4s-1-0.8-1.7-0.8c-0.6,0-1.2,0.3-1.6,0.8C337.3,99.2,337.1,100,337.1,101
		z"/>
	<path class="st5" d="M352.7,108.8c-0.8-1-1.5-2.3-2.1-3.6c-0.6-1.4-0.9-2.7-0.9-4.2c0-1.3,0.1-2.5,0.6-3.6c0.5-1.3,1.2-2.7,2.3-4.1
		h1c-0.6,1.1-1,2-1.3,2.4c-0.3,0.8-0.6,1.5-0.8,2.3c-0.3,1.1-0.3,2-0.3,3c0,2.6,0.8,5.1,2.4,7.8
		C353.6,108.8,352.7,108.8,352.7,108.8z"/>
</g>
<g class="st2">
	<path class="st6" d="M355.1,102.6l1.4-0.1c0.1,0.6,0.3,1.2,0.8,1.4c0.3,0.3,0.8,0.4,1.4,0.4c0.4,0,0.9-0.1,1.2-0.3
		c0.3-0.2,0.6-0.5,0.8-0.8c0.2-0.3,0.5-0.8,0.6-1.4s0.1-1.2,0.1-1.8c0,0,0-0.2,0-0.3c-0.3,0.5-0.8,0.9-1.2,1
		c-0.5,0.2-1.1,0.5-1.7,0.5c-1,0-1.8-0.3-2.5-1s-1-1.7-1-2.8c0-1.2,0.3-2.1,1-2.9s1.6-1.1,2.7-1.1c0.8,0,1.5,0.2,2.1,0.6
		s1,1.1,1.5,1.8c0.3,0.8,0.5,1.8,0.5,3.3s-0.2,2.7-0.5,3.6s-0.8,1.5-1.5,2.1c-0.6,0.4-1.3,0.8-2.3,0.8s-1.7-0.3-2.3-0.8
		C355.5,104.5,355.3,103.5,355.1,102.6z M361.1,97.4c0-0.9-0.1-1.5-0.6-1.9c-0.4-0.5-0.9-0.8-1.7-0.8c-0.6,0-1.2,0.3-1.6,0.8
		c-0.5,0.4-0.8,1.2-0.8,2.1c0,0.8,0.3,1.3,0.8,1.8s1,0.8,1.6,0.8s1.2-0.3,1.7-0.8C360.8,98.9,361.1,98.3,361.1,97.4z"/>
	<path class="st6" d="M366.3,99c-0.6-0.2-1-0.6-1.3-0.9c-0.3-0.4-0.5-0.9-0.5-1.5c0-0.9,0.3-1.6,0.9-2.1s1.5-0.9,2.4-0.9
		c1.1,0,1.8,0.3,2.6,0.9s0.9,1.3,0.9,2.3c0,0.6-0.1,1-0.5,1.5c-0.3,0.5-0.8,0.8-1.3,0.9c0.8,0.3,1.2,0.6,1.6,1.2
		c0.5,0.6,0.6,1.2,0.6,2c0,1-0.3,1.8-1.1,2.5s-1.6,1.1-2.8,1.1s-2.1-0.3-2.8-1.1s-1.1-1.5-1.1-2.5c0-0.8,0.2-1.4,0.6-2
		C365,99.5,365.6,99.2,366.3,99z M365.6,102c0,0.5,0.2,0.8,0.3,1.2s0.4,0.8,0.9,0.9c0.5,0.2,0.8,0.3,1.2,0.3c0.8,0,1.2-0.2,1.7-0.6
		c0.4-0.5,0.8-1,0.8-1.6c0-0.8-0.3-1.2-0.8-1.8c-0.5-0.4-1.1-0.8-1.8-0.8s-1.2,0.2-1.6,0.8C365.8,100.7,365.6,101.3,365.6,102z
		 M366,96.5c0,0.6,0.2,1,0.6,1.4c0.3,0.3,0.9,0.6,1.3,0.6c0.6,0,1.1-0.2,1.4-0.6c0.3-0.3,0.6-0.8,0.6-1.4s-0.1-1-0.6-1.4
		c-0.3-0.3-0.8-0.6-1.4-0.6s-1,0.2-1.3,0.6C366.2,95.6,366,96,366,96.5z"/>
	<path class="st6" d="M378.2,105.4v-8.6h1.3v1.4c0.3-0.6,0.6-1,0.9-1.2s0.6-0.3,0.9-0.3c0.5,0,1.1,0.1,1.5,0.5l-0.4,1.3
		c-0.3-0.1-0.8-0.3-1.1-0.3c-0.3,0-0.6,0.1-0.9,0.3c-0.3,0.2-0.5,0.5-0.6,0.8c-0.1,0.5-0.3,1.1-0.3,1.7v4.5
		C379.5,105.4,378.2,105.4,378.2,105.4z"/>
	<path class="st6" d="M389.6,102.6l1.5,0.2c-0.3,0.9-0.6,1.5-1.3,2.1c-0.6,0.5-1.5,0.8-2.4,0.8c-1.2,0-2.3-0.4-3-1.2s-1-1.8-1-3.3
		s0.3-2.5,1-3.3s1.7-1.2,2.9-1.2s2.1,0.5,2.9,1.2s1,1.8,1,3.3c0,0.2,0,0.2,0,0.5h-6.3c0,0.9,0.3,1.6,0.8,2.1c0.4,0.5,1,0.8,1.8,0.8
		c0.6,0,1.1-0.2,1.4-0.5C389,103.7,389.3,103.3,389.6,102.6z M384.8,100.3h4.8c0-0.8-0.3-1.2-0.6-1.6c-0.5-0.6-1.1-0.9-1.8-0.9
		c-0.6,0-1.2,0.2-1.6,0.6C385.1,98.8,384.8,99.5,384.8,100.3z"/>
	<path class="st6" d="M395.3,105.4l-3.3-8.6h1.5l1.8,5.1c0.1,0.6,0.4,1.2,0.6,1.6c0.1-0.4,0.3-1,0.6-1.6l1.9-5.3h1.5l-3.3,8.5
		L395.3,105.4L395.3,105.4z"/>
	<path class="st6" d="M401.2,95.3v-1.7h1.5v1.7H401.2z M401.2,105.4v-8.6h1.5v8.6H401.2z"/>
	<path class="st6" d="M410.6,102.6l1.5,0.2c-0.3,0.9-0.6,1.5-1.3,2.1c-0.6,0.5-1.5,0.8-2.4,0.8c-1.2,0-2.3-0.4-3-1.2s-1-1.8-1-3.3
		s0.3-2.5,1-3.3s1.7-1.2,2.9-1.2s2.1,0.5,2.9,1.2s1,1.8,1,3.3c0,0.2,0,0.2,0,0.5h-6.3c0,0.9,0.3,1.6,0.8,2.1c0.4,0.5,1,0.8,1.8,0.8
		c0.6,0,1.1-0.2,1.4-0.5C410.2,103.7,410.4,103.3,410.6,102.6z M405.8,100.3h4.8c0-0.8-0.3-1.2-0.6-1.6c-0.5-0.6-1.1-0.9-1.8-0.9
		c-0.6,0-1.2,0.2-1.6,0.6C406.1,98.8,405.9,99.5,405.8,100.3z"/>
	<path class="st6" d="M415.6,105.4l-2.6-8.6h1.5l1.3,5l0.5,1.8c0-0.1,0.1-0.8,0.4-1.8l1.4-5h1.5l1.4,5l0.4,1.6l0.5-1.6l1.5-5h1.3
		l-2.7,8.6h-1.5l-1.4-5.1l-0.3-1.5l-1.8,6.6H415.6z"/>
	<path class="st6" d="M425.3,102.8l1.5-0.3c0.1,0.6,0.3,1,0.6,1.4c0.3,0.3,0.9,0.4,1.5,0.4s1.2-0.1,1.5-0.4s0.4-0.6,0.4-0.9
		s-0.1-0.6-0.4-0.8c-0.2-0.2-0.8-0.3-1.5-0.5c-1.1-0.3-1.8-0.5-2.3-0.8c-0.5-0.1-0.8-0.5-0.9-0.8s-0.3-0.8-0.3-1.2s0.1-0.8,0.3-1
		s0.4-0.6,0.8-0.8s0.6-0.3,0.9-0.5c0.4-0.2,0.8-0.2,1.2-0.2c0.6,0,1.2,0.2,1.8,0.3c0.4,0.1,0.9,0.4,1,0.8c0.3,0.3,0.5,0.8,0.5,1.3
		l-1.4,0.2c0-0.5-0.3-0.8-0.6-1.1c-0.3-0.3-0.8-0.3-1.3-0.3s-1.2,0.1-1.3,0.3c-0.3,0.2-0.5,0.5-0.5,0.8c0,0.2,0,0.3,0.2,0.5
		c0.2,0.1,0.3,0.3,0.6,0.4c0.2,0,0.6,0.2,1.4,0.3c1.1,0.3,1.8,0.4,2.1,0.6c0.4,0.2,0.8,0.5,0.9,0.8c0.3,0.3,0.3,0.8,0.3,1.2
		s-0.2,0.9-0.4,1.4c-0.3,0.4-0.8,0.8-1.2,1c-0.6,0.3-1.2,0.3-1.8,0.3c-1.1,0-1.9-0.3-2.6-0.8C425.8,104.5,425.4,103.7,425.3,102.8z"
		/>
</g>
<g class="st2">
	<path class="st5" d="M435.1,108.8H434c1.7-2.5,2.4-5.1,2.4-7.8c0-1-0.2-2-0.3-3c-0.1-0.8-0.4-1.6-0.8-2.3c-0.1-0.5-0.6-1.4-1.3-2.4
		h1.1c1.1,1.3,1.8,2.7,2.3,4c0.4,1.2,0.6,2.4,0.6,3.6c0,1.5-0.3,2.9-0.9,4.2C436.4,106.7,435.8,107.9,435.1,108.8z"/>
</g>
<polygon class="st7" points="199.8,92.9 201.7,97.7 206.8,98 202.8,101.3 204.2,106.3 199.8,103.4 195.5,106.3 196.8,101.3 
	192.8,98 197.9,97.7 "/>
<polygon class="st7" points="216.5,92.9 218.5,97.7 223.5,98 219.5,101.3 220.8,106.3 216.5,103.4 212.2,106.3 213.5,101.3 
	209.6,98 214.7,97.7 "/>
<polygon class="st7" points="233.8,92.9 235.7,97.7 240.8,98 236.8,101.3 238.1,106.3 233.8,103.4 229.4,106.3 230.8,101.3 
	226.8,98 232,97.7 "/>
<polygon class="st7" points="250.3,92.9 252,97.7 257.3,98 253.3,101.3 254.6,106.3 250.3,103.4 245.9,106.3 247.3,101.3 243.2,98 
	248.5,97.7 "/>
<polygon class="st8" points="266.8,92.9 268.5,97.7 273.7,98 269.8,101.3 271.1,106.3 266.8,103.4 262.4,106.3 263.8,101.3 
	259.7,98 264.8,97.7 "/>
<path class="st9" d="M9.8,37.1c-8.5,15.8,19,13.8,10,0H9.8z M10.7,38.2h8.1C26,49.3,3.9,50.9,10.7,38.2z"/>
<path class="st9" d="M14,47.8v4.8c-1.5,0.1-3,0.9-4,1.9c3.1,0.1,6.3,0.1,9.5,0.1c-1.1-1.2-2.6-1.8-4.2-2v-4.9
	C14.8,47.6,14.5,47.6,14,47.8z"/>
<polygon class="st9" points="8,41 21.2,41 21,44 19.1,46.4 16.3,47.6 13.3,47.9 11,47.1 9.2,45.7 8,43.8 "/>
<g>
	<path class="st1" d="M7.9,130v-11.9h5.2c1.1,0,1.8,0.1,2.4,0.3c0.6,0.2,1,0.6,1.3,1.2s0.5,1.2,0.5,1.8c0,0.9-0.3,1.5-0.8,2.1
		c-0.6,0.6-1.3,0.9-2.5,1c0.5,0.2,0.8,0.5,0.9,0.6c0.4,0.5,0.9,0.9,1.3,1.5l2.1,3.1h-1.9l-1.5-2.4c-0.5-0.8-0.9-1.2-1.2-1.6
		c-0.3-0.5-0.6-0.6-0.8-0.8c-0.5,0-0.6-0.1-0.9-0.1c-0.2,0-0.4,0-0.9,0H9.4v5.3L7.9,130L7.9,130z M9.4,123.4h3.3
		c0.8,0,1.2,0,1.7-0.2s0.8-0.5,0.9-0.8s0.3-0.8,0.3-1c0-0.6-0.2-1-0.6-1.4c-0.4-0.3-1-0.6-1.9-0.6H9.4V123.4z"/>
	<path class="st1" d="M25.4,127.3l1.5,0.1c-0.3,0.9-0.6,1.5-1.4,2.1s-1.5,0.8-2.4,0.8c-1.2,0-2.3-0.5-3-1.2s-1.1-1.8-1.1-3.3
		s0.3-2.5,1.1-3.3s1.6-1.2,2.8-1.2s2.1,0.5,2.8,1.2s1.1,1.8,1.1,3.3c0,0.1,0,0.1,0,0.5h-6.5c0,0.9,0.3,1.7,0.8,2.1
		c0.5,0.5,1,0.8,1.8,0.8c0.6,0,1.1-0.1,1.3-0.4C24.6,128.3,25.1,127.9,25.4,127.3z M20.6,124.9h4.8c0-0.8-0.3-1.2-0.6-1.7
		c-0.4-0.6-1.1-0.9-1.8-0.9c-0.6,0-1.2,0.2-1.7,0.6C20.9,123.5,20.6,124.1,20.6,124.9z"/>
	<path class="st1" d="M34.3,130v-1.1c-0.6,0.9-1.3,1.2-2.4,1.2c-0.8,0-1.3-0.1-1.9-0.6s-1.1-0.9-1.4-1.5c-0.3-0.6-0.4-1.5-0.4-2.3
		c0-0.9,0.2-1.7,0.4-2.3c0.3-0.6,0.8-1.2,1.4-1.7c0.6-0.3,1.2-0.6,1.9-0.6c0.5,0,0.9,0.1,1.3,0.3c0.5,0.2,0.8,0.5,1.1,0.9v-4.2h1.5
		V130L34.3,130L34.3,130z M29.6,125.8c0,1,0.3,2,0.8,2.4c0.5,0.6,1.1,0.8,1.7,0.8s1.2-0.3,1.7-0.8c0.4-0.4,0.6-1.3,0.6-2.4
		c0-1.2-0.3-2.1-0.8-2.5s-1.1-0.8-1.7-0.8s-1.2,0.3-1.6,0.8C29.9,123.8,29.6,124.5,29.6,125.8z"/>
	<path class="st1" d="M44,130l-2.6-8.6h1.5l1.4,5l0.4,1.8c0-0.1,0.2-0.8,0.5-1.8l1.3-5H48l1.4,5l0.5,1.7l0.4-1.7l1.5-5h1.4l-2.7,8.6
		H49l-1.3-5.1l-0.3-1.5l-1.8,6.6H44z"/>
	<path class="st1" d="M54.4,119.9v-1.6h1.5v1.6H54.4z M54.4,130v-8.6h1.5v8.6H54.4z"/>
	<path class="st1" d="M57.9,130v-8.6h1.4v1.2c0.6-0.9,1.5-1.3,2.7-1.3c0.4,0,1.1,0.1,1.4,0.3c0.5,0.2,0.8,0.5,0.9,0.8
		s0.3,0.6,0.4,1.1c0,0.3,0.2,0.8,0.2,1.3v5.3h-1.5v-5.3c0-0.6,0-1-0.2-1.3c-0.1-0.3-0.3-0.6-0.6-0.8c-0.3-0.2-0.6-0.3-1.1-0.3
		c-0.6,0-1.2,0.2-1.6,0.6s-0.6,1.2-0.6,2.3v4.6L57.9,130L57.9,130z"/>
	<path class="st1" d="M73.1,127.3l1.5,0.1c-0.3,0.9-0.6,1.5-1.4,2.1s-1.5,0.8-2.4,0.8c-1.2,0-2.3-0.5-3-1.2s-1.1-1.8-1.1-3.3
		s0.3-2.5,1.1-3.3s1.6-1.2,2.8-1.2c1.2,0,2.1,0.5,2.8,1.2s1.1,1.8,1.1,3.3c0,0.1,0,0.1,0,0.5h-6.4c0,0.9,0.3,1.7,0.8,2.1
		c0.4,0.5,1.1,0.8,1.8,0.8c0.6,0,1.1-0.1,1.3-0.4C72.4,128.3,72.8,127.9,73.1,127.3z M68.3,124.9h4.8c0-0.8-0.3-1.2-0.6-1.7
		c-0.4-0.6-1.1-0.9-1.8-0.9c-0.6,0-1.2,0.2-1.6,0.6C68.6,123.5,68.3,124.1,68.3,124.9z"/>
	<path class="st1" d="M75.8,127.4l1.5-0.3c0.1,0.6,0.3,1,0.6,1.4c0.3,0.3,0.9,0.4,1.5,0.4s1.2-0.1,1.5-0.4c0.3-0.3,0.5-0.6,0.5-0.9
		s-0.2-0.6-0.5-0.8c-0.1-0.1-0.8-0.3-1.5-0.4c-1-0.3-1.8-0.5-2.3-0.8c-0.4-0.2-0.8-0.5-0.9-0.8c-0.2-0.3-0.3-0.8-0.3-1.2
		c0-0.4,0.2-0.8,0.3-1c0.1-0.3,0.4-0.6,0.8-0.8c0.3-0.2,0.6-0.3,0.9-0.5c0.5-0.1,0.8-0.1,1.2-0.1c0.6,0,1.2,0.1,1.8,0.3
		c0.5,0.2,0.9,0.5,1.1,0.8c0.3,0.3,0.4,0.8,0.4,1.3l-1.3,0.2c0-0.5-0.3-0.8-0.6-1s-0.8-0.3-1.3-0.3c-0.6,0-1.2,0.2-1.5,0.3
		c-0.3,0.1-0.5,0.5-0.5,0.8c0,0.1,0,0.3,0.2,0.5s0.3,0.3,0.6,0.5c0.2,0,0.6,0.1,1.4,0.3c1.1,0.3,1.8,0.5,2.1,0.6
		c0.4,0.2,0.8,0.5,0.9,0.8s0.3,0.8,0.3,1.2c0,0.4-0.2,0.9-0.4,1.3c-0.3,0.5-0.8,0.8-1.2,1.1c-0.6,0.3-1.2,0.3-1.8,0.3
		c-1.1,0-2-0.3-2.6-0.8C76.4,129,75.9,128.3,75.8,127.4z"/>
	<path class="st1" d="M6.5,132.4v-1.2h77.1v1.2H6.5z"/>
</g>
<g>
	<path class="st1" d="M123.4,129.8l-3.2-11.8h1.7l1.8,7.8c0.2,0.8,0.3,1.7,0.5,2.4c0.3-1.2,0.4-2,0.6-2.3l2.3-8h2l1.6,6
		c0.5,1.5,0.8,2.9,0.9,4.2c0.1-0.8,0.3-1.7,0.6-2.6l1.8-7.6h1.5l-3.3,11.8h-1.5l-2.5-9c-0.2-0.8-0.3-1.2-0.3-1.3
		c-0.1,0.6-0.3,1-0.3,1.3l-2.6,9h-1.6V129.8z"/>
	<path class="st1" d="M136.7,129.8V118h1.5v4.2c0.8-0.8,1.5-1.2,2.5-1.2c0.6,0,1.2,0.1,1.6,0.3c0.5,0.3,0.8,0.6,1.1,1.1
		c0.1,0.4,0.3,1,0.3,1.9v5.4h-1.5v-5.4c0-0.8-0.1-1.2-0.4-1.6c-0.3-0.3-0.8-0.5-1.4-0.5c-0.5,0-0.9,0.2-1.2,0.3
		c-0.4,0.1-0.6,0.5-0.8,0.9c-0.1,0.5-0.3,0.9-0.3,1.7v4.7H136.7L136.7,129.8L136.7,129.8z"/>
	<path class="st1" d="M145.9,119.6V118h1.5v1.7L145.9,119.6L145.9,119.6z M145.9,129.8v-8.5h1.5v8.5H145.9z"/>
	<path class="st1" d="M152.8,128.5l0.1,1.3c-0.4,0.2-0.8,0.2-1,0.2c-0.6,0-0.9-0.2-1.2-0.3s-0.4-0.4-0.6-0.6
		c-0.1-0.1-0.1-0.9-0.1-1.6v-5h-1v-1.2h1v-2.1l1.5-0.9v3h1.5v1.2h-1.5v5c0,0.5,0,0.8,0.1,0.8c0,0.1,0.2,0.1,0.3,0.3
		c0.1,0,0.3,0.1,0.4,0.1C152.1,128.6,152.5,128.5,152.8,128.5z"/>
	<path class="st1" d="M160,127l1.5,0.2c-0.3,0.9-0.6,1.5-1.4,2.1c-0.8,0.6-1.5,0.8-2.4,0.8c-1.2,0-2.3-0.5-3-1.2s-1.1-1.8-1.1-3.3
		s0.3-2.5,1.1-3.3s1.6-1.2,2.8-1.2s2.1,0.5,2.9,1.2s1.1,1.8,1.1,3.3c0,0.2,0,0.2,0,0.5H155c0,0.9,0.3,1.6,0.8,2.1
		c0.5,0.4,1,0.8,1.8,0.8c0.6,0,1.1-0.2,1.4-0.5C159.2,128,159.8,127.7,160,127z M155.1,124.7h4.8c0-0.8-0.3-1.2-0.6-1.7
		c-0.4-0.6-1.1-0.9-1.8-0.9c-0.6,0-1.2,0.1-1.6,0.6C155.5,123.4,155.3,124,155.1,124.7z"/>
	<path class="st1" d="M169.4,129.8l-2.5-8.5h1.5l1.4,5l0.4,1.8c0-0.1,0.1-0.8,0.4-1.8l1.4-5h1.5l1.4,5l0.5,1.7l0.4-1.7l1.5-5h1.4
		l-2.7,8.5h-1.5l-1.3-5.1l-0.3-1.5l-1.8,6.6H169.4z"/>
	<path class="st1" d="M179.8,119.6V118h1.5v1.7L179.8,119.6L179.8,119.6z M179.8,129.8v-8.5h1.5v8.5H179.8z"/>
	<path class="st1" d="M183.5,129.8v-8.5h1.4v1.2c0.6-0.9,1.5-1.3,2.7-1.3c0.5,0,1.1,0.1,1.4,0.3c0.4,0.2,0.8,0.5,0.9,0.8
		c0.2,0.3,0.3,0.6,0.5,1.1c0,0.3,0.1,0.8,0.1,1.3v5.2H189v-5.2c0-0.6,0-1-0.1-1.3c-0.2-0.3-0.3-0.6-0.6-0.8
		c-0.3-0.2-0.6-0.3-1.1-0.3c-0.6,0-1.2,0.2-1.6,0.6s-0.6,1.2-0.6,2.3v4.6H183.5L183.5,129.8z"/>
	<path class="st1" d="M198.5,127l1.5,0.2c-0.3,0.9-0.6,1.5-1.3,2.1c-0.8,0.6-1.5,0.8-2.4,0.8c-1.2,0-2.3-0.5-3-1.2s-1-1.8-1-3.3
		s0.3-2.5,1-3.3s1.7-1.2,2.8-1.2c1.2,0,2.1,0.5,2.8,1.2s1,1.8,1,3.3c0,0.2,0,0.2,0,0.5h-6.4c0,0.9,0.3,1.6,0.8,2.1
		c0.4,0.4,1.1,0.8,1.8,0.8c0.6,0,1-0.2,1.3-0.5C197.7,128,198.2,127.7,198.5,127z M193.7,124.7h4.8c0-0.8-0.3-1.2-0.6-1.7
		c-0.4-0.6-1.1-0.9-1.8-0.9c-0.6,0-1.2,0.1-1.6,0.6C194,123.4,193.7,124,193.7,124.7z"/>
	<path class="st1" d="M201.2,127.3l1.5-0.3c0.1,0.6,0.3,1,0.6,1.3s0.9,0.5,1.5,0.5s1.2-0.2,1.5-0.5s0.5-0.6,0.5-0.9
		s-0.2-0.6-0.5-0.8c-0.1-0.1-0.8-0.3-1.5-0.5c-1-0.3-1.8-0.5-2.3-0.8c-0.4-0.2-0.8-0.5-0.9-0.8c-0.2-0.3-0.3-0.8-0.3-1.2
		s0.2-0.8,0.3-1s0.4-0.6,0.8-0.8c0.3-0.2,0.6-0.3,0.9-0.5c0.5-0.1,0.8-0.1,1.2-0.1c0.6,0,1.2,0.1,1.8,0.3c0.5,0.2,0.9,0.5,1.1,0.8
		c0.3,0.3,0.4,0.8,0.4,1.4l-1.3,0.1c0-0.4-0.3-0.8-0.6-1c-0.3-0.3-0.8-0.3-1.3-0.3c-0.6,0-1.2,0.2-1.5,0.3c-0.3,0.1-0.5,0.4-0.5,0.8
		c0,0.1,0,0.3,0.2,0.4c0.2,0.2,0.3,0.3,0.6,0.5c0.2,0,0.6,0.1,1.3,0.3c1.1,0.3,1.8,0.5,2.1,0.6c0.5,0.1,0.8,0.5,0.9,0.8
		s0.3,0.8,0.3,1.2s-0.2,0.9-0.5,1.3c-0.3,0.5-0.8,0.8-1.2,1.1c-0.6,0.3-1.2,0.3-1.8,0.3c-1,0-2-0.3-2.5-0.8
		C201.8,128.8,201.3,128.1,201.2,127.3z"/>
	<path class="st1" d="M120,132v-1.2h89v1.2H120z"/>
</g>
<g class="st2">
	<path class="st1" d="M245.5,129.4l-3.2-11.9h1.7l1.8,7.8c0.2,0.8,0.3,1.7,0.5,2.4c0.3-1.2,0.4-2,0.6-2.3l2.3-8h2l1.7,6
		c0.4,1.5,0.8,2.9,0.9,4.2c0.2-0.8,0.3-1.7,0.6-2.6l1.8-7.6h1.5l-3.3,11.9h-1.5l-2.6-9c-0.1-0.8-0.3-1.2-0.3-1.4
		c-0.2,0.6-0.3,1-0.3,1.4l-2.6,9h-1.6V129.4z"/>
	<path class="st1" d="M242.2,131.6v-1.2H257v1.2H242.2z"/>
</g>
<g class="st2">
	<path class="st1" d="M263.8,128.3c-0.6,0.5-1,0.8-1.5,0.9c-0.5,0.1-1,0.3-1.7,0.3c-0.9,0-1.6-0.3-2.1-0.8c-0.5-0.4-0.8-1-0.8-1.8
		c0-0.5,0.2-0.8,0.3-1.2c0.2-0.3,0.5-0.6,0.8-0.9c0.3-0.1,0.6-0.3,1-0.5c0.3,0,0.8-0.2,1.4-0.2c1.2-0.1,2.1-0.3,2.5-0.4
		c0-0.2,0-0.3,0-0.5c0-0.6-0.1-1-0.4-1.2c-0.3-0.3-0.9-0.5-1.7-0.5s-1.2,0.2-1.5,0.3c-0.3,0.3-0.6,0.6-0.8,1.2H258
		c0.1-0.6,0.3-1,0.6-1.5c0.3-0.3,0.8-0.6,1.3-0.9c0.6-0.2,1.2-0.3,2-0.3s1.4,0.2,1.8,0.3c0.5,0.1,0.8,0.4,1.1,0.6
		c0.1,0.3,0.3,0.6,0.4,1c0,0.3,0,0.8,0,1.4v1.9c0,1.4,0,2.3,0.2,2.6c0,0.3,0.2,0.8,0.3,1h-1.5C263.9,129,263.8,128.6,263.8,128.3z
		 M263.6,125c-0.6,0.1-1.3,0.5-2.4,0.6c-0.6,0.1-1,0.1-1.2,0.3c-0.3,0.2-0.4,0.3-0.6,0.5c-0.2,0.1-0.2,0.4-0.2,0.8s0.2,0.8,0.5,0.9
		c0.3,0.3,0.8,0.5,1.4,0.5s1-0.2,1.5-0.3c0.4-0.1,0.8-0.6,0.9-1c0.1-0.3,0.3-0.8,0.3-1.5L263.6,125L263.6,125z"/>
	<path class="st1" d="M266.8,126.8l1.5-0.3c0.2,0.6,0.3,1,0.6,1.4c0.3,0.3,0.9,0.4,1.5,0.4s1.2-0.1,1.5-0.4c0.3-0.3,0.5-0.6,0.5-0.9
		s-0.1-0.6-0.5-0.8c-0.1-0.2-0.8-0.3-1.5-0.5c-1-0.3-1.8-0.5-2.3-0.8c-0.4-0.1-0.8-0.5-0.9-0.8s-0.3-0.8-0.3-1.2s0.1-0.8,0.3-1
		s0.5-0.6,0.8-0.8s0.6-0.3,0.9-0.5s0.8-0.2,1.2-0.2c0.6,0,1.2,0.2,1.8,0.3c0.5,0.1,0.9,0.4,1.2,0.8c0.3,0.3,0.5,0.8,0.5,1.3
		l-1.3,0.2c0-0.5-0.3-0.8-0.6-1.1c-0.3-0.3-0.8-0.3-1.4-0.3s-1.2,0.1-1.5,0.3c-0.3,0.2-0.4,0.5-0.4,0.8c0,0.2,0,0.3,0.1,0.5
		c0.2,0.1,0.3,0.3,0.6,0.4c0.1,0,0.6,0.2,1.3,0.3c1.1,0.3,1.8,0.4,2.1,0.6c0.5,0.2,0.8,0.5,0.9,0.8c0.3,0.3,0.3,0.8,0.3,1.2
		s-0.2,0.9-0.5,1.4c-0.3,0.4-0.8,0.8-1.2,1c-0.6,0.3-1.2,0.3-1.8,0.3c-1,0-2-0.3-2.5-0.8C267.3,128.3,266.9,127.7,266.8,126.8z"/>
	<path class="st1" d="M275.6,129.4v-11.9h1.5v4.2c0.8-0.8,1.5-1.2,2.6-1.2c0.6,0,1.2,0.1,1.6,0.3c0.5,0.3,0.8,0.6,1,1
		c0.2,0.5,0.3,1,0.3,2v5.4h-1.5v-5.4c0-0.8-0.2-1.2-0.5-1.7c-0.3-0.3-0.8-0.4-1.4-0.4c-0.4,0-0.9,0.1-1.2,0.3
		c-0.5,0.2-0.6,0.5-0.8,0.9c-0.2,0.5-0.3,0.9-0.3,1.7v4.6h-1.5v0.2H275.6z"/>
	<path class="st1" d="M284.8,119.1v-1.6h1.5v1.6H284.8z M284.8,129.4v-8.6h1.5v8.6H284.8z"/>
	<path class="st1" d="M288.3,129.4v-8.6h1.4v1.2c0.6-0.9,1.5-1.4,2.7-1.4c0.4,0,1,0.2,1.3,0.3c0.5,0.1,0.8,0.4,0.9,0.8
		c0.1,0.3,0.3,0.6,0.4,1c0,0.3,0.2,0.8,0.2,1.4v5.3h-1.5v-5.3c0-0.6,0-1-0.2-1.4c-0.1-0.3-0.3-0.6-0.6-0.8c-0.3-0.1-0.6-0.3-1-0.3
		c-0.6,0-1.2,0.1-1.7,0.6s-0.6,1.2-0.6,2.3v4.7h-1.4L288.3,129.4L288.3,129.4z"/>
	<path class="st1" d="M297.3,130.1l1.4,0.1c0,0.5,0.1,0.8,0.5,0.9c0.3,0.3,0.9,0.5,1.5,0.5s1.2-0.1,1.5-0.5c0.3-0.3,0.6-0.6,0.8-1.2
		c0-0.3,0.1-0.9,0.1-1.8c-0.6,0.8-1.3,1.1-2.4,1.1c-1.2,0-2.1-0.5-2.7-1.2s-0.9-1.8-0.9-3c0-0.8,0.1-1.5,0.4-2.3s0.8-1.2,1.4-1.6
		c0.6-0.5,1.2-0.6,2-0.6c1,0,1.8,0.5,2.5,1.2v-1.1h1.3v7.4c0,1.4-0.1,2.3-0.5,2.9c-0.3,0.6-0.8,1-1.3,1.4c-0.6,0.3-1.3,0.4-2.1,0.4
		c-1.1,0-1.8-0.3-2.4-0.8C297.7,131.6,297.3,131,297.3,130.1z M298.5,124.9c0,1,0.2,1.9,0.6,2.4s1,0.8,1.6,0.8s1.2-0.3,1.7-0.8
		s0.8-1.4,0.8-2.4c0-1.1-0.3-1.8-0.8-2.4s-1-0.8-1.7-0.8c-0.6,0-1.2,0.3-1.6,0.8S298.5,123.8,298.5,124.9z"/>
	<path class="st1" d="M310,128l0.1,1.4c-0.4,0.1-0.8,0.1-1,0.1c-0.6,0-0.9-0.1-1.2-0.3c-0.3-0.2-0.4-0.5-0.6-0.6
		c-0.2-0.3-0.2-0.9-0.2-1.7v-5h-1v-1.2h1v-2.1l1.5-0.9v3h1.5v1.2h-1.5v5c0,0.5,0,0.8,0.2,0.8c0.1,0,0.1,0.2,0.3,0.3
		c0.1,0,0.3,0.1,0.5,0.1C309.5,128.1,309.7,128,310,128z"/>
	<path class="st1" d="M310.8,125c0-1.6,0.5-2.7,1.4-3.5c0.8-0.6,1.6-0.9,2.7-0.9c1.2,0,2.1,0.5,2.8,1.2s1.1,1.8,1.1,3.1
		c0,1-0.2,2-0.5,2.5c-0.3,0.6-0.8,1-1.5,1.5c-0.6,0.3-1.4,0.5-2.1,0.5c-1.2,0-2.1-0.5-2.8-1.2S310.8,126.5,310.8,125z M312.3,125
		c0,1,0.3,2,0.8,2.4c0.5,0.6,1.1,0.8,1.8,0.8s1.3-0.3,1.8-0.8c0.5-0.6,0.8-1.3,0.8-2.5c0-1.1-0.3-1.8-0.8-2.4s-1-0.8-1.8-0.8
		s-1.4,0.3-1.8,0.8C312.5,123.2,312.3,124,312.3,125z"/>
	<path class="st1" d="M320.6,129.4v-8.6h1.4v1.2c0.6-0.9,1.5-1.4,2.7-1.4c0.4,0,1,0.2,1.3,0.3c0.5,0.1,0.8,0.4,0.9,0.8
		c0.1,0.3,0.3,0.6,0.4,1c0,0.3,0.2,0.8,0.2,1.4v5.3H326v-5.3c0-0.6,0-1-0.2-1.4c-0.1-0.3-0.3-0.6-0.6-0.8c-0.3-0.1-0.6-0.3-1-0.3
		c-0.6,0-1.2,0.1-1.7,0.6s-0.6,1.2-0.6,2.3v4.7h-1.4L320.6,129.4L320.6,129.4z"/>
	<path class="st1" d="M335.9,129.4l-2.6-8.6h1.5l1.4,5l0.5,1.8c0-0.1,0.1-0.8,0.4-1.8l1.4-5h1.5l1.3,5l0.5,1.6l0.5-1.6l1.5-5h1.3
		l-2.7,8.6h-1.5l-1.3-5.1l-0.3-1.5l-1.8,6.6H335.9z"/>
	<path class="st1" d="M346.3,119.1v-1.6h1.5v1.6H346.3z M346.3,129.4v-8.6h1.5v8.6H346.3z"/>
	<path class="st1" d="M349.8,129.4v-8.6h1.4v1.2c0.6-0.9,1.5-1.4,2.7-1.4c0.4,0,1,0.2,1.3,0.3c0.5,0.1,0.8,0.4,0.9,0.8
		c0.1,0.3,0.3,0.6,0.4,1c0,0.3,0.2,0.8,0.2,1.4v5.3h-1.5v-5.3c0-0.6,0-1-0.2-1.4c-0.1-0.3-0.3-0.6-0.6-0.8c-0.3-0.1-0.6-0.3-1-0.3
		c-0.6,0-1.2,0.1-1.7,0.6s-0.6,1.2-0.6,2.3v4.7h-1.4L349.8,129.4L349.8,129.4z"/>
	<path class="st1" d="M364.8,126.5l1.5,0.1c-0.3,0.9-0.6,1.5-1.3,2.1c-0.6,0.5-1.5,0.8-2.4,0.8c-1.2,0-2.3-0.5-3-1.2
		c-0.8-0.7-1-1.8-1-3.3s0.3-2.5,1-3.3s1.7-1.2,2.9-1.2c1.2,0,2.1,0.5,2.9,1.2s1,1.8,1,3.3c0,0.1,0,0.1,0,0.5h-6.5
		c0,0.9,0.3,1.7,0.8,2.1c0.5,0.5,1,0.8,1.8,0.8c0.6,0,1-0.1,1.4-0.4C364.4,127.5,364.7,127.3,364.8,126.5z M360.2,124.3h4.8
		c0-0.8-0.3-1.2-0.6-1.6c-0.5-0.6-1.1-0.9-1.8-0.9c-0.6,0-1.2,0.2-1.6,0.6C360.5,122.9,360.2,123.5,360.2,124.3z"/>
	<path class="st1" d="M367.7,126.8l1.5-0.3c0.1,0.6,0.3,1,0.6,1.4c0.3,0.3,0.9,0.4,1.5,0.4s1.2-0.1,1.5-0.4c0.3-0.3,0.5-0.6,0.5-0.9
		s-0.2-0.6-0.5-0.8c-0.1-0.2-0.8-0.3-1.5-0.5c-1-0.3-1.8-0.5-2.3-0.8c-0.5-0.1-0.8-0.5-0.9-0.8c-0.2-0.3-0.3-0.8-0.3-1.2
		s0.2-0.8,0.3-1s0.4-0.6,0.8-0.8c0.3-0.1,0.6-0.3,0.9-0.5s0.8-0.2,1.2-0.2c0.6,0,1.2,0.2,1.8,0.3c0.5,0.1,0.9,0.4,1.2,0.8
		c0.3,0.3,0.5,0.8,0.5,1.3l-1.4,0.2c0-0.5-0.3-0.8-0.6-1.1c-0.3-0.3-0.8-0.3-1.4-0.3s-1.2,0.1-1.5,0.3c-0.3,0.2-0.5,0.5-0.5,0.8
		c0,0.2,0,0.3,0.2,0.5c0.2,0.1,0.3,0.3,0.6,0.4c0.2,0,0.6,0.2,1.4,0.3c1,0.3,1.8,0.4,2.1,0.6c0.4,0.2,0.8,0.5,0.9,0.8
		c0.3,0.3,0.3,0.8,0.3,1.2s-0.1,0.9-0.4,1.4c-0.3,0.4-0.8,0.8-1.2,1c-0.6,0.3-1.2,0.3-1.8,0.3c-1.1,0-2-0.3-2.6-0.8
		C368.2,128.3,367.8,127.7,367.7,126.8z"/>
	<path class="st1" d="M257,131.6v-1.2h118.3v1.2H257z"/>
</g>
</svg>
