<?xml version="1.0" encoding="utf-8"?>
<!-- Generator: Adobe Illustrator 22.1.0, SVG Export Plug-In . SVG Version: 6.00 Build 0)  -->
<svg version="1.1" id="Layer_1" xmlns="http://www.w3.org/2000/svg" xmlns:xlink="http://www.w3.org/1999/xlink" x="0px" y="0px"
	 width="445.5px" height="173px" viewBox="0 0 445.5 173" style="enable-background:new 0 0 445.5 173;" xml:space="preserve">
<style type="text/css">
	.st0{enable-background:new    ;}
	.st1{fill:#0012FF;}
	.st2{fill:#009245;}
	.st3{fill:#999999;}
	.st4{fill:#737373;}
	.st5{fill:#0000FF;}
	.st6{fill:#666666;}
	.st7{fill:none;stroke:#008272;stroke-width:4;stroke-miterlimit:10;}
	.st8{fill:#FF8C00;}
	.st9{fill:#D2D2D2;}
</style>
<title>Asset 19</title>
<g class="st0">
	<path class="st1" d="M15.3,127.5v-11.8h5.3c1,0,1.8,0.2,2.4,0.3c0.6,0.2,1.1,0.6,1.3,1.2c0.3,0.6,0.5,1.2,0.5,1.8
		c0,0.9-0.3,1.5-0.8,2.1c-0.6,0.6-1.4,0.9-2.5,1c0.4,0.1,0.8,0.5,0.9,0.6c0.5,0.5,0.9,0.9,1.4,1.5l2.1,3.2h-2l-1.5-2.4
		c-0.5-0.8-0.9-1.2-1.2-1.6c-0.3-0.5-0.6-0.6-0.8-0.8c-0.3-0.2-0.5-0.3-0.8-0.3c-0.2,0-0.5,0-0.9,0h-1.8v5.3L15.3,127.5L15.3,127.5z
		 M16.8,120.9h3.3c0.8,0,1.2,0,1.7-0.1c0.5-0.2,0.8-0.5,0.9-0.8s0.3-0.8,0.3-1c0-0.6-0.2-1-0.6-1.4c-0.5-0.3-1-0.6-2-0.6h-3.8
		L16.8,120.9L16.8,120.9z"/>
	<path class="st1" d="M32.9,124.8l1.5,0.1c-0.3,0.9-0.6,1.5-1.3,2.1c-0.8,0.6-1.5,0.8-2.4,0.8c-1.2,0-2.3-0.5-3-1.2
		s-1.1-1.8-1.1-3.3s0.3-2.5,1.1-3.3s1.7-1.2,2.8-1.2s2.1,0.5,2.8,1.2s1.1,1.8,1.1,3.3c0,0.1,0,0.1,0,0.5h-6.5c0,0.9,0.3,1.6,0.8,2.1
		s1.1,0.8,1.8,0.8c0.6,0,1.1-0.1,1.3-0.5C32.1,125.9,32.6,125.4,32.9,124.8z M28.1,122.4h4.8c0-0.8-0.3-1.2-0.6-1.6
		c-0.5-0.6-1.1-0.9-1.8-0.9c-0.6,0-1.2,0.2-1.7,0.6C28.4,121.1,28.1,121.7,28.1,122.4z"/>
	<path class="st1" d="M41.7,127.5v-1c-0.6,0.9-1.3,1.2-2.4,1.2c-0.8,0-1.3-0.2-1.9-0.6s-1.1-0.9-1.3-1.5c-0.3-0.6-0.5-1.5-0.5-2.3
		c0-0.9,0.2-1.6,0.5-2.3c0.3-0.6,0.8-1.2,1.3-1.6c0.6-0.3,1.2-0.6,1.9-0.6c0.5,0,0.9,0.2,1.3,0.3c0.5,0.2,0.8,0.5,1.1,0.9v-4.2h1.5
		v11.9L41.7,127.5L41.7,127.5z M37.1,123.3c0,1,0.3,2,0.8,2.4c0.5,0.6,1.1,0.8,1.7,0.8s1.2-0.3,1.7-0.8c0.4-0.5,0.6-1.3,0.6-2.4
		c0-1.2-0.3-2.1-0.8-2.5c-0.4-0.4-1.1-0.8-1.7-0.8s-1.2,0.3-1.7,0.8C37.4,121.4,37.1,122.1,37.1,123.3z"/>
	<path class="st1" d="M51.5,127.5l-2.6-8.5h1.5l1.4,5l0.4,1.8c0-0.2,0.1-0.8,0.4-1.8l1.4-5h1.5l1.4,5l0.4,1.6l0.4-1.6l1.5-5h1.4
		l-2.7,8.5h-1.5l-1.4-5.1l-0.3-1.5l-1.8,6.6H51.5z"/>
	<path class="st1" d="M61.9,117.5v-1.6h1.5v1.6H61.9z M61.9,127.5V119h1.5v8.5H61.9z"/>
	<path class="st1" d="M65.4,127.5V119h1.4v1.2c0.6-0.9,1.5-1.4,2.7-1.4c0.4,0,1.1,0.2,1.4,0.3c0.4,0.2,0.8,0.5,0.9,0.8
		s0.3,0.6,0.4,1c0,0.3,0.1,0.8,0.1,1.4v5.3h-1.5v-5.3c0-0.6,0-1-0.1-1.4c-0.1-0.3-0.3-0.6-0.6-0.8c-0.3-0.1-0.6-0.3-1.1-0.3
		c-0.6,0-1.2,0.2-1.6,0.6s-0.6,1.3-0.6,2.3v4.6L65.4,127.5L65.4,127.5z"/>
	<path class="st1" d="M80.6,124.8l1.5,0.1c-0.3,0.9-0.6,1.5-1.4,2.1s-1.5,0.8-2.4,0.8c-1.2,0-2.3-0.5-3-1.2s-1.1-1.8-1.1-3.3
		s0.3-2.5,1.1-3.3c0.8-0.8,1.6-1.2,2.8-1.2c1.2,0,2.1,0.5,2.9,1.2s1.1,1.8,1.1,3.3c0,0.1,0,0.1,0,0.5h-6.4c0,0.9,0.3,1.6,0.8,2.1
		s1.1,0.8,1.8,0.8c0.6,0,1.1-0.1,1.4-0.5C79.9,125.9,80.3,125.4,80.6,124.8z M75.8,122.4h4.8c0-0.8-0.3-1.2-0.6-1.6
		c-0.4-0.6-1.1-0.9-1.8-0.9c-0.6,0-1.2,0.2-1.6,0.6C76.1,121.1,75.8,121.7,75.8,122.4z"/>
	<path class="st1" d="M83.3,125l1.5-0.3c0.1,0.6,0.3,1,0.6,1.4c0.3,0.3,0.9,0.5,1.5,0.5s1.2-0.2,1.5-0.5s0.4-0.6,0.4-0.9
		s-0.1-0.6-0.4-0.8c-0.1-0.1-0.8-0.3-1.5-0.5c-1.1-0.3-1.8-0.5-2.3-0.8c-0.4-0.1-0.8-0.5-0.9-0.8s-0.2-0.6-0.2-1.1s0.1-0.8,0.3-1
		c0.1-0.3,0.4-0.6,0.8-0.8c0.3-0.1,0.6-0.3,0.9-0.5c0.4-0.1,0.8-0.1,1.2-0.1c0.6,0,1.2,0.1,1.8,0.3c0.4,0.1,0.9,0.5,1.1,0.8
		c0.3,0.3,0.4,0.8,0.4,1.3l-1.4,0.2c0-0.5-0.3-0.8-0.6-1c-0.3-0.2-0.8-0.3-1.4-0.3s-1.2,0.1-1.5,0.3c-0.3,0.1-0.4,0.5-0.4,0.8
		c0,0.1,0,0.3,0.1,0.5c0.1,0.1,0.3,0.3,0.6,0.5c0.1,0,0.6,0.1,1.4,0.3c1.1,0.3,1.8,0.5,2.1,0.6c0.4,0.2,0.8,0.5,0.9,0.8
		s0.3,0.8,0.3,1.2s-0.2,0.6-0.5,1.1s-0.8,0.8-1.2,1c-0.6,0.3-1.2,0.3-1.8,0.3c-1.1,0-1.9-0.3-2.6-0.8
		C83.9,126.6,83.4,125.9,83.3,125z"/>
</g>
<g class="st0">
	<path class="st1" d="M24.8,151.7l1.5,0.5c-0.3,1.4-0.9,2.3-1.8,3c-0.9,0.6-2,1.1-3.2,1.1s-2.3-0.3-3.2-0.8
		c-0.8-0.5-1.3-1.2-1.8-2.3s-0.6-2.1-0.6-3.1c0-1.2,0.3-2.3,0.8-3.2c0.5-0.9,1.2-1.6,2-2.1c0.9-0.5,1.8-0.8,2.8-0.8
		c1.2,0,2.3,0.3,3,0.9c0.8,0.6,1.3,1.5,1.7,2.5l-1.5,0.3c-0.3-0.9-0.6-1.5-1.2-2s-1.2-0.6-2-0.6c-0.9,0-1.7,0.1-2.3,0.6
		s-1,1-1.4,1.8c-0.3,0.8-0.3,1.5-0.3,2.3c0,1,0.2,2,0.5,2.7s0.8,1.4,1.3,1.7c0.6,0.3,1.4,0.6,2,0.6c0.9,0,1.7-0.3,2.3-0.8
		C24.2,153.3,24.6,152.6,24.8,151.7z"/>
	<path class="st1" d="M28.1,155.7v-8.5h1.3v1.4c0.3-0.6,0.6-1,0.9-1.2s0.6-0.3,0.9-0.3c0.4,0,1.1,0.1,1.5,0.5l-0.4,1.3
		c-0.3-0.1-0.8-0.3-1.1-0.3s-0.6,0.2-0.9,0.3c-0.3,0.2-0.4,0.5-0.6,0.8c-0.2,0.5-0.3,1-0.3,1.7v4.5
		C29.4,155.7,28.1,155.7,28.1,155.7z"/>
	<path class="st1" d="M39.2,154.7c-0.6,0.5-1,0.8-1.5,0.9c-0.4,0.1-1,0.3-1.6,0.3c-0.9,0-1.7-0.3-2.1-0.8c-0.4-0.4-0.8-1-0.8-1.8
		c0-0.5,0.2-0.8,0.3-1.2c0.2-0.3,0.4-0.6,0.8-0.9c0.3-0.1,0.6-0.3,1.1-0.5c0.3,0,0.8-0.1,1.3-0.1c1.2-0.2,2.1-0.3,2.5-0.5
		c0-0.2,0-0.3,0-0.5c0-0.6-0.1-1-0.4-1.2c-0.3-0.3-0.9-0.5-1.7-0.5s-1.2,0.1-1.5,0.3c-0.3,0.3-0.6,0.6-0.8,1.2l-1.3-0.2
		c0.1-0.6,0.3-1,0.6-1.5s0.8-0.6,1.3-0.9c0.6-0.2,1.2-0.3,2-0.3s1.3,0.1,1.8,0.3c0.5,0.1,0.8,0.5,1.1,0.6c0.3,0.2,0.3,0.6,0.4,1
		c0,0.3,0,0.8,0,1.4v2c0,1.3,0,2.3,0.2,2.5c0,0.3,0.2,0.8,0.3,1h-1.5C39.3,155.4,39.3,155.1,39.2,154.7z M39.1,151.5
		c-0.6,0.1-1.4,0.5-2.4,0.6c-0.6,0.2-1.1,0.2-1.2,0.3c-0.3,0.2-0.4,0.3-0.6,0.5s-0.2,0.5-0.2,0.8c0,0.5,0.2,0.8,0.5,0.9
		c0.3,0.3,0.8,0.5,1.3,0.5s1.1-0.1,1.5-0.3s0.8-0.6,0.9-1c0.2-0.3,0.3-0.8,0.3-1.5v-0.6C39.2,151.5,39.1,151.5,39.1,151.5z"/>
	<path class="st1" d="M43.2,155.7v-7.5h-1.3V147h1.3v-0.9c0-0.6,0-1,0.2-1.4c0.1-0.5,0.4-0.8,0.8-0.9c0.3-0.3,0.9-0.3,1.5-0.3
		c0.4,0,0.9,0,1.3,0.1l-0.2,1.2c-0.3,0-0.6-0.1-0.9-0.1c-0.4,0-0.8,0.1-0.9,0.3c-0.2,0.1-0.3,0.6-0.3,1v0.8h1.7v1.2h-1.7v7.5
		L43.2,155.7L43.2,155.7z"/>
	<path class="st1" d="M50.6,154.5l0.1,1.3c-0.4,0.1-0.8,0.1-1.1,0.1c-0.6,0-0.9-0.1-1.2-0.3s-0.4-0.5-0.6-0.6
		c-0.2-0.1-0.1-0.9-0.1-1.6v-5h-1.1v-1.2h1.1v-2.1l1.5-0.9v3h1.5v1.2h-1.5v5c0,0.5,0,0.8,0.1,0.8c0,0.1,0.1,0.1,0.3,0.3
		c0.1,0,0.3,0.1,0.4,0.1C50.1,154.5,50.3,154.5,50.6,154.5z"/>
	<path class="st1" d="M57.9,155.7h-1.4v-11.8H58v4.2c0.6-0.8,1.4-1.2,2.4-1.2c0.6,0,1.1,0.1,1.5,0.3c0.4,0.1,0.9,0.5,1.2,0.9
		c0.3,0.5,0.6,0.9,0.8,1.4c0.1,0.6,0.3,1,0.3,1.8c0,1.5-0.3,2.5-1.1,3.5c-0.8,0.8-1.6,1.2-2.6,1.2c-1.1,0-1.8-0.4-2.4-1.2v1
		C58.2,155.7,57.9,155.7,57.9,155.7z M57.9,151.4c0,1,0.1,1.8,0.4,2.3c0.4,0.8,1.1,1,1.8,1c0.6,0,1.2-0.3,1.6-0.9
		c0.4-0.6,0.8-1.3,0.8-2.4c0-1.1-0.1-2-0.6-2.4c-0.4-0.6-1.1-0.8-1.6-0.8c-0.6,0-1.2,0.3-1.6,0.9C58.2,149.7,57.9,150.3,57.9,151.4z
		"/>
	<path class="st1" d="M71.6,153l1.5,0.1c-0.3,0.9-0.6,1.5-1.4,2.1s-1.5,0.8-2.4,0.8c-1.2,0-2.3-0.4-3-1.2s-1.1-1.8-1.1-3.3
		s0.3-2.5,1.1-3.3c0.8-0.8,1.6-1.2,2.9-1.2c1.2,0,2.1,0.5,2.9,1.2s1.1,1.8,1.1,3.3c0,0.1,0,0.1,0,0.5h-6.4c0,0.9,0.3,1.6,0.8,2.1
		s1.1,0.8,1.8,0.8c0.6,0,1.1-0.2,1.4-0.5C70.9,154.1,71.4,153.6,71.6,153z M66.8,150.6h4.8c0-0.8-0.3-1.2-0.6-1.7
		c-0.4-0.6-1.1-0.9-1.8-0.9c-0.6,0-1.2,0.1-1.6,0.6C67.1,149.3,66.9,149.9,66.8,150.6z"/>
	<path class="st1" d="M80.7,153l1.5,0.1c-0.3,1-0.6,1.6-1.3,2.2c-0.8,0.6-1.5,0.8-2.4,0.8c-1.2,0-2.3-0.4-3-1.2s-1.1-1.8-1.1-3.3
		s0.3-2.5,1.1-3.3c0.8-0.8,1.6-1.2,2.9-1.2c1.2,0,2.1,0.5,2.9,1.2s1.1,1.8,1.1,3.3c0,0.1,0,0.1,0,0.5h-6.6c0,0.9,0.3,1.6,0.8,2.1
		s1.1,0.8,1.8,0.8c0.6,0,1.1-0.2,1.4-0.5C80,154.1,80.6,153.6,80.7,153z M76.1,150.6h4.8c0-0.8-0.3-1.2-0.6-1.7
		c-0.4-0.6-1.1-0.9-1.8-0.9c-0.6,0-1.2,0.1-1.6,0.6C76.4,149.3,76.1,149.9,76.1,150.6z"/>
	<path class="st1" d="M84,155.7v-8.5h1.4v1.4c0.3-0.6,0.6-1,0.9-1.2s0.6-0.3,0.9-0.3c0.4,0,1.1,0.1,1.5,0.5l-0.4,1.3
		c-0.3-0.1-0.8-0.3-1.1-0.3c-0.3,0-0.6,0.2-0.9,0.3c-0.3,0.2-0.4,0.5-0.6,0.8c-0.1,0.5-0.3,1-0.3,1.7v4.5
		C85.4,155.7,84,155.7,84,155.7z"/>
</g>
<g class="st0">
	<path class="st1" d="M203.3,127.5l-3.2-11.8h1.7l1.8,7.8c0.2,0.8,0.3,1.7,0.5,2.4c0.3-1.2,0.5-2,0.6-2.3l2.3-8h1.9l1.7,6
		c0.4,1.5,0.8,2.8,0.9,4.2c0.2-0.8,0.3-1.7,0.6-2.5l1.8-7.7h1.5l-3.3,11.9h-1.5l-2.6-9c-0.2-0.8-0.3-1.2-0.3-1.4
		c-0.1,0.6-0.3,1-0.3,1.4l-2.5,9H203.3z"/>
</g>
<g class="st0">
	<path class="st1" d="M221.6,126.5c-0.6,0.5-1,0.8-1.5,0.9c-0.4,0.1-1,0.3-1.6,0.3c-0.9,0-1.7-0.3-2.1-0.8s-0.8-1-0.8-1.8
		c0-0.5,0.2-0.8,0.3-1.2c0.2-0.3,0.4-0.6,0.8-0.9c0.3-0.1,0.6-0.3,1.1-0.5c0.3,0,0.8-0.1,1.3-0.1c1.2-0.2,2.1-0.3,2.6-0.5
		c0-0.2,0-0.3,0-0.5c0-0.6-0.2-1-0.4-1.2c-0.3-0.3-0.9-0.5-1.7-0.5s-1.2,0.1-1.5,0.3c-0.3,0.3-0.6,0.6-0.8,1.2L216,121
		c0.1-0.6,0.3-1,0.6-1.5s0.8-0.6,1.4-0.9c0.6-0.2,1.2-0.3,1.9-0.3s1.3,0.1,1.8,0.3c0.4,0.1,0.8,0.5,1,0.6c0.3,0.2,0.3,0.6,0.5,1
		c0,0.3,0,0.8,0,1.4v2c0,1.3,0,2.3,0.1,2.5c0,0.3,0.2,0.8,0.3,1h-1.5C221.8,127.2,221.6,126.9,221.6,126.5z M221.5,123.3
		c-0.6,0.1-1.3,0.5-2.4,0.6c-0.6,0.2-1,0.2-1.2,0.3c-0.3,0.2-0.4,0.3-0.6,0.5c-0.1,0.2-0.2,0.5-0.2,0.8c0,0.5,0.2,0.8,0.5,0.9
		c0.3,0.3,0.8,0.5,1.3,0.5s1.1-0.2,1.5-0.3c0.4-0.2,0.8-0.6,0.9-1c0.2-0.3,0.3-0.8,0.3-1.5L221.5,123.3L221.5,123.3z"/>
	<path class="st1" d="M224.6,125l1.5-0.3c0.2,0.6,0.3,1,0.6,1.4c0.3,0.3,0.9,0.5,1.5,0.5s1.2-0.2,1.5-0.5s0.4-0.6,0.4-0.9
		s-0.2-0.6-0.4-0.8c-0.2-0.1-0.8-0.3-1.5-0.5c-1.1-0.3-1.8-0.5-2.3-0.8c-0.5-0.1-0.8-0.5-0.9-0.8s-0.3-0.8-0.3-1.2s0.2-0.8,0.3-1
		c0.2-0.3,0.5-0.6,0.8-0.8c0.3-0.1,0.6-0.3,0.9-0.5c0.4-0.1,0.8-0.1,1.2-0.1c0.6,0,1.2,0.1,1.8,0.3c0.4,0.1,0.9,0.5,1,0.8
		c0.3,0.3,0.5,0.8,0.5,1.3l-1.4,0.2c0-0.5-0.3-0.8-0.6-1c-0.3-0.3-0.8-0.3-1.4-0.3c-0.6,0-1.2,0.1-1.5,0.3c-0.3,0.1-0.4,0.5-0.4,0.8
		c0,0.1,0,0.3,0.2,0.5c0.2,0.1,0.3,0.3,0.6,0.5c0.2,0,0.6,0.1,1.3,0.3c1,0.3,1.8,0.5,2.1,0.6c0.4,0.2,0.8,0.5,0.9,0.8
		c0.1,0.3,0.3,0.8,0.3,1.2s-0.1,0.9-0.4,1.4s-0.8,0.8-1.2,1c-0.6,0.3-1.2,0.3-1.8,0.3c-1.1,0-1.9-0.3-2.6-0.8
		C225.2,126.6,224.8,125.9,224.6,125z"/>
	<path class="st1" d="M233.5,127.5v-11.8h1.5v4.2c0.8-0.8,1.5-1.2,2.6-1.2c0.6,0,1.2,0.2,1.6,0.3c0.5,0.3,0.8,0.6,1.1,1
		c0.2,0.5,0.3,1,0.3,2v5.4h-1.5V122c0-0.8-0.2-1.2-0.5-1.6c-0.3-0.3-0.8-0.5-1.3-0.5c-0.4,0-0.9,0.1-1.2,0.3
		c-0.5,0.1-0.6,0.5-0.8,0.9c-0.2,0.5-0.3,0.9-0.3,1.7v4.6L233.5,127.5L233.5,127.5L233.5,127.5z"/>
	<path class="st1" d="M242.6,117.5v-1.6h1.5v1.6H242.6z M242.6,127.5V119h1.5v8.5H242.6z"/>
	<path class="st1" d="M246.3,127.5V119h1.4v1.2c0.6-0.9,1.5-1.4,2.7-1.4c0.4,0,1.1,0.2,1.3,0.3c0.5,0.2,0.8,0.5,0.9,0.8
		c0.1,0.3,0.3,0.6,0.4,1c0,0.3,0.2,0.8,0.2,1.4v5.3h-1.5v-5.3c0-0.6,0-1-0.2-1.4c-0.1-0.3-0.3-0.6-0.6-0.8c-0.3-0.1-0.6-0.3-1.1-0.3
		c-0.6,0-1.2,0.2-1.7,0.6s-0.6,1.2-0.6,2.3v4.6L246.3,127.5L246.3,127.5z"/>
	<path class="st1" d="M255.2,128.3l1.3,0.1c0,0.5,0.2,0.8,0.5,0.9c0.3,0.3,0.9,0.5,1.5,0.5s1.2-0.2,1.5-0.5s0.6-0.6,0.8-1.2
		c0.1-0.3,0.1-0.9,0.1-1.8c-0.6,0.8-1.3,1-2.4,1c-1.2,0-2.1-0.5-2.7-1.2c-0.6-0.7-0.9-1.8-0.9-3c0-0.8,0.2-1.5,0.4-2.3
		c0.3-0.8,0.8-1.2,1.4-1.7c0.6-0.4,1.2-0.6,1.9-0.6c1.1,0,1.8,0.5,2.6,1.2v-1h1.3v7.5c0,1.3-0.1,2.3-0.4,2.8c-0.3,0.6-0.8,1-1.3,1.4
		c-0.6,0.3-1.3,0.5-2.1,0.5c-1.1,0-1.8-0.3-2.4-0.8C255.5,129.9,255.2,129.2,255.2,128.3z M256.4,123.2c0,1,0.2,2,0.6,2.4
		c0.4,0.5,1,0.8,1.6,0.8s1.2-0.3,1.7-0.8c0.4-0.5,0.8-1.4,0.8-2.4s-0.3-1.8-0.8-2.4s-1.1-0.8-1.7-0.8s-1.2,0.3-1.6,0.8
		C256.7,121.4,256.4,122.1,256.4,123.2z"/>
	<path class="st1" d="M267.8,126.3l0.2,1.3c-0.4,0.2-0.8,0.2-1.1,0.2c-0.6,0-0.9-0.2-1.2-0.3c-0.3-0.2-0.4-0.5-0.6-0.6
		c-0.2-0.3-0.2-0.9-0.2-1.6v-5h-1v-1.2h1.1V117l1.5-0.9v3h1.5v1.2h-1.5v5c0,0.5,0,0.8,0.2,0.8c0,0.1,0.2,0.1,0.3,0.3
		c0.2,0,0.3,0.1,0.5,0.1C267.3,126.3,267.5,126.3,267.8,126.3z"/>
	<path class="st1" d="M268.7,123.3c0-1.7,0.4-2.7,1.3-3.5c0.8-0.6,1.7-0.9,2.7-0.9c1.2,0,2.1,0.5,2.8,1.2c0.7,0.7,1.1,1.8,1.1,3.2
		c0,1-0.2,2-0.4,2.5c-0.3,0.6-0.8,1-1.5,1.5c-0.6,0.3-1.4,0.5-2.1,0.5c-1.2,0-2.1-0.5-2.8-1.2C269.2,125.9,268.7,124.7,268.7,123.3z
		 M270.2,123.3c0,1,0.3,2,0.8,2.4c0.4,0.6,1.1,0.8,1.8,0.8c0.7,0,1.3-0.3,1.8-0.8c0.5-0.6,0.8-1.3,0.8-2.5c0-1-0.3-1.8-0.8-2.4
		s-1-0.8-1.8-0.8s-1.4,0.3-1.8,0.8C270.5,121.4,270.2,122.1,270.2,123.3z"/>
	<path class="st1" d="M278.5,127.5V119h1.3v1.2c0.6-0.9,1.5-1.4,2.7-1.4c0.4,0,1,0.2,1.3,0.3c0.5,0.2,0.8,0.5,0.9,0.8s0.3,0.6,0.4,1
		c0,0.3,0.2,0.8,0.2,1.4v5.3h-1.4v-5.3c0-0.6,0-1-0.2-1.4c-0.2-0.3-0.3-0.6-0.6-0.8c-0.3-0.1-0.6-0.3-1-0.3c-0.6,0-1.2,0.2-1.7,0.6
		c-0.4,0.5-0.6,1.2-0.6,2.3v4.6L278.5,127.5L278.5,127.5z"/>
	<path class="st1" d="M293.8,127.5l-2.6-8.5h1.5l1.3,5l0.5,1.8c0-0.2,0.1-0.8,0.4-1.8l1.3-5h1.5l1.3,5l0.4,1.6l0.5-1.6l1.5-5h1.3
		l-2.7,8.5h-1.5l-1.4-5.1l-0.3-1.5l-1.8,6.6H293.8z"/>
	<path class="st1" d="M304.1,117.5v-1.6h1.5v1.6H304.1z M304.1,127.5V119h1.5v8.5H304.1z"/>
	<path class="st1" d="M307.7,127.5V119h1.3v1.2c0.6-0.9,1.5-1.4,2.7-1.4c0.4,0,1,0.2,1.3,0.3c0.5,0.2,0.8,0.5,0.9,0.8s0.3,0.6,0.4,1
		c0,0.3,0.2,0.8,0.2,1.4v5.3H313v-5.3c0-0.6,0-1-0.2-1.4c-0.2-0.3-0.3-0.6-0.6-0.8c-0.3-0.1-0.6-0.3-1-0.3c-0.6,0-1.2,0.2-1.7,0.6
		c-0.4,0.5-0.6,1.2-0.6,2.3v4.6L307.7,127.5L307.7,127.5z"/>
	<path class="st1" d="M322.8,124.8l1.5,0.1c-0.3,0.9-0.6,1.5-1.3,2.1c-0.6,0.5-1.5,0.8-2.4,0.8c-1.2,0-2.3-0.5-3-1.2s-1-1.8-1-3.3
		s0.3-2.5,1-3.3s1.7-1.2,2.9-1.2c1.2,0,2.1,0.5,2.8,1.2c0.7,0.7,1.1,1.8,1.1,3.3c0,0.1,0,0.1,0,0.5h-6.5c0,0.9,0.3,1.6,0.8,2.1
		c0.4,0.5,1,0.8,1.8,0.8c0.6,0,1-0.1,1.3-0.5C322.3,125.9,322.5,125.4,322.8,124.8z M318,122.4h4.8c0-0.8-0.3-1.2-0.6-1.6
		c-0.5-0.6-1.1-0.9-1.8-0.9c-0.6,0-1.2,0.2-1.7,0.6C318.3,121.1,318,121.7,318,122.4z"/>
	<path class="st1" d="M325.5,125l1.5-0.3c0.2,0.6,0.3,1,0.6,1.4c0.3,0.3,0.9,0.5,1.5,0.5s1.2-0.2,1.5-0.5s0.4-0.6,0.4-0.9
		s-0.1-0.6-0.4-0.8c-0.2-0.1-0.8-0.3-1.5-0.5c-1.1-0.3-1.8-0.5-2.3-0.8c-0.4-0.1-0.8-0.5-0.9-0.8s-0.3-0.8-0.3-1.2s0.1-0.8,0.3-1
		c0.2-0.2,0.5-0.6,0.8-0.8c0.3-0.1,0.6-0.3,0.9-0.5c0.4-0.1,0.8-0.1,1.2-0.1c0.6,0,1.2,0.1,1.8,0.3c0.4,0.1,0.9,0.5,1,0.8
		c0.3,0.3,0.5,0.8,0.5,1.3l-1.4,0.2c0-0.5-0.3-0.8-0.6-1c-0.3-0.3-0.7-0.3-1.3-0.3s-1.2,0.1-1.5,0.3c-0.3,0.1-0.5,0.5-0.5,0.8
		c0,0.1,0,0.3,0.2,0.5c0.1,0.1,0.3,0.3,0.6,0.5c0.2,0,0.6,0.1,1.4,0.3c1,0.3,1.8,0.5,2.1,0.6c0.3,0.2,0.8,0.5,0.9,0.8
		c0.3,0.3,0.3,0.8,0.3,1.2s-0.1,0.9-0.5,1.4c-0.3,0.5-0.8,0.8-1.2,1c-0.6,0.3-1.2,0.3-1.8,0.3c-1,0-1.9-0.3-2.5-0.8
		S325.7,125.9,325.5,125z"/>
</g>
<g class="st0">
	<path class="st1" d="M210.8,151.7l1.5,0.5c-0.3,1.4-0.9,2.3-1.8,3c-0.9,0.6-2,1.1-3.2,1.1s-2.3-0.3-3.1-0.8s-1.4-1.2-1.8-2.3
		c-0.4-1.1-0.6-2.1-0.6-3.1c0-1.2,0.3-2.3,0.8-3.2s1.2-1.6,2-2.1c0.9-0.5,1.8-0.8,2.8-0.8c1.2,0,2.3,0.3,3,0.9
		c0.8,0.6,1.4,1.5,1.7,2.5l-1.5,0.3c-0.3-0.9-0.6-1.5-1.2-2c-0.6-0.5-1.2-0.6-2-0.6c-0.9,0-1.6,0.1-2.3,0.6c-0.6,0.5-1,1-1.3,1.8
		s-0.3,1.5-0.3,2.3c0,1,0.2,2,0.4,2.7c0.3,0.8,0.8,1.4,1.4,1.7c0.6,0.3,1.3,0.6,1.9,0.6c0.9,0,1.7-0.3,2.3-0.8
		C210.2,153.3,210.7,152.6,210.8,151.7z"/>
	<path class="st1" d="M219.8,154.7c-0.6,0.5-1,0.8-1.5,0.9s-1,0.3-1.7,0.3c-0.9,0-1.7-0.3-2.1-0.8c-0.5-0.4-0.8-1-0.8-1.8
		c0-0.5,0.2-0.8,0.3-1.2c0.2-0.3,0.5-0.6,0.8-0.9c0.3-0.1,0.6-0.3,1.1-0.5c0.3,0,0.8-0.1,1.3-0.1c1.2-0.2,2.1-0.3,2.5-0.5
		c0-0.2,0-0.3,0-0.5c0-0.6-0.1-1-0.4-1.2c-0.3-0.3-0.9-0.5-1.7-0.5s-1.2,0.1-1.5,0.3c-0.3,0.3-0.6,0.6-0.8,1.2l-1.3-0.2
		c0.2-0.6,0.3-1,0.6-1.5s0.8-0.6,1.3-0.9c0.6-0.2,1.2-0.3,1.9-0.3s1.4,0.1,1.8,0.3c0.4,0.1,0.8,0.5,1.1,0.6c0.3,0.2,0.3,0.6,0.4,1
		c0,0.3,0,0.8,0,1.4v2c0,1.3,0,2.3,0.2,2.5c0,0.3,0.2,0.8,0.3,1h-1.5C220,155.4,219.8,155.1,219.8,154.7z M219.7,151.5
		c-0.6,0.1-1.3,0.5-2.4,0.6c-0.6,0.2-1.1,0.2-1.2,0.3c-0.3,0.2-0.5,0.3-0.6,0.5s-0.2,0.5-0.2,0.8c0,0.5,0.2,0.8,0.5,0.9
		c0.3,0.3,0.8,0.5,1.3,0.5c0.6,0,1.1-0.1,1.5-0.3c0.5-0.2,0.8-0.6,0.9-1c0.1-0.3,0.3-0.8,0.3-1.5L219.7,151.5L219.7,151.5z"/>
	<path class="st1" d="M223.3,155.7v-11.8h1.5v11.8H223.3z"/>
	<path class="st1" d="M227,145.7v-1.6h1.5v1.6H227z M227,155.7v-8.5h1.5v8.5H227z"/>
	<path class="st1" d="M231,155.7v-7.5h-1.3V147h1.3v-0.9c0-0.6,0-1,0.2-1.4c0.2-0.5,0.4-0.8,0.8-0.9c0.3-0.3,0.9-0.3,1.5-0.3
		c0.4,0,0.9,0,1.3,0.1l-0.2,1.2c-0.3,0-0.6-0.1-0.9-0.1c-0.5,0-0.8,0.1-0.9,0.3c-0.2,0.1-0.3,0.6-0.3,1v0.8h1.7v1.2h-1.7v7.5
		L231,155.7L231,155.7z"/>
	<path class="st1" d="M234.7,151.5c0-1.7,0.5-2.7,1.4-3.5c0.8-0.6,1.6-0.9,2.7-0.9c1.2,0,2.1,0.5,2.8,1.2s1,1.8,1,3.2
		c0,1-0.1,2-0.4,2.5c-0.3,0.6-0.8,1-1.5,1.5c-0.6,0.3-1.3,0.4-2.1,0.4c-1.2,0-2.1-0.4-2.8-1.2C235.1,154.1,234.7,152.9,234.7,151.5z
		 M236.2,151.5c0,1,0.3,2,0.8,2.4s1.1,0.8,1.8,0.8s1.3-0.3,1.8-0.8c0.4-0.5,0.8-1.3,0.8-2.5c0-1-0.3-1.8-0.8-2.4
		c-0.5-0.6-1.1-0.8-1.8-0.8s-1.3,0.3-1.8,0.8C236.5,149.4,236.2,150.3,236.2,151.5z"/>
	<path class="st1" d="M244.4,155.7v-8.5h1.4v1.4c0.3-0.6,0.6-1,0.9-1.2c0.3-0.2,0.6-0.3,0.9-0.3c0.4,0,1,0.1,1.5,0.5l-0.5,1.3
		c-0.3-0.1-0.8-0.3-1-0.3c-0.3,0-0.6,0.2-0.9,0.3c-0.3,0.2-0.4,0.5-0.6,0.8c-0.2,0.5-0.3,1-0.3,1.7v4.5
		C245.8,155.7,244.4,155.7,244.4,155.7z"/>
	<path class="st1" d="M250,155.7v-8.5h1.3v1.2c0.6-0.9,1.5-1.3,2.7-1.3c0.4,0,1,0.1,1.3,0.3c0.5,0.1,0.8,0.5,0.9,0.8s0.3,0.6,0.4,1
		c0,0.3,0.2,0.8,0.2,1.3v5.3h-1.5v-5.3c0-0.6,0-1-0.2-1.3s-0.3-0.6-0.6-0.8s-0.6-0.3-1-0.3c-0.6,0-1.2,0.1-1.7,0.6
		c-0.4,0.5-0.6,1.2-0.6,2.3v4.7H250L250,155.7z"/>
	<path class="st1" d="M259.1,145.7v-1.6h1.5v1.6H259.1z M259.1,155.7v-8.5h1.5v8.5H259.1z"/>
	<path class="st1" d="M268.4,154.7c-0.6,0.5-1,0.8-1.5,0.9c-0.4,0.1-1,0.3-1.6,0.3c-0.9,0-1.7-0.3-2.1-0.8c-0.4-0.4-0.8-1-0.8-1.8
		c0-0.5,0.2-0.8,0.3-1.2c0.2-0.3,0.4-0.6,0.8-0.9c0.3-0.1,0.6-0.3,1.1-0.5c0.3,0,0.8-0.1,1.3-0.1c1.2-0.2,2.1-0.3,2.6-0.5
		c0-0.2,0-0.3,0-0.5c0-0.6-0.2-1-0.4-1.2c-0.3-0.3-0.9-0.5-1.7-0.5c-0.8,0-1.2,0.1-1.5,0.3c-0.3,0.1-0.6,0.6-0.8,1.2l-1.3-0.2
		c0.1-0.6,0.3-1,0.6-1.5c0.3-0.3,0.8-0.6,1.4-0.9c0.6-0.2,1.2-0.3,1.9-0.3c0.7,0,1.3,0.1,1.8,0.3c0.4,0.1,0.8,0.5,1,0.6
		c0.2,0.3,0.3,0.6,0.5,1c0,0.3,0,0.8,0,1.4v2c0,1.3,0,2.3,0.1,2.5c0.2,0.3,0.2,0.8,0.3,1h-1.5C268.5,155.4,268.4,155.1,268.4,154.7z
		 M268.3,151.5c-0.6,0.1-1.4,0.5-2.4,0.6c-0.6,0.2-1,0.2-1.2,0.3c-0.3,0.2-0.4,0.3-0.6,0.5s-0.2,0.5-0.2,0.8c0,0.5,0.2,0.8,0.4,0.9
		c0.3,0.3,0.8,0.5,1.4,0.5s1-0.1,1.5-0.3c0.4-0.2,0.8-0.6,0.9-1c0.2-0.3,0.3-0.8,0.3-1.5L268.3,151.5L268.3,151.5z"/>
	<path class="st1" d="M278.2,155.7l-2.5-8.5h1.5l1.3,5l0.4,1.8c0-0.1,0.2-0.8,0.5-1.8l1.3-5h1.5l1.3,5l0.5,1.7l0.4-1.7l1.5-5h1.3
		l-2.7,8.5H283l-1.3-5.1l-0.3-1.5l-1.8,6.6H278.2z"/>
	<path class="st1" d="M288.5,145.7v-1.6h1.5v1.6H288.5z M288.5,155.7v-8.5h1.5v8.5H288.5z"/>
	<path class="st1" d="M292.1,155.7v-8.5h1.4v1.2c0.6-0.9,1.5-1.3,2.7-1.3c0.4,0,1.1,0.1,1.3,0.3c0.5,0.1,0.8,0.5,0.9,0.8
		s0.3,0.6,0.4,1c0,0.3,0.2,0.8,0.2,1.3v5.3h-1.5v-5.3c0-0.6,0-1-0.2-1.3c-0.1-0.3-0.3-0.6-0.6-0.8c-0.3-0.2-0.6-0.3-1.1-0.3
		c-0.6,0-1.2,0.1-1.7,0.6s-0.6,1.2-0.6,2.3v4.7H292.1L292.1,155.7z"/>
	<path class="st1" d="M307.1,153l1.5,0.1c-0.3,0.9-0.6,1.5-1.3,2.1c-0.6,0.5-1.5,0.8-2.4,0.8c-1.2,0-2.3-0.4-3-1.2s-1-1.8-1-3.3
		s0.3-2.5,1-3.3s1.7-1.2,2.9-1.2c1.2,0,2.1,0.5,2.8,1.2c0.7,0.7,1.1,1.8,1.1,3.3c0,0.1,0,0.1,0,0.5h-6.4c0,0.9,0.3,1.6,0.8,2.1
		c0.4,0.5,1,0.8,1.8,0.8c0.6,0,1-0.2,1.3-0.5C306.7,154.1,307,153.6,307.1,153z M302.5,150.6h4.8c0-0.8-0.3-1.2-0.6-1.7
		c-0.4-0.6-1-0.9-1.8-0.9c-0.6,0-1.2,0.1-1.7,0.6C302.8,149.3,302.5,149.9,302.5,150.6z"/>
	<path class="st1" d="M310,153.2l1.5-0.3c0.2,0.6,0.3,1,0.6,1.4c0.3,0.3,0.9,0.5,1.5,0.5s1.2-0.2,1.5-0.5s0.5-0.6,0.5-0.9
		s-0.2-0.6-0.5-0.8c-0.2-0.1-0.8-0.3-1.5-0.5c-1-0.3-1.8-0.5-2.3-0.8c-0.5-0.1-0.8-0.5-0.9-0.8s-0.3-0.8-0.3-1.2s0.2-0.8,0.3-1
		c0.2-0.3,0.4-0.6,0.8-0.8c0.3-0.1,0.6-0.3,0.9-0.5c0.5-0.1,0.8-0.1,1.2-0.1c0.6,0,1.2,0.1,1.8,0.3c0.6,0.1,0.9,0.5,1,0.8
		c0.3,0.3,0.5,0.8,0.5,1.3l-1.3,0.2c0-0.5-0.3-0.8-0.6-1c-0.3-0.2-0.8-0.3-1.3-0.3s-1.2,0.1-1.5,0.3c-0.3,0.1-0.4,0.5-0.4,0.8
		c0,0.1,0,0.3,0.1,0.5c0.2,0.1,0.3,0.3,0.6,0.5c0.1,0,0.6,0.1,1.3,0.3c1.1,0.3,1.8,0.5,2.1,0.6c0.4,0.2,0.8,0.5,0.9,0.8
		c0.3,0.3,0.3,0.8,0.3,1.2s-0.2,0.9-0.4,1.4c-0.3,0.4-0.8,0.8-1.2,1c-0.6,0.3-1.2,0.3-1.8,0.3c-1.1,0-2-0.3-2.6-0.8
		C310.4,154.8,310.1,154.1,310,153.2z"/>
</g>
<g>
	<path class="st1" d="M26.3,9.8l1.9,0.5c-0.4,1.7-1.2,2.8-2.3,3.6s-2.4,1.2-3.9,1.2c-1.7,0-2.8-0.3-3.9-0.9c-1-0.6-1.8-1.7-2.3-2.8
		C15.4,10.2,15,8.8,15,7.5c0-1.5,0.3-2.9,0.9-4c0.6-1.2,1.3-2,2.5-2.6S20.7,0,22,0c1.5,0,2.7,0.3,3.8,1.2c1.1,0.9,1.7,1.8,2.1,3.1
		L26,4.9c-0.3-1.1-0.9-1.8-1.5-2.4c-0.6-0.4-1.5-0.8-2.4-0.8c-1.2,0-2.1,0.3-2.8,0.8c-0.8,0.6-1.3,1.2-1.7,2.3
		c-0.3,0.9-0.5,1.8-0.5,2.9c0,1.2,0.2,2.4,0.6,3.3c0.3,0.9,0.9,1.7,1.7,2.1c0.8,0.5,1.7,0.8,2.5,0.8c1.1,0,2-0.3,2.7-0.9
		C25.6,12,26,11.1,26.3,9.8z"/>
	<path class="st1" d="M29.7,9.6c0-2,0.6-3.5,1.7-4.4C32.3,4.4,33.5,4,34.7,4c1.5,0,2.7,0.5,3.6,1.5c0.9,0.9,1.3,2.3,1.3,4.1
		c0,1.3-0.2,2.4-0.6,3.3c-0.5,0.8-1.1,1.3-1.8,1.8c-0.8,0.4-1.7,0.6-2.6,0.6c-1.5,0-2.7-0.4-3.6-1.5S29.7,11.4,29.7,9.6z M31.7,9.6
		c0,1.3,0.3,2.4,0.9,3s1.3,1,2.3,1s1.7-0.3,2.3-1c0.6-0.6,0.9-1.7,0.9-3s-0.3-2.3-0.9-3s-1.3-1-2.3-1s-1.7,0.3-2.3,1
		S31.7,8.3,31.7,9.6z"/>
	<path class="st1" d="M41.9,15V0.3h1.8v5.3c0.9-1.1,2-1.5,3.2-1.5c0.8,0,1.5,0.1,2.1,0.4s1,0.8,1.2,1.4c0.3,0.6,0.4,1.4,0.4,2.4V15
		h-1.8V8.3c0-0.9-0.1-1.5-0.6-1.9c-0.5-0.5-0.9-0.6-1.7-0.6c-0.6,0-1,0.1-1.5,0.4c-0.4,0.3-0.9,0.6-1,1.1c-0.2,0.4-0.3,1.2-0.3,1.9
		V15C43.7,15,41.9,15,41.9,15z"/>
	<path class="st1" d="M52.7,9.6c0-2,0.6-3.5,1.6-4.4C55.2,4.4,56.4,4,57.6,4c1.5,0,2.7,0.5,3.6,1.5c0.9,0.9,1.4,2.3,1.4,4.1
		c0,1.3-0.1,2.4-0.6,3.3c-0.4,0.8-1.1,1.3-1.8,1.8c-0.8,0.4-1.6,0.6-2.6,0.6c-1.5,0-2.7-0.4-3.6-1.5C53.1,12.8,52.7,11.4,52.7,9.6z
		 M54.5,9.6c0,1.3,0.3,2.4,0.9,3s1.4,1,2.3,1s1.6-0.3,2.3-1s0.9-1.8,0.9-3.1s-0.3-2.3-0.9-3c-0.6-0.8-1.4-1-2.3-1s-1.6,0.3-2.3,1
		S54.5,8.3,54.5,9.6z"/>
	<path class="st1" d="M73.2,15L69.3,0.3h1.9l2.3,9.6c0.3,1.1,0.4,2,0.6,3c0.4-1.5,0.6-2.5,0.6-2.7l3-9.9h2.4l2.1,7.5
		c0.6,1.8,0.9,3.6,1.2,5.3c0.1-0.9,0.4-1.9,0.8-3.2l2.2-9.6h1.9L84.2,15h-1.8L79.2,3.8c-0.3-0.9-0.4-1.5-0.4-1.8
		c-0.2,0.8-0.3,1.4-0.3,1.8L75.4,15H73.2z"/>
	<path class="st1" d="M89.9,2.3V0.4h1.8v2.1h-1.8V2.3z M89.9,15V4.3h1.8v10.6C91.7,15,89.9,15,89.9,15z"/>
	<path class="st1" d="M94.5,15V4.3h1.7v1.5C97,4.6,98,4,99.5,4c0.6,0,1.2,0.1,1.8,0.3c0.6,0.3,0.9,0.6,1.2,0.9s0.5,0.8,0.6,1.4
		c0,0.3,0.1,0.9,0.1,1.8V15h-1.8V8.6c0-0.8,0-1.4-0.1-1.7c-0.1-0.3-0.5-0.6-0.8-0.9c-0.3-0.1-0.8-0.3-1.2-0.3c-0.8,0-1.5,0.3-2,0.8
		c-0.6,0.4-0.9,1.4-0.9,2.9v5.8L94.5,15L94.5,15z"/>
	<path class="st1" d="M113.3,11.6l1.8,0.3c-0.3,1-0.9,1.9-1.6,2.5s-1.8,0.9-3,0.9c-1.5,0-2.9-0.4-3.8-1.5c-0.9-0.9-1.4-2.3-1.4-4.1
		s0.5-3.1,1.4-4.2s2.1-1.5,3.6-1.5s2.5,0.4,3.5,1.5c0.9,0.9,1.4,2.4,1.4,4c0,0.1,0,0.3,0,0.5h-8c0,1.2,0.5,2.1,1,2.7
		c0.6,0.6,1.4,0.9,2.3,0.9c0.6,0,1.2-0.2,1.6-0.5C112.5,12.9,113,12.3,113.3,11.6z M107.3,8.6h6c-0.1-0.9-0.3-1.5-0.8-2
		c-0.6-0.8-1.4-1-2.3-1s-1.5,0.3-2.1,0.9C107.7,6.9,107.5,7.7,107.3,8.6z"/>
	<path class="st1" d="M117.4,15V4.3h1.6v1.6c0.5-0.8,0.8-1.2,1.2-1.5c0.3-0.3,0.8-0.3,1.2-0.3c0.6,0,1.2,0.1,1.8,0.6l-0.6,1.5
		c-0.5-0.3-0.9-0.5-1.4-0.5s-0.8,0.1-1,0.3c-0.3,0.3-0.6,0.6-0.6,1.1c-0.1,0.6-0.3,1.4-0.3,2.1v5.5h-2C117.3,14.9,117.3,15,117.4,15
		z"/>
	<path class="st1" d="M124.1,19.1l-0.1-1.7c0.5,0.2,0.8,0.2,1,0.2c0.5,0,0.8,0,0.9-0.2c0.3-0.2,0.5-0.3,0.6-0.6
		c0.1-0.2,0.3-0.6,0.6-1.3c0-0.2,0.1-0.3,0.1-0.4l-4-10.7h2l2.3,6.1c0.3,0.8,0.6,1.7,0.8,2.4c0.1-0.9,0.5-1.7,0.8-2.4l2.3-6.1h1.8
		l-4,10.8c-0.5,1.2-0.8,2-1,2.4c-0.3,0.6-0.8,1.1-1,1.3c-0.5,0.3-0.9,0.5-1.5,0.5C125,19.4,124.5,19.2,124.1,19.1z"/>
	<path class="st1" d="M139.5,10.5V8.7h5.5v1.8H139.5z"/>
	<path class="st1" d="M14.3,17.9v-1.5h131.5v1.5H14.3z"/>
</g>
<g class="st0">
	<path class="st1" d="M145.8,17.9v-1.5h4.5v1.5H145.8z"/>
</g>
<g class="st0">
	<path class="st1" d="M150.3,15L156,0.3h2.1l6,14.7h-2.2l-1.7-4.5h-6.1l-1.6,4.5H150.3z M154.5,8.9h5l-1.5-4c-0.5-1.2-0.8-2.3-1-3
		c-0.1,0.9-0.5,1.9-0.8,2.8L154.5,8.9z"/>
	<path class="st1" d="M165.3,15V0.3h1.8V15H165.3z"/>
	<path class="st1" d="M170,15V0.3h1.8V15H170z"/>
	<path class="st1" d="M180.3,15V4.3h1.7v1.6c0.5-0.8,0.8-1.2,1.2-1.5c0.3-0.3,0.8-0.3,1.2-0.3c0.6,0,1.2,0.1,1.8,0.6l-0.8,1.5
		c-0.5-0.3-0.9-0.5-1.4-0.5c-0.4,0-0.8,0.1-1,0.3c-0.3,0.3-0.6,0.6-0.6,1c-0.1,0.6-0.3,1.4-0.3,2.1v5.6h-1.8
		C180.4,14.9,180.4,15,180.3,15z"/>
	<path class="st1" d="M194.5,11.6l1.8,0.3c-0.3,1-0.9,1.9-1.7,2.5s-1.8,0.9-3,0.9c-1.5,0-2.8-0.4-3.8-1.5c-0.9-0.9-1.3-2.3-1.3-4.1
		s0.4-3.1,1.3-4.2s2.1-1.5,3.6-1.5s2.5,0.4,3.5,1.5c0.9,0.9,1.3,2.4,1.3,4c0,0.1,0,0.3,0,0.5h-8c0,1.2,0.5,2.1,1,2.7
		c0.6,0.6,1.4,0.9,2.3,0.9c0.6,0,1.2-0.2,1.7-0.5C193.8,12.9,194.2,12.3,194.5,11.6z M188.6,8.6h6c-0.2-0.9-0.3-1.5-0.8-2
		c-0.6-0.8-1.3-1-2.3-1c-0.9,0-1.5,0.3-2.1,0.9C188.9,6.9,188.6,7.7,188.6,8.6z"/>
	<path class="st1" d="M205.5,15v-1.3c-0.8,1-1.7,1.7-3,1.7c-0.9,0-1.7-0.3-2.4-0.8c-0.8-0.5-1.2-1.1-1.7-2s-0.6-1.8-0.6-2.8
		s0.2-2.1,0.6-2.9c0.3-0.9,0.9-1.5,1.7-1.9c0.8-0.5,1.5-0.8,2.4-0.8c0.6,0,1.2,0.1,1.7,0.5c0.4,0.3,0.9,0.6,1.2,1V0.3h1.8V15H205.5z
		 M199.8,9.6c0,1.3,0.3,2.4,0.9,3c0.6,0.8,1.2,1,2.1,1c0.8,0,1.5-0.3,2-0.9c0.6-0.6,0.9-1.7,0.9-3c0-1.5-0.3-2.6-0.9-3.2
		c-0.6-0.8-1.2-1-2.1-1c-0.8,0-1.5,0.3-2,1S199.8,8.3,199.8,9.6z"/>
	<path class="st1" d="M217.7,15l-3.3-10.7h1.8l1.7,6.1l0.6,2.3c0-0.2,0.2-0.9,0.6-2.3l1.7-6.3h1.8l1.6,6.2l0.6,2.1l0.6-2.1l1.8-6.2
		h1.8l-3.3,10.7h-1.9l-1.7-6.4l-0.4-1.8l-2.1,8.2L217.7,15L217.7,15z"/>
	<path class="st1" d="M230.6,2.3V0.4h1.8v2.1h-1.8V2.3z M230.6,15V4.3h1.8v10.6C232.4,15,230.6,15,230.6,15z"/>
	<path class="st1" d="M235.3,15V4.3h1.6v1.5c0.8-1.2,2-1.8,3.5-1.8c0.6,0,1.2,0.1,1.8,0.3c0.6,0.3,0.9,0.6,1.2,0.9s0.5,0.8,0.6,1.4
		c0,0.3,0.2,0.9,0.2,1.8V15h-1.8V8.6c0-0.8,0-1.4-0.2-1.7c-0.1-0.3-0.4-0.6-0.8-0.9c-0.3-0.1-0.8-0.3-1.2-0.3
		c-0.8,0-1.5,0.3-1.9,0.8c-0.6,0.5-0.9,1.4-0.9,2.9v5.8L235.3,15L235.3,15z"/>
	<path class="st1" d="M254,11.6l1.8,0.3c-0.3,1-0.9,1.9-1.7,2.5s-1.8,0.9-3,0.9c-1.5,0-2.8-0.4-3.8-1.5c-0.9-0.9-1.3-2.3-1.3-4.1
		s0.5-3.1,1.3-4.2c0.9-1.1,2.1-1.5,3.6-1.5s2.5,0.4,3.5,1.5c0.9,1,1.3,2.4,1.3,4c0,0.1,0,0.3,0,0.5h-7.8c0,1.2,0.4,2.1,1,2.7
		s1.3,0.9,2.3,0.9c0.6,0,1.2-0.2,1.7-0.5C253.4,12.9,253.7,12.3,254,11.6z M248,8.6h6c-0.2-0.9-0.3-1.5-0.8-2c-0.6-0.8-1.4-1-2.3-1
		c-0.9,0-1.5,0.3-2.1,0.9C248.5,6.9,248.2,7.7,248,8.6z"/>
	<path class="st1" d="M257.5,11.9l1.8-0.3c0.1,0.8,0.4,1.2,0.9,1.7s1.1,0.6,2,0.6s1.5-0.2,1.8-0.4c0.5-0.3,0.6-0.8,0.6-1.2
		s-0.2-0.8-0.6-0.9c-0.3-0.2-0.9-0.3-1.8-0.6c-1.3-0.3-2.3-0.6-2.7-0.9s-0.9-0.6-1.2-1.1c-0.3-0.4-0.4-0.9-0.4-1.5
		c0-0.4,0.1-0.9,0.3-1.4c0.2-0.4,0.5-0.8,0.9-1c0.3-0.1,0.6-0.5,1.2-0.6c0.5-0.1,1.1-0.1,1.5-0.1c0.9,0,1.5,0.1,2.3,0.3
		c0.8,0.2,1.1,0.6,1.4,1.1c0.3,0.4,0.4,0.9,0.6,1.6l-1.8,0.3c-0.2-0.6-0.3-1-0.8-1.4c-0.5-0.3-0.9-0.5-1.7-0.5
		c-0.9,0-1.3,0.2-1.8,0.5c-0.3,0.3-0.6,0.6-0.6,0.9s0,0.5,0.1,0.6c0.2,0.1,0.5,0.3,0.8,0.5c0.2,0,0.8,0.1,1.7,0.5
		c1.3,0.3,2.1,0.6,2.7,0.9c0.6,0.3,0.9,0.6,1.2,0.9c0.3,0.5,0.5,0.9,0.5,1.5s-0.2,1.2-0.6,1.7c-0.3,0.6-0.9,0.9-1.5,1.2
		s-1.3,0.5-2.3,0.5c-1.3,0-2.4-0.3-3.2-0.9C258,13.8,257.6,12.9,257.5,11.9z"/>
	<path class="st1" d="M273.5,9.6c0-2,0.6-3.5,1.6-4.4c0.9-0.8,2.1-1.2,3.3-1.2c1.5,0,2.7,0.5,3.6,1.5c0.9,0.9,1.3,2.3,1.3,4.1
		c0,1.3-0.2,2.4-0.6,3.3c-0.5,0.8-1,1.3-1.8,1.8c-0.8,0.4-1.7,0.6-2.6,0.6c-1.5,0-2.7-0.5-3.6-1.5S273.5,11.4,273.5,9.6z M275.3,9.6
		c0,1.3,0.3,2.4,0.9,3s1.3,1,2.3,1s1.7-0.3,2.3-1s0.9-1.8,0.9-3.1s-0.3-2.3-0.9-3c-0.6-0.8-1.3-1-2.3-1s-1.7,0.3-2.3,1
		S275.3,8.3,275.3,9.6z"/>
	<path class="st1" d="M285.5,15V4.3h1.6v1.5c0.8-1.2,2-1.8,3.5-1.8c0.6,0,1.2,0.1,1.8,0.3c0.6,0.3,0.9,0.6,1.2,0.9
		c0.3,0.3,0.5,0.8,0.6,1.4c0,0.3,0.2,0.9,0.2,1.8V15h-1.8V8.6c0-0.8,0-1.4-0.2-1.7c-0.1-0.3-0.4-0.6-0.8-0.9
		c-0.3-0.1-0.8-0.3-1.2-0.3c-0.8,0-1.5,0.3-1.9,0.8c-0.6,0.5-0.9,1.4-0.9,2.9v5.8L285.5,15L285.5,15z"/>
	<path class="st1" d="M302,11.9l1.8-0.3c0.2,0.8,0.5,1.2,0.9,1.7s1.1,0.6,1.9,0.6c0.9,0,1.5-0.2,1.8-0.4c0.4-0.3,0.6-0.8,0.6-1.2
		s-0.2-0.8-0.6-0.9c-0.3-0.2-0.9-0.3-1.8-0.6c-1.3-0.3-2.3-0.6-2.7-0.9s-0.9-0.6-1.2-1.1c-0.3-0.4-0.5-0.9-0.5-1.5
		c0-0.4,0.2-0.9,0.3-1.4c0.2-0.4,0.5-0.8,0.9-1c0.3-0.1,0.6-0.5,1.2-0.6c0.4-0.1,1.1-0.1,1.5-0.1c0.9,0,1.5,0.1,2.3,0.3
		c0.8,0.2,1.1,0.6,1.3,1.1c0.3,0.4,0.5,0.9,0.6,1.6l-1.8,0.3c-0.1-0.6-0.3-1-0.8-1.4c-0.4-0.3-0.9-0.5-1.6-0.5
		c-0.9,0-1.4,0.2-1.8,0.5c-0.3,0.3-0.6,0.6-0.6,0.9s0,0.5,0.2,0.6s0.4,0.3,0.8,0.5c0.2,0,0.8,0.1,1.7,0.5c1.3,0.3,2.1,0.6,2.7,0.9
		c0.6,0.3,0.9,0.6,1.2,0.9c0.3,0.5,0.4,0.9,0.4,1.5s-0.1,1.2-0.6,1.7c-0.3,0.6-0.9,0.9-1.5,1.2s-1.4,0.5-2.3,0.5
		c-1.4,0-2.4-0.3-3.2-0.9C302.6,13.8,302.2,12.9,302,11.9z"/>
	<path class="st1" d="M320,13.7c-0.6,0.6-1.4,0.9-2,1.2s-1.3,0.3-2,0.3c-1.2,0-2.1-0.3-2.7-0.9c-0.6-0.6-0.9-1.3-0.9-2.3
		c0-0.4,0.2-1,0.3-1.5c0.3-0.5,0.6-0.8,0.9-1.1c0.4-0.3,0.8-0.4,1.3-0.6c0.3-0.1,0.9-0.1,1.7-0.3c1.5-0.1,2.5-0.5,3.3-0.6
		c0-0.3,0-0.4,0-0.4c0-0.8-0.2-1.2-0.5-1.5c-0.4-0.5-1.2-0.6-2.1-0.6s-1.5,0.1-2,0.4s-0.8,0.9-0.9,1.7l-1.8-0.3
		c0.2-0.8,0.5-1.4,0.8-1.8c0.3-0.5,0.9-0.8,1.7-1c0.8-0.2,1.5-0.5,2.4-0.5s1.7,0.1,2.3,0.3c0.6,0.1,1.1,0.5,1.2,0.8
		c0.2,0.3,0.5,0.8,0.6,1.2c0,0.3,0.2,0.9,0.2,1.6v2.4c0,1.7,0,2.7,0.2,3.1c0.2,0.5,0.3,0.9,0.4,1.3h-1.9
		C320.2,14.6,320,14.1,320,13.7z M319.8,9.6c-0.6,0.3-1.6,0.5-3,0.8c-0.8,0.1-1.2,0.3-1.6,0.3c-0.3,0.2-0.6,0.3-0.8,0.6
		c-0.2,0.3-0.3,0.6-0.3,0.9c0,0.5,0.2,0.9,0.6,1.2c0.3,0.3,0.9,0.4,1.7,0.4c0.8,0,1.3-0.2,1.8-0.4c0.6-0.3,0.9-0.8,1.2-1.2
		c0.2-0.4,0.3-1,0.3-1.8L319.8,9.6L319.8,9.6z"/>
	<path class="st1" d="M324.5,15V0.3h1.8V15H324.5z"/>
	<path class="st1" d="M336.3,11.6l1.8,0.3c-0.3,1-0.9,1.9-1.7,2.5s-1.8,0.9-3,0.9c-1.5,0-2.8-0.4-3.8-1.5c-0.9-0.9-1.3-2.3-1.3-4.1
		s0.4-3.1,1.3-4.2s2.1-1.5,3.6-1.5s2.6,0.4,3.5,1.5c0.9,1,1.4,2.4,1.4,4c0,0.1,0,0.3,0,0.5h-8c0,1.2,0.5,2.1,1,2.7
		c0.6,0.6,1.4,0.9,2.3,0.9c0.6,0,1.2-0.2,1.7-0.5C335.8,12.9,336,12.3,336.3,11.6z M330.3,8.6h6c-0.1-0.9-0.3-1.5-0.8-2
		c-0.6-0.8-1.3-1-2.3-1c-0.9,0-1.5,0.3-2.1,0.9C330.8,6.9,330.5,7.7,330.3,8.6z"/>
	<path class="st1" d="M341.4,11.3l-0.6-7.8V0.4h2.3v3.3l-0.5,7.8L341.4,11.3L341.4,11.3z M341,15v-2.1h2.1V15H341z"/>
	<path class="st1" d="M150.3,17.9v-1.5h194.4v1.5H150.3z"/>
</g>
<g class="st0">
	<path class="st2" d="M44.1,38.3l1.3,0.2c-0.2,1.1-0.6,1.8-1.2,2.3c-0.6,0.6-1.5,0.9-2.4,0.9c-1.2,0-2.1-0.4-2.8-1.2
		s-1.1-1.8-1.1-3.3c0-0.9,0.2-1.8,0.4-2.4c0.3-0.6,0.8-1.2,1.4-1.5c0.7-0.4,1.4-0.6,2.2-0.6c0.9,0,1.7,0.3,2.3,0.8s0.9,1.2,1.2,1.9
		l-1.3,0.2c-0.2-0.6-0.3-1.1-0.8-1.3c-0.3-0.3-0.8-0.4-1.2-0.4c-0.7,0-1.4,0.3-1.8,0.8s-0.8,1.3-0.8,2.5s0.2,1.9,0.6,2.6
		c0.5,0.6,1.1,0.8,1.7,0.8s1.1-0.2,1.3-0.4C43.8,39.6,44.1,39,44.1,38.3z"/>
	<path class="st2" d="M46.4,37.2c0-1.7,0.4-2.7,1.3-3.4c0.8-0.6,1.6-0.9,2.7-0.9c1.2,0,2.1,0.4,2.9,1.2c0.8,0.8,1.1,1.8,1.1,3.2
		c0,1.1-0.1,1.9-0.4,2.6c-0.3,0.6-0.8,1.1-1.5,1.5s-1.4,0.4-2.1,0.4c-1.2,0-2.1-0.4-2.9-1.2C46.7,39.8,46.4,38.6,46.4,37.2z
		 M47.7,37.2c0,1.1,0.3,1.9,0.8,2.4c0.4,0.6,1.1,0.8,1.8,0.8s1.4-0.3,1.8-0.8c0.4-0.6,0.8-1.3,0.8-2.6c0-1.1-0.3-1.8-0.8-2.4
		s-1.1-0.8-1.8-0.8s-1.4,0.4-1.8,0.9C48,35.3,47.7,36,47.7,37.2z"/>
	<path class="st2" d="M56,41.4V29.6h1.5v4.2c0.8-0.8,1.5-1.2,2.6-1.2c0.6,0,1.2,0.2,1.6,0.3c0.4,0.1,0.8,0.6,1.1,1.1
		c0.1,0.4,0.3,1.1,0.3,1.9v5.4h-1.5v-5.4c0-0.8-0.1-1.2-0.4-1.7c-0.3-0.3-0.8-0.4-1.4-0.4c-0.4,0-0.9,0.2-1.2,0.3S58,34.5,57.8,35
		s-0.3,1-0.3,1.8v4.7L56,41.4L56,41.4z"/>
	<path class="st2" d="M64.7,37.2c0-1.7,0.4-2.7,1.4-3.4c0.8-0.6,1.6-0.9,2.7-0.9s2.1,0.4,2.8,1.2c0.7,0.8,1.1,1.8,1.1,3.2
		c0,1.1-0.1,1.9-0.4,2.6c-0.3,0.6-0.8,1.1-1.5,1.5s-1.4,0.3-2.2,0.3c-1.2,0-2.1-0.4-2.9-1.2C65,39.8,64.7,38.6,64.7,37.2z
		 M66.2,37.2c0,1.1,0.3,1.9,0.8,2.4c0.4,0.6,1.1,0.8,1.8,0.8c0.7,0,1.4-0.3,1.8-0.8c0.4-0.6,0.8-1.3,0.8-2.6c0-1.1-0.3-1.8-0.8-2.4
		s-1.1-0.8-1.8-0.8s-1.4,0.4-1.9,0.9C66.4,35.3,66.2,36,66.2,37.2z"/>
	<path class="st2" d="M75.9,41.4l-2.6-8.5h1.6l1.4,4.9l0.4,1.8c0-0.2,0.1-0.8,0.4-1.8l1.4-4.9H80l1.4,4.9l0.4,1.7l0.4-1.7l1.5-4.9
		h1.4l-2.7,8.6h-1.5l-1.4-5.2l-0.3-1.5l-1.8,6.6C77.4,41.4,75.9,41.4,75.9,41.4z"/>
	<path class="st2" d="M86.3,31.4v-1.7h1.5v1.7H86.3z M86.3,41.4v-8.5h1.5v8.6C87.8,41.4,86.3,41.4,86.3,41.4z"/>
	<path class="st2" d="M89.9,41.4v-8.5h1.4v1.2c0.6-0.9,1.4-1.4,2.6-1.4c0.4,0,1.1,0.2,1.3,0.3c0.5,0.2,0.8,0.4,0.9,0.8
		s0.3,0.6,0.5,1.1c0,0.3,0.1,0.8,0.1,1.3v5.3h-1.5v-5.3c0-0.6,0-1.1-0.1-1.3c-0.1-0.3-0.3-0.4-0.6-0.8s-0.6-0.3-1-0.3
		c-0.6,0-1.2,0.2-1.6,0.6c-0.4,0.4-0.6,1.2-0.6,2.3v4.7L89.9,41.4L89.9,41.4z"/>
	<path class="st2" d="M104.9,38.7l1.5,0.2c-0.3,0.9-0.6,1.5-1.4,2.1c-0.6,0.4-1.5,0.8-2.4,0.8c-1.2,0-2.3-0.4-3-1.2s-1-1.8-1-3.3
		s0.3-2.6,1-3.3s1.7-1.3,2.9-1.3c1.2,0,2.1,0.4,2.9,1.2s1,1.8,1,3.3c0,0.2,0,0.2,0,0.4h-6.3c0,0.9,0.3,1.7,0.8,2.1
		c0.5,0.4,1,0.8,1.8,0.8c0.6,0,1-0.2,1.4-0.4C104.5,39.8,104.7,39.3,104.9,38.7z M100.1,36.3h4.8c0-0.8-0.3-1.2-0.6-1.7
		c-0.5-0.6-1-0.9-1.8-0.9c-0.6,0-1.2,0.2-1.6,0.6C100.4,35,100.2,35.6,100.1,36.3z"/>
	<path class="st2" d="M108.2,41.4v-8.5h1.4v1.3c0.3-0.6,0.6-1.1,0.9-1.2c0.2-0.1,0.6-0.3,0.9-0.3c0.5,0,1,0.2,1.5,0.4l-0.5,1.3
		c-0.3-0.2-0.8-0.3-1-0.3s-0.6,0.2-0.9,0.3s-0.5,0.6-0.6,0.9c-0.1,0.4-0.3,1.1-0.3,1.7v4.5h-1.4V41.4z"/>
</g>
<g class="st0">
	<path class="st2" d="M113.6,44.7l-0.1-1.3c0.3,0.1,0.6,0.1,0.9,0.1s0.6,0,0.8-0.1c0.1-0.2,0.3-0.3,0.5-0.4c0.1-0.2,0.3-0.4,0.5-1.1
		c0-0.2,0-0.2,0.1-0.3l-3.4-8.6h1.5l1.8,4.9c0.3,0.6,0.5,1.3,0.6,1.9c0.1-0.6,0.3-1.3,0.6-1.9l1.8-4.9h1.5l-3.2,8.6
		c-0.3,0.9-0.6,1.7-0.8,1.9c-0.3,0.4-0.6,0.9-0.9,1.1c-0.3,0.1-0.8,0.3-1.2,0.3C114.4,44.9,113.9,44.9,113.6,44.7z"/>
</g>
<g class="st0">
	<path class="st2" d="M121.1,41.4v-1.7h1.6v1.7H121.1z"/>
	<path class="st2" d="M130.9,38.3l1.4,0.2c-0.1,1.1-0.6,1.8-1.2,2.3c-0.6,0.6-1.5,0.9-2.4,0.9c-1.2,0-2.1-0.4-2.9-1.2s-1-1.8-1-3.3
		c0-0.9,0.1-1.8,0.5-2.4c0.4-0.6,0.8-1.2,1.4-1.5s1.2-0.6,1.9-0.6c0.9,0,1.6,0.3,2.3,0.8s0.9,1.2,1.2,1.9l-1.4,0.2
		c-0.1-0.6-0.3-1.1-0.8-1.3c-0.3-0.3-0.8-0.4-1.2-0.4c-0.8,0-1.4,0.3-1.8,0.8s-0.8,1.3-0.8,2.6c0,1.2,0.1,1.9,0.6,2.6s1,0.8,1.6,0.8
		c0.6,0,1-0.2,1.4-0.4C130.5,39.6,130.7,39,130.9,38.3z"/>
	<path class="st2" d="M133,37.2c0-1.7,0.5-2.7,1.4-3.4c0.8-0.6,1.6-0.9,2.7-0.9c1.2,0,2.1,0.4,2.9,1.2s1,1.8,1,3.2
		c0,1.1-0.2,1.9-0.5,2.6c-0.3,0.6-0.8,1.1-1.5,1.5s-1.4,0.3-2.1,0.3c-1.2,0-2.1-0.4-2.9-1.2C133.4,39.8,133,38.6,133,37.2z
		 M134.5,37.2c0,1.1,0.3,1.9,0.8,2.4c0.5,0.6,1,0.8,1.8,0.8s1.3-0.3,1.8-0.8c0.5-0.6,0.8-1.3,0.8-2.6c0-1.1-0.3-1.8-0.8-2.4
		s-1-0.8-1.8-0.8s-1.5,0.4-1.9,0.9C134.7,35.3,134.5,36,134.5,37.2z"/>
	<path class="st2" d="M142.7,41.4v-8.5h1.4v1.2c0.3-0.4,0.6-0.8,1-1.1c0.5-0.3,0.9-0.4,1.5-0.4s1.2,0.2,1.5,0.4
		c0.3,0.3,0.8,0.6,0.9,1.1c0.8-1.1,1.5-1.5,2.7-1.5c0.9,0,1.5,0.3,2,0.8s0.8,1.2,0.8,2.1v5.8h-1.6v-5.4c0-0.6,0-1.1-0.2-1.2
		c-0.1-0.3-0.3-0.4-0.4-0.6c-0.3-0.2-0.6-0.3-0.9-0.3c-0.6,0-1,0.2-1.5,0.6c-0.5,0.4-0.6,1.1-0.6,1.9v4.9h-1.5v-5.5
		c0-0.6-0.2-1.2-0.3-1.5c-0.3-0.3-0.6-0.4-1.2-0.4c-0.5,0-0.8,0.2-1.2,0.3c-0.4,0.2-0.6,0.8-0.8,1.2c-0.1,0.4-0.3,1.1-0.3,1.8v4.5
		h-1.4v-0.2C142.6,41.4,142.7,41.4,142.7,41.4z"/>
	<path class="st2" d="M160.4,38v-1.5h4.5V38H160.4z"/>
	<path class="st2" d="M170.7,35.7c0-1.9,0.6-3.4,1.7-4.7c1-1.1,2.4-1.7,4-1.7c1.1,0,2.1,0.3,3,0.8c0.9,0.4,1.5,1.2,2,2.2
		c0.4,0.9,0.8,1.9,0.8,3.2c0,1.2-0.3,2.3-0.8,3.2s-1.2,1.7-2.1,2.1s-1.8,0.8-2.9,0.8c-1,0-2.1-0.3-3-0.8c-0.9-0.4-1.5-1.2-1.9-2.3
		C171,37.7,170.7,36.8,170.7,35.7z M172.4,35.7c0,1.3,0.4,2.6,1.2,3.3s1.7,1.2,2.9,1.2s2.1-0.4,2.9-1.2c0.8-0.8,1.2-1.9,1.2-3.4
		c0-0.9-0.1-1.8-0.4-2.6c-0.3-0.8-0.8-1.2-1.4-1.7c-0.6-0.5-1.4-0.6-2.1-0.6c-1,0-2.1,0.4-2.8,1.2S172.4,33.9,172.4,35.7z"/>
</g>
<g class="st0">
	<path class="st2" d="M184.2,41.4v-7.3h-1.3v-1.2h1.3V32c0-0.6,0-1.1,0.2-1.3c0.1-0.3,0.4-0.8,0.8-0.9c0.3-0.2,0.9-0.3,1.5-0.3
		c0.4,0,0.9,0,1.3,0.2l-0.2,1.2c-0.3,0-0.6-0.2-0.9-0.2c-0.5,0-0.8,0.2-0.9,0.3c-0.2,0.2-0.3,0.6-0.3,1.1v0.6h1.7v1.2h-1.7v7.3h-1.5
		C184.3,41.3,184.3,41.4,184.2,41.4z"/>
</g>
<g class="st0">
	<path class="st2" d="M188.5,41.4v-7.3h-1.4v-1.2h1.4V32c0-0.6,0-1.1,0.1-1.3c0.2-0.3,0.5-0.8,0.8-0.9c0.3-0.3,0.9-0.3,1.5-0.3
		c0.4,0,0.9,0,1.4,0.2l-0.2,1.2c-0.3,0-0.6-0.2-0.9-0.2c-0.5,0-0.8,0.2-0.9,0.3c-0.2,0.2-0.3,0.6-0.3,1.1v0.6h1.7v1.2h-1.8v7.3h-1.5
		C188.4,41.3,188.4,41.4,188.5,41.4z"/>
	<path class="st2" d="M192.7,31.4v-1.7h1.5v1.7H192.7z M192.7,41.4v-8.5h1.5v8.6C194.2,41.4,192.7,41.4,192.7,41.4z"/>
	<path class="st2" d="M202,38.3l1.3,0.2c-0.2,1.1-0.6,1.8-1.2,2.3c-0.6,0.6-1.5,0.9-2.4,0.9c-1.2,0-2.1-0.4-2.8-1.2s-1-1.8-1-3.3
		c0-0.9,0.2-1.8,0.5-2.4s0.8-1.2,1.3-1.5s1.2-0.6,2-0.6c0.9,0,1.7,0.3,2.3,0.8c0.6,0.4,0.9,1.2,1.2,1.9l-1.3,0.2
		c-0.2-0.6-0.3-1.1-0.8-1.3c-0.3-0.3-0.8-0.4-1.2-0.4c-0.8,0-1.3,0.3-1.8,0.8s-0.8,1.3-0.8,2.6c0,1.2,0.2,1.9,0.6,2.6s1,0.8,1.7,0.8
		c0.6,0,1-0.2,1.3-0.4C201.7,39.6,201.8,39,202,38.3z"/>
	<path class="st2" d="M204.7,31.4v-1.7h1.5v1.7H204.7z M204.7,41.4v-8.5h1.5v8.6C206.2,41.4,204.7,41.4,204.7,41.4z"/>
	<path class="st2" d="M213.8,40.4c-0.6,0.4-1,0.8-1.5,0.9c-0.5,0.1-1,0.3-1.7,0.3c-0.9,0-1.7-0.3-2.1-0.8c-0.4-0.5-0.8-1.1-0.8-1.8
		c0-0.4,0.2-0.8,0.3-1.2c0.2-0.3,0.5-0.6,0.8-0.9c0.3-0.2,0.6-0.3,1.1-0.4c0.3,0,0.8-0.2,1.3-0.2c1.2-0.2,2.1-0.3,2.5-0.4
		c0-0.2,0-0.3,0-0.4c0-0.6-0.1-1.1-0.4-1.2c-0.3-0.3-0.9-0.4-1.7-0.4s-1.2,0.2-1.5,0.3s-0.6,0.6-0.8,1.2l-1.3-0.2
		c0.2-0.6,0.3-1.1,0.6-1.5c0.3-0.3,0.8-0.6,1.3-0.9c0.6-0.2,1.2-0.3,1.9-0.3s1.4,0.2,1.8,0.3c0.4,0.1,0.8,0.4,1.1,0.6
		c0.1,0.3,0.3,0.6,0.4,1.1c0,0.3,0,0.8,0,1.3v2.1c0,1.3,0,2.3,0.2,2.6s0.2,0.8,0.3,1.1h-1.5C214,41.1,213.8,40.8,213.8,40.4z
		 M213.7,37.2c-0.6,0.2-1.3,0.4-2.4,0.6c-0.6,0.2-1.1,0.2-1.2,0.3c-0.3,0.2-0.5,0.3-0.6,0.4s-0.2,0.4-0.2,0.8c0,0.4,0.2,0.8,0.5,0.9
		c0.3,0.2,0.8,0.4,1.3,0.4c0.6,0,1.1-0.2,1.5-0.3c0.5-0.3,0.8-0.6,0.9-1.1c0.1-0.3,0.3-0.8,0.3-1.5L213.7,37.2L213.7,37.2z"/>
	<path class="st2" d="M217.4,41.4V29.6h1.5v11.8H217.4z"/>
	<path class="st2" d="M225,38.9l1.5-0.3c0.2,0.6,0.3,1.1,0.6,1.3c0.3,0.3,0.9,0.4,1.5,0.4s1.2-0.2,1.5-0.4s0.4-0.6,0.4-0.9
		s-0.1-0.6-0.4-0.8c-0.2-0.2-0.8-0.3-1.5-0.4c-1.1-0.3-1.8-0.4-2.3-0.8c-0.4-0.2-0.8-0.4-0.9-0.8c-0.1-0.4-0.3-0.8-0.3-1.2
		s0.1-0.8,0.3-1.1s0.5-0.6,0.8-0.8c0.2-0.2,0.6-0.3,0.9-0.4c0.3-0.1,0.8,0,1.2,0c0.6,0,1.2,0.2,1.8,0.3c0.4,0.2,0.9,0.4,1.1,0.8
		c0.3,0.3,0.4,0.8,0.4,1.3l-1.3,0.2c0-0.4-0.3-0.8-0.6-1.1s-0.8-0.3-1.3-0.3s-1.2,0.2-1.3,0.3c-0.3,0.2-0.4,0.4-0.4,0.8
		c0,0.2,0,0.3,0.1,0.4c0.2,0.2,0.3,0.3,0.6,0.4c0.1,0,0.6,0.2,1.3,0.3c1.1,0.3,1.8,0.4,2.1,0.6c0.4,0.2,0.8,0.4,0.9,0.8
		c0.2,0.3,0.3,0.8,0.3,1.2s-0.2,0.9-0.4,1.3c-0.3,0.4-0.8,0.8-1.2,1.1s-1.2,0.3-1.8,0.3c-1.1,0-2-0.3-2.6-0.8
		C225.7,40.5,225.2,39.8,225,38.9z"/>
	<path class="st2" d="M233.9,31.4v-1.7h1.5v1.7H233.9z M233.9,41.4v-8.5h1.5v8.6C235.4,41.4,233.9,41.4,233.9,41.4z"/>
	<path class="st2" d="M240.7,40.1l0.2,1.3c-0.5,0.2-0.8,0.2-1.1,0.2c-0.6,0-0.9-0.2-1.2-0.3c-0.3-0.2-0.5-0.4-0.6-0.6
		c-0.1-0.2-0.1-0.9-0.1-1.7v-4.9h-1.1v-1.2h1.1v-2.1l1.5-0.9v3h1.5v1.2h-1.5V39c0,0.4,0,0.8,0.1,0.8c0,0.2,0.2,0.2,0.3,0.3
		c0.2,0,0.3,0.2,0.4,0.2C240.2,40.2,240.5,40.2,240.7,40.1z"/>
	<path class="st2" d="M248,38.7l1.5,0.2c-0.3,0.9-0.6,1.5-1.4,2.1c-0.6,0.4-1.5,0.8-2.4,0.8c-1.2,0-2.3-0.4-3-1.2s-1.1-1.8-1.1-3.3
		s0.3-2.6,1.1-3.3s1.6-1.2,2.8-1.2s2.1,0.4,2.9,1.2c0.8,0.8,1,1.8,1,3.3c0,0.2,0,0.2,0,0.4h-6.3c0,0.9,0.3,1.7,0.8,2.1
		c0.4,0.4,1,0.8,1.8,0.8c0.6,0,1-0.2,1.3-0.4C247.4,39.8,247.7,39.3,248,38.7z M243.2,36.3h4.8c0-0.8-0.3-1.2-0.6-1.7
		c-0.4-0.6-1-0.9-1.8-0.9c-0.6,0-1.2,0.2-1.7,0.6C243.5,35,243.2,35.6,243.2,36.3z"/>
</g>
<g class="st0">
	<path class="st3" d="M260.2,37.7l1.5-0.2c0,0.6,0.3,1.1,0.5,1.5s0.6,0.8,1.2,0.9c0.6,0.2,1.2,0.3,1.8,0.3s1-0.2,1.7-0.3
		s0.8-0.4,1.1-0.8c0.3-0.3,0.3-0.6,0.3-1.1c0-0.3-0.2-0.8-0.3-0.9c-0.2-0.3-0.6-0.4-1.1-0.8c-0.3-0.2-1.1-0.3-2.1-0.6
		s-1.8-0.4-2.3-0.8c-0.6-0.3-1-0.6-1.2-1.1c-0.3-0.4-0.4-0.9-0.4-1.5c0-0.6,0.2-1.2,0.4-1.7c0.3-0.4,0.9-0.9,1.5-1.2
		s1.4-0.4,2.1-0.4c0.9,0,1.6,0.2,2.3,0.4c0.6,0.3,1.2,0.8,1.5,1.2c0.3,0.4,0.6,1.2,0.6,1.8l-1.5,0.2c-0.1-0.8-0.3-1.3-0.8-1.7
		c-0.4-0.4-1.2-0.6-2.1-0.6s-1.7,0.2-2.1,0.4c-0.4,0.3-0.6,0.8-0.6,1.2s0.1,0.8,0.4,1.1s1.1,0.6,2.4,0.9c1.2,0.3,2.1,0.6,2.5,0.8
		c0.8,0.3,1.2,0.8,1.5,1.2s0.5,1.1,0.5,1.7s-0.2,1.2-0.6,1.8c-0.3,0.6-0.9,1.1-1.5,1.3c-0.6,0.3-1.5,0.4-2.3,0.4
		c-1.1,0-1.9-0.2-2.7-0.4c-0.8-0.3-1.4-0.8-1.7-1.3C260.3,39.2,260.2,38.4,260.2,37.7z"/>
	<path class="st3" d="M271.4,31.4v-1.7h1.5v1.7H271.4z M271.4,41.4v-8.5h1.5v8.6C272.9,41.4,271.4,41.4,271.4,41.4z"/>
	<path class="st3" d="M278.3,40.1l0.2,1.3c-0.4,0.2-0.8,0.2-1.1,0.2c-0.6,0-0.9-0.2-1.2-0.3c-0.3-0.1-0.4-0.4-0.6-0.6
		c-0.2-0.3-0.2-0.9-0.2-1.7v-4.9h-1.1v-1.2h1.1v-2.1l1.5-0.9v3h1.5v1.2h-1.5V39c0,0.4,0,0.8,0.2,0.8c0,0.2,0.2,0.2,0.3,0.3
		c0.2,0,0.3,0.2,0.5,0.2C277.7,40.2,278,40.2,278.3,40.1z"/>
	<path class="st3" d="M285.5,38.7l1.5,0.2c-0.3,0.9-0.6,1.5-1.4,2.1c-0.6,0.4-1.5,0.8-2.4,0.8c-1.2,0-2.3-0.4-3-1.2
		s-1.1-1.8-1.1-3.3s0.3-2.6,1.1-3.3c0.8-0.7,1.7-1.3,2.9-1.3c1.2,0,2.1,0.4,2.9,1.2s1,1.8,1,3.3c0,0.2,0,0.2,0,0.4h-6.3
		c0,0.9,0.3,1.7,0.8,2.1c0.4,0.4,1,0.8,1.8,0.8c0.6,0,1-0.2,1.3-0.4C284.9,39.8,285.2,39.3,285.5,38.7z M280.7,36.3h4.8
		c0-0.8-0.3-1.2-0.6-1.7c-0.4-0.6-1-0.9-1.8-0.9c-0.6,0-1.2,0.2-1.7,0.6C281,35,280.8,35.6,280.7,36.3z"/>
	<path class="st3" d="M292.8,38.9l1.5-0.3c0.2,0.6,0.3,1.1,0.6,1.3c0.3,0.3,0.9,0.4,1.5,0.4s1.2-0.2,1.5-0.4
		c0.3-0.3,0.4-0.6,0.4-0.9s-0.2-0.6-0.4-0.8c-0.2-0.2-0.8-0.3-1.5-0.4c-1.1-0.3-1.8-0.4-2.3-0.8c-0.5-0.2-0.8-0.4-0.9-0.8
		c-0.1-0.3-0.3-0.8-0.3-1.2s0.2-0.8,0.3-1.1c0.2-0.3,0.5-0.6,0.8-0.8s0.6-0.3,0.9-0.4c0.4-0.2,0.8-0.2,1.2-0.2
		c0.6,0,1.2,0.2,1.8,0.3c0.4,0.2,0.9,0.4,1,0.8c0.3,0.3,0.5,0.8,0.5,1.3l-1.4,0.2c0-0.4-0.3-0.8-0.6-1.1c-0.3-0.3-0.8-0.3-1.4-0.3
		s-1.2,0.2-1.3,0.3c-0.3,0.2-0.5,0.4-0.5,0.8c0,0.2,0,0.3,0.2,0.4c0.2,0.2,0.3,0.3,0.6,0.4c0.2,0,0.6,0.2,1.3,0.3
		c1.1,0.3,1.8,0.4,2.1,0.6c0.5,0.2,0.8,0.4,0.9,0.8c0.3,0.3,0.3,0.8,0.3,1.2s-0.2,0.9-0.5,1.3c-0.3,0.4-0.8,0.8-1.2,1.1
		c-0.6,0.3-1.2,0.3-1.8,0.3c-1,0-2-0.3-2.5-0.8C293.3,40.5,293,39.8,292.8,38.9z"/>
	<path class="st3" d="M307.4,38.7l1.5,0.2c-0.3,0.9-0.6,1.5-1.3,2.1c-0.6,0.4-1.5,0.8-2.4,0.8c-1.2,0-2.3-0.4-3-1.2s-1-1.8-1-3.3
		s0.3-2.6,1-3.3s1.7-1.2,2.9-1.2c1.2,0,2.1,0.4,2.8,1.2c0.7,0.8,1,1.7,1,3.2c0,0.2,0,0.2,0,0.4h-6.3c0,0.9,0.3,1.7,0.8,2.1
		c0.5,0.4,1.1,0.8,1.8,0.8c0.6,0,1.1-0.2,1.3-0.4C307,39.8,307.3,39.3,307.4,38.7z M302.8,36.3h4.8c0-0.8-0.3-1.2-0.6-1.7
		c-0.4-0.6-1.1-0.9-1.8-0.9c-0.6,0-1.2,0.2-1.6,0.6C303,34.8,302.8,35.6,302.8,36.3z"/>
	<path class="st3" d="M316.4,38.3l1.4,0.2c-0.2,1.1-0.6,1.8-1.2,2.3c-0.6,0.6-1.5,0.9-2.4,0.9c-1.2,0-2.1-0.4-2.8-1.2
		c-0.7-0.8-1-1.8-1-3.3c0-0.9,0.1-1.8,0.4-2.4c0.3-0.8,0.8-1.2,1.3-1.5s1.3-0.4,2.1-0.4c0.9,0,1.7,0.3,2.3,0.8s0.9,1.2,1.2,1.9
		l-1.3,0.2c-0.2-0.6-0.3-1.1-0.8-1.3c-0.3-0.3-0.8-0.4-1.2-0.4c-0.8,0-1.3,0.3-1.8,0.8c-0.5,0.4-0.8,1.3-0.8,2.6
		c0,1.2,0.1,1.9,0.6,2.6s1.1,0.8,1.7,0.8s1-0.2,1.3-0.4C316,39.6,316.3,39,316.4,38.3z"/>
	<path class="st3" d="M324.7,41.4v-1.2c-0.6,0.9-1.5,1.5-2.7,1.5c-0.4,0-0.9-0.2-1.3-0.3c-0.5-0.2-0.8-0.4-0.9-0.8
		c-0.1-0.4-0.3-0.6-0.4-1.1c0-0.3-0.2-0.8-0.2-1.3V33h1.5v4.8c0,0.8,0,1.2,0.2,1.5c0.1,0.4,0.3,0.8,0.6,0.9c0.3,0.2,0.6,0.3,1.1,0.3
		s0.9-0.2,1.2-0.3c0.3-0.2,0.6-0.6,0.8-0.9c0.2-0.4,0.3-0.9,0.3-1.7v-4.4h1.5v8.5h-1.5L324.7,41.4L324.7,41.4z"/>
	<path class="st3" d="M328.1,41.4v-8.5h1.4v1.3c0.3-0.6,0.6-1.1,0.9-1.2c0.3-0.2,0.6-0.3,0.9-0.3c0.4,0,1,0.2,1.5,0.4l-0.5,1.3
		c-0.3-0.2-0.8-0.3-1-0.3c-0.3,0-0.6,0.2-0.9,0.3s-0.4,0.4-0.6,0.8c-0.2,0.4-0.3,1.1-0.3,1.7v4.5H328.1z"/>
	<path class="st3" d="M339.5,38.7l1.5,0.2c-0.3,0.9-0.6,1.5-1.4,2.1c-0.6,0.4-1.5,0.8-2.4,0.8c-1.2,0-2.3-0.4-3-1.2
		s-1.1-1.8-1.1-3.3s0.3-2.6,1.1-3.3c0.8-0.7,1.7-1.3,2.9-1.3s2.1,0.4,2.9,1.2s1,1.8,1,3.3c0,0.2,0,0.2,0,0.4h-6.3
		c0,0.9,0.3,1.7,0.8,2.1c0.5,0.4,1,0.8,1.8,0.8c0.6,0,1-0.2,1.3-0.4C339,39.8,339.3,39.3,339.5,38.7z M334.7,36.3h4.8
		c0-0.8-0.3-1.2-0.6-1.7c-0.5-0.6-1-0.9-1.8-0.9c-0.6,0-1.2,0.2-1.7,0.6C335,35,334.8,35.6,334.7,36.3z"/>
	<path class="st3" d="M348.3,41.4v-1.1c-0.6,0.9-1.3,1.2-2.4,1.2c-0.8,0-1.4-0.2-2-0.6c-0.6-0.3-1-0.9-1.3-1.5s-0.5-1.5-0.5-2.3
		c0-0.9,0.1-1.7,0.5-2.3c0.3-0.8,0.8-1.2,1.3-1.7c0.6-0.3,1.2-0.6,2-0.6c0.5,0,0.9,0.2,1.3,0.3c0.5,0.2,0.8,0.4,1,0.9v-4h1.5v11.8
		h-1.5L348.3,41.4L348.3,41.4z M343.8,37.2c0,1.1,0.3,1.9,0.8,2.4c0.5,0.6,1.1,0.8,1.7,0.8s1.2-0.3,1.6-0.8s0.6-1.3,0.6-2.4
		c0-1.2-0.2-2.1-0.8-2.6c-0.5-0.6-1.1-0.8-1.7-0.8s-1.2,0.3-1.6,0.8S343.8,36,343.8,37.2z"/>
	<path class="st3" d="M357.9,41.4h-1.3V29.6h1.5v4.2c0.6-0.8,1.3-1.2,2.4-1.2c0.4,0,1,0.2,1.5,0.3c0.4,0.2,0.9,0.4,1.2,0.9
		c0.3,0.4,0.6,0.9,0.8,1.3c0.2,0.6,0.3,1.1,0.3,1.8c0,1.5-0.3,2.6-1.1,3.4c-0.8,0.8-1.6,1.2-2.5,1.2c-1,0-1.8-0.4-2.4-1.2v1.1
		C358.3,41.4,357.9,41.4,357.9,41.4z M357.8,37.1c0,1.1,0.1,1.8,0.5,2.3c0.4,0.8,1,1.1,1.8,1.1c0.6,0,1.2-0.3,1.6-0.8
		c0.5-0.6,0.8-1.3,0.8-2.4s-0.1-1.9-0.6-2.4s-1-0.8-1.7-0.8c-0.6,0-1.2,0.3-1.6,0.8S357.8,36,357.8,37.1z"/>
	<path class="st3" d="M365.6,44.7l-0.1-1.3c0.3,0.1,0.6,0.1,0.9,0.1s0.6,0,0.8-0.1c0.2-0.2,0.3-0.3,0.5-0.4c0.1-0.2,0.3-0.4,0.5-1.1
		c0-0.2,0-0.2,0.1-0.3l-3.4-8.6h1.5l1.8,4.9c0.3,0.6,0.5,1.3,0.6,1.9c0.1-0.6,0.3-1.3,0.6-1.9l1.8-4.9h1.5l-3.3,8.7
		c-0.3,0.9-0.6,1.7-0.8,1.9c-0.3,0.4-0.6,0.9-0.9,1.1c-0.3,0.1-0.8,0.3-1.2,0.3C366.3,44.9,366,44.9,365.6,44.7z"/>
	<path class="st3" d="M378.7,41.4V29.6h1.7l6.1,9.3v-9.3h1.5v11.8h-1.6l-6.2-9.3v9.3H378.7z"/>
	<path class="st3" d="M389.9,37.2c0-1.7,0.4-2.7,1.4-3.4c0.8-0.6,1.6-0.9,2.7-0.9c1.2,0,2.1,0.4,2.8,1.2s1.1,1.8,1.1,3.2
		c0,1.1-0.1,1.9-0.4,2.6c-0.3,0.6-0.8,1.1-1.5,1.5s-1.3,0.4-2.1,0.4c-1.2,0-2.1-0.4-2.9-1.2S389.9,38.6,389.9,37.2z M391.4,37.2
		c0,1.1,0.3,1.9,0.8,2.4c0.4,0.6,1.1,0.8,1.8,0.8s1.4-0.3,1.8-0.8c0.4-0.6,0.8-1.3,0.8-2.6c0-1.1-0.3-1.8-0.8-2.4s-1.1-0.8-1.8-0.8
		s-1.3,0.3-1.8,0.8C391.6,35.3,391.4,36,391.4,37.2z"/>
	<path class="st3" d="M399.5,41.4v-8.5h1.3v1.3c0.3-0.6,0.6-1.1,0.9-1.2c0.3-0.2,0.6-0.3,0.9-0.3c0.4,0,1.1,0.2,1.5,0.4l-0.4,1.3
		c-0.3-0.2-0.8-0.3-1.1-0.3s-0.6,0.2-0.9,0.3s-0.4,0.4-0.6,0.8c-0.1,0.4-0.3,1.1-0.3,1.7v4.5H399.5z"/>
	<path class="st3" d="M408.2,40.1l0.1,1.3c-0.4,0.2-0.8,0.2-1.1,0.2c-0.6,0-0.9-0.2-1.2-0.3c-0.3-0.2-0.4-0.4-0.6-0.6
		c-0.2-0.3-0.2-0.9-0.2-1.7v-4.9h-1.1v-1.2h1.1v-2.1l1.5-0.9v3h1.5v1.2h-1.5V39c0,0.4,0,0.8,0.2,0.8c0,0.2,0.1,0.2,0.3,0.3
		c0.1,0,0.3,0.2,0.4,0.2C407.8,40.2,407.9,40.2,408.2,40.1z"/>
	<path class="st3" d="M409.1,37.2c0-1.7,0.4-2.7,1.4-3.4c0.8-0.6,1.6-0.9,2.7-0.9c1.2,0,2.1,0.4,2.8,1.2s1.1,1.8,1.1,3.2
		c0,1.1-0.1,1.9-0.4,2.6c-0.3,0.6-0.8,1.1-1.5,1.5s-1.3,0.4-2.1,0.4c-1.2,0-2.1-0.4-2.9-1.2C409.4,39.8,409.1,38.6,409.1,37.2z
		 M410.6,37.2c0,1.1,0.3,1.9,0.8,2.4c0.4,0.6,1.1,0.8,1.8,0.8s1.4-0.3,1.8-0.8c0.4-0.6,0.8-1.3,0.8-2.6c0-1.1-0.3-1.8-0.8-2.4
		s-1.1-0.8-1.8-0.8s-1.3,0.3-1.8,0.8C410.8,35.3,410.6,36,410.6,37.2z"/>
	<path class="st3" d="M418.8,41.4v-8.5h1.4v1.2c0.6-0.9,1.5-1.3,2.7-1.3c0.4,0,1.1,0.2,1.3,0.3c0.4,0.2,0.8,0.4,0.9,0.8
		c0.1,0.3,0.3,0.6,0.4,1.1c0,0.3,0.1,0.8,0.1,1.3v5.3h-1.5v-5.4c0-0.6,0-1.1-0.1-1.3c-0.2-0.3-0.3-0.4-0.6-0.8
		c-0.3-0.3-0.6-0.3-1.1-0.3c-0.6,0-1.2,0.2-1.6,0.6c-0.4,0.4-0.6,1.2-0.6,2.3v4.7L418.8,41.4L418.8,41.4z"/>
</g>
<g class="st0">
	<path d="M14.1,67.8l4.5-11.9h1.7l4.8,11.9h-1.8l-1.4-3.6h-5l-1.2,3.6H14.1z M17.6,63h4l-1.2-3.3c-0.4-0.9-0.7-1.8-0.9-2.4
		c-0.2,0.8-0.3,1.5-0.6,2.3L17.6,63z"/>
	<path d="M26.3,67.8V56h1.5v11.9L26.3,67.8L26.3,67.8z"/>
	<path d="M29.9,67.8V56h1.5v11.9L29.9,67.8L29.9,67.8z"/>
	<path d="M38.1,67.8v-8.6h1.3v1.4c0.3-0.6,0.6-1,0.9-1.2c0.3-0.1,0.6-0.3,0.9-0.3c0.4,0,1,0.1,1.5,0.5L42.3,61
		c-0.3-0.1-0.8-0.3-1-0.3c-0.3,0-0.6,0.1-0.9,0.3c-0.3,0.2-0.5,0.4-0.6,0.8c-0.2,0.4-0.3,1-0.3,1.6v4.5L38.1,67.8L38.1,67.8z"/>
	<path d="M49.5,65.1l1.5,0.1c-0.3,0.9-0.6,1.5-1.4,2.1c-0.6,0.5-1.5,0.8-2.4,0.8c-1.2,0-2.3-0.4-3-1.2c-0.7-0.8-1.1-1.8-1.1-3.3
		s0.3-2.5,1.1-3.3s1.6-1.2,2.9-1.2c1.2,0,2.1,0.5,2.9,1.2c0.8,0.7,1.1,1.8,1.1,3.3c0,0.1,0,0.1,0,0.5h-6.3c0,0.9,0.3,1.6,0.8,2.1
		c0.4,0.4,1.1,0.8,1.8,0.8c0.6,0,1.1-0.1,1.4-0.5C48.9,66.2,49.2,65.7,49.5,65.1z M44.7,62.9h4.8c0-0.8-0.3-1.2-0.6-1.6
		c-0.4-0.6-1.1-0.9-1.8-0.9c-0.6,0-1.2,0.1-1.7,0.6C45,61.5,44.9,62.1,44.7,62.9z"/>
	<path d="M58.4,67.8v-1.1c-0.6,0.9-1.4,1.2-2.4,1.2c-0.8,0-1.4-0.1-1.9-0.6c-0.6-0.3-1.1-0.9-1.4-1.5c-0.3-0.6-0.4-1.5-0.4-2.3
		c0-0.9,0.1-1.6,0.4-2.3c0.3-0.8,0.8-1.2,1.4-1.6c0.6-0.3,1.2-0.6,1.9-0.6c0.4,0,0.9,0.1,1.4,0.3s0.8,0.5,1.1,0.9V56H60v11.7
		L58.4,67.8L58.4,67.8z M53.7,63.6c0,1.1,0.3,2,0.8,2.4c0.4,0.6,1.1,0.8,1.6,0.8c0.6,0,1.2-0.3,1.6-0.8c0.4-0.4,0.6-1.4,0.6-2.4
		c0-1.2-0.1-2.1-0.8-2.5c-0.6-0.5-0.9-0.8-1.6-0.8c-0.6,0-1.2,0.3-1.6,0.8C54,61.7,53.7,62.6,53.7,63.6z"/>
	<path d="M68.1,67.8l-2.6-8.6H67l1.4,5l0.4,1.8c0-0.1,0.1-0.8,0.4-1.8l1.4-5h1.5l1.4,5l0.4,1.6l0.4-1.6l1.5-5h1.4l-2.7,8.6H73
		l-1.3-5.1l-0.3-1.5l-1.8,6.6H68.1z"/>
	<path d="M78.5,57.8v-1.6H80v1.6H78.5z M78.5,67.8v-8.6H80v8.6H78.5z"/>
	<path d="M82.1,67.8v-8.6h1.4v1.2c0.6-0.9,1.5-1.4,2.7-1.4c0.4,0,1.1,0.1,1.4,0.3c0.4,0.1,0.8,0.5,0.9,0.8s0.3,0.6,0.4,1.1
		c0,0.3,0.1,0.8,0.1,1.4v5.3h-1.5v-5.3c0-0.6,0-1.1-0.1-1.4s-0.3-0.5-0.6-0.8c-0.3-0.3-0.6-0.3-1.1-0.3c-0.6,0-1.2,0.1-1.6,0.6
		s-0.6,1.2-0.6,2.3v4.8C83.5,67.8,82.1,67.8,82.1,67.8z"/>
	<path d="M97.1,65.1l1.5,0.1c-0.3,0.9-0.6,1.5-1.4,2.1c-0.6,0.5-1.5,0.8-2.4,0.8c-1.2,0-2.3-0.4-3-1.2c-0.7-0.8-1.1-1.8-1.1-3.3
		s0.3-2.5,1.1-3.3c0.8-0.8,1.6-1.2,2.9-1.2s2.1,0.5,2.9,1.2s1,1.8,1,3.3c0,0.1,0,0.1,0,0.5h-6.3c0,0.9,0.3,1.6,0.8,2.1
		c0.4,0.4,1.1,0.8,1.8,0.8c0.6,0,1-0.1,1.4-0.5C96.6,66.2,97,65.7,97.1,65.1z M92.4,62.9h4.8c0-0.8-0.3-1.2-0.6-1.6
		c-0.5-0.6-1-0.9-1.8-0.9c-0.6,0-1.2,0.1-1.6,0.6C92.7,61.5,92.4,62.1,92.4,62.9z"/>
	<path d="M100,65.4l1.5-0.3c0.1,0.6,0.3,1.1,0.6,1.4c0.3,0.3,0.9,0.5,1.5,0.5s1.2-0.1,1.5-0.5c0.3-0.3,0.5-0.6,0.5-0.9
		s-0.1-0.6-0.5-0.8c-0.1-0.1-0.8-0.3-1.5-0.4c-1-0.3-1.8-0.5-2.3-0.8c-0.5-0.1-0.8-0.5-0.9-0.8s-0.3-0.8-0.3-1.2s0.1-0.8,0.3-1
		c0.1-0.3,0.5-0.6,0.8-0.8c0.1-0.1,0.6-0.3,0.9-0.5s0.8-0.1,1.2-0.1c0.6,0,1.2,0.1,1.8,0.3c0.5,0.1,0.9,0.4,1,0.8
		c0.3,0.3,0.5,0.8,0.5,1.4l-1.4,0.1c0-0.5-0.3-0.8-0.6-1.1c-0.3-0.3-0.6-0.4-1.2-0.4s-1.2,0.1-1.4,0.3c-0.3,0.1-0.5,0.5-0.5,0.8
		c0,0.1,0,0.3,0.1,0.5s0.3,0.3,0.6,0.4c0.1,0,0.6,0.1,1.4,0.3c1,0.3,1.8,0.4,2.1,0.6c0.5,0.1,0.8,0.4,0.9,0.8
		c0.1,0.3,0.3,0.9,0.3,1.5c0,0.4-0.1,0.9-0.5,1.4c-0.3,0.4-0.8,0.8-1.2,1c-0.5,0.3-1.2,0.3-1.8,0.3c-1,0-2-0.3-2.5-0.8
		S100.1,66.3,100,65.4z"/>
	<path d="M112.7,63.6c0-1.6,0.5-2.7,1.4-3.4c0.8-0.6,1.6-0.9,2.7-0.9c1.2,0,2.1,0.4,2.9,1.2s1,1.8,1,3.1c0,1.1-0.1,2-0.5,2.6
		c-0.3,0.6-0.8,1-1.5,1.5c-0.8,0.4-1.4,0.4-2.1,0.4c-1.2,0-2.1-0.4-2.9-1.2C113.1,66.2,112.7,65.1,112.7,63.6z M114.2,63.6
		c0,1.1,0.3,2,0.8,2.4c0.5,0.6,1,0.8,1.8,0.8s1.4-0.3,1.8-0.8c0.5-0.6,0.8-1.4,0.8-2.5s-0.3-1.8-0.8-2.4c-0.4-0.5-1-0.8-1.8-0.8
		s-1.4,0.3-1.8,0.8C114.5,61.7,114.2,62.6,114.2,63.6z"/>
	<path d="M122.5,67.8v-8.6h1.4v1.2c0.6-0.9,1.5-1.4,2.7-1.4c0.5,0,1,0.1,1.4,0.3c0.5,0.1,0.8,0.5,0.9,0.8c0.1,0.3,0.3,0.6,0.5,1.1
		c0,0.3,0.1,0.8,0.1,1.4v5.3h-1.6v-5.3c0-0.6,0-1.1-0.1-1.4s-0.3-0.5-0.6-0.8c-0.3-0.3-0.6-0.3-1-0.3c-0.6,0-1.2,0.1-1.6,0.6
		c-0.5,0.5-0.6,1.2-0.6,2.3v4.8C124,67.8,122.5,67.8,122.5,67.8z"/>
	<path d="M135.6,65.4l1.5-0.3c0.1,0.6,0.3,1.1,0.6,1.4s0.9,0.5,1.5,0.5s1.2-0.1,1.5-0.5c0.3-0.3,0.5-0.6,0.5-0.9s-0.1-0.6-0.5-0.8
		c-0.2-0.1-0.8-0.3-1.5-0.4c-1-0.3-1.8-0.5-2.3-0.8c-0.5-0.1-0.8-0.5-0.9-0.8c-0.1-0.3-0.3-0.8-0.3-1.2s0.1-0.8,0.3-1
		c0.1-0.3,0.5-0.6,0.8-0.8c0.1-0.1,0.6-0.3,0.9-0.5c0.3-0.2,0.8-0.1,1.2-0.1c0.6,0,1.2,0.1,1.8,0.3c0.5,0.1,0.9,0.4,1,0.8
		c0.3,0.3,0.5,0.8,0.5,1.4l-1.3,0.1c0-0.5-0.3-0.8-0.6-1.1s-0.6-0.4-1.2-0.4s-1.2,0.1-1.3,0.3c-0.3,0.1-0.5,0.5-0.5,0.8
		c0,0.1,0,0.3,0.1,0.5s0.3,0.3,0.6,0.4c0.1,0,0.6,0.1,1.4,0.3c1,0.3,1.8,0.4,2.1,0.6c0.5,0.1,0.8,0.4,0.9,0.8
		c0.1,0.3,0.3,0.8,0.3,1.2c0,0.5-0.1,0.9-0.4,1.4c-0.3,0.5-0.8,0.8-1.2,1.1c-0.4,0.3-1.2,0.3-1.8,0.3c-1,0-2-0.3-2.5-0.8
		C136.1,66.9,135.8,66.3,135.6,65.4z"/>
	<path d="M149.9,66.8c-0.6,0.5-1.1,0.8-1.5,0.9c-0.5,0.1-1.1,0.3-1.7,0.3c-0.9,0-1.7-0.3-2.1-0.8c-0.5-0.5-0.8-1.1-0.8-1.8
		c0-0.4,0.1-0.8,0.3-1.2c0.2-0.3,0.5-0.6,0.8-0.9c0.3-0.1,0.6-0.3,1.1-0.5c0.3,0,0.8-0.1,1.3-0.1c1.2-0.1,2.1-0.3,2.5-0.4
		c0-0.1,0-0.3,0-0.5c0-0.6-0.1-1-0.5-1.2c-0.3-0.3-0.9-0.5-1.7-0.5s-1.2,0.1-1.5,0.3s-0.6,0.6-0.8,1.2l-1.3,0.1
		c0.1-0.6,0.3-1.1,0.6-1.5c0.3-0.3,0.8-0.6,1.3-0.9c0.6-0.1,1.2-0.3,2-0.3s1.4,0.1,1.8,0.3c0.5,0.1,0.8,0.4,1,0.6
		c0.1,0.3,0.3,0.6,0.5,1c0,0.3,0,0.8,0,1.4v2c0,1.4,0,2.3,0.2,2.5c0.1,0.3,0.1,0.8,0.3,1.1h-1.5C150,67.5,150,67.2,149.9,66.8z
		 M149.9,63.6c-0.6,0.1-1.4,0.5-2.4,0.6c-0.6,0.1-1,0.1-1.2,0.3c-0.3,0.1-0.5,0.3-0.6,0.4s-0.1,0.5-0.1,0.8c0,0.5,0.1,0.8,0.5,0.9
		s0.8,0.5,1.3,0.5c0.6,0,1.1-0.1,1.5-0.3c0.5-0.3,0.8-0.6,0.9-1c0.2-0.3,0.3-0.8,0.3-1.5L149.9,63.6L149.9,63.6z"/>
	<path d="M153.5,67.8V56h1.5v11.9L153.5,67.8L153.5,67.8z"/>
	<path d="M163.1,65.1l1.5,0.1c-0.3,0.9-0.6,1.5-1.3,2.1c-0.6,0.5-1.5,0.8-2.4,0.8c-1.2,0-2.3-0.4-3-1.2c-0.7-0.8-1-1.8-1-3.3
		s0.3-2.5,1-3.3s1.7-1.2,2.9-1.2s2.1,0.5,2.9,1.2c0.8,0.7,1,1.8,1,3.3c0,0.1,0,0.1,0,0.5h-6.3c0,0.9,0.3,1.6,0.8,2.1
		c0.4,0.4,1,0.8,1.8,0.8c0.6,0,1.1-0.1,1.4-0.5C162.5,66.2,162.8,65.7,163.1,65.1z M158.3,62.9h4.8c0-0.8-0.3-1.2-0.6-1.6
		c-0.5-0.6-1.1-0.9-1.8-0.9c-0.6,0-1.2,0.1-1.6,0.6C158.6,61.5,158.3,62.1,158.3,62.9z"/>
	<path d="M167.2,65l-0.5-6.3v-2.6h1.8v2.6L168,65H167.2z M166.7,67.8v-1.5h1.6v1.5H166.7z"/>
	<path d="M175.8,67.8V56h8v1.4h-6.5V61h5.6v1.4h-5.6v5.5L175.8,67.8L175.8,67.8z"/>
	<path d="M185.6,67.8v-8.6h1.4v1.4c0.3-0.6,0.6-1,0.9-1.2c0.3-0.1,0.6-0.3,0.9-0.3c0.5,0,1,0.1,1.5,0.5l-0.5,1.4
		c-0.3-0.1-0.8-0.3-1-0.3s-0.6,0.1-0.9,0.3c-0.3,0.2-0.4,0.4-0.6,0.8s-0.3,1-0.3,1.6v4.5h-1.4L185.6,67.8L185.6,67.8z"/>
	<path d="M196.8,65.1l1.5,0.1c-0.3,0.9-0.6,1.5-1.3,2.1c-0.6,0.5-1.5,0.8-2.4,0.8c-1.2,0-2.3-0.4-3-1.2c-0.7-0.8-1-1.8-1-3.3
		s0.3-2.5,1-3.3s1.7-1.2,2.8-1.2c1.2,0,2.1,0.5,2.8,1.2s1,1.8,1,3.3c0,0.1,0,0.1,0,0.5h-6.3c0,0.9,0.3,1.6,0.8,2.1
		c0.5,0.4,1,0.8,1.8,0.8c0.6,0,1-0.1,1.3-0.5C196.4,66.2,196.7,65.7,196.8,65.1z M192.2,62.9h4.8c0-0.8-0.3-1.2-0.6-1.6
		c-0.5-0.6-1-0.9-1.8-0.9c-0.6,0-1.2,0.1-1.7,0.6C192.5,61.5,192.2,62.1,192.2,62.9z"/>
	<path d="M206.2,65.1l1.5,0.1c-0.3,0.9-0.6,1.5-1.3,2.1c-0.6,0.5-1.5,0.8-2.4,0.8c-1.2,0-2.2-0.4-3-1.2c-0.8-0.8-1-1.8-1-3.3
		s0.3-2.5,1-3.3s1.7-1.2,2.8-1.2c1.2,0,2.1,0.5,2.8,1.2s1.1,1.8,1.1,3.3c0,0.1,0,0.1,0,0.5h-6.3c0,0.9,0.3,1.6,0.7,2.1
		c0.5,0.4,1.1,0.8,1.8,0.8c0.6,0,1.1-0.1,1.3-0.5C205.5,66.2,205.8,65.7,206.2,65.1z M201.3,62.9h4.8c0-0.8-0.3-1.2-0.6-1.6
		c-0.5-0.6-1-0.9-1.8-0.9c-0.6,0-1.2,0.1-1.7,0.6C201.7,61.5,201.3,62.1,201.3,62.9z"/>
	<path d="M213.7,68.6l1.4,0.1c0,0.4,0.1,0.8,0.4,0.9c0.3,0.3,0.9,0.4,1.5,0.4s1.2-0.1,1.5-0.4s0.6-0.6,0.8-1.2
		c0-0.3,0.2-0.9,0.2-1.8c-0.6,0.8-1.3,1-2.4,1c-1.2,0-2.1-0.4-2.7-1.2c-0.6-0.9-0.9-1.8-0.9-3c0-0.8,0.2-1.5,0.5-2.3
		s0.8-1.2,1.3-1.6c0.6-0.5,1.2-0.6,1.9-0.6c1.1,0,1.8,0.4,2.6,1.2v-1h1.3v7.4c0,1.4-0.2,2.3-0.5,2.9s-0.8,1-1.3,1.4
		c-0.6,0.3-1.4,0.4-2.1,0.4c-1,0-1.8-0.3-2.4-0.8C214,70.2,213.7,69.5,213.7,68.6z M214.8,63.5c0,1,0.2,1.9,0.6,2.4
		c0.4,0.4,1,0.8,1.6,0.8s1.2-0.3,1.7-0.8c0.4-0.5,0.8-1.4,0.8-2.4c0-1.1-0.3-1.8-0.8-2.4s-1.1-0.8-1.7-0.8s-1.2,0.3-1.6,0.8
		C215,61.5,214.8,62.4,214.8,63.5z"/>
	<path d="M223.1,57.8v-1.6h1.5v1.6H223.1z M223.1,67.8v-8.6h1.5v8.6H223.1z"/>
	<path d="M227.2,67.8v-7.4h-1.3v-1.2h1.3v-0.9c0-0.6,0-1.1,0.2-1.4c0.1-0.3,0.4-0.8,0.8-0.9c0.3-0.3,0.9-0.3,1.5-0.3
		c0.4,0,0.9,0,1.3,0.1l-0.1,1.2c-0.3,0-0.6-0.1-0.9-0.1c-0.4,0-0.8,0.1-0.9,0.3c-0.2,0.1-0.3,0.6-0.3,1.1V59h1.7v1.2h-1.8v7.5
		L227.2,67.8L227.2,67.8z"/>
	<path d="M234.5,66.6l0.1,1.4c-0.4,0.1-0.8,0.1-1,0.1c-0.6,0-0.9-0.1-1.2-0.3c-0.3-0.1-0.4-0.5-0.6-0.6c-0.1-0.2-0.2-0.9-0.2-1.6v-5
		h-1v-1.2h1v-2.1l1.5-0.9v3h1.5v1.2h-1.5v5c0,0.4,0,0.8,0.2,0.8c0,0.1,0.1,0.1,0.3,0.3c0.2,0,0.3,0.1,0.5,0.1
		C234,66.6,234.2,66.6,234.5,66.6z"/>
	<path d="M242.2,67.8l-2.5-8.6h1.5l1.3,5l0.4,1.8c0-0.1,0.2-0.8,0.5-1.8l1.3-5h1.5l1.3,5l0.5,1.6l0.4-1.6l1.5-5h1.3l-2.7,8.6H247
		l-1.3-5.1l-0.3-1.5l-1.8,6.6H242.2z"/>
	<path d="M252.3,57.8v-1.6h1.5v1.6H252.3z M252.3,67.8v-8.6h1.5v8.6H252.3z"/>
	<path d="M259.3,66.6l0.1,1.4c-0.4,0.1-0.8,0.1-1,0.1c-0.6,0-0.9-0.1-1.2-0.3c-0.3-0.1-0.4-0.5-0.6-0.6c-0.2-0.3-0.2-0.9-0.2-1.6v-5
		h-1v-1.2h1v-2.1l1.5-0.9v3h1.5v1.2h-1.5v5c0,0.4,0,0.8,0.2,0.8c0,0.1,0.1,0.1,0.3,0.3c0.2,0,0.3,0.1,0.5,0.1
		C258.8,66.6,259,66.6,259.3,66.6z"/>
	<path d="M260.6,67.8V56h1.5v4.4c0.8-0.8,1.5-1.2,2.6-1.2c0.6,0,1.2,0.1,1.7,0.3c0.5,0.3,0.8,0.6,1,1c0.3,0.5,0.3,1.1,0.3,2v5.4
		h-1.5v-5.4c0-0.8-0.2-1.2-0.4-1.6c-0.3-0.3-0.8-0.5-1.4-0.5c-0.4,0-0.9,0.1-1.2,0.3c-0.3,0.2-0.6,0.4-0.8,0.9
		c-0.2,0.4-0.3,0.9-0.3,1.6v4.6H260.6z"/>
	<path d="M274.4,71.1V59.3h1.4v1.1c0.3-0.5,0.6-0.8,1-1.1c0.5-0.1,0.9-0.3,1.3-0.3c0.8,0,1.3,0.1,1.9,0.6c0.6,0.3,1.1,0.9,1.2,1.6
		c0.3,0.8,0.5,1.5,0.5,2.3c0,0.9-0.2,1.6-0.5,2.4c-0.3,0.8-0.8,1.2-1.3,1.6c-0.6,0.3-1.2,0.6-1.9,0.6c-0.5,0-0.9-0.1-1.4-0.3
		c-0.4-0.2-0.8-0.4-0.9-0.8v4.2L274.4,71.1L274.4,71.1z M275.8,63.6c0,1.1,0.1,2,0.6,2.4c0.5,0.6,1.1,0.8,1.7,0.8s1.2-0.3,1.6-0.8
		c0.5-0.6,0.8-1.4,0.8-2.5s-0.1-2-0.6-2.4c-0.5-0.6-1.1-0.8-1.7-0.8s-1.2,0.3-1.6,0.9C275.9,61.7,275.8,62.6,275.8,63.6z"/>
	<path d="M289.1,67.8v-1.2c-0.6,0.9-1.5,1.5-2.7,1.5c-0.4,0-0.9-0.1-1.3-0.3c-0.5-0.1-0.8-0.5-0.9-0.8c-0.2-0.3-0.3-0.6-0.4-1.1
		c0-0.3-0.2-0.8-0.2-1.4v-5.3h1.5V64c0,0.8,0,1.2,0.2,1.5c0.1,0.4,0.3,0.8,0.6,0.9c0.3,0.1,0.6,0.3,1.1,0.3s0.9-0.1,1.2-0.3
		c0.3-0.2,0.6-0.6,0.8-0.9c0.2-0.5,0.3-0.9,0.3-1.6v-4.5h1.5v8.3L289.1,67.8L289.1,67.8z"/>
	<path d="M292.7,67.8v-8.6h1.3v1.4c0.3-0.6,0.6-1,0.9-1.2c0.3-0.1,0.6-0.3,0.9-0.3c0.5,0,1,0.1,1.5,0.5l-0.5,1.4
		c-0.3-0.1-0.8-0.3-1-0.3s-0.6,0.1-0.9,0.3s-0.4,0.4-0.6,0.8c-0.2,0.4-0.3,1-0.3,1.6v4.5h-1.3V67.8z"/>
	<path d="M303.8,64.8l1.3,0.1c-0.2,1-0.6,1.8-1.2,2.3c-0.6,0.6-1.5,0.9-2.4,0.9c-1.2,0-2.1-0.5-2.8-1.2c-0.7-0.7-1.1-1.8-1.1-3.3
		c0-0.9,0.2-1.8,0.4-2.4c0.3-0.8,0.8-1.2,1.4-1.5s1.3-0.5,2.1-0.5c0.9,0,1.7,0.3,2.3,0.8s0.9,1.2,1.2,2l-1.3,0.1
		c-0.2-0.6-0.3-1.1-0.8-1.4c-0.3-0.3-0.8-0.5-1.2-0.5c-0.8,0-1.4,0.3-1.8,0.8s-0.8,1.4-0.8,2.6c0,1.2,0.2,1.9,0.6,2.5
		c0.4,0.6,1,0.8,1.7,0.8c0.6,0,1.1-0.1,1.3-0.4C303.3,66,303.7,65.4,303.8,64.8z"/>
	<path d="M306.3,67.8V56h1.5v4.4c0.8-0.8,1.5-1.2,2.6-1.2c0.6,0,1.2,0.1,1.7,0.3c0.5,0.3,0.8,0.6,1,1c0.3,0.5,0.3,1.1,0.3,2v5.4
		h-1.5v-5.4c0-0.8-0.2-1.2-0.4-1.6c-0.3-0.3-0.8-0.5-1.4-0.5c-0.4,0-0.9,0.1-1.2,0.3c-0.3,0.2-0.6,0.4-0.8,0.9
		c-0.2,0.4-0.3,0.9-0.3,1.6v4.6H306.3z"/>
	<path d="M321.2,66.8c-0.6,0.5-1.1,0.8-1.5,0.9S318.6,68,318,68c-0.9,0-1.7-0.3-2.1-0.8s-0.8-1.1-0.8-1.8c0-0.4,0.2-0.8,0.3-1.2
		c0.1-0.3,0.4-0.6,0.8-0.9c0.3-0.1,0.6-0.3,1-0.5c0.3,0,0.8-0.1,1.3-0.1c1.2-0.1,2.1-0.3,2.6-0.4c0-0.1,0-0.3,0-0.5
		c0-0.6-0.2-1-0.5-1.2c-0.3-0.3-0.9-0.5-1.7-0.5c-0.8,0-1.2,0.1-1.5,0.3c-0.3,0.3-0.6,0.6-0.8,1.2l-1.3-0.1c0.2-0.6,0.3-1,0.6-1.5
		c0.3-0.3,0.8-0.6,1.3-0.9c0.6-0.1,1.2-0.3,2-0.3s1.3,0.1,1.8,0.3c0.5,0.1,0.8,0.5,1,0.6c0.2,0.3,0.3,0.6,0.5,1.1c0,0.3,0,0.8,0,1.4
		v1.9c0,1.4,0,2.3,0.2,2.6c0.2,0.3,0.2,0.8,0.3,1h-1.5C321.3,67.5,321.2,67.2,321.2,66.8z M321,63.6c-0.6,0.1-1.3,0.5-2.4,0.6
		c-0.6,0.1-1.1,0.1-1.2,0.3c-0.2,0.2-0.5,0.3-0.6,0.4s-0.1,0.5-0.1,0.8c0,0.5,0.1,0.8,0.4,0.9c0.3,0.3,0.8,0.5,1.3,0.5
		s1-0.1,1.5-0.3c0.5-0.3,0.8-0.6,0.9-1c0.2-0.3,0.3-0.8,0.3-1.5L321,63.6L321,63.6z"/>
	<path d="M324.2,65.4l1.5-0.3c0.2,0.6,0.3,1.1,0.6,1.4c0.3,0.3,0.9,0.5,1.5,0.5s1.2-0.1,1.5-0.5c0.3-0.3,0.5-0.6,0.5-0.9
		s-0.2-0.6-0.5-0.8c-0.2-0.1-0.8-0.3-1.5-0.4c-1-0.3-1.8-0.5-2.3-0.8c-0.5-0.1-0.8-0.5-0.9-0.8c-0.2-0.3-0.3-0.8-0.3-1.2
		s0.2-0.8,0.3-1c0.2-0.3,0.4-0.6,0.8-0.8c0.2-0.1,0.6-0.3,0.9-0.5c0.5-0.1,0.8-0.1,1.2-0.1c0.6,0,1.2,0.1,1.8,0.3
		c0.5,0.1,0.9,0.4,1,0.8c0.1,0.3,0.5,0.8,0.5,1.4l-1.3,0.1c0-0.5-0.3-0.8-0.6-1.1c-0.3-0.3-0.8-0.3-1.3-0.3s-1.2,0.1-1.3,0.3
		c-0.3,0.1-0.5,0.5-0.5,0.8c0,0.1,0,0.3,0.2,0.5c0.1,0.1,0.3,0.3,0.6,0.4c0.2,0,0.6,0.1,1.4,0.3c1,0.3,1.8,0.4,2.1,0.6
		s0.8,0.4,0.9,0.8c0.3,0.3,0.3,0.8,0.3,1.2c0,0.5-0.2,0.9-0.5,1.4s-0.8,0.8-1.2,1.1c-0.6,0.3-1.2,0.3-1.8,0.3c-1,0-1.9-0.3-2.5-0.8
		C324.7,66.9,324.3,66.3,324.2,65.4z"/>
	<path d="M338.8,65.1l1.5,0.1c-0.3,0.9-0.6,1.5-1.4,2.1c-0.6,0.5-1.5,0.8-2.4,0.8c-1.2,0-2.3-0.4-3-1.2c-0.7-0.8-1.1-1.8-1.1-3.3
		s0.3-2.5,1.1-3.3c0.8-0.8,1.6-1.2,2.8-1.2c1.2,0,2.1,0.5,2.9,1.2s1,1.8,1,3.3c0,0.1,0,0.1,0,0.5h-6.3c0,0.9,0.3,1.6,0.8,2.1
		c0.5,0.4,1,0.8,1.8,0.8c0.6,0,1-0.1,1.3-0.5C338.3,66.2,338.6,65.7,338.8,65.1z M334.1,62.9h4.8c0-0.8-0.3-1.2-0.6-1.6
		c-0.5-0.6-1-0.9-1.8-0.9c-0.6,0-1.2,0.1-1.7,0.6C334.4,61.4,334.1,62.1,334.1,62.9z"/>
	<path d="M342.5,67.8v-1.5h1.6v1.5H342.5z"/>
</g>
<g class="st0">
	<path class="st4" d="M20.9,91.2l1.3,0.2c-0.2,1.1-0.6,1.8-1.2,2.3c-0.6,0.6-1.5,0.9-2.4,0.9c-1.2,0-2.1-0.5-2.8-1.2
		c-0.8-0.8-1-1.8-1-3.3c0-0.9,0.2-1.8,0.5-2.4c0.3-0.8,0.8-1.2,1.3-1.5c0.6-0.3,1.3-0.5,2.1-0.5c0.9,0,1.7,0.3,2.3,0.8
		s0.9,1.2,1.2,2l-1.3,0.1c-0.2-0.6-0.3-1.1-0.8-1.4c-0.3-0.3-0.8-0.5-1.2-0.5c-0.8,0-1.3,0.3-1.8,0.8s-0.8,1.4-0.8,2.6
		s0.2,2,0.6,2.5c0.5,0.6,1.1,0.8,1.7,0.8s1-0.2,1.3-0.4C20.6,92.4,20.7,92,20.9,91.2z"/>
	<path class="st4" d="M23,90c0-1.6,0.4-2.7,1.3-3.4c0.8-0.6,1.7-0.9,2.7-0.9c1.2,0,2.1,0.4,2.8,1.2c0.7,0.8,1,1.8,1,3.1
		c0,1.1-0.1,1.9-0.4,2.6c-0.3,0.6-0.8,1-1.5,1.5s-1.3,0.5-2.1,0.5c-1.2,0-2.1-0.5-2.8-1.2C23.4,92.6,23,91.5,23,90z M24.5,90
		c0,1.1,0.3,1.9,0.8,2.4c0.4,0.6,1.1,0.8,1.8,0.8s1.3-0.3,1.8-0.8c0.5-0.6,0.8-1.4,0.8-2.6c0-1.1-0.3-1.8-0.8-2.4s-1-0.8-1.8-0.8
		s-1.4,0.3-1.8,0.8C24.8,88.2,24.5,89,24.5,90z"/>
	<path class="st4" d="M32.7,94.4V82.5h1.5v4.2c0.8-0.8,1.5-1.2,2.6-1.2c0.6,0,1.2,0.1,1.6,0.3c0.5,0.2,0.8,0.6,1.1,1.1
		c0.1,0.4,0.3,1,0.3,1.9v5.4h-1.5v-5.4c0-0.8-0.2-1.2-0.4-1.6c-0.3-0.3-0.8-0.5-1.3-0.5s-0.9,0.1-1.2,0.3c-0.5,0.1-0.6,0.4-0.8,0.9
		c-0.2,0.4-0.3,0.9-0.3,1.6v4.6L32.7,94.4L32.7,94.4z"/>
	<path class="st4" d="M41.3,90c0-1.6,0.4-2.7,1.3-3.4c0.8-0.6,1.6-0.9,2.7-0.9c1.2,0,2.1,0.4,2.9,1.2c0.8,0.8,1.1,1.8,1.1,3.1
		c0,1.1-0.1,1.9-0.4,2.6c-0.3,0.6-0.8,1-1.5,1.5s-1.4,0.5-2.1,0.5c-1.2,0-2.1-0.5-2.8-1.2C41.7,92.6,41.3,91.5,41.3,90z M42.8,90
		c0,1.1,0.3,1.9,0.8,2.4c0.4,0.6,1.1,0.8,1.8,0.8s1.3-0.3,1.8-0.8c0.4-0.6,0.8-1.4,0.8-2.6c0-1.1-0.3-1.8-0.8-2.4
		c-0.4-0.6-1.1-0.8-1.8-0.8s-1.3,0.3-1.8,0.8C43.1,88.2,42.8,89,42.8,90z"/>
	<path class="st4" d="M52.5,94.4l-2.6-8.5h1.5l1.4,4.9l0.4,1.8c0-0.2,0.1-0.8,0.4-1.8l1.4-4.9h1.5l1.4,4.9l0.4,1.7l0.4-1.7l1.5-4.9
		h1.4l-2.7,8.5h-1.5L56,89.3l-0.3-1.5l-1.8,6.6H52.5z"/>
	<path class="st4" d="M62.9,84.2v-1.6h1.5v1.6H62.9z M62.9,94.4v-8.5h1.5v8.5H62.9z"/>
	<path class="st4" d="M66.6,94.4v-8.5H68v1.2c0.6-0.9,1.5-1.4,2.7-1.4c0.4,0,1.1,0.1,1.4,0.3c0.4,0.1,0.8,0.4,0.9,0.8
		c0.1,0.3,0.3,0.6,0.4,1c0,0.3,0.1,0.8,0.1,1.4v5.2H72v-5.3c0-0.6,0-1.1-0.1-1.4s-0.3-0.5-0.6-0.8c-0.3-0.2-0.6-0.2-1.1-0.2
		c-0.6,0-1.2,0.1-1.6,0.6S68,88.5,68,89.6v4.7L66.6,94.4L66.6,94.4z"/>
	<path class="st4" d="M81.6,91.5l1.5,0.2c-0.3,0.9-0.6,1.5-1.4,2.1c-0.6,0.5-1.5,0.8-2.4,0.8c-1.2,0-2.3-0.5-3-1.2s-1.1-1.8-1.1-3.3
		s0.3-2.6,1.1-3.3c0.8-0.7,1.6-1.2,2.9-1.2c1.2,0,2.1,0.4,2.9,1.2c0.8,0.8,1.1,1.8,1.1,3.3c0,0.1,0,0.1,0,0.4h-6.3
		c0,0.9,0.3,1.6,0.8,2.1c0.4,0.4,1.1,0.8,1.8,0.8c0.6,0,1.1-0.1,1.4-0.4C81,92.6,81.4,92.3,81.6,91.5z M76.9,89.3h4.8
		c0-0.8-0.3-1.2-0.6-1.6c-0.5-0.7-1.1-1-1.9-1c-0.6,0-1.2,0.1-1.6,0.6C77.1,87.9,76.9,88.5,76.9,89.3z"/>
	<path class="st4" d="M84.9,94.4v-8.5h1.4v1.4c0.3-0.6,0.6-1.1,0.9-1.2s0.6-0.3,0.9-0.3c0.4,0,1.1,0.1,1.5,0.4L89,87.5
		c-0.3-0.1-0.8-0.3-1.1-0.3c-0.3,0-0.6,0.1-0.9,0.3c-0.3,0.1-0.4,0.4-0.6,0.8c-0.1,0.4-0.3,1-0.3,1.6v4.5H84.9z"/>
</g>
<g class="st0">
	<path class="st4" d="M90.4,97.7l-0.2-1.3c0.3,0.1,0.6,0.1,0.9,0.1s0.6,0,0.8-0.1c0.1-0.2,0.3-0.3,0.4-0.5s0.3-0.5,0.4-1
		c0-0.2,0-0.2,0.1-0.3l-3.3-8.7H91l1.8,4.9c0.3,0.6,0.4,1.4,0.6,1.9c0.1-0.6,0.3-1.3,0.6-1.9l1.8-4.9h1.5L94,94.6
		c-0.3,0.9-0.6,1.6-0.8,2c-0.3,0.5-0.6,0.9-0.9,1s-0.8,0.3-1.2,0.3C90.9,97.8,90.6,97.8,90.4,97.7z"/>
</g>
<g class="st0">
	<path class="st4" d="M97.9,94.4v-1.7h1.6v1.7H97.9z"/>
	<path class="st4" d="M107.6,91.2l1.4,0.2c-0.1,1.1-0.6,1.8-1.2,2.3c-0.6,0.6-1.5,0.9-2.4,0.9c-1.2,0-2.1-0.5-2.9-1.2
		c-0.8-0.8-1-1.8-1-3.3c0-0.9,0.1-1.8,0.5-2.4c0.3-0.8,0.8-1.2,1.4-1.5s1.4-0.5,2.1-0.5c0.9,0,1.6,0.3,2.3,0.8
		c0.6,0.5,0.9,1.2,1.2,2l-1.4,0.1c-0.1-0.6-0.3-1.1-0.8-1.4c-0.3-0.3-0.8-0.5-1.2-0.5c-0.8,0-1.4,0.3-1.8,0.8
		c-0.5,0.5-0.8,1.4-0.8,2.6s0.1,2,0.6,2.5c0.5,0.6,1,0.8,1.6,0.8s1-0.1,1.4-0.4C107.1,92.4,107.5,92,107.6,91.2z"/>
	<path class="st4" d="M109.7,90c0-1.6,0.5-2.7,1.4-3.4c0.8-0.6,1.6-0.9,2.7-0.9c1.2,0,2.1,0.4,2.9,1.2c0.8,0.8,1,1.8,1,3.1
		c0,1.1-0.1,1.9-0.5,2.6c-0.3,0.6-0.8,1-1.5,1.5s-1.4,0.5-2.1,0.5c-1.2,0-2.1-0.5-2.9-1.2S109.7,91.5,109.7,90z M111.2,90
		c0,1.1,0.3,1.9,0.8,2.4c0.5,0.6,1,0.8,1.8,0.8s1.4-0.3,1.8-0.8c0.5-0.6,0.8-1.4,0.8-2.6c0-1.1-0.3-1.8-0.8-2.4s-1-0.8-1.8-0.8
		s-1.4,0.3-1.8,0.8C111.4,88.2,111.2,89,111.2,90z"/>
	<path class="st4" d="M119.5,94.4v-8.5h1.4v1.2c0.3-0.4,0.6-0.8,1-1c0.5-0.3,0.9-0.5,1.5-0.5s1.2,0.1,1.5,0.5c0.3,0.3,0.8,0.6,0.9,1
		c0.8-1,1.5-1.5,2.7-1.5c0.9,0,1.5,0.3,2,0.8s0.8,1.2,0.8,2.1v5.8h-1.5v-5.4c0-0.6,0-1.1-0.1-1.2c-0.1-0.3-0.3-0.4-0.5-0.6
		c-0.3-0.1-0.6-0.3-0.9-0.3c-0.6,0-1,0.1-1.5,0.6c-0.5,0.4-0.6,1-0.6,1.9v4.9h-1.5v-5.4c0-0.6-0.1-1.2-0.3-1.5
		c-0.3-0.3-0.6-0.5-1.2-0.5c-0.5,0-0.8,0.1-1.2,0.3c-0.3,0.1-0.6,0.6-0.8,0.9s-0.3,1-0.3,1.8v4.5L119.5,94.4L119.5,94.4z"/>
	<path class="st4" d="M137.7,84.2v-1.6h1.5v1.6H137.7z M137.7,94.4v-8.5h1.5v8.5H137.7z"/>
	<path class="st4" d="M140.7,91.8l1.5-0.3c0.2,0.6,0.3,1.1,0.6,1.4s0.9,0.4,1.5,0.4s1.2-0.2,1.5-0.4c0.3-0.3,0.5-0.6,0.5-0.9
		s-0.2-0.6-0.5-0.8c-0.1-0.1-0.8-0.3-1.5-0.4c-1-0.3-1.8-0.5-2.3-0.8c-0.4-0.1-0.8-0.5-0.9-0.8c-0.1-0.3-0.3-0.8-0.3-1.2
		s0.2-0.8,0.3-1c0.1-0.3,0.5-0.6,0.8-0.8c0.1-0.1,0.6-0.3,0.9-0.5c0.3-0.1,0.8-0.1,1.2-0.1c0.6,0,1.2,0.1,1.8,0.3
		c0.5,0.1,0.9,0.4,1.1,0.8c0.3,0.3,0.4,0.8,0.4,1.4l-1.3,0.1c0-0.5-0.3-0.8-0.6-1.1c-0.3-0.3-0.8-0.3-1.4-0.3s-1.2,0.1-1.4,0.3
		c-0.3,0.1-0.4,0.5-0.4,0.8c0,0.1,0,0.3,0.1,0.5s0.3,0.3,0.6,0.4c0.1,0,0.6,0.1,1.3,0.3c1,0.3,1.8,0.4,2.1,0.6
		c0.5,0.1,0.8,0.4,0.9,0.8c0.2,0.3,0.3,0.7,0.3,1.2c0,0.4-0.1,0.9-0.5,1.3c-0.3,0.4-0.8,0.8-1.2,1.1s-1.2,0.3-1.8,0.3
		c-1,0-2-0.3-2.5-0.8C141.3,93.3,140.9,92.7,140.7,91.8z"/>
	<path class="st4" d="M154.1,94.4v-8.5h1.4v1.4c0.3-0.6,0.6-1.1,0.9-1.2c0.3-0.1,0.6-0.3,0.9-0.3c0.5,0,1,0.1,1.5,0.4l-0.5,1.4
		c-0.3-0.1-0.8-0.3-1-0.3s-0.6,0.1-0.9,0.3c-0.3,0.1-0.4,0.5-0.6,0.8c-0.2,0.5-0.3,1.1-0.3,1.6v4.5h-1.4L154.1,94.4L154.1,94.4z"/>
	<path class="st4" d="M165.2,93.3c-0.6,0.5-1,0.8-1.5,0.9c-0.5,0.2-1,0.3-1.6,0.3c-0.9,0-1.7-0.3-2.1-0.8c-0.4-0.5-0.8-1-0.8-1.8
		c0-0.5,0.1-0.8,0.3-1.2c0.2-0.3,0.5-0.6,0.8-0.9c0.3-0.1,0.6-0.3,1-0.5c0.3,0,0.8-0.1,1.4-0.1c1.2-0.1,2.1-0.3,2.5-0.4
		c0-0.1,0-0.3,0-0.5c0-0.6-0.1-1-0.4-1.2c-0.3-0.3-0.9-0.5-1.7-0.5s-1.2,0.1-1.5,0.3c-0.3,0.3-0.6,0.6-0.8,1.2l-1.3-0.1
		c0.1-0.6,0.3-1,0.6-1.5c0.3-0.3,0.8-0.6,1.3-0.9c0.6-0.1,1.2-0.3,2-0.3s1.3,0.1,1.8,0.3c0.5,0.1,0.8,0.5,1.1,0.6
		c0.1,0.3,0.3,0.6,0.4,1.1c0,0.3,0,0.8,0,1.4v1.9c0,1.4,0,2.3,0.2,2.6c0.2,0.3,0.2,0.8,0.3,1h-1.5C165.3,94.1,165.2,93.6,165.2,93.3
		z M165,90c-0.6,0.1-1.4,0.5-2.4,0.6c-0.6,0.1-1.1,0.1-1.2,0.3c-0.3,0.2-0.4,0.3-0.6,0.5c-0.2,0.1-0.2,0.4-0.2,0.8s0.2,0.8,0.5,0.9
		c0.3,0.2,0.8,0.4,1.3,0.4s1-0.1,1.5-0.3c0.5-0.3,0.8-0.6,0.9-1.1c0.1-0.3,0.3-0.8,0.3-1.5L165,90L165,90z"/>
	<path class="st4" d="M172,93l0.1,1.3c-0.4,0.1-0.8,0.1-1,0.1c-0.6,0-0.9-0.1-1.2-0.3c-0.3-0.1-0.4-0.5-0.6-0.6
		c-0.2-0.2-0.2-0.9-0.2-1.7v-4.9h-1v-1.2h1v-2l1.5-0.9v3h1.5V87h-1.5v4.9c0,0.5,0,0.8,0.2,0.8c0,0.2,0.2,0.2,0.3,0.3
		c0.1,0,0.3,0.2,0.5,0.2C171.5,93.2,171.7,93,172,93z"/>
	<path class="st4" d="M179.2,91.5l1.5,0.2c-0.3,0.9-0.6,1.5-1.4,2.1c-0.6,0.5-1.5,0.8-2.4,0.8c-1.2,0-2.3-0.5-3-1.2
		s-1.1-1.8-1.1-3.3s0.3-2.6,1.1-3.3c0.8-0.7,1.6-1.2,2.8-1.2s2.1,0.4,2.8,1.2c0.7,0.8,1.1,1.8,1.1,3.3c0,0.1,0,0.1,0,0.4h-6.3
		c0,0.9,0.3,1.6,0.8,2.1c0.5,0.4,1.1,0.8,1.8,0.8c0.6,0,1-0.1,1.3-0.4C178.7,92.6,179,92.3,179.2,91.5z M174.5,89.3h4.8
		c0-0.8-0.3-1.2-0.6-1.6c-0.4-0.6-1-0.9-1.8-0.9c-0.6,0-1.2,0.1-1.7,0.6C174.8,87.9,174.5,88.5,174.5,89.3z"/>
	<path class="st4" d="M188,94.4v-1c-0.6,0.9-1.3,1.2-2.4,1.2c-0.8,0-1.3-0.2-1.9-0.6c-0.6-0.3-1.1-0.9-1.4-1.5
		c-0.3-0.6-0.5-1.5-0.5-2.2c0-0.9,0.2-1.6,0.5-2.3c0.3-0.8,0.8-1.2,1.4-1.6c0.6-0.3,1.2-0.6,1.9-0.6c0.5,0,0.9,0.1,1.4,0.3
		c0.5,0.2,0.8,0.5,1,0.9v-4.3h1.5v11.9H188V94.4z M183.5,90c0,1.1,0.3,1.9,0.8,2.4c0.5,0.6,1,0.8,1.7,0.8c0.6,0,1.2-0.3,1.6-0.8
		c0.5-0.5,0.6-1.4,0.6-2.4c0-1.2-0.2-2.1-0.8-2.5c-0.5-0.6-1.1-0.8-1.7-0.8s-1.2,0.3-1.7,0.8C183.7,88.1,183.5,89,183.5,90z"/>
	<path class="st4" d="M296.5,90c0-1.6,0.4-2.7,1.3-3.4c0.8-0.6,1.7-0.9,2.7-0.9c1.2,0,2.1,0.4,2.8,1.2c0.7,0.8,1.1,1.8,1.1,3.1
		c0,1.1-0.2,1.9-0.4,2.6c-0.3,0.6-0.8,1-1.5,1.5s-1.4,0.5-2.1,0.5c-1.2,0-2.1-0.5-2.8-1.2C296.9,92.7,296.5,91.5,296.5,90z M298,90
		c0,1.1,0.3,1.9,0.8,2.4c0.4,0.6,1.1,0.8,1.8,0.8c0.7,0,1.3-0.3,1.8-0.8c0.5-0.6,0.8-1.4,0.8-2.6c0-1.1-0.3-1.8-0.8-2.4
		s-1-0.8-1.8-0.8s-1.4,0.3-1.8,0.8C298.1,88.2,298,89,298,90z"/>
	<path class="st4" d="M306,94.4v-8.5h1.3v1.2c0.6-0.9,1.5-1.4,2.7-1.4c0.5,0,1.1,0.1,1.4,0.3c0.4,0.1,0.8,0.4,0.9,0.8
		c0.2,0.3,0.3,0.6,0.5,1c0,0.3,0.2,0.8,0.2,1.4v5.2h-1.5v-5.3c0-0.6,0-1.1-0.2-1.4s-0.3-0.5-0.6-0.8c-0.3-0.3-0.6-0.3-1.1-0.3
		c-0.6,0-1.2,0.1-1.6,0.6c-0.5,0.5-0.6,1.2-0.6,2.3v4.7L306,94.4L306,94.4z"/>
	<path class="st4" d="M320,94.4V82.5h4.3c0.9,0,1.7,0.1,2.1,0.3c0.6,0.3,0.9,0.6,1.3,1.1c0.3,0.4,0.5,1,0.5,1.5c0,0.4-0.2,1-0.5,1.4
		s-0.8,0.8-1.2,1c0.8,0.1,1.2,0.6,1.7,1.1c0.5,0.4,0.6,1,0.6,1.8c0,0.6-0.2,1-0.3,1.5c-0.1,0.4-0.4,0.9-0.9,1
		c-0.3,0.3-0.8,0.5-1.4,0.6c-0.4,0.1-1.2,0.1-1.9,0.1H320V94.4L320,94.4z M321.5,87.5h2.5c0.8,0,1.2,0,1.5-0.1
		c0.5-0.1,0.8-0.3,0.9-0.6c0.2-0.3,0.3-0.6,0.3-1.1c0-0.4-0.2-0.8-0.3-1c-0.1-0.3-0.4-0.5-0.8-0.6c-0.3-0.2-0.9-0.1-1.8-0.1h-2.4
		L321.5,87.5C321.4,87.5,321.5,87.5,321.5,87.5z M321.5,93h3c0.4,0,0.9,0,1,0c0.3,0,0.6-0.1,0.9-0.3c0.3-0.1,0.4-0.3,0.6-0.6
		s0.3-0.6,0.3-1.1s-0.1-0.8-0.3-1.2c-0.3-0.3-0.6-0.6-0.9-0.8c-0.3-0.2-0.9-0.1-1.8-0.1h-2.8L321.5,93L321.5,93z"/>
	<path class="st4" d="M330.8,84.2v-1.6h1.5v1.6H330.8z M330.8,94.4v-8.5h1.5v8.5H330.8z"/>
	<path class="st4" d="M334.4,94.4v-8.5h1.4v1.2c0.6-0.9,1.5-1.4,2.7-1.4c0.5,0,1.1,0.1,1.4,0.3c0.5,0.1,0.8,0.4,0.9,0.8
		c0.2,0.3,0.3,0.6,0.5,1c0,0.3,0.2,0.8,0.2,1.4v5.2H340v-5.3c0-0.6,0-1.1-0.2-1.4c-0.1-0.3-0.3-0.5-0.6-0.8c-0.3-0.3-0.6-0.3-1-0.3
		c-0.6,0-1.2,0.1-1.7,0.6s-0.6,1.2-0.6,2.3v4.7L334.4,94.4L334.4,94.4z"/>
	<path class="st4" d="M343.4,95.1l1.4,0.1c0,0.5,0.1,0.8,0.4,0.9c0.3,0.3,0.9,0.5,1.5,0.5s1.2-0.2,1.5-0.5s0.6-0.6,0.8-1.2
		c0-0.3,0.2-0.9,0.2-1.8c-0.6,0.8-1.3,1.1-2.4,1.1c-1.2,0-2.1-0.5-2.7-1.2c-0.6-0.9-0.9-1.8-0.9-3c0-0.8,0.2-1.5,0.5-2.3
		s0.8-1.2,1.4-1.6c0.6-0.3,1.2-0.6,1.9-0.6c1.1,0,1.8,0.5,2.6,1.2v-0.9h1.3v7.3c0,1.4-0.2,2.3-0.5,2.9s-0.8,1-1.3,1.3
		c-0.6,0.3-1.4,0.5-2.1,0.5c-1,0-1.8-0.3-2.4-0.8C343.7,96.6,343.4,96,343.4,95.1z M344.6,89.9c0,1,0.2,2,0.6,2.4s1,0.8,1.6,0.8
		s1.2-0.3,1.7-0.8c0.4-0.4,0.8-1.3,0.8-2.4s-0.3-1.8-0.8-2.4s-1.1-0.8-1.7-0.8s-1.2,0.3-1.6,0.8C344.8,88.1,344.6,88.8,344.6,89.9z"
		/>
	<path class="st4" d="M360.2,97.8c-0.8-1-1.5-2.3-2.1-3.6c-0.6-1.3-0.9-2.7-0.9-4.2c0-1.4,0.2-2.5,0.6-3.6c0.5-1.4,1.2-2.7,2.3-4h1
		c-0.6,1-1,1.9-1.3,2.4c-0.3,0.8-0.6,1.5-0.8,2.3c-0.3,1-0.3,1.9-0.3,3c0,2.5,0.8,5.1,2.4,7.8C361.1,97.8,360.2,97.8,360.2,97.8z"/>
</g>
<g class="st0">
	<path class="st5" d="M362.6,91.7l1.4-0.1c0.1,0.6,0.3,1.2,0.8,1.3c0.3,0.3,0.8,0.5,1.3,0.5s0.9-0.1,1.2-0.3
		c0.3-0.2,0.6-0.5,0.8-0.8c0.2-0.3,0.5-0.8,0.6-1.4c0.2-0.6,0.2-1.2,0.2-1.8c0,0,0-0.1,0-0.3c-0.3,0.5-0.8,0.9-1.2,1.1
		c-0.5,0.2-1,0.4-1.6,0.4c-1,0-1.8-0.3-2.5-1.1c-0.7-0.8-1-1.6-1-2.9c0-1.2,0.3-2.1,1-2.9s1.7-1,2.7-1c0.8,0,1.5,0.1,2.1,0.6
		c0.6,0.4,1,1,1.5,1.8c0.3,0.8,0.5,1.8,0.5,3.3s-0.2,2.7-0.5,3.6s-0.8,1.5-1.5,2.1c-0.6,0.5-1.3,0.8-2.3,0.8c-0.9,0-1.6-0.3-2.3-0.8
		C363.1,93.5,362.8,92.6,362.6,91.7z M368.6,86.4c0-0.9-0.1-1.5-0.6-2c-0.4-0.4-0.9-0.8-1.7-0.8c-0.6,0-1.2,0.3-1.6,0.8
		c-0.5,0.5-0.8,1.2-0.8,2.1c0,0.8,0.3,1.4,0.8,1.8s1,0.8,1.6,0.8s1.2-0.3,1.7-0.8C368.3,87.9,368.6,87.2,368.6,86.4z"/>
	<path class="st5" d="M373.8,87.9c-0.6-0.1-1-0.6-1.3-0.9c-0.3-0.5-0.5-0.9-0.5-1.5c0-0.9,0.3-1.6,0.9-2.1s1.5-0.9,2.4-0.9
		c1,0,1.8,0.3,2.5,0.9c0.8,0.6,0.9,1.4,0.9,2.3c0,0.6-0.2,1-0.5,1.5c-0.3,0.4-0.8,0.8-1.3,0.9c0.8,0.3,1.2,0.6,1.6,1.2
		c0.5,0.6,0.6,1.2,0.6,1.9c0,1.1-0.3,1.8-1.1,2.5c-0.8,0.8-1.6,1-2.8,1s-2.1-0.3-2.9-1s-1-1.5-1-2.5c0-0.8,0.2-1.4,0.6-2
		C372.5,88.5,373.1,88.1,373.8,87.9z M373.1,90.9c0,0.5,0.2,0.8,0.3,1.2c0.1,0.4,0.4,0.8,0.9,0.9c0.5,0.2,0.8,0.3,1.2,0.3
		c0.8,0,1.2-0.2,1.6-0.6c0.5-0.4,0.8-1,0.8-1.6c0-0.8-0.3-1.2-0.8-1.8c-0.5-0.4-1-0.8-1.8-0.8s-1.2,0.1-1.7,0.8
		C373.3,89.7,373.1,90.3,373.1,90.9z M373.5,85.5c0,0.6,0.1,1.1,0.6,1.4c0.3,0.3,0.9,0.6,1.3,0.6c0.6,0,1-0.1,1.3-0.6
		c0.3-0.3,0.6-0.8,0.6-1.4s-0.1-1-0.6-1.4c-0.3-0.3-0.8-0.6-1.3-0.6s-1,0.1-1.3,0.6C373.7,84.6,373.5,85.1,373.5,85.5z"/>
	<path class="st5" d="M385.7,94.4v-8.5h1.3v1.4c0.3-0.6,0.6-1.1,0.9-1.2s0.6-0.3,0.9-0.3c0.4,0,1.1,0.1,1.5,0.4l-0.4,1.4
		c-0.3-0.1-0.8-0.3-1.1-0.3s-0.6,0.1-0.9,0.3c-0.3,0.1-0.4,0.5-0.6,0.8c-0.1,0.5-0.3,1.1-0.3,1.6v4.5h-1.3V94.4z"/>
	<path class="st5" d="M397.1,91.5l1.5,0.2c-0.3,0.9-0.6,1.5-1.3,2.1c-0.6,0.5-1.5,0.8-2.4,0.8c-1.2,0-2.3-0.5-3-1.2
		c-0.8-0.8-1.1-1.8-1.1-3.3s0.3-2.6,1.1-3.3c0.8-0.7,1.7-1.2,2.9-1.2s2.1,0.4,2.8,1.2c0.7,0.8,1.1,1.8,1.1,3.3c0,0.1,0,0.1,0,0.4
		h-6.3c0,0.9,0.3,1.6,0.8,2.1c0.4,0.4,1.1,0.8,1.8,0.8c0.6,0,1.1-0.1,1.4-0.4C396.5,92.6,396.8,92.3,397.1,91.5z M392.3,89.3h4.8
		c0-0.8-0.3-1.2-0.6-1.6c-0.4-0.6-1.1-0.9-1.8-0.9c-0.6,0-1.2,0.1-1.6,0.6C392.6,87.9,392.3,88.5,392.3,89.3z"/>
	<path class="st5" d="M402.8,94.4l-3.3-8.5h1.5l1.8,5.1c0.1,0.6,0.4,1.2,0.6,1.7c0.2-0.4,0.3-1.1,0.6-1.7l1.9-5.3h1.5l-3.3,8.5
		L402.8,94.4L402.8,94.4z"/>
	<path class="st5" d="M408.7,84.2v-1.6h1.5v1.6H408.7z M408.7,94.4v-8.5h1.5v8.5H408.7z"/>
	<path class="st5" d="M418.1,91.5l1.5,0.2c-0.3,0.9-0.6,1.5-1.3,2.1c-0.6,0.5-1.5,0.8-2.4,0.8c-1.2,0-2.3-0.5-3-1.2
		c-0.8-0.8-1.1-1.8-1.1-3.3s0.3-2.6,1.1-3.3c0.8-0.7,1.7-1.2,2.9-1.2s2.1,0.4,2.8,1.2c0.7,0.8,1.1,1.8,1.1,3.3c0,0.1,0,0.1,0,0.4
		h-6.3c0,0.9,0.3,1.6,0.8,2.1c0.4,0.4,1.1,0.8,1.8,0.8c0.6,0,1.1-0.1,1.4-0.4C417.7,92.6,417.9,92.3,418.1,91.5z M413.3,89.3h4.8
		c0-0.8-0.3-1.2-0.6-1.6c-0.4-0.6-1.1-0.9-1.8-0.9c-0.6,0-1.2,0.1-1.6,0.6C413.6,87.9,413.4,88.5,413.3,89.3z"/>
	<path class="st5" d="M423.1,94.4l-2.6-8.5h1.5l1.3,4.9l0.4,1.8c0-0.2,0.2-0.8,0.4-1.8l1.4-4.9h1.5l1.3,4.9l0.4,1.7l0.4-1.7l1.5-4.9
		h1.4l-2.7,8.5h-1.5l-1.4-5.1l-0.3-1.5l-1.8,6.6H423.1z"/>
	<path class="st5" d="M432.8,91.8l1.5-0.3c0.1,0.6,0.3,1.1,0.6,1.4c0.3,0.3,0.9,0.4,1.5,0.4s1.2-0.2,1.5-0.4
		c0.3-0.3,0.4-0.6,0.4-0.9s-0.1-0.6-0.4-0.8c-0.1-0.1-0.8-0.3-1.5-0.4c-1.1-0.3-1.8-0.5-2.3-0.8c-0.4-0.1-0.8-0.5-0.9-0.8
		c-0.2-0.3-0.3-0.8-0.3-1.2s0.1-0.8,0.3-1c0.1-0.3,0.4-0.6,0.8-0.8c0.4-0.2,0.6-0.3,0.9-0.5c0.4-0.1,0.8-0.1,1.2-0.1
		c0.6,0,1.2,0.1,1.8,0.3c0.4,0.1,0.9,0.4,1.1,0.8c0.3,0.3,0.4,0.8,0.4,1.4l-1.3,0.1c0-0.5-0.3-0.8-0.6-1.1c-0.3-0.3-0.8-0.3-1.3-0.3
		c-0.6,0-1.2,0.1-1.4,0.3c-0.3,0.1-0.4,0.5-0.4,0.8c0,0.1,0,0.3,0.2,0.5c0.1,0.1,0.3,0.3,0.6,0.4c0.2,0,0.6,0.1,1.4,0.3
		c1.1,0.3,1.8,0.4,2.1,0.6c0.4,0.1,0.8,0.4,0.9,0.8c0.3,0.3,0.3,0.8,0.3,1.2s-0.2,0.9-0.4,1.4c-0.3,0.4-0.8,0.7-1.2,1
		c-0.6,0.3-1.2,0.3-1.8,0.3c-1.1,0-1.9-0.3-2.6-0.8C433.3,93.3,432.9,92.7,432.8,91.8z"/>
</g>
<g class="st0">
	<path class="st4" d="M442.6,97.8h-1.1c1.6-2.5,2.4-5.1,2.4-7.8c0-1-0.1-1.9-0.3-3c-0.1-0.8-0.4-1.6-0.8-2.3
		c-0.1-0.4-0.6-1.4-1.3-2.4h1.1c1.1,1.4,1.8,2.7,2.3,4.1c0.4,1.2,0.6,2.4,0.6,3.6c0,1.5-0.3,2.8-0.9,4.2
		C443.9,95.6,443.3,96.8,442.6,97.8z"/>
</g>
<path class="st6" d="M18.8,27.6c-8.5,15.8,19,13.8,10,0H18.8z M19.8,28.7h8.1C35,39.8,12.9,41.3,19.8,28.7L19.8,28.7z"/>
<path class="st6" d="M23,38.1v4.8c-1.5,0.1-3,0.9-4,1.9c3.1,0.1,6.3,0.1,9.5,0.1c-1.1-1.2-2.6-1.8-4.2-1.9v-4.9
	C23.7,38.1,23.3,38.1,23,38.1z"/>
<polygon class="st6" points="17,31.5 30.2,31.5 30.1,34.4 28.1,36.9 25.2,38 22.2,38.4 20,37.5 18.2,36.2 17,34.2 "/>
<rect x="2" y="100.5" class="st7" width="342" height="70.5"/>
<polygon class="st8" points="210.3,80.4 212.2,85.2 217.3,85.5 213.3,88.7 214.7,93.8 210.3,90.9 206,93.8 207.3,88.7 203.3,85.5 
	208.4,85.2 "/>
<polygon class="st8" points="227,80.4 229,85.2 234,85.5 230,88.7 231.3,93.8 227,90.9 222.7,93.8 224,88.7 220.1,85.5 225.2,85.2 
	"/>
<polygon class="st8" points="244.3,80.4 246.2,85.2 251.3,85.5 247.3,88.7 248.6,93.8 244.3,90.9 239.9,93.8 241.3,88.7 237.3,85.5 
	242.5,85.2 "/>
<polygon class="st8" points="260.8,80.4 262.5,85.2 267.8,85.5 263.8,88.7 265.1,93.8 260.8,90.9 256.4,93.8 257.8,88.7 253.7,85.5 
	259,85.2 "/>
<polygon class="st9" points="277.3,80.4 279,85.2 284.2,85.5 280.3,88.7 281.6,93.8 277.3,90.9 272.9,93.8 274.3,88.7 270.2,85.5 
	275.3,85.2 "/>
</svg>
