<?xml version="1.0" encoding="utf-8"?>
<!-- Generator: Adobe Illustrator 20.1.0, SVG Export Plug-In . SVG Version: 6.00 Build 0)  -->
<svg version="1.1" id="Layer_1" xmlns="http://www.w3.org/2000/svg" xmlns:xlink="http://www.w3.org/1999/xlink" x="0px" y="0px"
	 width="206.5px" height="223px" viewBox="0 0 206.5 223" style="enable-background:new 0 0 206.5 223;" xml:space="preserve">
<style type="text/css">
	.st0{fill:#FFFFFF;}
	.st1{fill:#D3D4D5;}
	.st2{fill:#0D0F0E;}
	.st3{fill:#A8A9AE;}
	.st4{fill:#FDFDF6;}
	.st5{fill:#F7943C;}
</style>
<g>
	<path class="st0" d="M138.1,204.8c0-0.2,0.2-0.3,0.2-0.5c0.5-0.9,0.8-1.9,0.9-3c0.2-1.3,0-2.6-0.3-3.8c-0.7-2.8-2.2-5.1-4.6-6.7
		c-1.1-0.8-2.2-1.4-3.5-2c-0.5-0.2-0.5-0.2-0.4-0.8c0.2-1.2,0.5-2.5,0.7-3.6c0.4-2.2,0.6-4.3,0.8-6.4c0.2-2.8,0.2-5.6-0.2-8.4
		c-0.5-3.6-2.3-6.6-5.2-8.9c-1.4-1.2-3.1-1.8-5-1.9c-0.2,0-0.5,0.1-0.6,0c0-0.1,0.1-0.2,0.1-0.2c0.5-0.6,0.9-1.2,1.3-1.9
		c1.2-1.9,2.3-3.7,3.6-5.6c1.9-2.9,3.7-5.8,5.3-8.9c0.6-1.2,1.2-2.6,1.5-3.9c0.1-0.5,0.2-0.9,0.1-1.4c-0.2-0.6-0.4-0.8-1-0.5
		c-0.5,0.2-0.9,0.4-1.3,0.6c-1.3,0.8-2.6,1.6-3.7,2.5c-4.5,3.3-8.8,7-13.2,10.6c-0.2,0.2-0.2,0.3-0.5,0.3c-2.2-4.2-5.2-7.9-8.8-11.1
		c0.2-0.2,0.2-0.2,0.3-0.3c3.2-2.6,6-5.3,8.8-8.4c4.2-4.6,7.9-9.5,11-15c2.1-3.8,3.9-7.7,5.1-11.8c0.2-0.9,0.5-1.7,0.7-2.6
		c0.2-0.1,0.3,0,0.4,0.1c4.2,0.9,8.3,1.9,12.2,3.2c2.6,0.9,5,1.8,7.4,3.1c1.4,0.8,2.6,1.7,3.6,3c1.2,1.6,1.7,3.6,2,5.5
		c0.2,1.6,0.2,3.2,0.4,4.8c0.1,1.2,0.3,2.4,0.6,3.6c0.3,1.2,0.8,2.2,1.6,3.2c0.9,0.9,1.9,1.5,3.2,1.4c1.1-0.1,2.1-0.5,2.9-1
		c1.6-0.9,2.9-2.3,4.1-3.7c1.3-1.6,1.9-3.5,2-5.6c0.1-2.3-0.4-4.6-1-6.8c-1.6-5.6-4.3-10.8-7.7-15.7c-0.9-1.4-2-2.6-3.2-3.8
		c-0.7-0.7-1.5-1.2-2.5-1.4c-1.6-0.5-3.3-0.6-5-0.7c-2.5-0.1-5,0-7.4,0.2c-0.9,0.1-1.6,0.2-2.5,0.2c-1.1,0.1-2.2,0.2-3.2,0.4
		c-1.2,0.2-2.3,0.3-3.5,0.5c-1.2,0.2-2.3,0.4-3.5,0.5c-0.1-0.1-0.1-0.2-0.1-0.3c0-1.4-0.2-2.8-0.3-4.3c-0.5-3.2-1.4-6.3-2.9-9.3
		c-2.2-4.6-5.5-8.4-9.4-11.8c-4.3-3.6-9.1-6.3-14.4-8.4c-3.6-1.4-7.2-2.4-10.9-3.1c-2.2-0.4-4.3-0.7-6.6-0.8
		c-3.2-0.2-6.5,0.2-9.7,0.9c-0.4,0.1-0.4,0.1-0.4-0.3c-0.1-1.1-0.2-2.2-0.4-3.2c-0.5-3.1-1.3-6.1-2.6-9.1c-1.2-2.8-2.8-5.3-5.1-7.4
		c-1.5-1.3-3-2.3-4.9-2.9c-1.6-0.5-3.3-0.6-5-0.7c-3.4-0.1-6.7,0.3-10.1,0.9c-2.8,0.5-5.5,1.2-8.1,2c-3.9,1.2-7.6,2.6-11.1,4.5
		c-1.9,1-3.6,2.1-5.3,3.5c-0.9,0.9-1.8,1.7-2.3,2.9c-0.5,0.9-0.6,1.9-0.2,2.9c0.2,0.8,0.8,1.4,1.3,1.9c2.4,2.2,5.2,3.2,8.4,3.4
		c2,0.1,3.9-0.2,5.9-0.5c2.4-0.5,4.8-1.2,7.1-1.9c2.6-0.8,5.1-1.6,7.7-2.1c1.4-0.2,2.8-0.2,4.2,0.2c1.9,0.5,3.6,1.2,5.2,2.2
		c2.9,1.7,5.6,3.9,8,6.3c0.1,0.1,0.2,0.2,0.2,0.3c-0.2,0.1-0.3,0.2-0.5,0.2c-2.5,1.3-4.8,2.9-7,4.8c-2.9,2.4-5.4,5.1-7.9,8
		C51.6,75,49,79.1,47,83.5c-3.3,7.3-5.1,14.9-5.4,23c-0.2,3.9,0.1,7.9,0.8,11.8c0.9,5.3,2.6,10.4,5.3,15.1c0.2,0.2,0.2,0.4-0.1,0.5
		c-1.6,1.2-3.2,2.6-4.6,4.1c-3.5,3.6-6.3,7.7-8.5,12.4c-1.2,2.6-2.1,5.2-2.7,7.9c-0.1,0.4-0.1,0.4-0.5,0.3c-0.6-0.2-1.2-0.2-1.9-0.3
		c-1.7-0.2-3.3-0.2-5,0.2c-3.4,0.9-5.9,2.8-7.3,6c-0.8,1.9-1.1,3.8-1.2,5.8c-0.2,3,0,6.1,0.3,9.1c0.3,2.4,0.7,4.8,1.2,7.2
		c0.1,0.3,0,0.4-0.2,0.5c-0.9,0.4-1.9,0.9-2.7,1.5c-1.3,0.8-2.5,1.7-3.4,2.9c-1.2,1.5-1.8,3.2-2.2,5c-0.3,1.5-0.4,3,0,4.6
		c0.3,1.2,0.9,2.3,1.7,3.2c0,0.3-0.3,0.2-0.5,0.3c-1.5,0.5-2.9,0.9-4.2,1.7c-0.7,0.4-1.4,0.9-1.9,1.5c-0.4,0.6-0.5,1.2-0.1,1.8
		c0.2,0.2,0.2,0.4,0.5,0.5c0.6,0.6,1.4,1.1,2.2,1.4c1.8,0.9,3.6,1.4,5.6,1.9s3.9,0.9,6,1.3c1.5,0.3,2.9,0.5,4.5,0.8
		c1.2,0.2,2.5,0.4,3.7,0.5c1,0.2,1.9,0.2,2.9,0.4c1.1,0.2,2.1,0.2,3.2,0.3c1.2,0.2,2.4,0.2,3.6,0.4c1.2,0.2,2.3,0.2,3.5,0.3
		c1.4,0.1,2.8,0.2,4.2,0.3c1.1,0.1,2.1,0.2,3.2,0.2c1.2,0.1,2.5,0.2,3.7,0.2c1.5,0.1,2.9,0.2,4.3,0.2c0.9,0.1,1.9,0,2.9,0.1
		c1.1,0.1,2.2,0.1,3.2,0.1c1.8,0.1,3.6,0,5.4,0.1c1,0.1,2,0,3,0c4.5,0,9.1,0.1,13.5-0.1c1.5-0.1,3.1,0,4.6-0.1
		c1.1-0.1,2.2-0.1,3.2-0.1c1.7-0.1,3.5-0.2,5.2-0.2c1.4-0.1,2.7-0.2,4.1-0.2c1.6-0.1,3.3-0.2,5-0.3c1.2-0.1,2.2-0.2,3.4-0.2
		c0.5-0.1,0.9-0.1,1.4-0.1c1-0.1,1.9-0.2,2.9-0.3c0.9-0.1,1.6-0.2,2.5-0.2c1.1-0.1,2.1-0.2,3.2-0.4c1-0.1,1.9-0.2,2.9-0.3
		c1.3-0.2,2.6-0.4,3.9-0.5c1.5-0.2,3.1-0.5,4.6-0.8c2.6-0.5,5.1-1,7.7-1.8c1.5-0.5,2.9-0.9,4.3-1.6c0.7-0.4,1.4-0.9,1.9-1.5
		s0.5-1.4,0.1-2.1c-0.2-0.4-0.6-0.7-1-0.9C141.2,205.8,139.7,205.2,138.1,204.8z"/>
	<path class="st1" d="M203.3,40.7c-0.1,0.1-0.1,0.2-0.1,0.3c0,2-0.5,4-0.9,6s-1.2,3.9-2,5.8c-0.9,2-2,3.9-3.2,5.8
		c-0.8,1.2-1.6,2.2-2.6,3.2c-0.9,1.1-1.9,2-2.9,2.9c-1.2,1.1-2.4,2-3.6,2.9c-1.4,1-2.9,1.9-4.5,2.6c-2.2,1.1-4.4,1.9-6.7,2.6
		c-1.2,0.3-2.3,0.6-3.6,0.8c-1,0.2-2.1,0.3-3.1,0.4c-1.5,0.2-3.1,0.1-4.6,0.1c-0.6,0-1.2-0.1-1.9-0.2c-0.5-0.1-1.2-0.2-1.7-0.2
		c-1.3-0.2-2.6-0.5-3.8-0.8c-2.7-0.7-5.3-1.8-7.8-3.1c-2-1.1-3.9-2.3-5.6-3.8c-0.7-0.5-1.3-1.2-2-1.8c-0.2-0.2-0.3-0.2-0.6-0.1
		c-2.6,1.1-5.3,2.2-8,3.3c-1.2,0.5-2.3,0.9-3.5,1.5c-0.1,0-0.2,0.1-0.2,0c0.1-0.2,0.2-0.3,0.4-0.4c2.6-2.6,5.1-5.1,7.7-7.7
		c0.1-0.1,0.2-0.2,0.2-0.2c0.3-0.3,0.3-0.4,0-0.8c-0.9-1.2-1.7-2.3-2.4-3.6c-0.9-1.7-1.8-3.4-2.5-5.2c-0.8-2.1-1.4-4.2-1.8-6.3
		c-0.2-0.9-0.2-1.7-0.4-2.5c-0.2-2.1-0.2-4.1-0.2-6.2c0-0.9,0.2-1.8,0.2-2.7c0.2-1.2,0.4-2.3,0.6-3.5c0.5-2.2,1.3-4.4,2.2-6.6
		c0.9-1.9,1.9-3.8,3.2-5.6c0.8-1.2,1.6-2.2,2.6-3.3c1-1.1,2-2.2,3.1-3.2c1.5-1.3,3-2.5,4.7-3.6c1.5-0.9,3-1.8,4.6-2.5
		c2-0.9,4.2-1.6,6.3-2.1c1.1-0.2,2.1-0.5,3.2-0.6c0.6-0.1,1.2-0.2,1.8-0.2c0.2,0,0.2-0.1,0.2-0.2c0.2,0,0.4,0,0.6,0
		c0.3,0.2,0.5,0.2,0.9,0c1.1,0,2.1,0,3.2,0c0,0.1,0.1,0.1,0.1,0c0.1,0,0.2,0,0.2,0c0.2,0.2,0.3,0.2,0.5,0c0.2,0,0.5,0,0.7,0
		c0,0.2,0.1,0.2,0.2,0.2c0.2,0,0.4,0,0.6,0c1,0.2,2,0.3,3,0.5c2.7,0.5,5.3,1.3,7.8,2.5c2.2,1,4.3,2.2,6.3,3.6c1.3,1,2.6,2,3.8,3.2
		c1.2,1.1,2.2,2.3,3.2,3.6c1.3,1.6,2.5,3.3,3.4,5.1c1.2,2.2,2.2,4.5,2.9,6.9c0.7,2.5,1.3,5,1.4,7.6c0,0.1,0,0.2,0.1,0.3
		C203.3,37.2,203.3,38.9,203.3,40.7z"/>
	<path class="st0" d="M165.8,2c-0.3,0.2-0.5,0.2-0.9,0C165.3,2,165.5,2,165.8,2z"/>
	<path class="st0" d="M169.8,2c-0.2,0.2-0.3,0.2-0.5,0C169.5,2,169.6,2,169.8,2z"/>
	<path class="st0" d="M169.1,2C169.1,2.1,169,2.1,169.1,2L169.1,2z"/>
	<path class="st2" d="M10.5,204.2c-0.8-1-1.4-2-1.7-3.2c-0.4-1.5-0.4-3,0-4.6c0.4-1.8,1.1-3.5,2.2-5c0.9-1.2,2.1-2.1,3.4-2.9
		c0.9-0.5,1.8-1,2.7-1.5c0.3-0.2,0.3-0.3,0.2-0.5c-0.5-2.4-0.9-4.8-1.2-7.2c-0.3-3-0.5-6.1-0.3-9.1c0.2-2,0.5-3.9,1.2-5.8
		c1.4-3.2,3.9-5.3,7.3-6c1.6-0.4,3.3-0.4,5-0.2c0.6,0.1,1.3,0.2,1.9,0.3c0.4,0.1,0.4,0.1,0.5-0.3c0.6-2.7,1.5-5.3,2.7-7.9
		c2.1-4.6,5-8.7,8.5-12.4c1.4-1.5,2.9-2.9,4.6-4.1c0.2-0.2,0.2-0.3,0.1-0.5c-2.7-4.7-4.4-9.7-5.3-15.1c-0.7-3.9-0.9-7.8-0.8-11.8
		c0.3-8,2.1-15.6,5.4-23c2-4.4,4.6-8.4,7.7-12.1c2.4-2.9,5-5.6,7.9-8c2.2-1.8,4.5-3.4,7-4.8c0.2-0.1,0.3-0.2,0.5-0.2
		c0-0.2-0.2-0.2-0.2-0.3c-2.5-2.3-5.1-4.5-8-6.3c-1.6-0.9-3.3-1.8-5.2-2.2c-1.4-0.4-2.8-0.3-4.2-0.2c-2.6,0.4-5.2,1.2-7.7,2.1
		c-2.3,0.7-4.7,1.5-7.1,1.9c-1.9,0.4-3.9,0.6-5.9,0.5c-3.2-0.2-6-1.2-8.4-3.4c-0.5-0.5-1.1-1.2-1.3-1.9c-0.3-1-0.2-2,0.2-2.9
		c0.5-1.2,1.4-2,2.3-2.9c1.6-1.4,3.4-2.5,5.3-3.5c3.6-1.9,7.3-3.3,11.1-4.5c2.7-0.9,5.4-1.5,8.1-2c3.3-0.6,6.7-1,10.1-0.9
		c1.7,0.1,3.3,0.2,5,0.7c1.9,0.5,3.5,1.6,4.9,2.9c2.3,2.1,3.9,4.6,5.1,7.4c1.2,2.9,2.1,6,2.6,9.1c0.2,1.1,0.3,2.1,0.4,3.2
		c0,0.4,0,0.4,0.4,0.3c3.2-0.8,6.4-1.1,9.7-0.9c2.2,0.1,4.4,0.4,6.6,0.8c3.7,0.7,7.3,1.7,10.9,3.1c5.3,2,10.1,4.7,14.4,8.4
		c3.9,3.2,7.1,7.1,9.4,11.8c1.5,2.9,2.4,6,2.9,9.3c0.2,1.4,0.3,2.8,0.3,4.3c0,0.1,0,0.2,0.1,0.3c1.2-0.2,2.3-0.4,3.5-0.5
		c1.2-0.2,2.3-0.3,3.5-0.5c1.1-0.2,2.2-0.2,3.2-0.4c0.9-0.1,1.6-0.2,2.5-0.2c2.5-0.2,5-0.3,7.4-0.2c1.7,0.1,3.4,0.2,5,0.7
		c0.9,0.3,1.8,0.8,2.5,1.4c1.2,1.2,2.2,2.4,3.2,3.8c3.4,4.8,6,10,7.7,15.7c0.6,2.2,1.1,4.5,1,6.8c-0.1,2.1-0.6,3.9-2,5.6
		c-1.2,1.5-2.5,2.8-4.1,3.7c-0.9,0.5-1.9,0.9-2.9,1c-1.3,0.1-2.4-0.4-3.2-1.4c-0.9-0.9-1.2-2-1.6-3.2c-0.3-1.2-0.5-2.4-0.6-3.6
		c-0.2-1.6-0.2-3.2-0.4-4.8c-0.2-2-0.8-3.9-2-5.5c-0.9-1.3-2.2-2.2-3.6-3c-2.4-1.2-4.9-2.2-7.4-3.1c-4-1.3-8.1-2.4-12.2-3.2
		c-0.2,0-0.2-0.1-0.4-0.1c-0.2,0.9-0.5,1.7-0.7,2.6c-1.2,4.1-3,8-5.1,11.8c-3,5.4-6.7,10.4-11,15c-2.7,3-5.6,5.8-8.8,8.4
		c-0.1,0.1-0.2,0.2-0.3,0.3c3.6,3.2,6.6,6.8,8.8,11.1c0.2,0,0.3-0.2,0.5-0.3c4.3-3.6,8.6-7.2,13.2-10.6c1.2-0.9,2.4-1.8,3.7-2.5
		c0.4-0.2,0.9-0.5,1.3-0.6c0.6-0.2,0.9-0.1,1,0.5c0.2,0.5,0,0.9-0.1,1.4c-0.3,1.4-0.9,2.6-1.5,3.9c-1.5,3.1-3.3,6-5.3,8.9
		c-1.2,1.9-2.5,3.7-3.6,5.6c-0.4,0.7-0.9,1.3-1.3,1.9c-0.1,0.1-0.2,0.2-0.1,0.2c0.2,0.1,0.4,0,0.6,0c1.9,0,3.5,0.7,5,1.9
		c2.8,2.3,4.6,5.2,5.2,8.9c0.4,2.8,0.4,5.6,0.2,8.4c-0.2,2.2-0.4,4.3-0.8,6.4c-0.2,1.2-0.5,2.5-0.7,3.6c-0.1,0.5-0.1,0.5,0.4,0.8
		c1.2,0.5,2.3,1.2,3.5,2c2.4,1.6,3.9,3.9,4.6,6.7c0.3,1.2,0.5,2.5,0.3,3.8c-0.1,1.1-0.4,2.1-0.9,3c-0.1,0.2-0.2,0.3-0.2,0.5
		l-0.1,0.1c-1.2,1.8-2.8,3-4.7,3.9c-1.6,0.7-3.4,1.2-5.2,1.3c-1.7,0.2-3.4,0.1-5.1-0.2c-0.5-0.1-1.1-0.2-1.6-0.3
		c-0.2-0.1-0.4-0.1-0.5,0.2c0,0.1-0.1,0.2-0.2,0.3c-0.7,1.6-1.7,2.9-3.1,3.9c-1.5,1.2-3.2,1.9-5.1,2.3c-1.4,0.3-2.7,0.5-4.1,0.6
		c-1.7,0.2-3.4,0.2-5.1-0.2c-3.6-0.6-6.6-2.3-9.1-4.9c-0.9-0.9-1.5-2.1-1.9-3.4c-0.5-1.5-0.6-3.2-0.6-4.9c0-0.2,0-0.4,0-0.6
		c0-0.2-0.1-0.2-0.3-0.2c-0.1,0-0.1,0-0.2,0.1c-2.6,0.8-5.3,1.5-7.9,2c-3.3,0.7-6.7,1.2-10.2,1.4c-2.6,0.1-5.1-0.2-7.6-0.6
		c-3-0.5-5.9-1.4-8.7-2.5c-0.1-0.1-0.2-0.2-0.4-0.1c0,0.2,0,0.3,0,0.5c-0.1,1.2-0.2,2.6-0.4,3.8c-0.3,1.5-0.9,3-2,4.2
		c-3.2,3.4-7.2,5.2-11.9,5.3c-1.5,0-3.2-0.2-4.7-0.4c-1.6-0.2-3.2-0.7-4.8-1.4c-2.8-1.2-4.6-3.3-5.6-6.2c-0.1-0.3-0.2-0.7-0.3-1
		c-0.1-0.2-0.1-0.3-0.3-0.2c-0.1,0.1-0.2,0.1-0.4,0.1c-2.7,0.5-5.3,0.7-8,0.2C15,207.5,12.5,206.5,10.5,204.2z M90.9,57.9
		c-0.9,0-1.6-0.1-2.5-0.2c-2.5-0.1-4.9,0.1-7.3,0.5c-4.3,0.9-8.3,2.5-12,4.8c-3.6,2.2-6.7,5-9.5,8c-4.2,4.5-7.5,9.5-9.9,15.2
		c-0.4,0.9-0.8,1.9-1.1,2.8c-0.1,0.2-0.2,0.4-0.2,0.6c-2.4,6.7-3.6,13.7-3.5,20.8c0.1,3.2,0.4,6.4,1.1,9.6c0.9,4.4,2.5,8.6,4.8,12.4
		c2.8,4.7,6.5,8.5,11.2,11.4c4.2,2.6,8.7,4,13.7,4.2c2.6,0.1,5.3-0.2,7.9-0.8c2.6-0.5,5-1.4,7.3-2.5c4.2-1.9,8-4.2,11.5-7
		c5-3.8,9.3-8.1,13.2-13c3.6-4.5,6.6-9.2,8.9-14.5c1.9-4.6,3.2-9.2,3.5-14.2c0.2-2.9-0.1-5.6-0.7-8.4c-1.1-5-3.2-9.4-6.3-13.5
		c-3.1-4-6.9-7.3-11.1-10.1c-4.6-2.9-9.5-4.7-14.8-5.8C93.5,58.2,92.2,58,90.9,57.9z M106.4,144.3c-0.9-1.5-2-2.9-3.1-4.3
		c-0.6,0.5-1.2,0.9-1.8,1.3c-3.9,2.9-8,5.3-12.6,7c-3.5,1.3-7.1,2.2-10.8,2.5c-2,0.2-4,0.1-6-0.2c-2.8-0.4-5.4-1.2-8-2.3
		c-5.5-2.5-10-6.2-13.6-10.9c-0.5-0.7-1-1.4-1.5-2.1c-0.2,0.2-0.3,0.3-0.5,0.5c-1.5,1.7-3,3.5-4.3,5.3c-2.8,3.7-5.2,7.7-7.1,11.9
		c-1.2,2.6-2,5.1-2.6,7.8c-0.5,2.5-0.6,5-0.8,7.5c-0.2,2.4-0.2,4.7-0.1,7.1c0,3.6,0.2,7.3,0.4,11c0.1,2.1,0.2,4.2,0,6.3
		c-0.2,1.4-0.3,2.7-0.7,4.1c-0.3,1.2-0.9,2.2-1.9,3c-0.7,0.5-1.2,1.2-1.5,2.1c-1.3,2.9-0.9,5.5,0.9,8c0.7,1,1.6,1.8,2.8,2.2
		c1.9,0.6,3.9,0.9,5.9,1c1.5,0.1,3.1-0.1,4.6-0.4c2.2-0.4,4.2-1.1,6.1-2.2c1.4-0.7,2.4-1.8,2.9-3.3c0.1-0.2,0.2-0.3,0.2-0.5
		c0.8-2.1,0.7-4.3,0.4-6.4c-0.3-1.6-0.5-3.2-0.5-4.9c0-1.6-0.1-3.3-0.2-5c0-0.4-0.2-0.7-0.5-0.9c-0.8-0.4-1.4-0.9-2.1-1.5
		c-0.2-0.2-0.3-0.2-0.5-0.5c0.1,0,0.2,0,0.2,0c2.6,0.7,5.1,1.3,7.7,1.9c3.1,0.7,6.2,1.4,9.4,1.9c1.4,0.2,2.9,0.5,4.3,0.5
		c1.8,0.1,3.6,0,5.3-0.2c2.4-0.2,4.9-0.7,7.3-1.2c4.3-0.9,8.7-2.1,12.9-3.3c0.7-0.2,1.4-0.4,2.1-0.6c-0.2,0.2-0.3,0.2-0.4,0.4
		c-1.1,0.7-2.2,1.4-3.4,2c-0.5,0.3-0.5,0.3-0.5,0.9c0.2,1.9,0.3,3.9,0.4,5.8c0.1,1.8-0.1,3.6-0.1,5.3c0,1.8-0.1,3.5,0.2,5.3
		c0.2,1.7,1,3.1,2.4,4.2c2.7,2,5.8,2.9,9.1,3c1.6,0.1,3.2-0.2,4.8-0.5c1.5-0.3,2.9-0.8,4.3-1.5c1.5-0.8,2.6-1.9,3.2-3.5
		c0.4-1.2,0.5-2.4,0.2-3.6c-0.5-2.9-1.8-5.5-3.7-7.7c-0.3-0.4-0.7-0.8-1-1.2c-0.8-0.9-1.1-1.9-1.1-3.2c0-1.9,0.2-3.7,0.4-5.6
		c0.1-1.3,0.2-2.7,0.3-4c0.2-1.2,0.2-2.5,0.2-3.6c0.1-2,0.2-3.9,0.2-6c0-3.2-0.2-6.3-0.5-9.5c-0.2-2.2-0.6-4.5-1.3-6.7
		c-1.2-3.9-3-7.7-5.2-11.1C107.2,145.4,106.9,144.8,106.4,144.3z M23.4,184.8c-0.7,0.5-1.4,1.1-2,1.7c-2.4,2-4.8,3.9-7,6.1
		c-0.5,0.5-1.1,1-1.5,1.7c-0.5,0.9-0.8,1.7-1,2.6c-0.2,1.1-0.3,2.1,0,3.2c0.4,1.5,1.4,2.5,2.6,3.2c1.9,1.2,3.9,1.6,6.2,1.7
		c1.5,0.1,2.9-0.1,4.4-0.4c0.4-0.1,0.6-0.2,0.8-0.6c0.4-0.9,0.8-1.6,1.1-2.5c0.9-1.9,1.7-3.7,2.9-5.4c0.4-0.5,0.6-1.1,0.9-1.6
		c0.5-0.9,0.7-1.9,0.6-2.9c-0.2-2.5-0.4-4.9-0.6-7.3c-0.2-2.6-0.4-5.3-0.5-7.9c-0.1-3.3-0.1-6.6,0.2-9.9c0.1-1.5,0.2-3.2,0.5-4.7
		c0.1-0.2-0.1-0.3-0.2-0.3c-0.5-0.1-0.9-0.2-1.3-0.2c-1.2-0.2-2.3-0.2-3.5-0.1c-1.2,0.1-2.5,0.2-3.7,0.7c-1.7,0.7-2.9,1.9-3.3,3.6
		c-0.2,0.7-0.3,1.4-0.4,2.1c-0.2,1.3-0.2,2.6-0.2,3.9c0,1.9,0.1,3.8,0.5,5.6c0.3,1.6,0.7,3.2,1,4.9c0.2,1,0.4,2.1,0.5,3.1
		c0.1,0.3,0,0.4,0.4,0.2c0.7-0.2,1.4-0.5,2.2-0.7C23.1,184.8,23.2,184.7,23.4,184.8z M127.2,187.2c0.2-0.1,0.1-0.2,0.2-0.3
		c0.5-2.6,0.9-5.3,1.2-7.9c0.2-2.4,0.4-4.7,0.1-7.1c-0.2-1.6-0.5-3.2-1.1-4.8c-0.7-2-2-3.5-3.9-4.3c-1.1-0.5-2.2-0.6-3.5-0.7
		c-0.6,0-1.2,0.2-1.6,0.5c-0.3,0.2-0.7,0.5-1.1,0.6c-0.2,0.1-0.2,0.2-0.2,0.3c0,0.4,0.1,0.8,0.1,1.1c0.1,1.2,0.2,2.4,0.2,3.6
		c0.1,2.2,0.2,4.6,0.2,6.8c-0.1,3.1-0.2,6.3-0.5,9.4c-0.1,1.3-0.2,2.6-0.4,3.9c-0.1,1.4-0.2,2.7-0.3,4.1c0,0.6,0.2,1.2,0.4,1.8
		c0.4,0.8,0.8,1.5,1.2,2.2c0.7,1.2,1.5,2.3,2.1,3.6c0.9,1.9,1.5,3.8,1.4,6c0,0.3,0.2,0.4,0.4,0.4c2.2,0.5,4.4,0.7,6.7,0.3
		c1.8-0.3,3.4-0.9,4.9-1.9c1.2-0.9,2-1.9,2.3-3.4c0.2-0.9,0.2-1.6-0.1-2.5c-0.4-1.7-0.9-3.2-2.3-4.4c-0.4-0.3-0.7-0.7-1.1-1
		c-2.6-2.3-5.2-4.5-7.8-6.7c-0.1-0.1-0.2-0.2-0.3-0.3C125.4,186.6,126.3,186.9,127.2,187.2z M56.3,191.7c0,1.5,0,3.1,0,4.6
		c0,1.8,0.8,3.2,2,4.3c0.7,0.7,1.6,1,2.5,1.3c1.9,0.8,3.9,1.2,6,1.5c1.5,0.2,3.1,0.4,4.6,0.4c1.4,0,2.8,0,4.1-0.1
		c1.6-0.1,3.2-0.3,5-0.5c1.9-0.3,3.7-0.8,5.5-1.2c2.4-0.5,4.1-2,5.3-4.1c0.3-0.5,0.4-1,0.4-1.5c0-1.1-0.1-2.2-0.2-3.3
		c-0.1-0.7,0-1.4-0.2-2.1c-0.2,0.1-0.2,0.1-0.4,0.2c-4.3,1.9-8.7,3.3-13.5,3.9c-1.6,0.2-3.2,0.3-4.8,0.3c-1.9,0-3.6-0.2-5.4-0.4
		c-2.5-0.4-4.9-0.9-7.2-1.7C58.8,192.8,57.5,192.2,56.3,191.7z M116.5,159.4c0.1,0,0.1,0,0.2,0c0.7-0.9,1.5-1.5,2.2-2.3
		c3.4-3.9,6.4-8,9.1-12.4c0.7-1.2,1.3-2.3,1.9-3.5c0.2-0.4,0.3-0.9,0.5-1.2c0-0.2,0.1-0.3-0.1-0.5s-0.3,0-0.4,0.1
		c-0.5,0.3-1.1,0.8-1.5,1.2c-2.1,1.7-4.2,3.5-6.2,5.3c-2.5,2.2-4.9,4.4-7.3,6.7c-0.4,0.3-0.4,0.3-0.2,0.8c0.5,1.1,0.9,2.1,1.2,3.2
		C116.1,157.5,116.3,158.4,116.5,159.4z"/>
	<path class="st3" d="M10.5,204.2c2,2.2,4.6,3.3,7.4,3.9c2.7,0.5,5.4,0.4,8-0.2c0.2,0,0.2,0,0.4-0.1c0.2-0.1,0.3,0,0.3,0.2
		c0.1,0.3,0.2,0.7,0.3,1c1,2.9,2.9,5,5.6,6.2c1.5,0.7,3.1,1.2,4.8,1.4c1.5,0.2,3.2,0.4,4.7,0.4c4.7-0.1,8.7-1.9,11.9-5.3
		c1.1-1.2,1.7-2.6,2-4.2c0.2-1.2,0.3-2.6,0.4-3.8c0-0.2,0-0.3,0-0.5c0.2-0.2,0.3,0,0.4,0.1c2.9,1.1,5.7,1.9,8.7,2.5
		c2.6,0.5,5,0.7,7.6,0.6c3.5-0.2,6.8-0.7,10.2-1.4c2.6-0.5,5.3-1.2,7.9-2c0.1,0,0.1,0,0.2-0.1c0.2-0.1,0.3,0,0.3,0.2s0,0.4,0,0.6
		c0,1.6,0.2,3.2,0.6,4.9c0.4,1.3,1,2.4,1.9,3.4c2.5,2.6,5.5,4.2,9.1,4.9c1.7,0.3,3.4,0.3,5.1,0.2c1.4-0.2,2.8-0.3,4.1-0.6
		c1.9-0.5,3.6-1.2,5.1-2.3c1.4-1.1,2.4-2.4,3.1-3.9c0.1-0.1,0.1-0.2,0.2-0.3c0.1-0.3,0.2-0.3,0.5-0.2c0.5,0.2,1.1,0.2,1.6,0.3
		c1.7,0.2,3.4,0.4,5.1,0.2c1.8-0.2,3.5-0.5,5.2-1.3c1.9-0.9,3.6-2,4.7-3.9c0-0.1,0.1-0.1,0.1-0.1c1.5,0.5,3.1,1.1,4.4,2
		c0.4,0.2,0.7,0.5,1,0.9c0.5,0.7,0.5,1.4-0.1,2.1c-0.5,0.6-1.2,1.1-1.9,1.5c-1.3,0.7-2.8,1.2-4.3,1.6c-2.5,0.8-5,1.3-7.7,1.8
		c-1.5,0.3-3.1,0.5-4.6,0.8c-1.3,0.2-2.6,0.4-3.9,0.5c-1,0.2-1.9,0.2-2.9,0.3c-1.1,0.2-2.1,0.2-3.2,0.4c-0.9,0.1-1.6,0.2-2.5,0.2
		c-1,0.1-1.9,0.2-2.9,0.3c-0.5,0.1-0.9,0.1-1.4,0.1c-1.2,0.1-2.2,0.2-3.4,0.2c-1.6,0.2-3.3,0.2-5,0.3c-1.4,0.1-2.7,0.2-4.1,0.2
		c-1.7,0.1-3.5,0.2-5.2,0.2c-1.1,0.1-2.2,0-3.2,0.1c-1.5,0.1-3.1,0.1-4.6,0.1c-4.5,0.2-9.1,0.1-13.5,0.1c-1,0-2,0-3,0
		c-1.8-0.1-3.6,0-5.4-0.1c-1.1-0.1-2.2,0-3.2-0.1c-0.9-0.1-1.9-0.1-2.9-0.1c-1.5-0.1-2.9-0.2-4.3-0.2c-1.2-0.1-2.5-0.2-3.7-0.2
		c-1.1-0.1-2.1-0.2-3.2-0.2c-1.4-0.1-2.8-0.2-4.2-0.3c-1.2-0.1-2.3-0.2-3.5-0.3c-1.2-0.2-2.4-0.2-3.6-0.4c-1.1-0.1-2.2-0.2-3.2-0.3
		c-1-0.1-1.9-0.2-2.9-0.4c-1.2-0.2-2.5-0.4-3.7-0.5c-1.5-0.2-3-0.5-4.5-0.8c-2-0.4-3.9-0.8-6-1.3c-1.9-0.5-3.8-1.1-5.6-1.9
		c-0.8-0.4-1.5-0.8-2.2-1.4c-0.2-0.2-0.3-0.4-0.5-0.5c-0.4-0.6-0.3-1.2,0.1-1.8c0.5-0.7,1.2-1.2,1.9-1.5c1.3-0.7,2.7-1.2,4.2-1.7
		C10.2,204.5,10.5,204.5,10.5,204.2z"/>
	<path class="st4" d="M114.1,182.9c-0.1,1.3-0.2,2.7-0.3,4c-0.2,1.9-0.4,3.7-0.4,5.6c0,1.2,0.3,2.2,1.1,3.2c0.3,0.4,0.7,0.8,1,1.2
		c1.9,2.2,3.2,4.8,3.7,7.7c0.2,1.2,0.2,2.4-0.2,3.6c-0.5,1.6-1.7,2.7-3.2,3.5c-1.3,0.7-2.8,1.1-4.3,1.5c-1.5,0.4-3.2,0.5-4.8,0.5
		c-3.3-0.1-6.4-1-9.1-3c-1.4-1.1-2.2-2.4-2.4-4.2c-0.2-1.8-0.2-3.5-0.2-5.3s0.2-3.6,0.1-5.3c-0.1-1.9-0.2-3.9-0.4-5.8
		c-0.1-0.5-0.1-0.5,0.5-0.9c1.2-0.6,2.2-1.3,3.4-2c0.2-0.1,0.3-0.2,0.4-0.4c-0.7,0.2-1.4,0.5-2.1,0.6c-4.3,1.3-8.6,2.4-12.9,3.3
		c-2.4,0.5-4.8,0.9-7.3,1.2c-1.8,0.2-3.6,0.2-5.3,0.2c-1.4-0.1-2.9-0.3-4.3-0.5c-3.1-0.5-6.3-1.2-9.4-1.9c-2.6-0.6-5.2-1.2-7.7-1.9
		c-0.1,0-0.2,0-0.2,0c0.2,0.2,0.3,0.3,0.5,0.5c0.7,0.5,1.4,1,2.1,1.5c0.4,0.2,0.5,0.5,0.5,0.9c0,1.6,0.2,3.3,0.2,5
		c0,1.6,0.2,3.2,0.5,4.9c0.4,2.2,0.4,4.3-0.4,6.4c-0.1,0.2-0.2,0.3-0.2,0.5c-0.5,1.5-1.5,2.6-2.9,3.3c-1.9,1-3.9,1.7-6.1,2.2
		c-1.5,0.3-3.1,0.5-4.6,0.4c-2-0.1-3.9-0.4-5.9-1c-1.2-0.4-2.1-1.2-2.8-2.2c-1.8-2.6-2.2-5.2-0.9-8c0.4-0.8,0.9-1.5,1.5-2.1
		c1-0.8,1.5-1.9,1.9-3c0.4-1.3,0.5-2.7,0.7-4.1c0.3-2.1,0.2-4.2,0-6.3c-0.2-3.6-0.3-7.3-0.4-11c0-2.4,0-4.7,0.1-7.1
		c0.2-2.6,0.3-5,0.8-7.5c0.5-2.7,1.4-5.3,2.6-7.8c1.9-4.3,4.3-8.2,7.1-11.9c1.4-1.9,2.8-3.6,4.3-5.3c0.2-0.2,0.3-0.3,0.5-0.5
		c0.5,0.7,1,1.4,1.5,2.1c3.6,4.7,8.2,8.4,13.6,10.9c2.6,1.2,5.3,1.9,8,2.3c2,0.3,4,0.3,6,0.2c3.7-0.2,7.3-1.1,10.8-2.5
		c4.5-1.7,8.7-4.1,12.6-7c0.6-0.5,1.2-0.9,1.8-1.3c1.1,1.4,2.2,2.8,3.1,4.3c0,0,0,0-0.1,0c-3,3.4-5.4,7.2-7.1,11.4
		c-1.5,3.9-2.4,8-1.9,12.3c0.2,2.2,0.9,4.2,1.9,6.1c1.9,3.5,4.8,5.9,8.4,7.3C109.8,182.3,111.9,182.7,114.1,182.9z"/>
	<path class="st4" d="M90.9,57.9c1.3,0.2,2.6,0.3,3.9,0.6c5.3,1,10.3,2.9,14.8,5.8c4.3,2.7,8,6,11.1,10.1c3.1,4,5.3,8.5,6.3,13.5
		c0.6,2.8,0.9,5.6,0.7,8.4c-0.2,5-1.5,9.7-3.5,14.2c-2.2,5.3-5.3,10.1-8.9,14.5c-3.9,4.9-8.3,9.2-13.2,13c-3.6,2.8-7.4,5.1-11.5,7
		c-2.4,1.1-4.9,1.9-7.3,2.5c-2.6,0.5-5.2,0.9-7.9,0.8c-5-0.2-9.5-1.6-13.7-4.2c-4.6-2.9-8.4-6.7-11.2-11.4c-2.3-3.9-3.9-8-4.8-12.4
		c-0.7-3.2-1-6.3-1.1-9.6c-0.2-7.2,1.1-14.1,3.5-20.8c0.1-0.2,0.2-0.4,0.2-0.6c-0.1,0.7-0.2,1.5-0.2,2.2c-0.2,2.1-0.2,4.2,0.4,6.2
		c1.2,5.3,4.3,9.1,9.3,11.4c2.7,1.2,5.5,1.7,8.4,1.8c1.9,0.1,3.7-0.1,5.6-0.4c3.4-0.5,6.6-1.6,9.7-3c4.3-1.9,8.2-4.6,11.8-7.7
		c3.1-2.8,5.8-5.9,7.9-9.4c1.9-3.3,3.3-6.9,3.8-10.8c0.3-2.4,0.2-4.7-0.2-7.1c-0.7-3.3-2.2-6.2-4.5-8.7c-2.4-2.6-5.3-4.3-8.7-5.3
		C91.3,58,91.1,58,90.9,57.9z M116.8,107.8c0-2.4-0.5-4.6-1.5-6.8c-1-2.1-2.4-3.9-4.4-5c-2.9-1.6-5.8-1.7-8.8-0.5
		c-2.6,1.1-4.6,2.9-6.2,5.2c-2.7,3.9-3.8,8.3-3.2,13c0.3,2.5,1.2,4.7,2.6,6.7c2.6,3.6,6.9,5,11.1,3.6c2.2-0.8,4.2-2.1,5.7-3.9
		C115.2,116.6,116.6,112.5,116.8,107.8z M72,143c1.3,0,2.6-0.2,3.9-0.9c1.3-0.7,2.2-1.8,2.3-3.2c0.1-0.9-0.1-1.8-0.4-2.6
		c-0.7-1.7-1.8-3-3.2-4.2c-2.6-2.2-5.7-3.6-9.2-3.8c-1.5-0.2-3,0.1-4.4,0.8c-1.8,0.9-2.6,2.6-2.3,4.5c0.2,1.1,0.6,2.1,1.2,2.9
		c1.2,1.9,3,3.3,5,4.4C67,142.2,69.4,143,72,143z"/>
	<path class="st5" d="M90.9,57.9c0.2,0.2,0.5,0.2,0.8,0.3c3.4,1,6.3,2.7,8.7,5.3c2.3,2.5,3.8,5.4,4.5,8.7c0.5,2.3,0.5,4.7,0.2,7.1
		c-0.5,3.9-1.9,7.4-3.8,10.8c-2.1,3.6-4.8,6.7-7.9,9.4c-3.6,3.2-7.4,5.7-11.8,7.7c-3.1,1.4-6.3,2.5-9.7,3c-1.9,0.3-3.7,0.5-5.6,0.4
		c-2.9-0.1-5.7-0.6-8.4-1.8c-5-2.2-8-6-9.3-11.4c-0.5-2-0.5-4.1-0.4-6.2c0.1-0.7,0.2-1.5,0.2-2.2c0.3-0.9,0.7-1.9,1.1-2.8
		c2.4-5.6,5.7-10.7,9.9-15.2c2.9-3.1,6-5.8,9.5-8c3.7-2.3,7.7-3.9,12-4.8c2.4-0.5,4.9-0.6,7.3-0.5C89.2,57.7,90,57.8,90.9,57.9z
		 M64.3,91c0,1,0.2,1.9,0.6,2.8c1,2.1,3.1,3.1,5.3,2.6c1.9-0.4,3.2-1.5,4.1-3.1c1.2-2,1.4-4.1,0.4-6.2c-0.9-1.9-2.4-2.8-4.5-2.8
		c-1.3,0-2.4,0.5-3.4,1.3C65.2,87,64.4,88.8,64.3,91z"/>
	<path class="st4" d="M23.4,184.8c-0.2-0.1-0.3,0-0.4,0c-0.7,0.2-1.4,0.5-2.2,0.7c-0.4,0.2-0.4,0.1-0.4-0.2c-0.2-1-0.4-2.1-0.5-3.1
		c-0.3-1.6-0.7-3.2-1-4.9c-0.4-1.9-0.5-3.7-0.5-5.6c0-1.3,0.1-2.6,0.2-3.9c0.1-0.7,0.2-1.4,0.4-2.1c0.5-1.9,1.6-2.9,3.3-3.6
		c1.2-0.5,2.4-0.6,3.7-0.7c1.2-0.1,2.3-0.1,3.5,0.1c0.5,0.1,0.9,0.2,1.3,0.2c0.2,0,0.3,0.1,0.2,0.3c-0.2,1.5-0.4,3.2-0.5,4.7
		c-0.2,3.3-0.2,6.6-0.2,9.9c0.1,2.6,0.2,5.3,0.5,7.9c0.2,2.5,0.5,4.9,0.6,7.3c0.1,1-0.1,1.9-0.6,2.9c-0.3,0.5-0.6,1.1-0.9,1.6
		c-1.2,1.7-2,3.6-2.9,5.4c-0.4,0.9-0.8,1.6-1.1,2.5c-0.2,0.4-0.4,0.5-0.8,0.6c-1.5,0.3-2.9,0.5-4.4,0.4c-2.2-0.1-4.3-0.6-6.2-1.7
		c-1.2-0.8-2.2-1.8-2.6-3.2c-0.3-1.1-0.2-2.1,0-3.2c0.2-0.9,0.5-1.8,1-2.6c0.4-0.7,0.9-1.2,1.5-1.7c2.2-2.2,4.6-4.2,7-6.1
		C22.1,186,22.7,185.4,23.4,184.8z"/>
	<path class="st4" d="M127.2,187.2c-0.9-0.3-1.9-0.6-2.9-0.9c0.1,0.2,0.2,0.2,0.3,0.3c2.6,2.2,5.3,4.3,7.8,6.7
		c0.4,0.3,0.7,0.7,1.1,1c1.3,1.2,1.9,2.8,2.3,4.4c0.2,0.9,0.2,1.6,0.1,2.5c-0.2,1.5-1.1,2.6-2.3,3.4c-1.5,1-3.1,1.5-4.9,1.9
		c-2.2,0.4-4.4,0.2-6.7-0.3c-0.2-0.1-0.4-0.1-0.4-0.4c0.2-2.1-0.5-4.1-1.4-6c-0.6-1.2-1.4-2.4-2.1-3.6c-0.5-0.7-0.9-1.4-1.2-2.2
		c-0.2-0.5-0.4-1.2-0.4-1.8c0-1.4,0.2-2.7,0.3-4.1c0.1-1.3,0.2-2.6,0.4-3.9c0.2-3.1,0.4-6.2,0.5-9.4c0.1-2.2,0-4.6-0.2-6.8
		c-0.1-1.2-0.2-2.4-0.2-3.6c0-0.4-0.1-0.8-0.1-1.1c0-0.2,0-0.2,0.2-0.3c0.4-0.2,0.7-0.4,1.1-0.6c0.5-0.3,1-0.5,1.6-0.5
		c1.2,0,2.4,0.2,3.5,0.7c1.9,0.9,3.2,2.3,3.9,4.3c0.5,1.5,0.9,3.2,1.1,4.8c0.3,2.4,0.2,4.8-0.1,7.1c-0.2,2.6-0.6,5.3-1.2,7.9
		C127.4,187,127.4,187.1,127.2,187.2z"/>
	<path class="st5" d="M114.1,182.9c-2.2-0.2-4.3-0.6-6.3-1.4c-3.6-1.5-6.5-3.8-8.4-7.3c-1-1.9-1.6-3.9-1.9-6.1
		c-0.5-4.3,0.3-8.4,1.9-12.3c1.7-4.3,4.1-8,7.1-11.4c0,0,0,0,0.1,0c0.5,0.5,0.8,1.1,1.1,1.6c2.2,3.5,3.9,7.2,5.2,11.1
		c0.7,2.2,1.1,4.4,1.3,6.7c0.3,3.2,0.5,6.3,0.5,9.5c0,2-0.1,3.9-0.2,6C114.2,180.5,114.2,181.7,114.1,182.9z"/>
	<path class="st4" d="M56.3,191.7c1.3,0.6,2.6,1.1,3.9,1.5c2.3,0.8,4.8,1.4,7.2,1.7c1.8,0.2,3.6,0.4,5.4,0.4c1.6,0,3.2-0.1,4.8-0.3
		c4.7-0.6,9.1-2,13.5-3.9c0.2-0.1,0.2-0.1,0.4-0.2c0.2,0.7,0.2,1.4,0.2,2.1c0.1,1.1,0.2,2.2,0.2,3.3c0,0.5-0.2,1.1-0.4,1.5
		c-1.2,2.1-2.9,3.5-5.3,4.1c-1.9,0.5-3.6,0.9-5.5,1.2c-1.6,0.3-3.2,0.5-5,0.5c-1.4,0.1-2.8,0.1-4.1,0.1c-1.5,0-3.1-0.2-4.6-0.4
		c-2-0.3-4.1-0.8-6-1.5c-0.9-0.3-1.8-0.6-2.5-1.3c-1.2-1.2-2-2.6-2-4.3C56.3,194.7,56.3,193.2,56.3,191.7z"/>
	<path class="st4" d="M116.5,159.4c-0.2-0.9-0.5-1.9-0.8-2.8c-0.3-1.1-0.7-2.2-1.2-3.2c-0.2-0.5-0.2-0.5,0.2-0.8
		c2.4-2.2,4.9-4.4,7.3-6.7c2-1.8,4-3.6,6.2-5.3c0.5-0.4,1-0.8,1.5-1.2c0.2-0.1,0.2-0.2,0.4-0.1c0.2,0.1,0.1,0.3,0.1,0.5
		c-0.1,0.5-0.2,0.9-0.5,1.2c-0.5,1.2-1.2,2.4-1.9,3.5c-2.7,4.4-5.7,8.6-9.1,12.4C118.1,157.8,117.3,158.5,116.5,159.4
		C116.7,159.4,116.6,159.4,116.5,159.4z"/>
	<path class="st5" d="M116.8,107.8c-0.1,4.6-1.5,8.8-4.6,12.3c-1.5,1.8-3.5,3.1-5.7,3.9c-4.2,1.4-8.4,0-11.1-3.6
		c-1.5-2-2.3-4.3-2.6-6.7c-0.6-4.7,0.5-9.1,3.2-13c1.5-2.3,3.6-4.1,6.2-5.2c3-1.2,6-1.2,8.8,0.5c2,1.2,3.4,2.9,4.4,5
		C116.3,103.2,116.8,105.4,116.8,107.8z M98.3,108.2c0,0.5,0.1,1,0.2,1.5c0.8,3.3,4,4.9,7.1,3.4c2.9-1.4,4.5-5.1,3.5-8.2
		c-0.5-1.7-1.7-2.9-3.5-3.3c-1.5-0.4-3,0-4.3,0.9C99.3,104,98.4,105.9,98.3,108.2z"/>
	<path class="st2" d="M72,143c-2.6-0.1-5-0.8-7.2-2c-2-1.1-3.7-2.6-5-4.4c-0.6-0.9-1-1.9-1.2-2.9c-0.2-1.9,0.5-3.6,2.3-4.5
		c1.4-0.7,2.9-0.9,4.4-0.8c3.5,0.2,6.6,1.6,9.2,3.8c1.4,1.2,2.5,2.5,3.2,4.2c0.3,0.9,0.5,1.7,0.4,2.6c-0.2,1.5-1,2.6-2.3,3.2
		C74.6,142.8,73.3,143,72,143z"/>
	<path class="st2" d="M64.3,91c0.1-2.2,0.9-3.9,2.6-5.3c1-0.9,2.1-1.3,3.4-1.3c2.1,0,3.6,0.9,4.5,2.8c1,2.1,0.7,4.3-0.4,6.2
		c-0.9,1.6-2.2,2.7-4.1,3.1c-2.2,0.5-4.3-0.5-5.3-2.6C64.5,92.8,64.3,91.9,64.3,91z M66.7,88.1c0,0.6,0.2,1.1,0.7,1.2
		c0.5,0.2,1,0.1,1.4-0.3c0.5-0.5,0.7-1.2,0.4-1.9c-0.2-0.6-0.9-0.9-1.5-0.6C67.2,86.7,66.7,87.4,66.7,88.1z"/>
	<path class="st2" d="M98.3,108.2c0.1-2.3,1-4.3,2.9-5.7c1.3-0.9,2.8-1.3,4.3-0.9c1.8,0.5,2.9,1.6,3.5,3.3c1,3.1-0.6,6.7-3.5,8.2
		c-3,1.5-6.3-0.2-7.1-3.4C98.4,109.2,98.3,108.8,98.3,108.2z M100.9,104.5c0,1,0.9,1.5,1.7,1.2c0.8-0.3,1.2-1.3,0.9-2
		c-0.2-0.5-0.6-0.9-1.2-0.8C101.5,102.9,100.9,103.7,100.9,104.5z"/>
	<path class="st4" d="M66.7,88.1c0-0.7,0.4-1.3,1-1.5c0.6-0.2,1.2,0,1.5,0.6c0.2,0.6,0.1,1.4-0.4,1.9c-0.4,0.4-0.9,0.5-1.4,0.3
		C67,89.1,66.7,88.6,66.7,88.1z"/>
	<path class="st4" d="M100.9,104.5c0-0.9,0.6-1.6,1.4-1.6c0.5,0,1,0.2,1.2,0.8c0.3,0.8-0.2,1.7-0.9,2
		C101.7,106.1,100.9,105.5,100.9,104.5z"/>
</g>
<g>
	<path d="M176.8,31.7c0,0.8-0.1,1.5-0.3,2.2c-0.2,0.7-0.5,1.3-0.9,1.9s-0.8,1.1-1.2,1.6c-0.5,0.5-0.9,0.9-1.5,1.3
		c-0.5,0.5-1,0.9-1.3,1.2c-0.3,0.3-0.5,0.6-0.7,0.9c-0.2,0.3-0.2,0.5-0.3,0.9c-0.1,0.3-0.1,0.5-0.1,0.9v0.6h-6v-1.5
		c0-1.1,0.2-2,0.5-2.9c0.3-0.9,0.9-1.6,1.7-2.3c0.5-0.4,0.9-0.8,1.2-1c0.3-0.3,0.6-0.5,0.8-0.9c0.2-0.2,0.4-0.5,0.5-0.8
		s0.2-0.5,0.2-0.9c0-0.5-0.2-0.9-0.6-1.2c-0.4-0.3-0.9-0.5-1.5-0.5c-1.1,0-2.1,0.2-3.1,0.6c-1,0.5-2,1-2.9,1.7v-7
		c0.3-0.2,0.6-0.3,1.2-0.5c0.5-0.2,1-0.4,1.6-0.5c0.6-0.2,1.2-0.3,1.9-0.4c0.7-0.1,1.4-0.2,2-0.2c1.8,0,3.2,0.2,4.4,0.6
		c1.2,0.4,2.1,0.9,2.8,1.5c0.7,0.6,1.2,1.4,1.5,2.2C176.6,30,176.8,30.9,176.8,31.7z M172,48.3c0,0.5-0.1,1-0.3,1.4
		c-0.2,0.5-0.5,0.9-0.9,1.2c-0.4,0.3-0.8,0.6-1.3,0.8c-0.5,0.2-1.2,0.3-1.9,0.3s-1.2-0.1-1.8-0.3c-0.5-0.2-1-0.5-1.3-0.8
		c-0.4-0.3-0.6-0.7-0.9-1.2s-0.3-0.9-0.3-1.4c0-0.5,0.1-1.1,0.3-1.5c0.2-0.5,0.5-0.8,0.9-1.1c0.4-0.3,0.9-0.5,1.3-0.7
		c0.5-0.2,1.1-0.2,1.7-0.2c0.6,0,1.2,0.1,1.8,0.2c0.5,0.2,1,0.4,1.3,0.7c0.4,0.3,0.7,0.7,0.9,1.1C171.9,47.3,172,47.7,172,48.3z"/>
</g>
</svg>
