<?xml version="1.0" encoding="utf-8"?>
<!-- Generator: Adobe Illustrator 22.1.0, SVG Export Plug-In . SVG Version: 6.00 Build 0)  -->
<svg version="1.1" id="Layer_1" xmlns="http://www.w3.org/2000/svg" xmlns:xlink="http://www.w3.org/1999/xlink" x="0px" y="0px"
	 width="439.3px" height="129.1px" viewBox="0 0 439.3 129.1" style="enable-background:new 0 0 439.3 129.1;" xml:space="preserve"
	>
<style type="text/css">
	.st0{fill:#0012FF;}
	.st1{enable-background:new    ;}
	.st2{fill:#009245;}
	.st3{fill:#999999;}
	.st4{fill:#737373;}
	.st5{fill:#0000FF;}
	.st6{fill:#FF8C00;}
	.st7{fill:#D2D2D2;}
	.st8{fill:none;stroke:#008272;stroke-width:3.57;stroke-miterlimit:10;}
	.st9{fill:#666666;}
</style>
<title>Asset 2</title>
<g>
	<path class="st0" d="M20.1,9.7l2,0.5c-0.5,1.7-1.2,2.8-2.3,3.6c-1.1,0.8-2.4,1.2-3.9,1.2c-1.7,0-2.9-0.3-3.9-0.9
		c-0.9-0.5-1.6-1.5-2.1-2.7c-0.6-1.2-0.8-2.6-0.8-3.9c0-1.5,0.3-2.8,0.9-4c0.6-1.2,1.3-2,2.5-2.6S14.8,0,16.1,0
		c1.5,0,2.7,0.3,3.8,1.2C21,2.1,21.6,3,22,4.3l-2.1,0.5C19.6,3.7,19,3,18.4,2.4C17.8,2,16.9,1.6,16,1.6c-1.2,0-2.1,0.3-2.9,0.8
		c-0.8,0.6-1.3,1.4-1.6,2.3C11.2,5.6,11,6.5,11,7.5c0,1.2,0.2,2.4,0.6,3.3c0.3,0.9,0.9,1.7,1.7,2.1c0.8,0.5,1.7,0.8,2.5,0.8
		c1,0,2-0.3,2.7-0.9C19.4,12,19.9,11.1,20.1,9.7z"/>
	<path class="st0" d="M23.6,9.6c0-1.9,0.6-3.4,1.6-4.3c0.9-0.8,2.1-1.2,3.3-1.2c1.5,0,2.7,0.5,3.6,1.5c1.1,0.9,1.5,2.3,1.5,3.9
		c0,1.3-0.2,2.4-0.6,3.3c-0.5,0.8-1.1,1.3-1.8,1.8s-1.6,0.6-2.5,0.6c-1.5,0-2.7-0.5-3.6-1.5C24.2,12.7,23.6,11.4,23.6,9.6z
		 M25.5,9.6c0,1.3,0.3,2.4,0.9,3c0.6,0.6,1.3,1,2.3,1c0.9,0,1.6-0.3,2.3-1c0.6-0.8,0.9-1.8,0.9-3.1s-0.3-2.3-0.9-3
		c-0.6-0.8-1.4-1.1-2.3-1.1c-0.9,0-1.7,0.3-2.3,1.1C25.8,7.2,25.5,8.2,25.5,9.6z"/>
	<path class="st0" d="M35.7,15V0.3h1.8v5.3c0.9-1.1,1.9-1.5,3.2-1.5c0.7,0,1.5,0.1,2.1,0.4c0.6,0.3,1,0.8,1.3,1.3
		c0.3,0.6,0.4,1.4,0.4,2.4v6.7h-1.9V8.2c0-0.9-0.1-1.5-0.6-1.9c-0.4-0.5-0.9-0.8-1.7-0.8c-0.6,0-1,0.1-1.5,0.4
		c-0.4,0.3-0.8,0.8-1,1.2c-0.2,0.5-0.3,1.2-0.3,1.9v5.8C37.5,15,35.7,15,35.7,15z"/>
	<path class="st0" d="M46.5,9.6c0-1.9,0.6-3.4,1.6-4.3c0.9-0.8,2.1-1.2,3.3-1.2c1.5,0,2.7,0.5,3.6,1.5c1.1,0.9,1.5,2.3,1.5,3.9
		c0,1.3-0.1,2.4-0.6,3.3c-0.4,0.8-1.1,1.3-1.8,1.8c-0.7,0.5-1.6,0.6-2.6,0.6c-1.5,0-2.7-0.5-3.6-1.5C47,12.7,46.5,11.4,46.5,9.6z
		 M48.3,9.6c0,1.3,0.3,2.4,0.9,3c0.6,0.6,1.4,1,2.3,1c0.9,0,1.6-0.3,2.3-1c0.6-0.6,0.9-1.7,0.9-3s-0.3-2.3-0.9-3
		c-0.6-0.8-1.4-1-2.3-1c-0.9,0-1.6,0.3-2.3,1C48.5,7.3,48.3,8.2,48.3,9.6z"/>
	<path class="st0" d="M67.2,15L63.3,0.3h1.9l2.3,9.6c0.3,1,0.4,2,0.6,3c0.5-1.5,0.6-2.6,0.6-2.7l2.8-9.9h2.4L76,7.8
		c0.7,1.8,0.9,3.6,1.2,5.2c0.1-0.9,0.4-2,0.8-3.2l2.3-9.6h1.9L78.1,15h-1.9L73.1,3.7c-0.3-0.9-0.4-1.5-0.4-1.8
		c0,0.8-0.1,1.3-0.3,1.8L69.2,15H67.2z"/>
	<path class="st0" d="M83.9,2.2v-2h1.8v2.1h-1.8V2.2z M83.9,15V4.3h1.8v10.6C85.7,15,83.9,15,83.9,15z"/>
	<path class="st0" d="M88.4,15V4.3H90v1.5C90.8,4.6,91.9,4,93.4,4c0.6,0,1.2,0.1,1.8,0.3c0.6,0.3,0.9,0.6,1.2,0.9
		C96.7,5.5,96.9,6,97,6.5c0,0.3,0.1,0.9,0.1,1.8v6.6h-1.8V8.5c0-0.8,0-1.4-0.1-1.6c-0.1-0.3-0.5-0.6-0.8-0.9
		c-0.3-0.1-0.8-0.3-1.2-0.3c-0.8,0-1.5,0.3-1.9,0.8c-0.6,0.4-0.9,1.3-0.9,2.8v5.8L88.4,15L88.4,15z"/>
	<path class="st0" d="M107.1,11.5l1.8,0.3c-0.3,1-0.9,2-1.6,2.5s-1.8,0.9-3,0.9c-1.5,0-2.9-0.5-3.8-1.5c-0.9-0.9-1.4-2.3-1.4-4.1
		s0.5-3.1,1.4-4.2s2.1-1.5,3.6-1.5c1.5,0,2.5,0.4,3.5,1.5c1,0.9,1.5,2.3,1.5,4c0,0.2,0,0.3,0,0.5h-8c0,1.2,0.5,2.1,1,2.7
		c0.6,0.6,1.4,0.9,2.3,0.9c0.6,0,1.2-0.2,1.6-0.5C106.5,12.9,106.8,12.3,107.1,11.5z M101.1,8.5h6c-0.1-0.9-0.3-1.5-0.8-2
		c-0.6-0.8-1.4-1-2.3-1c-0.9,0-1.5,0.3-2.1,0.9C101.6,6.9,101.2,7.6,101.1,8.5z"/>
	<path class="st0" d="M111.1,15V4.3h1.6V6c0.5-0.8,0.8-1.2,1.2-1.5c0.3-0.3,0.8-0.3,1.2-0.3c0.6,0,1.2,0.1,1.8,0.6l-0.6,1.5
		c-0.5-0.3-0.9-0.5-1.4-0.5s-0.8,0.2-1,0.3c-0.3,0.3-0.6,0.6-0.6,1c-0.1,0.6-0.3,1.4-0.3,2.1v5.5h-2L111.1,15L111.1,15z"/>
	<path class="st0" d="M118.1,19l-0.2-1.6c0.5,0.2,0.8,0.2,1,0.2c0.5,0,0.8,0,0.9-0.2c0.3-0.2,0.5-0.3,0.6-0.6
		c0.1-0.2,0.3-0.6,0.6-1.3c0-0.2,0.1-0.3,0.1-0.5l-4-10.6h1.9l2.3,6.1c0.3,0.8,0.6,1.7,0.8,2.4c0.1-0.9,0.5-1.7,0.8-2.4l2.3-6.2h1.7
		l-4,10.8c-0.5,1.2-0.8,2-1,2.4c-0.3,0.6-0.8,1-1,1.3c-0.5,0.3-0.9,0.5-1.5,0.5S118.5,19.2,118.1,19z"/>
	<path class="st0" d="M133.4,10.5V8.7h5.5v1.8H133.4z"/>
	<path class="st0" d="M8.1,17.8v-1.5h131.6v1.5C139.7,17.8,8.1,17.8,8.1,17.8z"/>
</g>
<g class="st1">
	<path class="st0" d="M139.7,17.8v-1.5h4.5v1.5C144.2,17.8,139.7,17.8,139.7,17.8z"/>
</g>
<g class="st1">
	<path class="st0" d="M144.2,15l5.7-14.7h2.1l6,14.7h-2.3l-1.6-4.5h-6.2l-1.6,4.5C146.3,15,144.2,15,144.2,15z M148.5,8.8h5l-1.5-4
		c-0.5-1.2-0.8-2.3-1-3c-0.1,0.9-0.5,2-0.8,2.9L148.5,8.8z"/>
	<path class="st0" d="M159.3,15V0.3h1.8V15C161.1,15,159.3,15,159.3,15z"/>
	<path class="st0" d="M163.8,15V0.3h1.8V15C165.6,15,163.8,15,163.8,15z"/>
	<path class="st0" d="M174.2,15V4.3h1.6V6c0.5-0.8,0.8-1.2,1.2-1.5c0.3-0.3,0.8-0.3,1.2-0.3c0.6,0,1.2,0.1,1.8,0.6l-0.8,1.5
		c-0.5-0.3-0.9-0.5-1.3-0.5c-0.4,0-0.8,0.2-1,0.3c-0.3,0.3-0.6,0.6-0.6,1c-0.1,0.6-0.3,1.4-0.3,2.1v5.5h-1.8
		C174.2,14.8,174.2,15,174.2,15z"/>
	<path class="st0" d="M188.2,11.5l1.8,0.3c-0.3,1-0.9,2-1.6,2.5s-1.8,0.9-3,0.9c-1.5,0-2.9-0.5-3.8-1.5c-0.9-0.9-1.4-2.3-1.4-4.1
		s0.5-3.1,1.4-4.2c0.9-1.1,2.1-1.5,3.6-1.5s2.5,0.4,3.5,1.5s1.4,2.4,1.4,4c0,0.2,0,0.3,0,0.5h-8c0,1.2,0.5,2.1,1,2.7
		c0.6,0.6,1.3,0.9,2.3,0.9c0.6,0,1.2-0.2,1.6-0.5C187.7,12.9,188.1,12.3,188.2,11.5z M182.4,8.5h6c-0.2-0.9-0.3-1.5-0.8-2
		c-0.6-0.8-1.4-1-2.3-1c-0.9,0-1.5,0.3-2.1,0.9C182.7,6.9,182.4,7.6,182.4,8.5z"/>
	<path class="st0" d="M199.4,15v-1.3c-0.8,1-1.7,1.7-3,1.7c-0.9,0-1.7-0.3-2.4-0.8c-0.7-0.5-1.2-1-1.7-2s-0.6-1.8-0.6-2.8
		s0.2-2.1,0.6-2.9c0.4-0.8,0.9-1.5,1.7-1.9c0.8-0.4,1.5-0.8,2.4-0.8c0.6,0,1.2,0.2,1.7,0.5s0.9,0.6,1.2,1V0.3h1.8V15
		C201.1,15,199.4,15,199.4,15z M193.7,9.6c0,1.3,0.3,2.4,0.9,3c0.6,0.8,1.2,1,2.1,1c0.8,0,1.5-0.3,2-0.9c0.6-0.6,0.9-1.7,0.9-3
		c0-1.5-0.3-2.6-0.9-3.1c-0.6-0.8-1.2-1.1-2.1-1.1c-0.8,0-1.5,0.3-2,1.1C193.9,7.2,193.7,8.2,193.7,9.6z"/>
	<path class="st0" d="M211.7,15l-3.3-10.6h1.8l1.7,6.1l0.6,2.3c0-0.2,0.2-0.9,0.6-2.3l1.7-6.3h1.8l1.7,6.2l0.6,2.1l0.6-2.1l1.8-6.1
		h1.8l-3.3,10.6h-2l-1.7-6.5l-0.4-1.8l-2.1,8.3L211.7,15L211.7,15z"/>
	<path class="st0" d="M224.6,2.2v-2h1.8v2.1h-1.8V2.2z M224.6,15V4.3h1.8v10.6C226.3,15,224.6,15,224.6,15z"/>
	<path class="st0" d="M229.1,15V4.3h1.7v1.5c0.8-1.2,1.9-1.8,3.4-1.8c0.6,0,1.2,0.1,1.8,0.3c0.6,0.3,0.9,0.6,1.2,0.9
		c0.3,0.3,0.5,0.8,0.6,1.3c0,0.3,0.2,0.9,0.2,1.8v6.6h-1.8V8.5c0-0.8,0-1.4-0.2-1.6c-0.2-0.3-0.4-0.6-0.8-0.9
		c-0.3-0.1-0.8-0.3-1.2-0.3c-0.8,0-1.5,0.3-2,0.8c-0.6,0.4-0.9,1.4-0.9,2.8v5.8L229.1,15L229.1,15z"/>
	<path class="st0" d="M247.8,11.5l1.8,0.3c-0.3,1-0.9,2-1.7,2.5s-1.8,0.9-3,0.9c-1.5,0-2.8-0.5-3.8-1.5c-0.9-0.9-1.3-2.3-1.3-4.1
		s0.5-3.1,1.3-4.2c0.9-1.1,2.1-1.5,3.6-1.5s2.6,0.4,3.5,1.5c0.9,0.9,1.3,2.4,1.3,4c0,0.2,0,0.3,0,0.5h-8c0,1.2,0.5,2.1,1.1,2.7
		s1.3,0.9,2.3,0.9c0.6,0,1.2-0.2,1.7-0.5C247.2,12.9,247.5,12.3,247.8,11.5z M241.8,8.5h6c-0.2-0.9-0.3-1.5-0.8-2
		c-0.6-0.8-1.3-1-2.3-1s-1.5,0.3-2.1,0.9C242.3,6.9,241.9,7.6,241.8,8.5z"/>
	<path class="st0" d="M251.3,11.8l1.8-0.3c0.2,0.8,0.4,1.2,0.9,1.7c0.4,0.5,1,0.6,1.9,0.6s1.5-0.2,1.8-0.5c0.4-0.3,0.6-0.8,0.6-1.2
		s-0.2-0.8-0.6-0.9c-0.3-0.2-0.9-0.3-1.8-0.6c-1.3-0.3-2.3-0.6-2.7-0.9c-0.5-0.3-0.9-0.6-1.2-1.1c-0.3-0.4-0.4-0.9-0.4-1.5
		c0-0.4,0.2-0.9,0.3-1.3c0.2-0.5,0.5-0.8,0.9-1.1c0.3-0.1,0.6-0.4,1.2-0.6c0.4-0.1,1-0.1,1.5-0.1c0.9,0,1.5,0.1,2.3,0.3
		c0.8,0.1,1,0.6,1.3,1c0.3,0.4,0.4,0.9,0.6,1.6l-1.8,0.3c-0.2-0.6-0.3-1.1-0.8-1.4c-0.4-0.3-0.9-0.4-1.7-0.4c-0.9,0-1.3,0.1-1.8,0.4
		c-0.3,0.3-0.6,0.6-0.6,0.9c0,0.3,0,0.5,0.2,0.6s0.4,0.3,0.8,0.5c0.2,0,0.8,0.1,1.7,0.4c1.3,0.3,2.1,0.6,2.7,0.9
		c0.5,0.2,0.9,0.6,1.2,0.9c0.3,0.5,0.4,0.9,0.4,1.5s-0.2,1.2-0.6,1.7c-0.3,0.6-0.9,0.9-1.5,1.2s-1.3,0.5-2.3,0.5
		c-1.3,0-2.4-0.3-3.2-0.9C251.8,13.8,251.4,12.9,251.3,11.8z"/>
	<path class="st0" d="M267.3,9.6c0-1.9,0.6-3.4,1.7-4.3c0.9-0.8,2.1-1.2,3.3-1.2c1.5,0,2.7,0.5,3.6,1.5c0.9,0.9,1.3,2.3,1.3,4.1
		c0,1.3-0.2,2.4-0.6,3.3c-0.4,0.8-1,1.3-1.8,1.8c-0.8,0.5-1.7,0.6-2.6,0.6c-1.5,0-2.7-0.5-3.6-1.5C267.8,12.7,267.3,11.4,267.3,9.6z
		 M269.1,9.6c0,1.3,0.3,2.4,0.9,3c0.6,0.6,1.3,1,2.3,1s1.7-0.3,2.3-1s0.9-1.8,0.9-3.1s-0.3-2.3-0.9-3c-0.6-0.8-1.3-1.1-2.3-1.1
		s-1.7,0.3-2.3,1.1S269.1,8.2,269.1,9.6z"/>
	<path class="st0" d="M279.4,15V4.3h1.7v1.5c0.8-1.2,2-1.8,3.5-1.8c0.6,0,1.2,0.1,1.8,0.3c0.6,0.3,0.9,0.6,1.2,0.9
		c0.3,0.3,0.4,0.8,0.6,1.3c0,0.3,0.2,0.9,0.2,1.8v6.6h-1.8V8.5c0-0.8,0-1.4-0.2-1.6c-0.2-0.3-0.4-0.6-0.8-0.9
		c-0.3-0.1-0.8-0.3-1.2-0.3c-0.8,0-1.5,0.3-2,0.8c-0.4,0.4-0.9,1.3-0.9,2.8v5.8L279.4,15L279.4,15z"/>
	<path class="st0" d="M295.8,11.8l1.8-0.3c0.2,0.8,0.5,1.2,0.9,1.7c0.5,0.5,1.1,0.6,2,0.6s1.5-0.2,1.8-0.5c0.5-0.3,0.6-0.8,0.6-1.2
		s-0.2-0.8-0.6-0.9c-0.3-0.2-0.9-0.3-1.8-0.6c-1.3-0.3-2.3-0.6-2.7-0.9c-0.4-0.3-0.9-0.6-1.2-1.1c-0.3-0.4-0.5-0.9-0.5-1.5
		c0-0.4,0.2-0.9,0.3-1.3c0.2-0.5,0.4-0.8,0.9-1.1c0.3-0.1,0.6-0.4,1.2-0.6C299,4,299.6,4,300,4c0.9,0,1.5,0.1,2.3,0.3
		c0.8,0.1,1.1,0.6,1.3,1c0.3,0.4,0.5,0.9,0.6,1.6l-1.8,0.3c-0.2-0.6-0.3-1.1-0.8-1.4c-0.5-0.3-0.9-0.4-1.7-0.4
		c-0.9,0-1.3,0.1-1.8,0.4c-0.3,0.3-0.6,0.6-0.6,0.9c0,0.3,0,0.4,0.2,0.6c0.2,0.2,0.5,0.3,0.8,0.5c0.2,0,0.8,0.1,1.7,0.4
		c1.3,0.3,2.1,0.6,2.7,0.9c0.4,0.2,0.9,0.6,1.2,0.9c0.3,0.5,0.5,0.9,0.5,1.5s-0.2,1.2-0.6,1.7c-0.3,0.6-0.9,0.9-1.5,1.2
		s-1.3,0.5-2.3,0.5c-1.3,0-2.4-0.3-3.2-0.9C296.6,13.8,296.1,12.9,295.8,11.8z"/>
	<path class="st0" d="M313.8,13.6c-0.6,0.6-1.3,0.9-2,1.2c-0.6,0.3-1.3,0.3-1.9,0.3c-1.2,0-2.1-0.3-2.7-0.9
		c-0.6-0.6-0.9-1.3-0.9-2.3c0-0.5,0.2-1.1,0.3-1.5c0.1-0.5,0.6-0.8,0.9-1.1c0.4-0.3,0.8-0.4,1.3-0.6c0.3-0.2,0.9-0.2,1.7-0.3
		c1.5-0.1,2.5-0.4,3.3-0.6c0-0.3,0-0.4,0-0.4c0-0.8-0.2-1.2-0.4-1.5c-0.5-0.5-1.2-0.6-2.1-0.6c-0.9,0-1.5,0.1-2,0.5
		c-0.4,0.3-0.8,0.9-0.9,1.6l-1.8-0.1c0.2-0.8,0.5-1.3,0.8-1.8c0.3-0.5,0.9-0.8,1.7-1.1c0.8-0.3,1.5-0.4,2.4-0.4s1.7,0.1,2.3,0.3
		s1.1,0.5,1.2,0.8c0.3,0.3,0.4,0.8,0.6,1.2c0,0.3,0.2,0.9,0.2,1.6v2.4c0,1.7,0,2.7,0.2,3.1c0.2,0.5,0.3,0.9,0.4,1.3h-1.9
		C313.9,14.5,313.8,14.1,313.8,13.6z M313.7,9.6c-0.6,0.3-1.7,0.5-3,0.8c-0.8,0.2-1.2,0.3-1.7,0.3c-0.3,0.2-0.6,0.3-0.8,0.6
		c-0.2,0.3-0.1,0.6-0.1,0.9c0,0.5,0.2,0.9,0.6,1.2c0.3,0.3,0.9,0.5,1.7,0.5c0.8,0,1.3-0.2,1.8-0.5c0.6-0.3,0.9-0.8,1.2-1.2
		c0.2-0.5,0.3-1.1,0.3-1.8V9.6z"/>
	<path class="st0" d="M318.3,15V0.3h1.8V15C320.1,15,318.3,15,318.3,15z"/>
	<path class="st0" d="M330.2,11.5l1.8,0.3c-0.3,1-0.9,2-1.6,2.5s-1.8,0.9-3,0.9c-1.5,0-2.8-0.5-3.8-1.5c-0.9-0.9-1.3-2.3-1.3-4.1
		s0.5-3.1,1.3-4.2c0.9-1.1,2.1-1.5,3.6-1.5s2.5,0.4,3.5,1.5c0.9,0.9,1.3,2.4,1.3,4c0,0.2,0,0.3,0,0.5h-7.9c0,1.2,0.5,2.1,1.1,2.7
		s1.3,0.9,2.3,0.9c0.6,0,1.2-0.2,1.6-0.5C329.5,12.9,329.9,12.3,330.2,11.5z M324.3,8.5h6c-0.1-0.9-0.3-1.5-0.8-2
		c-0.6-0.8-1.3-1-2.2-1s-1.5,0.3-2.1,0.9C324.6,6.9,324.3,7.6,324.3,8.5z"/>
	<path class="st0" d="M335.3,11.2l-0.6-7.8V0.2h2.3v3.3l-0.5,7.9L335.3,11.2L335.3,11.2z M334.8,15v-2.1h2.1V15H334.8z"/>
	<path class="st0" d="M144.2,17.8v-1.5h194.4v1.5C338.6,17.8,144.2,17.8,144.2,17.8z"/>
</g>
<g class="st1">
	<path class="st2" d="M33.4,38.2l1.4,0.2c-0.2,1.1-0.6,1.8-1.2,2.3c-0.6,0.6-1.5,0.9-2.4,0.9c-1.2,0-2.1-0.4-2.8-1.2s-1-1.8-1-3.3
		c0-0.9,0.1-1.8,0.4-2.4c0.3-0.6,0.8-1.2,1.3-1.5c0.6-0.3,1.4-0.4,2.1-0.4c0.9,0,1.6,0.3,2.3,0.8c0.6,0.4,0.9,1.2,1.2,1.9l-1.3,0.1
		c-0.2-0.6-0.3-1.1-0.8-1.3c-0.3-0.3-0.8-0.4-1.2-0.4c-0.8,0-1.3,0.3-1.8,0.8s-0.8,1.3-0.8,2.6c0,1.2,0.2,1.9,0.6,2.6
		c0.5,0.6,1.1,0.8,1.7,0.8s1-0.2,1.3-0.4C33.2,39.6,33.3,39,33.4,38.2z"/>
	<path class="st2" d="M35.6,37.2c0-1.7,0.4-2.7,1.3-3.4c0.8-0.6,1.7-0.9,2.7-0.9c1.2,0,2.1,0.4,2.9,1.2c0.8,0.8,1.1,1.8,1.1,3.2
		c0,1.1-0.1,1.9-0.4,2.6c-0.3,0.6-0.8,1.1-1.5,1.5c-0.7,0.4-1.4,0.4-2.1,0.4c-1.2,0-2.1-0.4-2.8-1.2C36,39.7,35.6,38.5,35.6,37.2z
		 M37.1,37.2c0,1.1,0.3,1.9,0.8,2.4c0.4,0.6,1,0.8,1.8,0.8s1.4-0.3,1.8-0.8c0.4-0.6,0.8-1.3,0.8-2.6c0-1.1-0.3-1.8-0.8-2.4
		s-1.1-0.8-1.8-0.8s-1.3,0.3-1.8,0.8C37.4,35.2,37.1,36,37.1,37.2z"/>
	<path class="st2" d="M45.3,41.4V29.5h1.5v4.2c0.8-0.8,1.5-1.2,2.6-1.2c0.6,0,1.2,0.2,1.6,0.3c0.4,0.1,0.8,0.6,1.1,1.1
		c0.1,0.4,0.3,1.1,0.3,1.9v5.4h-1.5v-5.4c0-0.7-0.1-1.2-0.4-1.6c-0.3-0.3-0.8-0.4-1.4-0.4c-0.4,0-0.9,0.2-1.2,0.3
		c-0.3,0.1-0.8,0.7-0.9,1c-0.2,0.3-0.3,0.9-0.3,1.7v4.6C46.7,41.4,45.3,41.4,45.3,41.4z"/>
	<path class="st2" d="M53.9,37.2c0-1.7,0.4-2.7,1.4-3.4c0.8-0.6,1.6-0.9,2.7-0.9c1.2,0,2.1,0.4,2.9,1.2c0.8,0.8,1.1,1.8,1.1,3.2
		c0,1.1-0.1,1.9-0.4,2.6c-0.3,0.6-0.8,1.1-1.5,1.5c-0.7,0.4-1.4,0.4-2.1,0.4c-1.2,0-2.1-0.4-2.9-1.2C54.3,39.7,53.9,38.5,53.9,37.2z
		 M55.4,37.2c0,1.1,0.3,1.9,0.8,2.4c0.4,0.6,1.1,0.8,1.8,0.8c0.7,0,1.4-0.3,1.8-0.8c0.4-0.6,0.8-1.3,0.8-2.6c0-1.1-0.3-1.8-0.8-2.4
		s-1.1-0.8-1.8-0.8c-0.7,0-1.4,0.3-1.8,0.8C55.7,35.2,55.4,36,55.4,37.2z"/>
	<path class="st2" d="M65.2,41.4l-2.6-8.5h1.5l1.4,4.9l0.4,1.8c0-0.1,0.1-0.8,0.4-1.8l1.4-4.9h1.5l1.4,4.9l0.4,1.7l0.4-1.7l1.5-4.9
		h1.4l-2.6,8.5h-1.5l-1.5-5.1l-0.3-1.5l-1.8,6.6H65.2z"/>
	<path class="st2" d="M75.5,31.3v-1.7H77v1.7H75.5z M75.5,41.4v-8.5H77v8.5H75.5z"/>
	<path class="st2" d="M79.2,41.4v-8.5h1.4v1.2c0.6-0.9,1.5-1.3,2.7-1.3c0.4,0,1.1,0.2,1.4,0.3c0.4,0.2,0.8,0.4,0.9,0.8
		c0.1,0.4,0.3,0.6,0.4,1.1c0,0.3,0.1,0.8,0.1,1.3v5.1h-1.5v-5.3c0-0.6,0-1.1-0.1-1.3c-0.1-0.3-0.3-0.4-0.6-0.8
		c-0.3-0.4-0.6-0.3-1.1-0.3c-0.6,0-1.2,0.2-1.6,0.6c-0.4,0.4-0.6,1.2-0.6,2.2v4.7L79.2,41.4L79.2,41.4z"/>
	<path class="st2" d="M94.2,38.7l1.5,0.1c-0.3,0.9-0.6,1.5-1.4,2.1c-0.6,0.4-1.5,0.8-2.4,0.8c-1.2,0-2.3-0.4-3-1.2
		c-0.7-0.8-1.1-1.8-1.1-3.3s0.3-2.6,1.1-3.3c0.8-0.8,1.6-1.2,2.9-1.2c1.2,0,2.1,0.4,2.9,1.2c0.8,0.8,1,1.8,1,3.3c0,0.1,0,0.1,0,0.4
		h-6.3c0,0.9,0.3,1.6,0.8,2.1s1.1,0.8,1.8,0.8c0.6,0,1.1-0.1,1.4-0.4C93.6,39.7,93.9,39.3,94.2,38.7z M89.4,36.3h4.8
		c0-0.8-0.3-1.2-0.6-1.6c-0.4-0.6-1.1-0.9-1.8-0.9c-0.6,0-1.2,0.2-1.6,0.6C89.7,34.9,89.4,35.5,89.4,36.3z"/>
	<path class="st2" d="M97.5,41.4v-8.5h1.4v1.3c0.3-0.6,0.6-1.1,0.9-1.2c0.3-0.2,0.6-0.3,0.9-0.3c0.5,0,1,0.2,1.5,0.4l-0.5,1.3
		c-0.3-0.2-0.8-0.3-1-0.3c-0.2,0-0.6,0.2-0.9,0.3c-0.3,0.1-0.5,0.4-0.6,0.8c-0.1,0.4-0.3,1.1-0.3,1.7v4.5H97.5z"/>
</g>
<g class="st1">
	<path class="st2" d="M102.9,44.7l-0.1-1.4c0.3,0.2,0.6,0.2,0.9,0.2c0.3,0,0.6,0,0.8-0.2c0.1-0.1,0.3-0.3,0.5-0.4
		c0.1-0.1,0.3-0.4,0.5-1.1c0-0.1,0-0.1,0.1-0.3l-3.3-8.6h1.5l1.8,4.9c0.3,0.6,0.5,1.4,0.6,1.9c0.1-0.6,0.3-1.3,0.6-1.9l1.8-4.9h1.5
		l-3.3,8.7c-0.3,0.9-0.6,1.7-0.8,1.9c-0.3,0.4-0.6,0.9-0.9,1.1c-0.3,0.2-0.8,0.3-1.2,0.3C103.5,44.8,103.2,44.8,102.9,44.7z"/>
</g>
<g class="st1">
	<path class="st2" d="M110.4,41.4v-1.7h1.6v1.7H110.4z"/>
	<path class="st2" d="M120.1,38.2l1.4,0.2c-0.1,1.1-0.6,1.8-1.2,2.3c-0.6,0.6-1.5,0.9-2.4,0.9c-1.2,0-2.1-0.4-2.9-1.2s-1-1.8-1-3.3
		c0-0.9,0.1-1.8,0.5-2.4c0.4-0.6,0.8-1.2,1.4-1.5c0.6-0.3,1.4-0.4,2.1-0.4c0.9,0,1.6,0.3,2.3,0.8c0.7,0.5,0.9,1.2,1.2,1.9l-1.4,0.1
		c-0.1-0.6-0.3-1.1-0.8-1.3c-0.3-0.3-0.8-0.4-1.2-0.4c-0.8,0-1.4,0.3-1.8,0.8c-0.4,0.5-0.8,1.3-0.8,2.6c0,1.2,0.1,1.9,0.6,2.6
		s1,0.8,1.6,0.8s1-0.2,1.4-0.4C119.9,39.6,120,39,120.1,38.2z"/>
	<path class="st2" d="M122.2,37.2c0-1.7,0.5-2.7,1.4-3.4c0.8-0.6,1.6-0.9,2.7-0.9c1.2,0,2.1,0.4,2.9,1.2c0.8,0.8,1,1.8,1,3.2
		c0,1.1-0.1,1.9-0.5,2.6c-0.3,0.6-0.8,1.1-1.5,1.5c-0.7,0.4-1.4,0.4-2.1,0.4c-1.2,0-2.1-0.4-2.9-1.2
		C122.6,39.7,122.2,38.5,122.2,37.2z M123.7,37.2c0,1.1,0.3,1.9,0.8,2.4c0.5,0.6,1,0.8,1.8,0.8c0.8,0,1.4-0.3,1.8-0.8
		c0.5-0.6,0.8-1.3,0.8-2.6c0-1.1-0.3-1.8-0.8-2.4c-0.5-0.6-1-0.8-1.8-0.8c-0.8,0-1.4,0.3-1.8,0.8C123.9,35.2,123.7,36,123.7,37.2z"
		/>
	<path class="st2" d="M132,41.4v-8.5h1.4v1.2c0.3-0.4,0.6-0.8,1-1.1c0.5-0.3,0.9-0.4,1.5-0.4c0.6,0,1.2,0.2,1.5,0.4
		c0.3,0.2,0.8,0.6,0.9,1.1c0.8-1.1,1.5-1.5,2.7-1.5c0.9,0,1.5,0.3,2,0.8s0.8,1.2,0.8,2.1v5.8h-1.5v-5.4c0-0.6,0-1.1-0.1-1.2
		c-0.2-0.3-0.3-0.4-0.5-0.6c-0.3-0.2-0.6-0.3-0.9-0.3c-0.6,0-1,0.2-1.5,0.6s-0.6,1.1-0.6,2v4.9h-1.5v-5.6c0-0.6-0.2-1.2-0.3-1.5
		c-0.3-0.3-0.6-0.4-1.2-0.4c-0.5,0-0.8,0.2-1.2,0.3c-0.4,0.1-0.6,0.6-0.8,0.9s-0.3,1.1-0.3,1.8v4.5L132,41.4L132,41.4z"/>
	<path class="st2" d="M149.7,37.9v-1.5h4.5v1.5H149.7z"/>
	<path class="st2" d="M160.1,35.7c0-1.9,0.6-3.4,1.6-4.7c1-1.1,2.4-1.7,4-1.7c1,0,2.1,0.3,3,0.8c0.9,0.4,1.5,1.2,2,2.3
		c0.5,0.9,0.8,1.9,0.8,3.1s-0.3,2.3-0.8,3.2c-0.5,0.9-1.2,1.6-2.1,2.1c-0.9,0.4-1.8,0.8-2.9,0.8c-1,0-2.1-0.3-3-0.8
		c-0.9-0.4-1.5-1.2-2-2.3C160.2,37.6,160.1,36.7,160.1,35.7z M161.6,35.7c0,1.3,0.5,2.6,1.2,3.3c0.7,0.7,1.6,1.2,2.8,1.2
		c1.2,0,2.1-0.4,2.9-1.2c0.8-0.8,1.2-1.9,1.2-3.4c0-0.9-0.2-1.8-0.5-2.6c-0.3-0.8-0.8-1.2-1.4-1.7c-0.6-0.5-1.3-0.6-2.1-0.6
		c-1,0-2.1,0.4-2.9,1.2S161.6,33.9,161.6,35.7z"/>
</g>
<g class="st1">
	<path class="st2" d="M173.4,41.4v-7.3H172v-1.2h1.4V32c0-0.6,0-1.1,0.1-1.3c0.2-0.3,0.5-0.8,0.8-0.9c0.3-0.3,0.9-0.3,1.5-0.3
		c0.5,0,0.9,0,1.4,0.2l-0.2,1.2c-0.3,0-0.6-0.2-0.9-0.2c-0.5,0-0.8,0.2-0.9,0.3c-0.1,0.2-0.3,0.6-0.3,1.1v0.8h1.7v1.2h-1.7v7.3
		H173.4C173.4,41.2,173.4,41.4,173.4,41.4z"/>
</g>
<g class="st1">
	<path class="st2" d="M177.7,41.4v-7.3h-1.3v-1.2h1.3V32c0-0.6,0-1.1,0.2-1.3c0.1-0.3,0.5-0.8,0.8-0.9c0.3-0.3,0.9-0.3,1.5-0.3
		c0.5,0,0.9,0,1.3,0.2l-0.1,1.2c-0.3,0-0.6-0.2-0.9-0.2c-0.5,0-0.8,0.2-0.9,0.3c-0.2,0.2-0.3,0.6-0.3,1.1v0.8h1.6v1.2h-1.8v7.3
		H177.7L177.7,41.4z"/>
	<path class="st2" d="M182,31.3v-1.7h1.5v1.7H182z M182,41.4v-8.5h1.5v8.5H182z"/>
	<path class="st2" d="M191.3,38.2l1.3,0.2c-0.2,1.1-0.6,1.8-1.2,2.3c-0.6,0.6-1.5,0.9-2.4,0.9c-1.2,0-2.1-0.4-2.8-1.2
		c-0.7-0.8-1-1.8-1-3.3c0-0.9,0.1-1.8,0.5-2.4c0.3-0.6,0.8-1.2,1.3-1.5c0.6-0.3,1.4-0.4,2.1-0.4c0.9,0,1.6,0.3,2.3,0.8
		c0.6,0.4,0.9,1.2,1.2,1.9l-1.3,0.1c-0.2-0.6-0.3-1.1-0.8-1.3c-0.3-0.3-0.8-0.4-1.2-0.4c-0.8,0-1.4,0.3-1.8,0.8
		c-0.4,0.4-0.8,1.3-0.8,2.6c0,1.2,0.1,1.9,0.6,2.6s1,0.8,1.7,0.8c0.6,0,1-0.2,1.3-0.4C190.8,39.6,191.1,39,191.3,38.2z"/>
	<path class="st2" d="M193.8,31.3v-1.7h1.5v1.7H193.8z M193.8,41.4v-8.5h1.5v8.5H193.8z"/>
	<path class="st2" d="M203.1,40.3c-0.6,0.4-1,0.8-1.5,0.9c-0.4,0.1-1,0.3-1.7,0.3c-0.9,0-1.7-0.3-2.1-0.8c-0.4-0.5-0.8-1.1-0.8-1.8
		c0-0.4,0.2-0.8,0.3-1.2c0.2-0.3,0.5-0.6,0.8-0.9c0.3-0.1,0.6-0.3,1-0.4c0.3,0,0.8-0.1,1.3-0.1c1.2-0.2,2.1-0.3,2.5-0.4
		c0-0.2,0-0.3,0-0.4c0-0.6-0.2-1.1-0.5-1.2c-0.3-0.3-0.9-0.4-1.7-0.4c-0.7,0-1.2,0.2-1.5,0.3s-0.6,0.6-0.8,1.2l-1.3-0.2
		c0.2-0.6,0.3-1.1,0.6-1.5c0.3-0.3,0.8-0.6,1.3-0.9c0.6-0.2,1.2-0.3,2-0.3s1.3,0.2,1.8,0.3c0.5,0.2,0.8,0.4,1.1,0.6
		c0.2,0.3,0.3,0.6,0.4,1.1c0,0.3,0,0.8,0,1.3v2.1c0,1.4,0,2.3,0.2,2.6s0.2,0.8,0.3,1.1h-1.5C203.3,41.1,203.1,40.8,203.1,40.3z
		 M202.9,37.2c-0.6,0.1-1.3,0.4-2.4,0.6c-0.6,0.2-1,0.2-1.2,0.3c-0.3,0.2-0.5,0.3-0.6,0.4c-0.1,0.1-0.1,0.4-0.1,0.8
		c0,0.4,0.2,0.8,0.5,0.9s0.8,0.4,1.3,0.4c0.5,0,1-0.2,1.5-0.3c0.4-0.3,0.8-0.6,0.9-1.1c0.2-0.3,0.3-0.8,0.3-1.5L202.9,37.2
		L202.9,37.2z"/>
	<path class="st2" d="M206.7,41.4V29.5h1.5v11.9H206.7z"/>
	<path class="st2" d="M214.3,38.8l1.5-0.3c0.2,0.6,0.3,1.1,0.6,1.4c0.3,0.3,0.9,0.4,1.5,0.4s1.2-0.2,1.5-0.4
		c0.3-0.3,0.5-0.6,0.5-0.9s-0.2-0.6-0.5-0.8c-0.2-0.1-0.8-0.3-1.5-0.4c-1-0.3-1.8-0.4-2.3-0.8c-0.4-0.1-0.8-0.4-0.9-0.8
		c-0.1-0.4-0.3-0.8-0.3-1.2c0-0.4,0.2-0.8,0.3-1.1c0.2-0.3,0.5-0.6,0.8-0.8c0.2-0.2,0.6-0.3,0.9-0.4c0.3-0.1,0.8-0.2,1.2-0.2
		c0.6,0,1.2,0.2,1.8,0.3c0.5,0.2,0.9,0.4,1.1,0.8c0.3,0.3,0.4,0.8,0.4,1.3l-1.3,0.2c0-0.4-0.3-0.8-0.6-1.1s-0.8-0.3-1.3-0.3
		s-1.2,0.2-1.3,0.3c-0.3,0.2-0.4,0.4-0.4,0.8c0,0.2,0,0.3,0.2,0.4c0.2,0.1,0.3,0.3,0.6,0.4c0.2,0,0.6,0.1,1.3,0.3
		c1,0.3,1.8,0.4,2.1,0.6c0.4,0.2,0.8,0.4,0.9,0.8c0.1,0.4,0.3,0.8,0.3,1.2s-0.2,0.9-0.4,1.4c-0.3,0.4-0.8,0.8-1.2,1.1
		c-0.4,0.3-1.2,0.3-1.8,0.3c-1.1,0-2-0.3-2.6-0.8C214.8,40.5,214.5,39.7,214.3,38.8z"/>
	<path class="st2" d="M223.2,31.3v-1.7h1.5v1.7H223.2z M223.2,41.4v-8.5h1.5v8.5H223.2z"/>
	<path class="st2" d="M229.9,40l0.2,1.4c-0.4,0.1-0.8,0.1-1,0.1c-0.6,0-0.9-0.1-1.2-0.3c-0.3-0.1-0.4-0.4-0.6-0.6
		c-0.2-0.3-0.2-0.9-0.2-1.7V34h-1v-1.2h1v-2.1l1.5-0.9v3h1.5V34h-1.5v4.9c0,0.4,0,0.8,0.2,0.8c0,0.2,0.2,0.2,0.3,0.3
		c0.2,0,0.3,0.2,0.4,0.2C229.5,40.2,229.7,40.2,229.9,40z"/>
	<path class="st2" d="M237.2,38.7l1.5,0.1c-0.3,0.9-0.6,1.5-1.3,2.1c-0.6,0.4-1.5,0.8-2.4,0.8c-1.2,0-2.3-0.4-3-1.2
		c-0.7-0.8-1.1-1.8-1.1-3.3s0.3-2.6,1.1-3.3s1.7-1.2,2.8-1.2c1.2,0,2.1,0.4,2.8,1.2s1,1.8,1,3.3c0,0.1,0,0.1,0,0.4h-6.3
		c0,0.9,0.3,1.6,0.8,2.1c0.4,0.4,1,0.8,1.8,0.8c0.6,0,1.1-0.1,1.3-0.4C236.7,39.7,237,39.3,237.2,38.7z M232.5,36.3h4.8
		c0-0.8-0.3-1.2-0.6-1.6c-0.5-0.6-1.1-0.9-1.8-0.9c-0.6,0-1.2,0.2-1.7,0.6C232.8,34.8,232.5,35.5,232.5,36.3z"/>
</g>
<g class="st1">
	<path class="st3" d="M258.3,37.3l1.5,0.4c-0.3,1.4-0.9,2.3-1.8,3c-0.9,0.6-1.9,1.1-3.2,1.1c-1.2,0-2.3-0.3-3.2-0.8
		c-0.8-0.4-1.3-1.2-1.8-2.3c-0.5-1.1-0.6-2.1-0.6-3.1c0-1.2,0.3-2.3,0.8-3.2c0.4-0.9,1.2-1.7,1.9-2.1s1.8-0.8,2.8-0.8
		c1.2,0,2.1,0.3,3,0.9c0.9,0.6,1.3,1.5,1.7,2.6l-1.5,0.3c-0.3-0.9-0.6-1.5-1.2-1.8c-0.5-0.4-1.2-0.6-2-0.6c-0.9,0-1.7,0.2-2.3,0.6
		s-1,1.1-1.3,1.8c-0.3,0.8-0.3,1.5-0.3,2.2c0,1.1,0.2,1.9,0.4,2.7c0.3,0.8,0.8,1.4,1.3,1.7s1.3,0.6,2,0.6c0.9,0,1.7-0.3,2.3-0.8
		C257.7,39,258,38.2,258.3,37.3z"/>
	<path class="st3" d="M261,37.2c0-1.7,0.5-2.7,1.3-3.4c0.8-0.6,1.7-0.9,2.7-0.9c1.2,0,2.1,0.4,2.8,1.2c0.7,0.8,1,1.8,1,3.2
		c0,1.1-0.2,1.9-0.4,2.6c-0.3,0.6-0.8,1.1-1.5,1.5c-0.7,0.4-1.3,0.4-2.1,0.4c-1.2,0-2.1-0.4-2.8-1.2C261.4,39.7,261,38.5,261,37.2z
		 M262.5,37.2c0,1.1,0.3,1.9,0.8,2.4c0.5,0.6,1.1,0.8,1.8,0.8c0.7,0,1.3-0.3,1.8-0.8c0.5-0.6,0.8-1.3,0.8-2.6c0-1.1-0.3-1.8-0.8-2.4
		c-0.4-0.6-1-0.8-1.8-0.8c-0.8,0-1.3,0.3-1.8,0.8C262.8,35.2,262.5,36,262.5,37.2z"/>
	<path class="st3" d="M270.8,41.4V29.5h1.5v4.2c0.8-0.8,1.5-1.2,2.6-1.2c0.6,0,1.2,0.2,1.7,0.3c0.4,0.3,0.8,0.6,1,1.1
		c0.3,0.5,0.3,1.1,0.3,1.9v5.4h-1.5v-5.4c0-0.7-0.2-1.2-0.5-1.6c-0.3-0.3-0.8-0.4-1.3-0.4c-0.4,0-0.9,0.2-1.2,0.3
		c-0.3,0.2-0.6,0.4-0.8,0.9c-0.2,0.5-0.3,0.9-0.3,1.7v4.6L270.8,41.4L270.8,41.4z"/>
	<path class="st3" d="M279.3,37.2c0-1.7,0.4-2.7,1.3-3.4c0.8-0.6,1.7-0.9,2.7-0.9c1.2,0,2.1,0.4,2.8,1.2c0.7,0.8,1.1,1.8,1.1,3.2
		c0,1.1-0.2,1.9-0.5,2.6c-0.3,0.6-0.8,1.1-1.5,1.5c-0.7,0.4-1.3,0.4-2.1,0.4c-1.2,0-2.1-0.4-2.8-1.2
		C279.8,39.7,279.3,38.5,279.3,37.2z M280.8,37.2c0,1.1,0.3,1.9,0.8,2.4c0.4,0.6,1,0.8,1.8,0.8c0.8,0,1.3-0.3,1.8-0.8
		c0.4-0.6,0.8-1.3,0.8-2.6c0-1.1-0.3-1.8-0.8-2.4s-1.1-0.8-1.8-0.8c-0.7,0-1.3,0.3-1.8,0.8C281.1,35.2,280.8,36,280.8,37.2z"/>
	<path class="st3" d="M295.8,41.4l-3.2-11.8h1.7l1.8,7.8c0.2,0.8,0.3,1.7,0.5,2.4c0.3-1.2,0.4-1.9,0.6-2.3l2.3-8h1.9l1.7,6
		c0.5,1.5,0.8,2.9,0.9,4.2c0.2-0.8,0.3-1.6,0.6-2.6l1.8-7.5h1.5l-3.3,11.8h-1.5l-2.5-9c-0.2-0.8-0.3-1.2-0.3-1.3
		c-0.2,0.6-0.3,1.1-0.3,1.3l-2.6,9H295.8L295.8,41.4z"/>
	<path class="st3" d="M309.2,31.3v-1.7h1.5v1.7H309.2z M309.2,41.4v-8.5h1.5v8.5H309.2z"/>
	<path class="st3" d="M312.9,41.4v-8.5h1.3v1.2c0.6-0.9,1.5-1.3,2.7-1.3c0.5,0,1.1,0.2,1.3,0.3c0.5,0.2,0.8,0.4,0.9,0.8
		c0.1,0.4,0.3,0.6,0.5,1.1c0,0.3,0.2,0.8,0.2,1.3v5.1h-1.5v-5.3c0-0.6,0-1.1-0.2-1.3c-0.2-0.3-0.3-0.4-0.6-0.8
		c-0.3-0.3-0.6-0.3-1.1-0.3c-0.6,0-1.2,0.2-1.7,0.6c-0.4,0.4-0.6,1.2-0.6,2.2v4.7L312.9,41.4L312.9,41.4z"/>
	<path class="st3" d="M327.9,38.7l1.5,0.1c-0.3,0.9-0.6,1.5-1.3,2.1c-0.6,0.4-1.5,0.8-2.4,0.8c-1.2,0-2.3-0.4-3-1.2
		c-0.7-0.8-1.1-1.8-1.1-3.3s0.3-2.6,1.1-3.3c0.8-0.7,1.7-1.2,2.8-1.2c1.2,0,2.1,0.4,2.8,1.2c0.7,0.8,1,1.8,1,3.3c0,0.1,0,0.1,0,0.4
		H323c0,0.9,0.3,1.6,0.8,2.1c0.5,0.4,1.1,0.8,1.8,0.8c0.6,0,1-0.1,1.3-0.4C327.3,39.7,327.6,39.3,327.9,38.7z M323.1,36.3h4.8
		c0-0.8-0.3-1.2-0.6-1.6c-0.5-0.6-1.1-0.9-1.8-0.9c-0.6,0-1.2,0.2-1.7,0.6C323.4,34.8,323.1,35.5,323.1,36.3z"/>
	<path class="st3" d="M331.2,41.4v-8.5h1.4v1.3c0.3-0.6,0.6-1.1,0.9-1.2c0.3-0.2,0.6-0.3,0.9-0.3c0.4,0,1,0.2,1.5,0.4l-0.5,1.3
		c-0.3-0.2-0.8-0.3-1-0.3c-0.3,0-0.6,0.2-0.9,0.3c-0.3,0.1-0.5,0.4-0.6,0.8c-0.2,0.4-0.3,1.1-0.3,1.7v4.5H331.2z"/>
</g>
<g class="st1">
	<path class="st3" d="M336.6,44.7l-0.2-1.4c0.3,0.2,0.6,0.2,0.9,0.2s0.6,0,0.8-0.2c0.1-0.1,0.3-0.3,0.4-0.4c0.2-0.1,0.3-0.4,0.5-1.1
		c0-0.1,0-0.1,0.2-0.3l-3.3-8.6h1.5l1.8,4.9c0.3,0.6,0.4,1.4,0.6,1.9c0.2-0.6,0.3-1.3,0.6-1.9l1.8-4.9h1.5l-3.3,8.7
		c-0.3,0.9-0.6,1.7-0.8,1.9c-0.3,0.4-0.6,0.9-0.9,1.1c-0.3,0.2-0.8,0.3-1.2,0.3C337.2,44.8,336.9,44.8,336.6,44.7z"/>
</g>
<g class="st1">
	<path class="st3" d="M344.1,41.4v-1.7h1.6v1.7c0,0.6-0.1,1.1-0.3,1.5c-0.2,0.3-0.6,0.6-1,0.9l-0.5-0.6c0.3-0.2,0.6-0.3,0.8-0.6
		c0.1-0.3,0.3-0.6,0.3-1.1L344.1,41.4L344.1,41.4z"/>
	<path class="st3" d="M352.9,41.4V29.5h1.5v10.3h5.9v1.3h-7.4V41.4z"/>
	<path class="st3" d="M362.1,41.4V29.5h1.5v10.3h5.8v1.3h-7.3V41.4z"/>
	<path class="st3" d="M379.8,37.3l1.5,0.4c-0.3,1.4-0.9,2.3-1.8,3c-0.9,0.6-2,1.1-3.1,1.1c-1.2,0-2.3-0.3-3.2-0.8
		c-0.8-0.4-1.3-1.2-1.8-2.3s-0.6-2.1-0.6-3.1c0-1.2,0.3-2.3,0.8-3.2c0.5-0.9,1.2-1.7,2-2.1s1.8-0.8,2.9-0.8c1.2,0,2.1,0.3,3,0.9
		c0.9,0.6,1.3,1.5,1.6,2.6l-1.5,0.3c-0.3-0.9-0.6-1.5-1.2-1.8c-0.4-0.4-1.2-0.6-1.9-0.6c-0.9,0-1.7,0.2-2.3,0.6
		c-0.6,0.4-1.1,1.1-1.4,1.8s-0.3,1.5-0.3,2.2c0,1.1,0.1,1.9,0.5,2.7c0.3,0.8,0.8,1.4,1.3,1.7c0.6,0.3,1.4,0.6,2,0.6
		c0.9,0,1.6-0.3,2.3-0.8C379,39,379.5,38.2,379.8,37.3z"/>
</g>
<g class="st1">
	<path d="M8.1,67.8l4.5-11.9h1.7l4.8,11.9h-1.8L16,64.2h-5l-1.2,3.6H8.1z M11.4,63h4l-1.2-3.3c-0.5-0.9-0.8-1.8-0.9-2.4
		c-0.2,0.8-0.3,1.5-0.6,2.3L11.4,63z"/>
	<path d="M20.1,67.8V55.9h1.5v11.9H20.1z"/>
	<path d="M23.7,67.8V55.9h1.5v11.9H23.7z"/>
	<path d="M31.9,67.8v-8.5h1.4v1.4c0.3-0.6,0.6-1.1,0.9-1.2c0.3-0.1,0.6-0.3,0.9-0.3c0.5,0,1.1,0.1,1.5,0.4L36.2,61
		c-0.3-0.1-0.8-0.3-1.1-0.3s-0.6,0.1-0.9,0.3c-0.3,0.2-0.4,0.5-0.6,0.8c-0.2,0.5-0.3,1.1-0.3,1.6v4.5L31.9,67.8L31.9,67.8z"/>
	<path d="M43.4,65.1l1.5,0.1c-0.3,0.9-0.6,1.5-1.3,2.1c-0.6,0.4-1.5,0.8-2.4,0.8c-1.2,0-2.3-0.5-3-1.2c-0.7-0.7-1-1.8-1-3.3
		s0.3-2.6,1-3.3c0.7-0.7,1.7-1.2,2.9-1.2c1.2,0,2.1,0.4,2.8,1.2c0.7,0.8,1.1,1.8,1.1,3.3c0,0.1,0,0.1,0,0.4h-6.3
		c0,0.9,0.3,1.6,0.8,2.1c0.4,0.5,1,0.8,1.8,0.8c0.6,0,1.1-0.1,1.4-0.4C42.9,66.1,43.2,65.7,43.4,65.1z M38.6,62.8h4.8
		c0-0.8-0.3-1.2-0.6-1.6c-0.5-0.6-0.9-0.9-1.7-0.9c-0.6,0-1.2,0.1-1.7,0.6C38.9,61.5,38.7,62.1,38.6,62.8z"/>
	<path d="M52.2,67.8v-1c-0.6,0.9-1.4,1.2-2.4,1.2c-0.8,0-1.4-0.1-1.9-0.6c-0.6-0.3-1.1-0.9-1.3-1.5c-0.3-0.6-0.4-1.5-0.4-2.3
		c0-0.9,0.1-1.6,0.4-2.3c0.3-0.8,0.8-1.2,1.3-1.6c0.6-0.3,1.2-0.6,1.9-0.6c0.4,0,0.9,0.1,1.4,0.3c0.5,0.2,0.8,0.4,1.1,0.9v-4.2h1.5
		v11.7C53.8,67.8,52.2,67.8,52.2,67.8z M47.7,63.6c0,1,0.3,1.9,0.8,2.4c0.4,0.6,1.1,0.8,1.6,0.8c0.6,0,1.2-0.3,1.6-0.8
		c0.4-0.5,0.6-1.4,0.6-2.4c0-1.2-0.1-2.1-0.8-2.6c-0.6-0.4-1.1-0.8-1.6-0.8c-0.6,0-1.2,0.3-1.6,0.8C47.9,61.6,47.7,62.5,47.7,63.6z"
		/>
	<path d="M62,67.8l-2.6-8.5h1.5l1.4,4.9l0.4,1.8c0-0.1,0.1-0.8,0.4-1.8l1.4-4.9H66l1.4,4.9l0.4,1.6l0.4-1.6l1.5-4.9H71l-2.7,8.5
		h-1.4l-1.4-5.1l-0.3-1.5l-1.8,6.6H62z"/>
	<path d="M72.3,57.7v-1.6h1.5v1.6H72.3z M72.3,67.8v-8.5h1.5v8.5H72.3z"/>
	<path d="M75.9,67.8v-8.5h1.4v1.1c0.6-0.9,1.5-1.4,2.7-1.4c0.4,0,1.1,0.1,1.4,0.3c0.4,0.1,0.8,0.4,0.9,0.8c0.1,0.3,0.3,0.6,0.4,1
		c0,0.3,0.1,0.8,0.1,1.4v5.3h-1.5v-5.3c0-0.6,0-1-0.1-1.4c-0.2-0.2-0.3-0.4-0.6-0.7c-0.3-0.3-0.6-0.3-1.1-0.3
		c-0.6,0-1.2,0.1-1.6,0.6c-0.4,0.4-0.6,1.2-0.6,2.3v4.8C77.3,67.8,75.9,67.8,75.9,67.8z"/>
	<path d="M90.9,65.1l1.5,0.1c-0.3,0.9-0.6,1.5-1.4,2.1c-0.6,0.4-1.5,0.8-2.4,0.8c-1.2,0-2.3-0.5-3-1.2c-0.7-0.7-1.1-1.8-1.1-3.2
		c0-1.5,0.3-2.6,1.1-3.3c0.8-0.7,1.6-1.2,2.9-1.2c1.2,0,2.1,0.4,2.9,1.2c0.8,0.8,1.1,1.8,1.1,3.3c0,0.1,0,0.1,0,0.4h-6.3
		c0,0.9,0.3,1.6,0.8,2.1c0.4,0.5,1.1,0.8,1.8,0.8c0.6,0,1.1-0.1,1.4-0.4C90.5,66.1,90.7,65.7,90.9,65.1z M86.2,62.8H91
		c0-0.8-0.3-1.2-0.6-1.6c-0.4-0.6-1.1-0.9-1.8-0.9c-0.6,0-1.2,0.1-1.6,0.6C86.6,61.5,86.2,62.1,86.2,62.8z"/>
	<path d="M93.7,65.4l1.5-0.3c0.1,0.6,0.3,1,0.6,1.4c0.3,0.3,0.9,0.4,1.5,0.4c0.6,0,1.2-0.1,1.5-0.4c0.3-0.3,0.5-0.6,0.5-0.9
		c0-0.3-0.1-0.6-0.5-0.8c-0.1-0.1-0.8-0.3-1.5-0.5c-1-0.3-1.8-0.4-2.3-0.8c-0.4-0.1-0.8-0.4-0.9-0.8c-0.1-0.3-0.3-0.8-0.3-1.2
		c0-0.5,0.1-0.8,0.3-1.1c0.1-0.3,0.4-0.6,0.8-0.8c0.1-0.1,0.6-0.3,0.9-0.4c0.3-0.1,0.8-0.1,1.2-0.1c0.6,0,1.2,0.1,1.8,0.3
		c0.5,0.1,0.9,0.5,1,0.8c0.3,0.3,0.5,0.8,0.5,1.4l-1.4,0.1c0-0.4-0.3-0.8-0.6-1c-0.3-0.3-0.6-0.5-1.2-0.5s-1.1,0.2-1.2,0.4
		c-0.3,0.1-0.5,0.4-0.5,0.8c0,0.1,0,0.3,0.1,0.4c0.1,0.1,0.3,0.3,0.6,0.5c0.1,0,0.6,0.1,1.4,0.3c1,0.3,1.8,0.5,2.1,0.6
		c0.5,0.1,0.8,0.5,0.9,0.8c0.1,0.3,0.3,0.8,0.3,1.2s-0.1,0.9-0.5,1.4c-0.3,0.4-0.8,0.8-1.2,1c-0.5,0.3-1.2,0.3-1.8,0.3
		c-1,0-2-0.3-2.6-0.8C94.2,66.9,93.9,66.3,93.7,65.4z"/>
	<path d="M106.5,63.6c0-1.6,0.5-2.7,1.4-3.5c0.8-0.6,1.6-0.9,2.7-0.9c1.2,0,2.1,0.5,2.9,1.2c0.8,0.7,1,1.8,1,3.1
		c0,1-0.1,1.9-0.5,2.5c-0.3,0.6-0.8,1.1-1.5,1.5c-0.8,0.5-1.4,0.5-2.1,0.5c-1.2,0-2.1-0.5-2.9-1.2C107,66.1,106.5,65.1,106.5,63.6z
		 M108,63.6c0,1,0.3,1.9,0.8,2.4c0.5,0.6,1,0.8,1.8,0.8c0.8,0,1.4-0.3,1.8-0.8c0.5-0.6,0.8-1.4,0.8-2.6c0-1-0.3-1.8-0.8-2.4
		c-0.5-0.6-1-0.8-1.8-0.8c-0.8,0-1.4,0.3-1.8,0.8C108.3,61.6,108,62.5,108,63.6z"/>
	<path d="M116.2,67.8v-8.5h1.4v1.1c0.6-0.9,1.5-1.4,2.7-1.4c0.5,0,1,0.1,1.4,0.3c0.5,0.1,0.8,0.4,0.9,0.8c0.1,0.3,0.3,0.6,0.5,1
		c0,0.3,0.1,0.8,0.1,1.4v5.3h-1.5v-5.3c0-0.6,0-1-0.1-1.4c-0.1-0.3-0.3-0.4-0.6-0.8c-0.3-0.3-0.6-0.3-1-0.3c-0.6,0-1.2,0.1-1.6,0.6
		c-0.5,0.4-0.6,1.2-0.6,2.3v4.8h-1.6L116.2,67.8L116.2,67.8z"/>
	<path d="M129.5,65.4l1.5-0.3c0.1,0.6,0.3,1,0.6,1.4c0.3,0.3,0.9,0.4,1.5,0.4c0.6,0,1.2-0.1,1.5-0.4c0.3-0.3,0.5-0.6,0.5-0.9
		c0-0.3-0.1-0.6-0.5-0.8c-0.1-0.1-0.8-0.3-1.5-0.5c-1-0.3-1.8-0.4-2.3-0.8c-0.5-0.1-0.8-0.4-0.9-0.8c-0.1-0.3-0.3-0.9-0.3-1.2
		c0-0.4,0.1-0.8,0.3-1c0.1-0.3,0.5-0.6,0.8-0.8c0.1-0.1,0.6-0.3,0.9-0.5c0.3-0.2,0.8-0.1,1.2-0.1c0.6,0,1.2,0.1,1.8,0.3
		c0.5,0.1,0.9,0.4,1,0.8c0.3,0.3,0.5,0.8,0.5,1.4l-1.3,0.1c0-0.4-0.3-0.8-0.6-1c-0.3-0.3-0.6-0.5-1.2-0.5s-1.2,0.1-1.4,0.3
		c-0.3,0.1-0.5,0.4-0.5,0.8c0,0.1,0,0.3,0.1,0.4c0.1,0.1,0.3,0.3,0.6,0.5c0.1,0,0.6,0.1,1.4,0.3c1,0.3,1.8,0.5,2.1,0.6
		c0.5,0.1,0.8,0.5,0.9,0.8c0.1,0.3,0.3,0.8,0.3,1.2s-0.1,0.9-0.5,1.4c-0.3,0.4-0.8,0.8-1.2,1c-0.5,0.3-1.2,0.3-1.8,0.3
		c-1,0-2-0.3-2.5-0.8C129.9,66.9,129.6,66.3,129.5,65.4z"/>
	<path d="M143.9,66.7c-0.6,0.4-1,0.8-1.5,0.9c-0.5,0.1-1,0.3-1.7,0.3c-0.9,0-1.6-0.3-2.1-0.8c-0.5-0.4-0.8-1-0.8-1.8
		c0-0.5,0.1-0.8,0.3-1.2c0.1-0.3,0.5-0.6,0.8-0.9c0.3-0.1,0.6-0.3,1-0.4c0.3,0,0.8-0.1,1.3-0.1c1.2-0.1,2.1-0.3,2.5-0.5
		c0-0.1,0-0.3,0-0.4c0-0.6-0.1-1.1-0.5-1.2c-0.4-0.2-1-0.3-1.8-0.3s-1.2,0.1-1.5,0.3c-0.3,0.2-0.6,0.6-0.8,1.2h-1.4
		c0.2-0.6,0.3-1,0.6-1.5c0.3-0.3,0.8-0.6,1.3-0.9c0.6-0.1,1.2-0.3,2-0.3s1.4,0.1,1.8,0.3c0.5,0.1,0.8,0.5,1,0.6
		c0.2,0.3,0.3,0.6,0.5,1.1c0,0.3,0,0.8,0,1.4v1.9c0,1.4,0,2.3,0.2,2.6c0.1,0.3,0.1,0.8,0.3,1h-1.5C144,67.5,143.9,67.2,143.9,66.7z
		 M143.7,63.6c-0.6,0.1-1.3,0.4-2.4,0.6c-0.6,0.1-1,0.1-1.2,0.3c-0.3,0.1-0.5,0.3-0.6,0.5c-0.1,0.1-0.1,0.4-0.1,0.8
		c0,0.4,0.1,0.8,0.5,0.9c0.3,0.1,0.8,0.4,1.3,0.4c0.6,0,1-0.1,1.5-0.3c0.5-0.3,0.8-0.6,0.9-1.1c0.1-0.3,0.3-0.8,0.3-1.5L143.7,63.6
		L143.7,63.6z"/>
	<path d="M147.3,67.8V55.9h1.5v11.9H147.3z"/>
	<path d="M156.9,65.1l1.5,0.1c-0.3,0.9-0.6,1.5-1.4,2.1c-0.6,0.4-1.5,0.8-2.4,0.8c-1.2,0-2.3-0.5-3-1.2c-0.7-0.7-1-1.8-1-3.3
		s0.3-2.6,1-3.3c0.7-0.7,1.6-1.2,2.8-1.2c1.2,0,2.1,0.4,2.9,1.2c0.8,0.8,1,1.8,1,3.3c0,0.1,0,0.1,0,0.4H152c0,0.9,0.3,1.6,0.8,2.1
		s1,0.8,1.8,0.8c0.6,0,1-0.1,1.3-0.4C156.5,66.1,156.7,65.7,156.9,65.1z M152.1,62.8h4.8c0-0.8-0.3-1.2-0.6-1.6
		c-0.5-0.6-1-0.9-1.8-0.9c-0.6,0-1.2,0.1-1.6,0.6C152.4,61.5,152.2,62.1,152.1,62.8z"/>
	<path d="M161,64.9l-0.5-6.3V56h1.8v2.6l-0.5,6.3H161z M160.7,67.8v-1.5h1.6v1.5H160.7z"/>
	<path d="M169.7,67.8V55.9h8v1.4h-6.5v3.6h5.5v1.4h-5.5v5.5H169.7z"/>
	<path d="M179.4,67.8v-8.5h1.3v1.4c0.3-0.6,0.6-1.1,0.9-1.2c0.3-0.1,0.6-0.3,0.9-0.3c0.5,0,1,0.1,1.5,0.4l-0.5,1.4
		c-0.3-0.1-0.8-0.3-1-0.3s-0.6,0.1-0.9,0.3c-0.3,0.2-0.5,0.5-0.6,0.8c-0.1,0.5-0.3,1.1-0.3,1.6v4.5L179.4,67.8L179.4,67.8z"/>
	<path d="M190.8,65.1l1.5,0.1c-0.3,0.9-0.6,1.5-1.4,2.1c-0.6,0.4-1.5,0.8-2.4,0.8c-1.2,0-2.3-0.5-3-1.2c-0.7-0.7-1-1.8-1-3.3
		s0.3-2.6,1-3.3c0.7-0.7,1.6-1.2,2.8-1.2c1.2,0,2.1,0.4,2.9,1.2c0.8,0.8,1,1.8,1,3.3c0,0.1,0,0.1,0,0.4h-6.3c0,0.9,0.3,1.6,0.8,2.1
		s1,0.8,1.8,0.8c0.6,0,1-0.1,1.3-0.4C190.2,66.1,190.5,65.7,190.8,65.1z M186,62.8h4.8c0-0.8-0.3-1.2-0.6-1.6
		c-0.5-0.6-1-0.9-1.8-0.9c-0.6,0-1.2,0.1-1.7,0.6C186.3,61.5,186,62.1,186,62.8z"/>
	<path d="M199.9,65.1l1.5,0.1c-0.3,0.9-0.6,1.5-1.3,2.1c-0.6,0.4-1.5,0.8-2.4,0.8c-1.2,0-2.3-0.5-3-1.2c-0.7-0.7-1-1.8-1-3.3
		s0.3-2.6,1-3.3c0.7-0.7,1.7-1.2,2.8-1.2c1.2,0,2.1,0.4,2.8,1.2c0.7,0.8,1,1.8,1,3.3c0,0.1,0,0.1,0,0.4H195c0,0.9,0.3,1.6,0.8,2.1
		s1,0.8,1.8,0.8c0.6,0,1-0.1,1.3-0.4C199.4,66.1,199.7,65.7,199.9,65.1z M195.2,62.8h4.8c0-0.8-0.3-1.2-0.6-1.6
		c-0.5-0.6-1-0.9-1.8-0.9c-0.6,0-1.2,0.1-1.7,0.6C195.4,61.5,195.2,62.1,195.2,62.8z"/>
	<path d="M207.6,68.5l1.3,0.1c0,0.5,0.2,0.8,0.5,0.9c0.3,0.3,0.9,0.5,1.5,0.5s1.2-0.1,1.5-0.5c0.3-0.3,0.6-0.6,0.8-1.2
		c0-0.3,0.2-0.9,0.2-1.8c-0.6,0.8-1.3,1.1-2.4,1.1c-1.2,0-2.1-0.5-2.7-1.2c-0.6-0.9-0.9-1.8-0.9-3c0-0.8,0.2-1.5,0.5-2.3
		c0.3-0.8,0.8-1.2,1.3-1.6c0.6-0.4,1.2-0.6,1.9-0.6c1.1,0,1.8,0.5,2.6,1.2V59h1.3v7.4c0,1.4-0.2,2.3-0.5,2.9
		c-0.3,0.6-0.8,1.1-1.3,1.4c-0.6,0.3-1.3,0.5-2.1,0.5c-1,0-1.8-0.3-2.4-0.8C207.8,70.2,207.4,69.4,207.6,68.5z M208.8,63.4
		c0,1.1,0.2,2,0.6,2.4c0.4,0.5,1,0.8,1.7,0.8c0.6,0,1.2-0.3,1.7-0.8c0.4-0.4,0.8-1.4,0.8-2.4s-0.3-1.8-0.8-2.4s-1.1-0.8-1.7-0.8
		c-0.6,0-1.2,0.3-1.7,0.8S208.8,62.4,208.8,63.4z"/>
	<path d="M216.9,57.7v-1.6h1.5v1.6H216.9z M216.9,67.8v-8.5h1.5v8.5H216.9z"/>
	<path d="M220.9,67.8v-7.4h-1.3v-1.2h1.3v-0.9c0-0.6,0-1.1,0.2-1.4c0.2-0.3,0.5-0.8,0.8-0.9c0.3-0.3,0.9-0.3,1.5-0.3
		c0.5,0,0.9,0,1.3,0.1l-0.2,1.2c-0.3,0-0.6-0.1-0.9-0.1c-0.4,0-0.8,0.1-0.9,0.3c-0.2,0.1-0.3,0.6-0.3,1.1v0.8h1.7v1.2h-1.7v7.5
		C222.4,67.8,220.9,67.8,220.9,67.8z"/>
	<path d="M228.3,66.6l0.3,1.2c-0.4,0.1-0.8,0.1-1,0.1c-0.6,0-0.9-0.1-1.2-0.3c-0.3-0.1-0.4-0.5-0.6-0.6c-0.2-0.3-0.2-0.9-0.2-1.6v-5
		h-1v-1.2h1v-2.1l1.5-0.9v3h1.5v1.2h-1.5v5c0,0.4,0,0.8,0.2,0.8c0,0.1,0.2,0.1,0.3,0.3c0.2,0,0.3,0.1,0.4,0.1
		C227.8,66.6,228.2,66.6,228.3,66.6z"/>
	<path d="M235.9,67.8l-2.5-8.5h1.5l1.3,4.9l0.4,1.8c0-0.1,0.2-0.8,0.5-1.8l1.3-4.9h1.5l1.3,4.9l0.4,1.6l0.5-1.6l1.5-4.9h1.3
		l-2.7,8.5h-1.3l-1.3-5.1l-0.3-1.5l-1.8,6.6H235.9z"/>
	<path d="M246.3,57.7v-1.6h1.5v1.6H246.3z M246.3,67.8v-8.5h1.5v8.5H246.3z"/>
	<path d="M253.1,66.6l0.2,1.4c-0.5,0.1-0.8,0.1-1.1,0.1c-0.6,0-0.9-0.1-1.2-0.3c-0.3-0.1-0.5-0.4-0.6-0.6c-0.2-0.3-0.2-0.9-0.2-1.6
		v-4.9h-1.1v-1.3h1.1v-2.1l1.5-0.9v3h1.5v1.2h-1.5v4.9c0,0.5,0,0.8,0.2,0.8c0,0.1,0.2,0.1,0.3,0.3c0.2,0,0.3,0.1,0.5,0.1
		C252.6,66.6,252.8,66.6,253.1,66.6z"/>
	<path d="M254.6,67.8V55.9h1.5v4.4c0.8-0.8,1.5-1.2,2.5-1.2c0.6,0,1.2,0.1,1.7,0.3c0.5,0.3,0.8,0.6,1.1,1.1c0.3,0.4,0.3,1,0.3,1.9
		v5.4h-1.5v-5.4c0-0.8-0.2-1.2-0.4-1.6c-0.3-0.3-0.8-0.4-1.3-0.4s-0.9,0.1-1.2,0.3c-0.3,0.2-0.6,0.5-0.8,0.9
		c-0.2,0.5-0.3,0.9-0.3,1.6v4.6C256.2,67.8,254.6,67.8,254.6,67.8z"/>
	<path d="M268.2,71.1V59.2h1.3v1c0.3-0.4,0.6-0.8,1.1-1c0.4-0.1,0.9-0.3,1.3-0.3c0.8,0,1.3,0.1,1.9,0.6c0.6,0.3,1.1,0.9,1.2,1.6
		c0.3,0.8,0.4,1.5,0.4,2.3c0,0.9-0.2,1.6-0.4,2.4c-0.3,0.8-0.8,1.2-1.3,1.6c-0.6,0.3-1.2,0.6-2,0.6c-0.4,0-0.9-0.1-1.3-0.3
		c-0.4-0.2-0.8-0.5-0.9-0.8v4.2H268.2L268.2,71.1z M269.6,63.6c0,1,0.2,1.9,0.6,2.4c0.4,0.6,1,0.8,1.7,0.8c0.6,0,1.2-0.3,1.7-0.8
		c0.4-0.6,0.8-1.4,0.8-2.6c0-1-0.2-1.9-0.6-2.4c-0.5-0.6-1.1-0.8-1.7-0.8s-1.2,0.3-1.7,0.9C269.7,61.6,269.6,62.5,269.6,63.6z"/>
	<path d="M282.9,67.8v-1.2c-0.6,0.9-1.5,1.5-2.7,1.5c-0.4,0-0.9-0.1-1.3-0.3c-0.4-0.1-0.8-0.4-0.9-0.8c-0.2-0.3-0.3-0.6-0.4-1
		c0-0.3-0.2-0.8-0.2-1.4v-5.2h1.5v4.8c0,0.8,0,1.2,0.2,1.5c0.2,0.5,0.3,0.8,0.6,0.9c0.3,0.1,0.6,0.3,1,0.3c0.5,0,0.9-0.1,1.2-0.3
		c0.3-0.2,0.6-0.6,0.8-0.9c0.2-0.4,0.3-0.9,0.3-1.6v-4.5h1.5v8.3L282.9,67.8L282.9,67.8z"/>
	<path d="M286.5,67.8v-8.5h1.3v1.4c0.3-0.6,0.6-1.1,0.9-1.2c0.3-0.1,0.6-0.3,0.9-0.3c0.5,0,1.1,0.1,1.5,0.4l-0.4,1.4
		c-0.3-0.1-0.8-0.3-1.1-0.3c-0.3,0-0.6,0.1-0.9,0.3c-0.3,0.2-0.4,0.5-0.6,0.8c-0.2,0.5-0.3,1.1-0.3,1.6v4.5L286.5,67.8L286.5,67.8
		L286.5,67.8z"/>
	<path d="M297.6,64.8l1.3,0.1c-0.2,1.1-0.6,1.8-1.2,2.3c-0.6,0.6-1.5,0.9-2.4,0.9c-1.2,0-2.1-0.4-2.8-1.2c-0.7-0.8-1.1-1.8-1.1-3.3
		c0-0.9,0.2-1.8,0.5-2.4c0.3-0.8,0.8-1.2,1.3-1.5c0.6-0.3,1.3-0.4,2.1-0.4c0.9,0,1.7,0.3,2.3,0.8c0.6,0.4,0.9,1.2,1.2,1.9l-1.3,0.1
		c-0.2-0.6-0.3-1-0.8-1.4c-0.3-0.3-0.8-0.4-1.2-0.4c-0.8,0-1.3,0.3-1.8,0.8c-0.4,0.4-0.8,1.4-0.8,2.5c0,1.2,0.2,2,0.6,2.6
		c0.4,0.6,1.1,0.8,1.7,0.8c0.6,0,1.1-0.1,1.3-0.5C297.3,66,297.4,65.4,297.6,64.8z"/>
	<path d="M300.3,67.8V55.9h1.5v4.4c0.8-0.8,1.5-1.2,2.5-1.2c0.6,0,1.2,0.1,1.7,0.3c0.5,0.3,0.8,0.6,1.1,1.1c0.3,0.4,0.3,1,0.3,1.9
		v5.4h-1.5v-5.4c0-0.8-0.2-1.2-0.4-1.6c-0.3-0.3-0.8-0.4-1.3-0.4s-0.9,0.1-1.2,0.3c-0.3,0.2-0.6,0.5-0.8,0.9
		c-0.2,0.5-0.3,0.9-0.3,1.6v4.6C301.9,67.8,300.3,67.8,300.3,67.8z"/>
	<path d="M315,66.7c-0.6,0.4-1,0.8-1.5,0.9c-0.4,0.1-1,0.3-1.7,0.3c-0.9,0-1.7-0.3-2.1-0.8c-0.4-0.4-0.8-1-0.8-1.8
		c0-0.5,0.2-0.8,0.3-1.2c0.2-0.3,0.4-0.6,0.8-0.9c0.3-0.1,0.6-0.3,1-0.4c0.3,0,0.8-0.1,1.3-0.1c1.2-0.1,2.1-0.3,2.6-0.5
		c0-0.1,0-0.3,0-0.4c0-0.6-0.2-1.1-0.5-1.2c-0.3-0.3-0.9-0.4-1.7-0.4c-0.8,0-1.2,0.1-1.5,0.3c-0.3,0.3-0.6,0.6-0.8,1.2l-1.3-0.1
		c0.2-0.6,0.3-1.1,0.6-1.5c0.3-0.3,0.8-0.6,1.3-0.9c0.6-0.1,1.2-0.3,2-0.3c0.8,0,1.3,0.1,1.8,0.3c0.5,0.1,0.8,0.4,1.1,0.6
		c0.2,0.3,0.3,0.6,0.4,1c0,0.3,0,0.8,0,1.4v2c0,1.4,0,2.3,0.2,2.5c0.2,0.3,0.2,0.8,0.3,1.1h-1.5C315.2,67.5,315,67.2,315,66.7z
		 M314.8,63.6c-0.6,0.1-1.3,0.4-2.4,0.6c-0.6,0.1-1,0.1-1.2,0.3c-0.2,0.2-0.5,0.3-0.6,0.5c-0.2,0.1-0.2,0.4-0.2,0.8
		c0,0.4,0.2,0.8,0.4,0.9c0.3,0.3,0.8,0.4,1.3,0.4s1.1-0.1,1.5-0.3c0.5-0.3,0.8-0.6,0.9-1.1c0.2-0.3,0.3-0.8,0.3-1.5V63.6L314.8,63.6
		z"/>
	<path d="M318,65.4l1.5-0.3c0.2,0.6,0.3,1,0.6,1.4c0.3,0.3,0.9,0.4,1.5,0.4s1.2-0.1,1.5-0.4c0.3-0.3,0.5-0.6,0.5-0.9
		c0-0.3-0.2-0.6-0.5-0.8c-0.2-0.1-0.8-0.3-1.5-0.5c-1-0.3-1.8-0.4-2.3-0.8c-0.4-0.1-0.8-0.4-0.9-0.8c-0.2-0.3-0.3-0.8-0.3-1.2
		c0-0.5,0.2-0.8,0.3-1.1c0.2-0.3,0.5-0.6,0.8-0.8c0.2-0.1,0.6-0.3,0.9-0.4c0.5-0.1,0.8-0.1,1.2-0.1c0.6,0,1.2,0.1,1.8,0.3
		c0.5,0.1,0.9,0.5,1.1,0.8c0.1,0.3,0.4,0.8,0.4,1.4l-1.3,0.1c0-0.4-0.3-0.8-0.6-1c-0.3-0.3-0.8-0.3-1.3-0.3s-1.2,0.1-1.3,0.3
		c-0.3,0.1-0.4,0.4-0.4,0.8c0,0.1,0,0.3,0.2,0.4c0.2,0.1,0.3,0.3,0.6,0.5c0.2,0,0.6,0.1,1.3,0.3c1,0.3,1.8,0.5,2.1,0.6
		c0.3,0.2,0.8,0.5,0.9,0.8c0.3,0.3,0.3,0.8,0.3,1.2s-0.2,0.9-0.4,1.4c-0.3,0.4-0.8,0.8-1.2,1c-0.6,0.3-1.2,0.3-1.8,0.3
		c-1.1,0-2-0.3-2.6-0.8C318.4,66.9,318.2,66.3,318,65.4z"/>
	<path d="M332.7,65.1l1.5,0.1c-0.3,0.9-0.6,1.5-1.3,2.1c-0.6,0.4-1.5,0.8-2.4,0.8c-1.2,0-2.3-0.5-3-1.2c-0.7-0.7-1-1.8-1-3.3
		s0.3-2.6,1-3.3c0.7-0.7,1.7-1.2,2.9-1.2s2.1,0.4,2.8,1.2c0.7,0.8,1,1.8,1,3.3c0,0.1,0,0.1,0,0.4h-6.3c0,0.9,0.3,1.6,0.8,2.1
		s1,0.8,1.8,0.8c0.6,0,1.1-0.1,1.4-0.4C332.1,66.1,332.4,65.7,332.7,65.1z M327.9,62.8h4.8c0-0.8-0.3-1.2-0.6-1.6
		c-0.5-0.6-1.1-0.9-1.8-0.9c-0.6,0-1.2,0.1-1.6,0.6S327.9,62.1,327.9,62.8z"/>
	<path d="M336.4,67.8v-1.5h1.7v1.5H336.4z"/>
</g>
<g class="st1">
	<path class="st4" d="M14.7,91.2l1.4,0.1c-0.2,1.1-0.6,1.8-1.2,2.3c-0.6,0.6-1.5,0.9-2.4,0.9c-1.2,0-2.1-0.5-2.8-1.2
		c-0.8-0.8-1-1.8-1-3.3c0-0.9,0.2-1.8,0.4-2.4c0.3-0.6,0.8-1.2,1.4-1.5c0.6-0.3,1.3-0.4,2.1-0.4c0.9,0,1.7,0.3,2.3,0.8
		s0.9,1.2,1.2,1.9l-1.3,0.2c-0.2-0.6-0.3-1.1-0.8-1.4c-0.3-0.3-0.8-0.4-1.2-0.4c-0.8,0-1.3,0.3-1.8,0.8s-0.8,1.4-0.8,2.6
		s0.2,2,0.6,2.6c0.4,0.6,1.2,0.8,1.9,0.8c0.6,0,1-0.1,1.3-0.4C14.4,92.4,14.7,91.9,14.7,91.2z"/>
	<path class="st4" d="M16.8,90c0-1.6,0.5-2.7,1.3-3.4c0.8-0.6,1.7-0.9,2.7-0.9c1.2,0,2.1,0.4,2.8,1.2s1.1,1.8,1.1,3.1
		c0,1.1-0.2,2-0.5,2.6s-0.8,1-1.5,1.5s-1.3,0.5-2.1,0.5c-1.2,0-2.1-0.5-2.8-1.2C17.3,92.5,16.8,91.5,16.8,90z M18.3,90
		c0,1.1,0.3,2,0.8,2.4c0.5,0.6,1,0.8,1.8,0.8s1.3-0.3,1.8-0.8c0.5-0.6,0.8-1.4,0.8-2.6c0-1.1-0.3-1.8-0.8-2.4s-1-0.8-1.8-0.8
		s-1.4,0.3-1.8,0.8C18.6,88.2,18.3,88.9,18.3,90z"/>
	<path class="st4" d="M26.6,94.3V82.5h1.5v4.2c0.8-0.8,1.5-1.2,2.5-1.2c0.6,0,1.2,0.1,1.7,0.3c0.5,0.2,0.8,0.6,1,1.1
		c0.1,0.5,0.3,1.1,0.3,2v5.4h-1.5v-5.4c0-0.8-0.2-1.2-0.4-1.6c-0.3-0.3-0.8-0.5-1.4-0.5c-0.4,0-0.9,0.2-1.2,0.3s-0.6,0.4-0.8,0.9
		c-0.2,0.4-0.3,0.9-0.3,1.6v4.7H26.6L26.6,94.3z"/>
	<path class="st4" d="M35.1,90c0-1.6,0.5-2.7,1.3-3.4c0.8-0.6,1.7-0.9,2.7-0.9c1.2,0,2.1,0.4,2.8,1.2c0.7,0.8,1.1,1.8,1.1,3.1
		c0,1.1-0.1,2-0.4,2.6s-0.8,1-1.5,1.5s-1.3,0.5-2.1,0.5c-1.2,0-2.1-0.5-2.8-1.2C35.6,92.5,35.1,91.5,35.1,90z M36.6,90
		c0,1.1,0.3,2,0.8,2.4c0.5,0.6,1.1,0.8,1.8,0.8s1.3-0.3,1.8-0.8c0.4-0.6,0.8-1.4,0.8-2.6c0-1.1-0.3-1.8-0.8-2.4
		c-0.4-0.6-1-0.8-1.8-0.8s-1.4,0.3-1.8,0.8C36.9,88.2,36.6,88.9,36.6,90z"/>
	<path class="st4" d="M46.5,94.3l-2.7-8.5h1.5l1.4,4.9l0.4,1.8c0-0.1,0.1-0.8,0.5-1.8l1.4-4.9h1.5l1.4,4.9l0.4,1.7l0.4-1.7l1.5-4.9
		h1.4l-2.7,8.5h-1.5L50,89.2l-0.3-1.5l-1.8,6.6H46.5z"/>
	<path class="st4" d="M56.7,84.1v-1.7h1.5v1.7H56.7z M56.7,94.3v-8.5h1.5v8.5H56.7z"/>
	<path class="st4" d="M60.5,94.3v-8.5h1.4V87c0.6-0.9,1.5-1.3,2.7-1.3c0.4,0,1.1,0.1,1.4,0.3c0.4,0.1,0.8,0.4,0.9,0.8
		c0.1,0.3,0.3,0.6,0.4,1c0,0.3,0.1,0.8,0.1,1.4v5.2h-1.5v-5.3c0-0.6,0-1.1-0.1-1.3c-0.1-0.3-0.3-0.4-0.6-0.8
		c-0.3-0.3-0.6-0.3-1.1-0.3c-0.6,0-1.2,0.1-1.6,0.6c-0.4,0.4-0.6,1.2-0.6,2.3v4.7L60.5,94.3L60.5,94.3z"/>
	<path class="st4" d="M75.5,91.5l1.5,0.2c-0.3,0.9-0.6,1.5-1.4,2.1c-0.6,0.5-1.5,0.8-2.4,0.8c-1.2,0-2.3-0.5-3-1.2
		c-0.8-0.7-1.1-1.8-1.1-3.3s0.3-2.6,1.1-3.3s1.6-1.2,2.9-1.2c1.2,0,2.1,0.4,2.9,1.2c0.8,0.8,1.1,1.8,1.1,3.3c0,0.1,0,0.1,0,0.4h-6.3
		c0,0.9,0.3,1.6,0.8,2.1s1.1,0.8,1.8,0.8c0.6,0,1.1-0.1,1.4-0.4C74.9,92.5,75.2,92.2,75.5,91.5z M70.7,89.2h4.8
		c0-0.8-0.3-1.2-0.6-1.6c-0.4-0.6-1.1-0.9-1.8-0.9c-0.6,0-1.2,0.2-1.6,0.6C71,87.9,70.8,88.5,70.7,89.2z"/>
	<path class="st4" d="M78.7,94.3v-8.5h1.4v1.4c0.3-0.6,0.6-1.1,0.9-1.2c0.3-0.1,0.6-0.3,0.9-0.3c0.4,0,1.1,0.1,1.5,0.4l-0.5,1.3
		c-0.3-0.1-0.8-0.3-1.1-0.3c-0.3,0-0.5,0.2-0.8,0.3c-0.3,0.2-0.4,0.5-0.6,0.8c-0.1,0.5-0.3,1.1-0.3,1.7v4.5L78.7,94.3L78.7,94.3z"/>
</g>
<g class="st1">
	<path class="st4" d="M84.2,97.6L84,96.2c0.3,0.2,0.6,0.2,0.9,0.2c0.3,0,0.6,0,0.8-0.2c0.1-0.1,0.3-0.3,0.4-0.5
		c0.1-0.1,0.3-0.5,0.4-1c0-0.1,0-0.1,0.1-0.3l-3.3-8.7h1.6l1.8,4.9c0.3,0.6,0.4,1.4,0.6,2c0.1-0.6,0.3-1.4,0.6-2l1.8-4.9h1.5
		l-3.3,8.8c-0.3,0.9-0.6,1.7-0.8,2c-0.3,0.5-0.6,0.9-0.9,1c-0.3,0.2-0.8,0.3-1.2,0.3C84.7,97.8,84.5,97.8,84.2,97.6z"/>
</g>
<g class="st1">
	<path class="st4" d="M91.7,94.3v-1.6h1.6v1.6H91.7z"/>
	<path class="st4" d="M101.4,91.2l1.4,0.1c-0.1,1.1-0.6,1.8-1.2,2.3c-0.6,0.6-1.5,0.9-2.4,0.9c-1.2,0-2.1-0.5-2.9-1.2
		c-0.8-0.7-1-1.8-1-3.3c0-0.9,0.1-1.8,0.5-2.4c0.4-0.6,0.8-1.2,1.4-1.5s1.4-0.4,2.1-0.4c0.9,0,1.6,0.3,2.3,0.8s0.9,1.2,1.2,1.9
		l-1.4,0.2c-0.1-0.6-0.3-1.1-0.8-1.4c-0.3-0.3-0.8-0.4-1.2-0.4c-0.8,0-1.4,0.3-1.8,0.8s-0.8,1.3-0.8,2.6c0,1.2,0.1,1.9,0.6,2.5
		s1,0.8,1.6,0.8s1-0.1,1.4-0.4C101.1,92.4,101.2,91.9,101.4,91.2z"/>
	<path class="st4" d="M103.5,90c0-1.6,0.5-2.7,1.4-3.4c0.8-0.6,1.6-0.9,2.7-0.9c1.2,0,2.1,0.4,2.9,1.2s1,1.8,1,3.1
		c0,1.1-0.1,2-0.5,2.6c-0.3,0.6-0.8,1-1.5,1.5c-0.7,0.5-1.4,0.5-2.1,0.5c-1.2,0-2.1-0.5-2.9-1.2C104,92.5,103.5,91.5,103.5,90z
		 M105,90c0,1.1,0.3,2,0.8,2.4c0.5,0.6,1,0.8,1.8,0.8c0.8,0,1.4-0.3,1.8-0.8c0.5-0.6,0.8-1.4,0.8-2.6c0-1.1-0.3-1.8-0.8-2.4
		s-1-0.8-1.8-0.8c-0.8,0-1.4,0.3-1.8,0.8C105.3,88.2,105,88.9,105,90z"/>
	<path class="st4" d="M113.2,94.3v-8.5h1.4V87c0.3-0.4,0.6-0.8,1-1c0.5-0.3,0.9-0.5,1.5-0.5s1.2,0.2,1.5,0.5c0.3,0.3,0.8,0.6,0.9,1
		c0.8-1,1.5-1.5,2.7-1.5c0.9,0,1.5,0.3,2,0.8s0.8,1.2,0.8,2.1v5.8h-1.5v-5.4c0-0.6,0-1.1-0.1-1.2c-0.1-0.3-0.3-0.4-0.5-0.6
		c-0.3-0.1-0.6-0.3-0.9-0.3c-0.6,0-1,0.1-1.5,0.6c-0.5,0.4-0.6,1.1-0.6,1.9v5h-1.5v-5.4c0-0.6-0.1-1.2-0.3-1.5
		c-0.3-0.3-0.6-0.4-1.2-0.4c-0.5,0-0.8,0.1-1.2,0.3c-0.5,0.2-0.6,0.6-0.8,0.9c-0.2,0.3-0.3,1.1-0.3,1.8v4.5L113.2,94.3L113.2,94.3z"
		/>
	<path class="st4" d="M131.6,84.1v-1.7h1.5v1.7H131.6z M131.6,94.3v-8.5h1.5v8.5H131.6z"/>
	<path class="st4" d="M134.6,91.8l1.5-0.3c0.1,0.6,0.3,1.1,0.6,1.4s0.9,0.4,1.5,0.4s1.2-0.1,1.5-0.4s0.5-0.6,0.5-0.9
		s-0.1-0.6-0.5-0.8c-0.1-0.1-0.8-0.3-1.5-0.4c-1-0.3-1.8-0.4-2.3-0.8c-0.5-0.1-0.8-0.4-0.9-0.8s-0.3-0.8-0.3-1.2s0.1-0.8,0.3-1.1
		s0.5-0.6,0.8-0.8c0.1-0.1,0.6-0.3,0.9-0.4c0.3-0.2,0.8-0.2,1.2-0.2c0.6,0,1.2,0.2,1.8,0.3c0.5,0.2,0.9,0.4,1,0.8
		c0.3,0.3,0.5,0.8,0.5,1.4l-1.3,0.1c0-0.4-0.3-0.8-0.6-1.1c-0.3-0.3-0.8-0.3-1.3-0.3c-0.6,0-1.2,0.1-1.4,0.3
		c-0.3,0.2-0.5,0.5-0.5,0.8c0,0.2,0,0.3,0.1,0.5c0.1,0.1,0.3,0.3,0.6,0.4c0.2,0,0.6,0.1,1.4,0.3c1,0.3,1.8,0.4,2.1,0.6
		c0.5,0.2,0.8,0.4,0.9,0.8c0.1,0.3,0.3,0.8,0.3,1.2c0,0.5-0.2,0.9-0.5,1.4c-0.3,0.4-0.8,0.7-1.2,1.1c-0.5,0.3-1.2,0.3-1.8,0.3
		c-1,0-2-0.3-2.5-0.8C135.1,93.3,134.7,92.7,134.6,91.8z"/>
	<path class="st4" d="M147.9,94.3v-8.5h1.3v1.4c0.3-0.6,0.6-1.1,0.9-1.2s0.6-0.3,0.9-0.3c0.5,0,1,0.1,1.5,0.4l-0.4,1.3
		c-0.3-0.1-0.8-0.3-1-0.3s-0.6,0.1-0.9,0.3c-0.3,0.2-0.5,0.5-0.6,0.8c-0.1,0.5-0.3,1.1-0.3,1.7v4.5L147.9,94.3L147.9,94.3z"/>
	<path class="st4" d="M159,93.3c-0.6,0.5-1,0.8-1.5,0.9s-1,0.3-1.6,0.3c-0.9,0-1.7-0.3-2.1-0.8c-0.4-0.5-0.8-1.1-0.8-1.8
		c0-0.4,0.2-0.8,0.3-1.2c0.2-0.3,0.5-0.6,0.8-0.9c0.3-0.1,0.6-0.3,1-0.4c0.3,0,0.8-0.2,1.4-0.2c1.2-0.1,2.1-0.3,2.5-0.4
		c0-0.1,0-0.3,0-0.4c0-0.6-0.2-1.1-0.5-1.2c-0.3-0.3-0.9-0.5-1.7-0.5c-0.8,0-1.2,0.2-1.5,0.3s-0.6,0.6-0.8,1.2l-1.3-0.1
		c0.1-0.6,0.3-1.1,0.6-1.5c0.3-0.3,0.8-0.6,1.4-0.9c0.6-0.1,1.2-0.3,2-0.3s1.3,0.1,1.8,0.3c0.5,0.2,0.8,0.5,1,0.6
		c0.1,0.3,0.3,0.6,0.5,1.1c0,0.3,0,0.8,0,1.3v1.9c0,1.4,0,2.3,0.1,2.6c0.2,0.3,0.2,0.8,0.3,1h-1.5C159.2,94,159,93.6,159,93.3z
		 M158.9,90c-0.6,0.2-1.4,0.5-2.4,0.6c-0.6,0.1-1,0.1-1.2,0.3c-0.3,0.1-0.5,0.3-0.6,0.4c-0.2,0.1-0.2,0.4-0.2,0.8s0.2,0.8,0.5,0.9
		c0.3,0.2,0.8,0.5,1.4,0.5c0.6,0,1-0.2,1.5-0.3c0.5-0.3,0.8-0.6,0.9-1.1c0.2-0.3,0.3-0.8,0.3-1.5L158.9,90L158.9,90z"/>
	<path class="st4" d="M165.7,93l0.2,1.3c-0.5,0.2-0.8,0.2-1,0.2c-0.6,0-0.9-0.2-1.2-0.3c-0.3-0.2-0.5-0.5-0.6-0.6
		c-0.2-0.2-0.2-0.9-0.2-1.7v-5h-1v-1.2h1v-2.1l1.5-0.9v3h1.5v1.2h-1.5v5c0,0.4,0,0.8,0.1,0.8c0,0.1,0.2,0.1,0.3,0.3
		c0.2,0,0.3,0.2,0.5,0.2C165.3,93.1,165.5,93,165.7,93z"/>
	<path class="st4" d="M173.1,91.5l1.5,0.2c-0.3,0.9-0.6,1.5-1.4,2.1c-0.6,0.5-1.5,0.8-2.4,0.8c-1.2,0-2.3-0.5-3-1.2
		c-0.8-0.7-1-1.8-1-3.3s0.3-2.6,1-3.3s1.6-1.2,2.8-1.2c1.2,0,2.1,0.4,2.9,1.2s1,1.8,1,3.3c0,0.1,0,0.1,0,0.4h-6.3
		c0,0.9,0.3,1.6,0.8,2.1s1,0.8,1.8,0.8c0.6,0,1-0.1,1.3-0.4C172.5,92.5,172.8,92.2,173.1,91.5z M168.3,89.2h4.8
		c0-0.8-0.3-1.2-0.6-1.6c-0.5-0.6-1-0.9-1.8-0.9c-0.6,0-1.2,0.2-1.6,0.6C168.6,87.9,168.3,88.5,168.3,89.2z"/>
	<path class="st4" d="M182,94.3v-1c-0.6,0.9-1.3,1.2-2.4,1.2c-0.8,0-1.4-0.1-2-0.6c-0.6-0.3-1-0.9-1.4-1.5c-0.3-0.6-0.5-1.5-0.5-2.3
		c0-0.9,0.2-1.7,0.5-2.3c0.3-0.8,0.8-1.2,1.4-1.7c0.6-0.3,1.2-0.6,2-0.6c0.5,0,0.9,0.1,1.3,0.3c0.5,0.2,0.8,0.5,1,0.9v-4.2h1.5v11.9
		L182,94.3L182,94.3L182,94.3z M177.3,90c0,1.1,0.3,2,0.8,2.4c0.5,0.6,1,0.8,1.6,0.8c0.6,0,1.2-0.3,1.7-0.8C181.9,92,182,91,182,90
		c0-1.2-0.1-2.1-0.8-2.5c-0.6-0.5-1-0.8-1.6-0.8c-0.6,0-1.2,0.3-1.7,0.8C177.6,88,177.3,88.9,177.3,90z"/>
	<path class="st4" d="M290.3,90c0-1.6,0.5-2.7,1.3-3.4c0.8-0.6,1.7-0.9,2.7-0.9c1.2,0,2.1,0.4,2.8,1.2c0.7,0.8,1,1.8,1,3.1
		c0,1.1-0.2,2-0.4,2.6c-0.3,0.6-0.8,1-1.5,1.5c-0.7,0.5-1.3,0.5-2.1,0.5c-1.2,0-2.1-0.5-2.8-1.2C290.6,92.7,290.3,91.5,290.3,90z
		 M291.8,90c0,1.1,0.3,2,0.8,2.4c0.5,0.6,1.1,0.8,1.8,0.8c0.7,0,1.3-0.3,1.8-0.8c0.5-0.6,0.8-1.4,0.8-2.6c0-1.1-0.3-1.8-0.8-2.4
		c-0.4-0.6-1-0.8-1.8-0.8c-0.8,0-1.3,0.3-1.8,0.8C291.9,88.2,291.8,88.9,291.8,90z"/>
	<path class="st4" d="M299.8,94.3v-8.5h1.3V87c0.6-0.9,1.5-1.3,2.7-1.3c0.4,0,1,0.1,1.3,0.3c0.4,0.1,0.8,0.4,0.9,0.8
		c0.2,0.3,0.3,0.6,0.4,1c0,0.3,0.2,0.8,0.2,1.4v5.2h-1.5v-5.3c0-0.6,0-1.1-0.2-1.3c-0.2-0.3-0.3-0.5-0.6-0.8c-0.3-0.3-0.6-0.3-1-0.3
		c-0.6,0-1.2,0.1-1.7,0.6s-0.6,1.2-0.6,2.3v4.7L299.8,94.3L299.8,94.3z"/>
	<path class="st4" d="M313.8,94.3V82.5h4.3c0.9,0,1.7,0.1,2.1,0.3c0.6,0.3,0.9,0.6,1.3,1c0.3,0.4,0.4,1.1,0.4,1.5s-0.2,1.1-0.4,1.4
		c-0.3,0.4-0.8,0.8-1.2,1c0.8,0.2,1.2,0.6,1.7,1.1c0.5,0.4,0.6,1.1,0.6,1.8c0,0.6-0.2,1.1-0.3,1.5c-0.3,0.4-0.5,0.9-0.9,1.1
		c-0.3,0.3-0.8,0.5-1.3,0.6c-0.5,0.2-1.2,0.2-2,0.2h-4.3V94.3L313.8,94.3z M315.3,87.4h2.5c0.8,0,1.2,0,1.5-0.2
		c0.5-0.1,0.8-0.3,0.9-0.6c0.2-0.3,0.3-0.6,0.3-1.1s-0.2-0.8-0.3-1.1c-0.2-0.3-0.4-0.4-0.8-0.6c-0.3-0.2-0.9-0.2-1.8-0.2h-2.4v3.8
		H315.3z M315.3,93h3c0.4,0,0.9,0,1,0c0.3,0,0.6-0.1,0.9-0.3c0.3-0.2,0.5-0.3,0.6-0.6c0.2-0.3,0.3-0.6,0.3-1.1
		c0-0.4-0.2-0.8-0.3-1.2c-0.3-0.3-0.6-0.6-0.9-0.8c-0.4-0.1-1-0.1-1.8-0.1h-2.7L315.3,93L315.3,93z"/>
	<path class="st4" d="M324.6,84.1v-1.7h1.5v1.7H324.6z M324.6,94.3v-8.5h1.5v8.5H324.6z"/>
	<path class="st4" d="M328.3,94.3v-8.5h1.3V87c0.6-0.9,1.5-1.3,2.7-1.3c0.5,0,1,0.1,1.3,0.3c0.5,0.1,0.8,0.4,0.9,0.8
		c0.1,0.3,0.3,0.6,0.5,1c0,0.3,0.1,0.8,0.1,1.4v5.2h-1.5v-5.3c0-0.6,0-1.1-0.1-1.3c-0.2-0.3-0.3-0.5-0.6-0.8c-0.3-0.3-0.6-0.3-1-0.3
		c-0.6,0-1.2,0.1-1.7,0.6c-0.4,0.5-0.6,1.2-0.6,2.3v4.7L328.3,94.3L328.3,94.3z"/>
	<path class="st4" d="M337.2,95.1l1.4,0.2c0,0.5,0.1,0.8,0.4,0.9c0.3,0.3,0.9,0.5,1.5,0.5s1.2-0.1,1.5-0.5c0.3-0.3,0.6-0.6,0.8-1.2
		c0-0.3,0.2-0.9,0.2-1.8c-0.6,0.8-1.4,1.1-2.4,1.1c-1.2,0-2.1-0.5-2.7-1.2c-0.6-0.9-0.9-1.8-0.9-3c0-0.8,0.2-1.5,0.5-2.3
		s0.8-1.2,1.3-1.7c0.6-0.3,1.2-0.6,2-0.6c1,0,1.8,0.4,2.5,1.2v-0.9h1.4v7.4c0,1.3-0.2,2.3-0.5,2.8c-0.3,0.6-0.8,1-1.3,1.4
		c-0.6,0.3-1.4,0.5-2.1,0.5c-1,0-1.8-0.3-2.4-0.8C337.6,96.6,337.2,96,337.2,95.1z M338.4,89.8c0,1.1,0.1,1.9,0.6,2.4
		s1.1,0.8,1.7,0.8s1.2-0.3,1.6-0.8c0.5-0.4,0.8-1.3,0.8-2.4s-0.3-1.8-0.8-2.4c-0.4-0.6-1-0.8-1.6-0.8s-1.2,0.3-1.7,0.8
		C338.5,88,338.4,88.8,338.4,89.8z"/>
	<path class="st4" d="M354,97.8c-0.8-1-1.5-2.3-2.1-3.6c-0.6-1.4-0.9-2.7-0.9-4.2c0-1.3,0.2-2.5,0.6-3.6c0.4-1.4,1.2-2.7,2.3-4.1h1
		c-0.6,1.1-1,1.9-1.4,2.4c-0.3,0.8-0.6,1.5-0.8,2.3c-0.3,1-0.3,1.9-0.3,3c0,2.5,0.8,5.1,2.4,7.8C354.9,97.8,354,97.8,354,97.8z"/>
</g>
<g class="st1">
	<path class="st5" d="M356.5,91.6l1.4-0.2c0.1,0.6,0.3,1.2,0.8,1.4c0.3,0.3,0.8,0.5,1.3,0.5s0.9-0.2,1.2-0.3s0.6-0.4,0.8-0.8
		c0.2-0.3,0.5-0.8,0.6-1.4s0.1-1.2,0.1-1.8c0,0,0-0.2,0-0.3c-0.3,0.4-0.8,0.9-1.2,1.1c-0.4,0.2-1,0.4-1.6,0.4c-1,0-1.8-0.3-2.5-1.1
		s-1.1-1.6-1.1-2.8s0.3-2.1,1.1-2.9s1.6-1,2.7-1c0.8,0,1.5,0.1,2.1,0.6c0.6,0.4,1,1.1,1.5,1.8c0.3,0.8,0.5,1.8,0.5,3.3
		s-0.2,2.7-0.5,3.6s-0.8,1.5-1.5,2.1c-0.6,0.5-1.4,0.8-2.3,0.8s-1.7-0.3-2.3-0.8C357,93.4,356.5,92.5,356.5,91.6z M362.4,86.4
		c0-0.9-0.2-1.5-0.6-2c-0.4-0.4-0.9-0.8-1.6-0.8c-0.6,0-1.2,0.3-1.7,0.8c-0.4,0.5-0.8,1.2-0.8,2.1c0,0.8,0.3,1.3,0.8,1.8
		c0.5,0.4,1.1,0.8,1.7,0.8s1.2-0.3,1.6-0.8C362.3,87.9,362.4,87.1,362.4,86.4z"/>
	<path class="st5" d="M367.7,87.9c-0.6-0.2-1-0.6-1.4-0.9c-0.3-0.4-0.4-0.9-0.4-1.5c0-0.9,0.3-1.6,0.9-2.1s1.5-0.9,2.4-0.9
		c1,0,1.8,0.3,2.5,0.9c0.7,0.6,0.9,1.4,0.9,2.3c0,0.6-0.1,1-0.4,1.5c-0.3,0.4-0.8,0.8-1.4,0.9c0.8,0.3,1.2,0.6,1.7,1.2
		c0.4,0.6,0.6,1.2,0.6,2c0,1-0.3,1.8-1,2.5s-1.7,1-2.9,1s-2.1-0.3-2.8-1s-1-1.5-1-2.6c0-0.8,0.1-1.4,0.6-1.9
		C366.3,88.5,366.9,88,367.7,87.9z M366.9,90.9c0,0.4,0.1,0.8,0.3,1.2c0.2,0.4,0.5,0.8,0.9,0.9c0.4,0.2,0.8,0.3,1.2,0.3
		c0.8,0,1.2-0.1,1.7-0.6s0.8-1.1,0.8-1.7c0-0.8-0.3-1.2-0.8-1.8c-0.5-0.4-1-0.8-1.8-0.8s-1.2,0.2-1.7,0.8
		C367,89.7,366.9,90.3,366.9,90.9z M367.4,85.5c0,0.6,0.1,1.1,0.6,1.4c0.3,0.3,0.9,0.6,1.4,0.6c0.6,0,1-0.1,1.3-0.6
		c0.3-0.3,0.6-0.8,0.6-1.4s-0.2-1-0.6-1.3c-0.3-0.3-0.8-0.6-1.3-0.6c-0.6,0-1.1,0.2-1.4,0.6C367.5,84.6,367.4,85,367.4,85.5z"/>
	<path class="st5" d="M379.5,94.3v-8.5h1.4v1.4c0.3-0.6,0.6-1.1,0.9-1.2s0.6-0.3,0.9-0.3c0.4,0,1.1,0.1,1.5,0.4l-0.4,1.3
		c-0.3-0.1-0.8-0.3-1.1-0.3c-0.3,0-0.6,0.1-0.9,0.3c-0.3,0.2-0.5,0.5-0.6,0.8c-0.1,0.5-0.3,1.1-0.3,1.7v4.5L379.5,94.3L379.5,94.3z"
		/>
	<path class="st5" d="M390.9,91.5l1.5,0.2c-0.3,0.9-0.6,1.5-1.4,2.1c-0.6,0.5-1.5,0.8-2.4,0.8c-1.2,0-2.3-0.5-3-1.2
		s-1.1-1.8-1.1-3.3s0.3-2.6,1.1-3.3s1.6-1.2,2.8-1.2s2.1,0.4,2.9,1.2s1.1,1.8,1.1,3.3c0,0.1,0,0.1,0,0.4h-6.3c0,0.9,0.3,1.6,0.8,2.1
		s1.1,0.8,1.8,0.8c0.6,0,1.1-0.1,1.3-0.4C390.3,92.5,390.6,92.2,390.9,91.5z M386.1,89.2h4.8c0-0.8-0.3-1.2-0.6-1.6
		c-0.4-0.6-1.1-0.9-1.8-0.9c-0.6,0-1.2,0.2-1.6,0.6C386.4,87.7,386.3,88.5,386.1,89.2z"/>
	<path class="st5" d="M396.6,94.3l-3.3-8.6h1.5l1.8,5.1c0.1,0.6,0.4,1.2,0.6,1.6c0.2-0.4,0.3-1,0.6-1.6l1.8-5.1h1.5l-3.3,8.5
		L396.6,94.3L396.6,94.3z"/>
	<path class="st5" d="M402.4,84.1v-1.7h1.5v1.7H402.4z M402.4,94.3v-8.5h1.5v8.5H402.4z"/>
	<path class="st5" d="M411.9,91.5l1.5,0.2c-0.3,0.9-0.6,1.5-1.4,2.1c-0.6,0.5-1.5,0.8-2.4,0.8c-1.2,0-2.3-0.5-3-1.2
		s-1.1-1.8-1.1-3.3s0.3-2.6,1.1-3.3s1.6-1.2,2.8-1.2s2.1,0.4,2.9,1.2s1.1,1.8,1.1,3.3c0,0.1,0,0.1,0,0.4h-6.3c0,0.9,0.3,1.6,0.8,2.1
		s1.1,0.8,1.8,0.8c0.6,0,1.1-0.1,1.3-0.4C411.4,92.5,411.8,92.2,411.9,91.5z M407.3,89.2h4.8c0-0.8-0.3-1.2-0.6-1.6
		c-0.4-0.6-1.1-0.9-1.8-0.9c-0.6,0-1.2,0.2-1.7,0.6C407.5,87.7,407.3,88.5,407.3,89.2z"/>
	<path class="st5" d="M416.9,94.3l-2.6-8.6h1.5l1.3,5l0.4,1.8c0-0.1,0.2-0.8,0.4-1.8l1.4-5h1.5l1.3,5l0.4,1.6l0.4-1.6l1.5-5h1.4
		l-2.7,8.6h-1.5l-1.4-5.1l-0.3-1.5l-1.8,6.6H416.9z"/>
	<path class="st5" d="M426.6,91.8l1.5-0.3c0.1,0.6,0.3,1.1,0.6,1.4c0.3,0.3,0.9,0.4,1.5,0.4s1.2-0.1,1.5-0.4s0.4-0.6,0.4-0.9
		s-0.1-0.6-0.4-0.8c-0.1-0.1-0.8-0.3-1.5-0.4c-1.1-0.3-1.8-0.4-2.3-0.8c-0.4-0.1-0.8-0.4-0.9-0.8c-0.2-0.3-0.3-0.8-0.3-1.2
		s0.1-0.8,0.3-1.1c0.1-0.3,0.4-0.6,0.8-0.8c0.3-0.1,0.6-0.3,0.9-0.4c0.4-0.2,0.8-0.2,1.2-0.2c0.6,0,1.2,0.2,1.8,0.3
		c0.4,0.2,0.9,0.4,1.1,0.8c0.3,0.3,0.4,0.8,0.4,1.4l-1.3,0.1c0-0.4-0.3-0.8-0.6-1.1c-0.3-0.3-0.8-0.3-1.3-0.3
		c-0.6,0-1.2,0.1-1.4,0.3c-0.3,0.2-0.4,0.5-0.4,0.8c0,0.2,0,0.3,0.2,0.5c0.1,0.1,0.3,0.3,0.6,0.4c0.2,0,0.6,0.1,1.4,0.3
		c1.1,0.3,1.8,0.4,2.1,0.6c0.4,0.2,0.8,0.4,0.9,0.8c0.3,0.3,0.3,0.8,0.3,1.2c0,0.5-0.2,0.9-0.4,1.4c-0.3,0.4-0.8,0.7-1.2,1.1
		c-0.6,0.3-1.2,0.3-1.8,0.3c-1.1,0-1.9-0.3-2.6-0.8C427,93.3,426.8,92.7,426.6,91.8z"/>
</g>
<g class="st1">
	<path class="st4" d="M436.4,97.8h-1.1c1.6-2.5,2.4-5.1,2.4-7.8c0-1-0.1-1.9-0.3-3c-0.1-0.8-0.4-1.6-0.8-2.3
		c-0.1-0.4-0.6-1.3-1.3-2.4h1.1c1.1,1.3,1.8,2.7,2.3,4.1c0.4,1.2,0.6,2.4,0.6,3.6c0,1.5-0.3,2.9-0.9,4.2
		C437.9,95.5,437.1,96.7,436.4,97.8z"/>
</g>
<g class="st1">
	<path class="st4" d="M10.4,111v1.7H8.9v-1.4c0-0.8,0.1-1.2,0.3-1.5c0.2-0.5,0.6-0.8,1-0.9l0.3,0.6c-0.3,0.2-0.5,0.3-0.6,0.6
		c-0.3,0-0.3,0.4-0.3,0.9C9.6,111,10.4,111,10.4,111z M12.8,111v1.7h-1.5v-1.4c0-0.8,0.2-1.2,0.3-1.5c0.3-0.5,0.6-0.8,1-0.9l0.3,0.6
		c-0.3,0.2-0.5,0.3-0.6,0.6c-0.2,0.3-0.2,0.6-0.3,1L12.8,111L12.8,111z"/>
	<path class="st4" d="M14.7,120.7v-11.8h4.4c0.9,0,1.6,0.1,2.1,0.3c0.4,0.1,0.9,0.6,1.3,1c0.3,0.5,0.5,1,0.5,1.5s-0.2,1-0.5,1.3
		c-0.3,0.5-0.8,0.8-1.2,1c0.8,0.2,1.2,0.6,1.7,1c0.5,0.5,0.6,1,0.6,1.8c0,0.6-0.2,1-0.3,1.5c-0.3,0.5-0.5,0.9-0.9,1
		c-0.3,0.3-0.8,0.5-1.3,0.6c-0.4,0.2-1.2,0.2-1.9,0.2h-4.4L14.7,120.7L14.7,120.7z M16.4,114h2.5c0.8,0,1.2,0,1.5-0.1
		c0.5-0.2,0.8-0.3,0.9-0.6c0.2-0.3,0.3-0.6,0.3-1c0-0.5-0.2-0.8-0.3-1c-0.2-0.3-0.5-0.5-0.8-0.6c-0.3-0.2-0.9-0.2-1.8-0.2h-2.4
		L16.4,114L16.4,114z M16.4,119.4h3c0.5,0,0.9,0,1,0c0.3,0,0.6-0.2,0.9-0.3c0.3-0.2,0.5-0.3,0.6-0.6c0.2-0.3,0.3-0.6,0.3-1
		c0-0.5-0.1-0.8-0.3-1.2c-0.3-0.3-0.6-0.6-0.9-0.8c-0.5-0.1-0.9-0.1-1.8-0.1h-2.7L16.4,119.4L16.4,119.4z"/>
	<path class="st4" d="M31.5,118l1.5,0.2c-0.3,0.9-0.6,1.5-1.3,2.1c-0.6,0.5-1.5,0.8-2.4,0.8c-1.2,0-2.3-0.5-3-1.2s-1.1-1.8-1.1-3.3
		s0.3-2.5,1.1-3.3s1.7-1.2,2.8-1.2c1.2,0,2.1,0.5,2.8,1.2s1.1,1.8,1.1,3.3c0,0.2,0,0.2,0,0.5h-6.3c0,0.9,0.3,1.7,0.8,2.1
		c0.5,0.5,1.1,0.8,1.8,0.8c0.6,0,1-0.2,1.3-0.5C30.9,119.1,31.2,118.6,31.5,118z M26.7,115.6h4.8c0-0.8-0.3-1.2-0.6-1.7
		c-0.5-0.6-1.1-0.9-1.8-0.9c-0.6,0-1.2,0.1-1.7,0.6C27,114.3,26.7,114.9,26.7,115.6z"/>
	<path class="st4" d="M34.2,118.2l1.5-0.3c0.2,0.6,0.3,1,0.6,1.3s0.9,0.5,1.5,0.5s1.2-0.1,1.5-0.5c0.3-0.3,0.4-0.6,0.4-0.9
		s-0.2-0.6-0.4-0.8c-0.2-0.2-0.8-0.3-1.5-0.5c-1.1-0.3-1.8-0.5-2.3-0.8c-0.5-0.2-0.8-0.5-0.9-0.8s-0.3-0.8-0.3-1.2s0.2-0.8,0.3-1
		s0.4-0.6,0.8-0.8c0.2-0.2,0.6-0.3,0.9-0.5c0.3-0.2,0.8-0.2,1.2-0.2c0.6,0,1.2,0.2,1.8,0.3c0.4,0.2,0.9,0.5,1,0.8
		c0.3,0.3,0.5,0.8,0.5,1.4l-1.2,0.1c0-0.5-0.3-0.8-0.6-1s-0.8-0.3-1.3-0.3c-0.6,0-1.2,0.2-1.4,0.3c-0.3,0.2-0.4,0.5-0.4,0.8
		c0,0.2,0,0.3,0.2,0.5c0.1,0.2,0.3,0.3,0.6,0.5c0.2,0,0.6,0.2,1.3,0.3c1.1,0.3,1.8,0.5,2.1,0.6c0.5,0.1,0.8,0.5,0.9,0.8
		c0.1,0.3,0.3,0.8,0.3,1.2s-0.1,0.9-0.4,1.3s-0.8,0.8-1.2,1c-0.5,0.3-1.2,0.3-1.8,0.3c-1,0-1.9-0.3-2.5-0.8
		C34.8,119.8,34.4,119.1,34.2,118.2z"/>
	<path class="st4" d="M46.2,119.5l0.1,1.4c-0.4,0.1-0.8,0.1-1.1,0.1c-0.6,0-0.9-0.1-1.2-0.3c-0.3-0.1-0.4-0.5-0.6-0.6
		c-0.2-0.2-0.2-0.9-0.2-1.7v-5h-1.1v-1.2h1.1v-2.1l1.5-0.9v3h1.5v1.2h-1.3v5c0,0.5,0,0.8,0.2,0.8c0,0.2,0.1,0.2,0.3,0.3
		c0.1,0,0.3,0.2,0.4,0.2C45.8,119.5,45.9,119.5,46.2,119.5z"/>
	<path class="st4" d="M52.2,124v-11.8h1.4v1c0.3-0.5,0.6-0.8,1.1-1c0.4-0.2,0.9-0.3,1.4-0.3c0.8,0,1.4,0.1,1.9,0.6s1.1,0.9,1.2,1.7
		c0.3,0.8,0.4,1.5,0.4,2.3c0,0.9-0.1,1.6-0.4,2.4s-0.8,1.2-1.4,1.7c-0.6,0.3-1.2,0.6-1.9,0.6c-0.4,0-0.9-0.1-1.4-0.3
		c-0.4-0.1-0.8-0.5-0.9-0.8v4.2h-1.4V124z M53.5,116.5c0,1,0.1,2,0.6,2.4c0.4,0.6,1.1,0.8,1.6,0.8c0.6,0,1.2-0.3,1.6-0.8
		c0.4-0.6,0.8-1.4,0.8-2.5c0-1-0.1-2-0.6-2.4c-0.4-0.6-1.1-0.8-1.6-0.8c-0.6,0-1.2,0.3-1.6,0.9C53.7,114.6,53.5,115.5,53.5,116.5z"
		/>
	<path class="st4" d="M61.4,120.7v-8.5h1.4v1.4c0.3-0.6,0.6-1,0.9-1.2s0.6-0.3,0.9-0.3c0.4,0,1.1,0.1,1.5,0.5l-0.4,1.3
		c-0.3-0.1-0.8-0.3-1.1-0.3c-0.3,0-0.6,0.2-0.9,0.3c-0.3,0.2-0.4,0.5-0.6,0.8c-0.1,0.5-0.3,1-0.3,1.7v4.5
		C62.7,120.7,61.4,120.7,61.4,120.7z"/>
	<path class="st4" d="M66.7,110.7V109h1.5v1.7H66.7z M66.7,120.7v-8.5h1.5v8.5H66.7z"/>
	<path class="st4" d="M76.1,117.6l1.4,0.2c-0.1,1-0.6,1.8-1.2,2.3c-0.6,0.6-1.5,0.9-2.4,0.9c-1.2,0-2.1-0.5-2.9-1.2
		c-0.8-0.7-1.1-1.9-1.1-3.4c0-0.9,0.1-1.8,0.4-2.4c0.3-0.6,0.8-1.2,1.4-1.5s1.4-0.5,2.1-0.5c0.9,0,1.6,0.3,2.3,0.8s0.9,1.2,1.2,2
		l-1.4,0.1c-0.1-0.6-0.3-1-0.8-1.3c-0.3-0.3-0.8-0.5-1.2-0.5c-0.7,0-1.4,0.3-1.8,0.8s-0.8,1.3-0.8,2.5s0.1,2,0.6,2.5
		s1.1,0.8,1.6,0.8c0.6,0,1.1-0.2,1.4-0.5C75.7,118.9,75.9,118.3,76.1,117.6z"/>
	<path class="st4" d="M84.6,118l1.5,0.2c-0.3,0.9-0.6,1.5-1.4,2.1c-0.6,0.5-1.5,0.8-2.4,0.8c-1.2,0-2.3-0.5-3-1.2
		c-0.7-0.7-1.1-1.8-1.1-3.3s0.3-2.5,1.1-3.3c0.8-0.8,1.6-1.2,2.9-1.2c1.2,0,2.1,0.5,2.9,1.2c0.8,0.7,1.1,1.8,1.1,3.3
		c0,0.2,0,0.2,0,0.5h-6.4c0,0.9,0.3,1.7,0.8,2.1s1.1,0.8,1.8,0.8c0.6,0,1.1-0.2,1.4-0.5C84,119.1,84.3,118.6,84.6,118z M79.8,115.6
		h4.8c0-0.8-0.3-1.2-0.6-1.7c-0.4-0.6-1.1-0.9-1.8-0.9c-0.6,0-1.2,0.1-1.6,0.6C80.1,114.3,79.8,114.9,79.8,115.6z"/>
	<path class="st4" d="M87.3,118.2l1.5-0.3c0.1,0.6,0.3,1,0.6,1.3c0.3,0.3,0.9,0.5,1.5,0.5c0.6,0,1.2-0.1,1.5-0.5
		c0.3-0.3,0.4-0.6,0.4-0.9s-0.1-0.6-0.4-0.8c-0.1-0.2-0.8-0.3-1.5-0.5c-1.1-0.3-1.8-0.5-2.2-0.8c-0.4-0.2-0.8-0.5-0.9-0.8
		c-0.1-0.3-0.2-0.8-0.2-1.2s0.1-0.8,0.3-1c0.1-0.3,0.4-0.6,0.8-0.8c0.1-0.2,0.6-0.3,0.9-0.5c0.3-0.2,0.8-0.2,1.2-0.2
		c0.6,0,1.2,0.2,1.8,0.3c0.4,0.2,0.9,0.5,1.1,0.8c0.3,0.3,0.4,0.8,0.4,1.4l-1.4,0.1c0-0.5-0.3-0.8-0.6-1s-0.8-0.3-1.4-0.3
		c-0.6,0-1.2,0.2-1.4,0.3c-0.3,0.2-0.4,0.5-0.4,0.8c0,0.2,0,0.3,0.1,0.5s0.3,0.3,0.6,0.5c0.1,0,0.6,0.2,1.4,0.3
		c1.1,0.3,1.8,0.5,2.1,0.6c0.4,0.1,0.8,0.5,0.9,0.8s0.3,0.8,0.3,1.2s-0.1,0.9-0.4,1.3c-0.3,0.4-0.8,0.8-1.2,1s-1.2,0.3-1.8,0.3
		c-1.1,0-1.9-0.3-2.6-0.8C87.7,119.8,87.5,119.1,87.3,118.2z"/>
	<path class="st4" d="M106.2,119.7c-0.6,0.5-1,0.8-1.5,0.9c-0.5,0.2-1,0.3-1.6,0.3c-0.9,0-1.6-0.3-2.1-0.8s-0.8-1-0.8-1.8
		c0-0.5,0.1-0.8,0.3-1.2c0.1-0.3,0.5-0.6,0.8-0.9c0.3-0.2,0.6-0.3,1-0.5c0.3,0,0.8-0.2,1.4-0.2c1.2-0.1,2.1-0.3,2.5-0.5
		c0-0.1,0-0.3,0-0.5c0-0.6-0.1-1-0.5-1.2c-0.3-0.3-0.9-0.5-1.6-0.5c-0.7,0-1.2,0.4-1.5,0.6c-0.3,0.2-0.6,0.6-0.8,1.2l-1.3-0.2
		c0.1-0.6,0.3-1,0.6-1.5c0.3-0.3,0.8-0.6,1.4-0.9c0.6-0.1,1.2-0.3,2-0.3s1.4,0.2,1.8,0.3c0.5,0.2,0.8,0.5,1,0.6
		c0.1,0.3,0.3,0.6,0.5,1c0,0.3,0,0.8,0,1.3v2c0,1.4,0,2.3,0.1,2.5s0.1,0.8,0.3,1h-1.5C106.4,120.4,106.4,120.1,106.2,119.7z
		 M106.2,116.5c-0.6,0.2-1.4,0.5-2.4,0.6c-0.6,0.1-1.1,0.1-1.2,0.3c-0.3,0.1-0.5,0.3-0.6,0.5c-0.1,0.2-0.1,0.4-0.1,0.7
		c0,0.5,0.1,0.8,0.5,0.9c0.3,0.2,0.8,0.5,1.4,0.5c0.6,0,1-0.1,1.5-0.3c0.5-0.3,0.8-0.6,0.9-1c0.1-0.3,0.3-0.8,0.3-1.5L106.2,116.5
		L106.2,116.5z"/>
	<path class="st4" d="M109.8,120.7v-8.5h1.4v1.2c0.6-0.9,1.5-1.3,2.7-1.3c0.5,0,1,0.1,1.4,0.3c0.5,0.1,0.8,0.5,0.9,0.8
		c0.1,0.3,0.3,0.6,0.5,1c0,0.3,0.1,0.8,0.1,1.3v5.3h-1.5v-5.3c0-0.6,0-1-0.1-1.3s-0.3-0.5-0.6-0.8c-0.3-0.3-0.6-0.3-1-0.3
		c-0.6,0-1.2,0.1-1.6,0.6c-0.5,0.5-0.6,1.2-0.6,2.3v4.7L109.8,120.7L109.8,120.7z"/>
	<path class="st4" d="M119,124l-0.1-1.3c0.3,0.1,0.6,0.1,0.9,0.1s0.6,0,0.8-0.1c0.1-0.2,0.3-0.3,0.5-0.5c0.1-0.2,0.3-0.5,0.5-1
		c0-0.2,0-0.2,0.1-0.3l-3.3-8.5h1.5l1.8,5c0.3,0.6,0.5,1.3,0.6,2c0.1-0.6,0.3-1.4,0.6-2l1.8-5h1.5l-3.3,8.7c-0.3,0.9-0.6,1.6-0.8,2
		c-0.3,0.5-0.6,0.9-0.9,1s-0.8,0.3-1.2,0.3C119.6,124.2,119.2,124.2,119,124z"/>
	<path class="st4" d="M128.9,120.7l-2.5-8.5h1.5l1.4,5l0.5,1.8c0-0.1,0.1-0.8,0.5-1.8l1.4-5h1.2l1.4,5l0.5,1.7l0.5-1.7l1.5-5h1.4
		l-2.7,8.5H134l-1.4-5.1l-0.3-1.5l-1.8,6.6H128.9z"/>
	<path class="st4" d="M139.2,120.7v-11.8h1.5v4.2c0.8-0.8,1.5-1.2,2.5-1.2c0.6,0,1.2,0.1,1.7,0.3c0.4,0.1,0.8,0.6,1,1
		c0.1,0.5,0.3,1,0.3,2v5.4h-1.5v-5.4c0-0.8-0.2-1.2-0.5-1.7c-0.3-0.3-0.8-0.5-1.4-0.5c-0.5,0-0.9,0.2-1.2,0.3
		c-0.3,0.2-0.6,0.5-0.8,0.9c-0.1,0.4-0.3,0.9-0.3,1.6v4.7H139L139.2,120.7L139.2,120.7z"/>
	<path class="st4" d="M154.2,118l1.5,0.2c-0.3,0.9-0.6,1.5-1.3,2.1c-0.6,0.5-1.5,0.8-2.4,0.8c-1.2,0-2.3-0.5-3-1.2s-1-1.8-1-3.3
		s0.3-2.5,1-3.3s1.7-1.2,2.9-1.2c1.2,0,2.1,0.5,2.8,1.2c0.7,0.7,1,1.8,1,3.3c0,0.2,0,0.2,0,0.5h-6.3c0,0.9,0.3,1.7,0.8,2.1
		s1,0.8,1.8,0.8c0.6,0,1-0.2,1.4-0.5C153.6,119.1,153.9,118.6,154.2,118z M149.4,115.6h4.8c0-0.8-0.3-1.2-0.6-1.7
		c-0.5-0.6-1-0.9-1.8-0.9c-0.6,0-1.2,0.1-1.6,0.6C149.7,114.3,149.4,114.9,149.4,115.6z"/>
	<path class="st4" d="M157.5,120.7v-8.5h1.4v1.4c0.3-0.6,0.6-1,0.9-1.2s0.6-0.3,0.9-0.3c0.5,0,1,0.1,1.5,0.5l-0.5,1.3
		c-0.3-0.1-0.8-0.3-1-0.3s-0.6,0.2-0.9,0.3c-0.3,0.2-0.5,0.5-0.6,0.8c-0.2,0.5-0.3,1-0.3,1.7v4.5
		C158.9,120.7,157.5,120.7,157.5,120.7z"/>
	<path class="st4" d="M168.7,118l1.5,0.2c-0.3,0.9-0.6,1.5-1.3,2.1c-0.6,0.5-1.5,0.8-2.4,0.8c-1.2,0-2.3-0.5-3-1.2s-1-1.8-1-3.3
		s0.3-2.5,1-3.3s1.7-1.2,2.9-1.2c1.2,0,2.1,0.5,2.8,1.2c0.7,0.7,1,1.8,1,3.3c0,0.2,0,0.2,0,0.5h-6.3c0,0.9,0.3,1.7,0.8,2.1
		s1,0.8,1.8,0.8c0.6,0,1-0.2,1.4-0.5C168.3,119.1,168.6,118.6,168.7,118z M164.1,115.6h4.8c0-0.8-0.3-1.2-0.6-1.7
		c-0.5-0.6-1-0.9-1.8-0.9c-0.6,0-1.2,0.1-1.6,0.6C164.4,114.3,164.1,114.9,164.1,115.6z"/>
	<path class="st4" d="M172.8,117.9l-0.5-6.3v-2.5h1.8v2.5l-0.5,6.3H172.8z M172.5,120.7v-1.6h1.7v1.6H172.5z"/>
	<path class="st4" d="M176.2,110.5v-1.6h1.5v1.3c0,0.8-0.1,1.2-0.3,1.5c-0.3,0.5-0.6,0.8-1,1l-0.3-0.6c0.3-0.2,0.5-0.3,0.6-0.6
		c0.1-0.3,0.1-0.6,0.3-1C177,110.5,176.2,110.5,176.2,110.5z M178.8,110.5v-1.6h1.5v1.3c0,0.8-0.2,1.2-0.3,1.5c-0.3,0.5-0.6,0.8-1,1
		l-0.3-0.6c0.3-0.2,0.5-0.3,0.6-0.6c0.2-0.3,0.2-0.6,0.3-1C179.6,110.5,178.8,110.5,178.8,110.5z"/>
	<path class="st4" d="M186.2,117.3v-1.5h4.5v1.5H186.2z"/>
	<path class="st4" d="M197.1,120.7v-7.3h-1.3v-1.2h1.3v-0.9c0-0.6,0-1,0.2-1.3s0.5-0.8,0.8-0.9c0.3-0.3,0.9-0.3,1.5-0.3
		c0.5,0,0.9,0,1.3,0.2l-0.2,1.2c-0.3,0-0.6-0.2-0.9-0.2c-0.5,0-0.8,0.2-0.9,0.3c-0.2,0.2-0.3,0.6-0.3,1v0.8h1.7v1.2h-1.7v7.4
		L197.1,120.7L197.1,120.7z"/>
	<path class="st4" d="M201.3,120.7v-8.5h1.3v1.4c0.3-0.6,0.6-1,0.9-1.2c0.3-0.2,0.6-0.3,0.9-0.3c0.4,0,1,0.1,1.5,0.5l-0.5,1.3
		c-0.3-0.1-0.8-0.3-1-0.3c-0.3,0-0.6,0.2-0.9,0.3c-0.3,0.2-0.5,0.4-0.5,0.7c-0.2,0.5-0.3,1-0.3,1.7v4.5
		C202.8,120.7,201.3,120.7,201.3,120.7z"/>
	<path class="st4" d="M206.3,116.5c0-1.6,0.5-2.7,1.3-3.5c0.8-0.6,1.7-0.9,2.7-0.9c1.2,0,2.1,0.5,2.8,1.2s1,1.8,1,3.1
		c0,1-0.2,2-0.4,2.5c-0.3,0.6-0.8,1-1.5,1.5s-1.3,0.5-2.1,0.5c-1.2,0-2.1-0.5-2.8-1.2C206.7,119.1,206.3,117.9,206.3,116.5z
		 M207.8,116.5c0,1,0.3,2,0.8,2.4c0.5,0.6,1.1,0.8,1.8,0.8s1.3-0.3,1.8-0.8c0.5-0.6,0.8-1.4,0.8-2.5c0-1-0.3-1.8-0.8-2.4
		c-0.4-0.6-1-0.8-1.8-0.8s-1.3,0.3-1.8,0.8C208.1,114.6,207.8,115.3,207.8,116.5z"/>
	<path class="st4" d="M216,120.7v-8.5h1.3v1.2c0.3-0.5,0.6-0.8,1.1-1c0.4-0.3,0.9-0.5,1.5-0.5s1.2,0.2,1.5,0.5s0.8,0.6,0.9,1
		c0.8-1,1.5-1.5,2.7-1.5c0.9,0,1.5,0.3,2,0.8c0.4,0.5,0.8,1.2,0.8,2.1v5.8h-1.5v-5.4c0-0.6,0-1-0.2-1.2c-0.2-0.3-0.3-0.5-0.5-0.6
		c-0.3-0.1-0.6-0.3-0.9-0.3c-0.6,0-1,0.2-1.5,0.6c-0.4,0.5-0.6,1-0.6,2v5h-1.5v-5.5c0-0.6-0.2-1.2-0.3-1.5c-0.3-0.3-0.6-0.5-1.2-0.5
		c-0.4,0-0.8,0.1-1.2,0.3c-0.5,0.1-0.6,0.6-0.8,0.9s-0.3,1-0.3,1.8v4.5L216,120.7L216,120.7z"/>
	<path class="st4" d="M239.8,117.6l1.3,0.2c-0.2,1-0.6,1.8-1.2,2.3c-0.6,0.6-1.5,0.9-2.4,0.9c-1.2,0-2.1-0.5-2.8-1.2
		s-1.1-1.8-1.1-3.3c0-0.9,0.2-1.8,0.5-2.4c0.3-0.8,0.8-1.2,1.3-1.5s1.3-0.5,2.1-0.5c0.9,0,1.7,0.3,2.3,0.8s0.9,1.2,1.2,2l-1.3,0.1
		c-0.2-0.6-0.3-1-0.8-1.3c-0.3-0.3-0.8-0.5-1.2-0.5c-0.8,0-1.3,0.3-1.8,0.8c-0.4,0.5-0.8,1.3-0.8,2.5s0.2,2,0.6,2.5s1.1,0.8,1.7,0.8
		c0.6,0,1.1-0.2,1.3-0.5C239.6,118.9,239.8,118.3,239.8,117.6z"/>
	<path class="st4" d="M241.9,116.5c0-1.6,0.5-2.7,1.3-3.5c0.8-0.6,1.7-0.9,2.7-0.9c1.2,0,2.1,0.5,2.8,1.2s1,1.8,1,3.1
		c0,1-0.2,2-0.4,2.5c-0.3,0.6-0.8,1-1.5,1.5s-1.3,0.5-2.1,0.5c-1.2,0-2.1-0.5-2.8-1.2C242.4,119.1,241.9,117.9,241.9,116.5z
		 M243.4,116.5c0,1,0.3,2,0.8,2.4c0.5,0.6,1.1,0.8,1.8,0.8s1.3-0.3,1.8-0.8c0.5-0.6,0.8-1.4,0.8-2.5c0-1-0.3-1.8-0.8-2.4
		c-0.4-0.6-1-0.8-1.8-0.8s-1.3,0.3-1.8,0.8C243.8,114.6,243.4,115.3,243.4,116.5z"/>
	<path class="st4" d="M251.7,120.7v-8.5h1.3v1.2c0.6-0.9,1.5-1.3,2.7-1.3c0.4,0,1,0.1,1.3,0.3c0.4,0.1,0.8,0.5,0.9,0.8
		c0.1,0.3,0.3,0.6,0.4,1c0,0.3,0.2,0.8,0.2,1.3v5.3H257v-5.3c0-0.6,0-1-0.2-1.3c-0.2-0.3-0.3-0.5-0.6-0.8c-0.3-0.3-0.6-0.3-1-0.3
		c-0.6,0-1.2,0.1-1.7,0.6s-0.6,1.2-0.6,2.3v4.7L251.7,120.7L251.7,120.7z"/>
	<path class="st4" d="M260.3,118.2l1.5-0.3c0.2,0.6,0.3,1,0.6,1.3c0.3,0.3,0.9,0.5,1.5,0.5s1.2-0.1,1.5-0.5c0.3-0.3,0.5-0.6,0.5-0.9
		s-0.2-0.6-0.5-0.8c-0.2-0.2-0.8-0.3-1.5-0.5c-1-0.3-1.8-0.5-2.3-0.8c-0.4-0.2-0.8-0.5-0.9-0.8c-0.1-0.3-0.3-0.8-0.3-1.2
		s0.2-0.8,0.3-1c0.2-0.3,0.5-0.6,0.8-0.8c0.2-0.2,0.6-0.3,0.9-0.5c0.5-0.2,0.8-0.2,1.2-0.2c0.6,0,1.2,0.2,1.8,0.3
		c0.5,0.2,0.9,0.5,1.1,0.8c0.1,0.3,0.4,0.8,0.4,1.4l-1.3,0.1c0-0.5-0.3-0.8-0.6-1c-0.3-0.3-0.8-0.3-1.3-0.3s-1.2,0.2-1.3,0.3
		c-0.3,0.2-0.4,0.5-0.4,0.8c0,0.2,0,0.3,0.2,0.5c0.2,0.2,0.3,0.3,0.6,0.5c0.2,0,0.6,0.2,1.3,0.3c1,0.3,1.8,0.5,2.1,0.6
		c0.3,0.1,0.8,0.5,0.9,0.8c0.3,0.3,0.3,0.8,0.3,1.2s-0.2,0.9-0.4,1.3c-0.3,0.5-0.8,0.8-1.2,1c-0.6,0.3-1.2,0.3-1.8,0.3
		c-1.1,0-2-0.3-2.6-0.8C260.8,119.8,260.4,119.1,260.3,118.2z"/>
	<path class="st4" d="M274.7,120.7v-1.2c-0.6,0.9-1.5,1.5-2.7,1.5c-0.4,0-0.9-0.1-1.3-0.3c-0.4-0.1-0.8-0.5-0.9-0.8
		c-0.1-0.3-0.3-0.6-0.4-1c0-0.3-0.2-0.8-0.2-1.3v-5.3h1.5v4.8c0,0.8,0,1.2,0.2,1.5c0.2,0.5,0.3,0.8,0.6,0.9c0.3,0.2,0.6,0.3,1,0.3
		c0.5,0,0.9-0.1,1.2-0.3c0.3-0.1,0.6-0.6,0.8-0.9c0.2-0.5,0.3-0.9,0.3-1.7v-4.5h1.5v8.5h-1.5L274.7,120.7L274.7,120.7z"/>
	<path class="st4" d="M278.3,120.7v-8.5h1.3v1.2c0.3-0.5,0.6-0.8,1.1-1c0.4-0.3,0.9-0.5,1.5-0.5s1.2,0.2,1.5,0.5
		c0.4,0.3,0.8,0.6,0.9,1c0.8-1,1.5-1.5,2.7-1.5c0.9,0,1.5,0.3,2,0.8c0.4,0.5,0.8,1.2,0.8,2.1v5.8h-1.5v-5.4c0-0.6,0-1-0.2-1.2
		c-0.2-0.3-0.3-0.5-0.5-0.6c-0.3-0.1-0.6-0.3-0.9-0.3c-0.6,0-1,0.2-1.5,0.6c-0.4,0.5-0.6,1-0.6,2v5h-1.5v-5.5c0-0.6-0.2-1.2-0.3-1.5
		c-0.3-0.3-0.6-0.5-1.2-0.5c-0.4,0-0.8,0.1-1.2,0.3c-0.5,0.1-0.6,0.6-0.8,0.9c-0.2,0.3-0.3,1-0.3,1.8v4.5L278.3,120.7L278.3,120.7z"
		/>
	<path class="st4" d="M297.8,118l1.5,0.2c-0.3,0.9-0.6,1.5-1.3,2.1c-0.6,0.5-1.5,0.8-2.4,0.8c-1.2,0-2.3-0.5-3-1.2
		c-0.7-0.7-1-1.8-1-3.3s0.3-2.5,1-3.3c0.7-0.8,1.7-1.2,2.8-1.2c1.2,0,2.1,0.5,2.8,1.2c0.7,0.7,1.1,1.8,1.1,3.3c0,0.2,0,0.2,0,0.5
		h-6.4c0,0.9,0.3,1.7,0.8,2.1c0.5,0.5,1.1,0.8,1.8,0.8c0.6,0,1-0.2,1.3-0.5C297.3,119.1,297.6,118.6,297.8,118z M293.1,115.6h4.8
		c0-0.8-0.3-1.2-0.6-1.7c-0.5-0.6-1.1-0.9-1.8-0.9c-0.6,0-1.2,0.1-1.7,0.6C293.4,114.1,293.1,114.9,293.1,115.6z"/>
	<path class="st4" d="M301.1,120.7v-8.5h1.3v1.4c0.3-0.6,0.6-1,0.9-1.2s0.6-0.3,0.9-0.3c0.4,0,1,0.1,1.5,0.5l-0.5,1.3
		c-0.3-0.1-0.8-0.3-1-0.3c-0.3,0-0.6,0.2-0.9,0.3c-0.3,0.2-0.5,0.5-0.6,0.8c-0.2,0.5-0.3,1-0.3,1.7v4.5
		C302.4,120.7,301.1,120.7,301.1,120.7z"/>
	<path class="st4" d="M311.3,120.7v-8.5h1.3v1.4c0.3-0.6,0.6-1,0.9-1.2c0.3-0.2,0.6-0.3,0.9-0.3c0.5,0,1.1,0.1,1.5,0.5l-0.4,1.3
		c-0.3-0.1-0.8-0.3-1.1-0.3c-0.3,0-0.6,0.2-0.9,0.3c-0.3,0.2-0.4,0.5-0.6,0.8c-0.2,0.5-0.3,1-0.3,1.7v4.5
		C312.6,120.7,311.3,120.7,311.3,120.7z"/>
	<path class="st4" d="M322.5,118l1.5,0.2c-0.3,0.9-0.6,1.5-1.3,2.1c-0.6,0.5-1.5,0.8-2.4,0.8c-1.2,0-2.3-0.5-3-1.2
		c-0.7-0.7-1-1.8-1-3.3s0.3-2.5,1-3.3c0.7-0.8,1.7-1.2,2.8-1.2c1.2,0,2.1,0.5,2.8,1.2c0.7,0.7,1.1,1.8,1.1,3.3c0,0.2,0,0.2,0,0.5
		h-6.3c0,0.9,0.3,1.7,0.8,2.1c0.5,0.5,1.1,0.8,1.8,0.8c0.6,0,1-0.2,1.3-0.5C322.1,119.1,322.3,118.6,322.5,118z M317.8,115.6h4.8
		c0-0.8-0.3-1.2-0.6-1.7c-0.5-0.6-1.1-0.9-1.8-0.9c-0.6,0-1.2,0.1-1.7,0.6C318.2,114.1,317.8,114.9,317.8,115.6z"/>
	<path class="st4" d="M328.2,120.7l-3.3-8.5h1.5l1.8,5.1c0.2,0.6,0.5,1.2,0.6,1.6c0.2-0.5,0.3-1,0.6-1.6l2-5.3h1.5l-3.3,8.5
		L328.2,120.7L328.2,120.7z"/>
	<path class="st4" d="M334,110.7V109h1.5v1.7H334z M334,120.7v-8.5h1.5v8.5H334z"/>
	<path class="st4" d="M343.7,118l1.5,0.2c-0.3,0.9-0.6,1.5-1.4,2.1c-0.6,0.5-1.5,0.8-2.4,0.8c-1.2,0-2.3-0.5-3-1.2s-1-1.8-1-3.3
		s0.3-2.5,1-3.3s1.6-1.2,2.8-1.2c1.2,0,2.1,0.5,2.9,1.2s1,1.8,1,3.3c0,0.2,0,0.2,0,0.5h-6.3c0,0.9,0.3,1.7,0.8,2.1s1,0.8,1.8,0.8
		c0.6,0,1-0.2,1.4-0.5C343,119.1,343.4,118.6,343.7,118z M338.9,115.6h4.8c0-0.8-0.3-1.2-0.6-1.7c-0.4-0.6-1-0.9-1.8-0.9
		c-0.6,0-1.2,0.1-1.6,0.6C339.2,114.1,338.9,114.9,338.9,115.6z"/>
	<path class="st4" d="M348.4,120.7l-2.5-8.5h1.5l1.3,5l0.5,1.8c0-0.1,0.2-0.8,0.5-1.8l1.3-5h1.5l1.4,5l0.5,1.7l0.4-1.7l1.5-5h1.4
		l-2.7,8.5h-1.5l-1.3-5.1l-0.3-1.5l-1.8,6.6H348.4z"/>
</g>
<polygon class="st6" points="201.2,81.9 202.9,86.7 208.2,87 204.2,90.1 205.5,95.2 201.2,92.4 196.8,95.2 198.2,90.1 194.1,87 
	199.4,86.7 "/>
<polygon class="st6" points="217.9,81.9 219.8,86.7 224.8,87 220.9,90.1 222.2,95.2 217.9,92.4 213.6,95.2 214.9,90.1 210.9,87 
	216,86.7 "/>
<polygon class="st6" points="235.1,81.9 237,86.7 242.1,87 238.1,90.1 239.4,95.2 235.1,92.4 230.8,95.2 232.1,90.1 228.2,87 
	233.3,86.7 "/>
<polygon class="st6" points="251.6,81.9 253.5,86.7 258.6,87 254.6,90.1 255.9,95.2 251.6,92.4 247.2,95.2 248.6,90.1 244.5,87 
	249.8,86.7 "/>
<polygon class="st7" points="268.1,81.9 269.8,86.7 275.1,87 271.1,90.1 272.4,95.2 268.1,92.4 263.7,95.2 265.1,90.1 261,87 
	266.3,86.7 "/>
<rect x="1.8" y="100.9" class="st8" width="365.3" height="26.4"/>
<path class="st9" d="M11.1,26.1c-8.5,15.7,19.1,13.8,9.9,0H11.1z M12,27.1h8.1C27.4,38.2,5.2,39.7,12,27.1L12,27.1z"/>
<path class="st9" d="M15.4,36.6v4.8c-1.5,0.2-3,0.9-4,1.9c3.2,0.2,6.3,0.2,9.5,0.2c-1-1.2-2.5-1.8-4.2-1.9v-4.9
	C16.2,36.6,15.8,36.6,15.4,36.6z"/>
<polygon class="st9" points="9.3,29.2 22.5,29.2 22.4,32.5 20.4,35.1 17.6,36.4 14.6,36.7 12.3,36 10.5,34.6 9.3,32.7 "/>
</svg>
