<?xml version="1.0" encoding="utf-8"?>
<!-- Generator: Adobe Illustrator 19.2.1, SVG Export Plug-In . SVG Version: 6.00 Build 0)  -->
<svg version="1.1" id="Layer_1" xmlns="http://www.w3.org/2000/svg" xmlns:xlink="http://www.w3.org/1999/xlink" x="0px" y="0px"
	 width="345.6px" height="110.9px" viewBox="0 0 345.6 110.9" style="enable-background:new 0 0 345.6 110.9;" xml:space="preserve"
	>
<style type="text/css">
	.st0{fill:#3A54A5;}
	.st1{fill:none;stroke:#008372;stroke-width:2.9064;stroke-miterlimit:10;}
	.st2{fill:#008272;stroke:#008272;stroke-width:2.9064;stroke-miterlimit:10;}
	.st3{fill:#FFFFFF;}
	.st4{fill:#737373;}
	.st5{fill:#3A53A4;}
	.st6{fill:#FF8C00;}
	.st7{fill:#D2D2D2;}
	.st8{fill:#079247;}
	.st9{fill:#008272;stroke:#008272;stroke-width:2.8289;stroke-miterlimit:10;}
</style>
<g>
	<g>
		<path class="st0" d="M5,102.3c0-1.1,0.3-1.9,0.9-2.5c0.6-0.6,1.3-0.9,2.2-0.9c0.6,0,1.1,0.1,1.6,0.4c0.5,0.3,0.8,0.7,1.1,1.2
			c0.2,0.5,0.4,1.1,0.4,1.7c0,0.6-0.1,1.2-0.4,1.7c-0.3,0.5-0.6,0.9-1.1,1.2c-0.5,0.3-1,0.4-1.6,0.4c-0.6,0-1.1-0.1-1.6-0.4
			c-0.5-0.3-0.8-0.7-1.1-1.2C5.2,103.4,5,102.9,5,102.3z M5.9,102.3c0,0.8,0.2,1.4,0.6,1.8c0.4,0.4,0.9,0.7,1.6,0.7
			c0.6,0,1.2-0.2,1.6-0.7c0.4-0.4,0.6-1.1,0.6-1.9c0-0.5-0.1-1-0.3-1.4c-0.2-0.4-0.4-0.7-0.8-0.9c-0.3-0.2-0.7-0.3-1.1-0.3
			c-0.6,0-1.1,0.2-1.5,0.6C6.1,100.7,5.9,101.4,5.9,102.3z"/>
		<path class="st0" d="M15.2,105.4v-0.7c-0.4,0.5-0.9,0.8-1.5,0.8c-0.3,0-0.5-0.1-0.8-0.2s-0.4-0.2-0.5-0.4
			c-0.1-0.2-0.2-0.4-0.2-0.6c0-0.2,0-0.4,0-0.7v-2.9h0.8v2.6c0,0.4,0,0.7,0,0.8c0,0.2,0.2,0.4,0.3,0.5c0.2,0.1,0.4,0.2,0.6,0.2
			s0.5-0.1,0.7-0.2c0.2-0.1,0.4-0.3,0.4-0.5c0.1-0.2,0.1-0.5,0.1-0.9v-2.5h0.8v4.6H15.2z"/>
		<path class="st0" d="M17.1,105.4v-4.6h0.7v0.7c0.2-0.3,0.3-0.5,0.5-0.7s0.3-0.2,0.5-0.2c0.3,0,0.5,0.1,0.8,0.3l-0.3,0.7
			c-0.2-0.1-0.4-0.2-0.6-0.2c-0.2,0-0.3,0.1-0.5,0.2s-0.2,0.2-0.3,0.4c-0.1,0.3-0.1,0.6-0.1,0.9v2.4H17.1z"/>
		<path class="st0" d="M23.8,105.4L22.1,99H23l1,4.2c0.1,0.4,0.2,0.9,0.3,1.3c0.2-0.7,0.3-1.1,0.3-1.2l1.2-4.3h1l0.9,3.2
			c0.2,0.8,0.4,1.6,0.5,2.3c0.1-0.4,0.2-0.9,0.3-1.4l1-4.1h0.9l-1.8,6.4h-0.8l-1.3-4.9c-0.1-0.4-0.2-0.7-0.2-0.8
			c-0.1,0.3-0.1,0.5-0.2,0.8l-1.4,4.9H23.8z"/>
		<path class="st0" d="M31,99.9V99h0.8v0.9H31z M31,105.4v-4.6h0.8v4.6H31z"/>
		<path class="st0" d="M33,105.4v-4.6h0.7v0.7c0.3-0.5,0.8-0.8,1.5-0.8c0.3,0,0.5,0,0.8,0.2c0.2,0.1,0.4,0.2,0.5,0.4
			c0.1,0.2,0.2,0.4,0.2,0.6c0,0.1,0,0.4,0,0.8v2.9H36v-2.8c0-0.3,0-0.6-0.1-0.7c-0.1-0.2-0.2-0.3-0.3-0.4c-0.2-0.1-0.3-0.1-0.5-0.1
			c-0.3,0-0.6,0.1-0.9,0.3c-0.2,0.2-0.4,0.6-0.4,1.2v2.5H33z"/>
		<path class="st0" d="M41.2,103.9L42,104c-0.1,0.5-0.4,0.8-0.7,1.1c-0.3,0.3-0.8,0.4-1.3,0.4c-0.7,0-1.2-0.2-1.6-0.6
			c-0.4-0.4-0.6-1-0.6-1.8c0-0.8,0.2-1.4,0.6-1.8c0.4-0.4,0.9-0.6,1.6-0.6c0.6,0,1.1,0.2,1.5,0.6c0.4,0.4,0.6,1,0.6,1.8
			c0,0,0,0.1,0,0.2h-3.5c0,0.5,0.2,0.9,0.4,1.2c0.3,0.3,0.6,0.4,1,0.4c0.3,0,0.5-0.1,0.7-0.2C40.9,104.5,41.1,104.3,41.2,103.9z
			 M38.6,102.7h2.6c0-0.4-0.1-0.7-0.3-0.9c-0.3-0.3-0.6-0.5-1-0.5c-0.4,0-0.7,0.1-0.9,0.4C38.8,101.9,38.6,102.3,38.6,102.7z"/>
		<path class="st0" d="M42.7,104.1l0.8-0.1c0,0.3,0.2,0.6,0.4,0.7c0.2,0.2,0.5,0.2,0.8,0.2c0.4,0,0.6-0.1,0.8-0.2
			c0.2-0.1,0.3-0.3,0.3-0.5c0-0.2-0.1-0.3-0.2-0.4c-0.1-0.1-0.4-0.2-0.8-0.3c-0.6-0.1-1-0.3-1.2-0.4c-0.2-0.1-0.4-0.3-0.5-0.4
			c-0.1-0.2-0.2-0.4-0.2-0.6c0-0.2,0-0.4,0.1-0.6c0.1-0.2,0.2-0.3,0.4-0.4c0.1-0.1,0.3-0.2,0.5-0.2c0.2-0.1,0.4-0.1,0.7-0.1
			c0.4,0,0.7,0.1,1,0.2c0.3,0.1,0.5,0.2,0.6,0.4c0.1,0.2,0.2,0.4,0.3,0.7l-0.8,0.1c0-0.2-0.1-0.4-0.3-0.6c-0.2-0.1-0.4-0.2-0.7-0.2
			c-0.4,0-0.6,0.1-0.8,0.2c-0.2,0.1-0.2,0.3-0.2,0.4c0,0.1,0,0.2,0.1,0.3c0.1,0.1,0.2,0.2,0.3,0.2c0.1,0,0.3,0.1,0.7,0.2
			c0.6,0.1,0.9,0.3,1.2,0.4c0.2,0.1,0.4,0.2,0.5,0.4c0.1,0.2,0.2,0.4,0.2,0.7c0,0.3-0.1,0.5-0.2,0.7c-0.2,0.2-0.4,0.4-0.7,0.5
			c-0.3,0.1-0.6,0.2-1,0.2c-0.6,0-1.1-0.1-1.4-0.4C42.9,104.9,42.7,104.5,42.7,104.1z"/>
		<path class="st0" d="M4.6,106.7v-0.7h42.3v0.7H4.6z"/>
	</g>
	<g>
		<path class="st0" d="M60.3,105.3v-6.4h2.8c0.6,0,1,0.1,1.3,0.2c0.3,0.1,0.5,0.3,0.7,0.6c0.2,0.3,0.3,0.6,0.3,1
			c0,0.5-0.1,0.8-0.4,1.1c-0.3,0.3-0.7,0.5-1.4,0.6c0.2,0.1,0.4,0.2,0.5,0.3c0.2,0.2,0.5,0.5,0.7,0.9l1.1,1.7h-1.1L64,104
			c-0.2-0.4-0.5-0.7-0.6-0.9c-0.2-0.2-0.3-0.3-0.4-0.4c-0.1-0.1-0.3-0.1-0.4-0.2c-0.1,0-0.3,0-0.5,0h-1v2.8H60.3z M61.1,101.8H63
			c0.4,0,0.7,0,0.9-0.1c0.2-0.1,0.4-0.2,0.5-0.4s0.2-0.4,0.2-0.6c0-0.3-0.1-0.6-0.3-0.7c-0.2-0.2-0.6-0.3-1-0.3h-2V101.8z"/>
		<path class="st0" d="M69.8,103.8l0.8,0.1c-0.1,0.5-0.4,0.8-0.7,1.1c-0.3,0.3-0.8,0.4-1.3,0.4c-0.7,0-1.2-0.2-1.6-0.6
			c-0.4-0.4-0.6-1-0.6-1.8c0-0.8,0.2-1.4,0.6-1.8c0.4-0.4,0.9-0.6,1.6-0.6c0.6,0,1.1,0.2,1.5,0.6c0.4,0.4,0.6,1,0.6,1.8
			c0,0,0,0.1,0,0.2h-3.5c0,0.5,0.2,0.9,0.4,1.2c0.3,0.3,0.6,0.4,1,0.4c0.3,0,0.5-0.1,0.7-0.2C69.5,104.4,69.7,104.2,69.8,103.8z
			 M67.2,102.6h2.6c0-0.4-0.1-0.7-0.3-0.9c-0.3-0.3-0.6-0.5-1-0.5c-0.4,0-0.7,0.1-0.9,0.4C67.4,101.8,67.3,102.2,67.2,102.6z"/>
		<path class="st0" d="M74.6,105.3v-0.6c-0.3,0.5-0.7,0.7-1.3,0.7c-0.4,0-0.7-0.1-1-0.3c-0.3-0.2-0.6-0.5-0.7-0.9
			c-0.2-0.4-0.3-0.8-0.3-1.3c0-0.5,0.1-0.9,0.2-1.3s0.4-0.7,0.7-0.9c0.3-0.2,0.7-0.3,1-0.3c0.3,0,0.5,0.1,0.7,0.2s0.4,0.3,0.5,0.5
			v-2.3h0.8v6.4H74.6z M72.1,103c0,0.6,0.1,1,0.4,1.3c0.3,0.3,0.5,0.4,0.9,0.4c0.3,0,0.6-0.1,0.9-0.4c0.2-0.3,0.4-0.7,0.4-1.3
			c0-0.6-0.1-1.1-0.4-1.4c-0.2-0.3-0.5-0.4-0.9-0.4c-0.3,0-0.6,0.1-0.9,0.4C72.3,102,72.1,102.4,72.1,103z"/>
		<path class="st0" d="M80.3,105.3l-1.7-6.4h0.9l1,4.2c0.1,0.4,0.2,0.9,0.3,1.3c0.2-0.7,0.3-1.1,0.3-1.2l1.2-4.3h1l0.9,3.2
			c0.2,0.8,0.4,1.6,0.5,2.3c0.1-0.4,0.2-0.9,0.3-1.4l1-4.1h0.9l-1.8,6.4h-0.8l-1.3-4.9c-0.1-0.4-0.2-0.7-0.2-0.8
			c-0.1,0.3-0.1,0.5-0.2,0.8l-1.4,4.9H80.3z"/>
		<path class="st0" d="M87.5,99.8v-0.9h0.8v0.9H87.5z M87.5,105.3v-4.6h0.8v4.6H87.5z"/>
		<path class="st0" d="M89.5,105.3v-4.6h0.7v0.7c0.3-0.5,0.8-0.8,1.5-0.8c0.3,0,0.5,0,0.8,0.2c0.2,0.1,0.4,0.2,0.5,0.4
			c0.1,0.2,0.2,0.4,0.2,0.6c0,0.1,0,0.4,0,0.8v2.9h-0.8v-2.8c0-0.3,0-0.6-0.1-0.7c-0.1-0.2-0.2-0.3-0.3-0.4
			c-0.2-0.1-0.3-0.1-0.5-0.1c-0.3,0-0.6,0.1-0.9,0.3c-0.2,0.2-0.4,0.6-0.4,1.2v2.5H89.5z"/>
		<path class="st0" d="M97.7,103.8l0.8,0.1c-0.1,0.5-0.4,0.8-0.7,1.1c-0.3,0.3-0.8,0.4-1.3,0.4c-0.7,0-1.2-0.2-1.6-0.6
			c-0.4-0.4-0.6-1-0.6-1.8c0-0.8,0.2-1.4,0.6-1.8c0.4-0.4,0.9-0.6,1.6-0.6c0.6,0,1.1,0.2,1.5,0.6c0.4,0.4,0.6,1,0.6,1.8
			c0,0,0,0.1,0,0.2H95c0,0.5,0.2,0.9,0.4,1.2c0.3,0.3,0.6,0.4,1,0.4c0.3,0,0.5-0.1,0.7-0.2C97.4,104.4,97.5,104.2,97.7,103.8z
			 M95.1,102.6h2.6c0-0.4-0.1-0.7-0.3-0.9c-0.3-0.3-0.6-0.5-1-0.5c-0.4,0-0.7,0.1-0.9,0.4C95.2,101.8,95.1,102.2,95.1,102.6z"/>
		<path class="st0" d="M99.1,104l0.8-0.1c0,0.3,0.2,0.6,0.4,0.7c0.2,0.2,0.5,0.2,0.8,0.2c0.4,0,0.6-0.1,0.8-0.2
			c0.2-0.1,0.3-0.3,0.3-0.5c0-0.2-0.1-0.3-0.2-0.4c-0.1-0.1-0.4-0.2-0.8-0.3c-0.6-0.1-1-0.3-1.2-0.4c-0.2-0.1-0.4-0.3-0.5-0.4
			c-0.1-0.2-0.2-0.4-0.2-0.6c0-0.2,0-0.4,0.1-0.6c0.1-0.2,0.2-0.3,0.4-0.4c0.1-0.1,0.3-0.2,0.5-0.2c0.2-0.1,0.4-0.1,0.7-0.1
			c0.4,0,0.7,0.1,1,0.2s0.5,0.2,0.6,0.4c0.1,0.2,0.2,0.4,0.3,0.7l-0.8,0.1c0-0.2-0.1-0.4-0.3-0.6c-0.2-0.1-0.4-0.2-0.7-0.2
			c-0.4,0-0.6,0.1-0.8,0.2c-0.2,0.1-0.2,0.3-0.2,0.4c0,0.1,0,0.2,0.1,0.3c0.1,0.1,0.2,0.2,0.3,0.2c0.1,0,0.3,0.1,0.7,0.2
			c0.6,0.1,0.9,0.3,1.2,0.4c0.2,0.1,0.4,0.2,0.5,0.4c0.1,0.2,0.2,0.4,0.2,0.7c0,0.3-0.1,0.5-0.2,0.7c-0.2,0.2-0.4,0.4-0.7,0.5
			c-0.3,0.1-0.6,0.2-1,0.2c-0.6,0-1.1-0.1-1.4-0.4C99.4,104.8,99.2,104.4,99.1,104z"/>
		<path class="st0" d="M59.6,106.6V106h43.8v0.7H59.6z"/>
	</g>
	<g>
		<path class="st0" d="M119.1,103.1l0.8-0.1c0,0.3,0.1,0.6,0.3,0.8c0.1,0.2,0.4,0.4,0.6,0.5c0.3,0.1,0.6,0.2,1,0.2
			c0.3,0,0.6,0,0.9-0.1c0.2-0.1,0.4-0.2,0.6-0.4s0.2-0.4,0.2-0.5c0-0.2-0.1-0.4-0.2-0.5c-0.1-0.2-0.3-0.3-0.6-0.4
			c-0.2-0.1-0.6-0.2-1.1-0.3c-0.6-0.1-1-0.3-1.2-0.4c-0.3-0.2-0.5-0.4-0.7-0.6c-0.2-0.2-0.2-0.5-0.2-0.8c0-0.3,0.1-0.6,0.3-0.9
			c0.2-0.3,0.5-0.5,0.8-0.6c0.4-0.1,0.7-0.2,1.2-0.2c0.5,0,0.9,0.1,1.3,0.2c0.4,0.2,0.6,0.4,0.8,0.7c0.2,0.3,0.3,0.6,0.3,1l-0.8,0.1
			c0-0.4-0.2-0.7-0.4-0.9c-0.3-0.2-0.6-0.3-1.1-0.3c-0.5,0-0.9,0.1-1.1,0.3c-0.2,0.2-0.4,0.4-0.4,0.7c0,0.2,0.1,0.4,0.2,0.6
			c0.2,0.1,0.6,0.3,1.3,0.5s1.2,0.3,1.4,0.4c0.4,0.2,0.6,0.4,0.8,0.7c0.2,0.3,0.3,0.6,0.3,0.9c0,0.3-0.1,0.7-0.3,1
			c-0.2,0.3-0.5,0.5-0.8,0.7c-0.4,0.2-0.8,0.3-1.2,0.3c-0.6,0-1.1-0.1-1.5-0.3c-0.4-0.2-0.7-0.4-0.9-0.8
			C119.3,103.9,119.1,103.5,119.1,103.1z"/>
		<path class="st0" d="M125.3,105.1v-6.4h0.8v2.3c0.4-0.4,0.8-0.6,1.4-0.6c0.3,0,0.6,0.1,0.9,0.2c0.3,0.1,0.4,0.3,0.5,0.6
			c0.1,0.2,0.2,0.6,0.2,1v2.9h-0.8v-2.9c0-0.4-0.1-0.7-0.3-0.9c-0.2-0.2-0.4-0.3-0.7-0.3c-0.2,0-0.5,0.1-0.7,0.2
			c-0.2,0.1-0.4,0.3-0.4,0.5c-0.1,0.2-0.1,0.5-0.1,0.9v2.5H125.3z"/>
		<path class="st0" d="M130,102.8c0-0.9,0.2-1.5,0.7-1.9c0.4-0.3,0.9-0.5,1.5-0.5c0.6,0,1.2,0.2,1.6,0.6c0.4,0.4,0.6,1,0.6,1.7
			c0,0.6-0.1,1.1-0.3,1.4c-0.2,0.3-0.4,0.6-0.8,0.8c-0.3,0.2-0.7,0.3-1.1,0.3c-0.6,0-1.2-0.2-1.6-0.6
			C130.2,104.2,130,103.6,130,102.8z M130.8,102.8c0,0.6,0.1,1,0.4,1.3c0.3,0.3,0.6,0.4,1,0.4c0.4,0,0.7-0.1,1-0.4
			c0.3-0.3,0.4-0.8,0.4-1.4c0-0.6-0.1-1-0.4-1.3c-0.3-0.3-0.6-0.4-1-0.4c-0.4,0-0.7,0.1-1,0.4S130.8,102.2,130.8,102.8z"/>
		<path class="st0" d="M135.2,106.9v-6.4h0.7v0.6c0.2-0.2,0.4-0.4,0.6-0.5c0.2-0.1,0.5-0.2,0.8-0.2c0.4,0,0.7,0.1,1,0.3
			c0.3,0.2,0.5,0.5,0.7,0.9c0.2,0.4,0.2,0.8,0.2,1.2c0,0.5-0.1,0.9-0.3,1.3c-0.2,0.4-0.4,0.7-0.7,0.9c-0.3,0.2-0.7,0.3-1,0.3
			c-0.3,0-0.5-0.1-0.7-0.2c-0.2-0.1-0.4-0.3-0.5-0.4v2.3H135.2z M135.9,102.8c0,0.6,0.1,1,0.4,1.3c0.2,0.3,0.5,0.4,0.9,0.4
			c0.3,0,0.6-0.1,0.9-0.4c0.2-0.3,0.4-0.8,0.4-1.4c0-0.6-0.1-1-0.4-1.3s-0.5-0.4-0.9-0.4c-0.3,0-0.6,0.2-0.9,0.5
			C136.1,101.8,135.9,102.2,135.9,102.8z"/>
		<path class="st0" d="M142.8,105.1v-6.4h0.9l3.4,5v-5h0.8v6.4H147l-3.4-5v5H142.8z"/>
		<path class="st0" d="M148.9,102.8c0-0.9,0.2-1.5,0.7-1.9c0.4-0.3,0.9-0.5,1.5-0.5c0.6,0,1.2,0.2,1.6,0.6c0.4,0.4,0.6,1,0.6,1.7
			c0,0.6-0.1,1.1-0.3,1.4c-0.2,0.3-0.4,0.6-0.8,0.8c-0.3,0.2-0.7,0.3-1.1,0.3c-0.6,0-1.2-0.2-1.6-0.6
			C149.1,104.2,148.9,103.6,148.9,102.8z M149.7,102.8c0,0.6,0.1,1,0.4,1.3c0.3,0.3,0.6,0.4,1,0.4c0.4,0,0.7-0.1,1-0.4
			c0.3-0.3,0.4-0.8,0.4-1.4c0-0.6-0.1-1-0.4-1.3c-0.3-0.3-0.6-0.4-1-0.4c-0.4,0-0.7,0.1-1,0.4S149.7,102.2,149.7,102.8z"/>
		<path class="st0" d="M155,105.1l-1.4-4.6h0.8l0.7,2.7l0.3,1c0,0,0.1-0.4,0.2-1l0.7-2.7h0.8l0.7,2.7l0.2,0.9l0.3-0.9l0.8-2.7h0.8
			l-1.5,4.6h-0.8l-0.7-2.8l-0.2-0.8l-0.9,3.6H155z"/>
		<path class="st0" d="M118.7,106.4v-0.7H160v0.7H118.7z"/>
	</g>
	<g>
		<path class="st0" d="M176.7,105.1v-6.4h0.8v5.6h3.2v0.8H176.7z"/>
		<path class="st0" d="M181.3,102.8c0-0.9,0.2-1.5,0.7-1.9c0.4-0.3,0.9-0.5,1.5-0.5c0.6,0,1.2,0.2,1.6,0.6c0.4,0.4,0.6,1,0.6,1.7
			c0,0.6-0.1,1.1-0.3,1.4c-0.2,0.3-0.4,0.6-0.8,0.8c-0.3,0.2-0.7,0.3-1.1,0.3c-0.6,0-1.2-0.2-1.6-0.6
			C181.5,104.2,181.3,103.6,181.3,102.8z M182.1,102.8c0,0.6,0.1,1,0.4,1.3c0.3,0.3,0.6,0.4,1,0.4c0.4,0,0.7-0.1,1-0.4
			c0.3-0.3,0.4-0.8,0.4-1.4c0-0.6-0.1-1-0.4-1.3c-0.3-0.3-0.6-0.4-1-0.4c-0.4,0-0.7,0.1-1,0.4C182.2,101.8,182.1,102.2,182.1,102.8z
			"/>
		<path class="st0" d="M186.4,105.5l0.8,0.1c0,0.2,0.1,0.4,0.3,0.5c0.2,0.1,0.5,0.2,0.8,0.2c0.4,0,0.6-0.1,0.8-0.2
			c0.2-0.1,0.3-0.3,0.4-0.6c0-0.2,0.1-0.5,0.1-1c-0.3,0.4-0.8,0.6-1.3,0.6c-0.6,0-1.1-0.2-1.5-0.7c-0.3-0.5-0.5-1-0.5-1.7
			c0-0.4,0.1-0.9,0.2-1.2c0.2-0.4,0.4-0.7,0.7-0.9s0.7-0.3,1.1-0.3c0.5,0,1,0.2,1.4,0.7v-0.6h0.7v4c0,0.7-0.1,1.2-0.2,1.5
			c-0.1,0.3-0.4,0.5-0.7,0.7c-0.3,0.2-0.7,0.3-1.2,0.3c-0.6,0-1-0.1-1.3-0.4C186.6,106.4,186.4,106,186.4,105.5z M187.1,102.7
			c0,0.6,0.1,1.1,0.4,1.3c0.2,0.3,0.5,0.4,0.9,0.4c0.4,0,0.7-0.1,0.9-0.4s0.4-0.7,0.4-1.3c0-0.6-0.1-1-0.4-1.3
			c-0.3-0.3-0.6-0.4-0.9-0.4c-0.3,0-0.6,0.1-0.9,0.4C187.2,101.7,187.1,102.2,187.1,102.7z"/>
		<path class="st0" d="M191.5,99.6v-0.9h0.8v0.9H191.5z M191.5,105.1v-4.6h0.8v4.6H191.5z"/>
		<path class="st0" d="M193.5,105.1v-4.6h0.7v0.7c0.3-0.5,0.8-0.8,1.5-0.8c0.3,0,0.5,0,0.8,0.2c0.2,0.1,0.4,0.2,0.5,0.4
			c0.1,0.2,0.2,0.4,0.2,0.6c0,0.1,0,0.4,0,0.8v2.9h-0.8v-2.8c0-0.3,0-0.6-0.1-0.7c-0.1-0.2-0.2-0.3-0.3-0.4
			c-0.2-0.1-0.3-0.1-0.5-0.1c-0.3,0-0.6,0.1-0.9,0.3c-0.2,0.2-0.4,0.6-0.4,1.2v2.5H193.5z"/>
		<path class="st0" d="M176,106.4v-0.7h21.9v0.7H176z"/>
	</g>
	<rect x="2.6" y="95.9" class="st1" width="254.2" height="13.6"/>
	<rect x="211.4" y="95.9" class="st2" width="90.8" height="13.6"/>
	<g>
		<path class="st3" d="M225.3,102.8c0,0.7-0.1,1.3-0.4,1.8s-0.7,0.9-1.2,1.2c-0.5,0.3-1.2,0.4-1.8,0.4h-2.3v-6.6h2.3
			C224.1,99.5,225.3,100.6,225.3,102.8z M223.7,102.8c0-0.6-0.2-1.1-0.6-1.5c-0.4-0.4-0.9-0.5-1.5-0.5h-0.7v4.2h0.7
			c0.6,0,1.1-0.2,1.5-0.6C223.5,104,223.7,103.5,223.7,102.8z"/>
		<path class="st3" d="M230.7,101.4l-1.9,5.1c-0.5,1.2-1.2,1.8-2.1,1.8c-0.3,0-0.6,0-0.9-0.1v-1.2c0.2,0.1,0.4,0.2,0.6,0.2
			c0.4,0,0.6-0.2,0.8-0.5l0.2-0.6l-1.9-4.7h1.6l0.9,2.9c0.1,0.2,0.1,0.4,0.1,0.6h0c0-0.1,0-0.2,0.1-0.3s0.4-1.2,1-3.2H230.7z"/>
		<path class="st3" d="M235.9,106.2h-1.5v-2.6c0-0.7-0.3-1.1-0.8-1.1c-0.2,0-0.5,0.1-0.6,0.3c-0.2,0.2-0.2,0.4-0.2,0.7v2.7h-1.5
			v-4.7h1.5v0.7h0c0.3-0.6,0.9-0.9,1.5-0.9c1,0,1.6,0.6,1.6,1.9V106.2z"/>
		<path class="st3" d="M241,106.2h-1.4v-0.7h0c-0.3,0.5-0.8,0.8-1.4,0.8c-0.5,0-0.8-0.1-1.1-0.4c-0.3-0.3-0.4-0.6-0.4-1
			c0-0.9,0.5-1.4,1.6-1.6l1.3-0.2c0-0.5-0.3-0.8-0.8-0.8c-0.6,0-1.1,0.2-1.6,0.5v-1.1c0.2-0.1,0.5-0.2,0.8-0.3
			c0.4-0.1,0.7-0.1,1-0.1c1.3,0,2,0.7,2,2V106.2z M239.6,103.9l-0.9,0.1c-0.5,0.1-0.7,0.3-0.7,0.6c0,0.2,0.1,0.3,0.2,0.4
			c0.1,0.1,0.3,0.2,0.5,0.2c0.3,0,0.5-0.1,0.7-0.3c0.2-0.2,0.3-0.4,0.3-0.7V103.9z"/>
		<path class="st3" d="M249.6,106.2h-1.5v-2.7c0-0.7-0.3-1-0.8-1c-0.2,0-0.4,0.1-0.6,0.3c-0.2,0.2-0.2,0.5-0.2,0.8v2.6h-1.5v-2.7
			c0-0.7-0.2-1-0.7-1c-0.2,0-0.4,0.1-0.6,0.3c-0.1,0.2-0.2,0.5-0.2,0.8v2.6h-1.5v-4.7h1.5v0.7h0c0.2-0.3,0.4-0.5,0.7-0.6
			c0.3-0.2,0.6-0.2,0.9-0.2c0.7,0,1.1,0.3,1.4,0.9c0.4-0.6,0.9-0.9,1.6-0.9c1,0,1.5,0.6,1.5,1.9V106.2z"/>
		<path class="st3" d="M252.3,99.9c0,0.2-0.1,0.4-0.2,0.5c-0.2,0.1-0.4,0.2-0.6,0.2c-0.2,0-0.5-0.1-0.6-0.2s-0.2-0.3-0.2-0.5
			c0-0.2,0.1-0.4,0.2-0.5c0.2-0.1,0.4-0.2,0.6-0.2c0.2,0,0.4,0.1,0.6,0.2C252.3,99.5,252.3,99.7,252.3,99.9z M252.2,106.2h-1.5v-4.7
			h1.5V106.2z"/>
		<path class="st3" d="M257,106c-0.3,0.2-0.8,0.3-1.4,0.3c-0.5,0-0.9-0.1-1.3-0.3c-0.4-0.2-0.7-0.5-0.9-0.8
			c-0.2-0.4-0.3-0.8-0.3-1.2c0-0.8,0.2-1.4,0.7-1.9c0.5-0.5,1.1-0.7,1.9-0.7c0.6,0,1,0.1,1.2,0.2v1.2c-0.3-0.2-0.6-0.3-1-0.3
			c-0.4,0-0.8,0.1-1,0.4c-0.2,0.3-0.4,0.6-0.4,1s0.1,0.7,0.4,1c0.2,0.2,0.6,0.4,1,0.4c0.4,0,0.7-0.1,1.1-0.3V106z"/>
		<path class="st3" d="M264.4,104.3c0,0.6-0.2,1.1-0.7,1.5c-0.5,0.3-1.1,0.5-1.9,0.5c-0.7,0-1.3-0.1-1.7-0.4v-1.5
			c0.5,0.4,1.1,0.7,1.7,0.7c0.3,0,0.5-0.1,0.7-0.2c0.2-0.1,0.3-0.3,0.3-0.5c0-0.2-0.1-0.4-0.2-0.5c-0.2-0.1-0.5-0.3-1-0.6
			c-1-0.5-1.5-1.1-1.5-1.9c0-0.6,0.2-1.1,0.7-1.4c0.4-0.4,1-0.5,1.8-0.5c0.6,0,1.2,0.1,1.6,0.3v1.4c-0.4-0.3-1-0.5-1.5-0.5
			c-0.3,0-0.5,0.1-0.7,0.2c-0.2,0.1-0.2,0.3-0.2,0.5c0,0.2,0.1,0.4,0.2,0.5c0.1,0.1,0.4,0.3,0.8,0.5c0.6,0.3,1.1,0.6,1.3,0.9
			C264.2,103.5,264.4,103.8,264.4,104.3z"/>
		<path class="st3" d="M266.8,99.9c0,0.2-0.1,0.4-0.2,0.5c-0.2,0.1-0.4,0.2-0.6,0.2c-0.2,0-0.5-0.1-0.6-0.2
			c-0.2-0.1-0.2-0.3-0.2-0.5c0-0.2,0.1-0.4,0.2-0.5c0.2-0.1,0.4-0.2,0.6-0.2c0.2,0,0.4,0.1,0.6,0.2
			C266.8,99.5,266.8,99.7,266.8,99.9z M266.7,106.2h-1.5v-4.7h1.5V106.2z"/>
		<path class="st3" d="M270.8,106.1c-0.2,0.1-0.5,0.2-1,0.2c-1,0-1.5-0.5-1.5-1.6v-2.2h-0.8v-1.1h0.8v-1l1.5-0.4v1.4h1.1v1.1h-1.1
			v1.9c0,0.5,0.2,0.7,0.6,0.7c0.2,0,0.3,0,0.5-0.1V106.1z"/>
		<path class="st3" d="M275.9,104.2h-3.1c0,0.7,0.5,1,1.3,1c0.5,0,1-0.1,1.4-0.4v1.1c-0.4,0.2-1,0.4-1.7,0.4c-0.8,0-1.4-0.2-1.8-0.6
			c-0.4-0.4-0.6-1-0.6-1.8c0-0.5,0.1-0.9,0.3-1.3c0.2-0.4,0.5-0.7,0.8-0.9c0.4-0.2,0.8-0.3,1.2-0.3c0.7,0,1.2,0.2,1.6,0.6
			c0.4,0.4,0.6,1,0.6,1.7V104.2z M274.5,103.3c0-0.7-0.3-1-0.8-1c-0.2,0-0.4,0.1-0.6,0.3c-0.2,0.2-0.3,0.4-0.3,0.7H274.5z"/>
		<path class="st3" d="M278.2,106.2h-1.5v-7h1.5V106.2z"/>
		<path class="st3" d="M281,99.9c0,0.2-0.1,0.4-0.2,0.5c-0.2,0.1-0.4,0.2-0.6,0.2c-0.2,0-0.5-0.1-0.6-0.2c-0.2-0.1-0.2-0.3-0.2-0.5
			c0-0.2,0.1-0.4,0.2-0.5c0.2-0.1,0.4-0.2,0.6-0.2c0.2,0,0.4,0.1,0.6,0.2C280.9,99.5,281,99.7,281,99.9z M280.9,106.2h-1.5v-4.7h1.5
			V106.2z"/>
		<path class="st3" d="M286.7,106.2h-1.5v-2.6c0-0.7-0.3-1.1-0.8-1.1c-0.2,0-0.5,0.1-0.6,0.3c-0.2,0.2-0.2,0.4-0.2,0.7v2.7h-1.5
			v-4.7h1.5v0.7h0c0.3-0.6,0.9-0.9,1.5-0.9c1,0,1.6,0.6,1.6,1.9V106.2z"/>
		<path class="st3" d="M292.5,106.2h-1.7l-1.5-2.3h0v2.3h-1.5v-7h1.5v4.5h0l1.4-2.2h1.7l-1.7,2.2L292.5,106.2z"/>
		<path class="st3" d="M296.4,104.7c0,0.5-0.2,0.9-0.6,1.1s-0.9,0.4-1.5,0.4c-0.5,0-1-0.1-1.4-0.2v-1.2c0.5,0.3,0.9,0.4,1.4,0.4
			c0.5,0,0.7-0.1,0.7-0.4c0-0.1,0-0.2-0.1-0.2c0-0.1-0.1-0.1-0.2-0.2c-0.1-0.1-0.3-0.1-0.6-0.2c-0.4-0.1-0.7-0.3-0.9-0.5
			c-0.2-0.2-0.3-0.5-0.3-0.8c0-0.5,0.2-0.8,0.5-1.1c0.4-0.3,0.8-0.4,1.4-0.4c0.4,0,0.8,0.1,1.2,0.2v1.1c-0.4-0.2-0.7-0.3-1.2-0.3
			c-0.4,0-0.6,0.1-0.6,0.4c0,0.1,0,0.2,0.1,0.2c0,0.1,0.1,0.1,0.2,0.2c0.1,0.1,0.3,0.1,0.5,0.2c0.5,0.2,0.8,0.4,1,0.6
			C296.3,104.1,296.4,104.4,296.4,104.7z"/>
	</g>
</g>
<g>
	<g>
		<path class="st4" d="M6.5,78.5c-0.3-0.1-0.6-0.3-0.7-0.5c-0.2-0.2-0.2-0.5-0.2-0.8c0-0.5,0.2-0.9,0.5-1.2c0.3-0.3,0.8-0.5,1.3-0.5
			c0.6,0,1,0.2,1.4,0.5c0.3,0.3,0.5,0.7,0.5,1.2c0,0.3-0.1,0.6-0.2,0.8c-0.2,0.2-0.4,0.4-0.7,0.5c0.4,0.1,0.7,0.3,0.9,0.6
			c0.2,0.3,0.3,0.6,0.3,1c0,0.5-0.2,1-0.6,1.4c-0.4,0.4-0.9,0.6-1.5,0.6s-1.1-0.2-1.5-0.6c-0.4-0.4-0.6-0.8-0.6-1.4
			c0-0.4,0.1-0.8,0.3-1C5.8,78.8,6.1,78.6,6.5,78.5z M6,80.1c0,0.2,0.1,0.4,0.2,0.7c0.1,0.2,0.3,0.4,0.5,0.5
			c0.2,0.1,0.4,0.2,0.7,0.2c0.4,0,0.7-0.1,0.9-0.4c0.2-0.2,0.4-0.5,0.4-0.9c0-0.4-0.1-0.7-0.4-0.9c-0.3-0.2-0.6-0.4-0.9-0.4
			c-0.4,0-0.7,0.1-0.9,0.4C6.2,79.4,6,79.7,6,80.1z M6.3,77.1c0,0.3,0.1,0.6,0.3,0.7c0.2,0.2,0.4,0.3,0.8,0.3c0.3,0,0.6-0.1,0.7-0.3
			c0.2-0.2,0.3-0.4,0.3-0.7c0-0.3-0.1-0.5-0.3-0.7c-0.2-0.2-0.4-0.3-0.7-0.3c-0.3,0-0.5,0.1-0.7,0.3C6.4,76.6,6.3,76.9,6.3,77.1z"/>
		<path class="st4" d="M10.3,76.4v-0.8h4.1v0.6c-0.4,0.4-0.8,1-1.2,1.7c-0.4,0.7-0.7,1.5-0.9,2.2c-0.2,0.5-0.3,1.1-0.3,1.8h-0.8
			c0-0.5,0.1-1.1,0.3-1.8c0.2-0.7,0.5-1.4,0.8-2.1c0.4-0.7,0.7-1.2,1.1-1.7H10.3z"/>
		<path class="st4" d="M15.6,81.9v-0.9h0.9v0.9c0,0.3-0.1,0.6-0.2,0.8c-0.1,0.2-0.3,0.4-0.6,0.5l-0.2-0.3c0.2-0.1,0.3-0.2,0.4-0.3
			c0.1-0.1,0.1-0.3,0.1-0.6H15.6z"/>
		<path class="st4" d="M18.9,78.5c-0.3-0.1-0.6-0.3-0.7-0.5c-0.2-0.2-0.2-0.5-0.2-0.8c0-0.5,0.2-0.9,0.5-1.2
			c0.3-0.3,0.8-0.5,1.3-0.5c0.6,0,1,0.2,1.4,0.5c0.3,0.3,0.5,0.7,0.5,1.2c0,0.3-0.1,0.6-0.2,0.8c-0.2,0.2-0.4,0.4-0.7,0.5
			c0.4,0.1,0.7,0.3,0.9,0.6c0.2,0.3,0.3,0.6,0.3,1c0,0.5-0.2,1-0.6,1.4c-0.4,0.4-0.9,0.6-1.5,0.6s-1.1-0.2-1.5-0.6
			c-0.4-0.4-0.6-0.8-0.6-1.4c0-0.4,0.1-0.8,0.3-1C18.2,78.8,18.5,78.6,18.9,78.5z M18.5,80.1c0,0.2,0.1,0.4,0.2,0.7
			c0.1,0.2,0.3,0.4,0.5,0.5c0.2,0.1,0.4,0.2,0.7,0.2c0.4,0,0.7-0.1,0.9-0.4c0.2-0.2,0.4-0.5,0.4-0.9c0-0.4-0.1-0.7-0.4-0.9
			c-0.3-0.2-0.6-0.4-0.9-0.4c-0.4,0-0.7,0.1-0.9,0.4C18.6,79.4,18.5,79.7,18.5,80.1z M18.7,77.1c0,0.3,0.1,0.6,0.3,0.7
			c0.2,0.2,0.4,0.3,0.8,0.3c0.3,0,0.6-0.1,0.7-0.3c0.2-0.2,0.3-0.4,0.3-0.7c0-0.3-0.1-0.5-0.3-0.7c-0.2-0.2-0.4-0.3-0.7-0.3
			c-0.3,0-0.5,0.1-0.7,0.3C18.8,76.6,18.7,76.9,18.7,77.1z"/>
		<path class="st4" d="M22.7,78.8c0-0.8,0.1-1.4,0.2-1.8s0.4-0.8,0.7-1.1c0.3-0.3,0.7-0.4,1.2-0.4c0.3,0,0.6,0.1,0.9,0.2
			c0.3,0.1,0.5,0.3,0.6,0.6s0.3,0.6,0.4,1c0.1,0.4,0.1,0.9,0.1,1.5c0,0.8-0.1,1.4-0.2,1.8s-0.4,0.8-0.7,1.1
			c-0.3,0.3-0.7,0.4-1.2,0.4c-0.6,0-1.1-0.2-1.5-0.7C22.9,80.9,22.7,80,22.7,78.8z M23.5,78.8c0,1.1,0.1,1.8,0.4,2.1
			c0.2,0.3,0.5,0.5,0.9,0.5s0.7-0.2,0.9-0.5c0.2-0.3,0.4-1,0.4-2.1c0-1.1-0.1-1.8-0.4-2.1c-0.2-0.3-0.6-0.5-0.9-0.5
			c-0.4,0-0.6,0.2-0.9,0.5C23.6,77,23.5,77.7,23.5,78.8z"/>
		<path class="st4" d="M27.6,78.8c0-0.8,0.1-1.4,0.2-1.8c0.2-0.5,0.4-0.8,0.7-1.1c0.3-0.3,0.7-0.4,1.2-0.4c0.3,0,0.6,0.1,0.9,0.2
			c0.3,0.1,0.5,0.3,0.6,0.6s0.3,0.6,0.4,1c0.1,0.4,0.1,0.9,0.1,1.5c0,0.8-0.1,1.4-0.2,1.8c-0.2,0.5-0.4,0.8-0.7,1.1
			c-0.3,0.3-0.7,0.4-1.2,0.4c-0.6,0-1.1-0.2-1.5-0.7C27.8,80.9,27.6,80,27.6,78.8z M28.4,78.8c0,1.1,0.1,1.8,0.4,2.1
			c0.2,0.3,0.5,0.5,0.9,0.5c0.4,0,0.7-0.2,0.9-0.5c0.2-0.3,0.4-1,0.4-2.1c0-1.1-0.1-1.8-0.4-2.1c-0.2-0.3-0.6-0.5-0.9-0.5
			c-0.4,0-0.6,0.2-0.9,0.5C28.6,77,28.4,77.7,28.4,78.8z"/>
		<path class="st4" d="M34.5,80.9v-1.8h-1.7v-0.7h1.7v-1.7h0.7v1.7H37v0.7h-1.7v1.8H34.5z"/>
		<path class="st4" d="M40.7,81.9v-4H40v-0.6h0.7v-0.5c0-0.3,0-0.5,0.1-0.7c0.1-0.2,0.2-0.4,0.4-0.5c0.2-0.1,0.5-0.2,0.8-0.2
			c0.2,0,0.5,0,0.7,0.1l-0.1,0.7c-0.2,0-0.3,0-0.5,0c-0.2,0-0.4,0.1-0.5,0.2c-0.1,0.1-0.1,0.3-0.1,0.6v0.4h0.9v0.6h-0.9v4H40.7z"/>
		<path class="st4" d="M42.7,79.6c0-0.9,0.2-1.5,0.7-1.9c0.4-0.3,0.9-0.5,1.5-0.5c0.6,0,1.2,0.2,1.6,0.6c0.4,0.4,0.6,1,0.6,1.7
			c0,0.6-0.1,1.1-0.3,1.4c-0.2,0.3-0.4,0.6-0.8,0.8c-0.3,0.2-0.7,0.3-1.1,0.3c-0.6,0-1.2-0.2-1.6-0.6C42.9,81,42.7,80.4,42.7,79.6z
			 M43.5,79.6c0,0.6,0.1,1,0.4,1.3c0.3,0.3,0.6,0.4,1,0.4c0.4,0,0.7-0.1,1-0.4c0.3-0.3,0.4-0.8,0.4-1.4c0-0.6-0.1-1-0.4-1.3
			c-0.3-0.3-0.6-0.4-1-0.4c-0.4,0-0.7,0.1-1,0.4C43.7,78.6,43.5,79,43.5,79.6z"/>
		<path class="st4" d="M48,81.9v-6.4h0.8v6.4H48z"/>
		<path class="st4" d="M50,81.9v-6.4h0.8v6.4H50z"/>
		<path class="st4" d="M51.7,79.6c0-0.9,0.2-1.5,0.7-1.9c0.4-0.3,0.9-0.5,1.5-0.5c0.6,0,1.2,0.2,1.6,0.6c0.4,0.4,0.6,1,0.6,1.7
			c0,0.6-0.1,1.1-0.3,1.4c-0.2,0.3-0.4,0.6-0.8,0.8c-0.3,0.2-0.7,0.3-1.1,0.3c-0.6,0-1.2-0.2-1.6-0.6C51.9,81,51.7,80.4,51.7,79.6z
			 M52.5,79.6c0,0.6,0.1,1,0.4,1.3c0.3,0.3,0.6,0.4,1,0.4c0.4,0,0.7-0.1,1-0.4c0.3-0.3,0.4-0.8,0.4-1.4c0-0.6-0.1-1-0.4-1.3
			c-0.3-0.3-0.6-0.4-1-0.4c-0.4,0-0.7,0.1-1,0.4C52.6,78.6,52.5,79,52.5,79.6z"/>
		<path class="st4" d="M57.8,81.9l-1.4-4.6h0.8l0.7,2.7l0.3,1c0,0,0.1-0.4,0.2-1l0.7-2.7H60l0.7,2.7l0.2,0.9l0.3-0.9l0.8-2.7h0.8
			l-1.5,4.6h-0.8l-0.7-2.8l-0.2-0.8l-0.9,3.6H57.8z"/>
		<path class="st4" d="M66.6,80.5l0.8,0.1c-0.1,0.5-0.4,0.8-0.7,1.1c-0.3,0.3-0.8,0.4-1.3,0.4c-0.7,0-1.2-0.2-1.6-0.6
			c-0.4-0.4-0.6-1-0.6-1.8c0-0.8,0.2-1.4,0.6-1.8c0.4-0.4,0.9-0.6,1.6-0.6c0.6,0,1.1,0.2,1.5,0.6c0.4,0.4,0.6,1,0.6,1.8
			c0,0,0,0.1,0,0.2H64c0,0.5,0.2,0.9,0.4,1.2c0.3,0.3,0.6,0.4,1,0.4c0.3,0,0.5-0.1,0.7-0.2C66.3,81,66.5,80.8,66.6,80.5z M64,79.2
			h2.6c0-0.4-0.1-0.7-0.3-0.9c-0.3-0.3-0.6-0.5-1-0.5c-0.4,0-0.7,0.1-0.9,0.4C64.2,78.5,64,78.8,64,79.2z"/>
		<path class="st4" d="M68.4,81.9v-4.6h0.7V78c0.2-0.3,0.3-0.5,0.5-0.7c0.2-0.1,0.3-0.2,0.5-0.2c0.3,0,0.5,0.1,0.8,0.3l-0.3,0.7
			c-0.2-0.1-0.4-0.2-0.6-0.2c-0.2,0-0.3,0.1-0.5,0.2c-0.1,0.1-0.2,0.2-0.3,0.4c-0.1,0.3-0.1,0.6-0.1,0.9v2.4H68.4z"/>
		<path class="st4" d="M71.1,80.6l0.8-0.1c0,0.3,0.2,0.6,0.4,0.7c0.2,0.2,0.5,0.2,0.8,0.2c0.4,0,0.6-0.1,0.8-0.2
			c0.2-0.1,0.3-0.3,0.3-0.5c0-0.2-0.1-0.3-0.2-0.4c-0.1-0.1-0.4-0.2-0.8-0.3c-0.6-0.1-1-0.3-1.2-0.4c-0.2-0.1-0.4-0.3-0.5-0.4
			c-0.1-0.2-0.2-0.4-0.2-0.6c0-0.2,0-0.4,0.1-0.6c0.1-0.2,0.2-0.3,0.4-0.4c0.1-0.1,0.3-0.2,0.5-0.2c0.2-0.1,0.4-0.1,0.7-0.1
			c0.4,0,0.7,0.1,1,0.2c0.3,0.1,0.5,0.2,0.6,0.4c0.1,0.2,0.2,0.4,0.3,0.7L74,78.6c0-0.2-0.1-0.4-0.3-0.6c-0.2-0.1-0.4-0.2-0.7-0.2
			c-0.4,0-0.6,0.1-0.8,0.2c-0.2,0.1-0.2,0.3-0.2,0.4c0,0.1,0,0.2,0.1,0.3c0.1,0.1,0.2,0.2,0.3,0.2c0.1,0,0.3,0.1,0.7,0.2
			c0.6,0.1,0.9,0.3,1.2,0.4c0.2,0.1,0.4,0.2,0.5,0.4c0.1,0.2,0.2,0.4,0.2,0.7c0,0.3-0.1,0.5-0.2,0.7c-0.2,0.2-0.4,0.4-0.7,0.5
			c-0.3,0.1-0.6,0.2-1,0.2c-0.6,0-1.1-0.1-1.4-0.4C71.3,81.4,71.1,81.1,71.1,80.6z"/>
		<path class="st4" d="M78,79.6c0-0.9,0.2-1.5,0.7-1.9c0.4-0.3,0.9-0.5,1.5-0.5c0.6,0,1.2,0.2,1.6,0.6c0.4,0.4,0.6,1,0.6,1.7
			c0,0.6-0.1,1.1-0.3,1.4c-0.2,0.3-0.4,0.6-0.8,0.8c-0.3,0.2-0.7,0.3-1.1,0.3c-0.6,0-1.2-0.2-1.6-0.6C78.2,81,78,80.4,78,79.6z
			 M78.8,79.6c0,0.6,0.1,1,0.4,1.3c0.3,0.3,0.6,0.4,1,0.4c0.4,0,0.7-0.1,1-0.4c0.3-0.3,0.4-0.8,0.4-1.4c0-0.6-0.1-1-0.4-1.3
			c-0.3-0.3-0.6-0.4-1-0.4c-0.4,0-0.7,0.1-1,0.4C79,78.6,78.8,79,78.8,79.6z"/>
		<path class="st4" d="M83.3,81.9v-4.6H84V78c0.3-0.5,0.8-0.8,1.5-0.8c0.3,0,0.5,0,0.8,0.2c0.2,0.1,0.4,0.2,0.5,0.4
			c0.1,0.2,0.2,0.4,0.2,0.6c0,0.1,0,0.4,0,0.8v2.9h-0.8v-2.8c0-0.3,0-0.6-0.1-0.7c-0.1-0.2-0.2-0.3-0.3-0.4
			c-0.2-0.1-0.3-0.1-0.5-0.1c-0.3,0-0.6,0.1-0.9,0.3c-0.2,0.2-0.4,0.6-0.4,1.2v2.5H83.3z"/>
		<path class="st4" d="M92.3,81.9v-5.6h-2.1v-0.8h5.1v0.8h-2.1v5.6H92.3z"/>
		<path class="st4" d="M96.4,81.9L95,77.3h0.8l0.7,2.7l0.3,1c0,0,0.1-0.4,0.2-1l0.7-2.7h0.8l0.7,2.7l0.2,0.9l0.3-0.9l0.8-2.7h0.8
			l-1.5,4.6h-0.8l-0.7-2.8l-0.2-0.8l-0.9,3.6H96.4z"/>
		<path class="st4" d="M102,76.4v-0.9h0.8v0.9H102z M102,81.9v-4.6h0.8v4.6H102z"/>
		<path class="st4" d="M105.7,81.2l0.1,0.7c-0.2,0-0.4,0.1-0.6,0.1c-0.3,0-0.5,0-0.7-0.1c-0.2-0.1-0.3-0.2-0.3-0.4
			c-0.1-0.1-0.1-0.5-0.1-0.9v-2.7h-0.6v-0.6h0.6v-1.1l0.8-0.5v1.6h0.8v0.6h-0.8v2.7c0,0.2,0,0.4,0,0.4c0,0.1,0.1,0.1,0.1,0.2
			c0.1,0,0.2,0.1,0.3,0.1C105.5,81.3,105.6,81.3,105.7,81.2z"/>
		<path class="st4" d="M108.2,81.2l0.1,0.7c-0.2,0-0.4,0.1-0.6,0.1c-0.3,0-0.5,0-0.7-0.1c-0.2-0.1-0.3-0.2-0.3-0.4
			c-0.1-0.1-0.1-0.5-0.1-0.9v-2.7h-0.6v-0.6h0.6v-1.1l0.8-0.5v1.6h0.8v0.6h-0.8v2.7c0,0.2,0,0.4,0,0.4c0,0.1,0.1,0.1,0.1,0.2
			c0.1,0,0.2,0.1,0.3,0.1C108,81.3,108.1,81.3,108.2,81.2z"/>
		<path class="st4" d="M112.2,80.5l0.8,0.1c-0.1,0.5-0.4,0.8-0.7,1.1c-0.3,0.3-0.8,0.4-1.3,0.4c-0.7,0-1.2-0.2-1.6-0.6
			c-0.4-0.4-0.6-1-0.6-1.8c0-0.8,0.2-1.4,0.6-1.8c0.4-0.4,0.9-0.6,1.6-0.6c0.6,0,1.1,0.2,1.5,0.6c0.4,0.4,0.6,1,0.6,1.8
			c0,0,0,0.1,0,0.2h-3.5c0,0.5,0.2,0.9,0.4,1.2c0.3,0.3,0.6,0.4,1,0.4c0.3,0,0.5-0.1,0.7-0.2C111.9,81,112,80.8,112.2,80.5z
			 M109.6,79.2h2.6c0-0.4-0.1-0.7-0.3-0.9c-0.3-0.3-0.6-0.5-1-0.5c-0.4,0-0.7,0.1-0.9,0.4C109.7,78.5,109.6,78.8,109.6,79.2z"/>
		<path class="st4" d="M114,81.9v-4.6h0.7V78c0.2-0.3,0.3-0.5,0.5-0.7c0.2-0.1,0.3-0.2,0.5-0.2c0.3,0,0.5,0.1,0.8,0.3l-0.3,0.7
			c-0.2-0.1-0.4-0.2-0.6-0.2c-0.2,0-0.3,0.1-0.5,0.2c-0.1,0.1-0.2,0.2-0.3,0.4c-0.1,0.3-0.1,0.6-0.1,0.9v2.4H114z"/>
	</g>
	<rect x="1.5" y="71.9" class="st1" width="125.1" height="13.6"/>
	<rect x="126.6" y="71.9" class="st2" width="106.1" height="13.6"/>
	<g>
		<path class="st3" d="M139.2,76.8h-1.9v5.4h-1.5v-5.4H134v-1.2h5.3V76.8z"/>
		<path class="st3" d="M146.4,77.5l-1.4,4.7h-1.5l-0.7-2.8c0-0.2-0.1-0.4-0.1-0.6h0c0,0.3-0.1,0.5-0.1,0.6l-0.7,2.8h-1.5l-1.3-4.7
			h1.5l0.7,3.1c0,0.1,0.1,0.3,0.1,0.5h0c0-0.2,0-0.4,0.1-0.5l0.8-3.1h1.4l0.7,3.1c0,0.1,0,0.3,0.1,0.5h0c0-0.1,0-0.2,0-0.3
			c0-0.1,0.2-1.2,0.7-3.4H146.4z"/>
		<path class="st3" d="M148.7,76c0,0.2-0.1,0.4-0.2,0.5c-0.2,0.1-0.4,0.2-0.6,0.2c-0.2,0-0.5-0.1-0.6-0.2c-0.2-0.1-0.2-0.3-0.2-0.5
			c0-0.2,0.1-0.4,0.2-0.5s0.4-0.2,0.6-0.2c0.2,0,0.4,0.1,0.6,0.2C148.6,75.6,148.7,75.8,148.7,76z M148.6,82.2h-1.5v-4.7h1.5V82.2z"
			/>
		<path class="st3" d="M152.6,82.2c-0.2,0.1-0.5,0.2-1,0.2c-1,0-1.5-0.5-1.5-1.6v-2.2h-0.8v-1.1h0.8v-1l1.5-0.4v1.4h1.1v1.1h-1.1
			v1.9c0,0.5,0.2,0.7,0.6,0.7c0.2,0,0.3,0,0.5-0.1V82.2z"/>
		<path class="st3" d="M156.3,82.2c-0.2,0.1-0.5,0.2-1,0.2c-1,0-1.5-0.5-1.5-1.6v-2.2H153v-1.1h0.8v-1l1.5-0.4v1.4h1.1v1.1h-1.1v1.9
			c0,0.5,0.2,0.7,0.6,0.7c0.2,0,0.3,0,0.5-0.1V82.2z"/>
		<path class="st3" d="M161.4,80.3h-3.1c0,0.7,0.5,1,1.3,1c0.5,0,1-0.1,1.4-0.4V82c-0.4,0.2-1,0.4-1.7,0.4c-0.8,0-1.4-0.2-1.8-0.6
			c-0.4-0.4-0.6-1-0.6-1.8c0-0.5,0.1-0.9,0.3-1.3c0.2-0.4,0.5-0.7,0.8-0.9c0.4-0.2,0.8-0.3,1.2-0.3c0.7,0,1.2,0.2,1.6,0.6
			c0.4,0.4,0.6,1,0.6,1.7V80.3z M160,79.4c0-0.7-0.3-1-0.8-1c-0.2,0-0.4,0.1-0.6,0.3s-0.3,0.4-0.3,0.7H160z"/>
		<path class="st3" d="M165.3,78.8c-0.2-0.1-0.4-0.1-0.6-0.1c-0.3,0-0.6,0.1-0.7,0.3c-0.2,0.2-0.3,0.5-0.3,1v2.3h-1.5v-4.7h1.5v0.9
			h0c0.2-0.6,0.6-1,1.2-1c0.2,0,0.3,0,0.4,0.1V78.8z"/>
		<path class="st3" d="M174.2,82.2h-1.6l-0.5-1.5h-2.4l-0.5,1.5h-1.6l2.4-6.6h1.8L174.2,82.2z M171.7,79.6l-0.7-2.2
			c-0.1-0.2-0.1-0.4-0.1-0.6h0c0,0.2-0.1,0.4-0.1,0.6l-0.7,2.2H171.7z"/>
		<path class="st3" d="M179.4,82.2H178v-2.6c0-0.7-0.3-1.1-0.8-1.1c-0.2,0-0.5,0.1-0.6,0.3c-0.2,0.2-0.2,0.4-0.2,0.7v2.7h-1.5v-4.7
			h1.5v0.7h0c0.3-0.6,0.9-0.9,1.5-0.9c1,0,1.6,0.6,1.6,1.9V82.2z"/>
		<path class="st3" d="M185.1,82.2h-1.5v-2.6c0-0.7-0.3-1.1-0.8-1.1c-0.2,0-0.5,0.1-0.6,0.3c-0.2,0.2-0.2,0.4-0.2,0.7v2.7h-1.5v-4.7
			h1.5v0.7h0c0.3-0.6,0.9-0.9,1.5-0.9c1,0,1.6,0.6,1.6,1.9V82.2z"/>
		<path class="st3" d="M191.1,79.8c0,0.8-0.2,1.4-0.7,1.9c-0.5,0.5-1.1,0.7-1.9,0.7c-0.8,0-1.4-0.2-1.8-0.7c-0.5-0.4-0.7-1-0.7-1.8
			c0-0.8,0.2-1.4,0.7-1.8c0.5-0.4,1.1-0.7,1.9-0.7c0.8,0,1.4,0.2,1.8,0.7C190.9,78.5,191.1,79.1,191.1,79.8z M189.6,79.8
			c0-0.9-0.4-1.3-1.1-1.3c-0.3,0-0.6,0.1-0.8,0.4c-0.2,0.2-0.3,0.6-0.3,1c0,0.9,0.4,1.4,1.1,1.4C189.3,81.2,189.6,80.7,189.6,79.8z"
			/>
		<path class="st3" d="M194.9,82.2c-0.2,0.1-0.5,0.2-1,0.2c-1,0-1.5-0.5-1.5-1.6v-2.2h-0.8v-1.1h0.8v-1l1.5-0.4v1.4h1.1v1.1h-1.1
			v1.9c0,0.5,0.2,0.7,0.6,0.7c0.2,0,0.3,0,0.5-0.1V82.2z"/>
		<path class="st3" d="M199.7,82.2h-1.4v-0.7h0c-0.3,0.5-0.8,0.8-1.4,0.8c-0.5,0-0.8-0.1-1.1-0.4c-0.3-0.3-0.4-0.6-0.4-1
			c0-0.9,0.5-1.4,1.6-1.6l1.3-0.2c0-0.5-0.3-0.8-0.8-0.8c-0.6,0-1.1,0.2-1.6,0.5v-1.1c0.2-0.1,0.5-0.2,0.8-0.3
			c0.4-0.1,0.7-0.1,1-0.1c1.3,0,2,0.7,2,2V82.2z M198.3,80l-0.9,0.1c-0.5,0.1-0.7,0.3-0.7,0.6c0,0.2,0.1,0.3,0.2,0.4
			c0.1,0.1,0.3,0.2,0.5,0.2c0.3,0,0.5-0.1,0.7-0.3c0.2-0.2,0.3-0.4,0.3-0.7V80z"/>
		<path class="st3" d="M203.7,82.2c-0.2,0.1-0.5,0.2-1,0.2c-1,0-1.5-0.5-1.5-1.6v-2.2h-0.8v-1.1h0.8v-1l1.5-0.4v1.4h1.1v1.1h-1.1
			v1.9c0,0.5,0.2,0.7,0.6,0.7c0.2,0,0.3,0,0.5-0.1V82.2z"/>
		<path class="st3" d="M206.1,76c0,0.2-0.1,0.4-0.2,0.5c-0.2,0.1-0.4,0.2-0.6,0.2c-0.2,0-0.5-0.1-0.6-0.2c-0.2-0.1-0.2-0.3-0.2-0.5
			c0-0.2,0.1-0.4,0.2-0.5s0.4-0.2,0.6-0.2c0.2,0,0.4,0.1,0.6,0.2C206,75.6,206.1,75.8,206.1,76z M205.9,82.2h-1.5v-4.7h1.5V82.2z"/>
		<path class="st3" d="M212,79.8c0,0.8-0.2,1.4-0.7,1.9c-0.5,0.5-1.1,0.7-1.9,0.7c-0.8,0-1.4-0.2-1.8-0.7c-0.5-0.4-0.7-1-0.7-1.8
			c0-0.8,0.2-1.4,0.7-1.8c0.5-0.4,1.1-0.7,1.9-0.7c0.8,0,1.4,0.2,1.8,0.7C211.8,78.5,212,79.1,212,79.8z M210.5,79.8
			c0-0.9-0.4-1.3-1.1-1.3c-0.3,0-0.6,0.1-0.8,0.4c-0.2,0.2-0.3,0.6-0.3,1c0,0.9,0.4,1.4,1.1,1.4C210.2,81.2,210.5,80.7,210.5,79.8z"
			/>
		<path class="st3" d="M217.5,82.2h-1.5v-2.6c0-0.7-0.3-1.1-0.8-1.1c-0.2,0-0.5,0.1-0.6,0.3c-0.2,0.2-0.2,0.4-0.2,0.7v2.7h-1.5v-4.7
			h1.5v0.7h0c0.3-0.6,0.9-0.9,1.5-0.9c1,0,1.6,0.6,1.6,1.9V82.2z"/>
	</g>
</g>
<g>
	<g>
		<path class="st4" d="M9.6,57.1l0.8,0.1c-0.1,0.5-0.3,1-0.6,1.3c-0.3,0.3-0.8,0.5-1.3,0.5c-0.6,0-1.1-0.2-1.5-0.6
			c-0.4-0.4-0.6-1-0.6-1.8c0-0.5,0.1-0.9,0.2-1.3c0.2-0.4,0.4-0.7,0.8-0.8c0.3-0.2,0.7-0.3,1.1-0.3c0.5,0,0.9,0.1,1.2,0.4
			s0.5,0.6,0.6,1.1l-0.8,0.1c-0.1-0.3-0.2-0.5-0.4-0.7c-0.2-0.2-0.4-0.2-0.7-0.2c-0.4,0-0.7,0.1-1,0.4c-0.2,0.3-0.4,0.7-0.4,1.3
			c0,0.6,0.1,1.1,0.4,1.4c0.2,0.3,0.5,0.4,0.9,0.4c0.3,0,0.6-0.1,0.8-0.3C9.4,57.8,9.5,57.5,9.6,57.1z"/>
		<path class="st4" d="M10.7,56.5c0-0.9,0.2-1.5,0.7-1.9c0.4-0.3,0.9-0.5,1.5-0.5c0.6,0,1.2,0.2,1.6,0.6c0.4,0.4,0.6,1,0.6,1.7
			c0,0.6-0.1,1.1-0.3,1.4c-0.2,0.3-0.4,0.6-0.8,0.8c-0.3,0.2-0.7,0.3-1.1,0.3c-0.6,0-1.2-0.2-1.6-0.6C10.9,57.9,10.7,57.3,10.7,56.5
			z M11.5,56.5c0,0.6,0.1,1,0.4,1.3c0.3,0.3,0.6,0.4,1,0.4c0.4,0,0.7-0.1,1-0.4c0.3-0.3,0.4-0.8,0.4-1.4c0-0.6-0.1-1-0.4-1.3
			c-0.3-0.3-0.6-0.4-1-0.4c-0.4,0-0.7,0.1-1,0.4C11.7,55.5,11.5,55.9,11.5,56.5z"/>
		<path class="st4" d="M16,58.8v-6.4h0.8v2.3c0.4-0.4,0.8-0.6,1.4-0.6c0.3,0,0.6,0.1,0.9,0.2c0.3,0.1,0.4,0.3,0.5,0.6s0.2,0.6,0.2,1
			v2.9H19v-2.9c0-0.4-0.1-0.7-0.3-0.9c-0.2-0.2-0.4-0.3-0.7-0.3c-0.2,0-0.5,0.1-0.7,0.2c-0.2,0.1-0.4,0.3-0.4,0.5
			c-0.1,0.2-0.1,0.5-0.1,0.9v2.5H16z"/>
		<path class="st4" d="M20.7,56.5c0-0.9,0.2-1.5,0.7-1.9c0.4-0.3,0.9-0.5,1.5-0.5c0.6,0,1.2,0.2,1.6,0.6c0.4,0.4,0.6,1,0.6,1.7
			c0,0.6-0.1,1.1-0.3,1.4c-0.2,0.3-0.4,0.6-0.8,0.8c-0.3,0.2-0.7,0.3-1.1,0.3c-0.6,0-1.2-0.2-1.6-0.6C20.9,57.9,20.7,57.3,20.7,56.5
			z M21.5,56.5c0,0.6,0.1,1,0.4,1.3c0.3,0.3,0.6,0.4,1,0.4c0.4,0,0.7-0.1,1-0.4c0.3-0.3,0.4-0.8,0.4-1.4c0-0.6-0.1-1-0.4-1.3
			c-0.3-0.3-0.6-0.4-1-0.4c-0.4,0-0.7,0.1-1,0.4C21.6,55.5,21.5,55.9,21.5,56.5z"/>
		<path class="st4" d="M26.8,58.8l-1.4-4.6h0.8l0.7,2.7l0.3,1c0,0,0.1-0.4,0.2-1l0.7-2.7H29l0.7,2.7l0.2,0.9l0.3-0.9l0.8-2.7h0.8
			l-1.5,4.6h-0.8l-0.7-2.8l-0.2-0.8l-0.9,3.6H26.8z"/>
		<path class="st4" d="M32.4,53.3v-0.9h0.8v0.9H32.4z M32.4,58.8v-4.6h0.8v4.6H32.4z"/>
		<path class="st4" d="M34.4,58.8v-4.6h0.7v0.7c0.3-0.5,0.8-0.8,1.5-0.8c0.3,0,0.5,0,0.8,0.2c0.2,0.1,0.4,0.2,0.5,0.4
			c0.1,0.2,0.2,0.4,0.2,0.6c0,0.1,0,0.4,0,0.8v2.9h-0.8V56c0-0.3,0-0.6-0.1-0.7c-0.1-0.2-0.2-0.3-0.3-0.4c-0.2-0.1-0.3-0.1-0.5-0.1
			c-0.3,0-0.6,0.1-0.9,0.3c-0.2,0.2-0.4,0.6-0.4,1.2v2.5H34.4z"/>
		<path class="st4" d="M42.5,57.3l0.8,0.1c-0.1,0.5-0.4,0.8-0.7,1.1c-0.3,0.3-0.8,0.4-1.3,0.4c-0.7,0-1.2-0.2-1.6-0.6
			c-0.4-0.4-0.6-1-0.6-1.8c0-0.8,0.2-1.4,0.6-1.8c0.4-0.4,0.9-0.6,1.6-0.6c0.6,0,1.1,0.2,1.5,0.6c0.4,0.4,0.6,1,0.6,1.8
			c0,0,0,0.1,0,0.2h-3.5c0,0.5,0.2,0.9,0.4,1.2c0.3,0.3,0.6,0.4,1,0.4c0.3,0,0.5-0.1,0.7-0.2C42.3,57.9,42.4,57.7,42.5,57.3z
			 M40,56.1h2.6c0-0.4-0.1-0.7-0.3-0.9c-0.3-0.3-0.6-0.5-1-0.5c-0.4,0-0.7,0.1-0.9,0.4C40.1,55.3,40,55.7,40,56.1z"/>
		<path class="st4" d="M44.3,58.8v-4.6H45v0.7c0.2-0.3,0.3-0.5,0.5-0.7c0.2-0.1,0.3-0.2,0.5-0.2c0.3,0,0.5,0.1,0.8,0.3l-0.3,0.7
			c-0.2-0.1-0.4-0.2-0.6-0.2c-0.2,0-0.3,0.1-0.5,0.2c-0.1,0.1-0.2,0.2-0.3,0.4c-0.1,0.3-0.1,0.6-0.1,0.9v2.4H44.3z"/>
		<path class="st4" d="M47.3,60.6l-0.1-0.7c0.2,0,0.3,0.1,0.4,0.1c0.2,0,0.3,0,0.4-0.1c0.1-0.1,0.2-0.1,0.3-0.2
			c0-0.1,0.1-0.3,0.2-0.6c0,0,0-0.1,0.1-0.2l-1.8-4.6h0.8l1,2.7c0.1,0.3,0.2,0.7,0.3,1.1c0.1-0.4,0.2-0.7,0.3-1.1l1-2.7h0.8
			l-1.8,4.7c-0.2,0.5-0.3,0.9-0.4,1.1c-0.1,0.3-0.3,0.4-0.5,0.6c-0.2,0.1-0.4,0.2-0.6,0.2C47.6,60.7,47.5,60.7,47.3,60.6z"/>
		<path class="st4" d="M51.3,58.8v-0.9h0.9v0.9H51.3z"/>
		<path class="st4" d="M56.6,57.1l0.8,0.1c-0.1,0.5-0.3,1-0.6,1.3c-0.3,0.3-0.8,0.5-1.3,0.5c-0.6,0-1.1-0.2-1.5-0.6
			c-0.4-0.4-0.6-1-0.6-1.8c0-0.5,0.1-0.9,0.2-1.3c0.2-0.4,0.4-0.7,0.8-0.8c0.3-0.2,0.7-0.3,1.1-0.3c0.5,0,0.9,0.1,1.2,0.4
			s0.5,0.6,0.6,1.1l-0.8,0.1c-0.1-0.3-0.2-0.5-0.4-0.7c-0.2-0.2-0.4-0.2-0.7-0.2c-0.4,0-0.7,0.1-1,0.4c-0.2,0.3-0.4,0.7-0.4,1.3
			c0,0.6,0.1,1.1,0.4,1.4c0.2,0.3,0.5,0.4,0.9,0.4c0.3,0,0.6-0.1,0.8-0.3S56.6,57.5,56.6,57.1z"/>
		<path class="st4" d="M57.8,56.5c0-0.9,0.2-1.5,0.7-1.9c0.4-0.3,0.9-0.5,1.5-0.5c0.6,0,1.2,0.2,1.6,0.6c0.4,0.4,0.6,1,0.6,1.7
			c0,0.6-0.1,1.1-0.3,1.4c-0.2,0.3-0.4,0.6-0.8,0.8c-0.3,0.2-0.7,0.3-1.1,0.3c-0.6,0-1.2-0.2-1.6-0.6C58,57.9,57.8,57.3,57.8,56.5z
			 M58.6,56.5c0,0.6,0.1,1,0.4,1.3c0.3,0.3,0.6,0.4,1,0.4c0.4,0,0.7-0.1,1-0.4c0.3-0.3,0.4-0.8,0.4-1.4c0-0.6-0.1-1-0.4-1.3
			c-0.3-0.3-0.6-0.4-1-0.4c-0.4,0-0.7,0.1-1,0.4C58.7,55.5,58.6,55.9,58.6,56.5z"/>
		<path class="st4" d="M63.1,58.8v-4.6h0.7v0.7c0.1-0.2,0.3-0.4,0.6-0.5c0.2-0.1,0.5-0.2,0.8-0.2c0.3,0,0.6,0.1,0.8,0.2
			c0.2,0.1,0.4,0.3,0.5,0.6c0.4-0.5,0.8-0.8,1.4-0.8c0.5,0,0.8,0.1,1.1,0.4c0.2,0.3,0.4,0.6,0.4,1.2v3.2h-0.8v-2.9
			c0-0.3,0-0.5-0.1-0.7s-0.1-0.2-0.3-0.3c-0.1-0.1-0.3-0.1-0.5-0.1c-0.3,0-0.6,0.1-0.8,0.3c-0.2,0.2-0.3,0.6-0.3,1v2.7h-0.8v-3
			c0-0.3-0.1-0.6-0.2-0.8c-0.1-0.2-0.3-0.3-0.6-0.3c-0.2,0-0.4,0.1-0.6,0.2s-0.3,0.3-0.4,0.5c-0.1,0.2-0.1,0.5-0.1,1v2.4H63.1z"/>
		<path class="st4" d="M73,53.3v-0.9h0.8v0.9H73z M73,58.8v-4.6h0.8v4.6H73z"/>
		<path class="st4" d="M74.7,57.4l0.8-0.1c0,0.3,0.2,0.6,0.4,0.7c0.2,0.2,0.5,0.2,0.8,0.2c0.4,0,0.6-0.1,0.8-0.2
			c0.2-0.1,0.3-0.3,0.3-0.5c0-0.2-0.1-0.3-0.2-0.4c-0.1-0.1-0.4-0.2-0.8-0.3c-0.6-0.1-1-0.3-1.2-0.4c-0.2-0.1-0.4-0.3-0.5-0.4
			c-0.1-0.2-0.2-0.4-0.2-0.6c0-0.2,0-0.4,0.1-0.6c0.1-0.2,0.2-0.3,0.4-0.4c0.1-0.1,0.3-0.2,0.5-0.2c0.2-0.1,0.4-0.1,0.7-0.1
			c0.4,0,0.7,0.1,1,0.2c0.3,0.1,0.5,0.2,0.6,0.4c0.1,0.2,0.2,0.4,0.3,0.7l-0.8,0.1c0-0.2-0.1-0.4-0.3-0.6c-0.2-0.1-0.4-0.2-0.7-0.2
			c-0.4,0-0.6,0.1-0.8,0.2c-0.2,0.1-0.2,0.3-0.2,0.4c0,0.1,0,0.2,0.1,0.3c0.1,0.1,0.2,0.2,0.3,0.2c0.1,0,0.3,0.1,0.7,0.2
			c0.6,0.1,0.9,0.3,1.2,0.4c0.2,0.1,0.4,0.2,0.5,0.4c0.1,0.2,0.2,0.4,0.2,0.7c0,0.3-0.1,0.5-0.2,0.7c-0.2,0.2-0.4,0.4-0.7,0.5
			c-0.3,0.1-0.6,0.2-1,0.2c-0.6,0-1.1-0.1-1.4-0.4C75,58.3,74.8,57.9,74.7,57.4z"/>
		<path class="st4" d="M81.9,58.8v-4.6h0.7v0.7c0.2-0.3,0.3-0.5,0.5-0.7c0.2-0.1,0.3-0.2,0.5-0.2c0.3,0,0.5,0.1,0.8,0.3l-0.3,0.7
			c-0.2-0.1-0.4-0.2-0.6-0.2c-0.2,0-0.3,0.1-0.5,0.2s-0.2,0.2-0.3,0.4c-0.1,0.3-0.1,0.6-0.1,0.9v2.4H81.9z"/>
		<path class="st4" d="M87.9,58.3c-0.3,0.2-0.6,0.4-0.8,0.5c-0.3,0.1-0.6,0.2-0.9,0.2c-0.5,0-0.9-0.1-1.2-0.4
			c-0.3-0.2-0.4-0.6-0.4-1c0-0.2,0.1-0.4,0.2-0.6c0.1-0.2,0.2-0.3,0.4-0.5c0.2-0.1,0.4-0.2,0.6-0.3c0.2,0,0.4-0.1,0.7-0.1
			c0.6-0.1,1.1-0.2,1.4-0.3c0-0.1,0-0.2,0-0.2c0-0.3-0.1-0.5-0.2-0.7c-0.2-0.2-0.5-0.3-0.9-0.3c-0.4,0-0.6,0.1-0.8,0.2
			c-0.2,0.1-0.3,0.4-0.4,0.7l-0.8-0.1c0.1-0.3,0.2-0.6,0.3-0.8c0.2-0.2,0.4-0.4,0.7-0.5c0.3-0.1,0.7-0.2,1.1-0.2c0.4,0,0.7,0,1,0.1
			c0.2,0.1,0.4,0.2,0.5,0.4c0.1,0.1,0.2,0.3,0.2,0.5c0,0.1,0,0.4,0,0.7v1c0,0.7,0,1.2,0.1,1.4s0.1,0.4,0.2,0.6h-0.8
			C88,58.7,88,58.5,87.9,58.3z M87.9,56.5c-0.3,0.1-0.7,0.2-1.3,0.3c-0.3,0-0.6,0.1-0.7,0.2c-0.1,0.1-0.2,0.1-0.3,0.3
			c-0.1,0.1-0.1,0.2-0.1,0.4c0,0.2,0.1,0.4,0.2,0.5c0.2,0.1,0.4,0.2,0.7,0.2c0.3,0,0.6-0.1,0.8-0.2c0.2-0.1,0.4-0.3,0.5-0.5
			c0.1-0.2,0.1-0.4,0.1-0.8V56.5z"/>
		<path class="st4" d="M91.6,58.1l0.1,0.7c-0.2,0-0.4,0.1-0.6,0.1c-0.3,0-0.5,0-0.7-0.1c-0.2-0.1-0.3-0.2-0.3-0.4
			c-0.1-0.1-0.1-0.5-0.1-0.9v-2.7h-0.6v-0.6H90V53l0.8-0.5v1.6h0.8v0.6h-0.8v2.7c0,0.2,0,0.4,0,0.4c0,0.1,0.1,0.1,0.1,0.2
			c0.1,0,0.2,0.1,0.3,0.1C91.4,58.2,91.5,58.1,91.6,58.1z"/>
		<path class="st4" d="M95.6,57.3l0.8,0.1c-0.1,0.5-0.4,0.8-0.7,1.1c-0.3,0.3-0.8,0.4-1.3,0.4c-0.7,0-1.2-0.2-1.6-0.6
			c-0.4-0.4-0.6-1-0.6-1.8c0-0.8,0.2-1.4,0.6-1.8c0.4-0.4,0.9-0.6,1.6-0.6c0.6,0,1.1,0.2,1.5,0.6c0.4,0.4,0.6,1,0.6,1.8
			c0,0,0,0.1,0,0.2h-3.5c0,0.5,0.2,0.9,0.4,1.2c0.3,0.3,0.6,0.4,1,0.4c0.3,0,0.5-0.1,0.7-0.2C95.3,57.9,95.4,57.7,95.6,57.3z
			 M93,56.1h2.6c0-0.4-0.1-0.7-0.3-0.9c-0.3-0.3-0.6-0.5-1-0.5c-0.4,0-0.7,0.1-0.9,0.4C93.1,55.3,93,55.7,93,56.1z"/>
		<path class="st4" d="M100.4,58.8v-0.6c-0.3,0.5-0.7,0.7-1.3,0.7c-0.4,0-0.7-0.1-1-0.3s-0.6-0.5-0.7-0.9c-0.2-0.4-0.3-0.8-0.3-1.3
			c0-0.5,0.1-0.9,0.2-1.3c0.2-0.4,0.4-0.7,0.7-0.9c0.3-0.2,0.7-0.3,1-0.3c0.3,0,0.5,0.1,0.7,0.2c0.2,0.1,0.4,0.3,0.5,0.5v-2.3h0.8
			v6.4H100.4z M97.9,56.5c0,0.6,0.1,1,0.4,1.3c0.3,0.3,0.5,0.4,0.9,0.4c0.3,0,0.6-0.1,0.9-0.4c0.2-0.3,0.4-0.7,0.4-1.3
			c0-0.6-0.1-1.1-0.4-1.4c-0.2-0.3-0.5-0.4-0.9-0.4c-0.3,0-0.6,0.1-0.9,0.4C98,55.5,97.9,55.9,97.9,56.5z"/>
		<path class="st4" d="M159.2,56.5c0-0.9,0.2-1.5,0.7-1.9c0.4-0.3,0.9-0.5,1.5-0.5c0.6,0,1.2,0.2,1.6,0.6c0.4,0.4,0.6,1,0.6,1.7
			c0,0.6-0.1,1.1-0.3,1.4c-0.2,0.3-0.4,0.6-0.8,0.8c-0.3,0.2-0.7,0.3-1.1,0.3c-0.6,0-1.2-0.2-1.6-0.6
			C159.4,57.9,159.2,57.3,159.2,56.5z M160,56.5c0,0.6,0.1,1,0.4,1.3c0.3,0.3,0.6,0.4,1,0.4c0.4,0,0.7-0.1,1-0.4
			c0.3-0.3,0.4-0.8,0.4-1.4c0-0.6-0.1-1-0.4-1.3c-0.3-0.3-0.6-0.4-1-0.4c-0.4,0-0.7,0.1-1,0.4C160.1,55.5,160,55.9,160,56.5z"/>
		<path class="st4" d="M164.5,58.8v-4.6h0.7v0.7c0.3-0.5,0.8-0.8,1.5-0.8c0.3,0,0.5,0,0.8,0.2c0.2,0.1,0.4,0.2,0.5,0.4
			c0.1,0.2,0.2,0.4,0.2,0.6c0,0.1,0,0.4,0,0.8v2.9h-0.8V56c0-0.3,0-0.6-0.1-0.7c-0.1-0.2-0.2-0.3-0.3-0.4c-0.2-0.1-0.3-0.1-0.5-0.1
			c-0.3,0-0.6,0.1-0.9,0.3c-0.2,0.2-0.4,0.6-0.4,1.2v2.5H164.5z"/>
		<path class="st4" d="M172,58.8v-6.4h2.4c0.5,0,0.9,0.1,1.2,0.2c0.3,0.1,0.5,0.3,0.7,0.6c0.2,0.3,0.3,0.6,0.3,0.8
			c0,0.3-0.1,0.5-0.2,0.8c-0.1,0.2-0.4,0.4-0.7,0.6c0.4,0.1,0.7,0.3,0.9,0.6c0.2,0.3,0.3,0.6,0.3,1c0,0.3-0.1,0.6-0.2,0.8
			c-0.1,0.3-0.3,0.5-0.5,0.6c-0.2,0.1-0.4,0.2-0.7,0.3c-0.3,0.1-0.6,0.1-1,0.1H172z M172.8,55.1h1.4c0.4,0,0.6,0,0.8-0.1
			c0.2-0.1,0.4-0.2,0.5-0.3c0.1-0.1,0.2-0.3,0.2-0.6c0-0.2-0.1-0.4-0.2-0.6c-0.1-0.2-0.2-0.3-0.4-0.3c-0.2-0.1-0.5-0.1-1-0.1h-1.3
			V55.1z M172.8,58.1h1.6c0.3,0,0.5,0,0.6,0c0.2,0,0.4-0.1,0.5-0.2c0.1-0.1,0.2-0.2,0.3-0.4c0.1-0.2,0.1-0.3,0.1-0.5
			c0-0.2-0.1-0.4-0.2-0.6c-0.1-0.2-0.3-0.3-0.5-0.4c-0.2-0.1-0.5-0.1-0.9-0.1h-1.5V58.1z"/>
		<path class="st4" d="M177.9,53.3v-0.9h0.8v0.9H177.9z M177.9,58.8v-4.6h0.8v4.6H177.9z"/>
		<path class="st4" d="M179.9,58.8v-4.6h0.7v0.7c0.3-0.5,0.8-0.8,1.5-0.8c0.3,0,0.5,0,0.8,0.2c0.2,0.1,0.4,0.2,0.5,0.4
			c0.1,0.2,0.2,0.4,0.2,0.6c0,0.1,0,0.4,0,0.8v2.9h-0.8V56c0-0.3,0-0.6-0.1-0.7c-0.1-0.2-0.2-0.3-0.3-0.4c-0.2-0.1-0.3-0.1-0.5-0.1
			c-0.3,0-0.6,0.1-0.9,0.3c-0.2,0.2-0.4,0.6-0.4,1.2v2.5H179.9z"/>
		<path class="st4" d="M184.7,59.2l0.8,0.1c0,0.2,0.1,0.4,0.3,0.5c0.2,0.1,0.5,0.2,0.8,0.2c0.4,0,0.6-0.1,0.8-0.2
			c0.2-0.1,0.3-0.3,0.4-0.6c0-0.2,0.1-0.5,0.1-1c-0.3,0.4-0.8,0.6-1.3,0.6c-0.6,0-1.1-0.2-1.5-0.7c-0.3-0.5-0.5-1-0.5-1.7
			c0-0.4,0.1-0.9,0.2-1.2c0.2-0.4,0.4-0.7,0.7-0.9c0.3-0.2,0.7-0.3,1.1-0.3c0.5,0,1,0.2,1.4,0.7v-0.6h0.7v4c0,0.7-0.1,1.2-0.2,1.5
			c-0.1,0.3-0.4,0.5-0.7,0.7c-0.3,0.2-0.7,0.3-1.2,0.3c-0.6,0-1-0.1-1.3-0.4C184.9,60.1,184.7,59.7,184.7,59.2z M185.4,56.4
			c0,0.6,0.1,1.1,0.4,1.3c0.2,0.3,0.5,0.4,0.9,0.4c0.4,0,0.7-0.1,0.9-0.4c0.2-0.3,0.4-0.7,0.4-1.3c0-0.6-0.1-1-0.4-1.3
			c-0.3-0.3-0.6-0.4-0.9-0.4c-0.3,0-0.6,0.1-0.9,0.4C185.5,55.4,185.4,55.9,185.4,56.4z"/>
		<path class="st4" d="M193.8,60.7c-0.4-0.5-0.8-1.2-1.1-1.9c-0.3-0.7-0.5-1.5-0.5-2.3c0-0.7,0.1-1.4,0.3-2c0.3-0.7,0.7-1.5,1.2-2.2
			h0.6c-0.4,0.6-0.6,1-0.7,1.3c-0.2,0.4-0.3,0.8-0.4,1.3c-0.1,0.5-0.2,1.1-0.2,1.6c0,1.4,0.4,2.8,1.3,4.2H193.8z"/>
		<path class="st5" d="M195.1,57.1l0.8-0.1c0.1,0.4,0.2,0.8,0.5,1c0.2,0.2,0.5,0.3,0.8,0.3c0.4,0,0.7-0.1,0.9-0.4s0.4-0.6,0.4-1
			c0-0.4-0.1-0.7-0.4-0.9c-0.2-0.2-0.5-0.4-0.9-0.4c-0.1,0-0.3,0-0.6,0.1l0.1-0.7c0.1,0,0.1,0,0.1,0c0.3,0,0.6-0.1,0.9-0.3
			c0.3-0.2,0.4-0.4,0.4-0.8c0-0.3-0.1-0.5-0.3-0.7c-0.2-0.2-0.4-0.3-0.8-0.3c-0.3,0-0.6,0.1-0.8,0.3c-0.2,0.2-0.3,0.5-0.4,0.9
			l-0.8-0.1c0.1-0.5,0.3-0.9,0.7-1.2c0.3-0.3,0.8-0.4,1.3-0.4c0.3,0,0.7,0.1,1,0.2c0.3,0.1,0.5,0.4,0.7,0.6c0.2,0.3,0.2,0.5,0.2,0.8
			c0,0.3-0.1,0.5-0.2,0.8c-0.1,0.2-0.4,0.4-0.7,0.5c0.4,0.1,0.7,0.3,0.9,0.5c0.2,0.3,0.3,0.6,0.3,1c0,0.6-0.2,1-0.6,1.4
			s-0.9,0.6-1.5,0.6c-0.6,0-1-0.2-1.4-0.5C195.4,58.1,195.1,57.7,195.1,57.1z"/>
		<path class="st5" d="M200.1,57.2l0.8-0.1c0.1,0.4,0.2,0.7,0.4,0.9c0.2,0.2,0.5,0.3,0.8,0.3c0.4,0,0.7-0.1,1-0.4
			c0.3-0.3,0.4-0.7,0.4-1.1c0-0.4-0.1-0.8-0.4-1.1c-0.3-0.3-0.6-0.4-1-0.4c-0.3,0-0.5,0.1-0.7,0.2c-0.2,0.1-0.4,0.3-0.5,0.4
			l-0.7-0.1l0.6-3.3h3.2v0.8h-2.6l-0.3,1.7c0.4-0.3,0.8-0.4,1.2-0.4c0.6,0,1,0.2,1.4,0.6c0.4,0.4,0.6,0.9,0.6,1.5
			c0,0.6-0.2,1.1-0.5,1.5c-0.4,0.5-1,0.8-1.7,0.8c-0.6,0-1.1-0.2-1.4-0.5C200.3,58.1,200.1,57.7,200.1,57.2z"/>
		<path class="st5" d="M207.7,58.8v-4.6h0.7v0.7c0.2-0.3,0.3-0.5,0.5-0.7c0.2-0.1,0.3-0.2,0.5-0.2c0.3,0,0.5,0.1,0.8,0.3l-0.3,0.7
			c-0.2-0.1-0.4-0.2-0.6-0.2c-0.2,0-0.3,0.1-0.5,0.2c-0.1,0.1-0.2,0.2-0.3,0.4c-0.1,0.3-0.1,0.6-0.1,0.9v2.4H207.7z"/>
		<path class="st5" d="M213.9,57.3l0.8,0.1c-0.1,0.5-0.4,0.8-0.7,1.1c-0.3,0.3-0.8,0.4-1.3,0.4c-0.7,0-1.2-0.2-1.6-0.6
			c-0.4-0.4-0.6-1-0.6-1.8c0-0.8,0.2-1.4,0.6-1.8c0.4-0.4,0.9-0.6,1.6-0.6c0.6,0,1.1,0.2,1.5,0.6c0.4,0.4,0.6,1,0.6,1.8
			c0,0,0,0.1,0,0.2h-3.5c0,0.5,0.2,0.9,0.4,1.2c0.3,0.3,0.6,0.4,1,0.4c0.3,0,0.5-0.1,0.7-0.2C213.6,57.9,213.8,57.7,213.9,57.3z
			 M211.3,56.1h2.6c0-0.4-0.1-0.7-0.3-0.9c-0.3-0.3-0.6-0.5-1-0.5c-0.4,0-0.7,0.1-0.9,0.4C211.5,55.3,211.3,55.7,211.3,56.1z"/>
		<path class="st5" d="M217,58.8l-1.8-4.6h0.8l1,2.8c0.1,0.3,0.2,0.6,0.3,0.9c0.1-0.2,0.2-0.5,0.3-0.9l1-2.8h0.8l-1.8,4.6H217z"/>
		<path class="st5" d="M220.2,53.3v-0.9h0.8v0.9H220.2z M220.2,58.8v-4.6h0.8v4.6H220.2z"/>
		<path class="st5" d="M225.3,57.3l0.8,0.1c-0.1,0.5-0.4,0.8-0.7,1.1c-0.3,0.3-0.8,0.4-1.3,0.4c-0.7,0-1.2-0.2-1.6-0.6
			c-0.4-0.4-0.6-1-0.6-1.8c0-0.8,0.2-1.4,0.6-1.8c0.4-0.4,0.9-0.6,1.6-0.6c0.6,0,1.1,0.2,1.5,0.6c0.4,0.4,0.6,1,0.6,1.8
			c0,0,0,0.1,0,0.2h-3.5c0,0.5,0.2,0.9,0.4,1.2c0.3,0.3,0.6,0.4,1,0.4c0.3,0,0.5-0.1,0.7-0.2C225.1,57.9,225.2,57.7,225.3,57.3z
			 M222.8,56.1h2.6c0-0.4-0.1-0.7-0.3-0.9c-0.3-0.3-0.6-0.5-1-0.5c-0.4,0-0.7,0.1-0.9,0.4C222.9,55.3,222.8,55.7,222.8,56.1z"/>
		<path class="st5" d="M228,58.8l-1.4-4.6h0.8l0.7,2.7l0.3,1c0,0,0.1-0.4,0.2-1l0.7-2.7h0.8l0.7,2.7l0.2,0.9l0.3-0.9l0.8-2.7h0.8
			l-1.5,4.6h-0.8l-0.7-2.8l-0.2-0.8l-0.9,3.6H228z"/>
		<path class="st5" d="M233.3,57.4l0.8-0.1c0,0.3,0.2,0.6,0.4,0.7c0.2,0.2,0.5,0.2,0.8,0.2c0.4,0,0.6-0.1,0.8-0.2
			c0.2-0.1,0.3-0.3,0.3-0.5c0-0.2-0.1-0.3-0.2-0.4c-0.1-0.1-0.4-0.2-0.8-0.3c-0.6-0.1-1-0.3-1.2-0.4c-0.2-0.1-0.4-0.3-0.5-0.4
			c-0.1-0.2-0.2-0.4-0.2-0.6c0-0.2,0-0.4,0.1-0.6c0.1-0.2,0.2-0.3,0.4-0.4c0.1-0.1,0.3-0.2,0.5-0.2c0.2-0.1,0.4-0.1,0.7-0.1
			c0.4,0,0.7,0.1,1,0.2c0.3,0.1,0.5,0.2,0.6,0.4c0.1,0.2,0.2,0.4,0.3,0.7l-0.8,0.1c0-0.2-0.1-0.4-0.3-0.6c-0.2-0.1-0.4-0.2-0.7-0.2
			c-0.4,0-0.6,0.1-0.8,0.2c-0.2,0.1-0.2,0.3-0.2,0.4c0,0.1,0,0.2,0.1,0.3c0.1,0.1,0.2,0.2,0.3,0.2c0.1,0,0.3,0.1,0.7,0.2
			c0.6,0.1,0.9,0.3,1.2,0.4c0.2,0.1,0.4,0.2,0.5,0.4c0.1,0.2,0.2,0.4,0.2,0.7c0,0.3-0.1,0.5-0.2,0.7c-0.2,0.2-0.4,0.4-0.7,0.5
			c-0.3,0.1-0.6,0.2-1,0.2c-0.6,0-1.1-0.1-1.4-0.4C233.6,58.3,233.4,57.9,233.3,57.4z"/>
		<path class="st4" d="M238.6,60.7H238c0.9-1.4,1.3-2.8,1.3-4.2c0-0.5-0.1-1.1-0.2-1.6c-0.1-0.4-0.2-0.9-0.4-1.3
			c-0.1-0.3-0.3-0.7-0.7-1.3h0.6c0.5,0.7,1,1.5,1.2,2.2c0.2,0.6,0.3,1.3,0.3,2c0,0.8-0.2,1.5-0.5,2.3
			C239.4,59.5,239,60.2,238.6,60.7z"/>
	</g>
	<g>
		<polygon class="st6" points="112.3,52.8 113.3,55.4 116.1,55.6 113.9,57.3 114.6,60.1 112.3,58.5 109.9,60.1 110.6,57.3 
			108.5,55.6 111.3,55.4 		"/>
		<polygon class="st6" points="121.4,52.8 122.4,55.4 125.2,55.6 123,57.3 123.7,60.1 121.4,58.5 119,60.1 119.7,57.3 117.6,55.6 
			120.3,55.4 		"/>
		<polygon class="st6" points="130.7,52.8 131.7,55.4 134.5,55.6 132.4,57.3 133.1,60.1 130.7,58.5 128.4,60.1 129.1,57.3 
			126.9,55.6 129.7,55.4 		"/>
		<polygon class="st6" points="139.7,52.8 140.7,55.4 143.5,55.6 141.3,57.3 142,60.1 139.7,58.5 137.3,60.1 138,57.3 135.9,55.6 
			138.7,55.4 		"/>
		<polygon class="st7" points="148.6,52.8 149.6,55.4 152.4,55.6 150.2,57.3 151,60.1 148.6,58.5 146.3,60.1 147,57.3 144.8,55.6 
			147.6,55.4 		"/>
	</g>
	<rect x="1.8" y="49.1" class="st1" width="254.2" height="13.6"/>
	<rect x="255" y="49.1" class="st2" width="89.1" height="13.6"/>
	<g>
		<path class="st3" d="M270.6,59.3h-1.5v-4c0-0.4,0-0.9,0.1-1.4h0c-0.1,0.4-0.1,0.7-0.2,0.9l-1.5,4.5h-1.2l-1.6-4.5
			c0-0.1-0.1-0.4-0.2-0.9h0c0,0.6,0.1,1.1,0.1,1.7v3.7H263v-6.6h2.2l1.4,3.9c0.1,0.3,0.2,0.6,0.2,0.9h0c0.1-0.4,0.2-0.7,0.3-1
			l1.4-3.9h2.1V59.3z"/>
		<path class="st3" d="M276.2,57.4h-3.1c0,0.7,0.5,1,1.3,1c0.5,0,1-0.1,1.4-0.4v1.1c-0.4,0.2-1,0.4-1.7,0.4c-0.8,0-1.4-0.2-1.8-0.6
			c-0.4-0.4-0.6-1-0.6-1.8c0-0.5,0.1-0.9,0.3-1.3c0.2-0.4,0.5-0.7,0.8-0.9c0.4-0.2,0.8-0.3,1.2-0.3c0.7,0,1.2,0.2,1.6,0.6
			c0.4,0.4,0.6,1,0.6,1.7V57.4z M274.8,56.5c0-0.7-0.3-1-0.8-1c-0.2,0-0.4,0.1-0.6,0.3c-0.2,0.2-0.3,0.4-0.3,0.7H274.8z"/>
		<path class="st3" d="M280.1,55.9c-0.2-0.1-0.4-0.1-0.6-0.1c-0.3,0-0.6,0.1-0.7,0.3s-0.3,0.5-0.3,1v2.3H277v-4.7h1.5v0.9h0
			c0.2-0.6,0.6-1,1.2-1c0.2,0,0.3,0,0.4,0.1V55.9z"/>
		<path class="st3" d="M284.4,59.2c-0.3,0.2-0.8,0.3-1.4,0.3c-0.5,0-0.9-0.1-1.3-0.3c-0.4-0.2-0.7-0.5-0.9-0.8
			c-0.2-0.4-0.3-0.8-0.3-1.2c0-0.8,0.2-1.4,0.7-1.9c0.5-0.5,1.1-0.7,1.9-0.7c0.6,0,1,0.1,1.2,0.2v1.2c-0.3-0.2-0.6-0.3-1-0.3
			c-0.4,0-0.8,0.1-1,0.4c-0.2,0.3-0.4,0.6-0.4,1s0.1,0.7,0.4,1c0.2,0.2,0.6,0.4,1,0.4c0.4,0,0.7-0.1,1.1-0.3V59.2z"/>
		<path class="st3" d="M289.8,59.3h-1.5v-2.7c0-0.7-0.3-1-0.8-1c-0.3,0-0.5,0.1-0.6,0.3c-0.2,0.2-0.2,0.4-0.2,0.7v2.7h-1.5v-7h1.5v3
			h0c0.4-0.5,0.8-0.8,1.5-0.8c1.1,0,1.6,0.6,1.6,1.9V59.3z"/>
		<path class="st3" d="M294.9,59.3h-1.4v-0.7h0c-0.3,0.5-0.8,0.8-1.4,0.8c-0.5,0-0.8-0.1-1.1-0.4c-0.3-0.3-0.4-0.6-0.4-1
			c0-0.9,0.5-1.4,1.6-1.6l1.3-0.2c0-0.5-0.3-0.8-0.8-0.8c-0.6,0-1.1,0.2-1.6,0.5v-1.1c0.2-0.1,0.5-0.2,0.8-0.3
			c0.4-0.1,0.7-0.1,1-0.1c1.3,0,2,0.7,2,2V59.3z M293.6,57.1l-0.9,0.1c-0.5,0.1-0.7,0.3-0.7,0.6c0,0.2,0.1,0.3,0.2,0.4
			c0.1,0.1,0.3,0.2,0.5,0.2c0.3,0,0.5-0.1,0.7-0.3c0.2-0.2,0.3-0.4,0.3-0.7V57.1z"/>
		<path class="st3" d="M300.6,59.3h-1.5v-2.6c0-0.7-0.3-1.1-0.8-1.1c-0.2,0-0.5,0.1-0.6,0.3c-0.2,0.2-0.2,0.4-0.2,0.7v2.7h-1.5v-4.7
			h1.5v0.7h0c0.3-0.6,0.9-0.9,1.5-0.9c1,0,1.6,0.6,1.6,1.9V59.3z"/>
		<path class="st3" d="M304.6,59.3c-0.2,0.1-0.5,0.2-1,0.2c-1,0-1.5-0.5-1.5-1.6v-2.2h-0.8v-1.1h0.8v-1l1.5-0.4v1.4h1.1v1.1h-1.1
			v1.9c0,0.5,0.2,0.7,0.6,0.7c0.2,0,0.3,0,0.5-0.1V59.3z"/>
		<path class="st3" d="M312.9,59.3h-1.7l-0.7-1.7c-0.2-0.6-0.5-0.8-0.9-0.8h-0.3v2.5h-1.5v-6.6h2.4c1.6,0,2.4,0.6,2.4,1.8
			c0,0.5-0.1,0.8-0.4,1.2c-0.3,0.3-0.6,0.5-1.1,0.7v0c0.4,0.1,0.7,0.5,0.9,1L312.9,59.3z M311,54.7c0-0.6-0.3-0.9-1-0.9h-0.7v1.8
			h0.6c0.3,0,0.6-0.1,0.8-0.3C310.9,55.2,311,55,311,54.7z"/>
		<path class="st3" d="M317.6,59.3h-1.4v-0.7h0c-0.3,0.5-0.8,0.8-1.4,0.8c-0.5,0-0.8-0.1-1.1-0.4c-0.3-0.3-0.4-0.6-0.4-1
			c0-0.9,0.5-1.4,1.6-1.6l1.3-0.2c0-0.5-0.3-0.8-0.8-0.8c-0.6,0-1.1,0.2-1.6,0.5v-1.1c0.2-0.1,0.5-0.2,0.8-0.3
			c0.4-0.1,0.7-0.1,1-0.1c1.3,0,2,0.7,2,2V59.3z M316.2,57.1l-0.9,0.1c-0.5,0.1-0.7,0.3-0.7,0.6c0,0.2,0.1,0.3,0.2,0.4
			c0.1,0.1,0.3,0.2,0.5,0.2c0.3,0,0.5-0.1,0.7-0.3c0.2-0.2,0.3-0.4,0.3-0.7V57.1z"/>
		<path class="st3" d="M321.6,59.3c-0.2,0.1-0.5,0.2-1,0.2c-1,0-1.5-0.5-1.5-1.6v-2.2h-0.8v-1.1h0.8v-1l1.5-0.4v1.4h1.1v1.1h-1.1
			v1.9c0,0.5,0.2,0.7,0.6,0.7c0.2,0,0.3,0,0.5-0.1V59.3z"/>
		<path class="st3" d="M324,53.1c0,0.2-0.1,0.4-0.2,0.5c-0.2,0.1-0.4,0.2-0.6,0.2c-0.2,0-0.5-0.1-0.6-0.2c-0.2-0.1-0.2-0.3-0.2-0.5
			c0-0.2,0.1-0.4,0.2-0.5c0.2-0.1,0.4-0.2,0.6-0.2c0.2,0,0.4,0.1,0.6,0.2C323.9,52.7,324,52.9,324,53.1z M323.9,59.3h-1.5v-4.7h1.5
			V59.3z"/>
		<path class="st3" d="M329.7,59.3h-1.5v-2.6c0-0.7-0.3-1.1-0.8-1.1c-0.2,0-0.5,0.1-0.6,0.3c-0.2,0.2-0.2,0.4-0.2,0.7v2.7h-1.5v-4.7
			h1.5v0.7h0c0.3-0.6,0.9-0.9,1.5-0.9c1,0,1.6,0.6,1.6,1.9V59.3z"/>
		<path class="st3" d="M335.5,58.8c0,0.9-0.3,1.6-0.8,2c-0.5,0.5-1.2,0.7-2.2,0.7c-0.6,0-1.1-0.1-1.5-0.3V60c0.5,0.3,1,0.4,1.5,0.4
			c0.5,0,0.9-0.1,1.1-0.4c0.3-0.3,0.4-0.6,0.4-1.1v-0.4h0c-0.3,0.5-0.8,0.8-1.5,0.8c-0.6,0-1.1-0.2-1.4-0.6c-0.4-0.4-0.5-1-0.5-1.7
			c0-0.8,0.2-1.4,0.6-1.9c0.4-0.5,0.9-0.7,1.6-0.7c0.6,0,1,0.2,1.3,0.7h0v-0.5h1.5V58.8z M334,57.1v-0.4c0-0.3-0.1-0.6-0.3-0.8
			c-0.2-0.2-0.4-0.3-0.7-0.3c-0.3,0-0.6,0.1-0.8,0.4c-0.2,0.3-0.3,0.6-0.3,1.1c0,0.4,0.1,0.7,0.3,0.9c0.2,0.2,0.4,0.3,0.7,0.3
			c0.3,0,0.5-0.1,0.7-0.3C333.9,57.7,334,57.4,334,57.1z"/>
	</g>
</g>
<g>
	<g>
		<path class="st8" d="M10.4,33.6l0.8,0.2c-0.2,0.7-0.5,1.2-1,1.6c-0.5,0.4-1,0.5-1.7,0.5c-0.7,0-1.3-0.1-1.7-0.4
			c-0.4-0.3-0.8-0.7-1-1.2c-0.2-0.5-0.3-1.1-0.3-1.7c0-0.7,0.1-1.2,0.4-1.7c0.3-0.5,0.6-0.9,1.1-1.1c0.5-0.3,1-0.4,1.6-0.4
			c0.6,0,1.2,0.2,1.6,0.5c0.4,0.3,0.7,0.8,0.9,1.4l-0.8,0.2c-0.1-0.5-0.4-0.8-0.6-1C9.4,30.1,9.1,30,8.6,30c-0.5,0-0.9,0.1-1.2,0.4
			c-0.3,0.2-0.6,0.6-0.7,1c-0.1,0.4-0.2,0.8-0.2,1.2c0,0.5,0.1,1,0.2,1.4c0.2,0.4,0.4,0.7,0.7,0.9c0.3,0.2,0.7,0.3,1.1,0.3
			c0.5,0,0.9-0.1,1.2-0.4C10.1,34.5,10.3,34.1,10.4,33.6z"/>
		<path class="st8" d="M11.9,33.5c0-0.9,0.2-1.5,0.7-1.9c0.4-0.3,0.9-0.5,1.5-0.5c0.6,0,1.2,0.2,1.6,0.6c0.4,0.4,0.6,1,0.6,1.7
			c0,0.6-0.1,1.1-0.3,1.4c-0.2,0.3-0.4,0.6-0.8,0.8c-0.3,0.2-0.7,0.3-1.1,0.3c-0.6,0-1.2-0.2-1.6-0.6C12.1,34.9,11.9,34.3,11.9,33.5
			z M12.8,33.5c0,0.6,0.1,1,0.4,1.3c0.3,0.3,0.6,0.4,1,0.4c0.4,0,0.7-0.1,1-0.4c0.3-0.3,0.4-0.8,0.4-1.4c0-0.6-0.1-1-0.4-1.3
			c-0.3-0.3-0.6-0.4-1-0.4c-0.4,0-0.7,0.1-1,0.4C12.9,32.5,12.8,32.9,12.8,33.5z"/>
		<path class="st8" d="M17.2,35.8v-6.4H18v2.3c0.4-0.4,0.8-0.6,1.4-0.6c0.3,0,0.6,0.1,0.9,0.2c0.3,0.1,0.4,0.3,0.5,0.6
			c0.1,0.2,0.2,0.6,0.2,1v2.9h-0.8v-2.9c0-0.4-0.1-0.7-0.3-0.9c-0.2-0.2-0.4-0.3-0.7-0.3c-0.2,0-0.5,0.1-0.7,0.2
			c-0.2,0.1-0.4,0.3-0.4,0.5C18,32.6,18,32.9,18,33.3v2.5H17.2z"/>
		<path class="st8" d="M21.9,33.5c0-0.9,0.2-1.5,0.7-1.9c0.4-0.3,0.9-0.5,1.5-0.5c0.6,0,1.2,0.2,1.6,0.6c0.4,0.4,0.6,1,0.6,1.7
			c0,0.6-0.1,1.1-0.3,1.4c-0.2,0.3-0.4,0.6-0.8,0.8c-0.3,0.2-0.7,0.3-1.1,0.3c-0.6,0-1.2-0.2-1.6-0.6C22.1,34.9,21.9,34.3,21.9,33.5
			z M22.7,33.5c0,0.6,0.1,1,0.4,1.3c0.3,0.3,0.6,0.4,1,0.4c0.4,0,0.7-0.1,1-0.4c0.3-0.3,0.4-0.8,0.4-1.4c0-0.6-0.1-1-0.4-1.3
			c-0.3-0.3-0.6-0.4-1-0.4c-0.4,0-0.7,0.1-1,0.4C22.8,32.5,22.7,32.9,22.7,33.5z"/>
		<path class="st8" d="M30.9,35.8l-1.7-6.4H30l1,4.2c0.1,0.4,0.2,0.9,0.3,1.3c0.2-0.7,0.3-1.1,0.3-1.2l1.2-4.3h1l0.9,3.2
			c0.2,0.8,0.4,1.6,0.5,2.3c0.1-0.4,0.2-0.9,0.3-1.4l1-4.1h0.9l-1.8,6.4h-0.8l-1.3-4.9c-0.1-0.4-0.2-0.7-0.2-0.8
			c-0.1,0.3-0.1,0.5-0.2,0.8l-1.4,4.9H30.9z"/>
		<path class="st8" d="M38.1,30.3v-0.9h0.8v0.9H38.1z M38.1,35.8v-4.6h0.8v4.6H38.1z"/>
		<path class="st8" d="M40.1,35.8v-4.6h0.7v0.7c0.3-0.5,0.8-0.8,1.5-0.8c0.3,0,0.5,0,0.8,0.2c0.2,0.1,0.4,0.2,0.5,0.4
			c0.1,0.2,0.2,0.4,0.2,0.6c0,0.1,0,0.4,0,0.8v2.9h-0.8V33c0-0.3,0-0.6-0.1-0.7c-0.1-0.2-0.2-0.3-0.3-0.4c-0.2-0.1-0.3-0.1-0.5-0.1
			c-0.3,0-0.6,0.1-0.9,0.3c-0.2,0.2-0.4,0.6-0.4,1.2v2.5H40.1z"/>
		<path class="st8" d="M48.2,34.3l0.8,0.1c-0.1,0.5-0.4,0.8-0.7,1.1c-0.3,0.3-0.8,0.4-1.3,0.4c-0.7,0-1.2-0.2-1.6-0.6
			c-0.4-0.4-0.6-1-0.6-1.8c0-0.8,0.2-1.4,0.6-1.8c0.4-0.4,0.9-0.6,1.6-0.6c0.6,0,1.1,0.2,1.5,0.6c0.4,0.4,0.6,1,0.6,1.8
			c0,0,0,0.1,0,0.2h-3.5c0,0.5,0.2,0.9,0.4,1.2c0.3,0.3,0.6,0.4,1,0.4c0.3,0,0.5-0.1,0.7-0.2C47.9,34.9,48.1,34.7,48.2,34.3z
			 M45.6,33.1h2.6c0-0.4-0.1-0.7-0.3-0.9c-0.3-0.3-0.6-0.5-1-0.5c-0.4,0-0.7,0.1-0.9,0.4C45.8,32.3,45.7,32.7,45.6,33.1z"/>
		<path class="st8" d="M50,35.8v-4.6h0.7v0.7c0.2-0.3,0.3-0.5,0.5-0.7c0.2-0.1,0.3-0.2,0.5-0.2c0.3,0,0.5,0.1,0.8,0.3l-0.3,0.7
			c-0.2-0.1-0.4-0.2-0.6-0.2c-0.2,0-0.3,0.1-0.5,0.2c-0.1,0.1-0.2,0.2-0.3,0.4c-0.1,0.3-0.1,0.6-0.1,0.9v2.4H50z"/>
		<path class="st8" d="M53,37.6l-0.1-0.7c0.2,0,0.3,0.1,0.4,0.1c0.2,0,0.3,0,0.4-0.1c0.1-0.1,0.2-0.1,0.3-0.2c0-0.1,0.1-0.3,0.2-0.6
			c0,0,0-0.1,0.1-0.2l-1.8-4.6h0.8l1,2.7c0.1,0.3,0.2,0.7,0.3,1.1c0.1-0.4,0.2-0.7,0.3-1.1l1-2.7h0.8L55,35.9
			c-0.2,0.5-0.3,0.9-0.4,1.1c-0.1,0.3-0.3,0.4-0.5,0.6c-0.2,0.1-0.4,0.2-0.6,0.2C53.3,37.7,53.2,37.7,53,37.6z"/>
		<path class="st8" d="M59.7,33.9v-0.8h2.4v0.8H59.7z"/>
		<path class="st8" d="M68.5,34.1l0.8,0.1c-0.1,0.5-0.3,1-0.6,1.3c-0.3,0.3-0.8,0.5-1.3,0.5c-0.6,0-1.1-0.2-1.5-0.6
			c-0.4-0.4-0.6-1-0.6-1.8c0-0.5,0.1-0.9,0.2-1.3s0.4-0.7,0.8-0.8c0.3-0.2,0.7-0.3,1.1-0.3c0.5,0,0.9,0.1,1.2,0.4s0.5,0.6,0.6,1.1
			l-0.8,0.1c-0.1-0.3-0.2-0.5-0.4-0.7c-0.2-0.2-0.4-0.2-0.7-0.2c-0.4,0-0.7,0.1-1,0.4c-0.2,0.3-0.4,0.7-0.4,1.3
			c0,0.6,0.1,1.1,0.4,1.4c0.2,0.3,0.5,0.4,0.9,0.4c0.3,0,0.6-0.1,0.8-0.3C68.3,34.8,68.4,34.5,68.5,34.1z"/>
		<path class="st8" d="M69.6,33.5c0-0.9,0.2-1.5,0.7-1.9c0.4-0.3,0.9-0.5,1.5-0.5c0.6,0,1.2,0.2,1.6,0.6c0.4,0.4,0.6,1,0.6,1.7
			c0,0.6-0.1,1.1-0.3,1.4c-0.2,0.3-0.4,0.6-0.8,0.8c-0.3,0.2-0.7,0.3-1.1,0.3c-0.6,0-1.2-0.2-1.6-0.6C69.8,34.9,69.6,34.3,69.6,33.5
			z M70.4,33.5c0,0.6,0.1,1,0.4,1.3c0.3,0.3,0.6,0.4,1,0.4c0.4,0,0.7-0.1,1-0.4c0.3-0.3,0.4-0.8,0.4-1.4c0-0.6-0.1-1-0.4-1.3
			c-0.3-0.3-0.6-0.4-1-0.4c-0.4,0-0.7,0.1-1,0.4C70.5,32.5,70.4,32.9,70.4,33.5z"/>
		<path class="st8" d="M74.9,35.8v-6.4h0.8v2.3c0.4-0.4,0.8-0.6,1.4-0.6c0.3,0,0.6,0.1,0.9,0.2c0.3,0.1,0.4,0.3,0.5,0.6
			c0.1,0.2,0.2,0.6,0.2,1v2.9h-0.8v-2.9c0-0.4-0.1-0.7-0.3-0.9c-0.2-0.2-0.4-0.3-0.7-0.3c-0.2,0-0.5,0.1-0.7,0.2
			c-0.2,0.1-0.4,0.3-0.4,0.5c-0.1,0.2-0.1,0.5-0.1,0.9v2.5H74.9z"/>
		<path class="st8" d="M79.6,33.5c0-0.9,0.2-1.5,0.7-1.9c0.4-0.3,0.9-0.5,1.5-0.5c0.6,0,1.2,0.2,1.6,0.6c0.4,0.4,0.6,1,0.6,1.7
			c0,0.6-0.1,1.1-0.3,1.4c-0.2,0.3-0.4,0.6-0.8,0.8c-0.3,0.2-0.7,0.3-1.1,0.3c-0.6,0-1.2-0.2-1.6-0.6C79.8,34.9,79.6,34.3,79.6,33.5
			z M80.4,33.5c0,0.6,0.1,1,0.4,1.3c0.3,0.3,0.6,0.4,1,0.4c0.4,0,0.7-0.1,1-0.4c0.3-0.3,0.4-0.8,0.4-1.4c0-0.6-0.1-1-0.4-1.3
			c-0.3-0.3-0.6-0.4-1-0.4c-0.4,0-0.7,0.1-1,0.4C80.5,32.5,80.4,32.9,80.4,33.5z"/>
		<path class="st8" d="M85.7,35.8l-1.4-4.6h0.8l0.7,2.7l0.3,1c0,0,0.1-0.4,0.2-1l0.7-2.7h0.8l0.7,2.7l0.2,0.9l0.3-0.9l0.8-2.7h0.8
			l-1.5,4.6h-0.8L87.6,33l-0.2-0.8l-0.9,3.6H85.7z"/>
		<path class="st8" d="M91.3,30.3v-0.9h0.8v0.9H91.3z M91.3,35.8v-4.6h0.8v4.6H91.3z"/>
		<path class="st8" d="M93.3,35.8v-4.6H94v0.7c0.3-0.5,0.8-0.8,1.5-0.8c0.3,0,0.5,0,0.8,0.2c0.2,0.1,0.4,0.2,0.5,0.4
			c0.1,0.2,0.2,0.4,0.2,0.6c0,0.1,0,0.4,0,0.8v2.9h-0.8V33c0-0.3,0-0.6-0.1-0.7c-0.1-0.2-0.2-0.3-0.3-0.4c-0.2-0.1-0.3-0.1-0.5-0.1
			c-0.3,0-0.6,0.1-0.9,0.3c-0.2,0.2-0.4,0.6-0.4,1.2v2.5H93.3z"/>
		<path class="st8" d="M101.4,34.3l0.8,0.1c-0.1,0.5-0.4,0.8-0.7,1.1c-0.3,0.3-0.8,0.4-1.3,0.4c-0.7,0-1.2-0.2-1.6-0.6
			c-0.4-0.4-0.6-1-0.6-1.8c0-0.8,0.2-1.4,0.6-1.8c0.4-0.4,0.9-0.6,1.6-0.6c0.6,0,1.1,0.2,1.5,0.6c0.4,0.4,0.6,1,0.6,1.8
			c0,0,0,0.1,0,0.2h-3.5c0,0.5,0.2,0.9,0.4,1.2c0.3,0.3,0.6,0.4,1,0.4c0.3,0,0.5-0.1,0.7-0.2C101.1,34.9,101.3,34.7,101.4,34.3z
			 M98.8,33.1h2.6c0-0.4-0.1-0.7-0.3-0.9c-0.3-0.3-0.6-0.5-1-0.5c-0.4,0-0.7,0.1-0.9,0.4C99,32.3,98.9,32.7,98.8,33.1z"/>
		<path class="st8" d="M103.2,35.8v-4.6h0.7v0.7c0.2-0.3,0.3-0.5,0.5-0.7c0.2-0.1,0.3-0.2,0.5-0.2c0.3,0,0.5,0.1,0.8,0.3l-0.3,0.7
			c-0.2-0.1-0.4-0.2-0.6-0.2c-0.2,0-0.3,0.1-0.5,0.2c-0.1,0.1-0.2,0.2-0.3,0.4c-0.1,0.3-0.1,0.6-0.1,0.9v2.4H103.2z"/>
		<path class="st8" d="M106.2,37.6l-0.1-0.7c0.2,0,0.3,0.1,0.4,0.1c0.2,0,0.3,0,0.4-0.1c0.1-0.1,0.2-0.1,0.3-0.2
			c0-0.1,0.1-0.3,0.2-0.6c0,0,0-0.1,0.1-0.2l-1.8-4.6h0.8l1,2.7c0.1,0.3,0.2,0.7,0.3,1.1c0.1-0.4,0.2-0.7,0.3-1.1l1-2.7h0.8
			l-1.8,4.7c-0.2,0.5-0.3,0.9-0.4,1.1c-0.1,0.3-0.3,0.4-0.5,0.6c-0.2,0.1-0.4,0.2-0.6,0.2C106.5,37.7,106.4,37.7,106.2,37.6z"/>
		<path class="st8" d="M110.2,35.8v-0.9h0.9v0.9H110.2z"/>
		<path class="st8" d="M115.5,34.1l0.8,0.1c-0.1,0.5-0.3,1-0.6,1.3c-0.3,0.3-0.8,0.5-1.3,0.5c-0.6,0-1.1-0.2-1.5-0.6
			c-0.4-0.4-0.6-1-0.6-1.8c0-0.5,0.1-0.9,0.2-1.3s0.4-0.7,0.8-0.8c0.3-0.2,0.7-0.3,1.1-0.3c0.5,0,0.9,0.1,1.2,0.4
			c0.3,0.3,0.5,0.6,0.6,1.1l-0.8,0.1c-0.1-0.3-0.2-0.5-0.4-0.7c-0.2-0.2-0.4-0.2-0.7-0.2c-0.4,0-0.7,0.1-1,0.4
			c-0.2,0.3-0.4,0.7-0.4,1.3c0,0.6,0.1,1.1,0.4,1.4c0.2,0.3,0.5,0.4,0.9,0.4c0.3,0,0.6-0.1,0.8-0.3
			C115.3,34.8,115.5,34.5,115.5,34.1z"/>
		<path class="st8" d="M116.7,33.5c0-0.9,0.2-1.5,0.7-1.9c0.4-0.3,0.9-0.5,1.5-0.5c0.6,0,1.2,0.2,1.6,0.6c0.4,0.4,0.6,1,0.6,1.7
			c0,0.6-0.1,1.1-0.3,1.4c-0.2,0.3-0.4,0.6-0.8,0.8c-0.3,0.2-0.7,0.3-1.1,0.3c-0.6,0-1.2-0.2-1.6-0.6
			C116.9,34.9,116.7,34.3,116.7,33.5z M117.5,33.5c0,0.6,0.1,1,0.4,1.3c0.3,0.3,0.6,0.4,1,0.4c0.4,0,0.7-0.1,1-0.4
			c0.3-0.3,0.4-0.8,0.4-1.4c0-0.6-0.1-1-0.4-1.3c-0.3-0.3-0.6-0.4-1-0.4c-0.4,0-0.7,0.1-1,0.4C117.6,32.5,117.5,32.9,117.5,33.5z"/>
		<path class="st8" d="M122,35.8v-4.6h0.7v0.7c0.1-0.2,0.3-0.4,0.6-0.5c0.2-0.1,0.5-0.2,0.8-0.2c0.3,0,0.6,0.1,0.8,0.2
			c0.2,0.1,0.4,0.3,0.5,0.6c0.4-0.5,0.8-0.8,1.4-0.8c0.5,0,0.8,0.1,1.1,0.4c0.2,0.3,0.4,0.6,0.4,1.2v3.2h-0.8v-2.9
			c0-0.3,0-0.5-0.1-0.7s-0.1-0.2-0.3-0.3s-0.3-0.1-0.5-0.1c-0.3,0-0.6,0.1-0.8,0.3c-0.2,0.2-0.3,0.6-0.3,1v2.7h-0.8v-3
			c0-0.3-0.1-0.6-0.2-0.8c-0.1-0.2-0.3-0.3-0.6-0.3c-0.2,0-0.4,0.1-0.6,0.2c-0.2,0.1-0.3,0.3-0.4,0.5c-0.1,0.2-0.1,0.5-0.1,1v2.4
			H122z"/>
	</g>
	<rect x="1.8" y="26" class="st1" width="131.1" height="13.1"/>
	<rect x="135.7" y="26" class="st9" width="171.4" height="13.1"/>
	<g>
		<path class="st3" d="M146.8,32.7c0,0.7-0.1,1.3-0.4,1.8s-0.7,0.9-1.2,1.2c-0.5,0.3-1.2,0.4-1.8,0.4H141v-6.6h2.3
			C145.7,29.4,146.8,30.5,146.8,32.7z M145.3,32.7c0-0.6-0.2-1.1-0.6-1.5c-0.4-0.4-0.9-0.5-1.5-0.5h-0.7v4.2h0.7
			c0.6,0,1.1-0.2,1.5-0.6C145.1,33.9,145.3,33.4,145.3,32.7z"/>
		<path class="st3" d="M149.4,29.8c0,0.2-0.1,0.4-0.2,0.5c-0.2,0.1-0.4,0.2-0.6,0.2c-0.2,0-0.5-0.1-0.6-0.2
			c-0.2-0.1-0.2-0.3-0.2-0.5c0-0.2,0.1-0.4,0.2-0.5c0.2-0.1,0.4-0.2,0.6-0.2c0.2,0,0.4,0.1,0.6,0.2S149.4,29.6,149.4,29.8z
			 M149.2,36h-1.5v-4.7h1.5V36z"/>
		<path class="st3" d="M153.7,34.6c0,0.5-0.2,0.9-0.6,1.1c-0.4,0.3-0.9,0.4-1.5,0.4c-0.5,0-1-0.1-1.4-0.2v-1.2
			c0.5,0.3,0.9,0.4,1.4,0.4c0.5,0,0.7-0.1,0.7-0.4c0-0.1,0-0.2-0.1-0.2c0-0.1-0.1-0.1-0.2-0.2c-0.1-0.1-0.3-0.1-0.6-0.2
			c-0.4-0.1-0.7-0.3-0.9-0.5c-0.2-0.2-0.3-0.5-0.3-0.8c0-0.5,0.2-0.8,0.5-1.1c0.4-0.3,0.8-0.4,1.4-0.4c0.4,0,0.8,0.1,1.2,0.2v1.1
			c-0.4-0.2-0.7-0.3-1.2-0.3c-0.4,0-0.6,0.1-0.6,0.4c0,0.1,0,0.2,0.1,0.2c0,0.1,0.1,0.1,0.2,0.2c0.1,0.1,0.3,0.1,0.5,0.2
			c0.5,0.2,0.8,0.4,1,0.6C153.6,34,153.7,34.3,153.7,34.6z"/>
		<path class="st3" d="M159.5,33.6c0,0.8-0.2,1.4-0.6,1.9c-0.4,0.5-0.9,0.7-1.5,0.7c-0.6,0-1-0.2-1.3-0.7h0v2.7h-1.5v-6.9h1.5V32h0
			c0.4-0.6,0.9-0.8,1.5-0.8c0.6,0,1.1,0.2,1.4,0.6C159.4,32.3,159.5,32.8,159.5,33.6z M158,33.6c0-0.8-0.3-1.2-1-1.2
			c-0.3,0-0.6,0.1-0.7,0.4c-0.2,0.2-0.3,0.5-0.3,0.9v0.4c0,0.3,0.1,0.6,0.3,0.8c0.2,0.2,0.4,0.3,0.7,0.3c0.3,0,0.6-0.1,0.8-0.4
			C158,34.4,158,34,158,33.6z"/>
		<path class="st3" d="M161.9,36h-1.5v-7h1.5V36z"/>
		<path class="st3" d="M167.1,36h-1.4v-0.7h0c-0.3,0.5-0.8,0.8-1.4,0.8c-0.5,0-0.8-0.1-1.1-0.4c-0.3-0.3-0.4-0.6-0.4-1
			c0-0.9,0.5-1.4,1.6-1.6l1.3-0.2c0-0.5-0.3-0.8-0.8-0.8c-0.6,0-1.1,0.2-1.6,0.5v-1.1c0.2-0.1,0.5-0.2,0.8-0.3
			c0.4-0.1,0.7-0.1,1-0.1c1.3,0,2,0.7,2,2V36z M165.7,33.8l-0.9,0.1c-0.5,0.1-0.7,0.3-0.7,0.6c0,0.2,0.1,0.3,0.2,0.4
			c0.1,0.1,0.3,0.2,0.5,0.2c0.3,0,0.5-0.1,0.7-0.3c0.2-0.2,0.3-0.4,0.3-0.7V33.8z"/>
		<path class="st3" d="M172.7,31.3l-1.9,5.1c-0.5,1.2-1.2,1.8-2.1,1.8c-0.3,0-0.6,0-0.9-0.1V37c0.2,0.1,0.4,0.2,0.6,0.2
			c0.4,0,0.6-0.2,0.8-0.5l0.2-0.6l-1.9-4.7h1.6l0.9,2.9c0.1,0.2,0.1,0.4,0.1,0.6h0c0-0.1,0-0.2,0.1-0.3s0.4-1.2,1-3.2H172.7z"/>
		<path class="st3" d="M181.1,33.2c0,2-0.9,3-2.8,3c-1.8,0-2.7-1-2.7-2.9v-3.8h1.5v3.8c0,1.1,0.4,1.6,1.3,1.6c0.8,0,1.2-0.5,1.2-1.5
			v-3.9h1.5V33.2z"/>
		<path class="st3" d="M187.6,36h-1.7l-0.7-1.7c-0.2-0.6-0.5-0.8-0.9-0.8H184V36h-1.5v-6.6h2.4c1.6,0,2.4,0.6,2.4,1.8
			c0,0.5-0.1,0.8-0.4,1.2c-0.3,0.3-0.6,0.5-1.1,0.7v0c0.4,0.1,0.7,0.5,0.9,1L187.6,36z M185.7,31.4c0-0.6-0.3-0.9-1-0.9H184v1.8h0.6
			c0.3,0,0.6-0.1,0.8-0.3C185.6,31.9,185.7,31.7,185.7,31.4z"/>
		<path class="st3" d="M192.5,36h-3.9v-6.6h1.5v5.4h2.4V36z"/>
		<path class="st3" d="M199.5,36h-3.9v-6.6h1.5v5.4h2.4V36z"/>
		<path class="st3" d="M205.1,33.6c0,0.8-0.2,1.4-0.7,1.9c-0.5,0.5-1.1,0.7-1.9,0.7c-0.8,0-1.4-0.2-1.8-0.7c-0.5-0.4-0.7-1-0.7-1.8
			c0-0.8,0.2-1.4,0.7-1.8c0.5-0.4,1.1-0.7,1.9-0.7c0.8,0,1.4,0.2,1.8,0.7C204.9,32.3,205.1,32.9,205.1,33.6z M203.6,33.6
			c0-0.9-0.4-1.3-1.1-1.3c-0.3,0-0.6,0.1-0.8,0.4c-0.2,0.2-0.3,0.6-0.3,1c0,0.9,0.4,1.4,1.1,1.4C203.3,35,203.6,34.6,203.6,33.6z"/>
		<path class="st3" d="M210.6,36h-1.5v-2.6c0-0.7-0.3-1.1-0.8-1.1c-0.2,0-0.5,0.1-0.6,0.3c-0.2,0.2-0.2,0.4-0.2,0.7V36H206v-4.7h1.5
			v0.7h0c0.3-0.6,0.9-0.9,1.5-0.9c1,0,1.6,0.6,1.6,1.9V36z"/>
		<path class="st3" d="M216.4,35.5c0,0.9-0.3,1.6-0.8,2c-0.5,0.5-1.2,0.7-2.2,0.7c-0.6,0-1.1-0.1-1.5-0.3v-1.2
			c0.5,0.3,1,0.4,1.5,0.4c0.5,0,0.9-0.1,1.1-0.4c0.3-0.3,0.4-0.6,0.4-1.1v-0.4h0c-0.3,0.5-0.8,0.8-1.5,0.8c-0.6,0-1.1-0.2-1.4-0.6
			c-0.4-0.4-0.5-1-0.5-1.7c0-0.8,0.2-1.4,0.6-1.9c0.4-0.5,0.9-0.7,1.6-0.7c0.6,0,1,0.2,1.3,0.7h0v-0.5h1.5V35.5z M214.9,33.8v-0.4
			c0-0.3-0.1-0.6-0.3-0.8c-0.2-0.2-0.4-0.3-0.7-0.3c-0.3,0-0.6,0.1-0.8,0.4c-0.2,0.3-0.3,0.6-0.3,1.1c0,0.4,0.1,0.7,0.3,0.9
			c0.2,0.2,0.4,0.3,0.7,0.3c0.3,0,0.5-0.1,0.7-0.3C214.8,34.5,214.9,34.2,214.9,33.8z"/>
		<path class="st3" d="M225.8,36h-1.6l-0.5-1.5h-2.4l-0.5,1.5h-1.6l2.4-6.6h1.8L225.8,36z M223.3,33.4l-0.7-2.2
			c-0.1-0.2-0.1-0.4-0.1-0.6h0c0,0.2-0.1,0.4-0.1,0.6l-0.7,2.2H223.3z"/>
		<path class="st3" d="M231.1,36h-1.5v-0.7h0c-0.3,0.5-0.8,0.8-1.5,0.8c-0.6,0-1.1-0.2-1.4-0.6c-0.4-0.4-0.5-1-0.5-1.7
			c0-0.8,0.2-1.4,0.6-1.9c0.4-0.5,0.9-0.7,1.6-0.7c0.6,0,1,0.2,1.3,0.7h0v-2.8h1.5V36z M229.6,33.8v-0.4c0-0.3-0.1-0.6-0.3-0.8
			c-0.2-0.2-0.4-0.3-0.7-0.3c-0.3,0-0.6,0.1-0.8,0.4c-0.2,0.3-0.3,0.6-0.3,1c0,0.4,0.1,0.7,0.3,1c0.2,0.2,0.4,0.3,0.7,0.3
			c0.3,0,0.5-0.1,0.7-0.4C229.5,34.5,229.6,34.1,229.6,33.8z"/>
		<path class="st3" d="M239.3,30.6h-1.9V36h-1.5v-5.4H234v-1.2h5.3V30.6z"/>
		<path class="st3" d="M241.6,29.8c0,0.2-0.1,0.4-0.2,0.5c-0.2,0.1-0.4,0.2-0.6,0.2c-0.2,0-0.5-0.1-0.6-0.2
			c-0.2-0.1-0.2-0.3-0.2-0.5c0-0.2,0.1-0.4,0.2-0.5c0.2-0.1,0.4-0.2,0.6-0.2c0.2,0,0.4,0.1,0.6,0.2S241.6,29.6,241.6,29.8z
			 M241.5,36H240v-4.7h1.5V36z"/>
		<path class="st3" d="M245.6,36c-0.2,0.1-0.5,0.2-1,0.2c-1,0-1.5-0.5-1.5-1.6v-2.2h-0.8v-1.1h0.8v-1l1.5-0.4v1.4h1.1v1.1h-1.1v1.9
			c0,0.5,0.2,0.7,0.6,0.7c0.2,0,0.3,0,0.5-0.1V36z"/>
		<path class="st3" d="M247.9,36h-1.5v-7h1.5V36z"/>
		<path class="st3" d="M253.3,34.1h-3.1c0,0.7,0.5,1,1.3,1c0.5,0,1-0.1,1.4-0.4v1.1c-0.4,0.2-1,0.4-1.7,0.4c-0.8,0-1.4-0.2-1.8-0.6
			c-0.4-0.4-0.6-1-0.6-1.8c0-0.5,0.1-0.9,0.3-1.3c0.2-0.4,0.5-0.7,0.8-0.9c0.4-0.2,0.8-0.3,1.2-0.3c0.7,0,1.2,0.2,1.6,0.6
			c0.4,0.4,0.6,1,0.6,1.7V34.1z M252,33.2c0-0.7-0.3-1-0.8-1c-0.2,0-0.4,0.1-0.6,0.3s-0.3,0.4-0.3,0.7H252z"/>
		<path class="st3" d="M259.2,37.6H258c-1-1.1-1.5-2.4-1.5-4c0-1.5,0.5-2.9,1.5-4.1h1.2c-0.9,1.2-1.4,2.6-1.4,4.1
			C257.8,35,258.3,36.3,259.2,37.6z"/>
		<path class="st3" d="M263.8,36h-1.4v-0.7h0c-0.3,0.5-0.8,0.8-1.4,0.8c-0.5,0-0.8-0.1-1.1-0.4c-0.3-0.3-0.4-0.6-0.4-1
			c0-0.9,0.5-1.4,1.6-1.6l1.3-0.2c0-0.5-0.3-0.8-0.8-0.8c-0.6,0-1.1,0.2-1.6,0.5v-1.1c0.2-0.1,0.5-0.2,0.8-0.3
			c0.4-0.1,0.7-0.1,1-0.1c1.3,0,2,0.7,2,2V36z M262.5,33.8l-0.9,0.1c-0.5,0.1-0.7,0.3-0.7,0.6c0,0.2,0.1,0.3,0.2,0.4
			c0.1,0.1,0.3,0.2,0.5,0.2c0.3,0,0.5-0.1,0.7-0.3c0.2-0.2,0.3-0.4,0.3-0.7V33.8z"/>
		<path class="st3" d="M269.9,33.6c0,0.8-0.2,1.4-0.6,1.9c-0.4,0.5-0.9,0.7-1.5,0.7c-0.6,0-1-0.2-1.3-0.7h0v2.7H265v-6.9h1.5V32h0
			c0.4-0.6,0.9-0.8,1.5-0.8c0.6,0,1.1,0.2,1.4,0.6S269.9,32.8,269.9,33.6z M268.4,33.6c0-0.8-0.3-1.2-1-1.2c-0.3,0-0.6,0.1-0.7,0.4
			c-0.2,0.2-0.3,0.5-0.3,0.9v0.4c0,0.3,0.1,0.6,0.3,0.8c0.2,0.2,0.4,0.3,0.7,0.3c0.3,0,0.6-0.1,0.8-0.4
			C268.3,34.4,268.4,34,268.4,33.6z"/>
		<path class="st3" d="M275.8,33.6c0,0.8-0.2,1.4-0.6,1.9c-0.4,0.5-0.9,0.7-1.6,0.7c-0.6,0-1-0.2-1.3-0.7h0v2.7h-1.5v-6.9h1.5V32h0
			c0.4-0.6,0.9-0.8,1.5-0.8c0.6,0,1.1,0.2,1.4,0.6S275.8,32.8,275.8,33.6z M274.3,33.6c0-0.8-0.3-1.2-1-1.2c-0.3,0-0.6,0.1-0.7,0.4
			c-0.2,0.2-0.3,0.5-0.3,0.9v0.4c0,0.3,0.1,0.6,0.3,0.8s0.4,0.3,0.7,0.3c0.3,0,0.6-0.1,0.8-0.4C274.2,34.4,274.3,34,274.3,33.6z"/>
		<path class="st3" d="M280.9,34.1h-3.1c0,0.7,0.5,1,1.3,1c0.5,0,1-0.1,1.4-0.4v1.1c-0.4,0.2-1,0.4-1.7,0.4c-0.8,0-1.4-0.2-1.8-0.6
			c-0.4-0.4-0.6-1-0.6-1.8c0-0.5,0.1-0.9,0.3-1.3c0.2-0.4,0.5-0.7,0.8-0.9c0.4-0.2,0.8-0.3,1.2-0.3c0.7,0,1.2,0.2,1.6,0.6
			c0.4,0.4,0.6,1,0.6,1.7V34.1z M279.6,33.2c0-0.7-0.3-1-0.8-1c-0.2,0-0.4,0.1-0.6,0.3c-0.2,0.2-0.3,0.4-0.3,0.7H279.6z"/>
		<path class="st3" d="M286.4,36h-1.5v-2.6c0-0.7-0.3-1.1-0.8-1.1c-0.2,0-0.5,0.1-0.6,0.3c-0.2,0.2-0.2,0.4-0.2,0.7V36h-1.5v-4.7
			h1.5v0.7h0c0.3-0.6,0.9-0.9,1.5-0.9c1,0,1.6,0.6,1.6,1.9V36z"/>
		<path class="st3" d="M292.1,36h-1.5v-0.7h0c-0.3,0.5-0.8,0.8-1.5,0.8c-0.6,0-1.1-0.2-1.4-0.6s-0.5-1-0.5-1.7
			c0-0.8,0.2-1.4,0.6-1.9c0.4-0.5,0.9-0.7,1.6-0.7c0.6,0,1,0.2,1.3,0.7h0v-2.8h1.5V36z M290.7,33.8v-0.4c0-0.3-0.1-0.6-0.3-0.8
			c-0.2-0.2-0.4-0.3-0.7-0.3c-0.3,0-0.6,0.1-0.8,0.4c-0.2,0.3-0.3,0.6-0.3,1c0,0.4,0.1,0.7,0.3,1c0.2,0.2,0.4,0.3,0.7,0.3
			c0.3,0,0.5-0.1,0.7-0.4C290.6,34.5,290.7,34.1,290.7,33.8z"/>
		<path class="st3" d="M295.5,33.5c0,1.6-0.5,2.9-1.5,4h-1.2c0.9-1.2,1.4-2.5,1.4-4c0-1.5-0.5-2.8-1.4-4.1h1.2
			C295,30.6,295.5,32,295.5,33.5z"/>
	</g>
</g>
<g>
	<g>
		<path class="st0" d="M10,10.1l1.1,0.3c-0.2,0.9-0.6,1.5-1.2,2c-0.6,0.5-1.3,0.7-2.1,0.7c-0.9,0-1.6-0.2-2.1-0.5
			c-0.5-0.4-1-0.9-1.2-1.5C4.1,10.3,4,9.6,4,8.9C4,8,4.1,7.3,4.5,6.7c0.3-0.6,0.8-1.1,1.4-1.4s1.2-0.5,1.9-0.5c0.8,0,1.5,0.2,2,0.6
			c0.5,0.4,0.9,1,1.1,1.7l-1,0.2c-0.2-0.6-0.5-1-0.8-1.3C8.7,5.8,8.3,5.7,7.7,5.7c-0.6,0-1.1,0.1-1.5,0.4C5.8,6.4,5.5,6.8,5.3,7.3
			c-0.2,0.5-0.3,1-0.3,1.5c0,0.7,0.1,1.3,0.3,1.8c0.2,0.5,0.5,0.9,0.9,1.1c0.4,0.3,0.9,0.4,1.4,0.4c0.6,0,1.1-0.2,1.5-0.5
			C9.6,11.3,9.9,10.8,10,10.1z"/>
		<path class="st0" d="M11.9,10c0-1.1,0.3-1.9,0.9-2.4C13.3,7.2,13.9,7,14.6,7c0.8,0,1.4,0.3,2,0.8c0.5,0.5,0.8,1.2,0.8,2.2
			c0,0.7-0.1,1.3-0.3,1.8c-0.2,0.4-0.5,0.8-1,1c-0.4,0.2-0.9,0.4-1.4,0.4c-0.8,0-1.5-0.3-2-0.8C12.1,11.7,11.9,11,11.9,10z M12.9,10
			c0,0.7,0.2,1.3,0.5,1.7c0.3,0.4,0.7,0.6,1.2,0.6c0.5,0,0.9-0.2,1.2-0.6c0.3-0.4,0.5-0.9,0.5-1.7c0-0.7-0.2-1.3-0.5-1.6
			c-0.3-0.4-0.7-0.6-1.2-0.6c-0.5,0-0.9,0.2-1.2,0.6C13.1,8.7,12.9,9.3,12.9,10z"/>
		<path class="st0" d="M18.5,12.9v-8h1v2.9c0.5-0.5,1-0.8,1.7-0.8c0.4,0,0.8,0.1,1.1,0.3c0.3,0.2,0.5,0.4,0.7,0.7
			c0.1,0.3,0.2,0.7,0.2,1.3v3.7h-1V9.2c0-0.5-0.1-0.8-0.3-1.1c-0.2-0.2-0.5-0.3-0.9-0.3c-0.3,0-0.6,0.1-0.8,0.2
			c-0.3,0.2-0.4,0.4-0.5,0.6c-0.1,0.3-0.2,0.6-0.2,1.1v3.2H18.5z"/>
		<path class="st0" d="M24.3,10c0-1.1,0.3-1.9,0.9-2.4C25.7,7.2,26.3,7,27,7c0.8,0,1.4,0.3,2,0.8c0.5,0.5,0.8,1.2,0.8,2.2
			c0,0.7-0.1,1.3-0.3,1.8c-0.2,0.4-0.5,0.8-1,1C28,12.9,27.5,13,27,13c-0.8,0-1.5-0.3-2-0.8C24.6,11.7,24.3,11,24.3,10z M25.3,10
			c0,0.7,0.2,1.3,0.5,1.7c0.3,0.4,0.7,0.6,1.2,0.6c0.5,0,0.9-0.2,1.2-0.6c0.3-0.4,0.5-0.9,0.5-1.7c0-0.7-0.2-1.3-0.5-1.6
			C27.9,8,27.5,7.8,27,7.8c-0.5,0-0.9,0.2-1.2,0.6C25.5,8.7,25.3,9.3,25.3,10z"/>
		<path class="st0" d="M35.5,12.9l-2.1-8h1.1l1.2,5.2c0.1,0.5,0.2,1.1,0.3,1.6c0.2-0.9,0.3-1.3,0.4-1.5l1.5-5.4h1.3L40.4,9
			c0.3,1,0.5,1.9,0.6,2.8c0.1-0.5,0.2-1.1,0.4-1.7l1.3-5.1h1.1l-2.2,8h-1l-1.7-6.1c-0.1-0.5-0.2-0.8-0.3-0.9
			c-0.1,0.4-0.2,0.7-0.2,0.9l-1.7,6.1H35.5z"/>
		<path class="st0" d="M44.6,6V4.9h1V6H44.6z M44.6,12.9V7.1h1v5.8H44.6z"/>
		<path class="st0" d="M47,12.9V7.1h0.9v0.8c0.4-0.6,1-1,1.8-1c0.3,0,0.7,0.1,1,0.2c0.3,0.1,0.5,0.3,0.7,0.5
			c0.1,0.2,0.2,0.4,0.3,0.7c0,0.2,0.1,0.5,0.1,1v3.6h-1V9.4c0-0.4,0-0.7-0.1-0.9c-0.1-0.2-0.2-0.4-0.4-0.5c-0.2-0.1-0.4-0.2-0.7-0.2
			c-0.4,0-0.8,0.1-1.1,0.4C48.2,8.5,48,9,48,9.7v3.2H47z"/>
		<path class="st0" d="M57.2,11l1,0.1c-0.2,0.6-0.5,1.1-0.9,1.4c-0.4,0.3-1,0.5-1.7,0.5c-0.8,0-1.5-0.3-2-0.8
			c-0.5-0.5-0.7-1.3-0.7-2.2c0-1,0.3-1.7,0.8-2.3c0.5-0.5,1.2-0.8,2-0.8c0.8,0,1.4,0.3,1.9,0.8C58,8.3,58.3,9,58.3,10
			c0,0.1,0,0.1,0,0.3H54c0,0.6,0.2,1.1,0.5,1.5c0.3,0.3,0.7,0.5,1.2,0.5c0.4,0,0.7-0.1,0.9-0.3C56.9,11.8,57.1,11.5,57.2,11z
			 M54,9.5h3.2c0-0.5-0.2-0.9-0.4-1.1c-0.3-0.4-0.7-0.6-1.2-0.6c-0.5,0-0.8,0.2-1.1,0.5C54.2,8.5,54,9,54,9.5z"/>
		<path class="st0" d="M59.5,12.9V7.1h0.9V8c0.2-0.4,0.4-0.7,0.6-0.8C61.2,7.1,61.4,7,61.6,7c0.3,0,0.7,0.1,1,0.3l-0.3,0.9
			C62,8.1,61.8,8,61.6,8c-0.2,0-0.4,0.1-0.6,0.2c-0.2,0.1-0.3,0.3-0.4,0.5c-0.1,0.3-0.2,0.7-0.2,1.1v3H59.5z"/>
		<path class="st0" d="M63.2,15.1l-0.1-0.9c0.2,0.1,0.4,0.1,0.6,0.1c0.2,0,0.4,0,0.5-0.1c0.1-0.1,0.2-0.2,0.3-0.3
			c0.1-0.1,0.2-0.3,0.3-0.7c0-0.1,0-0.1,0.1-0.2l-2.2-5.8h1.1l1.2,3.4c0.2,0.4,0.3,0.9,0.4,1.3c0.1-0.5,0.2-0.9,0.4-1.3L67,7.1h1
			L65.8,13c-0.2,0.6-0.4,1.1-0.6,1.3c-0.2,0.3-0.4,0.6-0.6,0.7c-0.2,0.2-0.5,0.2-0.8,0.2C63.6,15.3,63.4,15.2,63.2,15.1z"/>
		<path class="st0" d="M71.5,10.5v-1h3v1H71.5z"/>
		<path class="st0" d="M77.4,12.9l3.1-8h1.1l3.3,8h-1.2l-0.9-2.4h-3.3l-0.9,2.4H77.4z M79.7,9.6h2.7l-0.8-2.2
			c-0.3-0.7-0.4-1.2-0.6-1.7c-0.1,0.5-0.2,1-0.4,1.5L79.7,9.6z"/>
		<path class="st0" d="M85.6,12.9v-8h1v8H85.6z"/>
		<path class="st0" d="M88,12.9v-8h1v8H88z"/>
		<path class="st0" d="M93.6,12.9V7.1h0.9V8c0.2-0.4,0.4-0.7,0.6-0.8C95.3,7.1,95.6,7,95.8,7c0.3,0,0.7,0.1,1,0.3l-0.3,0.9
			C96.2,8.1,96,8,95.7,8c-0.2,0-0.4,0.1-0.6,0.2c-0.2,0.1-0.3,0.3-0.4,0.5c-0.1,0.3-0.2,0.7-0.2,1.1v3H93.6z"/>
		<path class="st0" d="M101.4,11l1,0.1c-0.2,0.6-0.5,1.1-0.9,1.4c-0.4,0.3-1,0.5-1.7,0.5c-0.8,0-1.5-0.3-2-0.8s-0.7-1.3-0.7-2.2
			c0-1,0.3-1.7,0.8-2.3C98.3,7.3,99,7,99.8,7c0.8,0,1.4,0.3,1.9,0.8c0.5,0.5,0.7,1.3,0.7,2.2c0,0.1,0,0.1,0,0.3h-4.3
			c0,0.6,0.2,1.1,0.5,1.5c0.3,0.3,0.7,0.5,1.2,0.5c0.4,0,0.7-0.1,0.9-0.3C101,11.8,101.2,11.5,101.4,11z M98.1,9.5h3.2
			c0-0.5-0.2-0.9-0.4-1.1c-0.3-0.4-0.7-0.6-1.2-0.6c-0.5,0-0.8,0.2-1.1,0.5C98.3,8.5,98.2,9,98.1,9.5z"/>
		<path class="st0" d="M107.4,12.9v-0.7c-0.4,0.6-0.9,0.9-1.6,0.9c-0.5,0-0.9-0.1-1.3-0.4c-0.4-0.3-0.7-0.6-0.9-1.1
			c-0.2-0.5-0.3-1-0.3-1.6c0-0.6,0.1-1.1,0.3-1.6c0.2-0.5,0.5-0.8,0.9-1.1c0.4-0.3,0.8-0.4,1.3-0.4c0.3,0,0.7,0.1,0.9,0.2
			c0.3,0.1,0.5,0.3,0.7,0.6V4.9h1v8H107.4z M104.3,10c0,0.7,0.2,1.3,0.5,1.7c0.3,0.4,0.7,0.6,1.1,0.6c0.4,0,0.8-0.2,1.1-0.5
			c0.3-0.4,0.5-0.9,0.5-1.6c0-0.8-0.2-1.4-0.5-1.7c-0.3-0.4-0.7-0.6-1.1-0.6c-0.4,0-0.8,0.2-1.1,0.5C104.4,8.7,104.3,9.3,104.3,10z"
			/>
		<path class="st0" d="M114,12.9l-1.8-5.8h1l0.9,3.3l0.3,1.2c0-0.1,0.1-0.5,0.3-1.2l0.9-3.4h1l0.9,3.4l0.3,1.1l0.3-1.1l1-3.4h1
			l-1.8,5.8h-1l-0.9-3.5l-0.2-1l-1.2,4.5H114z"/>
		<path class="st0" d="M121,6V4.9h1V6H121z M121,12.9V7.1h1v5.8H121z"/>
		<path class="st0" d="M123.5,12.9V7.1h0.9v0.8c0.4-0.6,1-1,1.8-1c0.3,0,0.7,0.1,1,0.2c0.3,0.1,0.5,0.3,0.7,0.5
			c0.1,0.2,0.2,0.4,0.3,0.7c0,0.2,0.1,0.5,0.1,1v3.6h-1V9.4c0-0.4,0-0.7-0.1-0.9c-0.1-0.2-0.2-0.4-0.4-0.5c-0.2-0.1-0.4-0.2-0.7-0.2
			c-0.4,0-0.8,0.1-1.1,0.4c-0.3,0.3-0.5,0.8-0.5,1.5v3.2H123.5z"/>
		<path class="st0" d="M133.7,11l1,0.1c-0.2,0.6-0.5,1.1-0.9,1.4c-0.4,0.3-1,0.5-1.7,0.5c-0.8,0-1.5-0.3-2-0.8
			c-0.5-0.5-0.7-1.3-0.7-2.2c0-1,0.3-1.7,0.8-2.3c0.5-0.5,1.2-0.8,2-0.8c0.8,0,1.4,0.3,1.9,0.8c0.5,0.5,0.7,1.3,0.7,2.2
			c0,0.1,0,0.1,0,0.3h-4.3c0,0.6,0.2,1.1,0.5,1.5c0.3,0.3,0.7,0.5,1.2,0.5c0.4,0,0.7-0.1,0.9-0.3C133.3,11.8,133.5,11.5,133.7,11z
			 M130.4,9.5h3.2c0-0.5-0.2-0.9-0.4-1.1c-0.3-0.4-0.7-0.6-1.2-0.6c-0.5,0-0.8,0.2-1.1,0.5C130.7,8.5,130.5,9,130.4,9.5z"/>
		<path class="st0" d="M135.5,11.2l1-0.2c0.1,0.4,0.2,0.7,0.5,0.9c0.2,0.2,0.6,0.3,1,0.3c0.5,0,0.8-0.1,1-0.3
			c0.2-0.2,0.3-0.4,0.3-0.6c0-0.2-0.1-0.4-0.3-0.5c-0.1-0.1-0.5-0.2-1-0.3c-0.7-0.2-1.2-0.3-1.5-0.5c-0.3-0.1-0.5-0.3-0.6-0.6
			c-0.1-0.2-0.2-0.5-0.2-0.8c0-0.3,0.1-0.5,0.2-0.7c0.1-0.2,0.3-0.4,0.5-0.5c0.2-0.1,0.4-0.2,0.6-0.3c0.3-0.1,0.5-0.1,0.8-0.1
			c0.5,0,0.9,0.1,1.2,0.2c0.3,0.1,0.6,0.3,0.8,0.5s0.3,0.5,0.3,0.9l-1,0.1c0-0.3-0.2-0.5-0.4-0.7c-0.2-0.2-0.5-0.3-0.9-0.3
			c-0.5,0-0.8,0.1-1,0.2c-0.2,0.1-0.3,0.3-0.3,0.5c0,0.1,0,0.2,0.1,0.3c0.1,0.1,0.2,0.2,0.4,0.3c0.1,0,0.4,0.1,0.9,0.3
			c0.7,0.2,1.2,0.3,1.5,0.5c0.3,0.1,0.5,0.3,0.6,0.5c0.2,0.2,0.2,0.5,0.2,0.8c0,0.3-0.1,0.6-0.3,0.9c-0.2,0.3-0.5,0.5-0.8,0.7
			c-0.4,0.2-0.8,0.2-1.2,0.2c-0.8,0-1.3-0.2-1.7-0.5C135.9,12.3,135.6,11.8,135.5,11.2z"/>
		<path class="st0" d="M144.3,10c0-1.1,0.3-1.9,0.9-2.4c0.5-0.4,1.1-0.6,1.8-0.6c0.8,0,1.4,0.3,2,0.8c0.5,0.5,0.8,1.2,0.8,2.2
			c0,0.7-0.1,1.3-0.3,1.8c-0.2,0.4-0.5,0.8-1,1c-0.4,0.2-0.9,0.4-1.4,0.4c-0.8,0-1.5-0.3-2-0.8C144.5,11.7,144.3,11,144.3,10z
			 M145.3,10c0,0.7,0.2,1.3,0.5,1.7c0.3,0.4,0.7,0.6,1.2,0.6c0.5,0,0.9-0.2,1.2-0.6c0.3-0.4,0.5-0.9,0.5-1.7c0-0.7-0.2-1.3-0.5-1.6
			c-0.3-0.4-0.7-0.6-1.2-0.6c-0.5,0-0.9,0.2-1.2,0.6C145.4,8.7,145.3,9.3,145.3,10z"/>
		<path class="st0" d="M150.8,12.9V7.1h0.9v0.8c0.4-0.6,1-1,1.8-1c0.3,0,0.7,0.1,1,0.2c0.3,0.1,0.5,0.3,0.7,0.5
			c0.1,0.2,0.2,0.4,0.3,0.7c0,0.2,0.1,0.5,0.1,1v3.6h-1V9.4c0-0.4,0-0.7-0.1-0.9c-0.1-0.2-0.2-0.4-0.4-0.5c-0.2-0.1-0.4-0.2-0.7-0.2
			c-0.4,0-0.8,0.1-1.1,0.4c-0.3,0.3-0.5,0.8-0.5,1.5v3.2H150.8z"/>
		<path class="st0" d="M159.9,10.3l1-0.1c0,0.4,0.2,0.7,0.3,1c0.2,0.3,0.4,0.5,0.8,0.6c0.4,0.2,0.8,0.2,1.2,0.2
			c0.4,0,0.8-0.1,1.1-0.2c0.3-0.1,0.5-0.3,0.7-0.5c0.2-0.2,0.2-0.4,0.2-0.7c0-0.3-0.1-0.5-0.2-0.7c-0.1-0.2-0.4-0.3-0.7-0.5
			c-0.2-0.1-0.7-0.2-1.4-0.4c-0.7-0.2-1.3-0.3-1.5-0.5c-0.4-0.2-0.7-0.4-0.9-0.7c-0.2-0.3-0.3-0.6-0.3-1c0-0.4,0.1-0.8,0.3-1.1
			c0.2-0.4,0.6-0.6,1-0.8c0.4-0.2,0.9-0.3,1.5-0.3c0.6,0,1.1,0.1,1.6,0.3c0.5,0.2,0.8,0.5,1,0.8c0.2,0.4,0.4,0.8,0.4,1.3l-1,0.1
			c-0.1-0.5-0.2-0.9-0.6-1.1c-0.3-0.3-0.8-0.4-1.4-0.4c-0.6,0-1.1,0.1-1.4,0.4c-0.3,0.2-0.4,0.5-0.4,0.8c0,0.3,0.1,0.5,0.3,0.7
			c0.2,0.2,0.7,0.4,1.6,0.6c0.9,0.2,1.5,0.4,1.8,0.5c0.5,0.2,0.8,0.5,1,0.8c0.2,0.3,0.3,0.7,0.3,1.1c0,0.4-0.1,0.8-0.4,1.2
			c-0.2,0.4-0.6,0.7-1.1,0.9c-0.5,0.2-1,0.3-1.5,0.3c-0.7,0-1.3-0.1-1.8-0.3c-0.5-0.2-0.9-0.5-1.2-1
			C160.1,11.4,159.9,10.9,159.9,10.3z"/>
		<path class="st0" d="M171.4,12.2c-0.4,0.3-0.7,0.5-1.1,0.7c-0.3,0.1-0.7,0.2-1.1,0.2c-0.6,0-1.1-0.2-1.5-0.5
			c-0.3-0.3-0.5-0.7-0.5-1.2c0-0.3,0.1-0.5,0.2-0.8c0.1-0.2,0.3-0.4,0.5-0.6c0.2-0.1,0.4-0.2,0.7-0.3c0.2-0.1,0.5-0.1,0.9-0.1
			c0.8-0.1,1.4-0.2,1.8-0.3c0-0.1,0-0.2,0-0.3c0-0.4-0.1-0.7-0.3-0.8c-0.3-0.2-0.6-0.3-1.1-0.3c-0.5,0-0.8,0.1-1,0.2
			c-0.2,0.2-0.4,0.4-0.5,0.9l-1-0.1c0.1-0.4,0.2-0.7,0.4-1c0.2-0.3,0.5-0.4,0.9-0.6c0.4-0.1,0.8-0.2,1.3-0.2c0.5,0,0.9,0.1,1.2,0.2
			c0.3,0.1,0.5,0.3,0.7,0.4c0.1,0.2,0.2,0.4,0.3,0.7c0,0.2,0,0.5,0,0.9v1.3c0,0.9,0,1.5,0.1,1.7c0,0.2,0.1,0.5,0.2,0.7h-1
			C171.5,12.7,171.4,12.5,171.4,12.2z M171.3,10c-0.4,0.1-0.9,0.3-1.6,0.4c-0.4,0.1-0.7,0.1-0.9,0.2c-0.2,0.1-0.3,0.2-0.4,0.3
			c-0.1,0.1-0.1,0.3-0.1,0.5c0,0.3,0.1,0.5,0.3,0.7c0.2,0.2,0.5,0.3,0.9,0.3c0.4,0,0.7-0.1,1-0.2c0.3-0.2,0.5-0.4,0.6-0.7
			c0.1-0.2,0.2-0.5,0.2-1V10z"/>
		<path class="st0" d="M173.8,12.9v-8h1v8H173.8z"/>
		<path class="st0" d="M180.3,11l1,0.1c-0.2,0.6-0.5,1.1-0.9,1.4c-0.4,0.3-1,0.5-1.7,0.5c-0.8,0-1.5-0.3-2-0.8
			c-0.5-0.5-0.7-1.3-0.7-2.2c0-1,0.3-1.7,0.8-2.3c0.5-0.5,1.2-0.8,2-0.8c0.8,0,1.4,0.3,1.9,0.8c0.5,0.5,0.7,1.3,0.7,2.2
			c0,0.1,0,0.1,0,0.3H177c0,0.6,0.2,1.1,0.5,1.5c0.3,0.3,0.7,0.5,1.2,0.5c0.4,0,0.7-0.1,0.9-0.3C179.9,11.8,180.2,11.5,180.3,11z
			 M177.1,9.5h3.2c0-0.5-0.2-0.9-0.4-1.1c-0.3-0.4-0.7-0.6-1.2-0.6c-0.5,0-0.8,0.2-1.1,0.5C177.3,8.5,177.1,9,177.1,9.5z"/>
		<path class="st0" d="M183.1,10.9l-0.3-4.2V4.9h1.2v1.8l-0.3,4.2H183.1z M182.8,12.9v-1.1h1.1v1.1H182.8z"/>
		<path class="st0" d="M3.4,14.5v-0.8h181.5v0.8H3.4z"/>
	</g>
	<rect x="74.1" y="1.5" class="st1" width="118.8" height="13.6"/>
	<rect x="193" y="1.5" class="st2" width="78.6" height="13.6"/>
	<g>
		<path class="st3" d="M204.9,11.7H201V5.1h1.5v5.4h2.4V11.7z"/>
		<path class="st3" d="M210.5,9.3c0,0.8-0.2,1.4-0.7,1.9c-0.5,0.5-1.1,0.7-1.9,0.7c-0.8,0-1.4-0.2-1.8-0.7s-0.7-1-0.7-1.8
			c0-0.8,0.2-1.4,0.7-1.8c0.5-0.4,1.1-0.7,1.9-0.7c0.8,0,1.4,0.2,1.8,0.7C210.3,8,210.5,8.6,210.5,9.3z M209,9.3
			c0-0.9-0.4-1.3-1.1-1.3c-0.3,0-0.6,0.1-0.8,0.4c-0.2,0.2-0.3,0.6-0.3,1c0,0.9,0.4,1.4,1.1,1.4C208.7,10.7,209,10.3,209,9.3z"/>
		<path class="st3" d="M216,11.7h-1.5V9.1c0-0.7-0.3-1.1-0.8-1.1c-0.2,0-0.5,0.1-0.6,0.3c-0.2,0.2-0.2,0.4-0.2,0.7v2.7h-1.5V7h1.5
			v0.7h0c0.3-0.6,0.9-0.9,1.5-0.9c1,0,1.6,0.6,1.6,1.9V11.7z"/>
		<path class="st3" d="M221.8,11.2c0,0.9-0.3,1.6-0.8,2c-0.5,0.5-1.2,0.7-2.2,0.7c-0.6,0-1.1-0.1-1.5-0.3v-1.2
			c0.5,0.3,1,0.4,1.5,0.4c0.5,0,0.9-0.1,1.1-0.4c0.3-0.3,0.4-0.6,0.4-1.1V11h0c-0.3,0.5-0.8,0.8-1.5,0.8c-0.6,0-1.1-0.2-1.4-0.6
			c-0.4-0.4-0.5-1-0.5-1.7c0-0.8,0.2-1.4,0.6-1.9c0.4-0.5,0.9-0.7,1.6-0.7c0.6,0,1,0.2,1.3,0.7h0V7h1.5V11.2z M220.3,9.4V9.1
			c0-0.3-0.1-0.6-0.3-0.8c-0.2-0.2-0.4-0.3-0.7-0.3c-0.3,0-0.6,0.1-0.8,0.4c-0.2,0.3-0.3,0.6-0.3,1.1c0,0.4,0.1,0.7,0.3,0.9
			c0.2,0.2,0.4,0.3,0.7,0.3c0.3,0,0.5-0.1,0.7-0.3C220.3,10.1,220.3,9.8,220.3,9.4z"/>
		<path class="st3" d="M231.2,11.7h-1.6l-0.5-1.5h-2.4l-0.5,1.5h-1.6l2.4-6.6h1.8L231.2,11.7z M228.7,9.1L228,6.9
			c-0.1-0.2-0.1-0.4-0.1-0.6h0c0,0.2-0.1,0.4-0.1,0.6L227,9.1H228.7z"/>
		<path class="st3" d="M236.5,11.7H235v-0.7h0c-0.3,0.5-0.8,0.8-1.5,0.8c-0.6,0-1.1-0.2-1.4-0.6c-0.4-0.4-0.5-1-0.5-1.7
			c0-0.8,0.2-1.4,0.6-1.9s0.9-0.7,1.6-0.7c0.6,0,1,0.2,1.3,0.7h0V4.7h1.5V11.7z M235,9.4V9.1c0-0.3-0.1-0.6-0.3-0.8
			c-0.2-0.2-0.4-0.3-0.7-0.3c-0.3,0-0.6,0.1-0.8,0.4c-0.2,0.3-0.3,0.6-0.3,1c0,0.4,0.1,0.7,0.3,1c0.2,0.2,0.4,0.3,0.7,0.3
			c0.3,0,0.5-0.1,0.7-0.4C235,10.1,235,9.8,235,9.4z"/>
		<path class="st3" d="M244.7,6.3h-1.9v5.4h-1.5V6.3h-1.9V5.1h5.3V6.3z"/>
		<path class="st3" d="M247,5.5c0,0.2-0.1,0.4-0.2,0.5c-0.2,0.1-0.4,0.2-0.6,0.2c-0.2,0-0.5-0.1-0.6-0.2c-0.2-0.1-0.2-0.3-0.2-0.5
			c0-0.2,0.1-0.4,0.2-0.5c0.2-0.1,0.4-0.2,0.6-0.2c0.2,0,0.4,0.1,0.6,0.2C247,5.1,247,5.3,247,5.5z M246.9,11.7h-1.5V7h1.5V11.7z"/>
		<path class="st3" d="M251,11.7c-0.2,0.1-0.5,0.2-1,0.2c-1,0-1.5-0.5-1.5-1.6V8.1h-0.8V7h0.8V6l1.5-0.4V7h1.1v1.1h-1.1V10
			c0,0.5,0.2,0.7,0.6,0.7c0.2,0,0.3,0,0.5-0.1V11.7z"/>
		<path class="st3" d="M253.3,11.7h-1.5v-7h1.5V11.7z"/>
		<path class="st3" d="M258.7,9.8h-3.1c0,0.7,0.5,1,1.3,1c0.5,0,1-0.1,1.4-0.4v1.1c-0.4,0.2-1,0.4-1.7,0.4c-0.8,0-1.4-0.2-1.8-0.6
			c-0.4-0.4-0.6-1-0.6-1.8c0-0.5,0.1-0.9,0.3-1.3c0.2-0.4,0.5-0.7,0.8-0.9c0.4-0.2,0.8-0.3,1.2-0.3c0.7,0,1.2,0.2,1.6,0.6
			c0.4,0.4,0.6,1,0.6,1.7V9.8z M257.4,8.9c0-0.7-0.3-1-0.8-1c-0.2,0-0.4,0.1-0.6,0.3s-0.3,0.4-0.3,0.7H257.4z"/>
		<path class="st3" d="M262.9,10.3c0,0.5-0.2,0.9-0.6,1.1c-0.4,0.3-0.9,0.4-1.5,0.4c-0.5,0-1-0.1-1.4-0.2v-1.2
			c0.5,0.3,0.9,0.4,1.4,0.4c0.5,0,0.7-0.1,0.7-0.4c0-0.1,0-0.2-0.1-0.2c0-0.1-0.1-0.1-0.2-0.2c-0.1-0.1-0.3-0.1-0.6-0.2
			c-0.4-0.1-0.7-0.3-0.9-0.5c-0.2-0.2-0.3-0.5-0.3-0.8c0-0.5,0.2-0.8,0.5-1.1c0.4-0.3,0.8-0.4,1.4-0.4c0.4,0,0.8,0.1,1.2,0.2v1.1
			c-0.4-0.2-0.7-0.3-1.2-0.3c-0.4,0-0.6,0.1-0.6,0.4c0,0.1,0,0.2,0.1,0.2c0,0.1,0.1,0.1,0.2,0.2c0.1,0.1,0.3,0.1,0.5,0.2
			c0.5,0.2,0.8,0.4,1,0.6C262.8,9.7,262.9,9.9,262.9,10.3z"/>
	</g>
</g>
</svg>
