<?xml version="1.0" encoding="utf-8"?>
<!-- Generator: Adobe Illustrator 21.0.0, SVG Export Plug-In . SVG Version: 6.00 Build 0)  -->
<svg version="1.1" id="Layer_1" xmlns="http://www.w3.org/2000/svg" xmlns:xlink="http://www.w3.org/1999/xlink" x="0px" y="0px"
	 width="297.6px" height="96px" viewBox="0 0 297.6 96" style="enable-background:new 0 0 297.6 96;" xml:space="preserve">
<style type="text/css">
	.st0{fill:#0012FF;}
	.st1{enable-background:new    ;}
	.st2{fill:#009245;}
	.st3{fill:#999999;}
	.st4{fill:#737373;}
	.st5{fill:#0000FF;}
	.st6{fill:#FF8C00;}
	.st7{fill:#D2D2D2;}
	.st8{fill:none;stroke:#008272;stroke-width:3.57;stroke-miterlimit:10;}
	.st9{fill:#666666;}
</style>
<title>Asset 3</title>
<g>
	<path class="st0" d="M15.1,8.3l1.3,0.3c-0.3,1.1-0.8,1.9-1.5,2.4s-1.6,0.8-2.6,0.8c-1.1,0-1.9-0.2-2.6-0.6C9,10.8,8.5,10.1,8.2,9.3
		C7.9,8.6,7.7,7.7,7.7,6.8c0-1,0.2-1.9,0.6-2.7c0.4-0.7,1-1.3,1.7-1.7s1.5-0.6,2.4-0.6c1,0,1.8,0.2,2.5,0.8s1.1,1.2,1.4,2.1L15,5
		c-0.2-0.7-0.6-1.2-1-1.6c-0.4-0.3-1-0.5-1.6-0.5c-0.8,0-1.4,0.2-1.9,0.5C9.9,3.8,9.6,4.3,9.4,4.9C9.2,5.5,9.1,6.1,9.1,6.8
		c0,0.8,0.1,1.6,0.4,2.2c0.2,0.6,0.6,1.1,1.1,1.4c0.5,0.3,1.1,0.5,1.7,0.5c0.7,0,1.3-0.2,1.8-0.6C14.6,9.8,14.9,9.2,15.1,8.3z"/>
	<path class="st0" d="M17.4,8.2c0-1.3,0.4-2.3,1.1-2.9c0.6-0.5,1.4-0.8,2.2-0.8c1,0,1.8,0.3,2.4,1C23.7,6.1,24,7,24,8.2
		c0,0.9-0.1,1.6-0.4,2.2c-0.3,0.5-0.7,0.9-1.2,1.2S21.3,12,20.7,12c-1,0-1.8-0.3-2.4-1C17.7,10.3,17.4,9.4,17.4,8.2z M18.7,8.2
		c0,0.9,0.2,1.6,0.6,2s0.9,0.7,1.5,0.7s1.1-0.2,1.5-0.7s0.6-1.2,0.6-2.1s-0.2-1.5-0.6-2s-0.9-0.7-1.5-0.7s-1.1,0.2-1.5,0.7
		S18.7,7.3,18.7,8.2z"/>
	<path class="st0" d="M25.5,11.8V2h1.2v3.5c0.6-0.7,1.3-1,2.1-1c0.5,0,1,0.1,1.4,0.3C30.6,5,30.9,5.3,31,5.7
		c0.2,0.4,0.3,0.9,0.3,1.6v4.5h-1.2V7.3c0-0.6-0.1-1-0.4-1.3s-0.6-0.4-1.1-0.4c-0.4,0-0.7,0.1-1,0.3S27,6.3,26.9,6.6
		c-0.1,0.3-0.2,0.8-0.2,1.3v3.9C26.7,11.8,25.5,11.8,25.5,11.8z"/>
	<path class="st0" d="M32.7,8.2c0-1.3,0.4-2.3,1.1-2.9c0.6-0.5,1.4-0.8,2.2-0.8c1,0,1.8,0.3,2.4,1C39,6.1,39.3,7,39.3,8.1
		c0,0.9-0.1,1.6-0.4,2.2c-0.3,0.5-0.7,0.9-1.2,1.2s-1.1,0.4-1.7,0.4c-1,0-1.8-0.3-2.4-1C33,10.3,32.7,9.4,32.7,8.2z M33.9,8.2
		c0,0.9,0.2,1.6,0.6,2s0.9,0.7,1.5,0.7s1.1-0.2,1.5-0.7s0.6-1.2,0.6-2.1s-0.2-1.5-0.6-2c-0.4-0.5-0.9-0.7-1.5-0.7s-1.1,0.2-1.5,0.7
		S33.9,7.3,33.9,8.2z"/>
	<path class="st0" d="M46.4,11.8L43.8,2h1.3l1.5,6.4c0.2,0.7,0.3,1.3,0.4,2c0.3-1,0.4-1.7,0.4-1.8l2-6.6H51l1.4,5
		c0.4,1.2,0.6,2.4,0.8,3.5c0.1-0.6,0.3-1.3,0.5-2.1L55.2,2h1.3l-2.7,9.8h-1.3l-2.1-7.5c-0.2-0.6-0.3-1-0.3-1.2
		C50,3.6,49.9,4,49.8,4.3l-2.1,7.5H46.4z"/>
	<path class="st0" d="M57.5,3.3V2h1.2v1.4h-1.2V3.3z M57.5,11.8V4.7h1.2v7.1C58.7,11.8,57.5,11.8,57.5,11.8z"/>
	<path class="st0" d="M60.6,11.8V4.7h1.1v1C62.2,4.9,63,4.5,64,4.5c0.4,0,0.8,0.1,1.2,0.2c0.4,0.2,0.6,0.4,0.8,0.6
		c0.2,0.2,0.3,0.5,0.4,0.9c0,0.2,0.1,0.6,0.1,1.2v4.4h-1.2V7.5c0-0.5,0-0.9-0.1-1.1S64.9,6,64.7,5.8c-0.2-0.1-0.5-0.2-0.8-0.2
		c-0.5,0-1,0.2-1.3,0.5C62,6.4,61.8,7,61.8,7.9v3.9H60.6z"/>
	<path class="st0" d="M73.1,9.5l1.2,0.2c-0.2,0.7-0.6,1.3-1.1,1.7S72,12,71.2,12c-1,0-1.9-0.3-2.5-1c-0.6-0.6-0.9-1.5-0.9-2.7
		s0.3-2.1,0.9-2.8s1.4-1,2.4-1s1.7,0.3,2.3,1c0.6,0.6,1,1.5,1,2.7c0,0.1,0,0.2,0,0.3H69c0,0.8,0.3,1.4,0.7,1.8
		c0.4,0.4,0.9,0.6,1.5,0.6c0.4,0,0.8-0.1,1.1-0.3C72.6,10.4,72.9,10,73.1,9.5z M69.1,7.5h4c-0.1-0.6-0.2-1-0.5-1.3
		c-0.4-0.5-0.9-0.7-1.5-0.7s-1,0.2-1.4,0.6C69.4,6.4,69.1,6.9,69.1,7.5z"/>
	<path class="st0" d="M75.8,11.8V4.7h1.1v1.1c0.3-0.5,0.5-0.8,0.8-1c0.2-0.2,0.5-0.2,0.8-0.2c0.4,0,0.8,0.1,1.2,0.4l-0.4,1
		c-0.3-0.2-0.6-0.3-0.9-0.3s-0.5,0.1-0.7,0.2c-0.2,0.2-0.4,0.4-0.4,0.7C77.1,7.1,77,7.5,77,8.1v3.7H75.8z"/>
	<path class="st0" d="M80.3,14.5l-0.1-1.1c0.3,0.1,0.5,0.1,0.7,0.1c0.3,0,0.5,0,0.6-0.1c0.2-0.1,0.3-0.2,0.4-0.4
		c0.1-0.1,0.2-0.4,0.4-0.9c0-0.1,0.1-0.2,0.1-0.3l-2.7-7.1H81l1.5,4.1c0.2,0.5,0.4,1.1,0.5,1.6c0.1-0.6,0.3-1.1,0.5-1.6L85,4.7h1.2
		l-2.7,7.2c-0.3,0.8-0.5,1.3-0.7,1.6c-0.2,0.4-0.5,0.7-0.7,0.9c-0.3,0.2-0.6,0.3-1,0.3C80.9,14.7,80.6,14.6,80.3,14.5z"/>
	<path class="st0" d="M90.6,8.8V7.6h3.7v1.2H90.6z"/>
	<path class="st0" d="M7,13.7v-1h87.7v1H7z"/>
</g>
<g class="st1">
	<path class="st0" d="M94.8,13.7v-1h3v1H94.8z"/>
</g>
<g class="st1">
	<path class="st0" d="M97.8,11.8l3.8-9.8h1.4l4,9.8h-1.5l-1.1-3h-4.1l-1.1,3H97.8z M100.6,7.7h3.3l-1-2.7c-0.3-0.8-0.5-1.5-0.7-2
		c-0.1,0.6-0.3,1.3-0.5,1.9L100.6,7.7z"/>
	<path class="st0" d="M107.8,11.8V2h1.2v9.8H107.8z"/>
	<path class="st0" d="M110.9,11.8V2h1.2v9.8H110.9z"/>
	<path class="st0" d="M117.8,11.8V4.7h1.1v1.1c0.3-0.5,0.5-0.8,0.8-1c0.2-0.2,0.5-0.2,0.8-0.2c0.4,0,0.8,0.1,1.2,0.4l-0.5,1
		c-0.3-0.2-0.6-0.3-0.9-0.3s-0.5,0.1-0.7,0.2c-0.2,0.2-0.4,0.4-0.4,0.7C119,7.1,119,7.5,119,8.1v3.7H117.8z"/>
	<path class="st0" d="M127.2,9.5l1.2,0.2c-0.2,0.7-0.6,1.3-1.1,1.7s-1.2,0.6-2,0.6c-1,0-1.9-0.3-2.5-1c-0.6-0.6-0.9-1.5-0.9-2.7
		s0.3-2.1,0.9-2.8s1.4-1,2.4-1s1.7,0.3,2.3,1c0.6,0.6,0.9,1.6,0.9,2.7c0,0.1,0,0.2,0,0.3h-5.3c0,0.8,0.3,1.4,0.7,1.8
		c0.4,0.4,0.9,0.6,1.5,0.6c0.4,0,0.8-0.1,1.1-0.3C126.8,10.4,127,10,127.2,9.5z M123.3,7.5h4c-0.1-0.6-0.2-1-0.5-1.3
		c-0.4-0.5-0.9-0.7-1.5-0.7s-1,0.2-1.4,0.6C123.5,6.4,123.3,6.9,123.3,7.5z"/>
	<path class="st0" d="M134.6,11.8v-0.9c-0.5,0.7-1.1,1.1-2,1.1c-0.6,0-1.1-0.2-1.6-0.5s-0.8-0.7-1.1-1.3s-0.4-1.2-0.4-1.9
		s0.1-1.4,0.4-1.9c0.2-0.6,0.6-1,1.1-1.3c0.5-0.3,1-0.5,1.6-0.5c0.4,0,0.8,0.1,1.1,0.3s0.6,0.4,0.8,0.7V2h1.2v9.8H134.6z M130.8,8.2
		c0,0.9,0.2,1.6,0.6,2c0.4,0.5,0.8,0.7,1.4,0.7c0.5,0,1-0.2,1.3-0.6c0.4-0.4,0.6-1.1,0.6-2c0-1-0.2-1.7-0.6-2.1
		c-0.4-0.5-0.8-0.7-1.4-0.7c-0.5,0-1,0.2-1.3,0.7C131,6.6,130.8,7.3,130.8,8.2z"/>
	<path class="st0" d="M142.7,11.8l-2.2-7.1h1.2l1.1,4.1l0.4,1.5c0-0.1,0.1-0.6,0.4-1.5l1.1-4.2h1.2l1.1,4.1l0.4,1.4l0.4-1.4l1.2-4.1
		h1.2l-2.2,7.1h-1.3l-1.1-4.3l-0.3-1.2l-1.4,5.5L142.7,11.8L142.7,11.8z"/>
	<path class="st0" d="M151.3,3.3V2h1.2v1.4h-1.2V3.3z M151.3,11.8V4.7h1.2v7.1C152.5,11.8,151.3,11.8,151.3,11.8z"/>
	<path class="st0" d="M154.4,11.8V4.7h1.1v1c0.5-0.8,1.3-1.2,2.3-1.2c0.4,0,0.8,0.1,1.2,0.2c0.4,0.2,0.6,0.4,0.8,0.6
		s0.3,0.5,0.4,0.9c0,0.2,0.1,0.6,0.1,1.2v4.4h-1.2V7.5c0-0.5,0-0.9-0.1-1.1s-0.3-0.4-0.5-0.6c-0.2-0.1-0.5-0.2-0.8-0.2
		c-0.5,0-1,0.2-1.3,0.5S155.8,7,155.8,8v3.9L154.4,11.8L154.4,11.8z"/>
	<path class="st0" d="M166.9,9.5l1.2,0.2c-0.2,0.7-0.6,1.3-1.1,1.7s-1.2,0.6-2,0.6c-1,0-1.9-0.3-2.5-1c-0.6-0.6-0.9-1.5-0.9-2.7
		s0.3-2.1,0.9-2.8c0.6-0.7,1.4-1,2.4-1s1.7,0.3,2.3,1s0.9,1.6,0.9,2.7c0,0.1,0,0.2,0,0.3h-5.3c0,0.8,0.3,1.4,0.7,1.8
		c0.4,0.4,0.9,0.6,1.5,0.6c0.4,0,0.8-0.1,1.1-0.3C166.4,10.4,166.7,10,166.9,9.5z M162.9,7.5h4c-0.1-0.6-0.2-1-0.5-1.3
		c-0.4-0.5-0.9-0.7-1.5-0.7s-1,0.2-1.4,0.6C163.2,6.4,163,6.9,162.9,7.5z"/>
	<path class="st0" d="M169.1,9.7l1.2-0.2c0.1,0.5,0.3,0.8,0.6,1.1s0.7,0.4,1.3,0.4s1-0.1,1.2-0.3c0.3-0.2,0.4-0.5,0.4-0.8
		s-0.1-0.5-0.4-0.6c-0.2-0.1-0.6-0.2-1.2-0.4c-0.9-0.2-1.5-0.4-1.8-0.6s-0.6-0.4-0.8-0.7s-0.3-0.6-0.3-1c0-0.3,0.1-0.6,0.2-0.9
		c0.1-0.3,0.3-0.5,0.6-0.7c0.2-0.1,0.4-0.3,0.8-0.4c0.3-0.1,0.7-0.1,1-0.1c0.6,0,1,0.1,1.5,0.2s0.7,0.4,0.9,0.7s0.3,0.6,0.4,1.1
		l-1.2,0.2c-0.1-0.4-0.2-0.7-0.5-0.9s-0.6-0.3-1.1-0.3c-0.6,0-0.9,0.1-1.2,0.3c-0.2,0.2-0.4,0.4-0.4,0.6s0,0.3,0.1,0.4
		s0.3,0.2,0.5,0.3c0.1,0,0.5,0.1,1.1,0.3c0.9,0.2,1.4,0.4,1.8,0.6s0.6,0.4,0.8,0.6c0.2,0.3,0.3,0.6,0.3,1s-0.1,0.8-0.4,1.1
		c-0.2,0.4-0.6,0.6-1,0.8s-0.9,0.3-1.5,0.3c-0.9,0-1.6-0.2-2.1-0.6C169.6,11,169.3,10.4,169.1,9.7z"/>
	<path class="st0" d="M179.9,8.2c0-1.3,0.4-2.3,1.1-2.9c0.6-0.5,1.4-0.8,2.2-0.8c1,0,1.8,0.3,2.4,1c0.6,0.6,0.9,1.5,0.9,2.7
		c0,0.9-0.1,1.6-0.4,2.2c-0.3,0.5-0.7,0.9-1.2,1.2s-1.1,0.4-1.7,0.4c-1,0-1.8-0.3-2.4-1S179.9,9.4,179.9,8.2z M181.1,8.2
		c0,0.9,0.2,1.6,0.6,2s0.9,0.7,1.5,0.7s1.1-0.2,1.5-0.7s0.6-1.2,0.6-2.1s-0.2-1.5-0.6-2c-0.4-0.5-0.9-0.7-1.5-0.7s-1.1,0.2-1.5,0.7
		S181.1,7.3,181.1,8.2z"/>
	<path class="st0" d="M187.9,11.8V4.7h1.1v1c0.5-0.8,1.3-1.2,2.3-1.2c0.4,0,0.8,0.1,1.2,0.2c0.4,0.2,0.6,0.4,0.8,0.6
		s0.3,0.5,0.4,0.9c0,0.2,0.1,0.6,0.1,1.2v4.4h-1.2V7.5c0-0.5,0-0.9-0.1-1.1S192.2,6,192,5.8c-0.2-0.1-0.5-0.2-0.8-0.2
		c-0.5,0-1,0.2-1.3,0.5c-0.4,0.3-0.6,0.9-0.6,1.9v3.9L187.9,11.8L187.9,11.8z"/>
	<path class="st0" d="M198.9,9.7l1.2-0.2c0.1,0.5,0.3,0.8,0.6,1.1s0.7,0.4,1.3,0.4s1-0.1,1.2-0.3c0.3-0.2,0.4-0.5,0.4-0.8
		s-0.1-0.5-0.4-0.6c-0.2-0.1-0.6-0.2-1.2-0.4c-0.9-0.2-1.5-0.4-1.8-0.6s-0.6-0.4-0.8-0.7s-0.3-0.6-0.3-1c0-0.3,0.1-0.6,0.2-0.9
		c0.1-0.3,0.3-0.5,0.6-0.7c0.2-0.1,0.4-0.3,0.8-0.4c0.3-0.1,0.7-0.1,1-0.1c0.6,0,1,0.1,1.5,0.2s0.7,0.4,0.9,0.7s0.3,0.6,0.4,1.1
		l-1.2,0.2c-0.1-0.4-0.2-0.7-0.5-0.9s-0.6-0.3-1.1-0.3c-0.6,0-0.9,0.1-1.2,0.3c-0.2,0.2-0.4,0.4-0.4,0.6s0,0.3,0.1,0.4
		s0.3,0.2,0.5,0.3c0.1,0,0.5,0.1,1.1,0.3c0.9,0.2,1.4,0.4,1.8,0.6s0.6,0.4,0.8,0.6c0.2,0.3,0.3,0.6,0.3,1s-0.1,0.8-0.4,1.1
		c-0.2,0.4-0.6,0.6-1,0.8s-0.9,0.3-1.5,0.3c-0.9,0-1.6-0.2-2.1-0.6C199.3,11,199,10.4,198.9,9.7z"/>
	<path class="st0" d="M210.9,10.9c-0.4,0.4-0.9,0.6-1.3,0.8s-0.9,0.2-1.3,0.2c-0.8,0-1.4-0.2-1.8-0.6s-0.6-0.9-0.6-1.5
		c0-0.3,0.1-0.7,0.2-1c0.2-0.3,0.4-0.5,0.6-0.7c0.3-0.2,0.5-0.3,0.9-0.4c0.2-0.1,0.6-0.1,1.1-0.2c1-0.1,1.7-0.3,2.2-0.4
		c0-0.2,0-0.3,0-0.3c0-0.5-0.1-0.8-0.3-1c-0.3-0.3-0.8-0.4-1.4-0.4c-0.6,0-1,0.1-1.3,0.3c-0.3,0.2-0.5,0.6-0.6,1.1L206,6.7
		c0.1-0.5,0.3-0.9,0.5-1.2c0.2-0.3,0.6-0.5,1.1-0.7s1-0.3,1.6-0.3s1.1,0.1,1.5,0.2s0.7,0.3,0.8,0.5s0.3,0.5,0.4,0.8
		c0,0.2,0.1,0.6,0.1,1.1v1.6c0,1.1,0,1.8,0.1,2.1c0.1,0.3,0.2,0.6,0.3,0.9h-1.3C211,11.5,210.9,11.2,210.9,10.9z M210.8,8.2
		c-0.4,0.2-1.1,0.3-2,0.5c-0.5,0.1-0.8,0.2-1.1,0.2c-0.2,0.1-0.4,0.2-0.5,0.4S207,9.7,207,9.9c0,0.3,0.1,0.6,0.4,0.8
		c0.2,0.2,0.6,0.3,1.1,0.3s0.9-0.1,1.2-0.3c0.4-0.2,0.6-0.5,0.8-0.8c0.1-0.3,0.2-0.7,0.2-1.2V8.2H210.8z"/>
	<path class="st0" d="M213.8,11.8V2h1.2v9.8H213.8z"/>
	<path class="st0" d="M221.8,9.5l1.2,0.2c-0.2,0.7-0.6,1.3-1.1,1.7s-1.2,0.6-2,0.6c-1,0-1.9-0.3-2.5-1c-0.6-0.6-0.9-1.5-0.9-2.7
		s0.3-2.1,0.9-2.8c0.6-0.7,1.4-1,2.4-1s1.7,0.3,2.3,1s0.9,1.6,0.9,2.7c0,0.1,0,0.2,0,0.3h-5.3c0,0.8,0.3,1.4,0.7,1.8
		c0.4,0.4,0.9,0.6,1.5,0.6c0.4,0,0.8-0.1,1.1-0.3C221.4,10.4,221.6,10,221.8,9.5z M217.8,7.5h4c-0.1-0.6-0.2-1-0.5-1.3
		c-0.4-0.5-0.9-0.7-1.5-0.7s-1,0.2-1.4,0.6C218.1,6.4,217.9,6.9,217.8,7.5z"/>
	<path class="st0" d="M225.2,9.3l-0.4-5.2V2h1.5v2.2L226,9.3H225.2z M224.9,11.8v-1.4h1.4v1.4H224.9z"/>
	<path class="st0" d="M97.8,13.7v-1h129.6v1H97.8z"/>
</g>
<g class="st1">
	<path class="st2" d="M30.1,27.3l0.9,0.1c-0.1,0.7-0.4,1.2-0.8,1.5c-0.4,0.4-1,0.6-1.6,0.6c-0.8,0-1.4-0.3-1.9-0.8S26,27.5,26,26.5
		c0-0.6,0.1-1.2,0.3-1.6s0.5-0.8,0.9-1s0.9-0.3,1.4-0.3c0.6,0,1.1,0.2,1.5,0.5s0.6,0.8,0.8,1.3L30,25.5c-0.1-0.4-0.2-0.7-0.5-0.9
		c-0.2-0.2-0.5-0.3-0.8-0.3c-0.5,0-0.9,0.2-1.2,0.5S27,25.7,27,26.5c0,0.8,0.1,1.3,0.4,1.7s0.7,0.5,1.1,0.5s0.7-0.1,0.9-0.3
		C29.9,28.2,30,27.8,30.1,27.3z"/>
	<path class="st2" d="M31.5,26.6c0-1.1,0.3-1.8,0.9-2.3c0.5-0.4,1.1-0.6,1.8-0.6c0.8,0,1.4,0.3,1.9,0.8s0.7,1.2,0.7,2.1
		c0,0.7-0.1,1.3-0.3,1.7c-0.2,0.4-0.5,0.7-1,1s-0.9,0.3-1.4,0.3c-0.8,0-1.4-0.3-1.9-0.8C31.7,28.3,31.5,27.5,31.5,26.6z M32.5,26.6
		c0,0.7,0.2,1.3,0.5,1.6c0.3,0.4,0.7,0.5,1.2,0.5s0.9-0.2,1.2-0.5c0.3-0.4,0.5-0.9,0.5-1.7c0-0.7-0.2-1.2-0.5-1.6s-0.7-0.5-1.2-0.5
		s-0.9,0.2-1.2,0.5C32.6,25.3,32.5,25.8,32.5,26.6z"/>
	<path class="st2" d="M38,29.4v-7.9h1v2.8c0.5-0.5,1-0.8,1.7-0.8c0.4,0,0.8,0.1,1.1,0.2s0.5,0.4,0.7,0.7c0.1,0.3,0.2,0.7,0.2,1.3
		v3.6h-1v-3.6c0-0.5-0.1-0.8-0.3-1.1c-0.2-0.2-0.5-0.3-0.9-0.3c-0.3,0-0.6,0.1-0.8,0.2s-0.4,0.3-0.5,0.6S39,25.7,39,26.2v3.1
		L38,29.4L38,29.4z"/>
	<path class="st2" d="M43.7,26.6c0-1.1,0.3-1.8,0.9-2.3c0.5-0.4,1.1-0.6,1.8-0.6c0.8,0,1.4,0.3,1.9,0.8s0.7,1.2,0.7,2.1
		c0,0.7-0.1,1.3-0.3,1.7c-0.2,0.4-0.5,0.7-1,1s-0.9,0.3-1.4,0.3c-0.8,0-1.4-0.3-1.9-0.8C44,28.3,43.7,27.5,43.7,26.6z M44.7,26.6
		c0,0.7,0.2,1.3,0.5,1.6c0.3,0.4,0.7,0.5,1.2,0.5s0.9-0.2,1.2-0.5c0.3-0.4,0.5-0.9,0.5-1.7c0-0.7-0.2-1.2-0.5-1.6s-0.7-0.5-1.2-0.5
		s-0.9,0.2-1.2,0.5C44.9,25.3,44.7,25.8,44.7,26.6z"/>
	<path class="st2" d="M51.2,29.4l-1.7-5.7h1l0.9,3.3l0.3,1.2c0-0.1,0.1-0.5,0.3-1.2l0.9-3.3h1l0.9,3.3l0.3,1.1l0.3-1.1l1-3.3h0.9
		l-1.8,5.7h-1L53.6,26l-0.2-1l-1.2,4.4H51.2z"/>
	<path class="st2" d="M58.1,22.7v-1.1h1v1.1H58.1z M58.1,29.4v-5.7h1v5.7C59.1,29.4,58.1,29.4,58.1,29.4z"/>
	<path class="st2" d="M60.5,29.4v-5.7h0.9v0.8c0.4-0.6,1-0.9,1.8-0.9c0.3,0,0.7,0.1,0.9,0.2c0.3,0.1,0.5,0.3,0.6,0.5
		s0.2,0.4,0.3,0.7c0,0.2,0.1,0.5,0.1,0.9v3.5h-1v-3.5c0-0.4,0-0.7-0.1-0.9c-0.1-0.2-0.2-0.3-0.4-0.5s-0.4-0.2-0.7-0.2
		c-0.4,0-0.8,0.1-1.1,0.4s-0.4,0.8-0.4,1.5v3.1L60.5,29.4L60.5,29.4z"/>
	<path class="st2" d="M70.5,27.6l1,0.1c-0.2,0.6-0.4,1-0.9,1.4c-0.4,0.3-1,0.5-1.6,0.5c-0.8,0-1.5-0.3-2-0.8s-0.7-1.2-0.7-2.2
		s0.2-1.7,0.7-2.2s1.1-0.8,1.9-0.8s1.4,0.3,1.9,0.8s0.7,1.2,0.7,2.2c0,0.1,0,0.1,0,0.3h-4.2c0,0.6,0.2,1.1,0.5,1.4s0.7,0.5,1.2,0.5
		c0.4,0,0.7-0.1,0.9-0.3C70.2,28.3,70.4,28,70.5,27.6z M67.4,26h3.2c0-0.5-0.2-0.8-0.4-1.1c-0.3-0.4-0.7-0.6-1.2-0.6
		c-0.4,0-0.8,0.1-1.1,0.4C67.6,25.1,67.4,25.5,67.4,26z"/>
	<path class="st2" d="M72.7,29.4v-5.7h0.9v0.9c0.2-0.4,0.4-0.7,0.6-0.8c0.2-0.1,0.4-0.2,0.6-0.2c0.3,0,0.7,0.1,1,0.3l-0.3,0.9
		c-0.2-0.1-0.5-0.2-0.7-0.2s-0.4,0.1-0.6,0.2s-0.3,0.3-0.4,0.5c-0.1,0.3-0.2,0.7-0.2,1.1v3H72.7z"/>
</g>
<g class="st1">
	<path class="st2" d="M76.4,31.6l-0.1-0.9c0.2,0.1,0.4,0.1,0.6,0.1s0.4,0,0.5-0.1s0.2-0.2,0.3-0.3c0.1-0.1,0.2-0.3,0.3-0.7
		c0-0.1,0-0.1,0.1-0.2l-2.2-5.7h1l1.2,3.3c0.2,0.4,0.3,0.9,0.4,1.3c0.1-0.4,0.2-0.9,0.4-1.3l1.2-3.3h1l-2.2,5.8
		c-0.2,0.6-0.4,1.1-0.5,1.3c-0.2,0.3-0.4,0.6-0.6,0.7s-0.5,0.2-0.8,0.2C76.8,31.7,76.6,31.7,76.4,31.6z"/>
</g>
<g class="st1">
	<path class="st2" d="M81.4,29.4v-1.1h1.1v1.1H81.4z"/>
	<path class="st2" d="M87.8,27.3l0.9,0.1c-0.1,0.7-0.4,1.2-0.8,1.5c-0.4,0.4-1,0.6-1.6,0.6c-0.8,0-1.4-0.3-1.9-0.8s-0.7-1.2-0.7-2.2
		c0-0.6,0.1-1.2,0.3-1.6s0.5-0.8,0.9-1s0.9-0.3,1.4-0.3c0.6,0,1.1,0.2,1.5,0.5s0.6,0.8,0.8,1.3l-0.9,0.1c-0.1-0.4-0.2-0.7-0.5-0.9
		c-0.2-0.2-0.5-0.3-0.8-0.3c-0.5,0-0.9,0.2-1.2,0.5s-0.5,0.9-0.5,1.7c0,0.8,0.1,1.3,0.4,1.7s0.7,0.5,1.1,0.5s0.7-0.1,0.9-0.3
		C87.6,28.2,87.8,27.8,87.8,27.3z"/>
	<path class="st2" d="M89.3,26.6c0-1.1,0.3-1.8,0.9-2.3c0.5-0.4,1.1-0.6,1.8-0.6c0.8,0,1.4,0.3,1.9,0.8s0.7,1.2,0.7,2.1
		c0,0.7-0.1,1.3-0.3,1.7c-0.2,0.4-0.5,0.7-1,1s-0.9,0.3-1.4,0.3c-0.8,0-1.4-0.3-1.9-0.8C89.5,28.3,89.3,27.5,89.3,26.6z M90.3,26.6
		c0,0.7,0.2,1.3,0.5,1.6c0.3,0.4,0.7,0.5,1.2,0.5s0.9-0.2,1.2-0.5c0.3-0.4,0.5-0.9,0.5-1.7c0-0.7-0.2-1.2-0.5-1.6s-0.7-0.5-1.2-0.5
		s-0.9,0.2-1.2,0.5C90.4,25.3,90.3,25.8,90.3,26.6z"/>
	<path class="st2" d="M95.7,29.4v-5.7h0.9v0.8c0.2-0.3,0.4-0.5,0.7-0.7c0.3-0.2,0.6-0.3,1-0.3s0.8,0.1,1,0.3s0.5,0.4,0.6,0.7
		c0.5-0.7,1-1,1.8-1c0.6,0,1,0.2,1.3,0.5s0.5,0.8,0.5,1.4v3.9h-1v-3.6c0-0.4,0-0.7-0.1-0.8c-0.1-0.2-0.2-0.3-0.3-0.4
		c-0.2-0.1-0.4-0.2-0.6-0.2c-0.4,0-0.7,0.1-1,0.4s-0.4,0.7-0.4,1.3v3.3h-1v-3.7c0-0.4-0.1-0.8-0.2-1c-0.2-0.2-0.4-0.3-0.8-0.3
		c-0.3,0-0.5,0.1-0.8,0.2S97,25,96.9,25.3s-0.2,0.7-0.2,1.2v3h-1V29.4z"/>
	<path class="st2" d="M107.6,27.1v-1h3v1H107.6z"/>
	<path class="st2" d="M114.4,25.6c0-1.3,0.4-2.3,1.1-3.1c0.7-0.7,1.6-1.1,2.7-1.1c0.7,0,1.4,0.2,2,0.5s1,0.8,1.3,1.5
		c0.3,0.6,0.5,1.3,0.5,2.1c0,0.8-0.2,1.5-0.5,2.1s-0.8,1.1-1.4,1.4s-1.2,0.5-1.9,0.5c-0.7,0-1.4-0.2-2-0.5s-1-0.8-1.3-1.5
		C114.6,26.9,114.4,26.3,114.4,25.6z M115.5,25.6c0,0.9,0.3,1.7,0.8,2.2s1.1,0.8,1.9,0.8s1.4-0.3,1.9-0.8s0.8-1.3,0.8-2.3
		c0-0.6-0.1-1.2-0.3-1.7c-0.2-0.5-0.5-0.8-0.9-1.1s-0.9-0.4-1.4-0.4c-0.7,0-1.4,0.3-1.9,0.8S115.5,24.4,115.5,25.6z"/>
</g>
<g class="st1">
	<path class="st2" d="M123.4,29.4v-4.9h-0.9v-0.8h0.9v-0.6c0-0.4,0-0.7,0.1-0.9c0.1-0.2,0.3-0.5,0.5-0.6c0.2-0.2,0.6-0.2,1-0.2
		c0.3,0,0.6,0,0.9,0.1l-0.1,0.8c-0.2,0-0.4-0.1-0.6-0.1c-0.3,0-0.5,0.1-0.6,0.2s-0.2,0.4-0.2,0.7v0.5h1.1v0.8h-1.1v4.9h-1V29.4z"/>
</g>
<g class="st1">
	<path class="st2" d="M126.3,29.4v-4.9h-0.9v-0.8h0.9v-0.6c0-0.4,0-0.7,0.1-0.9c0.1-0.2,0.3-0.5,0.5-0.6c0.2-0.2,0.6-0.2,1-0.2
		c0.3,0,0.6,0,0.9,0.1l-0.1,0.8c-0.2,0-0.4-0.1-0.6-0.1c-0.3,0-0.5,0.1-0.6,0.2s-0.2,0.4-0.2,0.7v0.5h1.1v0.8h-1.1v4.9h-1V29.4z"/>
	<path class="st2" d="M129.1,22.7v-1.1h1v1.1H129.1z M129.1,29.4v-5.7h1v5.7C130.1,29.4,129.1,29.4,129.1,29.4z"/>
	<path class="st2" d="M135.2,27.3l0.9,0.1c-0.1,0.7-0.4,1.2-0.8,1.5c-0.4,0.4-1,0.6-1.6,0.6c-0.8,0-1.4-0.3-1.9-0.8
		s-0.7-1.2-0.7-2.2c0-0.6,0.1-1.2,0.3-1.6s0.5-0.8,0.9-1s0.9-0.3,1.4-0.3c0.6,0,1.1,0.2,1.5,0.5s0.6,0.8,0.8,1.3l-0.9,0.1
		c-0.1-0.4-0.2-0.7-0.5-0.9c-0.2-0.2-0.5-0.3-0.8-0.3c-0.5,0-0.9,0.2-1.2,0.5s-0.5,0.9-0.5,1.7c0,0.8,0.1,1.3,0.4,1.7
		s0.7,0.5,1.1,0.5c0.4,0,0.7-0.1,0.9-0.3C135,28.2,135.2,27.8,135.2,27.3z"/>
	<path class="st2" d="M137,22.7v-1.1h1v1.1H137z M137,29.4v-5.7h1v5.7C138,29.4,137,29.4,137,29.4z"/>
	<path class="st2" d="M143.2,28.7c-0.4,0.3-0.7,0.5-1,0.6s-0.7,0.2-1.1,0.2c-0.6,0-1.1-0.2-1.4-0.5s-0.5-0.7-0.5-1.2
		c0-0.3,0.1-0.5,0.2-0.8c0.1-0.2,0.3-0.4,0.5-0.6c0.2-0.1,0.4-0.2,0.7-0.3c0.2,0,0.5-0.1,0.9-0.1c0.8-0.1,1.4-0.2,1.7-0.3
		c0-0.1,0-0.2,0-0.3c0-0.4-0.1-0.7-0.3-0.8c-0.2-0.2-0.6-0.3-1.1-0.3s-0.8,0.1-1,0.2s-0.4,0.4-0.5,0.8l-0.9-0.1
		c0.1-0.4,0.2-0.7,0.4-1c0.2-0.2,0.5-0.4,0.9-0.6c0.4-0.1,0.8-0.2,1.3-0.2s0.9,0.1,1.2,0.2s0.5,0.3,0.7,0.4c0.1,0.2,0.2,0.4,0.3,0.7
		c0,0.2,0,0.5,0,0.9V27c0,0.9,0,1.5,0.1,1.7s0.1,0.5,0.2,0.7h-1C143.3,29.2,143.2,29,143.2,28.7z M143.1,26.6
		c-0.4,0.1-0.9,0.3-1.6,0.4c-0.4,0.1-0.7,0.1-0.8,0.2c-0.2,0.1-0.3,0.2-0.4,0.3s-0.1,0.3-0.1,0.5c0,0.3,0.1,0.5,0.3,0.6
		s0.5,0.3,0.9,0.3s0.7-0.1,1-0.2c0.3-0.2,0.5-0.4,0.6-0.7c0.1-0.2,0.2-0.5,0.2-1L143.1,26.6L143.1,26.6z"/>
	<path class="st2" d="M145.5,29.4v-7.9h1v7.9H145.5z"/>
	<path class="st2" d="M150.7,27.7l1-0.2c0.1,0.4,0.2,0.7,0.4,0.9c0.2,0.2,0.6,0.3,1,0.3s0.8-0.1,1-0.3c0.2-0.2,0.3-0.4,0.3-0.6
		s-0.1-0.4-0.3-0.5c-0.1-0.1-0.5-0.2-1-0.3c-0.7-0.2-1.2-0.3-1.5-0.5c-0.3-0.1-0.5-0.3-0.6-0.5s-0.2-0.5-0.2-0.8s0.1-0.5,0.2-0.7
		c0.1-0.2,0.3-0.4,0.5-0.5s0.4-0.2,0.6-0.3c0.3-0.1,0.5-0.1,0.8-0.1c0.4,0,0.8,0.1,1.2,0.2c0.3,0.1,0.6,0.3,0.7,0.5
		c0.2,0.2,0.3,0.5,0.3,0.9l-0.9,0.1c0-0.3-0.2-0.5-0.4-0.7s-0.5-0.2-0.9-0.2s-0.8,0.1-0.9,0.2c-0.2,0.1-0.3,0.3-0.3,0.5
		c0,0.1,0,0.2,0.1,0.3c0.1,0.1,0.2,0.2,0.4,0.3c0.1,0,0.4,0.1,0.9,0.2c0.7,0.2,1.2,0.3,1.4,0.4c0.3,0.1,0.5,0.3,0.6,0.5
		c0.2,0.2,0.2,0.5,0.2,0.8s-0.1,0.6-0.3,0.9s-0.5,0.5-0.8,0.7c-0.4,0.2-0.8,0.2-1.2,0.2c-0.7,0-1.3-0.2-1.7-0.5
		C151,28.8,150.8,28.3,150.7,27.7z"/>
	<path class="st2" d="M156.5,22.7v-1.1h1v1.1H156.5z M156.5,29.4v-5.7h1v5.7C157.5,29.4,156.5,29.4,156.5,29.4z"/>
	<path class="st2" d="M161.1,28.5l0.1,0.9c-0.3,0.1-0.5,0.1-0.7,0.1c-0.4,0-0.6-0.1-0.8-0.2s-0.3-0.3-0.4-0.4
		c-0.1-0.2-0.1-0.6-0.1-1.1v-3.3h-0.7v-0.8h0.7v-1.4l1-0.6v2h1v0.8h-1v3.3c0,0.3,0,0.5,0.1,0.5c0,0.1,0.1,0.1,0.2,0.2
		c0.1,0,0.2,0.1,0.3,0.1C160.8,28.6,160.9,28.6,161.1,28.5z"/>
	<path class="st2" d="M165.9,27.6l1,0.1c-0.2,0.6-0.4,1-0.9,1.4c-0.4,0.3-1,0.5-1.6,0.5c-0.8,0-1.5-0.3-2-0.8s-0.7-1.2-0.7-2.2
		s0.2-1.7,0.7-2.2s1.1-0.8,1.9-0.8c0.8,0,1.4,0.3,1.9,0.8s0.7,1.2,0.7,2.2c0,0.1,0,0.1,0,0.3h-4.2c0,0.6,0.2,1.1,0.5,1.4
		s0.7,0.5,1.2,0.5c0.4,0,0.7-0.1,0.9-0.3C165.6,28.3,165.8,28,165.9,27.6z M162.7,26h3.2c0-0.5-0.2-0.8-0.4-1.1
		c-0.3-0.4-0.7-0.6-1.2-0.6c-0.4,0-0.8,0.1-1.1,0.4S162.8,25.5,162.7,26z"/>
</g>
<g class="st1">
	<path class="st3" d="M180,26.7l1,0.3c-0.2,0.9-0.6,1.5-1.2,2c-0.6,0.4-1.3,0.7-2.1,0.7s-1.5-0.2-2.1-0.5c-0.5-0.3-0.9-0.8-1.2-1.5
		s-0.4-1.4-0.4-2.1c0-0.8,0.2-1.5,0.5-2.1s0.8-1.1,1.3-1.4c0.6-0.3,1.2-0.5,1.9-0.5c0.8,0,1.4,0.2,2,0.6c0.5,0.4,0.9,1,1.1,1.7
		l-1,0.2c-0.2-0.6-0.4-1-0.8-1.2c-0.3-0.3-0.8-0.4-1.3-0.4c-0.6,0-1.1,0.1-1.5,0.4s-0.7,0.7-0.9,1.2s-0.2,1-0.2,1.5
		c0,0.7,0.1,1.3,0.3,1.8s0.5,0.9,0.9,1.1s0.9,0.4,1.3,0.4c0.6,0,1.1-0.2,1.5-0.5S179.8,27.3,180,26.7z"/>
	<path class="st3" d="M181.8,26.6c0-1.1,0.3-1.8,0.9-2.3c0.5-0.4,1.1-0.6,1.8-0.6c0.8,0,1.4,0.3,1.9,0.8s0.7,1.2,0.7,2.1
		c0,0.7-0.1,1.3-0.3,1.7c-0.2,0.4-0.5,0.7-1,1s-0.9,0.3-1.4,0.3c-0.8,0-1.4-0.3-1.9-0.8C182,28.3,181.8,27.5,181.8,26.6z
		 M182.8,26.6c0,0.7,0.2,1.3,0.5,1.6c0.3,0.4,0.7,0.5,1.2,0.5s0.9-0.2,1.2-0.5c0.3-0.4,0.5-0.9,0.5-1.7c0-0.7-0.2-1.2-0.5-1.6
		s-0.7-0.5-1.2-0.5s-0.9,0.2-1.2,0.5C182.9,25.3,182.8,25.8,182.8,26.6z"/>
	<path class="st3" d="M188.3,29.4v-7.9h1v2.8c0.5-0.5,1-0.8,1.7-0.8c0.4,0,0.8,0.1,1.1,0.2c0.3,0.2,0.5,0.4,0.7,0.7s0.2,0.7,0.2,1.3
		v3.6h-1v-3.6c0-0.5-0.1-0.8-0.3-1.1c-0.2-0.2-0.5-0.3-0.9-0.3c-0.3,0-0.6,0.1-0.8,0.2s-0.4,0.3-0.5,0.6s-0.2,0.6-0.2,1.1v3.1
		L188.3,29.4L188.3,29.4z"/>
	<path class="st3" d="M194,26.6c0-1.1,0.3-1.8,0.9-2.3c0.5-0.4,1.1-0.6,1.8-0.6c0.8,0,1.4,0.3,1.9,0.8s0.7,1.2,0.7,2.1
		c0,0.7-0.1,1.3-0.3,1.7c-0.2,0.4-0.5,0.7-1,1s-0.9,0.3-1.4,0.3c-0.8,0-1.4-0.3-1.9-0.8C194.3,28.3,194,27.5,194,26.6z M195,26.6
		c0,0.7,0.2,1.3,0.5,1.6c0.3,0.4,0.7,0.5,1.2,0.5s0.9-0.2,1.2-0.5c0.3-0.4,0.5-0.9,0.5-1.7c0-0.7-0.2-1.2-0.5-1.6s-0.7-0.5-1.2-0.5
		s-0.9,0.2-1.2,0.5C195.2,25.3,195,25.8,195,26.6z"/>
	<path class="st3" d="M205,29.4l-2.1-7.9h1.1l1.2,5.2c0.1,0.5,0.2,1.1,0.3,1.6c0.2-0.8,0.3-1.3,0.4-1.5l1.5-5.3h1.3l1.1,4
		c0.3,1,0.5,1.9,0.6,2.8c0.1-0.5,0.2-1.1,0.4-1.7l1.2-5h1l-2.2,7.9h-1l-1.7-6c-0.1-0.5-0.2-0.8-0.2-0.9c-0.1,0.4-0.2,0.7-0.2,0.9
		l-1.7,6L205,29.4L205,29.4z"/>
	<path class="st3" d="M213.9,22.7v-1.1h1v1.1H213.9z M213.9,29.4v-5.7h1v5.7C214.9,29.4,213.9,29.4,213.9,29.4z"/>
	<path class="st3" d="M216.3,29.4v-5.7h0.9v0.8c0.4-0.6,1-0.9,1.8-0.9c0.3,0,0.7,0.1,0.9,0.2c0.3,0.1,0.5,0.3,0.6,0.5
		s0.2,0.4,0.3,0.7c0,0.2,0.1,0.5,0.1,0.9v3.5h-1v-3.5c0-0.4,0-0.7-0.1-0.9c-0.1-0.2-0.2-0.3-0.4-0.5s-0.4-0.2-0.7-0.2
		c-0.4,0-0.8,0.1-1.1,0.4s-0.4,0.8-0.4,1.5v3.1L216.3,29.4L216.3,29.4z"/>
	<path class="st3" d="M226.3,27.6l1,0.1c-0.2,0.6-0.4,1-0.9,1.4c-0.4,0.3-1,0.5-1.6,0.5c-0.8,0-1.5-0.3-2-0.8s-0.7-1.2-0.7-2.2
		s0.2-1.7,0.7-2.2s1.1-0.8,1.9-0.8c0.8,0,1.4,0.3,1.9,0.8s0.7,1.2,0.7,2.2c0,0.1,0,0.1,0,0.3h-4.2c0,0.6,0.2,1.1,0.5,1.4
		s0.7,0.5,1.2,0.5c0.4,0,0.7-0.1,0.9-0.3C226,28.3,226.2,28,226.3,27.6z M223.2,26h3.2c0-0.5-0.2-0.8-0.4-1.1
		c-0.3-0.4-0.7-0.6-1.2-0.6c-0.4,0-0.8,0.1-1.1,0.4S223.2,25.5,223.2,26z"/>
	<path class="st3" d="M228.5,29.4v-5.7h0.9v0.9c0.2-0.4,0.4-0.7,0.6-0.8c0.2-0.1,0.4-0.2,0.6-0.2c0.3,0,0.7,0.1,1,0.3l-0.3,0.9
		c-0.2-0.1-0.5-0.2-0.7-0.2s-0.4,0.1-0.6,0.2s-0.3,0.3-0.4,0.5c-0.1,0.3-0.2,0.7-0.2,1.1v3H228.5z"/>
</g>
<g class="st1">
	<path class="st3" d="M232.2,31.6l-0.1-0.9c0.2,0.1,0.4,0.1,0.6,0.1c0.2,0,0.4,0,0.5-0.1s0.2-0.2,0.3-0.3c0.1-0.1,0.2-0.3,0.3-0.7
		c0-0.1,0-0.1,0.1-0.2l-2.2-5.7h1l1.2,3.3c0.2,0.4,0.3,0.9,0.4,1.3c0.1-0.4,0.2-0.9,0.4-1.3l1.2-3.3h1l-2.2,5.8
		c-0.2,0.6-0.4,1.1-0.5,1.3c-0.2,0.3-0.4,0.6-0.6,0.7s-0.5,0.2-0.8,0.2C232.6,31.7,232.4,31.7,232.2,31.6z"/>
</g>
<g class="st1">
	<path class="st3" d="M237.1,29.4v-1.1h1.1v1.1c0,0.4-0.1,0.7-0.2,1c-0.1,0.2-0.4,0.4-0.7,0.6l-0.3-0.4c0.2-0.1,0.4-0.2,0.5-0.4
		c0.1-0.2,0.2-0.4,0.2-0.7h-0.6V29.4z"/>
	<path class="st3" d="M243.1,29.4v-7.9h1v6.9h3.9v0.9h-4.9V29.4z"/>
	<path class="st3" d="M249.2,29.4v-7.9h1v6.9h3.9v0.9h-4.9V29.4z"/>
	<path class="st3" d="M260.9,26.7l1,0.3c-0.2,0.9-0.6,1.5-1.2,2c-0.6,0.4-1.3,0.7-2.1,0.7c-0.8,0-1.5-0.2-2.1-0.5
		c-0.5-0.3-0.9-0.8-1.2-1.5s-0.4-1.4-0.4-2.1c0-0.8,0.2-1.5,0.5-2.1s0.8-1.1,1.3-1.4s1.2-0.5,1.9-0.5c0.8,0,1.4,0.2,2,0.6
		s0.9,1,1.1,1.7l-1,0.2c-0.2-0.6-0.4-1-0.8-1.2c-0.3-0.3-0.8-0.4-1.3-0.4c-0.6,0-1.1,0.1-1.5,0.4s-0.7,0.7-0.9,1.2
		c-0.2,0.5-0.2,1-0.2,1.5c0,0.7,0.1,1.3,0.3,1.8c0.2,0.5,0.5,0.9,0.9,1.1s0.9,0.4,1.3,0.4c0.6,0,1.1-0.2,1.5-0.5
		C260.5,27.8,260.8,27.3,260.9,26.7z"/>
</g>
<g class="st1">
	<path d="M7,47l3-7.9h1.1l3.2,7.9h-1.2l-0.9-2.4H9L8.1,47H7z M9.3,43.8H12l-0.8-2.2c-0.3-0.7-0.4-1.2-0.6-1.6
		c-0.1,0.5-0.2,1-0.4,1.5L9.3,43.8z"/>
	<path d="M15.1,47v-7.9h1V47H15.1z"/>
	<path d="M17.5,47v-7.9h1V47H17.5z"/>
	<path d="M23,47v-5.7h0.9v0.9c0.2-0.4,0.4-0.7,0.6-0.8s0.4-0.2,0.6-0.2c0.3,0,0.7,0.1,1,0.3l-0.3,0.9c-0.2-0.1-0.5-0.2-0.7-0.2
		s-0.4,0.1-0.6,0.2s-0.3,0.3-0.4,0.5C24,43.3,24,43.7,24,44.1v3L23,47L23,47z"/>
	<path d="M30.6,45.2l1,0.1c-0.2,0.6-0.4,1-0.9,1.4c-0.4,0.3-1,0.5-1.6,0.5c-0.8,0-1.5-0.3-2-0.8s-0.7-1.2-0.7-2.2s0.2-1.7,0.7-2.2
		s1.1-0.8,1.9-0.8s1.4,0.3,1.9,0.8s0.7,1.2,0.7,2.2c0,0.1,0,0.1,0,0.3h-4.2c0,0.6,0.2,1.1,0.5,1.4c0.3,0.3,0.7,0.5,1.2,0.5
		c0.4,0,0.7-0.1,0.9-0.3S30.4,45.6,30.6,45.2z M27.4,43.7h3.2c0-0.5-0.2-0.8-0.4-1.1C29.9,42.2,29.5,42,29,42
		c-0.4,0-0.8,0.1-1.1,0.4C27.6,42.8,27.4,43.2,27.4,43.7z"/>
	<path d="M36.5,47v-0.7c-0.4,0.6-0.9,0.8-1.6,0.8c-0.5,0-0.9-0.1-1.3-0.4c-0.4-0.2-0.7-0.6-0.9-1s-0.3-1-0.3-1.5
		c0-0.6,0.1-1.1,0.3-1.5c0.2-0.5,0.5-0.8,0.9-1.1c0.4-0.2,0.8-0.4,1.3-0.4c0.3,0,0.6,0.1,0.9,0.2s0.5,0.3,0.7,0.6v-2.8h1V47H36.5z
		 M33.4,44.2c0,0.7,0.2,1.3,0.5,1.6c0.3,0.4,0.7,0.5,1.1,0.5c0.4,0,0.8-0.2,1.1-0.5s0.4-0.9,0.4-1.6c0-0.8-0.1-1.4-0.5-1.7
		S35.4,42,34.9,42c-0.4,0-0.8,0.2-1.1,0.5C33.6,42.9,33.4,43.5,33.4,44.2z"/>
	<path d="M43,47l-1.7-5.7h1l0.9,3.3l0.3,1.2c0-0.1,0.1-0.5,0.3-1.2l0.9-3.3h1l0.9,3.3l0.3,1.1l0.3-1.1l1-3.3h0.9L47.3,47h-1
		l-0.9-3.4l-0.2-1L44,47H43z"/>
	<path d="M49.9,40.3v-1.1h1v1.1H49.9z M49.9,47v-5.7h1V47H49.9z"/>
	<path d="M52.3,47v-5.7h0.9v0.8c0.4-0.6,1-0.9,1.8-0.9c0.3,0,0.7,0.1,0.9,0.2c0.3,0.1,0.5,0.3,0.6,0.5s0.2,0.4,0.3,0.7
		c0,0.2,0.1,0.5,0.1,0.9V47h-1v-3.5c0-0.4,0-0.7-0.1-0.9s-0.2-0.3-0.4-0.5s-0.4-0.2-0.7-0.2c-0.4,0-0.8,0.1-1.1,0.4
		c-0.3,0.3-0.4,0.8-0.4,1.5V47H52.3z"/>
	<path d="M62.3,45.2l1,0.1c-0.2,0.6-0.4,1-0.9,1.4c-0.4,0.3-1,0.5-1.6,0.5c-0.8,0-1.5-0.3-2-0.8s-0.7-1.2-0.7-2.2s0.2-1.7,0.7-2.2
		s1.1-0.8,1.9-0.8c0.8,0,1.4,0.3,1.9,0.8s0.7,1.2,0.7,2.2c0,0.1,0,0.1,0,0.3h-4.2c0,0.6,0.2,1.1,0.5,1.4c0.3,0.3,0.7,0.5,1.2,0.5
		c0.4,0,0.7-0.1,0.9-0.3C62,45.9,62.2,45.6,62.3,45.2z M59.2,43.7h3.2c0-0.5-0.2-0.8-0.4-1.1c-0.3-0.4-0.7-0.6-1.2-0.6
		c-0.4,0-0.8,0.1-1.1,0.4C59.4,42.8,59.2,43.2,59.2,43.7z"/>
	<path d="M64.1,45.4l1-0.2c0.1,0.4,0.2,0.7,0.4,0.9c0.2,0.2,0.6,0.3,1,0.3s0.8-0.1,1-0.3s0.3-0.4,0.3-0.6c0-0.2-0.1-0.4-0.3-0.5
		c-0.1-0.1-0.5-0.2-1-0.3c-0.7-0.2-1.2-0.3-1.5-0.5c-0.3-0.1-0.5-0.3-0.6-0.5s-0.2-0.5-0.2-0.8s0.1-0.5,0.2-0.7s0.3-0.4,0.5-0.5
		c0.1-0.1,0.4-0.2,0.6-0.3s0.5-0.1,0.8-0.1c0.4,0,0.8,0.1,1.2,0.2c0.3,0.1,0.6,0.3,0.7,0.5c0.2,0.2,0.3,0.5,0.3,0.9L67.7,43
		c0-0.3-0.2-0.5-0.4-0.7S66.8,42,66.5,42c-0.4,0-0.8,0.1-0.9,0.2c-0.2,0.1-0.3,0.3-0.3,0.5c0,0.1,0,0.2,0.1,0.3s0.2,0.2,0.4,0.3
		c0.1,0,0.4,0.1,0.9,0.2c0.7,0.2,1.2,0.3,1.4,0.4c0.3,0.1,0.5,0.3,0.6,0.5s0.2,0.5,0.2,0.8s-0.1,0.6-0.3,0.9
		c-0.2,0.3-0.5,0.5-0.8,0.7S67,47,66.6,47c-0.7,0-1.3-0.2-1.7-0.5C64.5,46.4,64.2,46,64.1,45.4z"/>
	<path d="M72.7,44.2c0-1.1,0.3-1.8,0.9-2.3c0.5-0.4,1.1-0.6,1.8-0.6c0.8,0,1.4,0.3,1.9,0.8s0.7,1.2,0.7,2.1c0,0.7-0.1,1.3-0.3,1.7
		c-0.2,0.4-0.5,0.7-1,1s-0.9,0.3-1.4,0.3c-0.8,0-1.4-0.3-1.9-0.8C73,45.9,72.7,45.2,72.7,44.2z M73.7,44.2c0,0.7,0.2,1.3,0.5,1.6
		c0.3,0.4,0.7,0.5,1.2,0.5s0.9-0.2,1.2-0.5c0.3-0.4,0.5-0.9,0.5-1.7c0-0.7-0.2-1.2-0.5-1.6c-0.3-0.4-0.7-0.5-1.2-0.5
		s-0.9,0.2-1.2,0.5C73.9,42.9,73.7,43.5,73.7,44.2z"/>
	<path d="M79.2,47v-5.7H80v0.8c0.4-0.6,1-0.9,1.8-0.9c0.3,0,0.7,0.1,0.9,0.2c0.3,0.1,0.5,0.3,0.6,0.5s0.2,0.4,0.3,0.7
		c0,0.2,0.1,0.5,0.1,0.9V47h-1v-3.5c0-0.4,0-0.7-0.1-0.9s-0.2-0.3-0.4-0.5s-0.4-0.2-0.7-0.2c-0.4,0-0.8,0.1-1.1,0.4
		c-0.3,0.3-0.4,0.8-0.4,1.5V47H79.2z"/>
	<path d="M87.9,45.4l1-0.2c0.1,0.4,0.2,0.7,0.4,0.9c0.2,0.2,0.6,0.3,1,0.3s0.8-0.1,1-0.3s0.3-0.4,0.3-0.6c0-0.2-0.1-0.4-0.3-0.5
		c-0.1-0.1-0.5-0.2-1-0.3c-0.7-0.2-1.2-0.3-1.5-0.5c-0.3-0.1-0.5-0.3-0.6-0.5S88,43.2,88,42.9s0.1-0.5,0.2-0.7s0.3-0.4,0.5-0.5
		c0.1-0.1,0.4-0.2,0.6-0.3s0.5-0.1,0.8-0.1c0.4,0,0.8,0.1,1.2,0.2c0.3,0.1,0.6,0.3,0.7,0.5c0.2,0.2,0.3,0.5,0.3,0.9L91.5,43
		c0-0.3-0.2-0.5-0.4-0.7S90.6,42,90.3,42c-0.4,0-0.8,0.1-0.9,0.2c-0.2,0.1-0.3,0.3-0.3,0.5c0,0.1,0,0.2,0.1,0.3s0.2,0.2,0.4,0.3
		c0.1,0,0.4,0.1,0.9,0.2c0.7,0.2,1.2,0.3,1.4,0.4c0.3,0.1,0.5,0.3,0.6,0.5s0.2,0.5,0.2,0.8s-0.1,0.6-0.3,0.9
		c-0.2,0.3-0.5,0.5-0.8,0.7S90.8,47,90.4,47c-0.7,0-1.3-0.2-1.7-0.5C88.3,46.4,88.1,46,87.9,45.4z"/>
	<path d="M97.5,46.3c-0.4,0.3-0.7,0.5-1,0.6s-0.7,0.2-1.1,0.2c-0.6,0-1.1-0.2-1.4-0.5s-0.5-0.7-0.5-1.2c0-0.3,0.1-0.5,0.2-0.8
		c0.1-0.2,0.3-0.4,0.5-0.6c0.2-0.1,0.4-0.2,0.7-0.3c0.2,0,0.5-0.1,0.9-0.1c0.8-0.1,1.4-0.2,1.7-0.3c0-0.1,0-0.2,0-0.3
		c0-0.4-0.1-0.7-0.3-0.8c-0.2-0.2-0.6-0.3-1.1-0.3s-0.8,0.1-1,0.2s-0.4,0.4-0.5,0.8L93.7,43c0.1-0.4,0.2-0.7,0.4-1
		c0.2-0.2,0.5-0.4,0.9-0.6c0.4-0.1,0.8-0.2,1.3-0.2s0.9,0.1,1.2,0.2c0.3,0.1,0.5,0.3,0.7,0.4c0.1,0.2,0.2,0.4,0.3,0.7
		c0,0.2,0,0.5,0,0.9v1.3c0,0.9,0,1.5,0.1,1.7s0.1,0.5,0.2,0.7h-1C97.6,46.8,97.6,46.6,97.5,46.3z M97.5,44.2
		c-0.4,0.1-0.9,0.3-1.6,0.4c-0.4,0.1-0.7,0.1-0.8,0.2c-0.2,0.1-0.3,0.2-0.4,0.3s-0.1,0.3-0.1,0.5c0,0.3,0.1,0.5,0.3,0.6
		s0.5,0.3,0.9,0.3s0.7-0.1,1-0.2c0.3-0.2,0.5-0.4,0.6-0.7c0.1-0.2,0.2-0.5,0.2-1L97.5,44.2L97.5,44.2z"/>
	<path d="M99.9,47v-7.9h1V47H99.9z"/>
	<path d="M106.3,45.2l1,0.1c-0.2,0.6-0.4,1-0.9,1.4c-0.4,0.3-1,0.5-1.6,0.5c-0.8,0-1.5-0.3-2-0.8s-0.7-1.2-0.7-2.2s0.2-1.7,0.7-2.2
		s1.1-0.8,1.9-0.8s1.4,0.3,1.9,0.8s0.7,1.2,0.7,2.2c0,0.1,0,0.1,0,0.3H103c0,0.6,0.2,1.1,0.5,1.4c0.3,0.3,0.7,0.5,1.2,0.5
		c0.4,0,0.7-0.1,0.9-0.3C105.9,45.9,106.1,45.6,106.3,45.2z M103.1,43.7h3.2c0-0.5-0.2-0.8-0.4-1.1c-0.3-0.4-0.7-0.6-1.2-0.6
		c-0.4,0-0.8,0.1-1.1,0.4C103.3,42.8,103.1,43.2,103.1,43.7z"/>
	<path d="M109,45.1l-0.3-4.2v-1.7h1.2v1.7l-0.3,4.2H109z M108.7,47v-1h1.1v1H108.7z"/>
	<path d="M114.8,47v-7.9h5.3V40h-4.3v2.4h3.7v0.9h-3.7V47H114.8z"/>
	<path d="M121.3,47v-5.7h0.9v0.9c0.2-0.4,0.4-0.7,0.6-0.8s0.4-0.2,0.6-0.2c0.3,0,0.7,0.1,1,0.3l-0.3,0.9c-0.2-0.1-0.5-0.2-0.7-0.2
		s-0.4,0.1-0.6,0.2s-0.3,0.3-0.4,0.5c-0.1,0.3-0.2,0.7-0.2,1.1v3H121.3z"/>
	<path d="M128.8,45.2l1,0.1c-0.2,0.6-0.4,1-0.9,1.4c-0.4,0.3-1,0.5-1.6,0.5c-0.8,0-1.5-0.3-2-0.8s-0.7-1.2-0.7-2.2s0.2-1.7,0.7-2.2
		s1.1-0.8,1.9-0.8s1.4,0.3,1.9,0.8s0.7,1.2,0.7,2.2c0,0.1,0,0.1,0,0.3h-4.2c0,0.6,0.2,1.1,0.5,1.4c0.3,0.3,0.7,0.5,1.2,0.5
		c0.4,0,0.7-0.1,0.9-0.3C128.5,45.9,128.7,45.6,128.8,45.2z M125.7,43.7h3.2c0-0.5-0.2-0.8-0.4-1.1c-0.3-0.4-0.7-0.6-1.2-0.6
		c-0.4,0-0.8,0.1-1.1,0.4C125.9,42.8,125.7,43.2,125.7,43.7z"/>
	<path d="M134.9,45.2l1,0.1c-0.2,0.6-0.4,1-0.9,1.4c-0.4,0.3-1,0.5-1.6,0.5c-0.8,0-1.5-0.3-2-0.8s-0.7-1.2-0.7-2.2s0.2-1.7,0.7-2.2
		s1.1-0.8,1.9-0.8c0.8,0,1.4,0.3,1.9,0.8s0.7,1.2,0.7,2.2c0,0.1,0,0.1,0,0.3h-4.2c0,0.6,0.2,1.1,0.5,1.4c0.3,0.3,0.7,0.5,1.2,0.5
		c0.4,0,0.7-0.1,0.9-0.3C134.6,45.9,134.8,45.6,134.9,45.2z M131.8,43.7h3.2c0-0.5-0.2-0.8-0.4-1.1c-0.3-0.4-0.7-0.6-1.2-0.6
		c-0.4,0-0.8,0.1-1.1,0.4C132,42.8,131.8,43.2,131.8,43.7z"/>
	<path d="M140,47.5l0.9,0.1c0,0.3,0.1,0.5,0.3,0.6c0.2,0.2,0.6,0.3,1,0.3s0.8-0.1,1-0.3s0.4-0.4,0.5-0.8c0-0.2,0.1-0.6,0.1-1.2
		c-0.4,0.5-0.9,0.7-1.6,0.7c-0.8,0-1.4-0.3-1.8-0.8c-0.4-0.6-0.6-1.2-0.6-2c0-0.5,0.1-1,0.3-1.5s0.5-0.8,0.9-1.1s0.8-0.4,1.3-0.4
		c0.7,0,1.2,0.3,1.7,0.8v-0.7h0.9v4.9c0,0.9-0.1,1.5-0.3,1.9s-0.5,0.7-0.9,0.9s-0.9,0.3-1.4,0.3c-0.7,0-1.2-0.2-1.6-0.5
		C140.2,48.6,140,48.1,140,47.5z M140.8,44.1c0,0.7,0.1,1.3,0.4,1.6c0.3,0.3,0.7,0.5,1.1,0.5c0.4,0,0.8-0.2,1.1-0.5s0.5-0.9,0.5-1.6
		c0-0.7-0.2-1.2-0.5-1.6c-0.3-0.4-0.7-0.5-1.1-0.5c-0.4,0-0.8,0.2-1.1,0.5S140.8,43.4,140.8,44.1z"/>
	<path d="M146.3,40.3v-1.1h1v1.1H146.3z M146.3,47v-5.7h1V47H146.3z"/>
	<path d="M149,47v-4.9h-0.9v-0.8h0.9v-0.6c0-0.4,0-0.7,0.1-0.9s0.3-0.5,0.5-0.6c0.2-0.2,0.6-0.2,1-0.2c0.3,0,0.6,0,0.9,0.1l-0.1,0.8
		c-0.2,0-0.4-0.1-0.6-0.1c-0.3,0-0.5,0.1-0.6,0.2c-0.1,0.1-0.2,0.4-0.2,0.7v0.5h1.1V42H150v5H149z"/>
	<path d="M153.9,46.2L154,47c-0.3,0.1-0.5,0.1-0.7,0.1c-0.4,0-0.6-0.1-0.8-0.2c-0.2-0.1-0.3-0.3-0.4-0.4c-0.1-0.2-0.1-0.6-0.1-1.1
		v-3.3h-0.7v-0.8h0.7v-1.4l1-0.6v2h1v0.8h-1v3.3c0,0.3,0,0.5,0.1,0.5c0,0.1,0.1,0.1,0.2,0.2c0.1,0,0.2,0.1,0.3,0.1
		C153.6,46.2,153.7,46.2,153.9,46.2z"/>
	<path d="M159,47l-1.7-5.7h1l0.9,3.3l0.3,1.2c0-0.1,0.1-0.5,0.3-1.2l0.9-3.3h1l0.9,3.3l0.3,1.1l0.3-1.1l1-3.3h0.9l-1.8,5.7h-1
		l-0.9-3.4l-0.2-1L160,47H159z"/>
	<path d="M165.8,40.3v-1.1h1v1.1H165.8z M165.8,47v-5.7h1V47H165.8z"/>
	<path d="M170.4,46.2l0.1,0.9c-0.3,0.1-0.5,0.1-0.7,0.1c-0.4,0-0.6-0.1-0.8-0.2c-0.2-0.1-0.3-0.3-0.4-0.4c-0.1-0.2-0.1-0.6-0.1-1.1
		v-3.3h-0.7v-0.8h0.7V40l1-0.6v2h1v0.8h-1v3.3c0,0.3,0,0.5,0.1,0.5c0,0.1,0.1,0.1,0.2,0.2c0.1,0,0.2,0.1,0.3,0.1
		C170.1,46.2,170.2,46.2,170.4,46.2z"/>
	<path d="M171.3,47v-7.9h1V42c0.5-0.5,1-0.8,1.7-0.8c0.4,0,0.8,0.1,1.1,0.2c0.3,0.2,0.5,0.4,0.7,0.7c0.1,0.3,0.2,0.7,0.2,1.3V47h-1
		v-3.6c0-0.5-0.1-0.8-0.3-1.1c-0.2-0.2-0.5-0.3-0.9-0.3c-0.3,0-0.6,0.1-0.8,0.2s-0.4,0.3-0.5,0.6s-0.2,0.6-0.2,1.1V47H171.3z"/>
	<path d="M180.5,49.2v-7.9h0.9V42c0.2-0.3,0.4-0.5,0.7-0.7s0.6-0.2,0.9-0.2c0.5,0,0.9,0.1,1.3,0.4c0.4,0.2,0.7,0.6,0.8,1.1
		c0.2,0.5,0.3,1,0.3,1.5c0,0.6-0.1,1.1-0.3,1.6s-0.5,0.8-0.9,1.1c-0.4,0.2-0.8,0.4-1.3,0.4c-0.3,0-0.6-0.1-0.9-0.2
		c-0.3-0.1-0.5-0.3-0.6-0.5v2.8L180.5,49.2L180.5,49.2z M181.4,44.2c0,0.7,0.1,1.3,0.4,1.6c0.3,0.4,0.7,0.5,1.1,0.5
		c0.4,0,0.8-0.2,1.1-0.5c0.3-0.4,0.5-0.9,0.5-1.7c0-0.7-0.1-1.3-0.4-1.6c-0.3-0.4-0.7-0.5-1.1-0.5c-0.4,0-0.8,0.2-1.1,0.6
		C181.5,42.9,181.4,43.5,181.4,44.2z"/>
	<path d="M190.3,47v-0.8c-0.4,0.6-1,1-1.8,1c-0.3,0-0.6-0.1-0.9-0.2c-0.3-0.1-0.5-0.3-0.6-0.5s-0.2-0.4-0.3-0.7
		c0-0.2-0.1-0.5-0.1-0.9v-3.5h1v3.2c0,0.5,0,0.8,0.1,1c0.1,0.3,0.2,0.5,0.4,0.6s0.4,0.2,0.7,0.2s0.6-0.1,0.8-0.2
		c0.3-0.1,0.4-0.4,0.5-0.6c0.1-0.3,0.2-0.6,0.2-1.1v-3h1V47H190.3z"/>
	<path d="M192.7,47v-5.7h0.9v0.9c0.2-0.4,0.4-0.7,0.6-0.8c0.2-0.1,0.4-0.2,0.6-0.2c0.3,0,0.7,0.1,1,0.3l-0.3,0.9
		c-0.2-0.1-0.5-0.2-0.7-0.2s-0.4,0.1-0.6,0.2s-0.3,0.3-0.4,0.5c-0.1,0.3-0.2,0.7-0.2,1.1v3H192.7z"/>
	<path d="M200.1,45l0.9,0.1c-0.1,0.7-0.4,1.2-0.8,1.5c-0.4,0.4-1,0.6-1.6,0.6c-0.8,0-1.4-0.3-1.9-0.8s-0.7-1.2-0.7-2.2
		c0-0.6,0.1-1.2,0.3-1.6c0.2-0.5,0.5-0.8,0.9-1s0.9-0.3,1.4-0.3c0.6,0,1.1,0.2,1.5,0.5s0.6,0.8,0.8,1.3l-0.9,0.1
		c-0.1-0.4-0.2-0.7-0.5-0.9c-0.2-0.2-0.5-0.3-0.8-0.3c-0.5,0-0.9,0.2-1.2,0.5s-0.5,0.9-0.5,1.7s0.1,1.3,0.4,1.7s0.7,0.5,1.1,0.5
		c0.4,0,0.7-0.1,0.9-0.3C199.8,45.8,200,45.4,200.1,45z"/>
	<path d="M201.8,47v-7.9h1V42c0.5-0.5,1-0.8,1.7-0.8c0.4,0,0.8,0.1,1.1,0.2c0.3,0.2,0.5,0.4,0.7,0.7c0.1,0.3,0.2,0.7,0.2,1.3V47h-1
		v-3.6c0-0.5-0.1-0.8-0.3-1.1c-0.2-0.2-0.5-0.3-0.9-0.3c-0.3,0-0.6,0.1-0.8,0.2s-0.4,0.3-0.5,0.6s-0.2,0.6-0.2,1.1V47H201.8z"/>
	<path d="M211.7,46.3c-0.4,0.3-0.7,0.5-1,0.6s-0.7,0.2-1.1,0.2c-0.6,0-1.1-0.2-1.4-0.5s-0.5-0.7-0.5-1.2c0-0.3,0.1-0.5,0.2-0.8
		c0.1-0.2,0.3-0.4,0.5-0.6c0.2-0.1,0.4-0.2,0.7-0.3c0.2,0,0.5-0.1,0.9-0.1c0.8-0.1,1.4-0.2,1.7-0.3c0-0.1,0-0.2,0-0.3
		c0-0.4-0.1-0.7-0.3-0.8c-0.2-0.2-0.6-0.3-1.1-0.3s-0.8,0.1-1,0.2c-0.2,0.2-0.4,0.4-0.5,0.8l-0.9-0.1c0.1-0.4,0.2-0.7,0.4-1
		c0.2-0.2,0.5-0.4,0.9-0.6c0.4-0.1,0.8-0.2,1.3-0.2s0.9,0.1,1.2,0.2c0.3,0.1,0.5,0.3,0.7,0.4c0.1,0.2,0.2,0.4,0.3,0.7
		c0,0.2,0,0.5,0,0.9v1.3c0,0.9,0,1.5,0.1,1.7s0.1,0.5,0.2,0.7h-1C211.8,46.8,211.7,46.6,211.7,46.3z M211.6,44.2
		c-0.4,0.1-0.9,0.3-1.6,0.4c-0.4,0.1-0.7,0.1-0.8,0.2c-0.2,0.1-0.3,0.2-0.4,0.3c-0.1,0.1-0.1,0.3-0.1,0.5c0,0.3,0.1,0.5,0.3,0.6
		c0.2,0.2,0.5,0.3,0.9,0.3s0.7-0.1,1-0.2c0.3-0.2,0.5-0.4,0.6-0.7c0.1-0.2,0.2-0.5,0.2-1L211.6,44.2L211.6,44.2z"/>
	<path d="M213.7,45.4l1-0.2c0.1,0.4,0.2,0.7,0.4,0.9s0.6,0.3,1,0.3s0.8-0.1,1-0.3s0.3-0.4,0.3-0.6c0-0.2-0.1-0.4-0.3-0.5
		c-0.1-0.1-0.5-0.2-1-0.3c-0.7-0.2-1.2-0.3-1.5-0.5c-0.3-0.1-0.5-0.3-0.6-0.5s-0.2-0.5-0.2-0.8s0.1-0.5,0.2-0.7
		c0.1-0.2,0.3-0.4,0.5-0.5s0.4-0.2,0.6-0.3c0.3-0.1,0.5-0.1,0.8-0.1c0.4,0,0.8,0.1,1.2,0.2c0.3,0.1,0.6,0.3,0.7,0.5
		c0.2,0.2,0.3,0.5,0.3,0.9l-0.9,0.1c0-0.3-0.2-0.5-0.4-0.7s-0.5-0.2-0.9-0.2s-0.8,0.1-0.9,0.2c-0.2,0.1-0.3,0.3-0.3,0.5
		c0,0.1,0,0.2,0.1,0.3s0.2,0.2,0.4,0.3c0.1,0,0.4,0.1,0.9,0.2c0.7,0.2,1.2,0.3,1.4,0.4c0.3,0.1,0.5,0.3,0.6,0.5
		c0.2,0.2,0.2,0.5,0.2,0.8s-0.1,0.6-0.3,0.9s-0.5,0.5-0.8,0.7c-0.4,0.2-0.8,0.2-1.2,0.2c-0.7,0-1.3-0.2-1.7-0.5
		C214,46.4,213.8,46,213.7,45.4z"/>
	<path d="M223.4,45.2l1,0.1c-0.2,0.6-0.4,1-0.9,1.4c-0.4,0.3-1,0.5-1.6,0.5c-0.8,0-1.5-0.3-2-0.8s-0.7-1.2-0.7-2.2s0.2-1.7,0.7-2.2
		s1.1-0.8,1.9-0.8c0.8,0,1.4,0.3,1.9,0.8s0.7,1.2,0.7,2.2c0,0.1,0,0.1,0,0.3h-4.2c0,0.6,0.2,1.1,0.5,1.4c0.3,0.3,0.7,0.5,1.2,0.5
		c0.4,0,0.7-0.1,0.9-0.3C223.1,45.9,223.3,45.6,223.4,45.2z M220.3,43.7h3.2c0-0.5-0.2-0.8-0.4-1.1c-0.3-0.4-0.7-0.6-1.2-0.6
		c-0.4,0-0.8,0.1-1.1,0.4C220.5,42.8,220.3,43.2,220.3,43.7z"/>
	<path d="M225.9,47v-1h1.1v1H225.9z"/>
</g>
<g class="st1">
	<path class="st4" d="M11.5,62.6l0.9,0.1c-0.1,0.7-0.4,1.2-0.8,1.5c-0.4,0.4-1,0.6-1.6,0.6c-0.8,0-1.4-0.3-1.9-0.8
		c-0.5-0.5-0.7-1.2-0.7-2.2c0-0.6,0.1-1.2,0.3-1.6s0.5-0.8,0.9-1s0.9-0.3,1.4-0.3c0.6,0,1.1,0.2,1.5,0.5s0.6,0.8,0.8,1.3l-0.9,0.1
		c-0.1-0.4-0.2-0.7-0.5-0.9c-0.2-0.2-0.5-0.3-0.8-0.3c-0.5,0-0.9,0.2-1.2,0.5S8.4,61,8.4,61.8s0.1,1.3,0.4,1.7S9.6,64,10.1,64
		c0.4,0,0.7-0.1,0.9-0.3C11.3,63.4,11.4,63.1,11.5,62.6z"/>
	<path class="st4" d="M12.9,61.8c0-1.1,0.3-1.8,0.9-2.3c0.5-0.4,1.1-0.6,1.8-0.6c0.8,0,1.4,0.3,1.9,0.8s0.7,1.2,0.7,2.1
		c0,0.7-0.1,1.3-0.3,1.7c-0.2,0.4-0.5,0.7-1,1s-0.9,0.3-1.4,0.3c-0.8,0-1.4-0.3-1.9-0.8C13.2,63.5,12.9,62.8,12.9,61.8z M13.9,61.8
		c0,0.7,0.2,1.3,0.5,1.6c0.3,0.4,0.7,0.5,1.2,0.5c0.5,0,0.9-0.2,1.2-0.5c0.3-0.4,0.5-0.9,0.5-1.7c0-0.7-0.2-1.2-0.5-1.6
		c-0.3-0.4-0.7-0.5-1.2-0.5c-0.5,0-0.9,0.2-1.2,0.5C14.1,60.6,13.9,61.1,13.9,61.8z"/>
	<path class="st4" d="M19.4,64.7v-7.9h1v2.8c0.5-0.5,1-0.8,1.7-0.8c0.4,0,0.8,0.1,1.1,0.2s0.5,0.4,0.7,0.7c0.1,0.3,0.2,0.7,0.2,1.3
		v3.6h-1V61c0-0.5-0.1-0.8-0.3-1.1c-0.2-0.2-0.5-0.3-0.9-0.3c-0.3,0-0.6,0.1-0.8,0.2s-0.4,0.3-0.5,0.6s-0.2,0.6-0.2,1.1v3.1
		L19.4,64.7L19.4,64.7z"/>
	<path class="st4" d="M25.1,61.8c0-1.1,0.3-1.8,0.9-2.3c0.5-0.4,1.1-0.6,1.8-0.6c0.8,0,1.4,0.3,1.9,0.8s0.7,1.2,0.7,2.1
		c0,0.7-0.1,1.3-0.3,1.7c-0.2,0.4-0.5,0.7-1,1s-0.9,0.3-1.4,0.3c-0.8,0-1.4-0.3-1.9-0.8C25.4,63.5,25.1,62.8,25.1,61.8z M26.1,61.8
		c0,0.7,0.2,1.3,0.5,1.6c0.3,0.4,0.7,0.5,1.2,0.5s0.9-0.2,1.2-0.5c0.3-0.4,0.5-0.9,0.5-1.7c0-0.7-0.2-1.2-0.5-1.6
		c-0.3-0.4-0.7-0.5-1.2-0.5s-0.9,0.2-1.2,0.5C26.3,60.6,26.1,61.1,26.1,61.8z"/>
	<path class="st4" d="M32.6,64.7L30.9,59h1l0.9,3.3l0.3,1.2c0-0.1,0.1-0.5,0.3-1.2l0.9-3.3h1l0.9,3.3l0.3,1.1l0.3-1.1l1-3.3h0.9
		l-1.8,5.7h-1L35,61.3l-0.2-1l-1.2,4.4H32.6z"/>
	<path class="st4" d="M39.5,57.9v-1.1h1v1.1H39.5z M39.5,64.7V59h1v5.7H39.5z"/>
	<path class="st4" d="M42,64.7V59h0.9v0.8c0.4-0.6,1-0.9,1.8-0.9c0.3,0,0.7,0.1,0.9,0.2c0.3,0.1,0.5,0.3,0.6,0.5s0.2,0.4,0.3,0.7
		c0,0.2,0.1,0.5,0.1,0.9v3.5h-1v-3.5c0-0.4,0-0.7-0.1-0.9s-0.2-0.3-0.4-0.5s-0.4-0.2-0.7-0.2c-0.4,0-0.8,0.1-1.1,0.4
		c-0.3,0.3-0.4,0.8-0.4,1.5v3.1L42,64.7L42,64.7z"/>
	<path class="st4" d="M52,62.8l1,0.1c-0.2,0.6-0.4,1-0.9,1.4c-0.4,0.3-1,0.5-1.6,0.5c-0.8,0-1.5-0.3-2-0.8s-0.7-1.2-0.7-2.2
		s0.2-1.7,0.7-2.2s1.1-0.8,1.9-0.8c0.8,0,1.4,0.3,1.9,0.8s0.7,1.2,0.7,2.2c0,0.1,0,0.1,0,0.3h-4.2c0,0.6,0.2,1.1,0.5,1.4
		c0.3,0.3,0.7,0.5,1.2,0.5c0.4,0,0.7-0.1,0.9-0.3C51.6,63.5,51.8,63.3,52,62.8z M48.8,61.3H52c0-0.5-0.2-0.8-0.4-1.1
		c-0.3-0.4-0.7-0.6-1.2-0.6c-0.4,0-0.8,0.1-1.1,0.4C49,60.4,48.8,60.8,48.8,61.3z"/>
	<path class="st4" d="M54.2,64.7V59H55v0.9c0.2-0.4,0.4-0.7,0.6-0.8c0.2-0.1,0.4-0.2,0.6-0.2c0.3,0,0.7,0.1,1,0.3l-0.3,0.9
		c-0.2-0.1-0.5-0.2-0.7-0.2s-0.4,0.1-0.6,0.2s-0.3,0.3-0.4,0.5c-0.1,0.3-0.2,0.7-0.2,1.1v3H54.2z"/>
</g>
<g class="st1">
	<path class="st4" d="M57.8,66.9L57.7,66c0.2,0.1,0.4,0.1,0.6,0.1c0.2,0,0.4,0,0.5-0.1s0.2-0.2,0.3-0.3c0.1-0.1,0.2-0.3,0.3-0.7
		c0-0.1,0-0.1,0.1-0.2L57.3,59h1l1.2,3.3c0.2,0.4,0.3,0.9,0.4,1.3c0.1-0.4,0.2-0.9,0.4-1.3l1.2-3.3h1l-2.2,5.8
		c-0.2,0.6-0.4,1.1-0.5,1.3c-0.2,0.3-0.4,0.6-0.6,0.7S58.7,67,58.4,67C58.2,67,58,67,57.8,66.9z"/>
</g>
<g class="st1">
	<path class="st4" d="M62.8,64.7v-1.1h1.1v1.1H62.8z"/>
	<path class="st4" d="M69.3,62.6l0.9,0.1c-0.1,0.7-0.4,1.2-0.8,1.5c-0.4,0.4-1,0.6-1.6,0.6c-0.8,0-1.4-0.3-1.9-0.8
		c-0.5-0.5-0.7-1.2-0.7-2.2c0-0.6,0.1-1.2,0.3-1.6s0.5-0.8,0.9-1s0.9-0.3,1.4-0.3c0.6,0,1.1,0.2,1.5,0.5s0.6,0.8,0.8,1.3l-0.9,0.1
		c-0.1-0.4-0.2-0.7-0.5-0.9c-0.2-0.2-0.5-0.3-0.8-0.3c-0.5,0-0.9,0.2-1.2,0.5s-0.5,0.9-0.5,1.7s0.1,1.3,0.4,1.7s0.7,0.5,1.1,0.5
		s0.7-0.1,0.9-0.3C69,63.4,69.2,63.1,69.3,62.6z"/>
	<path class="st4" d="M70.7,61.8c0-1.1,0.3-1.8,0.9-2.3c0.5-0.4,1.1-0.6,1.8-0.6c0.8,0,1.4,0.3,1.9,0.8s0.7,1.2,0.7,2.1
		c0,0.7-0.1,1.3-0.3,1.7c-0.2,0.4-0.5,0.7-1,1s-0.9,0.3-1.4,0.3c-0.8,0-1.4-0.3-1.9-0.8C70.9,63.5,70.7,62.8,70.7,61.8z M71.7,61.8
		c0,0.7,0.2,1.3,0.5,1.6c0.3,0.4,0.7,0.5,1.2,0.5s0.9-0.2,1.2-0.5c0.3-0.4,0.5-0.9,0.5-1.7c0-0.7-0.2-1.2-0.5-1.6
		c-0.3-0.4-0.7-0.5-1.2-0.5s-0.9,0.2-1.2,0.5C71.8,60.6,71.7,61.1,71.7,61.8z"/>
	<path class="st4" d="M77.1,64.7V59H78v0.8c0.2-0.3,0.4-0.5,0.7-0.7c0.3-0.2,0.6-0.3,1-0.3s0.8,0.1,1,0.3s0.5,0.4,0.6,0.7
		c0.5-0.7,1-1,1.8-1c0.6,0,1,0.2,1.3,0.5s0.5,0.8,0.5,1.4v3.9h-1V61c0-0.4,0-0.7-0.1-0.8c-0.1-0.2-0.2-0.3-0.3-0.4
		c-0.2-0.1-0.4-0.2-0.6-0.2c-0.4,0-0.7,0.1-1,0.4c-0.3,0.3-0.4,0.7-0.4,1.3v3.3h-1V61c0-0.4-0.1-0.8-0.2-1c-0.2-0.2-0.4-0.3-0.8-0.3
		c-0.3,0-0.5,0.1-0.8,0.2s-0.4,0.4-0.5,0.6S78,61.2,78,61.7v3H77.1z"/>
	<path class="st4" d="M89.3,57.9v-1.1h1v1.1H89.3z M89.3,64.7V59h1v5.7H89.3z"/>
	<path class="st4" d="M91.4,63l1-0.2c0.1,0.4,0.2,0.7,0.4,0.9c0.2,0.2,0.6,0.3,1,0.3s0.8-0.1,1-0.3s0.3-0.4,0.3-0.6
		c0-0.2-0.1-0.4-0.3-0.5c-0.1-0.1-0.5-0.2-1-0.3c-0.7-0.2-1.2-0.3-1.5-0.5c-0.3-0.1-0.5-0.3-0.6-0.5s-0.2-0.5-0.2-0.8
		s0.1-0.5,0.2-0.7s0.3-0.4,0.5-0.5c0.1-0.1,0.4-0.2,0.6-0.3s0.5-0.1,0.8-0.1c0.4,0,0.8,0.1,1.2,0.2c0.3,0.1,0.6,0.3,0.7,0.5
		c0.2,0.2,0.3,0.5,0.3,0.9L95,60.6c0-0.3-0.2-0.5-0.4-0.7s-0.5-0.2-0.9-0.2s-0.8,0.1-0.9,0.2c-0.2,0.1-0.3,0.3-0.3,0.5
		c0,0.1,0,0.2,0.1,0.3s0.2,0.2,0.4,0.3c0.1,0,0.4,0.1,0.9,0.2c0.7,0.2,1.2,0.3,1.4,0.4c0.3,0.1,0.5,0.3,0.6,0.5s0.2,0.5,0.2,0.8
		s-0.1,0.6-0.3,0.9c-0.2,0.3-0.5,0.5-0.8,0.7s-0.8,0.2-1.2,0.2c-0.7,0-1.3-0.2-1.7-0.5C91.7,64,91.5,63.6,91.4,63z"/>
	<path class="st4" d="M100.3,64.7V59h0.9v0.9c0.2-0.4,0.4-0.7,0.6-0.8s0.4-0.2,0.6-0.2c0.3,0,0.7,0.1,1,0.3l-0.3,0.9
		c-0.2-0.1-0.5-0.2-0.7-0.2s-0.4,0.1-0.6,0.2s-0.3,0.3-0.4,0.5c-0.1,0.3-0.2,0.7-0.2,1.1v3H100.3z"/>
	<path class="st4" d="M107.7,64c-0.4,0.3-0.7,0.5-1,0.6s-0.7,0.2-1.1,0.2c-0.6,0-1.1-0.2-1.4-0.5s-0.5-0.7-0.5-1.2
		c0-0.3,0.1-0.5,0.2-0.8c0.1-0.2,0.3-0.4,0.5-0.6c0.2-0.1,0.4-0.2,0.7-0.3c0.2,0,0.5-0.1,0.9-0.1c0.8-0.1,1.4-0.2,1.7-0.3
		c0-0.1,0-0.2,0-0.3c0-0.4-0.1-0.7-0.3-0.8c-0.2-0.2-0.6-0.3-1.1-0.3s-0.8,0.1-1,0.2s-0.4,0.4-0.5,0.8l-0.9-0.1
		c0.1-0.4,0.2-0.7,0.4-1c0.2-0.2,0.5-0.4,0.9-0.6c0.4-0.1,0.8-0.2,1.3-0.2s0.9,0.1,1.2,0.2c0.3,0.1,0.5,0.3,0.7,0.4
		c0.1,0.2,0.2,0.4,0.3,0.7c0,0.2,0,0.5,0,0.9v1.3c0,0.9,0,1.5,0.1,1.7c0.1,0.2,0.1,0.5,0.2,0.7h-1C107.8,64.5,107.7,64.2,107.7,64z
		 M107.6,61.8c-0.4,0.1-0.9,0.3-1.6,0.4c-0.4,0.1-0.7,0.1-0.8,0.2c-0.2,0.1-0.3,0.2-0.4,0.3s-0.1,0.3-0.1,0.5c0,0.3,0.1,0.5,0.3,0.6
		s0.5,0.3,0.9,0.3s0.7-0.1,1-0.2c0.3-0.2,0.5-0.4,0.6-0.7c0.1-0.2,0.2-0.5,0.2-1L107.6,61.8L107.6,61.8z"/>
	<path class="st4" d="M112.2,63.8l0.1,0.9c-0.3,0.1-0.5,0.1-0.7,0.1c-0.4,0-0.6-0.1-0.8-0.2c-0.2-0.1-0.3-0.3-0.4-0.4
		s-0.1-0.6-0.1-1.1v-3.3h-0.7V59h0.7v-1.4l1-0.6v2h1v0.8h-1v3.3c0,0.3,0,0.5,0.1,0.5c0,0.1,0.1,0.1,0.2,0.2c0.1,0,0.2,0.1,0.3,0.1
		C111.9,63.9,112,63.8,112.2,63.8z"/>
	<path class="st4" d="M117,62.8l1,0.1c-0.2,0.6-0.4,1-0.9,1.4c-0.4,0.3-1,0.5-1.6,0.5c-0.8,0-1.5-0.3-2-0.8s-0.7-1.2-0.7-2.2
		s0.2-1.7,0.7-2.2s1.1-0.8,1.9-0.8s1.4,0.3,1.9,0.8s0.7,1.2,0.7,2.2c0,0.1,0,0.1,0,0.3h-4.2c0,0.6,0.2,1.1,0.5,1.4
		c0.3,0.3,0.7,0.5,1.2,0.5c0.4,0,0.7-0.1,0.9-0.3C116.7,63.5,116.9,63.3,117,62.8z M113.9,61.3h3.2c0-0.5-0.2-0.8-0.4-1.1
		c-0.3-0.4-0.7-0.6-1.2-0.6c-0.4,0-0.8,0.1-1.1,0.4C114.1,60.4,113.9,60.8,113.9,61.3z"/>
	<path class="st4" d="M122.9,64.7V64c-0.4,0.6-0.9,0.8-1.6,0.8c-0.5,0-0.9-0.1-1.3-0.4c-0.4-0.2-0.7-0.6-0.9-1
		c-0.2-0.4-0.3-1-0.3-1.5c0-0.6,0.1-1.1,0.3-1.5c0.2-0.5,0.5-0.8,0.9-1.1c0.4-0.2,0.8-0.4,1.3-0.4c0.3,0,0.6,0.1,0.9,0.2
		s0.5,0.3,0.7,0.6v-2.8h1v7.9h-1V64.7z M119.9,61.8c0,0.7,0.2,1.3,0.5,1.6c0.3,0.4,0.7,0.5,1.1,0.5s0.8-0.2,1.1-0.5
		c0.3-0.3,0.4-0.9,0.4-1.6c0-0.8-0.1-1.4-0.5-1.7s-0.7-0.5-1.1-0.5s-0.8,0.2-1.1,0.5C120,60.5,119.9,61.1,119.9,61.8z"/>
	<path class="st4" d="M195.1,61.8c0-1.1,0.3-1.8,0.9-2.3c0.5-0.4,1.1-0.6,1.8-0.6c0.8,0,1.4,0.3,1.9,0.8s0.7,1.2,0.7,2.1
		c0,0.7-0.1,1.3-0.3,1.7s-0.5,0.7-1,1s-0.9,0.3-1.4,0.3c-0.8,0-1.4-0.3-1.9-0.8C195.4,63.5,195.1,62.8,195.1,61.8z M196.1,61.8
		c0,0.7,0.2,1.3,0.5,1.6c0.3,0.4,0.7,0.5,1.2,0.5s0.9-0.2,1.2-0.5c0.3-0.4,0.5-0.9,0.5-1.7c0-0.7-0.2-1.2-0.5-1.6
		c-0.3-0.4-0.7-0.5-1.2-0.5s-0.9,0.2-1.2,0.5C196.3,60.6,196.1,61.1,196.1,61.8z"/>
	<path class="st4" d="M201.6,64.7V59h0.9v0.8c0.4-0.6,1-0.9,1.8-0.9c0.3,0,0.7,0.1,0.9,0.2c0.3,0.1,0.5,0.3,0.6,0.5s0.2,0.4,0.3,0.7
		c0,0.2,0.1,0.5,0.1,0.9v3.5h-1v-3.5c0-0.4,0-0.7-0.1-0.9s-0.2-0.3-0.4-0.5s-0.4-0.2-0.7-0.2c-0.4,0-0.8,0.1-1.1,0.4
		c-0.3,0.3-0.4,0.8-0.4,1.5v3.1L201.6,64.7L201.6,64.7z"/>
	<path class="st4" d="M210.9,64.7v-7.9h2.9c0.6,0,1.1,0.1,1.4,0.2c0.4,0.2,0.6,0.4,0.9,0.7c0.2,0.3,0.3,0.7,0.3,1s-0.1,0.7-0.3,0.9
		s-0.5,0.5-0.8,0.7c0.5,0.1,0.8,0.4,1.1,0.7s0.4,0.7,0.4,1.2c0,0.4-0.1,0.7-0.2,1s-0.3,0.6-0.6,0.7c-0.2,0.2-0.5,0.3-0.9,0.4
		c-0.3,0.1-0.8,0.1-1.3,0.1h-2.9V64.7z M211.9,60.1h1.7c0.5,0,0.8,0,1-0.1c0.3-0.1,0.5-0.2,0.6-0.4s0.2-0.4,0.2-0.7
		s-0.1-0.5-0.2-0.7s-0.3-0.3-0.5-0.4s-0.6-0.1-1.2-0.1h-1.6V60.1z M211.9,63.8h2c0.3,0,0.6,0,0.7,0c0.2,0,0.4-0.1,0.6-0.2
		c0.2-0.1,0.3-0.2,0.4-0.4s0.2-0.4,0.2-0.7s-0.1-0.5-0.2-0.8c-0.2-0.2-0.4-0.4-0.6-0.5s-0.6-0.1-1.2-0.1H212L211.9,63.8L211.9,63.8z
		"/>
	<path class="st4" d="M218.1,57.9v-1.1h1v1.1H218.1z M218.1,64.7V59h1v5.7H218.1z"/>
	<path class="st4" d="M220.5,64.7V59h0.9v0.8c0.4-0.6,1-0.9,1.8-0.9c0.3,0,0.7,0.1,0.9,0.2c0.3,0.1,0.5,0.3,0.6,0.5s0.2,0.4,0.3,0.7
		c0,0.2,0.1,0.5,0.1,0.9v3.5h-1v-3.5c0-0.4,0-0.7-0.1-0.9s-0.2-0.3-0.4-0.5s-0.4-0.2-0.7-0.2c-0.4,0-0.8,0.1-1.1,0.4
		c-0.3,0.3-0.4,0.8-0.4,1.5v3.1L220.5,64.7L220.5,64.7z"/>
	<path class="st4" d="M226.5,65.2l0.9,0.1c0,0.3,0.1,0.5,0.3,0.6c0.2,0.2,0.6,0.3,1,0.3s0.8-0.1,1-0.3s0.4-0.4,0.5-0.8
		c0-0.2,0.1-0.6,0.1-1.2c-0.4,0.5-0.9,0.7-1.6,0.7c-0.8,0-1.4-0.3-1.8-0.8c-0.4-0.6-0.6-1.2-0.6-2c0-0.5,0.1-1,0.3-1.5
		s0.5-0.8,0.9-1.1c0.4-0.2,0.8-0.4,1.3-0.4c0.7,0,1.2,0.3,1.7,0.8V59h0.9v4.9c0,0.9-0.1,1.5-0.3,1.9s-0.5,0.7-0.9,0.9
		c-0.4,0.2-0.9,0.3-1.4,0.3c-0.7,0-1.2-0.2-1.6-0.5C226.7,66.2,226.5,65.8,226.5,65.2z M227.3,61.7c0,0.7,0.1,1.3,0.4,1.6
		s0.7,0.5,1.1,0.5c0.4,0,0.8-0.2,1.1-0.5s0.5-0.9,0.5-1.6c0-0.7-0.2-1.2-0.5-1.6c-0.3-0.4-0.7-0.5-1.1-0.5c-0.4,0-0.8,0.2-1.1,0.5
		C227.4,60.5,227.3,61,227.3,61.7z"/>
	<path class="st4" d="M237.6,67c-0.5-0.7-1-1.5-1.4-2.4s-0.6-1.8-0.6-2.8c0-0.9,0.1-1.7,0.4-2.4c0.3-0.9,0.8-1.8,1.5-2.7h0.7
		c-0.4,0.7-0.7,1.3-0.9,1.6c-0.2,0.5-0.4,1-0.5,1.5c-0.2,0.7-0.2,1.3-0.2,2c0,1.7,0.5,3.4,1.6,5.2C238.2,67,237.6,67,237.6,67z"/>
</g>
<g class="st1">
	<path class="st5" d="M239.3,62.9l0.9-0.1c0.1,0.4,0.2,0.8,0.5,0.9s0.5,0.3,0.9,0.3c0.3,0,0.6-0.1,0.8-0.2c0.2-0.1,0.4-0.3,0.5-0.5
		s0.3-0.5,0.4-0.9c0.1-0.4,0.1-0.8,0.1-1.2c0,0,0-0.1,0-0.2c-0.2,0.3-0.5,0.6-0.8,0.7s-0.7,0.3-1.1,0.3c-0.7,0-1.2-0.2-1.7-0.7
		s-0.7-1.1-0.7-1.9c0-0.8,0.2-1.4,0.7-1.9s1.1-0.7,1.8-0.7c0.5,0,1,0.1,1.4,0.4c0.4,0.3,0.7,0.7,1,1.2c0.2,0.5,0.3,1.2,0.3,2.2
		s-0.1,1.8-0.3,2.4c-0.2,0.6-0.5,1-1,1.4c-0.4,0.3-0.9,0.5-1.5,0.5s-1.1-0.2-1.5-0.5S239.4,63.5,239.3,62.9z M243.3,59.4
		c0-0.6-0.1-1-0.4-1.3s-0.6-0.5-1.1-0.5c-0.4,0-0.8,0.2-1.1,0.5s-0.5,0.8-0.5,1.4c0,0.5,0.2,0.9,0.5,1.2s0.7,0.5,1.1,0.5
		c0.4,0,0.8-0.2,1.1-0.5C243.1,60.4,243.3,59.9,243.3,59.4z"/>
	<path class="st5" d="M246.8,60.4c-0.4-0.1-0.7-0.4-0.9-0.6c-0.2-0.3-0.3-0.6-0.3-1c0-0.6,0.2-1.1,0.6-1.4s1-0.6,1.6-0.6
		c0.7,0,1.2,0.2,1.7,0.6c0.4,0.4,0.6,0.9,0.6,1.5c0,0.4-0.1,0.7-0.3,1s-0.5,0.5-0.9,0.6c0.5,0.2,0.8,0.4,1.1,0.8s0.4,0.8,0.4,1.3
		c0,0.7-0.2,1.2-0.7,1.7c-0.5,0.5-1.1,0.7-1.9,0.7c-0.8,0-1.4-0.2-1.9-0.7s-0.7-1-0.7-1.7c0-0.5,0.1-0.9,0.4-1.3
		C245.9,60.8,246.3,60.5,246.8,60.4z M246.3,62.4c0,0.3,0.1,0.5,0.2,0.8c0.1,0.3,0.3,0.5,0.6,0.6s0.5,0.2,0.8,0.2
		c0.5,0,0.8-0.1,1.1-0.4c0.3-0.3,0.5-0.7,0.5-1.1c0-0.5-0.2-0.8-0.5-1.2c-0.3-0.3-0.7-0.5-1.2-0.5s-0.8,0.1-1.1,0.5
		C246.4,61.6,246.3,62,246.3,62.4z M246.6,58.8c0,0.4,0.1,0.7,0.4,0.9c0.2,0.2,0.5,0.4,0.9,0.4s0.7-0.1,0.9-0.4s0.4-0.5,0.4-0.9
		s-0.1-0.7-0.4-0.9s-0.5-0.4-0.9-0.4s-0.7,0.1-0.9,0.4C246.7,58.2,246.6,58.5,246.6,58.8z"/>
	<path class="st5" d="M254.7,64.7V59h0.9v0.9c0.2-0.4,0.4-0.7,0.6-0.8c0.2-0.1,0.4-0.2,0.6-0.2c0.3,0,0.7,0.1,1,0.3l-0.3,0.9
		c-0.2-0.1-0.5-0.2-0.7-0.2s-0.4,0.1-0.6,0.2s-0.3,0.3-0.4,0.5c-0.1,0.3-0.2,0.7-0.2,1.1v3H254.7z"/>
	<path class="st5" d="M262.3,62.8l1,0.1c-0.2,0.6-0.4,1-0.9,1.4c-0.4,0.3-1,0.5-1.6,0.5c-0.8,0-1.5-0.3-2-0.8
		c-0.5-0.5-0.7-1.2-0.7-2.2s0.2-1.7,0.7-2.2s1.1-0.8,1.9-0.8s1.4,0.3,1.9,0.8s0.7,1.2,0.7,2.2c0,0.1,0,0.1,0,0.3H259
		c0,0.6,0.2,1.1,0.5,1.4c0.3,0.3,0.7,0.5,1.2,0.5c0.4,0,0.7-0.1,0.9-0.3C261.9,63.5,262.1,63.3,262.3,62.8z M259.1,61.3h3.2
		c0-0.5-0.2-0.8-0.4-1.1c-0.3-0.4-0.7-0.6-1.2-0.6c-0.4,0-0.8,0.1-1.1,0.4C259.3,60.4,259.1,60.8,259.1,61.3z"/>
	<path class="st5" d="M266.1,64.7l-2.2-5.7h1l1.2,3.4c0.1,0.4,0.3,0.8,0.4,1.1c0.1-0.3,0.2-0.7,0.4-1.1l1.3-3.5h1l-2.2,5.7
		L266.1,64.7L266.1,64.7z"/>
	<path class="st5" d="M270,57.9v-1.1h1v1.1H270z M270,64.7V59h1v5.7H270z"/>
	<path class="st5" d="M276.3,62.8l1,0.1c-0.2,0.6-0.4,1-0.9,1.4c-0.4,0.3-1,0.5-1.6,0.5c-0.8,0-1.5-0.3-2-0.8
		c-0.5-0.5-0.7-1.2-0.7-2.2s0.2-1.7,0.7-2.2s1.1-0.8,1.9-0.8s1.4,0.3,1.9,0.8s0.7,1.2,0.7,2.2c0,0.1,0,0.1,0,0.3h-4.2
		c0,0.6,0.2,1.1,0.5,1.4c0.3,0.3,0.7,0.5,1.2,0.5c0.4,0,0.7-0.1,0.9-0.3C276,63.5,276.2,63.3,276.3,62.8z M273.1,61.3h3.2
		c0-0.5-0.2-0.8-0.4-1.1c-0.3-0.4-0.7-0.6-1.2-0.6c-0.4,0-0.8,0.1-1.1,0.4C273.3,60.4,273.2,60.8,273.1,61.3z"/>
	<path class="st5" d="M279.6,64.7l-1.7-5.7h1l0.9,3.3l0.3,1.2c0-0.1,0.1-0.5,0.3-1.2l0.9-3.3h1l0.9,3.3l0.3,1.1l0.3-1.1l1-3.3h0.9
		l-1.8,5.7h-1l-0.9-3.4l-0.2-1l-1.2,4.4H279.6z"/>
	<path class="st5" d="M286,63l1-0.2c0.1,0.4,0.2,0.7,0.4,0.9c0.2,0.2,0.6,0.3,1,0.3s0.8-0.1,1-0.3s0.3-0.4,0.3-0.6
		c0-0.2-0.1-0.4-0.3-0.5c-0.1-0.1-0.5-0.2-1-0.3c-0.7-0.2-1.2-0.3-1.5-0.5c-0.3-0.1-0.5-0.3-0.6-0.5s-0.2-0.5-0.2-0.8
		s0.1-0.5,0.2-0.7s0.3-0.4,0.5-0.5c0.1-0.1,0.4-0.2,0.6-0.3c0.3-0.1,0.5-0.1,0.8-0.1c0.4,0,0.8,0.1,1.2,0.2c0.3,0.1,0.6,0.3,0.7,0.5
		s0.3,0.5,0.3,0.9l-0.9,0.1c0-0.3-0.2-0.5-0.4-0.7c-0.2-0.2-0.5-0.2-0.9-0.2s-0.8,0.1-0.9,0.2c-0.2,0.1-0.3,0.3-0.3,0.5
		c0,0.1,0,0.2,0.1,0.3s0.2,0.2,0.4,0.3c0.1,0,0.4,0.1,0.9,0.2c0.7,0.2,1.2,0.3,1.4,0.4s0.5,0.3,0.6,0.5c0.2,0.2,0.2,0.5,0.2,0.8
		s-0.1,0.6-0.3,0.9c-0.2,0.3-0.5,0.5-0.8,0.7c-0.4,0.2-0.8,0.2-1.2,0.2c-0.7,0-1.3-0.2-1.7-0.5C286.4,64,286.2,63.6,286,63z"/>
</g>
<g class="st1">
	<path class="st4" d="M292.6,67h-0.7c1.1-1.7,1.6-3.4,1.6-5.2c0-0.7-0.1-1.3-0.2-2c-0.1-0.5-0.3-1.1-0.5-1.5
		c-0.1-0.3-0.4-0.9-0.9-1.6h0.7c0.7,0.9,1.2,1.8,1.5,2.7c0.3,0.8,0.4,1.6,0.4,2.4c0,1-0.2,1.9-0.6,2.8
		C293.5,65.5,293.1,66.3,292.6,67z"/>
</g>
<g class="st1">
	<path class="st4" d="M8.5,75.8v1.1h-1V76c0-0.5,0.1-0.8,0.2-1c0.1-0.3,0.4-0.5,0.7-0.6l0.2,0.4c-0.2,0.1-0.3,0.2-0.4,0.4
		c-0.1,0-0.2,0.3-0.2,0.6H8.5z M10.2,75.8v1.1h-1V76c0-0.5,0.1-0.8,0.2-1c0.2-0.3,0.4-0.5,0.7-0.6l0.2,0.4c-0.2,0.1-0.3,0.2-0.4,0.4
		c-0.1,0.2-0.1,0.4-0.2,0.7L10.2,75.8L10.2,75.8z"/>
	<path class="st4" d="M11.5,82.3v-7.9h2.9c0.6,0,1.1,0.1,1.4,0.2s0.6,0.4,0.9,0.7c0.2,0.3,0.3,0.7,0.3,1s-0.1,0.7-0.3,0.9
		c-0.2,0.3-0.5,0.5-0.8,0.7c0.5,0.1,0.8,0.4,1.1,0.7c0.3,0.3,0.4,0.7,0.4,1.2c0,0.4-0.1,0.7-0.2,1c-0.2,0.3-0.3,0.6-0.6,0.7
		c-0.2,0.2-0.5,0.3-0.9,0.4C15.4,82,14.9,82,14.4,82h-2.9V82.3z M12.6,77.8h1.7c0.5,0,0.8,0,1-0.1c0.3-0.1,0.5-0.2,0.6-0.4
		c0.1-0.2,0.2-0.4,0.2-0.7c0-0.3-0.1-0.5-0.2-0.7c-0.1-0.2-0.3-0.3-0.5-0.4s-0.6-0.1-1.2-0.1h-1.6V77.8z M12.6,81.4h2
		c0.3,0,0.6,0,0.7,0c0.2,0,0.4-0.1,0.6-0.2c0.2-0.1,0.3-0.2,0.4-0.4c0.1-0.2,0.2-0.4,0.2-0.7c0-0.3-0.1-0.5-0.2-0.8
		c-0.2-0.2-0.4-0.4-0.6-0.5c-0.3-0.1-0.6-0.1-1.2-0.1h-1.8v2.7H12.6z"/>
	<path class="st4" d="M22.7,80.5l1,0.1c-0.2,0.6-0.4,1-0.9,1.4c-0.4,0.3-1,0.5-1.6,0.5c-0.8,0-1.5-0.3-2-0.8s-0.7-1.2-0.7-2.2
		s0.2-1.7,0.7-2.2s1.1-0.8,1.9-0.8s1.4,0.3,1.9,0.8s0.7,1.2,0.7,2.2c0,0.1,0,0.1,0,0.3h-4.2c0,0.6,0.2,1.1,0.5,1.4s0.7,0.5,1.2,0.5
		c0.4,0,0.7-0.1,0.9-0.3S22.5,80.9,22.7,80.5z M19.5,78.9h3.2c0-0.5-0.2-0.8-0.4-1.1c-0.3-0.4-0.7-0.6-1.2-0.6
		c-0.4,0-0.8,0.1-1.1,0.4C19.7,78,19.5,78.4,19.5,78.9z"/>
	<path class="st4" d="M24.5,80.6l1-0.2c0.1,0.4,0.2,0.7,0.4,0.9c0.2,0.2,0.6,0.3,1,0.3s0.8-0.1,1-0.3s0.3-0.4,0.3-0.6
		s-0.1-0.4-0.3-0.5c-0.1-0.1-0.5-0.2-1-0.3c-0.7-0.2-1.2-0.3-1.5-0.5c-0.3-0.1-0.5-0.3-0.6-0.5s-0.2-0.5-0.2-0.8s0.1-0.5,0.2-0.7
		s0.3-0.4,0.5-0.5c0.1-0.1,0.4-0.2,0.6-0.3s0.5-0.1,0.8-0.1c0.4,0,0.8,0.1,1.2,0.2c0.3,0.1,0.6,0.3,0.7,0.5c0.2,0.2,0.3,0.5,0.3,0.9
		L28,78.2c0-0.3-0.2-0.5-0.4-0.7s-0.5-0.2-0.9-0.2s-0.8,0.1-0.9,0.2c-0.2,0.1-0.3,0.3-0.3,0.5c0,0.1,0,0.2,0.1,0.3
		c0.1,0.1,0.2,0.2,0.4,0.3c0.1,0,0.4,0.1,0.9,0.2c0.7,0.2,1.2,0.3,1.4,0.4c0.3,0.1,0.5,0.3,0.6,0.5s0.2,0.5,0.2,0.8
		s-0.1,0.6-0.3,0.9c-0.2,0.3-0.5,0.5-0.8,0.7s-0.8,0.2-1.2,0.2c-0.7,0-1.3-0.2-1.7-0.5C24.8,81.7,24.6,81.2,24.5,80.6z"/>
	<path class="st4" d="M32.5,81.5l0.1,0.9c-0.3,0.1-0.5,0.1-0.7,0.1c-0.4,0-0.6-0.1-0.8-0.2c-0.2-0.1-0.3-0.3-0.4-0.4
		s-0.1-0.6-0.1-1.1v-3.3h-0.7v-0.8h0.7v-1.4l1-0.6v2h1v0.8h-1v3.3c0,0.3,0,0.5,0.1,0.5c0,0.1,0.1,0.1,0.2,0.2c0.1,0,0.2,0.1,0.3,0.1
		C32.1,81.5,32.3,81.5,32.5,81.5z"/>
	<path class="st4" d="M36.5,84.5v-7.9h0.9v0.7c0.2-0.3,0.4-0.5,0.7-0.7c0.3-0.1,0.6-0.2,0.9-0.2c0.5,0,0.9,0.1,1.3,0.4
		s0.7,0.6,0.8,1.1c0.2,0.5,0.3,1,0.3,1.5c0,0.6-0.1,1.1-0.3,1.6s-0.5,0.8-0.9,1.1c-0.4,0.2-0.8,0.4-1.3,0.4c-0.3,0-0.6-0.1-0.9-0.2
		c-0.3-0.1-0.5-0.3-0.6-0.5v2.8h-0.9V84.5z M37.3,79.5c0,0.7,0.1,1.3,0.4,1.6c0.3,0.4,0.7,0.5,1.1,0.5c0.4,0,0.8-0.2,1.1-0.5
		c0.3-0.4,0.5-0.9,0.5-1.7c0-0.7-0.1-1.3-0.4-1.6c-0.3-0.4-0.7-0.5-1.1-0.5c-0.4,0-0.8,0.2-1.1,0.6C37.5,78.2,37.3,78.8,37.3,79.5z"
		/>
	<path class="st4" d="M42.5,82.3v-5.7h0.9v0.9c0.2-0.4,0.4-0.7,0.6-0.8c0.2-0.1,0.4-0.2,0.6-0.2c0.3,0,0.7,0.1,1,0.3l-0.3,0.9
		c-0.2-0.1-0.5-0.2-0.7-0.2s-0.4,0.1-0.6,0.2s-0.3,0.3-0.4,0.5c-0.1,0.3-0.2,0.7-0.2,1.1v3C43.4,82.3,42.5,82.3,42.5,82.3z"/>
	<path class="st4" d="M46.2,75.6v-1.1h1v1.1H46.2z M46.2,82.3v-5.7h1v5.7H46.2z"/>
	<path class="st4" d="M52.4,80.2l0.9,0.1c-0.1,0.7-0.4,1.2-0.8,1.5c-0.4,0.4-1,0.6-1.6,0.6c-0.8,0-1.4-0.3-1.9-0.8s-0.7-1.2-0.7-2.2
		c0-0.6,0.1-1.2,0.3-1.6s0.5-0.8,0.9-1s0.9-0.3,1.4-0.3c0.6,0,1.1,0.2,1.5,0.5s0.6,0.8,0.8,1.3l-0.9,0.1c-0.1-0.4-0.2-0.7-0.5-0.9
		c-0.2-0.2-0.5-0.3-0.8-0.3c-0.5,0-0.9,0.2-1.2,0.5s-0.5,0.9-0.5,1.7c0,0.8,0.1,1.3,0.4,1.7s0.7,0.5,1.1,0.5c0.4,0,0.7-0.1,0.9-0.3
		C52.1,81.1,52.3,80.7,52.4,80.2z"/>
	<path class="st4" d="M58,80.5l1,0.1c-0.2,0.6-0.4,1-0.9,1.4c-0.4,0.3-1,0.5-1.6,0.5c-0.8,0-1.5-0.3-2-0.8s-0.7-1.2-0.7-2.2
		s0.2-1.7,0.7-2.2s1.1-0.8,1.9-0.8c0.8,0,1.4,0.3,1.9,0.8s0.7,1.2,0.7,2.2c0,0.1,0,0.1,0,0.3h-4.2c0,0.6,0.2,1.1,0.5,1.4
		s0.7,0.5,1.2,0.5c0.4,0,0.7-0.1,0.9-0.3C57.7,81.2,57.9,80.9,58,80.5z M54.9,78.9h3.2c0-0.5-0.2-0.8-0.4-1.1
		c-0.3-0.4-0.7-0.6-1.2-0.6c-0.4,0-0.8,0.1-1.1,0.4C55.1,78,54.9,78.4,54.9,78.9z"/>
	<path class="st4" d="M59.9,80.6l1-0.2c0.1,0.4,0.2,0.7,0.4,0.9c0.2,0.2,0.6,0.3,1,0.3s0.8-0.1,1-0.3s0.3-0.4,0.3-0.6
		s-0.1-0.4-0.3-0.5c-0.1-0.1-0.5-0.2-1-0.3c-0.7-0.2-1.2-0.3-1.5-0.5c-0.3-0.1-0.5-0.3-0.6-0.5S60,78.4,60,78.1s0.1-0.5,0.2-0.7
		c0.1-0.2,0.3-0.4,0.5-0.5c0.1-0.1,0.4-0.2,0.6-0.3s0.5-0.1,0.8-0.1c0.4,0,0.8,0.1,1.2,0.2c0.3,0.1,0.6,0.3,0.7,0.5
		c0.2,0.2,0.3,0.5,0.3,0.9l-0.9,0.1c0-0.3-0.2-0.5-0.4-0.7s-0.5-0.2-0.9-0.2s-0.8,0.1-0.9,0.2C61.1,77.7,61,77.8,61,78
		c0,0.1,0,0.2,0.1,0.3c0.1,0.1,0.2,0.2,0.4,0.3c0.1,0,0.4,0.1,0.9,0.2c0.7,0.2,1.2,0.3,1.4,0.4c0.3,0.1,0.5,0.3,0.6,0.5
		s0.2,0.5,0.2,0.8s-0.1,0.6-0.3,0.9c-0.2,0.3-0.5,0.5-0.8,0.7s-0.8,0.2-1.2,0.2c-0.7,0-1.3-0.2-1.7-0.5C60.2,81.7,60,81.2,59.9,80.6
		z"/>
	<path class="st4" d="M72.5,81.6c-0.4,0.3-0.7,0.5-1,0.6s-0.7,0.2-1.1,0.2c-0.6,0-1.1-0.2-1.4-0.5s-0.5-0.7-0.5-1.2
		c0-0.3,0.1-0.5,0.2-0.8c0.1-0.2,0.3-0.4,0.5-0.6c0.2-0.1,0.4-0.2,0.7-0.3c0.2,0,0.5-0.1,0.9-0.1c0.8-0.1,1.4-0.2,1.7-0.3
		c0-0.1,0-0.2,0-0.3c0-0.4-0.1-0.7-0.3-0.8c-0.2-0.2-0.6-0.3-1.1-0.3s-0.8,0.1-1,0.2s-0.4,0.4-0.5,0.8l-0.9-0.1
		c0.1-0.4,0.2-0.7,0.4-1c0.2-0.2,0.5-0.4,0.9-0.6c0.4-0.1,0.8-0.2,1.3-0.2s0.9,0.1,1.2,0.2c0.3,0.1,0.5,0.3,0.7,0.4
		c0.1,0.2,0.2,0.4,0.3,0.7c0,0.2,0,0.5,0,0.9v1.3c0,0.9,0,1.5,0.1,1.7s0.1,0.5,0.2,0.7h-1C72.6,82.1,72.5,81.9,72.5,81.6z
		 M72.4,79.5c-0.4,0.1-0.9,0.3-1.6,0.4C70.4,80,70.1,80,70,80.1c-0.2,0.1-0.3,0.2-0.4,0.3s-0.1,0.3-0.1,0.5c0,0.3,0.1,0.5,0.3,0.6
		s0.5,0.3,0.9,0.3s0.7-0.1,1-0.2c0.3-0.2,0.5-0.4,0.6-0.7c0.1-0.2,0.2-0.5,0.2-1L72.4,79.5L72.4,79.5z"/>
	<path class="st4" d="M74.9,82.3v-5.7h0.9v0.8c0.4-0.6,1-0.9,1.8-0.9c0.3,0,0.7,0.1,0.9,0.2c0.3,0.1,0.5,0.3,0.6,0.5
		s0.2,0.4,0.3,0.7c0,0.2,0.1,0.5,0.1,0.9v3.5h-1v-3.5c0-0.4,0-0.7-0.1-0.9c-0.1-0.2-0.2-0.3-0.4-0.5s-0.4-0.2-0.7-0.2
		c-0.4,0-0.8,0.1-1.1,0.4c-0.3,0.3-0.4,0.8-0.4,1.5v3.1L74.9,82.3L74.9,82.3z"/>
	<path class="st4" d="M81,84.5l-0.1-0.9c0.2,0.1,0.4,0.1,0.6,0.1s0.4,0,0.5-0.1s0.2-0.2,0.3-0.3c0.1-0.1,0.2-0.3,0.3-0.7
		c0-0.1,0-0.1,0.1-0.2l-2.2-5.7h1l1.2,3.3c0.2,0.4,0.3,0.9,0.4,1.3c0.1-0.4,0.2-0.9,0.4-1.3l1.2-3.3h1l-2.2,5.8
		c-0.2,0.6-0.4,1.1-0.5,1.3c-0.2,0.3-0.4,0.6-0.6,0.7s-0.5,0.2-0.8,0.2C81.4,84.6,81.2,84.6,81,84.5z"/>
	<path class="st4" d="M87.5,82.3l-1.7-5.7h1l0.9,3.3l0.3,1.2c0-0.1,0.1-0.5,0.3-1.2l0.9-3.3h1l0.9,3.3l0.3,1.1l0.3-1.1l1-3.3h0.9
		l-1.8,5.7h-1l-0.9-3.4l-0.2-1l-1.2,4.4H87.5z"/>
	<path class="st4" d="M94.4,82.3v-7.9h1v2.8c0.5-0.5,1-0.8,1.7-0.8c0.4,0,0.8,0.1,1.1,0.2s0.5,0.4,0.7,0.7c0.1,0.3,0.2,0.7,0.2,1.3
		v3.6h-1v-3.6c0-0.5-0.1-0.8-0.3-1.1c-0.2-0.2-0.5-0.3-0.9-0.3c-0.3,0-0.6,0.1-0.8,0.2s-0.4,0.3-0.5,0.6s-0.2,0.6-0.2,1.1v3.1h-1
		V82.3z"/>
	<path class="st4" d="M104.4,80.5l1,0.1c-0.2,0.6-0.4,1-0.9,1.4c-0.4,0.3-1,0.5-1.6,0.5c-0.8,0-1.5-0.3-2-0.8s-0.7-1.2-0.7-2.2
		s0.2-1.7,0.7-2.2s1.1-0.8,1.9-0.8s1.4,0.3,1.9,0.8s0.7,1.2,0.7,2.2c0,0.1,0,0.1,0,0.3h-4.2c0,0.6,0.2,1.1,0.5,1.4s0.7,0.5,1.2,0.5
		c0.4,0,0.7-0.1,0.9-0.3C104.1,81.2,104.3,80.9,104.4,80.5z M101.3,78.9h3.2c0-0.5-0.2-0.8-0.4-1.1c-0.3-0.4-0.7-0.6-1.2-0.6
		c-0.4,0-0.8,0.1-1.1,0.4C101.5,78,101.3,78.4,101.3,78.9z"/>
	<path class="st4" d="M106.6,82.3v-5.7h0.9v0.9c0.2-0.4,0.4-0.7,0.6-0.8c0.2-0.1,0.4-0.2,0.6-0.2c0.3,0,0.7,0.1,1,0.3l-0.3,0.9
		c-0.2-0.1-0.5-0.2-0.7-0.2s-0.4,0.1-0.6,0.2s-0.3,0.3-0.4,0.5c-0.1,0.3-0.2,0.7-0.2,1.1v3C107.5,82.3,106.6,82.3,106.6,82.3z"/>
	<path class="st4" d="M114.2,80.5l1,0.1c-0.2,0.6-0.4,1-0.9,1.4c-0.4,0.3-1,0.5-1.6,0.5c-0.8,0-1.5-0.3-2-0.8s-0.7-1.2-0.7-2.2
		s0.2-1.7,0.7-2.2s1.1-0.8,1.9-0.8s1.4,0.3,1.9,0.8s0.7,1.2,0.7,2.2c0,0.1,0,0.1,0,0.3H111c0,0.6,0.2,1.1,0.5,1.4s0.7,0.5,1.2,0.5
		c0.4,0,0.7-0.1,0.9-0.3S114,80.9,114.2,80.5z M111,78.9h3.2c0-0.5-0.2-0.8-0.4-1.1c-0.3-0.4-0.7-0.6-1.2-0.6
		c-0.4,0-0.8,0.1-1.1,0.4C111.2,78,111.1,78.4,111,78.9z"/>
	<path class="st4" d="M116.9,80.4l-0.3-4.2v-1.7h1.2v1.7l-0.3,4.2H116.9z M116.7,82.3v-1.1h1.1v1.1H116.7z"/>
	<path class="st4" d="M119.2,75.5v-1.1h1v0.9c0,0.5-0.1,0.8-0.2,1c-0.2,0.3-0.4,0.5-0.7,0.7l-0.2-0.4c0.2-0.1,0.3-0.2,0.4-0.4
		s0.1-0.4,0.2-0.7H119.2z M120.9,75.5v-1.1h1v0.9c0,0.5-0.1,0.8-0.2,1c-0.2,0.3-0.4,0.5-0.7,0.7l-0.2-0.4c0.2-0.1,0.3-0.2,0.4-0.4
		s0.1-0.4,0.2-0.7H120.9z"/>
	<path class="st4" d="M125.8,80v-1h3v1H125.8z"/>
	<path class="st4" d="M133.1,82.3v-4.9h-0.9v-0.8h0.9V76c0-0.4,0-0.7,0.1-0.9c0.1-0.2,0.3-0.5,0.5-0.6c0.2-0.2,0.6-0.2,1-0.2
		c0.3,0,0.6,0,0.9,0.1l-0.1,0.8c-0.2,0-0.4-0.1-0.6-0.1c-0.3,0-0.5,0.1-0.6,0.2s-0.2,0.4-0.2,0.7v0.5h1.1v0.8h-1.1v4.9L133.1,82.3
		L133.1,82.3z"/>
	<path class="st4" d="M135.9,82.3v-5.7h0.9v0.9c0.2-0.4,0.4-0.7,0.6-0.8c0.2-0.1,0.4-0.2,0.6-0.2c0.3,0,0.7,0.1,1,0.3l-0.3,0.9
		c-0.2-0.1-0.5-0.2-0.7-0.2s-0.4,0.1-0.6,0.2s-0.3,0.3-0.4,0.5c-0.1,0.3-0.2,0.7-0.2,1.1v3C136.8,82.3,135.9,82.3,135.9,82.3z"/>
	<path class="st4" d="M139.2,79.5c0-1.1,0.3-1.8,0.9-2.3c0.5-0.4,1.1-0.6,1.8-0.6c0.8,0,1.4,0.3,1.9,0.8s0.7,1.2,0.7,2.1
		c0,0.7-0.1,1.3-0.3,1.7c-0.2,0.4-0.5,0.7-1,1s-0.9,0.3-1.4,0.3c-0.8,0-1.4-0.3-1.9-0.8C139.5,81.2,139.2,80.4,139.2,79.5z
		 M140.2,79.5c0,0.7,0.2,1.3,0.5,1.6c0.3,0.4,0.7,0.5,1.2,0.5s0.9-0.2,1.2-0.5c0.3-0.4,0.5-0.9,0.5-1.7c0-0.7-0.2-1.2-0.5-1.6
		s-0.7-0.5-1.2-0.5s-0.9,0.2-1.2,0.5C140.4,78.2,140.2,78.7,140.2,79.5z"/>
	<path class="st4" d="M145.7,82.3v-5.7h0.9v0.8c0.2-0.3,0.4-0.5,0.7-0.7s0.6-0.3,1-0.3s0.8,0.1,1,0.3s0.5,0.4,0.6,0.7
		c0.5-0.7,1-1,1.8-1c0.6,0,1,0.2,1.3,0.5s0.5,0.8,0.5,1.4v3.9h-1v-3.6c0-0.4,0-0.7-0.1-0.8c-0.1-0.2-0.2-0.3-0.3-0.4
		c-0.2-0.1-0.4-0.2-0.6-0.2c-0.4,0-0.7,0.1-1,0.4s-0.4,0.7-0.4,1.3v3.3h-1v-3.7c0-0.4-0.1-0.8-0.2-1c-0.2-0.2-0.4-0.3-0.8-0.3
		c-0.3,0-0.5,0.1-0.8,0.2s-0.4,0.4-0.5,0.6s-0.2,0.7-0.2,1.2v3L145.7,82.3L145.7,82.3z"/>
	<path class="st4" d="M161.6,80.2l0.9,0.1c-0.1,0.7-0.4,1.2-0.8,1.5c-0.4,0.4-1,0.6-1.6,0.6c-0.8,0-1.4-0.3-1.9-0.8
		s-0.7-1.2-0.7-2.2c0-0.6,0.1-1.2,0.3-1.6c0.2-0.5,0.5-0.8,0.9-1s0.9-0.3,1.4-0.3c0.6,0,1.1,0.2,1.5,0.5s0.6,0.8,0.8,1.3l-0.9,0.1
		c-0.1-0.4-0.2-0.7-0.5-0.9c-0.2-0.2-0.5-0.3-0.8-0.3c-0.5,0-0.9,0.2-1.2,0.5s-0.5,0.9-0.5,1.7c0,0.8,0.1,1.3,0.4,1.7
		s0.7,0.5,1.1,0.5c0.4,0,0.7-0.1,0.9-0.3C161.4,81.1,161.5,80.7,161.6,80.2z"/>
	<path class="st4" d="M163,79.5c0-1.1,0.3-1.8,0.9-2.3c0.5-0.4,1.1-0.6,1.8-0.6c0.8,0,1.4,0.3,1.9,0.8s0.7,1.2,0.7,2.1
		c0,0.7-0.1,1.3-0.3,1.7c-0.2,0.4-0.5,0.7-1,1s-0.9,0.3-1.4,0.3c-0.8,0-1.4-0.3-1.9-0.8C163.3,81.2,163,80.4,163,79.5z M164,79.5
		c0,0.7,0.2,1.3,0.5,1.6c0.3,0.4,0.7,0.5,1.2,0.5s0.9-0.2,1.2-0.5c0.3-0.4,0.5-0.9,0.5-1.7c0-0.7-0.2-1.2-0.5-1.6s-0.7-0.5-1.2-0.5
		s-0.9,0.2-1.2,0.5C164.2,78.2,164,78.7,164,79.5z"/>
	<path class="st4" d="M169.5,82.3v-5.7h0.9v0.8c0.4-0.6,1-0.9,1.8-0.9c0.3,0,0.7,0.1,0.9,0.2c0.3,0.1,0.5,0.3,0.6,0.5
		s0.2,0.4,0.3,0.7c0,0.2,0.1,0.5,0.1,0.9v3.5h-1v-3.5c0-0.4,0-0.7-0.1-0.9c-0.1-0.2-0.2-0.3-0.4-0.5s-0.4-0.2-0.7-0.2
		c-0.4,0-0.8,0.1-1.1,0.4s-0.4,0.8-0.4,1.5v3.1L169.5,82.3L169.5,82.3z"/>
	<path class="st4" d="M175.2,80.6l1-0.2c0.1,0.4,0.2,0.7,0.4,0.9c0.2,0.2,0.6,0.3,1,0.3s0.8-0.1,1-0.3c0.2-0.2,0.3-0.4,0.3-0.6
		s-0.1-0.4-0.3-0.5c-0.1-0.1-0.5-0.2-1-0.3c-0.7-0.2-1.2-0.3-1.5-0.5c-0.3-0.1-0.5-0.3-0.6-0.5s-0.2-0.5-0.2-0.8s0.1-0.5,0.2-0.7
		c0.1-0.2,0.3-0.4,0.5-0.5s0.4-0.2,0.6-0.3c0.3-0.1,0.5-0.1,0.8-0.1c0.4,0,0.8,0.1,1.2,0.2c0.3,0.1,0.6,0.3,0.7,0.5
		c0.2,0.2,0.3,0.5,0.3,0.9l-0.9,0.1c0-0.3-0.2-0.5-0.4-0.7s-0.5-0.2-0.9-0.2s-0.8,0.1-0.9,0.2c-0.2,0.1-0.3,0.3-0.3,0.5
		c0,0.1,0,0.2,0.1,0.3c0.1,0.1,0.2,0.2,0.4,0.3c0.1,0,0.4,0.1,0.9,0.2c0.7,0.2,1.2,0.3,1.4,0.4c0.3,0.1,0.5,0.3,0.6,0.5
		c0.2,0.2,0.2,0.5,0.2,0.8s-0.1,0.6-0.3,0.9s-0.5,0.5-0.8,0.7c-0.4,0.2-0.8,0.2-1.2,0.2c-0.7,0-1.3-0.2-1.7-0.5
		C175.5,81.7,175.3,81.2,175.2,80.6z"/>
	<path class="st4" d="M184.8,82.3v-0.8c-0.4,0.6-1,1-1.8,1c-0.3,0-0.6-0.1-0.9-0.2c-0.3-0.1-0.5-0.3-0.6-0.5s-0.2-0.4-0.3-0.7
		c0-0.2-0.1-0.5-0.1-0.9v-3.5h1v3.2c0,0.5,0,0.8,0.1,1c0.1,0.3,0.2,0.5,0.4,0.6s0.4,0.2,0.7,0.2s0.6-0.1,0.8-0.2
		c0.3-0.1,0.4-0.4,0.5-0.6c0.1-0.3,0.2-0.6,0.2-1.1v-3h1v5.7h-1V82.3z"/>
	<path class="st4" d="M187.2,82.3v-5.7h0.9v0.8c0.2-0.3,0.4-0.5,0.7-0.7s0.6-0.3,1-0.3s0.8,0.1,1,0.3c0.3,0.2,0.5,0.4,0.6,0.7
		c0.5-0.7,1-1,1.8-1c0.6,0,1,0.2,1.3,0.5s0.5,0.8,0.5,1.4v3.9h-1v-3.6c0-0.4,0-0.7-0.1-0.8c-0.1-0.2-0.2-0.3-0.3-0.4
		c-0.2-0.1-0.4-0.2-0.6-0.2c-0.4,0-0.7,0.1-1,0.4s-0.4,0.7-0.4,1.3v3.3h-1v-3.7c0-0.4-0.1-0.8-0.2-1c-0.2-0.2-0.4-0.3-0.8-0.3
		c-0.3,0-0.5,0.1-0.8,0.2s-0.4,0.4-0.5,0.6s-0.2,0.7-0.2,1.2v3L187.2,82.3L187.2,82.3z"/>
	<path class="st4" d="M200.2,80.5l1,0.1c-0.2,0.6-0.4,1-0.9,1.4c-0.4,0.3-1,0.5-1.6,0.5c-0.8,0-1.5-0.3-2-0.8s-0.7-1.2-0.7-2.2
		s0.2-1.7,0.7-2.2s1.1-0.8,1.9-0.8c0.8,0,1.4,0.3,1.9,0.8s0.7,1.2,0.7,2.2c0,0.1,0,0.1,0,0.3H197c0,0.6,0.2,1.1,0.5,1.4
		s0.7,0.5,1.2,0.5c0.4,0,0.7-0.1,0.9-0.3C199.9,81.2,200.1,80.9,200.2,80.5z M197,78.9h3.2c0-0.5-0.2-0.8-0.4-1.1
		c-0.3-0.4-0.7-0.6-1.2-0.6c-0.4,0-0.8,0.1-1.1,0.4C197.2,78,197.1,78.4,197,78.9z"/>
	<path class="st4" d="M202.4,82.3v-5.7h0.9v0.9c0.2-0.4,0.4-0.7,0.6-0.8c0.2-0.1,0.4-0.2,0.6-0.2c0.3,0,0.7,0.1,1,0.3l-0.3,0.9
		c-0.2-0.1-0.5-0.2-0.7-0.2s-0.4,0.1-0.6,0.2s-0.3,0.3-0.4,0.5c-0.1,0.3-0.2,0.7-0.2,1.1v3C203.3,82.3,202.4,82.3,202.4,82.3z"/>
	<path class="st4" d="M209.1,82.3v-5.7h0.9v0.9c0.2-0.4,0.4-0.7,0.6-0.8c0.2-0.1,0.4-0.2,0.6-0.2c0.3,0,0.7,0.1,1,0.3l-0.3,0.9
		c-0.2-0.1-0.5-0.2-0.7-0.2s-0.4,0.1-0.6,0.2s-0.3,0.3-0.4,0.5c-0.1,0.3-0.2,0.7-0.2,1.1v3C210,82.3,209.1,82.3,209.1,82.3z"/>
	<path class="st4" d="M216.7,80.5l1,0.1c-0.2,0.6-0.4,1-0.9,1.4c-0.4,0.3-1,0.5-1.6,0.5c-0.8,0-1.5-0.3-2-0.8s-0.7-1.2-0.7-2.2
		s0.2-1.7,0.7-2.2s1.1-0.8,1.9-0.8c0.8,0,1.4,0.3,1.9,0.8s0.7,1.2,0.7,2.2c0,0.1,0,0.1,0,0.3h-4.2c0,0.6,0.2,1.1,0.5,1.4
		s0.7,0.5,1.2,0.5c0.4,0,0.7-0.1,0.9-0.3C216.3,81.2,216.5,80.9,216.7,80.5z M213.5,78.9h3.2c0-0.5-0.2-0.8-0.4-1.1
		c-0.3-0.4-0.7-0.6-1.2-0.6c-0.4,0-0.8,0.1-1.1,0.4C213.7,78,213.6,78.4,213.5,78.9z"/>
	<path class="st4" d="M220.5,82.3l-2.2-5.7h1l1.2,3.4c0.1,0.4,0.3,0.8,0.4,1.1c0.1-0.3,0.2-0.7,0.4-1.1l1.3-3.5h1l-2.2,5.7
		L220.5,82.3L220.5,82.3z"/>
	<path class="st4" d="M224.4,75.6v-1.1h1v1.1H224.4z M224.4,82.3v-5.7h1v5.7H224.4z"/>
	<path class="st4" d="M230.7,80.5l1,0.1c-0.2,0.6-0.4,1-0.9,1.4c-0.4,0.3-1,0.5-1.6,0.5c-0.8,0-1.5-0.3-2-0.8s-0.7-1.2-0.7-2.2
		s0.2-1.7,0.7-2.2s1.1-0.8,1.9-0.8c0.8,0,1.4,0.3,1.9,0.8s0.7,1.2,0.7,2.2c0,0.1,0,0.1,0,0.3h-4.2c0,0.6,0.2,1.1,0.5,1.4
		s0.7,0.5,1.2,0.5c0.4,0,0.7-0.1,0.9-0.3C230.4,81.2,230.6,80.9,230.7,80.5z M227.6,78.9h3.2c0-0.5-0.2-0.8-0.4-1.1
		c-0.3-0.4-0.7-0.6-1.2-0.6c-0.4,0-0.8,0.1-1.1,0.4C227.8,78,227.6,78.4,227.6,78.9z"/>
	<path class="st4" d="M234,82.3l-1.7-5.7h1l0.9,3.3l0.3,1.2c0-0.1,0.1-0.5,0.3-1.2l0.9-3.3h1l0.9,3.3l0.3,1.1l0.3-1.1l1-3.3h0.9
		l-1.8,5.7h-1l-0.9-3.4l-0.2-1l-1.2,4.4H234z"/>
</g>
<polygon class="st6" points="135.8,56.4 137,59.6 140.4,59.8 137.8,61.9 138.6,65.3 135.8,63.4 132.9,65.3 133.8,61.9 131.1,59.8 
	134.5,59.6 "/>
<polygon class="st6" points="146.9,56.4 148.2,59.6 151.6,59.8 148.9,61.9 149.8,65.3 146.9,63.4 144,65.3 144.9,61.9 142.2,59.8 
	145.7,59.6 "/>
<polygon class="st6" points="158.4,56.4 159.6,59.6 163.1,59.8 160.4,61.9 161.3,65.3 158.4,63.4 155.5,65.3 156.4,61.9 153.8,59.8 
	157.2,59.6 "/>
<polygon class="st6" points="169.4,56.4 170.6,59.6 174.1,59.8 171.4,61.9 172.3,65.3 169.4,63.4 166.5,65.3 167.4,61.9 164.7,59.8 
	168.2,59.6 "/>
<polygon class="st7" points="180.4,56.4 181.6,59.6 185,59.8 182.4,61.9 183.3,65.3 180.4,63.4 177.5,65.3 178.4,61.9 175.7,59.8 
	179.1,59.6 "/>
<rect x="1.8" y="14.4" class="st8" width="21.6" height="20.2"/>
<path class="st9" d="M9.1,19.2c-5.7,10.5,12.7,9.2,6.6,0H9.1z M9.7,19.9h5.4C19.9,27.3,5.2,28.3,9.7,19.9L9.7,19.9z"/>
<path class="st9" d="M11.9,26.2v3.2c-1,0.1-2,0.6-2.7,1.3c2.1,0.1,4.2,0.1,6.3,0.1c-0.7-0.8-1.7-1.2-2.8-1.3v-3.3
	C12.4,26.2,12.2,26.2,11.9,26.2z"/>
<polygon class="st9" points="7.9,21.6 16.7,21.6 16.6,23.6 15.3,25.3 13.4,26.1 11.4,26.3 9.9,25.8 8.7,24.9 7.9,23.6 "/>
</svg>
