<?xml version="1.0" encoding="utf-8"?>
<!-- Generator: Adobe Illustrator 22.1.0, SVG Export Plug-In . SVG Version: 6.00 Build 0)  -->
<svg version="1.1" id="Layer_1" xmlns="http://www.w3.org/2000/svg" xmlns:xlink="http://www.w3.org/1999/xlink" x="0px" y="0px"
	 width="453.3px" height="124.3px" viewBox="0 0 453.3 124.3" style="enable-background:new 0 0 453.3 124.3;" xml:space="preserve"
	>
<style type="text/css">
	.st0{fill:#0012FF;}
	.st1{enable-background:new    ;}
	.st2{fill:#009245;}
	.st3{fill:#999999;}
	.st4{fill:#737373;}
	.st5{fill:#0000FF;}
	.st6{fill:#FF8C00;}
	.st7{fill:#D2D2D2;}
	.st8{fill:none;stroke:#008272;stroke-width:3.57;stroke-miterlimit:10;}
</style>
<title>Asset 4</title>
<g>
	<path class="st0" d="M23.1,9.7l2,0.5c-0.5,1.7-1.2,2.8-2.3,3.6c-1.1,0.8-2.4,1.2-3.9,1.2c-1.7,0-2.8-0.3-3.9-0.9
		c-1-0.6-1.8-1.7-2.3-2.8c-0.4-1-0.7-2.4-0.7-3.8c0-1.5,0.3-2.9,0.9-4c0.6-1.2,1.3-2,2.5-2.6S17.7,0,19,0c1.5,0,2.7,0.3,3.8,1.2
		c1.1,0.9,1.7,1.8,2.1,3.1l-2,0.4c-0.3-1.1-0.9-1.8-1.5-2.4c-0.6-0.4-1.5-0.8-2.4-0.8c-1.2,0-2.1,0.3-2.9,0.8
		c-0.8,0.6-1.3,1.2-1.6,2.3C14.2,5.5,14,6.4,14,7.5c0,1.2,0.2,2.4,0.6,3.3c0.3,0.9,0.9,1.7,1.7,2.1c0.8,0.5,1.7,0.8,2.5,0.8
		c1,0,2-0.3,2.7-0.9C22.3,12,22.8,11.1,23.1,9.7z"/>
	<path class="st0" d="M26.5,9.6c0-1.9,0.6-3.4,1.6-4.4C29,4.4,30.2,4,31.4,4c1.5,0,2.7,0.4,3.6,1.5c1.1,0.9,1.5,2.3,1.5,3.9
		c0,1.3-0.2,2.4-0.6,3.3c-0.5,0.8-1.1,1.3-1.8,1.8s-1.6,0.6-2.5,0.6c-1.5,0-2.7-0.5-3.6-1.5C27,12.7,26.5,11.4,26.5,9.6z M28.5,9.6
		c0,1.3,0.3,2.4,0.9,3c0.6,0.6,1.3,1,2.3,1c0.9,0,1.6-0.3,2.3-1c0.6-0.8,0.9-1.8,0.9-3.1s-0.3-2.3-0.9-3c-0.6-0.8-1.4-1.1-2.3-1.1
		c-0.9,0-1.7,0.3-2.3,1.1C28.8,7.2,28.5,8.2,28.5,9.6z"/>
	<path class="st0" d="M38.7,15V0.3h1.8v5.3c0.9-1.1,1.9-1.5,3.1-1.5c0.8,0,1.5,0.1,2.1,0.4c0.6,0.3,1.1,0.8,1.2,1.4
		c0.3,0.6,0.5,1.4,0.5,2.4v6.8h-1.8V8.3c0-0.9-0.1-1.5-0.6-1.9c-0.4-0.5-0.9-0.8-1.7-0.8c-0.6,0-1,0.1-1.5,0.4
		c-0.4,0.3-0.8,0.6-1,1.2c-0.2,0.4-0.3,1.2-0.3,1.9v5.8C40.5,15,38.7,15,38.7,15z"/>
	<path class="st0" d="M49.5,9.6c0-1.9,0.6-3.4,1.6-4.4C52,4.4,53.2,4,54.4,4c1.5,0,2.7,0.4,3.6,1.5c0.9,0.9,1.4,2.3,1.4,4.1
		c0,1.3-0.1,2.4-0.6,3.3c-0.4,0.8-1.1,1.3-1.8,1.8c-0.7,0.5-1.6,0.6-2.5,0.6c-1.5,0-2.7-0.5-3.6-1.5C49.9,12.7,49.5,11.4,49.5,9.6z
		 M51.3,9.6c0,1.3,0.3,2.4,0.9,3c0.6,0.6,1.4,1,2.3,1c0.9,0,1.6-0.3,2.3-1c0.6-0.6,0.9-1.7,0.9-3s-0.3-2.3-0.9-3
		c-0.6-0.8-1.4-1-2.3-1c-0.9,0-1.6,0.3-2.3,1C51.5,7.3,51.3,8.2,51.3,9.6z"/>
	<path class="st0" d="M70,15L66.1,0.3H68l2.3,9.6c0.3,1,0.5,1.9,0.6,3c0.4-1.5,0.6-2.5,0.6-2.7l3-9.9h2.4L79,7.8
		c0.6,1.8,0.9,3.6,1.2,5.2c0.1-0.9,0.4-2,0.8-3.2l2.2-9.6h1.9l-4,14.8h-1.9L76,3.7c-0.3-0.9-0.4-1.5-0.4-1.8
		c-0.1,0.8-0.3,1.2-0.4,1.8L72,15H70z"/>
	<path class="st0" d="M86.7,2.2v-2h1.8v2.1h-1.8V2.2z M86.7,15V4.3h1.8v10.6C88.5,15,86.7,15,86.7,15z"/>
	<path class="st0" d="M91.3,15V4.3h1.6v1.5C93.7,4.6,94.8,4,96.4,4c0.6,0,1.2,0.1,1.8,0.3c0.6,0.3,0.9,0.6,1.2,0.9
		c0.3,0.3,0.5,0.8,0.6,1.4c0,0.3,0.1,0.9,0.1,1.8V15H98V8.6c0-0.8,0-1.4-0.1-1.7c-0.1-0.3-0.5-0.6-0.8-0.9c-0.3-0.1-0.8-0.3-1.2-0.3
		c-0.8,0-1.5,0.3-1.9,0.8c-0.6,0.4-0.9,1.3-0.9,2.8v5.8L91.3,15L91.3,15z"/>
	<path class="st0" d="M110.1,11.5l1.8,0.3c-0.3,1-0.9,2-1.6,2.5s-1.8,0.9-3,0.9c-1.5,0-2.9-0.5-3.8-1.5c-0.9-0.9-1.4-2.3-1.4-4
		s0.5-3.1,1.4-4.2s2.1-1.5,3.6-1.5s2.5,0.4,3.5,1.5c0.9,0.9,1.4,2.4,1.4,4c0,0.2,0,0.3,0,0.5h-8c0,1.2,0.5,2.1,1,2.7
		c0.6,0.6,1.4,0.9,2.3,0.9c0.6,0,1.2-0.2,1.6-0.5C109.3,12.9,109.8,12.3,110.1,11.5z M104.1,8.5h6c-0.1-0.9-0.3-1.5-0.8-2
		c-0.6-0.8-1.4-1-2.3-1c-0.9,0-1.5,0.3-2.1,0.9C104.5,6.9,104.1,7.6,104.1,8.5z"/>
	<path class="st0" d="M114.1,15V4.3h1.6v1.6c0.5-0.8,0.8-1.2,1.2-1.5c0.3-0.3,0.8-0.3,1.2-0.3c0.6,0,1.2,0.1,1.8,0.6l-0.6,1.5
		c-0.5-0.3-0.9-0.5-1.4-0.5s-0.8,0.1-1,0.3c-0.3,0.3-0.6,0.6-0.6,1c-0.1,0.6-0.3,1.4-0.3,2.1v5.5h-2L114.1,15L114.1,15z"/>
	<path class="st0" d="M120.9,19l-0.1-1.7c0.5,0.2,0.8,0.2,1,0.2c0.5,0,0.8,0,0.9-0.2c0.3-0.2,0.5-0.3,0.6-0.6
		c0.1-0.2,0.3-0.6,0.6-1.3c0-0.2,0.1-0.3,0.1-0.5l-4-10.6h2l2.3,6.1c0.2,0.8,0.5,1.7,0.6,2.5c0.1-0.9,0.5-1.7,0.8-2.4l2.3-6.1h1.8
		l-4,10.8c-0.5,1.2-0.8,2-1,2.4c-0.3,0.6-0.8,1-1,1.3c-0.5,0.3-0.9,0.5-1.5,0.5C121.8,19.3,121.3,19.2,120.9,19z"/>
	<path class="st0" d="M136.3,10.5V8.7h5.6v1.8H136.3z"/>
	<path class="st0" d="M11.1,17.8v-1.5h131.5v1.5C142.6,17.8,11.1,17.8,11.1,17.8z"/>
</g>
<g class="st1">
	<path class="st0" d="M142.6,17.8v-1.5h4.5v1.5C147.1,17.8,142.6,17.8,142.6,17.8z"/>
</g>
<g class="st1">
	<path class="st0" d="M147.1,15l5.7-14.7h2.1l6,14.7h-2.3l-1.6-4.5h-6.1l-1.6,4.5C149.3,15,147.1,15,147.1,15z M151.3,8.8h5l-1.5-4
		c-0.5-1.2-0.8-2.3-1-3c-0.2,0.9-0.5,2-0.8,2.9L151.3,8.8z"/>
	<path class="st0" d="M162.1,15V0.3h1.8V15C163.9,15,162.1,15,162.1,15z"/>
	<path class="st0" d="M166.8,15V0.3h1.8V15C168.6,15,166.8,15,166.8,15z"/>
	<path class="st0" d="M177.1,15V4.3h1.6v1.6c0.5-0.8,0.8-1.2,1.2-1.5c0.3-0.3,0.8-0.3,1.2-0.3c0.6,0,1.2,0.1,1.8,0.6l-0.8,1.5
		c-0.5-0.3-0.9-0.5-1.3-0.5c-0.4,0-0.8,0.1-1,0.3c-0.3,0.3-0.6,0.6-0.6,1c-0.1,0.6-0.3,1.4-0.3,2.1v5.5h-1.8
		C177.1,14.8,177.1,15,177.1,15z"/>
	<path class="st0" d="M191.2,11.5l1.8,0.3c-0.3,1-0.9,2-1.7,2.5c-0.8,0.5-1.8,0.9-3,0.9c-1.5,0-2.9-0.5-3.8-1.5
		c-0.9-0.9-1.4-2.3-1.4-4s0.5-3.1,1.4-4.2c0.9-1.1,2.1-1.5,3.6-1.5s2.5,0.4,3.4,1.5c0.9,0.9,1.3,2.4,1.3,4c0,0.2,0,0.3,0,0.5h-7.9
		c0,1.2,0.5,2.1,1,2.7c0.6,0.6,1.3,0.9,2.3,0.9c0.6,0,1.2-0.2,1.6-0.5C190.6,12.9,190.9,12.3,191.2,11.5z M185.4,8.5h6
		c-0.2-0.9-0.3-1.5-0.8-2c-0.6-0.8-1.4-1-2.3-1c-0.9,0-1.5,0.3-2.1,0.9C185.7,6.9,185.4,7.6,185.4,8.5z"/>
	<path class="st0" d="M202.3,15v-1.3c-0.8,1-1.7,1.7-3,1.7c-0.9,0-1.7-0.3-2.4-0.8c-0.7-0.5-1.2-1-1.7-2s-0.6-1.8-0.6-2.8
		s0.2-2.1,0.6-2.9c0.3-0.9,0.9-1.5,1.7-1.9c0.8-0.4,1.5-0.8,2.4-0.8c0.6,0,1.2,0.1,1.7,0.5c0.5,0.3,0.9,0.6,1.2,1V0.3h1.8V15
		C204,15,202.3,15,202.3,15z M196.6,9.6c0,1.3,0.3,2.4,0.9,3c0.6,0.8,1.2,1,2.1,1c0.8,0,1.5-0.3,2-0.9c0.6-0.6,0.9-1.7,0.9-3
		c0-1.5-0.3-2.6-0.9-3.2c-0.6-0.8-1.2-1-2.1-1c-0.8,0-1.5,0.3-2,1C196.9,7.2,196.6,8.2,196.6,9.6z"/>
	<path class="st0" d="M214.5,15l-3.3-10.6h1.8l1.7,6.1l0.6,2.3c0-0.2,0.2-0.9,0.6-2.3l1.7-6.3h1.8l1.7,6.2l0.6,2.1l0.6-2.1l1.8-6.2
		h1.8l-3.3,10.6h-2l-1.7-6.5l-0.4-1.8l-2.1,8.3L214.5,15L214.5,15z"/>
	<path class="st0" d="M227.3,2.2v-2h1.8v2.1h-1.8V2.2z M227.3,15V4.3h1.8v10.6C229.2,15,227.3,15,227.3,15z"/>
	<path class="st0" d="M232,15V4.3h1.7v1.5c0.8-1.2,2-1.8,3.5-1.8c0.6,0,1.2,0.1,1.8,0.3c0.6,0.3,0.9,0.6,1.2,0.9
		c0.3,0.3,0.4,0.8,0.6,1.4c0,0.3,0.2,0.9,0.2,1.8V15h-1.8V8.6c0-0.8,0-1.4-0.2-1.7s-0.5-0.6-0.8-0.9c-0.3-0.1-0.8-0.3-1.2-0.3
		c-0.8,0-1.5,0.3-1.9,0.8c-0.5,0.4-0.9,1.3-0.9,2.8v5.8L232,15L232,15z"/>
	<path class="st0" d="M250.8,11.5l1.8,0.3c-0.3,1-0.9,2-1.7,2.5s-1.8,0.9-3,0.9c-1.5,0-2.8-0.5-3.8-1.5c-0.9-0.9-1.3-2.3-1.3-4
		s0.4-3.1,1.3-4.2c0.9-1.1,2.1-1.5,3.6-1.5s2.5,0.4,3.4,1.5s1.3,2.4,1.3,4c0,0.2,0,0.3,0,0.5h-7.9c0,1.2,0.4,2.1,1,2.7
		s1.3,0.9,2.3,0.9c0.6,0,1.2-0.2,1.7-0.5C250,12.9,250.5,12.3,250.8,11.5z M244.8,8.5h6c-0.2-0.9-0.3-1.5-0.8-2
		c-0.6-0.8-1.3-1-2.3-1s-1.5,0.3-2.1,0.9C245.2,6.9,244.9,7.6,244.8,8.5z"/>
	<path class="st0" d="M254.1,11.8l1.8-0.3c0.2,0.8,0.5,1.2,0.9,1.7c0.5,0.5,1.1,0.6,2,0.6s1.5-0.2,1.8-0.5c0.5-0.3,0.6-0.8,0.6-1.2
		s-0.2-0.8-0.6-0.9c-0.3-0.2-0.9-0.3-1.8-0.6c-1.3-0.3-2.3-0.6-2.7-0.9c-0.4-0.3-0.9-0.6-1.2-1.1c-0.3-0.4-0.5-0.9-0.5-1.5
		c0-0.4,0.2-0.9,0.3-1.4c0.2-0.4,0.4-0.8,0.9-1c0.3-0.1,0.6-0.5,1.2-0.6c0.5-0.1,1.1-0.1,1.5-0.1c0.9,0,1.5,0.1,2.3,0.3
		c0.8,0.2,1.1,0.6,1.3,1.1c0.3,0.4,0.5,0.9,0.6,1.6l-1.8,0.3c-0.2-0.6-0.3-1.1-0.8-1.4c-0.5-0.3-0.9-0.5-1.7-0.5
		c-0.9,0-1.3,0.2-1.8,0.5c-0.3,0.3-0.6,0.6-0.6,0.9c0,0.3,0,0.5,0.2,0.6c0.2,0.1,0.5,0.3,0.8,0.4c0.2,0,0.8,0.2,1.7,0.5
		c1.3,0.3,2.1,0.6,2.7,0.9c0.6,0.3,0.9,0.6,1.2,0.9c0.3,0.5,0.5,0.9,0.5,1.5s-0.2,1.2-0.6,1.7c-0.3,0.6-0.9,0.9-1.5,1.2
		s-1.3,0.5-2.3,0.5c-1.3,0-2.4-0.3-3.2-0.9C254.8,13.8,254.3,12.9,254.1,11.8z"/>
	<path class="st0" d="M270.3,9.6c0-1.9,0.6-3.4,1.7-4.4c0.9-0.8,2.1-1.2,3.3-1.2c1.5,0,2.7,0.4,3.6,1.5c0.9,0.9,1.3,2.3,1.3,4.1
		c0,1.3-0.2,2.4-0.6,3.3c-0.5,0.8-1.1,1.3-1.8,1.8c-0.7,0.5-1.7,0.6-2.5,0.6c-1.5,0-2.7-0.5-3.6-1.5
		C270.7,12.7,270.3,11.4,270.3,9.6z M272.1,9.6c0,1.3,0.3,2.4,0.9,3c0.6,0.6,1.3,1,2.3,1s1.7-0.3,2.3-1s0.9-1.8,0.9-3.1
		s-0.3-2.3-0.9-3c-0.6-0.8-1.3-1.1-2.3-1.1s-1.7,0.3-2.3,1.1S272.1,8.2,272.1,9.6z"/>
	<path class="st0" d="M282.3,15V4.3h1.7v1.5c0.8-1.2,2-1.8,3.5-1.8c0.6,0,1.2,0.1,1.8,0.3c0.6,0.3,0.9,0.6,1.2,0.9
		c0.3,0.3,0.4,0.8,0.6,1.4c0,0.3,0.2,0.9,0.2,1.8V15h-1.8V8.6c0-0.8,0-1.4-0.2-1.7c-0.2-0.3-0.4-0.6-0.8-0.9
		c-0.3-0.1-0.8-0.3-1.2-0.3c-0.8,0-1.5,0.3-2,0.8c-0.9,0.4-1.2,1.3-1.2,2.7v5.9L282.3,15L282.3,15z"/>
	<path class="st0" d="M298.8,11.8l1.8-0.3c0.2,0.8,0.4,1.2,0.9,1.7c0.4,0.5,1,0.6,1.9,0.6s1.5-0.2,1.8-0.5c0.4-0.3,0.6-0.8,0.6-1.2
		s-0.2-0.8-0.6-0.9c-0.3-0.2-0.9-0.3-1.8-0.6c-1.3-0.3-2.3-0.6-2.7-0.9c-0.5-0.3-0.9-0.6-1.2-1.1c-0.3-0.4-0.4-0.9-0.4-1.5
		c0-0.5,0.2-0.9,0.3-1.4c0.2-0.4,0.5-0.8,0.9-1c0.3-0.2,0.6-0.5,1.2-0.6c0.4-0.1,1-0.1,1.5-0.1c0.9,0,1.5,0.1,2.3,0.3
		c0.8,0.2,1,0.6,1.3,1.1c0.3,0.4,0.4,0.9,0.6,1.6l-1.8,0.3c-0.2-0.6-0.3-1-0.8-1.3c-0.4-0.3-0.9-0.5-1.7-0.5c-0.9,0-1.3,0.1-1.8,0.5
		c-0.3,0.3-0.6,0.6-0.6,0.9c0,0.3,0,0.5,0.2,0.6c0.2,0.1,0.4,0.3,0.8,0.5c0.2,0,0.8,0.1,1.7,0.4c1.3,0.3,2.1,0.6,2.7,0.9
		c0.6,0.3,0.9,0.6,1.2,0.9c0.3,0.5,0.4,0.9,0.4,1.5s-0.2,1.2-0.6,1.6c-0.3,0.6-0.9,0.9-1.5,1.2s-1.3,0.5-2.3,0.5
		c-1.3,0-2.4-0.3-3.2-0.9C299.3,13.8,298.9,12.9,298.8,11.8z"/>
	<path class="st0" d="M316.8,13.6c-0.6,0.6-1.3,0.9-1.9,1.2c-0.6,0.3-1.3,0.3-2,0.3c-1.2,0-2.1-0.3-2.7-0.9
		c-0.6-0.6-0.9-1.3-0.9-2.3c0-0.5,0.2-1,0.3-1.5c0.3-0.5,0.6-0.8,0.9-1.1c0.5-0.3,0.8-0.4,1.3-0.6c0.3-0.1,0.9-0.1,1.7-0.3
		c1.5-0.1,2.6-0.5,3.3-0.6c0-0.3,0-0.4,0-0.4c0-0.8-0.2-1.2-0.5-1.5c-0.4-0.5-1.2-0.6-2.1-0.6c-0.9,0-1.5,0.1-1.9,0.4
		c-0.5,0.3-0.8,0.9-0.9,1.7l-1.8-0.3c0.2-0.8,0.4-1.4,0.8-1.8c0.3-0.5,0.9-0.8,1.7-1.1c0.8-0.3,1.5-0.4,2.4-0.4s1.7,0.1,2.3,0.3
		s1,0.5,1.2,0.8c0.2,0.3,0.5,0.8,0.6,1.2c0,0.3,0.2,0.9,0.2,1.6v2.4c0,1.7,0,2.7,0.2,3.1c0.2,0.5,0.3,0.9,0.5,1.3h-2.1
		C316.9,14.5,316.8,14.1,316.8,13.6z M316.6,9.6c-0.6,0.3-1.7,0.5-3,0.8c-0.8,0.2-1.2,0.3-1.7,0.3c-0.3,0.2-0.6,0.3-0.8,0.6
		c-0.2,0.3-0.2,0.5-0.2,0.8c0,0.5,0.2,0.9,0.6,1.2c0.3,0.3,0.9,0.5,1.7,0.5c0.8,0,1.3-0.2,1.8-0.5c0.6-0.3,0.9-0.8,1.2-1.2
		c0.2-0.5,0.3-1,0.3-1.8V9.5h0.1L316.6,9.6L316.6,9.6z"/>
	<path class="st0" d="M321.1,15V0.3h1.8V15C322.9,15,321.1,15,321.1,15z"/>
	<path class="st0" d="M333.1,11.5l1.8,0.3c-0.3,1-0.9,2-1.7,2.5s-1.8,0.9-3,0.9c-1.5,0-2.8-0.5-3.8-1.5c-0.9-0.9-1.3-2.3-1.3-4
		s0.4-3.1,1.3-4.2S328.5,4,330,4s2.5,0.4,3.5,1.5c0.9,1,1.5,2.3,1.5,4c0,0.2,0,0.3,0,0.5h-8c0,1.2,0.4,2.1,1,2.7s1.3,0.9,2.3,0.9
		c0.6,0,1.2-0.2,1.7-0.5C332.5,12.9,332.8,12.3,333.1,11.5z M327.1,8.5h6c-0.2-0.9-0.3-1.5-0.8-2c-0.6-0.8-1.4-1-2.3-1
		c-0.9,0-1.5,0.3-2.1,0.9C327.6,6.9,327.3,7.6,327.1,8.5z"/>
	<path class="st0" d="M338.2,11.2l-0.6-7.8V0.2h2.3v3.3l-0.4,7.8L338.2,11.2L338.2,11.2z M337.8,15v-2.1h2.1V15H337.8z"/>
	<path class="st0" d="M147.1,17.8v-1.5h194.4v1.5C341.5,17.8,147.1,17.8,147.1,17.8z"/>
</g>
<g class="st1">
	<path class="st2" d="M40.9,38.2l1.4,0.2c-0.2,1.1-0.6,1.8-1.2,2.3c-0.6,0.6-1.5,0.9-2.4,0.9c-1.2,0-2.1-0.4-2.8-1.2s-1-1.8-1-3.3
		c0-0.9,0.1-1.8,0.4-2.4c0.3-0.6,0.8-1.2,1.3-1.5c0.6-0.3,1.4-0.4,2.1-0.4c0.9,0,1.6,0.3,2.3,0.8c0.6,0.4,0.9,1.2,1.2,1.9l-1.3,0.1
		c-0.2-0.6-0.3-1.1-0.8-1.3c-0.3-0.3-0.8-0.4-1.2-0.4c-0.8,0-1.3,0.3-1.8,0.8s-0.8,1.3-0.8,2.6c0,1.2,0.2,1.9,0.6,2.6
		c0.5,0.6,1.1,0.8,1.7,0.8s1-0.2,1.3-0.4C40.6,39.6,40.9,39,40.9,38.2z"/>
	<path class="st2" d="M43,37.2c0-1.7,0.4-2.7,1.4-3.4c0.8-0.6,1.6-0.9,2.7-0.9c1.2,0,2.1,0.4,2.8,1.2c0.7,0.8,1.1,1.8,1.1,3.2
		c0,1.1-0.1,1.9-0.4,2.6c-0.3,0.6-0.8,1.1-1.5,1.5c-0.7,0.4-1.4,0.4-2.1,0.4c-1.2,0-2.1-0.4-2.9-1.2C43.5,39.7,43,38.5,43,37.2z
		 M44.5,37.2c0,1.1,0.3,1.9,0.8,2.4c0.4,0.6,1.1,0.8,1.8,0.8c0.7,0,1.4-0.3,1.8-0.8c0.4-0.6,0.8-1.3,0.8-2.6c0-1.1-0.3-1.8-0.8-2.4
		c-0.4-0.6-1.1-0.8-1.8-0.8c-0.7,0-1.3,0.3-1.8,0.8C44.8,35.2,44.5,36,44.5,37.2z"/>
	<path class="st2" d="M52.8,41.4V29.5h1.5v4.2c0.8-0.8,1.5-1.2,2.6-1.2c0.6,0,1.2,0.2,1.6,0.3c0.4,0.2,0.8,0.6,1.1,1.1
		c0.1,0.4,0.3,1.1,0.3,1.9v5.4h-1.5v-5.4c0-0.8-0.1-1.2-0.4-1.6c-0.3-0.3-0.8-0.4-1.4-0.4c-0.4,0-0.9,0.2-1.2,0.3
		c-0.3,0.1-0.8,0.7-0.9,1c-0.1,0.3-0.3,0.9-0.3,1.7v4.6C54.1,41.4,52.8,41.4,52.8,41.4z"/>
	<path class="st2" d="M61.5,37.2c0-1.7,0.4-2.7,1.4-3.4c0.8-0.6,1.6-0.9,2.7-0.9c1.2,0,2.1,0.4,2.9,1.2c0.8,0.8,1.1,1.8,1.1,3.2
		c0,1.1-0.1,1.9-0.4,2.6c-0.3,0.6-0.8,1.1-1.5,1.5c-0.7,0.4-1.4,0.4-2.1,0.4c-1.2,0-2.1-0.4-2.9-1.2C61.8,39.7,61.5,38.5,61.5,37.2z
		 M62.8,37.2c0,1.1,0.3,1.9,0.8,2.4c0.4,0.6,1.1,0.8,1.8,0.8c0.7,0,1.4-0.3,1.8-0.8C67.6,39,68,38.3,68,37c0-1.1-0.3-1.8-0.8-2.4
		s-1.1-0.7-1.8-0.7c-0.7,0-1.4,0.3-1.8,0.8C63.1,35.2,62.8,36,62.8,37.2z"/>
	<path class="st2" d="M72.7,41.4l-2.6-8.5h1.5l1.4,4.9l0.4,1.8c0-0.1,0.1-0.8,0.4-1.8l1.4-4.9h1.5l1.4,4.9l0.4,1.7l0.4-1.7l1.5-4.9
		h1.5l-2.7,8.6h-1.5l-1.4-5.1L76,34.9l-1.8,6.6L72.7,41.4C72.7,41.5,72.7,41.4,72.7,41.4z"/>
	<path class="st2" d="M83.1,31.3v-1.7h1.5v1.7H83.1z M83.1,41.4v-8.5h1.5v8.6C84.6,41.4,83.1,41.4,83.1,41.4z"/>
	<path class="st2" d="M86.7,41.4v-8.5h1.4v1.2c0.6-0.9,1.5-1.3,2.7-1.3c0.4,0,1.1,0.2,1.4,0.3c0.4,0.2,0.8,0.4,0.9,0.8
		c0.1,0.4,0.3,0.6,0.4,1.1c0,0.3,0.1,0.8,0.1,1.3v5.3h-1.5v-5.3c0-0.6,0-1.1-0.1-1.3c-0.1-0.3-0.3-0.4-0.6-0.8
		c-0.3-0.4-0.6-0.3-1.1-0.3c-0.6,0-1.2,0.2-1.6,0.6s-0.6,1.2-0.6,2.2v4.7H86.7L86.7,41.4z"/>
	<path class="st2" d="M101.7,38.7l1.5,0.1c-0.3,0.9-0.6,1.5-1.4,2.1c-0.6,0.4-1.5,0.8-2.4,0.8c-1.2,0-2.3-0.4-3-1.2
		c-0.7-0.8-1-1.8-1-3.3s0.3-2.6,1-3.3c0.7-0.7,1.6-1.2,2.9-1.2c1.3,0,2.1,0.4,2.9,1.2c0.8,0.8,1,1.8,1,3.3c0,0.1,0,0.1,0,0.4h-6.3
		c0,0.9,0.3,1.6,0.8,2.1s1,0.8,1.8,0.8c0.6,0,1-0.1,1.4-0.4C101.2,39.7,101.5,39.3,101.7,38.7z M96.9,36.3h4.8
		c0-0.8-0.3-1.2-0.6-1.6c-0.5-0.6-1-0.9-1.8-0.9c-0.6,0-1.2,0.2-1.6,0.6C97.2,34.9,97,35.5,96.9,36.3z"/>
	<path class="st2" d="M105,41.4v-8.5h1.4v1.3c0.3-0.6,0.6-1.1,0.9-1.2c0.3-0.2,0.6-0.3,0.9-0.3c0.5,0,1,0.2,1.5,0.4l-0.5,1.3
		c-0.3-0.2-0.8-0.3-1-0.3c-0.2,0-0.6,0.2-0.9,0.3c-0.3,0.1-0.5,0.4-0.6,0.7c-0.1,0.4-0.3,1.1-0.3,1.7v4.5L105,41.4L105,41.4z"/>
</g>
<g class="st1">
	<path class="st2" d="M110.4,44.7l-0.1-1.4c0.3,0.2,0.6,0.2,0.9,0.2s0.6,0,0.8-0.2c0.1-0.1,0.3-0.3,0.5-0.4c0.1-0.1,0.3-0.4,0.5-1.1
		c0-0.1,0-0.1,0.1-0.3l-3.3-8.6h1.5l1.6,5c0.3,0.6,0.5,1.4,0.6,1.9c0.1-0.6,0.3-1.3,0.6-1.9l1.8-4.9h1.5l-3.3,8.7
		c-0.3,0.9-0.6,1.7-0.8,1.9c-0.3,0.4-0.6,0.9-0.9,1.1c-0.3,0.2-0.8,0.3-1.2,0.3C111,44.8,110.7,44.8,110.4,44.7z"/>
</g>
<g class="st1">
	<path class="st2" d="M117.9,41.4v-1.7h1.6v1.7H117.9z"/>
	<path class="st2" d="M127.6,38.2l1.4,0.2c-0.1,1.1-0.6,1.8-1.2,2.3c-0.6,0.6-1.5,0.9-2.4,0.9c-1.2,0-2.1-0.4-2.9-1.2s-1-1.8-1-3.3
		c0-0.9,0.1-1.8,0.5-2.4c0.3-0.6,0.8-1.2,1.4-1.5c0.6-0.3,1.4-0.4,2.1-0.4c0.9,0,1.6,0.3,2.3,0.8c0.7,0.5,0.9,1.2,1.2,1.9l-1.4,0.1
		c-0.1-0.6-0.3-1.1-0.8-1.3c-0.3-0.3-0.8-0.4-1.2-0.4c-0.8,0-1.4,0.3-1.8,0.8c-0.4,0.5-0.8,1.3-0.8,2.6c0,1.2,0.1,1.9,0.6,2.6
		s1,0.8,1.6,0.8s1-0.2,1.4-0.4C127.3,39.6,127.5,39,127.6,38.2z"/>
	<path class="st2" d="M129.7,37.2c0-1.7,0.5-2.7,1.4-3.4c0.8-0.6,1.6-0.9,2.7-0.9c1.2,0,2.1,0.4,2.9,1.2c0.8,0.8,1,1.8,1,3.2
		c0,1.1-0.1,1.9-0.5,2.6c-0.3,0.6-0.8,1.1-1.5,1.5c-0.7,0.4-1.4,0.4-2.1,0.4c-1.2,0-2.1-0.4-2.9-1.2
		C130.2,39.7,129.7,38.5,129.7,37.2z M131.2,37.2c0,1.1,0.3,1.9,0.8,2.4c0.5,0.6,1,0.8,1.8,0.8c0.8,0,1.4-0.3,1.8-0.8
		c0.5-0.6,0.8-1.3,0.8-2.6c0-1.1-0.3-1.8-0.8-2.4s-1-0.8-1.8-0.8c-0.8,0-1.4,0.3-1.8,0.8C131.5,35.2,131.2,36,131.2,37.2z"/>
	<path class="st2" d="M139.5,41.4v-8.5h1.4v1.2c0.3-0.4,0.6-0.8,1-1.1c0.5-0.3,0.9-0.4,1.5-0.4c0.6,0,1.2,0.2,1.5,0.4
		c0.3,0.2,0.8,0.6,0.9,1.1c0.8-1.1,1.5-1.5,2.7-1.5c0.9,0,1.5,0.3,2,0.8s0.8,1.2,0.8,2.1v5.8h-1.5v-5.4c0-0.6,0-1.1-0.1-1.2
		c-0.2-0.3-0.3-0.4-0.5-0.6c-0.3-0.2-0.6-0.3-0.9-0.3c-0.6,0-1,0.2-1.5,0.6c-0.5,0.4-0.6,1.1-0.6,2v4.9h-1.5v-5.6
		c0-0.6-0.2-1.2-0.3-1.5c-0.3-0.3-0.6-0.4-1.2-0.4c-0.5,0-0.8,0.2-1.2,0.3c-0.4,0.1-0.6,0.6-0.8,0.9c-0.2,0.3-0.3,1.1-0.3,1.8v4.5
		L139.5,41.4L139.5,41.4z"/>
	<path class="st2" d="M157.2,37.9v-1.5h4.5v1.5H157.2z"/>
	<path class="st2" d="M167.5,35.7c0-1.9,0.6-3.4,1.6-4.7c1-1.1,2.4-1.7,4-1.7c1,0,2.1,0.3,3,0.8c0.9,0.4,1.5,1.2,2,2.3
		c0.5,0.9,0.8,1.9,0.8,3.1s-0.3,2.3-0.8,3.2c-0.5,0.9-1.2,1.6-2.1,2.1c-0.9,0.4-1.8,0.8-2.9,0.8c-1,0-2.1-0.3-3-0.8
		c-0.9-0.4-1.5-1.2-2-2.3C167.7,37.6,167.5,36.7,167.5,35.7z M169.2,35.7c0,1.3,0.5,2.6,1.2,3.3c0.7,0.7,1.7,1.2,2.9,1.2
		c1.2,0,2.1-0.4,2.8-1.2c0.7-0.8,1.2-1.9,1.2-3.4c0-0.9-0.1-1.8-0.5-2.6c-0.3-0.8-0.8-1.2-1.3-1.7c-0.6-0.5-1.4-0.6-2.1-0.6
		c-1,0-2.1,0.4-2.8,1.2C169.9,32.7,169.2,33.9,169.2,35.7z"/>
</g>
<g class="st1">
	<path class="st2" d="M181,41.4v-7.3h-1.4v-1.2h1.4v-1c0-0.6,0-1.1,0.1-1.3c0.2-0.3,0.5-0.8,0.8-0.9c0.3-0.3,0.9-0.3,1.5-0.3
		c0.5,0,0.9,0,1.4,0.2l-0.2,1.2c-0.3,0-0.6-0.2-0.9-0.2c-0.5,0-0.8,0.2-0.9,0.3c-0.1,0.2-0.3,0.6-0.3,1.1v0.8h1.7v1.1h-1.7v7.3H181
		V41.4z"/>
</g>
<g class="st1">
	<path class="st2" d="M185.2,41.4v-7.3h-1.3v-1.2h1.3v-1c0-0.6,0-1.1,0.2-1.3c0.1-0.3,0.5-0.8,0.8-0.9c0.3-0.3,0.9-0.3,1.5-0.3
		c0.5,0,0.9,0,1.3,0.2l-0.1,1.2c-0.3,0-0.6-0.2-0.9-0.2c-0.5,0-0.8,0.2-0.9,0.3c-0.2,0.2-0.3,0.6-0.3,1.1v0.8h1.6v1.1h-1.6v7.3h-1.5
		C185.2,41.2,185.2,41.4,185.2,41.4z"/>
	<path class="st2" d="M189.4,31.3v-1.7h1.5v1.7H189.4z M189.4,41.4v-8.5h1.5v8.6C190.9,41.4,189.4,41.4,189.4,41.4z"/>
	<path class="st2" d="M198.7,38.2l1.3,0.2c-0.2,1.1-0.6,1.8-1.2,2.3c-0.6,0.6-1.5,0.9-2.4,0.9c-1.2,0-2.1-0.4-2.8-1.2
		c-0.7-0.8-1-1.8-1-3.3c0-0.9,0.2-1.8,0.5-2.4c0.3-0.6,0.8-1.2,1.3-1.5c0.5-0.3,1.3-0.4,2.1-0.4c0.9,0,1.7,0.3,2.3,0.8
		s0.9,1.2,1.2,1.9l-1.3,0.1c-0.2-0.6-0.3-1.1-0.8-1.3c-0.3-0.3-0.8-0.4-1.2-0.4c-0.8,0-1.3,0.3-1.8,0.8s-0.8,1.3-0.8,2.6
		c0,1.2,0.2,1.9,0.6,2.6c0.4,0.7,1,0.8,1.7,0.8c0.6,0,1-0.2,1.3-0.4C198.4,39.6,198.6,39,198.7,38.2z"/>
	<path class="st2" d="M201.4,31.3v-1.7h1.5v1.7H201.4z M201.4,41.4v-8.5h1.5v8.6C202.9,41.4,201.4,41.4,201.4,41.4z"/>
	<path class="st2" d="M210.6,40.3c-0.6,0.4-1.1,0.8-1.5,0.9c-0.5,0.1-1.1,0.3-1.7,0.3c-0.9,0-1.7-0.3-2.1-0.8s-0.8-1.1-0.8-1.8
		c0-0.4,0.2-0.8,0.3-1.2c0.2-0.3,0.5-0.6,0.8-0.9c0.3-0.1,0.6-0.3,1.1-0.4c0.3,0,0.8-0.1,1.3-0.1c1.2-0.2,2.1-0.3,2.5-0.4
		c0-0.2,0-0.3,0-0.4c0-0.6-0.2-1.1-0.4-1.2c-0.3-0.3-0.9-0.4-1.7-0.4s-1.2,0.2-1.5,0.3c-0.3,0.2-0.6,0.6-0.8,1.2l-1.3-0.2
		c0.2-0.6,0.3-1.1,0.6-1.5c0.3-0.3,0.8-0.6,1.3-0.9c0.6-0.2,1.2-0.3,1.9-0.3s1.3,0.2,1.8,0.3c0.4,0.2,0.8,0.4,1,0.6
		c0.2,0.3,0.3,0.6,0.5,1.1c0,0.3,0,0.7,0,1.3v2.1c0,1.4,0,2.3,0.2,2.6s0.2,0.8,0.3,1.1h-1.5C210.7,41.1,210.6,40.8,210.6,40.3z
		 M210.4,37.2c-0.6,0.1-1.3,0.4-2.4,0.6c-0.6,0.2-1.1,0.2-1.2,0.3c-0.3,0.2-0.4,0.3-0.6,0.4c-0.1,0.1-0.1,0.4-0.1,0.8
		c0,0.4,0.2,0.8,0.4,0.9c0.3,0.1,0.8,0.4,1.3,0.4s1.1-0.2,1.5-0.3c0.5-0.3,0.8-0.6,0.9-1.1c0.2-0.3,0.3-0.8,0.3-1.5L210.4,37.2
		L210.4,37.2z"/>
	<path class="st2" d="M214.2,41.4V29.5h1.5v11.8L214.2,41.4L214.2,41.4z"/>
	<path class="st2" d="M221.8,38.8l1.5-0.3c0.2,0.6,0.3,1.1,0.6,1.4c0.3,0.3,0.9,0.4,1.5,0.4s1.2-0.2,1.5-0.4
		c0.3-0.3,0.4-0.6,0.4-0.9s-0.2-0.6-0.4-0.8c-0.2-0.1-0.8-0.3-1.5-0.4c-1.1-0.3-1.8-0.4-2.3-0.8c-0.5-0.1-0.8-0.4-0.9-0.8
		c-0.1-0.4-0.3-0.8-0.3-1.2c0-0.4,0.2-0.7,0.3-1.1c0.2-0.3,0.4-0.6,0.8-0.8c0.2-0.2,0.6-0.3,0.9-0.4c0.3-0.1,0.8-0.2,1.2-0.2
		c0.6,0,1.2,0.2,1.8,0.3c0.4,0.2,0.9,0.4,1,0.8c0.3,0.3,0.5,0.8,0.5,1.3l-1.3,0.2c0-0.4-0.3-0.8-0.6-1.1c-0.3-0.3-0.8-0.3-1.3-0.3
		s-1.2,0.2-1.3,0.3c-0.3,0.2-0.5,0.4-0.5,0.8c0,0.1,0,0.3,0.2,0.4c0.2,0.1,0.3,0.3,0.6,0.4c0.2,0,0.6,0.1,1.3,0.3
		c1.1,0.3,1.8,0.4,2.1,0.6c0.5,0.2,0.8,0.4,0.9,0.8c0.3,0.3,0.3,0.8,0.3,1.2s-0.2,0.9-0.5,1.4c-0.3,0.4-0.8,0.8-1.2,1.1
		c-0.5,0.3-1.2,0.3-1.8,0.3c-1,0-1.9-0.3-2.5-0.8C222.4,40.5,222,39.7,221.8,38.8z"/>
	<path class="st2" d="M230.7,31.3v-1.7h1.5v1.7H230.7z M230.7,41.4v-8.5h1.5v8.6C232.2,41.4,230.7,41.4,230.7,41.4z"/>
	<path class="st2" d="M237.4,40l0.2,1.4c-0.5,0.1-0.8,0.1-1.1,0.1c-0.6,0-0.9-0.1-1.2-0.3c-0.3-0.1-0.5-0.4-0.6-0.6
		c-0.2-0.3-0.2-0.9-0.2-1.7V34h-1.1v-1.2h1.1v-2.1l1.5-0.9v3h1.5V34H236v4.9c0,0.4,0,0.8,0.2,0.8c0,0.2,0.2,0.2,0.3,0.3
		c0.2,0,0.3,0.2,0.5,0.2C237,40.2,237.3,40.2,237.4,40z"/>
	<path class="st2" d="M244.8,38.7l1.5,0.1c-0.3,0.9-0.6,1.5-1.3,2.1c-0.6,0.4-1.5,0.8-2.4,0.8c-1.2,0-2.3-0.4-3-1.2
		c-0.7-0.8-1-1.8-1-3.3s0.3-2.6,1-3.3s1.7-1.2,2.8-1.2c1.2,0,2.1,0.4,2.8,1.2s1.1,1.8,1.1,3.3c0,0.1,0,0.1,0,0.4h-6.4
		c0,0.9,0.3,1.6,0.8,2.1c0.5,0.4,1.1,0.8,1.8,0.8c0.6,0,1-0.1,1.3-0.4C244.2,39.7,244.5,39.3,244.8,38.7z M240,36.3h4.8
		c0-0.8-0.3-1.2-0.6-1.6c-0.4-0.6-1-0.9-1.8-0.9c-0.6,0-1.2,0.2-1.7,0.6C240.3,34.9,240,35.5,240,36.3z"/>
</g>
<g class="st1">
	<path class="st3" d="M265.8,37.3l1.5,0.4c-0.3,1.4-0.9,2.3-1.8,3c-0.9,0.6-2,1.1-3.2,1.1c-1.2,0-2.3-0.3-3.2-0.8
		c-0.8-0.4-1.3-1.2-1.8-2.3c-0.4-1.1-0.6-2.1-0.6-3.1c0-1.2,0.3-2.3,0.8-3.2c0.5-0.9,1.2-1.7,2-2.1c0.9-0.4,1.8-0.8,2.8-0.8
		c1.2,0,2.1,0.3,3,0.9c0.9,0.6,1.3,1.5,1.7,2.6l-1.5,0.3c-0.3-0.9-0.6-1.5-1.2-1.8c-0.4-0.4-1.2-0.6-1.9-0.6c-0.9,0-1.7,0.2-2.3,0.6
		s-1.1,1.1-1.3,1.8c-0.3,0.8-0.3,1.5-0.3,2.2c0,1.1,0.2,1.9,0.5,2.7c0.3,0.8,0.8,1.4,1.3,1.7s1.3,0.6,1.9,0.6c0.9,0,1.7-0.3,2.3-0.8
		C265.2,39,265.6,38.2,265.8,37.3z"/>
	<path class="st3" d="M268.5,37.2c0-1.7,0.4-2.7,1.3-3.4c0.8-0.6,1.7-0.9,2.7-0.9c1.2,0,2.1,0.4,2.8,1.2c0.7,0.8,1.1,1.8,1.1,3.2
		c0,1.1-0.2,1.9-0.5,2.6c-0.3,0.6-0.8,1.1-1.5,1.5c-0.7,0.4-1.3,0.4-2.1,0.4c-1.2,0-2.1-0.4-2.8-1.2
		C268.9,39.7,268.5,38.5,268.5,37.2z M270,37.2c0,1.1,0.3,1.9,0.8,2.4c0.4,0.6,1,0.8,1.8,0.8c0.8,0,1.3-0.3,1.8-0.8
		c0.4-0.6,0.8-1.3,0.8-2.6c0-1.1-0.3-1.8-0.8-2.4s-1.1-0.8-1.8-0.8c-0.7,0-1.3,0.3-1.8,0.8C270.3,35.2,270,36,270,37.2z"/>
	<path class="st3" d="M278.2,41.4V29.5h1.5v4.2c0.8-0.8,1.5-1.2,2.5-1.2c0.6,0,1.2,0.2,1.7,0.3c0.5,0.3,0.8,0.6,1.1,1.1
		c0.2,0.4,0.3,1.1,0.3,1.9v5.4h-1.5v-5.4c0-0.8-0.2-1.2-0.4-1.6c-0.3-0.3-0.8-0.4-1.3-0.4s-0.9,0.2-1.2,0.3
		c-0.3,0.2-0.6,0.4-0.8,0.9c-0.2,0.5-0.3,0.9-0.3,1.7v4.6L278.2,41.4L278.2,41.4z"/>
	<path class="st3" d="M286.9,37.2c0-1.7,0.4-2.7,1.3-3.4c0.8-0.6,1.7-0.9,2.7-0.9c1.2,0,2.1,0.4,2.8,1.2c0.7,0.8,1.1,1.8,1.1,3.2
		c0,1.1-0.2,1.9-0.5,2.6c-0.3,0.6-0.8,1.1-1.5,1.5c-0.7,0.4-1.3,0.4-2.1,0.4c-1.2,0-2.1-0.4-2.8-1.2
		C287.2,39.7,286.9,38.5,286.9,37.2z M288.3,37.2c0,1.1,0.3,1.9,0.8,2.4c0.5,0.6,1.1,0.8,1.8,0.8c0.7,0,1.3-0.3,1.8-0.8
		c0.5-0.6,0.8-1.3,0.8-2.6c0-1.1-0.3-1.8-0.8-2.4c-0.4-0.6-1-0.8-1.8-0.8c-0.8,0-1.3,0.3-1.8,0.8C288.6,35.2,288.3,36,288.3,37.2z"
		/>
	<path class="st3" d="M303.4,41.4l-3.2-11.8h1.7l1.8,7.8c0.2,0.8,0.3,1.7,0.5,2.4c0.3-1.2,0.4-1.9,0.6-2.3l2.3-8h1.9l1.7,6
		c0.5,1.5,0.8,2.9,0.9,4.2c0.2-0.8,0.3-1.6,0.6-2.6l1.8-7.5h1.5l-3.3,11.8h-1.5l-2.5-9c-0.2-0.8-0.3-1.2-0.3-1.3
		c-0.2,0.6-0.3,1.1-0.3,1.3l-2.6,9H303.4L303.4,41.4z"/>
	<path class="st3" d="M316.6,31.3v-1.7h1.5v1.7H316.6z M316.6,41.4v-8.5h1.5v8.6C318.1,41.4,316.6,41.4,316.6,41.4z"/>
	<path class="st3" d="M320.3,41.4v-8.5h1.3v1.2c0.6-0.9,1.5-1.3,2.7-1.3c0.4,0,1,0.2,1.3,0.3c0.4,0.2,0.8,0.4,0.9,0.8
		c0.1,0.4,0.3,0.6,0.4,1.1c0,0.3,0.2,0.8,0.2,1.3v5.3h-1.5v-5.3c0-0.6,0-1.1-0.2-1.3c-0.2-0.3-0.3-0.4-0.6-0.8
		c-0.3-0.3-0.6-0.3-1-0.3c-0.6,0-1.2,0.2-1.7,0.6c-0.5,0.4-0.6,1.2-0.6,2.2v4.7H320.3L320.3,41.4z"/>
	<path class="st3" d="M335.4,38.7l1.5,0.1c-0.3,0.9-0.6,1.5-1.4,2.1c-0.6,0.4-1.5,0.8-2.4,0.8c-1.2,0-2.3-0.4-3-1.2
		c-0.7-0.8-1-1.8-1-3.3s0.3-2.6,1-3.3c0.7-0.7,1.7-1.2,2.8-1.2c1.2,0,2.1,0.4,2.9,1.2s1,1.8,1,3.3c0,0.1,0,0.1,0,0.4h-6.3
		c0,0.9,0.3,1.6,0.7,2.1c0.5,0.4,1.1,0.8,1.8,0.8c0.6,0,1-0.1,1.3-0.4C334.8,39.7,335,39.3,335.4,38.7z M330.6,36.3h4.8
		c0-0.8-0.3-1.2-0.6-1.6c-0.5-0.6-1-0.9-1.8-0.9c-0.6,0-1.2,0.2-1.7,0.6C330.8,34.9,330.6,35.5,330.6,36.3z"/>
	<path class="st3" d="M338.7,41.4v-8.5h1.3v1.3c0.3-0.6,0.6-1.1,0.9-1.2c0.3-0.2,0.6-0.3,0.9-0.3c0.5,0,1.1,0.2,1.5,0.4l-0.4,1.3
		c-0.3-0.2-0.8-0.3-1.1-0.3c-0.3,0-0.6,0.2-0.9,0.3c-0.3,0.1-0.5,0.4-0.6,0.7c-0.1,0.4-0.3,1.1-0.3,1.7v4.5L338.7,41.4L338.7,41.4z"
		/>
</g>
<g class="st1">
	<path class="st3" d="M344,44.7l-0.1-1.4c0.3,0.2,0.6,0.2,0.9,0.2s0.6,0,0.8-0.2c0.2-0.1,0.3-0.3,0.5-0.4c0.2-0.1,0.3-0.4,0.5-1.1
		c0-0.1,0-0.1,0.1-0.3l-3.3-8.6h1.5l1.8,4.9c0.3,0.6,0.5,1.4,0.6,1.9c0.1-0.6,0.3-1.3,0.6-1.9l1.8-4.9h1.5l-3.3,8.7
		c-0.3,0.9-0.6,1.7-0.8,1.9c-0.3,0.4-0.6,0.9-0.9,1.1c-0.3,0.2-0.8,0.3-1.2,0.3C344.7,44.8,344.4,44.8,344,44.7z"/>
</g>
<g class="st1">
	<path class="st3" d="M351.5,41.4v-1.7h1.7v1.7c0,0.6-0.2,1.1-0.3,1.5c-0.2,0.3-0.6,0.6-1.1,0.9l-0.4-0.6c0.3-0.2,0.6-0.3,0.6-0.6
		c0.2-0.3,0.3-0.6,0.3-1.1L351.5,41.4L351.5,41.4L351.5,41.4z"/>
	<path class="st3" d="M360.4,41.4V29.5h1.5v10.4h5.8v1.3h-7.3V41.4z"/>
	<path class="st3" d="M369.5,41.4V29.5h1.5v10.4h5.9v1.3h-7.4V41.4z"/>
	<path class="st3" d="M387.2,37.3l1.5,0.4c-0.3,1.4-0.9,2.3-1.8,3c-0.9,0.6-1.9,1.1-3.1,1.1s-2.3-0.3-3.2-0.8
		c-0.8-0.4-1.3-1.2-1.8-2.3s-0.6-2.1-0.6-3.1c0-1.2,0.3-2.3,0.8-3.2c0.4-0.9,1.2-1.7,1.9-2.1c0.9-0.4,1.8-0.8,2.9-0.8
		c1.2,0,2.1,0.3,3,0.9c0.8,0.6,1.3,1.5,1.6,2.6l-1.5,0.3c-0.3-0.9-0.6-1.5-1.2-1.8c-0.4-0.4-1.2-0.6-1.9-0.6c-0.9,0-1.6,0.2-2.3,0.6
		c-0.6,0.4-1,1.1-1.3,1.8s-0.3,1.6-0.3,2.4c0,1.1,0.1,1.9,0.4,2.7c0.3,0.8,0.8,1.4,1.4,1.7c0.6,0.3,1.3,0.6,1.9,0.6
		c0.9,0,1.6-0.3,2.3-0.8C386.5,39.4,387,38.2,387.2,37.3z"/>
</g>
<g class="st1">
	<path d="M10.9,67.8l4.5-11.9h1.7l4.8,11.9h-1.8l-1.3-3.6h-4.9l-1.3,3.6H10.9z M14.4,63h4l-1.3-3.3c-0.5-1.1-0.6-1.8-0.9-2.4
		c-0.1,0.8-0.3,1.5-0.6,2.3L14.4,63z"/>
	<path d="M23.1,67.8V55.9h1.5v11.9H23.1z"/>
	<path d="M26.7,67.8V55.9h1.5v11.9H26.7z"/>
	<path d="M34.9,67.8v-8.6h1.4v1.4c0.3-0.6,0.6-1,0.9-1.2c0.3-0.1,0.6-0.3,0.9-0.3c0.5,0,1.1,0.1,1.5,0.5L39.2,61
		c-0.3-0.1-0.8-0.3-1.1-0.3s-0.6,0.1-0.9,0.3c-0.3,0.2-0.4,0.4-0.6,0.8c-0.2,0.4-0.3,1-0.3,1.6v4.5L34.9,67.8L34.9,67.8z"/>
	<path d="M46.3,65.1l1.5,0.1c-0.3,0.9-0.6,1.5-1.3,2.1c-0.6,0.5-1.5,0.8-2.4,0.8c-1.2,0-2.3-0.4-3-1.2c-0.7-0.8-1-1.8-1-3.3
		s0.3-2.5,1-3.3c0.7-0.8,1.7-1.2,2.9-1.2c1.2,0,2.1,0.5,2.8,1.2c0.7,0.7,1.1,1.8,1.1,3.3c0,0.1,0,0.1,0,0.5h-6.3
		c0,0.9,0.3,1.6,0.8,2.1c0.4,0.4,1,0.8,1.8,0.8c0.6,0,1.1-0.1,1.4-0.5C45.7,66.1,46,65.7,46.3,65.1z M41.5,62.8h4.8
		c0-0.8-0.3-1.2-0.6-1.6c-0.4-0.6-1.1-0.9-1.8-0.9c-0.6,0-1.2,0.1-1.6,0.6C41.8,61.5,41.5,62.1,41.5,62.8z"/>
	<path d="M55.2,67.8v-1.1c-0.6,0.9-1.4,1.2-2.4,1.2c-0.8,0-1.4-0.1-1.9-0.6c-0.6-0.3-1.1-0.9-1.4-1.5s-0.4-1.5-0.4-2.3
		c0-0.9,0.1-1.6,0.4-2.3c0.3-0.8,0.8-1.2,1.4-1.6c0.6-0.3,1.2-0.6,1.9-0.6c0.4,0,0.9,0.1,1.4,0.3c0.5,0.2,0.8,0.5,1.1,0.9V56h1.5
		v11.7L55.2,67.8L55.2,67.8z M50.5,63.6c0,1.1,0.3,2,0.8,2.4c0.4,0.6,1.1,0.8,1.6,0.8c0.6,0,1.2-0.3,1.6-0.8
		c0.4-0.4,0.6-1.4,0.6-2.4c0-1.2-0.1-2.1-0.8-2.5c-0.6-0.5-0.9-0.8-1.6-0.8c-0.6,0-1.2,0.3-1.6,0.8C50.8,61.6,50.5,62.5,50.5,63.6z"
		/>
	<path d="M64.9,67.8l-2.6-8.6h1.5l1.4,5l0.4,1.8c0-0.1,0.1-0.8,0.4-1.8l1.4-5h1.5l1.4,5l0.4,1.6l0.4-1.6l1.5-5h1.3l-2.7,8.6h-1.3
		l-1.4-5.1l-0.3-1.5l-1.8,6.6H64.9z"/>
	<path d="M75.3,57.7v-1.6h1.5v1.6H75.3z M75.3,67.8v-8.6h1.5v8.6H75.3z"/>
	<path d="M78.9,67.8v-8.6h1.4v1.2c0.6-0.9,1.5-1.4,2.7-1.4c0.4,0,1.1,0.1,1.4,0.3c0.4,0.1,0.8,0.5,0.9,0.8c0.1,0.3,0.3,0.6,0.4,1.1
		c0,0.3,0.1,0.8,0.1,1.4v5.3h-1.5v-5.3c0-0.6,0-1.1-0.1-1.4c-0.1-0.3-0.3-0.5-0.6-0.8c-0.3-0.3-0.6-0.3-1.1-0.3
		c-0.6,0-1.2,0.1-1.6,0.6c-0.4,0.5-0.6,1.2-0.6,2.3v4.8C80.3,67.8,78.9,67.8,78.9,67.8z"/>
	<path d="M93.9,65.1l1.5,0.1c-0.3,0.9-0.6,1.5-1.4,2.1c-0.6,0.5-1.5,0.8-2.4,0.8c-1.2,0-2.2-0.4-3-1.2c-0.8-0.8-1-1.8-1-3.2
		c0-1.5,0.3-2.5,1.1-3.3c0.8-0.8,1.6-1.2,2.9-1.2c1.2,0,2.1,0.5,2.9,1.2c0.7,0.8,1.1,1.8,1.1,3.3c0,0.1,0,0.1,0,0.5h-6.3
		c0,0.9,0.3,1.6,0.8,2.1c0.4,0.4,1.1,0.8,1.8,0.8c0.6,0,1.1-0.1,1.4-0.5C93.4,66.1,93.7,65.7,93.9,65.1z M89.2,62.8H94
		c0-0.8-0.3-1.2-0.6-1.6c-0.4-0.6-1.1-0.9-1.8-0.9c-0.6,0-1.2,0.1-1.6,0.6C89.5,61.5,89.2,62.1,89.2,62.8z"/>
	<path d="M96.6,65.4l1.5-0.3c0.1,0.6,0.3,1.1,0.6,1.4c0.3,0.3,0.9,0.5,1.5,0.5c0.6,0,1.2-0.1,1.5-0.5c0.3-0.3,0.5-0.6,0.5-0.9
		c0-0.3-0.1-0.6-0.5-0.8c-0.1-0.1-0.8-0.3-1.5-0.4c-1-0.3-1.8-0.5-2.3-0.8c-0.5-0.1-0.8-0.5-0.9-0.8c-0.1-0.3-0.3-0.8-0.3-1.2
		s0.1-0.8,0.3-1c0.1-0.3,0.5-0.6,0.8-0.8c0.1-0.1,0.6-0.3,0.9-0.5c0.3-0.2,0.8-0.1,1.2-0.1c0.6,0,1.2,0.1,1.8,0.3
		c0.5,0.1,0.9,0.4,1,0.8c0.3,0.3,0.5,0.8,0.5,1.4l-1.2,0.1c0-0.5-0.3-0.8-0.6-1.1c-0.3-0.3-0.8-0.4-1.2-0.4c-0.6,0-1.2,0.1-1.4,0.3
		c-0.3,0.1-0.5,0.5-0.5,0.8c0,0.1,0,0.3,0.1,0.5c0.1,0.2,0.3,0.3,0.6,0.4c0.1,0,0.6,0.1,1.4,0.3c1,0.3,1.8,0.4,2.1,0.6
		c0.5,0.1,0.8,0.4,0.9,0.8c0.1,0.3,0.3,0.8,0.3,1.2c0,0.5-0.1,0.9-0.5,1.4c-0.3,0.5-0.8,0.8-1.2,1.1c-0.5,0.3-1.2,0.3-1.8,0.3
		c-1,0-2-0.3-2.5-0.8C97.2,66.9,96.7,66.3,96.6,65.4z"/>
	<path d="M109.5,63.6c0-1.6,0.5-2.7,1.4-3.4c0.8-0.6,1.6-0.9,2.7-0.9c1.2,0,2.1,0.4,2.9,1.2c0.8,0.8,1,1.8,1,3.1
		c0,1.1-0.1,2-0.5,2.6c-0.3,0.6-0.8,1-1.5,1.5c-0.8,0.4-1.4,0.4-2.1,0.4c-1.2,0-2.1-0.4-2.9-1.2C109.9,66.1,109.5,65.1,109.5,63.6z
		 M111,63.6c0,1.1,0.3,2,0.8,2.4c0.5,0.6,1,0.8,1.8,0.8c0.8,0,1.4-0.3,1.8-0.8c0.5-0.6,0.8-1.4,0.8-2.5s-0.3-1.8-0.8-2.4
		c-0.5-0.6-1-0.8-1.8-0.8c-0.8,0-1.4,0.3-1.8,0.8C111.3,61.6,111,62.5,111,63.6z"/>
	<path d="M119.2,67.8v-8.6h1.4v1.2c0.6-0.9,1.5-1.4,2.7-1.4c0.5,0,1,0.1,1.4,0.3c0.5,0.1,0.8,0.5,0.9,0.8c0.1,0.3,0.3,0.6,0.5,1.1
		c0,0.3,0.1,0.8,0.1,1.4v5.3h-1.5v-5.3c0-0.6,0-1.1-0.1-1.4c-0.1-0.3-0.3-0.5-0.6-0.8c-0.3-0.3-0.6-0.3-1-0.3
		c-0.6,0-1.2,0.1-1.6,0.6c-0.5,0.5-0.6,1.2-0.6,2.3v4.8C120.8,67.8,119.2,67.8,119.2,67.8z"/>
	<path d="M132.3,65.4l1.5-0.3c0.1,0.6,0.3,1.1,0.6,1.4c0.3,0.3,0.9,0.5,1.5,0.5c0.6,0,1.2-0.1,1.5-0.5c0.3-0.3,0.5-0.6,0.5-0.9
		c0-0.3-0.1-0.6-0.5-0.8c-0.1-0.1-0.8-0.3-1.5-0.4c-1-0.3-1.8-0.5-2.3-0.8c-0.5-0.1-0.8-0.5-0.9-0.8c-0.1-0.3-0.2-0.9-0.2-1.2
		c0-0.5,0.1-0.8,0.3-1.1c0.1-0.3,0.5-0.6,0.8-0.8c0.1-0.1,0.6-0.3,0.9-0.4c0.3-0.1,0.8-0.1,1.2-0.1c0.6,0,1.2,0.1,1.8,0.3
		c0.5,0.1,0.9,0.5,1,0.8c0.3,0.3,0.5,0.8,0.5,1.4l-1.3,0.1c0-0.5-0.3-0.8-0.6-1.1c-0.3-0.3-0.8-0.4-1.2-0.4c-0.6,0-1.2,0.1-1.4,0.3
		c-0.3,0.1-0.5,0.5-0.5,0.8c0,0.1,0,0.3,0.1,0.5c0.1,0.2,0.3,0.3,0.6,0.4c0.1,0,0.6,0.1,1.4,0.3c1,0.3,1.8,0.4,2.1,0.6
		c0.5,0.1,0.8,0.4,0.9,0.8c0.1,0.3,0.3,0.8,0.3,1.2c0,0.5-0.2,0.9-0.5,1.4c-0.3,0.5-0.8,0.8-1.2,1.1c-0.5,0.3-1.2,0.3-1.8,0.3
		c-1,0-2-0.3-2.5-0.8C132.9,66.9,132.6,66.3,132.3,65.4z"/>
	<path d="M146.7,66.7c-0.6,0.5-1,0.8-1.5,0.9c-0.5,0.1-1,0.3-1.6,0.3c-0.9,0-1.7-0.3-2.1-0.8c-0.5-0.5-0.8-1.1-0.8-1.8
		c0-0.4,0.2-0.8,0.3-1.2c0.2-0.3,0.5-0.6,0.8-0.9c0.3-0.1,0.6-0.3,1-0.5c0.3,0,0.8-0.1,1.4-0.1c1.2-0.1,2.1-0.3,2.5-0.4
		c0-0.1,0-0.3,0-0.5c0-0.6-0.2-1-0.5-1.2c-0.4-0.2-0.9-0.3-1.6-0.3s-1.2,0.1-1.5,0.3c-0.3,0.2-0.6,0.6-0.8,1.2h-1.4
		c0.2-0.6,0.3-1.1,0.6-1.5c0.3-0.3,0.8-0.6,1.3-0.9c0.6-0.1,1.2-0.3,2-0.3s1.4,0.1,1.8,0.3c0.5,0.1,0.8,0.4,1,0.6
		c0.2,0.3,0.3,0.6,0.5,1c0,0.3,0,0.8,0,1.4v2c0,1.4,0,2.3,0.2,2.5c0.1,0.3,0.1,0.8,0.3,1.1h-1.5C146.8,67.5,146.8,67.2,146.7,66.7z
		 M146.7,63.6c-0.6,0.1-1.3,0.5-2.4,0.6c-0.6,0.1-1,0.1-1.2,0.3c-0.3,0.1-0.5,0.3-0.6,0.4c-0.1,0.1-0.1,0.5-0.1,0.8
		c0,0.5,0.1,0.8,0.5,0.9c0.3,0.1,0.8,0.5,1.3,0.5c0.6,0,1-0.1,1.5-0.3c0.5-0.3,0.8-0.6,0.9-1c0.1-0.3,0.3-0.8,0.3-1.5L146.7,63.6
		L146.7,63.6z"/>
	<path d="M150.3,67.8V55.9h1.5v11.9H150.3z"/>
	<path d="M159.9,65.1l1.5,0.1c-0.3,0.9-0.6,1.5-1.4,2.1c-0.6,0.5-1.5,0.8-2.4,0.8c-1.2,0-2.3-0.4-3-1.2c-0.7-0.8-1-1.8-1-3.3
		s0.3-2.5,1-3.3c0.7-0.8,1.6-1.2,2.8-1.2c1.2,0,2.1,0.5,2.9,1.2c0.8,0.7,1,1.8,1,3.3c0,0.1,0,0.1,0,0.5H155c0,0.9,0.3,1.6,0.8,2.1
		c0.5,0.4,1,0.8,1.8,0.8c0.6,0,1-0.1,1.3-0.5C159.3,66.1,159.6,65.7,159.9,65.1z M155.1,62.8h4.8c0-0.8-0.3-1.2-0.6-1.6
		c-0.5-0.6-1-0.9-1.8-0.9c-0.6,0-1.2,0.1-1.6,0.6C155.4,61.5,155.1,62.1,155.1,62.8z"/>
	<path d="M163.9,64.9l-0.5-6.3v-2.5h1.8v2.5l-0.4,6.3H163.9z M163.5,67.8v-1.5h1.7v1.5H163.5z"/>
	<path d="M172.6,67.8V55.9h8v1.4h-6.5v3.6h5.5v1.4h-5.5v5.5H172.6z"/>
	<path d="M182.4,67.8v-8.6h1.3v1.4c0.3-0.6,0.6-1,0.9-1.2c0.3-0.2,0.6-0.3,0.9-0.3c0.5,0,1,0.1,1.5,0.5l-0.5,1.4
		c-0.3-0.1-0.8-0.3-1-0.3s-0.6,0.1-0.9,0.3c-0.3,0.2-0.5,0.4-0.6,0.8c-0.1,0.4-0.3,1-0.3,1.6v4.5L182.4,67.8L182.4,67.8z"/>
	<path d="M193.6,65.1l1.5,0.1c-0.3,0.9-0.6,1.5-1.3,2.1c-0.6,0.5-1.5,0.8-2.4,0.8c-1.2,0-2.3-0.4-3-1.2c-0.7-0.8-1-1.8-1-3.3
		s0.3-2.5,1-3.3c0.7-0.8,1.6-1.2,2.8-1.2c1.2,0,2.1,0.5,2.8,1.2c0.7,0.7,1,1.8,1,3.3c0,0.1,0,0.1,0,0.5h-6.3c0,0.9,0.3,1.6,0.8,2.1
		c0.5,0.4,1,0.8,1.8,0.8c0.6,0,1-0.1,1.3-0.5C193.2,66.1,193.5,65.7,193.6,65.1z M189,62.8h4.8c0-0.8-0.3-1.2-0.6-1.6
		c-0.5-0.6-1-0.9-1.8-0.9c-0.6,0-1.2,0.1-1.7,0.6C189.3,61.5,189,62.1,189,62.8z"/>
	<path d="M202.8,65.1l1.5,0.1c-0.3,0.9-0.6,1.5-1.3,2.1c-0.6,0.5-1.5,0.8-2.4,0.8c-1.2,0-2.3-0.4-3-1.2c-0.7-0.8-1-1.8-1-3.3
		s0.3-2.5,1-3.3c0.7-0.8,1.7-1.2,2.8-1.2c1.2,0,2.1,0.5,2.8,1.2c0.8,0.8,1.1,1.8,1.1,3.3c0,0.1,0,0.1,0,0.5h-6.4
		c0,0.9,0.3,1.6,0.8,2.1c0.5,0.4,1,0.8,1.8,0.8c0.6,0,1-0.1,1.3-0.5C202.3,66.1,202.6,65.7,202.8,65.1z M198.1,62.8h4.8
		c0-0.8-0.3-1.2-0.6-1.6c-0.5-0.6-1-0.9-1.8-0.9c-0.6,0-1.2,0.1-1.7,0.6C198.4,61.5,198.1,62.1,198.1,62.8z"/>
	<path d="M210.4,68.5l1.3,0.1c0,0.4,0.2,0.8,0.4,0.9c0.3,0.3,0.9,0.4,1.5,0.4s1.2-0.1,1.5-0.4s0.6-0.6,0.8-1.2
		c0-0.3,0.2-0.9,0.2-1.8c-0.6,0.8-1.3,1-2.4,1c-1.2,0-2.1-0.4-2.7-1.2c-0.6-0.9-0.9-1.8-0.9-3c0-0.8,0.2-1.5,0.4-2.3
		c0.3-0.8,0.8-1.2,1.3-1.6c0.6-0.5,1.2-0.6,2-0.6c1,0,1.8,0.4,2.5,1.2v-1h1.3v7.4c0,1.4-0.2,2.3-0.4,2.9c-0.3,0.6-0.8,1-1.3,1.4
		c-0.6,0.3-1.3,0.4-2.1,0.4c-1.1,0-1.8-0.3-2.4-0.8C210.7,70.2,210.4,69.4,210.4,68.5z M211.6,63.4c0,1,0.2,1.9,0.6,2.4
		c0.5,0.4,1.1,0.8,1.7,0.8c0.6,0,1.2-0.3,1.7-0.8s0.8-1.4,0.8-2.4c0-1.1-0.3-1.8-0.8-2.4c-0.4-0.6-1-0.8-1.7-0.8
		c-0.6,0-1.2,0.3-1.7,0.8S211.6,62.4,211.6,63.4z"/>
	<path d="M219.8,57.7v-1.6h1.5v1.6H219.8z M219.8,67.8v-8.6h1.5v8.6H219.8z"/>
	<path d="M223.9,67.8v-7.4h-1.3v-1.2h1.3v-0.9c0-0.6,0-1,0.2-1.4c0.2-0.3,0.4-0.8,0.8-0.9c0.3-0.3,0.9-0.3,1.5-0.3
		c0.4,0,0.9,0,1.3,0.1l-0.2,1.2c-0.3,0-0.6-0.1-0.9-0.1c-0.5,0-0.8,0.1-0.9,0.3c-0.2,0.1-0.3,0.6-0.3,1V59h1.7v1.2h-1.7v7.5h-1.5
		V67.8z"/>
	<path d="M231.3,66.6l0.2,1.4c-0.4,0.1-0.8,0.1-1,0.1c-0.6,0-0.9-0.1-1.2-0.3c-0.3-0.1-0.4-0.5-0.6-0.6c-0.2-0.3-0.2-0.9-0.2-1.6v-5
		h-1v-1.2h1v-2.1l1.5-0.9v3h1.5v1.2h-1.6v5c0,0.4,0,0.8,0.2,0.8c0,0.1,0.2,0.1,0.3,0.3c0.2,0,0.3,0.1,0.4,0.1
		C230.8,66.6,231,66.6,231.3,66.6z"/>
	<path d="M238.9,67.8l-2.6-8.6h1.5l1.3,5l0.5,1.8c0-0.1,0.2-0.8,0.4-1.8l1.3-5h1.5l1.3,5l0.5,1.6l0.4-1.6l1.5-5h1.3l-2.7,8.6h-1.5
		l-1.3-5.1l-0.3-1.5l-1.8,6.6H238.9z"/>
	<path d="M249.1,57.7v-1.6h1.5v1.6H249.1z M249.1,67.8v-8.6h1.5v8.6H249.1z"/>
	<path d="M256,66.6l0.2,1.4c-0.4,0.1-0.8,0.1-1,0.1c-0.6,0-0.9-0.1-1.2-0.3c-0.3-0.1-0.4-0.5-0.6-0.6c-0.2-0.3-0.2-0.9-0.2-1.6v-5
		h-1v-1.2h1v-2.1l1.5-0.9v3h1.5v1.2h-1.5v5c0,0.4,0,0.8,0.2,0.8c0,0.1,0.2,0.1,0.3,0.3c0.2,0,0.3,0.1,0.4,0.1
		C255.6,66.6,255.7,66.6,256,66.6z"/>
	<path d="M257.3,67.8V55.9h1.5v4.4c0.8-0.8,1.5-1.2,2.6-1.2c0.6,0,1.2,0.1,1.7,0.3c0.4,0.3,0.8,0.6,1,1c0.3,0.5,0.3,1.1,0.3,2v5.4
		h-1.5v-5.4c0-0.8-0.2-1.2-0.5-1.6c-0.3-0.3-0.8-0.5-1.3-0.5c-0.4,0-0.9,0.1-1.2,0.3c-0.3,0.2-0.6,0.4-0.8,0.9
		c-0.2,0.4-0.3,0.9-0.3,1.6v4.6h-1.5V67.8z"/>
	<path d="M271.2,71.1V59.2h1.3v1.1c0.3-0.5,0.6-0.8,1-1.1c0.5-0.1,0.9-0.3,1.3-0.3c0.8,0,1.3,0.1,2,0.6c0.6,0.3,1,0.9,1.2,1.6
		c0.3,0.8,0.5,1.5,0.5,2.3c0,0.9-0.2,1.6-0.5,2.4c-0.3,0.8-0.8,1.2-1.3,1.6c-0.6,0.3-1.2,0.6-1.9,0.6c-0.5,0-0.9-0.1-1.3-0.3
		c-0.4-0.2-0.8-0.4-0.9-0.8v4.2H271.2L271.2,71.1z M272.5,63.6c0,1.1,0.2,2,0.6,2.4c0.5,0.6,1.1,0.8,1.7,0.8c0.6,0,1.2-0.3,1.7-0.8
		c0.5-0.6,0.8-1.4,0.8-2.5s-0.2-2-0.6-2.4c-0.4-0.6-1-0.8-1.7-0.8c-0.6,0-1.2,0.3-1.7,0.9C272.7,61.6,272.5,62.5,272.5,63.6z"/>
	<path d="M285.8,67.8v-1.2c-0.6,0.9-1.5,1.5-2.7,1.5c-0.5,0-0.9-0.1-1.3-0.3c-0.5-0.1-0.8-0.5-0.9-0.8c-0.2-0.3-0.3-0.6-0.5-1.1
		c0-0.3-0.2-0.8-0.2-1.4v-5.3h1.5V64c0,0.8,0,1.2,0.2,1.5c0.2,0.4,0.3,0.8,0.6,0.9c0.3,0.1,0.6,0.3,1.1,0.3c0.4,0,0.9-0.1,1.2-0.3
		c0.3-0.2,0.6-0.6,0.8-0.9c0.2-0.5,0.3-0.9,0.3-1.6v-4.5h1.5v8.3L285.8,67.8L285.8,67.8z"/>
	<path d="M289.5,67.8v-8.6h1.3v1.4c0.3-0.6,0.6-1,0.9-1.2c0.3-0.1,0.6-0.3,0.9-0.3c0.4,0,1,0.1,1.5,0.5l-0.5,1.4
		c-0.3-0.1-0.8-0.3-1-0.3c-0.3,0-0.6,0.1-0.9,0.3c-0.3,0.2-0.5,0.4-0.6,0.8c-0.2,0.4-0.3,1-0.3,1.6v4.5L289.5,67.8L289.5,67.8
		L289.5,67.8z"/>
	<path d="M300.6,64.8l1.3,0.1c-0.2,1-0.6,1.8-1.2,2.3c-0.6,0.6-1.5,0.9-2.4,0.9c-1.2,0-2.1-0.5-2.8-1.2c-0.7-0.7-1-1.8-1-3.3
		c0-0.9,0.2-1.8,0.4-2.4c0.3-0.8,0.8-1.2,1.3-1.5c0.6-0.3,1.3-0.5,2.1-0.5c0.9,0,1.7,0.3,2.3,0.8s0.9,1.2,1.2,2l-1.3,0.1
		c-0.2-0.6-0.3-1.1-0.8-1.4c-0.3-0.3-0.8-0.5-1.2-0.5c-0.8,0-1.3,0.3-1.8,0.8s-0.8,1.4-0.8,2.6c0,1.2,0.2,1.9,0.6,2.5
		c0.4,0.6,1,0.8,1.7,0.8c0.6,0,1-0.1,1.3-0.4C300.1,66,300.4,65.4,300.6,64.8z"/>
	<path d="M303.1,67.8V55.9h1.5v4.4c0.8-0.8,1.5-1.2,2.6-1.2c0.6,0,1.2,0.1,1.7,0.3c0.4,0.3,0.8,0.6,1,1c0.3,0.5,0.3,1.1,0.3,2v5.4
		h-1.5v-5.4c0-0.8-0.2-1.2-0.5-1.6c-0.3-0.3-0.8-0.5-1.3-0.5c-0.4,0-0.9,0.1-1.2,0.3c-0.3,0.2-0.6,0.4-0.8,0.9
		c-0.2,0.4-0.3,0.9-0.3,1.6v4.6h-1.5V67.8z"/>
	<path d="M318,66.7c-0.6,0.5-1.1,0.8-1.5,0.9c-0.5,0.1-1.1,0.3-1.7,0.3c-0.9,0-1.7-0.3-2.1-0.8c-0.4-0.5-0.8-1.1-0.8-1.8
		c0-0.4,0.2-0.8,0.3-1.2c0.2-0.3,0.5-0.6,0.8-0.9c0.3-0.1,0.6-0.3,1.1-0.5c0.3,0,0.8-0.1,1.3-0.1c1.2-0.1,2.1-0.3,2.5-0.4
		c0-0.1,0-0.3,0-0.5c0-0.6-0.2-1-0.4-1.2c-0.3-0.3-0.9-0.5-1.7-0.5c-0.8,0-1.2,0.1-1.5,0.3c-0.3,0.3-0.6,0.6-0.8,1.2l-1.3-0.1
		c0.2-0.6,0.3-1,0.6-1.5c0.3-0.3,0.8-0.6,1.3-0.9c0.6-0.1,1.2-0.3,1.9-0.3c0.7,0,1.3,0.1,1.8,0.3c0.4,0.1,0.8,0.5,1,0.6
		c0.2,0.3,0.3,0.6,0.5,1.1c0,0.3,0,0.8,0,1.4V64c0,1.4,0,2.3,0.2,2.6c0.2,0.3,0.2,0.8,0.3,1h-1.5C318.1,67.5,318,67.2,318,66.7z
		 M317.8,63.6c-0.6,0.1-1.3,0.5-2.4,0.6c-0.6,0.1-1.1,0.1-1.2,0.3c-0.2,0.2-0.4,0.3-0.6,0.4c-0.2,0.1-0.2,0.5-0.2,0.8
		c0,0.5,0.2,0.8,0.5,0.9c0.3,0.3,0.8,0.5,1.3,0.5s1-0.1,1.5-0.3c0.4-0.3,0.8-0.6,0.9-1c0.2-0.3,0.3-0.8,0.3-1.5L317.8,63.6
		L317.8,63.6z"/>
	<path d="M321,65.4l1.5-0.3c0.2,0.6,0.3,1.1,0.6,1.4c0.3,0.3,0.9,0.5,1.5,0.5s1.2-0.1,1.5-0.5c0.3-0.3,0.4-0.6,0.4-0.9
		c0-0.3-0.2-0.6-0.4-0.8c-0.2-0.1-0.8-0.3-1.5-0.4c-1.1-0.3-1.8-0.5-2.3-0.8c-0.5-0.1-0.8-0.5-0.9-0.8c-0.2-0.3-0.3-0.8-0.3-1.2
		s0.2-0.8,0.3-1c0.2-0.3,0.4-0.6,0.8-0.8c0.2-0.1,0.6-0.3,0.9-0.5c0.4-0.1,0.8-0.1,1.2-0.1c0.6,0,1.2,0.1,1.8,0.3
		c0.4,0.1,0.9,0.4,1,0.8c0.1,0.3,0.5,0.8,0.5,1.4l-1.3,0.1c0-0.5-0.3-0.8-0.6-1.1c-0.3-0.3-0.8-0.3-1.3-0.3s-1.2,0.1-1.3,0.3
		c-0.3,0.1-0.5,0.5-0.5,0.8c0,0.1,0,0.3,0.2,0.5c0.2,0.2,0.3,0.3,0.6,0.4c0.2,0,0.6,0.1,1.3,0.3c1.1,0.3,1.8,0.4,2.1,0.6
		c0.3,0.2,0.8,0.4,0.9,0.8c0.3,0.3,0.3,0.8,0.3,1.2c0,0.5-0.2,0.9-0.5,1.4c-0.3,0.5-0.8,0.8-1.2,1.1c-0.6,0.3-1.2,0.3-1.8,0.3
		c-1,0-1.9-0.3-2.5-0.8C321.4,66.9,321.1,66.3,321,65.4z"/>
	<path d="M335.5,65.1l1.5,0.1c-0.3,0.9-0.6,1.5-1.3,2.1c-0.6,0.5-1.5,0.8-2.4,0.8c-1.2,0-2.3-0.4-3-1.2c-0.7-0.8-1-1.8-1-3.3
		s0.3-2.5,1-3.3c0.7-0.8,1.7-1.2,2.9-1.2s2.1,0.5,2.8,1.2c0.7,0.7,1,1.8,1,3.3c0,0.1,0,0.1,0,0.5h-6.3c0,0.9,0.3,1.6,0.8,2.1
		c0.5,0.4,1,0.8,1.8,0.8c0.6,0,1.1-0.1,1.4-0.5C335,66.1,335.4,65.7,335.5,65.1z M330.8,62.8h4.8c0-0.8-0.3-1.2-0.6-1.6
		c-0.4-0.6-1-0.9-1.8-0.9c-0.6,0-1.2,0.1-1.6,0.6C331.2,61.3,330.8,62.1,330.8,62.8z"/>
	<path d="M339.3,67.8v-1.5h1.7v1.5H339.3z"/>
</g>
<g class="st1">
	<path class="st4" d="M17.7,91.2l1.4,0.2c-0.2,1.1-0.6,1.8-1.2,2.3c-0.6,0.6-1.5,0.9-2.4,0.9c-1.2,0-2.1-0.5-2.8-1.2
		c-0.8-0.8-1-1.8-1-3.3c0-0.9,0.1-1.8,0.5-2.4c0.3-0.6,0.8-1.2,1.3-1.5s1.3-0.4,2.1-0.4c0.9,0,1.7,0.3,2.3,0.8
		c0.6,0.4,0.9,1.2,1.2,1.9l-1.3,0.1c-0.2-0.6-0.3-1-0.8-1.3c-0.3-0.3-0.8-0.4-1.2-0.4c-0.8,0-1.3,0.3-1.8,0.8
		c-0.5,0.4-0.8,1.4-0.8,2.6s0.2,1.9,0.6,2.6c0.5,0.6,1.2,0.8,2,0.8c0.6,0,1-0.2,1.3-0.4C17.4,92.4,17.5,91.9,17.7,91.2z"/>
	<path class="st4" d="M19.8,90c0-1.6,0.5-2.7,1.3-3.4c0.8-0.6,1.7-0.9,2.7-0.9c1.2,0,2.1,0.5,2.8,1.2s1.1,1.8,1.1,3.1
		c0,1.1-0.2,1.9-0.5,2.6c-0.3,0.6-0.8,1-1.5,1.5s-1.3,0.5-2.1,0.5c-1.2,0-2.1-0.5-2.8-1.2C20.2,92.5,19.8,91.5,19.8,90z M21.3,90
		c0,1.1,0.3,1.9,0.8,2.4c0.5,0.6,1,0.8,1.8,0.8s1.3-0.3,1.8-0.8c0.4-0.6,0.8-1.4,0.8-2.6c0-1.1-0.3-1.8-0.8-2.4s-1.1-0.8-1.8-0.8
		s-1.3,0.3-1.8,0.8C21.6,88.2,21.3,88.9,21.3,90z"/>
	<path class="st4" d="M29.5,94.3V82.5H31v4.2c0.8-0.8,1.5-1.2,2.5-1.2c0.6,0,1.2,0.2,1.7,0.3s0.8,0.6,1,1.1c0.1,0.5,0.3,1.1,0.3,2
		v5.4H35v-5.4c0-0.8-0.2-1.2-0.4-1.7c-0.3-0.3-0.8-0.4-1.4-0.4c-0.4,0-0.9,0.2-1.2,0.3s-0.6,0.4-0.8,0.9s-0.3,0.9-0.3,1.7v4.6H29.5
		L29.5,94.3z"/>
	<path class="st4" d="M38.1,90c0-1.6,0.5-2.7,1.3-3.4c0.8-0.6,1.7-0.9,2.7-0.9c1.2,0,2.1,0.5,2.8,1.2c0.7,0.7,1.1,1.8,1.1,3.1
		c0,1.1-0.1,1.9-0.4,2.6c-0.3,0.6-0.8,1-1.5,1.5s-1.3,0.5-2.1,0.5c-1.2,0-2.1-0.5-2.8-1.2C38.5,92.5,38.1,91.5,38.1,90z M39.6,90
		c0,1.1,0.3,1.9,0.8,2.4c0.5,0.6,1.1,0.8,1.8,0.8s1.3-0.3,1.8-0.8c0.4-0.6,0.8-1.4,0.8-2.6c0-1.1-0.3-1.8-0.8-2.4s-1-0.8-1.8-0.8
		s-1.4,0.3-1.8,0.8C39.9,88.2,39.6,88.9,39.6,90z"/>
	<path class="st4" d="M49.3,94.3l-2.6-8.5h1.5l1.4,4.9l0.4,1.8c0-0.2,0.1-0.8,0.4-1.8l1.4-4.9h1.5l1.4,4.9l0.4,1.7l0.4-1.7l1.5-4.9
		h1.4l-2.7,8.5h-1.5l-1.4-5.1l-0.3-1.5l-1.8,6.6H49.3z"/>
	<path class="st4" d="M59.7,84.1v-1.6h1.5v1.6H59.7z M59.7,94.3v-8.5h1.5v8.5H59.7z"/>
	<path class="st4" d="M63.4,94.3v-8.5h1.4V87c0.6-0.9,1.5-1.3,2.7-1.3c0.4,0,1.1,0.1,1.4,0.3c0.4,0.2,0.8,0.5,0.9,0.8
		s0.3,0.6,0.4,1.1c0,0.3,0.1,0.8,0.1,1.4v5.2h-1.5v-5.3c0-0.6,0-1.1-0.1-1.4s-0.3-0.4-0.6-0.7c-0.3-0.3-0.6-0.3-1.1-0.3
		c-0.6,0-1.2,0.2-1.6,0.6c-0.4,0.4-0.6,1.2-0.6,2.3v4.6L63.4,94.3L63.4,94.3z"/>
	<path class="st4" d="M78.4,91.5l1.5,0.1c-0.3,0.9-0.6,1.5-1.4,2.1c-0.6,0.5-1.5,0.8-2.4,0.8c-1.2,0-2.3-0.5-3-1.2
		C72.4,92.6,72,91.5,72,90s0.3-2.5,1.1-3.3s1.6-1.2,2.9-1.2c1.2,0,2.1,0.5,2.9,1.2c0.8,0.7,1,1.8,1,3.3c0,0.2,0,0.2,0,0.5h-6.3
		c0,0.9,0.3,1.6,0.8,2.1c0.4,0.4,1.1,0.8,1.8,0.8c0.6,0,1.1-0.1,1.4-0.4C77.8,92.5,78.1,92.2,78.4,91.5z M73.6,89.2h4.8
		c0-0.8-0.3-1.2-0.6-1.6c-0.4-0.6-1.1-0.9-1.8-0.9c-0.6,0-1.2,0.2-1.6,0.6C73.9,87.9,73.6,88.5,73.6,89.2z"/>
	<path class="st4" d="M81.7,94.3v-8.5h1.4v1.3c0.3-0.6,0.6-1,0.9-1.2c0.3-0.1,0.6-0.3,0.9-0.3c0.4,0,1.1,0.2,1.5,0.5l-0.5,1.3
		c-0.3-0.1-0.8-0.3-1.1-0.3c-0.3,0-0.6,0.2-0.9,0.3c-0.3,0.1-0.4,0.5-0.5,0.8c-0.1,0.4-0.3,1.1-0.3,1.7v4.5L81.7,94.3L81.7,94.3z"/>
</g>
<g class="st1">
	<path class="st4" d="M87.1,97.6l-0.2-1.3c0.3,0.1,0.6,0.1,0.9,0.1c0.3,0,0.6,0,0.8-0.1c0.1-0.2,0.3-0.3,0.4-0.5s0.3-0.5,0.4-1
		c0-0.2,0-0.2,0.1-0.3l-3.3-8.7h1.7l1.8,4.9c0.3,0.6,0.4,1.4,0.6,1.9c0.1-0.6,0.3-1.3,0.6-1.9l1.8-4.9h1.5l-3.3,8.7
		c-0.3,0.9-0.6,1.6-0.8,2c-0.3,0.5-0.6,0.9-0.9,1c-0.3,0.1-0.8,0.3-1.2,0.3C87.7,97.8,87.4,97.8,87.1,97.6z"/>
</g>
<g class="st1">
	<path class="st4" d="M94.6,94.3v-1.7h1.7v1.7H94.6z"/>
	<path class="st4" d="M104.4,91.2l1.4,0.2c-0.1,1.1-0.6,1.8-1.2,2.3c-0.6,0.6-1.5,0.9-2.4,0.9c-1.2,0-2.1-0.5-2.9-1.2
		c-0.8-0.8-1-1.8-1-3.3c0-0.9,0.1-1.8,0.5-2.4c0.4-0.6,0.8-1.2,1.4-1.5s1.4-0.4,2.1-0.4c0.9,0,1.6,0.3,2.3,0.8
		c0.6,0.4,0.9,1.2,1.2,1.9l-1.4,0.1c-0.1-0.6-0.3-1-0.8-1.3c-0.3-0.3-0.8-0.4-1.2-0.4c-0.8,0-1.4,0.3-1.8,0.8
		c-0.4,0.4-0.8,1.3-0.8,2.5s0.1,2,0.6,2.6s1,0.8,1.6,0.8s1-0.1,1.4-0.4C103.9,92.4,104.2,91.9,104.4,91.2z"/>
	<path class="st4" d="M106.5,90c0-1.6,0.5-2.7,1.4-3.4c0.8-0.6,1.6-0.9,2.7-0.9c1.2,0,2.1,0.5,2.9,1.2s1,1.8,1,3.1
		c0,1.1-0.1,1.9-0.5,2.6c-0.3,0.6-0.8,1-1.5,1.5c-0.7,0.5-1.4,0.5-2.1,0.5c-1.2,0-2.1-0.5-2.9-1.2C106.8,92.5,106.5,91.5,106.5,90z
		 M108,90c0,1.1,0.3,1.9,0.8,2.4c0.5,0.6,1,0.8,1.8,0.8c0.8,0,1.4-0.3,1.8-0.8c0.5-0.6,0.8-1.4,0.8-2.6c0-1.1-0.3-1.8-0.8-2.4
		s-1-0.8-1.8-0.8c-0.8,0-1.4,0.3-1.8,0.8C108.1,88.2,108,88.9,108,90z"/>
	<path class="st4" d="M116.1,94.3v-8.5h1.4V87c0.3-0.4,0.6-0.8,1-1.1c0.5-0.3,0.9-0.4,1.5-0.4s1.2,0.2,1.5,0.4
		c0.3,0.3,0.8,0.6,0.9,1.1c0.8-1.1,1.5-1.5,2.7-1.5c0.9,0,1.5,0.3,2,0.8s0.8,1.2,0.8,2.1v5.8h-1.5v-5.4c0-0.6,0-1.1-0.1-1.2
		c-0.1-0.3-0.3-0.5-0.5-0.6c-0.3-0.1-0.6-0.3-0.9-0.3c-0.6,0-1,0.2-1.5,0.6s-0.6,1.1-0.6,1.9v4.9h-1.5v-5.4c0-0.6-0.1-1.2-0.3-1.5
		c-0.3-0.3-0.6-0.4-1.2-0.4c-0.5,0-0.8,0.1-1.2,0.3c-0.5,0.2-0.6,0.6-0.8,0.9c-0.2,0.3-0.1,1.1-0.1,1.8v4.5
		C117.7,94.3,116.1,94.3,116.1,94.3z"/>
	<path class="st4" d="M134.4,84.1v-1.6h1.5v1.6H134.4z M134.4,94.3v-8.5h1.5v8.5H134.4z"/>
	<path class="st4" d="M137.5,91.8l1.5-0.3c0.1,0.6,0.3,1.1,0.6,1.4c0.3,0.3,0.9,0.4,1.5,0.4c0.6,0,1.2-0.2,1.5-0.4
		c0.3-0.3,0.5-0.6,0.5-0.9s-0.1-0.6-0.5-0.8c-0.1-0.1-0.8-0.3-1.5-0.4c-1-0.3-1.8-0.4-2.3-0.8c-0.5-0.2-0.8-0.4-0.9-0.8
		s-0.3-0.8-0.3-1.2c0-0.5,0.1-0.8,0.3-1.1s0.5-0.6,0.8-0.8c0.1-0.2,0.6-0.3,0.9-0.4c0.3-0.2,0.8-0.2,1.2-0.2c0.6,0,1.2,0.2,1.8,0.3
		c0.5,0.1,0.9,0.4,1,0.8c0.3,0.3,0.5,0.8,0.5,1.3l-1.3,0.2c0-0.4-0.3-0.8-0.6-1.1c-0.3-0.3-0.8-0.3-1.3-0.3c-0.6,0-1.2,0.2-1.4,0.3
		c-0.3,0.2-0.5,0.4-0.5,0.8c0,0.2,0,0.3,0.2,0.4c0.1,0.2,0.3,0.3,0.6,0.5c0.2,0,0.6,0.1,1.4,0.3c1,0.3,1.8,0.5,2.1,0.6
		c0.5,0.1,0.8,0.4,0.9,0.8c0.1,0.3,0.5,0.9,0.5,1.3s-0.2,0.9-0.5,1.3c-0.3,0.5-0.8,0.8-1.2,1s-1.2,0.3-1.8,0.3c-1,0-2-0.3-2.5-0.8
		C138,93.3,137.7,92.7,137.5,91.8z"/>
	<path class="st4" d="M150.9,94.3v-8.5h1.3v1.3c0.3-0.6,0.6-1,0.9-1.2c0.3-0.1,0.6-0.3,0.9-0.3c0.5,0,1,0.2,1.5,0.5l-0.5,1.3
		c-0.3-0.1-0.8-0.3-1-0.3s-0.6,0.2-0.9,0.3s-0.5,0.4-0.6,0.8c-0.1,0.4-0.3,1.1-0.3,1.7v4.5h-1.3V94.3z"/>
	<path class="st4" d="M162,93.3c-0.6,0.5-1,0.8-1.5,0.9c-0.5,0.2-1,0.3-1.6,0.3c-0.9,0-1.7-0.3-2.1-0.8c-0.4-0.5-0.8-1-0.8-1.8
		c0-0.5,0.2-0.8,0.3-1.2c0.2-0.3,0.5-0.6,0.8-0.9c0.3-0.2,0.6-0.3,1-0.4c0.3,0,0.8-0.2,1.4-0.2c1.2-0.1,2.1-0.3,2.5-0.4
		c0-0.2,0-0.3,0-0.4c0-0.6-0.2-1.1-0.5-1.2c-0.3-0.3-0.9-0.4-1.7-0.4c-0.8,0-1.2,0.2-1.5,0.3s-0.6,0.6-0.8,1.2l-1.3-0.1
		c0.1-0.6,0.3-1.1,0.6-1.5c0.3-0.3,0.8-0.6,1.4-0.9c0.6-0.1,1.2-0.3,2-0.3s1.3,0.2,1.8,0.3c0.5,0.2,0.8,0.4,1,0.6
		c0.1,0.3,0.3,0.6,0.5,1c0,0.3,0,0.8,0,1.4v1.9c0,1.4,0,2.3,0.1,2.6c0.2,0.3,0.2,0.8,0.3,1h-1.5C162.1,94,162,93.6,162,93.3z
		 M161.8,90c-0.6,0.2-1.4,0.4-2.4,0.6c-0.6,0.1-1,0.1-1.2,0.3c-0.3,0.2-0.5,0.3-0.6,0.5c-0.2,0.1-0.2,0.4-0.2,0.8s0.2,0.8,0.5,0.9
		c0.3,0.2,0.8,0.4,1.4,0.4c0.6,0,1-0.1,1.5-0.3c0.5-0.3,0.8-0.6,0.9-1.1c0.2-0.3,0.3-0.8,0.3-1.5L161.8,90L161.8,90z"/>
	<path class="st4" d="M168.7,93l0.2,1.3c-0.5,0.1-0.8,0.1-1,0.1c-0.6,0-0.9-0.1-1.2-0.3c-0.3-0.1-0.5-0.5-0.6-0.6
		c-0.2-0.1-0.2-0.8-0.2-1.6V87h-1v-1.2h1v-2.1l1.5-0.9v3h1.5V87h-1.5v4.9c0,0.5,0,0.8,0.1,0.8c0,0.2,0.2,0.2,0.3,0.3
		c0.2,0,0.3,0.2,0.5,0.2C168.3,93.1,168.4,93,168.7,93z"/>
	<path class="st4" d="M175.9,91.5l1.5,0.2c-0.3,0.9-0.6,1.5-1.3,2.1c-0.6,0.5-1.5,0.8-2.4,0.8c-1.2,0-2.3-0.5-3-1.2s-1-1.8-1-3.3
		s0.3-2.5,1-3.3s1.7-1.2,2.9-1.2c1.2,0,2.1,0.5,2.8,1.2c0.7,0.7,1,1.8,1,3.3c0,0.2,0,0.2,0,0.5h-6.3c0,0.9,0.3,1.6,0.8,2.1
		c0.5,0.4,1,0.8,1.8,0.8c0.6,0,1-0.1,1.4-0.4C175.5,92.5,175.8,92.2,175.9,91.5z M171.3,89.2h4.8c0-0.8-0.3-1.2-0.6-1.6
		c-0.5-0.6-1-0.9-1.8-0.9c-0.6,0-1.2,0.2-1.6,0.6C171.6,87.9,171.3,88.5,171.3,89.2z"/>
	<path class="st4" d="M184.8,94.3v-1c-0.6,0.9-1.4,1.2-2.4,1.2c-0.8,0-1.3-0.2-2-0.6c-0.6-0.3-1-0.9-1.3-1.5s-0.5-1.5-0.5-2.3
		c0-0.9,0.1-1.6,0.5-2.3c0.3-0.8,0.8-1.2,1.3-1.6c0.6-0.3,1.2-0.6,2-0.6c0.5,0,0.9,0.2,1.4,0.3s0.8,0.4,1,0.9v-4.2h1.5v11.9h-1.5
		V94.3z M180.3,90c0,1.1,0.3,1.9,0.8,2.4c0.5,0.6,1,0.8,1.6,0.8c0.6,0,1.2-0.3,1.7-0.8S185,91,185,90c0-1.2-0.1-2.1-0.8-2.6
		c-0.6-0.4-1-0.8-1.6-0.8c-0.6,0-1.2,0.3-1.7,0.8C180.4,88,180.3,88.9,180.3,90z"/>
	<path class="st4" d="M293.1,90c0-1.6,0.4-2.7,1.3-3.4c0.8-0.6,1.7-0.9,2.7-0.9c1.2,0,2.1,0.5,2.8,1.2c0.7,0.7,1.1,1.8,1.1,3.1
		c0,1.1-0.2,1.9-0.5,2.6c-0.3,0.6-0.8,1-1.5,1.5c-0.7,0.5-1.3,0.5-2.1,0.5c-1.2,0-2.1-0.5-2.8-1.2C293.5,92.5,293.1,91.5,293.1,90z
		 M294.6,90c0,1.1,0.3,1.9,0.8,2.4c0.4,0.6,1,0.8,1.8,0.8c0.8,0,1.3-0.3,1.8-0.8c0.4-0.6,0.8-1.4,0.8-2.6c0-1.1-0.3-1.8-0.8-2.4
		s-1.1-0.8-1.8-0.8c-0.7,0-1.3,0.3-1.8,0.8C294.8,88.2,294.6,88.9,294.6,90z"/>
	<path class="st4" d="M302.8,94.3v-8.5h1.3V87c0.6-0.9,1.5-1.3,2.7-1.3c0.5,0,1.1,0.1,1.3,0.3c0.5,0.2,0.8,0.5,0.9,0.8
		c0.2,0.3,0.3,0.6,0.5,1.1c0,0.3,0.2,0.8,0.2,1.4v5.2h-1.5v-5.3c0-0.6,0-1.1-0.2-1.4c-0.2-0.3-0.3-0.4-0.6-0.8
		c-0.3-0.3-0.6-0.3-1.1-0.3c-0.6,0-1.2,0.1-1.7,0.6c-0.4,0.4-0.6,1.2-0.6,2.3v4.7L302.8,94.3L302.8,94.3z"/>
	<path class="st4" d="M316.8,94.3V82.5h4.3c0.9,0,1.7,0.1,2.1,0.3c0.6,0.3,0.9,0.6,1.3,1.1c0.3,0.4,0.5,1.1,0.5,1.5
		s-0.2,1.1-0.5,1.3c-0.3,0.3-0.8,0.8-1.2,1.1c0.8,0.2,1.2,0.6,1.7,1.1c0.4,0.4,0.6,1.1,0.6,1.8c0,0.6-0.2,1-0.3,1.5
		c-0.1,0.4-0.4,0.9-0.9,1c-0.3,0.3-0.8,0.5-1.3,0.6c-0.4,0.1-1.2,0.1-1.9,0.1h-4.3L316.8,94.3L316.8,94.3z M318.3,87.4h2.6
		c0.8,0,1.2,0,1.5-0.1c0.4-0.2,0.8-0.3,0.9-0.6c0.2-0.3,0.3-0.6,0.3-1c0-0.5-0.2-0.8-0.3-1.1c-0.1-0.3-0.5-0.4-0.8-0.6
		c-0.3-0.2-0.9-0.1-1.8-0.1h-2.4V87.4z M318.3,93h3c0.5,0,0.9,0,1.1,0c0.3,0,0.6-0.1,0.9-0.3c0.3-0.1,0.4-0.3,0.6-0.6
		c0.1-0.3,0.3-0.6,0.3-1.1s-0.2-0.8-0.3-1.2c-0.3-0.3-0.6-0.6-0.9-0.8c-0.3-0.2-0.9-0.2-1.8-0.2h-2.7L318.3,93L318.3,93z"/>
	<path class="st4" d="M327.6,84.1v-1.6h1.5v1.6H327.6z M327.6,94.3v-8.5h1.5v8.5H327.6z"/>
	<path class="st4" d="M331.2,94.3v-8.5h1.3V87c0.6-0.9,1.5-1.3,2.7-1.3c0.5,0,1,0.1,1.4,0.3c0.4,0.2,0.8,0.5,0.9,0.8
		c0.2,0.3,0.3,0.6,0.5,1.1c0,0.3,0.1,0.8,0.1,1.4v5.2h-1.5v-5.3c0-0.6,0-1.1-0.1-1.4c-0.2-0.3-0.3-0.4-0.6-0.8
		c-0.3-0.3-0.6-0.3-1-0.3c-0.6,0-1.2,0.1-1.6,0.6c-0.5,0.4-0.6,1.2-0.6,2.3v4.7L331.2,94.3L331.2,94.3z"/>
	<path class="st4" d="M340.2,95.1l1.3,0.1c0,0.5,0.2,0.8,0.5,0.9c0.3,0.3,0.9,0.5,1.5,0.5s1.2-0.2,1.5-0.5s0.6-0.6,0.8-1.2
		c0-0.3,0.2-0.9,0.2-1.8c-0.6,0.8-1.4,1.1-2.4,1.1c-1.2,0-2.1-0.5-2.7-1.2c-0.6-0.9-0.9-1.8-0.9-3c0-0.8,0.1-1.5,0.5-2.3
		c0.3-0.8,0.8-1.2,1.3-1.7c0.6-0.3,1.2-0.6,2-0.6c1,0,1.8,0.4,2.5,1.2v-0.9h1.4V93c0,1.4-0.2,2.3-0.5,2.9s-0.8,1-1.4,1.3
		s-1.3,0.5-2.1,0.5c-1,0-1.8-0.3-2.4-0.8C340.5,96.6,340.2,96,340.2,95.1z M341.4,89.8c0,1,0.1,1.9,0.6,2.4s1,0.8,1.7,0.8
		c0.6,0,1.2-0.3,1.6-0.8s0.8-1.3,0.8-2.4s-0.3-1.8-0.8-2.4s-1-0.8-1.6-0.8s-1.2,0.3-1.7,0.8C341.5,88,341.4,88.8,341.4,89.8z"/>
	<path class="st4" d="M356.8,97.8c-0.8-1-1.5-2.3-2.1-3.6c-0.6-1.3-0.9-2.7-0.9-4.2c0-1.3,0.2-2.6,0.6-3.6c0.5-1.4,1.2-2.7,2.3-4.1
		h1c-0.6,1.1-1,1.9-1.3,2.4c-0.3,0.8-0.6,1.5-0.8,2.3c-0.3,1.1-0.3,2-0.3,3c0,2.6,0.8,5.1,2.4,7.8C357.7,97.8,356.8,97.8,356.8,97.8
		z"/>
</g>
<g class="st1">
	<path class="st5" d="M359.4,91.6l1.3-0.1c0.2,0.6,0.3,1.2,0.8,1.3c0.3,0.3,0.8,0.5,1.4,0.5c0.4,0,0.9-0.1,1.2-0.3
		c0.3-0.2,0.6-0.5,0.8-0.8c0.2-0.3,0.5-0.8,0.6-1.4s0.1-1.2,0.1-1.8c0,0,0-0.1,0-0.3c-0.3,0.4-0.8,0.9-1.2,1
		c-0.5,0.2-1.1,0.5-1.7,0.5c-1,0-1.8-0.3-2.5-1.1s-1-1.7-1-2.9c0-1.2,0.3-2.1,1-2.8s1.6-1.1,2.7-1.1c0.8,0,1.5,0.1,2.1,0.6
		c0.6,0.4,1,1,1.5,1.8c0.3,0.8,0.5,1.8,0.5,3.3s-0.2,2.7-0.5,3.6s-0.8,1.5-1.5,2.1c-0.6,0.5-1.3,0.8-2.3,0.8c-0.9,0-1.6-0.3-2.3-0.8
		C359.8,93.4,359.5,92.5,359.4,91.6z M365.4,86.4c0-0.9-0.2-1.5-0.6-1.9s-0.9-0.8-1.6-0.8c-0.6,0-1.2,0.3-1.7,0.8s-0.8,1.2-0.8,2.1
		c0,0.8,0.3,1.3,0.8,1.8s1,0.8,1.7,0.8c0.6,0,1.2-0.3,1.6-0.8C365,87.9,365.4,87.1,365.4,86.4z"/>
	<path class="st5" d="M370.6,87.9c-0.6-0.1-1.1-0.6-1.4-0.9c-0.3-0.4-0.5-0.9-0.5-1.5c0-0.9,0.3-1.7,0.9-2.1s1.5-0.9,2.4-0.9
		c1.1,0,1.8,0.3,2.6,0.9c0.8,0.6,0.9,1.4,0.9,2.3c0,0.6-0.1,1.1-0.5,1.5c-0.3,0.5-0.8,0.8-1.3,0.9c0.8,0.3,1.2,0.6,1.6,1.2
		c0.5,0.6,0.6,1.2,0.6,1.9c0,1.1-0.3,1.8-1,2.5c-0.8,0.8-1.7,1-2.9,1s-2.1-0.3-2.8-1s-1.1-1.5-1.1-2.5c0-0.8,0.2-1.4,0.6-2
		C369.3,88.5,369.9,88,370.6,87.9z M369.9,90.9c0,0.5,0.1,0.8,0.3,1.2c0.1,0.4,0.5,0.8,0.9,0.9c0.5,0.2,0.8,0.3,1.2,0.3
		c0.8,0,1.2-0.2,1.7-0.6c0.4-0.4,0.8-1,0.8-1.6c0-0.8-0.3-1.2-0.8-1.8c-0.5-0.4-1.1-0.8-1.8-0.8s-1.2,0.2-1.6,0.8
		C370,89.7,369.9,90.3,369.9,90.9z M370.3,85.5c0,0.6,0.2,1.1,0.6,1.4c0.3,0.3,0.9,0.6,1.3,0.6c0.6,0,1.1-0.1,1.4-0.6
		c0.3-0.3,0.6-0.8,0.6-1.4s-0.1-1.1-0.6-1.3c-0.3-0.3-0.8-0.6-1.4-0.6s-1,0.2-1.3,0.6C370.5,84.6,370.3,85,370.3,85.5z"/>
	<path class="st5" d="M382.5,94.3v-8.5h1.3v1.3c0.3-0.6,0.6-1,0.9-1.2c0.3-0.1,0.6-0.3,0.9-0.3c0.4,0,1.1,0.2,1.5,0.5l-0.4,1.3
		c-0.3-0.1-0.8-0.3-1.1-0.3s-0.6,0.2-0.9,0.3s-0.4,0.4-0.6,0.8c-0.1,0.4-0.3,1.1-0.3,1.7v4.5h-1.3V94.3z"/>
	<path class="st5" d="M393.9,91.5l1.5,0.2c-0.3,0.9-0.6,1.5-1.3,2.1c-0.6,0.5-1.5,0.8-2.4,0.8c-1.2,0-2.3-0.5-3-1.2
		c-0.8-0.8-1.1-1.8-1.1-3.3s0.3-2.5,1.1-3.3s1.7-1.2,2.9-1.2s2.1,0.5,2.8,1.2s1.1,1.8,1.1,3.3c0,0.2,0,0.2,0,0.5h-6.3
		c0,0.9,0.3,1.6,0.8,2.1c0.4,0.4,1.1,0.8,1.8,0.8c0.6,0,1.1-0.1,1.4-0.4C393.2,92.5,393.5,92.2,393.9,91.5z M389,89.2h4.8
		c0-0.8-0.3-1.2-0.6-1.6c-0.4-0.6-1.1-0.9-1.8-0.9c-0.6,0-1.2,0.2-1.7,0.6C389.3,87.7,389,88.5,389,89.2z"/>
	<path class="st5" d="M399.5,94.3l-3.3-8.6h1.5l1.8,5.1c0.2,0.6,0.4,1.2,0.6,1.6c0.1-0.4,0.3-1.1,0.6-1.6l1.8-5.1h1.5l-3.3,8.5
		L399.5,94.3L399.5,94.3z"/>
	<path class="st5" d="M405.4,84.1v-1.6h1.5v1.6H405.4z M405.4,94.3v-8.5h1.5v8.5H405.4z"/>
	<path class="st5" d="M414.9,91.5l1.5,0.2c-0.3,0.9-0.6,1.5-1.3,2.1c-0.6,0.5-1.5,0.8-2.4,0.8c-1.2,0-2.3-0.5-3-1.2
		c-0.8-0.8-1.1-1.8-1.1-3.3s0.3-2.5,1.1-3.3s1.7-1.2,2.9-1.2s2.1,0.5,2.8,1.2s1.1,1.8,1.1,3.3c0,0.2,0,0.2,0,0.5h-6.3
		c0,0.9,0.3,1.6,0.8,2.1c0.4,0.4,1.1,0.8,1.8,0.8c0.6,0,1.1-0.1,1.4-0.4C414.4,92.5,414.7,92.2,414.9,91.5z M410,89.2h4.8
		c0-0.8-0.3-1.2-0.6-1.6c-0.4-0.6-1.1-0.9-1.8-0.9c-0.6,0-1.2,0.2-1.7,0.6C410.3,87.7,410.2,88.5,410,89.2z"/>
	<path class="st5" d="M419.8,94.3l-2.6-8.6h1.5l1.4,4.9l0.4,1.8c0-0.1,0.1-0.8,0.4-1.8l1.3-4.9h1.5l1.4,4.9l0.4,1.7l0.4-1.7l1.5-4.9
		h1.3l-2.7,8.6h-1.5l-1.3-5.1l-0.3-1.5l-1.8,6.6H419.8z"/>
	<path class="st5" d="M429.4,91.8l1.5-0.3c0.1,0.6,0.3,1.1,0.6,1.4c0.3,0.3,0.9,0.4,1.5,0.4s1.2-0.2,1.5-0.4
		c0.3-0.3,0.4-0.6,0.4-0.9s-0.1-0.6-0.4-0.8c-0.1-0.1-0.8-0.3-1.5-0.4c-1.1-0.3-1.8-0.4-2.3-0.8c-0.4-0.2-0.8-0.4-0.9-0.8
		c-0.2-0.3-0.3-0.8-0.3-1.2c0-0.5,0.1-0.8,0.3-1.1c0.1-0.3,0.4-0.6,0.8-0.8c0.3-0.2,0.6-0.3,0.9-0.4c0.4-0.2,0.8-0.2,1.2-0.2
		c0.6,0,1.2,0.2,1.8,0.3c0.4,0.1,0.9,0.4,1.1,0.8c0.3,0.3,0.4,0.8,0.4,1.3l-1.3,0.2c0-0.4-0.3-0.8-0.6-1.1c-0.3-0.3-0.8-0.3-1.3-0.3
		c-0.6,0-1.2,0.2-1.4,0.3c-0.3,0.2-0.4,0.4-0.4,0.8c0,0.2,0,0.3,0.2,0.4c0.1,0.2,0.3,0.3,0.6,0.5c0.2,0,0.6,0.1,1.4,0.3
		c1.1,0.3,1.8,0.5,2.1,0.6c0.4,0.1,0.8,0.4,0.9,0.8c0.3,0.3,0.3,0.8,0.3,1.2s-0.2,0.9-0.4,1.4c-0.3,0.4-0.8,0.7-1.2,1
		c-0.6,0.3-1.2,0.3-1.8,0.3c-1.1,0-1.9-0.3-2.6-0.8C430,93.3,429.7,92.7,429.4,91.8z"/>
</g>
<g class="st1">
	<path class="st4" d="M439.3,97.8h-1.1c1.7-2.5,2.4-5.1,2.4-7.8c0-1.1-0.2-1.9-0.3-3c-0.2-0.8-0.4-1.6-0.8-2.3
		c-0.2-0.4-0.6-1.3-1.4-2.4h1.1c1.1,1.4,1.8,2.7,2.3,4c0.4,1.2,0.6,2.4,0.6,3.6c0,1.5-0.3,2.8-0.9,4.2
		C440.7,95.5,440,96.7,439.3,97.8z"/>
</g>
<g class="st1">
	<path class="st4" d="M13.2,111v1.6h-1.5v-1.3c0-0.8,0.2-1.2,0.3-1.5c0.1-0.5,0.6-0.8,1-0.9l0.3,0.6c-0.3,0.1-0.5,0.3-0.6,0.6
		c-0.2,0.3-0.2,0.6-0.3,1L13.2,111L13.2,111z M15.7,111v1.6h-1.5v-1.3c0-0.8,0.2-1.2,0.3-1.5c0.3-0.5,0.6-0.8,1-0.9l0.3,0.6
		c-0.3,0.1-0.5,0.3-0.6,0.6c-0.2,0.3-0.2,0.6-0.3,1L15.7,111L15.7,111z"/>
	<path class="st4" d="M17.7,120.7v-11.8h4.4c0.9,0,1.6,0.2,2.1,0.3c0.4,0.2,0.9,0.6,1.3,1c0.3,0.5,0.5,1,0.5,1.5s-0.2,1-0.5,1.4
		c-0.3,0.5-0.8,0.8-1.2,1c0.8,0.1,1.2,0.6,1.6,1c0.5,0.5,0.6,1,0.6,1.8c0,0.6-0.2,1-0.3,1.5c-0.3,0.5-0.4,0.9-0.9,1
		c-0.3,0.3-0.8,0.5-1.3,0.6c-0.4,0.2-1.2,0.2-1.9,0.2h-4.4C17.7,120.2,17.7,120.7,17.7,120.7z M19.3,114h2.5c0.8,0,1.2,0,1.5-0.2
		c0.4-0.1,0.8-0.3,0.9-0.6c0.2-0.3,0.3-0.6,0.3-1c0-0.5-0.2-0.8-0.3-1c-0.1-0.3-0.4-0.5-0.8-0.6c-0.3-0.1-0.9-0.1-1.8-0.1h-2.4
		C19.3,110.4,19.3,114,19.3,114z M19.3,119.4h3c0.5,0,0.9,0,1.1,0c0.3,0,0.6-0.1,0.9-0.3c0.3-0.1,0.5-0.3,0.6-0.6
		c0.1-0.3,0.3-0.6,0.3-1c0-0.5-0.2-0.8-0.3-1.2c-0.3-0.3-0.6-0.6-0.9-0.8c-0.5-0.2-0.9-0.2-1.8-0.2h-2.7v4L19.3,119.4L19.3,119.4z"
		/>
	<path class="st4" d="M34.5,118l1.5,0.1c-0.3,0.9-0.6,1.5-1.3,2.1c-0.6,0.5-1.5,0.8-2.4,0.8c-1.2,0-2.3-0.5-3-1.2s-1.1-1.8-1.1-3.3
		s0.3-2.5,1.1-3.3s1.7-1.2,2.8-1.2c1.2,0,2.1,0.5,2.8,1.2s1.1,1.8,1.1,3.3c0,0.1,0,0.1,0,0.5h-6.3c0,0.9,0.3,1.6,0.8,2.1
		s1.1,0.8,1.8,0.8c0.6,0,1-0.1,1.3-0.5C33.9,119.1,34.2,118.6,34.5,118z M29.7,115.6h4.8c0-0.8-0.3-1.2-0.6-1.6
		c-0.5-0.6-1.1-0.9-1.8-0.9c-0.6,0-1.2,0.2-1.7,0.6C30,114.3,29.7,114.9,29.7,115.6z"/>
	<path class="st4" d="M37.2,118.2l1.5-0.3c0.2,0.6,0.3,1,0.6,1.4c0.3,0.3,0.9,0.5,1.5,0.5s1.2-0.2,1.5-0.5s0.4-0.6,0.4-0.9
		s-0.2-0.6-0.4-0.8c-0.2-0.1-0.8-0.3-1.5-0.5c-1.1-0.3-1.8-0.5-2.3-0.8c-0.5-0.1-0.8-0.5-0.9-0.8s-0.3-0.8-0.3-1.2s0.2-0.8,0.3-1
		s0.4-0.6,0.8-0.8c0.2-0.1,0.6-0.3,0.9-0.5c0.3-0.2,0.8-0.1,1.2-0.1c0.6,0,1.2,0.1,1.8,0.3c0.4,0.1,0.9,0.5,1,0.8
		c0.3,0.3,0.4,0.8,0.4,1.3l-1.4,0.2c0-0.5-0.3-0.8-0.6-1s-0.8-0.3-1.3-0.3s-1.2,0.1-1.3,0.3c-0.3,0.1-0.5,0.5-0.5,0.8
		c0,0.1,0,0.3,0.2,0.5c0.2,0.1,0.3,0.3,0.6,0.5c0.2,0,0.6,0.1,1.3,0.3c1.1,0.3,1.8,0.5,2.1,0.6c0.4,0.2,0.7,0.5,0.9,0.8
		c0.1,0.3,0.3,0.8,0.3,1.2s-0.2,0.9-0.4,1.4c-0.3,0.5-0.8,0.8-1.2,1c-0.5,0.3-1.2,0.3-1.8,0.3c-1,0-1.9-0.3-2.5-0.8
		C37.6,119.8,37.3,119.1,37.2,118.2z"/>
	<path class="st4" d="M49.2,119.5l0.1,1.3c-0.4,0.2-0.8,0.2-1.1,0.2c-0.6,0-0.9-0.2-1.2-0.3c-0.3-0.2-0.4-0.5-0.6-0.6
		s-0.2-0.9-0.2-1.6v-5h-1.1v-1.2h1.1v-2.1l1.5-0.9v3h1.5v1.2h-1.5v5c0,0.5,0,0.8,0.1,0.8c0,0.1,0.1,0.1,0.3,0.3
		c0.1,0,0.3,0.1,0.4,0.1C48.6,119.5,48.9,119.5,49.2,119.5z"/>
	<path class="st4" d="M55.2,124v-11.8h1.4v1c0.3-0.5,0.6-0.8,1.1-1c0.4-0.1,0.9-0.3,1.4-0.3c0.8,0,1.4,0.2,1.9,0.6s1.1,0.9,1.2,1.6
		c0.3,0.8,0.4,1.5,0.4,2.3c0,0.9-0.1,1.7-0.4,2.4s-0.8,1.2-1.4,1.6c-0.6,0.3-1.2,0.6-1.9,0.6c-0.4,0-0.9-0.2-1.4-0.3
		c-0.4-0.2-0.8-0.5-0.9-0.8v4.2L55.2,124L55.2,124z M56.4,116.5c0,1,0.1,2,0.6,2.4c0.4,0.6,1.1,0.8,1.6,0.8c0.6,0,1.2-0.3,1.6-0.8
		c0.4-0.6,0.8-1.3,0.8-2.5c0-1-0.1-2-0.6-2.4c-0.4-0.6-1.1-0.8-1.6-0.8c-0.6,0-1.2,0.3-1.6,0.9C56.7,114.6,56.4,115.5,56.4,116.5z"
		/>
	<path class="st4" d="M64.2,120.7v-8.5h1.4v1.3c0.3-0.6,0.6-1,0.9-1.2c0.3-0.1,0.6-0.3,0.9-0.3c0.4,0,1.1,0.2,1.5,0.5l-0.4,1.4
		c-0.3-0.2-0.8-0.3-1.1-0.3c-0.3,0-0.6,0.1-0.9,0.3c-0.3,0.1-0.4,0.5-0.6,0.8c-0.1,0.5-0.3,1-0.3,1.6v4.5
		C65.5,120.7,64.2,120.7,64.2,120.7z"/>
	<path class="st4" d="M69.7,110.7v-1.6h1.5v1.6H69.7z M69.7,120.7v-8.5h1.5v8.5H69.7z"/>
	<path class="st4" d="M79,117.6l1.4,0.1c-0.1,1-0.6,1.8-1.2,2.3c-0.6,0.6-1.5,0.9-2.4,0.9c-1.2,0-2.1-0.5-2.9-1.2
		c-0.8-0.7-1-1.8-1-3.3c0-0.9,0.1-1.8,0.4-2.4c0.3-0.6,0.8-1.2,1.4-1.5s1.4-0.5,2.1-0.5c0.9,0,1.6,0.3,2.3,0.8s0.9,1.2,1.2,2
		l-1.4,0.1c-0.1-0.6-0.3-1-0.8-1.4c-0.3-0.3-0.8-0.5-1.2-0.5c-0.8,0-1.4,0.3-1.8,0.8s-0.8,1.4-0.8,2.5c0,1.2,0.1,2,0.6,2.5
		s1.1,0.8,1.6,0.8c0.6,0,1.1-0.1,1.4-0.5C78.6,118.9,78.9,118.3,79,117.6z"/>
	<path class="st4" d="M87.4,118l1.5,0.1c-0.3,0.9-0.6,1.5-1.4,2.1c-0.6,0.5-1.5,0.8-2.4,0.8c-1.2,0-2.3-0.5-3-1.2S81,118,81,116.5
		s0.3-2.5,1.1-3.3s1.6-1.2,2.9-1.2c1.2,0,2.1,0.5,2.9,1.2c0.8,0.7,1.1,1.8,1.1,3.3c0,0.1,0,0.1,0,0.5h-6.4c0,0.9,0.3,1.6,0.8,2.1
		s1.1,0.8,1.8,0.8c0.6,0,1.1-0.1,1.4-0.5C87,119.1,87.3,118.6,87.4,118z M82.8,115.6h4.8c0-0.8-0.3-1.2-0.6-1.6
		c-0.4-0.6-1.1-0.9-1.8-0.9c-0.6,0-1.2,0.2-1.6,0.6C83.1,114.3,82.8,114.9,82.8,115.6z"/>
	<path class="st4" d="M90.3,118.2l1.5-0.3c0.1,0.6,0.3,1,0.6,1.4c0.3,0.3,0.9,0.5,1.5,0.5c0.6,0,1.2-0.2,1.5-0.5
		c0.3-0.3,0.5-0.6,0.5-0.9s-0.1-0.6-0.5-0.8c-0.1-0.1-0.8-0.3-1.5-0.5c-1.1-0.3-1.8-0.5-2.3-0.8c-0.4-0.1-0.7-0.5-0.9-0.8
		c-0.2-0.3-0.3-0.8-0.3-1.2s0.1-0.8,0.3-1c0.1-0.3,0.4-0.6,0.7-0.8c0.1-0.1,0.6-0.3,0.9-0.5c0.3-0.2,0.8-0.1,1.2-0.1
		c0.6,0,1.2,0.1,1.8,0.3c0.5,0.1,0.9,0.5,1,0.8c0.3,0.3,0.5,0.8,0.5,1.3l-1.4,0.2c0-0.5-0.3-0.8-0.6-1c-0.3-0.2-0.8-0.3-1.4-0.3
		s-1.2,0.1-1.4,0.3c-0.3,0.1-0.4,0.5-0.4,0.8c0,0.1,0,0.3,0.1,0.5c0.1,0.1,0.3,0.3,0.6,0.5c0.1,0,0.6,0.1,1.4,0.3
		c1.1,0.3,1.8,0.5,2.1,0.6c0.5,0.2,0.8,0.5,0.9,0.8c0.1,0.3,0.3,0.8,0.3,1.2s-0.1,0.9-0.5,1.4c-0.3,0.5-0.8,0.8-1.2,1
		s-1.2,0.3-1.8,0.3c-1.1,0-1.9-0.3-2.6-0.8C90.7,119.8,90.4,119.1,90.3,118.2z"/>
	<path class="st4" d="M109.2,119.7c-0.6,0.5-1,0.8-1.5,0.9s-1,0.3-1.6,0.3c-0.9,0-1.6-0.3-2.1-0.8s-0.8-1-0.8-1.8
		c0-0.5,0.1-0.8,0.3-1.2c0.1-0.3,0.5-0.6,0.8-0.9c0.3-0.1,0.6-0.3,1-0.5c0.3,0,0.8-0.1,1.4-0.1c1.2-0.2,2.1-0.3,2.5-0.5
		c0-0.2,0-0.3,0-0.5c0-0.6-0.1-1-0.5-1.2c-0.3-0.3-0.9-0.5-1.6-0.5s-1.2,0.1-1.5,0.3c-0.3,0.1-0.6,0.6-0.8,1.2l-1.4-0.2
		c0.1-0.6,0.3-1,0.6-1.5c0.3-0.3,0.8-0.6,1.4-0.9c0.6-0.2,1.2-0.3,2-0.3c0.8,0,1.4,0.1,1.8,0.3c0.5,0.1,0.8,0.5,1,0.6
		c0.1,0.3,0.3,0.6,0.5,1c0,0.3,0,0.8,0,1.4v2c0,1.3,0,2.3,0.1,2.5s0.1,0.8,0.3,1h-1.5C109.3,120.4,109.2,120.1,109.2,119.7z
		 M109,116.5c-0.6,0.1-1.4,0.5-2.4,0.6c-0.6,0.2-1.1,0.2-1.2,0.3c-0.3,0.2-0.5,0.3-0.6,0.5s-0.1,0.5-0.1,0.8c0,0.5,0.1,0.8,0.5,0.9
		c0.3,0.1,0.8,0.5,1.4,0.5c0.6,0,1-0.2,1.5-0.3c0.5-0.3,0.8-0.6,0.9-1c0.1-0.3,0.3-0.8,0.3-1.5L109,116.5L109,116.5z"/>
	<path class="st4" d="M112.8,120.7v-8.5h1.4v1.2c0.6-0.9,1.5-1.4,2.7-1.4c0.5,0,1,0.2,1.4,0.3c0.5,0.2,0.8,0.5,0.9,0.8
		c0.1,0.3,0.3,0.6,0.5,1c0,0.3,0.1,0.8,0.1,1.4v5.3h-1.5v-5.3c0-0.6,0-1-0.1-1.4c-0.1-0.3-0.3-0.5-0.6-0.8c-0.3-0.3-0.6-0.3-1-0.3
		c-0.6,0-1.2,0.2-1.6,0.6c-0.5,0.5-0.6,1.2-0.6,2.3v4.6L112.8,120.7L112.8,120.7z"/>
	<path class="st4" d="M121.9,124l-0.1-1.4c0.3,0.2,0.6,0.2,0.9,0.2s0.6,0,0.8-0.2c0.1-0.1,0.3-0.3,0.5-0.5c0.1-0.1,0.3-0.5,0.5-1
		c0-0.1,0-0.1,0.1-0.3l-3.3-8.5h1.5l1.8,5c0.3,0.6,0.5,1.4,0.6,2c0.1-0.6,0.3-1.3,0.6-2l1.8-5h1.5l-3.3,8.7c-0.3,0.9-0.6,1.7-0.8,2
		c-0.3,0.5-0.6,0.9-0.9,1c-0.3,0.2-0.8,0.3-1.2,0.3C122.5,124.2,122.2,124.2,121.9,124z"/>
	<path class="st4" d="M131.7,120.7l-2.5-8.5h1.5l1.4,5l0.5,1.8c0-0.2,0.1-0.8,0.5-1.8l1.4-5h1.5l1.4,5l0.5,1.6l0.5-1.6l1.5-5h1.3
		l-2.7,8.5H137l-1.4-5.1l-0.3-1.5l-1.8,6.6H131.7z"/>
	<path class="st4" d="M142,120.7v-11.8h1.5v4.2c0.8-0.8,1.5-1.2,2.5-1.2c0.6,0,1.2,0.2,1.6,0.3c0.4,0.2,0.8,0.6,1,1
		c0.2,0.5,0.3,1,0.3,2v5.4h-1.5v-5.4c0-0.8-0.1-1.2-0.5-1.6c-0.3-0.3-0.8-0.5-1.3-0.5s-0.9,0.1-1.2,0.3c-0.3,0.1-0.6,0.5-0.8,0.9
		c-0.2,0.4-0.3,0.9-0.3,1.7v4.6h-1.5L142,120.7L142,120.7z"/>
	<path class="st4" d="M157,118l1.5,0.1c-0.3,0.9-0.6,1.5-1.4,2.1c-0.6,0.5-1.5,0.8-2.4,0.8c-1.2,0-2.3-0.5-3-1.2s-1-1.8-1-3.3
		s0.3-2.5,1-3.3s1.6-1.2,2.8-1.2c1.2,0,2.1,0.5,2.9,1.2s1,1.8,1,3.3c0,0.1,0,0.1,0,0.5h-6.3c0,0.9,0.3,1.6,0.8,2.1s1,0.8,1.8,0.8
		c0.6,0,1-0.1,1.3-0.5C156.6,119.1,156.9,118.6,157,118z M152.4,115.6h4.8c0-0.8-0.3-1.2-0.6-1.6c-0.5-0.6-1-0.9-1.8-0.9
		c-0.6,0-1.2,0.2-1.6,0.6C152.7,114.3,152.4,114.9,152.4,115.6z"/>
	<path class="st4" d="M160.3,120.7v-8.5h1.3v1.3c0.3-0.6,0.6-1,0.9-1.2c0.3-0.1,0.6-0.3,0.9-0.3c0.5,0,1,0.2,1.5,0.5l-0.5,1.4
		c-0.3-0.2-0.8-0.3-1-0.3s-0.6,0.1-0.9,0.3c-0.3,0.1-0.5,0.5-0.6,0.8c-0.1,0.5-0.3,1-0.3,1.6v4.5
		C161.7,120.7,160.3,120.7,160.3,120.7z"/>
	<path class="st4" d="M171.7,118l1.5,0.1c-0.3,0.9-0.6,1.5-1.3,2.1c-0.6,0.5-1.5,0.8-2.4,0.8c-1.2,0-2.3-0.5-3-1.2s-1-1.8-1-3.3
		s0.3-2.5,1-3.3s1.7-1.2,2.9-1.2c1.2,0,2.1,0.5,2.8,1.2c0.7,0.7,1,1.8,1,3.3c0,0.1,0,0.1,0,0.5h-6.3c0,0.9,0.3,1.6,0.8,2.1
		s1,0.8,1.8,0.8c0.6,0,1-0.1,1.4-0.5C171.1,119.1,171.4,118.6,171.7,118z M166.9,115.6h4.8c0-0.8-0.3-1.2-0.6-1.6
		c-0.5-0.6-1-0.9-1.8-0.9c-0.6,0-1.2,0.2-1.7,0.6C167.2,114.3,167.1,114.9,166.9,115.6z"/>
	<path class="st4" d="M175.8,117.9l-0.5-6.3v-2.5h1.8v2.5l-0.5,6.3H175.8z M175.5,120.7V119h1.7v1.7H175.5z"/>
	<path class="st4" d="M179.2,110.5v-1.6h1.5v1.4c0,0.8-0.1,1.2-0.3,1.5c-0.3,0.5-0.6,0.8-1,1l-0.3-0.6c0.3-0.1,0.5-0.3,0.6-0.6
		c0.1-0.3,0.1-0.6,0.3-1h-0.8C179.2,110.6,179.2,110.5,179.2,110.5z M181.8,110.5v-1.6h1.5v1.4c0,0.8-0.2,1.2-0.3,1.5
		c-0.3,0.5-0.6,0.8-1,1l-0.3-0.6c0.3-0.1,0.5-0.3,0.6-0.6c0.2-0.3,0.2-0.6,0.3-1h-0.8C181.8,110.6,181.8,110.5,181.8,110.5z"/>
	<path class="st4" d="M189.1,117.3v-1.5h4.5v1.5H189.1z"/>
	<path class="st4" d="M200.1,120.7v-7.4h-1.3v-1.2h1.3v-0.9c0-0.6,0-1,0.2-1.4c0.2-0.3,0.5-0.8,0.8-0.9c0.3-0.3,0.9-0.3,1.5-0.3
		c0.4,0,0.9,0,1.3,0.1l-0.2,1.2c-0.3,0-0.6-0.1-0.9-0.1c-0.5,0-0.8,0.1-0.9,0.3c-0.2,0.1-0.3,0.6-0.3,1v0.8h1.7v1.2h-1.7v7.3
		L200.1,120.7L200.1,120.7z"/>
	<path class="st4" d="M204.3,120.7v-8.5h1.3v1.3c0.3-0.6,0.6-1,0.9-1.2c0.3-0.1,0.6-0.3,0.9-0.3c0.5,0,1.1,0.2,1.5,0.5l-0.4,1.4
		c-0.3-0.2-0.8-0.3-1.1-0.3s-0.6,0.1-0.9,0.3c-0.3,0.1-0.4,0.5-0.6,0.8c-0.2,0.5-0.3,1-0.3,1.6v4.5
		C205.6,120.7,204.3,120.7,204.3,120.7z"/>
	<path class="st4" d="M209.2,116.5c0-1.7,0.4-2.7,1.3-3.5c0.8-0.6,1.7-0.9,2.7-0.9c1.2,0,2.1,0.5,2.8,1.2s1.1,1.8,1.1,3.2
		c0,1-0.2,2-0.5,2.5c-0.3,0.6-0.8,1-1.5,1.5s-1.3,0.5-2.1,0.5c-1.2,0-2.1-0.5-2.8-1.2C209.7,119.1,209.2,117.9,209.2,116.5z
		 M210.7,116.5c0,1,0.3,2,0.8,2.4c0.4,0.6,1,0.8,1.8,0.8s1.3-0.3,1.8-0.8c0.4-0.6,0.8-1.3,0.8-2.5c0-1-0.3-1.8-0.8-2.4
		s-1.1-0.8-1.8-0.8s-1.3,0.3-1.8,0.8C211,114.6,210.7,115.3,210.7,116.5z"/>
	<path class="st4" d="M219,120.7v-8.5h1.3v1.2c0.3-0.5,0.6-0.8,1-1c0.5-0.3,0.9-0.5,1.5-0.5s1.2,0.1,1.5,0.5c0.3,0.3,0.8,0.6,0.9,1
		c0.8-1,1.5-1.5,2.7-1.5c0.9,0,1.5,0.3,1.9,0.8c0.5,0.5,0.8,1.2,0.8,2.1v5.9h-1.5v-5.4c0-0.6,0-1-0.2-1.2c-0.2-0.3-0.3-0.5-0.4-0.6
		c-0.3-0.2-0.6-0.3-0.9-0.3c-0.6,0-1.1,0.1-1.5,0.6c-0.5,0.5-0.6,1-0.6,2v5H224v-5.5c0-0.6-0.2-1.2-0.3-1.5
		c-0.3-0.3-0.6-0.5-1.2-0.5c-0.5,0-0.8,0.2-1.2,0.3c-0.4,0.2-0.6,0.6-0.8,0.9s-0.3,1-0.3,1.8v4.5L219,120.7L219,120.7z"/>
	<path class="st4" d="M242.8,117.6l1.3,0.1c-0.2,1-0.6,1.8-1.2,2.3c-0.6,0.6-1.5,0.9-2.4,0.9c-1.2,0-2.1-0.5-2.8-1.2s-1-1.8-1-3.3
		c0-0.9,0.2-1.8,0.4-2.4c0.3-0.8,0.8-1.2,1.3-1.5s1.3-0.5,2.1-0.5c0.9,0,1.7,0.3,2.3,0.8s0.9,1.2,1.2,2l-1.3,0.2
		c-0.2-0.6-0.3-1-0.8-1.4c-0.3-0.3-0.8-0.5-1.2-0.5c-0.8,0-1.3,0.3-1.8,0.8s-0.8,1.4-0.8,2.5c0,1.2,0.2,2,0.6,2.5s1,0.8,1.7,0.8
		c0.6,0,1-0.1,1.3-0.5C242.5,118.9,242.7,118.3,242.8,117.6z"/>
	<path class="st4" d="M244.9,116.5c0-1.7,0.4-2.7,1.3-3.5c0.8-0.6,1.7-0.9,2.7-0.9c1.2,0,2.1,0.5,2.8,1.2s1.1,1.8,1.1,3.2
		c0,1-0.2,2-0.5,2.5c-0.3,0.6-0.8,1-1.5,1.5s-1.3,0.5-2.1,0.5c-1.2,0-2.1-0.5-2.8-1.2C245.3,119.1,244.9,117.9,244.9,116.5z
		 M246.4,116.5c0,1,0.3,2,0.8,2.4c0.4,0.6,1,0.8,1.8,0.8s1.3-0.3,1.8-0.8c0.4-0.6,0.8-1.3,0.8-2.5c0-1-0.3-1.8-0.8-2.4
		s-1.1-0.8-1.8-0.8s-1.3,0.3-1.8,0.8C246.7,114.6,246.4,115.3,246.4,116.5z"/>
	<path class="st4" d="M254.7,120.7v-8.5h1.3v1.2c0.6-0.9,1.5-1.4,2.7-1.4c0.5,0,1.1,0.2,1.3,0.3c0.5,0.2,0.8,0.5,0.9,0.8
		c0.1,0.3,0.3,0.6,0.5,1c0,0.3,0.2,0.8,0.2,1.4v5.3h-1.5v-5.3c0-0.6,0-1-0.2-1.4c-0.2-0.3-0.3-0.5-0.6-0.8c-0.3-0.3-0.6-0.3-1.1-0.3
		c-0.6,0-1.2,0.2-1.7,0.6c-0.4,0.5-0.6,1.2-0.6,2.3v4.6L254.7,120.7L254.7,120.7z"/>
	<path class="st4" d="M263.2,118.2l1.5-0.3c0.2,0.6,0.3,1,0.6,1.4c0.3,0.3,0.9,0.5,1.5,0.5s1.2-0.2,1.5-0.5c0.3-0.3,0.4-0.6,0.4-0.9
		s-0.2-0.6-0.4-0.8c-0.2-0.1-0.8-0.3-1.5-0.5c-1.1-0.3-1.8-0.5-2.3-0.8c-0.5-0.1-0.8-0.5-0.9-0.8c-0.1-0.3-0.3-0.8-0.3-1.2
		s0.2-0.8,0.3-1c0.2-0.3,0.4-0.6,0.8-0.8c0.2-0.1,0.6-0.3,0.9-0.5c0.4-0.1,0.8-0.1,1.2-0.1c0.6,0,1.2,0.1,1.8,0.3
		c0.4,0.1,0.9,0.5,1,0.8s0.5,0.8,0.5,1.3l-1.3,0.2c0-0.5-0.3-0.8-0.6-1c-0.3-0.3-0.8-0.3-1.3-0.3s-1.2,0.1-1.3,0.3
		c-0.3,0.1-0.5,0.5-0.5,0.8c0,0.1,0,0.3,0.2,0.5c0.2,0.1,0.3,0.3,0.6,0.5c0.2,0,0.6,0.1,1.3,0.3c1.1,0.3,1.8,0.5,2.1,0.6
		c0.3,0.2,0.8,0.5,0.9,0.8c0.3,0.3,0.3,0.8,0.3,1.2s-0.2,0.9-0.5,1.4c-0.3,0.5-0.8,0.8-1.2,1c-0.6,0.3-1.2,0.3-1.8,0.3
		c-1,0-1.9-0.3-2.5-0.8C263.7,119.8,263.3,119.1,263.2,118.2z"/>
	<path class="st4" d="M277.6,120.7v-1.2c-0.6,0.9-1.5,1.5-2.7,1.5c-0.5,0-0.9-0.2-1.3-0.3c-0.5-0.2-0.8-0.5-0.9-0.8
		c-0.1-0.3-0.3-0.6-0.5-1c0-0.3-0.2-0.8-0.2-1.4v-5.3h1.5v4.8c0,0.8,0,1.2,0.2,1.5c0.2,0.5,0.3,0.8,0.6,0.9c0.3,0.1,0.6,0.3,1.1,0.3
		c0.4,0,0.9-0.2,1.2-0.3c0.3-0.2,0.6-0.6,0.8-0.9c0.2-0.5,0.3-0.9,0.3-1.6v-4.5h1.5v8.5h-1.5L277.6,120.7L277.6,120.7z"/>
	<path class="st4" d="M281.2,120.7v-8.5h1.3v1.2c0.3-0.5,0.6-0.8,1-1c0.5-0.3,0.9-0.5,1.5-0.5s1.2,0.1,1.5,0.5
		c0.5,0.3,0.8,0.6,0.9,1c0.8-1,1.5-1.5,2.7-1.5c0.9,0,1.5,0.3,1.9,0.8c0.5,0.5,0.8,1.2,0.8,2.1v5.9h-1.5v-5.4c0-0.6,0-1-0.2-1.2
		c-0.2-0.3-0.3-0.5-0.4-0.6c-0.3-0.2-0.6-0.3-0.9-0.3c-0.6,0-1.1,0.1-1.5,0.6c-0.5,0.5-0.6,1-0.6,2v5h-1.5v-5.5
		c0-0.6-0.2-1.2-0.3-1.5c-0.3-0.3-0.6-0.5-1.2-0.5c-0.5,0-0.8,0.2-1.2,0.3c-0.4,0.2-0.6,0.6-0.8,0.9c-0.2,0.3-0.3,1-0.3,1.8v4.5
		L281.2,120.7L281.2,120.7z"/>
	<path class="st4" d="M300.7,118l1.5,0.1c-0.3,0.9-0.6,1.5-1.3,2.1c-0.6,0.5-1.5,0.8-2.4,0.8c-1.2,0-2.3-0.5-3-1.2
		c-0.7-0.7-1.1-1.8-1.1-3.3s0.3-2.5,1.1-3.3c0.8-0.8,1.7-1.2,2.8-1.2c1.2,0,2.1,0.5,2.8,1.2c0.7,0.7,1,1.8,1,3.3c0,0.1,0,0.1,0,0.5
		h-6.2c0,0.9,0.3,1.6,0.8,2.1c0.4,0.5,1,0.8,1.8,0.8c0.6,0,1.1-0.1,1.3-0.5C300.3,119.1,300.6,118.6,300.7,118z M296.1,115.6h4.8
		c0-0.8-0.3-1.2-0.6-1.6c-0.4-0.6-1-0.9-1.8-0.9c-0.6,0-1.2,0.2-1.7,0.6S296.1,114.9,296.1,115.6z"/>
	<path class="st4" d="M304,120.7v-8.5h1.3v1.3c0.3-0.6,0.6-1,0.9-1.2c0.3-0.1,0.6-0.3,0.9-0.3c0.5,0,1.1,0.2,1.5,0.5l-0.4,1.4
		c-0.3-0.2-0.8-0.3-1.1-0.3c-0.3,0-0.6,0.1-0.9,0.3c-0.3,0.1-0.4,0.5-0.6,0.8c-0.2,0.5-0.3,1-0.3,1.6v4.5
		C305.3,120.7,304,120.7,304,120.7z"/>
	<path class="st4" d="M314.1,120.7v-8.5h1.3v1.3c0.3-0.6,0.6-1,0.9-1.2c0.3-0.1,0.6-0.3,0.9-0.3c0.4,0,1,0.2,1.5,0.5l-0.5,1.4
		c-0.3-0.2-0.8-0.3-1-0.3c-0.3,0-0.6,0.1-0.9,0.3c-0.3,0.1-0.5,0.5-0.6,0.8c-0.2,0.5-0.3,1-0.3,1.6v4.5
		C315.4,120.7,314.1,120.7,314.1,120.7z"/>
	<path class="st4" d="M325.5,118l1.5,0.1c-0.3,0.9-0.6,1.5-1.3,2.1c-0.6,0.5-1.5,0.8-2.4,0.8c-1.2,0-2.3-0.5-3-1.2
		c-0.7-0.7-1.1-1.8-1.1-3.3s0.3-2.5,1.1-3.3c0.8-0.8,1.7-1.2,2.8-1.2c1.2,0,2.1,0.5,2.8,1.2c0.7,0.7,1,1.8,1,3.3c0,0.1,0,0.1,0,0.5
		h-6.3c0,0.9,0.3,1.6,0.8,2.1c0.4,0.5,1,0.8,1.8,0.8c0.6,0,1.1-0.1,1.3-0.5C324.8,119.1,325.2,118.6,325.5,118z M320.7,115.6h4.8
		c0-0.8-0.3-1.2-0.6-1.6c-0.4-0.6-1-0.9-1.8-0.9c-0.6,0-1.2,0.2-1.7,0.6S320.8,114.9,320.7,115.6z"/>
	<path class="st4" d="M331.2,120.7l-3.3-8.5h1.5l1.8,5.1c0.1,0.6,0.5,1.2,0.6,1.7c0.2-0.5,0.3-1,0.6-1.7l2-5.3h1.5l-3.3,8.5
		L331.2,120.7L331.2,120.7z"/>
	<path class="st4" d="M337,110.7v-1.6h1.5v1.6H337z M337,120.7v-8.5h1.5v8.5H337z"/>
	<path class="st4" d="M346.5,118l1.5,0.1c-0.3,0.9-0.6,1.5-1.4,2.1c-0.6,0.5-1.5,0.8-2.4,0.8c-1.2,0-2.3-0.5-3-1.2s-1-1.8-1-3.3
		s0.3-2.5,1-3.3s1.6-1.2,2.8-1.2c1.2,0,2.1,0.5,2.9,1.2s1,1.8,1,3.3c0,0.1,0,0.1,0,0.5h-6.3c0,0.9,0.3,1.6,0.8,2.1s1,0.8,1.8,0.8
		c0.6,0,1-0.1,1.4-0.5C346,119.1,346.3,118.6,346.5,118z M341.8,115.6h4.8c0-0.8-0.3-1.2-0.6-1.6c-0.5-0.6-1-0.9-1.8-0.9
		c-0.6,0-1.2,0.2-1.7,0.6C342.1,114.1,341.8,114.9,341.8,115.6z"/>
	<path class="st4" d="M351.4,120.7l-2.5-8.5h1.5l1.3,5l0.5,1.8c0-0.2,0.1-0.8,0.5-1.8l1.3-5h1.5l1.4,5l0.4,1.6l0.5-1.6l1.5-5h1.4
		l-2.7,8.5h-1.5l-1.4-5.1l-0.3-1.5l-1.8,6.6H351.4z"/>
</g>
<polygon class="st6" points="204.1,81.9 205.9,86.7 211,87 207.1,90.1 208.3,95.2 204.1,92.4 199.8,95.2 201.1,90.1 197.1,87 
	202.2,86.7 "/>
<polygon class="st6" points="220.8,81.9 222.7,86.7 227.8,87 223.8,90.1 225.1,95.2 220.8,92.4 216.4,95.2 217.8,90.1 213.7,87 
	219,86.7 "/>
<polygon class="st6" points="238,81.9 239.8,86.7 245.1,87 241,90.1 242.3,95.2 238,92.4 233.7,95.2 235,90.1 231,87 236.2,86.7 "/>
<polygon class="st6" points="254.5,81.9 256.3,86.7 261.4,87 257.5,90.1 258.8,95.2 254.5,92.4 250.2,95.2 251.5,90.1 247.5,87 
	252.7,86.7 "/>
<polygon class="st7" points="271,81.9 272.8,86.7 277.9,87 274,90.1 275.2,95.2 271,92.4 266.7,95.2 268,90.1 264,87 269.1,86.7 "/>
<rect x="1.8" y="72.9" class="st8" width="449.7" height="30.3"/>
</svg>
