<?xml version="1.0" encoding="utf-8"?>
<!-- Generator: Adobe Illustrator 24.1.0, SVG Export Plug-In . SVG Version: 6.00 Build 0)  -->
<svg version="1.1" id="Layer_1" xmlns="http://www.w3.org/2000/svg" xmlns:xlink="http://www.w3.org/1999/xlink" x="0px" y="0px"
	 width="122.3px" height="60.4px" viewBox="0 0 122.3 60.4" style="enable-background:new 0 0 122.3 60.4;" xml:space="preserve">
<style type="text/css">
	.st0{fill:#0078D4;}
	.st1{fill:#505050;}
	.st2{fill:#737373;}
</style>
<path class="st0" d="M19.6,29.9v0.7v13.1l14.8,14.8h54.1V31v-1.6V2H34.4L19.6,16.7V29.9z M38.9,29.7c0,1.8-1.4,3.2-3.2,3.2
	s-3.2-1.4-3.2-3.2s1.4-3.2,3.2-3.2S38.9,27.9,38.9,29.7z"/>
<path class="st1" d="M31.1,28.9H0.7c-0.4,0-0.7,0.3-0.7,0.7s0.3,0.7,0.7,0.7h30.4c0.4,2.1,2.2,3.8,4.5,3.8c2.5,0,4.6-2.1,4.6-4.6
	s-2.1-4.6-4.6-4.6C33.3,25.2,31.5,26.8,31.1,28.9z M38.7,29.7c0,1.7-1.4,3.1-3.1,3.1s-3.1-1.4-3.1-3.1s1.4-3.1,3.1-3.1
	C37.3,26.7,38.7,28,38.7,29.7z"/>
<path class="st1" d="M33.3,0.3L18,15.6c-0.1,0.1-0.3,0.4-0.3,0.7v13.6v0.6v13.6c0,0.3,0.1,0.5,0.3,0.7l15.4,15.4
	c0.1,0.1,0.4,0.3,0.7,0.3h55.5c0.5,0,1-0.4,1-1V31v-1.6V1c0-0.5-0.4-1-1-1H34C33.7,0,33.5,0.1,33.3,0.3z M88.5,2v27.5v1.6v27.5H34.4
	L19.6,43.7V30.6v-0.7V16.7L34.4,2H88.5z"/>
<g>
	<path class="st2" d="M90.4,29.7V18.6c1.8,1.7,3.7,3.7,5.5,5.6L90.4,29.7z"/>
	<path class="st2" d="M111.3,50.6c3,0,5.4-2.4,5.4-5.4s-2.4-5.4-5.4-5.4s-5.4,2.4-5.4,5.4C105.9,48.1,108.3,50.6,111.3,50.6z
		 M121.7,45.1c0,5.7-4.6,10.4-10.4,10.4c-5.7,0-10.4-4.6-10.4-10.4c0-1.5,0.3-2.9,0.9-4.2l-6-6c1.2-1.2,2.3-2.4,3.3-3.6
		c0.3-0.3,0.6-0.6,0.8-0.9c0.3-0.3,0.5-0.6,0.8-0.9l0.1-0.1c2.8,3.1,5,5.6,5.7,6.4c1.4-0.7,3-1.1,4.7-1.1
		C117,34.8,121.7,39.4,121.7,45.1z"/>
	<path class="st2" d="M100.9,13.9c0-5.7,4.6-10.4,10.4-10.4c5.7,0,10.4,4.6,10.4,10.4c0,5.7-4.6,10.4-10.4,10.4
		c-1.7,0-3.3-0.4-4.7-1.1c-0.7,0.8-2.9,3.3-5.7,6.4l-0.1,0.1c-0.3,0.3-0.5,0.6-0.8,0.9c-0.3,0.3-0.5,0.6-0.8,0.9
		c-1.1,1.2-2.2,2.3-3.3,3.6c-1.9,2-3.8,3.9-5.7,5.7c-2.7,2.6-5.2,4.7-7,5.9c-3.3,2-14.5,4.9-14.5,4.9l21.7-21.7l5.5-5.5l6-6
		C101.3,16.9,100.9,15.4,100.9,13.9z M111.3,8.5c-3,0-5.4,2.4-5.4,5.4s2.4,5.4,5.4,5.4s5.4-2.4,5.4-5.4S114.3,8.5,111.3,8.5z
		 M95.5,30.1c-0.3-0.3-0.7-0.3-0.9,0c-0.3,0.3-0.3,0.7,0,0.9c0.3,0.3,0.7,0.3,0.9,0C95.8,30.8,95.8,30.4,95.5,30.1z"/>
	<path class="st1" d="M96.4,30.6c0,0.4-0.2,0.9-0.5,1.2c-0.3,0.3-0.7,0.5-1.2,0.5s-0.9-0.2-1.2-0.5c-0.6-0.6-0.6-1.7,0-2.3
		c0.3-0.3,0.7-0.5,1.2-0.5s0.9,0.2,1.2,0.5C96.2,29.7,96.4,30.1,96.4,30.6z M94.4,30.6c0,0.1,0,0.2,0.1,0.2c0.1,0.1,0.2,0.1,0.2,0.1
		c0.1,0,0.2,0,0.2-0.1c0.1-0.1,0.1-0.4,0-0.5s-0.2-0.1-0.2-0.1c-0.1,0-0.2,0-0.2,0.1C94.4,30.4,94.4,30.5,94.4,30.6z"/>
	<path class="st1" d="M122.3,13.9c0,6.3-5.1,11.4-11.4,11.4c-1.5,0-3.1-0.3-4.5-0.9c-0.9,1-2.8,3.2-5.2,5.8l0,0
		c-0.4,0.4-1,0.5-1.4,0.1c-0.4-0.3-0.5-0.9-0.2-1.4l0.1-0.1c0,0,0,0,0-0.1c3-3.3,5.2-5.9,5.7-6.4c0.3-0.3,0.8-0.4,1.2-0.2
		c1.3,0.7,2.8,1,4.3,1c5.2,0,9.4-4.2,9.4-9.4s-4.2-9.4-9.4-9.4s-9.4,4.2-9.4,9.4c0,1.3,0.3,2.6,0.8,3.8c0.2,0.4,0.1,0.8-0.2,1.1
		L71.6,49.1c3.5-1,8.7-2.6,10.7-3.8c1.6-1,3.9-2.9,6.9-5.7c1.7-1.6,3.6-3.5,5.6-5.7c0.4-0.4,1-0.4,1.4,0s0.4,1,0,1.4
		c-2.1,2.2-4,4.1-5.7,5.7c-3.1,2.9-5.4,4.9-7.2,6C80,49.1,69,51.9,68.5,52c-0.4,0.1-0.9-0.1-1.1-0.5s-0.2-0.9,0.2-1.2l32.7-32.7
		c-0.5-1.3-0.7-2.6-0.7-4c0-6.3,5.1-11.4,11.4-11.4C117.2,2.6,122.3,7.7,122.3,13.9z"/>
	<path class="st1" d="M100.7,30.5c0,0.2-0.1,0.5-0.3,0.7c-0.3,0.3-0.5,0.6-0.8,0.9c-0.4,0.4-1,0.4-1.4,0.1c-0.4-0.4-0.4-1-0.1-1.4
		l0,0c0.3-0.3,0.5-0.6,0.8-0.8c0.4-0.4,1-0.4,1.4-0.1C100.6,29.9,100.7,30.2,100.7,30.5z"/>
	<path class="st1" d="M117.4,13.9c0,3.6-2.9,6.4-6.4,6.4c-3.6,0-6.4-2.9-6.4-6.4s2.9-6.4,6.4-6.4C114.5,7.5,117.4,10.4,117.4,13.9z
		 M106.5,13.9c0,2.5,2,4.5,4.5,4.5s4.4-2,4.4-4.5s-2-4.4-4.4-4.4C108.5,9.5,106.5,11.5,106.5,13.9z"/>
	<path class="st1" d="M122.3,45.1c0,6.3-5.1,11.4-11.4,11.4c-6.3,0-11.4-5.1-11.4-11.4c0-1.4,0.2-2.7,0.7-4l-5.5-5.5
		c-0.4-0.4-0.4-1,0-1.4c1.2-1.2,2.3-2.4,3.3-3.5c0.3-0.3,0.6-0.6,0.8-0.9l0.8-0.8l0.1-0.1c0.2-0.2,0.5-0.3,0.7-0.3
		c0.3,0,0.5,0.1,0.7,0.3c2.3,2.6,4.2,4.7,5.2,5.8c1.4-0.6,2.9-0.9,4.5-0.9C117.2,33.8,122.3,38.9,122.3,45.1z M101.6,45.1
		c0,5.2,4.2,9.4,9.4,9.4s9.4-4.2,9.4-9.4s-4.2-9.4-9.4-9.4c-1.5,0-3,0.4-4.3,1c-0.4,0.2-0.9,0.1-1.2-0.2c-0.6-0.6-2.4-2.8-4.9-5.6
		l-0.1,0.2c-0.3,0.3-0.5,0.6-0.8,0.9c-0.8,0.9-1.7,1.9-2.7,2.8l5.3,5.3c0.3,0.3,0.4,0.7,0.2,1.1C101.9,42.5,101.6,43.8,101.6,45.1z"
		/>
	<path class="st1" d="M117.4,45.1c0,3.6-2.9,6.4-6.4,6.4c-3.6,0-6.4-2.9-6.4-6.4s2.9-6.4,6.4-6.4C114.5,38.7,117.4,41.6,117.4,45.1z
		 M106.5,45.1c0,2.5,2,4.5,4.5,4.5s4.4-2,4.4-4.5s-2-4.4-4.4-4.4C108.5,40.7,106.5,42.7,106.5,45.1z"/>
	<path class="st1" d="M96.6,24.1c0,0.3-0.1,0.5-0.3,0.7c-0.4,0.4-1,0.4-1.4,0c-2-2.1-3.8-3.9-5.5-5.5c-0.4-0.4-0.4-1,0-1.4
		s1-0.4,1.4,0c1.7,1.6,3.6,3.5,5.6,5.6C96.5,23.6,96.6,23.9,96.6,24.1z"/>
</g>
</svg>
