<?xml version="1.0" encoding="utf-8"?>
<!-- Generator: Adobe Illustrator 20.1.0, SVG Export Plug-In . SVG Version: 6.00 Build 0)  -->
<svg version="1.1" id="Layer_1" xmlns="http://www.w3.org/2000/svg" xmlns:xlink="http://www.w3.org/1999/xlink" x="0px" y="0px"
	 width="523px" height="469.9px" viewBox="0 0 523 469.9" style="enable-background:new 0 0 523 469.9;" xml:space="preserve">
<style type="text/css">
	.st0{fill:#FFFFFF;stroke:#EC008C;stroke-miterlimit:10;}
	.st1{fill:#FFFFFF;stroke:#A3A3A3;stroke-miterlimit:10;}
	.st2{fill:#FFFFFF;stroke:#B4009E;stroke-miterlimit:10;}
	.st3{fill:#EC008C;}
	.st4{fill:#FFFFFF;}
	.st5{fill:#D10086;}
	.st6{fill:#FFFFFF;stroke:#CCCCCC;stroke-miterlimit:10;}
	.st7{fill:none;stroke:#737373;stroke-miterlimit:10;stroke-dasharray:2,2;}
	.st8{fill:#737373;}
	.st9{fill:none;}
	.st10{fill:#505050;}
	.st11{font-family:'SegoePro';}
	.st12{font-size:16px;}
	.st13{fill:#F2F2F2;}
	.st14{font-size:12px;}
	.st15{font-family:'SegoeProBlack';}
	.st16{font-size:14px;}
	.st17{font-family:'SegoePro-Bold';}
	.st18{fill:#AA278F;}
	.st19{fill:#872174;}
	.st20{font-size:13px;}
	.st21{font-family:'SegoePro-Italic';}
</style>
<rect x="22.5" y="106.4" class="st0" width="199" height="251"/>
<rect x="354.5" y="108.4" class="st1" width="157" height="79"/>
<rect x="354.5" y="216.4" class="st1" width="157" height="79"/>
<rect x="41.5" y="241.4" class="st2" width="161" height="100"/>
<rect x="51.5" y="427.4" class="st0" width="199" height="37"/>
<rect x="37.5" y="410.4" class="st0" width="199" height="37"/>
<g>
	<rect x="-362" y="338.9" class="st3" width="179" height="29"/>
	<text transform="matrix(1 0 0 1 -354.5005 357.934)" class="st4 st15 st16">[any campaign]</text>
	<polygon class="st5" points="-362,367.9 -349,376.3 -349,367.9 	"/>
</g>
<rect x="9" y="25.7" class="st6" width="506" height="56"/>
<g>
	<g>
		<line class="st7" x1="355" y1="147.4" x2="228" y2="147.4"/>
		<g>
			<path class="st8" d="M222,147.4c2.8-1.1,6.4-2.9,8.5-4.8l-1.7,4.8l1.7,4.8C228.4,150.3,224.8,148.5,222,147.4z"/>
		</g>
	</g>
</g>
<g>
	<g>
		<polyline class="st7" points="355,255.4 294.5,255.4 294.5,169.4 227,169.4 		"/>
		<g>
			<path class="st8" d="M221,169.4c2.8-1.1,6.4-2.9,8.5-4.8l-1.7,4.8l1.7,4.8C227.4,172.3,223.8,170.5,221,169.4z"/>
		</g>
	</g>
</g>
<rect x="9.6" class="st9" width="253" height="14"/>
<text transform="matrix(1 0 0 1 11.681 11.8398)" class="st10 st11 st12">Two ways to add negative keywords</text>
<rect x="365" y="139.9" class="st13" width="136.6" height="38"/>
<g>
	<rect x="365" y="119.3" class="st9" width="133.6" height="39.6"/>
	<text transform="matrix(1 0 0 1 370.4981 128.1992)" class="st10 st11 st14">Negative keyword list A</text>
</g>
<rect x="374.7" y="145.2" class="st9" width="38.2" height="37"/>
<text transform="matrix(1 0 0 1 374.6608 154.1229)"><tspan x="0" y="0" class="st10 st11 st14">brake</tspan><tspan x="0" y="17.4" class="st10 st11 st14">snow</tspan></text>
<rect x="419.8" y="144.9" class="st9" width="38.2" height="37"/>
<text transform="matrix(1 0 0 1 419.8333 153.8135)"><tspan x="0" y="0" class="st10 st11 st14">repair</tspan><tspan x="0" y="17.4" class="st10 st11 st14">horse</tspan></text>
<rect x="463.8" y="144.9" class="st9" width="38.2" height="37"/>
<text transform="matrix(1 0 0 1 463.8334 153.8135)"><tspan x="0" y="0" class="st10 st11 st14">wax</tspan><tspan x="0" y="17.4" class="st10 st11 st14">odor</tspan></text>
<rect x="365" y="247.9" class="st13" width="136.6" height="38"/>
<g>
	<rect x="365" y="227.3" class="st9" width="134.6" height="39.6"/>
	<text transform="matrix(1 0 0 1 371.4288 236.1992)" class="st10 st11 st14">Negative keyword list B</text>
</g>
<rect x="371.7" y="252.2" class="st9" width="38.2" height="77.3"/>
<text transform="matrix(1 0 0 1 371.6608 261.1229)"><tspan x="0" y="0" class="st10 st11 st14">pain</tspan><tspan x="0" y="17.4" class="st10 st11 st14">legal</tspan></text>
<rect x="409.8" y="252.9" class="st9" width="38.2" height="64.7"/>
<text transform="matrix(1 0 0 1 409.8333 261.8135)"><tspan x="0" y="0" class="st10 st11 st14">history</tspan><tspan x="0" y="17.4" class="st10 st11 st14">about</tspan></text>
<rect x="458.8" y="252.9" class="st9" width="38.2" height="37"/>
<text transform="matrix(1 0 0 1 458.8334 261.8135)"><tspan x="0" y="0" class="st10 st11 st14">journal</tspan><tspan x="0" y="17.4" class="st10 st11 st14">news</tspan></text>
<rect x="61.6" y="294.9" class="st13" width="56" height="16.1"/>
<rect x="61.6" y="315.8" class="st13" width="56" height="16.1"/>
<rect x="65.8" y="298.6" class="st9" width="47.7" height="37"/>
<text transform="matrix(1 0 0 1 70.5173 307.4682)"><tspan x="0" y="0" class="st10 st11 st14">sandals </tspan><tspan x="-3.2" y="20.4" class="st10 st11 st14">flip flops</tspan></text>
<rect x="125" y="294.9" class="st13" width="56" height="16.1"/>
<rect x="125" y="315.8" class="st13" width="56" height="16.1"/>
<rect x="133.1" y="298.6" class="st9" width="38.2" height="37"/>
<text transform="matrix(1 0 0 1 134.0228 307.4682)"><tspan x="0" y="0" class="st10 st11 st14">thongs</tspan><tspan x="4" y="20.4" class="st10 st11 st14">slides</tspan></text>
<rect x="59.6" y="165.3" class="st13" width="56" height="16.1"/>
<rect x="59.6" y="186.2" class="st13" width="56" height="16.1"/>
<rect x="35.5" y="129.9" class="st9" width="174.6" height="29.5"/>
<text transform="matrix(1 0 0 1 57.817 138.8135)"><tspan x="0" y="0" class="st10 st11 st14">Campaign-level negative </tspan><tspan x="40.3" y="14.4" class="st10 st11 st14">keywords</tspan></text>
<rect x="63.8" y="168.9" class="st9" width="47.7" height="37"/>
<text transform="matrix(1 0 0 1 73.736 177.8135)"><tspan x="0" y="0" class="st10 st11 st14">socks</tspan><tspan x="-6.5" y="20.4" class="st10 st11 st14">support</tspan></text>
<rect x="123" y="165.3" class="st13" width="56" height="16.1"/>
<rect x="123" y="186.2" class="st13" width="56" height="16.1"/>
<rect x="131.1" y="168.9" class="st9" width="38.2" height="37"/>
<text transform="matrix(1 0 0 1 137.5052 177.8135)"><tspan x="0" y="0" class="st10 st11 st14">laces</tspan><tspan x="-2.5" y="20.4" class="st10 st11 st14">insole</tspan></text>
<g>
	<rect x="9" y="91.9" class="st3" width="172" height="29"/>
	<text transform="matrix(1 0 0 1 16.4995 111.934)"><tspan x="0" y="0" class="st4 st15 st16">campaign: </tspan><tspan x="87" y="0" class="st4 st17 st16">Shoe Sales</tspan></text>
	<polygon class="st5" points="9,120.9 22,129.3 22,120.9 	"/>
</g>
<g>
	<rect x="29" y="230.9" class="st18" width="127" height="20"/>
	<text transform="matrix(1 0 0 1 34.9995 245.934)"><tspan x="0" y="0" class="st4 st15 st14">ad group: </tspan><tspan x="70.5" y="0" class="st4 st17 st14">Fall Sale</tspan></text>
	<polygon class="st19" points="29,250.9 42,259.3 42,250.9 	"/>
</g>
<rect x="62.2" y="41.5" class="st9" width="179.2" height="39.7"/>
<text transform="matrix(1 0 0 1 62.152 51.1099)"><tspan x="0" y="0" class="st10 st11 st20">Add them </tspan><tspan x="59.3" y="0" class="st10 st17 st20">individually </tspan><tspan x="152.5" y="0" class="st10 st11 st20">at </tspan><tspan x="0" y="15.6" class="st10 st11 st20">the campaign or ad group level</tspan></text>
<rect x="360.1" y="40.1" class="st9" width="145.3" height="28.7"/>
<text transform="matrix(1 0 0 1 360.0774 49.7561)"><tspan x="0" y="0" class="st10 st11 st20">Create a list to </tspan><tspan x="83.3" y="0" class="st10 st17 st20">SHARE </tspan><tspan x="0" y="15.6" class="st10 st11 st20">with multiple campaigns</tspan></text>
<g>
	<ellipse class="st4" cx="-290" cy="517.4" rx="15" ry="7.5"/>
	<g>
		<g>
			<path class="st8" d="M-278.2,517.3c0-1.3-0.5-2.6-1.4-3.6c-0.9-1-2.2-1.5-3.5-1.6l-5.9-0.1c0.5,0.3,1,0.6,1.4,1.1
				c0.4,0.5,0.8,1,1.1,1.6l3.4,0.1c0.6,0,1.3,0.3,1.7,0.8c0.1,0.1,0.1,0.2,0.2,0.3c0.3,0.4,0.5,0.9,0.5,1.5c0,0.5-0.2,1-0.5,1.5
				c-0.1,0.1-0.1,0.2-0.2,0.2c-0.5,0.5-1.1,0.7-1.7,0.7l-3.4-0.1l-0.7,0l-2.3-0.1c-0.4,0-0.7-0.1-1-0.3c-0.2-0.1-0.4-0.3-0.6-0.4
				c0,0,0,0,0,0c-0.5-0.5-0.7-1.1-0.7-1.7c0-0.6,0.3-1.3,0.8-1.7c0,0,0,0,0.1,0c-0.1,0-0.3-0.1-0.4-0.1l-2.6-0.1
				c-0.2,0.6-0.4,1.2-0.4,1.8c0,0.6,0.1,1.2,0.3,1.8c0.1,0.2,0.2,0.4,0.3,0.6c0.2,0.4,0.5,0.8,0.8,1.1c0.7,0.7,1.5,1.2,2.5,1.4
				c0.3,0.1,0.7,0.1,1,0.1l0.5,0l5.9,0.1C-280.5,522.2-278.2,520-278.2,517.3z"/>
		</g>
		<g>
			<path class="st8" d="M-294.7,519.3l-2.5-0.1c-0.6,0-1.3-0.3-1.7-0.8s-0.7-1.1-0.7-1.7c0-0.6,0.3-1.3,0.8-1.7
				c0.5-0.5,1.1-0.7,1.7-0.7l2.5,0.1l0.7,0l2.3,0.1c0.4,0,0.7,0.1,1,0.3c0.2,0.1,0.5,0.3,0.7,0.5c0.1,0.1,0.1,0.2,0.2,0.2
				c0.3,0.4,0.5,1,0.5,1.5c0,0.5-0.2,1.1-0.5,1.5c0.3,0.2,0.7,0.3,1,0.4l1.7,0c0.2-0.6,0.4-1.2,0.4-1.8c0-0.6-0.1-1.2-0.3-1.8
				c-0.1-0.2-0.2-0.4-0.3-0.6c-0.2-0.4-0.5-0.8-0.8-1.1c-0.7-0.7-1.5-1.2-2.5-1.4c-0.3-0.1-0.7-0.1-1-0.1l-0.5,0l-5-0.1
				c-2.8-0.1-5.1,2.1-5.1,4.9c0,1.3,0.5,2.6,1.4,3.6c0.9,1,2.2,1.5,3.5,1.6l5,0.1c-0.5-0.3-1-0.6-1.4-1.1
				C-294.1,520.4-294.5,519.9-294.7,519.3z"/>
		</g>
	</g>
</g>
<g>
	<ellipse class="st4" cx="-389" cy="671.4" rx="15" ry="7.5"/>
	<g>
		<g>
			<path class="st8" d="M-377.2,671.3c0-1.3-0.5-2.6-1.4-3.6c-0.9-1-2.2-1.5-3.5-1.6l-5.9-0.1c0.5,0.3,1,0.6,1.4,1.1
				c0.4,0.5,0.8,1,1.1,1.6l3.4,0.1c0.6,0,1.3,0.3,1.7,0.8c0.1,0.1,0.1,0.2,0.2,0.3c0.3,0.4,0.5,0.9,0.5,1.5c0,0.5-0.2,1-0.5,1.5
				c-0.1,0.1-0.1,0.2-0.2,0.2c-0.5,0.5-1.1,0.7-1.7,0.7l-3.4-0.1l-0.7,0l-2.3-0.1c-0.4,0-0.7-0.1-1-0.3c-0.2-0.1-0.4-0.3-0.6-0.4
				c0,0,0,0,0,0c-0.5-0.5-0.7-1.1-0.7-1.7c0-0.6,0.3-1.3,0.8-1.7c0,0,0,0,0.1,0c-0.1,0-0.3-0.1-0.4-0.1l-2.6-0.1
				c-0.2,0.6-0.4,1.2-0.4,1.8c0,0.6,0.1,1.2,0.3,1.8c0.1,0.2,0.2,0.4,0.3,0.6c0.2,0.4,0.5,0.8,0.8,1.1c0.7,0.7,1.5,1.2,2.5,1.4
				c0.3,0.1,0.7,0.1,1,0.1l0.5,0l5.9,0.1C-379.5,676.2-377.2,674-377.2,671.3z"/>
		</g>
		<g>
			<path class="st8" d="M-393.7,673.3l-2.5-0.1c-0.6,0-1.3-0.3-1.7-0.8s-0.7-1.1-0.7-1.7c0-0.6,0.3-1.3,0.8-1.7
				c0.5-0.5,1.1-0.7,1.7-0.7l2.5,0.1l0.7,0l2.3,0.1c0.4,0,0.7,0.1,1,0.3c0.2,0.1,0.5,0.3,0.7,0.5c0.1,0.1,0.1,0.2,0.2,0.2
				c0.3,0.4,0.5,1,0.5,1.5c0,0.5-0.2,1.1-0.5,1.5c0.3,0.2,0.7,0.3,1,0.4l1.7,0c0.2-0.6,0.4-1.2,0.4-1.8c0-0.6-0.1-1.2-0.3-1.8
				c-0.1-0.2-0.2-0.4-0.3-0.6c-0.2-0.4-0.5-0.8-0.8-1.1c-0.7-0.7-1.5-1.2-2.5-1.4c-0.3-0.1-0.7-0.1-1-0.1l-0.5,0l-5-0.1
				c-2.8-0.1-5.1,2.1-5.1,4.9c0,1.3,0.5,2.6,1.4,3.6c0.9,1,2.2,1.5,3.5,1.6l5,0.1c-0.5-0.3-1-0.6-1.4-1.1
				C-393.1,674.4-393.5,673.9-393.7,673.3z"/>
		</g>
	</g>
</g>
<rect x="45" y="259.9" class="st9" width="154.5" height="29.5"/>
<text transform="matrix(1 0 0 1 59.2702 268.8135)"><tspan x="0" y="0" class="st10 st11 st14">Ad group-level negative </tspan><tspan x="38.3" y="14.4" class="st10 st11 st14">keywords</tspan></text>
<rect x="22.5" y="392.4" class="st0" width="199" height="37"/>
<rect x="-417.1" y="500.3" class="st13" width="56" height="16.1"/>
<rect x="-417.1" y="521.2" class="st13" width="56" height="16.1"/>
<rect x="-434.6" y="463.9" class="st9" width="156.5" height="29.5"/>
<text transform="matrix(1 0 0 1 -421.4293 472.8135)"><tspan x="0" y="0" class="st10 st11 st14">Campaign-level negative </tspan><tspan x="40.3" y="14.4" class="st10 st11 st14">keywords</tspan></text>
<rect x="-412.9" y="503.9" class="st9" width="47.7" height="37"/>
<text transform="matrix(1 0 0 1 -404.3885 512.8135)"><tspan x="0" y="0" class="st10 st11 st14">man’s</tspan><tspan x="-0.1" y="20.4" class="st10 st11 st14">men’s</tspan></text>
<rect x="-353.7" y="500.3" class="st13" width="56" height="16.1"/>
<rect x="-353.7" y="521.2" class="st13" width="56" height="16.1"/>
<rect x="-355.4" y="503.9" class="st9" width="57.7" height="37"/>
<text transform="matrix(1 0 0 1 -349.7072 512.8135)"><tspan x="0" y="0" class="st10 st11 st14">women’s</tspan><tspan x="0.1" y="20.4" class="st10 st11 st14">woman’s</tspan></text>
<g>
	<rect x="9" y="377.9" class="st3" width="179" height="29"/>
	<text transform="matrix(1 0 0 1 16.4995 396.934)" class="st4 st15 st16">[any campaign]</text>
	<polygon class="st5" points="9,406.9 22,415.3 22,406.9 	"/>
</g>
<g>
	<rect x="-294" y="391.9" class="st3" width="179" height="29"/>
	<text transform="matrix(1 0 0 1 -286.5005 410.934)"><tspan x="0" y="0" class="st4 st15 st16">campaign: </tspan><tspan x="87" y="0" class="st4 st17 st16">Kid’s Shoes</tspan></text>
	<polygon class="st5" points="-294,420.9 -281,429.3 -281,420.9 	"/>
</g>
<g>
	<g>
		<polyline class="st7" points="227,401.4 294.5,401.4 294.5,255.9 		"/>
		<g>
			<path class="st8" d="M221,400.9c2.8,1.1,6.4,2.9,8.5,4.8l-1.7-4.8l1.7-4.8C227.4,398.1,223.8,399.9,221,400.9z"/>
		</g>
	</g>
</g>
<g>
	<ellipse class="st4" cx="-262" cy="593.4" rx="7.5" ry="15"/>
	<g>
		<g>
			<path class="st8" d="M-262.2,581.6c-1.3,0-2.6,0.5-3.6,1.4c-1,0.9-1.5,2.2-1.6,3.5l-0.1,5.9c0.3-0.5,0.6-1,1.1-1.4
				c0.5-0.4,1-0.8,1.6-1.1l0.1-3.4c0-0.6,0.3-1.3,0.8-1.7c0.1-0.1,0.2-0.1,0.3-0.2c0.4-0.3,0.9-0.5,1.5-0.5c0.5,0,1,0.2,1.5,0.5
				c0.1,0.1,0.2,0.1,0.2,0.2c0.5,0.5,0.7,1.1,0.7,1.7l-0.1,3.4l0,0.7l-0.1,2.3c0,0.4-0.1,0.7-0.3,1c-0.1,0.2-0.3,0.4-0.4,0.6
				c0,0,0,0,0,0c-0.5,0.5-1.1,0.7-1.7,0.7c-0.6,0-1.3-0.3-1.7-0.8c0,0,0,0,0-0.1c0,0.1-0.1,0.3-0.1,0.4l-0.1,2.6
				c0.6,0.2,1.2,0.4,1.8,0.4c0.6,0,1.2-0.1,1.8-0.3c0.2-0.1,0.4-0.2,0.6-0.3c0.4-0.2,0.8-0.5,1.1-0.8c0.7-0.7,1.2-1.5,1.4-2.5
				c0.1-0.3,0.1-0.7,0.1-1l0-0.5l0.1-5.9C-257.2,584-259.4,581.7-262.2,581.6z"/>
		</g>
		<g>
			<path class="st8" d="M-260.1,598.1l-0.1,2.5c0,0.6-0.3,1.3-0.8,1.7s-1.1,0.7-1.7,0.7c-0.6,0-1.3-0.3-1.7-0.8
				c-0.5-0.5-0.7-1.1-0.7-1.7l0.1-2.5l0-0.7l0.1-2.3c0-0.4,0.1-0.7,0.3-1c0.1-0.2,0.3-0.5,0.5-0.7c0.1-0.1,0.2-0.1,0.2-0.2
				c0.4-0.3,1-0.5,1.5-0.5c0.5,0,1.1,0.2,1.5,0.5c0.2-0.3,0.3-0.7,0.4-1l0-1.7c-0.6-0.2-1.2-0.4-1.8-0.4c-0.6,0-1.2,0.1-1.8,0.3
				c-0.2,0.1-0.4,0.2-0.6,0.3c-0.4,0.2-0.8,0.5-1.1,0.8c-0.7,0.7-1.2,1.5-1.4,2.5c-0.1,0.3-0.1,0.7-0.1,1l0,0.5l-0.1,5
				c-0.1,2.8,2.1,5.1,4.9,5.1c1.3,0,2.6-0.5,3.6-1.4c1-0.9,1.5-2.2,1.6-3.5l0.1-5c-0.3,0.5-0.6,1-1.1,1.4
				C-259,597.5-259.6,597.9-260.1,598.1z"/>
		</g>
	</g>
</g>
<g>
	<ellipse class="st4" cx="-267" cy="537.4" rx="7.5" ry="15"/>
	<g>
		<g>
			<path class="st8" d="M-267.2,525.6c-1.3,0-2.6,0.5-3.6,1.4c-1,0.9-1.5,2.2-1.6,3.5l-0.1,5.9c0.3-0.5,0.6-1,1.1-1.4
				c0.5-0.4,1-0.8,1.6-1.1l0.1-3.4c0-0.6,0.3-1.3,0.8-1.7c0.1-0.1,0.2-0.1,0.3-0.2c0.4-0.3,0.9-0.5,1.5-0.5c0.5,0,1,0.2,1.5,0.5
				c0.1,0.1,0.2,0.1,0.2,0.2c0.5,0.5,0.7,1.1,0.7,1.7l-0.1,3.4l0,0.7l-0.1,2.3c0,0.4-0.1,0.7-0.3,1c-0.1,0.2-0.3,0.4-0.4,0.6
				c0,0,0,0,0,0c-0.5,0.5-1.1,0.7-1.7,0.7c-0.6,0-1.3-0.3-1.7-0.8c0,0,0,0,0-0.1c0,0.1-0.1,0.3-0.1,0.4l-0.1,2.6
				c0.6,0.2,1.2,0.4,1.8,0.4c0.6,0,1.2-0.1,1.8-0.3c0.2-0.1,0.4-0.2,0.6-0.3c0.4-0.2,0.8-0.5,1.1-0.8c0.7-0.7,1.2-1.5,1.4-2.5
				c0.1-0.3,0.1-0.7,0.1-1l0-0.5l0.1-5.9C-262.2,528-264.4,525.7-267.2,525.6z"/>
		</g>
		<g>
			<path class="st8" d="M-265.1,542.1l-0.1,2.5c0,0.6-0.3,1.3-0.8,1.7s-1.1,0.7-1.7,0.7c-0.6,0-1.3-0.3-1.7-0.8
				c-0.5-0.5-0.7-1.1-0.7-1.7l0.1-2.5l0-0.7l0.1-2.3c0-0.4,0.1-0.7,0.3-1c0.1-0.2,0.3-0.5,0.5-0.7c0.1-0.1,0.2-0.1,0.2-0.2
				c0.4-0.3,1-0.5,1.5-0.5c0.5,0,1.1,0.2,1.5,0.5c0.2-0.3,0.3-0.7,0.4-1l0-1.7c-0.6-0.2-1.2-0.4-1.8-0.4c-0.6,0-1.2,0.1-1.8,0.3
				c-0.2,0.1-0.4,0.2-0.6,0.3c-0.4,0.2-0.8,0.5-1.1,0.8c-0.7,0.7-1.2,1.5-1.4,2.5c-0.1,0.3-0.1,0.7-0.1,1l0,0.5l-0.1,5
				c-0.1,2.8,2.1,5.1,4.9,5.1c1.3,0,2.6-0.5,3.6-1.4c1-0.9,1.5-2.2,1.6-3.5l0.1-5c-0.3,0.5-0.6,1-1.1,1.4
				C-264,541.5-264.6,541.9-265.1,542.1z"/>
		</g>
	</g>
</g>
<path class="st8" d="M342,56.7c-1,0-1.9,0.3-2.7,0.9l-7.7-3.9l7.7-3.9c0.7,0.5,1.7,0.9,2.7,0.9c2.5,0,4.5-2,4.5-4.5s-2-4.5-4.5-4.5
	c-2.5,0-4.5,2-4.5,4.4l-7.8,3.9c-0.7-0.5-1.7-0.9-2.7-0.9c-2.5,0-4.5,2-4.5,4.5s2,4.5,4.5,4.5c1,0,1.9-0.3,2.7-0.9l7.8,3.9
	c0,2.5,2,4.4,4.5,4.4c2.5,0,4.5-2,4.5-4.5S344.5,56.7,342,56.7z"/>
<g>
	<rect x="33.3" y="43.4" class="st8" width="17.1" height="4"/>
	<rect x="33.3" y="52.4" class="st8" width="17.1" height="4"/>
	<rect x="33.3" y="61.4" class="st8" width="17.1" height="4"/>
	<path class="st8" d="M27.7,48.4h1.8v-5.9H28c0,1-0.9,1.3-1.8,1.3V45h1.4V48.4z"/>
	<path class="st8" d="M28,56c1.1-0.7,2.6-1.2,2.6-2.7c0-1.3-1-1.9-2.4-1.9c-1.6,0-2.6,0.9-2.5,2.6h1.6c0-0.7,0.2-1.2,0.9-1.2
		c0.4,0,0.7,0.2,0.7,0.7c0,0.4-0.5,0.7-0.8,0.9c-0.8,0.5-1.6,0.9-2.1,1.6c-0.3,0.4-0.5,0.9-0.4,1.5h5.1V56L28,56L28,56z"/>
	<path class="st8" d="M29.7,63.2L29.7,63.2c0,0,0.8,0,0.8-1.3c0-0.5-0.6-1.5-2.3-1.5c-0.7,0-1.3,0.2-1.7,0.5
		c-0.5,0.3-0.7,0.8-0.7,1.5h1.6c0-0.5,0.4-0.7,0.8-0.7c0.3,0,0.8,0.1,0.8,0.5c0,0.5-0.5,0.5-0.8,0.5c-0.2,0-0.4,0-0.5,0v1.2
		c0.1,0,0.2,0,0.5,0c0.4,0,0.8,0.1,0.8,0.6c0,0.5-0.3,0.7-0.8,0.7c-0.3,0-0.5-0.1-0.7-0.3c-0.2-0.2-0.2-0.4-0.2-0.7h-1.6
		c0,0.4,0,2.3,2.6,2.3c1.9,0,2.5-1.1,2.5-1.9C30.7,63.3,29.7,63.3,29.7,63.2z"/>
</g>
<text transform="matrix(1 0 0 1 260.8366 59.316)" class="st10 st21 st16">and/or</text>
</svg>
