<?xml version="1.0" encoding="utf-8"?>
<!-- Generator: Adobe Illustrator 22.1.0, SVG Export Plug-In . SVG Version: 6.00 Build 0)  -->
<svg version="1.1" id="Layer_1" xmlns="http://www.w3.org/2000/svg" xmlns:xlink="http://www.w3.org/1999/xlink" x="0px" y="0px"
	 width="439.5px" height="124.3px" viewBox="0 0 439.5 124.3" style="enable-background:new 0 0 439.5 124.3;" xml:space="preserve"
	>
<style type="text/css">
	.st0{fill:#0012FF;}
	.st1{enable-background:new    ;}
	.st2{fill:#009245;}
	.st3{fill:#999999;}
	.st4{fill:#737373;}
	.st5{fill:#0000FF;}
	.st6{fill:#FF8C00;}
	.st7{fill:#D2D2D2;}
	.st8{fill:none;stroke:#008272;stroke-width:4;stroke-miterlimit:10;}
	.st9{fill:#666666;}
</style>
<title>Asset 9</title>
<g>
	<path class="st0" d="M20.3,9.7l2,0.5c-0.5,1.7-1.2,2.8-2.3,3.6c-1.1,0.8-2.4,1.2-3.9,1.2c-1.7,0-2.8-0.3-3.9-0.9
		c-1-0.6-1.8-1.7-2.3-2.8c-0.4-1-0.7-2.4-0.7-3.8c0-1.5,0.3-2.9,0.9-4c0.6-1.2,1.4-2,2.6-2.6C13.9,0.3,15,0,16.3,0
		c1.5,0,2.7,0.3,3.8,1.2s1.7,1.8,2.1,3.1l-1.9,0.4c-0.3-1.1-0.9-1.8-1.5-2.4c-0.6-0.4-1.5-0.8-2.4-0.8c-1.2,0-2.1,0.3-2.8,0.8
		c-0.8,0.6-1.4,1.4-1.7,2.3c-0.3,0.9-0.5,1.8-0.5,2.9c0,1.2,0.2,2.4,0.6,3.3c0.3,0.9,0.9,1.7,1.7,2.1c0.8,0.5,1.7,0.8,2.5,0.8
		c1,0,2-0.3,2.7-0.9C19.5,12,20,11.1,20.3,9.7z"/>
	<path class="st0" d="M23.7,9.6c0-1.9,0.6-3.4,1.7-4.4C26.3,4.4,27.5,4,28.7,4c1.5,0,2.7,0.4,3.6,1.5c0.9,0.9,1.3,2.3,1.3,4.1
		c0,1.3-0.2,2.4-0.6,3.3c-0.5,0.8-1.1,1.3-1.8,1.8s-1.7,0.6-2.6,0.6c-1.5,0-2.7-0.5-3.6-1.5S23.7,11.4,23.7,9.6z M25.7,9.6
		c0,1.3,0.3,2.4,0.9,3s1.3,1,2.3,1s1.7-0.3,2.3-1c0.6-0.6,0.9-1.7,0.9-3s-0.3-2.3-0.9-3s-1.3-1-2.3-1s-1.7,0.3-2.3,1
		S25.7,8.2,25.7,9.6z"/>
	<path class="st0" d="M35.9,15V0.3h1.8v5.3c0.9-1.1,2-1.5,3.2-1.5c0.8,0,1.5,0.1,2.1,0.4c0.6,0.3,1,0.8,1.2,1.3
		c0.3,0.6,0.4,1.4,0.4,2.4V15h-1.8V8.3c0-0.9-0.2-1.5-0.6-1.9c-0.4-0.5-0.9-0.6-1.6-0.6c-0.6,0-1.1,0.1-1.5,0.4
		c-0.5,0.3-0.9,0.6-1,1.1s-0.3,1.2-0.3,1.9V15C37.7,15,35.9,15,35.9,15z"/>
	<path class="st0" d="M46.7,9.6c0-1.9,0.6-3.4,1.6-4.4C49.2,4.4,50.4,4,51.6,4c1.5,0,2.7,0.4,3.6,1.5c0.9,0.9,1.4,2.3,1.4,4.1
		c0,1.3-0.1,2.4-0.6,3.3c-0.4,0.8-1.1,1.3-1.8,1.8s-1.6,0.6-2.6,0.6c-1.5,0-2.7-0.5-3.6-1.5C47.1,12.7,46.7,11.4,46.7,9.6z
		 M48.5,9.6c0,1.3,0.3,2.4,0.9,3s1.4,1,2.3,1s1.6-0.3,2.3-1s0.9-1.8,0.9-3.1s-0.3-2.3-0.9-3c-0.6-0.8-1.4-1.1-2.3-1.1
		c-0.9,0-1.6,0.3-2.3,1C48.7,7.1,48.5,8.2,48.5,9.6z"/>
	<path class="st0" d="M67.2,15L63.3,0.3h1.9l2.3,9.6c0.4,1,0.5,1.9,0.7,3c0.4-1.5,0.6-2.5,0.6-2.7l3-9.9h2.4l2.1,7.5
		c0.6,1.8,0.9,3.6,1.2,5.2c0.1-0.9,0.4-1.9,0.7-3.1l2.2-9.6h1.9l-4,14.7h-1.9L73.2,3.7c-0.3-0.9-0.4-1.5-0.4-1.8
		c-0.2,0.7-0.3,1.3-0.3,1.8L69.4,15H67.2z"/>
	<path class="st0" d="M83.9,2.2v-2h1.8v2.1h-1.8V2.2z M83.9,15V4.3h1.8v10.6C85.7,15,83.9,15,83.9,15z"/>
	<path class="st0" d="M88.5,15V4.3h1.6v1.5C90.9,4.6,91.9,4,93.4,4c0.6,0,1.2,0.1,1.8,0.3c0.6,0.3,0.9,0.6,1.2,0.9
		C96.7,5.5,96.9,6,97,6.6c0,0.3,0.1,0.9,0.1,1.8V15h-1.8V8.6c0-0.8,0-1.4-0.1-1.7S94.7,6.3,94.4,6c-0.3-0.1-0.8-0.3-1.2-0.3
		c-0.8,0-1.5,0.3-1.9,0.8c-0.6,0.4-0.9,1.3-0.9,2.8v5.8L88.5,15L88.5,15z"/>
	<path class="st0" d="M107.3,11.5l1.8,0.3c-0.3,1-0.9,2-1.6,2.5s-1.8,0.9-3,0.9c-1.5,0-2.9-0.5-3.8-1.5c-0.9-0.9-1.4-2.3-1.4-4
		s0.5-3.1,1.4-4.2s2.1-1.5,3.6-1.5s2.5,0.4,3.5,1.5c0.9,0.9,1.4,2.4,1.4,4c0,0.2,0,0.3,0,0.5h-8c0,1.2,0.5,2.1,1,2.7
		c0.6,0.6,1.4,0.9,2.3,0.9c0.6,0,1.2-0.2,1.6-0.5C106.5,12.9,107,12.3,107.3,11.5z M101.3,8.5h6c-0.1-0.9-0.3-1.5-0.8-2
		c-0.6-0.8-1.4-1-2.3-1s-1.5,0.3-2.1,0.9C101.7,6.9,101.5,7.6,101.3,8.5z"/>
	<path class="st0" d="M111.4,15V4.3h1.6v1.6c0.5-0.8,0.8-1.2,1.2-1.5c0.3-0.3,0.8-0.3,1.2-0.3c0.6,0,1.2,0.1,1.8,0.6l-0.6,1.5
		c-0.5-0.3-0.9-0.5-1.4-0.5s-0.8,0.2-1,0.3c-0.3,0.3-0.6,0.6-0.6,1.1c-0.1,0.6-0.3,1.4-0.3,2.1v5.5h-2C111.3,14.8,111.3,15,111.4,15
		z"/>
	<path class="st0" d="M118.1,19l-0.1-1.7c0.5,0.2,0.8,0.2,1,0.2c0.5,0,0.8,0,0.9-0.2c0.3-0.2,0.5-0.3,0.6-0.6
		c0.1-0.2,0.3-0.6,0.6-1.3c0-0.2,0.1-0.3,0.1-0.5l-4-10.6h2l2.3,6.1c0.3,0.8,0.6,1.7,0.8,2.4c0.1-0.9,0.5-1.7,0.8-2.4l2.3-6.1h1.8
		l-4.3,10.8c-0.5,1.2-0.8,2-1,2.4c-0.3,0.6-0.8,1-1,1.3c-0.5,0.3-0.9,0.5-1.5,0.5C119,19.3,118.5,19.2,118.1,19z"/>
	<path class="st0" d="M133.5,10.5V8.7h5.5v1.8H133.5z"/>
	<path class="st0" d="M8.3,17.8v-1.5h131.5v1.5C139.8,17.8,8.3,17.8,8.3,17.8z"/>
</g>
<g class="st1">
	<path class="st0" d="M139.8,17.8v-1.5h4.5v1.5C144.3,17.8,139.8,17.8,139.8,17.8z"/>
</g>
<g class="st1">
	<path class="st0" d="M144.3,15L150,0.3h2.1l6,14.7h-2.2l-1.7-4.5h-6.1l-1.6,4.5C146.5,15,144.3,15,144.3,15z M148.5,8.8h5l-1.5-4
		c-0.5-1.2-0.8-2.3-1-3c-0.1,0.9-0.5,2-0.8,2.9L148.5,8.8z"/>
	<path class="st0" d="M159.3,15V0.3h1.8V15C161.1,15,159.3,15,159.3,15z"/>
	<path class="st0" d="M164,15V0.3h1.8V15C165.8,15,164,15,164,15z"/>
	<path class="st0" d="M174.3,15V4.3h1.7v1.6c0.5-0.8,0.8-1.2,1.2-1.5c0.3-0.3,0.8-0.3,1.2-0.3c0.6,0,1.2,0.1,1.8,0.6l-0.8,1.5
		c-0.5-0.3-0.9-0.5-1.4-0.5c-0.4,0-0.8,0.1-1,0.3c-0.3,0.3-0.6,0.6-0.6,1c-0.1,0.6-0.3,1.4-0.3,2.1v5.6h-1.8
		C174.4,14.8,174.4,15,174.3,15z"/>
	<path class="st0" d="M188.5,11.5l1.8,0.3c-0.3,1-0.9,2-1.7,2.5s-1.8,0.9-3,0.9c-1.5,0-2.8-0.5-3.8-1.5c-0.9-0.9-1.3-2.3-1.3-4
		s0.5-3.1,1.3-4.2c0.9-1.1,2.1-1.5,3.6-1.5s2.5,0.4,3.5,1.5c0.9,0.9,1.3,2.4,1.3,4c0,0.2,0,0.3,0,0.5h-7.9c0,1.2,0.4,2.1,1,2.7
		s1.4,0.9,2.3,0.9c0.6,0,1.2-0.2,1.7-0.5C187.8,12.9,188.2,12.3,188.5,11.5z M182.6,8.5h6c-0.1-0.9-0.3-1.5-0.8-2
		c-0.6-0.8-1.3-1-2.3-1c-0.9,0-1.5,0.3-2.1,0.9C182.9,6.9,182.6,7.6,182.6,8.5z"/>
	<path class="st0" d="M199.5,15v-1.3c-0.8,1-1.7,1.7-3,1.7c-0.9,0-1.7-0.3-2.4-0.8c-0.7-0.5-1.2-1-1.7-2s-0.5-1.8-0.5-2.9
		s0.2-2.1,0.6-2.9c0.3-0.9,0.9-1.5,1.7-1.9s1.5-0.8,2.4-0.8c0.6,0,1.2,0.1,1.7,0.5c0.5,0.3,0.9,0.6,1.2,1V0.2h1.8v14.7h-1.8
		C199.5,14.9,199.5,15,199.5,15z M193.8,9.6c0,1.3,0.3,2.4,0.9,3c0.6,0.8,1.2,1,2.1,1c0.8,0,1.5-0.3,2-0.9c0.6-0.6,0.9-1.7,0.9-3
		c0-1.5-0.3-2.6-0.9-3.2c-0.6-0.8-1.2-1-2.1-1c-0.8,0-1.5,0.3-2,1C194.2,7.2,193.8,8.2,193.8,9.6z"/>
	<path class="st0" d="M211.7,15l-3.3-10.6h1.8l1.7,6.1l0.6,2.3c0-0.2,0.2-0.9,0.6-2.3l1.7-6.3h1.8l1.6,6.2l0.6,2.1l0.6-2.1l1.8-6.2
		h1.8l-3.3,10.6h-1.9l-1.7-6.5l-0.4-1.8l-2.1,8.3L211.7,15L211.7,15z"/>
	<path class="st0" d="M224.6,2.2v-2h1.8v2.1h-1.8V2.2z M224.6,15V4.3h1.8v10.6C226.4,15,224.6,15,224.6,15z"/>
	<path class="st0" d="M229.3,15V4.3h1.6v1.5c0.8-1.2,2-1.8,3.5-1.8c0.6,0,1.2,0.1,1.8,0.3c0.6,0.3,0.9,0.6,1.2,0.9
		c0.3,0.3,0.5,0.8,0.6,1.4c0,0.3,0.2,0.9,0.2,1.8V15h-1.8V8.6c0-0.8,0-1.4-0.2-1.7c-0.1-0.3-0.4-0.6-0.8-0.9
		c-0.3-0.1-0.8-0.3-1.2-0.3c-0.8,0-1.5,0.3-1.9,0.8c-0.5,0.4-0.9,1.3-0.9,2.8v5.8L229.3,15L229.3,15z"/>
	<path class="st0" d="M248,11.5l1.8,0.3c-0.3,1-0.9,2-1.7,2.5c-0.8,0.5-1.8,0.9-3,0.9c-1.5,0-2.8-0.5-3.8-1.5
		c-0.9-0.9-1.3-2.3-1.3-4s0.5-3.1,1.3-4.2c0.9-1.1,2.1-1.5,3.6-1.5s2.5,0.4,3.5,1.5c0.9,1,1.3,2.4,1.3,4c0,0.2,0,0.3,0,0.5h-7.8
		c0,1.2,0.4,2.1,1,2.7s1.3,0.9,2.3,0.9c0.6,0,1.2-0.2,1.7-0.5C247.4,12.9,247.7,12.3,248,11.5z M242,8.5h6c-0.2-0.9-0.3-1.5-0.8-2
		c-0.6-0.8-1.4-1-2.3-1c-0.9,0-1.5,0.3-2.1,0.9C242.5,6.9,242.2,7.6,242,8.5z"/>
	<path class="st0" d="M251.5,11.8l1.8-0.3c0.1,0.8,0.4,1.2,0.9,1.7s1.1,0.6,2,0.6s1.5-0.2,1.8-0.5c0.5-0.3,0.6-0.8,0.6-1.2
		s-0.2-0.8-0.6-0.9c-0.3-0.2-0.9-0.3-1.8-0.6c-1.3-0.3-2.3-0.6-2.7-0.9c-0.4-0.3-0.9-0.6-1.2-1.1c-0.3-0.5-0.4-0.9-0.4-1.5
		c0-0.4,0.1-0.9,0.3-1.4c0.2-0.4,0.5-0.8,0.9-1c0.3-0.1,0.6-0.5,1.2-0.6c0.5-0.1,1.1-0.1,1.5-0.1c0.9,0,1.5,0.1,2.3,0.3
		c0.8,0.2,1.1,0.6,1.4,1.1c0.3,0.4,0.4,0.9,0.6,1.6l-1.8,0.3c-0.2-0.6-0.3-1.1-0.8-1.4s-0.9-0.5-1.7-0.5c-0.9,0-1.3,0.2-1.8,0.5
		c-0.3,0.3-0.6,0.6-0.6,0.9c0,0.3,0,0.5,0.1,0.6c0.2,0.1,0.5,0.3,0.8,0.4c0.2,0,0.8,0.2,1.7,0.5c1.3,0.3,2.1,0.6,2.7,0.9
		c0.6,0.3,0.9,0.6,1.2,0.9c0.3,0.5,0.5,0.9,0.5,1.5s-0.2,1.2-0.6,1.7c-0.3,0.6-0.9,0.9-1.5,1.2S257,15,256,15
		c-1.3,0-2.4-0.3-3.2-0.9C252,13.8,251.6,12.9,251.5,11.8z"/>
	<path class="st0" d="M267.5,9.6c0-1.9,0.6-3.4,1.6-4.4c0.9-0.8,2.1-1.2,3.3-1.2c1.5,0,2.7,0.4,3.6,1.5c0.9,0.9,1.3,2.3,1.3,4.1
		c0,1.3-0.2,2.4-0.6,3.3c-0.5,0.8-1,1.3-1.8,1.8c-0.8,0.5-1.7,0.6-2.6,0.6c-1.5,0-2.7-0.5-3.6-1.5C267.8,12.8,267.5,11.4,267.5,9.6z
		 M269.3,9.6c0,1.3,0.3,2.4,0.9,3c0.6,0.6,1.3,1,2.3,1s1.7-0.3,2.3-1s0.9-1.8,0.9-3.1s-0.3-2.3-0.9-3c-0.6-0.8-1.3-1.1-2.3-1.1
		s-1.7,0.3-2.3,1.1S269.3,8.2,269.3,9.6z"/>
	<path class="st0" d="M279.5,15V4.3h1.6v1.5c0.8-1.2,2-1.8,3.5-1.8c0.6,0,1.2,0.1,1.8,0.3c0.6,0.3,0.9,0.6,1.2,0.9
		c0.3,0.3,0.5,0.8,0.6,1.4c0,0.3,0.2,0.9,0.2,1.8V15h-1.8V8.6c0-0.8,0-1.4-0.2-1.7c-0.1-0.3-0.4-0.6-0.8-0.9
		c-0.3-0.1-0.8-0.3-1.2-0.3c-0.8,0-1.5,0.3-1.9,0.8c-0.6,0.4-0.9,1.3-0.9,2.8v5.8L279.5,15L279.5,15z"/>
	<path class="st0" d="M296,11.8l1.8-0.3c0.2,0.8,0.5,1.2,0.9,1.7s1.1,0.6,1.9,0.6c0.9,0,1.5-0.2,1.8-0.5c0.4-0.3,0.6-0.8,0.6-1.2
		s-0.2-0.8-0.6-0.9c-0.3-0.2-0.9-0.3-1.8-0.6c-1.3-0.3-2.3-0.6-2.7-0.9s-0.9-0.6-1.2-1.1c-0.3-0.4-0.5-0.9-0.5-1.5
		c0-0.4,0.2-0.9,0.3-1.4c0.2-0.4,0.5-0.8,0.9-1c0.3-0.1,0.6-0.5,1.2-0.6C299,4,299.7,4,300.1,4c0.9,0,1.5,0.1,2.3,0.3
		c0.8,0.2,1.1,0.6,1.3,1.1c0.2,0.5,0.5,0.9,0.6,1.6l-1.8,0.3c-0.1-0.6-0.3-1.1-0.8-1.4c-0.4-0.3-0.9-0.5-1.6-0.5
		c-0.9,0-1.4,0.2-1.8,0.5c-0.3,0.3-0.6,0.6-0.6,0.9c0,0.3,0,0.5,0.2,0.6c0.2,0.1,0.4,0.3,0.8,0.4c0.2,0,0.8,0.2,1.7,0.5
		c1.3,0.3,2.1,0.6,2.7,0.9c0.6,0.3,0.9,0.6,1.2,0.9c0.3,0.5,0.4,0.9,0.4,1.5s-0.1,1.2-0.6,1.7c-0.3,0.6-0.9,0.9-1.5,1.2
		s-1.4,0.5-2.3,0.5c-1.4,0-2.4-0.3-3.2-0.9C296.6,13.8,296.2,12.9,296,11.8z"/>
	<path class="st0" d="M314,13.6c-0.6,0.6-1.4,0.9-2,1.2s-1.3,0.3-2,0.3c-1.2,0-2.1-0.3-2.7-0.9c-0.6-0.6-0.9-1.3-0.9-2.3
		c0-0.5,0.2-1,0.3-1.5c0.3-0.5,0.6-0.8,0.9-1.1c0.4-0.3,0.8-0.4,1.3-0.6c0.3-0.1,0.9-0.1,1.7-0.3c1.5-0.1,2.5-0.5,3.3-0.6
		c0-0.3,0-0.4,0-0.4c0-0.8-0.2-1.2-0.5-1.5c-0.4-0.5-1.2-0.6-2.1-0.6c-0.9,0-1.5,0.1-2,0.4s-0.8,0.9-0.9,1.7l-1.8-0.3
		c0.2-0.8,0.5-1.4,0.8-1.8c0.3-0.5,0.9-0.8,1.7-1.1c0.8-0.3,1.5-0.4,2.4-0.4s1.7,0.1,2.3,0.3c0.6,0.1,1.1,0.5,1.2,0.8
		c0.2,0.3,0.5,0.8,0.6,1.2c0,0.3,0.2,0.9,0.2,1.6v2.4c0,1.7,0,2.7,0.2,3.1c0.2,0.5,0.3,0.9,0.4,1.3h-1.9
		C314.2,14.5,314,14.1,314,13.6z M313.8,9.6c-0.6,0.3-1.6,0.5-3,0.8c-0.8,0.2-1.2,0.3-1.6,0.3c-0.3,0.2-0.6,0.3-0.8,0.6
		c-0.2,0.3-0.3,0.6-0.3,0.9c0,0.5,0.2,0.9,0.6,1.2c0.3,0.3,0.9,0.5,1.7,0.5c0.8,0,1.3-0.2,1.8-0.5c0.6-0.3,0.9-0.8,1.2-1.2
		c0.2-0.5,0.3-1,0.3-1.8V9.6H313.8z"/>
	<path class="st0" d="M318.5,15V0.3h1.8V15C320.3,15,318.5,15,318.5,15z"/>
	<path class="st0" d="M330.3,11.5l1.8,0.3c-0.3,1-0.9,2-1.7,2.5s-1.8,0.9-3,0.9c-1.5,0-2.8-0.5-3.8-1.5c-0.9-0.9-1.3-2.3-1.3-4
		s0.4-3.1,1.3-4.2c0.9-1.1,2.1-1.5,3.6-1.5s2.6,0.4,3.4,1.5c0.9,1,1.4,2.4,1.4,4c0,0.2,0,0.3,0,0.5h-8c0,1.2,0.5,2.1,1,2.7
		c0.6,0.6,1.4,0.9,2.3,0.9c0.6,0,1.2-0.2,1.7-0.5C329.8,12.9,330,12.3,330.3,11.5z M324.3,8.5h6c-0.1-0.9-0.3-1.5-0.8-2
		c-0.6-0.8-1.3-1-2.3-1c-0.9,0-1.5,0.3-2.1,0.9C324.8,6.9,324.5,7.6,324.3,8.5z"/>
	<path class="st0" d="M335.4,11.2l-0.6-7.8V0.2h2.3v3.3l-0.5,7.8L335.4,11.2L335.4,11.2z M335,15v-2.1h2.1V15H335z"/>
	<path class="st0" d="M144.3,17.8v-1.5h194.4v1.5C338.7,17.8,144.3,17.8,144.3,17.8z"/>
</g>
<g class="st1">
	<path class="st2" d="M38.1,38.2l1.3,0.2c-0.2,1.1-0.6,1.8-1.2,2.3c-0.6,0.6-1.5,0.9-2.4,0.9c-1.2,0-2.1-0.4-2.8-1.2
		s-1.1-1.8-1.1-3.3c0-0.9,0.2-1.8,0.4-2.4c0.3-0.6,0.8-1.2,1.4-1.5c0.6-0.3,1.3-0.4,2.1-0.4c0.9,0,1.7,0.3,2.3,0.8s0.9,1.2,1.2,1.9
		L38,35.6c-0.2-0.6-0.3-1.1-0.8-1.3c-0.3-0.3-0.8-0.4-1.2-0.4c-0.8,0-1.4,0.3-1.8,0.8s-0.8,1.3-0.8,2.5s0.2,1.9,0.6,2.6
		c0.5,0.6,1.1,0.8,1.7,0.8s1.1-0.1,1.3-0.4C37.8,39.6,38.1,39,38.1,38.2z"/>
	<path class="st2" d="M40.4,37.2c0-1.7,0.4-2.7,1.3-3.4c0.8-0.6,1.7-0.9,2.7-0.9c1.2,0,2.1,0.4,2.9,1.2c0.8,0.8,1.1,1.8,1.1,3.2
		c0,1.1-0.1,1.9-0.4,2.6c-0.3,0.6-0.8,1.1-1.5,1.5c-0.7,0.4-1.4,0.4-2.1,0.4c-1.2,0-2.1-0.4-2.8-1.2C40.7,39.7,40.4,38.5,40.4,37.2z
		 M41.7,37.2c0,1.1,0.3,1.9,0.8,2.4c0.4,0.6,1.1,0.8,1.8,0.8s1.4-0.3,1.8-0.8c0.4-0.6,0.8-1.3,0.8-2.6c0-1.1-0.3-1.8-0.8-2.4
		c-0.4-0.6-1.1-0.8-1.8-0.8s-1.4,0.3-1.8,0.8C42,35.2,41.7,36,41.7,37.2z"/>
	<path class="st2" d="M50,41.4V29.5h1.5v4.2c0.8-0.8,1.5-1.2,2.6-1.2c0.6,0,1.2,0.2,1.6,0.3c0.4,0.1,0.8,0.6,1.1,1.1
		c0.1,0.4,0.3,1.1,0.3,1.9v5.4h-1.5v-5.4c0-0.8-0.1-1.2-0.4-1.6c-0.3-0.3-0.8-0.4-1.4-0.4c-0.4,0-0.9,0.2-1.2,0.3
		c-0.3,0.1-0.6,0.4-0.8,0.9c-0.1,0.5-0.3,1-0.3,1.8v4.7L50,41.4C50,41.5,50,41.4,50,41.4z"/>
	<path class="st2" d="M58.7,37.2c0-1.7,0.4-2.7,1.4-3.4c0.8-0.6,1.6-0.9,2.7-0.9c1.2,0,2.1,0.4,2.9,1.2c0.8,0.8,1.1,1.8,1.1,3.2
		c0,1.1-0.1,1.9-0.4,2.6c-0.3,0.6-0.8,1.1-1.5,1.5c-0.7,0.4-1.4,0.4-2.1,0.4c-1.2,0-2.1-0.4-2.9-1.2C59,39.7,58.7,38.5,58.7,37.2z
		 M60.2,37.2c0,1.1,0.3,1.9,0.8,2.4c0.4,0.6,1.1,0.8,1.8,0.8c0.7,0,1.4-0.3,1.8-0.8c0.4-0.6,0.8-1.3,0.8-2.6c0-1.1-0.3-1.8-0.8-2.4
		c-0.4-0.6-1.1-0.8-1.8-0.8c-0.7,0-1.4,0.3-1.8,0.8C60.4,35.2,60.2,36,60.2,37.2z"/>
	<path class="st2" d="M69.9,41.4l-2.6-8.5h1.6l1.4,4.9l0.4,1.8c0-0.1,0.1-0.8,0.4-1.8l1.4-4.9H74l1.4,4.9l0.4,1.7l0.4-1.7l1.5-4.9
		h1.4l-2.7,8.6h-1.5l-1.4-5.1l-0.3-1.5l-1.8,6.6L69.9,41.4L69.9,41.4z"/>
	<path class="st2" d="M80.3,31.3v-1.7h1.5v1.7H80.3z M80.3,41.4v-8.5h1.5v8.6C81.8,41.4,80.3,41.4,80.3,41.4z"/>
	<path class="st2" d="M83.9,41.4v-8.5h1.4v1.2c0.6-0.9,1.5-1.3,2.7-1.3c0.4,0,1.1,0.2,1.4,0.3c0.4,0.2,0.8,0.4,0.9,0.8
		c0.1,0.4,0.3,0.6,0.4,1.1c0,0.3,0.1,0.8,0.1,1.3v5.3h-1.5v-5.3c0-0.6,0-1.1-0.1-1.3c-0.1-0.3-0.3-0.4-0.6-0.8
		c-0.3-0.4-0.6-0.3-1.1-0.3c-0.6,0-1.2,0.2-1.6,0.6s-0.6,1.2-0.6,2.2v4.7H83.9L83.9,41.4z"/>
	<path class="st2" d="M98.9,38.7l1.5,0.1c-0.3,0.9-0.6,1.5-1.4,2.1c-0.6,0.4-1.5,0.8-2.4,0.8c-1.2,0-2.3-0.4-3-1.2
		c-0.7-0.8-1.1-1.8-1.1-3.3s0.3-2.6,1.1-3.3c0.8-0.7,1.6-1.2,2.9-1.2c1.3,0,2.1,0.4,2.9,1.2s1,1.8,1,3.3c0,0.1,0,0.1,0,0.4h-6.3
		c0,0.9,0.3,1.6,0.8,2.1s1.1,0.8,1.8,0.8c0.6,0,1-0.1,1.4-0.4C98.5,39.7,98.7,39.3,98.9,38.7z M94.1,36.3h4.8c0-0.8-0.3-1.2-0.6-1.6
		c-0.5-0.6-1-0.9-1.8-0.9c-0.6,0-1.2,0.2-1.6,0.6C94.4,34.9,94.2,35.5,94.1,36.3z"/>
	<path class="st2" d="M102.2,41.4v-8.5h1.4v1.3c0.3-0.6,0.6-1.1,0.9-1.2c0.3-0.2,0.6-0.3,0.9-0.3c0.5,0,1,0.2,1.5,0.4l-0.5,1.3
		c-0.3-0.2-0.8-0.3-1-0.3s-0.6,0.2-0.9,0.3c-0.3,0.1-0.5,0.5-0.6,0.8c-0.1,0.4-0.3,1.1-0.3,1.7v4.5H102.2z"/>
</g>
<g class="st1">
	<path class="st2" d="M107.6,44.7l-0.1-1.4c0.3,0.2,0.6,0.2,0.9,0.2s0.6,0,0.8-0.2c0.1-0.1,0.3-0.3,0.5-0.4c0.1-0.1,0.3-0.4,0.5-1.1
		c0-0.1,0-0.1,0.1-0.3l-3.4-8.5h1.5l1.8,4.9c0.3,0.6,0.5,1.4,0.6,1.9c0.1-0.6,0.3-1.3,0.6-1.9l1.8-4.9h1.5l-3.2,8.6
		c-0.3,0.9-0.6,1.7-0.8,1.9c-0.3,0.4-0.6,0.9-0.9,1.1c-0.3,0.2-0.8,0.3-1.2,0.3C108.4,44.8,107.9,44.8,107.6,44.7z"/>
</g>
<g class="st1">
	<path class="st2" d="M115.1,41.4v-1.7h1.6v1.7H115.1z"/>
	<path class="st2" d="M124.9,38.2l1.4,0.2c-0.1,1.1-0.6,1.8-1.2,2.3c-0.6,0.6-1.5,0.9-2.4,0.9c-1.2,0-2.1-0.4-2.9-1.2s-1-1.8-1-3.3
		c0-0.9,0.1-1.8,0.5-2.4c0.3-0.6,0.8-1.2,1.4-1.5c0.6-0.3,1.4-0.4,2.1-0.4c0.9,0,1.6,0.3,2.3,0.8s0.9,1.2,1.2,1.9l-1.4,0.1
		c-0.1-0.6-0.3-1.1-0.8-1.3c-0.3-0.3-0.8-0.4-1.2-0.4c-0.8,0-1.4,0.3-1.8,0.8c-0.4,0.5-0.8,1.3-0.8,2.6c0,1.2,0.1,1.9,0.6,2.6
		c0.5,0.7,1,0.8,1.6,0.8s1-0.2,1.4-0.4C124.5,39.6,124.7,39,124.9,38.2z"/>
	<path class="st2" d="M127,37.2c0-1.7,0.5-2.7,1.4-3.4c0.8-0.6,1.6-0.9,2.7-0.9c1.2,0,2.1,0.4,2.9,1.2c0.8,0.8,1,1.8,1,3.2
		c0,1.1-0.1,1.9-0.5,2.6c-0.3,0.6-0.8,1.1-1.5,1.5c-0.7,0.4-1.4,0.4-2.1,0.4c-1.2,0-2.1-0.4-2.9-1.2C127.4,39.7,127,38.5,127,37.2z
		 M128.5,37.2c0,1.1,0.3,1.9,0.8,2.4c0.5,0.6,1,0.8,1.8,0.8c0.8,0,1.4-0.3,1.8-0.8c0.5-0.6,0.8-1.3,0.8-2.6c0-1.1-0.3-1.8-0.8-2.4
		s-1-0.8-1.8-0.8c-0.8,0-1.4,0.3-1.8,0.8C128.7,35.2,128.5,36,128.5,37.2z"/>
	<path class="st2" d="M136.7,41.4v-8.5h1.4v1.2c0.3-0.4,0.6-0.8,1-1.1c0.5-0.3,0.9-0.4,1.5-0.4c0.6,0,1.2,0.2,1.5,0.4
		c0.3,0.3,0.8,0.6,0.9,1.1c0.8-1.1,1.5-1.5,2.7-1.5c0.9,0,1.5,0.3,2,0.8s0.8,1.2,0.8,2.1v5.8h-1.6v-5.4c0-0.6,0-1.1-0.2-1.2
		c-0.1-0.3-0.3-0.4-0.4-0.6c-0.3-0.2-0.6-0.3-0.9-0.3c-0.6,0-1,0.2-1.5,0.6c-0.5,0.4-0.6,1.1-0.6,1.9v4.9h-1.5v-5.6
		c0-0.6-0.2-1.2-0.3-1.5c-0.3-0.3-0.6-0.4-1.2-0.4c-0.5,0-0.8,0.2-1.2,0.3c-0.4,0.2-0.6,0.8-0.8,1.2c-0.1,0.4-0.3,1.1-0.3,1.8v4.5
		L136.7,41.4L136.7,41.4C136.6,41.4,136.7,41.4,136.7,41.4z"/>
	<path class="st2" d="M154.4,37.9v-1.5h4.5v1.5H154.4z"/>
	<path class="st2" d="M164.7,35.7c0-1.9,0.6-3.4,1.7-4.7c1-1.1,2.4-1.7,4-1.7c1.1,0,2.1,0.3,3,0.8c0.9,0.4,1.5,1.2,2,2.3
		c0.4,0.9,0.8,1.9,0.8,3.1s-0.3,2.3-0.8,3.2c-0.5,0.9-1.2,1.6-2.1,2.1s-1.8,0.8-2.9,0.8c-1,0-2.1-0.3-3-0.8
		c-0.9-0.4-1.5-1.2-1.9-2.3C165,37.6,164.7,36.7,164.7,35.7z M166.4,35.7c0,1.3,0.4,2.6,1.2,3.3c0.8,0.7,1.7,1.2,2.9,1.2
		s2.1-0.4,2.9-1.2c0.8-0.8,1.2-1.9,1.2-3.4c0-0.9-0.1-1.8-0.4-2.6c-0.3-0.8-0.8-1.2-1.4-1.7c-0.6-0.5-1.4-0.6-2.1-0.6
		c-1,0-2.1,0.4-2.8,1.2S166.4,33.9,166.4,35.7z"/>
</g>
<g class="st1">
	<path class="st2" d="M178.2,41.4v-7.3h-1.3v-1.2h1.3v-1c0-0.6,0-1.1,0.2-1.3c0.1-0.3,0.4-0.8,0.8-0.9c0.3-0.2,0.9-0.3,1.5-0.3
		c0.4,0,0.9,0,1.3,0.2l-0.2,1.2c-0.3,0-0.6-0.2-0.9-0.2c-0.5,0-0.8,0.2-0.9,0.3c-0.2,0.2-0.3,0.6-0.3,1.1v0.8h1.7v1.1h-1.7v7.3h-1.5
		C178.3,41.2,178.3,41.4,178.2,41.4z"/>
</g>
<g class="st1">
	<path class="st2" d="M182.5,41.4v-7.3h-1.4v-1.2h1.4v-1c0-0.6,0-1.1,0.1-1.3c0.2-0.3,0.5-0.8,0.8-0.9c0.3-0.3,0.9-0.3,1.5-0.3
		c0.5,0,0.9,0,1.4,0.2l-0.1,1.2c-0.3,0-0.6-0.2-0.9-0.2c-0.5,0-0.8,0.2-0.9,0.3c-0.1,0.2-0.3,0.6-0.3,1.1v0.8h1.6v1.1h-1.6v7.3h-1.5
		C182.5,41.2,182.5,41.4,182.5,41.4z"/>
	<path class="st2" d="M186.7,31.3v-1.7h1.5v1.7H186.7z M186.7,41.4v-8.5h1.5v8.6C188.2,41.4,186.7,41.4,186.7,41.4z"/>
	<path class="st2" d="M196,38.2l1.3,0.2c-0.2,1.1-0.6,1.8-1.2,2.3c-0.6,0.6-1.5,0.9-2.4,0.9c-1.2,0-2.1-0.4-2.8-1.2
		c-0.8-0.8-1.1-1.8-1.1-3.3c0-0.9,0.2-1.8,0.5-2.4c0.3-0.6,0.8-1.2,1.3-1.5c0.6-0.3,1.3-0.4,2.1-0.4c0.9,0,1.7,0.3,2.3,0.8
		s0.9,1.2,1.2,1.9l-1.3,0.1c-0.2-0.6-0.3-1.1-0.8-1.3c-0.3-0.3-0.8-0.4-1.2-0.4c-0.8,0-1.3,0.3-1.8,0.8s-0.8,1.3-0.8,2.6
		c0,1.2,0.2,1.9,0.6,2.6s1,0.8,1.7,0.8c0.6,0,1-0.2,1.3-0.4C195.7,39.6,195.8,39,196,38.2z"/>
	<path class="st2" d="M198.7,31.3v-1.7h1.5v1.7H198.7z M198.7,41.4v-8.5h1.5v8.6C200.2,41.4,198.7,41.4,198.7,41.4z"/>
	<path class="st2" d="M207.8,40.3c-0.6,0.4-1,0.8-1.5,0.9c-0.5,0.1-1,0.3-1.7,0.3c-0.9,0-1.7-0.3-2.1-0.8c-0.4-0.5-0.8-1.1-0.8-1.8
		c0-0.4,0.2-0.8,0.3-1.2c0.2-0.3,0.5-0.6,0.8-0.9c0.3-0.1,0.6-0.3,1.1-0.4c0.3,0,0.8-0.1,1.3-0.1c1.2-0.2,2.1-0.3,2.5-0.4
		c0-0.2,0-0.3,0-0.4c0-0.6-0.1-1.1-0.4-1.2c-0.3-0.3-0.9-0.4-1.7-0.4c-0.8,0-1.2,0.2-1.5,0.3c-0.3,0.1-0.6,0.6-0.8,1.2l-1.3-0.2
		c0.2-0.6,0.3-1.1,0.6-1.5c0.3-0.3,0.8-0.6,1.3-0.9c0.6-0.2,1.2-0.3,1.9-0.3c0.7,0,1.4,0.2,1.8,0.3c0.4,0.1,0.8,0.4,1.1,0.6
		c0.1,0.3,0.3,0.6,0.4,1.1c0,0.3,0,0.7,0,1.3v2.1c0,1.4,0,2.3,0.2,2.6c0.2,0.3,0.2,0.8,0.3,1.1h-1.5C208,41.1,207.8,40.8,207.8,40.3
		z M207.7,37.2c-0.6,0.1-1.3,0.4-2.4,0.6c-0.6,0.2-1.1,0.2-1.2,0.3c-0.3,0.2-0.5,0.3-0.6,0.4c-0.1,0.1-0.2,0.4-0.2,0.8
		c0,0.4,0.2,0.8,0.5,0.9c0.3,0.1,0.8,0.4,1.3,0.4c0.6,0,1.1-0.2,1.5-0.3c0.5-0.3,0.8-0.6,0.9-1.1c0.1-0.3,0.3-0.8,0.3-1.5
		L207.7,37.2L207.7,37.2z"/>
	<path class="st2" d="M211.4,41.4V29.5h1.5v11.8L211.4,41.4L211.4,41.4z"/>
	<path class="st2" d="M219,38.8l1.5-0.3c0.2,0.6,0.3,1.1,0.6,1.4c0.3,0.3,0.9,0.4,1.5,0.4s1.2-0.2,1.5-0.4c0.3-0.3,0.4-0.6,0.4-0.9
		s-0.1-0.6-0.4-0.8c-0.2-0.1-0.8-0.3-1.5-0.4c-1.1-0.3-1.8-0.4-2.3-0.8c-0.4-0.1-0.8-0.4-0.9-0.8c-0.1-0.4-0.3-0.8-0.3-1.2
		c0-0.4,0.1-0.7,0.3-1.1c0.2-0.3,0.5-0.6,0.8-0.8c0.2-0.2,0.6-0.3,0.9-0.4c0.3-0.1,0.8-0.2,1.2-0.2c0.6,0,1.2,0.2,1.8,0.3
		c0.4,0.2,0.9,0.4,1.1,0.8c0.1,0.3,0.4,0.8,0.4,1.3l-1.3,0.2c0-0.4-0.3-0.8-0.6-1.1c-0.3-0.3-0.8-0.3-1.3-0.3s-1.2,0.2-1.3,0.3
		c-0.3,0.2-0.4,0.4-0.4,0.8c0,0.1,0,0.3,0.1,0.4c0.2,0.1,0.3,0.3,0.6,0.4c0.1,0,0.6,0.1,1.3,0.3c1.1,0.3,1.8,0.4,2.1,0.6
		c0.3,0.2,0.8,0.4,0.9,0.8c0.3,0.3,0.3,0.8,0.3,1.2s-0.2,0.9-0.4,1.4c-0.3,0.4-0.8,0.8-1.2,1.1c-0.6,0.3-1.2,0.3-1.8,0.3
		c-1.1,0-2-0.3-2.6-0.8C219.7,40.5,219.2,39.7,219,38.8z"/>
	<path class="st2" d="M227.9,31.3v-1.7h1.5v1.7H227.9z M227.9,41.4v-8.5h1.5v8.6C229.4,41.4,227.9,41.4,227.9,41.4z"/>
	<path class="st2" d="M234.7,40l0.2,1.4c-0.5,0.1-0.8,0.1-1.1,0.1c-0.6,0-0.9-0.1-1.2-0.3c-0.3-0.1-0.5-0.4-0.6-0.6
		c-0.1-0.3-0.1-0.9-0.1-1.7V34h-1.1v-1.2h1.1v-2.1l1.5-0.9v3h1.5V34h-1.5v4.9c0,0.4,0,0.8,0.1,0.8c0,0.2,0.2,0.2,0.3,0.3
		c0.2,0,0.3,0.2,0.4,0.2C234.2,40.2,234.5,40.2,234.7,40z"/>
	<path class="st2" d="M242,38.7l1.5,0.1c-0.3,0.9-0.6,1.5-1.4,2.1c-0.6,0.4-1.5,0.8-2.4,0.8c-1.2,0-2.3-0.4-3-1.2
		c-0.7-0.8-1.1-1.8-1.1-3.3s0.3-2.6,1.1-3.3c0.8-0.7,1.6-1.2,2.8-1.2c1.2,0,2.1,0.4,2.9,1.2s1,1.8,1,3.3c0,0.1,0,0.1,0,0.4h-6.3
		c0,0.9,0.3,1.6,0.8,2.1c0.4,0.4,1,0.8,1.8,0.8c0.6,0,1-0.1,1.3-0.4C241.4,39.7,241.7,39.3,242,38.7z M237.2,36.3h4.8
		c0-0.8-0.3-1.2-0.6-1.6c-0.4-0.6-1-0.9-1.8-0.9c-0.6,0-1.2,0.2-1.7,0.6C237.5,34.9,237.2,35.5,237.2,36.3z"/>
</g>
<g class="st1">
	<path class="st3" d="M263,37.3l1.5,0.4c-0.3,1.4-0.9,2.3-1.8,3c-0.9,0.6-1.9,1.1-3.2,1.1c-1.3,0-2.3-0.3-3.2-0.8
		c-0.8-0.4-1.3-1.2-1.8-2.3c-0.4-1.1-0.6-2.1-0.6-3.1c0-1.2,0.3-2.3,0.8-3.2c0.4-0.9,1.2-1.7,1.9-2.1c0.9-0.4,1.8-0.8,2.8-0.8
		c1.2,0,2.1,0.3,3,0.9c0.9,0.6,1.3,1.5,1.7,2.6l-1.5,0.3c-0.3-0.9-0.6-1.5-1.2-1.8c-0.5-0.4-1.2-0.6-2-0.6c-0.9,0-1.7,0.2-2.3,0.6
		s-1,1.1-1.3,1.8c-0.3,0.7-0.3,1.5-0.3,2.2c0,1.1,0.2,1.9,0.5,2.7c0.3,0.8,0.8,1.4,1.3,1.7s1.3,0.6,1.9,0.6c0.9,0,1.7-0.3,2.3-0.8
		C262.4,39,262.8,38.2,263,37.3z"/>
	<path class="st3" d="M265.8,37.2c0-1.7,0.5-2.7,1.4-3.4c0.8-0.6,1.6-0.9,2.7-0.9c1.2,0,2.1,0.4,2.8,1.2c0.7,0.8,1,1.8,1,3.2
		c0,1.1-0.1,1.9-0.4,2.6c-0.3,0.7-0.8,1.1-1.5,1.5c-0.7,0.4-1.3,0.4-2.1,0.4c-1.2,0-2.1-0.4-2.8-1.2
		C266.2,39.7,265.8,38.5,265.8,37.2z M267.2,37.2c0,1.1,0.3,1.9,0.8,2.4c0.4,0.6,1.1,0.8,1.8,0.8c0.7,0,1.3-0.3,1.8-0.8
		c0.5-0.6,0.8-1.3,0.8-2.6c0-1.1-0.3-1.8-0.8-2.4s-1-0.8-1.8-0.8c-0.8,0-1.4,0.3-1.8,0.8C267.5,35.2,267.2,36,267.2,37.2z"/>
	<path class="st3" d="M275.5,41.4V29.5h1.5v4.2c0.8-0.8,1.5-1.2,2.6-1.2c0.6,0,1.2,0.2,1.6,0.3c0.5,0.3,0.8,0.6,1.1,1.1
		c0.2,0.4,0.3,1.1,0.3,1.9v5.4h-1.5v-5.4c0-0.8-0.2-1.2-0.5-1.6c-0.3-0.3-0.8-0.4-1.3-0.4c-0.4,0-0.9,0.2-1.2,0.3
		c-0.3,0.2-0.6,0.4-0.8,0.9c-0.2,0.5-0.3,0.9-0.3,1.7v4.6L275.5,41.4L275.5,41.4z"/>
	<path class="st3" d="M284.2,37.2c0-1.7,0.5-2.7,1.4-3.4c0.8-0.6,1.6-0.9,2.7-0.9c1.2,0,2.1,0.4,2.8,1.2c0.7,0.8,1,1.8,1,3.2
		c0,1.1-0.1,1.9-0.4,2.6c-0.3,0.6-0.8,1.1-1.5,1.5c-0.7,0.4-1.3,0.4-2.1,0.4c-1.2,0-2.1-0.4-2.8-1.2
		C284.5,39.7,284.2,38.5,284.2,37.2z M285.7,37.2c0,1.1,0.3,1.9,0.8,2.4c0.5,0.6,1.1,0.8,1.8,0.8c0.7,0,1.3-0.3,1.8-0.8
		c0.4-0.6,0.8-1.3,0.8-2.6c0-1.1-0.3-1.8-0.8-2.4s-1.1-0.8-1.8-0.8c-0.7,0-1.3,0.3-1.8,0.8C285.8,35.2,285.7,36,285.7,37.2z"/>
	<path class="st3" d="M300.7,41.4l-3.1-11.8h1.6l1.8,7.8c0.2,0.8,0.3,1.7,0.4,2.4c0.3-1.2,0.5-1.9,0.6-2.3l2.3-8h1.9l1.7,6
		c0.5,1.5,0.8,2.9,0.9,4.2c0.2-0.8,0.3-1.6,0.6-2.6l1.8-7.5h1.5l-3.3,11.8h-1.5l-2.5-9c-0.2-0.8-0.3-1.2-0.3-1.3
		c-0.2,0.6-0.3,1.1-0.3,1.3l-2.5,9H300.7L300.7,41.4z"/>
	<path class="st3" d="M314,31.3v-1.7h1.5v1.7H314z M314,41.4v-8.5h1.5v8.6C315.5,41.4,314,41.4,314,41.4z"/>
	<path class="st3" d="M317.6,41.4v-8.5h1.4v1.2c0.6-0.9,1.5-1.3,2.7-1.3c0.4,0,1.1,0.2,1.3,0.3c0.5,0.2,0.8,0.4,0.9,0.8
		c0.1,0.4,0.3,0.6,0.4,1.1c0,0.3,0.2,0.8,0.2,1.3v5.3H323v-5.3c0-0.6,0-1.1-0.2-1.3c-0.1-0.3-0.3-0.4-0.6-0.8
		c-0.3-0.3-0.6-0.3-1.1-0.3c-0.6,0-1.2,0.2-1.7,0.6c-0.5,0.4-0.6,1.2-0.6,2.2v4.7H317.6L317.6,41.4z"/>
	<path class="st3" d="M332.6,38.7l1.5,0.1c-0.3,0.9-0.6,1.5-1.3,2.1c-0.6,0.4-1.5,0.8-2.4,0.8c-1.2,0-2.3-0.4-3-1.2
		c-0.7-0.8-1-1.8-1-3.3s0.3-2.6,1-3.3c0.7-0.7,1.7-1.2,2.9-1.2c1.2,0,2.1,0.4,2.8,1.2s1,1.8,1,3.3c0,0.1,0,0.1,0,0.4h-6.3
		c0,0.9,0.3,1.6,0.8,2.1c0.5,0.4,1,0.8,1.8,0.8c0.6,0,1.1-0.1,1.4-0.4C332,39.7,332.3,39.3,332.6,38.7z M327.8,36.3h4.8
		c0-0.8-0.3-1.2-0.6-1.6c-0.5-0.6-1.1-0.9-1.8-0.9c-0.6,0-1.2,0.2-1.6,0.6C328.1,34.9,328,35.5,327.8,36.3z"/>
	<path class="st3" d="M335.9,41.4v-8.5h1.4v1.3c0.3-0.6,0.6-1.1,0.9-1.2c0.3-0.2,0.6-0.3,0.9-0.3c0.5,0,1,0.2,1.5,0.4l-0.5,1.3
		c-0.3-0.2-0.8-0.3-1-0.3s-0.6,0.2-0.9,0.3c-0.3,0.1-0.5,0.4-0.6,0.7c-0.2,0.4-0.3,1.1-0.3,1.7v4.5L335.9,41.4L335.9,41.4z"/>
</g>
<g class="st1">
	<path class="st3" d="M341.3,44.7l-0.1-1.4c0.3,0.2,0.6,0.2,0.9,0.2s0.6,0,0.8-0.2c0.1-0.1,0.3-0.3,0.5-0.4c0.1-0.1,0.3-0.4,0.4-1.1
		c0-0.1,0-0.1,0.2-0.3l-3.3-8.6h1.5l1.7,5c0.3,0.6,0.5,1.4,0.6,1.9c0.2-0.6,0.3-1.3,0.6-1.9l1.8-4.9h1.5l-3.3,8.7
		c-0.3,0.9-0.6,1.7-0.8,1.9c-0.3,0.4-0.6,0.9-0.9,1.1c-0.3,0.2-0.8,0.3-1.2,0.3C341.9,44.8,341.6,44.8,341.3,44.7z"/>
</g>
<g class="st1">
	<path class="st3" d="M348.8,41.4v-1.7h1.6v1.7c0,0.6-0.1,1.1-0.3,1.5c-0.1,0.3-0.6,0.6-1,0.9l-0.5-0.6c0.3-0.2,0.6-0.3,0.8-0.6
		c0.2-0.3,0.2-0.6,0.3-1.1L348.8,41.4L348.8,41.4z"/>
	<path class="st3" d="M357.7,41.4V29.5h1.5v10.4h5.9v1.3h-7.4V41.4z"/>
	<path class="st3" d="M366.8,41.4V29.5h1.5v10.4h5.9v1.3h-7.4V41.4z"/>
	<path class="st3" d="M384.5,37.3l1.5,0.4c-0.3,1.4-0.9,2.3-1.8,3c-0.9,0.6-2,1.1-3.2,1.1s-2.3-0.3-3.1-0.8
		c-0.8-0.4-1.4-1.2-1.8-2.3c-0.4-1.1-0.6-2.1-0.6-3.1c0-1.2,0.3-2.3,0.8-3.2c0.5-0.9,1.2-1.7,2-2.1c0.9-0.4,1.8-0.8,2.8-0.8
		c1.2,0,2.1,0.3,3,0.9c0.9,0.6,1.4,1.5,1.7,2.6l-1.5,0.3c-0.3-0.9-0.6-1.5-1.2-1.8c-0.5-0.4-1.2-0.6-2-0.6c-0.9,0-1.6,0.2-2.3,0.6
		c-0.6,0.4-1,1.1-1.3,1.8s-0.3,1.5-0.3,2.2c0,1.1,0.1,1.9,0.4,2.7s0.8,1.4,1.4,1.7c0.6,0.3,1.3,0.6,2,0.6c0.9,0,1.6-0.3,2.2-0.8
		C383.9,39,384.2,38.2,384.5,37.3z"/>
</g>
<g class="st1">
	<path d="M8.1,67.8l4.5-11.9h1.7l4.8,11.9h-1.8l-1.4-3.6h-4.8l-1.4,3.6H8.1z M11.6,63h4l-1.2-3.3c-0.4-0.9-0.7-1.8-0.9-2.4
		c-0.2,0.8-0.3,1.5-0.6,2.3L11.6,63z"/>
	<path d="M20.3,67.8V55.9h1.5v11.9H20.3z"/>
	<path d="M23.9,67.8V55.9h1.5v11.9H23.9z"/>
	<path d="M32.1,67.8v-8.6h1.3v1.4c0.3-0.6,0.6-1,0.9-1.2c0.3-0.1,0.6-0.3,0.9-0.3c0.4,0,1,0.1,1.5,0.5L36.2,61
		c-0.3-0.1-0.8-0.3-1-0.3c-0.3,0-0.6,0.1-0.9,0.3c-0.3,0.2-0.5,0.4-0.6,0.8c-0.2,0.4-0.3,1-0.3,1.6v4.5L32.1,67.8
		C32.1,67.9,32.1,67.8,32.1,67.8z"/>
	<path d="M43.5,65.1l1.5,0.1c-0.3,0.9-0.6,1.5-1.4,2.1c-0.6,0.5-1.5,0.8-2.4,0.8c-1.2,0-2.2-0.4-3-1.2c-0.8-0.8-1.1-1.8-1.1-3.3
		s0.3-2.5,1.1-3.3c0.8-0.8,1.6-1.2,2.8-1.2s2.1,0.5,2.8,1.2c0.7,0.7,1.1,1.8,1.1,3.3c0,0.1,0,0.1,0,0.5h-6.3c0,0.9,0.3,1.6,0.8,2.1
		c0.4,0.4,1.1,0.8,1.8,0.8c0.6,0,1.1-0.1,1.4-0.5C42.9,66.1,43.2,65.7,43.5,65.1z M38.7,62.8h4.8c0-0.8-0.3-1.2-0.6-1.6
		c-0.5-0.6-1-0.9-1.8-0.9c-0.6,0-1.2,0.1-1.7,0.6C39.1,61.5,38.9,62.1,38.7,62.8z"/>
	<path d="M52.4,67.8v-1.1c-0.6,0.9-1.4,1.2-2.4,1.2c-0.8,0-1.4-0.1-1.9-0.6c-0.6-0.3-1.1-0.9-1.4-1.5c-0.3-0.6-0.4-1.5-0.4-2.3
		c0-0.9,0.1-1.6,0.4-2.3c0.3-0.8,0.8-1.2,1.4-1.6c0.6-0.3,1.2-0.6,1.9-0.6c0.4,0,0.9,0.1,1.4,0.3c0.5,0.2,0.8,0.5,1.1,0.9V56H54
		v11.7L52.4,67.8L52.4,67.8z M47.7,63.6c0,1.1,0.3,2,0.8,2.4c0.4,0.6,1.1,0.8,1.6,0.8c0.6,0,1.2-0.3,1.6-0.8
		c0.4-0.4,0.6-1.4,0.6-2.4c0-1.2-0.1-2.1-0.8-2.5c-0.6-0.5-0.9-0.8-1.6-0.8c-0.6,0-1.2,0.3-1.6,0.8C48,61.6,47.7,62.5,47.7,63.6z"/>
	<path d="M62.1,67.8l-2.6-8.6H61l1.4,5l0.4,1.8c0-0.1,0.1-0.8,0.4-1.8l1.4-5h1.5l1.4,5l0.4,1.6l0.4-1.6l1.5-5h1.4l-2.7,8.6H67
		l-1.4-5.1l-0.3-1.5l-1.8,6.6H62.1z"/>
	<path d="M72.5,57.7v-1.6H74v1.6H72.5z M72.5,67.8v-8.6H74v8.6H72.5z"/>
	<path d="M76.1,67.8v-8.6h1.4v1.2c0.6-0.9,1.5-1.4,2.7-1.4c0.4,0,1.1,0.1,1.4,0.3c0.4,0.1,0.8,0.5,0.9,0.8c0.1,0.3,0.3,0.6,0.4,1.1
		c0,0.3,0.1,0.8,0.1,1.4v5.3h-1.5v-5.3c0-0.6,0-1.1-0.1-1.4c-0.1-0.3-0.3-0.5-0.6-0.8c-0.3-0.3-0.6-0.3-1.1-0.3
		c-0.6,0-1.2,0.1-1.6,0.6c-0.4,0.5-0.6,1.2-0.6,2.3v4.8C77.5,67.8,76.1,67.8,76.1,67.8z"/>
	<path d="M91.1,65.1l1.5,0.1c-0.3,0.9-0.6,1.5-1.4,2.1c-0.6,0.5-1.5,0.8-2.4,0.8c-1.2,0-2.3-0.4-3-1.2c-0.7-0.8-1.1-1.8-1.1-3.3
		s0.3-2.5,1.1-3.3c0.8-0.8,1.6-1.2,2.9-1.2c1.2,0,2.1,0.5,2.9,1.2c0.8,0.7,1.1,1.8,1.1,3.3c0,0.1,0,0.1,0,0.5h-6.3
		c0,0.9,0.3,1.6,0.8,2.1c0.4,0.4,1.1,0.8,1.8,0.8c0.6,0,1.1-0.1,1.4-0.5C90.6,66.1,90.9,65.7,91.1,65.1z M86.4,62.8h4.8
		c0-0.8-0.3-1.2-0.6-1.6c-0.4-0.6-1.1-0.9-1.8-0.9c-0.6,0-1.2,0.1-1.6,0.6C86.7,61.5,86.4,62.1,86.4,62.8z"/>
	<path d="M93.9,65.4l1.5-0.3c0.1,0.6,0.3,1.1,0.6,1.4s0.9,0.5,1.5,0.5c0.6,0,1.2-0.1,1.5-0.5c0.3-0.3,0.5-0.6,0.5-0.9
		c0-0.3-0.1-0.6-0.5-0.8c-0.1-0.1-0.8-0.3-1.5-0.4c-1-0.3-1.8-0.5-2.3-0.8c-0.4-0.1-0.8-0.5-0.9-0.8C94.2,62.5,94,62,94,61.6
		s0.1-0.8,0.3-1c0.1-0.3,0.4-0.6,0.8-0.8c0.1-0.1,0.6-0.3,0.9-0.5c0.3-0.2,0.8-0.1,1.2-0.1c0.6,0,1.2,0.1,1.8,0.3
		c0.5,0.1,0.9,0.4,1,0.8c0.3,0.3,0.5,0.8,0.5,1.4l-1.4,0.1c0-0.5-0.3-0.8-0.6-1.1c-0.3-0.3-0.6-0.4-1.2-0.4c-0.6,0-1.2,0.1-1.4,0.3
		c-0.3,0.1-0.5,0.5-0.5,0.8c0,0.1,0,0.3,0.1,0.5c0.1,0.2,0.3,0.3,0.6,0.4c0.1,0,0.6,0.1,1.4,0.3c1,0.3,1.8,0.4,2.1,0.6
		c0.5,0.1,0.8,0.4,0.9,0.8c0.1,0.3,0.3,0.9,0.3,1.5c0,0.4-0.1,0.9-0.5,1.4c-0.3,0.4-0.8,0.8-1.2,1c-0.5,0.3-1.2,0.3-1.8,0.3
		c-1,0-2-0.3-2.6-0.8C94.4,66.9,94.1,66.3,93.9,65.4z"/>
	<path d="M106.7,63.6c0-1.6,0.5-2.7,1.4-3.4c0.8-0.6,1.6-0.9,2.7-0.9c1.2,0,2.1,0.4,2.9,1.2c0.8,0.8,1,1.8,1,3.1
		c0,1.1-0.1,2-0.5,2.6c-0.3,0.6-0.8,1-1.5,1.5c-0.8,0.4-1.4,0.4-2.1,0.4c-1.2,0-2.1-0.4-2.9-1.2C107.1,66.1,106.7,65.1,106.7,63.6z
		 M108.2,63.6c0,1.1,0.3,2,0.8,2.4c0.5,0.6,1,0.8,1.8,0.8c0.8,0,1.4-0.3,1.8-0.8c0.5-0.6,0.8-1.4,0.8-2.5s-0.3-1.8-0.8-2.4
		c-0.4-0.5-1-0.8-1.8-0.8c-0.8,0-1.4,0.3-1.8,0.8C108.5,61.6,108.2,62.5,108.2,63.6z"/>
	<path d="M116.5,67.8v-8.6h1.4v1.2c0.6-0.9,1.5-1.4,2.7-1.4c0.5,0,1,0.1,1.4,0.3c0.5,0.1,0.8,0.5,0.9,0.8c0.1,0.3,0.3,0.6,0.5,1.1
		c0,0.3,0.1,0.8,0.1,1.4v5.3h-1.6v-5.3c0-0.6,0-1.1-0.1-1.4c-0.1-0.3-0.3-0.5-0.6-0.8c-0.3-0.3-0.6-0.3-1-0.3
		c-0.6,0-1.2,0.1-1.6,0.6c-0.5,0.5-0.6,1.2-0.6,2.3v4.8C118,67.8,116.5,67.8,116.5,67.8z"/>
	<path d="M129.6,65.4l1.5-0.3c0.1,0.6,0.3,1.1,0.6,1.4s0.9,0.5,1.5,0.5c0.6,0,1.2-0.1,1.5-0.5c0.3-0.3,0.5-0.6,0.5-0.9
		c0-0.3-0.1-0.6-0.5-0.8c-0.1-0.1-0.8-0.3-1.5-0.4c-1-0.3-1.8-0.5-2.3-0.8c-0.5-0.1-0.8-0.5-0.9-0.8c-0.1-0.3-0.3-0.8-0.3-1.2
		s0.1-0.8,0.3-1c0.1-0.3,0.5-0.6,0.8-0.8c0.1-0.1,0.6-0.3,0.9-0.5c0.3-0.2,0.8-0.1,1.2-0.1c0.6,0,1.2,0.1,1.8,0.3
		c0.5,0.1,0.9,0.4,1,0.8c0.3,0.3,0.5,0.8,0.5,1.4l-1.3,0.1c0-0.5-0.3-0.8-0.6-1.1c-0.3-0.3-0.6-0.4-1.2-0.4s-1.2,0.1-1.4,0.3
		c-0.3,0.1-0.5,0.5-0.5,0.8c0,0.1,0,0.3,0.1,0.5c0.1,0.2,0.3,0.3,0.6,0.4c0.1,0,0.6,0.1,1.4,0.3c1,0.3,1.8,0.4,2.1,0.6
		c0.5,0.1,0.8,0.4,0.9,0.8c0.1,0.3,0.3,0.8,0.3,1.2c0,0.5-0.1,0.9-0.5,1.4c-0.3,0.5-0.8,0.8-1.2,1.1c-0.5,0.3-1.2,0.3-1.8,0.3
		c-1,0-2-0.3-2.5-0.8C130.1,66.9,129.8,66.3,129.6,65.4z"/>
	<path d="M143.9,66.7c-0.6,0.5-1.1,0.8-1.5,0.9c-0.5,0.2-1.1,0.3-1.7,0.3c-0.9,0-1.7-0.3-2.1-0.8c-0.5-0.5-0.8-1.1-0.8-1.8
		c0-0.4,0.1-0.8,0.3-1.2c0.2-0.3,0.5-0.6,0.8-0.9c0.3-0.1,0.6-0.3,1.1-0.5c0.3,0,0.8-0.1,1.3-0.1c1.2-0.1,2.1-0.3,2.5-0.4
		c0-0.1,0-0.3,0-0.5c0-0.6-0.1-1-0.5-1.2c-0.3-0.3-0.9-0.5-1.7-0.5c-0.8,0-1.2,0.1-1.5,0.3c-0.3,0.2-0.6,0.6-0.8,1.2l-1.3,0.1
		c0.1-0.6,0.3-1.1,0.6-1.5c0.3-0.3,0.8-0.6,1.3-0.9c0.6-0.1,1.2-0.3,2-0.3s1.4,0.1,1.8,0.3c0.5,0.1,0.8,0.4,1,0.6
		c0.1,0.3,0.3,0.6,0.5,1c0,0.3,0,0.8,0,1.4v2c0,1.4,0,2.3,0.2,2.5c0.1,0.3,0.1,0.8,0.3,1.1h-1.5C144,67.5,144,67.2,143.9,66.7z
		 M143.9,63.6c-0.6,0.1-1.4,0.5-2.4,0.6c-0.6,0.1-1,0.1-1.2,0.3c-0.3,0.1-0.5,0.3-0.6,0.4c-0.1,0.1-0.1,0.5-0.1,0.8
		c0,0.5,0.1,0.8,0.5,0.9c0.4,0.1,0.8,0.5,1.3,0.5c0.6,0,1.1-0.1,1.5-0.3c0.5-0.3,0.8-0.6,0.9-1c0.2-0.3,0.3-0.8,0.3-1.5L143.9,63.6
		L143.9,63.6z"/>
	<path d="M147.5,67.8V55.9h1.5v11.9H147.5z"/>
	<path d="M157.1,65.1l1.5,0.1c-0.3,0.9-0.6,1.5-1.3,2.1c-0.6,0.5-1.5,0.8-2.4,0.8c-1.2,0-2.3-0.4-3-1.2c-0.7-0.8-1-1.8-1-3.3
		s0.3-2.5,1-3.3c0.7-0.8,1.7-1.2,2.9-1.2c1.2,0,2.1,0.5,2.9,1.2c0.8,0.7,1,1.8,1,3.3c0,0.1,0,0.1,0,0.5h-6.3c0,0.9,0.3,1.6,0.8,2.1
		c0.4,0.4,1,0.8,1.8,0.8c0.6,0,1.1-0.1,1.4-0.5C156.5,66.1,156.8,65.7,157.1,65.1z M152.3,62.8h4.8c0-0.8-0.3-1.2-0.6-1.6
		c-0.5-0.6-1.1-0.9-1.8-0.9c-0.6,0-1.2,0.1-1.6,0.6C152.6,61.5,152.3,62.1,152.3,62.8z"/>
	<path d="M161.2,64.9l-0.5-6.3v-2.5h1.8v2.5l-0.5,6.3H161.2z M160.7,67.8v-1.5h1.6v1.5H160.7z"/>
	<path d="M169.8,67.8V55.9h8v1.4h-6.5v3.6h5.6v1.4h-5.6v5.5H169.8z"/>
	<path d="M179.6,67.8v-8.6h1.4v1.4c0.3-0.6,0.6-1,0.9-1.2c0.3-0.1,0.6-0.3,0.9-0.3c0.5,0,1,0.1,1.5,0.5l-0.5,1.4
		c-0.3-0.1-0.8-0.3-1-0.3s-0.6,0.1-0.9,0.3c-0.3,0.2-0.4,0.4-0.6,0.8c-0.2,0.4-0.3,1-0.3,1.6v4.5L179.6,67.8L179.6,67.8z"/>
	<path d="M190.8,65.1l1.5,0.1c-0.3,0.9-0.6,1.5-1.3,2.1c-0.6,0.5-1.5,0.8-2.4,0.8c-1.2,0-2.3-0.4-3-1.2c-0.7-0.8-1-1.8-1-3.3
		s0.3-2.5,1-3.3c0.7-0.8,1.7-1.2,2.8-1.2c1.2,0,2.1,0.5,2.9,1.2c0.8,0.7,1,1.8,1,3.3c0,0.1,0,0.1,0,0.5H186c0,0.9,0.3,1.6,0.8,2.1
		c0.5,0.4,1,0.8,1.8,0.8c0.6,0,1-0.1,1.3-0.5C190.4,66.1,190.7,65.7,190.8,65.1z M186.2,62.8h4.8c0-0.8-0.3-1.2-0.6-1.6
		c-0.5-0.6-1.1-0.9-1.8-0.9c-0.6,0-1.2,0.1-1.6,0.6C186.5,61.5,186.2,62.1,186.2,62.8z"/>
	<path d="M200.2,65.1l1.5,0.1c-0.3,0.9-0.6,1.5-1.3,2.1c-0.6,0.5-1.5,0.8-2.4,0.8c-1.2,0-2.3-0.4-3-1.2c-0.7-0.8-1-1.8-1-3.3
		s0.3-2.5,1-3.3c0.7-0.8,1.7-1.2,2.8-1.2c1.2,0,2.1,0.5,2.8,1.2c0.7,0.8,1,1.8,1,3.3c0,0.1,0,0.1,0,0.5h-6.3c0,0.9,0.3,1.6,0.8,2.1
		c0.5,0.4,1,0.8,1.8,0.8c0.6,0,1-0.1,1.3-0.5C199.5,66.1,199.8,65.7,200.2,65.1z M195.3,62.8h4.8c0-0.8-0.3-1.2-0.6-1.6
		c-0.5-0.6-1-0.9-1.8-0.9c-0.6,0-1.2,0.1-1.7,0.6C195.7,61.5,195.3,62.1,195.3,62.8z"/>
	<path d="M207.7,68.5l1.4,0.1c0,0.4,0.1,0.8,0.4,0.9c0.3,0.3,0.9,0.4,1.5,0.4s1.2-0.1,1.5-0.4c0.3-0.3,0.6-0.6,0.8-1.2
		c0-0.3,0.2-0.9,0.2-1.8c-0.6,0.8-1.3,1-2.4,1c-1.2,0-2.1-0.4-2.7-1.2c-0.6-0.9-0.9-1.8-0.9-3c0-0.8,0.2-1.5,0.5-2.3
		c0.3-0.8,0.8-1.2,1.3-1.6c0.6-0.5,1.2-0.6,1.9-0.6c1.1,0,1.8,0.4,2.6,1.2v-1h1.3v7.4c0,1.4-0.2,2.3-0.5,2.9c-0.3,0.6-0.8,1-1.3,1.4
		c-0.6,0.3-1.4,0.4-2.1,0.4c-1,0-1.8-0.3-2.4-0.8C208,70.2,207.7,69.4,207.7,68.5z M208.8,63.4c0,1,0.2,1.9,0.6,2.4
		c0.4,0.4,1,0.8,1.6,0.8s1.2-0.3,1.7-0.8c0.4-0.5,0.8-1.4,0.8-2.4c0-1.1-0.3-1.8-0.8-2.4s-1.1-0.8-1.7-0.8s-1.2,0.3-1.6,0.8
		C209,61.5,208.8,62.4,208.8,63.4z"/>
	<path d="M217.1,57.7v-1.6h1.5v1.6H217.1z M217.1,67.8v-8.6h1.5v8.6H217.1z"/>
	<path d="M221.2,67.8v-7.4h-1.3v-1.2h1.3v-0.9c0-0.6,0-1,0.2-1.4c0.1-0.3,0.4-0.8,0.8-0.9c0.3-0.3,0.9-0.3,1.5-0.3
		c0.4,0,0.9,0,1.3,0.1l-0.1,1.2c-0.3,0-0.6-0.1-0.9-0.1c-0.4,0-0.8,0.1-0.9,0.3c-0.2,0.1-0.3,0.6-0.3,1V59h1.7v1.2h-1.8v7.5h-1.5
		V67.8z"/>
	<path d="M228.5,66.6l0.1,1.4c-0.4,0.1-0.8,0.1-1,0.1c-0.6,0-0.9-0.1-1.2-0.3c-0.3-0.1-0.4-0.5-0.6-0.6c-0.2-0.3-0.2-0.9-0.2-1.6v-5
		h-1v-1.2h1v-2.1l1.5-0.9v3h1.5v1.2h-1.5v5c0,0.4,0,0.8,0.2,0.8c0,0.1,0.1,0.1,0.3,0.3c0.2,0,0.3,0.1,0.5,0.1
		C228,66.6,228.2,66.6,228.5,66.6z"/>
	<path d="M236.2,67.8l-2.5-8.6h1.5l1.3,5l0.4,1.8c0-0.1,0.2-0.8,0.5-1.8l1.3-5h1.5l1.3,5l0.5,1.6l0.4-1.6l1.5-5h1.3l-2.7,8.6H241
		l-1.3-5.1l-0.3-1.5l-1.8,6.6H236.2z"/>
	<path d="M246.3,57.7v-1.6h1.5v1.6H246.3z M246.3,67.8v-8.6h1.5v8.6H246.3z"/>
	<path d="M253.3,66.6l0.1,1.4c-0.4,0.1-0.8,0.1-1,0.1c-0.6,0-0.9-0.1-1.2-0.3c-0.3-0.1-0.4-0.5-0.6-0.6c-0.2-0.3-0.2-0.9-0.2-1.6v-5
		h-1v-1.2h1v-2.1l1.5-0.9v3h1.5v1.2h-1.5v5c0,0.4,0,0.8,0.2,0.8c0,0.1,0.1,0.1,0.3,0.3c0.2,0,0.3,0.1,0.5,0.1
		C252.8,66.6,253,66.6,253.3,66.6z"/>
	<path d="M254.6,67.8V55.9h1.5v4.4c0.8-0.8,1.5-1.2,2.6-1.2c0.6,0,1.2,0.1,1.7,0.3c0.5,0.3,0.8,0.6,1,1c0.3,0.5,0.3,1.1,0.3,2v5.4
		h-1.5v-5.4c0-0.8-0.2-1.2-0.4-1.6c-0.3-0.3-0.8-0.5-1.4-0.5c-0.4,0-0.9,0.1-1.2,0.3c-0.3,0.2-0.6,0.4-0.8,0.9
		c-0.2,0.4-0.3,0.9-0.3,1.6v4.6h-1.5V67.8L254.6,67.8z"/>
	<path d="M268.4,71.1V59.2h1.4v1.1c0.3-0.5,0.6-0.8,1-1.1c0.5-0.1,0.9-0.3,1.3-0.3c0.8,0,1.3,0.1,1.9,0.6c0.6,0.3,1.1,0.9,1.2,1.6
		c0.3,0.8,0.5,1.5,0.5,2.3c0,0.9-0.2,1.6-0.5,2.4c-0.3,0.8-0.8,1.2-1.3,1.6c-0.6,0.3-1.2,0.6-1.9,0.6c-0.5,0-0.9-0.1-1.4-0.3
		c-0.4-0.2-0.8-0.4-0.9-0.8v4.2H268.4L268.4,71.1z M269.8,63.6c0,1.1,0.1,2,0.6,2.4c0.5,0.6,1.1,0.8,1.7,0.8s1.2-0.3,1.6-0.8
		c0.5-0.6,0.8-1.4,0.8-2.5s-0.1-2-0.6-2.4c-0.5-0.6-1.1-0.8-1.7-0.8c-0.6,0-1.2,0.3-1.6,0.9C269.9,61.6,269.8,62.5,269.8,63.6z"/>
	<path d="M283.1,67.8v-1.2c-0.6,0.9-1.5,1.5-2.7,1.5c-0.4,0-0.9-0.1-1.3-0.3c-0.5-0.1-0.8-0.5-0.9-0.8c-0.2-0.3-0.3-0.6-0.4-1.1
		c0-0.3-0.2-0.8-0.2-1.4v-5.3h1.5V64c0,0.8,0,1.2,0.2,1.5c0.1,0.4,0.3,0.8,0.6,0.9c0.3,0.1,0.6,0.3,1.1,0.3s0.9-0.1,1.2-0.3
		c0.3-0.2,0.6-0.6,0.8-0.9c0.2-0.5,0.3-0.9,0.3-1.6v-4.5h1.5v8.3L283.1,67.8L283.1,67.8z"/>
	<path d="M286.7,67.8v-8.6h1.3v1.4c0.3-0.6,0.6-1,0.9-1.2c0.3-0.1,0.6-0.3,0.9-0.3c0.5,0,1,0.1,1.5,0.5l-0.4,1.3
		c-0.3-0.1-0.8-0.3-1-0.3c-0.2,0-0.6,0.1-0.9,0.3c-0.3,0.2-0.4,0.4-0.6,0.8c-0.2,0.4-0.3,1-0.3,1.6v4.5
		C288.1,67.8,286.7,67.8,286.7,67.8z"/>
	<path d="M297.8,64.8l1.3,0.1c-0.2,1-0.6,1.8-1.2,2.3c-0.6,0.6-1.5,0.9-2.4,0.9c-1.2,0-2.1-0.5-2.8-1.2c-0.7-0.7-1.1-1.8-1.1-3.3
		c0-0.9,0.2-1.8,0.4-2.4c0.3-0.8,0.8-1.2,1.4-1.5c0.6-0.3,1.3-0.5,2.1-0.5c0.9,0,1.7,0.3,2.3,0.8s0.9,1.2,1.2,2l-1.3,0.1
		c-0.2-0.6-0.3-1.1-0.8-1.4c-0.3-0.3-0.8-0.5-1.2-0.5c-0.8,0-1.4,0.3-1.8,0.8s-0.8,1.4-0.8,2.6c0,1.2,0.2,1.9,0.6,2.5
		c0.4,0.6,1,0.8,1.7,0.8c0.6,0,1.1-0.1,1.3-0.4C297.3,66,297.7,65.4,297.8,64.8z"/>
	<path d="M300.3,67.8V55.9h1.5v4.4c0.8-0.8,1.5-1.2,2.6-1.2c0.6,0,1.2,0.1,1.7,0.3c0.5,0.3,0.8,0.6,1,1c0.3,0.5,0.3,1.1,0.3,2v5.4
		h-1.5v-5.4c0-0.8-0.2-1.2-0.4-1.6c-0.3-0.3-0.8-0.5-1.4-0.5c-0.4,0-0.9,0.1-1.2,0.3c-0.3,0.2-0.6,0.4-0.8,0.9
		c-0.2,0.4-0.3,0.9-0.3,1.6v4.6h-1.5L300.3,67.8L300.3,67.8z"/>
	<path d="M315.2,66.7c-0.6,0.5-1.1,0.8-1.5,0.9c-0.4,0.1-1.1,0.3-1.7,0.3c-0.9,0-1.7-0.3-2.1-0.8c-0.4-0.5-0.8-1.1-0.8-1.8
		c0-0.4,0.2-0.8,0.3-1.2c0.1-0.3,0.4-0.6,0.8-0.9c0.3-0.1,0.6-0.3,1-0.5c0.3,0,0.8-0.1,1.3-0.1c1.2-0.1,2.1-0.3,2.6-0.4
		c0-0.1,0-0.3,0-0.5c0-0.6-0.2-1-0.5-1.2c-0.3-0.3-0.9-0.5-1.7-0.5c-0.8,0-1.2,0.1-1.5,0.3c-0.3,0.3-0.6,0.6-0.8,1.2l-1.3-0.1
		c0.2-0.6,0.3-1,0.6-1.5c0.3-0.3,0.8-0.6,1.3-0.9c0.6-0.1,1.2-0.3,2-0.3c0.8,0,1.3,0.1,1.8,0.3c0.5,0.1,0.8,0.5,1,0.6
		c0.2,0.3,0.3,0.6,0.5,1.1c0,0.3,0,0.8,0,1.4V64c0,1.4,0,2.3,0.2,2.6c0.2,0.3,0.2,0.8,0.3,1h-1.5C315.3,67.5,315.2,67.2,315.2,66.7z
		 M315,63.6c-0.6,0.1-1.3,0.5-2.4,0.6c-0.6,0.1-1.1,0.1-1.2,0.3c-0.2,0.2-0.5,0.3-0.6,0.4c-0.1,0.1-0.1,0.5-0.1,0.8
		c0,0.5,0.1,0.8,0.4,0.9c0.3,0.3,0.8,0.5,1.3,0.5s1-0.1,1.5-0.3c0.5-0.3,0.8-0.6,0.9-1c0.2-0.3,0.3-0.8,0.3-1.5L315,63.6L315,63.6z"
		/>
	<path d="M318.2,65.4l1.5-0.3c0.2,0.6,0.3,1.1,0.6,1.4c0.3,0.3,0.9,0.5,1.5,0.5s1.2-0.1,1.5-0.5c0.3-0.3,0.5-0.6,0.5-0.9
		c0-0.3-0.2-0.6-0.5-0.8c-0.2-0.1-0.8-0.3-1.5-0.4c-1-0.3-1.8-0.5-2.3-0.8c-0.5-0.1-0.8-0.5-0.9-0.8c-0.2-0.3-0.3-0.8-0.3-1.2
		s0.2-0.8,0.3-1c0.2-0.3,0.4-0.6,0.8-0.8c0.2-0.1,0.6-0.3,0.9-0.5c0.5-0.1,0.8-0.1,1.2-0.1c0.6,0,1.2,0.1,1.8,0.3
		c0.5,0.1,0.9,0.4,1,0.8c0.1,0.3,0.5,0.8,0.5,1.4l-1.3,0.1c0-0.5-0.3-0.8-0.6-1.1c-0.3-0.3-0.8-0.3-1.3-0.3s-1.2,0.1-1.3,0.3
		c-0.3,0.1-0.5,0.5-0.5,0.8c0,0.1,0,0.3,0.2,0.5c0.1,0.1,0.3,0.3,0.6,0.4c0.2,0,0.6,0.1,1.4,0.3c1,0.3,1.8,0.4,2.1,0.6
		c0.3,0.2,0.8,0.4,0.9,0.8c0.3,0.3,0.3,0.8,0.3,1.2c0,0.5-0.2,0.9-0.5,1.4c-0.3,0.5-0.8,0.8-1.2,1.1c-0.6,0.3-1.2,0.3-1.8,0.3
		c-1,0-1.9-0.3-2.5-0.8C318.7,66.9,318.3,66.3,318.2,65.4z"/>
	<path d="M332.8,65.1l1.5,0.1c-0.3,0.9-0.6,1.5-1.4,2.1c-0.6,0.5-1.5,0.8-2.4,0.8c-1.2,0-2.3-0.4-3-1.2c-0.7-0.8-1.1-1.8-1.1-3.3
		s0.3-2.5,1.1-3.3c0.8-0.8,1.6-1.2,2.8-1.2c1.2,0,2.1,0.5,2.9,1.2c0.8,0.7,1,1.8,1,3.3c0,0.1,0,0.1,0,0.5h-6.3
		c0,0.9,0.3,1.6,0.8,2.1c0.5,0.4,1,0.8,1.8,0.8c0.6,0,1-0.1,1.3-0.5C332.3,66.1,332.6,65.7,332.8,65.1z M328.1,62.8h4.8
		c0-0.8-0.3-1.2-0.6-1.6c-0.5-0.6-1-0.9-1.8-0.9c-0.6,0-1.2,0.1-1.7,0.6C328.4,61.3,328.1,62.1,328.1,62.8z"/>
	<path d="M336.5,67.8v-1.5h1.6v1.5H336.5z"/>
</g>
<g class="st1">
	<path class="st4" d="M9.6,94.3V82.5h7.9v1.4h-6.4v3.6h5.5v1.4h-5.5v5.4H9.6L9.6,94.3z"/>
	<path class="st4" d="M25.2,91.5l1.5,0.2c-0.3,0.9-0.6,1.5-1.3,2.1c-0.6,0.5-1.5,0.8-2.4,0.8c-1.2,0-2.3-0.5-3-1.2s-1-1.8-1-3.3
		s0.3-2.5,1-3.3s1.7-1.2,2.8-1.2c1.2,0,2.1,0.5,2.8,1.2s1.1,1.8,1.1,3.3c0,0.2,0,0.2,0,0.5h-6.3c0,0.9,0.3,1.6,0.8,2.1
		c0.5,0.4,1,0.8,1.8,0.8c0.6,0,1.1-0.1,1.3-0.4C24.6,92.5,24.9,92.2,25.2,91.5z M20.4,89.2h4.8c0-0.8-0.3-1.2-0.6-1.6
		c-0.5-0.6-1.1-0.9-1.8-0.9c-0.6,0-1.2,0.2-1.7,0.6C20.7,87.9,20.6,88.5,20.4,89.2z"/>
	<path class="st4" d="M34.1,93.3c-0.6,0.5-1,0.8-1.5,0.9c-0.4,0.2-1,0.3-1.7,0.3c-0.9,0-1.6-0.3-2.1-0.8c-0.4-0.5-0.8-1-0.8-1.8
		c0-0.5,0.2-0.8,0.3-1.2c0.2-0.3,0.4-0.6,0.8-0.9c0.3-0.2,0.6-0.3,1-0.4c0.3,0,0.8-0.2,1.4-0.2c1.2-0.1,2.1-0.3,2.5-0.4
		c0-0.2,0-0.3,0-0.4c0-0.6-0.2-1.1-0.5-1.2c-0.3-0.3-0.9-0.4-1.6-0.4s-1.2,0.2-1.5,0.3c-0.3,0.2-0.6,0.6-0.8,1.2l-1.4-0.1
		c0.2-0.6,0.3-1.1,0.6-1.5c0.3-0.3,0.8-0.6,1.3-0.9c0.6-0.1,1.2-0.3,2-0.3s1.3,0.2,1.8,0.3s0.8,0.4,1,0.6c0.2,0.3,0.3,0.6,0.5,1
		c0,0.3,0,0.8,0,1.4v1.9c0,1.4,0,2.3,0.2,2.6c0.1,0.3,0.1,0.8,0.3,1h-1.5C34.2,94,34.1,93.6,34.1,93.3z M33.9,90
		c-0.6,0.2-1.3,0.4-2.4,0.6c-0.6,0.1-1.1,0.1-1.2,0.3c-0.3,0.2-0.4,0.3-0.6,0.5c-0.2,0.1-0.2,0.4-0.2,0.8s0.2,0.8,0.5,0.9
		c0.3,0.2,0.8,0.4,1.3,0.4s1-0.1,1.5-0.3c0.5-0.3,0.8-0.6,0.9-1.1c0.1-0.3,0.3-0.8,0.3-1.5L33.9,90C34.1,90,33.9,90,33.9,90z"/>
	<path class="st4" d="M40.8,93l0.2,1.3c-0.4,0.1-0.8,0.1-1.1,0.1c-0.6,0-0.9-0.1-1.2-0.3c-0.3-0.1-0.4-0.5-0.6-0.6
		c-0.2-0.2-0.2-0.9-0.2-1.8v-4.9h-1v-1.1H38v-2.1l1.5-0.9v3H41v1.2h-1.5v5c0,0.5,0,0.8,0.2,0.8c0,0.2,0.2,0.2,0.3,0.3
		c0.2,0,0.3,0.2,0.5,0.2C40.4,93.1,40.6,93,40.8,93z"/>
	<path class="st4" d="M47.9,94.3v-1.2c-0.6,0.9-1.5,1.5-2.7,1.5c-0.4,0-0.9-0.2-1.4-0.3c-0.4-0.2-0.8-0.5-0.9-0.8s-0.3-0.6-0.4-1.1
		c0-0.3-0.2-0.8-0.2-1.3v-5.4h1.5v4.8c0,0.8,0,1.2,0.2,1.5c0.2,0.4,0.3,0.8,0.6,0.9c0.3,0.2,0.6,0.3,1.1,0.3s0.9-0.2,1.2-0.3
		c0.5-0.1,0.6-0.6,0.8-0.9c0.1-0.5,0.3-0.9,0.3-1.7v-4.4h1.5v8.6h-1.6V94.3z"/>
	<path class="st4" d="M51.5,94.3v-8.5h1.4v1.3c0.3-0.6,0.6-1,0.9-1.2c0.3-0.1,0.6-0.3,0.9-0.3c0.4,0,1.1,0.2,1.5,0.5l-0.4,1.3
		c-0.3-0.1-0.8-0.3-1.1-0.3s-0.6,0.2-0.9,0.3c-0.3,0.1-0.4,0.4-0.6,0.8c-0.1,0.4-0.3,1.1-0.3,1.7v4.5h-1.4V94.3z"/>
	<path class="st4" d="M62.7,91.5l1.5,0.2c-0.3,0.9-0.6,1.5-1.4,2.1c-0.6,0.5-1.5,0.8-2.4,0.8c-1.2,0-2.3-0.5-3-1.2s-1.1-1.8-1.1-3.3
		s0.3-2.5,1.1-3.3s1.6-1.2,2.9-1.2c1.2,0,2.1,0.5,2.9,1.2s1.1,1.8,1.1,3.3c0,0.2,0,0.2,0,0.5H58c0,0.9,0.3,1.6,0.8,2.1
		c0.4,0.4,1.1,0.8,1.8,0.8c0.6,0,1.1-0.1,1.4-0.4C62.3,92.5,62.6,92.2,62.7,91.5z M57.9,89.2h4.8c0-0.8-0.3-1.2-0.6-1.6
		c-0.4-0.6-1.1-0.9-1.8-0.9c-0.6,0-1.2,0.2-1.6,0.6C58.2,87.9,58.1,88.5,57.9,89.2z"/>
	<path class="st4" d="M65.4,91.8l1.5-0.3c0.1,0.6,0.3,1.1,0.6,1.4c0.3,0.3,0.9,0.4,1.5,0.4s1.2-0.2,1.5-0.4c0.3-0.3,0.4-0.6,0.4-0.9
		s-0.1-0.6-0.4-0.8c-0.1-0.1-0.8-0.3-1.5-0.4c-1.1-0.3-1.8-0.4-2.3-0.8c-0.4-0.2-0.8-0.4-0.9-0.8s-0.3-0.8-0.3-1.2
		c0-0.5,0.1-0.8,0.3-1.1c0.1-0.3,0.4-0.6,0.8-0.8c0.1-0.2,0.6-0.3,0.9-0.4c0.3-0.2,0.8-0.2,1.2-0.2c0.6,0,1.2,0.2,1.8,0.3
		c0.4,0.1,0.9,0.4,1.1,0.8c0.3,0.3,0.4,0.8,0.4,1.3l-1.4,0.2c0-0.4-0.3-0.8-0.6-1.1c-0.3-0.3-0.8-0.3-1.4-0.3
		c-0.6,0-1.2,0.2-1.4,0.3c-0.1,0.3-0.3,0.6-0.3,0.9c0,0.2,0,0.3,0.1,0.4c0.1,0.2,0.3,0.3,0.6,0.5c0.1,0,0.6,0.1,1.4,0.3
		c1.1,0.3,1.8,0.5,2.1,0.6c0.4,0.1,0.8,0.4,0.9,0.8s0.3,0.8,0.3,1.2s-0.1,0.9-0.4,1.4c-0.3,0.4-0.8,0.7-1.2,1
		c-0.4,0.3-1.2,0.3-1.8,0.3c-1.1,0-1.9-0.3-2.6-0.8C66,93.3,65.6,92.7,65.4,91.8z"/>
	<path class="st4" d="M74.7,87.4v-1.6h1.6v1.6H74.7z M74.7,94.3v-1.7h1.6v1.7H74.7z"/>
	<path class="st4" d="M83.7,94.3V82.5H89c1.1,0,1.8,0.1,2.4,0.3c0.6,0.2,1.1,0.6,1.4,1.1c0.3,0.6,0.4,1.2,0.4,1.8
		c0,0.9-0.3,1.5-0.8,2.1c-0.6,0.6-1.4,0.9-2.6,1.1c0.4,0.1,0.8,0.4,0.9,0.6c0.4,0.5,0.9,0.9,1.4,1.5l2.1,3.2h-1.9l-1.8-2.3
		c-0.4-0.8-0.9-1.2-1.2-1.7c-0.3-0.4-0.6-0.6-0.8-0.8c-0.3-0.1-0.4-0.3-0.8-0.3c-0.1,0-0.4,0-0.9,0H85v5.2L83.7,94.3L83.7,94.3z
		 M85.2,87.7h3.3c0.8,0,1.2,0,1.6-0.1c0.4-0.2,0.8-0.5,0.9-0.8c0.1-0.3,0.3-0.8,0.3-1.1c0-0.6-0.1-1.1-0.6-1.4
		c-0.4-0.3-1.1-0.6-1.9-0.6H85v3.9C85.1,87.7,85.2,87.7,85.2,87.7z"/>
	<path class="st4" d="M101.1,91.5l1.5,0.2c-0.3,0.9-0.6,1.5-1.4,2.1c-0.6,0.5-1.5,0.8-2.4,0.8c-1.2,0-2.3-0.5-3-1.2
		s-1.1-1.8-1.1-3.3s0.3-2.5,1.1-3.3s1.6-1.2,2.9-1.2c1.3,0,2.1,0.5,2.9,1.2c0.8,0.7,1,1.8,1,3.3c0,0.2,0,0.2,0,0.5h-6.3
		c0,0.9,0.3,1.6,0.8,2.1c0.5,0.4,1,0.8,1.8,0.8c0.6,0,1-0.1,1.4-0.4C100.7,92.5,101,92.2,101.1,91.5z M96.5,89.2h4.8
		c0-0.8-0.3-1.2-0.6-1.6c-0.5-0.6-1-0.9-1.8-0.9c-0.6,0-1.2,0.2-1.6,0.6C96.8,87.9,96.5,88.5,96.5,89.2z"/>
	<path class="st4" d="M110,94.3v-1c-0.6,0.9-1.4,1.2-2.4,1.2c-0.8,0-1.4-0.2-2-0.6c-0.6-0.3-1-0.9-1.4-1.5c-0.3-0.6-0.5-1.5-0.5-2.3
		c0-0.9,0.1-1.6,0.5-2.3c0.3-0.8,0.8-1.2,1.4-1.6c0.6-0.3,1.2-0.6,2-0.6c0.5,0,0.9,0.2,1.4,0.3s0.8,0.4,1,0.9v-4.2h1.5v11.9H110
		V94.3z M105.5,90c0,1.1,0.3,1.9,0.8,2.4c0.5,0.6,1,0.8,1.6,0.8c0.6,0,1.2-0.3,1.6-0.8c0.5-0.5,0.6-1.4,0.6-2.4
		c0-1.2-0.1-2.1-0.8-2.6c-0.6-0.4-1-0.8-1.6-0.8s-1.2,0.3-1.6,0.8C105.6,88,105.5,88.9,105.5,90z"/>
	<path class="st4" d="M119.9,94.3l-2.7-8.5h1.5l1.4,4.9l0.5,1.8c0-0.2,0.1-0.8,0.5-1.8l1.4-4.9h1.5l1.4,4.9l0.5,1.7l0.5-1.7l1.5-4.9
		h1l-2.7,8.5h-1.5l-1.4-5.1l-0.3-1.5l-1.8,6.6H119.9z"/>
	<path class="st4" d="M130.1,84.1v-1.6h1.5v1.6H130.1z M130.1,94.3v-8.5h1.5v8.5H130.1z"/>
	<path class="st4" d="M133.9,94.3v-8.5h1.4V87c0.6-0.9,1.5-1.3,2.7-1.3c0.5,0,1,0.1,1.3,0.3c0.5,0.2,0.8,0.5,0.9,0.8
		c0.2,0.3,0.3,0.6,0.5,1.1c0,0.3,0.1,0.8,0.1,1.4v5.2h-1.5v-5.3c0-0.6,0-1.1-0.1-1.4c-0.1-0.3-0.3-0.4-0.6-0.7s-0.6-0.3-1-0.3
		c-0.6,0-1.2,0.2-1.6,0.6c-0.5,0.4-0.6,1.2-0.6,2.3v4.6L133.9,94.3L133.9,94.3z"/>
	<path class="st4" d="M148.8,91.5l1.5,0.2c-0.3,0.9-0.6,1.5-1.3,2.1c-0.6,0.5-1.5,0.8-2.4,0.8c-1.2,0-2.3-0.5-3-1.2
		c-0.7-0.7-1-1.8-1-3.3s0.3-2.5,1-3.3c0.7-0.8,1.7-1.2,2.9-1.2s2.1,0.5,2.9,1.2c0.8,0.7,1,1.8,1,3.3c0,0.2,0,0.2,0,0.5h-6.3
		c0,0.9,0.3,1.6,0.8,2.1c0.4,0.4,1,0.8,1.8,0.8c0.6,0,1.1-0.1,1.4-0.4C148.2,92.5,148.5,92.2,148.8,91.5z M144,89.2h4.8
		c0-0.8-0.3-1.2-0.6-1.6c-0.5-0.6-1.1-0.9-1.8-0.9c-0.6,0-1.2,0.2-1.6,0.6C144.3,87.9,144,88.5,144,89.2z"/>
	<path class="st4" d="M151.5,91.8l1.5-0.3c0.1,0.6,0.3,1.1,0.6,1.4c0.3,0.3,0.9,0.4,1.5,0.4c0.6,0,1.2-0.2,1.5-0.4
		c0.3-0.3,0.4-0.6,0.4-0.9s-0.1-0.6-0.4-0.8c-0.2-0.1-0.8-0.3-1.5-0.4c-1.1-0.3-1.8-0.4-2.3-0.8c-0.5-0.2-0.8-0.4-0.9-0.8
		s-0.3-0.8-0.3-1.2c0-0.5,0.1-0.8,0.3-1.1s0.5-0.6,0.8-0.8c0.2-0.2,0.6-0.3,0.9-0.4c0.3-0.2,0.8-0.2,1.2-0.2c0.6,0,1.2,0.2,1.8,0.3
		c0.4,0.1,0.9,0.4,1,0.8c0.3,0.3,0.5,0.8,0.5,1.3l-1.4,0.2c0-0.4-0.3-0.8-0.6-1.1c-0.3-0.3-0.8-0.3-1.3-0.3s-1.2,0.2-1.3,0.3
		c-0.3,0.2-0.5,0.4-0.5,0.8c0,0.2,0,0.3,0.2,0.4c0.2,0.2,0.3,0.3,0.6,0.5c0.2,0,0.6,0.1,1.4,0.3c1,0.3,1.8,0.5,2.1,0.6
		c0.4,0.1,0.8,0.4,0.9,0.8c0.1,0.4,0.3,0.8,0.3,1.2s-0.2,0.9-0.5,1.4c-0.3,0.4-0.8,0.7-1.2,1c-0.5,0.3-1.2,0.3-1.8,0.3
		c-1,0-2-0.3-2.5-0.8C152.2,93.3,151.7,92.7,151.5,91.8z"/>
	<path class="st4" d="M160.7,94.3v-1.7h1.6v1.7c0,0.6-0.1,1-0.3,1.5c-0.2,0.3-0.6,0.6-1.1,0.9l-0.4-0.6c0.3-0.2,0.6-0.3,0.8-0.6
		c0.1-0.3,0.1-0.6,0.3-1L160.7,94.3L160.7,94.3z"/>
	<path class="st4" d="M171.8,94.3l-3.1-11.9h1.6l1.8,7.8c0.2,0.8,0.3,1.7,0.5,2.4c0.3-1.2,0.5-2,0.6-2.3l2.3-8h1.9l1.7,6
		c0.5,1.5,0.8,2.9,0.9,4.2c0.1-0.8,0.3-1.7,0.6-2.6l1.8-7.5h1.5l-3.3,11.8h-1.5l-2.5-9c-0.1-0.8-0.3-1.2-0.3-1.3
		c-0.2,0.6-0.3,1.1-0.3,1.3l-2.5,9L171.8,94.3L171.8,94.3z"/>
	<path class="st4" d="M185,94.3V82.5h1.5v4.2c0.8-0.8,1.5-1.2,2.5-1.2c0.6,0,1.2,0.2,1.6,0.3c0.4,0.2,0.7,0.6,1.1,1.1
		c0.2,0.4,0.3,1.1,0.3,1.9v5.4h-1.5v-5.4c0-0.8-0.1-1.2-0.5-1.7c-0.3-0.3-0.8-0.4-1.3-0.4s-0.9,0.2-1.2,0.3
		c-0.3,0.2-0.6,0.4-0.8,0.9c-0.1,0.5-0.3,0.9-0.3,1.7v4.6L185,94.3L185,94.3z"/>
	<path class="st4" d="M194.3,84.1v-1.6h1.5v1.6H194.3z M194.3,94.3v-8.5h1.5v8.5H194.3z"/>
	<path class="st4" d="M201,93l0.2,1.3c-0.5,0.1-0.8,0.1-1,0.1c-0.6,0-0.9-0.1-1.2-0.3c-0.3-0.1-0.5-0.5-0.6-0.6
		c-0.1-0.2-0.2-0.9-0.2-1.7v-4.9h-1v-1.2h1v-2.1l1.5-0.9v3h1.5v1.2h-1.5v5c0,0.5,0,0.8,0.2,0.8c0,0.2,0.2,0.2,0.3,0.3
		c0.2,0,0.3,0.2,0.5,0.2C200.6,93.1,200.7,93,201,93z"/>
	<path class="st4" d="M208.3,91.5l1.5,0.2c-0.3,0.9-0.6,1.5-1.4,2.1c-0.6,0.5-1.5,0.8-2.4,0.8c-1.2,0-2.3-0.5-3-1.2
		c-0.7-0.7-1.1-1.8-1.1-3.3s0.3-2.5,1.1-3.3c0.8-0.8,1.6-1.2,2.8-1.2c1.2,0,2.1,0.5,2.9,1.2s1,1.8,1,3.3c0,0.2,0,0.2,0,0.5h-6.3
		c0,0.9,0.3,1.6,0.8,2.1c0.4,0.4,1,0.8,1.8,0.8c0.6,0,1-0.1,1.3-0.4C207.8,92.5,208.1,92.2,208.3,91.5z M203.6,89.2h4.8
		c0-0.8-0.3-1.2-0.6-1.6c-0.5-0.6-1-0.9-1.8-0.9c-0.6,0-1.2,0.2-1.7,0.6C203.9,87.9,203.6,88.5,203.6,89.2z"/>
	<path class="st4" d="M217.7,94.3l-2.6-8.6h1.5l1.4,4.9l0.4,1.8c0-0.1,0.2-0.8,0.4-1.8l1.4-4.9h1.5l1.3,4.9l0.5,1.7l0.5-1.7l1.5-4.9
		h1.3l-2.7,8.6h-1.5l-1.3-5.1l-0.3-1.5l-1.8,6.6H217.7z"/>
	<path class="st4" d="M228,84.1v-1.6h1.5v1.6H228z M228,94.3v-8.5h1.5v8.5H228z"/>
	<path class="st4" d="M231.8,94.3v-8.5h1.3V87c0.6-0.9,1.5-1.3,2.7-1.3c0.5,0,1.1,0.1,1.4,0.3c0.4,0.2,0.8,0.5,0.9,0.8
		c0.2,0.3,0.3,0.6,0.5,1.1c0,0.3,0.2,0.8,0.2,1.4v5.2h-1.5v-5.3c0-0.6,0-1.1-0.2-1.4c-0.2-0.3-0.3-0.4-0.6-0.8
		c-0.3-0.3-0.6-0.3-1.1-0.3c-0.6,0-1.2,0.1-1.6,0.6c-0.5,0.4-0.6,1.2-0.6,2.3v4.7L231.8,94.3L231.8,94.3z"/>
	<path class="st4" d="M246.8,91.5l1.5,0.2c-0.3,0.9-0.6,1.5-1.3,2.1c-0.6,0.5-1.5,0.8-2.4,0.8c-1.2,0-2.3-0.5-3-1.2
		c-0.8-0.8-1-1.8-1-3.3s0.3-2.5,1-3.3c0.7-0.8,1.7-1.2,2.8-1.2c1.2,0,2.1,0.5,2.8,1.2c0.7,0.7,1,1.8,1,3.3c0,0.2,0,0.2,0,0.5h-6.3
		c0,0.9,0.3,1.6,0.8,2.1c0.4,0.4,1,0.8,1.8,0.8c0.6,0,1-0.1,1.3-0.4C246.2,92.5,246.5,92.2,246.8,91.5z M242,89.2h4.8
		c0-0.8-0.3-1.2-0.6-1.6c-0.4-0.6-1.1-0.9-1.8-0.9c-0.6,0-1.2,0.2-1.6,0.6C242.3,87.7,242,88.5,242,89.2z"/>
	<path class="st4" d="M249.5,91.8l1.5-0.3c0.1,0.6,0.3,1.1,0.6,1.4c0.3,0.3,0.9,0.4,1.5,0.4s1.2-0.2,1.5-0.4
		c0.3-0.3,0.5-0.6,0.5-0.9s-0.2-0.6-0.5-0.8c-0.1-0.1-0.8-0.3-1.5-0.4c-1-0.3-1.8-0.4-2.3-0.8c-0.4-0.2-0.8-0.4-0.9-0.8
		c-0.2-0.3-0.3-0.8-0.3-1.2c0-0.5,0.2-0.8,0.3-1.1s0.4-0.6,0.8-0.8c0.1-0.2,0.6-0.3,0.9-0.4c0.5-0.2,0.8-0.2,1.2-0.2
		c0.6,0,1.2,0.2,1.8,0.3c0.5,0.1,0.9,0.4,1.1,0.8s0.4,0.8,0.4,1.3l-1.3,0.2c0-0.4-0.3-0.8-0.6-1.1c-0.3-0.3-0.8-0.3-1.3-0.3
		c-0.6,0-1.2,0.2-1.4,0.3c-0.3,0.2-0.4,0.4-0.4,0.8c0,0.2,0,0.3,0.2,0.4c0.2,0.2,0.3,0.3,0.6,0.5c0.2,0,0.6,0.1,1.3,0.3
		c1,0.3,1.8,0.5,2.1,0.6c0.3,0.1,0.8,0.4,0.9,0.8c0.3,0.3,0.3,0.8,0.3,1.2s-0.1,0.9-0.4,1.4c-0.3,0.4-0.8,0.7-1.2,1
		c-0.6,0.3-1.2,0.3-1.8,0.3c-1.1,0-1.9-0.3-2.6-0.8C250,93.3,249.7,92.7,249.5,91.8z"/>
	<path class="st4" d="M258.7,94.3v-1.7h1.7v1.7c0,0.6-0.2,1-0.3,1.5c-0.2,0.3-0.6,0.6-1.1,0.9l-0.4-0.6c0.3-0.2,0.6-0.3,0.8-0.6
		c0.2-0.3,0.3-0.6,0.3-1L258.7,94.3L258.7,94.3z"/>
</g>
<g class="st1">
	<path class="st4" d="M269.8,94.3l-3.2-11.9h1.7l1.8,7.8c0.2,0.8,0.3,1.7,0.5,2.4c0.3-1.2,0.4-2,0.6-2.3l2.3-8h2l1.7,6
		c0.4,1.5,0.8,2.9,0.9,4.2c0.2-0.8,0.3-1.7,0.6-2.6l1.8-7.5h1.5l-3.3,11.8h-1.5l-2.6-9c-0.1-0.8-0.3-1.2-0.3-1.3
		c-0.2,0.6-0.3,1.1-0.3,1.3l-2.6,9L269.8,94.3L269.8,94.3z"/>
</g>
<g class="st1">
	<path class="st4" d="M281.3,94.3l4.5-11.9h1.7l4.8,11.9h-1.8l-1.3-3.6h-5l-1.3,3.6H281.3z M284.8,89.5h4l-1.2-3.3
		c-0.3-1.1-0.6-1.8-0.9-2.4c-0.2,0.8-0.3,1.5-0.6,2.3L284.8,89.5z"/>
</g>
<g class="st1">
	<path class="st4" d="M298.5,94.3l-2.5-8.5h1.5l1.3,4.9l0.5,1.8c0-0.2,0.2-0.8,0.5-1.8l1.3-4.9h1.5l1.4,4.9l0.4,1.7l0.4-1.7l1.5-4.9
		h1.4l-2.7,8.5h-1.5l-1.3-5.1l-0.3-1.5l-1.8,6.6H298.5z"/>
	<path class="st4" d="M308.9,84.1v-1.6h1.5v1.6H308.9z M308.9,94.3v-8.5h1.5v8.5H308.9z"/>
	<path class="st4" d="M312.7,94.3v-8.5h1.4V87c0.6-0.9,1.5-1.3,2.7-1.3c0.4,0,1.1,0.1,1.3,0.3c0.5,0.2,0.8,0.5,0.9,0.8
		c0.2,0.3,0.3,0.6,0.4,1.1c0,0.3,0.2,0.8,0.2,1.4v5.2h-1.5v-5.3c0-0.6,0-1.1-0.2-1.4c-0.1-0.3-0.3-0.4-0.6-0.8
		c-0.3-0.3-0.6-0.3-1.1-0.3c-0.6,0-1.2,0.1-1.7,0.6c-0.5,0.4-0.6,1.2-0.6,2.3v4.7L312.7,94.3L312.7,94.3z"/>
	<path class="st4" d="M327.7,91.5l1.5,0.2c-0.3,0.9-0.6,1.5-1.3,2.1c-0.6,0.5-1.5,0.8-2.4,0.8c-1.2,0-2.3-0.5-3-1.2
		c-0.8-0.8-1-1.8-1-3.3s0.3-2.5,1-3.3c0.7-0.8,1.7-1.2,2.9-1.2c1.2,0,2.1,0.5,2.8,1.2c0.7,0.7,1.1,1.8,1.1,3.3c0,0.2,0,0.2,0,0.5
		H323c0,0.9,0.3,1.6,0.8,2.1c0.5,0.4,1.1,0.8,1.8,0.8c0.6,0,1.1-0.1,1.3-0.4C327,92.5,327.3,92.2,327.7,91.5z M322.8,89.2h4.8
		c0-0.8-0.3-1.2-0.6-1.6c-0.5-0.6-1-0.9-1.8-0.9c-0.6,0-1.2,0.2-1.7,0.6C323.1,87.7,322.8,88.5,322.8,89.2z"/>
	<path class="st4" d="M330.3,91.8l1.5-0.3c0.2,0.6,0.3,1.1,0.6,1.4c0.3,0.3,0.9,0.4,1.5,0.4s1.2-0.2,1.5-0.4
		c0.3-0.3,0.5-0.6,0.5-0.9s-0.2-0.6-0.5-0.8c-0.2-0.1-0.8-0.3-1.5-0.4c-1-0.3-1.8-0.4-2.3-0.8c-0.5-0.2-0.8-0.4-0.9-0.8
		c-0.1-0.3-0.3-0.8-0.3-1.2c0-0.5,0.2-0.8,0.3-1.1c0.2-0.3,0.5-0.6,0.8-0.8c0.2-0.2,0.6-0.3,0.9-0.4c0.5-0.2,0.8-0.2,1.2-0.2
		c0.6,0,1.2,0.2,1.8,0.3c0.5,0.1,0.9,0.4,1,0.8s0.5,0.8,0.5,1.3l-1.4,0.2c0-0.4-0.3-0.8-0.6-1.1c-0.3-0.3-0.8-0.3-1.4-0.3
		s-1.2,0.2-1.3,0.3c-0.3,0.2-0.5,0.4-0.5,0.8c0,0.2,0,0.3,0.2,0.4c0.1,0.2,0.3,0.3,0.6,0.5c0.2,0,0.6,0.1,1.3,0.3
		c1.1,0.3,1.8,0.5,2.1,0.6s0.8,0.4,0.9,0.8c0.3,0.3,0.3,0.8,0.3,1.2s-0.2,0.9-0.5,1.4c-0.3,0.4-0.8,0.7-1.2,1
		c-0.6,0.3-1.2,0.3-1.8,0.3c-1,0-2-0.3-2.5-0.8C330.8,93.3,330.5,92.7,330.3,91.8z"/>
</g>
<g class="st1">
	<path class="st4" d="M14.9,117.6l1.3,0.1c-0.2,1-0.6,1.8-1.2,2.3c-0.6,0.6-1.5,0.9-2.4,0.9c-1.2,0-2.1-0.5-2.8-1.2s-1-1.8-1-3.3
		c0-0.9,0.2-1.8,0.5-2.4s0.8-1.2,1.3-1.5s1.3-0.5,2.1-0.5c0.9,0,1.7,0.3,2.3,0.8s0.9,1.2,1.2,2l-1.3,0.2c-0.2-0.6-0.3-1-0.8-1.4
		c-0.3-0.3-0.8-0.5-1.2-0.5c-0.8,0-1.3,0.3-1.8,0.8s-0.8,1.4-0.8,2.5c0,1.2,0.2,2,0.6,2.5c0.5,0.6,1.1,0.8,1.7,0.8s1-0.1,1.3-0.5
		C14.6,118.9,14.7,118.3,14.9,117.6z"/>
	<path class="st4" d="M17,116.5c0-1.7,0.5-2.7,1.3-3.5c0.8-0.6,1.7-0.9,2.7-0.9c1.2,0,2.1,0.5,2.9,1.2s1,1.8,1,3.2
		c0,1-0.1,2-0.4,2.5c-0.3,0.6-0.8,1-1.5,1.5s-1.4,0.5-2.1,0.5c-1.2,0-2.1-0.5-2.8-1.2S17,117.9,17,116.5z M18.5,116.5
		c0,1,0.3,2,0.8,2.4c0.5,0.6,1,0.8,1.8,0.8s1.3-0.3,1.8-0.8c0.5-0.6,0.8-1.3,0.8-2.5c0-1-0.3-1.8-0.8-2.4s-1-0.8-1.8-0.8
		s-1.3,0.3-1.8,0.8C18.8,114.6,18.5,115.3,18.5,116.5z"/>
	<path class="st4" d="M26.7,120.7v-11.8h1.5v4.2c0.8-0.8,1.5-1.2,2.6-1.2c0.6,0,1.2,0.2,1.6,0.3c0.5,0.2,0.8,0.6,1.1,1
		c0.1,0.5,0.3,1,0.3,2v5.4h-1.5v-5.4c0-0.8-0.2-1.2-0.4-1.6c-0.3-0.3-0.8-0.5-1.3-0.5s-0.9,0.1-1.2,0.3c-0.3,0.1-0.6,0.5-0.8,0.9
		s-0.3,0.9-0.3,1.7v4.6L26.7,120.7C26.8,120.6,26.8,120.7,26.7,120.7z"/>
	<path class="st4" d="M35.3,116.5c0-1.7,0.4-2.7,1.3-3.5c0.8-0.6,1.7-0.9,2.7-0.9c1.2,0,2.1,0.5,2.9,1.2c0.8,0.7,1.1,1.8,1.1,3.2
		c0,1-0.2,2-0.4,2.5c-0.3,0.6-0.8,1-1.5,1.5c-0.7,0.5-1.4,0.5-2.1,0.5c-1.2,0-2.1-0.5-2.8-1.2C35.7,119.1,35.3,117.9,35.3,116.5z
		 M36.8,116.5c0,1,0.3,2,0.8,2.4c0.4,0.6,1,0.8,1.8,0.8s1.3-0.3,1.8-0.8c0.4-0.6,0.8-1.3,0.8-2.5c0-1-0.3-1.8-0.8-2.4
		c-0.4-0.6-1.1-0.8-1.8-0.8s-1.3,0.3-1.8,0.8C37.1,114.6,36.8,115.3,36.8,116.5z"/>
	<path class="st4" d="M46.5,120.7l-2.6-8.6h1.5l1.3,5l0.5,1.8c0-0.1,0.1-0.8,0.4-1.8l1.4-5h1.5l1.4,5l0.4,1.7l0.4-1.7l1.5-5h1.4
		l-2.7,8.6h-1.5l-1.4-5.1l-0.3-1.5l-1.8,6.6H46.5z"/>
	<path class="st4" d="M56.9,110.7v-1.6h1.5v1.6H56.9z M56.9,120.7v-8.5h1.5v8.5H56.9z"/>
	<path class="st4" d="M60.6,120.7v-8.5H62v1.2c0.6-0.9,1.5-1.4,2.7-1.4c0.4,0,1.1,0.2,1.4,0.3c0.4,0.2,0.8,0.5,0.9,0.8
		s0.3,0.6,0.4,1c0,0.3,0.1,0.8,0.1,1.4v5.3H66v-5.3c0-0.6,0-1-0.1-1.4c-0.1-0.3-0.3-0.5-0.6-0.8c-0.3-0.3-0.6-0.3-1.1-0.3
		c-0.6,0-1.2,0.2-1.6,0.6c-0.3,0.6-0.6,1.3-0.6,2.4v4.6C62,120.7,60.6,120.7,60.6,120.7z"/>
	<path class="st4" d="M75.6,118l1.5,0.1c-0.3,0.9-0.6,1.5-1.4,2.1c-0.6,0.5-1.5,0.8-2.4,0.8c-1.2,0-2.3-0.5-3-1.2
		c-0.7-0.7-1.1-1.8-1.1-3.3s0.3-2.5,1.1-3.3c0.8-0.8,1.6-1.2,2.9-1.2c1.2,0,2.1,0.5,2.9,1.2c0.8,0.7,1.1,1.8,1.1,3.3
		c0,0.1,0,0.1,0,0.5h-6.3c0,0.9,0.3,1.6,0.8,2.1s1.1,0.8,1.8,0.8c0.6,0,1.1-0.1,1.4-0.5C75,119.1,75.4,118.6,75.6,118z M70.9,115.6
		h4.8c0-0.8-0.3-1.2-0.6-1.6c-0.4-0.6-1.1-0.9-1.8-0.9c-0.6,0-1.2,0.2-1.6,0.6C71.1,114.3,70.9,114.9,70.9,115.6z"/>
	<path class="st4" d="M78.9,120.7v-8.5h1.4v1.3c0.3-0.6,0.6-1,0.9-1.2c0.3-0.1,0.6-0.3,0.9-0.3c0.4,0,1.1,0.2,1.5,0.5l-0.6,1.3
		c-0.3-0.2-0.8-0.3-1.1-0.3c-0.3,0-0.6,0.1-0.9,0.3c-0.3,0.1-0.4,0.5-0.6,0.8c-0.1,0.5-0.3,1-0.3,1.6v4.5
		C80.1,120.7,78.9,120.7,78.9,120.7z"/>
</g>
<g class="st1">
	<path class="st4" d="M84.4,124l-0.1-1.4c0.3,0.2,0.6,0.2,0.9,0.2c0.3,0,0.6,0,0.8-0.2c0.1-0.1,0.3-0.3,0.4-0.5
		c0.1-0.1,0.3-0.5,0.4-1c0-0.1,0-0.1,0.1-0.3l-3.3-8.5h1.5l1.8,5c0.3,0.6,0.4,1.4,0.6,2c0.1-0.6,0.3-1.3,0.6-2l1.8-5h1.5l-3.3,8.7
		c-0.3,0.9-0.6,1.7-0.8,2c-0.3,0.5-0.6,0.9-0.9,1c-0.3,0.2-0.8,0.3-1.2,0.3C84.9,124.2,84.6,124.2,84.4,124z"/>
</g>
<g class="st1">
	<path class="st4" d="M91.9,120.7V119h1.6v1.7H91.9z"/>
	<path class="st4" d="M101.6,117.6l1.4,0.1c-0.1,1-0.6,1.8-1.2,2.3c-0.6,0.6-1.5,0.9-2.4,0.9c-1.2,0-2.1-0.5-2.9-1.2
		c-0.8-0.7-1-1.8-1-3.3c0-0.9,0.1-1.8,0.5-2.4c0.3-0.6,0.8-1.2,1.4-1.5s1.4-0.5,2.1-0.5c0.9,0,1.6,0.3,2.3,0.8s0.9,1.2,1.2,2
		l-1.5,0.1c-0.1-0.6-0.3-1-0.8-1.4c-0.3-0.3-0.8-0.5-1.2-0.5c-0.8,0-1.4,0.3-1.8,0.8s-0.8,1.4-0.8,2.5c0,1.2,0.1,2,0.6,2.5
		s1,0.8,1.6,0.8c0.6,0,1-0.1,1.4-0.5C101.1,118.9,101.5,118.3,101.6,117.6z"/>
	<path class="st4" d="M103.7,116.5c0-1.7,0.5-2.7,1.4-3.5c0.8-0.6,1.6-0.9,2.7-0.9c1.2,0,2.1,0.5,2.9,1.2s1,1.8,1,3.2
		c0,1-0.1,2-0.5,2.5c-0.3,0.6-0.8,1-1.5,1.5s-1.4,0.5-2.1,0.5c-1.2,0-2.1-0.5-2.9-1.2C103.9,119.1,103.7,117.9,103.7,116.5z
		 M105.2,116.5c0,1,0.3,2,0.8,2.4c0.5,0.6,1,0.8,1.8,0.8c0.8,0,1.4-0.3,1.8-0.8c0.5-0.6,0.8-1.3,0.8-2.5c0-1-0.3-1.8-0.8-2.4
		s-1-0.8-1.8-0.8c-0.8,0-1.4,0.3-1.8,0.8C105.4,114.6,105.2,115.3,105.2,116.5z"/>
	<path class="st4" d="M113.5,120.7v-8.5h1.4v1.2c0.3-0.5,0.6-0.8,1-1c0.5-0.3,0.9-0.5,1.5-0.5s1.2,0.1,1.5,0.5
		c0.3,0.3,0.8,0.6,0.9,1c0.8-1,1.5-1.5,2.7-1.5c0.9,0,1.5,0.3,2,0.8s0.8,1.2,0.8,2.1v5.9h-1.5v-5.4c0-0.6,0-1-0.1-1.2
		c-0.1-0.3-0.3-0.5-0.5-0.6c-0.3-0.2-0.6-0.3-0.9-0.3c-0.6,0-1,0.1-1.5,0.6s-0.6,1-0.6,2v5h-1.5v-5.5c0-0.6-0.1-1.2-0.3-1.5
		c-0.3-0.3-0.6-0.5-1.2-0.5c-0.5,0-0.8,0.2-1.2,0.3c-0.5,0.2-0.6,0.6-0.8,0.9s-0.3,1-0.3,1.8v4.5L113.5,120.7L113.5,120.7z"/>
	<path class="st4" d="M131.7,110.7v-1.6h1.5v1.6H131.7z M131.7,120.7v-8.5h1.5v8.5H131.7z"/>
	<path class="st4" d="M134.7,118.2l1.5-0.3c0.1,0.6,0.3,1,0.6,1.4c0.3,0.3,0.9,0.5,1.5,0.5c0.6,0,1.2-0.2,1.5-0.5
		c0.3-0.3,0.5-0.6,0.5-0.9s-0.2-0.6-0.5-0.8c-0.1-0.1-0.8-0.3-1.5-0.5c-1-0.3-1.8-0.5-2.2-0.8c-0.5-0.1-0.8-0.5-0.9-0.8
		c-0.1-0.3-0.3-0.6-0.3-1.1s0.1-0.8,0.3-1s0.5-0.6,0.8-0.8c0.1-0.1,0.6-0.3,0.9-0.5c0.3-0.2,0.7-0.1,1.2-0.1c0.6,0,1.2,0.1,1.8,0.3
		c0.5,0.1,0.9,0.5,1.1,0.8c0.3,0.3,0.4,0.8,0.4,1.3l-1.3,0.2c0-0.5-0.3-0.8-0.6-1c-0.3-0.3-0.8-0.3-1.4-0.3c-0.6,0-1.2,0.1-1.4,0.3
		c-0.3,0.1-0.5,0.5-0.5,0.8c0,0.1,0,0.3,0.1,0.5c0.1,0.1,0.3,0.3,0.6,0.5c0.1,0,0.6,0.1,1.3,0.3c1,0.3,1.8,0.5,2.1,0.6
		c0.5,0.2,0.8,0.5,0.9,0.8s0.3,0.8,0.3,1.2s-0.1,0.9-0.5,1.4c-0.3,0.5-0.8,0.8-1.2,1s-1.2,0.3-1.8,0.3c-1,0-2-0.3-2.5-0.8
		C135.4,119.8,134.9,119.1,134.7,118.2z"/>
	<path class="st4" d="M148.1,120.7v-8.5h1.4v1.3c0.3-0.6,0.6-1,0.9-1.2c0.3-0.1,0.6-0.3,0.9-0.3c0.5,0,1,0.2,1.5,0.5l-0.5,1.4
		c-0.3-0.2-0.8-0.3-1-0.3s-0.6,0.1-0.9,0.3c-0.3,0.1-0.4,0.5-0.6,0.8c-0.2,0.5-0.3,1-0.3,1.6v4.5
		C149.5,120.7,148.1,120.7,148.1,120.7z"/>
	<path class="st4" d="M159.2,119.7c-0.6,0.5-1,0.8-1.5,0.9s-1,0.3-1.6,0.3c-0.9,0-1.7-0.3-2.1-0.8c-0.4-0.5-0.8-1-0.8-1.8
		c0-0.5,0.1-0.8,0.3-1.2c0.2-0.3,0.5-0.6,0.8-0.9c0.3-0.1,0.6-0.3,1-0.5c0.3,0,0.8-0.1,1.4-0.1c1.2-0.2,2.1-0.3,2.5-0.5
		c0-0.2,0-0.3,0-0.5c0-0.6-0.1-1-0.4-1.2c-0.3-0.3-0.9-0.5-1.7-0.5c-0.8,0-1.2,0.1-1.5,0.3c-0.3,0.1-0.6,0.6-0.8,1.2l-1.3-0.2
		c0.1-0.6,0.3-1,0.6-1.5c0.3-0.3,0.8-0.6,1.3-0.9c0.6-0.2,1.2-0.3,2-0.3s1.3,0.1,1.8,0.3c0.5,0.1,0.8,0.5,1.1,0.6
		c0.1,0.3,0.3,0.6,0.4,1c0,0.3,0,0.8,0,1.4v2c0,1.3,0,2.3,0.2,2.5s0.2,0.8,0.3,1h-1.5C159.3,120.4,159.2,120.1,159.2,119.7z
		 M159,116.5c-0.6,0.1-1.4,0.5-2.4,0.6c-0.6,0.2-1.1,0.2-1.2,0.3c-0.3,0.2-0.4,0.3-0.6,0.5s-0.2,0.5-0.2,0.8c0,0.5,0.2,0.8,0.5,0.9
		s0.8,0.5,1.3,0.5s1-0.2,1.5-0.3c0.5-0.3,0.8-0.6,0.9-1c0.1-0.3,0.3-0.8,0.3-1.5L159,116.5L159,116.5z"/>
	<path class="st4" d="M166,119.5l0.1,1.3c-0.4,0.2-0.8,0.2-1,0.2c-0.6,0-0.9-0.2-1.2-0.3c-0.3-0.2-0.4-0.5-0.6-0.6s-0.2-0.9-0.2-1.6
		v-5h-1v-1.2h1v-2.1l1.5-0.9v3h1.5v1.2h-1.5v5c0,0.5,0,0.8,0.2,0.8c0,0.1,0.2,0.1,0.3,0.3c0.1,0,0.3,0.1,0.5,0.1
		C165.5,119.5,165.7,119.5,166,119.5z"/>
	<path class="st4" d="M173.2,118l1.5,0.1c-0.3,0.9-0.6,1.5-1.4,2.1c-0.6,0.5-1.5,0.8-2.4,0.8c-1.2,0-2.3-0.5-3-1.2
		c-0.7-0.7-1.1-1.8-1.1-3.3s0.3-2.5,1.1-3.3c0.8-0.8,1.6-1.2,2.8-1.2c1.2,0,2.1,0.5,2.8,1.2c0.7,0.7,1.1,1.8,1.1,3.3
		c0,0.1,0,0.1,0,0.5h-6.3c0,0.9,0.3,1.6,0.8,2.1s1.1,0.8,1.8,0.8c0.6,0,1-0.1,1.3-0.5C172.7,119.1,173,118.6,173.2,118z
		 M168.5,115.6h4.8c0-0.8-0.3-1.2-0.6-1.6c-0.4-0.6-1-0.9-1.8-0.9c-0.6,0-1.2,0.2-1.7,0.6C168.8,114.3,168.5,114.9,168.5,115.6z"/>
	<path class="st4" d="M182,120.7v-1c-0.6,0.9-1.3,1.2-2.4,1.2c-0.8,0-1.3-0.2-1.9-0.6c-0.6-0.3-1.1-0.9-1.4-1.5
		c-0.3-0.6-0.5-1.5-0.5-2.3c0-0.9,0.2-1.6,0.5-2.3c0.3-0.8,0.8-1.2,1.4-1.6c0.6-0.3,1.2-0.6,1.9-0.6c0.5,0,0.9,0.2,1.4,0.3
		c0.5,0.2,0.8,0.5,1,0.9V109h1.5v11.9L182,120.7L182,120.7z M177.5,116.5c0,1,0.3,2,0.8,2.4c0.5,0.6,1,0.8,1.7,0.8
		c0.6,0,1.2-0.3,1.6-0.8c0.5-0.5,0.6-1.3,0.6-2.4c0-1.2-0.2-2.1-0.8-2.5s-1.1-0.8-1.7-0.8s-1.2,0.3-1.7,0.8
		C177.7,114.6,177.5,115.3,177.5,116.5z"/>
	<path class="st4" d="M290.5,116.5c0-1.7,0.4-2.7,1.3-3.5c0.8-0.6,1.7-0.9,2.7-0.9c1.2,0,2.1,0.5,2.8,1.2c0.7,0.7,1.1,1.8,1.1,3.2
		c0,1-0.2,2-0.4,2.5c-0.3,0.6-0.8,1-1.5,1.5c-0.7,0.5-1.4,0.5-2.1,0.5c-1.2,0-2.1-0.5-2.8-1.2C290.9,119.1,290.5,117.9,290.5,116.5z
		 M292,116.5c0,1,0.3,2,0.8,2.4c0.4,0.6,1.1,0.8,1.8,0.8c0.7,0,1.3-0.3,1.8-0.8c0.5-0.6,0.8-1.3,0.8-2.5c0-1-0.3-1.8-0.8-2.4
		s-1-0.8-1.8-0.8c-0.8,0-1.4,0.3-1.8,0.8C292.1,114.6,292,115.3,292,116.5z"/>
	<path class="st4" d="M300,120.7v-8.5h1.3v1.2c0.6-0.9,1.5-1.4,2.7-1.4c0.5,0,1.1,0.2,1.4,0.3c0.4,0.2,0.8,0.5,0.9,0.8
		c0.2,0.3,0.3,0.6,0.5,1c0,0.3,0.2,0.8,0.2,1.4v5.3h-1.5v-5.3c0-0.6,0-1-0.2-1.4c-0.2-0.3-0.3-0.5-0.6-0.8c-0.3-0.3-0.6-0.3-1.1-0.3
		c-0.6,0-1.2,0.2-1.6,0.6c-0.5,0.5-0.6,1.2-0.6,2.3v4.6L300,120.7L300,120.7z"/>
	<path class="st4" d="M314,120.7v-11.8h4.3c0.9,0,1.7,0.2,2.1,0.3c0.6,0.3,0.9,0.6,1.3,1c0.3,0.5,0.5,1,0.5,1.5s-0.2,1-0.5,1.4
		c-0.3,0.3-0.8,0.8-1.2,1c0.8,0.1,1.2,0.6,1.7,1s0.6,1,0.6,1.8c0,0.6-0.2,1-0.3,1.5s-0.4,0.9-0.9,1c-0.3,0.3-0.8,0.5-1.4,0.6
		c-0.4,0.2-1.2,0.2-1.9,0.2H314L314,120.7L314,120.7z M315.5,114h2.5c0.8,0,1.2,0,1.5-0.2c0.5-0.1,0.8-0.3,0.9-0.6
		c0.2-0.3,0.3-0.6,0.3-1c0-0.5-0.2-0.8-0.3-1s-0.4-0.5-0.8-0.6c-0.3-0.1-0.9-0.1-1.8-0.1h-2.4v3.5C315.4,114,315.5,114,315.5,114z
		 M315.5,119.4h3c0.4,0,0.9,0,1,0c0.3,0,0.6-0.1,0.9-0.3c0.3-0.1,0.4-0.3,0.6-0.6c0.1-0.3,0.3-0.6,0.3-1c0-0.5-0.1-0.8-0.3-1.2
		c-0.3-0.3-0.6-0.6-0.9-0.8c-0.3-0.2-0.9-0.2-1.8-0.2h-2.8V119.4z"/>
	<path class="st4" d="M324.8,110.7v-1.6h1.5v1.6H324.8z M324.8,120.7v-8.5h1.5v8.5H324.8z"/>
	<path class="st4" d="M328.4,120.7v-8.5h1.4v1.2c0.6-0.9,1.5-1.4,2.7-1.4c0.5,0,1.1,0.2,1.4,0.3c0.5,0.2,0.8,0.5,0.9,0.8
		c0.2,0.3,0.3,0.6,0.5,1c0,0.3,0.2,0.8,0.2,1.4v5.3H334v-5.3c0-0.6,0-1-0.2-1.4c-0.1-0.3-0.3-0.5-0.6-0.8s-0.6-0.3-1-0.3
		c-0.6,0-1.2,0.2-1.7,0.6s-0.6,1.2-0.6,2.3v4.6L328.4,120.7L328.4,120.7z"/>
	<path class="st4" d="M337.4,121.5l1.4,0.1c0,0.5,0.1,0.8,0.4,0.9c0.3,0.3,0.9,0.5,1.5,0.5s1.2-0.2,1.5-0.5s0.6-0.6,0.8-1.2
		c0-0.3,0.2-0.9,0.2-1.8c-0.6,0.8-1.3,1-2.4,1c-1.2,0-2.1-0.5-2.7-1.2c-0.6-0.9-0.9-1.8-0.9-3c0-0.8,0.2-1.5,0.5-2.3
		s0.8-1.2,1.4-1.7c0.6-0.3,1.2-0.6,1.9-0.6c1.1,0,1.8,0.5,2.6,1.2v-1h1.3v7.3c0,1.4-0.2,2.3-0.5,2.9s-0.8,1-1.3,1.3
		c-0.6,0.3-1.4,0.5-2.1,0.5c-1,0-1.8-0.3-2.4-0.8C337.7,123.1,337.4,122.4,337.4,121.5z M338.6,116.4c0,1,0.2,2,0.6,2.4
		s1,0.8,1.6,0.8s1.2-0.3,1.7-0.8c0.4-0.5,0.8-1.4,0.8-2.4s-0.3-1.8-0.8-2.4s-1.1-0.8-1.7-0.8s-1.2,0.3-1.6,0.8
		C338.8,114.6,338.6,115.3,338.6,116.4z"/>
	<path class="st4" d="M354.2,124.2c-0.8-1-1.5-2.3-2.1-3.6c-0.6-1.4-0.9-2.7-0.9-4.2c0-1.4,0.2-2.5,0.6-3.6c0.5-1.3,1.2-2.7,2.3-4h1
		c-0.6,1-1,2-1.3,2.4c-0.3,0.8-0.6,1.5-0.8,2.3c-0.3,1-0.3,2-0.3,3c0,2.5,0.8,5.1,2.4,7.8C355.1,124.2,354.2,124.2,354.2,124.2z"/>
</g>
<g class="st1">
	<path class="st5" d="M356.6,118l1.3-0.1c0.1,0.6,0.3,1.2,0.8,1.4c0.3,0.3,0.8,0.5,1.3,0.5s0.9-0.2,1.2-0.3c0.3-0.2,0.6-0.5,0.8-0.8
		s0.5-0.8,0.6-1.4c0.2-0.6,0.2-1.2,0.2-1.8c0,0,0-0.1,0-0.3c-0.3,0.5-0.8,0.9-1.2,1c-0.5,0.2-1,0.5-1.6,0.5c-1.1,0-1.8-0.3-2.6-1
		s-1-1.6-1-2.8s0.3-2.1,1-2.9s1.7-1,2.7-1c0.8,0,1.5,0.2,2.1,0.6c0.6,0.5,1,1,1.5,1.8c0.3,0.8,0.4,1.8,0.4,3.3s-0.1,2.7-0.4,3.6
		s-0.8,1.5-1.5,2.1c-0.6,0.5-1.4,0.8-2.3,0.8s-1.7-0.3-2.3-0.8C357,119.8,356.8,118.9,356.6,118z M362.6,112.8c0-0.9-0.1-1.5-0.6-2
		s-0.9-0.8-1.7-0.8c-0.6,0-1.2,0.3-1.6,0.8s-0.8,1.2-0.8,2.1c0,0.8,0.3,1.4,0.8,1.8s1,0.8,1.6,0.8s1.2-0.3,1.7-0.8
		C362.3,114.3,362.6,113.7,362.6,112.8z"/>
	<path class="st5" d="M367.8,114.4c-0.6-0.1-1-0.6-1.3-0.9c-0.3-0.5-0.5-0.9-0.5-1.5c0-0.9,0.3-1.7,0.9-2.1c0.6-0.5,1.5-0.9,2.4-0.9
		c1,0,1.8,0.3,2.5,0.9c0.8,0.6,0.9,1.4,0.9,2.3c0,0.6-0.2,1-0.5,1.5s-0.8,0.8-1.3,0.9c0.8,0.3,1.2,0.6,1.6,1.2
		c0.5,0.6,0.6,1.2,0.6,2c0,1-0.3,1.8-1.1,2.5s-1.6,1-2.8,1s-2.1-0.3-2.9-1s-1-1.5-1-2.5c0-0.8,0.2-1.4,0.6-2
		C366.5,114.9,367.1,114.6,367.8,114.4z M367.1,117.4c0,0.5,0.2,0.8,0.3,1.2s0.4,0.8,0.9,0.9s0.8,0.3,1.2,0.3c0.8,0,1.2-0.2,1.6-0.6
		s0.8-1,0.8-1.6c0-0.8-0.3-1.2-0.8-1.8c-0.5-0.5-1-0.8-1.8-0.8s-1.2,0.1-1.7,0.8C367.3,116.1,367.1,116.7,367.1,117.4z M367.5,111.9
		c0,0.6,0.1,1,0.6,1.4c0.3,0.3,0.9,0.6,1.3,0.6c0.6,0,1-0.1,1.3-0.6c0.3-0.3,0.6-0.8,0.6-1.4s-0.1-1-0.6-1.3
		c-0.3-0.3-0.8-0.6-1.3-0.6s-1,0.2-1.3,0.6C367.7,111,367.5,111.4,367.5,111.9z"/>
	<path class="st5" d="M379.7,120.7v-8.5h1.4v1.3c0.3-0.6,0.6-1,0.9-1.2c0.3-0.1,0.6-0.3,0.9-0.3c0.5,0,1,0.2,1.5,0.5l-0.4,1.4
		c-0.3-0.2-0.8-0.3-1-0.3c-0.3,0-0.6,0.1-0.9,0.3c-0.3,0.1-0.5,0.5-0.6,0.8c-0.2,0.5-0.3,1-0.3,1.6v4.5
		C381,120.7,379.7,120.7,379.7,120.7z"/>
	<path class="st5" d="M391.1,118l1.5,0.1c-0.3,0.9-0.6,1.5-1.3,2.1c-0.6,0.5-1.5,0.8-2.4,0.8c-1.2,0-2.3-0.5-3-1.2s-1.1-1.8-1.1-3.3
		s0.3-2.5,1.1-3.3s1.7-1.2,2.9-1.2s2.1,0.5,2.8,1.2s1.1,1.8,1.1,3.3c0,0.1,0,0.1,0,0.5h-6.3c0,0.9,0.3,1.6,0.8,2.1s1.1,0.8,1.8,0.8
		c0.6,0,1.1-0.1,1.4-0.5C390.5,119.1,390.8,118.6,391.1,118z M386.3,115.6h4.8c0-0.8-0.3-1.2-0.6-1.6c-0.4-0.6-1.1-0.9-1.8-0.9
		c-0.6,0-1.2,0.2-1.6,0.6C386.6,114.1,386.3,114.9,386.3,115.6z"/>
	<path class="st5" d="M396.8,120.7l-3.3-8.5h1.5l1.8,5.1c0.1,0.6,0.4,1.2,0.6,1.7c0.2-0.5,0.3-1,0.6-1.7l1.9-5.3h1.5l-3.3,8.5
		L396.8,120.7L396.8,120.7z"/>
	<path class="st5" d="M402.7,110.7v-1.6h1.5v1.6H402.7z M402.7,120.7v-8.5h1.5v8.5H402.7z"/>
	<path class="st5" d="M412.1,118l1.5,0.1c-0.3,0.9-0.6,1.5-1.3,2.1c-0.6,0.5-1.5,0.8-2.4,0.8c-1.2,0-2.3-0.5-3-1.2s-1.1-1.8-1.1-3.3
		s0.3-2.5,1.1-3.3s1.7-1.2,2.9-1.2s2.1,0.5,2.8,1.2s1.1,1.8,1.1,3.3c0,0.1,0,0.1,0,0.5h-6.3c0,0.9,0.3,1.6,0.8,2.1s1.1,0.8,1.8,0.8
		c0.6,0,1.1-0.1,1.4-0.5C411.7,119.1,411.9,118.6,412.1,118z M407.3,115.6h4.8c0-0.8-0.3-1.2-0.6-1.6c-0.4-0.6-1.1-0.9-1.8-0.9
		c-0.6,0-1.2,0.2-1.6,0.6C407.6,114.1,407.4,114.9,407.3,115.6z"/>
	<path class="st5" d="M417.1,120.7l-2.6-8.5h1.5l1.3,5l0.4,1.8c0-0.2,0.2-0.8,0.4-1.8l1.4-5h1.5l1.3,5l0.4,1.6l0.4-1.6l1.5-5h1.4
		l-2.7,8.5h-1.5l-1.4-5.1l-0.3-1.5l-1.8,6.6H417.1z"/>
	<path class="st5" d="M426.8,118.2l1.5-0.3c0.1,0.6,0.3,1,0.6,1.4c0.3,0.3,0.9,0.5,1.5,0.5s1.2-0.2,1.5-0.5s0.4-0.6,0.4-0.9
		s-0.1-0.6-0.4-0.8c-0.1-0.1-0.8-0.3-1.5-0.5c-1.1-0.3-1.8-0.5-2.3-0.8c-0.4-0.1-0.8-0.5-0.9-0.8c-0.2-0.3-0.3-0.8-0.3-1.2
		s0.1-0.8,0.3-1c0.1-0.3,0.4-0.6,0.8-0.8c0.3-0.1,0.6-0.3,0.9-0.5c0.4-0.1,0.8-0.1,1.2-0.1c0.6,0,1.2,0.1,1.8,0.3
		c0.4,0.1,0.9,0.5,1.1,0.8c0.3,0.3,0.4,0.8,0.4,1.3l-1.3,0.2c0-0.5-0.3-0.8-0.6-1c-0.3-0.3-0.8-0.3-1.3-0.3c-0.6,0-1.2,0.1-1.4,0.3
		c-0.3,0.1-0.4,0.5-0.4,0.8c0,0.1,0,0.3,0.2,0.5c0.1,0.1,0.3,0.3,0.6,0.5c0.2,0,0.6,0.1,1.4,0.3c1.1,0.3,1.8,0.5,2.1,0.6
		c0.4,0.2,0.8,0.5,0.9,0.8c0.3,0.3,0.3,0.8,0.3,1.2s-0.2,0.9-0.4,1.4c-0.3,0.5-0.8,0.8-1.2,1c-0.6,0.3-1.2,0.3-1.8,0.3
		c-1.1,0-1.9-0.3-2.6-0.8C427.3,119.8,426.9,119.1,426.8,118.2z"/>
</g>
<g class="st1">
	<path class="st4" d="M436.6,124.2h-1.1c1.6-2.5,2.4-5.1,2.4-7.8c0-1-0.1-2-0.3-3c-0.1-0.8-0.4-1.6-0.8-2.3
		c-0.1-0.5-0.6-1.3-1.3-2.4h1.1c1.1,1.3,1.8,2.7,2.3,4c0.4,1.2,0.6,2.4,0.6,3.6c0,1.5-0.3,2.9-0.9,4.2
		C437.9,122.1,437.3,123.3,436.6,124.2z"/>
</g>
<polygon class="st6" points="201.3,107.4 203.2,112.2 208.3,112.5 204.3,115.6 205.7,120.7 201.3,117.9 197,120.7 198.3,115.6 
	194.3,112.5 199.4,112.2 "/>
<polygon class="st6" points="218,107.4 220,112.2 225,112.5 221,115.6 222.3,120.7 218,117.9 213.7,120.7 215,115.6 211.1,112.5 
	216.2,112.2 "/>
<polygon class="st6" points="235.3,107.4 237.2,112.2 242.3,112.5 238.3,115.6 239.6,120.7 235.3,117.9 230.9,120.7 232.3,115.6 
	228.3,112.5 233.5,112.2 "/>
<polygon class="st6" points="251.8,107.4 253.5,112.2 258.8,112.5 254.8,115.6 256.1,120.7 251.8,117.9 247.4,120.7 248.8,115.6 
	244.7,112.5 250,112.2 "/>
<polygon class="st7" points="268.3,107.4 270,112.2 275.2,112.5 271.3,115.6 272.6,120.7 268.3,117.9 263.9,120.7 265.3,115.6 
	261.2,112.5 266.3,112.2 "/>
<rect x="2" y="76.5" class="st8" width="345" height="24"/>
<path class="st9" d="M11.3,26.1c-8.5,15.8,19,13.8,10,0H11.3z M12.3,27.1h8.1C27.5,38.2,5.4,39.7,12.3,27.1L12.3,27.1z"/>
<path class="st9" d="M15.5,36.6v4.8c-1.5,0.2-3,0.9-4,1.9c3.1,0.2,6.3,0.2,9.5,0.2c-1-1.2-2.5-1.8-4.2-1.9v-4.9
	C16.2,36.6,15.9,36.6,15.5,36.6z"/>
<polygon class="st9" points="9.5,30 22.7,30 22.5,32.8 20.6,35.4 17.7,36.4 14.7,36.9 12.5,36 10.7,34.6 9.5,32.7 "/>
</svg>
