<?xml version="1.0" encoding="utf-8"?>
<!-- Generator: Adobe Illustrator 19.2.1, SVG Export Plug-In . SVG Version: 6.00 Build 0)  -->
<svg version="1.1" id="Layer_1" xmlns="http://www.w3.org/2000/svg" xmlns:xlink="http://www.w3.org/1999/xlink" x="0px" y="0px"
	 width="140.9px" height="148.4px" viewBox="0 0 140.9 148.4" style="enable-background:new 0 0 140.9 148.4;" xml:space="preserve"
	>
<style type="text/css">
	.st0{fill:#FFFFFF;}
	.st1{fill:#505050;}
	.st2{fill:none;stroke:#666766;stroke-width:9.1281;stroke-miterlimit:10;}
	.st3{fill:#00B294;}
	.st4{fill:none;stroke:#666766;stroke-width:6.5695;stroke-miterlimit:10;}
	.st5{fill:none;stroke:#666766;stroke-width:11.5975;stroke-miterlimit:10;}
</style>
<circle class="st0" cx="39.9" cy="74.7" r="35.3"/>
<g>
	<path class="st1" d="M41,53.3c-6.8,0-11.4,5.1-10.6,13.3C31,73,33.3,78.3,41,78.3c7.7,0,10-5.3,10.6-11.7
		C52.4,58.5,47.8,53.4,41,53.3z"/>
	<path class="st1" d="M64.8,104.4c0.3-5.4,0.4-10.9,0.4-17.3c0-1.5-1.5-2.5-2.9-2.9c-5.9-2.9-14.6-3.8-14.6-3.8s-3.4,1.1-6.7,1.1
		c-3,0-6.7-1.1-6.7-1.1s-8.7,0.9-14.6,3.8c-1.3,0.5-2.9,1.4-2.9,2.9c0,6.3,0.1,11.8,0.4,17.3h8.1l1.1-5.2l0.4,9.3H55l0.3-9.3
		l1.3,5.2H64.8z"/>
</g>
<circle class="st2" cx="39.9" cy="74.7" r="35.3"/>
<g>
	<circle class="st3" cx="112.2" cy="28.7" r="25.4"/>
	<g>
		<path class="st1" d="M112.2,10.4c5.2,0,8.8,4,8.2,10.2c-0.4,4.9-2.2,9-8.2,9c-5.9,0-7.7-4.1-8.2-9
			C103.4,14.4,106.9,10.4,112.2,10.4z"/>
		<path class="st1" d="M93.9,49.7c-0.2-4.2-0.3-8.4-0.3-13.3c0-1.2,1.2-1.9,2.2-2.3c4.5-2.3,11.2-2.9,11.2-2.9s2.6,0.8,5.2,0.8
			c2.3,0,5.2-0.8,5.2-0.8s6.7,0.7,11.2,2.9c1,0.3,2.2,1.1,2.2,2.3c0,4.9-0.1,9.1-0.3,13.3h-6.3l-0.8-4l-0.9,6.1h-21.8l0.4-6l-1,4
			H93.9z"/>
	</g>
	<circle class="st4" cx="112.2" cy="28.7" r="25.4"/>
	<line class="st5" x1="90" y1="44.9" x2="71.7" y2="59.3"/>
</g>
<g>
	<circle class="st3" cx="112.2" cy="119.7" r="25.4"/>
	<g>
		<path class="st1" d="M112.2,101.4c5.2,0,8.8,4,8.2,10.2c-0.4,4.9-2.2,9-8.2,9c-5.9,0-7.7-4.1-8.2-9
			C103.4,105.4,106.9,101.4,112.2,101.4z"/>
		<path class="st1" d="M93.9,140.7c-0.2-4.2-0.3-8.4-0.3-13.3c0-1.2,1.2-1.9,2.2-2.3c4.5-2.3,11.2-2.9,11.2-2.9s2.6,0.8,5.2,0.8
			c2.3,0,5.2-0.8,5.2-0.8s6.7,0.7,11.2,2.9c1,0.3,2.2,1.1,2.2,2.3c0,4.9-0.1,9.1-0.3,13.3h-6.3l-0.8-4l-0.9,6.1h-21.8l0.4-6l-1,4
			H93.9z"/>
	</g>
	<circle class="st4" cx="112.2" cy="119.7" r="25.4"/>
	<line class="st5" x1="90.9" y1="107" x2="70.8" y2="95.1"/>
</g>
</svg>
