<?xml version="1.0" encoding="utf-8"?>
<!-- Generator: Adobe Illustrator 22.1.0, SVG Export Plug-In . SVG Version: 6.00 Build 0)  -->
<svg version="1.1" id="Layer_1" xmlns="http://www.w3.org/2000/svg" xmlns:xlink="http://www.w3.org/1999/xlink" x="0px" y="0px"
	 width="434.5px" height="249.6px" viewBox="0 0 434.5 249.6" style="enable-background:new 0 0 434.5 249.6;" xml:space="preserve"
	>
<style type="text/css">
	.st0{enable-background:new    ;}
	.st1{fill:#0012FF;}
	.st2{fill:#009245;}
	.st3{fill:#999999;}
	.st4{fill:#737373;}
	.st5{fill:#0000FF;}
	.st6{fill:#666666;}
	.st7{fill:none;stroke:#008272;stroke-width:4;stroke-miterlimit:10;}
	.st8{fill:#FF8C00;}
	.st9{fill:#D2D2D2;}
	.st10{fill:none;stroke:#CCCCCC;stroke-miterlimit:10;}
	.st11{fill:#078ED1;}
	.st12{fill:none;stroke:#FFFFFF;stroke-miterlimit:10;}
	.st13{fill:none;stroke:#FFFFFF;stroke-linecap:round;stroke-miterlimit:10;}
	.st14{fill:none;stroke:#000000;stroke-linecap:round;stroke-linejoin:round;}
</style>
<title>Asset 1</title>
<g class="st0">
	<path class="st1" d="M4.3,221.1v-11.8h5.3c1.1,0,1.8,0.1,2.4,0.3s1,0.6,1.3,1.2c0.3,0.6,0.5,1.2,0.5,1.8c0,0.9-0.3,1.5-0.8,2.1
		c-0.6,0.6-1.3,0.9-2.5,1.1c0.5,0.1,0.8,0.4,0.9,0.6c0.4,0.5,0.9,0.9,1.3,1.5l2.1,3.2h-2.1l-1.5-2.4c-0.5-0.8-0.9-1.2-1.2-1.6
		c-0.3-0.5-0.6-0.6-0.8-0.8c-0.3-0.2-0.5-0.3-0.8-0.3c-0.1,0-0.5,0-0.9,0H5.7v5.3L4.3,221.1L4.3,221.1z M5.8,214.5h3.3
		c0.8,0,1.2,0,1.6-0.2c0.5-0.2,0.8-0.4,0.9-0.8c0.1-0.3,0.3-0.8,0.3-1.1c0-0.6-0.2-1-0.6-1.3c-0.5-0.3-1.1-0.6-2-0.6H5.7L5.8,214.5
		L5.8,214.5z"/>
	<path class="st1" d="M21.9,218.3l1.5,0.2c-0.3,0.9-0.6,1.5-1.3,2.1s-1.5,0.8-2.4,0.8c-1.2,0-2.3-0.5-3-1.2s-1-1.8-1-3.3
		s0.3-2.5,1-3.3s1.7-1.2,2.8-1.2c1.2,0,2.1,0.5,2.8,1.2s1,1.8,1,3.3c0,0.2,0,0.2,0,0.5h-6.5c0,0.9,0.3,1.6,0.8,2.1s1.1,0.8,1.8,0.8
		c0.6,0,1-0.1,1.3-0.4S21.6,218.9,21.9,218.3z M17.1,216h4.8c0-0.8-0.3-1.2-0.6-1.7c-0.5-0.6-1-0.9-1.8-0.9c-0.6,0-1.2,0.2-1.7,0.6
		C17.4,214.7,17.1,215.3,17.1,216z"/>
	<path class="st1" d="M30.7,221.1v-1c-0.6,0.9-1.3,1.2-2.4,1.2c-0.8,0-1.3-0.2-1.9-0.6c-0.6-0.4-1.1-0.9-1.3-1.5
		c-0.3-0.6-0.5-1.5-0.5-2.3c0-0.9,0.2-1.6,0.5-2.3c0.3-0.6,0.8-1.2,1.3-1.6c0.6-0.3,1.2-0.6,1.9-0.6c0.5,0,0.9,0.2,1.3,0.3
		c0.5,0.2,0.8,0.4,1.1,0.9v-4.2h1.5v11.9h-1.5C30.7,221.3,30.7,221.1,30.7,221.1z M26.1,216.8c0,1,0.3,2,0.8,2.4
		c0.5,0.6,1.1,0.8,1.7,0.8s1.2-0.3,1.7-0.8c0.4-0.4,0.6-1.3,0.6-2.4c0-1.2-0.3-2.1-0.8-2.5c-0.4-0.5-1.1-0.8-1.7-0.8
		s-1.2,0.3-1.7,0.8C26.4,214.8,26.1,215.7,26.1,216.8z"/>
	<path class="st1" d="M40.5,221.1l-2.6-8.5h1.5l1.4,5l0.4,1.8c0-0.2,0.2-0.8,0.5-1.8l1.3-5h1.5l1.3,5l0.5,1.6l0.4-1.6l1.5-5h1.4
		l-2.7,8.5h-1.5L44,216l-0.3-1.5l-1.8,6.6H40.5z"/>
	<path class="st1" d="M50.9,210.9v-1.7h1.5v1.7H50.9z M50.9,221.1v-8.5h1.5v8.5H50.9z"/>
	<path class="st1" d="M54.4,221.1v-8.5h1.4v1.2c0.6-0.9,1.5-1.4,2.7-1.4c0.4,0,1.1,0.2,1.4,0.3c0.4,0.2,0.8,0.4,0.9,0.8
		c0.1,0.4,0.3,0.6,0.4,1.1c0,0.3,0.1,0.8,0.1,1.3v5.3h-1.5v-5.3c0-0.6,0-1-0.1-1.3c-0.1-0.3-0.3-0.6-0.6-0.8
		c-0.3-0.2-0.6-0.3-1.1-0.3c-0.6,0-1.2,0.2-1.6,0.6c-0.4,0.5-0.6,1.2-0.6,2.3v4.7L54.4,221.1L54.4,221.1z"/>
	<path class="st1" d="M69.6,218.3l1.5,0.2c-0.3,0.9-0.6,1.5-1.4,2.1c-0.8,0.6-1.5,0.8-2.4,0.8c-1.2,0-2.3-0.5-3-1.2
		c-0.7-0.7-1.1-1.8-1.1-3.3s0.3-2.5,1.1-3.3c0.8-0.8,1.6-1.2,2.9-1.2c1.2,0,2.1,0.5,2.9,1.2c0.8,0.7,1.1,1.8,1.1,3.3
		c0,0.2,0,0.2,0,0.5h-6.4c0,0.9,0.3,1.6,0.8,2.1c0.4,0.5,1.1,0.8,1.8,0.8c0.6,0,1.1-0.1,1.4-0.4C69.1,219.6,69.3,218.9,69.6,218.3z
		 M64.8,216h4.8c0-0.8-0.3-1.2-0.6-1.7c-0.4-0.6-1.1-0.9-1.8-0.9c-0.6,0-1.2,0.2-1.6,0.6C65.1,214.7,64.8,215.3,64.8,216z"/>
	<path class="st1" d="M72.3,218.6l1.5-0.3c0.1,0.6,0.3,1,0.6,1.3s0.9,0.4,1.5,0.4s1.2-0.1,1.5-0.4s0.4-0.6,0.4-0.9
		c0-0.3-0.1-0.6-0.4-0.8c-0.1-0.2-0.8-0.3-1.5-0.5c-1.1-0.3-1.8-0.4-2.3-0.8c-0.4-0.1-0.8-0.4-0.9-0.8c-0.1-0.3-0.3-0.8-0.3-1.2
		s0.1-0.8,0.3-1.1c0.1-0.3,0.4-0.6,0.8-0.8c0.3-0.1,0.6-0.3,0.9-0.4c0.4-0.2,0.8-0.2,1.2-0.2c0.6,0,1.2,0.2,1.8,0.3
		c0.4,0.2,0.9,0.5,1.1,0.8c0.3,0.3,0.4,0.8,0.4,1.4l-1.4,0.1c0-0.4-0.3-0.8-0.6-1s-0.8-0.3-1.4-0.3s-1.2,0.1-1.5,0.3
		c-0.3,0.2-0.4,0.5-0.4,0.8c0,0.2,0,0.3,0.1,0.5c0.1,0.1,0.3,0.3,0.6,0.4c0.1,0,0.6,0.2,1.4,0.3c1.1,0.3,1.8,0.4,2.1,0.6
		c0.4,0.2,0.8,0.5,0.9,0.8c0.1,0.3,0.3,0.8,0.3,1.2s-0.1,0.9-0.4,1.3c-0.3,0.4-0.8,0.8-1.2,1.1c-0.6,0.3-1.2,0.3-1.8,0.3
		c-1.1,0-1.9-0.3-2.6-0.8C72.9,220.1,72.4,219.5,72.3,218.6z"/>
</g>
<g class="st0">
	<path class="st1" d="M13.8,245.1l1.5,0.5c-0.3,1.3-0.9,2.3-1.8,3c-0.9,0.6-2,1-3.2,1s-2.3-0.3-3.2-0.8c-0.8-0.4-1.3-1.2-1.8-2.3
		c-0.5-1-0.6-2.1-0.6-3.1c0-1.2,0.3-2.3,0.8-3.2c0.4-0.9,1.2-1.6,1.9-2.1c0.9-0.5,1.8-0.8,2.8-0.8c1.2,0,2.3,0.3,3,0.9
		s1.3,1.5,1.7,2.6l-1.5,0.3c-0.3-0.9-0.6-1.5-1.2-2s-1.2-0.6-2-0.6c-0.9,0-1.6,0.2-2.3,0.6c-0.6,0.5-1,1-1.3,1.8s-0.3,1.5-0.3,2.3
		c0,1.1,0.2,2,0.5,2.7c0.3,0.8,0.8,1.3,1.3,1.7s1.3,0.6,2,0.6c0.9,0,1.6-0.3,2.3-0.8C13.2,246.9,13.6,246.2,13.8,245.1z"/>
	<path class="st1" d="M17.1,249.3v-8.5h1.3v1.3c0.3-0.6,0.6-1.1,0.9-1.2c0.3-0.2,0.6-0.3,0.9-0.3c0.5,0,1,0.2,1.5,0.4l-0.5,1.4
		c-0.3-0.2-0.8-0.3-1-0.3s-0.6,0.2-0.9,0.3c-0.3,0.1-0.5,0.4-0.6,0.8c-0.2,0.4-0.3,1-0.3,1.6v4.5H17.1z"/>
	<path class="st1" d="M28.2,248.3c-0.6,0.5-1,0.8-1.5,0.9c-0.4,0.2-1,0.3-1.6,0.3c-0.9,0-1.7-0.3-2.1-0.8c-0.4-0.5-0.8-1.1-0.8-1.8
		c0-0.4,0.2-0.8,0.3-1.2c0.1-0.3,0.4-0.6,0.8-0.9c0.3-0.1,0.6-0.3,1-0.4c0.3,0,0.8-0.2,1.3-0.2c1.2-0.2,2.1-0.3,2.5-0.5
		c0-0.1,0-0.3,0-0.4c0-0.6-0.1-1.1-0.4-1.2c-0.3-0.3-0.9-0.5-1.7-0.5s-1.2,0.2-1.5,0.3c-0.3,0.3-0.6,0.6-0.8,1.2l-1.3-0.2
		c0.2-0.6,0.3-1.1,0.6-1.5s0.8-0.6,1.3-0.9c0.6-0.2,1.2-0.3,2-0.3s1.3,0.1,1.8,0.3c0.5,0.1,0.8,0.5,1.1,0.6s0.3,0.6,0.4,1.1
		c0,0.3,0,0.8,0,1.3v2c0,1.3,0,2.3,0.2,2.5c0,0.3,0.2,0.8,0.3,1.1h-1.5C28.3,249,28.3,248.6,28.2,248.3z M28.1,245
		c-0.6,0.1-1.4,0.4-2.4,0.6c-0.6,0.2-1.1,0.2-1.2,0.3c-0.3,0.2-0.4,0.3-0.6,0.4c-0.2,0.2-0.2,0.5-0.2,0.8c0,0.5,0.2,0.8,0.5,0.9
		c0.3,0.3,0.8,0.4,1.3,0.4s1.1-0.2,1.5-0.3s0.8-0.6,0.9-1c0.2-0.3,0.3-0.8,0.3-1.5L28.1,245L28.1,245L28.1,245z"/>
	<path class="st1" d="M32.2,249.3v-7.5h-1.3v-1.2h1.3v-0.9c0-0.6,0-1.1,0.2-1.4c0.2-0.4,0.4-0.8,0.8-0.9c0.3-0.3,0.9-0.3,1.5-0.3
		c0.4,0,0.9,0,1.3,0.2l-0.2,1.2c-0.3,0-0.6-0.2-0.9-0.2c-0.4,0-0.8,0.2-0.9,0.3c-0.2,0.2-0.3,0.6-0.3,1.1v0.8h1.7v1.2h-1.7v7.5
		L32.2,249.3C32.2,249.2,32.2,249.3,32.2,249.3z"/>
	<path class="st1" d="M39.6,248l0.2,1.3c-0.4,0.2-0.8,0.2-1.1,0.2c-0.6,0-0.9-0.2-1.2-0.3c-0.3-0.2-0.4-0.4-0.6-0.6
		s-0.2-0.9-0.2-1.7V242h-1.1v-1.2h1.1v-2.1l1.5-0.9v3h1.5v1.2h-1.5v4.9c0,0.4,0,0.8,0.2,0.8c0,0.2,0.2,0.2,0.3,0.3
		c0.2,0,0.3,0.1,0.5,0.1C39.1,248.1,39.3,248,39.6,248z"/>
	<path class="st1" d="M46.9,249.3h-1.4v-11.8H47v4.2c0.6-0.8,1.4-1.2,2.4-1.2c0.6,0,1.1,0.1,1.5,0.3s0.9,0.5,1.2,0.9
		s0.6,0.9,0.8,1.3c0.1,0.6,0.3,1,0.3,1.8c0,1.5-0.3,2.6-1.1,3.5c-0.8,0.8-1.6,1.2-2.6,1.2c-1.1,0-1.8-0.5-2.4-1.2v1H46.9z M46.9,245
		c0,1,0.1,1.8,0.4,2.3c0.4,0.8,1.1,1,1.8,1c0.6,0,1.2-0.3,1.6-0.9s0.8-1.3,0.8-2.4c0-1-0.1-2-0.6-2.4c-0.4-0.6-1.1-0.8-1.6-0.8
		c-0.6,0-1.2,0.3-1.6,0.9C47.2,243.3,46.9,243.9,46.9,245z"/>
	<path class="st1" d="M60.6,246.5l1.5,0.1c-0.3,0.9-0.6,1.5-1.4,2.1s-1.5,0.8-2.4,0.8c-1.2,0-2.3-0.5-3-1.2
		c-0.7-0.7-1.1-1.8-1.1-3.3s0.3-2.6,1.1-3.3c0.8-0.7,1.6-1.2,2.9-1.2c1.2,0,2.1,0.4,2.9,1.2c0.8,0.8,1.1,1.8,1.1,3.3
		c0,0.1,0,0.1,0,0.4h-6.4c0,0.9,0.3,1.7,0.8,2.1c0.4,0.5,1.1,0.8,1.8,0.8c0.6,0,1.1-0.2,1.4-0.5C59.9,247.5,60.4,247.2,60.6,246.5z
		 M55.8,244.2h4.8c0-0.8-0.3-1.2-0.6-1.7c-0.4-0.6-1.1-0.9-1.8-0.9c-0.6,0-1.2,0.1-1.6,0.6C56.1,242.9,55.9,243.5,55.8,244.2z"/>
	<path class="st1" d="M69.7,246.5l1.5,0.1c-0.3,0.9-0.6,1.5-1.4,2.1c-0.8,0.6-1.5,0.8-2.4,0.8c-1.2,0-2.3-0.5-3-1.2
		c-0.7-0.7-1-1.8-1-3.3s0.3-2.6,1.1-3.3c0.8-0.7,1.6-1.2,2.9-1.2c1.2,0,2.1,0.4,2.9,1.2c0.8,0.8,1.1,1.8,1.1,3.3c0,0.1,0,0.1,0,0.4
		H65c0,0.9,0.3,1.7,0.8,2.1c0.4,0.5,1.1,0.8,1.8,0.8c0.6,0,1.1-0.2,1.4-0.5C69,247.5,69.6,247.2,69.7,246.5z M65.1,244.2h4.8
		c0-0.8-0.3-1.2-0.6-1.7c-0.4-0.6-1.1-0.9-1.8-0.9c-0.6,0-1.2,0.1-1.6,0.6C65.4,242.9,65.1,243.5,65.1,244.2z"/>
	<path class="st1" d="M73,249.3v-8.5h1.4v1.3c0.3-0.6,0.6-1.1,0.9-1.2c0.3-0.2,0.6-0.3,0.9-0.3c0.4,0,1.1,0.2,1.5,0.4l-0.4,1.4
		c-0.3-0.2-0.8-0.3-1.1-0.3c-0.3,0-0.6,0.2-0.9,0.3c-0.3,0.1-0.4,0.4-0.6,0.8c-0.1,0.4-0.3,1-0.3,1.6v4.5H73z"/>
</g>
<g class="st0">
	<path class="st1" d="M192.3,221.1l-3.1-11.8h1.6l1.8,7.8c0.2,0.8,0.3,1.7,0.5,2.4c0.3-1.2,0.5-1.9,0.6-2.3l2.3-7.9h2l1.7,6
		c0.5,1.5,0.8,2.8,0.9,4.2c0.2-0.8,0.3-1.7,0.6-2.6l1.8-7.6h1.5l-3.3,11.8h-1.5l-2.5-9c-0.2-0.8-0.3-1.2-0.3-1.3
		c-0.2,0.6-0.3,1-0.3,1.3l-2.5,9L192.3,221.1L192.3,221.1z"/>
</g>
<g class="st0">
	<path class="st1" d="M210.6,220.1c-0.6,0.5-1,0.8-1.5,0.9c-0.4,0.1-1,0.3-1.6,0.3c-0.9,0-1.7-0.3-2.1-0.8s-0.8-1-0.8-1.8
		c0-0.5,0.2-0.8,0.3-1.2c0.2-0.3,0.4-0.6,0.8-0.9c0.3-0.2,0.6-0.3,1.1-0.4c0.3,0,0.8-0.2,1.3-0.2c1.2-0.1,2.1-0.3,2.6-0.4
		c0-0.2,0-0.3,0-0.4c0-0.6-0.2-1.1-0.4-1.2c-0.3-0.3-0.9-0.5-1.7-0.5c-0.8,0-1.2,0.2-1.5,0.3c-0.3,0.3-0.6,0.6-0.8,1.2l-1.3-0.1
		c0.1-0.6,0.3-1.1,0.6-1.5c0.3-0.5,0.8-0.6,1.4-0.9c0.6-0.1,1.2-0.3,1.9-0.3c0.7,0,1.3,0.2,1.8,0.3c0.4,0.1,0.8,0.5,1,0.6
		c0.3,0.1,0.3,0.6,0.5,1c0,0.3,0,0.8,0,1.3v1.9c0,1.4,0,2.3,0.1,2.6c0,0.3,0.2,0.8,0.3,1.1h-1.5
		C210.8,220.8,210.6,220.4,210.6,220.1z M210.5,216.8c-0.6,0.2-1.3,0.5-2.4,0.6c-0.6,0.2-1,0.2-1.2,0.3c-0.3,0.1-0.4,0.3-0.6,0.4
		c-0.1,0.2-0.2,0.4-0.2,0.8c0,0.4,0.2,0.8,0.5,0.9c0.3,0.3,0.8,0.5,1.3,0.5s1.1-0.2,1.5-0.3s0.8-0.6,0.9-1.1
		c0.2-0.3,0.3-0.8,0.3-1.5L210.5,216.8L210.5,216.8z"/>
	<path class="st1" d="M213.6,218.6l1.5-0.3c0.2,0.6,0.3,1,0.6,1.3c0.3,0.3,0.9,0.4,1.5,0.4s1.2-0.1,1.5-0.4c0.3-0.3,0.4-0.6,0.4-0.9
		c0-0.3-0.2-0.6-0.4-0.8c-0.2-0.2-0.8-0.3-1.5-0.5c-1.1-0.3-1.8-0.4-2.3-0.8c-0.5-0.1-0.8-0.4-0.9-0.8c-0.1-0.3-0.3-0.8-0.3-1.2
		s0.2-0.8,0.3-1.1c0.2-0.3,0.5-0.6,0.8-0.8c0.3-0.1,0.6-0.3,0.9-0.4c0.4-0.2,0.8-0.2,1.2-0.2c0.6,0,1.2,0.2,1.8,0.3
		c0.4,0.2,0.9,0.5,1,0.8c0.3,0.3,0.5,0.8,0.5,1.4l-1.4,0.1c0-0.4-0.3-0.8-0.6-1c-0.3-0.3-0.8-0.3-1.4-0.3c-0.6,0-1.2,0.1-1.5,0.3
		c-0.3,0.2-0.4,0.5-0.4,0.8c0,0.2,0,0.3,0.2,0.5c0.2,0.1,0.3,0.3,0.6,0.4c0.2,0,0.6,0.2,1.3,0.3c1,0.3,1.8,0.4,2.1,0.6
		c0.4,0.2,0.8,0.5,0.9,0.8c0.2,0.3,0.3,0.8,0.3,1.2s-0.1,0.9-0.4,1.3c-0.3,0.4-0.8,0.8-1.2,1.1c-0.6,0.3-1.2,0.3-1.8,0.3
		c-1.1,0-1.9-0.3-2.6-0.8C214.2,220.1,213.8,219.5,213.6,218.6z"/>
	<path class="st1" d="M222.5,221.1v-11.8h1.5v4.2c0.8-0.8,1.5-1.2,2.6-1.2c0.6,0,1.2,0.1,1.6,0.3c0.5,0.3,0.8,0.6,1.1,1
		c0.2,0.5,0.3,1.1,0.3,2v5.4h-1.5v-5.4c0-0.8-0.2-1.2-0.5-1.7c-0.3-0.3-0.8-0.4-1.3-0.4c-0.4,0-0.9,0.1-1.2,0.3
		c-0.5,0.2-0.6,0.5-0.8,0.9c-0.2,0.4-0.3,0.9-0.3,1.7v4.7H222.5L222.5,221.1z"/>
	<path class="st1" d="M231.6,210.9v-1.7h1.5v1.7H231.6z M231.6,221.1v-8.5h1.5v8.5H231.6z"/>
	<path class="st1" d="M235.3,221.1v-8.5h1.4v1.2c0.6-0.9,1.5-1.4,2.7-1.4c0.4,0,1.1,0.2,1.3,0.3c0.5,0.2,0.8,0.4,0.9,0.8
		c0.1,0.4,0.3,0.6,0.4,1.1c0,0.3,0.2,0.8,0.2,1.3v5.3h-1.5v-5.3c0-0.6,0-1-0.2-1.3c-0.1-0.3-0.3-0.6-0.6-0.8
		c-0.3-0.2-0.6-0.3-1.1-0.3c-0.6,0-1.2,0.2-1.7,0.6c-0.5,0.5-0.6,1.2-0.6,2.3v4.7L235.3,221.1L235.3,221.1z"/>
	<path class="st1" d="M244.2,221.7l1.3,0.1c0,0.5,0.2,0.8,0.5,0.9c0.3,0.3,0.9,0.4,1.5,0.4s1.2-0.2,1.5-0.4c0.3-0.3,0.6-0.6,0.8-1.2
		c0.1-0.3,0.1-0.9,0.1-1.8c-0.6,0.8-1.3,1-2.4,1c-1.2,0-2.1-0.5-2.7-1.2c-0.6-0.7-0.9-1.8-0.9-3c0-0.8,0.2-1.5,0.4-2.3
		c0.3-0.8,0.8-1.2,1.4-1.6c0.6-0.5,1.2-0.6,1.9-0.6c1.1,0,1.8,0.5,2.6,1.2v-1h1.3v7.3c0,1.4-0.1,2.3-0.4,2.9c-0.3,0.6-0.8,1-1.3,1.3
		c-0.6,0.3-1.3,0.5-2.1,0.5c-1.1,0-1.8-0.3-2.4-0.8C244.5,223.4,244.2,222.6,244.2,221.7z M245.4,216.6c0,1.1,0.2,2,0.6,2.4
		s1,0.8,1.6,0.8s1.2-0.3,1.7-0.8c0.4-0.5,0.8-1.4,0.8-2.4s-0.3-1.8-0.8-2.4c-0.5-0.6-1.1-0.8-1.7-0.8s-1.2,0.3-1.6,0.8
		C245.7,214.8,245.4,215.6,245.4,216.6z"/>
	<path class="st1" d="M256.8,219.8l0.2,1.3c-0.4,0.2-0.8,0.2-1.1,0.2c-0.6,0-0.9-0.2-1.2-0.3c-0.3-0.2-0.4-0.5-0.6-0.6
		c-0.1-0.1-0.2-0.9-0.2-1.6v-5h-1.1v-1.2h1.1v-2.1l1.5-0.9v3h1.5v1.2h-1.5v5c0,0.4,0,0.8,0.2,0.8c0,0.1,0.2,0.1,0.3,0.3
		c0.2,0,0.3,0.2,0.5,0.2C256.3,219.8,256.5,219.8,256.8,219.8z"/>
	<path class="st1" d="M257.7,216.8c0-1.7,0.4-2.7,1.3-3.5c0.8-0.6,1.7-0.9,2.7-0.9c1.2,0,2.1,0.4,2.8,1.2c0.7,0.8,1.1,1.8,1.1,3.2
		c0,1-0.2,2-0.4,2.5c-0.3,0.6-0.8,1.1-1.5,1.5c-0.6,0.3-1.4,0.5-2.1,0.5c-1.2,0-2.1-0.5-2.8-1.2
		C258.2,219.3,257.7,218.3,257.7,216.8z M259.2,216.8c0,1,0.3,2,0.8,2.4c0.4,0.6,1.1,0.8,1.8,0.8c0.7,0,1.3-0.3,1.8-0.8
		c0.5-0.6,0.8-1.3,0.8-2.6c0-1-0.3-1.8-0.8-2.4c-0.5-0.6-1-0.8-1.8-0.8c-0.8,0-1.4,0.3-1.8,0.8C259.5,214.8,259.2,215.7,259.2,216.8
		z"/>
	<path class="st1" d="M267.5,221.1v-8.5h1.3v1.2c0.6-0.9,1.5-1.4,2.7-1.4c0.4,0,1,0.2,1.3,0.3c0.5,0.2,0.8,0.4,0.9,0.8
		c0.1,0.3,0.3,0.6,0.4,1.1c0,0.3,0.2,0.8,0.2,1.3v5.3h-1.5v-5.3c0-0.6,0-1-0.2-1.3c-0.2-0.3-0.3-0.6-0.6-0.8c-0.3-0.2-0.6-0.3-1-0.3
		c-0.6,0-1.2,0.2-1.7,0.6c-0.4,0.5-0.6,1.2-0.6,2.3v4.7L267.5,221.1L267.5,221.1z"/>
	<path class="st1" d="M282.8,221.1l-2.6-8.5h1.5l1.3,5l0.5,1.8c0-0.2,0.1-0.8,0.4-1.8l1.3-5h1.5l1.3,5l0.4,1.6l0.5-1.6l1.5-5h1.3
		l-2.7,8.5h-1.5l-1.4-5.1l-0.3-1.5l-1.8,6.6H282.8z"/>
	<path class="st1" d="M293.1,210.9v-1.7h1.5v1.7H293.1z M293.1,221.1v-8.5h1.5v8.5H293.1z"/>
	<path class="st1" d="M296.7,221.1v-8.5h1.3v1.2c0.6-0.9,1.5-1.4,2.7-1.4c0.4,0,1,0.2,1.3,0.3c0.5,0.2,0.8,0.4,0.9,0.8
		c0.1,0.3,0.3,0.6,0.4,1.1c0,0.3,0.2,0.8,0.2,1.3v5.3H302v-5.3c0-0.6,0-1-0.2-1.3c-0.2-0.3-0.3-0.6-0.6-0.8c-0.3-0.2-0.6-0.3-1-0.3
		c-0.6,0-1.2,0.2-1.7,0.6c-0.4,0.5-0.6,1.2-0.6,2.3v4.7L296.7,221.1L296.7,221.1z"/>
	<path class="st1" d="M311.8,218.3l1.5,0.2c-0.3,0.9-0.6,1.5-1.3,2.1c-0.6,0.5-1.5,0.8-2.4,0.8c-1.2,0-2.3-0.5-3-1.2
		c-0.7-0.7-1-1.8-1-3.3s0.3-2.5,1-3.3c0.7-0.8,1.7-1.2,2.9-1.2c1.2,0,2.1,0.5,2.8,1.2c0.7,0.7,1.1,1.8,1.1,3.3c0,0.2,0,0.2,0,0.5
		H307c0,0.9,0.3,1.6,0.8,2.1c0.4,0.5,1,0.8,1.8,0.8c0.6,0,1-0.1,1.3-0.4C311.3,219.3,311.5,218.9,311.8,218.3z M307,216h4.8
		c0-0.8-0.3-1.2-0.6-1.7c-0.5-0.6-1.1-0.9-1.8-0.9c-0.6,0-1.2,0.2-1.7,0.6C307.3,214.7,307,215.3,307,216z"/>
	<path class="st1" d="M314.5,218.6l1.5-0.3c0.2,0.6,0.3,1,0.6,1.3c0.3,0.3,0.9,0.4,1.5,0.4s1.2-0.1,1.5-0.4c0.3-0.3,0.4-0.6,0.4-0.9
		c0-0.3-0.1-0.6-0.4-0.8c-0.2-0.2-0.8-0.3-1.5-0.5c-1.1-0.3-1.8-0.4-2.3-0.8c-0.4-0.1-0.8-0.4-0.9-0.8c-0.2-0.3-0.3-0.8-0.3-1.2
		s0.1-0.8,0.3-1.1c0.1-0.3,0.5-0.6,0.8-0.8c0.3-0.1,0.6-0.3,0.9-0.4c0.4-0.2,0.8-0.2,1.2-0.2c0.6,0,1.2,0.2,1.8,0.3
		c0.4,0.2,0.9,0.5,1.1,0.8c0.3,0.3,0.4,0.8,0.4,1.4l-1.3,0.1c0-0.4-0.3-0.8-0.6-1c-0.3-0.2-0.8-0.3-1.3-0.3s-1.2,0.1-1.5,0.3
		c-0.3,0.2-0.5,0.5-0.5,0.8c0,0.2,0,0.3,0.2,0.5c0.1,0.1,0.3,0.3,0.6,0.4c0.2,0,0.6,0.2,1.4,0.3c1,0.3,1.8,0.4,2.1,0.6
		c0.3,0.1,0.8,0.5,0.9,0.8c0.3,0.3,0.3,0.8,0.3,1.2s-0.2,0.9-0.5,1.3c-0.3,0.4-0.8,0.8-1.2,1.1c-0.6,0.3-1.2,0.3-1.8,0.3
		c-1,0-1.9-0.3-2.5-0.8S314.7,219.5,314.5,218.6z"/>
</g>
<g class="st0">
	<path class="st1" d="M199.8,245.1l1.5,0.5c-0.3,1.3-0.9,2.3-1.8,3c-0.9,0.6-2,1-3.2,1c-1.2,0-2.3-0.3-3.2-0.8
		c-0.8-0.4-1.3-1.2-1.8-2.3c-0.5-1-0.6-2.1-0.6-3.1c0-1.2,0.3-2.3,0.8-3.2s1.2-1.6,1.9-2.1c0.9-0.5,1.8-0.8,2.8-0.8
		c1.2,0,2.3,0.3,3,0.9c0.7,0.6,1.3,1.5,1.7,2.6l-1.5,0.3c-0.3-0.9-0.6-1.5-1.2-2c-0.6-0.5-1.2-0.6-2-0.6c-0.9,0-1.7,0.2-2.3,0.6
		c-0.6,0.5-1,1-1.3,1.8c-0.3,0.8-0.3,1.5-0.3,2.3c0,1.1,0.2,2,0.5,2.7c0.3,0.7,0.8,1.3,1.3,1.7s1.3,0.6,2,0.6c0.9,0,1.7-0.3,2.3-0.8
		C199.2,246.9,199.7,246.2,199.8,245.1z"/>
	<path class="st1" d="M208.8,248.3c-0.6,0.5-1,0.8-1.5,0.9s-1,0.3-1.7,0.3c-0.9,0-1.7-0.3-2.1-0.8c-0.5-0.5-0.8-1.1-0.8-1.8
		c0-0.4,0.2-0.8,0.3-1.2c0.2-0.3,0.5-0.6,0.8-0.9c0.3-0.1,0.6-0.3,1.1-0.4c0.3,0,0.8-0.2,1.3-0.2c1.2-0.2,2.1-0.3,2.5-0.5
		c0-0.1,0-0.3,0-0.4c0-0.6-0.1-1.1-0.4-1.2c-0.3-0.3-0.9-0.5-1.7-0.5c-0.8,0-1.2,0.2-1.5,0.3c-0.3,0.3-0.6,0.6-0.8,1.2l-1.3-0.2
		c0.2-0.6,0.3-1.1,0.6-1.5c0.3-0.4,0.8-0.6,1.3-0.9c0.6-0.2,1.2-0.3,1.9-0.3c0.7,0,1.4,0.1,1.8,0.3c0.4,0.2,0.8,0.5,1.1,0.6
		c0.3,0.1,0.3,0.6,0.4,1.1c0,0.3,0,0.8,0,1.3v2c0,1.3,0,2.3,0.2,2.5c0,0.3,0.2,0.8,0.3,1.1h-1.5C209,249,208.8,248.6,208.8,248.3z
		 M208.7,245c-0.6,0.1-1.3,0.4-2.4,0.6c-0.6,0.2-1.1,0.2-1.2,0.3c-0.3,0.2-0.5,0.3-0.6,0.4c-0.1,0.2-0.2,0.5-0.2,0.8
		c0,0.5,0.2,0.8,0.5,0.9c0.3,0.3,0.8,0.4,1.3,0.4c0.6,0,1.1-0.2,1.5-0.3c0.5-0.1,0.8-0.6,0.9-1c0.1-0.3,0.3-0.8,0.3-1.5L208.7,245
		L208.7,245z"/>
	<path class="st1" d="M212.3,249.3v-11.8h1.5v11.8H212.3z"/>
	<path class="st1" d="M216,239.1v-1.6h1.5v1.6H216z M216,249.3v-8.5h1.5v8.5H216z"/>
	<path class="st1" d="M220,249.3v-7.5h-1.3v-1.2h1.3v-0.9c0-0.6,0-1.1,0.2-1.4c0.2-0.4,0.4-0.8,0.8-0.9c0.3-0.3,0.9-0.3,1.5-0.3
		c0.4,0,0.9,0,1.3,0.2l-0.2,1.2c-0.3,0-0.6-0.2-0.9-0.2c-0.5,0-0.8,0.2-0.9,0.3c-0.2,0.2-0.3,0.6-0.3,1.1v0.8h1.7v1.2h-1.7v7.5
		L220,249.3L220,249.3L220,249.3z"/>
	<path class="st1" d="M223.7,245c0-1.7,0.5-2.7,1.4-3.5c0.8-0.6,1.6-0.9,2.7-0.9c1.2,0,2.1,0.4,2.8,1.2c0.7,0.8,1,1.8,1,3.2
		c0,1-0.1,1.9-0.4,2.5s-0.8,1-1.5,1.5c-0.6,0.3-1.3,0.5-2.1,0.5c-1.2,0-2.1-0.5-2.8-1.2C224.1,247.5,223.7,246.5,223.7,245z
		 M225.2,245c0,1,0.3,1.9,0.8,2.4s1.1,0.8,1.8,0.8c0.7,0,1.3-0.3,1.8-0.8c0.4-0.4,0.8-1.3,0.8-2.5c0-1-0.3-1.8-0.8-2.4
		c-0.5-0.6-1.1-0.8-1.8-0.8c-0.7,0-1.3,0.3-1.8,0.8C225.5,242.9,225.2,243.9,225.2,245z"/>
	<path class="st1" d="M233.4,249.3v-8.5h1.4v1.3c0.3-0.6,0.6-1.1,0.9-1.2c0.3-0.2,0.6-0.3,0.9-0.3c0.4,0,1,0.2,1.5,0.4l-0.5,1.4
		c-0.3-0.2-0.8-0.3-1-0.3c-0.3,0-0.6,0.2-0.9,0.3s-0.4,0.4-0.6,0.8c-0.2,0.4-0.3,1-0.3,1.6v4.5H233.4z"/>
	<path class="st1" d="M239,249.3v-8.5h1.3v1.2c0.6-0.9,1.5-1.4,2.7-1.4c0.4,0,1,0.2,1.3,0.3c0.5,0.2,0.8,0.4,0.9,0.8
		c0.1,0.3,0.3,0.6,0.4,1.1c0,0.3,0.2,0.8,0.2,1.3v5.3h-1.4v-5.3c0-0.6,0-1-0.2-1.3c-0.2-0.3-0.3-0.6-0.6-0.8c-0.3-0.2-0.6-0.3-1-0.3
		c-0.6,0-1.2,0.2-1.7,0.6c-0.4,0.5-0.6,1.2-0.6,2.3v4.7L239,249.3L239,249.3z"/>
	<path class="st1" d="M248.1,239.1v-1.6h1.5v1.6H248.1z M248.1,249.3v-8.5h1.5v8.5H248.1z"/>
	<path class="st1" d="M257.4,248.3c-0.6,0.5-1,0.8-1.5,0.9c-0.4,0.2-1,0.3-1.6,0.3c-0.9,0-1.7-0.3-2.1-0.8c-0.4-0.5-0.8-1.1-0.8-1.8
		c0-0.4,0.2-0.8,0.3-1.2c0.2-0.3,0.4-0.6,0.8-0.9c0.3-0.1,0.6-0.3,1.1-0.4c0.3,0,0.8-0.2,1.3-0.2c1.2-0.2,2.1-0.3,2.6-0.5
		c0-0.1,0-0.3,0-0.4c0-0.6-0.2-1.1-0.4-1.2c-0.3-0.3-0.9-0.5-1.7-0.5c-0.8,0-1.2,0.2-1.5,0.3c-0.3,0.3-0.6,0.6-0.8,1.2l-1.3-0.2
		c0.1-0.6,0.3-1.1,0.6-1.5c0.3-0.4,0.8-0.6,1.4-0.9c0.6-0.2,1.2-0.3,1.9-0.3c0.7,0,1.3,0.1,1.8,0.3c0.4,0.2,0.8,0.5,1,0.6
		c0.2,0.3,0.3,0.6,0.5,1.1c0,0.3,0,0.8,0,1.3v2c0,1.3,0,2.3,0.1,2.5c0.2,0.3,0.2,0.8,0.3,1.1h-1.5
		C257.5,249,257.4,248.6,257.4,248.3z M257.3,245c-0.6,0.1-1.4,0.4-2.4,0.6c-0.6,0.2-1,0.2-1.2,0.3c-0.3,0.2-0.4,0.3-0.6,0.4
		c-0.1,0.2-0.2,0.5-0.2,0.8c0,0.5,0.2,0.8,0.4,0.9c0.3,0.3,0.8,0.4,1.4,0.4c0.6,0,1-0.2,1.5-0.3c0.4-0.1,0.8-0.6,0.9-1
		c0.2-0.3,0.3-0.8,0.3-1.5L257.3,245L257.3,245z"/>
	<path class="st1" d="M267.2,249.3l-2.5-8.5h1.5l1.3,5l0.4,1.8c0-0.2,0.2-0.8,0.5-1.8l1.3-5h1.5l1.3,5l0.5,1.6l0.4-1.6l1.5-5h1.3
		l-2.7,8.5H272l-1.3-5.1l-0.3-1.5l-1.8,6.6H267.2z"/>
	<path class="st1" d="M277.5,239.1v-1.6h1.5v1.6H277.5z M277.5,249.3v-8.5h1.5v8.5H277.5z"/>
	<path class="st1" d="M281.1,249.3v-8.5h1.4v1.2c0.6-0.9,1.5-1.4,2.7-1.4c0.4,0,1.1,0.2,1.3,0.3c0.5,0.2,0.8,0.4,0.9,0.8
		c0.1,0.4,0.3,0.6,0.4,1.1c0,0.3,0.2,0.8,0.2,1.3v5.3h-1.5v-5.3c0-0.6,0-1-0.2-1.3c-0.1-0.3-0.3-0.6-0.6-0.8
		c-0.3-0.2-0.6-0.3-1.1-0.3c-0.6,0-1.2,0.2-1.7,0.6c-0.5,0.5-0.6,1.2-0.6,2.3v4.7L281.1,249.3L281.1,249.3z"/>
	<path class="st1" d="M296.1,246.5l1.5,0.1c-0.3,0.9-0.6,1.5-1.3,2.1c-0.6,0.4-1.5,0.8-2.4,0.8c-1.2,0-2.3-0.5-3-1.2
		c-0.7-0.7-1-1.8-1-3.3s0.3-2.6,1-3.3c0.7-0.7,1.7-1.2,2.9-1.2c1.2,0,2.1,0.4,2.8,1.2c0.7,0.8,1.1,1.8,1.1,3.3c0,0.1,0,0.1,0,0.4
		h-6.4c0,0.9,0.3,1.7,0.8,2.1c0.4,0.5,1,0.8,1.8,0.8c0.6,0,1-0.2,1.3-0.5C295.7,247.5,296,247.2,296.1,246.5z M291.5,244.2h4.8
		c0-0.8-0.3-1.2-0.6-1.7c-0.4-0.6-1-0.9-1.8-0.9c-0.6,0-1.2,0.1-1.7,0.6C291.8,242.9,291.5,243.5,291.5,244.2z"/>
	<path class="st1" d="M299,246.8l1.5-0.3c0.2,0.6,0.3,1,0.6,1.3c0.3,0.3,0.9,0.5,1.5,0.5s1.2-0.2,1.5-0.5c0.3-0.3,0.5-0.6,0.5-0.9
		c0-0.3-0.2-0.6-0.5-0.8c-0.2-0.2-0.8-0.3-1.5-0.5c-1-0.3-1.8-0.5-2.3-0.8c-0.5-0.2-0.8-0.5-0.9-0.8c-0.1-0.3-0.3-0.8-0.3-1.2
		s0.2-0.8,0.3-1c0.2-0.3,0.4-0.6,0.8-0.8c0.4-0.2,0.6-0.3,0.9-0.5c0.3-0.1,0.8-0.1,1.2-0.1c0.6,0,1.2,0.1,1.8,0.3
		c0.5,0.2,0.9,0.5,1.2,0.8c0.3,0.3,0.4,0.8,0.4,1.3l-1.3,0.2c0-0.5-0.3-0.8-0.6-1c-0.3-0.3-0.8-0.3-1.3-0.3s-1.2,0.2-1.5,0.3
		c-0.3,0.1-0.5,0.4-0.5,0.8c0,0.1,0,0.3,0.2,0.4c0.1,0.2,0.3,0.3,0.6,0.4c0.2,0,0.6,0.2,1.4,0.3c1,0.3,1.8,0.4,2.1,0.6
		c0.5,0.2,0.8,0.5,0.9,0.8c0.3,0.3,0.3,0.8,0.3,1.2s-0.2,0.9-0.5,1.3c-0.3,0.5-0.8,0.8-1.2,1.1c-0.6,0.3-1.2,0.3-1.8,0.3
		c-1,0-1.9-0.3-2.5-0.8C299.4,248.3,299.1,247.7,299,246.8z"/>
</g>
<g>
	<path class="st1" d="M15.3,103.4l2,0.5c-0.5,1.6-1.2,2.9-2.3,3.6s-2.4,1.2-3.9,1.2c-1.6,0-2.8-0.3-3.9-0.9c-1-0.6-1.8-1.6-2.3-2.8
		c-0.4-1.2-0.8-2.5-0.8-3.9c0-1.5,0.3-2.9,0.9-4c0.6-1.2,1.3-2,2.6-2.5c1.2-0.6,2.3-0.9,3.6-0.9c1.5,0,2.7,0.3,3.8,1.2
		s1.7,1.8,2.1,3.1l-2,0.5c-0.3-1-0.9-1.8-1.5-2.4c-0.6-0.5-1.5-0.8-2.4-0.8c-1.2,0-2.1,0.3-2.8,0.8c-0.8,0.6-1.4,1.2-1.7,2.3
		c-0.3,0.9-0.5,1.8-0.5,2.9c0,1.2,0.2,2.4,0.6,3.3c0.3,0.9,0.9,1.7,1.6,2.1c0.8,0.5,1.6,0.8,2.5,0.8c1,0,2-0.3,2.7-0.9
		C14.5,105.5,15,104.6,15.3,103.4z"/>
	<path class="st1" d="M18.7,103.2c0-2,0.6-3.5,1.7-4.4c0.9-0.8,2.1-1.2,3.3-1.2c1.5,0,2.7,0.5,3.6,1.5c0.9,0.9,1.3,2.3,1.3,4
		c0,1.4-0.2,2.4-0.6,3.3c-0.5,0.8-1.1,1.4-1.8,1.8s-1.7,0.6-2.5,0.6c-1.5,0-2.7-0.5-3.6-1.5C19.2,106.4,18.7,105,18.7,103.2z
		 M20.7,103.2c0,1.4,0.3,2.4,0.9,3c0.6,0.6,1.3,1,2.3,1c0.9,0,1.6-0.3,2.3-1c0.6-0.8,0.9-1.8,0.9-3.1s-0.3-2.3-0.9-3s-1.3-1-2.3-1
		s-1.7,0.3-2.3,1S20.7,101.9,20.7,103.2z"/>
	<path class="st1" d="M30.9,108.5V93.8h1.8V99c0.9-1,2-1.5,3.2-1.5c0.8,0,1.5,0.1,2.1,0.5c0.6,0.3,1.1,0.8,1.2,1.4
		c0.3,0.6,0.4,1.4,0.4,2.4v6.7h-1.8v-6.8c0-0.9-0.2-1.5-0.6-2c-0.4-0.5-0.9-0.6-1.6-0.6c-0.6,0-1.1,0.1-1.5,0.5
		c-0.5,0.3-0.9,0.6-1,1.1s-0.3,1.2-0.3,2v5.8C32.7,108.5,30.9,108.5,30.9,108.5z"/>
	<path class="st1" d="M41.7,103.2c0-2,0.6-3.5,1.6-4.4c0.9-0.8,2.1-1.2,3.3-1.2c1.5,0,2.7,0.5,3.6,1.5c0.9,0.9,1.4,2.3,1.4,4
		c0,1.4-0.1,2.4-0.6,3.3c-0.4,0.8-1.1,1.4-1.8,1.8s-1.6,0.6-2.6,0.6c-1.5,0-2.7-0.5-3.6-1.5C42.1,106.4,41.7,105,41.7,103.2z
		 M43.5,103.2c0,1.4,0.3,2.4,0.9,3s1.3,1,2.3,1c0.9,0,1.6-0.3,2.2-1c0.6-0.8,0.9-1.8,0.9-3.1s-0.3-2.3-0.9-3c-0.6-0.8-1.3-1-2.3-1
		s-1.7,0.3-2.3,1S43.5,101.9,43.5,103.2z"/>
	<path class="st1" d="M62.2,108.5l-3.8-14.7h1.9l2.3,9.6c0.3,1,0.4,2,0.6,3c0.4-1.5,0.6-2.5,0.6-2.7l2.9-9.9h2.4l2.1,7.5
		c0.6,1.8,0.9,3.6,1.2,5.3c0.1-0.9,0.4-2,0.8-3.1l2.3-9.5h1.9l-4.2,14.6h-1.9l-2.9-11.4c-0.3-0.9-0.4-1.5-0.4-1.8
		c-0.3,0.8-0.4,1.3-0.4,1.8l-3.2,11.3H62.2z"/>
	<path class="st1" d="M78.9,95.9v-2.1h1.8v2.1H78.9z M78.9,108.5V97.8h1.8v10.7H78.9z"/>
	<path class="st1" d="M83.5,108.5V97.8h1.6v1.5c0.8-1.2,1.9-1.8,3.4-1.8c0.6,0,1.2,0.1,1.8,0.3c0.6,0.3,0.9,0.6,1.2,0.9
		s0.4,0.8,0.6,1.4c0,0.3,0.1,0.9,0.1,1.8v6.6h-1.8V102c0-0.8,0-1.4-0.1-1.6c-0.1-0.2-0.4-0.6-0.8-0.9c-0.3-0.1-0.8-0.3-1.2-0.3
		c-0.8,0-1.5,0.3-1.9,0.8c-0.6,0.5-0.9,1.4-0.9,2.9v5.9h-2.1L83.5,108.5L83.5,108.5z"/>
	<path class="st1" d="M102.3,105l1.8,0.3c-0.3,1-0.9,2-1.6,2.5c-0.8,0.6-1.8,0.9-3,0.9c-1.5,0-2.9-0.4-3.8-1.5
		c-0.9-0.9-1.4-2.2-1.4-4s0.4-3.1,1.4-4.2c0.9-1,2.1-1.5,3.6-1.5s2.5,0.5,3.5,1.5c0.9,0.9,1.4,2.4,1.4,4c0,0.1,0,0.3,0,0.5h-8
		c0,1.2,0.5,2.1,1,2.7c0.6,0.6,1.4,0.9,2.3,0.9c0.6,0,1.2-0.1,1.6-0.5C101.5,106.4,102,105.8,102.3,105z M96.3,102.2h6
		c-0.1-0.9-0.3-1.5-0.8-2c-0.6-0.8-1.4-1-2.3-1s-1.5,0.3-2.1,0.9C96.7,100.5,96.5,101.3,96.3,102.2z"/>
	<path class="st1" d="M106.4,108.5V97.8h1.6v1.7c0.5-0.8,0.8-1.2,1.2-1.5c0.3-0.3,0.8-0.3,1.2-0.3c0.6,0,1.2,0.1,1.8,0.6l-0.6,1.6
		c-0.5-0.3-0.9-0.5-1.4-0.5s-0.8,0.1-1,0.3c-0.3,0.3-0.6,0.6-0.6,1c-0.1,0.6-0.3,1.4-0.3,2.1v5.7H106.4z"/>
	<path class="st1" d="M113.1,112.7l-0.1-1.6c0.5,0.1,0.8,0.1,1,0.1c0.5,0,0.8,0,0.9-0.1c0.3-0.2,0.5-0.3,0.6-0.6
		c0.1-0.1,0.3-0.6,0.6-1.4c0-0.1,0.1-0.3,0.1-0.4l-4-10.7h2l2.3,6.1c0.3,0.8,0.6,1.6,0.8,2.4c0.1-0.9,0.5-1.6,0.8-2.4l2.3-6.1h1.8
		l-4,10.8c-0.5,1.2-0.8,2-1,2.4c-0.3,0.6-0.8,1.1-1,1.4c-0.5,0.3-0.9,0.5-1.5,0.5C114,112.8,113.5,112.8,113.1,112.7z"/>
	<path class="st1" d="M128.5,104.1v-1.8h5.5v1.8H128.5z"/>
	<path class="st1" d="M152.5,103.4l2,0.5c-0.5,1.6-1.2,2.9-2.3,3.6s-2.4,1.2-3.9,1.2c-1.6,0-2.8-0.3-3.9-0.9c-1-0.6-1.8-1.6-2.3-2.8
		c-0.5-1.2-0.8-2.5-0.8-3.9c0-1.5,0.3-2.9,0.9-4c0.6-1.2,1.4-2,2.6-2.5c1.2-0.6,2.3-0.9,3.6-0.9c1.5,0,2.7,0.3,3.8,1.2
		s1.7,1.8,2.1,3.1l-1.9,0.3c-0.3-1-0.9-1.8-1.5-2.4c-0.6-0.5-1.5-0.8-2.4-0.8c-1.2,0-2.1,0.3-2.8,0.8c-0.8,0.6-1.4,1.2-1.7,2.3
		c-0.3,0.9-0.5,1.8-0.5,2.9c0,1.2,0.1,2.4,0.6,3.3c0.3,0.9,0.9,1.7,1.6,2.1c0.8,0.5,1.6,0.8,2.5,0.8c1,0,2-0.3,2.7-0.9
		C151.8,105.5,152.2,104.6,152.5,103.4z"/>
	<path class="st1" d="M156.7,108.5V93.8h1.8V99c0.9-1,2-1.5,3.1-1.5c0.8,0,1.5,0.1,2.1,0.5c0.6,0.3,1,0.8,1.2,1.4
		c0.3,0.6,0.5,1.4,0.5,2.4v6.7h-1.8v-6.8c0-0.9-0.2-1.5-0.6-2c-0.5-0.5-0.9-0.6-1.7-0.6c-0.6,0-1,0.1-1.5,0.5
		c-0.5,0.4-0.8,0.6-1,1.2c-0.1,0.5-0.3,1.2-0.3,2v5.9h-1.8L156.7,108.5L156.7,108.5z"/>
	<path class="st1" d="M175.5,105l1.8,0.3c-0.3,1-0.9,2-1.6,2.5c-0.8,0.6-1.8,0.9-3,0.9c-1.5,0-2.9-0.4-3.8-1.5
		c-0.9-0.9-1.4-2.2-1.4-4s0.5-3.1,1.4-4.2c0.9-1,2.1-1.5,3.6-1.5S175,98,176,99c0.9,0.9,1.4,2.4,1.4,4c0,0.1,0,0.3,0,0.5h-8
		c0,1.2,0.5,2.1,1.1,2.7s1.3,0.9,2.3,0.9c0.6,0,1.2-0.1,1.6-0.5C174.7,106.4,175.2,105.8,175.5,105z M169.5,102.2h6
		c-0.2-0.9-0.3-1.5-0.8-2c-0.6-0.8-1.3-1-2.3-1s-1.4,0.3-2,0.9C170,100.5,169.5,101.3,169.5,102.2z"/>
	<path class="st1" d="M186.6,107.1c-0.6,0.6-1.3,0.9-1.9,1.2c-0.6,0.3-1.4,0.3-2,0.3c-1.2,0-2.1-0.3-2.7-0.9s-0.9-1.3-0.9-2.3
		c0-0.5,0.2-1,0.3-1.5c0.3-0.5,0.6-0.8,0.9-1c0.5-0.3,0.8-0.5,1.4-0.6c0.3-0.1,0.9-0.1,1.6-0.3c1.5-0.1,2.6-0.5,3.3-0.6
		c0-0.3,0-0.5,0-0.5c0-0.8-0.2-1.2-0.5-1.5c-0.4-0.5-1.2-0.6-2.1-0.6c-0.9,0-1.5,0.1-2,0.5c-0.5,0.3-0.8,0.9-0.9,1.6l-1.8-0.3
		c0.2-0.8,0.5-1.4,0.8-1.8c0.3-0.4,0.9-0.8,1.7-1s1.5-0.5,2.4-0.5c0.9,0,1.6,0.1,2.3,0.3c0.6,0.1,1,0.5,1.2,0.8
		c0.3,0.3,0.5,0.8,0.6,1.2c0,0.3,0.1,0.9,0.1,1.6v2.4c0,1.6,0,2.7,0.2,3.1c0.2,0.5,0.3,0.9,0.5,1.4h-2
		C186.7,108.2,186.6,107.7,186.6,107.1z M186.5,103.1c-0.6,0.3-1.6,0.5-3,0.8c-0.8,0.1-1.2,0.3-1.6,0.3c-0.3,0.1-0.6,0.3-0.8,0.6
		c-0.2,0.3-0.3,0.6-0.3,0.9c0,0.4,0.2,0.9,0.6,1.2c0.3,0.3,0.9,0.5,1.6,0.5c0.7,0,1.4-0.2,1.8-0.5c0.4-0.3,0.9-0.8,1.2-1.2
		c0.2-0.5,0.3-1,0.3-1.8L186.5,103.1L186.5,103.1z"/>
	<path class="st1" d="M191.1,112.5V97.8h1.7v1.4c0.5-0.6,0.9-0.9,1.3-1.2c0.5-0.3,1-0.5,1.8-0.5c0.9,0,1.7,0.3,2.4,0.8
		s1.2,1.2,1.7,2c0.4,0.8,0.6,1.8,0.6,2.9c0,1-0.2,2.1-0.6,3c-0.4,0.9-0.9,1.5-1.7,2s-1.5,0.8-2.4,0.8c-0.6,0-1.2-0.1-1.7-0.5
		s-0.9-0.6-1.2-0.9v5.3L191.1,112.5L191.1,112.5z M192.6,103.2c0,1.4,0.3,2.4,0.9,3s1.2,1,2,1s1.5-0.3,2.1-1
		c0.6-0.7,0.9-1.8,0.9-3.1s-0.3-2.4-0.9-3c-0.6-0.6-1.2-1-2-1c-0.8,0-1.5,0.3-2.1,1S192.6,101.9,192.6,103.2z"/>
	<path class="st1" d="M208.2,108.5V97.8h1.7v1.7c0.5-0.8,0.8-1.2,1.2-1.5c0.3-0.3,0.8-0.3,1.2-0.3c0.6,0,1.2,0.1,1.8,0.6l-0.6,1.6
		c-0.4-0.3-0.9-0.5-1.3-0.5c-0.5,0-0.8,0.1-1.1,0.3c-0.3,0.3-0.6,0.6-0.6,1c-0.2,0.6-0.3,1.4-0.3,2.1v5.7
		C210.2,108.5,208.2,108.5,208.2,108.5z"/>
	<path class="st1" d="M222.3,105l1.8,0.3c-0.3,1-0.9,2-1.6,2.5c-0.8,0.6-1.8,0.9-3,0.9c-1.5,0-2.9-0.4-3.8-1.5
		c-0.9-0.9-1.4-2.2-1.4-4s0.5-3.1,1.4-4.2c0.9-1,2.1-1.5,3.6-1.5s2.6,0.5,3.5,1.5c0.9,0.9,1.3,2.4,1.3,4c0,0.1,0,0.3,0,0.5h-7.9
		c0,1.2,0.4,2.1,1,2.7s1.3,0.9,2.3,0.9c0.6,0,1.2-0.1,1.7-0.5C221.7,106.4,222.2,105.8,222.3,105z M216.5,102.2h6
		c-0.2-0.9-0.3-1.5-0.8-2c-0.6-0.8-1.3-1-2.3-1s-1.5,0.3-2.1,0.9C216.8,100.5,216.5,101.3,216.5,102.2z"/>
	<path class="st1" d="M233.4,108.5v-1.3c-0.8,1-1.6,1.6-3,1.6c-0.9,0-1.6-0.3-2.4-0.8s-1.2-1-1.7-2c-0.4-0.9-0.6-1.8-0.6-2.9
		c0-1,0.1-2.1,0.6-2.9c0.3-0.9,0.9-1.5,1.7-2c0.8-0.5,1.5-0.8,2.4-0.8c0.6,0,1.2,0.1,1.7,0.5c0.4,0.3,0.9,0.6,1.2,1v-5.3h1.8v14.7
		L233.4,108.5L233.4,108.5z M227.7,103.2c0,1.4,0.3,2.4,0.9,3c0.6,0.8,1.2,1,2.1,1c0.8,0,1.5-0.3,1.9-0.9c0.6-0.6,0.9-1.7,0.9-3
		c0-1.5-0.3-2.5-0.9-3.1c-0.6-0.8-1.2-1-2.1-1c-0.8,0-1.5,0.3-2,1C228,100.7,227.7,101.7,227.7,103.2z"/>
	<path class="st1" d="M245.7,108.5l-3.3-10.7h1.8l1.7,6.1l0.6,2.3c0-0.2,0.2-0.9,0.6-2.3l1.7-6.3h1.8l1.6,6.1l0.6,2.1l0.6-2.1
		l1.8-6.1h1.8l-3.3,10.6h-1.9l-1.7-6.5l-0.4-1.8l-2.1,8.2L245.7,108.5L245.7,108.5z"/>
	<path class="st1" d="M258.6,95.9v-2.1h1.8v2.1H258.6z M258.6,108.5V97.8h1.8v10.7H258.6z"/>
	<path class="st1" d="M263.1,108.5V97.8h1.7v1.5c0.8-1.2,1.9-1.8,3.4-1.8c0.6,0,1.2,0.1,1.8,0.3c0.6,0.3,0.9,0.6,1.2,0.9
		c0.3,0.3,0.4,0.8,0.6,1.4c0,0.3,0.2,0.9,0.2,1.8v6.6h-1.9V102c0-0.8,0-1.4-0.2-1.6c-0.1-0.3-0.4-0.6-0.8-0.9
		c-0.3-0.1-0.8-0.3-1.2-0.3c-0.8,0-1.5,0.3-1.9,0.8c-0.5,0.5-0.9,1.4-0.9,2.9v5.9h-1.9L263.1,108.5L263.1,108.5z"/>
	<path class="st1" d="M281.8,105l1.8,0.3c-0.3,1-0.9,2-1.7,2.5c-0.8,0.6-1.8,0.9-3,0.9c-1.5,0-2.8-0.4-3.8-1.5
		c-0.9-0.9-1.3-2.2-1.3-4s0.4-3.1,1.3-4.2c0.9-1,2.1-1.5,3.6-1.5s2.6,0.5,3.4,1.5c0.9,1,1.4,2.4,1.4,4c0,0.1,0,0.3,0,0.5h-8
		c0,1.2,0.5,2.1,1,2.7c0.6,0.6,1.4,0.9,2.3,0.9c0.6,0,1.2-0.1,1.7-0.5C281.3,106.4,281.5,105.8,281.8,105z M275.8,102.2h6
		c-0.1-0.9-0.3-1.5-0.8-2c-0.6-0.8-1.3-1-2.3-1c-0.9,0-1.5,0.3-2.1,0.9C276.3,100.5,276,101.3,275.8,102.2z"/>
	<path class="st1" d="M298.7,104.6l1.8,0.3c-0.2,1.2-0.8,2.3-1.5,2.9c-0.8,0.8-1.8,1-3,1c-1.5,0-2.7-0.5-3.4-1.5
		c-0.9-0.9-1.4-2.3-1.4-4c0-1.2,0.2-2.1,0.6-3s0.9-1.5,1.8-2c0.8-0.5,1.7-0.6,2.5-0.6c1.2,0,2.1,0.3,2.9,0.9s1.2,1.4,1.3,2.5
		l-1.8,0.3c-0.2-0.8-0.5-1.2-0.9-1.6c-0.4-0.3-0.9-0.6-1.5-0.6c-0.9,0-1.7,0.3-2.3,1c-0.6,0.6-0.9,1.6-0.9,3.1s0.3,2.5,0.8,3.1
		s1.2,0.9,2.1,0.9c0.8,0,1.3-0.2,1.8-0.6C298.2,106.2,298.5,105.5,298.7,104.6z"/>
	<path class="st1" d="M309,107.1c-0.6,0.6-1.4,0.9-2,1.2c-0.6,0.3-1.3,0.3-2,0.3c-1.2,0-2.1-0.3-2.7-0.9c-0.6-0.6-0.9-1.3-0.9-2.3
		c0-0.5,0.2-1,0.3-1.5c0.3-0.5,0.6-0.8,0.9-1c0.4-0.3,0.8-0.5,1.3-0.6c0.3-0.1,0.9-0.1,1.7-0.3c1.5-0.1,2.5-0.5,3.3-0.6
		c0-0.3,0-0.5,0-0.5c0-0.8-0.2-1.2-0.5-1.5c-0.4-0.5-1.2-0.6-2.1-0.6s-1.5,0.1-2,0.5c-0.5,0.3-0.8,0.9-0.9,1.6l-1.8-0.3
		c0.2-0.8,0.5-1.4,0.8-1.8c0.3-0.5,0.9-0.8,1.7-1c0.8-0.2,1.5-0.5,2.4-0.5s1.7,0.1,2.3,0.3c0.6,0.1,1.1,0.5,1.2,0.8
		c0.1,0.3,0.5,0.8,0.6,1.2c0,0.3,0.2,0.9,0.2,1.6v2.4c0,1.6,0,2.7,0.2,3.1c0.2,0.5,0.3,0.9,0.4,1.4h-1.9
		C309.2,108.2,309,107.7,309,107.1z M308.8,103.1c-0.6,0.3-1.6,0.5-3,0.8c-0.8,0.1-1.2,0.3-1.6,0.3c-0.3,0.1-0.6,0.3-0.8,0.6
		c-0.2,0.3-0.3,0.6-0.3,0.9c0,0.4,0.2,0.9,0.6,1.2c0.3,0.3,0.9,0.5,1.7,0.5c0.8,0,1.3-0.2,1.8-0.5c0.6-0.3,0.9-0.8,1.2-1.2
		c0.2-0.5,0.3-1,0.3-1.8v-0.8H308.8z"/>
	<path class="st1" d="M312.8,105.3l1.8-0.3c0.2,0.8,0.5,1.2,0.9,1.6c0.4,0.5,1.1,0.6,1.9,0.6c0.9,0,1.5-0.2,1.8-0.5
		c0.4-0.3,0.6-0.8,0.6-1.2c0-0.5-0.2-0.8-0.6-0.9c-0.3-0.1-0.9-0.3-1.8-0.6c-1.3-0.3-2.3-0.6-2.7-0.9s-0.9-0.6-1.2-1
		c-0.3-0.5-0.5-0.9-0.5-1.5c0-0.5,0.2-0.9,0.3-1.4c0.2-0.5,0.5-0.8,0.9-1c0.3-0.1,0.6-0.5,1.2-0.6c0.4-0.1,1.1-0.1,1.5-0.1
		c0.9,0,1.5,0.1,2.3,0.3c0.8,0.2,1.1,0.6,1.3,1c0.2,0.4,0.5,0.9,0.6,1.6l-1.8,0.3c-0.1-0.6-0.3-1-0.8-1.4c-0.4-0.3-0.9-0.5-1.6-0.5
		c-0.9,0-1.4,0.1-1.8,0.5c-0.3,0.3-0.6,0.6-0.6,0.9s0,0.5,0.2,0.6c0.2,0.1,0.4,0.3,0.8,0.5c0.2,0,0.8,0.1,1.7,0.5
		c1.3,0.3,2.1,0.6,2.7,0.9c0.4,0.1,0.9,0.6,1.2,0.9c0.3,0.5,0.4,0.9,0.4,1.5c0,0.6-0.1,1.2-0.6,1.6c-0.3,0.6-0.9,0.9-1.5,1.2
		c-0.6,0.3-1.4,0.5-2.3,0.5c-1.4,0-2.4-0.3-3.2-0.9C313.3,107.3,312.9,106.5,312.8,105.3z"/>
	<path class="st1" d="M331,105l1.8,0.3c-0.3,1-0.9,2-1.6,2.5c-0.8,0.6-1.8,0.9-3,0.9c-1.5,0-2.9-0.4-3.8-1.5c-0.9-0.9-1.4-2.2-1.4-4
		s0.5-3.1,1.4-4.2c0.9-1,2.1-1.5,3.6-1.5c1.5,0,2.5,0.5,3.5,1.5c0.9,0.9,1.3,2.4,1.3,4c0,0.1,0,0.3,0,0.5h-7.9c0,1.2,0.4,2.1,1,2.7
		s1.3,0.9,2.3,0.9c0.6,0,1.2-0.1,1.6-0.5C330.4,106.4,330.8,105.8,331,105z M325,102.2h6c-0.1-0.9-0.3-1.5-0.8-2
		c-0.6-0.8-1.4-1-2.3-1s-1.5,0.3-2.1,0.9C325.5,100.5,325.2,101.3,325,102.2z"/>
	<path class="st1" d="M3.3,111.5V110h330.6v1.5H3.3z"/>
</g>
<g class="st0">
	<path class="st2" d="M33.1,131.9l1.3,0.1c-0.2,1-0.6,1.8-1.2,2.3c-0.6,0.6-1.5,0.9-2.4,0.9c-1.2,0-2.1-0.4-2.8-1.2
		c-0.7-0.8-1.1-1.8-1.1-3.3c0-0.9,0.2-1.8,0.4-2.4c0.3-0.8,0.8-1.2,1.4-1.5c0.6-0.3,1.3-0.5,2.1-0.5c0.9,0,1.7,0.3,2.3,0.8
		s0.9,1.2,1.2,2l-1.3,0.1c-0.2-0.6-0.3-1-0.8-1.4c-0.3-0.3-0.8-0.4-1.2-0.4c-0.8,0-1.4,0.3-1.8,0.8c-0.5,0.4-0.8,1.3-0.8,2.6
		s0.2,2,0.6,2.5c0.5,0.6,1.1,0.8,1.7,0.8s1.1-0.2,1.3-0.5C32.8,133.1,33.1,132.5,33.1,131.9z"/>
	<path class="st2" d="M35.4,130.7c0-1.6,0.4-2.7,1.3-3.5c0.8-0.6,1.7-0.9,2.7-0.9c1.2,0,2.1,0.5,2.9,1.2c0.8,0.7,1,1.8,1,3.1
		c0,1-0.1,2-0.4,2.5c-0.3,0.6-0.8,1-1.5,1.5s-1.3,0.5-2.1,0.5c-1.2,0-2.1-0.5-2.9-1.2C35.7,133.2,35.4,132.2,35.4,130.7z
		 M36.7,130.7c0,1,0.3,2,0.8,2.4c0.4,0.6,1.1,0.8,1.8,0.8s1.3-0.3,1.8-0.8c0.4-0.6,0.8-1.3,0.8-2.5c0-1.1-0.3-1.8-0.8-2.4
		c-0.5-0.6-1-0.8-1.8-0.8s-1.4,0.3-1.8,0.8S36.7,129.6,36.7,130.7z"/>
	<path class="st2" d="M45,135v-11.8h1.5v4.2c0.8-0.8,1.5-1.2,2.6-1.2c0.6,0,1.2,0.2,1.6,0.3c0.4,0.1,0.8,0.6,1.1,1
		c0.1,0.5,0.3,1.1,0.3,2v5.4h-1.5v-5.4c0-0.8-0.1-1.2-0.4-1.7c-0.3-0.3-0.8-0.5-1.4-0.5c-0.4,0-0.9,0.1-1.2,0.3s-0.6,0.5-0.8,0.9
		c-0.3,0.5-0.3,1.1-0.3,1.7v4.7L45,135L45,135z"/>
	<path class="st2" d="M53.7,130.7c0-1.6,0.4-2.7,1.4-3.5c0.8-0.6,1.6-0.9,2.7-0.9c1.2,0,2.1,0.5,2.9,1.2c0.8,0.7,1.1,1.8,1.1,3.1
		c0,1-0.1,2-0.4,2.5c-0.3,0.6-0.8,1-1.5,1.5s-1.4,0.5-2.1,0.5c-1.2,0-2.1-0.5-2.9-1.2S53.7,132.2,53.7,130.7z M55.2,130.7
		c0,1,0.3,2,0.8,2.4c0.4,0.6,1.1,0.8,1.8,0.8s1.4-0.3,1.8-0.8c0.4-0.6,0.8-1.3,0.8-2.5c0-1.1-0.3-1.8-0.8-2.4
		c-0.5-0.6-1.1-0.8-1.8-0.8s-1.4,0.3-1.8,0.8C55.4,128.7,55.2,129.6,55.2,130.7z"/>
	<path class="st2" d="M64.9,135l-2.5-8.5h1.5l1.4,5l0.4,1.8c0-0.2,0.1-0.8,0.4-1.8l1.4-5H69l1.4,5l0.4,1.6l0.4-1.6l1.5-5h1.4
		l-2.7,8.5h-1.5l-1.4-5.1l-0.3-1.5l-1.8,6.6H64.9z"/>
	<path class="st2" d="M75.3,124.8v-1.6h1.5v1.6H75.3z M75.3,135v-8.5h1.5v8.5H75.3z"/>
	<path class="st2" d="M78.9,135v-8.5h1.4v1.2c0.6-0.9,1.5-1.4,2.7-1.4c0.4,0,1.1,0.2,1.4,0.3c0.4,0.1,0.8,0.4,0.9,0.8
		c0.1,0.3,0.3,0.6,0.4,1c0,0.3,0.1,0.8,0.1,1.4v5.3h-1.5v-5.3c0-0.6,0-1-0.1-1.4c-0.1-0.3-0.3-0.4-0.6-0.8c-0.3-0.3-0.6-0.3-1.1-0.3
		c-0.6,0-1.2,0.1-1.6,0.6s-0.6,1.2-0.6,2.3v4.7L78.9,135L78.9,135z"/>
	<path class="st2" d="M93.9,132.2l1.5,0.1c-0.3,0.9-0.6,1.5-1.4,2.1c-0.6,0.5-1.5,0.8-2.4,0.8c-1.2,0-2.3-0.5-3-1.2
		c-0.7-0.7-1.1-1.8-1.1-3.3s0.3-2.5,1.1-3.3c0.8-0.8,1.6-1.2,2.9-1.2c1.2,0,2.1,0.5,2.9,1.2s1.1,1.8,1.1,3.3c0,0.1,0,0.1,0,0.5h-6.3
		c0,0.9,0.3,1.7,0.8,2.1c0.4,0.5,1.1,0.8,1.8,0.8c0.6,0,1.1-0.1,1.4-0.4C93.4,133.2,93.7,132.8,93.9,132.2z M89.1,129.9h4.8
		c0-0.8-0.3-1.2-0.6-1.6c-0.4-0.6-1.1-0.9-1.8-0.9c-0.6,0-1.2,0.2-1.6,0.6C89.4,128.6,89.2,129.2,89.1,129.9z"/>
	<path class="st2" d="M97.2,135v-8.5h1.4v1.3c0.3-0.6,0.6-1,0.9-1.2s0.6-0.3,0.9-0.3c0.5,0,1,0.2,1.5,0.5l-0.5,1.3
		c-0.3-0.2-0.8-0.3-1-0.3s-0.6,0.1-0.9,0.3c-0.3,0.2-0.5,0.3-0.6,0.6c-0.1,0.5-0.3,1-0.3,1.7v4.5L97.2,135L97.2,135z"/>
</g>
<g class="st0">
	<path class="st2" d="M102.6,138.2l-0.1-1.4c0.3,0.2,0.6,0.2,0.9,0.2s0.6,0,0.8-0.2c0.1-0.1,0.3-0.3,0.5-0.4
		c0.1-0.2,0.3-0.5,0.5-1.1c0-0.1,0-0.1,0.1-0.3l-3.4-8.5h1.5l1.8,5c0.3,0.6,0.5,1.3,0.6,1.9c0.1-0.6,0.3-1.3,0.6-1.9l1.8-5h1.5
		l-3.2,8.5c-0.3,0.9-0.6,1.6-0.8,2c-0.3,0.5-0.6,0.9-0.9,1s-0.8,0.3-1.2,0.3C103.4,138.5,102.9,138.3,102.6,138.2z"/>
</g>
<g class="st0">
	<path class="st2" d="M110.1,135v-1.6h1.6v1.6H110.1z"/>
	<path class="st2" d="M119.9,131.9l1.4,0.1c-0.1,1-0.6,1.8-1.2,2.3c-0.6,0.6-1.5,0.9-2.4,0.9c-1.2,0-2.1-0.4-2.9-1.2
		c-0.8-0.8-1-1.8-1-3.3c0-0.9,0.1-1.8,0.5-2.4c0.3-0.8,0.8-1.2,1.4-1.5c0.6-0.3,1.4-0.5,2.1-0.5c0.9,0,1.6,0.3,2.3,0.8
		s0.9,1.2,1.2,2l-1.4,0.1c-0.1-0.6-0.3-1-0.8-1.3c-0.3-0.3-0.8-0.5-1.2-0.5c-0.8,0-1.4,0.3-1.8,0.8c-0.4,0.5-0.8,1.4-0.8,2.5
		c0,1.2,0.1,2,0.6,2.5s1,0.8,1.6,0.8c0.6,0,1-0.1,1.4-0.5C119.5,133.1,119.7,132.5,119.9,131.9z"/>
	<path class="st2" d="M122,130.7c0-1.6,0.5-2.7,1.4-3.5c0.8-0.6,1.6-0.9,2.7-0.9c1.2,0,2.1,0.5,2.9,1.2c0.8,0.7,1,1.8,1,3.1
		c0,1-0.1,2-0.5,2.5c-0.3,0.6-0.8,1-1.5,1.5c-0.7,0.5-1.4,0.5-2.1,0.5c-1.2,0-2.1-0.5-2.9-1.2C122.4,133.2,122,132.2,122,130.7z
		 M123.5,130.7c0,1,0.3,2,0.8,2.4c0.5,0.6,1,0.8,1.8,0.8s1.4-0.3,1.8-0.8c0.5-0.6,0.8-1.3,0.8-2.5c0-1.1-0.3-1.8-0.8-2.4
		c-0.5-0.6-1-0.8-1.8-0.8s-1.4,0.3-1.8,0.8C123.7,128.7,123.5,129.6,123.5,130.7z"/>
	<path class="st2" d="M131.7,135v-8.5h1.4v1.2c0.3-0.5,0.6-0.8,1-1c0.5-0.3,0.9-0.5,1.5-0.5c0.6,0,1.2,0.1,1.5,0.5
		c0.3,0.3,0.8,0.6,0.9,1c0.8-1,1.5-1.5,2.7-1.5c0.9,0,1.5,0.3,2,0.8s0.8,1.2,0.8,2.1v5.8H142v-5.4c0-0.6,0-1-0.2-1.2
		c-0.1-0.3-0.3-0.5-0.4-0.6c-0.3-0.1-0.6-0.3-0.9-0.3c-0.6,0-1,0.2-1.5,0.6c-0.5,0.5-0.6,1.1-0.6,2v4.9h-1.5v-5.5
		c0-0.6-0.2-1.2-0.3-1.5c-0.3-0.3-0.6-0.5-1.2-0.5c-0.5,0-0.8,0.2-1.2,0.3c-0.5,0.1-0.6,0.6-0.8,1c-0.2,0.4-0.3,1-0.3,1.8v4.5
		C133.1,135,131.7,135,131.7,135z"/>
	<path class="st2" d="M149.4,131.4v-1.5h4.5v1.5H149.4z"/>
	<path class="st2" d="M159.7,129.2c0-2,0.6-3.5,1.7-4.6c1-1.1,2.4-1.7,4-1.7c1.1,0,2.1,0.3,3,0.8c0.9,0.5,1.5,1.2,2,2.3
		c0.4,0.9,0.8,2,0.8,3.2c0,1.2-0.3,2.3-0.8,3.1c-0.5,0.9-1.2,1.6-2.1,2.1c-0.9,0.4-1.8,0.8-2.9,0.8c-1,0-2.1-0.3-3-0.8
		c-0.9-0.5-1.5-1.2-1.9-2.3C160,131.3,159.7,130.2,159.7,129.2z M161.4,129.2c0,1.4,0.4,2.5,1.2,3.3c0.8,0.8,1.7,1.2,2.9,1.2
		s2.1-0.5,2.9-1.2c0.8-0.7,1.2-2,1.2-3.5c0-0.9-0.1-1.8-0.4-2.5s-0.8-1.2-1.4-1.7c-0.6-0.4-1.4-0.6-2.1-0.6c-1,0-2.1,0.5-2.8,1.2
		S161.4,127.5,161.4,129.2z"/>
</g>
<g class="st0">
	<path class="st2" d="M173.2,135v-7.4h-1.3v-1.1h1.3v-0.9c0-0.6,0-1,0.2-1.3c0.1-0.3,0.4-0.8,0.8-0.9c0.3-0.2,0.9-0.3,1.5-0.3
		c0.4,0,0.9,0,1.3,0.1l-0.2,1.2c-0.3,0-0.6-0.2-0.9-0.2c-0.5,0-0.8,0.2-0.9,0.3c-0.2,0.1-0.3,0.6-0.3,1v0.8h1.7v1.2h-1.7v7.4
		L173.2,135L173.2,135z"/>
</g>
<g class="st0">
	<path class="st2" d="M177.5,135v-7.4h-1.4v-1.1h1.4v-0.9c0-0.6,0-1,0.1-1.3c0.2-0.3,0.5-0.8,0.8-0.9c0.3-0.3,0.9-0.3,1.5-0.3
		c0.5,0,0.9,0,1.4,0.1l-0.1,1.2c-0.3,0-0.6-0.2-0.9-0.2c-0.5,0-0.8,0.2-0.9,0.3c-0.1,0.1-0.3,0.6-0.3,1v0.8h1.6v1.2h-1.6v7.4
		L177.5,135L177.5,135z"/>
	<path class="st2" d="M181.7,124.8v-1.6h1.5v1.6H181.7z M181.7,135v-8.5h1.5v8.5H181.7z"/>
	<path class="st2" d="M191,131.9l1.3,0.1c-0.2,1-0.6,1.8-1.2,2.3c-0.6,0.6-1.5,0.9-2.4,0.9c-1.2,0-2.1-0.4-2.8-1.2
		c-0.7-0.8-1-1.8-1-3.3c0-0.9,0.1-1.8,0.5-2.4c0.3-0.8,0.8-1.2,1.3-1.5c0.6-0.3,1.4-0.5,2.1-0.5c0.9,0,1.6,0.3,2.3,0.8
		s0.9,1.2,1.2,2l-1.3,0.1c-0.2-0.6-0.3-1-0.8-1.3c-0.3-0.3-0.8-0.5-1.2-0.5c-0.8,0-1.3,0.3-1.8,0.8c-0.4,0.5-0.8,1.4-0.8,2.5
		c0,1.2,0.1,2,0.6,2.5s1,0.8,1.7,0.8c0.6,0,1-0.1,1.3-0.5C190.7,133.1,190.8,132.5,191,131.9z"/>
	<path class="st2" d="M193.7,124.8v-1.6h1.5v1.6H193.7z M193.7,135v-8.5h1.5v8.5H193.7z"/>
	<path class="st2" d="M202.8,133.8c-0.6,0.5-1,0.8-1.5,0.9c-0.5,0.1-1,0.3-1.7,0.3c-0.9,0-1.7-0.3-2.1-0.8s-0.8-1-0.8-1.8
		c0-0.5,0.2-0.8,0.3-1.2c0.2-0.3,0.5-0.6,0.8-0.9c0.3-0.2,0.6-0.3,1-0.5c0.3,0,0.8-0.1,1.3-0.1c1.2-0.1,2.1-0.3,2.5-0.5
		c0-0.2,0-0.3,0-0.5c0-0.6-0.1-1-0.4-1.2c-0.3-0.3-0.9-0.5-1.7-0.5c-0.8,0-1.2,0.1-1.5,0.3c-0.3,0.2-0.6,0.6-0.8,1.2l-1.3-0.1
		c0.2-0.6,0.3-1.1,0.6-1.5c0.3-0.3,0.8-0.6,1.3-0.9c0.6-0.2,1.2-0.3,1.9-0.3c0.8,0,1.4,0.1,1.8,0.3c0.4,0.2,0.8,0.5,1.1,0.6
		c0.1,0.3,0.3,0.6,0.4,1.1c0,0.3,0,0.8,0,1.3v2c0,1.4,0,2.3,0.2,2.5c0.2,0.2,0.2,0.8,0.3,1H203C203,134.7,202.8,134.3,202.8,133.8z
		 M202.7,130.7c-0.6,0.1-1.3,0.5-2.4,0.6c-0.6,0.1-1,0.1-1.2,0.3c-0.3,0.2-0.5,0.3-0.6,0.5c-0.1,0.2-0.2,0.4-0.2,0.8
		c0,0.4,0.2,0.8,0.5,0.9c0.3,0.1,0.8,0.5,1.3,0.5c0.6,0,1-0.2,1.5-0.3c0.5-0.3,0.8-0.6,0.9-1c0.1-0.3,0.3-0.8,0.3-1.5L202.7,130.7
		L202.7,130.7z"/>
	<path class="st2" d="M206.4,135v-11.8h1.5v11.9L206.4,135L206.4,135z"/>
	<path class="st2" d="M214,132.5l1.5-0.3c0.2,0.6,0.3,1,0.6,1.4c0.3,0.3,0.9,0.4,1.5,0.4s1.2-0.1,1.5-0.4c0.3-0.3,0.4-0.6,0.4-0.9
		s-0.1-0.6-0.4-0.8c-0.2-0.2-0.8-0.3-1.5-0.5c-1.1-0.3-1.8-0.5-2.3-0.8c-0.4-0.1-0.8-0.5-0.9-0.8c-0.1-0.3-0.3-0.8-0.3-1.2
		s0.1-0.8,0.3-1c0.2-0.3,0.5-0.6,0.8-0.8c0.2-0.1,0.6-0.3,0.9-0.5s0.8-0.2,1.2-0.2c0.6,0,1.2,0.2,1.8,0.3c0.4,0.1,0.9,0.4,1.1,0.8
		c0.3,0.3,0.4,0.8,0.4,1.3l-1.3,0.2c0-0.5-0.3-0.8-0.6-1.1c-0.3-0.1-0.7-0.1-1.3-0.1s-1.2,0.1-1.3,0.3c-0.3,0.2-0.4,0.5-0.4,0.8
		c0,0.2,0,0.3,0.1,0.5c0.2,0.1,0.3,0.3,0.6,0.4c0.1,0,0.6,0.2,1.3,0.3c1.1,0.3,1.8,0.4,2.1,0.6c0.4,0.2,0.8,0.5,0.9,0.8
		c0.2,0.3,0.3,0.8,0.3,1.2s-0.2,0.9-0.4,1.4c-0.3,0.4-0.8,0.8-1.2,1c-0.5,0.3-1.2,0.3-1.8,0.3c-1.1,0-2-0.3-2.6-0.8
		C214.7,134,214.2,133.4,214,132.5z"/>
	<path class="st2" d="M222.9,124.8v-1.6h1.5v1.6H222.9z M222.9,135v-8.5h1.5v8.5H222.9z"/>
	<path class="st2" d="M229.7,133.7l0.2,1.4c-0.5,0.1-0.8,0.1-1.1,0.1c-0.6,0-0.9-0.1-1.2-0.3c-0.3-0.2-0.5-0.5-0.6-0.6
		c-0.1-0.2-0.1-0.9-0.1-1.7v-5h-1.1v-1.1h1.1v-2.3l1.5-0.9v3h1.5v1.2h-1.5v5c0,0.5,0,0.8,0.1,0.8c0,0.2,0.2,0.2,0.3,0.3
		c0.2,0,0.3,0.1,0.4,0.1C229.2,133.7,229.5,133.7,229.7,133.7z"/>
	<path class="st2" d="M237,132.2l1.5,0.1c-0.3,0.9-0.6,1.5-1.4,2.1c-0.6,0.5-1.5,0.8-2.4,0.8c-1.2,0-2.3-0.5-3-1.2
		c-0.7-0.7-1.1-1.8-1.1-3.3s0.3-2.5,1.1-3.3c0.8-0.8,1.6-1.2,2.8-1.2c1.2,0,2.1,0.5,2.9,1.2s1,1.8,1,3.3c0,0.1,0,0.1,0,0.5h-6.3
		c0,0.9,0.3,1.7,0.8,2.1c0.4,0.5,1,0.8,1.8,0.8c0.6,0,1-0.1,1.3-0.4C236.4,133.2,236.7,132.8,237,132.2z M232.2,129.9h4.8
		c0-0.8-0.3-1.2-0.6-1.6c-0.4-0.6-1-0.9-1.8-0.9c-0.6,0-1.2,0.2-1.7,0.6C232.5,128.6,232.2,129.2,232.2,129.9z"/>
</g>
<g class="st0">
	<path class="st3" d="M249.2,131.1l1.5-0.2c0,0.6,0.3,1,0.5,1.5c0.3,0.5,0.6,0.8,1.2,0.9c0.6,0.1,1.2,0.3,1.8,0.3s1-0.1,1.7-0.3
		c0.6-0.2,0.8-0.5,1.1-0.8c0.3-0.3,0.3-0.6,0.3-1.1c0-0.3-0.2-0.8-0.3-0.9c-0.2-0.3-0.6-0.5-1.1-0.8c-0.3-0.1-1.1-0.3-2.1-0.6
		c-1-0.3-1.8-0.4-2.3-0.8c-0.6-0.3-1-0.6-1.2-1c-0.3-0.5-0.4-0.9-0.4-1.5s0.2-1.2,0.4-1.7c0.3-0.4,0.9-0.9,1.5-1.2
		c0.6-0.3,1.4-0.5,2.1-0.5c0.9,0,1.6,0.2,2.3,0.5c0.6,0.3,1.2,0.8,1.5,1.2c0.3,0.5,0.6,1.2,0.6,1.8l-1.5,0.1
		c-0.1-0.8-0.3-1.3-0.8-1.6c-0.4-0.3-1.2-0.6-2.1-0.6c-0.9,0-1.7,0.2-2.1,0.5c-0.4,0.3-0.6,0.8-0.6,1.2c0,0.5,0.1,0.8,0.4,1.1
		c0.3,0.3,1.1,0.6,2.4,0.9c1.2,0.3,2.1,0.6,2.5,0.8c0.8,0.3,1.2,0.8,1.5,1.2c0.3,0.5,0.5,1,0.5,1.7c0,0.6-0.2,1.2-0.6,1.8
		c-0.3,0.6-0.9,1.1-1.5,1.4c-0.6,0.3-1.5,0.5-2.3,0.5c-1.1,0-1.9-0.2-2.7-0.5c-0.8-0.3-1.4-0.8-1.7-1.4
		C249.3,132.6,249.2,132,249.2,131.1z"/>
	<path class="st3" d="M260.4,124.8v-1.6h1.5v1.6H260.4z M260.4,135v-8.5h1.5v8.5H260.4z"/>
	<path class="st3" d="M267.3,133.7l0.2,1.4c-0.4,0.1-0.8,0.1-1.1,0.1c-0.6,0-0.9-0.1-1.2-0.3c-0.3-0.2-0.4-0.5-0.6-0.6
		c-0.2-0.3-0.2-0.9-0.2-1.7v-5h-1v-1.1h1.1v-2.3l1.5-0.9v3h1.5v1.2H266v5c0,0.5,0,0.8,0.2,0.8c0,0.2,0.2,0.2,0.3,0.3
		c0.2,0,0.3,0.1,0.5,0.1C266.7,133.7,267,133.7,267.3,133.7z"/>
	<path class="st3" d="M274.5,132.2l1.5,0.1c-0.3,0.9-0.6,1.5-1.4,2.1c-0.6,0.5-1.5,0.8-2.4,0.8c-1.2,0-2.3-0.5-3-1.2
		c-0.7-0.7-1.1-1.8-1.1-3.3s0.3-2.5,1.1-3.3c0.8-0.8,1.6-1.2,2.8-1.2c1.2,0,2.1,0.5,2.9,1.2s1,1.8,1,3.3c0,0.1,0,0.1,0,0.5h-6.3
		c0,0.9,0.3,1.7,0.8,2.1c0.4,0.5,1,0.8,1.8,0.8c0.6,0,1-0.1,1.3-0.4C273.9,133.2,274.2,132.8,274.5,132.2z M269.7,129.9h4.8
		c0-0.8-0.3-1.2-0.6-1.6c-0.4-0.6-1-0.9-1.8-0.9c-0.6,0-1.2,0.2-1.7,0.6C270,128.6,269.8,129.2,269.7,129.9z"/>
	<path class="st3" d="M281.8,132.5l1.5-0.3c0.2,0.6,0.3,1,0.6,1.4c0.3,0.3,0.9,0.4,1.5,0.4s1.2-0.1,1.5-0.4c0.3-0.3,0.4-0.6,0.4-0.9
		s-0.2-0.6-0.4-0.8c-0.2-0.2-0.8-0.3-1.5-0.5c-1.1-0.3-1.8-0.5-2.3-0.8c-0.5-0.1-0.8-0.5-0.9-0.8c-0.1-0.3-0.3-0.8-0.3-1.2
		s0.1-0.8,0.3-1c0.2-0.3,0.5-0.6,0.8-0.8c0.3-0.2,0.6-0.3,0.9-0.5c0.4-0.2,0.8-0.2,1.2-0.2c0.6,0,1.2,0.2,1.8,0.3
		c0.4,0.1,0.9,0.4,1.1,0.8c0.3,0.3,0.4,0.8,0.4,1.3l-1.3,0.2c0-0.5-0.3-0.8-0.6-1.1c-0.3-0.3-0.8-0.3-1.3-0.3s-1.2,0.1-1.3,0.3
		c-0.3,0.2-0.4,0.5-0.4,0.8c0,0.2,0,0.3,0.1,0.5c0.2,0.1,0.3,0.3,0.6,0.4c0.1,0,0.6,0.2,1.3,0.3c1.1,0.3,1.8,0.4,2.1,0.6
		c0.4,0.2,0.8,0.5,0.9,0.8c0.3,0.3,0.3,0.8,0.3,1.2s-0.2,0.9-0.4,1.4c-0.3,0.4-0.8,0.8-1.2,1c-0.6,0.3-1.2,0.3-1.8,0.3
		c-1.1,0-2-0.3-2.6-0.8C282.3,134,282,133.4,281.8,132.5z"/>
	<path class="st3" d="M296.4,132.2l1.5,0.1c-0.3,0.9-0.6,1.5-1.3,2.1c-0.6,0.5-1.5,0.8-2.4,0.8c-1.2,0-2.3-0.5-3-1.2
		c-0.7-0.7-1-1.8-1-3.3s0.3-2.5,1-3.3c0.7-0.8,1.7-1.2,2.9-1.2c1.2,0,2.1,0.5,2.8,1.2c0.7,0.7,1.1,1.8,1.1,3.3c0,0.1,0,0.1,0,0.5
		h-6.3c0,0.9,0.3,1.7,0.8,2.1c0.5,0.5,1.1,0.8,1.8,0.8c0.6,0,1.1-0.1,1.3-0.4C296,133.2,296.3,132.8,296.4,132.2z M291.8,129.9h4.8
		c0-0.8-0.3-1.2-0.6-1.6c-0.4-0.6-1.1-0.9-1.8-0.9c-0.6,0-1.2,0.2-1.6,0.6C292,128.4,291.8,129.2,291.8,129.9z"/>
	<path class="st3" d="M305.4,131.9l1.4,0.1c-0.2,1-0.6,1.8-1.2,2.3c-0.6,0.6-1.5,0.9-2.4,0.9c-1.2,0-2.1-0.4-2.8-1.2
		c-0.7-0.8-1-1.8-1-3.3c0-0.9,0.1-1.8,0.4-2.4c0.3-0.8,0.8-1.2,1.3-1.5s1.3-0.5,2.1-0.5c0.9,0,1.7,0.3,2.3,0.8s0.9,1.2,1.2,2
		l-1.3,0.1c-0.2-0.6-0.3-1-0.8-1.3c-0.3-0.3-0.8-0.5-1.2-0.5c-0.8,0-1.3,0.3-1.8,0.8c-0.5,0.5-0.8,1.4-0.8,2.5c0,1.2,0.1,2,0.6,2.5
		s1.1,0.8,1.7,0.8s1-0.1,1.3-0.5C305,133.1,305.3,132.5,305.4,131.9z"/>
	<path class="st3" d="M313.7,135v-1.2c-0.6,0.9-1.5,1.5-2.7,1.5c-0.4,0-0.9-0.2-1.3-0.3c-0.5-0.1-0.8-0.5-0.9-0.8
		c-0.1-0.3-0.3-0.6-0.4-1c0-0.3-0.2-0.8-0.2-1.3v-5.3h1.5v4.8c0,0.8,0,1.2,0.2,1.5c0.1,0.5,0.3,0.8,0.6,0.9c0.3,0.2,0.6,0.3,1.1,0.3
		s0.9-0.1,1.2-0.3c0.3-0.2,0.6-0.6,0.8-0.9c0.2-0.4,0.3-0.9,0.3-1.6v-4.6h1.5v8.5L313.7,135L313.7,135z"/>
	<path class="st3" d="M317.1,135v-8.5h1.4v1.3c0.3-0.6,0.6-1,0.9-1.2s0.6-0.3,0.9-0.3c0.4,0,1,0.2,1.5,0.5l-0.5,1.3
		c-0.3-0.2-0.8-0.3-1-0.3c-0.3,0-0.6,0.1-0.9,0.3c-0.3,0.2-0.4,0.5-0.6,0.8c-0.2,0.5-0.3,1-0.3,1.7v4.5
		C318.5,135,317.1,135,317.1,135z"/>
	<path class="st3" d="M328.5,132.2l1.5,0.1c-0.3,0.9-0.6,1.5-1.4,2.1c-0.6,0.5-1.5,0.8-2.4,0.8c-1.2,0-2.3-0.5-3-1.2
		c-0.7-0.7-1.1-1.8-1.1-3.3s0.3-2.5,1.1-3.3c0.8-0.8,1.6-1.2,2.8-1.2c1.2,0,2.1,0.5,2.9,1.2s1,1.8,1,3.3c0,0.1,0,0.1,0,0.5h-6.3
		c0,0.9,0.3,1.7,0.8,2.1c0.4,0.5,1,0.8,1.8,0.8c0.6,0,1-0.1,1.3-0.4C328,133.2,328.3,132.8,328.5,132.2z M323.7,129.9h4.8
		c0-0.8-0.3-1.2-0.6-1.6c-0.4-0.6-1-0.9-1.8-0.9c-0.6,0-1.2,0.2-1.7,0.6C324,128.6,323.8,129.2,323.7,129.9z"/>
	<path class="st3" d="M337.3,135v-1c-0.6,0.9-1.3,1.2-2.4,1.2c-0.8,0-1.4-0.1-2-0.6c-0.6-0.3-1-0.9-1.3-1.5
		c-0.3-0.6-0.5-1.5-0.5-2.3c0-0.9,0.1-1.6,0.5-2.3c0.3-0.8,0.8-1.2,1.3-1.6c0.6-0.3,1.2-0.6,2-0.6c0.5,0,0.9,0.2,1.3,0.3
		c0.5,0.1,0.8,0.4,1,0.9v-4.2h1.5v11.8L337.3,135L337.3,135z M332.8,130.7c0,1,0.3,2,0.8,2.4c0.5,0.6,1.1,0.8,1.7,0.8
		s1.2-0.3,1.6-0.8c0.5-0.4,0.6-1.3,0.6-2.4c0-1.2-0.2-2.1-0.8-2.5c-0.5-0.6-1.1-0.8-1.7-0.8s-1.2,0.3-1.6,0.8
		S332.8,129.6,332.8,130.7z"/>
	<path class="st3" d="M346.9,135h-1.3v-11.8h1.5v4.2c0.6-0.8,1.3-1.2,2.4-1.2c0.4,0,1,0.2,1.5,0.3c0.4,0.1,0.9,0.4,1.2,0.9
		c0.3,0.5,0.6,0.9,0.8,1.4c0.2,0.6,0.3,1,0.3,1.8c0,1.5-0.3,2.6-1.1,3.5c-0.8,0.8-1.6,1.2-2.5,1.2c-1,0-1.8-0.4-2.4-1.2v1
		C347.3,135,346.9,135,346.9,135z M346.8,130.7c0,1,0.1,1.8,0.5,2.3c0.4,0.8,1,1,1.8,1c0.6,0,1.2-0.3,1.6-0.8
		c0.5-0.6,0.8-1.3,0.8-2.4c0-1-0.1-1.9-0.6-2.4c-0.5-0.6-1-0.8-1.7-0.8c-0.6,0-1.2,0.3-1.6,0.8C347.1,128.7,346.8,129.6,346.8,130.7
		z"/>
	<path class="st3" d="M354.6,138.2l-0.1-1.4c0.3,0.2,0.6,0.2,0.9,0.2s0.6,0,0.8-0.2c0.2-0.1,0.3-0.3,0.5-0.4
		c0.1-0.2,0.3-0.5,0.5-1.1c0-0.1,0-0.1,0.1-0.3l-3.3-8.6h1.5l1.8,5c0.3,0.6,0.5,1.3,0.6,1.9c0.1-0.6,0.3-1.3,0.6-1.9l1.8-5h1.5
		l-3.3,8.7c-0.3,0.9-0.6,1.6-0.8,1.9c-0.3,0.5-0.6,0.9-0.9,1.1c-0.3,0.1-0.8,0.3-1.2,0.3C355.3,138.5,355,138.3,354.6,138.2z"/>
	<path class="st3" d="M367.7,135v-11.8h1.7l6.1,9.3v-9.3h1.5v11.9h-1.6l-6.2-9.3v9.3L367.7,135L367.7,135z"/>
	<path class="st3" d="M378.9,130.7c0-1.6,0.5-2.7,1.4-3.5c0.8-0.6,1.6-0.9,2.7-0.9c1.2,0,2.1,0.5,2.9,1.2c0.8,0.7,1.1,1.8,1.1,3.1
		c0,1-0.2,2-0.4,2.5c-0.3,0.6-0.8,1-1.5,1.5s-1.4,0.5-2.1,0.5c-1.2,0-2.1-0.5-2.8-1.2C379.2,133.2,378.9,132.2,378.9,130.7z
		 M380.4,130.7c0,1,0.3,2,0.8,2.4c0.5,0.6,1,0.8,1.8,0.8s1.4-0.3,1.8-0.8c0.4-0.6,0.8-1.3,0.8-2.5c0-1.1-0.3-1.8-0.8-2.4
		c-0.5-0.6-1.1-0.8-1.8-0.8s-1.3,0.3-1.8,0.8C380.5,128.7,380.4,129.6,380.4,130.7z"/>
	<path class="st3" d="M388.5,135v-8.5h1.3v1.3c0.3-0.6,0.6-1,0.9-1.2s0.6-0.3,0.9-0.3c0.4,0,1.1,0.2,1.5,0.5l-0.4,1.3
		c-0.3-0.2-0.8-0.3-1.1-0.3s-0.6,0.1-0.9,0.3c-0.3,0.2-0.4,0.5-0.6,0.8c-0.1,0.5-0.3,1-0.3,1.7v4.5C389.8,135,388.5,135,388.5,135z"
		/>
	<path class="st3" d="M397.2,133.7l0.1,1.4c-0.4,0.1-0.8,0.1-1.1,0.1c-0.6,0-0.9-0.1-1.2-0.3c-0.3-0.2-0.4-0.5-0.6-0.6
		c-0.2-0.3-0.2-0.9-0.2-1.7v-5h-1.1v-1.1h1.1v-2.3l1.5-0.9v3h1.5v1.2h-1.5v5c0,0.5,0,0.8,0.2,0.8c0,0.2,0.1,0.2,0.3,0.3
		c0.1,0,0.3,0.1,0.4,0.1C396.8,133.7,396.9,133.7,397.2,133.7z"/>
	<path class="st3" d="M398.1,130.7c0-1.6,0.4-2.7,1.4-3.5c0.8-0.6,1.6-0.9,2.7-0.9c1.2,0,2.1,0.5,2.8,1.2c0.7,0.7,1.1,1.8,1.1,3.1
		c0,1-0.1,2-0.4,2.5c-0.3,0.6-0.8,1-1.5,1.5s-1.3,0.5-2.1,0.5c-1.2,0-2.1-0.5-2.9-1.2S398.1,132.2,398.1,130.7z M399.6,130.7
		c0,1,0.3,2,0.8,2.4c0.4,0.6,1.1,0.8,1.8,0.8s1.4-0.3,1.8-0.8c0.4-0.6,0.8-1.3,0.8-2.5c0-1.1-0.3-1.8-0.8-2.4
		c-0.5-0.6-1.1-0.8-1.8-0.8s-1.3,0.3-1.8,0.8C399.8,128.7,399.6,129.6,399.6,130.7z"/>
	<path class="st3" d="M407.8,135v-8.5h1.4v1.2c0.6-0.9,1.5-1.4,2.7-1.4c0.4,0,1.1,0.2,1.3,0.3c0.4,0.1,0.8,0.4,0.9,0.8
		c0.1,0.3,0.3,0.6,0.4,1c0,0.3,0.1,0.8,0.1,1.4v5.3h-1.5v-5.3c0-0.6,0-1-0.1-1.4c-0.2-0.3-0.3-0.4-0.6-0.8c-0.3-0.3-0.6-0.3-1.1-0.3
		c-0.6,0-1.2,0.1-1.6,0.6s-0.6,1.2-0.6,2.3v4.7L407.8,135L407.8,135z"/>
</g>
<g class="st0">
	<path d="M3.1,161.4l4.5-11.9h1.6l4.8,11.9h-1.6l-1.4-3.6H6.1l-1.3,3.6H3.1z M6.6,156.6h4.1l-1.2-3.3c-0.5-1-0.6-1.8-0.9-2.4
		c-0.1,0.8-0.3,1.5-0.6,2.3L6.6,156.6z"/>
	<path d="M15.3,161.4v-11.9h1.5v11.9H15.3z"/>
	<path d="M18.9,161.4v-11.9h1.5v11.9H18.9z"/>
	<path d="M27.1,161.4v-8.5h1.3v1.3c0.3-0.6,0.6-1,0.9-1.2c0.3-0.2,0.6-0.3,0.9-0.3c0.4,0,1,0.2,1.5,0.5l-0.3,1.3
		c-0.3-0.2-0.8-0.3-1-0.3c-0.3,0-0.6,0.1-0.9,0.3c-0.3,0.2-0.5,0.5-0.6,0.8c-0.2,0.5-0.3,1-0.3,1.7v4.5
		C28.5,161.4,27.1,161.4,27.1,161.4z"/>
	<path d="M38.6,158.7l1.5,0.2c-0.3,0.9-0.6,1.5-1.4,2.1c-0.6,0.5-1.5,0.8-2.4,0.8c-1.2,0-2.3-0.5-3-1.2c-0.7-0.7-1.1-1.8-1.1-3.3
		s0.3-2.5,1.1-3.3c0.8-0.8,1.6-1.2,2.8-1.2s2.1,0.5,2.8,1.2c0.7,0.7,1.1,1.8,1.1,3.3c0,0.2,0,0.2,0,0.5h-6.3c0,0.9,0.3,1.6,0.8,2.1
		c0.4,0.4,1.1,0.8,1.8,0.8c0.6,0,1-0.2,1.3-0.5C37.9,159.8,38.2,159.3,38.6,158.7z M33.7,156.3h4.8c0-0.8-0.3-1.2-0.6-1.6
		c-0.4-0.6-1-0.9-1.8-0.9c-0.6,0-1.2,0.1-1.7,0.6C34.1,155,33.9,155.6,33.7,156.3z"/>
	<path d="M47.4,161.4v-1c-0.6,0.9-1.4,1.2-2.4,1.2c-0.8,0-1.3-0.1-1.9-0.6c-0.6-0.3-1.1-0.9-1.4-1.5c-0.3-0.6-0.4-1.5-0.4-2.3
		c0-0.9,0.1-1.6,0.4-2.3c0.3-0.8,0.8-1.2,1.4-1.6c0.6-0.3,1.2-0.6,1.9-0.6c0.4,0,0.9,0.2,1.3,0.3c0.5,0.1,0.8,0.4,1.1,0.9v-4.2h1.5
		v11.8L47.4,161.4L47.4,161.4z M42.7,157.1c0,1.1,0.3,2,0.8,2.4c0.4,0.6,1.1,0.8,1.7,0.8s1.2-0.3,1.6-0.8c0.4-0.5,0.6-1.3,0.6-2.4
		c0-1.2-0.2-2.1-0.8-2.5c-0.6-0.4-1.1-0.8-1.7-0.8s-1.2,0.3-1.7,0.8C43,155.1,42.7,156,42.7,157.1z"/>
	<path d="M57.1,161.4l-2.6-8.5H56l1.4,5l0.4,1.8c0-0.2,0.1-0.8,0.4-1.8l1.4-5h1.5l1.4,5l0.4,1.6l0.4-1.6l1.5-5h1.4l-2.7,8.5H62
		l-1.4-5.1l-0.3-1.5l-1.8,6.6H57.1z"/>
	<path d="M67.5,151.2v-1.7H69v1.7H67.5z M67.5,161.4v-8.5H69v8.5H67.5z"/>
	<path d="M71.1,161.4v-8.5h1.4v1.2c0.6-0.9,1.5-1.4,2.7-1.4c0.4,0,1.1,0.2,1.4,0.3c0.4,0.1,0.8,0.4,0.9,0.8c0.1,0.3,0.3,0.6,0.4,1
		c0,0.3,0.1,0.8,0.1,1.4v5.3h-1.5v-5.3c0-0.6,0-1-0.1-1.4c-0.1-0.3-0.3-0.4-0.6-0.8c-0.3-0.3-0.6-0.3-1.1-0.3
		c-0.6,0-1.2,0.1-1.6,0.6c-0.4,0.5-0.7,1.3-0.7,2.3v4.7L71.1,161.4L71.1,161.4z"/>
	<path d="M86.1,158.7l1.5,0.2c-0.3,0.9-0.6,1.5-1.4,2.1c-0.6,0.5-1.5,0.8-2.4,0.8c-1.2,0-2.3-0.5-3-1.2c-0.7-0.7-1.1-1.8-1.1-3.3
		s0.3-2.5,1.1-3.3c0.8-0.8,1.6-1.2,2.9-1.2c1.2,0,2.1,0.5,2.9,1.2c0.8,0.7,1.1,1.8,1.1,3.3c0,0.2,0,0.2,0,0.5h-6.4
		c0,0.9,0.3,1.6,0.8,2.1c0.4,0.4,1.1,0.8,1.8,0.8c0.6,0,1.1-0.2,1.4-0.5C85.6,159.8,85.9,159.3,86.1,158.7z M81.4,156.3h4.8
		c0-0.8-0.3-1.2-0.6-1.6c-0.4-0.6-1.1-0.9-1.8-0.9c-0.6,0-1.2,0.1-1.6,0.6C81.7,155,81.4,155.6,81.4,156.3z"/>
	<path d="M88.9,158.9l1.5-0.3c0.1,0.6,0.3,1.1,0.6,1.4s0.9,0.5,1.5,0.5c0.6,0,1.2-0.2,1.5-0.5c0.3-0.3,0.4-0.6,0.4-0.9
		c0-0.3-0.1-0.6-0.4-0.8c-0.1-0.2-0.8-0.3-1.5-0.5c-1.1-0.3-1.8-0.4-2.3-0.8c-0.4-0.1-0.8-0.4-0.9-0.8c-0.1-0.3-0.3-0.8-0.3-1.2
		c0-0.5,0.1-0.8,0.3-1.1c0.1-0.3,0.4-0.6,0.8-0.8c0.1-0.1,0.6-0.3,0.9-0.4c0.3-0.1,0.8-0.2,1.2-0.2c0.6,0,1.2,0.2,1.8,0.3
		c0.4,0.1,0.9,0.5,1.1,0.8c0.3,0.3,0.4,0.8,0.4,1.4l-1.4,0.1c0-0.5-0.3-0.8-0.6-1c-0.3-0.2-0.8-0.3-1.4-0.3c-0.6,0-1.2,0.1-1.4,0.3
		c-0.3,0.2-0.4,0.5-0.4,0.8c0,0.2,0,0.3,0.1,0.5c0.1,0.1,0.3,0.3,0.6,0.5c0.1,0,0.6,0.2,1.4,0.3c1.1,0.3,1.8,0.5,2.1,0.6
		c0.4,0.1,0.8,0.4,0.9,0.8c0.1,0.3,0.3,0.8,0.3,1.2c0,0.5-0.1,0.9-0.4,1.4s-0.8,0.8-1.2,1c-0.4,0.2-1.2,0.3-1.8,0.3
		c-1.1,0-1.9-0.3-2.6-0.8C89.4,160.5,89.1,159.8,88.9,158.9z"/>
	<path d="M101.7,157.1c0-1.6,0.5-2.7,1.4-3.4c0.8-0.6,1.6-0.9,2.7-0.9c1.2,0,2.1,0.5,2.9,1.2c0.8,0.7,1,1.8,1,3.1
		c0,1.1-0.1,2-0.5,2.6c-0.3,0.6-0.8,1-1.5,1.5c-0.8,0.4-1.4,0.4-2.1,0.4c-1.2,0-2.1-0.4-2.9-1.2
		C102.1,159.6,101.7,158.6,101.7,157.1z M103.2,157.1c0,1.1,0.3,2,0.8,2.4c0.5,0.6,1,0.8,1.8,0.8c0.8,0,1.4-0.3,1.8-0.8
		c0.5-0.6,0.8-1.3,0.8-2.5c0-1-0.3-1.8-0.8-2.4c-0.5-0.6-1-0.8-1.8-0.8c-0.8,0-1.4,0.3-1.8,0.8C103.5,155.3,103.2,156,103.2,157.1z"
		/>
	<path d="M111.5,161.4v-8.5h1.4v1.2c0.6-0.9,1.5-1.4,2.7-1.4c0.5,0,1,0.2,1.4,0.3c0.5,0.1,0.8,0.4,0.9,0.8c0.1,0.3,0.3,0.6,0.5,1
		c0,0.3,0.1,0.8,0.1,1.4v5.3H117v-5.3c0-0.6,0-1-0.1-1.4c-0.1-0.3-0.3-0.4-0.6-0.8c-0.3-0.3-0.6-0.3-1-0.3c-0.6,0-1.2,0.1-1.6,0.6
		c-0.5,0.5-0.6,1.2-0.6,2.3v4.7L111.5,161.4L111.5,161.4z"/>
	<path d="M124.6,158.9l1.5-0.3c0.1,0.6,0.3,1.1,0.6,1.4c0.3,0.3,0.9,0.5,1.5,0.5c0.6,0,1.2-0.2,1.5-0.5s0.5-0.6,0.5-0.9
		c0-0.3-0.1-0.6-0.5-0.8c-0.1-0.2-0.8-0.3-1.5-0.5c-1-0.3-1.8-0.4-2.3-0.8c-0.5-0.1-0.8-0.4-0.9-0.8c-0.1-0.3-0.3-0.8-0.3-1.2
		c0-0.5,0.1-0.8,0.3-1.1c0.1-0.3,0.5-0.6,0.8-0.8c0.1-0.1,0.6-0.3,0.9-0.4c0.3-0.1,0.8-0.2,1.2-0.2c0.6,0,1.2,0.2,1.8,0.3
		c0.5,0.1,0.9,0.5,1,0.8c0.3,0.3,0.5,0.8,0.5,1.4l-1.4,0.1c0-0.5-0.3-0.8-0.6-1c-0.3-0.2-0.8-0.3-1.4-0.3c-0.6,0-1.2,0.1-1.4,0.3
		c-0.3,0.2-0.5,0.5-0.5,0.8c0,0.2,0,0.3,0.1,0.5c0.1,0.1,0.3,0.3,0.6,0.5c0.1,0,0.6,0.2,1.4,0.3c1,0.3,1.8,0.5,2.1,0.6
		c0.5,0.1,0.8,0.4,0.9,0.8c0.1,0.3,0.3,0.8,0.3,1.2c0,0.5-0.1,0.9-0.5,1.4c-0.3,0.5-0.8,0.8-1.2,1c-0.4,0.2-1.2,0.3-1.8,0.3
		c-1,0-2-0.3-2.5-0.8C125.1,160.5,124.8,159.8,124.6,158.9z"/>
	<path d="M138.9,160.4c-0.6,0.4-1.1,0.8-1.5,0.9c-0.5,0.1-1,0.3-1.7,0.3c-0.9,0-1.6-0.3-2.1-0.8s-0.8-1-0.8-1.8
		c0-0.5,0.1-0.8,0.3-1.2c0.1-0.3,0.5-0.6,0.8-0.9c0.3-0.1,0.6-0.3,1-0.4c0.3,0,0.8-0.2,1.4-0.2c1.2-0.2,2.1-0.3,2.5-0.5
		c0-0.1,0-0.3,0-0.5c0-0.6-0.1-1-0.5-1.2c-0.3-0.3-0.9-0.5-1.7-0.5c-0.7,0-1.2,0.2-1.5,0.3s-0.6,0.6-0.8,1.2l-1.4-0.2
		c0.1-0.6,0.3-1,0.6-1.5c0.3-0.3,0.8-0.6,1.4-0.9c0.6-0.1,1.2-0.3,2-0.3c0.8,0,1.3,0.2,1.8,0.3s0.8,0.5,1,0.6c0.2,0.3,0.3,0.6,0.5,1
		c0,0.3,0,0.8,0,1.4v2c0,1.3,0,2.3,0.1,2.5c0.2,0.3,0.2,0.8,0.3,1h-1.5C139,161.1,139,160.8,138.9,160.4z M138.9,157.1
		c-0.6,0.2-1.4,0.5-2.4,0.6c-0.6,0.1-1,0.1-1.2,0.3c-0.3,0.2-0.5,0.3-0.6,0.5c-0.1,0.2-0.1,0.5-0.1,0.8c0,0.5,0.1,0.8,0.5,0.9
		c0.3,0.2,0.8,0.5,1.4,0.5s1-0.2,1.5-0.3c0.5-0.3,0.8-0.6,0.9-1c0.2-0.3,0.3-0.8,0.3-1.5L138.9,157.1L138.9,157.1z"/>
	<path d="M142.5,161.4v-11.9h1.5v11.9H142.5z"/>
	<path d="M152.1,158.7l1.5,0.2c-0.3,0.9-0.6,1.5-1.3,2.1c-0.6,0.5-1.5,0.8-2.4,0.8c-1.2,0-2.3-0.5-3-1.2c-0.7-0.7-1-1.8-1-3.3
		s0.3-2.5,1-3.3c0.7-0.8,1.7-1.2,2.9-1.2c1.2,0,2.1,0.5,2.9,1.2c0.8,0.7,1,1.8,1,3.3c0,0.2,0,0.2,0,0.5h-6.3c0,0.9,0.3,1.6,0.8,2.1
		c0.4,0.4,1,0.8,1.8,0.8c0.6,0,1.1-0.2,1.4-0.5C151.5,159.8,151.8,159.3,152.1,158.7z M147.3,156.3h4.8c0-0.8-0.3-1.2-0.6-1.6
		c-0.5-0.6-1.1-0.9-1.8-0.9c-0.6,0-1.2,0.1-1.6,0.6C147.6,155,147.3,155.6,147.3,156.3z"/>
	<path d="M156.2,158.4l-0.5-6.3v-2.5h1.8v2.5l-0.5,6.3H156.2z M155.7,161.4v-1.6h1.6v1.6H155.7z"/>
	<path d="M164.8,161.4v-11.9h8v1.4h-6.5v3.6h5.6v1.3h-5.6v5.4L164.8,161.4L164.8,161.4z"/>
	<path d="M174.6,161.4v-8.5h1.4v1.3c0.3-0.6,0.6-1,0.9-1.2c0.3-0.2,0.6-0.3,0.9-0.3c0.5,0,1,0.2,1.5,0.5l-0.5,1.3
		c-0.3-0.2-0.8-0.3-1-0.3s-0.6,0.1-0.9,0.3c-0.3,0.2-0.4,0.5-0.6,0.8c-0.2,0.5-0.3,1-0.3,1.7v4.5C176,161.4,174.6,161.4,174.6,161.4
		z"/>
	<path d="M185.8,158.7l1.5,0.2c-0.3,0.9-0.6,1.5-1.3,2.1c-0.6,0.5-1.5,0.8-2.4,0.8c-1.2,0-2.3-0.5-3-1.2c-0.7-0.7-1-1.8-1-3.3
		s0.3-2.5,1-3.3c0.7-0.8,1.7-1.2,2.9-1.2s2.1,0.5,2.9,1.2c0.8,0.7,1,1.8,1,3.3c0,0.2,0,0.2,0,0.5h-6.3c0,0.9,0.3,1.6,0.8,2.1
		c0.4,0.4,1,0.8,1.8,0.8c0.6,0,1.1-0.2,1.4-0.5C185.4,159.8,185.7,159.3,185.8,158.7z M181.2,156.3h4.8c0-0.8-0.3-1.2-0.6-1.6
		c-0.5-0.6-1.1-0.9-1.8-0.9c-0.6,0-1.2,0.1-1.6,0.6C181.5,155,181.2,155.6,181.2,156.3z"/>
	<path d="M195.2,158.7l1.5,0.2c-0.3,0.9-0.6,1.5-1.3,2.1c-0.6,0.5-1.5,0.8-2.4,0.8c-1.2,0-2.3-0.5-3-1.2c-0.7-0.7-1-1.8-1-3.3
		s0.3-2.5,1-3.3c0.7-0.8,1.7-1.2,2.8-1.2c1.2,0,2.1,0.5,2.8,1.2c0.7,0.7,1,1.8,1,3.3c0,0.2,0,0.2,0,0.5h-6.3c0,0.9,0.3,1.6,0.8,2.1
		c0.5,0.4,1,0.8,1.8,0.8c0.6,0,1-0.2,1.3-0.5C194.5,159.8,194.8,159.3,195.2,158.7z M190.3,156.3h4.8c0-0.8-0.3-1.2-0.6-1.6
		c-0.5-0.6-1-0.9-1.8-0.9c-0.6,0-1.2,0.1-1.6,0.6C190.7,155,190.3,155.6,190.3,156.3z"/>
	<path d="M202.7,162.2l1.4,0.1c0,0.5,0.1,0.8,0.4,0.9c0.3,0.3,0.9,0.5,1.5,0.5s1.2-0.1,1.5-0.5c0.3-0.3,0.6-0.6,0.8-1.2
		c0-0.3,0.2-0.9,0.2-1.8c-0.6,0.8-1.3,1-2.4,1c-1.2,0-2.1-0.5-2.7-1.2c-0.6-0.9-0.9-1.8-0.9-3c0-0.8,0.2-1.5,0.5-2.3
		c0.3-0.8,0.8-1.2,1.3-1.7c0.6-0.4,1.2-0.6,1.9-0.6c1.1,0,1.8,0.5,2.6,1.2v-1h1.3v7.3c0,1.4-0.2,2.3-0.5,2.9c-0.3,0.6-0.8,1-1.3,1.4
		c-0.6,0.3-1.4,0.4-2.1,0.4c-1,0-1.8-0.3-2.4-0.8C203,163.7,202.7,163.1,202.7,162.2z M203.8,156.9c0,1,0.2,2,0.6,2.4
		c0.4,0.5,1,0.8,1.6,0.8s1.2-0.3,1.7-0.8c0.4-0.4,0.8-1.3,0.8-2.4c0-1.1-0.3-1.8-0.8-2.4s-1.1-0.8-1.7-0.8s-1.2,0.3-1.6,0.8
		C204,155,203.8,156,203.8,156.9z"/>
	<path d="M212.1,151.2v-1.7h1.5v1.7H212.1z M212.1,161.4v-8.5h1.5v8.5H212.1z"/>
	<path d="M216.2,161.4V154h-1.3v-1.2h1.3v-0.9c0-0.6,0-1,0.2-1.3c0.1-0.3,0.4-0.8,0.8-0.9c0.3-0.3,0.9-0.3,1.5-0.3
		c0.4,0,0.9,0,1.3,0.1l-0.1,1.2c-0.3,0-0.6-0.2-0.9-0.2c-0.4,0-0.8,0.2-0.9,0.3c-0.2,0.1-0.3,0.6-0.3,1v0.8h1.7v1.2h-1.8v7.4
		L216.2,161.4L216.2,161.4z"/>
	<path d="M223.5,160.1l0.1,1.4c-0.4,0.1-0.8,0.1-1,0.1c-0.6,0-0.9-0.1-1.2-0.3c-0.3-0.2-0.4-0.5-0.6-0.6c-0.1-0.1-0.2-0.9-0.2-1.6
		v-5h-1v-1.2h1v-2.1l1.5-0.9v3h1.5v1.2h-1.5v5c0,0.4,0,0.8,0.2,0.8c0,0.1,0.1,0.1,0.3,0.3c0.2,0,0.3,0.2,0.5,0.2
		C223,160.2,223.2,160.2,223.5,160.1z"/>
	<path d="M231.2,161.4l-2.5-8.5h1.5l1.3,5l0.4,1.8c0-0.2,0.2-0.8,0.5-1.8l1.3-5h1.5l1.3,5l0.5,1.6l0.4-1.6l1.5-5h1.3l-2.7,8.5H236
		l-1.3-5.1l-0.3-1.5l-1.8,6.6H231.2z"/>
	<path d="M241.3,151.2v-1.7h1.5v1.7H241.3z M241.3,161.4v-8.5h1.5v8.5H241.3z"/>
	<path d="M248.3,160.1l0.1,1.4c-0.4,0.1-0.8,0.1-1,0.1c-0.6,0-0.9-0.1-1.2-0.3c-0.3-0.2-0.4-0.5-0.6-0.6c-0.1-0.1-0.2-0.9-0.2-1.6
		v-5h-1v-1.2h1v-2.1l1.5-0.9v3h1.5v1.2h-1.5v5c0,0.4,0,0.8,0.2,0.8c0,0.1,0.1,0.1,0.3,0.3c0.2,0,0.3,0.2,0.5,0.2
		C247.8,160.2,248,160.2,248.3,160.1z"/>
	<path d="M249.6,161.4v-11.9h1.5v4.2c0.8-0.8,1.5-1.2,2.6-1.2c0.6,0,1.2,0.2,1.7,0.3c0.5,0.1,0.8,0.6,1,1c0.3,0.4,0.3,1.1,0.3,2v5.4
		h-1.5v-5.4c0-0.8-0.2-1.2-0.4-1.7c-0.3-0.3-0.8-0.5-1.4-0.5c-0.4,0-0.9,0.1-1.2,0.3c-0.3,0.2-0.6,0.5-0.8,0.9
		c-0.2,0.4-0.3,0.9-0.3,1.6v4.6h-1.5V161.4L249.6,161.4z"/>
	<path d="M263.4,164.7v-11.8h1.4v1c0.3-0.4,0.6-0.8,1-1c0.5-0.2,0.9-0.3,1.3-0.3c0.8,0,1.3,0.2,1.9,0.6c0.6,0.3,1.1,0.9,1.2,1.6
		c0.3,0.8,0.5,1.5,0.5,2.3c0,0.9-0.2,1.7-0.5,2.4c-0.3,0.7-0.8,1.2-1.3,1.7c-0.6,0.3-1.2,0.6-1.9,0.6c-0.5,0-0.9-0.2-1.4-0.3
		s-0.8-0.5-0.9-0.8v4.2h-1.3V164.7z M264.8,157.2c0,1,0.1,2,0.6,2.4c0.5,0.6,1.1,0.8,1.7,0.8s1.2-0.3,1.6-0.8
		c0.5-0.6,0.8-1.4,0.8-2.6c0-1-0.1-1.9-0.6-2.4c-0.5-0.6-1.1-0.8-1.7-0.8c-0.6,0-1.2,0.3-1.6,0.9C264.9,155.3,264.8,156,264.8,157.2
		z"/>
	<path d="M278.1,161.4v-1.2c-0.6,0.9-1.5,1.5-2.7,1.5c-0.4,0-0.9-0.2-1.3-0.3c-0.5-0.1-0.8-0.5-0.9-0.8c-0.1-0.3-0.3-0.6-0.4-1
		c0-0.3-0.2-0.8-0.2-1.3V153h1.5v4.8c0,0.8,0,1.2,0.2,1.5c0.1,0.5,0.3,0.8,0.6,0.9c0.3,0.2,0.6,0.3,1.1,0.3s0.9-0.1,1.2-0.3
		c0.3-0.2,0.6-0.6,0.8-0.9c0.2-0.4,0.3-0.9,0.3-1.6v-4.5h1.5v8.5h-1.5L278.1,161.4L278.1,161.4z"/>
	<path d="M281.7,161.4v-8.5h1.3v1.3c0.3-0.6,0.6-1,0.9-1.2c0.3-0.2,0.6-0.3,0.9-0.3c0.5,0,1,0.2,1.5,0.5l-0.5,1.3
		c-0.3-0.2-0.8-0.3-1-0.3c-0.2,0-0.6,0.1-0.9,0.3c-0.3,0.2-0.4,0.5-0.6,0.8c-0.2,0.5-0.3,1-0.3,1.7v4.5
		C283,161.4,281.7,161.4,281.7,161.4z"/>
	<path d="M292.8,158.3l1.3,0.1c-0.2,1.1-0.6,1.8-1.2,2.3c-0.6,0.6-1.5,0.9-2.4,0.9c-1.2,0-2.1-0.5-2.8-1.2c-0.7-0.7-1.1-1.8-1.1-3.3
		c0-0.9,0.2-1.8,0.4-2.4c0.3-0.8,0.8-1.2,1.4-1.5c0.6-0.3,1.3-0.4,2.1-0.4c0.9,0,1.7,0.3,2.3,0.8c0.6,0.4,0.9,1.2,1.2,1.9l-1.3,0.2
		c-0.2-0.6-0.3-1-0.8-1.3c-0.3-0.3-0.8-0.5-1.2-0.5c-0.8,0-1.4,0.3-1.8,0.8s-0.8,1.4-0.8,2.6s0.2,1.9,0.6,2.5c0.4,0.6,1,0.8,1.7,0.8
		c0.6,0,1.1-0.1,1.3-0.4C292.3,159.5,292.7,159,292.8,158.3z"/>
	<path d="M295.3,161.4v-11.9h1.5v4.2c0.8-0.8,1.5-1.2,2.6-1.2c0.6,0,1.2,0.2,1.7,0.3c0.5,0.3,0.8,0.6,1,1c0.3,0.4,0.3,1.1,0.3,2v5.4
		h-1.5v-5.4c0-0.8-0.2-1.2-0.4-1.7c-0.3-0.3-0.8-0.5-1.4-0.5c-0.4,0-0.9,0.1-1.2,0.3c-0.3,0.2-0.6,0.5-0.8,0.9
		c-0.2,0.4-0.3,0.9-0.3,1.6v4.6h-1.5L295.3,161.4L295.3,161.4z"/>
	<path d="M310.2,160.4c-0.6,0.4-1.1,0.8-1.5,0.9s-1.1,0.3-1.7,0.3c-0.9,0-1.7-0.3-2.1-0.8c-0.4-0.5-0.8-1-0.8-1.8
		c0-0.5,0.2-0.8,0.3-1.2c0.1-0.3,0.4-0.6,0.8-0.9c0.3-0.1,0.6-0.3,1-0.4c0.3,0,0.8-0.2,1.3-0.2c1.2-0.2,2.1-0.3,2.6-0.5
		c0-0.1,0-0.3,0-0.5c0-0.6-0.2-1-0.5-1.2c-0.3-0.3-0.9-0.5-1.7-0.5c-0.8,0-1.2,0.2-1.5,0.3c-0.3,0.3-0.6,0.6-0.8,1.2l-1.3-0.2
		c0.2-0.6,0.3-1,0.6-1.5c0.3-0.3,0.8-0.6,1.3-0.9c0.6-0.1,1.2-0.3,2-0.3c0.8,0,1.3,0.2,1.8,0.3s0.8,0.5,1,0.6c0.2,0.3,0.3,0.6,0.5,1
		c0,0.3,0,0.8,0,1.4v2c0,1.3,0,2.3,0.2,2.5c0.2,0.2,0.2,0.8,0.3,1h-1.5C310.3,161.1,310.2,160.8,310.2,160.4z M310,157.1
		c-0.6,0.2-1.3,0.5-2.4,0.6c-0.6,0.1-1.1,0.1-1.2,0.3c-0.2,0.2-0.5,0.3-0.6,0.5c-0.1,0.1-0.1,0.5-0.1,0.8c0,0.5,0.1,0.8,0.4,0.9
		c0.3,0.3,0.8,0.5,1.3,0.5s1-0.2,1.5-0.3c0.5-0.3,0.8-0.6,0.9-1c0.2-0.3,0.3-0.8,0.3-1.5L310,157.1L310,157.1z"/>
	<path d="M313.2,158.9l1.5-0.3c0.2,0.6,0.3,1.1,0.6,1.4c0.3,0.3,0.9,0.5,1.5,0.5s1.2-0.2,1.5-0.5c0.3-0.3,0.5-0.6,0.5-0.9
		c0-0.3-0.2-0.6-0.5-0.8c-0.2-0.2-0.8-0.3-1.5-0.5c-1-0.3-1.8-0.4-2.3-0.8c-0.5-0.1-0.8-0.4-0.9-0.8c-0.2-0.3-0.3-0.8-0.3-1.2
		c0-0.5,0.2-0.8,0.3-1.1c0.2-0.3,0.4-0.6,0.8-0.8c0.2-0.1,0.6-0.3,0.9-0.4c0.5-0.2,0.8-0.2,1.2-0.2c0.6,0,1.2,0.2,1.8,0.3
		c0.5,0.1,0.9,0.5,1,0.8c0.1,0.3,0.5,0.8,0.5,1.4l-1.3,0.1c0-0.5-0.3-0.8-0.6-1c-0.3-0.2-0.8-0.3-1.3-0.3s-1.2,0.1-1.3,0.3
		c-0.3,0.2-0.5,0.5-0.5,0.8c0,0.2,0,0.3,0.2,0.5c0.1,0.1,0.3,0.3,0.6,0.5c0.2,0,0.6,0.2,1.4,0.3c1,0.3,1.8,0.5,2.1,0.6
		c0.3,0.1,0.8,0.4,0.9,0.8c0.3,0.3,0.3,0.8,0.3,1.2c0,0.5-0.2,0.9-0.5,1.4c-0.3,0.5-0.8,0.8-1.2,1c-0.6,0.3-1.2,0.3-1.8,0.3
		c-1,0-1.9-0.3-2.5-0.8C313.7,160.5,313.3,159.8,313.2,158.9z"/>
	<path d="M327.8,158.7l1.5,0.2c-0.3,0.9-0.6,1.5-1.4,2.1c-0.6,0.5-1.5,0.8-2.4,0.8c-1.2,0-2.3-0.5-3-1.2c-0.7-0.7-1.1-1.8-1.1-3.3
		s0.3-2.5,1.1-3.3c0.8-0.8,1.6-1.2,2.8-1.2c1.2,0,2.1,0.5,2.9,1.2c0.8,0.7,1,1.8,1,3.3c0,0.2,0,0.2,0,0.5h-6.3
		c0,0.9,0.3,1.6,0.8,2.1c0.4,0.4,1,0.8,1.8,0.8c0.6,0,1-0.2,1.3-0.5C327.3,159.8,327.6,159.3,327.8,158.7z M323.1,156.3h4.8
		c0-0.8-0.3-1.2-0.6-1.6c-0.5-0.6-1-0.9-1.8-0.9c-0.6,0-1.2,0.1-1.7,0.6C323.4,154.8,323.1,155.6,323.1,156.3z"/>
	<path d="M331.5,161.4v-1.6h1.6v1.6H331.5z"/>
</g>
<g class="st0">
	<path class="st4" d="M9.9,184.7l1.3,0.1c-0.2,1.1-0.6,1.8-1.2,2.3c-0.6,0.6-1.5,0.9-2.4,0.9c-1.2,0-2.1-0.5-2.8-1.2
		s-1.1-1.8-1.1-3.3c0-0.9,0.2-1.8,0.4-2.4c0.3-0.6,0.8-1.2,1.4-1.5s1.3-0.4,2.1-0.4c0.9,0,1.6,0.3,2.3,0.8c0.6,0.4,0.9,1.2,1.2,1.9
		l-1.3,0.2c-0.2-0.6-0.3-1.1-0.8-1.4c-0.3-0.3-0.8-0.5-1.2-0.5c-0.8,0-1.4,0.3-1.8,0.8s-0.8,1.4-0.8,2.6s0.2,1.9,0.6,2.5
		c0.5,0.6,1.1,0.8,1.7,0.8s1-0.1,1.3-0.4C9.6,186,9.7,185.4,9.9,184.7z"/>
	<path class="st4" d="M12,183.6c0-1.6,0.5-2.7,1.3-3.5c0.8-0.6,1.7-0.9,2.7-0.9c1.2,0,2.1,0.5,2.8,1.2s1,1.8,1,3.1
		c0,1-0.1,1.9-0.4,2.5c-0.3,0.6-0.8,1.1-1.5,1.5c-0.8,0.5-1.4,0.5-2.1,0.5c-1.2,0-2.1-0.5-2.8-1.2C12.4,186.2,12,185,12,183.6z
		 M13.5,183.6c0,1,0.3,1.9,0.8,2.4c0.5,0.6,1,0.8,1.8,0.8s1.3-0.3,1.8-0.8c0.5-0.6,0.8-1.4,0.8-2.5s-0.3-1.8-0.8-2.4
		c-0.5-0.6-1-0.8-1.8-0.8s-1.3,0.3-1.8,0.8C13.8,181.7,13.5,182.4,13.5,183.6z"/>
	<path class="st4" d="M21.7,187.8V176h1.5v4.2c0.8-0.8,1.5-1.2,2.6-1.2c0.6,0,1.2,0.1,1.6,0.3s0.8,0.6,1.1,1c0.1,0.5,0.3,1.1,0.3,2
		v5.4h-1.5v-5.4c0-0.8-0.2-1.2-0.4-1.6c-0.3-0.3-0.8-0.5-1.3-0.5s-0.9,0.1-1.2,0.3c-0.3,0.1-0.6,0.4-0.8,0.9s-0.3,0.9-0.3,1.6v4.7
		h-1.5C21.8,187.7,21.8,187.8,21.7,187.8z"/>
	<path class="st4" d="M30.3,183.6c0-1.6,0.4-2.7,1.3-3.5c0.8-0.6,1.7-0.9,2.7-0.9c1.2,0,2.1,0.5,2.8,1.2s1.1,1.8,1.1,3.1
		c0,1-0.2,1.9-0.4,2.5c-0.3,0.6-0.8,1.1-1.5,1.5c-0.8,0.5-1.4,0.5-2.1,0.5c-1.2,0-2.1-0.5-2.8-1.2C30.7,186.2,30.3,185,30.3,183.6z
		 M31.8,183.6c0,1,0.3,1.9,0.8,2.4c0.4,0.6,1,0.8,1.8,0.8s1.3-0.3,1.8-0.8c0.5-0.6,0.8-1.4,0.8-2.5s-0.3-1.8-0.8-2.4
		c-0.4-0.6-1-0.8-1.8-0.8s-1.3,0.3-1.8,0.8C32.1,181.7,31.8,182.4,31.8,183.6z"/>
	<path class="st4" d="M41.5,187.8l-2.6-8.5h1.5l1.3,4.9l0.5,1.8c0-0.2,0.1-0.8,0.4-1.8l1.4-4.9h1.5l1.4,4.9l0.4,1.6l0.5-1.6l1.5-4.9
		h1.4l-2.7,8.5h-1.5l-1.4-5.1l-0.3-1.5l-1.8,6.6H41.5z"/>
	<path class="st4" d="M51.9,177.8v-1.6h1.5v1.6H51.9z M51.9,187.8v-8.5h1.5v8.5H51.9z"/>
	<path class="st4" d="M55.6,187.8v-8.5H57v1.2c0.6-0.9,1.5-1.4,2.7-1.4c0.4,0,1.1,0.2,1.4,0.3c0.4,0.1,0.8,0.4,0.9,0.8
		s0.3,0.6,0.4,1.1c0,0.3,0.1,0.8,0.1,1.3v5.3H61v-5.1c0-0.6,0-1.1-0.1-1.4c-0.1-0.3-0.3-0.5-0.6-0.8s-0.6-0.3-1.1-0.3
		c-0.6,0-1.2,0.2-1.6,0.6s-0.6,1.2-0.6,2.3v4.6L55.6,187.8L55.6,187.8z"/>
	<path class="st4" d="M70.6,185.1l1.5,0.1c-0.3,0.9-0.6,1.5-1.4,2.1c-0.6,0.4-1.5,0.8-2.4,0.8c-1.2,0-2.3-0.5-3-1.2
		c-0.7-0.7-1.1-1.8-1.1-3.3s0.3-2.6,1.1-3.3c0.8-0.7,1.6-1.2,2.9-1.2c1.2,0,2.1,0.4,2.9,1.2c0.8,0.8,1.1,1.8,1.1,3.3
		c0,0.1,0,0.1,0,0.4h-6.3c0,0.9,0.3,1.7,0.8,2.1s1.1,0.8,1.8,0.8c0.6,0,1.1-0.1,1.4-0.4C70,186.2,70.4,185.7,70.6,185.1z
		 M65.9,182.7h4.8c0-0.8-0.3-1.2-0.6-1.7c-0.4-0.6-1.1-0.9-1.8-0.9c-0.6,0-1.2,0.1-1.6,0.6C66.1,181.4,65.9,182,65.9,182.7z"/>
	<path class="st4" d="M73.9,187.8v-8.5h1.4v1.3c0.3-0.6,0.6-1,0.9-1.2c0.3-0.1,0.6-0.3,0.9-0.3c0.4,0,1.1,0.2,1.5,0.5l-0.4,1.4
		c-0.3-0.1-0.8-0.3-1.1-0.3c-0.3,0-0.6,0.2-0.9,0.3c-0.3,0.1-0.4,0.4-0.6,0.8c-0.1,0.4-0.3,1-0.3,1.6v4.5
		C75.3,187.8,73.9,187.8,73.9,187.8z"/>
</g>
<g class="st0">
	<path class="st4" d="M79.4,191.1l-0.1-1.4c0.3,0.1,0.6,0.1,0.9,0.1c0.3,0,0.6,0,0.8-0.1c0.2-0.1,0.3-0.3,0.4-0.5
		c0.1-0.1,0.3-0.4,0.4-1c0-0.1,0-0.1,0.1-0.3l-3.3-8.6h1.5l1.8,4.9c0.3,0.6,0.4,1.4,0.6,2c0.1-0.6,0.3-1.4,0.6-2l1.8-4.9h1.5
		l-3.3,8.7c-0.3,0.9-0.6,1.7-0.8,2c-0.3,0.5-0.6,0.9-0.9,1c-0.3,0.2-0.8,0.3-1.2,0.3C79.9,191.3,79.6,191.3,79.4,191.1z"/>
</g>
<g class="st0">
	<path class="st4" d="M86.9,187.8v-1.6h1.6v1.6H86.9z"/>
	<path class="st4" d="M96.6,184.7l1.4,0.1c-0.1,1.1-0.6,1.8-1.2,2.3c-0.6,0.6-1.5,0.9-2.4,0.9c-1.2,0-2.1-0.5-2.9-1.2
		c-0.8-0.7-1.1-1.8-1.1-3.3c0-0.9,0.1-1.8,0.4-2.4c0.3-0.6,0.8-1.2,1.4-1.5c0.6-0.3,1.4-0.4,2.1-0.4c0.9,0,1.6,0.3,2.3,0.8
		c0.6,0.4,0.9,1.2,1.2,1.9l-1.4,0.2c-0.1-0.6-0.3-1.1-0.8-1.4c-0.3-0.3-0.8-0.5-1.2-0.5c-0.8,0-1.4,0.3-1.8,0.8
		c-0.4,0.5-0.8,1.4-0.8,2.6s0.1,1.9,0.6,2.5s1.1,0.8,1.6,0.8c0.6,0,1.1-0.1,1.4-0.4C96.1,186,96.5,185.4,96.6,184.7z"/>
	<path class="st4" d="M98.7,183.6c0-1.6,0.5-2.7,1.4-3.5c0.8-0.6,1.6-0.9,2.7-0.9c1.2,0,2.1,0.5,2.9,1.2c0.8,0.7,1,1.8,1,3.1
		c0,1-0.1,1.9-0.5,2.5c-0.3,0.6-0.8,1.1-1.5,1.5c-0.8,0.5-1.4,0.5-2.1,0.5c-1.2,0-2.1-0.5-2.9-1.2C99,186.2,98.7,185,98.7,183.6z
		 M100.2,183.6c0,1,0.3,1.9,0.8,2.4c0.5,0.6,1,0.8,1.8,0.8c0.8,0,1.4-0.3,1.8-0.8c0.5-0.6,0.8-1.4,0.8-2.5s-0.3-1.8-0.8-2.4
		c-0.5-0.6-1-0.8-1.8-0.8c-0.8,0-1.4,0.3-1.8,0.8C100.4,181.7,100.2,182.4,100.2,183.6z"/>
	<path class="st4" d="M108.5,187.8v-8.5h1.4v1.2c0.3-0.4,0.6-0.8,1-1c0.5-0.3,0.9-0.5,1.5-0.5s1.2,0.1,1.5,0.5
		c0.3,0.3,0.8,0.6,0.9,1c0.8-1,1.5-1.5,2.7-1.5c0.9,0,1.5,0.3,2,0.8s0.8,1.2,0.8,2.1v5.9h-1.5v-5.4c0-0.6,0-1.1-0.1-1.2
		c-0.1-0.3-0.3-0.5-0.5-0.6c-0.3-0.1-0.6-0.3-0.9-0.3c-0.6,0-1,0.1-1.5,0.6c-0.5,0.4-0.6,1-0.6,1.9v4.9h-1.5v-5.5
		c0-0.6-0.1-1.2-0.3-1.5c-0.3-0.3-0.6-0.5-1.2-0.5c-0.5,0-0.8,0.2-1.2,0.3c-0.4,0.1-0.6,0.6-0.8,0.9c-0.1,0.3-0.3,1.1-0.3,1.8v4.5
		L108.5,187.8L108.5,187.8z"/>
	<path class="st4" d="M126.7,177.8v-1.6h1.5v1.6H126.7z M126.7,187.8v-8.5h1.5v8.5H126.7z"/>
	<path class="st4" d="M129.7,185.3l1.5-0.3c0.1,0.6,0.3,1,0.6,1.3s0.9,0.5,1.5,0.5c0.6,0,1.2-0.2,1.5-0.5s0.5-0.6,0.5-0.9
		s-0.1-0.6-0.5-0.8c-0.1-0.1-0.8-0.3-1.5-0.4c-1-0.3-1.8-0.5-2.3-0.8c-0.5-0.2-0.8-0.5-0.9-0.8c-0.1-0.3-0.3-0.8-0.3-1.2
		s0.1-0.8,0.3-1c0.1-0.3,0.5-0.6,0.8-0.8c0.1-0.2,0.6-0.3,0.9-0.5s0.8-0.1,1.2-0.1c0.6,0,1.2,0.1,1.8,0.3c0.5,0.1,0.9,0.5,1,0.8
		c0.3,0.3,0.5,0.8,0.5,1.4l-1.4,0.1c0-0.4-0.3-0.8-0.6-1c-0.3-0.3-0.8-0.3-1.4-0.3s-1.2,0.2-1.4,0.3c-0.3,0.1-0.5,0.4-0.5,0.8
		c0,0.1,0,0.3,0.1,0.4c0.1,0.1,0.3,0.3,0.6,0.5c0.1,0,0.6,0.1,1.4,0.3c1,0.3,1.8,0.5,2.1,0.6c0.5,0.1,0.8,0.4,0.9,0.8
		c0.2,0.3,0.3,0.8,0.3,1.2c0,0.5-0.1,0.9-0.5,1.4c-0.3,0.5-0.8,0.8-1.2,1.1c-0.5,0.3-1.2,0.3-1.8,0.3c-1,0-2-0.3-2.5-0.8
		C130.4,186.9,129.9,186.2,129.7,185.3z"/>
	<path class="st4" d="M143.1,187.8v-8.5h1.4v1.3c0.3-0.6,0.6-1,0.9-1.2c0.3-0.1,0.6-0.3,0.9-0.3c0.5,0,1,0.2,1.5,0.5l-0.5,1.4
		c-0.3-0.1-0.8-0.3-1-0.3s-0.6,0.2-0.9,0.3c-0.3,0.1-0.4,0.4-0.6,0.8c-0.2,0.4-0.3,1-0.3,1.6v4.5
		C144.5,187.8,143.1,187.8,143.1,187.8z"/>
	<path class="st4" d="M154.2,186.8c-0.6,0.5-1,0.8-1.5,0.9s-1,0.3-1.6,0.3c-0.9,0-1.7-0.3-2.1-0.8c-0.5-0.5-0.8-1.1-0.8-1.8
		c0-0.4,0.1-0.8,0.3-1.2c0.2-0.3,0.5-0.6,0.8-0.9c0.3-0.1,0.6-0.3,1-0.4c0.3,0,0.8-0.1,1.4-0.1c1.2-0.2,2.1-0.3,2.5-0.5
		c0-0.1,0-0.3,0-0.4c0-0.6-0.1-1.1-0.4-1.2c-0.3-0.3-0.9-0.4-1.7-0.4c-0.8,0-1.2,0.1-1.5,0.3c-0.3,0.2-0.6,0.6-0.8,1.2l-1.3-0.2
		c0.1-0.6,0.3-1,0.6-1.5c0.3-0.3,0.8-0.6,1.3-0.9c0.6-0.1,1.2-0.3,2-0.3s1.3,0.1,1.8,0.3c0.5,0.1,0.8,0.5,1.1,0.6
		c0.1,0.3,0.3,0.6,0.4,1c0,0.3,0,0.8,0,1.4v2c0,1.4,0,2.3,0.2,2.5c0.2,0.3,0.2,0.8,0.3,1.1h-1.5
		C154.3,187.5,154.2,187.2,154.2,186.8z M154,183.6c-0.6,0.1-1.4,0.4-2.4,0.6c-0.6,0.1-1.1,0.1-1.2,0.3c-0.3,0.1-0.4,0.3-0.6,0.5
		c-0.2,0.1-0.2,0.4-0.2,0.8c0,0.4,0.2,0.8,0.5,0.9c0.3,0.1,0.8,0.4,1.3,0.4s1-0.1,1.5-0.3c0.5-0.3,0.8-0.6,0.9-1.1
		c0.1-0.3,0.3-0.8,0.3-1.5L154,183.6L154,183.6z"/>
	<path class="st4" d="M161,186.6l0.1,1.4c-0.4,0.1-0.8,0.1-1,0.1c-0.6,0-0.9-0.1-1.2-0.3c-0.3-0.1-0.4-0.4-0.6-0.6
		c-0.2-0.2-0.2-0.9-0.2-1.7v-4.9h-1v-1.2h1v-2.1l1.5-0.9v3h1.5v1.2h-1.5v4.9c0,0.5,0,0.8,0.2,0.8c0,0.2,0.2,0.2,0.3,0.3
		c0.1,0,0.3,0.1,0.5,0.1C160.5,186.6,160.7,186.6,161,186.6z"/>
	<path class="st4" d="M168.2,185.1l1.5,0.1c-0.3,0.9-0.6,1.5-1.4,2.1c-0.6,0.4-1.5,0.8-2.4,0.8c-1.2,0-2.3-0.5-3-1.2
		c-0.7-0.7-1.1-1.8-1.1-3.3s0.3-2.6,1.1-3.3c0.8-0.7,1.6-1.2,2.8-1.2c1.2,0,2.1,0.4,2.8,1.2c0.7,0.8,1.1,1.8,1.1,3.3
		c0,0.1,0,0.1,0,0.4h-6.3c0,0.9,0.3,1.7,0.8,2.1c0.5,0.4,1.1,0.8,1.8,0.8c0.6,0,1-0.1,1.3-0.4C167.7,186.2,168,185.7,168.2,185.1z
		 M163.5,182.7h4.8c0-0.8-0.3-1.2-0.6-1.7c-0.4-0.6-1-0.9-1.8-0.9c-0.6,0-1.2,0.1-1.7,0.6C163.8,181.4,163.5,182,163.5,182.7z"/>
	<path class="st4" d="M177,187.8v-1c-0.6,0.9-1.3,1.2-2.4,1.2c-0.8,0-1.3-0.1-1.9-0.6c-0.6-0.3-1.1-0.9-1.4-1.5
		c-0.3-0.6-0.5-1.5-0.5-2.3c0-0.9,0.2-1.6,0.5-2.3c0.3-0.8,0.8-1.2,1.4-1.6c0.6-0.3,1.2-0.6,1.9-0.6c0.5,0,0.9,0.2,1.4,0.3
		s0.8,0.4,1,0.9v-4.2h1.5V188L177,187.8L177,187.8z M172.5,183.6c0,1,0.3,1.9,0.8,2.4c0.5,0.6,1,0.8,1.7,0.8c0.6,0,1.2-0.3,1.6-0.8
		c0.5-0.5,0.6-1.4,0.6-2.4c0-1.2-0.2-2.1-0.8-2.6c-0.6-0.4-1.1-0.8-1.7-0.8s-1.2,0.3-1.7,0.8C172.7,181.7,172.5,182.4,172.5,183.6z"
		/>
	<path class="st4" d="M285.5,183.6c0-1.6,0.4-2.7,1.3-3.5c0.8-0.6,1.7-0.9,2.7-0.9c1.2,0,2.1,0.5,2.8,1.2c0.7,0.7,1.1,1.8,1.1,3.1
		c0,1-0.2,1.9-0.4,2.5c-0.3,0.6-0.8,1.1-1.5,1.5c-0.8,0.5-1.4,0.5-2.1,0.5c-1.2,0-2.1-0.5-2.8-1.2
		C285.8,186.2,285.5,185,285.5,183.6z M287,183.6c0,1,0.3,1.9,0.8,2.4c0.4,0.6,1.1,0.8,1.8,0.8c0.7,0,1.3-0.3,1.8-0.8
		c0.5-0.6,0.8-1.4,0.8-2.5s-0.3-1.8-0.8-2.4c-0.5-0.6-1-0.8-1.8-0.8c-0.8,0-1.4,0.3-1.8,0.8C287.1,181.7,287,182.4,287,183.6z"/>
	<path class="st4" d="M295,187.8v-8.5h1.3v1.2c0.6-0.9,1.5-1.4,2.7-1.4c0.5,0,1.1,0.2,1.4,0.3c0.4,0.1,0.8,0.4,0.9,0.8
		c0.2,0.3,0.3,0.6,0.5,1.1c0,0.3,0.2,0.8,0.2,1.3v5.3h-1.5v-5.1c0-0.6,0-1.1-0.2-1.4c-0.2-0.3-0.3-0.5-0.6-0.8
		c-0.3-0.3-0.6-0.3-1.1-0.3c-0.6,0-1.2,0.2-1.6,0.6c-0.5,0.4-0.6,1.2-0.6,2.3v4.6L295,187.8L295,187.8z"/>
	<path class="st4" d="M309,187.8V176h4.3c0.9,0,1.7,0.1,2.1,0.3c0.6,0.3,0.9,0.6,1.3,1c0.3,0.5,0.5,1.1,0.5,1.5
		c0,0.5-0.2,1.1-0.5,1.4c-0.3,0.3-0.8,0.8-1.2,1.1c0.8,0.1,1.2,0.6,1.7,1s0.6,1.1,0.6,1.8c0,0.6-0.2,1-0.3,1.5
		c-0.1,0.4-0.4,0.9-0.9,1c-0.3,0.3-0.8,0.5-1.4,0.6c-0.4,0.1-1.2,0.1-1.9,0.1H309L309,187.8L309,187.8z M310.5,181.1h2.5
		c0.8,0,1.2,0,1.5-0.1c0.5-0.1,0.8-0.3,0.9-0.6c0.2-0.3,0.3-0.6,0.3-1c0-0.5-0.2-0.8-0.3-1.1s-0.4-0.4-0.8-0.6
		c-0.3-0.1-0.9-0.1-1.8-0.1h-2.4v3.5L310.5,181.1L310.5,181.1z M310.5,186.5h3c0.4,0,0.9,0,1,0c0.3,0,0.6-0.2,0.9-0.3
		c0.3-0.1,0.4-0.3,0.6-0.6s0.3-0.6,0.3-1c0-0.5-0.1-0.8-0.3-1.2c-0.3-0.3-0.6-0.6-0.9-0.8c-0.3-0.1-0.9-0.1-1.8-0.1h-2.8V186.5z"/>
	<path class="st4" d="M319.8,177.8v-1.6h1.5v1.6H319.8z M319.8,187.8v-8.5h1.5v8.5H319.8z"/>
	<path class="st4" d="M323.4,187.8v-8.5h1.4v1.2c0.6-0.9,1.5-1.4,2.7-1.4c0.4,0,1.1,0.2,1.3,0.3c0.5,0.1,0.8,0.4,0.9,0.8
		c0.2,0.3,0.3,0.6,0.5,1.1c0,0.3,0.2,0.8,0.2,1.3v5.3h-1.5v-5.1c0-0.6,0-1.1-0.2-1.4c-0.1-0.3-0.3-0.5-0.6-0.8
		c-0.3-0.3-0.6-0.3-1.1-0.3c-0.6,0-1.2,0.2-1.7,0.6s-0.6,1.2-0.6,2.3v4.6L323.4,187.8L323.4,187.8z"/>
	<path class="st4" d="M332.4,188.6l1.4,0.2c0,0.4,0.1,0.8,0.4,0.9c0.3,0.3,0.9,0.4,1.5,0.4s1.2-0.1,1.5-0.4c0.3-0.3,0.6-0.6,0.8-1.2
		c0-0.3,0.2-0.9,0.2-1.8c-0.6,0.8-1.3,1-2.4,1c-1.2,0-2.1-0.4-2.7-1.2c-0.6-0.9-0.9-1.8-0.9-3c0-0.8,0.2-1.5,0.5-2.3
		s0.8-1.2,1.4-1.7c0.6-0.3,1.2-0.6,1.9-0.6c1.1,0,1.8,0.4,2.6,1.2v-1h1.3v7.4c0,1.3-0.2,2.3-0.5,2.8c-0.3,0.6-0.8,1.1-1.3,1.4
		c-0.6,0.3-1.4,0.4-2.1,0.4c-1,0-1.8-0.3-2.4-0.8C332.7,190.2,332.4,189.5,332.4,188.6z M333.6,183.5c0,1,0.2,1.9,0.6,2.4
		c0.4,0.4,1,0.8,1.6,0.8s1.2-0.3,1.7-0.8c0.4-0.5,0.8-1.4,0.8-2.4c0-1.1-0.3-1.8-0.8-2.4c-0.5-0.6-1.1-0.8-1.7-0.8s-1.2,0.3-1.6,0.8
		C333.8,181.7,333.6,182.4,333.6,183.5z"/>
	<path class="st4" d="M349.2,191.3c-0.8-1-1.5-2.3-2.1-3.6s-0.9-2.7-0.9-4.2c0-1.4,0.2-2.6,0.6-3.6c0.5-1.4,1.2-2.7,2.3-4.1h1
		c-0.6,1.1-1,2-1.3,2.4c-0.3,0.8-0.6,1.5-0.8,2.3c-0.3,1-0.3,1.9-0.3,3c0,2.5,0.8,5.1,2.4,7.8C350.1,191.3,349.2,191.3,349.2,191.3z
		"/>
</g>
<g class="st0">
	<path class="st5" d="M351.6,185.1l1.4-0.1c0.1,0.6,0.3,1.2,0.8,1.3c0.3,0.3,0.8,0.5,1.3,0.5s0.9-0.2,1.2-0.3s0.6-0.4,0.8-0.8
		c0.2-0.3,0.5-0.8,0.6-1.4c0.2-0.6,0.2-1.2,0.2-1.8c0,0,0-0.1,0-0.3c-0.3,0.4-0.8,0.9-1.2,1s-1,0.5-1.6,0.5c-1.1,0-1.8-0.3-2.6-1.1
		s-1-1.6-1-2.9c0-1.2,0.3-2.1,1-2.8s1.7-1.1,2.7-1.1c0.8,0,1.5,0.1,2.1,0.6c0.6,0.4,1,1,1.5,1.8c0.3,0.8,0.4,1.8,0.4,3.3
		s-0.1,2.7-0.4,3.6c-0.3,0.9-0.8,1.5-1.5,2.1c-0.6,0.5-1.4,0.8-2.3,0.8s-1.7-0.3-2.3-0.8C352,186.9,351.8,186,351.6,185.1z
		 M357.6,179.9c0-0.9-0.1-1.5-0.6-2c-0.4-0.4-0.9-0.8-1.7-0.8c-0.6,0-1.2,0.3-1.6,0.8c-0.5,0.5-0.8,1.2-0.8,2.1
		c0,0.8,0.3,1.4,0.8,1.8c0.5,0.4,1,0.8,1.6,0.8s1.2-0.3,1.7-0.8C357.3,181.4,357.6,180.8,357.6,179.9z"/>
	<path class="st5" d="M362.8,181.5c-0.6-0.1-1-0.6-1.3-0.9c-0.3-0.5-0.5-0.9-0.5-1.5c0-0.9,0.3-1.6,0.9-2.1s1.5-0.9,2.4-0.9
		c1,0,1.8,0.3,2.5,0.9s0.9,1.4,0.9,2.3c0,0.6-0.2,1-0.5,1.5s-0.8,0.8-1.3,0.9c0.8,0.3,1.2,0.6,1.6,1.2s0.6,1.2,0.6,1.9
		c0,1.1-0.3,1.8-1.1,2.6s-1.6,1-2.8,1s-2.1-0.3-2.9-1s-1-1.5-1-2.6c0-0.8,0.2-1.3,0.6-1.9C361.5,182,362.1,181.7,362.8,181.5z
		 M362.1,184.5c0,0.5,0.2,0.8,0.3,1.2c0.1,0.4,0.4,0.8,0.9,0.9s0.8,0.3,1.2,0.3c0.8,0,1.2-0.1,1.6-0.6c0.5-0.4,0.8-1,0.8-1.6
		c0-0.8-0.3-1.2-0.8-1.8c-0.5-0.5-1-0.8-1.8-0.8s-1.2,0.1-1.7,0.8C362.3,183.2,362.1,183.8,362.1,184.5z M362.5,179
		c0,0.6,0.1,1,0.6,1.3c0.3,0.3,0.9,0.6,1.3,0.6c0.6,0,1-0.1,1.3-0.6c0.3-0.3,0.6-0.8,0.6-1.3c0-0.6-0.1-1.1-0.6-1.4
		c-0.3-0.3-0.8-0.6-1.3-0.6s-1,0.1-1.3,0.6C362.7,178.1,362.5,178.5,362.5,179z"/>
	<path class="st5" d="M374.7,187.8v-8.5h1.4v1.3c0.3-0.6,0.6-1,0.9-1.2c0.3-0.1,0.6-0.3,0.9-0.3c0.5,0,1,0.2,1.5,0.5l-0.5,1.4
		c-0.3-0.1-0.8-0.3-1-0.3s-0.6,0.2-0.9,0.3s-0.4,0.4-0.6,0.8c-0.2,0.4-0.3,1-0.3,1.6v4.5C376,187.8,374.7,187.8,374.7,187.8z"/>
	<path class="st5" d="M386.1,185.1l1.5,0.1c-0.3,0.9-0.6,1.5-1.3,2.1c-0.6,0.4-1.5,0.8-2.4,0.8c-1.2,0-2.3-0.5-3-1.2s-1-1.8-1-3.3
		s0.3-2.6,1-3.3s1.7-1.2,2.9-1.2s2.1,0.4,2.8,1.2s1.1,1.8,1.1,3.3c0,0.1,0,0.1,0,0.4h-6.3c0,0.9,0.3,1.7,0.8,2.1s1,0.8,1.8,0.8
		c0.6,0,1.1-0.1,1.4-0.4C385.5,186.2,385.8,185.7,386.1,185.1z M381.3,182.7h4.8c0-0.8-0.3-1.2-0.6-1.7c-0.4-0.6-1.1-0.9-1.8-0.9
		c-0.6,0-1.2,0.1-1.6,0.6C381.6,181.2,381.3,182,381.3,182.7z"/>
	<path class="st5" d="M391.8,187.8l-3.3-8.5h1.5l1.8,5.1c0.1,0.6,0.4,1.2,0.6,1.7c0.2-0.5,0.3-1.1,0.6-1.7l1.9-5.3h1.5l-3.3,8.6
		L391.8,187.8L391.8,187.8z"/>
	<path class="st5" d="M397.7,177.8v-1.6h1.5v1.6H397.7z M397.7,187.8v-8.5h1.5v8.5H397.7z"/>
	<path class="st5" d="M407.1,185.1l1.5,0.1c-0.3,0.9-0.6,1.5-1.3,2.1c-0.6,0.4-1.5,0.8-2.4,0.8c-1.2,0-2.3-0.5-3-1.2
		s-1.1-1.8-1.1-3.3s0.3-2.6,1.1-3.3s1.7-1.2,2.9-1.2s2.1,0.4,2.8,1.2s1.1,1.8,1.1,3.3c0,0.1,0,0.1,0,0.4h-6.3c0,0.9,0.3,1.7,0.8,2.1
		s1.1,0.8,1.8,0.8c0.6,0,1.1-0.1,1.4-0.4C406.7,186.2,406.9,185.7,407.1,185.1z M402.3,182.7h4.8c0-0.8-0.3-1.2-0.6-1.7
		c-0.4-0.6-1.1-0.9-1.8-0.9c-0.6,0-1.2,0.1-1.6,0.6C402.6,181.2,402.4,182,402.3,182.7z"/>
	<path class="st5" d="M412.1,187.8l-2.6-8.5h1.5l1.3,4.9l0.4,1.8c0-0.2,0.2-0.8,0.4-1.8l1.4-4.9h1.5l1.3,4.9l0.4,1.6l0.4-1.6
		l1.5-4.9h1.4l-2.7,8.5h-1.5l-1.5-5.1l-0.3-1.5l-1.8,6.6H412.1z"/>
	<path class="st5" d="M421.8,185.3l1.5-0.3c0.1,0.6,0.3,1,0.6,1.3c0.3,0.3,0.9,0.5,1.5,0.5s1.2-0.2,1.5-0.5s0.4-0.6,0.4-0.9
		s-0.1-0.6-0.4-0.8c-0.1-0.1-0.8-0.3-1.5-0.4c-1.1-0.3-1.8-0.5-2.3-0.8c-0.4-0.2-0.8-0.5-0.9-0.8c-0.2-0.3-0.3-0.8-0.3-1.2
		s0.1-0.8,0.3-1c0.1-0.3,0.4-0.6,0.8-0.8c0.3-0.2,0.6-0.3,0.9-0.5c0.4-0.1,0.8-0.1,1.2-0.1c0.6,0,1.2,0.1,1.8,0.3
		c0.4,0.1,0.9,0.5,1.1,0.8c0.3,0.3,0.4,0.8,0.4,1.4l-1.3,0.1c0-0.4-0.3-0.8-0.6-1c-0.3-0.3-0.8-0.3-1.3-0.3c-0.6,0-1.2,0.2-1.4,0.3
		c-0.3,0.1-0.4,0.4-0.4,0.8c0,0.1,0,0.3,0.2,0.4c0.1,0.2,0.3,0.3,0.6,0.5c0.2,0,0.6,0.1,1.4,0.3c1.1,0.3,1.8,0.5,2.1,0.6
		c0.4,0.1,0.8,0.4,0.9,0.8c0.3,0.3,0.3,0.8,0.3,1.2c0,0.5-0.2,0.9-0.4,1.4c-0.3,0.5-0.8,0.8-1.2,1.1c-0.6,0.3-1.2,0.3-1.8,0.3
		c-1.1,0-1.9-0.3-2.6-0.8C422.3,186.9,421.9,186.2,421.8,185.3z"/>
</g>
<g class="st0">
	<path class="st4" d="M431.6,191.3h-1.1c1.6-2.5,2.4-5.1,2.4-7.8c0-1.1-0.1-2-0.3-3c-0.1-0.8-0.4-1.7-0.8-2.3
		c-0.1-0.5-0.6-1.4-1.3-2.4h1.1c1.1,1.4,1.8,2.7,2.3,4.1c0.4,1.2,0.6,2.4,0.6,3.6c0,1.5-0.3,2.8-0.9,4.2
		C432.9,189.2,432.3,190.4,431.6,191.3z"/>
</g>
<path class="st6" d="M7.8,121.1c-8.6,15.8,19,13.8,10,0H7.8z M8.7,122.1h8.1C24,133.2,1.9,134.9,8.7,122.1z"/>
<path class="st6" d="M12,131.7v4.8c-1.5,0.1-3,0.9-4.1,2c3.2,0.2,6.3,0.2,9.5,0.2c-1-1.2-2.5-1.8-4.2-2v-4.9
	C12.7,131.7,12.4,131.7,12,131.7z"/>
<polygon class="st6" points="6,125 19.2,125 19,128 17.1,130.4 14.2,131.6 11.2,131.9 9,131.1 7.2,129.6 6,127.8 "/>
<rect x="136.5" y="86" class="st7" width="207" height="30"/>
<polygon class="st8" points="199.3,173.9 201.2,178.7 206.3,179 202.3,182.3 203.7,187.2 199.3,184.4 195,187.2 196.3,182.3 
	192.3,179 197.4,178.7 "/>
<polygon class="st8" points="216,173.9 218,178.7 223,179 219,182.3 220.3,187.2 216,184.4 211.7,187.2 213,182.3 209.1,179 
	214.2,178.7 "/>
<polygon class="st8" points="233.3,173.9 235.2,178.7 240.3,179 236.3,182.3 237.6,187.2 233.3,184.4 228.9,187.2 230.3,182.3 
	226.3,179 231.5,178.7 "/>
<polygon class="st8" points="249.8,173.9 251.5,178.7 256.8,179 252.8,182.3 254.1,187.2 249.8,184.4 245.4,187.2 246.8,182.3 
	242.7,179 248,178.7 "/>
<polygon class="st9" points="266.3,173.9 268,178.7 273.2,179 269.3,182.3 270.6,187.2 266.3,184.4 261.9,187.2 263.3,182.3 
	259.2,179 264.3,178.7 "/>
<rect x="40.1" y="7.5" class="st10" width="352" height="46.1"/>
<polygon class="st6" points="9.9,23.1 13.2,31.5 18.4,33.9 7.6,40.2 7.6,13.2 0,10.5 0,44.5 7.6,48.9 26.8,37.8 26.8,29.1 "/>
<rect x="348.4" y="10.5" class="st11" width="38" height="37.9"/>
<circle class="st12" cx="371.8" cy="26.1" r="9.5"/>
<line class="st13" x1="366" y1="33.4" x2="355.7" y2="43.3"/>
<g class="st0">
	<path d="M59.4,36.3l1.6,0.2c-0.1,1.2-0.6,2.1-1.4,2.7c-0.8,0.6-1.6,1.1-2.9,1.1c-1.4,0-2.6-0.4-3.3-1.3c-0.9-0.9-1.2-2.3-1.2-3.9
		c0-1.1,0.1-2.1,0.6-2.8c0.5-0.7,0.9-1.5,1.6-1.8c0.8-0.5,1.5-0.6,2.4-0.6c1.1,0,1.9,0.3,2.7,0.9s1.2,1.4,1.4,2.4l-1.6,0.3
		c-0.1-0.8-0.4-1.2-0.9-1.5c-0.4-0.3-0.9-0.4-1.5-0.4c-0.9,0-1.5,0.3-2.1,0.9c-0.6,0.6-0.8,1.7-0.8,3s0.3,2.4,0.8,3s1.2,0.9,2.1,0.9
		c0.6,0,1.2-0.2,1.6-0.6C58.9,37.8,59.2,37.2,59.4,36.3z"/>
	<path d="M62.5,40V26h1.6v5c0.8-0.9,1.8-1.4,3-1.4c0.8,0,1.4,0.2,1.9,0.5c0.6,0.3,0.9,0.8,1.2,1.2c0.3,0.4,0.3,1.3,0.3,2.3V40h-1.6
		v-6.4c0-0.9-0.1-1.5-0.6-1.8c-0.3-0.4-0.9-0.6-1.6-0.6c-0.4,0-1.1,0.2-1.5,0.5c-0.4,0.3-0.8,0.6-0.9,1.1c-0.1,0.4-0.3,1.1-0.3,1.8
		v5.6C64,40,62.5,40,62.5,40z"/>
	<path d="M80.2,36.7l1.8,0.2c-0.3,1.1-0.8,1.8-1.5,2.4c-0.7,0.6-1.6,0.9-2.8,0.9c-1.5,0-2.7-0.4-3.4-1.3c-0.9-0.9-1.4-2.3-1.4-3.9
		s0.4-3,1.4-3.9s1.9-1.4,3.4-1.4c1.4,0,2.4,0.5,3.3,1.4s1.4,2.3,1.4,3.9c0,0.2,0,0.3,0,0.4h-7.5c0,1.1,0.4,1.9,0.9,2.6
		c0.6,0.5,1.1,0.8,2.1,0.8c0.6,0,1.2-0.2,1.6-0.4C79.9,38.2,80.1,37.5,80.2,36.7z M74.7,34h5.7c-0.1-0.9-0.3-1.5-0.6-1.9
		c-0.6-0.6-1.2-1.1-2.1-1.1c-0.8,0-1.5,0.3-1.9,0.8C75,32.4,74.7,33.1,74.7,34z"/>
	<path d="M90.7,38.7c-0.6,0.6-1.2,0.9-1.8,1.2c-0.6,0.2-1.2,0.3-1.9,0.3c-1.1,0-1.9-0.3-2.6-0.8c-0.6-0.6-0.9-1.2-0.9-2.1
		c0-0.4,0.1-0.9,0.3-1.3c0.1-0.4,0.4-0.8,0.9-1.1c0.3-0.3,0.8-0.4,1.2-0.6c0.3-0.2,0.9-0.2,1.5-0.3c1.4-0.2,2.4-0.3,3-0.6
		c0-0.3,0-0.4,0-0.4c0-0.8-0.1-1.2-0.4-1.5c-0.4-0.4-1.1-0.6-1.9-0.6c-0.8,0-1.4,0.1-1.8,0.4s-0.6,0.8-0.9,1.5H84
		c0.1-0.8,0.4-1.3,0.8-1.8c0.3-0.5,0.9-0.8,1.5-1.1c0.6-0.3,1.5-0.3,2.3-0.3c0.9,0,1.5,0.1,2.1,0.3s0.9,0.5,1.2,0.8
		c0.3,0.3,0.4,0.8,0.6,1.2c0,0.3,0.1,0.8,0.1,1.7v2.3c0,1.7,0,2.6,0.1,3c0,0.4,0.1,0.9,0.4,1.2h-1.8C91,39.6,90.9,39.3,90.7,38.7z
		 M90.7,34.9c-0.6,0.3-1.5,0.4-2.9,0.6c-0.8,0.2-1.2,0.2-1.5,0.3c-0.3,0.1-0.4,0.3-0.8,0.6c-0.4,0.3-0.1,0.6-0.1,0.9
		c0,0.4,0.1,0.9,0.4,1.2c0.3,0.3,0.9,0.4,1.5,0.4c0.6,0,1.2-0.2,1.8-0.4s0.9-0.8,1.2-1.2c0.1-0.4,0.3-0.9,0.3-1.7L90.7,34.9
		C90.6,34.9,90.7,34.9,90.7,34.9z"/>
	<path d="M95.1,43.9v-14h1.5v1.4c0.3-0.4,0.8-0.9,1.2-1.2c0.5-0.3,1-0.5,1.6-0.5c0.9,0,1.6,0.1,2.3,0.6c0.6,0.4,1.2,1,1.5,1.9
		c0.3,0.8,0.5,1.7,0.5,2.7c0,1.1-0.1,1.9-0.6,2.8c-0.3,0.9-0.9,1.5-1.6,1.9s-1.5,0.6-2.3,0.6c-0.6,0-1-0.2-1.5-0.3
		c-0.5-0.3-0.9-0.6-1-0.9v4.9L95.1,43.9L95.1,43.9z M96.6,34.9c0,1.3,0.3,2.3,0.8,2.8s1.2,0.9,2,0.9s1.4-0.3,2-0.9
		c0.6-0.6,0.8-1.7,0.8-3s-0.3-2.3-0.8-2.8c-0.6-0.6-1.2-0.9-2-0.9s-1.4,0.3-2,1C96.9,32.7,96.6,33.7,96.6,34.9z"/>
	<path d="M111.3,40V30h1.5v1.5c0.5-0.8,0.8-1.2,1-1.3c0.3-0.3,0.8-0.3,1-0.3c0.6,0,1.2,0.2,1.8,0.6l-0.6,1.6
		c-0.5-0.3-0.9-0.3-1.2-0.3s-0.8,0.1-1,0.3c-0.3,0.2-0.5,0.6-0.6,0.9c-0.1,0.6-0.3,1.3-0.3,1.9v5.3L111.3,40L111.3,40z"/>
	<path d="M124.8,36.7l1.8,0.2c-0.3,1.1-0.8,1.8-1.5,2.4c-0.7,0.6-1.7,0.9-2.9,0.9c-1.5,0-2.7-0.4-3.5-1.3c-0.9-0.9-1.4-2.3-1.4-3.9
		s0.5-3,1.4-3.9c0.9-0.9,2-1.4,3.5-1.4c1.4,0,2.4,0.5,3.3,1.4s1.4,2.3,1.4,3.9c0,0.2,0,0.3,0,0.4h-7.5c0,1.1,0.5,1.9,0.9,2.6
		c0.6,0.6,1.2,0.9,2.1,0.9c0.6,0,1.2-0.2,1.6-0.4S124.5,37.5,124.8,36.7z M119.1,34h5.7c-0.1-0.9-0.3-1.5-0.6-1.9
		c-0.6-0.6-1.2-1.1-2.1-1.1c-0.8,0-1.5,0.3-2,0.8C119.4,32.4,119.1,33.1,119.1,34z"/>
	<path d="M135.3,40v-1.3c-0.6,1.1-1.6,1.5-2.9,1.5c-0.8,0-1.5-0.2-2.3-0.6c-0.8-0.4-1.2-1.1-1.5-1.8c-0.3-0.7-0.6-1.7-0.6-2.7
		c0-1.1,0.1-1.9,0.5-2.7c0.4-0.8,0.9-1.5,1.5-2c0.6-0.4,1.5-0.6,2.3-0.6c0.6,0,1.2,0.1,1.6,0.4c0.5,0.3,0.9,0.6,1.2,1.1v-5h1.6v13.9
		h-1.5L135.3,40L135.3,40z M129.7,34.9c0,1.3,0.3,2.3,0.8,2.8c0.6,0.6,1.2,0.9,2,0.9s1.4-0.3,2-0.9c0.5-0.6,0.8-1.5,0.8-2.8
		c0-1.3-0.3-2.4-0.8-3s-1.2-0.9-2-0.9s-1.4,0.3-2,0.9C130,32.7,129.7,33.6,129.7,34.9z"/>
	<path d="M146.8,40l-3.1-10h1.8l1.7,5.9l0.6,2.1c0-0.2,0.2-0.8,0.5-2.1l1.6-5.8h1.8l1.5,5.8l0.4,1.9l0.6-1.9l1.8-5.8h1.7l-3.2,10
		h-1.8l-1.6-6l-0.5-1.6l-2.1,7.8L146.8,40L146.8,40z"/>
	<path d="M159,28v-2h1.7v2H159z M159,40V30h1.7v10H159z"/>
	<path d="M163.3,40V30h1.5v1.5c0.8-1,1.8-1.7,3.2-1.7c0.6,0,1.2,0.2,1.7,0.3s0.9,0.4,1.2,0.9c0.3,0.3,0.5,0.8,0.6,1.2
		c0,0.3,0.1,0.9,0.1,1.7v6.2H170v-6.2c0-0.8,0-1.2-0.1-1.5c-0.2-0.3-0.3-0.6-0.8-0.9c-0.3-0.1-0.8-0.3-1.2-0.3
		c-0.8,0-1.3,0.3-1.9,0.8c-0.6,0.4-0.8,1.3-0.8,2.7v5.6L163.3,40L163.3,40z"/>
	<path d="M181,36.7l1.8,0.2c-0.3,1.1-0.8,1.8-1.5,2.4s-1.7,0.9-2.8,0.9c-1.5,0-2.7-0.4-3.5-1.3c-0.9-0.9-1.3-2.3-1.3-3.9
		c0-1.6,0.5-3,1.3-3.9c0.9-0.9,2-1.4,3.5-1.4c1.3,0,2.4,0.5,3.3,1.4s1.4,2.3,1.4,3.9c0,0.2,0,0.3,0,0.4h-7.5c0,1.1,0.5,1.9,0.9,2.6
		c0.6,0.6,1.2,0.9,2.1,0.9c0.6,0,1.2-0.2,1.6-0.4C180.7,38.1,180.9,37.5,181,36.7z M175.5,34h5.7c-0.1-0.9-0.3-1.5-0.6-1.9
		c-0.6-0.6-1.2-1.1-2.1-1.1c-0.8,0-1.5,0.3-2,0.8C175.8,32.4,175.5,33.1,175.5,34z"/>
	<path d="M197.1,36.3l1.7,0.2c-0.2,1.2-0.6,2.1-1.3,2.7c-0.7,0.6-1.7,1.1-2.8,1.1c-1.3,0-2.5-0.4-3.3-1.3c-0.9-0.9-1.2-2.3-1.2-3.9
		c0-1.1,0.2-2.1,0.6-2.8c0.5-0.8,0.9-1.5,1.7-1.8c0.8-0.5,1.5-0.6,2.4-0.6c1,0,2,0.3,2.7,0.9c0.7,0.6,1.2,1.4,1.3,2.4l-1.7,0.3
		c-0.2-0.8-0.5-1.2-0.9-1.5c-0.5-0.3-0.9-0.4-1.5-0.4c-0.9,0-1.5,0.3-2.1,0.9c-0.6,0.6-0.8,1.7-0.8,3s0.3,2.4,0.8,3s1.2,0.9,2.1,0.9
		c0.6,0,1.2-0.2,1.7-0.6C196.7,37.8,197,37.2,197.1,36.3z"/>
	<path d="M206.8,38.7c-0.6,0.6-1.2,0.9-1.8,1.2c-0.6,0.2-1.2,0.3-2,0.3c-1,0-1.9-0.3-2.5-0.8c-0.6-0.6-0.9-1.2-0.9-2.1
		c0-0.4,0.2-0.9,0.3-1.3c0.2-0.4,0.5-0.8,0.9-1.1c0.3-0.3,0.8-0.4,1.2-0.6c0.3-0.2,0.9-0.2,1.5-0.3c1.3-0.2,2.4-0.3,3-0.6
		c0-0.3,0-0.4,0-0.4c0-0.8-0.2-1.2-0.5-1.5c-0.4-0.4-1-0.6-1.9-0.6c-0.8,0-1.3,0.1-1.8,0.4c-0.4,0.3-0.6,0.8-0.9,1.5l-1.7-0.3
		c0.2-0.7,0.5-1.3,0.7-1.8c0.3-0.4,0.9-0.8,1.5-1c0.6-0.3,1.5-0.3,2.3-0.3c0.9,0,1.5,0.1,2.1,0.3c0.6,0.1,0.9,0.5,1.2,0.8
		c0.3,0.3,0.4,0.8,0.6,1.2c0,0.3,0.2,0.8,0.2,1.7v2.3c0,1.7,0,2.6,0.2,3c0,0.4,0.2,0.9,0.5,1.2h-1.8C207,39.6,206.8,39.3,206.8,38.7
		z M206.7,34.9c-0.6,0.3-1.5,0.4-2.8,0.6c-0.8,0.2-1.2,0.2-1.5,0.3c-0.3,0.1-0.5,0.3-0.8,0.6c-0.3,0.3-0.3,0.4-0.3,0.8
		c0,0.4,0.1,0.9,0.4,1.2c0.3,0.3,0.9,0.4,1.5,0.4s1.2-0.2,1.8-0.4c0.6-0.3,0.9-0.8,1.2-1.2c0.2-0.4,0.3-0.9,0.3-1.7L206.7,34.9
		L206.7,34.9z"/>
	<path d="M210.3,37l1.7-0.3c0.2,0.8,0.3,1.2,0.8,1.5s1.1,0.6,1.8,0.6c0.7,0,1.3-0.2,1.8-0.4c0.5-0.2,0.6-0.8,0.6-1.2
		s-0.2-0.8-0.4-0.9c-0.3-0.2-0.8-0.3-1.8-0.6c-1.2-0.3-2.1-0.6-2.6-0.8c-0.4-0.3-0.9-0.6-1-0.9c-0.3-0.4-0.5-0.9-0.5-1.3
		c0-0.4,0.2-0.9,0.3-1.2c0.2-0.5,0.4-0.8,0.9-0.9c0.3-0.2,0.6-0.3,1-0.5c0.5-0.1,0.9-0.1,1.5-0.1c0.8,0,1.5,0.1,2.1,0.3
		c0.6,0.3,1,0.6,1.3,0.9c0.3,0.5,0.5,0.9,0.6,1.5l-1.7,0.3c-0.1-0.4-0.3-0.9-0.6-1.2c-0.3-0.3-0.9-0.4-1.5-0.4
		c-0.8,0-1.4,0.1-1.7,0.4c-0.3,0.3-0.4,0.6-0.4,0.9c0,0.2,0,0.4,0.2,0.6c0.2,0.2,0.3,0.3,0.6,0.4c0.2,0,0.8,0.2,1.5,0.4
		c1.2,0.3,2.1,0.6,2.6,0.8c0.4,0.2,0.9,0.4,1.2,0.9c0.3,0.5,0.4,0.9,0.4,1.5c0,0.6-0.1,1.1-0.4,1.7c-0.3,0.4-0.8,0.9-1.5,1.2
		c-0.6,0.3-1.3,0.4-2.1,0.4c-1.3,0-2.3-0.3-3-0.8C211,38.8,210.6,38.1,210.3,37z"/>
	<path d="M227.7,36.7l1.8,0.2c-0.3,1.1-0.8,1.8-1.5,2.4c-0.7,0.6-1.7,0.9-2.9,0.9c-1.5,0-2.7-0.4-3.4-1.3c-0.9-0.9-1.3-2.3-1.3-3.9
		c0-1.6,0.5-3,1.3-3.9c0.8-0.9,1.9-1.4,3.4-1.4c1.4,0,2.4,0.5,3.3,1.4c0.9,0.9,1.3,2.3,1.3,3.9c0,0.2,0,0.3,0,0.4h-7.5
		c0,1.1,0.5,1.9,0.9,2.6c0.6,0.6,1.2,0.9,2.1,0.9c0.6,0,1.2-0.2,1.7-0.4C227.4,38.3,227.4,37.5,227.7,36.7z M222.2,34h5.7
		c-0.2-0.9-0.3-1.5-0.6-1.9c-0.6-0.6-1.2-1.1-2.1-1.1c-0.8,0-1.5,0.3-2,0.8C222.5,32.4,222.2,33.1,222.2,34z"/>
</g>
<polyline class="st14" points="252.8,78 252.8,33.7 237,33.7 "/>
<path d="M252.8,80c1.6-4.6,4-8.9,7.2-12.8l-7.2,2.6l-7.2-2.6C248.7,71.1,251.1,75.3,252.8,80z"/>
</svg>
