<?xml version="1.0" encoding="utf-8"?>
<!-- Generator: Adobe Illustrator 22.1.0, SVG Export Plug-In . SVG Version: 6.00 Build 0)  -->
<svg version="1.1" id="Layer_1" xmlns="http://www.w3.org/2000/svg" xmlns:xlink="http://www.w3.org/1999/xlink" x="0px" y="0px"
	 width="487px" height="154px" viewBox="0 0 487 154" style="enable-background:new 0 0 487 154;" xml:space="preserve">
<style type="text/css">
	.st0{fill:#0012FF;}
	.st1{enable-background:new    ;}
	.st2{fill:#009245;}
	.st3{fill:#999999;}
	.st4{fill:#737373;}
	.st5{fill:#0000FF;}
	.st6{fill:#FF8C00;}
	.st7{fill:#D2D2D2;}
	.st8{fill:none;stroke:#008272;stroke-width:4;stroke-miterlimit:10;}
	.st9{fill:#666666;}
</style>
<title>Asset 14</title>
<g>
	<path class="st0" d="M18.8,9.7l2,0.5c-0.5,1.7-1.2,2.8-2.3,3.6S16.1,15,14.6,15c-1.7,0-2.8-0.3-3.9-0.9c-1-0.6-1.8-1.7-2.3-2.8
		c-0.4-1-0.8-2.4-0.8-3.8c0-1.5,0.3-2.9,0.9-4c0.6-1.2,1.3-2,2.6-2.6C12.3,0.3,13.4,0,14.7,0c1.5,0,2.7,0.3,3.8,1.2s1.7,1.8,2.1,3.1
		l-1.9,0.4c-0.3-1-0.9-1.8-1.5-2.4c-0.6-0.4-1.5-0.8-2.4-0.8c-1.2,0-2.1,0.3-2.8,0.8c-0.8,0.6-1.3,1.4-1.7,2.3S9.9,6.4,9.9,7.5
		c0,1.2,0.1,2.4,0.6,3.3c0.3,0.9,0.9,1.7,1.7,2.1c0.8,0.4,1.6,0.8,2.5,0.8c1.1,0,2-0.3,2.7-0.9C18,11.9,18.5,11,18.8,9.7z"/>
	<path class="st0" d="M22.2,9.5c0-1.9,0.6-3.4,1.7-4.3C24.8,4.4,26,4,27.2,4c1.5,0,2.7,0.5,3.6,1.5c0.9,0.9,1.3,2.3,1.3,4.1
		c0,1.3-0.2,2.4-0.6,3.3c-0.5,0.8-1.1,1.3-1.8,1.8c-0.8,0.5-1.7,0.6-2.6,0.6c-1.5,0-2.7-0.5-3.6-1.5C22.7,12.7,22.2,11.3,22.2,9.5z
		 M24.2,9.5c0,1.3,0.3,2.4,0.9,3s1.3,1.1,2.3,1.1s1.7-0.3,2.3-1.1c0.6-0.6,0.9-1.7,0.9-3s-0.3-2.2-0.9-3s-1.3-1.1-2.3-1.1
		s-1.7,0.3-2.3,1.1S24.2,8.2,24.2,9.5z"/>
	<path class="st0" d="M34.4,14.9V0.2h1.8v5.3c0.9-1,2-1.5,3.2-1.5c0.8,0,1.5,0.1,2.1,0.5c0.6,0.3,1,0.8,1.2,1.4
		c0.3,0.6,0.4,1.3,0.4,2.4v6.8h-1.8V8.4c0-0.9-0.2-1.5-0.6-2c-0.4-0.4-0.9-0.6-1.6-0.6c-0.6,0-1.1,0.2-1.5,0.5c-0.5,0.3-0.9,0.6-1,1
		c-0.2,0.5-0.3,1.2-0.3,2v5.8C36.2,14.9,34.4,14.9,34.4,14.9z"/>
	<path class="st0" d="M45.2,9.5c0-1.9,0.6-3.4,1.7-4.3C47.8,4.4,49,4,50.2,4c1.5,0,2.7,0.5,3.6,1.5c0.9,0.9,1.4,2.3,1.4,4.1
		c0,1.3-0.1,2.4-0.6,3.3c-0.4,0.8-1.1,1.3-1.8,1.8c-0.8,0.5-1.6,0.6-2.6,0.6c-1.5,0-2.7-0.5-3.6-1.5S45.2,11.3,45.2,9.5z M47,9.5
		c0,1.3,0.3,2.4,0.9,3s1.4,1.1,2.3,1.1s1.6-0.3,2.3-1.1s0.9-1.8,0.9-3.1s-0.3-2.3-0.9-3c-0.6-0.8-1.4-1-2.3-1s-1.6,0.3-2.3,1
		C47.2,7.1,47,8.2,47,9.5z"/>
	<path class="st0" d="M65.7,14.9L61.8,0.2h1.9L66,9.8c0.3,1,0.4,1.9,0.6,3c0.4-1.5,0.6-2.6,0.6-2.7l3-9.9h2.4l2.1,7.5
		c0.6,1.8,0.9,3.6,1.2,5.3c0.1-0.9,0.4-2,0.8-3.2l2.2-9.6h1.9l-4,14.7h-1.9L71.8,3.6c-0.3-0.9-0.4-1.5-0.4-1.8
		c-0.2,0.7-0.3,1.3-0.3,1.8L68,14.9C68,14.9,65.7,14.9,65.7,14.9z"/>
	<path class="st0" d="M82.4,2.2v-2h1.8v2.1h-1.8V2.2z M82.4,14.9V4.3h1.8v10.6C84.2,14.9,82.4,14.9,82.4,14.9z"/>
	<path class="st0" d="M87.1,14.9V4.3h1.6v1.5C89.5,4.6,90.5,4,92,4c0.6,0,1.2,0.1,1.8,0.3c0.6,0.3,0.9,0.6,1.2,0.9s0.5,0.8,0.6,1.4
		c0,0.3,0.1,0.9,0.1,1.8V15h-1.8V8.6c0-0.8,0-1.4-0.1-1.7C93.7,6.6,93.4,6.3,93,6c-0.3-0.1-0.8-0.3-1.2-0.3c-0.8,0-1.5,0.3-1.9,0.8
		C89.3,6.9,89,7.8,89,9.3v5.8L87.1,14.9L87.1,14.9z"/>
	<path class="st0" d="M105.8,11.5l1.8,0.3c-0.3,1.1-0.9,2-1.6,2.6c-0.7,0.6-1.8,0.9-3,0.9c-1.5,0-2.9-0.5-3.8-1.5
		c-0.9-0.9-1.4-2.3-1.4-4.1s0.5-3.1,1.4-4.2c0.9-1,2.1-1.5,3.6-1.5s2.5,0.5,3.5,1.5c0.9,0.9,1.4,2.4,1.4,4.1c0,0.2,0,0.3,0,0.5h-8
		c0,1.2,0.5,2.1,1,2.7c0.6,0.6,1.4,0.9,2.3,0.9c0.6,0,1.2-0.2,1.6-0.4C105,12.8,105.5,12.2,105.8,11.5z M99.8,8.5h6
		c-0.1-0.9-0.3-1.5-0.8-1.9c-0.6-0.8-1.4-1.1-2.3-1.1c-0.9,0-1.5,0.3-2.1,0.9C100.3,6.8,100,7.6,99.8,8.5z"/>
	<path class="st0" d="M109.9,14.9V4.3h1.6v1.6c0.5-0.8,0.8-1.2,1.2-1.5c0.3-0.3,0.8-0.3,1.2-0.3c0.6,0,1.2,0.2,1.8,0.6l-0.6,1.5
		c-0.5-0.3-0.9-0.4-1.4-0.4s-0.8,0.1-1,0.3c-0.3,0.3-0.6,0.6-0.6,1c-0.1,0.6-0.3,1.4-0.3,2.1v5.6h-2
		C109.8,14.8,109.8,14.9,109.9,14.9z"/>
	<path class="st0" d="M116.6,19l-0.1-1.7c0.5,0.2,0.8,0.2,1,0.2c0.5,0,0.8,0,0.9-0.2c0.3-0.2,0.5-0.3,0.6-0.6
		c0.1-0.2,0.3-0.6,0.6-1.3c0-0.2,0.1-0.3,0.1-0.5l-4-10.6h2l2.3,6.1c0.3,0.8,0.6,1.7,0.8,2.4c0.1-0.9,0.5-1.7,0.8-2.4l2.3-6.1h1.6
		l-4,10.8c-0.5,1.2-0.8,1.9-1,2.4c-0.3,0.6-0.8,1-1,1.3c-0.5,0.3-0.9,0.5-1.5,0.5C117.5,19.3,117,19.1,116.6,19z"/>
	<path class="st0" d="M132,10.4V8.6h5.5v1.8H132z"/>
	<path class="st0" d="M6.8,17.8v-1.5h131.5v1.5H6.8z"/>
</g>
<g class="st1">
	<path class="st0" d="M138.4,17.8v-1.5h4.5v1.5H138.4z"/>
</g>
<g class="st1">
	<path class="st0" d="M142.9,14.9l5.6-14.7h2.1l6,14.7h-2.3l-1.6-4.5h-6.1l-1.7,4.5C144.9,14.9,142.9,14.9,142.9,14.9z M147,8.8h5
		l-1.5-4.1c-0.5-1.2-0.8-2.3-1-3c-0.2,0.9-0.5,2-0.8,2.9L147,8.8z"/>
	<path class="st0" d="M157.9,14.9V0.2h1.8v14.7C159.7,14.9,157.9,14.9,157.9,14.9z"/>
	<path class="st0" d="M162.5,14.9V0.2h1.8v14.7C164.3,14.9,162.5,14.9,162.5,14.9z"/>
	<path class="st0" d="M172.9,14.9V4.3h1.6v1.6c0.5-0.8,0.8-1.2,1.2-1.5c0.3-0.3,0.8-0.3,1.2-0.3c0.6,0,1.2,0.2,1.8,0.6l-0.8,1.5
		c-0.4-0.3-0.8-0.4-1.3-0.4s-0.8,0.1-1.1,0.3c-0.3,0.3-0.6,0.6-0.6,1c-0.2,0.6-0.3,1.4-0.3,2.1v5.6h-1.8
		C172.9,14.8,172.9,14.9,172.9,14.9z"/>
	<path class="st0" d="M187,11.5l1.8,0.3c-0.3,1.1-0.9,2-1.6,2.6c-0.7,0.6-1.8,0.9-3,0.9c-1.5,0-2.9-0.5-3.8-1.5
		c-0.9-0.9-1.4-2.3-1.4-4.1s0.5-3.1,1.4-4.2c0.9-1,2.1-1.5,3.6-1.5s2.5,0.5,3.5,1.5c0.9,0.9,1.4,2.4,1.4,4.1c0,0.2,0,0.3,0,0.5h-8
		c0,1.2,0.5,2.1,1.1,2.7c0.6,0.6,1.3,0.9,2.3,0.9c0.6,0,1.2-0.2,1.6-0.4C186.4,12.8,186.6,12.2,187,11.5z M181.1,8.5h6
		c-0.2-0.9-0.3-1.5-0.8-1.9c-0.6-0.8-1.4-1.1-2.3-1.1c-0.9,0-1.5,0.3-2.1,0.9C181.4,6.8,181.1,7.6,181.1,8.5z"/>
	<path class="st0" d="M198,14.9v-1.3c-0.8,1.1-1.7,1.7-3,1.7c-0.9,0-1.7-0.3-2.4-0.8c-0.8-0.4-1.2-1-1.7-1.9
		c-0.4-0.9-0.6-1.8-0.6-2.8s0.2-2.1,0.6-2.9c0.3-0.9,0.9-1.5,1.7-1.9c0.8-0.5,1.5-0.8,2.4-0.8c0.6,0,1.2,0.1,1.7,0.4
		s0.9,0.6,1.2,1.1V0.3h1.8V15H198V14.9z M192.3,9.5c0,1.3,0.3,2.4,0.9,3c0.6,0.8,1.2,1.1,2.1,1.1c0.8,0,1.5-0.3,2-0.9
		c0.6-0.6,0.9-1.7,0.9-3c0-1.5-0.3-2.6-0.9-3.2c-0.6-0.8-1.2-1-2.1-1c-0.8,0-1.5,0.3-2,1C192.7,7.1,192.3,8.2,192.3,9.5z"/>
	<path class="st0" d="M210.2,14.9l-3.3-10.6h1.8l1.6,6.1l0.6,2.3c0-0.2,0.1-0.9,0.6-2.3l1.7-6.3h1.8l1.7,6.2l0.6,2.1l0.6-2.1
		l1.8-6.2h1.8l-3.4,10.7h-2l-1.7-6.5L214,6.5l-2,8.3L210.2,14.9L210.2,14.9z"/>
	<path class="st0" d="M223.1,2.2v-2h1.8v2.1h-1.8V2.2z M223.1,14.9V4.3h1.8v10.6C224.9,14.9,223.1,14.9,223.1,14.9z"/>
	<path class="st0" d="M227.8,14.9V4.3h1.7v1.5c0.8-1.2,1.9-1.8,3.4-1.8c0.6,0,1.2,0.1,1.8,0.3c0.6,0.3,0.9,0.6,1.2,0.9
		s0.5,0.8,0.6,1.4c0,0.3,0.1,0.9,0.1,1.8V15h-1.8V8.6c0-0.8,0-1.4-0.2-1.7s-0.4-0.6-0.8-0.9c-0.3-0.1-0.8-0.3-1.2-0.3
		c-0.8,0-1.5,0.3-2,0.8c-0.6,0.5-0.9,1.4-0.9,2.8v5.8L227.8,14.9L227.8,14.9z"/>
	<path class="st0" d="M246.5,11.5l1.8,0.3c-0.3,1.1-0.9,2-1.6,2.6s-1.8,0.9-3,0.9c-1.5,0-2.9-0.5-3.8-1.5c-0.9-0.9-1.4-2.3-1.4-4.1
		s0.5-3.1,1.4-4.2c0.9-1,2.1-1.5,3.6-1.5s2.6,0.5,3.5,1.5c0.9,1.1,1.3,2.4,1.3,4.1c0,0.2,0,0.3,0,0.5h-7.8c0,1.2,0.5,2.1,1,2.7
		c0.6,0.6,1.4,0.9,2.3,0.9c0.6,0,1.2-0.2,1.7-0.4C245.9,12.8,246.2,12.2,246.5,11.5z M240.5,8.5h6c-0.2-0.9-0.3-1.5-0.8-1.9
		c-0.6-0.8-1.3-1.1-2.3-1.1s-1.5,0.3-2.1,0.9C241,6.8,240.7,7.6,240.5,8.5z"/>
	<path class="st0" d="M250,11.8l1.8-0.3c0.2,0.8,0.5,1.2,0.9,1.7c0.4,0.4,1.1,0.6,1.9,0.6c0.9,0,1.5-0.2,1.8-0.5
		c0.4-0.3,0.6-0.8,0.6-1.2c0-0.5-0.2-0.8-0.6-0.9c-0.3-0.2-0.9-0.3-1.8-0.6c-1.3-0.3-2.3-0.6-2.7-0.9s-0.9-0.6-1.2-1.1
		c-0.3-0.4-0.5-0.9-0.5-1.5c0-0.5,0.2-0.9,0.3-1.4c0.2-0.5,0.5-0.8,0.9-1c0.3-0.1,0.6-0.5,1.2-0.6C253,4,253.7,4,254.1,4
		c0.9,0,1.5,0.1,2.3,0.3c0.8,0.2,1.1,0.6,1.3,1c0.3,0.5,0.5,0.9,0.6,1.7l-1.8,0.3c-0.1-0.6-0.3-1-0.8-1.4c-0.4-0.3-0.9-0.5-1.6-0.5
		c-0.9,0-1.4,0.1-1.8,0.5c-0.3,0.3-0.6,0.6-0.6,0.9s0,0.5,0.2,0.6s0.4,0.3,0.8,0.4c0.2,0,0.8,0.2,1.7,0.5c1.3,0.3,2.1,0.6,2.7,0.9
		c0.6,0.3,0.9,0.6,1.2,0.9c0.3,0.5,0.4,0.9,0.4,1.5s-0.1,1.2-0.6,1.7c-0.3,0.6-0.9,0.9-1.5,1.2c-0.6,0.3-1.4,0.4-2.3,0.4
		c-1.4,0-2.4-0.3-3.2-0.9C250.5,13.7,250.1,12.8,250,11.8z"/>
	<path class="st0" d="M266,9.5c0-1.9,0.6-3.4,1.7-4.3c0.9-0.8,2.1-1.2,3.3-1.2c1.5,0,2.7,0.5,3.6,1.5c0.9,0.9,1.4,2.3,1.4,4.1
		c0,1.3-0.2,2.4-0.6,3.3c-0.4,0.8-1,1.3-1.8,1.8c-0.8,0.5-1.7,0.6-2.5,0.6c-1.5,0-2.7-0.4-3.6-1.5C266.5,12.7,266,11.3,266,9.5z
		 M267.8,9.5c0,1.3,0.3,2.4,0.9,3c0.6,0.6,1.3,1.1,2.3,1.1c0.9,0,1.6-0.3,2.3-1.1c0.6-0.8,0.9-1.8,0.9-3.1s-0.3-2.3-0.9-3
		c-0.6-0.7-1.4-1-2.3-1c-0.9,0-1.7,0.3-2.3,1C268.1,7.1,267.8,8.2,267.8,9.5z"/>
	<path class="st0" d="M278,14.9V4.3h1.7v1.5c0.8-1.2,1.9-1.8,3.4-1.8c0.6,0,1.2,0.1,1.8,0.3c0.6,0.3,0.9,0.6,1.2,0.9
		c0.3,0.3,0.5,0.8,0.6,1.4c0,0.3,0.1,0.9,0.1,1.8V15H285V8.6c0-0.8,0-1.4-0.2-1.7c-0.2-0.3-0.4-0.6-0.8-0.9
		c-0.3-0.1-0.8-0.3-1.2-0.3c-0.8,0-1.5,0.3-2,0.8c-0.6,0.5-0.9,1.4-0.9,2.8v5.8L278,14.9L278,14.9z"/>
	<path class="st0" d="M294.5,11.8l1.8-0.3c0.2,0.8,0.5,1.2,0.9,1.7c0.4,0.4,1,0.6,1.9,0.6c0.9,0,1.5-0.2,1.8-0.5
		c0.4-0.3,0.6-0.8,0.6-1.2c0-0.5-0.1-0.8-0.6-0.9c-0.3-0.2-0.9-0.3-1.8-0.6c-1.3-0.3-2.3-0.6-2.7-0.9c-0.5-0.3-0.9-0.6-1.2-1.1
		c-0.3-0.5-0.5-0.9-0.5-1.5c0-0.5,0.2-0.9,0.3-1.4c0.2-0.5,0.4-0.8,0.9-1c0.3-0.1,0.6-0.5,1.2-0.6c0.4-0.1,1-0.1,1.5-0.1
		c0.9,0,1.5,0.1,2.3,0.3s1,0.6,1.3,1c0.3,0.5,0.5,0.9,0.6,1.7L301,7.3c-0.2-0.6-0.3-1-0.8-1.4s-0.9-0.5-1.7-0.5
		c-0.9,0-1.3,0.1-1.8,0.5c-0.3,0.3-0.6,0.6-0.6,0.9s0,0.5,0.2,0.6c0.1,0.1,0.4,0.3,0.8,0.4c0.1,0,0.8,0.2,1.6,0.5
		c1.4,0.3,2.1,0.6,2.7,0.9c0.6,0.3,0.9,0.6,1.2,0.9c0.3,0.5,0.4,0.9,0.4,1.5s-0.2,1.2-0.6,1.7c-0.3,0.6-0.9,0.9-1.5,1.2
		c-0.6,0.3-1.3,0.4-2.3,0.4c-1.3,0-2.4-0.3-3.2-0.9C295.1,13.7,294.7,12.8,294.5,11.8z"/>
	<path class="st0" d="M312.5,13.6c-0.6,0.6-1.3,0.9-2,1.2c-0.6,0.3-1.3,0.3-1.9,0.3c-1.2,0-2.1-0.3-2.7-0.9
		c-0.6-0.6-0.9-1.3-0.9-2.3c0-0.5,0.2-1.1,0.3-1.5c0.3-0.5,0.6-0.8,0.9-1.1c0.5-0.3,0.8-0.4,1.3-0.6c0.3-0.1,0.9-0.1,1.7-0.3
		c1.5-0.1,2.5-0.5,3.3-0.6c0-0.3,0-0.5,0-0.5c0-0.8-0.1-1.2-0.4-1.5c-0.4-0.4-1.2-0.6-2.1-0.6c-0.9,0-1.5,0.2-2,0.5
		c-0.4,0.3-0.8,0.9-0.9,1.6L305.3,7c0.2-0.8,0.4-1.4,0.8-1.8c0.3-0.5,0.9-0.8,1.7-1c0.8-0.3,1.5-0.5,2.4-0.5s1.7,0.1,2.3,0.3
		c0.6,0.2,1.1,0.5,1.2,0.8c0.2,0.3,0.5,0.8,0.6,1.2c0,0.3,0.1,0.9,0.1,1.6V10c0,1.7,0,2.7,0.2,3.1c0.1,0.4,0.3,0.9,0.4,1.3h-1.9
		C312.7,14.5,312.5,14,312.5,13.6z M312.3,9.5c-0.6,0.3-1.7,0.5-3,0.8c-0.8,0.2-1.2,0.3-1.7,0.3c-0.3,0.2-0.6,0.3-0.8,0.6
		c-0.2,0.3-0.3,0.6-0.3,0.9c0,0.4,0.1,0.9,0.6,1.2c0.3,0.3,0.9,0.5,1.7,0.5c0.8,0,1.3-0.2,1.8-0.5c0.6-0.3,0.9-0.8,1.2-1.2
		c0.1-0.5,0.3-1.1,0.3-1.8V9.5H312.3z"/>
	<path class="st0" d="M317,14.9V0.2h1.8v14.7C318.8,14.9,317,14.9,317,14.9z"/>
	<path class="st0" d="M328.8,11.5l1.8,0.3c-0.3,1.1-0.9,2-1.7,2.6c-0.8,0.6-1.8,0.9-3,0.9c-1.5,0-2.8-0.5-3.8-1.5
		c-0.9-0.9-1.3-2.3-1.3-4.1s0.4-3.1,1.3-4.2c0.9-1,2.1-1.5,3.6-1.5s2.5,0.5,3.4,1.5c0.9,1.1,1.3,2.4,1.3,4.1c0,0.2,0,0.3,0,0.5h-8
		c0,1.2,0.5,2.1,1.1,2.7c0.6,0.6,1.3,0.9,2.3,0.9c0.6,0,1.2-0.2,1.7-0.4C328.3,12.8,328.5,12.2,328.8,11.5z M322.8,8.5h6
		c-0.2-0.9-0.3-1.5-0.8-1.9c-0.6-0.8-1.3-1.1-2.3-1.1s-1.5,0.3-2.1,0.9C323.3,6.8,323,7.6,322.8,8.5z"/>
	<path class="st0" d="M334,11.2l-0.6-7.8V0.2h2.3v3.3l-0.4,7.8L334,11.2L334,11.2z M333.5,14.9v-2.1h2.1v2.1H333.5z"/>
	<path class="st0" d="M142.9,17.8v-1.5h194.4v1.5H142.9z"/>
</g>
<g class="st1">
	<path class="st2" d="M36.7,38.2l1.3,0.2c-0.2,1.1-0.6,1.8-1.2,2.3c-0.6,0.6-1.5,0.9-2.4,0.9c-1.2,0-2.1-0.4-2.8-1.2
		c-0.8-0.7-1.1-1.8-1.1-3.3c0-0.9,0.2-1.8,0.4-2.4c0.3-0.6,0.8-1.2,1.4-1.5c0.6-0.3,1.3-0.4,2.1-0.4c0.9,0,1.7,0.3,2.3,0.8
		s0.9,1.2,1.2,1.9l-1.3,0.2c-0.2-0.6-0.3-1.1-0.8-1.3C35.5,34.1,35,34,34.6,34c-0.8,0-1.4,0.3-1.8,0.8S32,36.1,32,37.3
		c0,1.2,0.2,1.9,0.6,2.6c0.5,0.6,1.1,0.7,1.7,0.7s1.1-0.1,1.3-0.4C36.3,39.5,36.7,38.9,36.7,38.2z"/>
	<path class="st2" d="M38.9,37.1c0-1.7,0.4-2.7,1.3-3.4c0.8-0.6,1.7-0.9,2.7-0.9c1.2,0,2.1,0.4,2.9,1.2c0.8,0.8,1,1.8,1,3.2
		c0,1.1-0.2,1.9-0.4,2.6c-0.3,0.6-0.8,1.1-1.5,1.5s-1.3,0.4-2.1,0.4c-1.2,0-2.1-0.4-2.9-1.2C39.2,39.7,38.9,38.5,38.9,37.1z
		 M40.2,37.1c0,1.1,0.3,1.9,0.8,2.4c0.4,0.6,1.1,0.7,1.8,0.7s1.3-0.3,1.8-0.7c0.5-0.6,0.8-1.3,0.8-2.6c0-1.1-0.3-1.8-0.8-2.4
		c-0.5-0.6-1-0.8-1.8-0.8S41.4,34,41,34.5C40.6,35.2,40.2,35.9,40.2,37.1z"/>
	<path class="st2" d="M48.5,41.3V29.5H50v4.2c0.8-0.8,1.5-1.2,2.6-1.2c0.6,0,1.2,0.2,1.6,0.3s0.8,0.6,1.1,1.1
		c0.1,0.4,0.3,1.1,0.3,1.9v5.4h-1.5v-5.4c0-0.8-0.1-1.2-0.4-1.7c-0.3-0.3-0.8-0.4-1.4-0.4c-0.4,0-0.9,0.2-1.2,0.3
		c-0.3,0.1-0.6,0.4-0.8,0.9c-0.2,0.5-0.3,1-0.3,1.8v4.7h-1.5V41.3z"/>
	<path class="st2" d="M57.2,37.1c0-1.7,0.4-2.7,1.4-3.4c0.8-0.6,1.6-0.9,2.7-0.9c1.2,0,2.1,0.4,2.9,1.2c0.8,0.8,1.1,1.8,1.1,3.2
		c0,1.1-0.1,1.9-0.4,2.6c-0.3,0.6-0.8,1.1-1.5,1.5c-0.7,0.4-1.4,0.4-2.1,0.4c-1.2,0-2.1-0.4-2.9-1.2C57.5,39.7,57.2,38.5,57.2,37.1z
		 M58.7,37.1c0,1.1,0.3,1.9,0.8,2.4c0.4,0.6,1.1,0.7,1.8,0.7s1.4-0.3,1.8-0.7c0.4-0.6,0.8-1.3,0.8-2.6c0-1.1-0.3-1.8-0.8-2.4
		c-0.5-0.6-1.1-0.8-1.8-0.8s-1.4,0.3-1.8,0.8C58.9,35.2,58.7,35.9,58.7,37.1z"/>
	<path class="st2" d="M68.4,41.3l-2.5-8.5h1.5l1.4,4.9l0.4,1.8c0-0.2,0.1-0.8,0.4-1.8l1.4-4.9h1.5l1.4,4.9l0.4,1.7l0.4-1.7l1.5-4.9
		h1.4l-2.7,8.6h-1.5L72,36.3l-0.3-1.5l-1.8,6.6h-1.5V41.3z"/>
	<path class="st2" d="M78.8,31.3v-1.7h1.5v1.7H78.8z M78.8,41.3v-8.5h1.5v8.6C80.3,41.3,78.8,41.3,78.8,41.3z"/>
	<path class="st2" d="M82.4,41.3v-8.5h1.4V34c0.6-0.9,1.5-1.3,2.7-1.3c0.4-0.1,1,0.1,1.3,0.2c0.4,0.2,0.8,0.4,0.9,0.8
		c0.1,0.4,0.3,0.6,0.4,1.1c0,0.3,0.1,0.8,0.1,1.3v5.2h-1.4v-5.2c0-0.6,0-1.1-0.1-1.3c-0.1-0.3-0.3-0.4-0.6-0.8
		c-0.3-0.4-0.7-0.3-1.1-0.3c-0.6,0-1.2,0.2-1.6,0.6s-0.6,1.2-0.6,2.3v4.7H82.4L82.4,41.3z"/>
	<path class="st2" d="M97.4,38.6l1.5,0.2c-0.3,0.9-0.6,1.5-1.4,2.1c-0.6,0.4-1.5,0.8-2.4,0.8c-1.2,0-2.3-0.4-3-1.2
		c-0.7-0.8-1.1-1.8-1.1-3.3s0.3-2.6,1.1-3.3c0.8-0.7,1.6-1.2,2.9-1.2s2.1,0.4,2.9,1.2c0.8,0.8,1,1.8,1,3.3c0,0.2,0,0.2,0,0.4h-6.3
		c0,0.9,0.3,1.7,0.8,2.1c0.4,0.4,1.1,0.7,1.8,0.7c0.6,0,1-0.1,1.4-0.4C97,39.7,97.3,39.2,97.4,38.6z M92.6,36.2h4.8
		c0-0.8-0.3-1.2-0.6-1.7c-0.5-0.6-1-0.9-1.8-0.9c-0.6,0-1.2,0.2-1.6,0.6C92.9,34.9,92.8,35.5,92.6,36.2z"/>
	<path class="st2" d="M100.7,41.3v-8.5h1.4v1.3c0.3-0.6,0.6-1.1,0.9-1.2c0.3-0.2,0.6-0.3,0.9-0.3c0.5,0,1,0.2,1.5,0.4l-0.5,1.3
		c-0.3-0.2-0.8-0.3-1-0.3c-0.2,0-0.6,0.2-0.9,0.3s-0.5,0.4-0.6,0.8s-0.3,1.1-0.3,1.7v4.5H100.7z"/>
</g>
<g class="st1">
	<path class="st2" d="M106.1,44.6l-0.1-1.4c0.3,0.2,0.6,0.2,0.9,0.2c0.3,0,0.6,0,0.8-0.2c0.1-0.1,0.3-0.3,0.5-0.4
		c0.1-0.1,0.3-0.4,0.5-1.1c0-0.1,0-0.1,0.1-0.3l-3.3-8.6h1.5l1.8,4.9c0.3,0.6,0.5,1.3,0.6,1.9c0.1-0.6,0.3-1.3,0.6-1.9l1.8-4.9h1.5
		l-3.2,8.6c-0.3,0.9-0.6,1.7-0.8,1.9c-0.3,0.4-0.6,0.9-0.9,1.1c-0.3,0.2-0.8,0.3-1.2,0.3C106.9,44.8,106.4,44.8,106.1,44.6z"/>
</g>
<g class="st1">
	<path class="st2" d="M113.6,41.3v-1.7h1.6v1.7H113.6z"/>
	<path class="st2" d="M123.4,38.2l1.4,0.2c-0.1,1.1-0.6,1.8-1.2,2.3c-0.6,0.6-1.5,0.9-2.4,0.9c-1.2,0-2.1-0.4-2.9-1.2
		c-0.8-0.7-1-1.8-1-3.3c0-0.9,0.1-1.8,0.5-2.4c0.4-0.6,0.8-1.2,1.4-1.5c0.6-0.3,1.4-0.4,2.1-0.4c0.9,0,1.6,0.3,2.3,0.8
		s0.9,1.2,1.2,1.9l-1.4,0.2c-0.1-0.6-0.3-1.1-0.8-1.3c-0.3-0.3-0.8-0.4-1.2-0.4c-0.8,0-1.4,0.3-1.8,0.8s-0.8,1.3-0.8,2.6
		c0,1.2,0.1,1.9,0.6,2.6s1,0.8,1.6,0.8c0.6,0,1-0.2,1.4-0.4C123,39.5,123.2,38.9,123.4,38.2z"/>
	<path class="st2" d="M125.5,37.1c0-1.7,0.5-2.7,1.4-3.4c0.7-0.6,1.6-0.9,2.6-0.9c1.2,0,2.1,0.4,2.9,1.2c0.8,0.8,1,1.8,1,3.2
		c0,1.1-0.1,1.9-0.5,2.6c-0.3,0.6-0.8,1.1-1.5,1.5c-0.7,0.4-1.4,0.4-2.1,0.4c-1.2,0-2.1-0.4-2.9-1.2
		C125.9,39.7,125.5,38.5,125.5,37.1z M127,37.1c0,1.1,0.3,1.9,0.8,2.4c0.5,0.6,1,0.7,1.8,0.7c0.8,0,1.4-0.3,1.8-0.7
		c0.5-0.6,0.8-1.3,0.8-2.6c0-1.1-0.3-1.8-0.8-2.4c-0.5-0.6-1.1-0.7-1.9-0.7s-1.4,0.3-1.8,0.8C127.3,35.2,127,35.9,127,37.1z"/>
	<path class="st2" d="M135.2,41.3v-8.5h1.4V34c0.3-0.4,0.6-0.8,1-1.1c0.5-0.3,0.9-0.4,1.5-0.4c0.6,0,1.2,0.2,1.5,0.4
		c0.3,0.2,0.8,0.6,0.9,1.1c0.8-1.1,1.5-1.5,2.7-1.5c0.9,0,1.5,0.3,2,0.8s0.8,1.2,0.8,2.1v5.8h-1.5v-5.4c0-0.6,0-1.1-0.1-1.2
		c-0.2-0.3-0.3-0.4-0.5-0.6c-0.4-0.2-0.7-0.3-1-0.3c-0.6,0-1,0.2-1.5,0.6s-0.6,1.1-0.6,1.9v4.9h-1.5v-5.6c0-0.6-0.1-1.2-0.3-1.5
		c-0.3-0.3-0.6-0.4-1.2-0.4c-0.5,0-0.8,0.2-1.2,0.3c-0.4,0.1-0.6,0.8-0.8,1.2s-0.3,1.1-0.3,1.8v4.5L135.2,41.3L135.2,41.3
		L135.2,41.3z"/>
	<path class="st2" d="M152.9,37.9v-1.5h4.5v1.5H152.9z"/>
	<path class="st2" d="M163.3,35.6c0-1.9,0.6-3.4,1.6-4.7c1.1-1.1,2.4-1.7,4.1-1.7c1,0,2.1,0.3,3,0.8c0.9,0.4,1.5,1.2,1.9,2.3
		c0.5,0.9,0.8,1.9,0.8,3.2c0,1.2-0.3,2.3-0.8,3.2c-0.4,0.9-1.2,1.6-2.1,2.1s-1.8,0.8-2.8,0.8s-2.1-0.3-3-0.8c-0.9-0.4-1.5-1.2-2-2.2
		S163.3,36.7,163.3,35.6z M164.9,35.6c0,1.3,0.5,2.6,1.2,3.3c0.7,0.7,1.6,1.2,2.8,1.2c1.2,0,2.1-0.4,2.8-1.2
		c0.7-0.8,1.2-1.9,1.2-3.4c0-0.9-0.2-1.8-0.5-2.6c-0.3-0.8-0.8-1.2-1.3-1.7s-1.3-0.6-2.1-0.6c-1.1,0-2.1,0.4-2.9,1.2
		C165.3,32.6,164.9,33.8,164.9,35.6z"/>
</g>
<g class="st1">
	<path class="st2" d="M176.8,41.3V34h-1.4v-1.2h1.4v-0.9c0-0.6,0-1.1,0.1-1.3c0.2-0.3,0.5-0.8,0.8-0.9c0.3-0.2,0.9-0.3,1.5-0.3
		c0.5,0,0.9,0,1.4,0.2l-0.1,1.2c-0.3,0-0.6-0.2-0.9-0.2c-0.5,0-0.8,0.2-0.9,0.3c-0.1,0.2-0.3,0.6-0.3,1.1v0.8h1.6v1h-1.6v7.3h-1.5
		C176.8,41.2,176.8,41.3,176.8,41.3z"/>
</g>
<g class="st1">
	<path class="st2" d="M181,41.3V34h-1.3v-1.2h1.3v-0.9c0-0.6,0-1.1,0.2-1.3c0.1-0.3,0.4-0.8,0.8-0.9c0.3-0.3,0.9-0.3,1.5-0.3
		c0.4,0,0.9,0,1.3,0.2l-0.2,1.2c-0.3,0-0.6-0.2-0.9-0.2c-0.5,0-0.8,0.2-0.9,0.3c-0.2,0.2-0.3,0.6-0.3,1.1v0.8h1.7v1h-1.7v7.3H181
		C181,41.2,181,41.3,181,41.3z"/>
	<path class="st2" d="M185.1,31.3v-1.7h1.5v1.7H185.1z M185.1,41.3v-8.5h1.5v8.6C186.6,41.3,185.1,41.3,185.1,41.3z"/>
	<path class="st2" d="M194.5,38.2l1.3,0.2c-0.2,1.1-0.6,1.8-1.2,2.3c-0.6,0.6-1.5,0.9-2.4,0.9c-1.2,0-2.1-0.4-2.9-1.2
		c-0.8-0.7-1-1.8-1-3.3c0-0.9,0.1-1.8,0.4-2.4c0.3-0.6,0.8-1.2,1.4-1.5s1.3-0.4,2.1-0.4c0.9,0,1.7,0.3,2.3,0.8s0.9,1.2,1.2,1.9
		l-1.3,0.2c-0.2-0.6-0.3-1.1-0.8-1.3c-0.3-0.3-0.8-0.4-1.2-0.4c-0.8,0-1.4,0.3-1.8,0.8c-0.4,0.5-0.8,1.3-0.8,2.6
		c0,1.2,0.2,1.9,0.6,2.6c0.5,0.6,1.1,0.8,1.7,0.8s1-0.2,1.3-0.4C194.2,39.5,194.3,38.9,194.5,38.2z"/>
	<path class="st2" d="M197.2,31.3v-1.7h1.5v1.7H197.2z M197.2,41.3v-8.5h1.5v8.6C198.7,41.3,197.2,41.3,197.2,41.3z"/>
	<path class="st2" d="M206.3,40.3c-0.6,0.4-1,0.8-1.5,0.9c-0.5,0.1-1,0.3-1.7,0.3c-0.9,0-1.7-0.3-2.1-0.8c-0.4-0.5-0.8-1.1-0.8-1.8
		c0-0.4,0.2-0.8,0.3-1.2c0.2-0.3,0.5-0.6,0.8-0.9c0.3-0.2,0.6-0.3,1-0.4c0.3,0,0.8-0.2,1.3-0.2c1.2-0.2,2.1-0.3,2.5-0.4
		c0-0.2,0-0.3,0-0.4c0-0.6-0.2-1.1-0.5-1.2c-0.3-0.3-0.9-0.4-1.7-0.4c-0.8,0-1.2,0.2-1.5,0.3c-0.3,0.1-0.6,0.6-0.8,1.2l-1.3-0.2
		c0.2-0.6,0.3-1.1,0.6-1.5c0.3-0.3,0.8-0.6,1.3-0.9c0.6-0.2,1.2-0.3,2-0.3s1.3,0.2,1.8,0.3c0.5,0.1,0.8,0.4,1,0.6
		c0.2,0.3,0.3,0.6,0.5,1.1c0,0.3,0,0.8,0,1.3v2.1c0,1.3,0,2.2,0.2,2.6c0.2,0.4,0.2,0.8,0.3,1.1h-1.5C206.5,41,206.3,40.7,206.3,40.3
		z M206.2,37.1c-0.6,0.2-1.3,0.4-2.4,0.6c-0.6,0.2-1,0.2-1.2,0.3c-0.3,0.2-0.5,0.3-0.6,0.4c-0.1,0.1-0.2,0.4-0.2,0.8
		c0,0.4,0.2,0.7,0.5,0.9c0.3,0.1,0.8,0.4,1.3,0.4s1-0.2,1.5-0.3c0.5-0.3,0.8-0.6,0.9-1.1c0.2-0.3,0.3-0.8,0.3-1.5L206.2,37.1
		L206.2,37.1z"/>
	<path class="st2" d="M209.9,41.3V29.5h1.5v11.9L209.9,41.3L209.9,41.3z"/>
	<path class="st2" d="M217.5,38.8l1.5-0.3c0.2,0.6,0.3,1.1,0.6,1.3c0.3,0.3,0.9,0.4,1.5,0.4s1.2-0.2,1.5-0.4
		c0.3-0.3,0.4-0.6,0.4-0.9c0-0.3-0.2-0.6-0.4-0.8c-0.2-0.2-0.8-0.3-1.5-0.4c-1.1-0.3-1.8-0.4-2.3-0.8c-0.5-0.2-0.8-0.4-0.9-0.8
		c-0.1-0.3-0.3-0.8-0.3-1.2c0-0.4,0.2-0.8,0.3-1.1c0.2-0.3,0.5-0.6,0.8-0.8c0.2-0.2,0.6-0.3,0.9-0.4s0.8-0.2,1.2-0.2
		c0.6,0,1.2,0.2,1.8,0.3c0.4,0.2,0.9,0.4,1,0.8c0.3,0.3,0.5,0.8,0.5,1.3l-1.4,0.2c0-0.4-0.3-0.8-0.6-1.1c-0.3-0.3-0.8-0.3-1.4-0.3
		c-0.6,0-1.2,0.2-1.3,0.3c-0.3,0.2-0.5,0.4-0.5,0.8c0,0.2,0,0.3,0.2,0.4c0.2,0.2,0.3,0.3,0.6,0.4c0.2,0,0.6,0.2,1.3,0.3
		c1.1,0.3,1.8,0.4,2.1,0.6c0.5,0.2,0.8,0.4,0.9,0.8c0.1,0.4,0.3,0.8,0.3,1.2c0,0.4-0.2,0.9-0.5,1.3c-0.3,0.4-0.8,0.8-1.2,1.1
		s-1.2,0.3-1.8,0.3c-1,0-2-0.3-2.5-0.8C218.2,40.4,217.7,39.7,217.5,38.8z"/>
	<path class="st2" d="M226.4,31.3v-1.7h1.5v1.7H226.4z M226.4,41.3v-8.5h1.5v8.6C227.9,41.3,226.4,41.3,226.4,41.3z"/>
	<path class="st2" d="M233.2,40l0.2,1.4c-0.5,0.1-0.8,0.1-1,0.1c-0.6,0-0.9-0.1-1.2-0.3c-0.3-0.1-0.5-0.4-0.6-0.6
		c-0.1-0.2-0.2-0.9-0.2-1.7V34h-1v-1.2h1v-2.1l1.5-0.9v3h1.5V34h-1.5v4.9c0,0.4,0,0.8,0.2,0.8c0,0.2,0.2,0.2,0.3,0.3
		c0.1,0,0.3,0.2,0.4,0.2C232.7,40.1,233,40.1,233.2,40z"/>
	<path class="st2" d="M240.5,38.6l1.5,0.2c-0.3,0.9-0.6,1.5-1.3,2.1c-0.6,0.4-1.5,0.8-2.4,0.8c-1.2,0-2.3-0.4-3-1.2
		c-0.7-0.8-1-1.8-1-3.3s0.3-2.6,1-3.3s1.7-1.2,2.8-1.2c1.2,0,2.1,0.4,2.8,1.2s1,1.8,1,3.3c0,0.2,0,0.2,0,0.4h-6.3
		c0,0.9,0.3,1.7,0.8,2.1s1,0.7,1.8,0.7c0.6,0,1.1-0.1,1.4-0.4C239.9,39.7,240.2,39.2,240.5,38.6z M235.7,36.2h4.8
		c0-0.8-0.3-1.2-0.6-1.7c-0.4-0.6-1.1-0.9-1.8-0.9c-0.6,0-1.2,0.2-1.6,0.6C236,34.9,235.7,35.5,235.7,36.2z"/>
</g>
<g class="st1">
	<path class="st3" d="M252.7,37.6l1.5-0.2c0,0.6,0.3,1.1,0.4,1.5c0.2,0.4,0.6,0.8,1.2,0.9c0.6,0.1,1.2,0.3,1.8,0.3
		c0.6,0,1.1-0.2,1.7-0.3c0.6-0.2,0.8-0.4,1-0.8c0.2-0.4,0.3-0.6,0.3-1.1c0-0.3-0.1-0.8-0.3-0.9c-0.2-0.3-0.6-0.4-1-0.8
		c-0.3-0.2-1.1-0.3-2.1-0.6c-1-0.3-1.8-0.4-2.3-0.8c-0.6-0.3-1-0.6-1.2-1.1c-0.3-0.4-0.4-0.9-0.4-1.5c0-0.6,0.1-1.2,0.4-1.7
		c0.3-0.4,0.9-0.9,1.5-1.2s1.3-0.4,2.1-0.4c0.9,0,1.7,0.2,2.3,0.4c0.6,0.3,1.2,0.8,1.5,1.2c0.3,0.4,0.6,1.2,0.6,1.8l-1.5,0.5
		c-0.2-0.8-0.3-1.3-0.8-1.7c-0.4-0.4-1.2-0.6-2.1-0.6c-0.9,0-1.7,0.2-2.1,0.4c-0.4,0.3-0.6,0.8-0.6,1.2c0,0.4,0.2,0.8,0.5,1.1
		s1,0.6,2.4,0.9c1.2,0.3,2.1,0.6,2.6,0.8c0.8,0.3,1.2,0.8,1.5,1.2c0.3,0.4,0.4,1.1,0.4,1.7s-0.1,1.2-0.6,1.8
		c-0.3,0.6-0.9,1.1-1.5,1.3c-0.6,0.3-1.5,0.4-2.3,0.4c-1.1,0-2-0.1-2.7-0.4c-0.8-0.3-1.3-0.8-1.7-1.3
		C252.8,39.1,252.7,38.3,252.7,37.6z"/>
	<path class="st3" d="M263.9,31.3v-1.7h1.5v1.7H263.9z M263.9,41.3v-8.5h1.5v8.6C265.4,41.3,263.9,41.3,263.9,41.3z"/>
	<path class="st3" d="M270.8,40l0.2,1.4c-0.5,0.1-0.8,0.1-1.1,0.1c-0.6,0-0.9-0.1-1.2-0.3c-0.3-0.1-0.5-0.4-0.6-0.6
		c-0.1-0.3-0.1-0.9-0.1-1.7V34h-1.1v-1.2h1.1v-2.1l1.5-0.9v3h1.5V34h-1.5v4.9c0,0.4,0,0.8,0.1,0.8c0,0.2,0.2,0.2,0.3,0.3
		c0.2,0,0.3,0.2,0.4,0.2C270.2,40.1,270.5,40.1,270.8,40z"/>
	<path class="st3" d="M278,38.6l1.5,0.2c-0.3,0.9-0.6,1.5-1.3,2.1c-0.6,0.4-1.5,0.8-2.4,0.8c-1.2,0-2.3-0.4-3-1.2
		c-0.7-0.8-1-1.8-1-3.3s0.3-2.6,1-3.3c0.7-0.7,1.7-1.2,2.8-1.2c1.2,0,2.1,0.4,2.8,1.2c0.7,0.8,1,1.8,1,3.3c0,0.2,0,0.2,0,0.4h-6.3
		c0,0.9,0.3,1.7,0.8,2.1s1,0.7,1.8,0.7c0.6,0,1.1-0.1,1.4-0.4C277.4,39.7,277.7,39.2,278,38.6z M273.2,36.2h4.8
		c0-0.8-0.3-1.2-0.6-1.7c-0.4-0.6-1.1-0.9-1.8-0.9c-0.6,0-1.2,0.2-1.6,0.6C273.5,34.9,273.3,35.5,273.2,36.2z"/>
	<path class="st3" d="M285.3,38.8l1.5-0.3c0.2,0.6,0.3,1.1,0.6,1.3c0.3,0.3,0.9,0.4,1.5,0.4c0.6,0,1.2-0.2,1.5-0.4
		c0.3-0.3,0.5-0.6,0.5-0.9c0-0.3-0.2-0.6-0.5-0.8c-0.2-0.2-0.8-0.3-1.5-0.4c-1-0.3-1.8-0.4-2.3-0.8c-0.5-0.2-0.8-0.4-0.9-0.8
		s-0.3-0.8-0.3-1.2c0-0.4,0.2-0.8,0.3-1.1c0.2-0.3,0.4-0.6,0.8-0.8c0.4-0.2,0.6-0.3,0.9-0.4c0.5-0.2,0.8-0.2,1.2-0.2
		c0.6,0,1.2,0.2,1.8,0.3c0.5,0.2,0.9,0.4,1,0.8c0.3,0.3,0.5,0.8,0.5,1.3l-1.3,0.2c0-0.4-0.3-0.8-0.6-1.1c-0.3-0.3-0.8-0.3-1.3-0.3
		s-1.2,0.2-1.3,0.3c-0.3,0.2-0.5,0.4-0.5,0.8c0,0.2,0,0.3,0.2,0.4c0.1,0.2,0.3,0.3,0.6,0.4c0.2,0,0.6,0.2,1.4,0.3
		c1,0.3,1.8,0.4,2.1,0.6c0.5,0.2,0.8,0.4,0.9,0.8c0.3,0.3,0.3,0.8,0.3,1.2c0,0.4-0.2,0.9-0.5,1.3c-0.3,0.4-0.8,0.8-1.2,1.1
		c-0.6,0.3-1.2,0.3-1.8,0.3c-1,0-1.9-0.3-2.5-0.8C285.8,40.4,285.5,39.7,285.3,38.8z"/>
	<path class="st3" d="M299.9,38.6l1.5,0.2c-0.3,0.9-0.6,1.5-1.3,2.1c-0.6,0.4-1.5,0.8-2.4,0.8c-1.2,0-2.3-0.4-3-1.2
		c-0.7-0.8-1.1-1.8-1.1-3.3s0.3-2.6,1.1-3.3c0.8-0.7,1.7-1.2,2.8-1.2c1.2,0,2.1,0.4,2.8,1.2c0.7,0.8,1.1,1.8,1.1,3.3
		c0,0.2,0,0.2,0,0.4h-6.3c0,0.9,0.3,1.7,0.8,2.1c0.4,0.4,1.1,0.7,1.8,0.7c0.6,0,1-0.1,1.3-0.4C299.5,39.7,299.8,39.2,299.9,38.6z
		 M295.3,36.2h4.8c0-0.8-0.3-1.2-0.6-1.7c-0.5-0.6-1.1-0.9-1.8-0.9c-0.6,0-1.2,0.2-1.7,0.6C295.5,34.6,295.3,35.5,295.3,36.2z"/>
	<path class="st3" d="M308.9,38.2l1.3,0.2c-0.2,1.1-0.6,1.8-1.2,2.3c-0.6,0.6-1.5,0.9-2.4,0.9c-1.2,0-2.1-0.4-2.9-1.2
		c-0.8-0.7-1-1.8-1-3.3c0-0.9,0.2-1.8,0.5-2.4c0.3-0.8,0.8-1.2,1.3-1.5c0.6-0.3,1.4-0.4,2.1-0.4c0.9,0,1.6,0.3,2.3,0.8
		c0.6,0.4,0.9,1.2,1.2,1.9l-1.3,0.2c-0.2-0.6-0.3-1.1-0.8-1.3c-0.3-0.3-0.8-0.4-1.2-0.4c-0.8,0-1.3,0.3-1.8,0.8s-0.8,1.3-0.8,2.6
		c0,1.2,0.2,1.9,0.6,2.6c0.4,0.7,1.1,0.8,1.7,0.8c0.6,0,1-0.2,1.3-0.4C308.5,39.5,308.8,38.9,308.9,38.2z"/>
	<path class="st3" d="M317.2,41.3v-1.2c-0.6,0.9-1.5,1.5-2.7,1.5c-0.5,0-0.9-0.2-1.4-0.3c-0.4-0.2-0.8-0.4-0.9-0.8
		c-0.2-0.3-0.3-0.6-0.5-1.1c0-0.3-0.2-0.8-0.2-1.3v-5.2h1.5v4.8c0,0.8,0,1.2,0.2,1.5c0.2,0.4,0.3,0.7,0.6,0.9
		c0.3,0.1,0.6,0.3,1.1,0.3c0.4,0,0.9-0.2,1.2-0.3c0.3-0.2,0.6-0.6,0.8-0.9c0.2-0.4,0.3-0.9,0.3-1.7v-4.4h1.5v8.5h-1.5V41.3
		L317.2,41.3z"/>
	<path class="st3" d="M320.6,41.3v-8.5h1.3v1.3c0.3-0.6,0.6-1.1,0.9-1.2c0.3-0.2,0.6-0.3,0.9-0.3c0.5,0,1,0.2,1.5,0.4l-0.5,1.3
		c-0.3-0.2-0.8-0.3-1-0.3c-0.2,0-0.6,0.2-0.9,0.3s-0.4,0.4-0.6,0.8s-0.3,1.1-0.3,1.7v4.5H320.6z"/>
	<path class="st3" d="M332,38.6l1.5,0.2c-0.3,0.9-0.6,1.5-1.3,2.1c-0.6,0.4-1.5,0.8-2.4,0.8c-1.2,0-2.3-0.4-3-1.2
		c-0.7-0.8-1-1.8-1-3.3s0.3-2.6,1-3.3c0.7-0.7,1.7-1.2,2.8-1.2c1.2,0,2.1,0.4,2.8,1.2c0.7,0.8,1,1.8,1,3.3c0,0.2,0,0.2,0,0.4h-6.3
		c0,0.9,0.3,1.7,0.8,2.1s1,0.7,1.8,0.7c0.6,0,1.1-0.1,1.4-0.4C331.5,39.7,331.8,39.2,332,38.6z M327.2,36.2h4.8
		c0-0.8-0.3-1.2-0.6-1.7c-0.4-0.6-1.1-0.9-1.8-0.9c-0.6,0-1.2,0.2-1.6,0.6C327.5,34.9,327.3,35.5,327.2,36.2z"/>
	<path class="st3" d="M340.8,41.3v-1.1c-0.6,0.9-1.3,1.2-2.4,1.2c-0.8,0-1.4-0.2-2-0.6c-0.6-0.3-1-0.9-1.3-1.5
		c-0.3-0.6-0.5-1.5-0.5-2.3c0-0.9,0.2-1.7,0.5-2.3c0.3-0.8,0.8-1.2,1.3-1.7c0.6-0.3,1.2-0.6,2-0.6c0.5,0,0.9,0.2,1.4,0.3
		c0.4,0.2,0.8,0.4,1,0.9v-4h1.5v11.8L340.8,41.3L340.8,41.3L340.8,41.3z M336.3,37.1c0,1.1,0.3,1.9,0.7,2.4c0.5,0.6,1.1,0.7,1.7,0.7
		s1.2-0.3,1.7-0.7c0.4-0.4,0.6-1.3,0.6-2.4c0-1.2-0.2-2.1-0.8-2.6c-0.5-0.6-1-0.8-1.7-0.8c-0.6,0-1.2,0.3-1.6,0.8
		S336.3,35.9,336.3,37.1z"/>
	<path class="st3" d="M350.5,41.3h-1.4V29.5h1.5v4.2c0.6-0.8,1.4-1.2,2.4-1.2c0.4,0,1,0.2,1.5,0.3c0.4,0.2,0.9,0.4,1.2,0.9
		c0.3,0.4,0.6,0.9,0.8,1.3c0.2,0.6,0.3,1.1,0.3,1.8c0,1.5-0.3,2.6-1.1,3.4c-0.8,0.8-1.6,1.2-2.5,1.2c-1,0-1.8-0.4-2.4-1.2v1.1H350.5
		z M350.3,37c0,1.1,0.2,1.8,0.5,2.3c0.5,0.7,1,1.1,1.8,1.1c0.6,0,1.2-0.3,1.7-0.7c0.5-0.6,0.8-1.3,0.8-2.4s-0.2-1.9-0.6-2.4
		s-1-0.8-1.6-0.8s-1.2,0.3-1.7,0.8S350.3,35.9,350.3,37z"/>
	<path class="st3" d="M358.1,44.6l-0.1-1.4c0.3,0.2,0.6,0.2,0.9,0.2s0.6,0,0.8-0.2c0.2-0.1,0.3-0.3,0.5-0.4s0.3-0.4,0.5-1.1
		c0-0.1,0-0.1,0.2-0.3l-3.3-8.6h1.5l1.8,4.9c0.3,0.6,0.4,1.3,0.6,1.9c0.2-0.6,0.3-1.3,0.6-1.9l1.8-4.9h1.5l-3.3,8.7
		c-0.3,0.9-0.6,1.7-0.8,1.9c-0.3,0.4-0.6,0.9-0.9,1.1s-0.8,0.3-1.2,0.3S358.5,44.8,358.1,44.6z"/>
	<path class="st3" d="M371.2,41.3V29.5h1.6l6.1,9.3v-9.3h1.5v11.9h-1.6l-6.1-9.3v9.3C372.7,41.3,371.2,41.3,371.2,41.3z"/>
	<path class="st3" d="M382.4,37.1c0-1.7,0.4-2.7,1.3-3.4c0.8-0.6,1.7-0.9,2.7-0.9c1.2,0,2.1,0.4,2.9,1.2c0.8,0.8,1,1.8,1,3.2
		c0,1.1-0.1,1.9-0.4,2.6c-0.3,0.6-0.8,1.1-1.5,1.5s-1.4,0.4-2.1,0.4c-1.2,0-2.1-0.4-2.9-1.2C382.7,39.7,382.4,38.5,382.4,37.1z
		 M383.9,37.1c0,1.1,0.3,1.9,0.8,2.4c0.4,0.6,1,0.7,1.8,0.7s1.4-0.3,1.8-0.7c0.4-0.6,0.8-1.3,0.8-2.6c0-1.1-0.3-1.8-0.8-2.4
		c-0.5-0.6-1.1-0.8-1.8-0.8s-1.3,0.3-1.8,0.8C384.1,35.2,383.9,35.9,383.9,37.1z"/>
	<path class="st3" d="M392,41.3v-8.5h1.3v1.3c0.3-0.6,0.6-1.1,0.9-1.2c0.3-0.2,0.6-0.3,0.9-0.3c0.4,0,1,0.2,1.5,0.4l-0.5,1.3
		c-0.3-0.2-0.8-0.3-1-0.3c-0.3,0-0.6,0.2-0.9,0.3s-0.4,0.4-0.6,0.8s-0.3,1.1-0.3,1.7v4.5H392z"/>
	<path class="st3" d="M400.7,40l0.1,1.4c-0.4,0.1-0.8,0.1-1,0.1c-0.6,0-0.9-0.1-1.2-0.3c-0.3-0.1-0.4-0.4-0.6-0.6
		c-0.2-0.3-0.2-0.9-0.2-1.7V34h-1v-1.2h1v-2.1l1.5-0.9v3h1.5V34h-1.5v4.9c0,0.4,0,0.8,0.2,0.8c0,0.2,0.2,0.2,0.3,0.3
		c0.1,0,0.3,0.2,0.4,0.2C400.3,40.1,400.4,40.1,400.7,40z"/>
	<path class="st3" d="M401.6,37.1c0-1.7,0.5-2.7,1.4-3.4c0.8-0.6,1.6-0.9,2.7-0.9c1.2,0,2.1,0.4,2.8,1.2c0.7,0.8,1.1,1.8,1.1,3.2
		c0,1.1-0.2,1.9-0.5,2.6c-0.3,0.6-0.8,1.1-1.5,1.5s-1.3,0.4-2.1,0.4c-1.2,0-2.1-0.4-2.8-1.2C401.9,39.7,401.6,38.5,401.6,37.1z
		 M403.1,37.1c0,1.1,0.3,1.9,0.8,2.4c0.5,0.6,1.1,0.7,1.8,0.7s1.3-0.3,1.8-0.7c0.5-0.6,0.8-1.3,0.8-2.6c0-1.1-0.3-1.8-0.8-2.4
		c-0.4-0.6-1-0.8-1.8-0.8s-1.4,0.3-1.8,0.8C403.3,35.2,403.1,35.9,403.1,37.1z"/>
	<path class="st3" d="M411.3,41.3v-8.5h1.4V34c0.6-0.9,1.5-1.3,2.7-1.3c0.4,0,1.1,0.2,1.3,0.3c0.5,0.2,0.8,0.4,0.9,0.8
		s0.3,0.6,0.4,1.1c0,0.3,0.1,0.8,0.1,1.3v5.2h-1.5v-5.2c0-0.6,0-1.1-0.1-1.3c-0.1-0.3-0.3-0.4-0.6-0.8c-0.3-0.3-0.6-0.3-1-0.3
		c-0.6,0-1.2,0.2-1.7,0.6c-0.4,0.4-0.6,1.2-0.6,2.3v4.7L411.3,41.3L411.3,41.3z"/>
</g>
<g class="st1">
	<path d="M6.7,67.7l4.5-11.9h1.7l4.8,11.9h-1.8l-1.3-3.6H9.8l-1.3,3.6H6.7z M10.1,62.9h4.1L13,59.6c-0.4-0.9-0.8-1.8-0.9-2.4
		c-0.2,0.8-0.3,1.5-0.6,2.3L10.1,62.9z"/>
	<path d="M18.8,67.7V55.9h1.5v11.9L18.8,67.7L18.8,67.7z"/>
	<path d="M22.4,67.7V55.9h1.5v11.9L22.4,67.7L22.4,67.7z"/>
	<path d="M30.7,67.7v-8.6H32v1.4c0.3-0.6,0.6-1,0.9-1.2c0.3-0.1,0.6-0.3,0.9-0.3c0.4,0,1,0.1,1.5,0.5l-0.5,1.4
		c-0.3-0.1-0.8-0.3-1-0.3c-0.3,0-0.6,0.1-0.9,0.3c-0.3,0.2-0.5,0.4-0.6,0.8c-0.2,0.4-0.3,1-0.3,1.6v4.5h-1.3
		C30.7,67.8,30.7,67.7,30.7,67.7z"/>
	<path d="M42.1,65l1.5,0.1c-0.3,0.9-0.6,1.5-1.4,2.1c-0.6,0.5-1.5,0.8-2.4,0.8c-1.2,0-2.3-0.4-3-1.2s-1.1-1.8-1.1-3.3
		c0-1.5,0.3-2.5,1.1-3.3s1.6-1.2,2.8-1.2s2.1,0.5,2.8,1.2s1.1,1.8,1.1,3.3c0,0.1,0,0.1,0,0.5h-6.3c0,0.9,0.3,1.6,0.8,2.1
		c0.4,0.4,1.1,0.8,1.8,0.8c0.6,0,1-0.1,1.3-0.5C41.4,66.1,41.7,65.6,42.1,65z M37.2,62.8H42c0-0.8-0.3-1.2-0.6-1.6
		c-0.5-0.6-1-0.9-1.8-0.9c-0.6,0-1.2,0.1-1.7,0.6C37.6,61.4,37.4,62,37.2,62.8z"/>
	<path d="M50.9,67.7v-1.1c-0.6,0.9-1.4,1.2-2.4,1.2c-0.8,0-1.4-0.1-1.9-0.6c-0.6-0.3-1.1-0.9-1.4-1.5c-0.3-0.6-0.4-1.5-0.4-2.3
		c0-0.9,0.1-1.6,0.4-2.3c0.3-0.8,0.8-1.2,1.4-1.6c0.6-0.3,1.2-0.6,1.9-0.6c0.4,0,0.9,0.1,1.4,0.3s0.8,0.5,1.1,0.9v-4.2h1.5v11.7
		L50.9,67.7L50.9,67.7z M46.2,63.5c0,1.1,0.3,2,0.8,2.4c0.4,0.6,1.1,0.8,1.6,0.8c0.6,0,1.2-0.3,1.6-0.8c0.4-0.4,0.6-1.4,0.6-2.4
		c0-1.2-0.1-2.1-0.8-2.5c-0.6-0.5-0.9-0.8-1.6-0.8c-0.6,0-1.2,0.3-1.7,0.8C46.6,61.6,46.2,62.5,46.2,63.5z"/>
	<path d="M60.6,67.7L58,59.1h1.5l1.4,5l0.4,1.8c0-0.1,0.1-0.8,0.4-1.8l1.4-5h1.5l1.4,5l0.5,1.7l0.4-1.6l1.5-5h1.4l-2.7,8.6h-1.5
		l-1.4-5.1l-0.3-1.5l-1.8,6.6L60.6,67.7L60.6,67.7z"/>
	<path d="M71,57.7v-1.6h1.5v1.6H71z M71,67.7v-8.6h1.5v8.6H71z"/>
	<path d="M74.6,67.7v-8.6H76v1.2c0.6-0.9,1.5-1.4,2.7-1.4c0.4,0,1.1,0.1,1.4,0.3c0.4,0.3,0.7,0.6,0.8,0.9s0.3,0.6,0.4,1.1
		c0,0.3,0.1,0.8,0.1,1.4v5.3h-1.5v-5.3c0-0.6,0-1.1-0.1-1.4c-0.1-0.3-0.3-0.5-0.6-0.8c-0.3-0.3-0.6-0.3-1.1-0.3
		c-0.6,0-1.2,0.1-1.6,0.6s-0.6,1.2-0.6,2.3v4.8L74.6,67.7L74.6,67.7z"/>
	<path d="M89.6,65l1.5,0.1c-0.3,0.9-0.6,1.5-1.4,2.1c-0.6,0.5-1.5,0.8-2.4,0.8c-1.2,0-2.3-0.4-3-1.2c-0.7-0.8-1.1-1.8-1.1-3.3
		c0-1.5,0.3-2.5,1.1-3.3c0.8-0.8,1.6-1.2,2.9-1.2c1.2,0,2.1,0.5,2.9,1.2c0.8,0.7,1.1,1.8,1.1,3.3c0,0.1,0,0.1,0,0.5h-6.4
		c0,0.9,0.3,1.6,0.8,2.1c0.4,0.4,1,0.7,1.8,0.7c0.6,0,1.1-0.1,1.4-0.5C89.1,66.1,89.4,65.6,89.6,65z M84.9,62.8h4.8
		c0-0.8-0.3-1.2-0.6-1.6c-0.4-0.6-1.1-0.9-1.8-0.9c-0.6,0-1.2,0.1-1.6,0.6C85.3,61.4,84.9,62,84.9,62.8z"/>
	<path d="M92.4,65.3l1.5-0.3c0.1,0.6,0.3,1.1,0.6,1.4c0.3,0.3,0.9,0.5,1.5,0.5s1.2-0.1,1.5-0.5c0.3-0.3,0.5-0.6,0.5-0.9
		s-0.1-0.6-0.5-0.8c-0.1-0.1-0.8-0.3-1.5-0.4c-1.1-0.3-1.8-0.5-2.3-0.8c-0.4-0.1-0.8-0.5-0.9-0.8c-0.1-0.3-0.3-0.8-0.3-1.2
		s0.1-0.8,0.3-1c0.1-0.3,0.4-0.6,0.8-0.8c0.1-0.1,0.6-0.3,0.9-0.5s0.8-0.1,1.2-0.1c0.6,0,1.2,0.1,1.8,0.3c0.5,0.1,0.9,0.4,1,0.8
		c0.3,0.3,0.5,0.8,0.5,1.4l-1.3,0.1c0-0.5-0.3-0.8-0.6-1.1c-0.3-0.3-0.6-0.4-1.2-0.4s-1.2,0.1-1.4,0.3c-0.3,0.1-0.4,0.5-0.4,0.8
		c0,0.1,0,0.3,0.1,0.5c0.1,0.2,0.3,0.3,0.6,0.4c0.1,0,0.6,0.1,1.3,0.3c1,0.3,1.8,0.4,2.1,0.6c0.5,0.1,0.8,0.4,0.9,0.8
		c0.1,0.3,0.3,0.9,0.3,1.5c0,0.4-0.1,0.9-0.5,1.4c-0.3,0.4-0.8,0.8-1.2,1c-0.5,0.3-1.2,0.3-1.8,0.3c-1.1,0-1.9-0.3-2.6-0.8
		C92.9,66.8,92.6,66.2,92.4,65.3z"/>
	<path d="M105.2,63.5c0-1.6,0.5-2.7,1.4-3.4c0.8-0.6,1.6-0.9,2.7-0.9c1.2,0,2.1,0.4,2.9,1.2c0.8,0.8,1,1.8,1,3.1
		c0,1.1-0.1,2-0.5,2.6c-0.3,0.6-0.8,1-1.5,1.5c-0.8,0.4-1.4,0.4-2.1,0.4c-1.2,0-2.1-0.4-2.9-1.2C105.6,66.1,105.2,65,105.2,63.5z
		 M106.7,63.5c0,1.1,0.3,2,0.8,2.4c0.5,0.6,1,0.8,1.8,0.8c0.8,0,1.4-0.3,1.8-0.8c0.5-0.6,0.8-1.4,0.8-2.5s-0.3-1.8-0.8-2.4
		c-0.4-0.5-1-0.8-1.8-0.8c-0.8,0-1.4,0.3-1.8,0.8C107,61.6,106.7,62.5,106.7,63.5z"/>
	<path d="M115,67.7v-8.6h1.4v1.2c0.6-0.9,1.5-1.4,2.7-1.4c0.5,0,1,0.1,1.4,0.3c0.5,0.1,0.8,0.5,0.9,0.8c0.1,0.3,0.3,0.6,0.5,1.1
		c0,0.3,0.1,0.8,0.1,1.4v5.3h-1.5v-5.3c0-0.6,0-1.1-0.1-1.4c-0.1-0.3-0.3-0.5-0.6-0.8s-0.6-0.3-1-0.3c-0.6,0-1.2,0.1-1.6,0.6
		c-0.5,0.5-0.6,1.2-0.6,2.3v4.8C116.6,67.7,115,67.7,115,67.7z"/>
	<path d="M128.1,65.3l1.5-0.3c0.1,0.6,0.3,1.1,0.6,1.4c0.3,0.3,0.9,0.5,1.5,0.5s1.2-0.1,1.5-0.5c0.3-0.3,0.5-0.6,0.5-0.9
		s-0.1-0.6-0.5-0.8c-0.1-0.1-0.8-0.3-1.5-0.4c-1-0.3-1.8-0.5-2.3-0.8c-0.5-0.1-0.8-0.5-0.9-0.8s-0.3-0.8-0.3-1.2s0.1-0.8,0.3-1
		c0.1-0.3,0.5-0.6,0.8-0.8c0.1-0.1,0.6-0.3,0.9-0.5s0.8-0.1,1.2-0.1c0.6,0,1.2,0.1,1.8,0.3c0.5,0.1,0.9,0.4,1,0.8
		c0.3,0.3,0.5,0.8,0.5,1.4l-1.4,0.1c0-0.5-0.3-0.8-0.6-1.1s-0.6-0.4-1.2-0.4s-1.2,0.1-1.4,0.3c-0.3,0.1-0.5,0.5-0.5,0.8
		c0,0.1,0,0.3,0.1,0.5c0.1,0.2,0.3,0.3,0.6,0.4c0.1,0,0.6,0.1,1.4,0.3c1,0.3,1.8,0.4,2.1,0.6c0.5,0.1,0.8,0.4,0.9,0.8
		c0.1,0.3,0.3,0.8,0.3,1.2c0,0.5-0.1,0.9-0.5,1.4c-0.3,0.5-0.8,0.8-1.2,1.1c-0.5,0.3-1.2,0.3-1.8,0.3c-1,0-2-0.3-2.5-0.8
		C128.6,66.8,128.3,66.2,128.1,65.3z"/>
	<path d="M142.4,66.7c-0.6,0.5-1,0.8-1.5,0.9c-0.5,0.1-1,0.3-1.6,0.3c-0.9,0-1.6-0.3-2.1-0.8s-0.8-1.1-0.8-1.8
		c0-0.4,0.1-0.8,0.3-1.2c0.1-0.3,0.5-0.6,0.8-0.9c0.3-0.1,0.6-0.3,1-0.5c0.3,0,0.8-0.1,1.4-0.1c1.2-0.1,2.1-0.3,2.5-0.4
		c0-0.1,0-0.3,0-0.5c0-0.6-0.1-1-0.5-1.2c-0.3-0.3-0.9-0.5-1.6-0.5s-1.2,0.1-1.5,0.3s-0.6,0.6-0.8,1.2l-1.3,0.1
		c0.1-0.6,0.3-1.1,0.6-1.5c0.3-0.3,0.8-0.6,1.4-0.9c0.6-0.1,1.2-0.3,2-0.3c0.8,0,1.4,0.1,1.8,0.3c0.5,0.1,0.8,0.4,1,0.6
		c0.1,0.3,0.3,0.6,0.5,1c0,0.3,0,0.8,0,1.4v2c0,1.4,0,2.3,0.1,2.5c0.1,0.3,0.1,0.8,0.3,1.1h-1.5C142.5,67.4,142.5,67.1,142.4,66.7z
		 M142.4,63.5c-0.6,0.1-1.4,0.5-2.4,0.6c-0.6,0.1-1,0.1-1.2,0.3c-0.3,0.1-0.5,0.3-0.6,0.4c-0.1,0.1-0.1,0.5-0.1,0.8
		c0,0.5,0.1,0.8,0.5,0.9c0.4,0.1,0.8,0.5,1.4,0.5s1-0.1,1.5-0.3c0.5-0.3,0.8-0.6,0.9-1c0.1-0.3,0.3-0.8,0.3-1.5L142.4,63.5
		L142.4,63.5z"/>
	<path d="M146,67.7V55.9h1.5v11.9L146,67.7L146,67.7z"/>
	<path d="M155.6,65l1.5,0.1c-0.3,0.9-0.6,1.5-1.4,2.1c-0.6,0.5-1.5,0.8-2.4,0.8c-1.2,0-2.3-0.4-3-1.2c-0.7-0.8-1.1-1.8-1.1-3.3
		c0-1.5,0.3-2.5,1.1-3.3c0.8-0.8,1.6-1.2,2.8-1.2c1.2,0,2.1,0.5,2.8,1.2c0.7,0.7,1.1,1.8,1.1,3.3c0,0.1,0,0.1,0,0.5h-6.3
		c0,0.9,0.3,1.6,0.8,2.1c0.5,0.4,1.1,0.8,1.8,0.8c0.6,0,1-0.1,1.3-0.5C155,66.1,155.3,65.6,155.6,65z M150.8,62.8h4.8
		c0-0.8-0.3-1.2-0.6-1.6c-0.4-0.6-1-0.9-1.8-0.9c-0.6,0-1.2,0.1-1.7,0.6C151.1,61.4,150.8,62,150.8,62.8z"/>
	<path d="M159.6,64.9l-0.4-6.3v-2.5h1.8v2.5l-0.5,6.3H159.6z M159.2,67.7v-1.5h1.7v1.5H159.2z"/>
	<path d="M168.4,67.7V55.9h7.9v1.4h-6.4v3.5h5.5v1.4h-5.5v5.5H168.4z"/>
	<path d="M178.1,67.7v-8.6h1.4v1.4c0.3-0.6,0.6-1,0.9-1.2c0.3-0.1,0.6-0.3,0.9-0.3c0.5,0,1,0.1,1.5,0.5l-0.5,1.4
		c-0.3-0.1-0.8-0.3-1-0.3s-0.6,0.1-0.9,0.3c-0.3,0.2-0.5,0.4-0.6,0.8c-0.1,0.4-0.3,1-0.3,1.6v4.5h-1.4V67.7z"/>
	<path d="M189.4,65l1.5,0.1c-0.3,0.9-0.6,1.5-1.4,2.1c-0.6,0.5-1.5,0.8-2.4,0.8c-1.2,0-2.3-0.4-3-1.2c-0.7-0.8-1.1-1.8-1.1-3.3
		c0-1.5,0.3-2.5,1.1-3.3c0.8-0.8,1.6-1.2,2.8-1.2c1.2,0,2.1,0.5,2.8,1.2c0.7,0.7,1.1,1.8,1.1,3.3c0,0.1,0,0.1,0,0.5h-6.3
		c0,0.9,0.3,1.6,0.8,2.1c0.5,0.4,1.1,0.8,1.8,0.8c0.6,0,1-0.1,1.3-0.5C188.9,66.1,189.2,65.6,189.4,65z M184.7,62.8h4.8
		c0-0.8-0.3-1.2-0.6-1.6c-0.4-0.6-1-0.9-1.8-0.9c-0.6,0-1.2,0.1-1.7,0.6C185,61.4,184.7,62,184.7,62.8z"/>
	<path d="M198.7,65l1.5,0.1c-0.3,0.9-0.6,1.5-1.3,2.1c-0.6,0.5-1.5,0.8-2.4,0.8c-1.2,0-2.3-0.4-3-1.2c-0.7-0.8-1-1.8-1-3.3
		c0-1.5,0.3-2.5,1-3.3c0.7-0.8,1.7-1.2,2.8-1.2c1.2,0,2.1,0.5,2.8,1.2c0.7,0.7,1,1.8,1,3.3c0,0.1,0,0.1,0,0.5h-6.3
		c0,0.9,0.3,1.6,0.8,2.1c0.5,0.4,1,0.8,1.8,0.8c0.6,0,1-0.1,1.3-0.5C198,66.1,198.3,65.6,198.7,65z M193.8,62.8h4.8
		c0-0.8-0.3-1.2-0.6-1.6c-0.5-0.6-1-0.9-1.8-0.9c-0.6,0-1.2,0.1-1.7,0.6C194.2,61.4,193.8,62,193.8,62.8z"/>
	<path d="M206.2,68.5l1.3,0.1c0,0.4,0.2,0.8,0.5,0.9c0.3,0.3,0.9,0.4,1.5,0.4s1.2-0.1,1.5-0.4s0.6-0.6,0.8-1.2
		c0-0.3,0.1-0.9,0.1-1.8c-0.6,0.8-1.3,1-2.4,1c-1.2,0-2.1-0.4-2.7-1.2c-0.6-0.9-0.9-1.8-0.9-3c0-0.8,0.2-1.5,0.5-2.3
		c0.3-0.8,0.8-1.2,1.3-1.6c0.6-0.5,1.2-0.6,2-0.6c1.1,0,1.8,0.4,2.6,1.2v-1h1.3v7.4c0,1.4-0.1,2.3-0.4,2.9c-0.3,0.6-0.8,1-1.3,1.4
		c-0.6,0.3-1.3,0.4-2.1,0.4c-1.1,0-1.8-0.3-2.4-0.8C206.5,70.1,206.2,69.4,206.2,68.5z M207.3,63.4c0,1,0.2,1.9,0.6,2.4
		c0.5,0.4,1,0.8,1.7,0.8c0.6,0,1.2-0.3,1.7-0.8s0.8-1.4,0.8-2.4c0-1.1-0.3-1.8-0.8-2.4c-0.5-0.6-1-0.8-1.7-0.8
		c-0.6,0-1.2,0.3-1.7,0.8C207.5,61.4,207.3,62.3,207.3,63.4z"/>
	<path d="M215.6,57.7v-1.6h1.5v1.6H215.6z M215.6,67.7v-8.6h1.5v8.6H215.6z"/>
	<path d="M219.7,67.7v-7.4h-1.3v-1.2h1.3v-0.9c0-0.6,0-1,0.2-1.4c0.2-0.3,0.5-0.8,0.8-0.9c0.3-0.3,0.9-0.3,1.5-0.3
		c0.5,0,0.9,0,1.3,0.1l-0.2,1.2c-0.3,0-0.6-0.1-0.9-0.1c-0.4,0-0.8,0.1-0.9,0.3c-0.2,0.1-0.3,0.6-0.3,1v0.8h1.6v1.2H221v7.5h-1.3
		L219.7,67.7L219.7,67.7z"/>
	<path d="M227,66.5l0.2,1.4c-0.4,0.1-0.8,0.1-1.1,0.1c-0.6,0-0.9-0.1-1.2-0.3c-0.3-0.1-0.4-0.5-0.6-0.6c-0.1-0.2-0.2-0.9-0.2-1.6v-5
		H223v-1.2h1.1v-2.1l1.5-0.9v3h1.5v1.2h-1.5v5c0,0.4,0,0.8,0.2,0.8c0,0.1,0.2,0.1,0.3,0.3c0.2,0,0.3,0.1,0.5,0.1
		C226.5,66.5,226.7,66.5,227,66.5z"/>
	<path d="M234.7,67.7l-2.6-8.6h1.5l1.4,5l0.4,1.8c0-0.1,0.2-0.8,0.4-1.8l1.4-5h1.5l1.3,5l0.5,1.7l0.5-1.6l1.5-5h1.3l-2.7,8.6h-1.5
		l-1.3-5.1l-0.3-1.5l-1.8,6.6L234.7,67.7L234.7,67.7z"/>
	<path d="M244.8,57.7v-1.6h1.5v1.6H244.8z M244.8,67.7v-8.6h1.5v8.6H244.8z"/>
	<path d="M251.8,66.5l0.2,1.4c-0.4,0.1-0.8,0.1-1.1,0.1c-0.6,0-0.9-0.1-1.2-0.3c-0.3-0.1-0.4-0.5-0.6-0.6c-0.2-0.3-0.2-0.9-0.2-1.6
		v-5h-1.1v-1.2h1.1v-2.1l1.5-0.9v3h1.5v1.2h-1.5v5c0,0.4,0,0.8,0.2,0.8c0,0.1,0.2,0.1,0.3,0.3c0.2,0,0.3,0.1,0.5,0.1
		C251.3,66.5,251.5,66.5,251.8,66.5z"/>
	<path d="M253.1,67.7V55.9h1.5v4.4c0.8-0.8,1.5-1.2,2.6-1.2c0.6,0,1.2,0.1,1.6,0.3c0.5,0.3,0.8,0.6,1.1,1c0.3,0.5,0.3,1.1,0.3,2v5.4
		h-1.5v-5.4c0-0.8-0.2-1.2-0.5-1.6c-0.3-0.3-0.8-0.5-1.3-0.5c-0.4,0-0.9,0.1-1.2,0.3s-0.6,0.4-0.8,0.9c-0.2,0.4-0.3,0.9-0.3,1.6v4.6
		C254.6,67.7,253.1,67.7,253.1,67.7z"/>
	<path d="M266.9,71V59.2h1.3v1.1c0.3-0.5,0.6-0.8,1-1.1c0.5-0.1,0.9-0.3,1.4-0.3c0.8,0,1.3,0.1,1.9,0.6c0.6,0.3,1.1,0.9,1.2,1.6
		c0.3,0.8,0.5,1.5,0.5,2.3c0,0.9-0.2,1.6-0.5,2.4c-0.3,0.8-0.8,1.2-1.3,1.6c-0.6,0.3-1.2,0.6-2,0.6c-0.5,0-0.9-0.1-1.3-0.3
		c-0.4-0.2-0.8-0.4-0.9-0.8v4.2L266.9,71L266.9,71z M268.3,63.5c0,1.1,0.2,2,0.6,2.4c0.4,0.6,1.1,0.8,1.7,0.8s1.2-0.3,1.7-0.8
		c0.4-0.6,0.8-1.4,0.8-2.5s-0.2-2-0.6-2.4c-0.5-0.6-1-0.8-1.7-0.8c-0.6,0-1.2,0.3-1.7,0.9C268.4,61.6,268.3,62.5,268.3,63.5z"/>
	<path d="M281.6,67.7v-1.2c-0.6,0.9-1.5,1.5-2.7,1.5c-0.5,0-0.9-0.1-1.4-0.3c-0.4-0.1-0.8-0.5-0.9-0.8c-0.2-0.3-0.3-0.6-0.5-1.1
		c0-0.3-0.2-0.8-0.2-1.4v-5.3h1.5v4.8c0,0.8,0,1.2,0.2,1.5c0.2,0.4,0.3,0.8,0.6,0.9c0.3,0.1,0.6,0.3,1.1,0.3c0.4,0,0.9-0.1,1.2-0.3
		s0.6-0.6,0.8-0.9c0.2-0.5,0.3-0.9,0.3-1.6v-4.5h1.5v8.3L281.6,67.7L281.6,67.7z"/>
	<path d="M285.2,67.7v-8.6h1.3v1.4c0.3-0.6,0.6-1,0.9-1.2c0.3-0.1,0.6-0.3,0.9-0.3c0.5,0,1.1,0.1,1.5,0.5l-0.4,1.4
		c-0.3-0.1-0.8-0.3-1.1-0.3s-0.6,0.1-0.9,0.3c-0.3,0.2-0.5,0.4-0.6,0.8c-0.1,0.4-0.3,1-0.3,1.6v4.5h-1.3L285.2,67.7L285.2,67.7z"/>
	<path d="M296.3,64.7l1.4,0.1c-0.2,1-0.6,1.8-1.2,2.3c-0.6,0.6-1.5,0.9-2.4,0.9c-1.2,0-2.1-0.5-2.8-1.2c-0.7-0.7-1-1.8-1-3.3
		c0-0.9,0.1-1.8,0.4-2.4c0.3-0.8,0.8-1.2,1.3-1.5c0.6-0.3,1.3-0.5,2.1-0.5c0.9,0,1.7,0.3,2.3,0.8c0.6,0.5,0.9,1.2,1.2,2l-1.3,0.1
		c-0.2-0.6-0.3-1.1-0.8-1.4c-0.3-0.3-0.8-0.5-1.2-0.5c-0.8,0-1.3,0.3-1.8,0.8s-0.8,1.4-0.8,2.6c0,1.2,0.1,1.9,0.6,2.5
		s1.1,0.8,1.7,0.8c0.6,0,1-0.1,1.3-0.4C295.8,65.9,296.2,65.3,296.3,64.7z"/>
	<path d="M298.8,67.7V55.9h1.5v4.4c0.8-0.8,1.5-1.2,2.6-1.2c0.6,0,1.2,0.1,1.6,0.3c0.5,0.3,0.8,0.6,1.1,1c0.3,0.5,0.3,1.1,0.3,2v5.4
		h-1.5v-5.4c0-0.8-0.2-1.2-0.5-1.6c-0.3-0.3-0.8-0.5-1.3-0.5c-0.4,0-0.9,0.1-1.2,0.3s-0.6,0.4-0.8,0.9c-0.2,0.4-0.3,0.9-0.3,1.6v4.6
		C300.3,67.7,298.8,67.7,298.8,67.7z"/>
	<path d="M313.7,66.7c-0.6,0.5-1.1,0.8-1.5,0.9c-0.5,0.1-1.1,0.3-1.7,0.3c-0.9,0-1.6-0.3-2.1-0.8c-0.4-0.5-0.8-1.1-0.8-1.8
		c0-0.4,0.1-0.8,0.3-1.2c0.2-0.3,0.5-0.6,0.8-0.9c0.3-0.1,0.6-0.3,1-0.5c0.3,0,0.8-0.1,1.4-0.1c1.2-0.1,2.1-0.3,2.5-0.4
		c0-0.1,0-0.3,0-0.5c0-0.6-0.2-1-0.5-1.2c-0.3-0.3-0.9-0.5-1.6-0.5s-1.2,0.1-1.5,0.3c-0.3,0.3-0.6,0.6-0.8,1.2l-1.4-0.1
		c0.2-0.6,0.3-1,0.6-1.5c0.3-0.3,0.8-0.6,1.3-0.9c0.6-0.1,1.2-0.3,2-0.3c0.8,0,1.3,0.1,1.8,0.3c0.5,0.1,0.8,0.5,1.1,0.6
		c0.2,0.3,0.3,0.6,0.4,1.1c0,0.3,0,0.8,0,1.4V64c0,1.4,0,2.3,0.2,2.6c0.1,0.3,0.1,0.8,0.3,1H314C313.8,67.4,313.7,67.1,313.7,66.7z
		 M313.5,63.5c-0.6,0.1-1.3,0.5-2.4,0.6c-0.6,0.1-1.1,0.1-1.2,0.3c-0.2,0.2-0.5,0.3-0.6,0.4c-0.2,0.1-0.2,0.5-0.2,0.8
		c0,0.5,0.2,0.8,0.5,0.9c0.3,0.3,0.8,0.5,1.3,0.5c0.6,0,1.1-0.1,1.5-0.3c0.5-0.3,0.8-0.6,0.9-1c0.1-0.3,0.3-0.8,0.3-1.5L313.5,63.5
		L313.5,63.5z"/>
	<path d="M316.7,65.3l1.5-0.3c0.1,0.6,0.3,1.1,0.6,1.4c0.3,0.3,0.9,0.5,1.5,0.5c0.6,0,1.2-0.1,1.5-0.5c0.3-0.3,0.5-0.6,0.5-0.9
		s-0.2-0.6-0.5-0.8c-0.1-0.1-0.8-0.3-1.5-0.4c-1-0.3-1.8-0.5-2.3-0.8c-0.4-0.1-0.8-0.5-0.9-0.8c-0.2-0.3-0.3-0.8-0.3-1.2
		s0.2-0.8,0.3-1c0.1-0.3,0.4-0.6,0.8-0.8c0.1-0.1,0.6-0.3,0.9-0.5c0.5-0.1,0.8-0.1,1.2-0.1c0.6,0,1.2,0.1,1.8,0.3
		c0.5,0.1,0.9,0.4,1.1,0.8c0.1,0.3,0.4,0.8,0.4,1.4l-1.3,0.1c0-0.5-0.3-0.8-0.6-1.1s-0.8-0.3-1.3-0.3c-0.6,0-1.2,0.1-1.4,0.3
		c-0.3,0.1-0.4,0.5-0.4,0.8c0,0.1,0,0.3,0.2,0.5s0.3,0.3,0.6,0.4c0.2,0,0.6,0.1,1.3,0.3c1,0.3,1.8,0.4,2.1,0.6
		c0.3,0.2,0.8,0.4,0.9,0.8c0.3,0.3,0.3,0.8,0.3,1.2c0,0.5-0.1,0.9-0.4,1.4c-0.3,0.5-0.8,0.8-1.2,1.1c-0.6,0.3-1.2,0.3-1.8,0.3
		c-1.1,0-1.9-0.3-2.6-0.8C317.2,66.8,316.8,66.2,316.7,65.3z"/>
	<path d="M331.3,65l1.5,0.1c-0.3,0.9-0.6,1.5-1.3,2.1c-0.6,0.5-1.5,0.8-2.4,0.8c-1.2,0-2.3-0.4-3-1.2s-1-1.8-1-3.3
		c0-1.5,0.3-2.5,1-3.3s1.7-1.2,2.8-1.2c1.2,0,2.1,0.5,2.8,1.2s1,1.8,1,3.3c0,0.1,0,0.1,0,0.5h-6.3c0,0.9,0.3,1.6,0.8,2.1
		c0.5,0.4,1,0.8,1.8,0.8c0.6,0,1.1-0.1,1.4-0.5C330.8,66.1,331.1,65.6,331.3,65z M326.6,62.8h4.8c0-0.8-0.3-1.2-0.6-1.6
		c-0.4-0.6-1-0.9-1.8-0.9c-0.6,0-1.2,0.1-1.7,0.6S326.6,62,326.6,62.8z"/>
	<path d="M335,67.7v-1.5h1.7v1.5H335z"/>
</g>
<g class="st1">
	<path class="st4" d="M13.4,91.1l1.3,0.1c-0.2,1.1-0.6,1.8-1.2,2.3c-0.6,0.6-1.5,0.9-2.4,0.9c-1.2,0-2.1-0.5-2.9-1.2
		c-0.8-0.8-1-1.8-1-3.3c0-0.9,0.2-1.8,0.4-2.4C7.9,86.9,8.4,86.3,9,86c0.6-0.3,1.3-0.5,2.1-0.5c0.9,0,1.7,0.3,2.3,0.8
		c0.6,0.5,0.9,1.2,1.2,1.9l-1.3,0.2c-0.2-0.6-0.3-1.1-0.8-1.4c-0.3-0.3-0.8-0.5-1.2-0.5c-0.8,0-1.4,0.3-1.8,0.8s-0.8,1.4-0.8,2.6
		s0.2,1.9,0.6,2.5c0.5,0.6,1.2,0.8,2,0.8c0.6,0,1-0.1,1.3-0.4C13.1,92.3,13.2,91.9,13.4,91.1z"/>
	<path class="st4" d="M15.5,89.9c0-1.7,0.4-2.7,1.3-3.5c0.8-0.6,1.7-0.9,2.7-0.9c1.2,0,2.1,0.4,2.8,1.2s1,1.8,1,3.2
		c0,1-0.1,1.9-0.4,2.5c-0.3,0.6-0.8,1-1.5,1.5s-1.4,0.5-2.1,0.5c-1.2,0-2.1-0.5-2.8-1.2C15.9,92.5,15.5,91.4,15.5,89.9z M17,89.9
		c0,1,0.3,1.9,0.8,2.4c0.5,0.6,1,0.8,1.8,0.8s1.3-0.3,1.8-0.8c0.5-0.6,0.8-1.3,0.8-2.6c0-1-0.3-1.8-0.8-2.4c-0.5-0.6-1-0.8-1.8-0.8
		s-1.3,0.3-1.8,0.8C17.3,88.1,17,88.9,17,89.9z"/>
	<path class="st4" d="M25.2,94.3V82.4h1.5v4.2c0.8-0.8,1.5-1.2,2.6-1.2c0.6,0,1.2,0.1,1.6,0.3c0.5,0.3,0.8,0.6,1.1,1.1
		c0.1,0.4,0.3,1,0.3,2v5.4h-1.5v-5.4c0-0.8-0.2-1.2-0.4-1.6c-0.3-0.3-0.8-0.5-1.3-0.5s-0.9,0.1-1.2,0.3s-0.6,0.4-0.8,0.9
		c-0.2,0.4-0.3,0.9-0.3,1.6v4.7L25.2,94.3L25.2,94.3z"/>
	<path class="st4" d="M33.8,89.9c0-1.7,0.4-2.7,1.3-3.5c0.8-0.6,1.7-0.9,2.7-0.9c1.2,0,2.1,0.4,2.8,1.2s1.1,1.8,1.1,3.2
		c0,1-0.2,1.9-0.4,2.5c-0.3,0.6-0.8,1-1.5,1.5s-1.4,0.5-2.1,0.5c-1.2,0-2.1-0.5-2.8-1.2C34.2,92.5,33.8,91.4,33.8,89.9z M35.3,89.9
		c0,1,0.3,1.9,0.8,2.4c0.4,0.6,1,0.8,1.8,0.8s1.3-0.3,1.8-0.8c0.5-0.6,0.8-1.3,0.8-2.6c0-1-0.3-1.8-0.8-2.4c-0.4-0.6-1-0.8-1.8-0.8
		s-1.3,0.3-1.8,0.8C35.6,88.1,35.3,88.9,35.3,89.9z"/>
	<path class="st4" d="M45.1,94.3l-2.6-8.5H44l1.3,5l0.5,1.8c0-0.1,0.1-0.8,0.4-1.8l1.4-5h1.5l1.4,5l0.4,1.6l0.4-1.6l1.5-5h1.4
		l-2.7,8.5H50l-1.4-5.1l-0.3-1.5l-1.8,6.6H45.1z"/>
	<path class="st4" d="M55.4,84.1v-1.6h1.5v1.6H55.4z M55.4,94.3v-8.5h1.5v8.5H55.4z"/>
	<path class="st4" d="M59.1,94.3v-8.5h1.4V87c0.6-0.9,1.5-1.4,2.7-1.4c0.4,0,1.1,0.1,1.4,0.3c0.4,0.1,0.8,0.4,0.9,0.8
		c0.1,0.3,0.3,0.6,0.4,1c0,0.3,0.1,0.8,0.1,1.4v5.2h-1.5V89c0-0.6,0-1-0.1-1.3s-0.3-0.5-0.6-0.8c-0.3-0.3-0.6-0.3-1.1-0.3
		c-0.6,0-1.2,0.1-1.6,0.6s-0.6,1.2-0.6,2.3v4.7L59.1,94.3L59.1,94.3z"/>
	<path class="st4" d="M74.1,91.4l1.5,0.1c-0.3,0.9-0.6,1.5-1.4,2.1c-0.6,0.5-1.5,0.8-2.4,0.8c-1.2,0-2.3-0.5-3-1.2
		c-0.8-0.8-1.1-1.8-1.1-3.3s0.3-2.6,1.1-3.3c0.8-0.7,1.6-1.2,2.9-1.2c1.2,0,2.1,0.4,2.9,1.2s1.1,1.8,1.1,3.3c0,0.1,0,0.1,0,0.4h-6.3
		c0,0.9,0.3,1.7,0.8,2.1c0.4,0.4,1.1,0.8,1.8,0.8c0.6,0,1.1-0.2,1.4-0.5C73.6,92.5,73.9,92.2,74.1,91.4z M69.4,89.2h4.8
		c0-0.8-0.3-1.2-0.6-1.7c-0.4-0.6-1.1-0.9-1.8-0.9c-0.6,0-1.2,0.1-1.6,0.6C69.6,87.8,69.4,88.4,69.4,89.2z"/>
	<path class="st4" d="M77.4,94.3v-8.5h1.4v1.4c0.3-0.6,0.6-1.1,0.9-1.2c0.3-0.1,0.6-0.3,0.9-0.3c0.4,0,1.1,0.1,1.5,0.4l-0.6,1.3
		c-0.3-0.1-0.8-0.3-1.1-0.3c-0.3,0-0.6,0.1-0.9,0.3c-0.3,0.2-0.4,0.4-0.6,0.8c-0.1,0.4-0.3,1.1-0.3,1.6v4.5H77.4z"/>
</g>
<g class="st1">
	<path class="st4" d="M82.9,97.6l-0.2-1.4c0.3,0.2,0.6,0.2,0.9,0.2c0.3,0,0.6,0,0.8-0.2c0.1-0.1,0.2-0.3,0.4-0.4
		c0.1-0.1,0.3-0.5,0.4-1c0-0.1,0-0.1,0.1-0.3L82,85.8h1.5l1.8,5c0.3,0.6,0.4,1.3,0.6,1.9c0.1-0.6,0.3-1.4,0.6-1.9l1.8-5h1.5
		l-3.3,8.7c-0.3,0.9-0.6,1.7-0.8,2c-0.3,0.5-0.6,0.9-0.9,1c-0.3,0.2-0.8,0.3-1.2,0.3C83.4,97.7,83.1,97.7,82.9,97.6z"/>
</g>
<g class="st1">
	<path class="st4" d="M90.4,94.3v-1.6H92v1.6H90.4z"/>
	<path class="st4" d="M100.1,91.1l1.4,0.1c-0.1,1.1-0.6,1.8-1.2,2.3c-0.6,0.6-1.5,0.9-2.4,0.9c-1.2,0-2.1-0.5-2.9-1.2
		c-0.8-0.8-1.1-1.8-1.1-3.3c0-0.9,0.1-1.8,0.4-2.4c0.3-0.6,0.8-1.2,1.4-1.5c0.6-0.3,1.4-0.5,2.1-0.5c0.9,0,1.6,0.3,2.3,0.8
		c0.6,0.5,0.9,1.2,1.2,1.9l-1.4,0.2c-0.1-0.6-0.3-1.1-0.8-1.4c-0.3-0.3-0.8-0.5-1.2-0.5c-0.8,0-1.4,0.3-1.8,0.8s-0.6,1.4-0.6,2.6
		s0.1,1.9,0.6,2.6c0.5,0.6,1,0.8,1.6,0.8c0.6,0,1-0.2,1.4-0.5C99.6,92.3,100,91.9,100.1,91.1z"/>
	<path class="st4" d="M102.2,89.9c0-1.7,0.5-2.7,1.4-3.5c0.8-0.6,1.6-0.9,2.7-0.9c1.2,0,2.1,0.4,2.9,1.2c0.8,0.8,1,1.8,1,3.2
		c0,1-0.1,1.9-0.5,2.5c-0.3,0.6-0.8,1-1.5,1.5c-0.7,0.5-1.4,0.5-2.1,0.5c-1.2,0-2.1-0.5-2.9-1.2C102.4,92.5,102.2,91.4,102.2,89.9z
		 M103.7,89.9c0,1,0.3,1.9,0.8,2.4c0.5,0.6,1,0.8,1.8,0.8c0.8,0,1.4-0.3,1.8-0.8c0.5-0.6,0.8-1.3,0.8-2.6c0-1-0.3-1.8-0.8-2.4
		c-0.5-0.6-1-0.8-1.8-0.8c-0.8,0-1.4,0.3-1.8,0.8C103.9,88.1,103.7,88.9,103.7,89.9z"/>
	<path class="st4" d="M112,94.3v-8.5h1.4V87c0.3-0.4,0.6-0.8,1-1c0.5-0.3,0.9-0.5,1.5-0.5s1.2,0.1,1.5,0.5c0.5,0.3,0.8,0.6,0.9,1
		c0.8-1,1.5-1.5,2.7-1.5c0.9,0,1.5,0.3,2,0.8s0.8,1.2,0.8,2.1v5.8h-1.5v-5.4c0-0.6,0-1-0.1-1.2c-0.1-0.3-0.3-0.4-0.5-0.6
		c-0.3-0.1-0.6-0.3-0.9-0.3c-0.6,0-1,0.1-1.5,0.6c-0.5,0.4-0.6,1-0.6,2v4.9h-1.5v-5.4c0-0.6-0.1-1.2-0.3-1.5
		c-0.4-0.4-0.7-0.5-1.3-0.5c-0.5,0-0.8,0.1-1.2,0.3c-0.5,0.2-0.6,0.6-0.8,0.9c-0.1,0.3-0.3,1.1-0.3,1.8v4.5H112z"/>
	<path class="st4" d="M130.3,84.1v-1.6h1.5v1.6H130.3z M130.3,94.3v-8.5h1.5v8.5H130.3z"/>
	<path class="st4" d="M133.3,91.7l1.5-0.3c0.1,0.6,0.3,1,0.6,1.3c0.3,0.3,0.9,0.4,1.5,0.4c0.6,0,1.2-0.1,1.5-0.4
		c0.3-0.3,0.5-0.6,0.5-0.9s-0.1-0.6-0.5-0.8c-0.1-0.2-0.8-0.3-1.5-0.5c-1-0.3-1.8-0.4-2.3-0.8c-0.5-0.1-0.8-0.4-0.9-0.8
		c-0.1-0.3-0.3-0.8-0.3-1.2s0.1-0.8,0.3-1c0.1-0.3,0.5-0.6,0.8-0.8c0.1-0.1,0.6-0.3,0.9-0.5c0.5-0.1,0.8-0.1,1.2-0.1
		c0.6,0,1.2,0.1,1.8,0.3c0.5,0.1,0.9,0.4,1,0.8c0.3,0.3,0.5,0.8,0.5,1.4l-1.4,0.3c0-0.5-0.3-0.8-0.6-1.1c-0.3-0.2-0.8-0.2-1.4-0.2
		s-1.2,0.1-1.4,0.3c-0.3,0.1-0.5,0.5-0.5,0.8c0,0.2,0,0.3,0.1,0.4c0.1,0.2,0.3,0.3,0.6,0.5c0.1,0,0.6,0.1,1.4,0.3
		c1,0.3,1.8,0.5,2.1,0.6c0.5,0.1,0.8,0.4,0.9,0.8c0.1,0.4,0.3,0.8,0.3,1.2s-0.1,0.9-0.5,1.4c-0.3,0.4-0.8,0.8-1.2,1
		c-0.4,0.2-1.2,0.3-1.8,0.3c-1,0-2-0.3-2.5-0.8C133.9,93.2,133.4,92.6,133.3,91.7z"/>
	<path class="st4" d="M146.6,94.3v-8.5h1.3v1.4c0.3-0.6,0.6-1.1,0.9-1.2c0.3-0.1,0.6-0.3,0.9-0.3c0.5,0,1,0.1,1.5,0.4l-0.5,1.4
		c-0.3-0.1-0.8-0.3-1-0.3c-0.2,0-0.6,0.1-0.9,0.3c-0.3,0.2-0.5,0.5-0.6,0.8c-0.1,0.4-0.3,1-0.3,1.6v4.5h-1.3V94.3z"/>
	<path class="st4" d="M157.7,93.2c-0.6,0.5-1,0.8-1.5,0.9c-0.5,0.1-1,0.3-1.7,0.3c-0.9,0-1.6-0.3-2.1-0.8s-0.8-1.1-0.8-1.8
		c0-0.4,0.2-0.8,0.3-1.2c0.1-0.3,0.5-0.6,0.8-0.9c0.3-0.1,0.6-0.3,1-0.4c0.3,0,0.8-0.1,1.3-0.1c1.2-0.2,2.1-0.3,2.6-0.5
		c0-0.1,0-0.3,0-0.4c0-0.6-0.2-1-0.5-1.2c-0.3-0.3-0.9-0.5-1.6-0.5c-0.7,0-1.2,0.1-1.5,0.3c-0.3,0.2-0.6,0.6-0.8,1.2l-1.4-0.2
		c0.2-0.6,0.3-1,0.6-1.5c0.3-0.3,0.8-0.6,1.4-0.9c0.6-0.1,1.2-0.3,1.9-0.3c0.7,0,1.4,0.1,1.8,0.3c0.4,0.1,0.8,0.5,1,0.6
		c0.2,0.3,0.3,0.6,0.5,1.1c0,0.3,0,0.8,0,1.3v2c0,1.3,0,2.3,0.1,2.5s0.1,0.8,0.3,1h-1.5C157.9,94,157.7,93.5,157.7,93.2z
		 M157.5,89.9c-0.6,0.1-1.3,0.4-2.4,0.6c-0.6,0.2-1,0.2-1.2,0.3c-0.3,0.1-0.5,0.3-0.6,0.4c-0.1,0.2-0.1,0.4-0.1,0.8
		c0,0.4,0.1,0.8,0.4,0.9c0.3,0.1,0.8,0.4,1.4,0.4c0.6,0,1-0.2,1.5-0.3c0.5-0.3,0.8-0.6,0.9-1.1c0.2-0.3,0.3-0.8,0.3-1.5L157.5,89.9
		L157.5,89.9z"/>
	<path class="st4" d="M164.5,92.9l0.2,1.3c-0.5,0.2-0.8,0.2-1.1,0.2c-0.6,0-0.9-0.2-1.2-0.3c-0.3-0.2-0.5-0.5-0.6-0.6
		c-0.1-0.1-0.1-0.9-0.1-1.6v-5h-1.1v-1.2h1.1v-2.1l1.5-0.9v3h1.5v1h-1.5v4.9c0,0.5,0,0.8,0.1,0.8c0,0.2,0.1,0.2,0.3,0.3
		c0.2,0,0.3,0.2,0.5,0.2C164,93.1,164.1,92.9,164.5,92.9z"/>
	<path class="st4" d="M171.6,91.4l1.5,0.1c-0.3,0.9-0.6,1.5-1.3,2.1c-0.6,0.5-1.5,0.8-2.4,0.8c-1.2,0-2.3-0.5-3-1.2
		c-0.8-0.8-1-1.8-1-3.3s0.3-2.6,1-3.3s1.7-1.2,2.9-1.2c1.2,0,2.1,0.4,2.9,1.2s1,1.8,1,3.3c0,0.1,0,0.1,0,0.4h-6.3
		c0,0.9,0.3,1.7,0.8,2.1c0.4,0.4,1,0.8,1.8,0.8c0.6,0,1.1-0.2,1.4-0.5C171.2,92.5,171.5,92.2,171.6,91.4z M167,89.2h4.8
		c0-0.8-0.3-1.2-0.6-1.7c-0.5-0.6-1.1-0.9-1.8-0.9c-0.6,0-1.2,0.1-1.6,0.6C167.3,87.8,167,88.4,167,89.2z"/>
	<path class="st4" d="M180.5,94.3v-1c-0.6,0.9-1.4,1.2-2.4,1.2c-0.8,0-1.4-0.1-2-0.6c-0.6-0.3-1-0.9-1.3-1.5
		c-0.3-0.6-0.5-1.5-0.5-2.3c0-0.9,0.1-1.7,0.5-2.3c0.3-0.8,0.8-1.2,1.3-1.6c0.6-0.3,1.2-0.6,2-0.6c0.4,0,0.9,0.1,1.3,0.3
		c0.5,0.1,0.8,0.5,1,0.9v-4.2h1.5v11.8L180.5,94.3L180.5,94.3z M176,89.9c0,1,0.3,1.9,0.8,2.4c0.5,0.6,1,0.8,1.6,0.8
		c0.6,0,1.2-0.3,1.7-0.8c0.5-0.4,0.6-1.3,0.6-2.4c0-1.2-0.1-2.1-0.8-2.6c-0.6-0.5-1-0.8-1.6-0.8c-0.6,0-1.2,0.3-1.6,0.8
		C176.1,88,176,88.9,176,89.9z"/>
	<path class="st4" d="M289,89.9c0-1.7,0.4-2.7,1.3-3.5c0.8-0.6,1.7-0.9,2.7-0.9c1.2,0,2.1,0.4,2.8,1.2c0.7,0.8,1.1,1.8,1.1,3.2
		c0,1-0.2,1.9-0.5,2.5c-0.3,0.6-0.8,1-1.5,1.5c-0.7,0.5-1.3,0.5-2.1,0.5c-1.2,0-2.1-0.5-2.8-1.2S289,91.4,289,89.9z M290.5,89.9
		c0,1,0.3,1.9,0.8,2.4c0.4,0.6,1,0.8,1.8,0.8s1.3-0.3,1.8-0.8c0.5-0.6,0.8-1.3,0.8-2.6c0-1-0.3-1.8-0.8-2.4c-0.4-0.6-1-0.8-1.8-0.8
		s-1.3,0.3-1.8,0.8C290.6,88.1,290.5,88.9,290.5,89.9z"/>
	<path class="st4" d="M298.5,94.3v-8.5h1.4V87c0.6-0.9,1.5-1.4,2.7-1.4c0.4,0,1.1,0.1,1.3,0.3c0.5,0.1,0.8,0.4,0.9,0.8
		c0.2,0.3,0.3,0.6,0.4,1c0,0.3,0.2,0.8,0.2,1.4v5.2h-1.5V89c0-0.6,0-1-0.2-1.3c-0.1-0.3-0.3-0.5-0.6-0.8c-0.3-0.3-0.6-0.3-1.1-0.3
		c-0.6,0-1.2,0.1-1.7,0.6s-0.6,1.2-0.6,2.3v4.7L298.5,94.3L298.5,94.3z"/>
	<path class="st4" d="M312.5,94.3V82.4h4.3c0.9,0,1.7,0.1,2.1,0.3c0.6,0.3,0.9,0.6,1.3,1.1c0.3,0.4,0.4,1,0.4,1.5
		c0,0.4-0.1,1-0.4,1.4c-0.3,0.3-0.8,0.8-1.2,1c0.8,0.1,1.2,0.6,1.6,1c0.5,0.5,0.6,1.1,0.6,1.8c0,0.6-0.2,1.1-0.3,1.5
		c-0.1,0.4-0.4,0.9-0.9,1.1c-0.3,0.3-0.8,0.5-1.3,0.6c-0.4,0.2-1.2,0.2-1.9,0.2h-4.3V94.3z M314,87.4h2.5c0.8,0,1.2,0,1.5-0.1
		c0.5-0.1,0.8-0.3,0.9-0.6c0.1-0.3,0.3-0.6,0.3-1.1c0-0.4-0.2-0.8-0.3-1c-0.1-0.3-0.5-0.5-0.8-0.6c-0.3-0.2-0.9-0.1-1.8-0.1h-2.4
		v3.5C313.9,87.4,314,87.4,314,87.4z M314,92.9h3c0.5,0,0.9,0,1,0c0.3,0,0.6-0.2,0.9-0.3c0.3-0.2,0.4-0.3,0.6-0.6
		c0.1-0.3,0.3-0.6,0.3-1c0-0.5-0.2-0.8-0.3-1.2c-0.3-0.3-0.6-0.6-0.9-0.8c-0.3-0.1-0.9-0.1-1.8-0.1H314V92.9z"/>
	<path class="st4" d="M323.3,84.1v-1.6h1.5v1.6H323.3z M323.3,94.3v-8.5h1.5v8.5H323.3z"/>
	<path class="st4" d="M326.9,94.3v-8.5h1.3V87c0.6-0.9,1.5-1.4,2.7-1.4c0.4,0,1,0.1,1.3,0.3c0.5,0.1,0.8,0.4,0.9,0.8
		c0.1,0.3,0.3,0.6,0.4,1c0,0.3,0.2,0.8,0.2,1.4v5.2h-1.5V89c0-0.6,0-1-0.2-1.3c-0.2-0.3-0.3-0.5-0.6-0.8c-0.3-0.3-0.6-0.3-1-0.3
		c-0.6,0-1.2,0.1-1.7,0.6c-0.4,0.5-0.6,1.2-0.6,2.3v4.7L326.9,94.3L326.9,94.3z"/>
	<path class="st4" d="M335.9,95l1.3,0.2c0,0.5,0.2,0.8,0.5,0.9c0.3,0.3,0.9,0.5,1.5,0.5s1.2-0.1,1.5-0.5c0.3-0.3,0.6-0.6,0.8-1.2
		c0-0.3,0.1-0.9,0.1-1.8c-0.6,0.8-1.3,1-2.4,1c-1.2,0-2.1-0.5-2.7-1.2c-0.6-0.9-0.9-1.8-0.9-3c0-0.8,0.2-1.5,0.4-2.3
		c0.3-0.8,0.8-1.2,1.4-1.6c0.6-0.3,1.2-0.6,1.9-0.6c1.1,0,1.8,0.5,2.6,1.2v-0.9h1.3v7.4c0,1.3-0.1,2.3-0.4,2.8
		c-0.3,0.6-0.8,1-1.4,1.4c-0.6,0.3-1.4,0.5-2.1,0.5c-1,0-1.8-0.3-2.4-0.8C336.2,96.5,335.9,95.9,335.9,95z M337.1,89.8
		c0,1.1,0.2,1.9,0.6,2.4c0.4,0.4,1,0.8,1.6,0.8s1.2-0.3,1.7-0.8s0.8-1.4,0.8-2.4c0-1.1-0.3-1.8-0.8-2.4c-0.5-0.6-1-0.8-1.7-0.8
		c-0.6,0-1.2,0.3-1.6,0.8C337.3,88,337.1,88.7,337.1,89.8z"/>
	<path class="st4" d="M352.7,97.7c-0.8-1-1.5-2.3-2.1-3.6c-0.6-1.4-0.9-2.7-0.9-4.2c0-1.4,0.1-2.6,0.6-3.6c0.5-1.4,1.2-2.7,2.3-4h1
		c-0.6,1-1,1.9-1.3,2.4c-0.3,0.8-0.6,1.5-0.8,2.3c-0.3,1.1-0.3,1.9-0.3,3c0,2.6,0.8,5.1,2.4,7.8C353.6,97.7,352.7,97.7,352.7,97.7z"
		/>
</g>
<g class="st1">
	<path class="st5" d="M355.1,91.6l1.4-0.2c0.1,0.6,0.3,1.2,0.8,1.4c0.3,0.3,0.8,0.5,1.4,0.5c0.4,0,0.9-0.2,1.2-0.3
		c0.3-0.2,0.6-0.4,0.8-0.8c0.2-0.3,0.5-0.8,0.6-1.3c0.1-0.6,0.1-1.2,0.1-1.8c0,0,0-0.2,0-0.3c-0.3,0.4-0.8,0.9-1.2,1.1
		c-0.5,0.2-1,0.4-1.6,0.4c-1.1,0-1.8-0.3-2.6-1s-1-1.7-1-2.9c0-1.2,0.3-2.1,1-2.9s1.7-1,2.7-1c0.8,0,1.5,0.1,2.1,0.6
		c0.6,0.4,1,1,1.5,1.8c0.3,0.8,0.4,1.8,0.4,3.3s-0.1,2.7-0.4,3.6c-0.3,0.9-0.8,1.5-1.5,2.1c-0.6,0.5-1.4,0.8-2.3,0.8
		s-1.7-0.3-2.3-0.8C355.6,93.4,355.3,92.5,355.1,91.6z M361.1,86.3c0-0.9-0.1-1.5-0.6-2c-0.4-0.4-0.9-0.8-1.7-0.8
		c-0.6,0-1.2,0.3-1.6,0.8c-0.5,0.5-0.8,1.2-0.8,2.1c0,0.8,0.3,1.4,0.8,1.8c0.5,0.4,1,0.8,1.6,0.8s1.2-0.3,1.7-0.8
		C360.8,87.8,361.1,87.1,361.1,86.3z"/>
	<path class="st5" d="M366.3,87.8c-0.6-0.1-1-0.6-1.3-0.9c-0.3-0.5-0.5-0.9-0.5-1.5c0-0.9,0.3-1.6,0.9-2.1s1.5-0.9,2.4-0.9
		c1.1,0,1.8,0.3,2.6,0.9c0.8,0.6,0.9,1.4,0.9,2.3c0,0.6-0.1,1-0.5,1.5c-0.3,0.4-0.8,0.8-1.3,0.9c0.8,0.3,1.2,0.6,1.6,1.2
		c0.5,0.6,0.6,1.2,0.6,1.9c0,1.1-0.3,1.8-1.1,2.5c-0.8,0.8-1.6,1-2.8,1s-2.1-0.3-2.8-1s-1.1-1.5-1.1-2.6c0-0.8,0.2-1.3,0.6-1.9
		C365,88.4,365.6,88,366.3,87.8z M365.6,90.8c0,0.4,0.2,0.8,0.3,1.2s0.4,0.8,0.9,0.9c0.5,0.1,0.8,0.3,1.2,0.3c0.8,0,1.2-0.1,1.7-0.6
		c0.4-0.4,0.8-1.1,0.8-1.7c0-0.8-0.3-1.2-0.8-1.8c-0.5-0.5-1.1-0.8-1.8-0.8s-1.2,0.1-1.6,0.8C365.8,89.6,365.6,90.2,365.6,90.8z
		 M366,85.4c0,0.6,0.2,1.1,0.6,1.4c0.3,0.3,0.9,0.6,1.3,0.6c0.6,0,1.1-0.1,1.4-0.6c0.3-0.3,0.6-0.8,0.6-1.4c0-0.6-0.1-1-0.6-1.4
		c-0.3-0.3-0.8-0.6-1.4-0.6s-1,0.1-1.3,0.6C366.2,84.5,366,85,366,85.4z"/>
	<path class="st5" d="M378.2,94.3v-8.5h1.3v1.4c0.3-0.6,0.6-1.1,0.9-1.2c0.3-0.1,0.6-0.3,0.9-0.3c0.5,0,1.1,0.1,1.5,0.4l-0.4,1.4
		c-0.3-0.1-0.8-0.3-1.1-0.3c-0.3,0-0.6,0.1-0.9,0.3c-0.3,0.2-0.5,0.5-0.6,0.8c-0.1,0.4-0.3,1-0.3,1.6v4.5h-1.3V94.3z"/>
	<path class="st5" d="M389.6,91.4l1.5,0.1c-0.3,0.9-0.6,1.5-1.3,2.1c-0.6,0.5-1.5,0.8-2.4,0.8c-1.2,0-2.3-0.5-3-1.2
		c-0.8-0.8-1-1.8-1-3.3s0.3-2.6,1-3.3s1.7-1.2,2.9-1.2s2.1,0.4,2.9,1.2s1,1.8,1,3.3c0,0.1,0,0.1,0,0.4h-6.3c0,0.9,0.3,1.7,0.8,2.1
		c0.4,0.4,1,0.8,1.8,0.8c0.6,0,1.1-0.2,1.4-0.5C389,92.5,389.3,92.2,389.6,91.4z M384.8,89.2h4.8c0-0.8-0.3-1.2-0.6-1.7
		c-0.5-0.6-1.1-0.9-1.8-0.9c-0.6,0-1.2,0.1-1.6,0.6S384.8,88.4,384.8,89.2z"/>
	<path class="st5" d="M395.3,94.3l-3.3-8.5h1.5l1.8,5.1c0.1,0.6,0.4,1.2,0.6,1.6c0.1-0.4,0.3-1,0.6-1.6l1.9-5.3h1.5l-3.3,8.5
		L395.3,94.3L395.3,94.3z"/>
	<path class="st5" d="M401.2,84.1v-1.6h1.5v1.6H401.2z M401.2,94.3v-8.5h1.5v8.5H401.2z"/>
	<path class="st5" d="M410.6,91.4l1.5,0.1c-0.3,0.9-0.6,1.5-1.3,2.1c-0.6,0.5-1.5,0.8-2.4,0.8c-1.2,0-2.3-0.5-3-1.2
		c-0.8-0.8-1-1.8-1-3.3s0.3-2.6,1-3.3s1.7-1.2,2.9-1.2s2.1,0.4,2.9,1.2s1,1.8,1,3.3c0,0.1,0,0.1,0,0.4h-6.3c0,0.9,0.3,1.7,0.8,2.1
		c0.4,0.4,1,0.8,1.8,0.8c0.6,0,1.1-0.2,1.4-0.5C410.2,92.5,410.4,92.2,410.6,91.4z M405.8,89.2h4.8c0-0.8-0.3-1.2-0.6-1.7
		c-0.5-0.6-1.1-0.9-1.8-0.9c-0.6,0-1.2,0.1-1.6,0.6S405.9,88.4,405.8,89.2z"/>
	<path class="st5" d="M415.6,94.3l-2.6-8.5h1.5l1.3,5l0.5,1.8c0-0.1,0.1-0.8,0.4-1.8l1.4-5h1.5l1.4,5l0.4,1.6l0.5-1.6l1.5-5h1.3
		l-2.7,8.5h-1.5l-1.4-5.1l-0.3-1.5l-1.8,6.6H415.6z"/>
	<path class="st5" d="M425.3,91.7l1.5-0.3c0.1,0.6,0.3,1,0.6,1.3s0.9,0.4,1.5,0.4s1.2-0.1,1.5-0.4s0.4-0.6,0.4-0.9s-0.1-0.6-0.4-0.8
		c-0.2-0.2-0.8-0.3-1.5-0.5c-1.1-0.3-1.8-0.4-2.3-0.8c-0.5-0.1-0.8-0.4-0.9-0.8c-0.2-0.3-0.3-0.8-0.3-1.2s0.1-0.8,0.3-1
		c0.2-0.3,0.4-0.6,0.8-0.8c0.4-0.2,0.6-0.3,0.9-0.5c0.4-0.1,0.8-0.1,1.2-0.1c0.6,0,1.2,0.1,1.8,0.3c0.4,0.1,0.9,0.4,1,0.8
		c0.3,0.3,0.5,0.8,0.5,1.4l-1.4,0.1c0-0.4-0.3-0.7-0.6-1c-0.3-0.3-0.8-0.3-1.3-0.3s-1.2,0.1-1.3,0.3c-0.3,0.1-0.5,0.5-0.5,0.8
		c0,0.1,0,0.3,0.2,0.4c0.2,0.1,0.3,0.3,0.6,0.4c0.2,0,0.6,0.2,1.4,0.3c1.1,0.3,1.8,0.4,2.1,0.6c0.4,0.2,0.8,0.5,0.9,0.8
		c0.3,0.3,0.3,0.8,0.3,1.2s-0.2,0.9-0.4,1.3c-0.3,0.4-0.8,0.7-1.2,1.1c-0.6,0.3-1.2,0.3-1.8,0.3c-1.1,0-1.9-0.3-2.6-0.8
		C425.8,93.2,425.4,92.6,425.3,91.7z"/>
</g>
<g class="st1">
	<path class="st4" d="M435.1,97.7H434c1.7-2.5,2.4-5.1,2.4-7.8c0-1.1-0.2-2-0.3-3c-0.1-0.8-0.4-1.6-0.8-2.3
		c-0.1-0.4-0.6-1.4-1.3-2.4h1.1c1.1,1.4,1.8,2.7,2.3,4.1c0.4,1.2,0.6,2.4,0.6,3.6c0,1.5-0.3,2.9-0.9,4.2
		C436.4,95.5,435.8,96.7,435.1,97.7z"/>
</g>
<g class="st1">
	<path class="st4" d="M13.4,117.5l1.3,0.2c-0.2,1-0.6,1.8-1.2,2.3c-0.6,0.6-1.5,0.9-2.4,0.9c-1.2,0-2.1-0.5-2.9-1.2s-1-1.8-1-3.3
		c0-0.9,0.2-1.8,0.4-2.4c0.3-0.6,0.8-1.2,1.4-1.5s1.3-0.5,2.1-0.5c0.9,0,1.7,0.3,2.3,0.8s0.9,1.2,1.2,2l-1.3,0.1
		c-0.2-0.6-0.3-1-0.8-1.3c-0.3-0.3-0.8-0.5-1.2-0.5c-0.8,0-1.4,0.3-1.8,0.8s-0.8,1.4-0.8,2.5c0,1.2,0.2,2,0.6,2.5
		c0.5,0.6,1.1,0.8,1.7,0.8s1.1-0.1,1.3-0.5C13.1,118.9,13.2,118.3,13.4,117.5z"/>
	<path class="st4" d="M15.5,116.5c0-1.6,0.4-2.7,1.3-3.5c0.8-0.6,1.7-0.9,2.7-0.9c1.2,0,2.1,0.5,2.8,1.2s1,1.8,1,3.1
		c0,1-0.1,2-0.4,2.5c-0.3,0.6-0.8,1-1.5,1.5s-1.4,0.5-2.1,0.5c-1.2,0-2.1-0.5-2.8-1.2C15.9,119,15.5,117.8,15.5,116.5z M17,116.5
		c0,1,0.3,2,0.8,2.4c0.5,0.6,1,0.8,1.8,0.8s1.3-0.3,1.8-0.8c0.5-0.6,0.8-1.4,0.8-2.5c0-1-0.3-1.8-0.8-2.4c-0.5-0.6-1-0.8-1.8-0.8
		s-1.3,0.3-1.8,0.8S17,115.3,17,116.5z"/>
	<path class="st4" d="M25.2,120.7v-11.9h1.5v4.2c0.8-0.8,1.5-1.2,2.6-1.2c0.6,0,1.2,0.1,1.6,0.3c0.5,0.1,0.8,0.6,1.1,1
		c0.1,0.5,0.3,1,0.3,2v5.4h-1.5v-5.4c0-0.8-0.2-1.2-0.4-1.7c-0.3-0.3-0.8-0.5-1.3-0.5s-0.9,0.2-1.2,0.3c-0.3,0.2-0.6,0.5-0.8,0.9
		c-0.2,0.4-0.3,0.9-0.3,1.6v4.7h-1.5C25.3,120.5,25.3,120.7,25.2,120.7z"/>
	<path class="st4" d="M33.8,116.5c0-1.6,0.4-2.7,1.3-3.5c0.8-0.6,1.7-0.9,2.7-0.9c1.2,0,2.1,0.5,2.8,1.2s1.1,1.8,1.1,3.1
		c0,1-0.2,2-0.4,2.5c-0.3,0.6-0.8,1-1.5,1.5s-1.4,0.5-2.1,0.5c-1.2,0-2.1-0.5-2.8-1.2C34.2,119,33.8,117.8,33.8,116.5z M35.3,116.5
		c0,1,0.3,2,0.8,2.4c0.4,0.6,1,0.8,1.8,0.8s1.3-0.3,1.8-0.8c0.5-0.6,0.8-1.4,0.8-2.5c0-1-0.3-1.8-0.8-2.4c-0.4-0.6-1-0.8-1.8-0.8
		s-1.3,0.3-1.8,0.8S35.3,115.3,35.3,116.5z"/>
	<path class="st4" d="M45.1,120.7l-2.6-8.6H44l1.3,5l0.5,1.8c0-0.2,0.1-0.8,0.4-1.8l1.4-5h1.5l1.4,5l0.4,1.6l0.4-1.6l1.5-5h1.4
		l-2.7,8.6H50l-1.4-5.1l-0.3-1.5l-1.8,6.6H45.1z"/>
	<path class="st4" d="M55.4,110.6v-1.7h1.5v1.7H55.4z M55.4,120.7v-8.5h1.5v8.5H55.4z"/>
	<path class="st4" d="M59.1,120.7v-8.5h1.4v1.2c0.6-0.9,1.5-1.3,2.7-1.3c0.4,0,1.1,0.1,1.4,0.3c0.4,0.1,0.8,0.5,0.9,0.8
		s0.3,0.6,0.4,1c0,0.3,0.1,0.8,0.1,1.3v5.3h-1.5v-5.3c0-0.6,0-1-0.1-1.3s-0.3-0.5-0.6-0.8s-0.6-0.3-1.1-0.3c-0.6,0-1.2,0.1-1.6,0.6
		c-0.3,0.6-0.6,1.3-0.6,2.4v4.7C60.5,120.7,59.1,120.7,59.1,120.7z"/>
	<path class="st4" d="M74.1,118l1.5,0.2c-0.3,0.9-0.6,1.5-1.4,2.1c-0.6,0.5-1.5,0.8-2.4,0.8c-1.2,0-2.3-0.5-3-1.2
		c-0.7-0.7-1.1-1.8-1.1-3.3s0.3-2.5,1.1-3.3c0.8-0.8,1.6-1.2,2.9-1.2c1.2,0,2.1,0.5,2.9,1.2s1.1,1.8,1.1,3.3c0,0.2,0,0.2,0,0.5h-6.3
		c0,0.9,0.3,1.7,0.8,2.1c0.5,0.4,1,0.6,1.7,0.6c0.6,0,1.1-0.2,1.4-0.5C73.6,119,73.9,118.6,74.1,118z M69.4,115.6h4.8
		c0-0.8-0.3-1.2-0.6-1.7c-0.4-0.6-1.1-0.9-1.8-0.9c-0.6,0-1.2,0.1-1.6,0.6C69.6,114.2,69.4,114.8,69.4,115.6z"/>
	<path class="st4" d="M77.4,120.7v-8.5h1.4v1.4c0.3-0.6,0.6-1,0.9-1.2c0.3-0.2,0.6-0.3,0.9-0.3c0.4,0,1.1,0.1,1.5,0.5l-0.6,1.2
		c-0.3-0.1-0.8-0.3-1.1-0.3c-0.3,0-0.6,0.2-0.9,0.3c-0.3,0.2-0.4,0.5-0.6,0.8c-0.1,0.5-0.3,1-0.3,1.7v4.5
		C78.6,120.7,77.4,120.7,77.4,120.7z"/>
</g>
<g class="st1">
	<path class="st4" d="M82.9,124l-0.1-1.3c0.2,0.1,0.5,0.1,0.8,0.1c0.3,0,0.6,0,0.8-0.1c0.1-0.2,0.3-0.3,0.4-0.5
		c0.1-0.2,0.3-0.5,0.4-1c0-0.2,0-0.2,0.1-0.3l-3.3-8.5h1.5l1.8,5c0.3,0.6,0.4,1.3,0.6,2c0.1-0.6,0.3-1.4,0.6-2l1.8-5h1.5l-3.3,8.7
		c-0.3,0.9-0.6,1.6-0.8,2c-0.3,0.5-0.6,0.9-0.9,1c-0.3,0.1-0.8,0.3-1.2,0.3C83.4,124.1,83.1,124.1,82.9,124z"/>
</g>
<g class="st1">
	<path class="st4" d="M90.4,120.7v-1.6H92v1.6H90.4z"/>
	<path class="st4" d="M100.1,117.5l1.4,0.2c-0.1,1-0.6,1.8-1.2,2.3c-0.6,0.6-1.5,0.9-2.4,0.9c-1.2,0-2.1-0.5-2.9-1.2
		s-1.1-1.8-1.1-3.3c0-0.9,0.1-1.8,0.4-2.4c0.3-0.6,0.8-1.2,1.4-1.5s1.4-0.5,2.1-0.5c0.9,0,1.6,0.3,2.3,0.8s0.9,1.2,1.2,2H100
		c-0.1-0.6-0.3-1-0.8-1.3c-0.3-0.3-0.8-0.5-1.2-0.5c-0.8,0-1.4,0.3-1.8,0.8c-0.4,0.5-0.7,1.3-0.7,2.5s0.1,2,0.6,2.5s1,0.8,1.6,0.8
		c0.6,0,1-0.2,1.4-0.5C99.6,118.9,100,118.3,100.1,117.5z"/>
	<path class="st4" d="M102.2,116.5c0-1.6,0.5-2.7,1.4-3.5c0.8-0.6,1.6-0.9,2.7-0.9c1.2,0,2.1,0.5,2.9,1.2c0.8,0.7,1,1.8,1,3.1
		c0,1-0.1,2-0.5,2.5c-0.3,0.6-0.8,1-1.5,1.5c-0.7,0.5-1.4,0.5-2.1,0.5c-1.2,0-2.1-0.5-2.9-1.2C102.4,119,102.2,117.8,102.2,116.5z
		 M103.7,116.5c0,1,0.3,2,0.8,2.4c0.5,0.6,1,0.8,1.8,0.8c0.8,0,1.4-0.3,1.8-0.8c0.5-0.6,0.8-1.4,0.8-2.5c0-1-0.3-1.8-0.8-2.4
		c-0.5-0.6-1-0.8-1.8-0.8c-0.8,0-1.4,0.3-1.8,0.8C103.9,114.5,103.7,115.3,103.7,116.5z"/>
	<path class="st4" d="M112,120.7v-8.5h1.4v1.2c0.3-0.5,0.6-0.8,1-1c0.5-0.3,0.9-0.5,1.5-0.5s1.2,0.2,1.5,0.5s0.8,0.6,0.9,1
		c0.8-1,1.5-1.5,2.7-1.5c0.9,0,1.5,0.3,2,0.8s0.8,1.2,0.8,2.1v5.8h-1.5v-5.4c0-0.6,0-1-0.1-1.2c-0.1-0.3-0.3-0.5-0.5-0.6
		c-0.3-0.1-0.6-0.3-0.9-0.3c-0.6,0-1,0.2-1.5,0.6c-0.5,0.4-0.6,1-0.6,2v5h-1.5v-5.5c0-0.6-0.1-1.2-0.3-1.5c-0.3-0.3-0.6-0.5-1.2-0.5
		c-0.5,0-0.8,0.1-1.2,0.3c-0.5,0.1-0.6,0.6-0.8,0.9s-0.3,1-0.3,1.8v4.5L112,120.7L112,120.7z"/>
	<path class="st4" d="M130.1,120.7v-11.9h1.5v4.2c0.8-0.8,1.5-1.2,2.5-1.2c0.6,0,1.2,0.1,1.6,0.3c0.4,0.1,0.8,0.6,1,1
		c0.1,0.5,0.3,1,0.3,2v5.4h-1.5v-5.4c0-0.8-0.1-1.2-0.5-1.7c-0.3-0.3-0.8-0.5-1.4-0.5c-0.5,0-0.9,0.2-1.2,0.3
		c-0.3,0.2-0.6,0.5-0.8,0.9c-0.1,0.4-0.3,0.9-0.3,1.6v4.7h-1.5L130.1,120.7L130.1,120.7z"/>
	<path class="st4" d="M145,119.6c-0.6,0.5-1,0.8-1.5,0.9c-0.5,0.2-1,0.3-1.6,0.3c-0.9,0-1.6-0.3-2.1-0.8s-0.8-1-0.8-1.8
		c0-0.5,0.1-0.8,0.3-1.2c0.1-0.3,0.5-0.6,0.8-0.9c0.3-0.2,0.6-0.3,1-0.5c0.3,0,0.8-0.2,1.4-0.2c1.2-0.1,2.1-0.3,2.5-0.5
		c0-0.1,0-0.3,0-0.5c0-0.6-0.2-1-0.5-1.2c-0.3-0.3-0.9-0.5-1.6-0.5c-0.7,0-1.2,0.2-1.5,0.3c-0.3,0.2-0.6,0.6-0.8,1.2l-1.4-0.1
		c0.1-0.6,0.3-1,0.6-1.5c0.3-0.3,0.8-0.6,1.4-0.9c0.6-0.1,1.2-0.3,2-0.3s1.4,0.2,1.8,0.3c0.4,0.2,0.8,0.5,1,0.6
		c0.2,0.3,0.3,0.6,0.5,1c0,0.3,0,0.8,0,1.3v2c0,1.4,0,2.3,0.1,2.5c0.1,0.2,0.1,0.8,0.3,1h-1.5C145.1,120.4,145,120.1,145,119.6z
		 M144.8,116.5c-0.6,0.2-1.4,0.5-2.4,0.6c-0.6,0.1-1,0.1-1.2,0.3c-0.3,0.1-0.5,0.3-0.6,0.5c-0.1,0.2-0.1,0.5-0.1,0.8
		c0,0.5,0.1,0.8,0.5,0.9c0.3,0.2,0.8,0.5,1.4,0.5c0.6,0,1-0.1,1.5-0.3c0.5-0.3,0.8-0.6,0.9-1c0.2-0.3,0.3-0.8,0.3-1.5L144.8,116.5
		L144.8,116.5z"/>
	<path class="st4" d="M148,118.1l1.5-0.3c0.2,0.6,0.3,1,0.6,1.3c0.3,0.3,0.9,0.5,1.5,0.5c0.6,0,1.2-0.1,1.5-0.5
		c0.3-0.3,0.5-0.6,0.5-0.9s-0.2-0.6-0.5-0.8c-0.1-0.2-0.8-0.3-1.5-0.5c-1-0.3-1.8-0.5-2.3-0.8c-0.4-0.2-0.8-0.5-0.9-0.8
		s-0.3-0.8-0.3-1.2s0.2-0.8,0.3-1s0.5-0.6,0.8-0.8c0.1-0.2,0.6-0.3,0.9-0.5c0.3-0.2,0.8-0.2,1.2-0.2c0.6,0,1.2,0.2,1.8,0.3
		c0.5,0.2,0.9,0.5,1.1,0.8c0.3,0.3,0.4,0.8,0.4,1.4l-1.3,0.1c0-0.5-0.3-0.8-0.6-1c-0.3-0.3-0.8-0.3-1.4-0.3c-0.6,0-1.2,0.2-1.4,0.3
		c-0.3,0.2-0.4,0.5-0.4,0.8c0,0.2,0,0.3,0.1,0.5s0.3,0.3,0.6,0.5c0.1,0,0.6,0.2,1.3,0.3c1,0.3,1.8,0.5,2.1,0.6
		c0.5,0.1,0.8,0.5,0.9,0.8c0.1,0.3,0.3,0.8,0.3,1.2s-0.1,0.9-0.5,1.3c-0.3,0.5-0.8,0.8-1.2,1s-1.2,0.3-1.8,0.3c-1,0-2-0.3-2.5-0.8
		C148.4,119.8,148.1,119,148,118.1z"/>
	<path class="st4" d="M162.6,120.7h-1.3v-11.9h1.5v4.2c0.6-0.8,1.3-1.2,2.4-1.2c0.6,0,1,0.1,1.5,0.3c0.4,0.1,0.9,0.5,1.2,0.9
		c0.3,0.5,0.6,0.9,0.8,1.4c0.2,0.6,0.3,1,0.3,1.8c0,1.5-0.3,2.5-1.1,3.5c-0.8,0.8-1.6,1.2-2.5,1.2c-1.1,0-1.8-0.5-2.4-1.2v1
		C163,120.7,162.6,120.7,162.6,120.7z M162.6,116.3c0,1,0.2,1.8,0.5,2.3c0.4,0.8,1,1,1.8,1c0.6,0,1.2-0.3,1.7-0.8
		c0.5-0.6,0.8-1.4,0.8-2.4s-0.2-2-0.6-2.4c-0.5-0.4-1.1-0.8-1.7-0.8s-1.2,0.3-1.7,0.8C162.8,114.5,162.6,115.3,162.6,116.3z"/>
	<path class="st4" d="M176.3,118l1.5,0.2c-0.3,0.9-0.6,1.5-1.3,2.1c-0.6,0.5-1.5,0.8-2.4,0.8c-1.2,0-2.3-0.5-3-1.2
		c-0.7-0.7-1-1.8-1-3.3s0.3-2.5,1-3.3c0.7-0.8,1.7-1.2,2.8-1.2c1.2,0,2.1,0.5,2.9,1.2s1,1.8,1,3.3c0,0.2,0,0.2,0,0.5h-6.3
		c0,0.9,0.3,1.7,0.8,2.1c0.5,0.4,1,0.8,1.8,0.8c0.6,0,1-0.2,1.3-0.5C175.9,119,176.1,118.6,176.3,118z M171.5,115.6h4.8
		c0-0.8-0.3-1.2-0.6-1.7c-0.5-0.6-1.1-0.9-1.8-0.9c-0.6,0-1.2,0.1-1.6,0.6C171.8,114.2,171.6,114.8,171.5,115.6z"/>
	<path class="st4" d="M185.5,118l1.5,0.2c-0.3,0.9-0.6,1.5-1.3,2.1c-0.6,0.5-1.5,0.8-2.4,0.8c-1.2,0-2.3-0.5-3-1.2
		c-0.7-0.7-1-1.8-1-3.3s0.3-2.5,1-3.3c0.7-0.8,1.7-1.2,2.8-1.2c1.2,0,2.1,0.5,2.9,1.2s1,1.8,1,3.3c0,0.2,0,0.2,0,0.5h-6.3
		c0,0.9,0.3,1.7,0.8,2.1c0.5,0.4,1,0.8,1.8,0.8c0.6,0,1-0.2,1.3-0.5C185,119,185.3,118.6,185.5,118z M180.6,115.6h4.8
		c0-0.8-0.3-1.2-0.6-1.7c-0.5-0.6-1-0.9-1.8-0.9c-0.6,0-1.2,0.1-1.7,0.6C181,114.2,180.8,114.8,180.6,115.6z"/>
	<path class="st4" d="M188.8,120.7v-8.5h1.4v1.2c0.6-0.9,1.5-1.3,2.7-1.3c0.5,0,1,0.1,1.3,0.3c0.5,0.1,0.8,0.5,0.9,0.8
		s0.3,0.6,0.5,1c0,0.3,0.2,0.8,0.2,1.3v5.3h-1.5v-5.3c0-0.6,0-1-0.2-1.3s-0.3-0.5-0.6-0.8c-0.3-0.3-0.6-0.3-1-0.3
		c-0.6,0-1.2,0.1-1.7,0.6s-0.6,1.2-0.6,2.3v4.7L188.8,120.7L188.8,120.7z"/>
	<path class="st4" d="M205,120.7l-3.3-8.5h1.5l1.8,5.1c0.2,0.6,0.5,1.2,0.6,1.6c0.2-0.5,0.3-1,0.6-1.6l2-5.3h1.5l-3.3,8.5L205,120.7
		L205,120.7z"/>
	<path class="st4" d="M210.8,110.6v-1.7h1.5v1.7H210.8z M210.8,120.7v-8.5h1.5v8.5H210.8z"/>
	<path class="st4" d="M213.8,118.1l1.5-0.3c0.2,0.6,0.3,1,0.6,1.3s0.9,0.5,1.5,0.5s1.2-0.1,1.5-0.5c0.3-0.3,0.4-0.6,0.4-0.9
		s-0.2-0.6-0.4-0.8c-0.2-0.2-0.8-0.3-1.5-0.5c-1.1-0.3-1.8-0.5-2.3-0.8c-0.5-0.2-0.8-0.5-0.9-0.8c-0.1-0.3-0.3-0.8-0.3-1.2
		s0.2-0.8,0.3-1c0.2-0.3,0.5-0.6,0.8-0.8c0.2-0.2,0.6-0.3,0.9-0.5s0.8-0.2,1.2-0.2c0.6,0,1.2,0.2,1.8,0.3c0.4,0.2,0.9,0.5,1,0.8
		c0.3,0.3,0.5,0.8,0.5,1.4l-1.4,0.1c0-0.5-0.3-0.8-0.6-1c-0.3-0.3-0.8-0.3-1.4-0.3c-0.6,0-1.2,0.2-1.3,0.3c-0.3,0.2-0.5,0.5-0.5,0.8
		c0,0.2,0,0.3,0.2,0.5s0.3,0.3,0.6,0.5c0.2,0,0.6,0.2,1.3,0.3c1.1,0.3,1.8,0.5,2.1,0.6c0.5,0.1,0.8,0.5,0.9,0.8s0.3,0.8,0.3,1.2
		s-0.2,0.9-0.5,1.3c-0.3,0.4-0.8,0.8-1.2,1c-0.4,0.3-1.2,0.3-1.8,0.3c-1,0-2-0.3-2.5-0.8C214.4,119.8,214,119,213.8,118.1z"/>
	<path class="st4" d="M222.7,110.6v-1.7h1.5v1.7H222.7z M222.7,120.7v-8.5h1.5v8.5H222.7z"/>
	<path class="st4" d="M229.4,119.5l0.2,1.4c-0.5,0.1-0.8,0.1-1,0.1c-0.6,0-0.9-0.1-1.2-0.3c-0.3-0.1-0.5-0.5-0.6-0.6
		c-0.1-0.2-0.2-0.9-0.2-1.7v-5h-1.1v-1.2h1v-2.1l1.5-0.9v3h1.5v1.2H228v5c0,0.5,0,0.8,0.2,0.8c0,0.2,0.1,0.2,0.3,0.3
		c0.2,0,0.3,0.2,0.5,0.2C229,119.5,229.3,119.5,229.4,119.5z"/>
	<path class="st4" d="M236.8,118l1.5,0.2c-0.3,0.9-0.6,1.5-1.3,2.1c-0.6,0.5-1.5,0.8-2.4,0.8c-1.2,0-2.3-0.5-3-1.2s-1-1.8-1-3.3
		s0.3-2.5,1-3.3s1.7-1.2,2.8-1.2c1.2,0,2.1,0.5,2.8,1.2s1,1.8,1,3.3c0,0.2,0,0.2,0,0.5h-6.3c0,0.9,0.3,1.7,0.8,2.1
		c0.5,0.4,1,0.8,1.8,0.8c0.6,0,1.1-0.2,1.4-0.5C236.2,119,236.5,118.6,236.8,118z M232,115.6h4.8c0-0.8-0.3-1.2-0.6-1.7
		c-0.4-0.6-1.1-0.9-1.8-0.9c-0.6,0-1.2,0.1-1.6,0.6C232.3,114.2,232,114.8,232,115.6z"/>
	<path class="st4" d="M245.6,120.7v-1c-0.6,0.9-1.3,1.2-2.4,1.2c-0.8,0-1.3-0.1-2-0.6c-0.6-0.3-1-0.9-1.3-1.5
		c-0.3-0.6-0.5-1.5-0.5-2.3c0-0.9,0.2-1.7,0.5-2.3c0.3-0.8,0.8-1.2,1.3-1.7c0.6-0.3,1.2-0.6,2-0.6c0.5,0,0.9,0.1,1.3,0.3
		c0.4,0.1,0.8,0.5,1.1,0.9v-4.2h1.5v11.9L245.6,120.7L245.6,120.7z M241,116.5c0,1,0.3,2,0.8,2.4c0.4,0.6,1,0.8,1.6,0.8
		s1.2-0.3,1.7-0.8c0.4-0.5,0.6-1.4,0.6-2.4c0-1.2-0.3-2.1-0.8-2.5c-0.4-0.4-1-0.8-1.6-0.8s-1.2,0.3-1.7,0.8
		C241.3,114.5,241,115.3,241,116.5z"/>
	<path class="st4" d="M255,120.7h-1.3v-11.9h1.5v4.2c0.6-0.8,1.3-1.2,2.4-1.2c0.6,0,1.1,0.1,1.5,0.3c0.5,0.1,0.9,0.5,1.2,0.9
		c0.3,0.4,0.6,0.9,0.8,1.4c0.2,0.5,0.3,1,0.3,1.8c0,1.5-0.3,2.5-1,3.5c-0.8,0.8-1.7,1.2-2.5,1.2c-1.1,0-1.8-0.5-2.4-1.2v1
		C255.4,120.7,255,120.7,255,120.7z M255,116.3c0,1,0.2,1.8,0.5,2.3c0.5,0.8,1,1,1.8,1c0.6,0,1.2-0.3,1.7-0.8
		c0.4-0.6,0.8-1.4,0.8-2.4s-0.2-2-0.6-2.4c-0.4-0.4-1-0.8-1.6-0.8c-0.6,0-1.2,0.3-1.7,0.8C255.3,114.5,255,115.3,255,116.3z"/>
	<path class="st4" d="M262.8,124l-0.2-1.3c0.3,0.1,0.6,0.1,0.9,0.1s0.6,0,0.8-0.1c0.2-0.2,0.3-0.3,0.4-0.5c0.2-0.2,0.3-0.5,0.5-1
		c0-0.2,0-0.2,0.2-0.3l-3.3-8.5h1.5l1.8,5c0.3,0.6,0.4,1.3,0.6,2c0.2-0.6,0.3-1.4,0.6-2l1.8-5h1.5l-3.3,8.7c-0.3,0.9-0.6,1.6-0.8,2
		c-0.3,0.5-0.6,0.9-0.9,1c-0.3,0.1-0.8,0.3-1.2,0.3C263.6,124.1,263.2,124.1,262.8,124z"/>
	<path class="st4" d="M280.8,120.7h-1.5v-9.1c-0.3,0.3-0.8,0.6-1.3,1c-0.6,0.4-1,0.6-1.5,0.8V112c0.8-0.5,1.5-0.9,2.1-1.3
		c0.6-0.6,1.1-1,1.3-1.7h0.9V120.7z"/>
	<path class="st4" d="M285,120.7v-11.9h2.4l2.8,8.4c0.3,0.8,0.5,1.4,0.6,1.8c0.1-0.5,0.3-1,0.6-2l2.9-8.3h2.1v11.9h-1.5v-9.8
		l-3.4,9.9H290l-3.4-10v10C286.5,120.7,285,120.7,285,120.7z"/>
	<path class="st4" d="M301.7,118.7v-3.3h-3.2v-1.2h3.2v-3.1h1.3v3.1h3.2v1.4H303v3.1H301.7z"/>
	<path class="st4" d="M318.3,120.7v-1.2c-0.6,0.9-1.5,1.5-2.7,1.5c-0.5,0-0.9-0.1-1.4-0.3c-0.4-0.1-0.8-0.5-0.9-0.8
		c-0.2-0.3-0.3-0.6-0.5-1c0-0.3-0.2-0.8-0.2-1.3v-5.3h1.5v4.8c0,0.8,0,1.2,0.2,1.5c0.2,0.5,0.3,0.8,0.6,0.9c0.3,0.2,0.6,0.3,1.1,0.3
		c0.4,0,0.9-0.1,1.2-0.3c0.4-0.1,0.6-0.6,0.8-0.9c0.2-0.5,0.3-0.9,0.3-1.7v-4.5h1.5v8.5h-1.5L318.3,120.7L318.3,120.7z"/>
	<path class="st4" d="M321.3,118.1l1.5-0.3c0.2,0.6,0.3,1,0.6,1.3c0.3,0.3,0.9,0.5,1.5,0.5c0.6,0,1.2-0.1,1.5-0.5
		c0.3-0.3,0.5-0.6,0.5-0.9s-0.2-0.6-0.5-0.8c-0.2-0.2-0.8-0.3-1.5-0.5c-1-0.3-1.8-0.5-2.3-0.8c-0.5-0.2-0.8-0.5-0.9-0.8
		s-0.2-0.5-0.2-0.9c0-0.4,0.2-0.8,0.3-1c0.2-0.3,0.4-0.6,0.8-0.8c0.3-0.2,0.6-0.3,0.9-0.5c0.5-0.2,0.8-0.2,1.2-0.2
		c0.6,0,1.2,0.2,1.8,0.3c0.5,0.2,0.9,0.5,1,0.8c0.3,0.3,0.5,0.8,0.5,1.4l-1.3,0.1c0-0.5-0.3-0.8-0.6-1c-0.3-0.2-0.8-0.3-1.3-0.3
		s-1.2,0.2-1.3,0.3c-0.3,0.2-0.5,0.5-0.5,0.8c0,0.2,0,0.3,0.2,0.5c0.1,0.2,0.3,0.3,0.6,0.5c0.2,0,0.6,0.2,1.4,0.3
		c1,0.3,1.8,0.5,2.1,0.6c0.5,0.1,0.8,0.5,0.9,0.8c0.3,0.3,0.3,0.8,0.3,1.2s-0.2,0.9-0.5,1.3c-0.3,0.5-0.8,0.8-1.2,1
		c-0.6,0.3-1.2,0.3-1.8,0.3c-1,0-1.9-0.3-2.5-0.8C322,119.8,321.5,119,321.3,118.1z"/>
	<path class="st4" d="M336,118l1.5,0.2c-0.3,0.9-0.6,1.5-1.3,2.1c-0.6,0.5-1.5,0.8-2.4,0.8c-1.2,0-2.3-0.5-3-1.2
		c-0.7-0.7-1-1.8-1-3.3s0.3-2.5,1-3.3c0.7-0.8,1.7-1.2,2.9-1.2c1.2,0,2.1,0.5,2.8,1.2s1.1,1.8,1.1,3.3c0,0.2,0,0.2,0,0.5h-6.3
		c0,0.9,0.3,1.7,0.8,2.1c0.5,0.5,1.1,0.8,1.8,0.8c0.6,0,1.1-0.2,1.3-0.5C335.6,119,335.9,118.6,336,118z M331.3,115.6h4.8
		c0-0.8-0.3-1.2-0.6-1.7c-0.5-0.6-1.1-0.9-1.8-0.9c-0.6,0-1.2,0.1-1.7,0.6C331.5,114.2,331.4,114.8,331.3,115.6z"/>
	<path class="st4" d="M339.3,120.7v-8.5h1.4v1.4c0.3-0.6,0.6-1,0.9-1.2s0.6-0.3,0.9-0.3c0.5,0,1,0.1,1.5,0.5l-0.5,1.2
		c-0.3-0.1-0.8-0.3-1-0.3s-0.6,0.2-0.9,0.3c-0.3,0.2-0.4,0.5-0.6,0.8c-0.2,0.5-0.3,1-0.3,1.7v4.5
		C340.7,120.7,339.3,120.7,339.3,120.7z"/>
	<path class="st4" d="M344.3,118.1l1.5-0.3c0.2,0.6,0.3,1,0.6,1.3c0.3,0.3,0.9,0.5,1.5,0.5s1.2-0.1,1.5-0.5c0.3-0.3,0.4-0.6,0.4-0.9
		s-0.1-0.6-0.4-0.8c-0.2-0.2-0.8-0.3-1.5-0.5c-1.1-0.3-1.8-0.5-2.3-0.8c-0.5-0.2-0.8-0.5-0.9-0.8s-0.3-0.8-0.3-1.2s0.1-0.8,0.3-1
		c0.2-0.3,0.5-0.6,0.8-0.8c0.3-0.2,0.6-0.3,0.9-0.5c0.4-0.2,0.8-0.2,1.2-0.2c0.6,0,1.2,0.2,1.8,0.3c0.4,0.2,0.9,0.5,1,0.8
		c0.3,0.3,0.5,0.8,0.5,1.4l-1.4,0.1c0-0.5-0.3-0.8-0.6-1s-0.8-0.3-1.4-0.3s-1.2,0.2-1.3,0.3c-0.3,0.2-0.5,0.5-0.5,0.8
		c0,0.2,0,0.3,0.1,0.5c0.2,0.2,0.3,0.3,0.6,0.5c0.1,0,0.6,0.2,1.4,0.3c1,0.3,1.8,0.5,2.1,0.6c0.5,0.1,0.8,0.5,0.9,0.8
		c0.3,0.3,0.3,0.8,0.3,1.2s-0.2,0.9-0.5,1.3c-0.3,0.4-0.8,0.8-1.2,1c-0.6,0.3-1.2,0.3-1.8,0.3c-1,0-2-0.3-2.5-0.8
		C344.8,119.8,344.5,119,344.3,118.1z"/>
	<path class="st4" d="M357.7,110.6v-1.7h1.5v1.7H357.7z M357.7,120.7v-8.5h1.5v8.5H357.7z"/>
	<path class="st4" d="M361.4,120.7v-8.5h1.3v1.2c0.6-0.9,1.5-1.3,2.7-1.3c0.5,0,1,0.1,1.3,0.3c0.5,0.1,0.8,0.5,0.9,0.8
		s0.3,0.6,0.5,1c0,0.3,0.1,0.8,0.1,1.3v5.3h-1.5v-5.3c0-0.6,0-1-0.1-1.3c-0.2-0.3-0.3-0.5-0.6-0.8s-0.6-0.3-1-0.3
		c-0.6,0-1.2,0.1-1.7,0.6c-0.4,0.5-0.6,1.2-0.6,2.3v4.7L361.4,120.7L361.4,120.7z"/>
	<path class="st4" d="M378.2,119.5l0.1,1.4c-0.4,0.1-0.8,0.1-1,0.1c-0.6,0-0.9-0.1-1.2-0.3c-0.3-0.1-0.4-0.5-0.6-0.6
		c-0.2-0.3-0.2-0.9-0.2-1.7v-5h-1v-1.2h1v-2.1l1.5-0.9v3h1.5v1.2h-1.5v5c0,0.5,0,0.8,0.2,0.8c0,0.2,0.1,0.2,0.3,0.3
		c0.1,0,0.3,0.2,0.5,0.2C377.8,119.5,377.9,119.5,378.2,119.5z"/>
	<path class="st4" d="M379.7,120.7v-11.9h1.5v4.2c0.8-0.8,1.5-1.2,2.5-1.2c0.6,0,1.2,0.1,1.7,0.3c0.4,0.3,0.8,0.6,1,1
		c0.2,0.5,0.3,1,0.3,2v5.4h-1.5v-5.4c0-0.8-0.2-1.2-0.5-1.7c-0.3-0.3-0.8-0.5-1.3-0.5c-0.4,0-0.9,0.2-1.2,0.3
		c-0.3,0.2-0.6,0.5-0.8,0.9c-0.1,0.4-0.3,0.9-0.3,1.6v4.7h-1.5L379.7,120.7L379.7,120.7z"/>
	<path class="st4" d="M394.7,118l1.5,0.2c-0.3,0.9-0.6,1.5-1.4,2.1c-0.6,0.5-1.5,0.8-2.4,0.8c-1.2,0-2.3-0.5-3-1.2s-1.1-1.8-1.1-3.3
		s0.3-2.5,1.1-3.3s1.6-1.2,2.9-1.2c1.2,0,2.1,0.5,2.8,1.2s1.1,1.8,1.1,3.3c0,0.2,0,0.2,0,0.5h-6.3c0,0.9,0.3,1.7,0.8,2.1
		c0.5,0.4,1.1,0.8,1.8,0.8c0.6,0,1.1-0.2,1.4-0.5C394.1,119,394.4,118.6,394.7,118z M389.9,115.6h4.8c0-0.8-0.3-1.2-0.6-1.7
		c-0.4-0.6-1.1-0.9-1.8-0.9c-0.6,0-1.2,0.1-1.6,0.6C390.2,114.1,389.9,114.8,389.9,115.6z"/>
	<path class="st4" d="M402.5,120.7v-11.9h1.5v11.8L402.5,120.7L402.5,120.7z"/>
	<path class="st4" d="M411.8,119.6c-0.6,0.5-1.1,0.8-1.5,0.9c-0.4,0.2-1.1,0.3-1.6,0.3c-0.9,0-1.7-0.3-2.1-0.8s-0.8-1-0.8-1.8
		c0-0.5,0.1-0.8,0.3-1.2c0.2-0.3,0.4-0.6,0.8-0.9c0.3-0.2,0.6-0.3,1.1-0.5c0.3,0,0.8-0.2,1.4-0.2c1.2-0.1,2.1-0.3,2.5-0.5
		c0-0.1,0-0.3,0-0.5c0-0.6-0.1-1-0.4-1.2c-0.3-0.3-0.9-0.5-1.7-0.5s-1.2,0.2-1.5,0.3c-0.3,0.3-0.6,0.6-0.8,1.2l-1.3-0.1
		c0.1-0.6,0.3-1,0.6-1.5c0.3-0.3,0.8-0.6,1.3-0.9c0.6-0.1,1.2-0.3,2-0.3s1.3,0.2,1.8,0.3c0.5,0.2,0.8,0.5,1.1,0.6
		c0.1,0.3,0.3,0.6,0.4,1c0,0.3,0,0.8,0,1.3v2c0,1.4,0,2.3,0.2,2.5s0.2,0.8,0.3,1h-1.5C411.9,120.4,411.8,120.1,411.8,119.6z
		 M411.7,116.5c-0.6,0.2-1.4,0.5-2.4,0.6c-0.6,0.1-1.1,0.1-1.2,0.3c-0.3,0.1-0.4,0.3-0.6,0.5c-0.1,0.1-0.1,0.5-0.1,0.8
		c0,0.5,0.1,0.8,0.4,0.9c0.3,0.3,0.8,0.5,1.3,0.5c0.6,0,1.1-0.1,1.5-0.3c0.5-0.3,0.8-0.6,0.9-1c0.2-0.3,0.3-0.8,0.3-1.5v-0.6
		C411.8,116.5,411.7,116.5,411.7,116.5z"/>
	<path class="st4" d="M414.8,118.1l1.5-0.3c0.1,0.6,0.3,1,0.6,1.3c0.3,0.3,0.9,0.5,1.5,0.5s1.2-0.1,1.5-0.5c0.3-0.3,0.4-0.6,0.4-0.9
		s-0.1-0.6-0.4-0.8c-0.2-0.2-0.8-0.3-1.5-0.5c-1.1-0.3-1.8-0.5-2.3-0.8c-0.5-0.2-0.8-0.5-0.9-0.8s-0.3-0.8-0.3-1.2s0.1-0.8,0.3-1
		s0.4-0.6,0.8-0.8c0.3-0.2,0.6-0.3,0.9-0.5c0.4-0.2,0.8-0.2,1.2-0.2c0.6,0,1.2,0.2,1.8,0.3c0.4,0.2,0.9,0.5,1,0.8
		c0.3,0.3,0.5,0.8,0.5,1.4l-1.4,0.1c0-0.5-0.3-0.8-0.6-1s-0.8-0.3-1.3-0.3s-1.2,0.2-1.3,0.3c-0.3,0.2-0.5,0.5-0.5,0.8
		c0,0.2,0,0.3,0.2,0.5s0.3,0.3,0.6,0.5c0.2,0,0.6,0.2,1.4,0.3c1.1,0.3,1.8,0.5,2.1,0.6c0.4,0.1,0.8,0.5,0.9,0.8
		c0.3,0.3,0.3,0.8,0.3,1.2s-0.2,0.9-0.4,1.3c-0.2,0.4-0.8,0.8-1.2,1c-0.6,0.3-1.2,0.3-1.8,0.3c-1.1,0-1.9-0.3-2.6-0.8
		C415.3,119.8,414.9,119,414.8,118.1z"/>
	<path class="st4" d="M426.8,119.5l0.1,1.4c-0.4,0.1-0.8,0.1-1,0.1c-0.6,0-0.9-0.1-1.2-0.3c-0.3-0.1-0.4-0.5-0.6-0.6
		c-0.2-0.3-0.2-0.9-0.2-1.7v-5h-1v-1.2h1v-2.1l1.5-0.9v3h1.5v1.2h-1.4v5c0,0.5,0,0.8,0.2,0.8c0,0.2,0.2,0.2,0.3,0.3
		c0.1,0,0.3,0.2,0.4,0.2C426.3,119.5,426.5,119.5,426.8,119.5z"/>
	<path class="st4" d="M432.8,120.7v-8.5h1.4v1.2c0.3-0.5,0.6-0.8,1-1c0.5-0.3,0.9-0.5,1.5-0.5s1.2,0.2,1.5,0.5
		c0.5,0.3,0.8,0.6,0.9,1c0.8-1,1.5-1.5,2.7-1.5c0.9,0,1.5,0.3,1.9,0.8s0.8,1.2,0.8,2.1v5.8H443v-5.4c0-0.6,0-1-0.2-1.2
		c-0.1-0.3-0.3-0.5-0.4-0.6c-0.3-0.1-0.6-0.3-0.9-0.3c-0.6,0-1.1,0.2-1.5,0.6c-0.4,0.4-0.6,1-0.6,2v5h-1.5v-5.5
		c0-0.6-0.2-1.2-0.3-1.5c-0.3-0.3-0.6-0.5-1.2-0.5c-0.5,0-0.8,0.1-1.2,0.3c-0.4,0.1-0.6,0.6-0.8,0.9c-0.1,0.3-0.3,1-0.3,1.8v4.5
		L432.8,120.7L432.8,120.7z"/>
	<path class="st4" d="M445.8,116.5c0-1.6,0.5-2.7,1.4-3.5c0.8-0.6,1.6-0.9,2.7-0.9c1.2,0,2.1,0.5,2.8,1.2s1.1,1.8,1.1,3.1
		c0,1-0.2,2-0.5,2.5c-0.3,0.6-0.8,1-1.5,1.5s-1.3,0.5-2.1,0.5c-1.2,0-2.1-0.5-2.8-1.2C446.3,119,445.8,117.8,445.8,116.5z
		 M447.3,116.5c0,1,0.3,2,0.8,2.4c0.5,0.6,1.1,0.8,1.8,0.8s1.3-0.3,1.8-0.8c0.5-0.6,0.8-1.4,0.8-2.5c0-1-0.3-1.8-0.8-2.4
		c-0.4-0.6-1-0.8-1.8-0.8s-1.4,0.3-1.8,0.8C447.7,114.5,447.3,115.3,447.3,116.5z"/>
	<path class="st4" d="M455.6,120.7v-8.5h1.4v1.2c0.6-0.9,1.5-1.3,2.7-1.3c0.4,0,1.1,0.1,1.3,0.3c0.5,0.1,0.8,0.5,0.9,0.8
		s0.3,0.6,0.4,1c0,0.3,0.1,0.8,0.1,1.3v5.3h-1.5v-5.3c0-0.6,0-1-0.1-1.3s-0.3-0.5-0.6-0.8c-0.3-0.3-0.6-0.3-1-0.3
		c-0.6,0-1.2,0.1-1.7,0.6c-0.4,0.5-0.6,1.2-0.6,2.3v4.7L455.6,120.7L455.6,120.7z"/>
	<path class="st4" d="M467.9,119.5l0.1,1.4c-0.4,0.1-0.8,0.1-1.1,0.1c-0.6,0-0.9-0.1-1.2-0.3c-0.3-0.1-0.4-0.5-0.6-0.6
		c-0.1-0.3-0.1-0.9-0.1-1.7v-5h-1.1v-1.2h1.1v-2.1l1.5-0.9v3h1.5v1.2h-1.5v5c0,0.5,0,0.8,0.1,0.8c0,0.2,0.2,0.2,0.3,0.3
		c0.1,0,0.3,0.2,0.4,0.2C467.4,119.5,467.8,119.5,467.9,119.5z"/>
	<path class="st4" d="M469.4,120.7v-11.9h1.5v4.2c0.8-0.8,1.5-1.2,2.5-1.2c0.6,0,1.2,0.1,1.7,0.3c0.4,0.3,0.8,0.6,1.1,1
		c0.3,0.4,0.3,1,0.3,2v5.4H475v-5.4c0-0.8-0.2-1.2-0.4-1.7c-0.3-0.3-0.8-0.5-1.4-0.5c-0.4,0-0.9,0.2-1.2,0.3
		c-0.3,0.2-0.6,0.5-0.8,0.9c-0.2,0.4-0.3,0.9-0.3,1.6v4.7h-1.5L469.4,120.7L469.4,120.7z"/>
</g>
<polygon class="st6" points="199.8,83.3 201.7,88.1 206.8,88.4 202.8,91.6 204.2,96.7 199.8,93.8 195.5,96.7 196.8,91.6 192.8,88.4 
	197.9,88.1 "/>
<polygon class="st6" points="216.5,83.3 218.5,88.1 223.5,88.4 219.5,91.6 220.8,96.7 216.5,93.8 212.2,96.7 213.5,91.6 209.6,88.4 
	214.7,88.1 "/>
<polygon class="st6" points="233.8,83.3 235.7,88.1 240.8,88.4 236.8,91.6 238.1,96.7 233.8,93.8 229.4,96.7 230.8,91.6 226.8,88.4 
	232,88.1 "/>
<polygon class="st6" points="250.3,83.3 252,88.1 257.3,88.4 253.3,91.6 254.6,96.7 250.3,93.8 245.9,96.7 247.3,91.6 243.2,88.4 
	248.5,88.1 "/>
<polygon class="st7" points="266.8,83.3 268.5,88.1 273.7,88.4 269.8,91.6 271.1,96.7 266.8,93.8 262.4,96.7 263.8,91.6 259.7,88.4 
	264.8,88.1 "/>
<rect x="2" y="103.4" class="st8" width="483" height="24"/>
<path class="st9" d="M9.8,26c-8.6,15.7,19,13.8,10,0H9.8z M10.7,27.1h8.1C26,38.2,3.9,39.7,10.7,27.1L10.7,27.1z"/>
<path class="st9" d="M14,36.5v4.8c-1.5,0.2-3,0.9-4.1,1.9c3.2,0.2,6.3,0.2,9.5,0.2c-1-1.2-2.5-1.8-4.2-1.9v-4.9
	C14.7,36.5,14.4,36.5,14,36.5z"/>
<polygon class="st9" points="8,29.9 21.2,29.9 21,32.8 19.1,35.3 16.2,36.4 13.2,36.8 11,35.9 9.2,34.6 8,32.6 "/>
<g>
	<path class="st0" d="M7.8,151.4v-11.8h5.3c1.1,0,1.8,0.1,2.4,0.3c0.6,0.1,1,0.6,1.3,1.2c0.3,0.6,0.5,1.2,0.5,1.8
		c0,0.9-0.3,1.5-0.8,2.1c-0.6,0.6-1.4,0.9-2.5,1c0.4,0.2,0.8,0.5,0.9,0.6c0.4,0.5,0.9,0.9,1.3,1.5l2.1,3.1h-1.9l-1.5-2.4
		c-0.5-0.8-0.9-1.2-1.2-1.7c-0.3-0.5-0.6-0.6-0.8-0.8c-0.3-0.1-0.4-0.3-0.8-0.3c-0.2,0-0.4,0-0.9,0H9.3v5.3H7.8V151.4z M9.3,144.8
		h3.3c0.8,0,1.2,0,1.7-0.2c0.4-0.1,0.8-0.5,0.9-0.8s0.3-0.8,0.3-1c0-0.6-0.2-1-0.6-1.3s-1-0.6-1.9-0.6H9.4v3.9H9.3z"/>
	<path class="st0" d="M25.4,148.7l1.5,0.2c-0.3,0.9-0.6,1.5-1.3,2.1c-0.8,0.6-1.5,0.8-2.4,0.8c-1.2,0-2.3-0.5-3-1.2s-1-1.8-1-3.3
		s0.3-2.5,1-3.3s1.6-1.2,2.8-1.2s2.1,0.5,2.8,1.2s1.1,1.8,1.1,3.3c0,0.2,0,0.2,0,0.5h-6.4c0,0.9,0.3,1.7,0.8,2.1
		c0.5,0.4,1,0.8,1.8,0.8c0.6,0,1.1-0.2,1.3-0.5C24.6,149.8,25.1,149.3,25.4,148.7z M20.6,146.3h4.8c0-0.8-0.3-1.2-0.6-1.7
		c-0.5-0.6-1.1-0.9-1.8-0.9c-0.6,0-1.2,0.1-1.7,0.6C20.9,145,20.6,145.6,20.6,146.3z"/>
	<path class="st0" d="M34.2,151.4v-1c-0.6,0.9-1.3,1.2-2.4,1.2c-0.8,0-1.3-0.1-1.9-0.6s-1.1-0.9-1.3-1.5c-0.3-0.6-0.5-1.5-0.5-2.3
		c0-0.9,0.2-1.7,0.5-2.3s0.8-1.2,1.3-1.7c0.6-0.3,1.2-0.6,1.9-0.6c0.5,0,0.9,0.1,1.3,0.3c0.5,0.1,0.8,0.5,1.1,0.9v-4.2h1.5v11.9
		L34.2,151.4L34.2,151.4z M29.6,147.2c0,1,0.3,2,0.8,2.4c0.5,0.6,1.1,0.8,1.7,0.8s1.2-0.3,1.7-0.8c0.4-0.5,0.6-1.4,0.6-2.4
		c0-1.2-0.3-2.1-0.8-2.5c-0.4-0.4-1.1-0.8-1.7-0.8s-1.2,0.3-1.7,0.8C29.9,145.3,29.6,146,29.6,147.2z"/>
	<path class="st0" d="M44,151.4l-2.6-8.5h1.5l1.4,5l0.4,1.8c0-0.1,0.2-0.8,0.5-1.8l1.3-5H48l1.4,5l0.4,1.7l0.4-1.7l1.5-5h1.4
		l-2.7,8.5h-1.5l-1.4-5.1l-0.3-1.5l-1.8,6.6H44z"/>
	<path class="st0" d="M54.4,141.4v-1.7h1.5v1.7H54.4z M54.4,151.4v-8.5h1.5v8.5H54.4z"/>
	<path class="st0" d="M57.9,151.4v-8.5h1.4v1.2c0.6-0.9,1.5-1.3,2.7-1.3c0.4,0,1.1,0.1,1.4,0.3c0.4,0.1,0.8,0.5,0.9,0.8
		c0.1,0.3,0.3,0.6,0.4,1c0,0.3,0.1,0.8,0.1,1.3v5.3h-1.5v-5.3c0-0.6,0-1-0.1-1.3c-0.1-0.3-0.3-0.6-0.6-0.8c-0.3-0.2-0.6-0.3-1.1-0.3
		c-0.6,0-1.2,0.1-1.6,0.6s-0.6,1.2-0.6,2.3v4.7H57.9L57.9,151.4z"/>
	<path class="st0" d="M73.1,148.7l1.5,0.2c-0.3,0.9-0.6,1.5-1.4,2.1c-0.8,0.6-1.5,0.8-2.4,0.8c-1.2,0-2.3-0.5-3-1.2
		c-0.7-0.7-1.1-1.8-1.1-3.3s0.3-2.5,1.1-3.3c0.8-0.8,1.6-1.2,2.8-1.2c1.2,0,2.1,0.5,2.9,1.2s1.1,1.8,1.1,3.3c0,0.2,0,0.2,0,0.5h-6.4
		c0,0.9,0.3,1.7,0.8,2.1c0.5,0.4,1.1,0.8,1.8,0.8c0.6,0,1.1-0.2,1.4-0.5C72.4,149.8,72.8,149.3,73.1,148.7z M68.3,146.3h4.8
		c0-0.8-0.3-1.2-0.6-1.7c-0.4-0.6-1.1-0.9-1.8-0.9c-0.6,0-1.2,0.1-1.6,0.6C68.6,145,68.3,145.6,68.3,146.3z"/>
	<path class="st0" d="M75.8,148.9l1.5-0.3c0.1,0.6,0.3,1,0.6,1.3c0.3,0.3,0.9,0.5,1.5,0.5s1.2-0.1,1.5-0.5c0.3-0.3,0.4-0.6,0.4-0.9
		s-0.1-0.6-0.4-0.8c-0.1-0.2-0.8-0.3-1.5-0.5c-1.1-0.3-1.8-0.5-2.3-0.8c-0.4-0.2-0.8-0.5-0.9-0.8c-0.1-0.3-0.3-0.8-0.3-1.2
		s0.1-0.8,0.3-1c0.1-0.3,0.4-0.6,0.8-0.8c0.3-0.2,0.6-0.3,0.9-0.5c0.4-0.2,0.8-0.2,1.2-0.2c0.6,0,1.2,0.2,1.8,0.3
		c0.4,0.2,0.9,0.5,1.1,0.8c0.3,0.3,0.4,0.8,0.4,1.4L81,145c0-0.5-0.3-0.8-0.6-1c-0.3-0.2-0.8-0.3-1.4-0.3s-1.2,0.2-1.5,0.3
		c-0.3,0.2-0.4,0.5-0.4,0.8c0,0.2,0,0.3,0.1,0.5c0.1,0.2,0.3,0.3,0.6,0.5c0.1,0,0.6,0.2,1.4,0.3c1.1,0.3,1.8,0.5,2.1,0.6
		c0.4,0.1,0.8,0.5,0.9,0.8c0.1,0.3,0.3,0.8,0.3,1.2s-0.1,0.9-0.4,1.3c-0.3,0.4-0.8,0.8-1.2,1c-0.6,0.3-1.2,0.3-1.8,0.3
		c-1.1,0-1.9-0.3-2.6-0.8C76.4,150.5,75.9,149.8,75.8,148.9z"/>
	<path class="st0" d="M6.5,153.8v-1.2h77.1v1.2H6.5z"/>
</g>
<g>
	<path class="st0" d="M123.4,151.3l-3.1-11.8h1.6l1.8,7.8c0.1,0.8,0.3,1.6,0.5,2.4c0.3-1.2,0.5-2,0.6-2.3l2.3-8h2l1.6,6
		c0.5,1.5,0.8,2.9,0.9,4.2c0.1-0.8,0.3-1.6,0.6-2.5l1.8-7.6h1.5l-3.3,11.8h-1.5l-2.5-9c-0.1-0.8-0.3-1.2-0.3-1.3
		c-0.1,0.6-0.3,1-0.3,1.3l-2.5,9H123.4z"/>
	<path class="st0" d="M136.7,151.3v-11.8h1.5v4.2c0.8-0.8,1.5-1.2,2.5-1.2c0.6,0,1.2,0.1,1.6,0.3c0.5,0.3,0.8,0.6,1,1
		c0.1,0.5,0.3,1,0.3,2v5.4h-1.5v-5.4c0-0.8-0.1-1.2-0.5-1.6c-0.3-0.3-0.8-0.5-1.4-0.5c-0.5,0-0.9,0.1-1.2,0.3
		c-0.5,0.1-0.6,0.5-0.8,0.9c-0.1,0.5-0.3,0.9-0.3,1.7v4.6h-1.5L136.7,151.3L136.7,151.3z"/>
	<path class="st0" d="M145.9,141.1v-1.7h1.5v1.7H145.9z M145.9,151.3v-8.5h1.5v8.5H145.9z"/>
	<path class="st0" d="M152.8,149.9l0.1,1.4c-0.4,0.1-0.8,0.1-1,0.1c-0.6,0-0.9-0.1-1.2-0.3c-0.3-0.1-0.4-0.5-0.6-0.6
		c-0.2-0.2-0.2-0.9-0.2-1.7v-5h-1v-1.2h1v-2.1l1.5-0.9v3h1.5v1.2h-1.5v5c0,0.5,0,0.8,0.2,0.8c0,0.2,0.2,0.2,0.3,0.3
		c0.1,0,0.3,0.2,0.5,0.2C152.1,150.1,152.5,149.9,152.8,149.9z"/>
	<path class="st0" d="M160,148.4l1.5,0.2c-0.3,0.9-0.6,1.5-1.3,2.1c-0.8,0.6-1.5,0.8-2.4,0.8c-1.2,0-2.3-0.5-3-1.2
		c-0.7-0.7-1-1.8-1-3.3s0.3-2.5,1-3.3c0.7-0.8,1.7-1.2,2.8-1.2c1.2,0,2.1,0.5,2.9,1.2s1,1.8,1,3.3c0,0.2,0,0.2,0,0.5H155
		c0,0.9,0.3,1.7,0.8,2.1c0.5,0.4,1,0.8,1.8,0.8c0.6,0,1-0.2,1.3-0.5C159.2,149.5,159.8,149.2,160,148.4z M155.1,146.2h4.8
		c0-0.8-0.3-1.2-0.6-1.6c-0.5-0.6-1-0.9-1.8-0.9c-0.6,0-1.2,0.2-1.7,0.6C155.5,144.8,155.3,145.4,155.1,146.2z"/>
	<path class="st0" d="M169.4,151.3l-2.5-8.5h1.5l1.3,5l0.5,1.8c0-0.1,0.1-0.8,0.5-1.8l1.3-5h1.5l1.4,5l0.5,1.7l0.5-1.7l1.5-5h1.4
		l-2.7,8.5h-1.5l-1.3-5.1l-0.3-1.5l-1.8,6.6H169.4z"/>
	<path class="st0" d="M179.8,141.1v-1.7h1.5v1.7H179.8z M179.8,151.3v-8.5h1.5v8.5H179.8z"/>
	<path class="st0" d="M183.5,151.3v-8.5h1.4v1.2c0.6-0.9,1.5-1.3,2.7-1.3c0.5,0,1.1,0.1,1.4,0.3c0.5,0.1,0.8,0.5,0.9,0.8
		c0.2,0.3,0.3,0.6,0.5,1c0,0.3,0.1,0.8,0.1,1.3v5.3H189v-5.3c0-0.6,0-1-0.1-1.3c-0.2-0.3-0.3-0.6-0.6-0.8s-0.6-0.3-1-0.3
		c-0.6,0-1.2,0.1-1.7,0.6s-0.6,1.2-0.6,2.3v4.7L183.5,151.3L183.5,151.3z"/>
	<path class="st0" d="M198.5,148.4l1.5,0.2c-0.3,0.9-0.6,1.5-1.3,2.1c-0.8,0.6-1.5,0.8-2.4,0.8c-1.2,0-2.3-0.5-3-1.2
		c-0.7-0.7-1-1.8-1-3.3s0.3-2.5,1-3.3c0.7-0.8,1.7-1.2,2.8-1.2c1.2,0,2.1,0.5,2.8,1.2c0.7,0.7,1,1.8,1,3.3c0,0.2,0,0.2,0,0.5h-6.4
		c0,0.9,0.3,1.7,0.8,2.1c0.5,0.4,1,0.8,1.8,0.8c0.6,0,1-0.2,1.3-0.5C197.7,149.5,198.2,149.2,198.5,148.4z M193.7,146.2h4.8
		c0-0.8-0.3-1.2-0.6-1.6c-0.5-0.6-1-0.9-1.8-0.9c-0.6,0-1.2,0.2-1.7,0.6C194,144.8,193.7,145.4,193.7,146.2z"/>
	<path class="st0" d="M201.2,148.7l1.5-0.3c0.2,0.6,0.3,1,0.6,1.4c0.3,0.3,0.9,0.5,1.5,0.5c0.6,0,1.2-0.2,1.5-0.5
		c0.3-0.3,0.5-0.6,0.5-0.9s-0.2-0.6-0.5-0.8c-0.2-0.1-0.8-0.3-1.5-0.5c-1-0.3-1.8-0.5-2.3-0.8c-0.5-0.1-0.8-0.5-0.9-0.8
		s-0.3-0.8-0.3-1.2s0.2-0.8,0.3-1c0.2-0.3,0.5-0.6,0.8-0.8c0.3-0.1,0.6-0.3,0.9-0.5c0.5-0.1,0.8-0.1,1.2-0.1c0.6,0,1.2,0.1,1.8,0.3
		c0.5,0.1,0.9,0.5,1,0.8c0.3,0.3,0.5,0.8,0.5,1.3l-1.3,0.2c0-0.5-0.3-0.8-0.6-1s-0.8-0.3-1.3-0.3s-1.2,0.1-1.5,0.3
		c-0.3,0.1-0.5,0.5-0.5,0.8c0,0.1,0,0.3,0.2,0.5c0.2,0.1,0.3,0.3,0.6,0.5c0.2,0,0.6,0.1,1.3,0.3c1,0.3,1.8,0.5,2.1,0.6
		c0.5,0.2,0.8,0.5,0.9,0.8c0.1,0.3,0.3,0.8,0.3,1.2s-0.2,0.9-0.5,1.4c-0.3,0.5-0.8,0.8-1.2,1c-0.6,0.3-1.2,0.3-1.8,0.3
		c-1,0-2-0.3-2.5-0.8C201.8,150.2,201.3,149.6,201.2,148.7z"/>
	<path class="st0" d="M120,153.5v-1.2h89v1.2H120z"/>
</g>
<g class="st1">
	<path class="st0" d="M245.5,150.8l-3.2-11.9h1.7l1.8,7.8c0.2,0.8,0.3,1.7,0.5,2.4c0.3-1.2,0.4-2,0.6-2.3l2.3-8h2l1.7,6
		c0.4,1.5,0.8,2.8,0.9,4.2c0.2-0.8,0.3-1.7,0.6-2.5l1.8-7.7h1.5l-3.3,11.9h-1.5l-2.6-9c-0.1-0.8-0.3-1.2-0.3-1.4
		c-0.2,0.6-0.3,1-0.3,1.4l-2.6,9L245.5,150.8L245.5,150.8z"/>
	<path class="st0" d="M242.2,153.1v-1.2H257v1.2H242.2z"/>
</g>
<g class="st1">
	<path class="st0" d="M263.8,149.8c-0.6,0.5-1,0.8-1.5,0.9c-0.5,0.1-1,0.3-1.7,0.3c-0.9,0-1.7-0.3-2.1-0.8c-0.5-0.5-0.8-1-0.8-1.8
		c0-0.5,0.2-0.8,0.3-1.2c0.2-0.3,0.5-0.6,0.8-0.9c0.3-0.1,0.6-0.3,1.1-0.5c0.3,0,0.8-0.1,1.3-0.1c1.2-0.2,2.1-0.3,2.5-0.5
		c0-0.2,0-0.3,0-0.5c0-0.6-0.1-1-0.4-1.2c-0.3-0.3-0.9-0.5-1.7-0.5c-0.8,0-1.2,0.1-1.5,0.3c-0.3,0.3-0.6,0.6-0.8,1.2l-1.3-0.2
		c0.2-0.6,0.3-1,0.6-1.5c0.3-0.3,0.8-0.6,1.3-0.9c0.6-0.2,1.2-0.3,1.9-0.3s1.4,0.1,1.8,0.3c0.4,0.1,0.8,0.5,1.1,0.6
		c0.1,0.3,0.3,0.6,0.4,1c0,0.3,0,0.8,0,1.4v2c0,1.3,0,2.3,0.2,2.5c0,0.3,0.2,0.8,0.3,1h-1.5C263.9,150.5,263.8,150.1,263.8,149.8z
		 M263.6,146.5c-0.6,0.2-1.3,0.5-2.4,0.6c-0.6,0.1-1,0.1-1.2,0.3c-0.3,0.1-0.4,0.3-0.6,0.5c-0.2,0.1-0.2,0.5-0.2,0.8
		c0,0.5,0.2,0.8,0.5,0.9c0.3,0.3,0.8,0.5,1.3,0.5s1.1-0.1,1.5-0.3c0.4-0.1,0.8-0.6,0.9-1c0.2-0.3,0.3-0.8,0.3-1.5L263.6,146.5
		L263.6,146.5z"/>
	<path class="st0" d="M266.8,148.3l1.5-0.3c0.2,0.6,0.3,1,0.6,1.4c0.3,0.3,0.9,0.5,1.5,0.5c0.6,0,1.2-0.2,1.5-0.5
		c0.3-0.3,0.4-0.6,0.4-0.9s-0.1-0.6-0.4-0.8c-0.2-0.1-0.8-0.3-1.5-0.5c-1.1-0.3-1.8-0.5-2.3-0.8c-0.4-0.1-0.8-0.5-0.9-0.8
		s-0.3-0.8-0.3-1.2s0.1-0.8,0.3-1c0.2-0.3,0.5-0.6,0.8-0.8c0.3-0.1,0.6-0.3,0.9-0.5s0.8-0.1,1.2-0.1c0.6,0,1.2,0.1,1.8,0.3
		c0.4,0.1,0.9,0.5,1.2,0.8s0.5,0.8,0.5,1.3l-1.3,0.2c0-0.5-0.3-0.8-0.6-1c-0.3-0.2-0.8-0.3-1.3-0.3s-1.2,0.1-1.5,0.3
		c-0.3,0.1-0.4,0.5-0.4,0.8c0,0.1,0,0.3,0.1,0.5c0.2,0.1,0.3,0.3,0.6,0.5c0.1,0,0.6,0.1,1.3,0.3c1.1,0.3,1.8,0.5,2.1,0.6
		c0.4,0.2,0.8,0.5,0.9,0.8c0.3,0.3,0.3,0.8,0.3,1.2s-0.2,0.9-0.4,1.4c-0.3,0.5-0.8,0.8-1.2,1c-0.6,0.3-1.2,0.3-1.8,0.3
		c-1.1,0-2-0.3-2.6-0.8C267.3,149.8,266.9,149.2,266.8,148.3z"/>
	<path class="st0" d="M275.6,150.8v-11.9h1.5v4.2c0.8-0.8,1.5-1.2,2.6-1.2c0.6,0,1.2,0.2,1.6,0.3c0.5,0.3,0.8,0.6,1.1,1
		c0.2,0.5,0.3,1,0.3,2v5.4h-1.5v-5.4c0-0.8-0.2-1.2-0.5-1.6c-0.3-0.3-0.8-0.5-1.3-0.5c-0.4,0-0.9,0.1-1.2,0.3
		c-0.5,0.1-0.6,0.5-0.8,0.9c-0.2,0.5-0.3,0.9-0.3,1.7v4.6h-1.5L275.6,150.8L275.6,150.8z"/>
	<path class="st0" d="M284.8,140.6v-1.7h1.5v1.7H284.8z M284.8,150.8v-8.5h1.5v8.5H284.8z"/>
	<path class="st0" d="M288.3,150.8v-8.5h1.3v1.2c0.6-0.9,1.5-1.4,2.7-1.4c0.4,0,1,0.2,1.3,0.3c0.5,0.2,0.8,0.5,0.9,0.8
		c0.1,0.3,0.3,0.6,0.4,1c0,0.3,0.2,0.8,0.2,1.4v5.3h-1.5v-5.3c0-0.6,0-1-0.2-1.4c-0.2-0.3-0.3-0.6-0.6-0.8c-0.3-0.1-0.6-0.3-1-0.3
		c-0.6,0-1.2,0.2-1.7,0.6c-0.4,0.5-0.6,1.2-0.6,2.3v4.6L288.3,150.8L288.3,150.8z"/>
	<path class="st0" d="M297.3,151.4l1.3,0.2c0,0.5,0.2,0.7,0.5,0.9c0.3,0.3,0.9,0.4,1.5,0.4s1.2-0.1,1.5-0.4c0.3-0.3,0.6-0.6,0.8-1.2
		c0-0.3,0.1-0.9,0.1-1.8c-0.6,0.8-1.3,1-2.4,1c-1.2,0-2.1-0.5-2.7-1.2s-0.9-1.8-0.9-3c0-0.8,0.2-1.5,0.4-2.3
		c0.3-0.8,0.8-1.2,1.4-1.6c0.6-0.5,1.2-0.6,1.9-0.6c1.1,0,1.8,0.5,2.6,1.2v-1h1.3v7.4c0,1.3-0.1,2.3-0.4,2.8
		c-0.3,0.6-0.8,1.1-1.3,1.4c-0.6,0.3-1.3,0.4-2.1,0.4c-1.1,0-1.8-0.3-2.4-0.8C297.7,153.1,297.3,152.5,297.3,151.4z M298.5,146.3
		c0,1,0.2,2,0.6,2.4c0.4,0.5,1,0.8,1.6,0.8s1.2-0.3,1.7-0.8c0.4-0.5,0.8-1.3,0.8-2.4c0-1.1-0.3-1.8-0.8-2.4
		c-0.5-0.6-1.1-0.8-1.7-0.8c-0.6,0-1.2,0.3-1.6,0.8C298.7,144.5,298.5,145.3,298.5,146.3z"/>
	<path class="st0" d="M310,149.5l0.1,1.4c-0.4,0.1-0.8,0.1-1,0.1c-0.6,0-0.9-0.1-1.2-0.3c-0.3-0.1-0.4-0.5-0.6-0.6
		c-0.2-0.3-0.2-0.9-0.2-1.7v-5h-1v-1.2h1v-2.1l1.5-0.9v3h1.5v1.2h-1.5v5c0,0.5,0,0.8,0.2,0.8c0.1,0,0.1,0.2,0.3,0.3
		c0.2,0,0.3,0.2,0.5,0.2C309.5,149.5,309.7,149.5,310,149.5z"/>
	<path class="st0" d="M310.8,146.5c0-1.6,0.4-2.7,1.3-3.5c0.8-0.6,1.7-0.9,2.7-0.9c1.2,0,2.1,0.5,2.8,1.2s1.1,1.8,1.1,3.1
		c0,1-0.2,2-0.4,2.5c-0.3,0.6-0.8,1-1.5,1.5c-0.6,0.3-1.4,0.5-2.1,0.5c-1.2,0-2.1-0.5-2.8-1.2C311.2,149,310.8,148,310.8,146.5z
		 M312.3,146.5c0,1,0.3,2,0.8,2.4c0.4,0.6,1.1,0.8,1.8,0.8c0.7,0,1.3-0.3,1.8-0.8c0.5-0.6,0.8-1.4,0.8-2.5c0-1-0.3-1.8-0.8-2.4
		c-0.5-0.6-1-0.8-1.8-0.8c-0.8,0-1.4,0.3-1.8,0.8C312.5,144.5,312.3,145.4,312.3,146.5z"/>
	<path class="st0" d="M320.6,150.8v-8.5h1.3v1.2c0.6-0.9,1.5-1.4,2.7-1.4c0.4,0,1,0.2,1.3,0.3c0.5,0.2,0.8,0.5,0.9,0.8
		c0.1,0.3,0.3,0.6,0.4,1c0,0.3,0.2,0.8,0.2,1.4v5.3h-1.5v-5.3c0-0.6,0-1-0.2-1.4c-0.2-0.3-0.3-0.6-0.6-0.8c-0.3-0.1-0.6-0.3-1-0.3
		c-0.6,0-1.2,0.2-1.7,0.6c-0.4,0.5-0.6,1.2-0.6,2.3v4.6L320.6,150.8L320.6,150.8z"/>
	<path class="st0" d="M335.9,150.8l-2.6-8.5h1.5l1.4,5l0.5,1.8c0-0.2,0.1-0.8,0.4-1.8l1.4-5h1.5l1.3,5l0.5,1.6l0.5-1.6l1.5-5h1.3
		l-2.7,8.5h-1.5l-1.3-5.1l-0.3-1.5l-1.8,6.6H335.9z"/>
	<path class="st0" d="M346.3,140.6v-1.7h1.5v1.7H346.3z M346.3,150.8v-8.5h1.5v8.5H346.3z"/>
	<path class="st0" d="M349.8,150.8v-8.5h1.4v1.2c0.6-0.9,1.5-1.4,2.7-1.4c0.4,0,1,0.2,1.3,0.3c0.5,0.2,0.8,0.5,0.9,0.8
		s0.3,0.6,0.4,1c0,0.3,0.2,0.8,0.2,1.4v5.3h-1.5v-5.3c0-0.6,0-1-0.2-1.4c-0.1-0.3-0.3-0.6-0.6-0.8c-0.3-0.1-0.6-0.3-1-0.3
		c-0.6,0-1.2,0.2-1.7,0.6c-0.5,0.4-0.6,1.2-0.6,2.3v4.6L349.8,150.8L349.8,150.8z"/>
	<path class="st0" d="M364.8,148l1.5,0.2c-0.3,0.9-0.6,1.5-1.3,2.1c-0.6,0.5-1.5,0.8-2.4,0.8c-1.2,0-2.3-0.5-3-1.2s-1-1.8-1-3.3
		s0.3-2.5,1-3.3s1.7-1.2,2.9-1.2c1.2,0,2.1,0.5,2.9,1.2s1,1.8,1,3.3c0,0.2,0,0.2,0,0.5h-6.5c0,0.9,0.3,1.7,0.8,2.1
		c0.5,0.4,1,0.8,1.8,0.8c0.6,0,1-0.2,1.4-0.5C364.4,149,364.7,148.6,364.8,148z M360.2,145.7h4.8c0-0.8-0.3-1.2-0.6-1.6
		c-0.5-0.6-1.1-0.9-1.8-0.9c-0.6,0-1.2,0.2-1.6,0.6C360.5,144.4,360.2,145,360.2,145.7z"/>
	<path class="st0" d="M367.7,148.3l1.5-0.3c0.1,0.6,0.3,1,0.6,1.4c0.3,0.3,0.9,0.5,1.5,0.5s1.2-0.2,1.5-0.5s0.5-0.6,0.5-0.9
		s-0.2-0.6-0.5-0.8c-0.1-0.1-0.8-0.3-1.5-0.5c-1-0.3-1.8-0.5-2.3-0.8c-0.5-0.1-0.8-0.5-0.9-0.8c-0.2-0.3-0.3-0.8-0.3-1.2
		s0.2-0.8,0.3-1s0.4-0.6,0.8-0.8c0.3-0.1,0.6-0.3,0.9-0.5s0.8-0.1,1.2-0.1c0.6,0,1.2,0.1,1.8,0.3c0.5,0.1,0.9,0.5,1.2,0.8
		s0.5,0.8,0.5,1.3l-1.4,0.2c0-0.5-0.3-0.8-0.6-1c-0.3-0.3-0.8-0.3-1.4-0.3s-1.2,0.1-1.5,0.3c-0.3,0.1-0.5,0.5-0.5,0.8
		c0,0.1,0,0.3,0.2,0.5c0.2,0.1,0.3,0.3,0.6,0.5c0.2,0,0.6,0.1,1.4,0.3c1,0.3,1.8,0.5,2.1,0.6c0.4,0.2,0.8,0.5,0.9,0.8
		c0.3,0.3,0.3,0.8,0.3,1.2s-0.1,0.9-0.4,1.4s-0.8,0.8-1.2,1c-0.6,0.3-1.2,0.3-1.8,0.3c-1.1,0-2-0.3-2.6-0.8
		C368.2,149.8,367.8,149.2,367.7,148.3z"/>
	<path class="st0" d="M257,153.1v-1.2h118.3v1.2H257z"/>
</g>
</svg>
