<?xml version="1.0" encoding="utf-8"?>
<!-- Generator: Adobe Illustrator 19.2.1, SVG Export Plug-In . SVG Version: 6.00 Build 0)  -->
<svg version="1.1" id="Layer_1" xmlns="http://www.w3.org/2000/svg" xmlns:xlink="http://www.w3.org/1999/xlink" x="0px" y="0px"
	 width="59.4px" height="65.7px" viewBox="0 0 59.4 65.7" style="enable-background:new 0 0 59.4 65.7;" xml:space="preserve">
<style type="text/css">
	.st0{fill:#00B294;}
	.st1{fill:none;stroke:#737373;stroke-width:2.9753;stroke-miterlimit:10;}
	.st2{fill:#FFFFFF;}
	.st3{fill:#737373;}
</style>
<circle class="st0" cx="15.8" cy="15.8" r="8.9"/>
<circle class="st1" cx="15.8" cy="15.8" r="14.3"/>
<g>
	<polygon class="st2" points="28.6,48.9 14.8,60.8 14.8,12.7 56.5,45.8 37.8,45.8 46.6,60.5 37.9,64.4 	"/>
	<path class="st3" d="M15.8,14.8l37.8,30.1H36L45.1,60l-6.9,3.1l-9.4-15.8l-13,11.3V14.8 M13.8,10.5v4.2v43.8V63l3.4-2.9l11.2-9.7
		l8.2,13.7l0.9,1.6l1.7-0.7l6.9-3.1l2.1-0.9l-1.2-2l-7.2-12.1h14h5.8l-4.6-3.6L17.1,13.2L13.8,10.5L13.8,10.5z"/>
</g>
</svg>
