<?xml version="1.0" encoding="utf-8"?>
<!-- Generator: Adobe Illustrator 22.1.0, SVG Export Plug-In . SVG Version: 6.00 Build 0)  -->
<svg version="1.1" id="Layer_1" xmlns="http://www.w3.org/2000/svg" xmlns:xlink="http://www.w3.org/1999/xlink" x="0px" y="0px"
	 width="431px" height="124.3px" viewBox="0 0 431 124.3" style="enable-background:new 0 0 431 124.3;" xml:space="preserve">
<style type="text/css">
	.st0{fill:#0012FF;}
	.st1{enable-background:new    ;}
	.st2{fill:#009245;}
	.st3{fill:#999999;}
	.st4{fill:#737373;}
	.st5{fill:#0000FF;}
	.st6{fill:#FF8C00;}
	.st7{fill:#D2D2D2;}
	.st8{fill:none;stroke:#008272;stroke-width:4;stroke-miterlimit:10;}
	.st9{fill:#666666;}
</style>
<title>Asset 10</title>
<g>
	<path class="st0" d="M12.1,9.7l2,0.5c-0.5,1.6-1.2,2.8-2.3,3.6c-1,0.8-2.4,1.2-3.9,1.2C6.3,15,5,14.7,4,14.1
		c-1.1-0.6-1.8-1.6-2.3-2.8c-0.5-1-0.8-2.4-0.8-3.8c0-1.5,0.3-2.8,0.9-4c0.6-1.1,1.4-2,2.6-2.6S6.7,0,8,0c1.5,0,2.7,0.3,3.8,1.2
		c1.1,0.9,1.7,1.6,2,3.1l-2,0.5c-0.3-1.1-0.9-1.8-1.5-2.4C9.7,2,9,1.6,7.9,1.6C6.7,1.6,5.8,1.9,5,2.4C4.2,3,3.8,3.8,3.5,4.7
		C3.1,5.6,2.9,6.5,2.9,7.5c0,1.2,0.3,2.4,0.6,3.3c0.3,0.9,0.9,1.7,1.7,2.1c0.8,0.5,1.7,0.8,2.6,0.8c1,0,1.9-0.3,2.7-0.9
		C11.4,12,11.8,11.1,12.1,9.7z"/>
	<path class="st0" d="M15.5,9.6c0-1.9,0.6-3.4,1.7-4.3c0.9-0.8,2.1-1.2,3.3-1.2c1.5,0,2.7,0.5,3.6,1.5c0.9,0.9,1.3,2.3,1.3,3.9
		c0,1.3-0.2,2.4-0.6,3.3c-0.5,0.8-1,1.3-1.8,1.8s-1.7,0.6-2.5,0.6c-1.5,0-2.7-0.5-3.6-1.5C16,12.7,15.5,11.4,15.5,9.6z M17.4,9.6
		c0,1.3,0.3,2.4,0.9,3c0.6,0.6,1.3,1,2.3,1c0.9,0,1.6-0.3,2.3-1c0.6-0.8,0.9-1.8,0.9-3.1s-0.3-2.3-0.9-3c-0.6-0.8-1.4-1.1-2.3-1.1
		c-0.9,0-1.7,0.3-2.3,1.1C17.7,7.2,17.4,8.2,17.4,9.6z"/>
	<path class="st0" d="M27.7,15V0.3h1.8v5.3c0.9-1.1,1.9-1.5,3.1-1.5c0.8,0,1.5,0.1,2.1,0.4c0.6,0.3,0.9,0.8,1.2,1.3
		c0.3,0.6,0.4,1.4,0.4,2.4v6.7h-1.8V8.2c0-0.9-0.2-1.5-0.6-1.9c-0.5-0.5-1-0.8-1.6-0.8s-1.1,0.1-1.5,0.4c-0.5,0.3-0.9,0.8-1.1,1.2
		c-0.2,0.5-0.3,1.2-0.3,1.9v5.8C29.5,15,27.7,15,27.7,15z"/>
	<path class="st0" d="M38.4,9.6c0-1.9,0.6-3.4,1.6-4.3c0.9-0.8,2.1-1.2,3.3-1.2c1.5,0,2.7,0.5,3.6,1.5c1,0.9,1.5,2.3,1.5,3.9
		c0,1.3-0.1,2.4-0.6,3.3c-0.5,0.8-1.1,1.3-1.8,1.8c-0.7,0.5-1.6,0.6-2.5,0.6c-1.5,0-2.7-0.5-3.6-1.5C39,12.7,38.4,11.4,38.4,9.6z
		 M40.3,9.6c0,1.3,0.3,2.4,0.9,3c0.6,0.6,1.3,1,2.3,1s1.7-0.3,2.3-1s0.9-1.8,0.9-3.1s-0.3-2.3-0.9-3c-0.6-0.7-1.3-1.1-2.3-1.1
		s-1.7,0.3-2.3,1S40.3,8.2,40.3,9.6z"/>
	<path class="st0" d="M59.1,15L55.2,0.3h1.9l2.3,9.6c0.3,1,0.4,2,0.6,3c0.4-1.5,0.6-2.6,0.6-2.7l3-9.9H66l2.1,7.5
		c0.6,1.8,0.9,3.6,1.2,5.3c0.1-0.9,0.4-2,0.8-3.2l2.1-9.6h1.9L70,15h-1.9L65,3.7c-0.3-0.9-0.4-1.5-0.4-1.8c0,0.8-0.1,1.3-0.3,1.8
		L61.2,15C61.2,15,59.1,15,59.1,15z"/>
	<path class="st0" d="M75.7,2.2v-2h1.8v2.1h-1.8V2.2z M75.7,15V4.3h1.8v10.6C77.5,15,75.7,15,75.7,15z"/>
	<path class="st0" d="M80.2,15V4.3h1.6v1.5C82.6,4.6,83.7,4,85.2,4c0.6,0,1.2,0.1,1.8,0.3c0.6,0.3,0.9,0.6,1.2,0.9
		c0.3,0.3,0.4,0.8,0.6,1.3c0,0.3,0.1,0.9,0.1,1.8v6.6h-1.8V8.5c0-0.8,0-1.4-0.1-1.6c-0.1-0.3-0.4-0.6-0.8-0.9
		c-0.3-0.1-0.8-0.3-1.2-0.3c-0.8,0-1.5,0.3-1.9,0.8c-0.6,0.4-0.9,1.3-0.9,2.8v5.8L80.2,15L80.2,15z"/>
	<path class="st0" d="M99,11.5l1.8,0.3c-0.3,1-0.9,2-1.6,2.5c-0.7,0.5-1.8,0.9-3,0.9c-1.5,0-2.9-0.5-3.8-1.5
		c-0.9-0.9-1.4-2.3-1.4-4.1s0.4-3.1,1.4-4.2c0.9-1.1,2.1-1.5,3.6-1.5s2.5,0.4,3.5,1.5c1,0.9,1.5,2.3,1.5,4c0,0.2,0,0.3,0,0.5h-8
		c0,1.2,0.4,2.1,1.1,2.7c0.6,0.6,1.4,0.9,2.2,0.9c0.6,0,1.2-0.2,1.6-0.5C98.3,12.9,98.8,12.3,99,11.5z M93.1,8.5h6
		c-0.1-0.9-0.3-1.5-0.8-2c-0.6-0.8-1.4-1-2.3-1c-0.9,0-1.5,0.3-2.1,0.9C93.4,6.9,93.1,7.6,93.1,8.5z"/>
	<path class="st0" d="M103.2,15V4.3h1.6V6c0.5-0.8,0.8-1.2,1.2-1.5c0.3-0.3,0.8-0.3,1.2-0.3c0.6,0,1.2,0.1,1.8,0.6l-0.8,1.5
		c-0.5-0.3-0.9-0.5-1.4-0.5s-0.8,0.2-1,0.3c-0.3,0.3-0.6,0.6-0.6,1c-0.2,0.8-0.3,1.4-0.3,2.3v5.5L103.2,15L103.2,15z"/>
	<path class="st0" d="M109.9,19l-0.1-1.6c0.5,0.2,0.8,0.2,1,0.2c0.5,0,0.8,0,0.9-0.2c0.3-0.2,0.5-0.3,0.6-0.6
		c0.1-0.2,0.3-0.6,0.6-1.3c0-0.2,0.1-0.3,0.1-0.5l-4-10.6h1.9l2.3,6.1c0.3,0.7,0.6,1.6,0.8,2.4c0.1-0.9,0.5-1.7,0.8-2.4l2.3-6.2h1.8
		l-4,10.8c-0.5,1.2-0.8,2-1,2.4c-0.3,0.6-0.8,1-1,1.3c-0.5,0.3-0.9,0.5-1.5,0.5C110.8,19.3,110.3,19.2,109.9,19z"/>
	<path class="st0" d="M125.3,10.5V8.7h5.5v1.8H125.3z"/>
	<path class="st0" d="M0,17.8v-1.5h131.5v1.5C131.5,17.8,0,17.8,0,17.8z"/>
</g>
<g class="st1">
	<path class="st0" d="M131.5,17.8v-1.5h4.5v1.5C136,17.8,131.5,17.8,131.5,17.8z"/>
</g>
<g class="st1">
	<path class="st0" d="M136.2,15l5.5-14.7h2.1l6,14.7h-2.3l-1.6-4.5h-6.1l-1.7,4.5C138.1,15,136.2,15,136.2,15z M140.4,8.8h4.9
		l-1.5-4c-0.4-1.2-0.8-2.3-1-3c-0.2,0.9-0.5,2-0.8,2.9L140.4,8.8z"/>
	<path class="st0" d="M151.2,15V0.3h1.8V15C153,15,151.2,15,151.2,15z"/>
	<path class="st0" d="M155.8,15V0.3h1.8V15C157.6,15,155.8,15,155.8,15z"/>
	<path class="st0" d="M166,15V4.3h1.6V6c0.5-0.8,0.8-1.2,1.2-1.5c0.3-0.3,0.8-0.3,1.2-0.3c0.6,0,1.2,0.1,1.8,0.6l-0.6,1.5
		c-0.5-0.3-0.9-0.5-1.4-0.5c-0.4,0-0.8,0.2-1,0.3c-0.3,0.3-0.6,0.6-0.6,1c-0.1,0.6-0.3,1.4-0.3,2.1v5.5h-2V15
		C165.9,15,166,15,166,15z"/>
	<path class="st0" d="M180.2,11.5l1.8,0.3c-0.3,1-0.9,2-1.7,2.5c-0.8,0.5-1.8,0.9-3,0.9c-1.5,0-2.8-0.5-3.8-1.5
		c-0.9-0.9-1.3-2.3-1.3-4.1s0.5-3.1,1.3-4.2c0.9-1.1,2.1-1.5,3.6-1.5s2.5,0.4,3.5,1.5c0.9,0.9,1.3,2.4,1.3,4c0,0.2,0,0.3,0,0.5H174
		c0,1.2,0.4,2.1,1,2.7c0.6,0.6,1.4,0.9,2.3,0.9c0.6,0,1.2-0.2,1.7-0.5C179.7,12.9,180,12.3,180.2,11.5z M174.2,8.5h6
		c-0.1-0.9-0.3-1.5-0.8-2c-0.6-0.8-1.4-1-2.3-1c-0.9,0-1.5,0.3-2.1,0.9C174.7,6.9,174.4,7.6,174.2,8.5z"/>
	<path class="st0" d="M191.4,15v-1.3c-0.8,1-1.7,1.7-3,1.7c-0.9,0-1.7-0.3-2.4-0.7s-1.2-1-1.7-2c-0.4-0.9-0.6-1.8-0.6-2.8
		s0.2-2.1,0.6-2.9c0.3-0.9,0.9-1.5,1.7-1.9s1.5-0.8,2.4-0.8c0.6,0,1.2,0.2,1.6,0.5s0.9,0.6,1.2,1V0.4h1.8v14.7L191.4,15L191.4,15z
		 M185.5,9.6c0,1.3,0.3,2.4,0.9,3c0.6,0.8,1.2,1,2.1,1c0.8,0,1.5-0.3,2-0.9c0.6-0.6,0.9-1.7,0.9-3c0-1.5-0.3-2.6-0.9-3.1
		c-0.6-0.8-1.2-1.1-2.1-1.1c-0.8,0-1.5,0.3-2,1.1C185.8,7.2,185.5,8.2,185.5,9.6z"/>
	<path class="st0" d="M203.5,15l-3.3-10.6h1.8l1.7,6.1l0.6,2.3c0-0.2,0.2-0.9,0.6-2.3l1.7-6.3h1.8l1.6,6.2l0.6,2.1l0.6-2.1l1.8-6.1
		h1.8l-3.3,10.6h-1.9l-1.7-6.5l-0.4-1.8l-2.1,8.3L203.5,15L203.5,15z"/>
	<path class="st0" d="M216.4,2.2v-2h1.8v2.1h-1.8V2.2z M216.4,15V4.3h1.8v10.6C218.2,15,216.4,15,216.4,15z"/>
	<path class="st0" d="M220.9,15V4.3h1.7v1.5c0.8-1.2,1.9-1.8,3.4-1.8c0.6,0,1.2,0.1,1.8,0.3c0.6,0.3,0.9,0.6,1.2,0.9
		c0.3,0.3,0.5,0.8,0.6,1.3c0,0.3,0.1,0.9,0.1,1.8v6.6h-1.8V8.5c0-0.8,0-1.4-0.1-1.6c-0.2-0.3-0.5-0.6-0.8-0.9
		c-0.3-0.1-0.8-0.3-1.2-0.3c-0.8,0-1.5,0.3-2,0.8c-0.6,0.4-0.9,1.4-0.9,2.8v5.8L220.9,15L220.9,15z"/>
	<path class="st0" d="M239.7,11.5l1.8,0.3c-0.3,1-0.9,2-1.6,2.5s-1.8,0.9-3,0.9c-1.5,0-2.9-0.5-3.8-1.5c-0.9-0.9-1.4-2.3-1.4-4.1
		s0.5-3.1,1.4-4.2s2.1-1.5,3.6-1.5s2.6,0.4,3.5,1.5c0.9,0.9,1.3,2.4,1.3,4c0,0.2,0,0.3,0,0.5h-7.9c0,1.2,0.4,2.1,1,2.7
		s1.3,0.9,2.3,0.9c0.6,0,1.2-0.2,1.7-0.5C239.1,12.9,239.5,12.3,239.7,11.5z M233.8,8.5h6c-0.2-0.9-0.3-1.5-0.8-2
		c-0.6-0.8-1.4-1-2.3-1c-0.9,0-1.5,0.3-2.1,0.9C234.1,6.9,233.8,7.6,233.8,8.5z"/>
	<path class="st0" d="M243.1,11.8l1.8-0.3c0.2,0.8,0.5,1.2,0.9,1.7s1.1,0.6,1.9,0.6c0.9,0,1.5-0.2,1.8-0.5c0.4-0.3,0.6-0.8,0.6-1.2
		s-0.2-0.8-0.6-0.9c-0.3-0.2-0.9-0.3-1.8-0.6c-1.3-0.3-2.3-0.6-2.7-0.9c-0.4-0.3-0.9-0.6-1.2-1.1c-0.3-0.4-0.5-0.9-0.5-1.5
		c0-0.4,0.2-0.9,0.3-1.3c0.2-0.5,0.5-0.8,0.9-1.1c0.3-0.1,0.6-0.4,1.2-0.6c0.4-0.1,1.1-0.1,1.5-0.1c0.9,0,1.5,0.1,2.3,0.3
		c0.8,0.1,1.1,0.6,1.3,1s0.5,0.9,0.6,1.6l-1.8,0.3c-0.1-0.6-0.3-1.1-0.8-1.4c-0.4-0.3-0.9-0.4-1.6-0.4c-0.9,0-1.4,0.1-1.8,0.4
		c-0.3,0.3-0.6,0.6-0.6,0.9c0,0.3,0,0.5,0.2,0.6s0.4,0.3,0.8,0.5c0.2,0,0.8,0.1,1.7,0.4c1.3,0.3,2.1,0.6,2.7,0.9
		c0.4,0.2,0.9,0.6,1.2,0.9c0.3,0.5,0.4,0.9,0.4,1.5s-0.1,1.2-0.6,1.7c-0.3,0.6-0.9,0.9-1.5,1.2c-0.6,0.3-1.4,0.5-2.3,0.5
		c-1.4,0-2.4-0.3-3.2-0.9C243.9,13.8,243.4,12.9,243.1,11.8z"/>
	<path class="st0" d="M259.2,9.6c0-1.9,0.6-3.4,1.7-4.3c0.9-0.8,2.1-1.2,3.3-1.2c1.5,0,2.7,0.5,3.6,1.5c0.9,0.9,1.4,2.3,1.4,4.1
		c0,1.3-0.2,2.4-0.6,3.3c-0.4,0.8-1,1.3-1.8,1.8s-1.7,0.6-2.5,0.6c-1.5,0-2.7-0.5-3.6-1.5C259.6,12.7,259.2,11.4,259.2,9.6z
		 M261.1,9.6c0,1.3,0.3,2.4,0.9,3c0.6,0.6,1.4,1,2.3,1c0.9,0,1.7-0.3,2.3-1c0.6-0.8,0.9-1.8,0.9-3.1s-0.3-2.3-0.9-3
		c-0.6-0.8-1.3-1.1-2.3-1.1c-0.9,0-1.6,0.3-2.3,1.1C261.4,7.2,261.1,8.2,261.1,9.6z"/>
	<path class="st0" d="M271.3,15V4.3h1.6v1.5c0.8-1.2,2-1.8,3.5-1.8c0.6,0,1.2,0.1,1.8,0.3c0.6,0.3,0.9,0.6,1.2,0.9
		c0.3,0.3,0.5,0.8,0.6,1.3c0,0.3,0.2,0.9,0.2,1.8v6.6h-1.8V8.5c0-0.8,0-1.4-0.2-1.6c-0.1-0.3-0.4-0.6-0.8-0.9
		c-0.3-0.1-0.8-0.3-1.2-0.3c-0.8,0-1.5,0.3-1.9,0.8c-0.5,0.4-0.9,1.3-0.9,2.8v5.8L271.3,15L271.3,15z"/>
	<path class="st0" d="M287.8,11.8l1.8-0.3c0.2,0.8,0.5,1.2,0.9,1.7s1.1,0.6,1.9,0.6c0.9,0,1.5-0.2,1.8-0.5c0.4-0.3,0.6-0.8,0.6-1.2
		s-0.2-0.8-0.6-0.9c-0.3-0.2-0.9-0.3-1.8-0.6c-1.3-0.3-2.3-0.6-2.7-0.9c-0.4-0.3-0.9-0.6-1.2-1.1c-0.3-0.4-0.5-0.9-0.5-1.5
		c0-0.4,0.2-0.9,0.3-1.3c0.2-0.5,0.5-0.8,0.9-1.1c0.3-0.1,0.6-0.4,1.2-0.6c0.4-0.1,1.1-0.1,1.5-0.1c0.9,0,1.5,0.1,2.3,0.3
		c0.8,0.1,1.1,0.6,1.3,1s0.5,0.9,0.6,1.6l-1.8,0.3c-0.1-0.6-0.3-1.1-0.8-1.4c-0.4-0.3-0.9-0.4-1.6-0.4c-0.9,0-1.4,0.1-1.8,0.4
		c-0.3,0.3-0.6,0.6-0.6,0.9c0,0.3,0,0.5,0.2,0.6s0.4,0.3,0.8,0.5c0.2,0,0.8,0.1,1.7,0.4c1.3,0.3,2.1,0.6,2.7,0.9
		c0.4,0.2,0.9,0.6,1.2,0.9c0.3,0.5,0.4,0.9,0.4,1.5s-0.1,1.2-0.6,1.7c-0.3,0.6-0.9,0.9-1.5,1.2c-0.6,0.3-1.4,0.5-2.3,0.5
		c-1.4,0-2.4-0.3-3.2-0.9C288.4,13.8,287.9,12.9,287.8,11.8z"/>
	<path class="st0" d="M305.7,13.6c-0.6,0.6-1.3,0.9-2,1.2c-0.6,0.3-1.3,0.3-1.9,0.3c-1.2,0-2.1-0.3-2.7-0.9
		c-0.6-0.6-0.9-1.3-0.9-2.3c0-0.5,0.2-1,0.3-1.5c0.1-0.5,0.6-0.8,0.9-1.1c0.5-0.3,0.8-0.4,1.3-0.6c0.3-0.2,0.9-0.2,1.7-0.3
		c1.5-0.1,2.5-0.4,3.3-0.6c0-0.3,0-0.4,0-0.4c0-0.8-0.1-1.2-0.4-1.5c-0.4-0.5-1.2-0.6-2.1-0.6c-0.9,0-1.5,0.1-2,0.5
		c-0.4,0.3-0.8,0.9-0.9,1.6l-1.8-0.1c0.2-0.8,0.5-1.3,0.8-1.8s0.9-0.8,1.7-1.1c0.8-0.3,1.5-0.4,2.4-0.4c0.9,0,1.7,0.1,2.3,0.3
		s1.1,0.5,1.2,0.8c0.3,0.3,0.5,0.8,0.6,1.2c0,0.3,0.2,0.9,0.2,1.6v2.4c0,1.7,0,2.7,0.2,3.1c0.2,0.5,0.3,0.9,0.4,1.3h-1.9
		C305.9,14.5,305.8,14.1,305.7,13.6z M305.5,9.6c-0.6,0.3-1.7,0.5-3,0.8c-0.8,0.2-1.2,0.3-1.7,0.3c-0.3,0.2-0.6,0.3-0.8,0.6
		c-0.2,0.3-0.2,0.5-0.2,0.8c0,0.5,0.1,0.9,0.6,1.2c0.3,0.3,0.9,0.5,1.7,0.5s1.3-0.2,1.8-0.5c0.6-0.3,0.9-0.8,1.2-1.2
		c0.1-0.5,0.3-1,0.3-1.8V9.5h0.1V9.6L305.5,9.6z"/>
	<path class="st0" d="M310.2,15V0.3h1.8V15C312,15,310.2,15,310.2,15z"/>
	<path class="st0" d="M322.2,11.5l1.8,0.3c-0.3,1-0.9,2-1.6,2.5s-1.8,0.9-3,0.9c-1.5,0-2.9-0.5-3.8-1.5c-0.9-0.9-1.4-2.3-1.4-4.1
		s0.5-3.1,1.4-4.2c0.9-1.1,2.1-1.5,3.6-1.5s2.6,0.4,3.5,1.5c0.9,0.9,1.3,2.4,1.3,4c0,0.2,0,0.3,0,0.5h-7.9c0,1.2,0.4,2.1,1,2.7
		s1.3,0.9,2.3,0.9c0.6,0,1.2-0.2,1.7-0.5C321.4,12.9,321.9,12.3,322.2,11.5z M316.2,8.5h6c-0.2-0.9-0.3-1.5-0.8-2
		c-0.6-0.8-1.3-1-2.3-1s-1.5,0.3-2.1,0.9C316.4,6.9,316.2,7.6,316.2,8.5z"/>
	<path class="st0" d="M327.2,11.2l-0.6-7.8V0.2h2.3v3.3l-0.5,7.8L327.2,11.2L327.2,11.2z M326.7,15v-2.1h2.1V15H326.7z"/>
	<path class="st0" d="M136.2,17.8v-1.5h194.4v1.5C330.6,17.8,136.2,17.8,136.2,17.8z"/>
</g>
<g class="st1">
	<path class="st2" d="M30,38.2l1.3,0.2c-0.2,1.1-0.6,1.8-1.2,2.3c-0.6,0.6-1.5,0.9-2.4,0.9c-1.2,0-2.1-0.4-2.8-1.2s-1-1.8-1-3.3
		c0-0.9,0.1-1.8,0.5-2.4c0.3-0.8,0.8-1.2,1.3-1.5c0.5-0.3,1.3-0.4,2.1-0.4c0.9,0,1.7,0.3,2.3,0.8s0.9,1.2,1.2,1.9L30,35.6
		c-0.2-0.6-0.3-1.1-0.8-1.3c-0.3-0.3-0.8-0.4-1.2-0.4c-0.8,0-1.3,0.3-1.8,0.8c-0.5,0.4-0.6,1.5-0.6,2.7s0.2,1.9,0.6,2.6
		c0.5,0.6,1.1,0.8,1.7,0.8s1.1-0.2,1.3-0.4C29.6,39.6,29.8,39,30,38.2z"/>
	<path class="st2" d="M32,37.2c0-1.7,0.5-2.7,1.3-3.4c0.8-0.6,1.7-0.9,2.7-0.9c1.2,0,2.1,0.4,2.8,1.2c0.7,0.8,1.1,1.8,1.1,3.2
		c0,1.1-0.2,1.9-0.5,2.6c-0.3,0.6-0.8,1.1-1.5,1.5c-0.7,0.4-1.3,0.4-2.1,0.4c-1.2,0-2.1-0.4-2.8-1.2C32.5,39.7,32,38.5,32,37.2z
		 M33.5,37.2c0,1.1,0.3,1.9,0.8,2.4c0.5,0.6,1.1,0.8,1.8,0.8s1.3-0.3,1.8-0.8c0.5-0.6,0.8-1.3,0.8-2.6c0-1.1-0.3-1.8-0.8-2.4
		c-0.4-0.6-1-0.8-1.8-0.8s-1.3,0.3-1.8,0.8C33.9,35.2,33.5,36,33.5,37.2z"/>
	<path class="st2" d="M41.8,41.4V29.5h1.5v4.2c0.8-0.8,1.5-1.2,2.6-1.2c0.6,0,1.2,0.2,1.6,0.3c0.4,0.3,0.8,0.6,1.1,1.1
		c0.3,0.5,0.3,1.1,0.3,1.9v5.4h-1.5v-5.4c0-0.8-0.1-1.2-0.4-1.6c-0.3-0.3-0.8-0.4-1.3-0.4s-0.9,0.2-1.2,0.3c-0.3,0.2-0.8,0.7-0.9,1
		c-0.2,0.3-0.3,0.9-0.3,1.7v4.6C43.2,41.4,41.8,41.4,41.8,41.4z"/>
	<path class="st2" d="M50.3,37.2c0-1.7,0.4-2.7,1.4-3.4c0.8-0.6,1.6-0.9,2.7-0.9c1.2,0,2.1,0.4,2.9,1.2c0.8,0.8,1.1,1.8,1.1,3.2
		c0,1.1-0.1,1.9-0.4,2.6c-0.3,0.7-0.8,1.1-1.5,1.5c-0.7,0.4-1.4,0.4-2.1,0.4c-1.2,0-2.1-0.4-2.9-1.2C50.8,39.7,50.3,38.5,50.3,37.2z
		 M51.8,37.2c0,1.1,0.3,1.9,0.8,2.4c0.4,0.6,1.1,0.8,1.8,0.8s1.4-0.3,1.8-0.8C56.6,39,57,38.3,57,37c0-1.1-0.3-1.8-0.8-2.4
		c-0.4-0.6-1.1-0.8-1.8-0.8s-1.4,0.3-1.8,0.8C52.2,35.2,51.8,36,51.8,37.2z"/>
	<path class="st2" d="M61.6,41.4L59,32.9h1.5l1.4,4.9l0.4,1.8c0-0.1,0.1-0.8,0.4-1.8l1.4-4.9h1.5l1.4,4.9l0.4,1.7l0.4-1.7l1.5-4.9
		h1.5l-2.7,8.6h-1.5l-1.4-5.1l-0.3-1.5l-1.8,6.6L61.6,41.4L61.6,41.4z"/>
	<path class="st2" d="M72,31.3v-1.7h1.5v1.7H72z M72,41.4v-8.5h1.5v8.6C73.5,41.4,72,41.4,72,41.4z"/>
	<path class="st2" d="M75.7,41.4v-8.5h1.4v1.2c0.6-0.9,1.5-1.3,2.7-1.3c0.4,0,1.1,0.2,1.4,0.3c0.4,0.2,0.8,0.4,0.9,0.8
		c0.1,0.4,0.3,0.6,0.4,1.1c0,0.3,0.1,0.8,0.1,1.3v5.3h-1.5v-5.3c0-0.6,0-1.1-0.1-1.3c-0.1-0.3-0.3-0.4-0.6-0.8
		c-0.3-0.4-0.6-0.3-1.1-0.3c-0.6,0-1.2,0.2-1.6,0.6s-0.6,1.2-0.6,2.2v4.7H75.7L75.7,41.4z"/>
	<path class="st2" d="M90.7,38.7l1.5,0.1c-0.3,0.9-0.6,1.5-1.4,2.1c-0.6,0.4-1.5,0.8-2.4,0.8c-1.2,0-2.3-0.4-3-1.2
		c-0.7-0.8-1.1-1.8-1.1-3.3s0.3-2.6,1.1-3.3c0.8-0.7,1.6-1.2,2.9-1.2c1.2,0,2.1,0.4,2.9,1.2c0.8,0.8,1.1,1.8,1.1,3.3
		c0,0.1,0,0.1,0,0.4H86c0,0.9,0.3,1.6,0.8,2.1s1.1,0.8,1.8,0.8c0.6,0,1.1-0.1,1.4-0.4C90.1,39.7,90.4,39.3,90.7,38.7z M85.9,36.3
		h4.8c0-0.8-0.3-1.2-0.6-1.6c-0.4-0.6-1.1-0.9-1.8-0.9c-0.6,0-1.2,0.2-1.6,0.6C86.3,34.8,85.9,35.5,85.9,36.3z"/>
	<path class="st2" d="M94,41.4v-8.5h1.4v1.3c0.3-0.6,0.6-1.1,0.9-1.2c0.3-0.2,0.6-0.3,0.9-0.3c0.5,0,1,0.2,1.5,0.4l-0.5,1.3
		c-0.3-0.2-0.8-0.3-1-0.3c-0.2,0-0.6,0.2-0.9,0.3c-0.3,0.1-0.5,0.5-0.6,0.8c-0.1,0.4-0.3,1.1-0.3,1.7v4.5H94z"/>
</g>
<g class="st1">
	<path class="st2" d="M99.4,44.7l-0.1-1.4c0.3,0.2,0.6,0.2,0.9,0.2c0.3,0,0.6,0,0.8-0.2c0.1-0.1,0.3-0.3,0.5-0.4
		c0.1-0.1,0.3-0.4,0.5-1.1c0-0.1,0-0.1,0.1-0.3l-3.3-8.6h1.5l1.8,4.8c0.3,0.6,0.5,1.4,0.6,1.9c0.1-0.6,0.3-1.3,0.6-1.9l1.8-4.9h1.5
		l-3.3,8.7c-0.3,0.9-0.6,1.7-0.8,1.9c-0.3,0.4-0.6,0.9-0.9,1.1c-0.3,0.2-0.8,0.3-1.2,0.3C100,44.8,99.7,44.8,99.4,44.7z"/>
</g>
<g class="st1">
	<path class="st2" d="M106.9,41.4v-1.7h1.6v1.7H106.9z"/>
	<path class="st2" d="M116.7,38.2l1.4,0.2c-0.1,1.1-0.6,1.8-1.2,2.3c-0.6,0.6-1.5,0.9-2.4,0.9c-1.2,0-2.1-0.4-2.9-1.2s-1-1.8-1-3.3
		c0-0.9,0.1-1.8,0.5-2.4c0.3-0.6,0.8-1.2,1.4-1.5c0.6-0.3,1.4-0.4,2.1-0.4c0.9,0,1.6,0.3,2.3,0.8s0.9,1.2,1.2,1.9l-1.4,0.1
		c-0.1-0.6-0.3-1.1-0.8-1.3c-0.3-0.3-0.8-0.4-1.2-0.4c-0.8,0-1.4,0.3-1.8,0.8s-0.8,1.3-0.8,2.6c0,1.2,0.1,1.9,0.6,2.6s1,0.8,1.6,0.8
		c0.6,0,1-0.2,1.4-0.4C116.2,39.6,116.5,39,116.7,38.2z"/>
	<path class="st2" d="M118.7,37.2c0-1.7,0.5-2.7,1.4-3.4c0.8-0.6,1.6-0.9,2.7-0.9c1.2,0,2.1,0.4,2.9,1.2c0.8,0.8,1,1.8,1,3.2
		c0,1.1-0.1,1.9-0.5,2.6c-0.3,0.6-0.8,1.1-1.5,1.5c-0.7,0.4-1.4,0.4-2.1,0.4c-1.2,0-2.1-0.4-2.9-1.2
		C119.1,39.7,118.7,38.5,118.7,37.2z M120.2,37.2c0,1.1,0.3,1.9,0.8,2.4c0.5,0.6,1,0.8,1.8,0.8s1.4-0.3,1.8-0.8
		c0.5-0.6,0.8-1.3,0.8-2.6c0-1.1-0.3-1.8-0.8-2.4s-1-0.8-1.8-0.8s-1.4,0.3-1.8,0.8C120.4,35.2,120.2,36,120.2,37.2z"/>
	<path class="st2" d="M128.5,41.4v-8.5h1.3v1.2c0.3-0.4,0.6-0.8,1-1.1c0.5-0.3,0.9-0.4,1.5-0.4s1.2,0.2,1.5,0.4
		c0.3,0.2,0.8,0.6,0.9,1.1c0.8-1.1,1.5-1.5,2.7-1.5c0.9,0,1.5,0.3,2,0.8s0.8,1.2,0.8,2.1v5.8h-1.5v-5.4c0-0.6,0-1.1-0.2-1.2
		c-0.1-0.3-0.3-0.4-0.4-0.6c-0.3-0.2-0.6-0.3-0.9-0.3c-0.6,0-1,0.2-1.5,0.6c-0.5,0.4-0.6,1.1-0.6,1.9v4.9h-1.5v-5.6
		c0-0.6-0.1-1.2-0.3-1.5c-0.3-0.3-0.6-0.4-1.2-0.4c-0.5,0-0.8,0.2-1.2,0.3c-0.4,0.1-0.6,0.6-0.8,0.9c-0.1,0.3-0.3,1.1-0.3,1.8v4.5
		h-1.4L128.5,41.4L128.5,41.4z"/>
	<path class="st2" d="M146.2,37.9v-1.5h4.5v1.5H146.2z"/>
	<path class="st2" d="M156.6,35.7c0-1.9,0.6-3.4,1.7-4.7c1-1.1,2.4-1.7,4-1.7c1,0,2.1,0.3,3,0.8s1.5,1.2,2,2.3
		c0.5,0.9,0.8,1.9,0.8,3.1s-0.3,2.3-0.8,3.2c-0.5,0.9-1.2,1.6-2.1,2.1c-0.9,0.4-1.8,0.8-2.9,0.8c-1,0-2.1-0.3-3-0.8s-1.5-1.2-2-2.3
		C156.7,37.6,156.6,36.7,156.6,35.7z M158.1,35.7c0,1.3,0.5,2.6,1.2,3.3c0.7,0.7,1.6,1.2,2.8,1.2s2.1-0.4,2.8-1.2
		c0.7-0.8,1.2-1.9,1.2-3.4c0-0.9-0.2-1.8-0.5-2.6c-0.3-0.8-0.8-1.2-1.3-1.7s-1.3-0.6-2.1-0.6c-1.1,0-2.1,0.4-2.9,1.2
		S158.1,33.9,158.1,35.7z"/>
</g>
<g class="st1">
	<path class="st2" d="M169.9,41.4v-7.3h-1.4v-1.2h1.4v-1c0-0.6,0-1.1,0.1-1.3c0.2-0.3,0.5-0.8,0.8-0.9c0.3-0.3,0.9-0.3,1.5-0.3
		c0.5,0,0.9,0,1.4,0.2l-0.1,1.2c-0.3,0-0.6-0.2-0.9-0.2c-0.5,0-0.8,0.2-0.9,0.3c-0.1,0.2-0.3,0.6-0.3,1.1v0.8h1.6v1.1h-1.6v7.3H170
		C169.9,41.2,169.9,41.4,169.9,41.4z"/>
</g>
<g class="st1">
	<path class="st2" d="M174.2,41.4v-7.3h-1.4v-1.2h1.4v-1c0-0.6,0-1.1,0.1-1.3c0.2-0.3,0.5-0.8,0.8-0.9c0.3-0.3,0.9-0.3,1.5-0.3
		c0.5,0,0.9,0,1.4,0.2l-0.1,1.2c-0.3,0-0.6-0.2-0.9-0.2c-0.5,0-0.8,0.2-0.9,0.3c-0.1,0.2-0.3,0.6-0.3,1.1v0.8h1.6v1.1h-1.6v7.3h-1.5
		C174.3,41.2,174.3,41.4,174.2,41.4z"/>
	<path class="st2" d="M178.5,31.3v-1.7h1.5v1.7H178.5z M178.5,41.4v-8.5h1.5v8.6C180,41.4,178.5,41.4,178.5,41.4z"/>
	<path class="st2" d="M187.6,38.2l1.3,0.2c-0.2,1.1-0.6,1.8-1.2,2.3c-0.6,0.6-1.5,0.9-2.4,0.9c-1.2,0-2.1-0.4-2.9-1.2s-1-1.8-1-3.3
		c0-0.9,0.2-1.8,0.5-2.4c0.3-0.6,0.8-1.2,1.4-1.5c0.6-0.3,1.3-0.4,2.1-0.4c0.9,0,1.7,0.3,2.3,0.8s0.9,1.2,1.2,1.9l-1.4,0.1
		c-0.1-0.6-0.3-1.1-0.8-1.3c-0.3-0.3-0.8-0.4-1.2-0.4c-0.8,0-1.4,0.3-1.8,0.8c-0.4,0.4-0.8,1.3-0.8,2.6c0,1.2,0.2,1.9,0.6,2.6
		s1,0.8,1.6,0.8c0.6,0,1.1-0.2,1.4-0.4C187.3,39.6,187.6,39,187.6,38.2z"/>
	<path class="st2" d="M190.3,31.3v-1.7h1.5v1.7H190.3z M190.3,41.4v-8.5h1.5v8.6C191.8,41.4,190.3,41.4,190.3,41.4z"/>
	<path class="st2" d="M199.6,40.3c-0.6,0.4-1,0.8-1.5,0.9c-0.5,0.1-1,0.3-1.7,0.3c-0.9,0-1.7-0.3-2.1-0.8c-0.4-0.5-0.8-1.1-0.8-1.8
		c0-0.4,0.2-0.8,0.3-1.2c0.2-0.3,0.5-0.6,0.8-0.9c0.3-0.1,0.6-0.3,1-0.4c0.3,0,0.8-0.1,1.3-0.1c1.2-0.2,2.1-0.3,2.5-0.4
		c0-0.2,0-0.3,0-0.4c0-0.6-0.2-1.1-0.5-1.2c-0.3-0.3-0.9-0.4-1.7-0.4c-0.8,0-1.2,0.2-1.5,0.3c-0.3,0.1-0.6,0.6-0.8,1.2l-1.3-0.2
		c0.2-0.6,0.3-1.1,0.6-1.5c0.3-0.3,0.8-0.6,1.3-0.9c0.6-0.2,1.2-0.3,2-0.3s1.3,0.2,1.8,0.3c0.5,0.1,0.7,0.4,1,0.6
		c0.2,0.3,0.3,0.6,0.4,1.1c0,0.3,0,0.7,0,1.3v2.1c0,1.4,0,2.3,0.2,2.6c0.1,0.3,0.1,0.8,0.3,1.1h-1.5
		C199.7,41.1,199.6,40.8,199.6,40.3z M199.5,37.2c-0.6,0.1-1.3,0.4-2.4,0.6c-0.6,0.2-1,0.2-1.2,0.3c-0.3,0.2-0.5,0.3-0.6,0.4
		c-0.1,0.1-0.2,0.4-0.2,0.8c0,0.4,0.2,0.8,0.5,0.9s0.8,0.4,1.3,0.4s1-0.2,1.5-0.3c0.5-0.3,0.8-0.6,0.9-1.1c0.2-0.3,0.3-0.8,0.3-1.5
		L199.5,37.2L199.5,37.2z"/>
	<path class="st2" d="M203.1,41.4V29.5h1.5v11.8L203.1,41.4L203.1,41.4z"/>
	<path class="st2" d="M210.9,38.8l1.5-0.3c0.1,0.6,0.3,1.1,0.6,1.4c0.3,0.3,0.9,0.4,1.5,0.4s1.2-0.2,1.5-0.4
		c0.3-0.3,0.5-0.6,0.5-0.9s-0.2-0.6-0.5-0.8c-0.1-0.1-0.8-0.3-1.5-0.4c-1-0.3-1.8-0.4-2.3-0.8c-0.4-0.1-0.8-0.4-0.9-0.8
		c-0.2-0.3-0.3-0.8-0.3-1.2c0-0.4,0.2-0.7,0.3-1.1s0.4-0.6,0.8-0.8c0.1-0.2,0.6-0.3,0.9-0.4c0.3-0.1,0.8-0.2,1.2-0.2
		c0.6,0,1.2,0.2,1.8,0.3c0.5,0.2,0.9,0.4,1.1,0.8c0.3,0.3,0.4,0.8,0.4,1.3l-1.3,0.2c0-0.4-0.3-0.8-0.6-1.1c-0.3-0.3-0.8-0.3-1.3-0.3
		c-0.6,0-1.2,0.2-1.4,0.3c-0.3,0.2-0.4,0.4-0.4,0.8c0,0.1,0,0.3,0.2,0.4c0.2,0.1,0.3,0.3,0.6,0.4c0.2,0,0.6,0.1,1.3,0.3
		c1,0.3,1.8,0.4,2.1,0.6c0.4,0.2,0.8,0.4,0.9,0.8c0.1,0.4,0.3,0.8,0.3,1.2s-0.1,0.9-0.4,1.4s-0.8,0.8-1.2,1.1
		c-0.5,0.3-1.2,0.3-1.8,0.3c-1.1,0-1.9-0.3-2.6-0.8C211.3,40.5,211,39.7,210.9,38.8z"/>
	<path class="st2" d="M219.7,31.3v-1.7h1.5v1.7H219.7z M219.7,41.4v-8.5h1.5v8.6C221.2,41.4,219.7,41.4,219.7,41.4z"/>
	<path class="st2" d="M226.4,40l0.2,1.4c-0.5,0.1-0.8,0.1-1.1,0.1c-0.6,0-0.9-0.1-1.2-0.3c-0.3-0.1-0.5-0.4-0.6-0.6
		c-0.1-0.3-0.1-0.9-0.1-1.7V34h-1.1v-1.2h1.1v-2.1l1.5-0.9v3h1.5V34h-1.5v4.9c0,0.4,0,0.8,0.1,0.8c0,0.2,0.2,0.2,0.3,0.3
		c0.2,0,0.3,0.2,0.4,0.2C226,40.2,226.2,40.2,226.4,40z"/>
	<path class="st2" d="M233.7,38.7l1.5,0.1c-0.3,0.9-0.6,1.5-1.3,2.1c-0.6,0.4-1.5,0.8-2.4,0.8c-1.2,0-2.3-0.4-3-1.2
		c-0.7-0.8-1-1.8-1-3.3s0.3-2.6,1-3.3s1.7-1.2,2.8-1.2c1.2,0,2.1,0.4,2.8,1.2s1,1.8,1,3.3c0,0.1,0,0.1,0,0.4h-6.3
		c0,0.9,0.3,1.6,0.8,2.1s1,0.8,1.8,0.8c0.6,0,1.1-0.1,1.4-0.4C233.2,39.7,233.5,39.3,233.7,38.7z M229,36.3h4.8
		c0-0.8-0.3-1.2-0.6-1.6c-0.4-0.6-1-0.9-1.8-0.9c-0.6,0-1.2,0.2-1.7,0.6C229.2,34.8,229,35.5,229,36.3z"/>
</g>
<g class="st1">
	<path class="st3" d="M245.8,37.6l1.5-0.2c0,0.6,0.3,1.1,0.4,1.5c0.1,0.4,0.6,0.8,1.2,0.9c0.6,0.1,1.2,0.3,1.8,0.3s1.1-0.2,1.7-0.3
		c0.6-0.2,0.8-0.4,1-0.8c0.3-0.3,0.3-0.6,0.3-1.1c0-0.3-0.2-0.8-0.3-0.9c-0.1-0.3-0.6-0.4-1-0.8c-0.3-0.1-1-0.3-2.1-0.6
		c-1.1-0.3-1.8-0.4-2.3-0.8c-0.6-0.3-1.1-0.6-1.2-1.1c-0.3-0.4-0.5-0.9-0.5-1.5c0-0.6,0.2-1.2,0.5-1.7c0.3-0.4,0.9-0.9,1.5-1.2
		c0.6-0.3,1.3-0.4,2.1-0.4c0.9,0,1.7,0.2,2.3,0.4c0.6,0.3,1.2,0.8,1.5,1.2s0.6,1.2,0.6,1.8l-1.5,0.2c-0.2-0.8-0.3-1.3-0.8-1.7
		c-0.5-0.4-1.2-0.6-2.1-0.6s-1.6,0.2-2.1,0.4c-0.5,0.3-0.6,0.8-0.6,1.2c0,0.4,0.2,0.8,0.5,1.1c0.3,0.3,1,0.6,2.4,0.9
		c1.2,0.3,2.1,0.6,2.6,0.7c0.8,0.3,1.2,0.8,1.5,1.2c0.3,0.4,0.4,1.1,0.4,1.7c0,0.6-0.2,1.2-0.6,1.8c-0.3,0.6-0.9,1.1-1.5,1.3
		c-0.6,0.3-1.5,0.4-2.3,0.4c-1,0-2-0.1-2.7-0.4c-0.8-0.3-1.3-0.8-1.6-1.3C246.1,39.1,245.8,38.4,245.8,37.6z"/>
	<path class="st3" d="M257.2,31.3v-1.7h1.5v1.7H257.2z M257.2,41.4v-8.5h1.5v8.6C258.7,41.4,257.2,41.4,257.2,41.4z"/>
	<path class="st3" d="M263.9,40l0.2,1.4c-0.5,0.1-0.8,0.1-1.1,0.1c-0.6,0-0.9-0.1-1.2-0.3c-0.3-0.1-0.5-0.4-0.6-0.6
		c-0.1-0.3-0.1-0.9-0.1-1.7V34H260v-1.2h1.1v-2.1l1.5-0.9v3h1.5V34h-1.5v4.9c0,0.4,0,0.8,0.1,0.8c0,0.2,0.2,0.2,0.3,0.3
		c0.2,0,0.3,0.2,0.4,0.2S263.7,40.2,263.9,40z"/>
	<path class="st3" d="M271.3,38.7l1.5,0.1c-0.3,0.9-0.6,1.5-1.4,2.1c-0.6,0.4-1.5,0.8-2.4,0.8c-1.2,0-2.3-0.4-3-1.2
		c-0.7-0.8-1.1-1.8-1.1-3.3s0.3-2.6,1.1-3.3c0.8-0.7,1.6-1.2,2.8-1.2s2.1,0.4,2.9,1.2s1,1.8,1,3.3c0,0.1,0,0.1,0,0.4h-6.3
		c0,0.9,0.3,1.6,0.8,2.1c0.4,0.4,1,0.8,1.8,0.8c0.6,0,1-0.1,1.3-0.4C270.7,39.7,271,39.3,271.3,38.7z M266.5,36.3h4.8
		c0-0.8-0.3-1.2-0.6-1.6c-0.4-0.6-1-0.9-1.8-0.9c-0.6,0-1.2,0.2-1.7,0.6C266.8,34.9,266.5,35.5,266.5,36.3z"/>
	<path class="st3" d="M278.5,38.8l1.5-0.3c0.2,0.6,0.3,1.1,0.6,1.4c0.3,0.3,0.9,0.4,1.5,0.4s1.2-0.2,1.5-0.4
		c0.3-0.3,0.5-0.6,0.5-0.9s-0.2-0.6-0.5-0.8c-0.2-0.1-0.8-0.3-1.5-0.4c-1-0.3-1.8-0.4-2.3-0.8c-0.5-0.1-0.8-0.4-0.9-0.8
		c-0.1-0.4-0.3-0.8-0.3-1.2c0-0.4,0.2-0.7,0.3-1.1c0.2-0.3,0.4-0.6,0.8-0.8s0.6-0.3,0.9-0.4c0.5-0.2,0.8-0.2,1.2-0.2
		c0.6,0,1.2,0.2,1.8,0.3c0.5,0.2,0.9,0.4,1,0.8c0.3,0.3,0.5,0.8,0.5,1.3l-1.3,0.2c0-0.4-0.3-0.8-0.6-1.1c-0.3-0.3-0.8-0.1-1.4-0.1
		c-0.6,0-1.2,0.2-1.3,0.3c-0.3,0.2-0.5,0.4-0.5,0.8c0,0.1,0,0.3,0.2,0.4c0.1,0.1,0.3,0.3,0.6,0.4c0.2,0,0.6,0.1,1.4,0.3
		c1,0.3,1.8,0.4,2.1,0.6c0.5,0.2,0.8,0.4,0.9,0.8c0.3,0.3,0.3,0.8,0.3,1.2s-0.2,0.9-0.5,1.4c-0.3,0.4-0.8,0.8-1.2,1.1
		c-0.6,0.3-1.2,0.3-1.8,0.3c-1,0-1.9-0.3-2.5-0.8C279.1,40.5,278.7,39.7,278.5,38.8z"/>
	<path class="st3" d="M293.2,38.7l1.5,0.1c-0.3,0.9-0.6,1.5-1.3,2.1c-0.6,0.4-1.5,0.8-2.4,0.8c-1.2,0-2.3-0.4-3-1.2
		c-0.7-0.8-1-1.8-1-3.3s0.3-2.6,1-3.3s1.7-1.2,2.9-1.2s2.1,0.4,2.8,1.2c0.7,0.8,1.1,1.8,1.1,3.3c0,0.1,0,0.1,0,0.4h-6.3
		c0,0.9,0.3,1.6,0.8,2.1c0.5,0.4,1.1,0.8,1.8,0.8c0.6,0,1.1-0.1,1.3-0.4C292.7,39.7,293.1,39.3,293.2,38.7z M288.4,36.3h4.8
		c0-0.8-0.3-1.2-0.6-1.6c-0.5-0.6-1.1-0.9-1.8-0.9c-0.6,0-1.2,0.2-1.7,0.6C288.6,34.8,288.6,35.5,288.4,36.3z"/>
	<path class="st3" d="M302.1,38.2l1.3,0.2c-0.1,1.1-0.6,1.8-1.2,2.3c-0.6,0.6-1.5,0.9-2.4,0.9c-1.2,0-2.1-0.4-2.8-1.2
		c-0.7-0.8-1.1-1.8-1.1-3.3c0-0.9,0.2-1.8,0.5-2.4c0.3-0.8,0.8-1.2,1.3-1.5c0.5-0.3,1.3-0.4,2.1-0.4c0.9,0,1.7,0.3,2.3,0.8
		c0.6,0.5,0.9,1.2,1.2,1.9l-1.4,0.1c-0.1-0.6-0.3-1.1-0.8-1.3c-0.3-0.3-0.8-0.4-1.2-0.4c-0.8,0-1.3,0.3-1.8,0.8
		c-0.4,0.4-0.8,1.3-0.8,2.6c0,1.2,0.2,1.9,0.6,2.6s1,0.8,1.6,0.8s1.1-0.2,1.4-0.4C301.7,39.6,302.1,39,302.1,38.2z"/>
	<path class="st3" d="M310.3,41.4v-1.2c-0.6,0.9-1.5,1.5-2.7,1.5c-0.5,0-0.9-0.2-1.3-0.3c-0.4-0.2-0.8-0.4-0.9-0.8
		c-0.1-0.4-0.3-0.6-0.5-1.1c0-0.3-0.1-0.8-0.1-1.4v-5.2h1.5v4.8c0,0.8,0,1.2,0.1,1.5c0.2,0.4,0.3,0.8,0.6,0.9c0.3,0.1,0.6,0.3,1,0.3
		c0.4,0,0.9-0.2,1.2-0.3c0.3-0.2,0.6-0.6,0.8-0.9c0.1-0.4,0.3-0.9,0.3-1.6v-4.5h1.5v8.5h-1.5L310.3,41.4L310.3,41.4z"/>
	<path class="st3" d="M313.9,41.4v-8.5h1.3v1.3c0.3-0.6,0.6-1.1,0.9-1.2c0.3-0.2,0.6-0.3,0.9-0.3c0.4,0,1.1,0.2,1.5,0.4l-0.4,1.3
		c-0.3-0.2-0.8-0.3-1.1-0.3s-0.6,0.2-0.9,0.3c-0.3,0.1-0.5,0.4-0.6,0.7c-0.2,0.4-0.3,1.1-0.3,1.7v4.5L313.9,41.4L313.9,41.4z"/>
	<path class="st3" d="M325.3,38.7l1.5,0.1c-0.3,0.9-0.6,1.5-1.4,2.1c-0.6,0.4-1.5,0.8-2.4,0.8c-1.2,0-2.3-0.4-3-1.2
		c-0.7-0.8-1.1-1.8-1.1-3.3s0.3-2.6,1.1-3.3c0.8-0.7,1.6-1.2,2.8-1.2s2.1,0.4,2.9,1.2s1,1.8,1,3.3c0,0.1,0,0.1,0,0.4h-6.3
		c0,0.9,0.3,1.6,0.8,2.1c0.4,0.4,1,0.8,1.8,0.8c0.6,0,1-0.1,1.3-0.4C324.7,39.7,325,39.3,325.3,38.7z M320.5,36.3h4.8
		c0-0.8-0.3-1.2-0.6-1.6c-0.4-0.6-1-0.9-1.8-0.9c-0.6,0-1.2,0.2-1.7,0.6C320.8,34.9,320.5,35.5,320.5,36.3z"/>
	<path class="st3" d="M334.2,41.4v-1.1c-0.6,0.9-1.4,1.2-2.4,1.2c-0.8,0-1.4-0.2-2-0.6c-0.6-0.3-1-0.9-1.4-1.5
		c-0.3-0.6-0.4-1.5-0.4-2.3c0-0.9,0.1-1.6,0.4-2.3s0.8-1.2,1.4-1.6c0.6-0.3,1.2-0.6,2-0.6c0.4,0,0.9,0.2,1.3,0.3
		c0.5,0.2,0.8,0.4,1,0.9v-4.2h1.5v11.8h-1.5H334.2L334.2,41.4z M329.5,37.2c0,1.1,0.3,1.9,0.8,2.4c0.4,0.6,1,0.8,1.6,0.8
		c0.6,0,1.2-0.3,1.6-0.8c0.5-0.4,0.6-1.3,0.6-2.4c0-1.2-0.1-2.1-0.8-2.6c-0.5-0.6-1-0.8-1.6-0.8c-0.6,0-1.2,0.3-1.7,0.8
		S329.5,36,329.5,37.2z"/>
	<path class="st3" d="M343.6,41.4h-1.4V29.5h1.5v4.2c0.6-0.8,1.4-1.2,2.4-1.2c0.5,0,1,0.2,1.5,0.3c0.5,0.1,0.9,0.4,1.2,0.9
		c0.3,0.4,0.6,0.9,0.8,1.3c0.1,0.6,0.3,1.1,0.3,1.8c0,1.5-0.3,2.6-1,3.4c-0.8,0.8-1.7,1.2-2.6,1.2c-1,0-1.8-0.4-2.4-1.2v1.1
		C343.9,41.4,343.6,41.4,343.6,41.4z M343.6,37c0,1.1,0.1,1.8,0.4,2.3c0.5,0.8,1.1,1.1,1.8,1.1c0.6,0,1.2-0.3,1.6-0.8
		c0.5-0.6,0.8-1.3,0.8-2.4s-0.1-1.9-0.6-2.4s-1-0.8-1.7-0.8c-0.6,0-1.2,0.3-1.6,0.8C343.9,35.2,343.6,36,343.6,37z"/>
	<path class="st3" d="M351.4,44.7l-0.1-1.4c0.3,0.2,0.6,0.2,0.9,0.2s0.6,0,0.8-0.2c0.1-0.1,0.3-0.3,0.5-0.4c0.1-0.1,0.3-0.4,0.4-1.1
		c0-0.1,0-0.1,0.2-0.3l-3.3-8.6h1.5l1.8,4.8c0.3,0.6,0.5,1.4,0.6,1.9c0.1-0.6,0.3-1.3,0.6-1.9l1.8-4.9h1.5l-3.3,8.7
		c-0.3,0.9-0.6,1.7-0.8,1.9c-0.3,0.4-0.6,0.9-0.9,1.1c-0.3,0.2-0.8,0.3-1.2,0.3C352,44.8,351.7,44.8,351.4,44.7z"/>
	<path class="st3" d="M364.4,41.4V29.5h1.7l6.1,9.3v-9.3h1.5v11.8h-1.6l-6.2-9.3v9.3C365.9,41.4,364.4,41.4,364.4,41.4z"/>
	<path class="st3" d="M375.6,37.2c0-1.7,0.5-2.7,1.3-3.4c0.8-0.6,1.7-0.9,2.7-0.9c1.2,0,2.1,0.4,2.8,1.2c0.7,0.8,1.1,1.8,1.1,3.2
		c0,1.1-0.2,1.9-0.5,2.6c-0.3,0.6-0.8,1.1-1.5,1.5c-0.7,0.4-1.4,0.4-2.1,0.4c-1.2,0-2.1-0.4-2.8-1.2C376,39.7,375.6,38.5,375.6,37.2
		z M377.1,37.2c0,1.1,0.3,1.9,0.8,2.4c0.5,0.6,1,0.8,1.8,0.8s1.3-0.3,1.8-0.8c0.5-0.6,0.8-1.3,0.8-2.6c0-1.1-0.3-1.8-0.8-2.4
		s-1-0.8-1.8-0.8s-1.3,0.3-1.8,0.8C377.4,35.2,377.1,36,377.1,37.2z"/>
	<path class="st3" d="M385.3,41.4v-8.5h1.3v1.3c0.3-0.6,0.6-1.1,0.9-1.2c0.3-0.2,0.6-0.3,0.9-0.3c0.4,0,1.1,0.2,1.5,0.4l-0.4,1.3
		c-0.3-0.2-0.8-0.3-1.1-0.3c-0.3,0-0.6,0.2-0.9,0.3c-0.3,0.1-0.4,0.4-0.6,0.7c-0.1,0.4-0.3,1.1-0.3,1.7v4.5L385.3,41.4L385.3,41.4z"
		/>
	<path class="st3" d="M394,40l0.2,1.4c-0.4,0.1-0.8,0.1-1.1,0.1c-0.6,0-0.9-0.1-1.2-0.3c-0.3-0.1-0.4-0.4-0.6-0.6
		c-0.1-0.3-0.1-0.9-0.1-1.7V34H390v-1.2h1.1v-2.1l1.5-0.9v3h1.5V34h-1.5v4.9c0,0.4,0,0.8,0.2,0.8c0,0.2,0.1,0.2,0.3,0.3
		c0.1,0,0.3,0.2,0.4,0.2C393.6,40.2,393.7,40.2,394,40z"/>
	<path class="st3" d="M394.9,37.2c0-1.7,0.4-2.7,1.4-3.4c0.8-0.6,1.6-0.9,2.7-0.9c1.2,0,2.1,0.4,2.8,1.2c0.7,0.8,1.1,1.8,1.1,3.2
		c0,1.1-0.1,1.9-0.4,2.6c-0.3,0.6-0.8,1.1-1.5,1.5c-0.7,0.4-1.3,0.4-2.1,0.4c-1.2,0-2.1-0.4-2.9-1.2
		C395.2,39.7,394.9,38.5,394.9,37.2z M396.3,37.2c0,1.1,0.3,1.9,0.8,2.4c0.4,0.6,1.1,0.8,1.8,0.8c0.7,0,1.4-0.3,1.8-0.8
		c0.4-0.6,0.8-1.3,0.8-2.6c0-1.1-0.3-1.8-0.8-2.4c-0.4-0.6-1.1-0.8-1.8-0.8c-0.7,0-1.3,0.3-1.8,0.8C396.6,35.2,396.3,36,396.3,37.2z
		"/>
	<path class="st3" d="M404.5,41.4v-8.5h1.4v1.2c0.6-0.9,1.5-1.3,2.7-1.3c0.4,0,1.1,0.2,1.3,0.3c0.4,0.2,0.8,0.4,0.9,0.8
		c0.1,0.3,0.3,0.6,0.4,1.1c0,0.3,0.1,0.8,0.1,1.3v5.3h-1.5v-5.3c0-0.6,0-1.1-0.1-1.3c-0.2-0.3-0.3-0.4-0.6-0.8
		c-0.3-0.3-0.6-0.3-1.1-0.3c-0.6,0-1.2,0.2-1.6,0.6c-0.4,0.4-0.6,1.2-0.6,2.2v4.7H404.5L404.5,41.4z"/>
</g>
<g class="st1">
	<path d="M0,67.8l4.5-11.9h1.7l4.9,11.9H9.3L8,64.2H3l-1.3,3.6H0z M3.4,63h4.1l-1.2-3.3c-0.5-0.9-0.8-1.8-0.9-2.4
		c-0.2,0.8-0.3,1.5-0.6,2.3L3.4,63z"/>
	<path d="M12,67.8V55.9h1.5v11.9H12z"/>
	<path d="M15.7,67.8V55.9h1.5v11.9H15.7z"/>
	<path d="M24,67.8v-8.6h1.3v1.4c0.3-0.6,0.6-1,0.9-1.2c0.3-0.2,0.6-0.3,0.9-0.3c0.4,0,1,0.1,1.5,0.5L28.1,61c-0.3-0.1-0.8-0.3-1-0.3
		c-0.3,0-0.6,0.1-0.9,0.3c-0.3,0.2-0.4,0.4-0.6,0.8c-0.2,0.6-0.2,1.2-0.2,1.8v4.3L24,67.8L24,67.8z"/>
	<path d="M35.4,65.1l1.5,0.1c-0.3,0.9-0.6,1.5-1.3,2.1c-0.6,0.5-1.5,0.8-2.4,0.8c-1.2,0-2.3-0.4-3-1.2c-0.7-0.8-1.1-1.8-1.1-3.3
		s0.3-2.5,1.1-3.3c0.8-0.8,1.7-1.2,2.8-1.2s2.1,0.5,2.8,1.2c0.7,0.7,1.1,1.8,1.1,3.3c0,0.1,0,0.1,0,0.5h-6.3c0,0.9,0.3,1.6,0.8,2.1
		c0.5,0.4,1,0.8,1.8,0.8c0.6,0,1.1-0.1,1.4-0.5C34.8,66.1,35,65.7,35.4,65.1z M30.5,62.8h4.8c0-0.8-0.3-1.2-0.6-1.6
		c-0.5-0.6-1.1-0.9-1.8-0.9c-0.6,0-1.2,0.1-1.7,0.6C30.9,61.5,30.5,62.1,30.5,62.8z"/>
	<path d="M44.2,67.8v-1.1c-0.6,0.9-1.3,1.2-2.4,1.2c-0.8,0-1.3-0.1-1.9-0.6c-0.6-0.3-1.1-0.9-1.3-1.5c-0.3-0.6-0.5-1.5-0.5-2.3
		c0-0.9,0.2-1.6,0.5-2.3c0.3-0.8,0.8-1.2,1.3-1.6c0.6-0.3,1.2-0.6,1.9-0.6c0.5,0,0.9,0.1,1.4,0.3c0.4,0.2,0.8,0.5,1.1,0.9V56h1.5
		v11.7L44.2,67.8L44.2,67.8z M39.5,63.6c0,1.1,0.3,2,0.8,2.4c0.5,0.6,1.1,0.8,1.7,0.8s1.2-0.3,1.7-0.8c0.4-0.4,0.6-1.4,0.6-2.4
		c0-1.2-0.2-2.1-0.8-2.5c-0.6-0.5-1.1-0.8-1.7-0.8c-0.6,0-1.2,0.3-1.6,0.8C39.7,61.6,39.5,62.5,39.5,63.6z"/>
	<path d="M54,67.8l-2.6-8.6h1.5l1.4,5l0.4,1.8c0-0.1,0.1-0.8,0.4-1.8l1.4-5H58l1.4,5l0.4,1.6l0.4-1.6l1.5-5h1.2l-2.6,8.6h-1.5
		l-1.4-5.1l-0.3-1.5l-1.8,6.6H54z"/>
	<path d="M64.3,57.7v-1.6h1.5v1.6H64.3z M64.3,67.8v-8.6h1.5v8.6H64.3z"/>
	<path d="M67.9,67.8v-8.6h1.4v1.2c0.6-0.9,1.5-1.4,2.7-1.4c0.4,0,1.1,0.1,1.4,0.3c0.4,0.1,0.8,0.5,0.9,0.8c0.1,0.3,0.3,0.6,0.4,1.1
		c0,0.3,0.1,0.7,0.1,1.3v5.3h-1.5v-5.3c0-0.6,0-1.1-0.1-1.4c-0.2-0.2-0.4-0.4-0.7-0.7c-0.3-0.3-0.6-0.3-1.1-0.3
		c-0.6,0-1.2,0.1-1.6,0.6s-0.6,1.2-0.6,2.3v4.8C69.2,67.8,67.9,67.8,67.9,67.8z"/>
	<path d="M82.9,65.1l1.5,0.1c-0.3,0.9-0.6,1.5-1.4,2.1c-0.6,0.5-1.5,0.8-2.4,0.8c-1.2,0-2.3-0.4-3-1.2c-0.7-0.8-1.1-1.8-1.1-3.3
		s0.3-2.5,1.1-3.3c0.8-0.8,1.6-1.2,2.9-1.2c1.2,0,2.1,0.5,2.9,1.2c0.8,0.7,1.1,1.8,1.1,3.3c0,0.1,0,0.1,0,0.5h-6.4
		c0,0.9,0.3,1.6,0.8,2.1c0.4,0.4,1,0.7,1.8,0.7c0.6,0,1.1-0.1,1.4-0.5C82.3,66.1,82.6,65.7,82.9,65.1z M78.1,62.8h4.8
		c0-0.8-0.3-1.2-0.6-1.6c-0.4-0.6-1.1-0.9-1.8-0.9c-0.6,0-1.2,0.1-1.6,0.6C78.4,61.5,78.3,62.1,78.1,62.8z"/>
	<path d="M85.6,65.4l1.5-0.3c0.1,0.6,0.3,1.1,0.6,1.4c0.3,0.3,0.9,0.5,1.5,0.5s1.2-0.1,1.5-0.5c0.3-0.3,0.4-0.6,0.4-0.9
		c0-0.3-0.1-0.6-0.4-0.8c-0.1-0.1-0.8-0.3-1.5-0.4c-1.1-0.3-1.8-0.5-2.3-0.8c-0.4-0.1-0.8-0.5-0.9-0.8c-0.1-0.3-0.3-0.8-0.3-1.2
		s0.1-0.8,0.3-1c0.1-0.3,0.4-0.6,0.8-0.8c0.1-0.1,0.6-0.3,0.9-0.5c0.3-0.2,0.8-0.1,1.2-0.1c0.6,0,1.2,0.1,1.8,0.3
		c0.4,0.1,0.9,0.4,1.1,0.8c0.3,0.3,0.4,0.8,0.4,1.4L91,61.8c0-0.5-0.3-0.8-0.6-1.1c-0.3-0.3-0.8-0.4-1.3-0.4c-0.6,0-1.2,0.1-1.4,0.3
		c-0.3,0.1-0.4,0.5-0.4,0.8c0,0.1,0,0.3,0.1,0.5c0.1,0.2,0.3,0.3,0.6,0.4c0.1,0,0.6,0.1,1.4,0.3c1.1,0.3,1.8,0.4,2.1,0.6
		c0.4,0.1,0.8,0.4,0.9,0.8c0.1,0.3,0.3,0.8,0.3,1.2c0,0.5-0.1,0.9-0.4,1.4c-0.3,0.5-0.8,0.8-1.2,1.1C90.7,68,89.9,68,89.3,68
		c-1.1,0-1.9-0.3-2.6-0.8C86.2,66.9,85.8,66.3,85.6,65.4z"/>
	<path d="M98.5,63.6c0-1.6,0.5-2.7,1.4-3.4c0.8-0.6,1.6-0.9,2.7-0.9c1.2,0,2.1,0.4,2.9,1.2c0.8,0.8,1,1.8,1,3.1c0,1.1-0.1,2-0.5,2.6
		c-0.3,0.6-0.8,1-1.5,1.5c-0.8,0.4-1.4,0.4-2.1,0.4c-1.2,0-2.1-0.4-2.9-1.2C98.8,66.1,98.5,65.1,98.5,63.6z M100,63.6
		c0,1.1,0.3,2,0.8,2.4c0.5,0.6,1,0.8,1.8,0.8c0.8,0,1.4-0.3,1.8-0.8c0.5-0.6,0.8-1.4,0.8-2.5s-0.3-1.8-0.8-2.4
		c-0.5-0.6-1-0.8-1.8-0.8c-0.8,0-1.4,0.3-1.8,0.8C100.2,61.6,100,62.5,100,63.6z"/>
	<path d="M108.1,67.8v-8.6h1.4v1.2c0.6-0.9,1.5-1.4,2.7-1.4c0.5,0,1,0.1,1.4,0.3c0.5,0.1,0.8,0.5,0.9,0.8c0.1,0.3,0.3,0.6,0.5,1.1
		c0,0.3,0.1,0.8,0.1,1.4v5.3h-1.5v-5.3c0-0.6,0-1.1-0.1-1.4c-0.1-0.3-0.3-0.5-0.6-0.8c-0.3-0.3-0.6-0.3-1-0.3
		c-0.6,0-1.2,0.1-1.6,0.6c-0.5,0.5-0.6,1.2-0.6,2.3v4.8C109.7,67.8,108.1,67.8,108.1,67.8z"/>
	<path d="M121.3,65.4l1.5-0.3c0.1,0.6,0.3,1.1,0.6,1.4s0.9,0.5,1.5,0.5s1.2-0.1,1.5-0.5c0.3-0.3,0.5-0.6,0.5-0.9
		c0-0.3-0.1-0.6-0.5-0.8c-0.1-0.1-0.8-0.3-1.5-0.4c-1-0.3-1.8-0.5-2.3-0.8c-0.5-0.1-0.8-0.5-0.9-0.8c-0.1-0.3-0.3-0.8-0.3-1.2
		c0-0.5,0.1-0.8,0.3-1.1c0.1-0.3,0.5-0.6,0.8-0.8c0.1-0.1,0.6-0.3,0.9-0.4c0.3-0.1,0.8-0.1,1.2-0.1c0.6,0,1.2,0.1,1.8,0.3
		c0.5,0.1,0.9,0.5,1,0.8c0.3,0.3,0.5,0.8,0.5,1.4l-1.2,0.1c0-0.5-0.3-0.8-0.6-1.1c-0.3-0.3-0.8-0.4-1.4-0.4c-0.6,0-1.2,0.1-1.4,0.3
		c-0.3,0.1-0.5,0.5-0.5,0.8c0,0.1,0,0.3,0.1,0.5c0.1,0.2,0.3,0.3,0.6,0.4c0.1,0,0.6,0.1,1.4,0.3c1,0.3,1.8,0.4,2.1,0.6
		c0.5,0.1,0.8,0.4,0.9,0.8c0.1,0.3,0.3,0.8,0.3,1.2c0,0.5-0.1,0.9-0.5,1.4c-0.3,0.5-0.8,0.8-1.2,1.1c-0.5,0.3-1.2,0.3-1.8,0.3
		c-1,0-2-0.3-2.5-0.8C121.9,66.9,121.5,66.3,121.3,65.4z"/>
	<path d="M135.7,66.7c-0.6,0.5-1,0.8-1.5,0.9c-0.5,0.1-1,0.3-1.6,0.3c-0.9,0-1.6-0.3-2.1-0.8s-0.8-1.1-0.8-1.8
		c0-0.4,0.1-0.8,0.3-1.2c0.1-0.3,0.5-0.6,0.8-0.9c0.3-0.1,0.6-0.3,1-0.5c0.3,0,0.8-0.1,1.4-0.1c1.2-0.1,2.1-0.3,2.5-0.4
		c0-0.1,0-0.3,0-0.5c0-0.6-0.1-1-0.5-1.2c-0.3-0.3-0.9-0.5-1.6-0.5s-1.2,0.1-1.5,0.3c-0.3,0.2-0.6,0.6-0.8,1.2l-1.5,0.3
		c0.1-0.6,0.3-1,0.6-1.5c0.3-0.3,0.8-0.6,1.4-0.9c0.6-0.1,1.2-0.3,2-0.3s1.4,0.1,1.8,0.3c0.5,0.1,0.8,0.5,1,0.6
		c0.1,0.3,0.3,0.6,0.5,1.1c0,0.3,0,0.8,0,1.4v1.9c0,1.4,0,2.3,0.2,2.6c0.1,0.3,0.1,0.8,0.3,1h-1.5C135.9,67.5,135.7,67.2,135.7,66.7
		z M135.6,63.6c-0.6,0.1-1.4,0.5-2.4,0.6c-0.6,0.1-1,0.1-1.2,0.3c-0.3,0.1-0.5,0.3-0.6,0.4c-0.1,0.1-0.1,0.5-0.1,0.8
		c0,0.5,0.1,0.8,0.5,0.9c0.4,0.1,0.8,0.5,1.4,0.5c0.6,0,1-0.1,1.5-0.3c0.5-0.3,0.8-0.6,0.9-1c0.1-0.3,0.3-0.8,0.3-1.5L135.6,63.6
		L135.6,63.6z"/>
	<path d="M139.3,67.8V55.9h1.5v11.9H139.3z"/>
	<path d="M148.7,65.1l1.5,0.1c-0.3,0.9-0.6,1.5-1.4,2.1c-0.6,0.5-1.5,0.8-2.4,0.8c-1.2,0-2.3-0.4-3-1.2c-0.7-0.8-1-1.8-1-3.2
		c0-1.5,0.3-2.5,1-3.3c0.7-0.8,1.6-1.2,2.9-1.2c1.2,0,2.1,0.5,2.8,1.2c0.7,0.7,1,1.8,1,3.3c0,0.1,0,0.1,0,0.5h-6.3
		c0,0.9,0.3,1.6,0.8,2.1c0.5,0.4,1,0.8,1.8,0.8c0.6,0,1-0.1,1.4-0.5C148.3,66.1,148.6,65.7,148.7,65.1z M144.1,62.8h4.8
		c0-0.8-0.3-1.2-0.6-1.6c-0.5-0.6-1-0.9-1.8-0.9c-0.6,0-1.2,0.1-1.6,0.6C144.4,61.5,144.1,62.1,144.1,62.8z"/>
	<path d="M153,64.9l-0.5-6.3v-2.5h1.8v2.5l-0.5,6.3H153z M152.5,67.8v-1.5h1.6v1.5H152.5z"/>
	<path d="M161.5,67.8V55.9h8v1.4H163v3.6h5.5v1.4H163v5.5H161.5z"/>
	<path d="M171.2,67.8v-8.6h1.4v1.4c0.3-0.6,0.6-1,0.9-1.2c0.3-0.2,0.6-0.3,0.9-0.3c0.5,0,1.1,0.1,1.5,0.5l-0.4,1.4
		c-0.3-0.1-0.8-0.3-1.1-0.3s-0.6,0.1-0.9,0.3c-0.3,0.2-0.5,0.4-0.6,0.8c-0.1,0.4-0.3,1-0.3,1.6v4.5L171.2,67.8L171.2,67.8z"/>
	<path d="M182.7,65.1l1.5,0.1c-0.3,0.9-0.6,1.5-1.4,2.1c-0.6,0.5-1.5,0.8-2.4,0.8c-1.2,0-2.3-0.4-3-1.2c-0.7-0.8-1-1.8-1-3.3
		s0.3-2.5,1-3.3c0.7-0.8,1.6-1.2,2.9-1.2c1.2,0,2.1,0.5,2.8,1.2c0.7,0.7,1,1.8,1,3.3c0,0.1,0,0.1,0,0.5h-6.3c0,0.9,0.3,1.6,0.8,2.1
		c0.5,0.4,1,0.8,1.8,0.8c0.6,0,1-0.1,1.4-0.5C182.2,66.1,182.5,65.7,182.7,65.1z M177.9,62.8h4.8c0-0.8-0.3-1.2-0.6-1.6
		c-0.5-0.6-1-0.9-1.8-0.9c-0.6,0-1.2,0.1-1.6,0.6C178.2,61.5,178,62.1,177.9,62.8z"/>
	<path d="M191.8,65.1l1.5,0.1c-0.3,0.9-0.6,1.5-1.3,2.1c-0.6,0.5-1.5,0.8-2.4,0.8c-1.2,0-2.3-0.4-3-1.2c-0.7-0.8-1-1.8-1-3.3
		s0.3-2.5,1-3.3c0.7-0.8,1.7-1.2,2.8-1.2c1.2,0,2.1,0.5,2.9,1.2c0.8,0.7,1,1.8,1,3.3c0,0.1,0,0.1,0,0.5H187c0,0.9,0.3,1.6,0.8,2.1
		c0.5,0.4,1,0.8,1.8,0.8c0.6,0,1-0.1,1.3-0.5C191.4,66.1,191.7,65.7,191.8,65.1z M187,62.8h4.8c0-0.8-0.3-1.2-0.6-1.6
		c-0.5-0.6-1.1-0.9-1.8-0.9c-0.6,0-1.2,0.1-1.6,0.6C187.3,61.5,187.2,62.1,187,62.8z"/>
	<path d="M199.5,68.5l1.3,0.1c0,0.4,0.1,0.8,0.4,0.9c0.3,0.3,0.9,0.4,1.5,0.4s1.2-0.1,1.5-0.4s0.6-0.6,0.8-1.2
		c0-0.3,0.2-0.9,0.2-1.8c-0.6,0.8-1.3,1-2.4,1c-1.2,0-2.1-0.4-2.7-1.2c-0.6-0.9-0.9-1.8-0.9-3c0-0.8,0.2-1.5,0.5-2.3
		c0.3-0.8,0.8-1.2,1.3-1.6c0.6-0.5,1.2-0.6,1.9-0.6c1.1,0,1.8,0.4,2.6,1.2v-1h1.3v7.4c0,1.4-0.2,2.3-0.5,2.9s-0.8,1-1.3,1.4
		c-0.6,0.3-1.4,0.4-2.1,0.4c-1,0-1.8-0.3-2.4-0.8C199.7,70.2,199.5,69.4,199.5,68.5z M200.7,63.4c0,1,0.2,1.9,0.6,2.4
		c0.4,0.4,1.1,0.8,1.7,0.8c0.6,0,1.2-0.3,1.7-0.8c0.4-0.5,0.8-1.4,0.8-2.4c0-1.1-0.3-1.8-0.8-2.4c-0.4-0.6-1.1-0.8-1.7-0.8
		c-0.6,0-1.2,0.3-1.7,0.8S200.7,62.4,200.7,63.4z"/>
	<path d="M208.9,57.7v-1.6h1.5v1.6H208.9z M208.9,67.8v-8.6h1.5v8.6H208.9z"/>
	<path d="M212.8,67.8v-7.4h-1.4v-1.2h1.4v-0.9c0-0.6,0-1,0.1-1.4c0.2-0.3,0.5-0.8,0.8-0.9c0.3-0.3,0.9-0.3,1.5-0.3
		c0.5,0,0.9,0,1.4,0.1l-0.2,1.2c-0.3,0-0.6-0.1-0.9-0.1c-0.5,0-0.8,0.1-0.9,0.3c-0.1,0.1-0.3,0.6-0.3,1V59h1.7v1.2h-1.7v7.5h-1.5
		V67.8z"/>
	<path d="M220.3,66.6l0.1,1.2c-0.4,0.1-0.8,0.1-1,0.1c-0.6,0-0.9-0.1-1.2-0.3c-0.3-0.1-0.4-0.4-0.6-0.6c-0.1-0.2-0.2-0.9-0.2-1.6
		v-4.9h-1v-1.2h1v-2.1l1.5-0.9v3h1.5v1.2h-1.5v4.9c0,0.5,0,0.8,0.2,0.8c0,0.1,0.1,0.1,0.3,0.3c0.2,0,0.3,0.1,0.5,0.1
		C219.9,66.6,220,66.6,220.3,66.6z"/>
	<path d="M227.8,67.8l-2.6-8.6h1.5l1.3,5l0.5,1.8c0-0.1,0.1-0.8,0.4-1.8l1.3-5h1.5l1.3,5l0.4,1.6l0.5-1.6l1.5-5h1.3l-2.7,8.6h-1.5
		l-1.4-5.1l-0.3-1.5l-1.8,6.6H227.8z"/>
	<path d="M238.2,57.7v-1.6h1.5v1.6H238.2z M238.2,67.8v-8.6h1.5v8.6H238.2z"/>
	<path d="M244.9,66.6l0.2,1.4c-0.4,0.1-0.8,0.1-1.1,0.1c-0.6,0-0.9-0.1-1.2-0.3c-0.3-0.1-0.4-0.5-0.6-0.6c-0.2-0.3-0.2-0.9-0.2-1.6
		v-5h-1.1v-1.2h1.1v-2.1l1.5-0.9v3h1.5v1.2h-1.5v5c0,0.4,0,0.8,0.2,0.8c0,0.1,0.2,0.1,0.3,0.3c0.2,0,0.3,0.1,0.5,0.1
		C244.4,66.6,244.7,66.6,244.9,66.6z"/>
	<path d="M246.4,67.8V55.9h1.5v4.4c0.8-0.8,1.5-1.2,2.5-1.2c0.6,0,1.2,0.1,1.7,0.3c0.4,0.3,0.8,0.6,1,1c0.2,0.5,0.3,1.1,0.3,2v5.4
		h-1.5v-5.4c0-0.8-0.1-1.2-0.4-1.6c-0.3-0.3-0.8-0.5-1.3-0.5s-0.9,0.1-1.2,0.3c-0.3,0.2-0.6,0.4-0.8,0.9c-0.1,0.4-0.3,0.9-0.3,1.6
		v4.6h-1.5V67.8z"/>
	<path d="M260.1,71.1V59.2h1.3v1.1c0.3-0.5,0.6-0.8,1.1-1.1c0.4-0.3,0.9-0.3,1.3-0.3c0.8,0,1.3,0.1,2,0.6c0.6,0.3,1,0.9,1.2,1.6
		c0.3,0.8,0.4,1.5,0.4,2.3c0,0.9-0.1,1.6-0.4,2.4s-0.8,1.2-1.3,1.6c-0.6,0.3-1.2,0.6-2,0.6c-0.4,0-0.9-0.1-1.3-0.3
		c-0.5-0.1-0.8-0.4-0.9-0.8v4.2H260.1L260.1,71.1z M261.4,63.6c0,1.1,0.2,2,0.6,2.4c0.4,0.6,1.1,0.8,1.7,0.8c0.6,0,1.2-0.3,1.7-0.8
		c0.4-0.6,0.8-1.4,0.8-2.5s-0.2-2-0.6-2.4c-0.5-0.6-1-0.8-1.7-0.8c-0.6,0-1.2,0.3-1.7,0.9C261.7,61.6,261.4,62.5,261.4,63.6z"/>
	<path d="M274.9,67.8v-1.2c-0.6,0.9-1.5,1.5-2.7,1.5c-0.4,0-0.9-0.1-1.3-0.3c-0.5-0.1-0.8-0.5-0.9-0.8c-0.1-0.3-0.3-0.6-0.4-1.1
		c0-0.3-0.2-0.8-0.2-1.4v-5.3h1.5V64c0,0.8,0,1.2,0.2,1.5c0.2,0.4,0.3,0.8,0.6,0.9c0.3,0.1,0.6,0.3,1,0.3c0.5,0,0.9-0.1,1.2-0.3
		c0.5-0.1,0.6-0.6,0.8-0.9c0.2-0.5,0.3-0.9,0.3-1.6v-4.5h1.5v8.3L274.9,67.8L274.9,67.8z"/>
	<path d="M278.4,67.8v-8.6h1.3v1.4c0.3-0.6,0.6-1,0.9-1.2c0.3-0.1,0.6-0.3,0.9-0.3c0.5,0,1.1,0.1,1.5,0.5l-0.4,1.4
		c-0.3-0.1-0.8-0.3-1.1-0.3s-0.6,0.1-0.9,0.3c-0.3,0.2-0.5,0.4-0.6,0.8c-0.1,0.4-0.3,1-0.3,1.6v4.5L278.4,67.8L278.4,67.8
		L278.4,67.8z"/>
	<path d="M289.4,64.8l1.4,0.1c-0.2,1-0.6,1.8-1.2,2.3c-0.6,0.6-1.5,0.9-2.4,0.9c-1.2,0-2.1-0.5-2.8-1.2c-0.7-0.7-1-1.8-1-3.3
		c0-0.9,0.1-1.8,0.4-2.4c0.3-0.8,0.8-1.2,1.3-1.5c0.6-0.3,1.3-0.5,2.1-0.5c0.9,0,1.7,0.3,2.3,0.8c0.6,0.5,0.9,1.2,1.2,2l-1.3,0.1
		c-0.2-0.6-0.3-1.1-0.8-1.4c-0.3-0.3-0.8-0.5-1.2-0.5c-0.8,0-1.3,0.3-1.8,0.8s-0.8,1.4-0.8,2.6c0,1.2,0.1,1.9,0.6,2.5
		s1.1,0.8,1.7,0.8s1-0.1,1.3-0.4C289.2,66,289.4,65.4,289.4,64.8z"/>
	<path d="M292.2,67.8V55.9h1.5v4.4c0.8-0.8,1.5-1.2,2.5-1.2c0.6,0,1.2,0.1,1.7,0.3c0.4,0.3,0.8,0.6,1,1c0.2,0.5,0.3,1.1,0.3,2v5.4
		h-1.5v-5.4c0-0.8-0.1-1.2-0.4-1.6c-0.3-0.3-0.8-0.5-1.3-0.5s-0.9,0.1-1.2,0.3c-0.3,0.2-0.6,0.4-0.8,0.9c-0.1,0.4-0.3,0.9-0.3,1.6
		v4.6h-1.5V67.8z"/>
	<path d="M306.9,66.7c-0.6,0.5-1.1,0.8-1.5,0.9c-0.5,0.1-1.1,0.3-1.7,0.3c-0.9,0-1.6-0.3-2.1-0.8c-0.4-0.5-0.8-1.1-0.8-1.8
		c0-0.4,0.1-0.8,0.3-1.2c0.2-0.3,0.5-0.6,0.8-0.9c0.3-0.1,0.6-0.3,1-0.5c0.3,0,0.8-0.1,1.4-0.1c1.2-0.1,2.1-0.3,2.5-0.4
		c0-0.1,0-0.3,0-0.5c0-0.6-0.2-1-0.5-1.2c-0.3-0.3-0.9-0.5-1.6-0.5s-1.2,0.1-1.5,0.3c-0.3,0.3-0.6,0.6-0.8,1.2l-1.4-0.1
		c0.2-0.6,0.3-1,0.6-1.5c0.3-0.3,0.8-0.6,1.3-0.9c0.6-0.1,1.2-0.3,2-0.3c0.8,0,1.3,0.1,1.8,0.3c0.5,0.1,0.8,0.5,1.1,0.6
		c0.2,0.3,0.3,0.6,0.4,1.1c0,0.3,0,0.8,0,1.4V64c0,1.4,0,2.3,0.2,2.6c0.1,0.3,0.1,0.8,0.3,1h-1.5C307,67.5,307,67.2,306.9,66.7z
		 M306.7,63.6c-0.6,0.1-1.3,0.5-2.4,0.6c-0.6,0.1-1.1,0.1-1.2,0.3c-0.3,0.1-0.5,0.3-0.6,0.4c-0.2,0.1-0.2,0.5-0.2,0.8
		c0,0.5,0.2,0.8,0.5,0.9c0.3,0.3,0.8,0.5,1.3,0.5c0.6,0,1.1-0.1,1.5-0.3c0.5-0.3,0.8-0.6,0.9-1c0.1-0.3,0.3-0.8,0.3-1.5L306.7,63.6
		L306.7,63.6z"/>
	<path d="M309.9,65.4l1.5-0.3c0.1,0.6,0.3,1.1,0.6,1.4c0.3,0.3,0.9,0.5,1.5,0.5c0.6,0,1.2-0.1,1.5-0.5c0.3-0.3,0.5-0.6,0.5-0.9
		c0-0.3-0.2-0.6-0.5-0.8c-0.1-0.1-0.8-0.3-1.5-0.4c-1-0.3-1.8-0.5-2.3-0.8c-0.4-0.1-0.8-0.5-0.9-0.8c-0.2-0.3-0.3-0.8-0.3-1.2
		s0.2-0.8,0.3-1c0.1-0.3,0.4-0.6,0.8-0.8c0.3-0.1,0.6-0.3,0.9-0.5c0.5-0.1,0.8-0.1,1.2-0.1c0.6,0,1.2,0.1,1.8,0.3
		c0.5,0.1,0.9,0.4,1.1,0.8c0.3,0.3,0.4,0.8,0.4,1.4l-1.3,0.1c0-0.5-0.3-0.8-0.6-1.1c-0.3-0.3-0.8-0.3-1.3-0.3
		c-0.6,0-1.2,0.1-1.4,0.3c-0.3,0.1-0.4,0.5-0.4,0.8c0,0.1,0,0.3,0.2,0.5c0.2,0.2,0.3,0.3,0.6,0.4c0.2,0,0.6,0.1,1.3,0.3
		c1,0.3,1.8,0.4,2.1,0.6c0.4,0.1,0.8,0.4,0.9,0.8c0.3,0.3,0.3,0.8,0.3,1.2c0,0.5-0.1,0.9-0.4,1.4s-0.8,0.8-1.2,1.1
		c-0.6,0.3-1.2,0.3-1.8,0.3c-1.1,0-1.9-0.3-2.6-0.8C310.4,66.9,310,66.3,309.9,65.4z"/>
	<path d="M324.6,65.1l1.5,0.1c-0.3,0.9-0.6,1.5-1.4,2.1c-0.6,0.5-1.5,0.8-2.4,0.8c-1.2,0-2.3-0.4-3-1.2c-0.7-0.8-1.1-1.8-1.1-3.3
		s0.3-2.5,1.1-3.3c0.8-0.8,1.6-1.2,2.8-1.2c1.2,0,2.1,0.5,2.9,1.2c0.8,0.7,1,1.8,1,3.3c0,0.1,0,0.1,0,0.5h-6.3
		c0,0.9,0.3,1.6,0.8,2.1c0.4,0.4,1,0.8,1.8,0.8c0.6,0,1-0.1,1.3-0.5C324.1,66.1,324.4,65.7,324.6,65.1z M319.7,62.8h4.8
		c0-0.8-0.3-1.2-0.6-1.6c-0.4-0.6-1-0.9-1.8-0.9c-0.6,0-1.2,0.1-1.7,0.6C320.1,61.5,319.9,62.1,319.7,62.8z"/>
	<path d="M328.3,67.8v-1.5h1.6v1.5H328.3z"/>
</g>
<g class="st1">
	<path class="st4" d="M1.3,94.3V82.5h8v1.4H3v3.6h5.5v1.4H3v5.4H1.3L1.3,94.3z"/>
	<path class="st4" d="M16.9,91.5l1.5,0.2c-0.3,0.9-0.6,1.5-1.3,2.1c-0.6,0.5-1.5,0.8-2.4,0.8c-1.2,0-2.3-0.5-3-1.2s-1-1.8-1-3.3
		s0.3-2.5,1-3.3s1.7-1.2,2.8-1.2c1.2,0,2.1,0.5,2.8,1.2s1,1.8,1,3.3c0,0.2,0,0.2,0,0.5H12c0,0.9,0.3,1.6,0.8,2.1
		c0.6,0.5,1.2,0.8,1.8,0.8s1-0.2,1.3-0.4C16.5,92.5,16.8,92.2,16.9,91.5z M12.3,89.2h4.8c0-0.8-0.3-1.2-0.6-1.6
		c-0.5-0.6-1-0.9-1.8-0.9c-0.6,0-1.2,0.2-1.7,0.6C12.5,87.9,12.3,88.5,12.3,89.2z"/>
	<path class="st4" d="M25.9,93.3c-0.6,0.5-1,0.8-1.5,0.9c-0.4,0.2-1,0.3-1.6,0.3c-0.9,0-1.7-0.3-2.1-0.8c-0.4-0.5-0.8-1-0.8-1.8
		c0-0.5,0.2-0.8,0.3-1.2c0.1-0.3,0.4-0.6,0.8-0.9c0.3-0.2,0.6-0.3,1-0.4c0.3,0,0.8-0.2,1.3-0.2c1.2-0.1,2.1-0.3,2.5-0.4
		c0-0.2,0-0.3,0-0.4c0-0.6-0.1-1.1-0.4-1.2c-0.3-0.3-0.9-0.4-1.7-0.4s-1.2,0.2-1.5,0.3s-0.6,0.6-0.8,1.2l-1.3-0.1
		c0.2-0.6,0.3-1.1,0.6-1.5c0.3-0.3,0.8-0.6,1.3-0.9c0.6-0.1,1.2-0.3,2-0.3s1.3,0.2,1.8,0.3s0.8,0.4,1.1,0.6c0.2,0.3,0.3,0.6,0.4,1
		c0,0.3,0,0.8,0,1.4v1.9c0,1.4,0,2.3,0.2,2.6c0.2,0.3,0.2,0.8,0.3,1h-1.5C26,94,25.9,93.6,25.9,93.3z M25.8,90
		c-0.6,0.2-1.4,0.4-2.4,0.6c-0.6,0.1-1,0.1-1.2,0.3c-0.3,0.2-0.5,0.3-0.6,0.5c-0.2,0.1-0.2,0.4-0.2,0.8s0.2,0.8,0.5,0.9
		c0.3,0.2,0.8,0.4,1.3,0.4s1.1-0.1,1.5-0.3c0.4-0.3,0.8-0.6,0.9-1.1c0.2-0.3,0.3-0.8,0.3-1.5L25.8,90C25.9,90,25.8,90,25.8,90z"/>
	<path class="st4" d="M32.6,93l0.2,1.3c-0.4,0.1-0.8,0.1-1,0.1c-0.6,0-0.9-0.1-1.2-0.3c-0.3-0.1-0.4-0.5-0.6-0.6
		c-0.2-0.1-0.2-0.8-0.2-1.6V87h-1v-1.2h1v-2.1l1.5-0.9v3h1.5V87h-1.5v4.9c0,0.5,0,0.8,0.2,0.8c0,0.2,0.2,0.2,0.3,0.3
		c0.1,0,0.3,0.2,0.4,0.2C32.2,93.1,32.4,93,32.6,93z"/>
	<path class="st4" d="M39.5,94.3v-1.2c-0.6,0.9-1.5,1.5-2.7,1.5c-0.5,0-0.9-0.2-1.3-0.3c-0.5-0.2-0.8-0.5-0.9-0.8
		c-0.2-0.3-0.3-0.6-0.5-1.1c0-0.3-0.1-0.8-0.1-1.3v-5.4h1.5v4.8c0,0.8,0,1.2,0.1,1.5c0.2,0.4,0.3,0.8,0.6,0.9c0.3,0.2,0.6,0.3,1,0.3
		s0.9-0.2,1.2-0.3c0.4-0.1,0.6-0.6,0.8-0.9c0.1-0.5,0.3-0.9,0.3-1.7v-4.4H41v8.6h-1.5C39.6,94.5,39.6,94.3,39.5,94.3z"/>
	<path class="st4" d="M43.2,94.3v-8.5h1.4v1.3c0.3-0.6,0.6-1,0.9-1.2c0.3-0.1,0.6-0.3,0.9-0.3c0.5,0,1.1,0.2,1.5,0.5l-0.4,1.3
		c-0.3-0.1-0.8-0.3-1.1-0.3c-0.3,0-0.6,0.2-0.9,0.3c-0.3,0.1-0.4,0.4-0.6,0.8c-0.1,0.4-0.3,1.1-0.3,1.7v4.5h-1.4V94.3z"/>
	<path class="st4" d="M54.6,91.5l1.5,0.2c-0.3,0.9-0.6,1.5-1.4,2.1c-0.6,0.5-1.5,0.8-2.4,0.8c-1.2,0-2.3-0.5-3-1.2s-1.1-1.8-1.1-3.3
		s0.3-2.5,1.1-3.3s1.6-1.2,2.9-1.2c1.2,0,2.1,0.5,2.9,1.2s1.1,1.8,1.1,3.3c0,0.2,0,0.2,0,0.5h-6.4c0,0.9,0.3,1.6,0.8,2.1
		c0.4,0.4,1.1,0.8,1.8,0.8c0.6,0,1.1-0.1,1.4-0.4C54,92.5,54.3,92.2,54.6,91.5z M49.8,89.2h4.8c0-0.8-0.3-1.2-0.6-1.6
		c-0.4-0.6-1.1-0.9-1.8-0.9c-0.6,0-1.2,0.2-1.6,0.6C50.1,87.9,49.8,88.5,49.8,89.2z"/>
	<path class="st4" d="M57.3,91.8l1.5-0.3c0.1,0.6,0.3,1.1,0.6,1.4c0.3,0.3,0.9,0.4,1.5,0.4c0.6,0,1.2-0.2,1.5-0.4
		c0.3-0.4,0.4-0.7,0.4-1s-0.1-0.6-0.4-0.8c-0.1-0.1-0.8-0.3-1.5-0.4c-1.1-0.3-1.8-0.4-2.3-0.8c-0.4-0.2-0.8-0.4-0.9-0.8
		s-0.3-0.8-0.3-1.2c0-0.5,0.1-0.8,0.3-1.1c0.1-0.3,0.4-0.6,0.8-0.8c0.1-0.2,0.6-0.3,0.9-0.4c0.3-0.2,0.8-0.2,1.2-0.2
		c0.6,0,1.2,0.2,1.8,0.3c0.4,0.1,0.9,0.4,1.1,0.8c0.3,0.3,0.4,0.8,0.4,1.3L62.5,88c0-0.4-0.3-0.8-0.6-1.1c-0.3-0.3-0.8-0.3-1.4-0.3
		s-1.2,0.2-1.4,0.3c-0.3,0.2-0.4,0.4-0.4,0.8c0,0.2,0,0.3,0.1,0.4c0.1,0.2,0.3,0.3,0.6,0.5c0.1,0,0.6,0.1,1.4,0.3
		c1.1,0.3,1.8,0.5,2.1,0.6c0.4,0.1,0.8,0.4,0.9,0.8c0.1,0.4,0.3,0.8,0.3,1.2s-0.1,0.9-0.4,1.4c-0.3,0.4-0.8,0.7-1.2,1
		c-0.4,0.3-1.2,0.3-1.8,0.3c-1.1,0-1.9-0.3-2.6-0.8C57.8,93.3,57.4,92.7,57.3,91.8z"/>
	<path class="st4" d="M66.4,87.4v-1.6H68v1.6H66.4z M66.4,94.3v-1.7H68v1.7H66.4z"/>
	<path class="st4" d="M75.4,94.3V82.5h5.3c1.1,0,1.8,0.1,2.4,0.3c0.6,0.2,1.1,0.6,1.4,1.1c0.3,0.6,0.4,1.2,0.4,1.8
		c0,0.9-0.3,1.5-0.8,2.1c-0.6,0.6-1.4,0.9-2.6,1.1c0.4,0.1,0.8,0.4,0.9,0.6c0.4,0.5,0.9,0.9,1.4,1.5l2.1,3.2H84l-1.5-2.4
		c-0.4-0.8-0.9-1.2-1.2-1.6s-0.6-0.6-0.8-0.8c-0.3-0.3-0.4-0.5-0.7-0.5c-0.1,0-0.4,0-0.9,0h-1.8v5.3L75.4,94.3L75.4,94.3z
		 M77.1,87.7h3.3c0.8,0,1.2,0,1.6-0.1c0.4-0.2,0.8-0.5,0.9-0.8s0.3-0.8,0.3-1.1c0-0.6-0.1-1.1-0.6-1.4c-0.4-0.3-1.1-0.6-1.9-0.6
		h-3.8v3.9C76.9,87.7,77.1,87.7,77.1,87.7z"/>
	<path class="st4" d="M93,91.5l1.5,0.2c-0.3,0.9-0.6,1.5-1.4,2.1c-0.6,0.5-1.5,0.8-2.4,0.8c-1.2,0-2.3-0.5-3-1.2s-1.1-1.8-1.1-3.3
		s0.3-2.5,1.1-3.3c0.8-0.8,1.6-1.2,2.9-1.2c1.2,0,2.1,0.5,2.9,1.2c0.8,0.7,1.1,1.8,1.1,3.3c0,0.2,0,0.2,0,0.5h-6.3
		c0,0.9,0.3,1.6,0.8,2.1c0.4,0.4,1.1,0.8,1.8,0.8c0.6,0,1.1-0.1,1.4-0.4C92.5,92.5,92.8,92.2,93,91.5z M88.2,89.2H93
		c0-0.8-0.3-1.2-0.6-1.6c-0.4-0.6-1.1-0.9-1.8-0.9c-0.6,0-1.2,0.2-1.6,0.6C88.5,87.9,88.3,88.5,88.2,89.2z"/>
	<path class="st4" d="M101.8,94.3v-1c-0.6,0.9-1.4,1.2-2.4,1.2c-0.8,0-1.4-0.2-2-0.6c-0.6-0.3-1-0.9-1.4-1.5
		c-0.3-0.6-0.4-1.5-0.4-2.3c0-0.9,0.1-1.6,0.4-2.3c0.3-0.8,0.8-1.2,1.4-1.6c0.6-0.3,1.2-0.6,2-0.6c0.5,0,0.9,0.2,1.4,0.3
		s0.8,0.4,1,0.9v-4.2h1.5v11.9h-1.5V94.3z M97.3,90c0,1.1,0.3,1.9,0.8,2.4c0.5,0.6,1,0.8,1.6,0.8s1.2-0.3,1.6-0.8
		c0.5-0.5,0.6-1.4,0.6-2.4c0-1.2-0.1-2.1-0.8-2.6c-0.6-0.4-1-0.8-1.6-0.8c-0.6,0-1.2,0.3-1.6,0.8C97.5,88,97.3,88.9,97.3,90z"/>
	<path class="st4" d="M111.6,94.3l-2.6-8.5h1.5l1.4,4.9l0.5,1.8c0-0.2,0.1-0.8,0.5-1.8l1.4-4.9h1.5l1.4,4.9l0.5,1.7l0.5-1.7l1.5-4.9
		h1.4l-2.7,8.5h-1.5l-1.4-5.1l-0.3-1.5l-1.8,6.6H111.6z"/>
	<path class="st4" d="M121.9,84.1v-1.6h1.5v1.6H121.9z M121.9,94.3v-8.5h1.5v8.5H121.9z"/>
	<path class="st4" d="M125.5,94.3v-8.5h1.3V87c0.6-0.9,1.5-1.3,2.7-1.3c0.5,0,1,0.1,1.4,0.3c0.5,0.2,0.8,0.5,0.9,0.8
		c0.1,0.3,0.3,0.6,0.5,1.1c0,0.3,0.1,0.8,0.1,1.4v5.2h-1.5v-5.3c0-0.6,0-1.1-0.1-1.4c-0.1-0.3-0.3-0.4-0.6-0.7
		c-0.3-0.3-0.6-0.3-1-0.3c-0.6,0-1.2,0.2-1.6,0.6c-0.5,0.4-0.6,1.2-0.6,2.3v4.6L125.5,94.3L125.5,94.3z"/>
	<path class="st4" d="M140.5,91.5l1.5,0.2c-0.3,0.9-0.6,1.5-1.4,2.1c-0.6,0.5-1.5,0.8-2.4,0.8c-1.2,0-2.3-0.5-3-1.2s-1-1.8-1-3.3
		s0.3-2.5,1-3.3s1.6-1.2,2.9-1.2c1.2,0,2.1,0.5,2.8,1.2c0.7,0.7,1,1.8,1,3.3c0,0.2,0,0.2,0,0.5h-6.3c0,0.9,0.3,1.6,0.8,2.1
		c0.5,0.4,1,0.8,1.8,0.8c0.6,0,1-0.1,1.4-0.4C140.1,92.5,140.4,92.2,140.5,91.5z M135.9,89.2h4.8c0-0.8-0.3-1.2-0.6-1.6
		c-0.5-0.6-1-0.9-1.8-0.9c-0.6,0-1.2,0.2-1.6,0.6C136.2,87.9,135.9,88.5,135.9,89.2z"/>
	<path class="st4" d="M143.4,91.8l1.5-0.3c0.1,0.6,0.3,1.1,0.6,1.4c0.3,0.3,0.9,0.4,1.5,0.4s1.2-0.2,1.5-0.4
		c0.3-0.3,0.5-0.6,0.5-0.9s-0.1-0.6-0.5-0.8c-0.2-0.1-0.8-0.3-1.5-0.4c-1-0.3-1.8-0.4-2.3-0.8c-0.5-0.2-0.8-0.4-0.9-0.8
		c-0.1-0.3-0.3-0.8-0.3-1.2c0-0.5,0.1-0.8,0.3-1.1c0.2-0.3,0.5-0.6,0.8-0.8c0.2-0.2,0.6-0.3,0.9-0.4c0.3-0.2,0.8-0.2,1.2-0.2
		c0.6,0,1.2,0.2,1.8,0.3c0.5,0.1,0.9,0.4,1,0.8c0.3,0.3,0.5,0.8,0.5,1.3l-1.3,0.2c0-0.4-0.3-0.8-0.6-1.1c-0.3-0.3-0.8-0.3-1.4-0.3
		s-1.2,0.2-1.3,0.3c-0.4,0.3-0.6,0.6-0.6,0.9c0,0.2,0,0.3,0.1,0.4c0.2,0.2,0.3,0.3,0.6,0.5c0.1,0,0.6,0.1,1.4,0.3
		c1,0.3,1.8,0.5,2.1,0.6c0.5,0.1,0.8,0.4,0.9,0.8c0.1,0.3,0.3,0.8,0.3,1.2s-0.1,0.9-0.4,1.4c-0.3,0.4-0.8,0.7-1.2,1
		s-1.2,0.3-1.8,0.3c-1.1,0-2-0.3-2.6-0.8C143.8,93.3,143.5,92.7,143.4,91.8z"/>
	<path class="st4" d="M152.5,94.3v-1.7h1.6v1.7c0,0.6-0.1,1-0.3,1.5c-0.2,0.3-0.6,0.6-1.1,0.9l-0.4-0.6c0.3-0.2,0.6-0.3,0.8-0.6
		c0.1-0.3,0.1-0.6,0.3-1L152.5,94.3L152.5,94.3z"/>
	<path class="st4" d="M163.5,94.3l-3.2-11.9h1.7l1.8,7.8c0.1,0.8,0.3,1.7,0.5,2.4c0.3-1.2,0.5-2,0.6-2.3l2.3-8h2l1.6,6
		c0.5,1.5,0.8,2.9,0.9,4.2c0.2-0.8,0.3-1.7,0.6-2.6l1.8-7.5h1.5l-3.3,11.8h-1.5l-2.5-9c-0.2-0.8-0.3-1.2-0.3-1.3
		c-0.1,0.6-0.3,1.1-0.3,1.3l-2.5,9L163.5,94.3L163.5,94.3z"/>
	<path class="st4" d="M176.8,94.3V82.5h1.5v4.2c0.8-0.8,1.5-1.2,2.6-1.2c0.6,0,1.2,0.2,1.6,0.3s0.8,0.6,1,1.1
		c0.2,0.4,0.3,1.1,0.3,1.9v5.4h-1.5v-5.4c0-0.8-0.1-1.2-0.5-1.7c-0.3-0.3-0.8-0.4-1.3-0.4s-0.9,0.2-1.2,0.3
		c-0.3,0.2-0.6,0.4-0.8,0.9c-0.1,0.5-0.3,0.9-0.3,1.7v4.6L176.8,94.3L176.8,94.3z"/>
	<path class="st4" d="M186,84.1v-1.6h1.5v1.6H186z M186,94.3v-8.5h1.5v8.5H186z"/>
	<path class="st4" d="M192.9,93l0.2,1.3c-0.5,0.1-0.8,0.1-1,0.1c-0.6,0-0.9-0.1-1.2-0.3c-0.3-0.1-0.5-0.5-0.6-0.6
		c-0.2-0.2-0.2-0.9-0.2-1.7v-4.9H189v-1.2h1v-2.1l1.5-0.9v3h1.5v1.2h-1.5v5c0,0.5,0,0.8,0.1,0.8c0,0.2,0.2,0.2,0.3,0.3
		c0.1,0,0.3,0.2,0.4,0.2C192.2,93.1,192.5,93,192.9,93z"/>
	<path class="st4" d="M200.1,91.5l1.5,0.2c-0.3,0.9-0.6,1.5-1.4,2.1c-0.6,0.5-1.5,0.8-2.4,0.8c-1.2,0-2.3-0.5-3-1.2
		c-0.7-0.7-1-1.8-1-3.3s0.3-2.5,1-3.3c0.7-0.8,1.7-1.2,2.8-1.2c1.2,0,2.1,0.5,2.8,1.2c0.8,0.8,1,1.8,1,3.3c0,0.2,0,0.2,0,0.5h-6.3
		c0,0.9,0.3,1.6,0.8,2.1c0.5,0.4,1,0.8,1.8,0.8c0.6,0,1-0.1,1.3-0.4C199.6,92.5,199.9,92.2,200.1,91.5z M195.2,89.2h4.8
		c0-0.8-0.3-1.2-0.6-1.6c-0.5-0.6-1-0.9-1.8-0.9c-0.6,0-1.2,0.2-1.7,0.6C195.5,87.9,195.4,88.5,195.2,89.2z"/>
	<path class="st4" d="M209.5,94.3l-2.6-8.5h1.5l1.4,4.9l0.4,1.8c0-0.2,0.2-0.8,0.4-1.8l1.4-4.9h1.5l1.3,4.9l0.5,1.7l0.5-1.7l1.5-4.9
		h1.3l-2.7,8.5h-1.5l-1.3-5.1l-0.3-1.5l-1.8,6.6H209.5z"/>
	<path class="st4" d="M219.9,84.1v-1.6h1.5v1.6H219.9z M219.9,94.3v-8.5h1.5v8.5H219.9z"/>
	<path class="st4" d="M223.4,94.3v-8.5h1.4V87c0.6-0.9,1.5-1.3,2.7-1.3c0.4,0,1.1,0.1,1.3,0.3c0.5,0.2,0.8,0.5,0.9,0.8
		c0.2,0.3,0.3,0.6,0.4,1.1c0,0.3,0.2,0.8,0.2,1.4v5.2h-1.5v-5.3c0-0.6,0-1.1-0.2-1.4c-0.1-0.3-0.3-0.4-0.6-0.8
		c-0.3-0.3-0.6-0.3-1.1-0.3c-0.6,0-1.2,0.1-1.7,0.6s-0.6,1.2-0.6,2.3v4.7L223.4,94.3L223.4,94.3z"/>
	<path class="st4" d="M238.4,91.5l1.5,0.2c-0.3,0.9-0.6,1.5-1.3,2.1c-0.6,0.5-1.5,0.8-2.4,0.8c-1.2,0-2.3-0.5-3-1.2
		c-0.8-0.8-1-1.8-1-3.3s0.3-2.5,1-3.3s1.7-1.2,2.9-1.2s2.1,0.5,2.8,1.2s1.1,1.8,1.1,3.3c0,0.2,0,0.2,0,0.5h-6.3
		c0,0.9,0.3,1.6,0.8,2.1c0.5,0.4,1.1,0.8,1.8,0.8c0.6,0,1.1-0.1,1.3-0.4C238,92.5,238.3,92.2,238.4,91.5z M233.8,89.2h4.8
		c0-0.8-0.3-1.2-0.6-1.6c-0.4-0.6-1.1-0.9-1.8-0.9c-0.6,0-1.2,0.2-1.6,0.6C234.1,87.9,233.8,88.5,233.8,89.2z"/>
	<path class="st4" d="M241.3,91.8l1.5-0.3c0.1,0.6,0.3,1.1,0.6,1.4s0.9,0.4,1.5,0.4s1.2-0.2,1.5-0.4c0.3-0.3,0.5-0.6,0.5-0.9
		s-0.2-0.6-0.5-0.8c-0.1-0.1-0.8-0.3-1.5-0.4c-1-0.3-1.8-0.4-2.3-0.8c-0.4-0.2-0.8-0.4-0.9-0.8c-0.2-0.3-0.3-0.8-0.3-1.2
		c0-0.5,0.2-0.8,0.3-1.1s0.4-0.6,0.8-0.8c0.3-0.2,0.6-0.3,0.9-0.4c0.5-0.2,0.8-0.2,1.2-0.2c0.6,0,1.2,0.2,1.8,0.3
		c0.5,0.1,0.9,0.4,1.1,0.8c0.3,0.3,0.4,0.8,0.4,1.3l-1.3,0.2c0-0.4-0.3-0.8-0.6-1.1c-0.3-0.3-0.8-0.3-1.3-0.3
		c-0.6,0-1.2,0.2-1.4,0.3c-0.3,0.2-0.4,0.4-0.4,0.8c0,0.2,0,0.3,0.2,0.4c0.2,0.2,0.3,0.3,0.6,0.5c0.2,0,0.6,0.1,1.3,0.3
		c1,0.3,1.8,0.5,2.1,0.6c0.4,0.1,0.8,0.4,0.9,0.8c0.3,0.3,0.3,0.8,0.3,1.2s-0.1,0.9-0.4,1.4c-0.3,0.4-0.8,0.7-1.2,1
		c-0.6,0.3-1.2,0.3-1.8,0.3c-1.1,0-1.9-0.3-2.6-0.8C241.7,93.3,241.4,92.7,241.3,91.8z"/>
	<path class="st4" d="M250.4,94.3v-1.7h1.7v1.7c0,0.6-0.2,1-0.3,1.5c-0.2,0.3-0.6,0.6-1.1,0.9l-0.4-0.6c0.3-0.2,0.6-0.3,0.8-0.6
		c0.2-0.3,0.2-0.6,0.3-1L250.4,94.3L250.4,94.3z"/>
</g>
<g class="st1">
	<path class="st4" d="M261.4,94.3l-3.2-11.9h1.7l1.8,7.8c0.2,0.8,0.3,1.7,0.5,2.4c0.3-1.2,0.5-2,0.6-2.3l2.3-8h1.9l1.7,6
		c0.4,1.5,0.8,2.9,0.9,4.2c0.2-0.8,0.3-1.7,0.6-2.6l1.8-7.5h1.5l-3.3,11.8h-1.5l-2.6-9c-0.2-0.8-0.3-1.2-0.3-1.3
		c-0.1,0.6-0.3,1.1-0.3,1.3l-2.5,9L261.4,94.3L261.4,94.3z"/>
</g>
<g class="st1">
	<path class="st4" d="M272.9,94.3l4.5-11.9h1.7l4.8,11.9h-1.8l-1.4-3.6h-4.8l-1.3,3.6H272.9z M276.4,89.5h4l-1.2-3.3
		c-0.4-1.1-0.6-1.8-0.9-2.4c-0.2,0.8-0.3,1.5-0.6,2.3L276.4,89.5z"/>
</g>
<g class="st1">
	<path class="st4" d="M290.4,94.3l-2.6-8.6h1.5l1.3,4.9l0.5,1.8c0-0.1,0.1-0.8,0.4-1.8l1.3-4.9h1.5l1.3,4.9l0.4,1.7l0.5-1.7l1.5-4.9
		h1.3l-2.7,8.6h-1.5l-1.4-5.1l-0.3-1.5l-1.8,6.6H290.4z"/>
	<path class="st4" d="M300.7,84.1v-1.6h1.5v1.6H300.7z M300.7,94.3v-8.5h1.5v8.5H300.7z"/>
	<path class="st4" d="M304.3,94.3v-8.5h1.3V87c0.6-0.9,1.5-1.3,2.7-1.3c0.5,0,1,0.1,1.3,0.3c0.4,0.2,0.8,0.5,0.9,0.8
		c0.2,0.3,0.3,0.6,0.5,1.1c0,0.3,0.1,0.8,0.1,1.4v5.2h-1.5v-5.3c0-0.6,0-1.1-0.1-1.4c-0.2-0.3-0.3-0.4-0.6-0.8
		c-0.3-0.3-0.6-0.3-1-0.3c-0.6,0-1.2,0.1-1.7,0.6s-0.6,1.2-0.6,2.3v4.7L304.3,94.3L304.3,94.3z"/>
	<path class="st4" d="M319.3,91.5l1.5,0.2c-0.3,0.9-0.6,1.5-1.4,2.1c-0.6,0.5-1.5,0.8-2.4,0.8c-1.2,0-2.3-0.5-3-1.2
		c-0.8-0.8-1.1-1.8-1.1-3.3s0.3-2.5,1.1-3.3c0.8-0.8,1.6-1.2,2.8-1.2s2.1,0.5,2.9,1.2s1,1.8,1,3.3c0,0.2,0,0.2,0,0.5h-6.3
		c0,0.9,0.3,1.6,0.8,2.1c0.4,0.4,1,0.8,1.8,0.8c0.6,0,1-0.1,1.3-0.4C318.9,92.5,319.2,92.2,319.3,91.5z M314.7,89.2h4.8
		c0-0.8-0.3-1.2-0.6-1.6c-0.5-0.6-1.1-0.9-1.8-0.9c-0.6,0-1.2,0.2-1.7,0.6C314.9,87.9,314.7,88.5,314.7,89.2z"/>
	<path class="st4" d="M322.2,91.8l1.5-0.3c0.2,0.6,0.3,1.1,0.6,1.4c0.3,0.3,0.9,0.4,1.5,0.4c0.6,0,1.2-0.2,1.5-0.4
		c0.3-0.3,0.4-0.6,0.4-0.9s-0.1-0.6-0.4-0.8c-0.2-0.1-0.8-0.3-1.5-0.4c-1.1-0.3-1.8-0.4-2.3-0.8c-0.4-0.2-0.8-0.4-0.9-0.8
		s-0.3-0.8-0.3-1.2c0-0.5,0.1-0.8,0.3-1.1c0.2-0.3,0.5-0.6,0.8-0.8c0.3-0.2,0.6-0.3,0.9-0.4c0.4-0.2,0.8-0.2,1.2-0.2
		c0.6,0,1.2,0.2,1.8,0.3c0.4,0.1,0.9,0.4,1.1,0.8c0.3,0.3,0.5,0.8,0.5,1.3l-1.4,0.2c0-0.4-0.3-0.8-0.6-1.1c-0.3-0.3-0.8-0.3-1.3-0.3
		s-1.2,0.2-1.3,0.3c-0.3,0.2-0.4,0.4-0.4,0.8c0,0.2,0,0.3,0.1,0.4c0.2,0.2,0.3,0.3,0.6,0.5c0.1,0,0.6,0.1,1.3,0.3
		c1.1,0.3,1.8,0.5,2.1,0.6c0.4,0.1,0.8,0.4,0.9,0.8c0.3,0.3,0.3,0.8,0.3,1.2s-0.1,0.9-0.4,1.4c-0.3,0.4-0.8,0.7-1.2,1
		c-0.6,0.3-1.2,0.3-1.8,0.3c-1.1,0-2-0.3-2.6-0.8C322.6,93.3,322.3,92.7,322.2,91.8z"/>
</g>
<g class="st1">
	<path class="st4" d="M6.7,117.6l1.3,0.1c-0.1,1.1-0.6,1.8-1.2,2.4S5.3,121,4.4,121c-1.2,0-2.1-0.5-2.8-1.2s-1.1-1.8-1.1-3.3
		c0-0.9,0.2-1.8,0.5-2.4s0.8-1.2,1.3-1.5s1.3-0.5,2.1-0.5c0.9,0,1.7,0.3,2.3,0.8s0.9,1.2,1.2,2l-1.4,0.2c-0.2-0.6-0.3-1-0.8-1.4
		c-0.3-0.3-0.8-0.5-1.2-0.5c-0.8,0-1.3,0.3-1.8,0.8c-0.4,0.5-0.8,1.4-0.8,2.5c0,1.2,0.2,2,0.6,2.5c0.5,0.6,1.1,0.8,1.7,0.8
		s1.1-0.1,1.3-0.5C6.3,118.9,6.5,118.3,6.7,117.6z"/>
	<path class="st4" d="M8.8,116.5c0-1.7,0.5-2.7,1.4-3.5c0.8-0.6,1.6-0.9,2.7-0.9c1.2,0,2.1,0.5,2.8,1.2s1,1.8,1,3.2
		c0,1-0.2,2-0.5,2.5c-0.3,0.6-0.8,1-1.5,1.5s-1.3,0.3-2.1,0.3c-1.2,0-2.1-0.5-2.8-1.2C9.1,119.1,8.8,117.9,8.8,116.5z M10.3,116.5
		c0,1,0.3,2,0.8,2.4c0.5,0.6,1.1,0.8,1.8,0.8s1.3-0.3,1.8-0.8c0.5-0.6,0.8-1.3,0.8-2.5c0-1-0.3-1.8-0.8-2.4s-1-0.8-1.8-0.8
		s-1.4,0.3-1.8,0.8C10.5,114.6,10.3,115.3,10.3,116.5z"/>
	<path class="st4" d="M18.4,120.7v-11.8h1.5v4.2c0.8-0.8,1.5-1.2,2.5-1.2c0.6,0,1.2,0.2,1.7,0.3c0.4,0.2,0.8,0.6,1,1
		c0.2,0.5,0.3,1,0.3,2v5.4h-1.5v-5.4c0-0.8-0.2-1.2-0.5-1.6c-0.3-0.3-0.8-0.5-1.3-0.5s-0.9,0.1-1.2,0.3c-0.3,0.1-0.6,0.5-0.8,0.9
		s-0.3,0.9-0.3,1.7v4.6L18.4,120.7C18.4,120.6,18.4,120.7,18.4,120.7z"/>
	<path class="st4" d="M27.1,116.5c0-1.7,0.4-2.7,1.3-3.5c0.8-0.6,1.7-0.9,2.7-0.9c1.2,0,2.1,0.5,2.9,1.2s1,1.8,1,3.2
		c0,1-0.2,2-0.4,2.5c-0.3,0.6-0.8,1-1.5,1.5S31.8,121,31,121c-1.2,0-2.1-0.5-2.9-1.2C27.4,119.1,27.1,117.9,27.1,116.5z M28.6,116.5
		c0,1,0.3,2,0.8,2.4c0.4,0.6,1,0.8,1.8,0.8s1.4-0.3,1.8-0.8c0.4-0.6,0.8-1.3,0.8-2.5c0-1-0.3-1.8-0.8-2.4s-1.1-0.8-1.8-0.8
		s-1.3,0.3-1.8,0.8C28.8,114.6,28.6,115.3,28.6,116.5z"/>
	<path class="st4" d="M38.4,120.7l-2.6-8.5h1.5l1.3,5l0.5,1.8c0-0.2,0.2-0.8,0.5-1.8l1.3-5h1.5l1.3,5l0.4,1.6l0.4-1.6l1.5-5h1.3
		l-2.7,8.5h-1.5l-1.3-5.1l-0.3-1.5l-1.8,6.6H38.4z"/>
	<path class="st4" d="M48.7,110.7v-1.6h1.5v1.6H48.7z M48.7,120.7v-8.5h1.5v8.5H48.7z"/>
	<path class="st4" d="M52.3,120.7v-8.5h1.4v1.2c0.6-0.9,1.5-1.4,2.7-1.4c0.4,0,1.1,0.2,1.4,0.3c0.4,0.2,0.8,0.5,0.9,0.8
		c0.1,0.3,0.3,0.6,0.4,1c0,0.3,0.1,0.8,0.1,1.4v5.3h-1.5v-5.3c0-0.6,0-1-0.1-1.4c-0.1-0.3-0.3-0.5-0.6-0.8c-0.3-0.3-0.6-0.3-1.1-0.3
		c-0.6,0-1.2,0.2-1.6,0.6c-0.4,0.4-0.6,1.2-0.6,2.3v4.6L52.3,120.7L52.3,120.7z"/>
	<path class="st4" d="M67.3,118l1.5,0.1c-0.3,0.9-0.6,1.5-1.4,2.1c-0.6,0.5-1.5,0.8-2.4,0.8c-1.2,0-2.3-0.5-3-1.2s-1.1-1.8-1.1-3.3
		s0.3-2.5,1.1-3.3s1.6-1.2,2.9-1.2c1.2,0,2.1,0.5,2.9,1.2s1,1.8,1,3.3c0,0.1,0,0.1,0,0.5h-6.3c0,0.9,0.3,1.6,0.8,2.1
		s1.1,0.8,1.8,0.8c0.6,0,1.1-0.1,1.4-0.5C66.8,119.1,67.2,118.6,67.3,118z M62.7,115.6h4.8c0-0.8-0.3-1.2-0.6-1.6
		c-0.4-0.6-1.1-0.9-1.8-0.9c-0.6,0-1.2,0.2-1.6,0.6C63,114.3,62.7,114.9,62.7,115.6z"/>
	<path class="st4" d="M70.6,120.7v-8.5H72v1.3c0.3-0.6,0.6-1,0.9-1.2c0.3-0.1,0.6-0.3,0.9-0.3c0.4,0,1.1,0.2,1.5,0.5l-0.5,1.3
		c-0.3-0.2-0.8-0.3-1.1-0.3c-0.3,0-0.6,0.2-0.9,0.3s-0.4,0.5-0.6,0.8c-0.1,0.5-0.3,1-0.3,1.6v4.5C72,120.7,70.6,120.7,70.6,120.7z"
		/>
</g>
<g class="st1">
	<path class="st4" d="M76.2,124l-0.1-1.4c0.3,0.2,0.6,0.2,0.9,0.2c0.3,0,0.6,0,0.8-0.2c0.1-0.1,0.3-0.3,0.4-0.5
		c0.1-0.1,0.3-0.5,0.4-1c0-0.1,0-0.1,0.1-0.3l-3.3-8.5h1.5l1.8,5c0.3,0.6,0.4,1.4,0.6,2c0.1-0.6,0.3-1.3,0.6-2l1.8-5h1.5l-3.3,8.7
		c-0.3,0.9-0.6,1.7-0.8,2c-0.3,0.5-0.6,0.9-0.9,1c-0.3,0.2-0.8,0.3-1.2,0.3C76.8,124.2,76.5,124.2,76.2,124z"/>
</g>
<g class="st1">
	<path class="st4" d="M83.5,120.7V119h1.6v1.7H83.5z"/>
	<path class="st4" d="M93.3,117.6l1.4,0.1c-0.1,1-0.6,1.8-1.2,2.3c-0.6,0.6-1.5,0.9-2.4,0.9c-1.2,0-2.1-0.5-2.9-1.2
		c-0.8-0.7-1.1-1.8-1.1-3.3c0-0.9,0.1-1.8,0.4-2.4c0.3-0.8,0.8-1.2,1.4-1.5s1.4-0.5,2.1-0.5c0.9,0,1.6,0.3,2.3,0.8s0.9,1.2,1.2,2
		l-1.4,0.1c-0.1-0.6-0.3-1-0.8-1.4c-0.3-0.3-0.8-0.5-1.2-0.5c-0.8,0-1.4,0.3-1.8,0.8s-0.8,1.4-0.8,2.5c0,1.2,0.1,2,0.6,2.5
		s1.1,0.8,1.6,0.8c0.6,0,1.1-0.1,1.4-0.5C93,118.9,93.3,118.3,93.3,117.6z"/>
	<path class="st4" d="M95.3,116.5c0-1.7,0.4-2.7,1.4-3.5c0.8-0.6,1.6-0.9,2.7-0.9c1.2,0,2.1,0.5,2.9,1.2s1,1.8,1,3.2
		c0,1-0.1,2-0.5,2.5c-0.3,0.6-0.8,1-1.5,1.5s-1.4,0.5-2.1,0.5c-1.2,0-2.1-0.5-2.9-1.2C95.8,119.1,95.3,117.9,95.3,116.5z
		 M96.8,116.5c0,1,0.3,2,0.8,2.4c0.5,0.6,1,0.8,1.8,0.8s1.4-0.3,1.8-0.8c0.5-0.6,0.8-1.3,0.8-2.5c0-1-0.3-1.8-0.8-2.4
		s-1-0.8-1.8-0.8s-1.4,0.3-1.8,0.8C97.2,114.6,96.8,115.3,96.8,116.5z"/>
	<path class="st4" d="M105.1,120.7v-8.5h1.4v1.2c0.3-0.5,0.6-0.8,1-1c0.5-0.3,0.9-0.5,1.5-0.5c0.6,0,1.2,0.1,1.5,0.5
		c0.5,0.3,0.8,0.6,0.9,1c0.8-1,1.5-1.5,2.7-1.5c0.9,0,1.5,0.3,2,0.8s0.8,1.2,0.8,2.1v5.9h-1.5v-5.4c0-0.6,0-1-0.1-1.2
		c-0.1-0.3-0.3-0.5-0.5-0.6c-0.3-0.2-0.6-0.3-0.9-0.3c-0.6,0-1,0.1-1.5,0.6s-0.6,1-0.6,2v5h-1.5v-5.5c0-0.6-0.1-1.2-0.3-1.5
		c-0.3-0.3-0.6-0.5-1.2-0.5c-0.5,0-0.8,0.2-1.2,0.3c-0.5,0.2-0.6,0.6-0.8,0.9c-0.2,0.3-0.3,1-0.3,1.8v4.5L105.1,120.7L105.1,120.7z"
		/>
	<path class="st4" d="M123.4,110.7v-1.6h1.5v1.6H123.4z M123.4,120.7v-8.5h1.5v8.5H123.4z"/>
	<path class="st4" d="M126.6,118.2l1.5-0.3c0.1,0.6,0.3,1,0.6,1.4c0.3,0.3,0.9,0.5,1.5,0.5c0.6,0,1.2-0.2,1.5-0.5s0.5-0.6,0.5-0.9
		s-0.1-0.6-0.5-0.8c-0.1-0.1-0.8-0.3-1.5-0.5c-1-0.3-1.8-0.5-2.3-0.8c-0.5-0.1-0.8-0.5-0.9-0.8s-0.3-0.8-0.3-1.2s0.1-0.8,0.3-1
		s0.5-0.6,0.8-0.8c0.3-0.1,0.6-0.3,0.9-0.5c0.5-0.1,0.8-0.1,1.2-0.1c0.6,0,1.2,0.1,1.8,0.3c0.5,0.1,0.9,0.5,1,0.8
		c0.3,0.3,0.5,0.8,0.5,1.3l-1.4,0.3c0-0.5-0.3-0.8-0.6-1c-0.3-0.3-0.8-0.3-1.4-0.3s-1.2,0.1-1.4,0.3c-0.3,0.1-0.5,0.5-0.5,0.8
		c0,0.1,0,0.3,0.1,0.5c0.1,0.1,0.3,0.3,0.6,0.5c0.1,0,0.6,0.1,1.4,0.3c1,0.3,1.8,0.5,2.1,0.6c0.5,0.2,0.8,0.5,0.9,0.8
		c0.3,0.3,0.3,0.8,0.3,1.2s-0.1,0.9-0.5,1.4c-0.4,0.5-0.8,0.8-1.2,1c-0.6,0.3-1.2,0.3-1.8,0.3c-1,0-2-0.3-2.5-0.8
		C127,119.8,126.7,119.1,126.6,118.2z"/>
	<path class="st4" d="M139.9,120.7v-8.5h1.4v1.3c0.3-0.6,0.6-1,0.9-1.2c0.3-0.1,0.6-0.3,0.9-0.3c0.5,0,1.1,0.2,1.5,0.5l-0.6,1.3
		c-0.3-0.2-0.8-0.3-1-0.3c-0.2,0-0.6,0.1-0.9,0.3c-0.3,0.1-0.5,0.5-0.6,0.8c-0.1,0.5-0.3,1-0.3,1.6v4.5
		C141.1,120.7,139.9,120.7,139.9,120.7z"/>
	<path class="st4" d="M151,119.7c-0.6,0.5-1,0.8-1.5,0.9s-1,0.3-1.6,0.3c-0.9,0-1.7-0.3-2.1-0.8s-0.8-1-0.8-1.8
		c0-0.5,0.1-0.8,0.3-1.2c0.2-0.3,0.5-0.6,0.8-0.9c0.3-0.1,0.6-0.3,1-0.5c0.3,0,0.8-0.1,1.4-0.1c1.2-0.2,2.1-0.3,2.5-0.5
		c0-0.2,0-0.3,0-0.5c0-0.6-0.1-1-0.4-1.2c-0.3-0.3-0.9-0.5-1.7-0.5s-1.2,0.1-1.5,0.3c-0.3,0.3-0.6,0.6-0.8,1.2l-1.3-0.2
		c0.1-0.6,0.3-1,0.6-1.5c0.3-0.3,0.8-0.6,1.3-0.9c0.6-0.2,1.2-0.3,2-0.3c0.8,0,1.3,0.1,1.8,0.3c0.5,0.1,0.8,0.5,1.1,0.6
		c0.1,0.3,0.3,0.6,0.4,1c0,0.3,0,0.8,0,1.4v2c0,1.3,0,2.3,0.2,2.5c0.2,0.2,0.2,0.8,0.3,1h-1.5C151.2,120.4,151,120.1,151,119.7z
		 M150.9,116.5c-0.6,0.1-1.4,0.5-2.4,0.6c-0.6,0.2-1,0.2-1.2,0.3c-0.2,0.2-0.5,0.3-0.6,0.5c-0.1,0.2-0.1,0.5-0.1,0.8
		c0,0.5,0.1,0.8,0.5,0.9c0.3,0.3,0.8,0.5,1.3,0.5c0.6,0,1.1-0.2,1.5-0.3c0.5-0.3,0.8-0.6,0.9-1c0.2-0.3,0.3-0.8,0.3-1.5L150.9,116.5
		L150.9,116.5z"/>
	<path class="st4" d="M157.7,119.5l0.1,1.3c-0.4,0.2-0.8,0.2-1,0.2c-0.6,0-0.9-0.2-1.2-0.3c-0.3-0.2-0.4-0.5-0.6-0.6
		c-0.2-0.3-0.2-0.9-0.2-1.6v-5h-1v-1.2h1v-2.1l1.5-0.9v3h1.5v1.2h-1.5v5c0,0.5,0,0.8,0.2,0.8c0,0.1,0.2,0.1,0.3,0.3
		c0.1,0,0.3,0.1,0.5,0.1C157.2,119.5,157.5,119.5,157.7,119.5z"/>
	<path class="st4" d="M165,118l1.5,0.1c-0.3,0.9-0.6,1.5-1.3,2.1c-0.6,0.5-1.5,0.8-2.4,0.8c-1.2,0-2.3-0.5-3-1.2
		c-0.7-0.7-1-1.8-1-3.3s0.3-2.5,1-3.3c0.7-0.8,1.7-1.2,2.8-1.2c1.2,0,2.1,0.5,2.9,1.2s1,1.8,1,3.3c0,0.1,0,0.1,0,0.5h-6.3
		c0,0.9,0.3,1.6,0.8,2.1s1,0.8,1.8,0.8c0.6,0,1-0.1,1.3-0.5C164.5,119.1,164.8,118.6,165,118z M160.2,115.6h4.8
		c0-0.8-0.3-1.2-0.6-1.6c-0.5-0.6-1.1-0.9-1.8-0.9c-0.6,0-1.2,0.2-1.6,0.6C160.6,114.1,160.3,114.9,160.2,115.6z"/>
	<path class="st4" d="M173.8,120.7v-1c-0.6,0.9-1.3,1.2-2.4,1.2c-0.8,0-1.4-0.2-2-0.6c-0.6-0.3-1-0.9-1.3-1.5
		c-0.3-0.6-0.5-1.5-0.5-2.3c0-0.9,0.2-1.6,0.5-2.3c0.3-0.6,0.8-1.2,1.3-1.6c0.6-0.3,1.2-0.6,2-0.6c0.5,0,0.9,0.2,1.4,0.3
		c0.4,0.2,0.8,0.5,1,0.9V109h1.5v11.9L173.8,120.7L173.8,120.7z M169.3,116.5c0,1,0.3,2,0.8,2.4c0.5,0.6,1.1,0.8,1.7,0.8
		s1.2-0.3,1.7-0.8s0.6-1.3,0.6-2.4c0-1.2-0.3-2.1-0.8-2.5c-0.5-0.6-1-0.8-1.7-0.8c-0.6,0-1.2,0.3-1.6,0.8
		C169.5,114.6,169.3,115.3,169.3,116.5z"/>
	<path class="st4" d="M282.1,116.5c0-1.7,0.4-2.7,1.3-3.5c0.8-0.6,1.7-0.9,2.7-0.9c1.2,0,2.1,0.5,2.8,1.2c0.7,0.7,1.1,1.8,1.1,3.2
		c0,1-0.2,2-0.5,2.5c-0.3,0.6-0.8,1-1.5,1.5c-0.7,0.5-1.3,0.5-2.1,0.5c-1.2,0-2.1-0.5-2.8-1.2C282.6,119.1,282.1,117.9,282.1,116.5z
		 M283.6,116.5c0,1,0.3,2,0.8,2.4c0.4,0.6,1,0.8,1.8,0.8s1.3-0.3,1.8-0.8c0.5-0.6,0.8-1.3,0.8-2.5c0-1-0.3-1.8-0.8-2.4
		c-0.4-0.6-1-0.8-1.8-0.8s-1.3,0.3-1.8,0.8C283.9,114.6,283.6,115.3,283.6,116.5z"/>
	<path class="st4" d="M291.9,120.7v-8.5h1.3v1.2c0.6-0.9,1.5-1.4,2.7-1.4c0.5,0,1,0.2,1.3,0.3c0.4,0.2,0.8,0.5,0.9,0.8
		s0.3,0.6,0.5,1c0,0.3,0.1,0.8,0.1,1.4v5.3h-1.5v-5.3c0-0.6,0-1-0.1-1.4c-0.2-0.3-0.3-0.5-0.6-0.8s-0.6-0.3-1-0.3
		c-0.6,0-1.2,0.2-1.7,0.6s-0.6,1.2-0.6,2.3v4.6L291.9,120.7L291.9,120.7z"/>
	<path class="st4" d="M305.7,120.7v-11.8h4.3c0.9,0,1.7,0.2,2.1,0.3c0.6,0.3,0.9,0.6,1.3,1c0.3,0.5,0.4,1,0.4,1.5s-0.1,1-0.4,1.4
		c-0.3,0.5-0.8,0.8-1.2,1c0.8,0.1,1.2,0.6,1.6,1c0.5,0.5,0.6,1,0.6,1.8c0,0.6-0.2,1-0.3,1.5c-0.3,0.5-0.4,0.9-0.9,1
		c-0.3,0.3-0.8,0.5-1.3,0.6c-0.4,0.2-1.2,0.2-1.9,0.2h-4.4L305.7,120.7L305.7,120.7z M307.3,114h2.5c0.8,0,1.2,0,1.5-0.2
		c0.5-0.1,0.8-0.3,0.9-0.6c0.2-0.3,0.3-0.6,0.3-1c0-0.5-0.2-0.8-0.3-1c-0.2-0.3-0.4-0.5-0.8-0.6c-0.3-0.1-0.9-0.1-1.8-0.1h-2.4
		L307.3,114C307.2,114,307.3,114,307.3,114z M307.3,119.4h3c0.4,0,0.9,0,1,0c0.3,0,0.6-0.1,0.9-0.3c0.3-0.1,0.4-0.3,0.6-0.6
		c0.2-0.3,0.3-0.6,0.3-1c0-0.5-0.1-0.8-0.3-1.2c-0.3-0.3-0.6-0.6-0.9-0.8c-0.4-0.2-1.1-0.2-1.8-0.2h-2.7L307.3,119.4L307.3,119.4z"
		/>
	<path class="st4" d="M316.6,110.7v-1.6h1.5v1.6H316.6z M316.6,120.7v-8.5h1.5v8.5H316.6z"/>
	<path class="st4" d="M320.2,120.7v-8.5h1.4v1.2c0.6-0.9,1.5-1.4,2.7-1.4c0.4,0,1.1,0.2,1.3,0.3c0.5,0.2,0.8,0.5,0.9,0.8
		c0.1,0.3,0.3,0.6,0.4,1c0,0.3,0.2,0.8,0.2,1.4v5.3h-1.5v-5.3c0-0.6,0-1-0.2-1.4c-0.1-0.3-0.3-0.5-0.6-0.8c-0.3-0.3-0.6-0.3-1.1-0.3
		c-0.6,0-1.2,0.2-1.7,0.6s-0.6,1.2-0.6,2.3v4.6L320.2,120.7L320.2,120.7z"/>
	<path class="st4" d="M329.1,121.5l1.3,0.1c0,0.5,0.2,0.8,0.5,0.9c0.3,0.3,0.9,0.5,1.5,0.5c0.6,0,1.2-0.2,1.5-0.5s0.6-0.6,0.8-1.2
		c0-0.3,0.2-0.9,0.2-1.8c-0.6,0.8-1.4,1-2.4,1c-1.2,0-2.1-0.5-2.7-1.2c-0.6-0.9-0.9-1.8-0.9-3c0-0.8,0.1-1.5,0.4-2.3
		s0.8-1.2,1.4-1.7c0.6-0.3,1.2-0.6,2-0.6c1,0,1.8,0.5,2.5,1.2v-1h1.4v7.3c0,1.4-0.2,2.3-0.5,2.9s-0.8,1-1.4,1.3
		c-0.6,0.3-1.3,0.5-2.1,0.5c-1.1,0-1.8-0.3-2.4-0.8C329.6,122.6,329.1,122.4,329.1,121.5z M330.3,116.4c0,1,0.1,2,0.6,2.4
		c0.5,0.5,1,0.8,1.7,0.8c0.6,0,1.2-0.3,1.6-0.8c0.4-0.5,0.8-1.4,0.8-2.4s-0.3-1.8-0.8-2.4s-1-0.8-1.6-0.8c-0.6,0-1.2,0.3-1.7,0.8
		C330.6,114.6,330.3,115.3,330.3,116.4z"/>
	<path class="st4" d="M345.9,124.2c-0.8-1-1.5-2.3-2.1-3.6c-0.6-1.4-0.9-2.7-0.9-4.2c0-1.4,0.1-2.5,0.6-3.6c0.5-1.3,1.2-2.7,2.3-4
		h1.1c-0.6,1-1.1,2-1.4,2.4c-0.3,0.8-0.6,1.5-0.8,2.3c-0.3,1-0.3,2-0.3,3c0,2.5,0.8,5.1,2.4,7.8
		C346.8,124.2,345.9,124.2,345.9,124.2z"/>
</g>
<g class="st1">
	<path class="st5" d="M348.4,118l1.4-0.1c0.1,0.6,0.3,1.2,0.8,1.4c0.3,0.3,0.8,0.5,1.3,0.5s0.9-0.2,1.2-0.3c0.3-0.2,0.6-0.5,0.8-0.8
		c0.1-0.3,0.5-0.8,0.6-1.4c0.2-0.6,0.2-1.2,0.2-1.8c0,0,0-0.1,0-0.3c-0.3,0.5-0.8,0.9-1.2,1c-0.5,0.2-1,0.5-1.7,0.5
		c-1,0-1.8-0.3-2.5-1s-1-1.6-1-2.8s0.3-2.1,1-2.9s1.7-1,2.7-1c0.8,0,1.5,0.2,2.1,0.6c0.6,0.5,1.1,1,1.5,1.8c0.3,0.8,0.5,1.8,0.5,3.3
		s-0.1,2.7-0.5,3.6c-0.3,0.9-0.8,1.5-1.5,2.1c-0.6,0.5-1.3,0.8-2.3,0.8c-0.9,0-1.6-0.3-2.3-0.8C348.8,119.8,348.6,118.9,348.4,118z
		 M354.3,112.8c0-0.9-0.2-1.5-0.6-2c-0.4-0.5-0.9-0.8-1.6-0.8c-0.6,0-1.2,0.3-1.7,0.8s-0.8,1.2-0.8,2.1c0,0.8,0.3,1.4,0.8,1.8
		s1,0.8,1.7,0.8c0.6,0,1.2-0.3,1.6-0.8C354.1,114.3,354.3,113.7,354.3,112.8z"/>
	<path class="st5" d="M359.5,114.4c-0.6-0.1-1.1-0.6-1.4-0.9c-0.3-0.5-0.5-0.9-0.5-1.5c0-0.9,0.3-1.7,0.9-2.1
		c0.6-0.4,1.5-0.9,2.4-0.9c1,0,1.8,0.3,2.5,0.9c0.8,0.6,0.9,1.4,0.9,2.3c0,0.6-0.2,1-0.5,1.5s-0.8,0.8-1.3,0.9
		c0.8,0.3,1.2,0.6,1.6,1.2c0.5,0.6,0.6,1.2,0.6,2c0,1-0.3,1.8-1,2.5s-1.7,1-2.9,1c-1.2,0-2.1-0.3-2.9-1s-1-1.5-1-2.5
		c0-0.8,0.2-1.4,0.6-2C358.3,114.9,358.9,114.6,359.5,114.4z M358.8,117.4c0,0.5,0.1,0.8,0.3,1.2c0.2,0.4,0.5,0.8,0.9,0.9
		c0.5,0.1,0.8,0.3,1.2,0.3c0.8,0,1.2-0.2,1.6-0.6c0.5-0.5,0.8-1,0.8-1.6c0-0.8-0.3-1.2-0.8-1.8c-0.4-0.5-1-0.8-1.8-0.8
		s-1.2,0.1-1.6,0.8C359.1,116.1,358.8,116.7,358.8,117.4z M359.2,111.9c0,0.6,0.2,1,0.6,1.4c0.3,0.3,0.9,0.6,1.3,0.6
		c0.6,0,1-0.1,1.4-0.6c0.3-0.3,0.6-0.8,0.6-1.4s-0.1-1-0.6-1.3c-0.3-0.3-0.8-0.6-1.4-0.6c-0.6,0-1,0.2-1.3,0.6
		S359.2,111.4,359.2,111.9z"/>
	<path class="st5" d="M371.5,120.7v-8.5h1.3v1.3c0.3-0.6,0.6-1,0.9-1.2c0.3-0.1,0.6-0.3,0.9-0.3c0.5,0,1,0.2,1.5,0.5l-0.5,1.4
		c-0.3-0.2-0.8-0.3-1-0.3s-0.6,0.1-0.9,0.3c-0.3,0.1-0.5,0.5-0.6,0.8c-0.1,0.5-0.3,1-0.3,1.6v4.5
		C372.9,120.7,371.5,120.7,371.5,120.7z"/>
	<path class="st5" d="M382.8,118l1.5,0.1c-0.3,0.9-0.6,1.5-1.3,2.1c-0.6,0.5-1.5,0.8-2.4,0.8c-1.2,0-2.3-0.5-3-1.2s-1-1.8-1-3.3
		s0.3-2.5,1-3.3s1.7-1.2,2.9-1.2c1.2,0,2.1,0.5,2.8,1.2c0.7,0.7,1.1,1.8,1.1,3.3c0,0.1,0,0.1,0,0.5h-6.3c0,0.9,0.3,1.6,0.8,2.1
		s1.1,0.8,1.8,0.8c0.6,0,1-0.1,1.3-0.5C382.3,119.1,382.6,118.6,382.8,118z M378.1,115.6h4.8c0-0.8-0.3-1.2-0.6-1.6
		c-0.4-0.6-1-0.9-1.8-0.9c-0.6,0-1.2,0.2-1.6,0.6C378.4,114.1,378.1,114.9,378.1,115.6z"/>
	<path class="st5" d="M388.4,120.7l-3.3-8.5h1.5l1.8,5.1c0.2,0.6,0.4,1.2,0.6,1.6c0.1-0.5,0.3-1,0.6-1.6l1.9-5.3h1.5l-3.3,8.5
		L388.4,120.7L388.4,120.7z"/>
	<path class="st5" d="M394.3,110.7v-1.6h1.5v1.6H394.3z M394.3,120.7v-8.5h1.5v8.5H394.3z"/>
	<path class="st5" d="M403.9,118l1.5,0.1c-0.3,0.9-0.6,1.5-1.3,2.1c-0.6,0.5-1.5,0.8-2.4,0.8c-1.2,0-2.3-0.5-3-1.2s-1.1-1.8-1.1-3.3
		s0.3-2.5,1.1-3.3c0.8-0.8,1.7-1.2,2.9-1.2c1.2,0,2.1,0.5,2.8,1.2c0.7,0.7,1.1,1.8,1.1,3.3c0,0.1,0,0.1,0,0.5h-6.4
		c0,0.9,0.3,1.6,0.8,2.1s1.1,0.8,1.8,0.8c0.6,0,1.1-0.1,1.4-0.5C403.3,119.1,403.6,118.6,403.9,118z M399.1,115.6h4.8
		c0-0.8-0.3-1.2-0.6-1.6c-0.4-0.6-1.1-0.9-1.8-0.9c-0.6,0-1.2,0.2-1.6,0.6C399.4,114.1,399.1,114.9,399.1,115.6z"/>
	<path class="st5" d="M408.7,120.7l-2.6-8.5h1.5l1.4,5l0.4,1.8c0-0.2,0.1-0.8,0.4-1.8l1.3-5h1.5l1.4,5l0.4,1.6l0.4-1.6l1.5-5h1.3
		l-2.7,8.5h-1.5l-1.3-5.1l-0.3-1.5l-1.8,6.6H408.7z"/>
	<path class="st5" d="M418.4,118.2l1.5-0.3c0.2,0.6,0.3,1,0.6,1.4c0.3,0.3,0.9,0.5,1.5,0.5c0.6,0,1.2-0.2,1.5-0.5s0.4-0.6,0.4-0.9
		s-0.2-0.6-0.4-0.8c-0.2-0.1-0.8-0.3-1.5-0.5c-1.1-0.3-1.8-0.5-2.3-0.8c-0.4-0.1-0.8-0.5-0.9-0.8c-0.1-0.3-0.3-0.8-0.3-1.2
		s0.2-0.8,0.3-1c0.2-0.3,0.4-0.6,0.8-0.8c0.3-0.1,0.6-0.3,0.9-0.5c0.4-0.1,0.8-0.1,1.2-0.1c0.6,0,1.2,0.1,1.8,0.3
		c0.4,0.1,0.9,0.5,1.1,0.8c0.3,0.3,0.4,0.8,0.4,1.3l-1.4,0.2c0-0.5-0.3-0.8-0.6-1c-0.3-0.3-0.8-0.3-1.4-0.3c-0.6,0-1.2,0.1-1.3,0.3
		c-0.3,0.1-0.4,0.5-0.4,0.8c0,0.1,0,0.3,0.1,0.5c0.2,0.1,0.3,0.3,0.6,0.5c0.1,0,0.6,0.1,1.3,0.3c1.1,0.3,1.8,0.5,2.1,0.6
		c0.4,0.2,0.8,0.5,0.9,0.8c0.3,0.3,0.3,0.8,0.3,1.2s-0.1,0.9-0.4,1.4s-0.8,0.8-1.2,1c-0.6,0.3-1.2,0.3-1.8,0.3
		c-1.1,0-1.9-0.3-2.6-0.8C419.1,119.8,418.6,119.1,418.4,118.2z"/>
</g>
<g class="st1">
	<path class="st4" d="M428.2,124.2h-1.1c1.7-2.5,2.4-5.1,2.4-7.8c0-1-0.2-2-0.3-3c-0.2-0.8-0.4-1.6-0.8-2.3
		c-0.2-0.5-0.6-1.3-1.4-2.4h1.1c1.1,1.3,1.8,2.7,2.3,4c0.4,1.2,0.6,2.4,0.6,3.6c0,1.5-0.3,2.9-0.9,4.2
		C429.7,122.1,429.1,123.3,428.2,124.2z"/>
</g>
<polygon class="st6" points="193,107.4 195,112.2 200.1,112.5 196,115.6 197.4,120.7 193,117.9 188.7,120.7 190,115.6 186.1,112.5 
	191.2,112.2 "/>
<polygon class="st6" points="209.8,107.4 211.6,112.2 216.9,112.5 212.8,115.6 214.2,120.7 209.8,117.9 205.4,120.7 206.8,115.6 
	202.7,112.5 207.9,112.2 "/>
<polygon class="st6" points="227.1,107.4 228.9,112.2 233.9,112.5 230.1,115.6 231.4,120.7 227.1,117.9 222.7,120.7 224.1,115.6 
	220,112.5 225.1,112.2 "/>
<polygon class="st6" points="243.6,107.4 245.4,112.2 250.4,112.5 246.6,115.6 247.7,120.7 243.6,117.9 239.2,120.7 240.6,115.6 
	236.5,112.5 241.6,112.2 "/>
<polygon class="st7" points="259.9,107.4 261.9,112.2 266.9,112.5 262.9,115.6 264.2,120.7 259.9,117.9 255.6,120.7 256.9,115.6 
	253,112.5 258.1,112.2 "/>
<rect x="238.3" y="24" class="st8" width="186" height="24"/>
<path class="st9" d="M3.1,26.1c-8.6,15.7,19,13.8,10,0H3.1z M4,27.1h8.1C19.3,38.2-2.9,39.7,4,27.1L4,27.1z"/>
<path class="st9" d="M7.3,36.6v4.8c-1.5,0.2-3,0.9-4,1.9c3.1,0.2,6.3,0.2,9.4,0.2c-1-1.2-2.5-1.8-4.2-1.9v-4.9
	C8,36.6,7.6,36.6,7.3,36.6z"/>
<polygon class="st9" points="1.3,30 14.5,30 14.4,32.8 12.4,35.4 9.4,36.4 6.4,36.9 4.3,36 2.4,34.6 1.3,32.7 "/>
</svg>
