<?xml version="1.0" encoding="utf-8"?>
<!-- Generator: Adobe Illustrator 22.1.0, SVG Export Plug-In . SVG Version: 6.00 Build 0)  -->
<svg version="1.1" id="Layer_1" xmlns="http://www.w3.org/2000/svg" xmlns:xlink="http://www.w3.org/1999/xlink" x="0px" y="0px"
	 width="438px" height="151.3px" viewBox="0 0 438 151.3" style="enable-background:new 0 0 438 151.3;" xml:space="preserve">
<style type="text/css">
	.st0{fill:#0012FF;}
	.st1{enable-background:new    ;}
	.st2{fill:#009245;}
	.st3{fill:#999999;}
	.st4{fill:#737373;}
	.st5{fill:#0000FF;}
	.st6{fill:#FF8C00;}
	.st7{fill:#D2D2D2;}
	.st8{fill:none;stroke:#008272;stroke-width:4;stroke-miterlimit:10;}
	.st9{fill:#666666;}
</style>
<title>Asset 15</title>
<g>
	<path class="st0" d="M7.9,148.9V137h5.3c1,0,1.8,0.2,2.4,0.3c0.6,0.2,1,0.6,1.3,1.2s0.5,1.2,0.5,1.8c0,0.9-0.3,1.5-0.8,2.1
		c-0.6,0.6-1.3,0.9-2.5,1c0.5,0.1,0.8,0.5,0.9,0.6c0.5,0.5,0.9,0.9,1.3,1.5l2.1,3.2h-2l-1.5-2.4c-0.5-0.8-0.9-1.2-1.2-1.6
		c-0.3-0.5-0.6-0.6-0.8-0.8c-0.3-0.2-0.4-0.3-0.8-0.3c-0.1,0-0.4,0-0.9,0h-2v5.3C9.2,148.9,7.9,148.9,7.9,148.9z M9.4,142.3h3.3
		c0.8,0,1.2,0,1.7-0.1c0.4-0.2,0.8-0.5,0.9-0.8c0.2-0.3,0.3-0.8,0.3-1c0-0.6-0.1-1-0.6-1.4c-0.5-0.3-1-0.6-2-0.6H9.4
		C9.4,138.4,9.4,142.3,9.4,142.3z"/>
	<path class="st0" d="M25.4,146l1.5,0.2c-0.3,0.9-0.6,1.5-1.3,2.1c-0.8,0.6-1.5,0.8-2.4,0.8c-1.2,0-2.3-0.5-3-1.2
		c-0.7-0.7-1-1.8-1-3.3s0.3-2.5,1-3.3c0.7-0.8,1.7-1.2,2.8-1.2s2.1,0.5,2.8,1.2c0.7,0.7,1.1,1.8,1.1,3.3c0,0.2,0,0.2,0,0.5h-6.5
		c0,0.9,0.3,1.7,0.8,2.1s1,0.8,1.8,0.8c0.6,0,1.1-0.2,1.3-0.5C24.7,147.1,25.1,146.7,25.4,146z M20.6,143.8h4.8
		c0-0.8-0.3-1.2-0.6-1.6c-0.5-0.6-1.1-0.9-1.8-0.9c-0.6,0-1.2,0.2-1.7,0.6C20.9,142.5,20.6,143,20.6,143.8z"/>
	<path class="st0" d="M34.3,148.9v-1c-0.6,0.9-1.3,1.2-2.4,1.2c-0.8,0-1.3-0.2-1.9-0.6s-1.1-0.9-1.3-1.5c-0.3-0.6-0.5-1.5-0.5-2.3
		c0-0.9,0.2-1.6,0.5-2.3c0.3-0.6,0.8-1.2,1.3-1.6c0.6-0.3,1.2-0.6,1.9-0.6c0.5,0,0.9,0.2,1.3,0.3c0.5,0.2,0.8,0.5,1.1,0.9v-4.2h1.5
		V149L34.3,148.9L34.3,148.9z M29.6,144.5c0,1,0.3,2,0.8,2.4c0.5,0.6,1.1,0.8,1.7,0.8s1.2-0.3,1.7-0.8c0.4-0.5,0.6-1.4,0.6-2.4
		c0-1.2-0.3-2.1-0.8-2.5c-0.4-0.4-0.9-0.8-1.7-0.8c-0.6,0-1.2,0.3-1.7,0.8C29.9,142.6,29.6,143.5,29.6,144.5z"/>
	<path class="st0" d="M44,148.9l-2.6-8.5h1.5l1.4,5l0.4,1.8c0-0.2,0.2-0.8,0.5-1.8l1.3-5H48l1.4,5l0.4,1.6l0.4-1.6l1.5-5h1.4
		l-2.7,8.5h-1.5l-1.4-5.1l-0.3-1.5l-1.8,6.6H44z"/>
	<path class="st0" d="M54.4,138.7v-1.6h1.5v1.6H54.4z M54.4,148.9v-8.5h1.5v8.5H54.4z"/>
	<path class="st0" d="M58,148.9v-8.5h1.4v1.2c0.6-0.9,1.5-1.4,2.7-1.4c0.4,0,1.1,0.2,1.4,0.3c0.4,0.2,0.8,0.5,0.9,0.8s0.3,0.6,0.4,1
		c0,0.3,0.1,0.8,0.1,1.4v5.3h-1.5v-5.3c0-0.6,0-1-0.1-1.4c-0.1-0.3-0.3-0.6-0.6-0.8c-0.3-0.1-0.6-0.3-1-0.3c-0.6,0-1.2,0.2-1.6,0.6
		c-0.4,0.4-0.6,1.2-0.6,2.3v4.6L58,148.9L58,148.9z"/>
	<path class="st0" d="M73.2,146l1.5,0.2c-0.3,0.9-0.6,1.5-1.4,2.1c-0.8,0.6-1.5,0.8-2.4,0.8c-1.2,0-2.3-0.5-3-1.2
		c-0.7-0.7-1.1-1.8-1.1-3.3s0.3-2.5,1.1-3.3c0.8-0.8,1.6-1.2,2.9-1.2c1.2,0,2.1,0.5,2.9,1.2c0.8,0.7,1.1,1.8,1.1,3.3
		c0,0.2,0,0.2,0,0.5h-6.4c0,0.9,0.3,1.7,0.8,2.1s1.1,0.8,1.8,0.8c0.6,0,1.1-0.2,1.4-0.5C72.4,147.1,72.8,146.7,73.2,146z
		 M68.3,143.8h4.8c0-0.8-0.3-1.2-0.6-1.6c-0.4-0.6-1.1-0.9-1.8-0.9c-0.6,0-1.2,0.2-1.6,0.6C68.7,142.5,68.3,143,68.3,143.8z"/>
	<path class="st0" d="M75.8,146.4l1.5-0.3c0.1,0.6,0.3,1,0.6,1.3c0.3,0.3,0.9,0.5,1.5,0.5c0.6,0,1.2-0.1,1.5-0.5
		c0.3-0.3,0.4-0.6,0.4-0.9s-0.1-0.6-0.4-0.8c-0.1-0.2-0.8-0.3-1.5-0.5c-1.1-0.3-1.8-0.5-2.3-0.8c-0.4-0.2-0.8-0.5-0.9-0.8
		s-0.3-0.8-0.3-1.2s0.1-0.8,0.3-1c0.1-0.3,0.4-0.6,0.8-0.8c0.3-0.2,0.6-0.3,0.9-0.5c0.4-0.2,0.8-0.2,1.2-0.2c0.6,0,1.2,0.2,1.8,0.3
		c0.4,0.2,0.9,0.5,1.1,0.8c0.3,0.3,0.4,0.8,0.4,1.4l-1.2,0.1c0-0.5-0.3-0.8-0.6-1c-0.3-0.2-0.7-0.1-1.3-0.1s-1.2,0.2-1.5,0.3
		c-0.3,0.2-0.4,0.5-0.4,0.8c0,0.2,0,0.3,0.1,0.5c0.1,0.2,0.3,0.3,0.6,0.5c0.1,0,0.6,0.2,1.4,0.3c1.1,0.3,1.8,0.5,2.1,0.6
		c0.4,0.1,0.8,0.5,0.9,0.8c0.1,0.3,0.3,0.8,0.3,1.2s-0.1,0.9-0.4,1.3c-0.3,0.4-0.8,0.8-1.2,1c-0.6,0.3-1.2,0.3-1.8,0.3
		c-1.1,0-1.9-0.3-2.6-0.8C76.4,147.9,76,147.2,75.8,146.4z"/>
	<path class="st0" d="M6.5,151.2V150h77.2v1.2H6.5z"/>
</g>
<g>
	<path class="st0" d="M123.4,148.6l-3.1-11.9h1.6l1.8,7.8c0.1,0.8,0.3,1.7,0.5,2.4c0.3-1.2,0.5-2,0.6-2.3l2.3-8h2l1.6,6
		c0.5,1.5,0.8,2.8,0.9,4.2c0.1-0.8,0.3-1.7,0.6-2.5l1.8-7.7h1.5l-3.3,11.9h-1.5l-2.5-9c-0.1-0.8-0.3-1.2-0.3-1.4
		c-0.1,0.6-0.3,1-0.3,1.4l-2.5,9L123.4,148.6L123.4,148.6z"/>
	<path class="st0" d="M136.8,148.6v-11.9h1.5v4.2c0.8-0.8,1.5-1.2,2.5-1.2c0.6,0,1.2,0.2,1.7,0.3c0.4,0.3,0.8,0.6,1,1
		c0.2,0.5,0.3,1,0.3,2v5.4h-1.5V143c0-0.8-0.2-1.2-0.5-1.6c-0.3-0.3-0.8-0.5-1.3-0.5s-0.9,0.1-1.2,0.3c-0.5,0.1-0.6,0.5-0.8,0.9
		c-0.1,0.5-0.3,0.9-0.3,1.7v4.6h-1.5L136.8,148.6L136.8,148.6z"/>
	<path class="st0" d="M145.9,138.5v-1.6h1.5v1.6H145.9z M145.9,148.6v-8.5h1.5v8.5H145.9z"/>
	<path class="st0" d="M152.8,147.4l0.2,1.3c-0.5,0.2-0.8,0.2-1.1,0.2c-0.6,0-0.9-0.2-1.2-0.3c-0.3-0.2-0.5-0.5-0.6-0.6
		c-0.1-0.1-0.1-0.9-0.1-1.6v-5.1h-1.1v-1.2h1.1V138l1.5-0.9v3h1.5v1.2h-1.5v5c0,0.5,0,0.8,0.1,0.8c0,0.2,0.1,0.2,0.3,0.3
		c0.2,0,0.3,0.2,0.5,0.2C152.2,147.4,152.5,147.4,152.8,147.4z"/>
	<path class="st0" d="M160,145.9l1.5,0.1c-0.3,0.9-0.6,1.5-1.4,2.1c-0.8,0.6-1.5,0.8-2.4,0.8c-1.2,0-2.3-0.5-3-1.2
		c-0.7-0.7-1-1.8-1-3.3s0.3-2.5,1-3.3c0.7-0.8,1.6-1.2,2.9-1.2c1.2,0,2.1,0.5,2.8,1.2c0.7,0.7,1,1.8,1,3.3c0,0.1,0,0.1,0,0.5h-6.5
		c0,0.9,0.3,1.6,0.8,2.1s1,0.8,1.8,0.8c0.6,0,1-0.1,1.4-0.5C159.3,146.9,159.8,146.5,160,145.9z M155.2,143.5h4.8
		c0-0.8-0.3-1.2-0.6-1.6c-0.5-0.6-1-0.9-1.8-0.9c-0.6,0-1.2,0.2-1.6,0.6C155.5,142.2,155.3,142.7,155.2,143.5z"/>
	<path class="st0" d="M169.5,148.6l-2.6-8.5h1.5l1.4,5l0.5,1.8c0-0.2,0.2-0.8,0.5-1.8l1.4-5h1.5l1.3,5l0.5,1.6l0.5-1.6l1.5-5h1.3
		l-2.7,8.5h-1.5l-1.4-5.1l-0.3-1.5l-1.8,6.6H169.5z"/>
	<path class="st0" d="M179.8,138.5v-1.6h1.5v1.6H179.8z M179.8,148.6v-8.5h1.5v8.5H179.8z"/>
	<path class="st0" d="M183.5,148.6v-8.5h1.3v1.2c0.6-0.9,1.5-1.3,2.7-1.3c0.4,0,1,0.1,1.3,0.3c0.5,0.1,0.8,0.5,0.9,0.8
		c0.1,0.3,0.3,0.6,0.4,1c0,0.3,0.2,0.8,0.2,1.3v5.3h-1.5v-5.3c0-0.6,0-1-0.2-1.3c-0.1-0.3-0.3-0.6-0.6-0.8c-0.3-0.2-0.6-0.3-1-0.3
		c-0.6,0-1.2,0.1-1.6,0.6c-0.5,0.5-0.6,1.2-0.6,2.3v4.7L183.5,148.6L183.5,148.6L183.5,148.6z"/>
	<path class="st0" d="M198.5,145.9l1.5,0.1c-0.3,0.9-0.6,1.5-1.3,2.1c-0.8,0.6-1.5,0.8-2.4,0.8c-1.2,0-2.3-0.5-3-1.2
		c-0.7-0.7-1-1.8-1-3.3s0.3-2.5,1-3.3c0.7-0.8,1.7-1.2,2.8-1.2c1.2,0,2.1,0.5,2.8,1.2c0.7,0.7,1,1.8,1,3.3c0,0.1,0,0.1,0,0.5h-6.5
		c0,0.9,0.3,1.6,0.8,2.1s1,0.8,1.8,0.8c0.6,0,1-0.1,1.3-0.5C197.8,146.9,198.3,146.5,198.5,145.9z M193.8,143.5h4.8
		c0-0.8-0.3-1.2-0.6-1.6c-0.5-0.6-1-0.9-1.8-0.9c-0.6,0-1.2,0.2-1.7,0.6C194,142.2,193.8,142.7,193.8,143.5z"/>
	<path class="st0" d="M201.3,146l1.5-0.3c0.2,0.6,0.3,1,0.6,1.4c0.3,0.3,0.9,0.5,1.5,0.5s1.2-0.2,1.5-0.5c0.3-0.3,0.5-0.6,0.5-0.9
		s-0.2-0.6-0.5-0.8c-0.2-0.1-0.8-0.3-1.5-0.5c-1-0.3-1.8-0.5-2.3-0.8c-0.5-0.1-0.8-0.5-0.9-0.8s-0.3-0.8-0.3-1.2s0.2-0.8,0.3-1
		c0.2-0.3,0.4-0.6,0.8-0.8c0.3-0.1,0.6-0.3,0.9-0.5c0.5-0.1,0.8-0.1,1.2-0.1c0.6,0,1.2,0.1,1.8,0.3c0.5,0.1,0.9,0.5,1,0.8
		c0.3,0.3,0.5,0.8,0.5,1.3l-1.3,0.2c0-0.5-0.3-0.8-0.6-1c-0.3-0.2-0.8-0.3-1.3-0.3s-1.2,0.1-1.5,0.3c-0.3,0.1-0.4,0.5-0.4,0.8
		c0,0.1,0,0.3,0.1,0.5c0.2,0.1,0.3,0.3,0.6,0.5c0.1,0,0.6,0.1,1.3,0.3c1.1,0.3,1.8,0.5,2.1,0.6c0.4,0.2,0.8,0.5,0.9,0.8
		c0.2,0.3,0.3,0.8,0.3,1.2s-0.2,0.9-0.4,1.4c-0.3,0.5-0.8,0.8-1.2,1c-0.6,0.3-1.2,0.3-1.8,0.3c-1.1,0-2-0.3-2.6-0.8
		C201.8,147.7,201.4,147,201.3,146z"/>
	<path class="st0" d="M120.1,151v-1.2h89v1.2H120.1z"/>
</g>
<g class="st1">
	<path class="st0" d="M245.5,148.2l-3.2-11.9h1.7l1.8,7.8c0.1,0.8,0.3,1.7,0.4,2.4c0.3-1.2,0.4-2,0.6-2.3l2.3-8h2l1.6,6
		c0.5,1.5,0.8,2.8,0.9,4.2c0.1-0.8,0.3-1.7,0.6-2.5l1.8-7.7h1.5l-3.3,11.9h-1.5l-2.5-9c-0.2-0.8-0.3-1.2-0.3-1.4
		c-0.2,0.6-0.3,1-0.3,1.4l-2.6,9L245.5,148.2L245.5,148.2z"/>
	<path class="st0" d="M242.2,150.5v-1.2h14.9v1.2H242.2z"/>
</g>
<g class="st1">
	<path class="st0" d="M263.8,147.1c-0.6,0.5-1.1,0.8-1.5,0.9c-0.5,0.2-1.1,0.3-1.7,0.3c-0.9,0-1.6-0.3-2.1-0.8s-0.8-1-0.8-1.8
		c0-0.5,0.1-0.8,0.3-1.2c0.2-0.3,0.5-0.6,0.8-0.9c0.3-0.2,0.6-0.3,1-0.5c0.3,0,0.8-0.2,1.4-0.2c1.2-0.1,2.1-0.3,2.5-0.5
		c0-0.1,0-0.3,0-0.5c0-0.6-0.2-1-0.5-1.2c-0.3-0.3-0.9-0.5-1.6-0.5s-1.2,0.2-1.5,0.3c-0.3,0.3-0.6,0.6-0.8,1.2l-1.4-0.1
		c0.2-0.6,0.3-1,0.6-1.5c0.3-0.3,0.8-0.6,1.3-0.9c0.6-0.1,1.2-0.3,2-0.3c0.8,0,1.3,0.2,1.8,0.3c0.5,0.2,0.8,0.5,1.1,0.6
		c0.2,0.3,0.3,0.6,0.4,1c0,0.3,0,0.8,0,1.3v2c0,1.4,0,2.3,0.2,2.5c0,0.3,0.1,0.8,0.3,1h-1.5C264,147.9,263.8,147.5,263.8,147.1z
		 M263.6,144c-0.6,0.2-1.3,0.5-2.4,0.6c-0.6,0.1-1.1,0.1-1.2,0.3c-0.3,0.1-0.5,0.3-0.6,0.5c-0.2,0.1-0.2,0.5-0.2,0.8
		c0,0.5,0.2,0.8,0.5,0.9c0.3,0.3,0.8,0.5,1.3,0.5c0.6,0,1.1-0.1,1.5-0.3c0.5-0.1,0.8-0.6,0.9-1c0.1-0.3,0.3-0.8,0.3-1.5L263.6,144
		L263.6,144z"/>
	<path class="st0" d="M266.8,145.6l1.5-0.3c0.1,0.6,0.3,1,0.6,1.3c0.3,0.3,0.9,0.5,1.5,0.5c0.6,0,1.2-0.1,1.5-0.5
		c0.3-0.3,0.5-0.6,0.5-0.9s-0.2-0.6-0.5-0.8c-0.1-0.2-0.8-0.3-1.5-0.5c-1-0.3-1.8-0.5-2.3-0.8c-0.4-0.2-0.8-0.5-0.9-0.8
		c-0.2-0.3-0.3-0.8-0.3-1.2s0.2-0.8,0.3-1s0.4-0.6,0.8-0.8c0.3-0.2,0.6-0.3,0.9-0.5s0.8-0.2,1.2-0.2c0.6,0,1.2,0.2,1.8,0.3
		c0.5,0.2,0.9,0.5,1.2,0.8s0.5,0.8,0.5,1.4l-1.4,0.1c0-0.5-0.3-0.8-0.6-1c-0.3-0.3-0.8-0.3-1.4-0.3c-0.6,0-1.2,0.2-1.5,0.3
		c-0.3,0.2-0.4,0.5-0.4,0.8c0,0.2,0,0.3,0.2,0.5c0.2,0.2,0.3,0.3,0.6,0.5c0.2,0,0.6,0.2,1.3,0.3c1,0.3,1.8,0.5,2.1,0.6
		c0.4,0.1,0.8,0.5,0.9,0.8c0.3,0.3,0.3,0.8,0.3,1.2s-0.1,0.9-0.4,1.3c-0.3,0.4-0.8,0.8-1.2,1c-0.6,0.3-1.2,0.3-1.8,0.3
		c-1.1,0-1.9-0.3-2.6-0.8C267.4,147.2,267,146.5,266.8,145.6z"/>
	<path class="st0" d="M275.6,148.2v-11.9h1.5v4.2c0.8-0.8,1.5-1.2,2.6-1.2c0.6,0,1.2,0.2,1.7,0.3c0.5,0.3,0.8,0.6,1,1
		c0.2,0.6,0.2,1.4,0.2,2.1v5.4h-1.5v-5.4c0-0.8-0.2-1.2-0.5-1.6c-0.3-0.3-0.8-0.5-1.3-0.5c-0.4,0-0.9,0.1-1.2,0.3
		c-0.5,0.1-0.6,0.5-0.8,0.9c-0.2,0.5-0.3,0.9-0.3,1.7v4.6C277,148.2,275.6,148.2,275.6,148.2z"/>
	<path class="st0" d="M284.8,138.1v-1.7h1.5v1.7H284.8z M284.8,148.2v-8.5h1.5v8.5H284.8z"/>
	<path class="st0" d="M288.4,148.2v-8.5h1.4v1.2c0.6-0.9,1.5-1.4,2.7-1.4c0.4,0,1.1,0.2,1.3,0.3c0.5,0.2,0.8,0.5,0.9,0.8
		s0.3,0.6,0.4,1c0,0.3,0.2,0.8,0.2,1.4v5.3h-1.5V143c0-0.6,0-1-0.2-1.4c-0.1-0.3-0.3-0.6-0.6-0.8c-0.3-0.1-0.6-0.3-1.1-0.3
		c-0.6,0-1.2,0.2-1.7,0.6c-0.5,0.4-0.6,1.2-0.6,2.3v4.6L288.4,148.2L288.4,148.2z"/>
	<path class="st0" d="M297.4,148.9l1.4,0.1c0,0.5,0.1,0.8,0.4,0.9c0.3,0.3,0.9,0.5,1.5,0.5s1.2-0.2,1.5-0.5c0.3-0.3,0.6-0.6,0.8-1.2
		c0-0.3,0.2-0.9,0.2-1.8c-0.6,0.8-1.3,1-2.4,1c-1.2,0-2.1-0.5-2.7-1.2c-0.6-0.8-0.9-1.8-0.9-3c0-0.8,0.2-1.5,0.5-2.3
		c0.3-0.8,0.8-1.2,1.3-1.7c0.6-0.5,1.2-0.6,1.9-0.6c1.1,0,1.8,0.5,2.6,1.2v-1h1.3v7.3c0,1.4-0.2,2.3-0.5,2.9c-0.3,0.6-0.8,1-1.3,1.3
		c-0.6,0.3-1.4,0.5-2.1,0.5c-1,0-1.8-0.3-2.4-0.8C297.7,150.5,297.4,149.8,297.4,148.9z M298.6,143.8c0,1,0.2,2,0.6,2.4
		c0.4,0.5,1.1,0.8,1.7,0.8s1.2-0.3,1.7-0.8s0.8-1.4,0.8-2.4s-0.3-1.8-0.8-2.4c-0.4-0.6-1.1-0.8-1.7-0.8s-1.2,0.3-1.7,0.8
		C298.8,142,298.6,142.7,298.6,143.8z"/>
	<path class="st0" d="M310,147l0.2,1.4c-0.5,0.1-0.8,0.1-1,0.1c-0.6,0-0.9-0.1-1.2-0.3c-0.3-0.1-0.5-0.5-0.6-0.6
		c-0.2-0.3-0.2-0.9-0.2-1.7v-5h-1v-1.2h1v-2.1l1.5-0.9v3h1.5v1.2h-1.5v4.8c0,0.5,0,0.8,0.2,0.8s0.2,0.2,0.3,0.3
		c0.1,0,0.3,0.2,0.4,0.2C309.6,147,309.7,147,310,147z"/>
	<path class="st0" d="M310.9,144c0-1.6,0.5-2.7,1.4-3.5c0.8-0.6,1.6-0.9,2.7-0.9c1.2,0,2.1,0.5,2.8,1.2c0.7,0.7,1,1.8,1,3.1
		c0,1-0.1,2-0.4,2.5c-0.3,0.6-0.8,1-1.5,1.5c-0.6,0.3-1.3,0.5-2.1,0.5c-1.2,0-2.1-0.5-2.8-1.2C311.2,146.5,310.9,145.3,310.9,144z
		 M312.4,144c0,1,0.3,2,0.8,2.4c0.5,0.6,1.1,0.8,1.8,0.8s1.3-0.3,1.8-0.8c0.4-0.6,0.8-1.4,0.8-2.5c0-1-0.3-1.8-0.8-2.4
		s-1.1-0.8-1.8-0.8s-1.3,0.3-1.8,0.8C312.6,142,312.4,142.7,312.4,144z"/>
	<path class="st0" d="M320.6,148.2v-8.5h1.4v1.2c0.6-0.9,1.5-1.4,2.7-1.4c0.4,0,1.1,0.2,1.3,0.3c0.5,0.2,0.8,0.5,0.9,0.8
		c0.1,0.3,0.3,0.6,0.4,1c0,0.3,0.2,0.8,0.2,1.4v5.3H326V143c0-0.6,0-1-0.2-1.4c-0.1-0.3-0.3-0.6-0.6-0.8c-0.3-0.1-0.6-0.3-1.1-0.3
		c-0.6,0-1.2,0.2-1.7,0.6c-0.5,0.4-0.6,1.2-0.6,2.3v4.6L320.6,148.2L320.6,148.2z"/>
	<path class="st0" d="M336,148.2l-2.5-8.5h1.5l1.3,5l0.5,1.8c0-0.2,0.2-0.8,0.5-1.8l1.3-5h1.5l1.4,5l0.5,1.6l0.4-1.6l1.5-5h1.4
		l-2.7,8.5h-1.5l-1.3-5.1l-0.3-1.5l-1.8,6.6H336z"/>
	<path class="st0" d="M346.3,138.1v-1.7h1.5v1.7H346.3z M346.3,148.2v-8.5h1.5v8.5H346.3z"/>
	<path class="st0" d="M349.9,148.2v-8.5h1.4v1.2c0.6-0.9,1.5-1.4,2.7-1.4c0.4,0,1,0.2,1.3,0.3c0.5,0.2,0.8,0.5,0.9,0.8
		c0.1,0.3,0.3,0.6,0.4,1c0,0.3,0.2,0.8,0.2,1.4v5.3h-1.5V143c0-0.6,0-1-0.2-1.4c-0.1-0.3-0.3-0.6-0.6-0.8c-0.3-0.1-0.6-0.3-1.1-0.3
		c-0.6,0-1.2,0.2-1.6,0.6c-0.4,0.4-0.6,1.2-0.6,2.3v4.6L349.9,148.2L349.9,148.2z"/>
	<path class="st0" d="M364.9,145.5l1.5,0.2c-0.3,0.9-0.6,1.5-1.3,2.1c-0.6,0.5-1.5,0.8-2.4,0.8c-1.2,0-2.3-0.5-3-1.2
		c-0.7-0.7-1-1.8-1-3.3s0.3-2.5,1-3.3c0.7-0.8,1.7-1.2,2.9-1.2s2.1,0.5,2.8,1.2c0.7,0.7,1,1.8,1,3.3c0,0.2,0,0.2,0,0.5H360
		c0,0.9,0.3,1.7,0.8,2.1c0.4,0.5,1,0.8,1.8,0.8c0.6,0,1-0.2,1.4-0.5C364.5,146.5,364.7,146,364.9,145.5z M360.2,143h4.8
		c0-0.8-0.3-1.2-0.6-1.6c-0.5-0.6-1-0.9-1.8-0.9c-0.6,0-1.2,0.2-1.7,0.6C360.6,141.7,360.2,142.3,360.2,143z"/>
	<path class="st0" d="M367.7,145.6l1.5-0.3c0.2,0.6,0.3,1,0.6,1.3c0.3,0.3,0.9,0.5,1.5,0.5c0.6,0,1.2-0.1,1.5-0.5
		c0.3-0.3,0.5-0.6,0.5-0.9s-0.2-0.6-0.5-0.8c-0.1-0.2-0.8-0.3-1.5-0.5c-1-0.3-1.8-0.5-2.3-0.8c-0.5-0.2-0.8-0.5-0.9-0.8
		c-0.2-0.3-0.3-0.8-0.3-1.2s0.2-0.8,0.3-1s0.4-0.6,0.8-0.8c0.3-0.2,0.6-0.3,0.9-0.5s0.8-0.2,1.2-0.2c0.6,0,1.2,0.2,1.8,0.3
		c0.5,0.2,0.9,0.5,1.2,0.8s0.4,0.8,0.4,1.4l-1.3,0.1c0-0.5-0.3-0.8-0.6-1c-0.3-0.3-0.8-0.3-1.4-0.3c-0.6,0-1.2,0.2-1.5,0.3
		c-0.3,0.2-0.5,0.5-0.5,0.8c0,0.2,0,0.3,0.2,0.5c0.1,0.2,0.3,0.3,0.6,0.5c0.2,0,0.6,0.2,1.4,0.3c1,0.3,1.8,0.5,2.1,0.6
		c0.5,0.1,0.8,0.5,0.9,0.8c0.3,0.3,0.3,0.8,0.3,1.2s-0.2,0.9-0.5,1.3c-0.3,0.4-0.8,0.8-1.2,1c-0.6,0.3-1.2,0.3-1.8,0.3
		c-1,0-2-0.3-2.5-0.8C368.2,147.2,367.9,146.5,367.7,145.6z"/>
	<path class="st0" d="M257.1,150.5v-1.2h118.3v1.2H257.1z"/>
</g>
<g>
	<path class="st0" d="M18.8,9.7l2,0.5c-0.5,1.7-1.2,2.8-2.3,3.6S16.1,15,14.6,15c-1.7,0-2.8-0.3-3.9-0.9c-1-0.6-1.8-1.7-2.3-2.8
		c-0.4-1-0.8-2.4-0.8-3.8c0-1.5,0.3-2.9,0.9-4c0.6-1.2,1.4-2,2.6-2.6C12.3,0.3,13.4,0,14.7,0c1.5,0,2.7,0.3,3.8,1.2s1.7,1.8,2.1,3.1
		l-1.9,0.4c-0.3-1-0.9-1.8-1.5-2.4c-0.6-0.4-1.5-0.8-2.4-0.8c-1.2,0-2.1,0.3-2.8,0.8c-0.8,0.6-1.4,1.4-1.7,2.3S9.8,6.4,9.8,7.5
		c0,1.2,0.2,2.4,0.6,3.3c0.3,0.9,0.9,1.7,1.6,2.1c0.8,0.4,1.7,0.8,2.5,0.8c1,0,2-0.3,2.7-0.9C18.1,11.9,18.5,11,18.8,9.7z"/>
	<path class="st0" d="M22.3,9.5c0-1.9,0.6-3.4,1.7-4.3C24.9,4.4,26.1,4,27.3,4c1.5,0,2.7,0.5,3.6,1.5c0.9,0.9,1.3,2.3,1.3,4.1
		c0,1.3-0.2,2.4-0.6,3.3c-0.5,0.8-1.1,1.3-1.8,1.8c-0.8,0.5-1.7,0.6-2.6,0.6c-1.5,0-2.7-0.5-3.6-1.5C22.7,12.7,22.3,11.3,22.3,9.5z
		 M24.2,9.5c0,1.3,0.3,2.4,0.9,3s1.3,1.1,2.3,1.1s1.7-0.3,2.3-1.1c0.6-0.6,0.9-1.7,0.9-3s-0.3-2.2-0.9-3s-1.3-1.1-2.3-1.1
		s-1.7,0.3-2.3,1.1S24.2,8.2,24.2,9.5z"/>
	<path class="st0" d="M34.4,14.9V0.2h1.8v5.3c0.9-1,2-1.5,3.2-1.5c0.8,0,1.5,0.1,2.1,0.5c0.6,0.3,1,0.8,1.2,1.4
		c0.3,0.6,0.4,1.3,0.4,2.4v6.8h-1.8V8.4c0-0.9-0.2-1.5-0.6-2c-0.4-0.4-0.9-0.6-1.6-0.6c-0.6,0-1.1,0.2-1.5,0.5c-0.5,0.3-0.9,0.6-1,1
		c-0.2,0.5-0.3,1.2-0.3,2v5.8C36.2,14.9,34.4,14.9,34.4,14.9z"/>
	<path class="st0" d="M45.2,9.5c0-1.9,0.6-3.4,1.6-4.3C47.7,4.4,48.9,4,50.1,4c1.5,0,2.7,0.5,3.6,1.5c0.9,0.9,1.4,2.3,1.4,4.1
		c0,1.3-0.1,2.4-0.6,3.3c-0.4,0.8-1.1,1.3-1.8,1.8c-0.8,0.5-1.6,0.6-2.6,0.6c-1.5,0-2.7-0.5-3.6-1.5C45.7,12.7,45.2,11.3,45.2,9.5z
		 M47,9.5c0,1.3,0.3,2.4,0.9,3c0.6,0.6,1.4,1.1,2.3,1.1c0.9,0,1.6-0.3,2.3-1.1c0.7-0.8,0.9-1.8,0.9-3.1s-0.3-2.3-0.9-3
		c-0.6-0.8-1.4-1-2.3-1c-0.9,0-1.6,0.3-2.3,1C47.2,7.1,47,8.2,47,9.5z"/>
	<path class="st0" d="M65.8,14.9L61.9,0.2h1.9l2.3,9.6c0.3,1,0.4,1.9,0.6,3c0.4-1.5,0.6-2.6,0.6-2.7l3-9.9h2.4l2.1,7.5
		c0.6,1.8,0.9,3.6,1.2,5.3c0.1-0.9,0.4-2,0.8-3.2L79,0.2h1.9l-4,14.7h-2L71.8,3.6c-0.3-0.9-0.4-1.5-0.4-1.8
		c-0.2,0.7-0.3,1.3-0.3,1.8l-3.2,11.3H65.8z"/>
	<path class="st0" d="M82.4,2.2v-2h1.8v2.1h-1.8V2.2z M82.4,14.9V4.3h1.8v10.6H82.4z"/>
	<path class="st0" d="M87.1,14.9V4.3h1.6v1.5C89.5,4.6,90.5,4,92,4c0.6,0,1.2,0.1,1.8,0.3c0.6,0.3,0.9,0.6,1.2,0.9
		c0.3,0.3,0.5,0.8,0.6,1.4c0,0.3,0.1,0.9,0.1,1.8V15h-1.8V8.6c0-0.8,0-1.4-0.1-1.7S93.4,6.3,93,6c-0.3-0.1-0.8-0.3-1.2-0.3
		c-0.8,0-1.5,0.3-1.9,0.8C89.3,6.9,89,7.8,89,9.3v5.8L87.1,14.9L87.1,14.9z"/>
	<path class="st0" d="M105.8,11.5l1.8,0.3c-0.3,1.1-0.9,2-1.6,2.6s-1.8,0.9-3,0.9c-1.5,0-2.9-0.5-3.8-1.5c-0.9-0.9-1.4-2.3-1.4-4.1
		s0.5-3.1,1.4-4.2c0.9-1,2.1-1.5,3.6-1.5s2.5,0.5,3.5,1.5c0.9,0.9,1.4,2.4,1.4,4.1c0,0.2,0,0.3,0,0.5h-8c0,1.2,0.5,2.1,1,2.7
		c0.6,0.6,1.4,0.9,2.3,0.9c0.6,0,1.2-0.2,1.6-0.4C105.1,12.8,105.5,12.2,105.8,11.5z M99.8,8.5h6c-0.1-0.9-0.3-1.5-0.8-1.9
		c-0.6-0.8-1.4-1.1-2.3-1.1s-1.4,0.3-2,0.9C100.3,6.8,100,7.6,99.8,8.5z"/>
	<path class="st0" d="M109.9,14.9V4.3h1.6v1.6c0.5-0.8,0.8-1.2,1.2-1.5c0.3-0.3,0.8-0.3,1.2-0.3c0.6,0,1.2,0.2,1.8,0.6l-0.6,1.5
		c-0.5-0.3-0.9-0.4-1.4-0.4s-0.8,0.1-1,0.3c-0.3,0.3-0.6,0.6-0.6,1c-0.1,0.6-0.3,1.4-0.3,2.1v5.5h-2
		C109.9,14.8,109.9,14.9,109.9,14.9z"/>
	<path class="st0" d="M116.7,19l-0.1-1.7c0.5,0.2,0.8,0.2,1,0.2c0.5,0,0.8,0,0.9-0.2c0.3-0.2,0.5-0.3,0.6-0.6
		c0.1-0.1,0.2-0.6,0.6-1.3c0-0.2,0.1-0.3,0.1-0.5l-4-10.6h2l2.3,6.1c0.3,0.8,0.6,1.7,0.8,2.4c0.1-0.9,0.5-1.7,0.8-2.4l2.3-6.1h1.8
		l-4,10.8c-0.5,1.2-0.8,1.9-1,2.4c-0.3,0.6-0.8,1-1,1.3c-0.5,0.3-0.9,0.5-1.5,0.5C117.5,19.3,117.1,19.1,116.7,19z"/>
	<path class="st0" d="M132.1,10.4V8.6h5.5v1.8H132.1z"/>
	<path class="st0" d="M6.9,17.8v-1.5h131.5v1.5H6.9z"/>
</g>
<g class="st1">
	<path class="st0" d="M138.4,17.8v-1.5h4.5v1.5H138.4z"/>
</g>
<g class="st1">
	<path class="st0" d="M142.9,14.9l5.7-14.7h2.1l6,14.7h-2.3l-1.6-4.5h-6.2l-1.6,4.5H142.9z M147.1,8.8h5l-1.5-4.1
		c-0.5-1.2-0.8-2.3-1-3c-0.1,0.9-0.5,2-0.8,2.9L147.1,8.8z"/>
	<path class="st0" d="M157.9,14.9V0.2h1.8v14.7C159.7,14.9,157.9,14.9,157.9,14.9z"/>
	<path class="st0" d="M162.5,14.9V0.2h1.8v14.7C164.3,14.9,162.5,14.9,162.5,14.9z"/>
	<path class="st0" d="M172.9,14.9V4.3h1.7v1.6c0.5-0.8,0.8-1.2,1.2-1.5c0.3-0.3,0.8-0.3,1.2-0.3c0.6,0,1.2,0.2,1.8,0.6L178,6.2
		c-0.5-0.3-0.9-0.4-1.4-0.4c-0.4,0-0.8,0.1-1,0.3c-0.3,0.3-0.6,0.6-0.6,1c-0.1,0.6-0.3,1.4-0.3,2.1v5.6L172.9,14.9
		C172.9,14.8,172.9,14.9,172.9,14.9z"/>
	<path class="st0" d="M187,11.5l1.8,0.3c-0.3,1.1-0.9,2-1.7,2.6s-1.8,0.9-3,0.9c-1.5,0-2.8-0.5-3.8-1.5c-0.9-0.9-1.3-2.3-1.3-4.1
		s0.5-3.1,1.3-4.2c0.9-1,2.1-1.5,3.6-1.5s2.5,0.5,3.5,1.5c0.9,0.9,1.3,2.4,1.3,4.1c0,0.2,0,0.3,0,0.5h-7.9c0,1.2,0.4,2.1,1,2.7
		c0.6,0.6,1.4,0.9,2.3,0.9c0.6,0,1.2-0.2,1.7-0.4C186.4,12.8,186.7,12.2,187,11.5z M181.1,8.5h6c-0.1-0.9-0.3-1.5-0.8-1.9
		c-0.6-0.8-1.3-1.1-2.3-1.1c-0.9,0-1.5,0.3-2.1,0.9C181.5,6.8,181.1,7.6,181.1,8.5z"/>
	<path class="st0" d="M198.1,14.9v-1.3c-0.8,1.1-1.7,1.7-3,1.7c-0.9,0-1.7-0.3-2.4-0.8c-0.8-0.4-1.2-1-1.6-1.9
		c-0.4-0.9-0.6-1.8-0.6-2.8s0.1-2.1,0.6-2.9c0.3-0.9,0.9-1.5,1.6-1.9c0.8-0.5,1.5-0.8,2.4-0.8c0.6,0,1.2,0.1,1.7,0.4
		s0.9,0.6,1.2,1.1V0.3h1.8V15h-1.7V14.9z M192.4,9.5c0,1.3,0.3,2.4,0.9,3c0.6,0.8,1.2,1.1,2.1,1.1c0.8,0,1.5-0.3,2-0.9
		c0.6-0.6,0.9-1.7,0.9-3c0-1.5-0.3-2.6-0.9-3.2c-0.6-0.8-1.2-1-2.1-1c-0.8,0-1.5,0.3-2,1C192.7,7.1,192.4,8.2,192.4,9.5z"/>
	<path class="st0" d="M210.3,14.9L207,4.3h1.8l1.7,6.1l0.6,2.3c0-0.2,0.2-0.9,0.6-2.3l1.7-6.3h1.8l1.6,6.2l0.6,2.1l0.6-2.1l1.8-6.2
		h1.8l-3.3,10.7h-1.9l-1.7-6.5l-0.4-1.8l-2.1,8.3L210.3,14.9L210.3,14.9z"/>
	<path class="st0" d="M223.1,2.2v-2h1.8v2.1h-1.8V2.2z M223.1,14.9V4.3h1.8v10.6C225,14.9,223.1,14.9,223.1,14.9z"/>
	<path class="st0" d="M227.8,14.9V4.3h1.6v1.5c0.8-1.2,2-1.8,3.5-1.8c0.6,0,1.2,0.1,1.8,0.3c0.6,0.3,0.9,0.6,1.2,0.9
		s0.5,0.8,0.6,1.4c0,0.3,0.2,0.9,0.2,1.8V15h-1.8V8.6c0-0.8,0-1.4-0.2-1.7c-0.1-0.3-0.4-0.6-0.8-0.9c-0.3-0.1-0.8-0.3-1.2-0.3
		c-0.8,0-1.5,0.3-1.9,0.8c-0.6,0.5-0.9,1.3-0.9,2.8v5.8L227.8,14.9L227.8,14.9z"/>
	<path class="st0" d="M246.6,11.5l1.8,0.3c-0.3,1.1-0.9,2-1.7,2.6s-1.8,0.9-3,0.9c-1.5,0-2.8-0.5-3.8-1.5c-0.9-0.9-1.3-2.3-1.3-4.1
		s0.5-3.1,1.3-4.2c0.9-1,2.1-1.5,3.6-1.5s2.5,0.5,3.5,1.5c0.9,1.1,1.3,2.4,1.3,4.1c0,0.2,0,0.3,0,0.5h-7.8c0,1.2,0.4,2.1,1,2.7
		c0.6,0.6,1.3,0.9,2.3,0.9c0.6,0,1.2-0.2,1.7-0.4C246,12.8,246.3,12.2,246.6,11.5z M240.6,8.5h6c-0.2-0.9-0.3-1.5-0.8-1.9
		c-0.6-0.8-1.4-1.1-2.3-1.1c-0.9,0-1.5,0.3-2.1,0.9C241,6.8,240.7,7.6,240.6,8.5z"/>
	<path class="st0" d="M250,11.8l1.8-0.3c0.1,0.8,0.4,1.2,0.9,1.7c0.5,0.4,1.1,0.6,2,0.6s1.5-0.2,1.8-0.5c0.5-0.3,0.6-0.8,0.6-1.2
		c0-0.5-0.2-0.8-0.6-0.9c-0.3-0.2-0.9-0.3-1.8-0.6c-1.3-0.3-2.3-0.6-2.7-0.9c-0.4-0.3-0.9-0.6-1.2-1.1s-0.4-0.9-0.4-1.5
		c0-0.5,0.1-0.9,0.3-1.4s0.5-0.8,0.9-1c0.3-0.1,0.6-0.5,1.2-0.6c0.5-0.1,1.1-0.1,1.5-0.1c0.9,0,1.5,0.1,2.3,0.3
		c0.8,0.2,1.1,0.6,1.4,1c0.3,0.5,0.4,0.9,0.6,1.7l-1.8,0.3c-0.2-0.6-0.3-1-0.8-1.4s-0.9-0.5-1.7-0.5c-0.9,0-1.3,0.1-1.8,0.5
		c-0.3,0.3-0.6,0.6-0.6,0.9s0,0.5,0.1,0.6c0.2,0.1,0.5,0.3,0.8,0.4c0.2,0,0.8,0.2,1.7,0.5c1.3,0.3,2.1,0.6,2.7,0.9
		c0.6,0.3,0.9,0.6,1.2,0.9c0.3,0.5,0.5,0.9,0.5,1.5s-0.2,1.2-0.6,1.7c-0.3,0.6-0.9,0.9-1.5,1.2s-1.3,0.4-2.3,0.4
		c-1.3,0-2.4-0.3-3.2-0.9C250.6,13.7,250.1,12.8,250,11.8z"/>
	<path class="st0" d="M266.1,9.5c0-1.9,0.6-3.4,1.6-4.3c0.9-0.8,2.1-1.2,3.3-1.2c1.5,0,2.7,0.5,3.6,1.5c0.9,0.9,1.3,2.3,1.3,4.1
		c0,1.3-0.2,2.4-0.6,3.3c-0.5,0.8-1,1.3-1.8,1.8s-1.7,0.6-2.6,0.6c-1.5,0-2.7-0.4-3.6-1.5S266.1,11.3,266.1,9.5z M267.8,9.5
		c0,1.3,0.3,2.4,0.9,3c0.6,0.6,1.3,1.1,2.3,1.1s1.7-0.3,2.3-1.1c0.6-0.8,0.9-1.8,0.9-3.1s-0.3-2.3-0.9-3c-0.6-0.8-1.3-1-2.3-1
		s-1.7,0.3-2.3,1C268.1,7.1,267.8,8.2,267.8,9.5z"/>
	<path class="st0" d="M278.1,14.9V4.3h1.6v1.5c0.8-1.2,2-1.8,3.5-1.8c0.6,0,1.2,0.1,1.8,0.3c0.6,0.3,0.9,0.6,1.2,0.9
		c0.3,0.3,0.5,0.8,0.6,1.4c0,0.3,0.2,0.9,0.2,1.8V15h-1.8V8.6c0-0.8,0-1.4-0.2-1.7c-0.1-0.3-0.4-0.6-0.8-0.9
		c-0.3-0.1-0.8-0.3-1.2-0.3c-0.8,0-1.5,0.3-1.9,0.8c-0.6,0.5-0.9,1.3-0.9,2.8v5.8L278.1,14.9L278.1,14.9z"/>
	<path class="st0" d="M294.6,11.8l1.8-0.3c0.2,0.8,0.5,1.2,0.9,1.7c0.4,0.4,1.1,0.6,1.9,0.6c0.9,0,1.5-0.2,1.8-0.5
		c0.4-0.3,0.6-0.8,0.6-1.2c0-0.5-0.2-0.8-0.6-0.9c-0.3-0.2-0.9-0.3-1.8-0.6c-1.3-0.3-2.3-0.6-2.7-0.9c-0.4-0.3-0.9-0.6-1.2-1.1
		c-0.3-0.4-0.5-0.9-0.5-1.5c0-0.5,0.2-0.9,0.3-1.4c0.2-0.5,0.5-0.8,0.9-1c0.3-0.1,0.6-0.5,1.2-0.6c0.4-0.1,1.1-0.1,1.5-0.1
		c0.9,0,1.5,0.1,2.3,0.3c0.8,0.2,1.1,0.6,1.3,1c0.3,0.5,0.5,0.9,0.6,1.7l-1.8,0.3c-0.1-0.6-0.3-1-0.8-1.4c-0.4-0.3-0.9-0.5-1.6-0.5
		c-0.9,0-1.4,0.1-1.8,0.5c-0.3,0.3-0.6,0.6-0.6,0.9s0,0.5,0.2,0.6s0.4,0.3,0.8,0.4c0.2,0,0.8,0.2,1.7,0.5c1.3,0.3,2.1,0.6,2.7,0.9
		c0.6,0.3,0.9,0.6,1.2,0.9c0.3,0.5,0.4,0.9,0.4,1.5s-0.1,1.2-0.6,1.7c-0.3,0.6-0.9,0.9-1.5,1.2s-1.4,0.4-2.3,0.4
		c-1.4,0-2.4-0.3-3.2-0.9C295.1,13.7,294.7,12.8,294.6,11.8z"/>
	<path class="st0" d="M312.6,13.6c-0.6,0.6-1.4,0.9-2,1.2c-0.6,0.3-1.3,0.3-2,0.3c-1.2,0-2.1-0.3-2.7-0.9c-0.6-0.6-0.9-1.3-0.9-2.3
		c0-0.5,0.2-1.1,0.3-1.5c0.3-0.5,0.6-0.8,0.9-1.1c0.4-0.3,0.8-0.4,1.3-0.6c0.3-0.1,0.9-0.1,1.7-0.3c1.5-0.1,2.5-0.5,3.3-0.6
		c0-0.3,0-0.4,0-0.4c0-0.8-0.2-1.2-0.5-1.5c-0.4-0.4-1.2-0.6-2.1-0.6s-1.5,0.2-2,0.5s-0.8,0.9-0.9,1.7l-1.8-0.3
		c0.2-0.8,0.5-1.4,0.8-1.8c0.3-0.5,0.9-0.8,1.7-1c0.8-0.3,1.5-0.5,2.4-0.5c0.9,0,1.7,0.1,2.3,0.3c0.6,0.1,1.1,0.5,1.2,0.8
		c0.1,0.3,0.5,0.8,0.6,1.2c0,0.3,0.2,0.9,0.2,1.6v2.4c0,1.7,0,2.7,0.2,3.1c0.2,0.4,0.3,0.9,0.4,1.3h-1.9
		C312.7,14.5,312.6,14,312.6,13.6z M312.4,9.5c-0.6,0.3-1.6,0.5-3,0.8c-0.8,0.2-1.2,0.3-1.6,0.3c-0.3,0.2-0.6,0.3-0.8,0.6
		c-0.2,0.3-0.3,0.6-0.3,0.9c0,0.4,0.2,0.9,0.6,1.2c0.3,0.3,0.9,0.5,1.7,0.5c0.8,0,1.3-0.2,1.8-0.5c0.6-0.3,0.9-0.8,1.2-1.2
		c0.2-0.5,0.3-1.1,0.3-1.8V9.5H312.4z"/>
	<path class="st0" d="M317.1,14.9V0.2h1.8v14.7C318.9,14.9,317.1,14.9,317.1,14.9z"/>
	<path class="st0" d="M328.9,11.5l1.8,0.3c-0.3,1.1-0.9,2-1.7,2.6c-0.8,0.6-1.8,0.9-3,0.9c-1.5,0-2.8-0.5-3.8-1.5
		c-0.9-0.9-1.3-2.3-1.3-4.1s0.4-3.1,1.3-4.2c0.9-1,2.1-1.5,3.6-1.5s2.6,0.5,3.4,1.5c0.9,1.1,1.4,2.4,1.4,4.1c0,0.2,0,0.3,0,0.5h-8
		c0,1.2,0.5,2.1,1,2.7c0.6,0.6,1.4,0.9,2.3,0.9c0.6,0,1.2-0.2,1.7-0.4C328.3,12.8,328.6,12.2,328.9,11.5z M322.9,8.5h6
		c-0.1-0.9-0.3-1.5-0.8-1.9c-0.6-0.8-1.3-1.1-2.3-1.1c-0.9,0-1.5,0.3-2.1,0.9C323.3,6.8,323.1,7.6,322.9,8.5z"/>
	<path class="st0" d="M334,11.2l-0.6-7.8V0.2h2.3v3.3l-0.5,7.8L334,11.2L334,11.2z M333.6,14.9v-2.1h2.1v2.1H333.6z"/>
	<path class="st0" d="M142.9,17.8v-1.5h194.4v1.5H142.9z"/>
</g>
<g class="st1">
	<path class="st2" d="M36.7,38.2l1.3,0.2c-0.2,1.1-0.6,1.8-1.2,2.3c-0.6,0.6-1.5,0.9-2.4,0.9c-1.2,0-2.1-0.4-2.8-1.2
		c-0.7-0.8-1.1-1.8-1.1-3.3c0-0.9,0.2-1.8,0.4-2.4c0.3-0.6,0.8-1.2,1.4-1.5c0.6-0.3,1.3-0.4,2.1-0.4c0.9,0,1.7,0.3,2.3,0.8
		s0.9,1.2,1.2,1.9l-1.3,0.2c-0.2-0.6-0.3-1.1-0.8-1.3C35.5,34.1,35,34,34.6,34c-0.8,0-1.4,0.3-1.8,0.8S32,36.1,32,37.3
		s0.2,1.9,0.6,2.6c0.5,0.6,1.1,0.8,1.7,0.8s1.1-0.1,1.3-0.4C36.4,39.5,36.7,38.9,36.7,38.2z"/>
	<path class="st2" d="M38.9,37.2c0-1.7,0.4-2.7,1.3-3.4c0.8-0.6,1.7-0.9,2.7-0.9c1.2,0,2.1,0.4,2.9,1.2c0.8,0.8,1,1.8,1,3.2
		c0,1.1-0.1,1.9-0.4,2.6c-0.3,0.6-0.8,1.1-1.5,1.5s-1.4,0.4-2.1,0.4c-1.2,0-2.1-0.4-2.9-1.2C39.2,39.7,38.9,38.5,38.9,37.2z
		 M40.3,37.2c0,1.1,0.3,1.9,0.8,2.4c0.4,0.6,1.1,0.8,1.8,0.8s1.4-0.3,1.8-0.8c0.4-0.6,0.8-1.3,0.8-2.6c0-1.1-0.3-1.8-0.8-2.4
		s-1.1-0.8-1.8-0.8s-1.4,0.3-1.8,0.8C40.6,35.2,40.3,35.9,40.3,37.2z"/>
	<path class="st2" d="M48.5,41.3V29.5H50v4.2c0.8-0.8,1.5-1.2,2.6-1.2c0.6,0,1.2,0.2,1.6,0.3c0.4,0.1,0.8,0.6,1.1,1.1
		c0.1,0.4,0.3,1.1,0.3,1.9v5.4h-1.5v-5.4c0-0.8-0.1-1.2-0.4-1.7c-0.3-0.3-0.8-0.4-1.4-0.4c-0.4,0-0.9,0.2-1.2,0.3
		c-0.3,0.1-0.6,0.4-0.8,0.9c-0.2,0.5-0.3,1-0.3,1.8v4.7L48.5,41.3C48.5,41.4,48.5,41.3,48.5,41.3z"/>
	<path class="st2" d="M57.2,37.2c0-1.7,0.4-2.7,1.4-3.4c0.8-0.6,1.6-0.9,2.7-0.9c1.2,0,2.1,0.4,2.9,1.2s1.1,1.8,1.1,3.2
		c0,1.1-0.1,1.9-0.4,2.6c-0.3,0.6-0.8,1.1-1.5,1.5s-1.4,0.4-2.1,0.4c-1.2,0-2.1-0.4-2.9-1.2C57.5,39.7,57.2,38.5,57.2,37.2z
		 M58.7,37.2c0,1.1,0.3,1.9,0.8,2.4c0.4,0.6,1.1,0.8,1.8,0.8c0.7,0,1.4-0.3,1.8-0.8c0.4-0.6,0.8-1.3,0.8-2.6c0-1.1-0.3-1.8-0.8-2.4
		s-1.1-0.8-1.8-0.8c-0.7,0-1.4,0.3-1.8,0.8C58.9,35.2,58.7,35.9,58.7,37.2z"/>
	<path class="st2" d="M68.5,41.3l-2.6-8.5h1.5l1.4,4.9l0.4,1.8c0-0.1,0.1-0.7,0.4-1.8l1.4-4.9h1.5l1.4,4.9l0.4,1.7l0.4-1.7l1.5-4.9
		h1.5L75,41.4h-1.5l-1.4-5.1l-0.3-1.5L70,41.4L68.5,41.3L68.5,41.3z"/>
	<path class="st2" d="M78.8,31.3v-1.7h1.5v1.7C80.3,31.3,78.8,31.3,78.8,31.3z M78.8,41.3v-8.5h1.5v8.6
		C80.3,41.3,78.8,41.3,78.8,41.3z"/>
	<path class="st2" d="M82.4,41.3v-8.5h1.4V34c0.6-0.9,1.5-1.3,2.7-1.3c0.4,0,1.1,0.2,1.4,0.3c0.4,0.2,0.8,0.4,0.9,0.8
		c0.1,0.4,0.3,0.6,0.4,1.1c0,0.3,0.1,0.8,0.1,1.3v5.2h-1.5v-5.2c0-0.6,0-1.1-0.1-1.3c-0.1-0.3-0.3-0.4-0.6-0.8
		c-0.3-0.4-0.6-0.3-1.1-0.3c-0.6,0-1.2,0.2-1.6,0.6s-0.6,1.2-0.6,2.3v4.7L82.4,41.3L82.4,41.3z"/>
	<path class="st2" d="M97.4,38.7l1.5,0.2c-0.3,0.9-0.6,1.5-1.4,2.1c-0.6,0.4-1.5,0.8-2.4,0.8c-1.2,0-2.3-0.4-3-1.2
		c-0.7-0.8-1.1-1.8-1.1-3.3s0.3-2.6,1.1-3.3s1.6-1.2,2.9-1.2c1.3,0,2.1,0.4,2.9,1.2c0.8,0.8,1,1.8,1,3.3c0,0.2,0,0.2,0,0.4h-6.3
		c0,0.9,0.3,1.7,0.8,2.1c0.4,0.4,1.1,0.8,1.8,0.8c0.6,0,1-0.1,1.4-0.4C97,39.7,97.3,39.2,97.4,38.7z M92.7,36.2h4.8
		c0-0.8-0.3-1.2-0.6-1.7c-0.5-0.6-1-0.9-1.8-0.9c-0.6,0-1.2,0.2-1.6,0.6C92.9,34.9,92.8,35.5,92.7,36.2z"/>
	<path class="st2" d="M100.8,41.3v-8.5h1.4v1.3c0.3-0.6,0.6-1.1,0.9-1.2c0.3-0.2,0.6-0.3,0.9-0.3c0.5,0,1,0.2,1.5,0.4l-0.6,1.4
		c-0.3-0.2-0.8-0.3-1-0.3c-0.2,0-0.6,0.2-0.9,0.3c-0.3,0.1-0.5,0.4-0.6,0.8c-0.1,0.4-0.3,1.1-0.3,1.7v4.5L100.8,41.3
		C100.8,41.4,100.8,41.3,100.8,41.3z"/>
</g>
<g class="st1">
	<path class="st2" d="M106.2,44.7l-0.1-1.4c0.3,0.2,0.6,0.2,0.9,0.2s0.6,0,0.8-0.2c0.1-0.1,0.3-0.3,0.5-0.4c0.1-0.1,0.3-0.4,0.5-1.1
		c0-0.1,0-0.1,0.1-0.3l-3.3-8.6h1.5l1.8,4.9c0.3,0.6,0.5,1.3,0.6,1.9c0.1-0.6,0.3-1.3,0.6-1.9l1.6-4.9h1.5l-3.2,8.6
		c-0.3,0.9-0.6,1.7-0.8,1.9c-0.3,0.4-0.6,0.9-0.9,1.1c-0.3,0.2-0.8,0.3-1.2,0.3C106.9,44.8,106.4,44.8,106.2,44.7z"/>
</g>
<g class="st1">
	<path class="st2" d="M113.7,41.3v-1.7h1.6v1.7H113.7z"/>
	<path class="st2" d="M123.4,38.2l1.4,0.2c-0.1,1.1-0.6,1.8-1.2,2.3c-0.6,0.6-1.5,0.9-2.4,0.9c-1.2,0-2.1-0.4-2.9-1.2
		c-0.8-0.8-1-1.8-1-3.3c0-0.9,0.1-1.8,0.5-2.4c0.4-0.6,0.8-1.2,1.4-1.5c0.6-0.3,1.4-0.4,2.1-0.4c0.9,0,1.6,0.3,2.3,0.8
		c0.7,0.5,0.9,1.2,1.2,1.9l-1.4,0.2c-0.1-0.6-0.3-1.1-0.8-1.3c-0.3-0.3-0.8-0.4-1.2-0.4c-0.8,0-1.4,0.3-1.8,0.8
		c-0.4,0.5-0.8,1.3-0.8,2.6c0,1.2,0.1,1.9,0.6,2.6s1,0.8,1.6,0.8s1-0.2,1.4-0.4C123.1,39.5,123.3,38.9,123.4,38.2z"/>
	<path class="st2" d="M125.5,37.2c0-1.7,0.5-2.7,1.4-3.4c0.8-0.6,1.6-0.9,2.7-0.9c1.2,0,2.1,0.4,2.9,1.2s1,1.8,1,3.2
		c0,1.1-0.1,1.9-0.5,2.6c-0.3,0.6-0.8,1.1-1.5,1.5s-1.4,0.4-2.1,0.4c-1.2,0-2.1-0.4-2.9-1.2C125.9,39.7,125.5,38.5,125.5,37.2z
		 M127,37.2c0,1.1,0.3,1.9,0.8,2.4c0.5,0.6,1,0.8,1.8,0.8s1.4-0.3,1.8-0.8c0.5-0.6,0.8-1.3,0.8-2.6c0-1.1-0.3-1.8-0.8-2.4
		s-1-0.8-1.8-0.8s-1.4,0.3-1.8,0.8C127.3,35.2,127,35.9,127,37.2z"/>
	<path class="st2" d="M135.3,41.3v-8.5h1.4V34c0.3-0.4,0.6-0.8,1-1.1c0.5-0.3,0.9-0.4,1.5-0.4s1.2,0.2,1.5,0.4
		c0.3,0.3,0.8,0.6,0.9,1.1c0.8-1.1,1.5-1.5,2.7-1.5c0.9,0,1.5,0.3,2,0.8s0.8,1.2,0.8,2.1v5.8h-1.5v-5.4c0-0.6,0-1.1-0.2-1.2
		c-0.1-0.3-0.3-0.4-0.4-0.6c-0.3-0.2-0.6-0.3-0.9-0.3c-0.6,0-1,0.2-1.5,0.6c-0.5,0.4-0.6,1.1-0.6,1.9v4.9h-1.5v-5.6
		c0-0.6-0.2-1.2-0.3-1.5c-0.3-0.3-0.6-0.4-1.2-0.4c-0.5,0-0.8,0.2-1.2,0.3c-0.4,0.2-0.6,0.8-0.8,1.2c-0.1,0.4-0.3,1.1-0.3,1.8v4.5
		L135.3,41.3L135.3,41.3z"/>
	<path class="st2" d="M153,37.9v-1.5h4.5v1.5H153z"/>
	<path class="st2" d="M163.3,35.7c0-1.9,0.6-3.4,1.7-4.7c1-1.1,2.4-1.7,4-1.7c1.1,0,2.1,0.3,3,0.8c0.9,0.4,1.5,1.2,2,2.3
		c0.4,0.9,0.8,1.9,0.8,3.2c0,1.2-0.3,2.3-0.8,3.2s-1.2,1.6-2.1,2.1s-1.8,0.8-2.9,0.8c-1,0-2.1-0.3-3-0.8c-0.9-0.4-1.5-1.2-1.9-2.2
		C163.6,37.6,163.3,36.7,163.3,35.7z M165,35.7c0,1.3,0.4,2.6,1.2,3.3c0.8,0.7,1.7,1.2,2.9,1.2c1.2,0,2.1-0.4,2.9-1.2
		s1.2-1.9,1.2-3.4c0-0.9-0.1-1.8-0.4-2.6c-0.3-0.8-0.8-1.2-1.4-1.7s-1.4-0.6-2.1-0.6c-1,0-2.1,0.4-2.8,1.2
		C165.8,32.7,165,33.8,165,35.7z"/>
</g>
<g class="st1">
	<path class="st2" d="M176.8,41.3V34h-1.3v-1.2h1.3v-0.9c0-0.6,0-1.1,0.2-1.3c0.1-0.3,0.4-0.8,0.8-0.9c0.3-0.2,0.9-0.3,1.5-0.3
		c0.4,0,0.9,0,1.3,0.2l-0.2,1.2c-0.3,0-0.6-0.2-0.9-0.2c-0.5,0-0.8,0.2-0.9,0.3c-0.2,0.2-0.3,0.6-0.3,1.1v0.8h1.7V34h-1.7v7.3H176.8
		C176.8,41.2,176.8,41.3,176.8,41.3z"/>
</g>
<g class="st1">
	<path class="st2" d="M181,41.3V34h-1.4v-1.2h1.4v-0.9c0-0.6,0-1.1,0.1-1.3c0.2-0.3,0.5-0.8,0.8-0.9c0.3-0.3,0.9-0.3,1.5-0.3
		c0.5,0,0.9,0,1.4,0.2l-0.1,1.2c-0.3,0-0.6-0.2-0.9-0.2c-0.5,0-0.8,0.2-0.9,0.3c-0.1,0.2-0.3,0.6-0.3,1.1v0.8h1.6V34h-1.6v7.3H181
		C181,41.2,181,41.3,181,41.3z"/>
	<path class="st2" d="M185.2,31.3v-1.7h1.5v1.7C186.7,31.3,185.2,31.3,185.2,31.3z M185.2,41.3v-8.5h1.5v8.6
		C186.7,41.3,185.2,41.3,185.2,41.3z"/>
	<path class="st2" d="M194.5,38.2l1.3,0.2c-0.2,1.1-0.6,1.8-1.2,2.3c-0.6,0.6-1.5,0.9-2.4,0.9c-1.2,0-2.1-0.4-2.8-1.2
		c-0.7-0.8-1.1-1.8-1.1-3.3c0-0.9,0.2-1.8,0.5-2.4c0.3-0.6,0.8-1.2,1.3-1.5c0.5-0.3,1.3-0.4,2.1-0.4c0.9,0,1.7,0.3,2.3,0.8
		s0.9,1.2,1.2,1.9l-1.3,0.2c-0.2-0.6-0.3-1.1-0.8-1.3c-0.3-0.3-0.8-0.4-1.2-0.4c-0.8,0-1.3,0.3-1.8,0.8s-0.8,1.3-0.8,2.6
		c0,1.2,0.1,1.9,0.6,2.6c0.4,0.6,1.1,0.8,1.6,0.8s1-0.2,1.3-0.4C194.2,39.5,194.3,38.9,194.5,38.2z"/>
	<path class="st2" d="M197.2,31.3v-1.7h1.5v1.7C198.7,31.3,197.2,31.3,197.2,31.3z M197.2,41.3v-8.5h1.5v8.6
		C198.7,41.3,197.2,41.3,197.2,41.3z"/>
	<path class="st2" d="M206.3,40.3c-0.6,0.4-1,0.8-1.5,0.9s-1,0.3-1.7,0.3c-0.9,0-1.7-0.3-2.1-0.8s-0.8-1.1-0.8-1.8
		c0-0.4,0.2-0.8,0.3-1.2c0.2-0.3,0.5-0.6,0.7-0.9c0.3-0.2,0.6-0.3,1.1-0.4c0.3,0,0.8-0.2,1.3-0.2c1.2-0.2,2.1-0.3,2.5-0.4
		c0-0.2,0-0.3,0-0.4c0-0.6-0.1-1.1-0.4-1.2c-0.3-0.3-0.9-0.4-1.7-0.4s-1.2,0.2-1.5,0.3c-0.3,0.1-0.6,0.6-0.8,1.2l-1.3-0.2
		c0.2-0.6,0.3-1.1,0.6-1.5c0.3-0.3,0.8-0.6,1.3-0.9c0.6-0.2,1.2-0.3,1.9-0.3s1.4,0.2,1.8,0.3c0.4,0.1,0.8,0.4,1.1,0.6
		c0.1,0.3,0.3,0.6,0.4,1.1c0,0.3,0,0.8,0,1.3v2.1c0,1.3,0,2.2,0.2,2.6s0.2,0.8,0.3,1.1h-1.5C206.5,41,206.3,40.7,206.3,40.3z
		 M206.2,37.2c-0.6,0.2-1.3,0.4-2.4,0.6c-0.6,0.2-1.1,0.2-1.2,0.3c-0.3,0.2-0.5,0.3-0.6,0.4c-0.1,0.1-0.2,0.4-0.2,0.8
		s0.2,0.7,0.5,0.9c0.3,0.1,0.8,0.4,1.3,0.4c0.6,0,1.1-0.2,1.5-0.3c0.5-0.3,0.8-0.6,0.9-1.1c0.1-0.3,0.3-0.8,0.3-1.5L206.2,37.2
		L206.2,37.2z"/>
	<path class="st2" d="M210,41.3V29.5h1.5v11.9L210,41.3L210,41.3z"/>
	<path class="st2" d="M217.6,38.8l1.5-0.3c0.2,0.6,0.3,1.1,0.6,1.3c0.3,0.3,0.9,0.4,1.5,0.4s1.2-0.2,1.5-0.4
		c0.3-0.3,0.4-0.6,0.4-0.9s-0.1-0.6-0.4-0.8c-0.2-0.2-0.8-0.3-1.5-0.4c-1.1-0.3-1.8-0.4-2.3-0.8c-0.4-0.2-0.8-0.4-0.9-0.8
		c-0.1-0.4-0.3-0.8-0.3-1.2s0.1-0.8,0.3-1.1c0.2-0.3,0.5-0.6,0.8-0.8c0.2-0.2,0.6-0.3,0.9-0.4c0.3-0.1,0.8-0.2,1.2-0.2
		c0.6,0,1.2,0.2,1.8,0.3c0.4,0.2,0.9,0.4,1.1,0.8c0.3,0.3,0.4,0.8,0.4,1.3l-1.3,0.2c0-0.4-0.3-0.8-0.6-1.1s-0.8-0.3-1.3-0.3
		s-1.2,0.2-1.3,0.3c-0.3,0.2-0.4,0.4-0.4,0.8c0,0.2,0,0.3,0.1,0.4c0.2,0.2,0.3,0.3,0.6,0.4c0.1,0,0.6,0.2,1.3,0.3
		c1.1,0.3,1.8,0.4,2.1,0.6c0.4,0.2,0.8,0.4,0.9,0.8c0.2,0.3,0.3,0.8,0.3,1.2s-0.2,0.9-0.4,1.3c-0.3,0.4-0.8,0.8-1.2,1.1
		c-0.4,0.3-1.2,0.3-1.8,0.3c-1.1,0-2-0.3-2.6-0.8C218.2,40.4,217.8,39.7,217.6,38.8z"/>
	<path class="st2" d="M226.5,31.3v-1.7h1.5v1.7C228,31.3,226.5,31.3,226.5,31.3z M226.5,41.3v-8.5h1.5v8.6
		C228,41.3,226.5,41.3,226.5,41.3z"/>
	<path class="st2" d="M233.2,40l0.2,1.4c-0.5,0.1-0.8,0.1-1.1,0.1c-0.6,0-0.9-0.1-1.2-0.3c-0.3-0.1-0.5-0.4-0.6-0.6
		s-0.1-0.9-0.1-1.7V34h-1.1v-1.2h1.1v-2.1l1.5-0.9v3h1.5V34h-1.5v4.9c0,0.4,0,0.7,0.1,0.7c0,0.2,0.2,0.2,0.3,0.3
		c0.2,0,0.3,0.2,0.4,0.2C232.8,40.2,233.1,40.2,233.2,40z"/>
	<path class="st2" d="M240.6,38.7l1.5,0.2c-0.3,0.9-0.6,1.5-1.4,2.1c-0.6,0.4-1.5,0.8-2.4,0.8c-1.2,0-2.3-0.4-3-1.2
		c-0.7-0.8-1.1-1.8-1.1-3.3s0.3-2.6,1.1-3.3s1.6-1.2,2.8-1.2s2.1,0.4,2.9,1.2s1,1.8,1,3.3c0,0.2,0,0.2,0,0.4h-6.3
		c0,0.9,0.3,1.7,0.8,2.1c0.4,0.4,1,0.8,1.8,0.8c0.6,0,1-0.1,1.3-0.4C240,39.7,240.3,39.2,240.6,38.7z M235.8,36.2h4.8
		c0-0.8-0.3-1.2-0.6-1.7c-0.4-0.6-1-0.9-1.8-0.9c-0.6,0-1.2,0.2-1.7,0.6C236.1,34.9,235.8,35.5,235.8,36.2z"/>
</g>
<g class="st1">
	<path class="st3" d="M252.7,37.6l1.5-0.2c0,0.6,0.3,1.1,0.5,1.5s0.6,0.7,1.2,0.9c0.6,0.1,1.2,0.3,1.8,0.3c0.6,0,1-0.2,1.7-0.3
		c0.6-0.2,0.8-0.4,1.1-0.8c0.3-0.3,0.3-0.6,0.3-1.1c0-0.3-0.2-0.8-0.3-0.9c-0.2-0.3-0.6-0.4-1.1-0.8c-0.3-0.2-1.1-0.3-2.1-0.6
		c-1-0.3-1.8-0.4-2.3-0.8c-0.6-0.3-1-0.6-1.2-1.1c-0.3-0.4-0.4-0.9-0.4-1.5c0-0.6,0.2-1.2,0.4-1.7c0.3-0.4,0.9-0.9,1.5-1.2
		c0.6-0.3,1.4-0.4,2.1-0.4c0.9,0,1.6,0.2,2.3,0.4c0.6,0.3,1.2,0.8,1.5,1.2c0.3,0.4,0.6,1.2,0.6,1.8l-1.5,0.2
		c-0.1-0.8-0.3-1.3-0.8-1.7c-0.4-0.4-1.2-0.6-2.1-0.6s-1.7,0.2-2.1,0.4c-0.4,0.3-0.6,0.8-0.6,1.2s0.1,0.8,0.4,1.1s1.1,0.6,2.4,0.9
		c1.2,0.3,2.1,0.6,2.5,0.8c0.8,0.3,1.2,0.8,1.5,1.2c0.3,0.4,0.5,1.1,0.5,1.7s-0.2,1.2-0.6,1.8c-0.3,0.6-0.9,1.1-1.5,1.3
		c-0.6,0.3-1.5,0.4-2.3,0.4c-1.1,0-1.9-0.1-2.7-0.4c-0.8-0.3-1.4-0.8-1.7-1.3C252.8,39.1,252.7,38.3,252.7,37.6z"/>
	<path class="st3" d="M264,31.3v-1.7h1.5v1.7C265.5,31.3,264,31.3,264,31.3z M264,41.3v-8.5h1.5v8.6C265.5,41.3,264,41.3,264,41.3z"
		/>
	<path class="st3" d="M270.8,40l0.2,1.4c-0.4,0.1-0.8,0.1-1.1,0.1c-0.6,0-0.9-0.1-1.2-0.3c-0.3-0.1-0.4-0.4-0.6-0.6
		c-0.2-0.3-0.2-0.9-0.2-1.7V34h-1.1v-1.2h1.1v-2.1l1.5-0.9v3h1.5V34h-1.5v4.9c0,0.4,0,0.7,0.2,0.7c0,0.2,0.2,0.2,0.3,0.3
		c0.2,0,0.3,0.2,0.5,0.2C270.3,40.2,270.6,40.2,270.8,40z"/>
	<path class="st3" d="M278.1,38.7l1.5,0.2c-0.3,0.9-0.6,1.5-1.4,2.1c-0.6,0.4-1.5,0.8-2.4,0.8c-1.2,0-2.3-0.4-3-1.2
		c-0.7-0.8-1.1-1.8-1.1-3.3s0.3-2.6,1.1-3.3c0.8-0.7,1.6-1.2,2.8-1.2s2.1,0.4,2.9,1.2s1,1.8,1,3.3c0,0.2,0,0.2,0,0.4h-6.3
		c0,0.9,0.3,1.7,0.8,2.1c0.4,0.4,1,0.8,1.8,0.8c0.6,0,1-0.1,1.3-0.4C277.5,39.7,277.8,39.2,278.1,38.7z M273.3,36.2h4.8
		c0-0.8-0.3-1.2-0.6-1.7c-0.4-0.6-1-0.9-1.8-0.9c-0.6,0-1.2,0.2-1.7,0.6C273.6,34.9,273.4,35.5,273.3,36.2z"/>
	<path class="st3" d="M285.4,38.8l1.5-0.3c0.2,0.6,0.3,1.1,0.6,1.3c0.3,0.3,0.9,0.4,1.5,0.4s1.2-0.2,1.5-0.4
		c0.3-0.3,0.4-0.6,0.4-0.9s-0.2-0.6-0.4-0.8s-0.8-0.3-1.5-0.4c-1.1-0.3-1.8-0.4-2.3-0.8c-0.5-0.2-0.8-0.4-0.9-0.8
		c-0.1-0.3-0.3-0.8-0.3-1.2s0.2-0.8,0.3-1.1c0.2-0.3,0.5-0.6,0.8-0.8c0.3-0.2,0.6-0.3,0.9-0.4c0.4-0.2,0.8-0.2,1.2-0.2
		c0.6,0,1.2,0.2,1.8,0.3c0.4,0.2,0.9,0.4,1,0.8c0.3,0.3,0.5,0.8,0.5,1.3l-1.4,0.2c0-0.4-0.3-0.8-0.6-1.1s-0.8-0.3-1.4-0.3
		s-1.2,0.2-1.3,0.3c-0.3,0.2-0.5,0.4-0.5,0.8c0,0.2,0,0.3,0.2,0.4c0.2,0.2,0.3,0.3,0.6,0.4c0.2,0,0.6,0.2,1.3,0.3
		c1.1,0.3,1.8,0.4,2.1,0.6c0.5,0.2,0.8,0.4,0.9,0.8c0.3,0.3,0.3,0.8,0.3,1.2s-0.2,0.9-0.5,1.3s-0.8,0.8-1.2,1.1
		c-0.6,0.3-1.2,0.3-1.8,0.3c-1,0-2-0.3-2.5-0.8C285.8,40.4,285.6,39.7,285.4,38.8z"/>
	<path class="st3" d="M300,38.7l1.5,0.2c-0.3,0.9-0.6,1.5-1.3,2.1c-0.6,0.4-1.5,0.8-2.4,0.8c-1.2,0-2.3-0.4-3-1.2
		c-0.7-0.8-1-1.8-1-3.3s0.3-2.6,1-3.3c0.7-0.7,1.7-1.2,2.9-1.2c1.2,0,2.1,0.4,2.8,1.2s1.1,1.8,1.1,3.3c0,0.2,0,0.2,0,0.4h-6.3
		c0,0.9,0.3,1.7,0.8,2.1s1.1,0.8,1.8,0.8c0.6,0,1.1-0.1,1.3-0.4C299.5,39.7,299.8,39.2,300,38.7z M295.3,36.2h4.8
		c0-0.8-0.3-1.2-0.6-1.7c-0.4-0.6-1.1-0.9-1.8-0.9c-0.6,0-1.2,0.2-1.6,0.6C295.6,34.7,295.3,35.5,295.3,36.2z"/>
	<path class="st3" d="M309,38.2l1.4,0.2c-0.2,1.1-0.6,1.8-1.2,2.3c-0.6,0.6-1.5,0.9-2.4,0.9c-1.2,0-2.1-0.4-2.8-1.2
		c-0.7-0.8-1-1.8-1-3.3c0-0.9,0.1-1.8,0.4-2.4c0.3-0.8,0.8-1.2,1.3-1.5c0.5-0.3,1.3-0.4,2.1-0.4c0.9,0,1.7,0.3,2.3,0.8
		s0.9,1.2,1.2,1.9l-1.3,0.2c-0.2-0.6-0.3-1.1-0.8-1.3c-0.3-0.3-0.8-0.4-1.2-0.4c-0.8,0-1.3,0.3-1.8,0.8c-0.5,0.4-0.8,1.3-0.8,2.6
		c0,1.2,0.1,1.9,0.6,2.6s1.1,0.8,1.7,0.8c0.6,0,1-0.2,1.3-0.4C308.5,39.5,308.8,38.9,309,38.2z"/>
	<path class="st3" d="M317.2,41.3v-1.2c-0.6,0.9-1.5,1.5-2.7,1.5c-0.4,0-0.9-0.2-1.3-0.3c-0.5-0.2-0.8-0.4-0.9-0.8
		c-0.1-0.4-0.3-0.6-0.4-1.1c0-0.3-0.2-0.8-0.2-1.3v-5.2h1.5v4.8c0,0.8,0,1.2,0.2,1.5c0.1,0.4,0.3,0.7,0.6,0.9
		c0.3,0.1,0.6,0.3,1.1,0.3s0.9-0.2,1.2-0.3c0.3-0.2,0.6-0.6,0.8-0.9c0.2-0.4,0.3-0.9,0.3-1.7v-4.4h1.5v8.5h-1.5L317.2,41.3
		L317.2,41.3z"/>
	<path class="st3" d="M320.6,41.3v-8.5h1.4v1.3c0.3-0.6,0.6-1.1,0.9-1.2c0.3-0.2,0.6-0.3,0.9-0.3c0.4,0,1,0.2,1.5,0.4l-0.5,1.3
		c-0.3-0.2-0.8-0.3-1-0.3c-0.3,0-0.6,0.2-0.9,0.3c-0.3,0.1-0.4,0.4-0.6,0.8c-0.2,0.4-0.3,1.1-0.3,1.7v4.5H320.6z"/>
	<path class="st3" d="M332.1,38.7l1.5,0.2c-0.3,0.9-0.6,1.5-1.4,2.1c-0.6,0.4-1.5,0.8-2.4,0.8c-1.2,0-2.3-0.4-3-1.2
		c-0.7-0.8-1.1-1.8-1.1-3.3s0.3-2.6,1.1-3.3c0.8-0.7,1.6-1.2,2.8-1.2c1.2,0,2.1,0.4,2.9,1.2s1,1.8,1,3.3c0,0.2,0,0.2,0,0.4h-6.3
		c0,0.9,0.3,1.7,0.8,2.1c0.4,0.4,1,0.8,1.8,0.8c0.6,0,1-0.1,1.3-0.4C331.6,39.7,331.9,39.2,332.1,38.7z M327.3,36.2h4.8
		c0-0.8-0.3-1.2-0.6-1.7c-0.5-0.6-1-0.9-1.8-0.9c-0.6,0-1.2,0.2-1.7,0.6C327.6,34.9,327.4,35.5,327.3,36.2z"/>
	<path class="st3" d="M340.9,41.3v-1.1c-0.6,0.9-1.3,1.2-2.4,1.2c-0.8,0-1.4-0.2-2-0.6c-0.6-0.3-1-0.9-1.3-1.5
		c-0.3-0.6-0.5-1.5-0.5-2.3c0-0.9,0.1-1.7,0.5-2.3c0.3-0.8,0.8-1.2,1.3-1.7c0.6-0.3,1.2-0.6,2-0.6c0.5,0,0.9,0.2,1.3,0.3
		c0.5,0.2,0.8,0.4,1,0.9v-4h1.5v11.8h-1.5L340.9,41.3L340.9,41.3z M336.4,37.2c0,1.1,0.3,1.9,0.8,2.4c0.5,0.6,1.1,0.8,1.7,0.8
		c0.6,0,1.2-0.3,1.6-0.8c0.5-0.4,0.6-1.3,0.6-2.4c0-1.2-0.2-2.1-0.8-2.6c-0.5-0.6-1.1-0.8-1.7-0.8c-0.6,0-1.2,0.3-1.6,0.8
		C336.6,35.1,336.4,35.9,336.4,37.2z"/>
	<path class="st3" d="M350.5,41.3h-1.3V29.5h1.5v4.2c0.6-0.8,1.3-1.2,2.4-1.2c0.4,0,1,0.2,1.5,0.3c0.4,0.2,0.9,0.4,1.2,0.9
		c0.3,0.4,0.6,0.9,0.8,1.3c0.2,0.6,0.3,1.1,0.3,1.8c0,1.5-0.3,2.6-1.1,3.4s-1.6,1.2-2.5,1.2c-1,0-1.8-0.4-2.4-1.2v1.2
		C350.8,41.4,350.5,41.4,350.5,41.3z M350.3,37c0,1.1,0.1,1.8,0.5,2.3c0.4,0.7,1,1.1,1.8,1.1c0.6,0,1.2-0.3,1.6-0.8
		c0.5-0.6,0.8-1.3,0.8-2.4c0-1.1-0.1-1.9-0.6-2.4s-1-0.8-1.7-0.8c-0.6,0-1.2,0.3-1.6,0.8C350.7,35.3,350.3,35.9,350.3,37z"/>
	<path class="st3" d="M358.1,44.7l-0.1-1.4c0.3,0.2,0.6,0.2,0.9,0.2s0.6,0,0.8-0.2c0.2-0.1,0.3-0.3,0.5-0.4c0.1-0.1,0.3-0.4,0.5-1.1
		c0-0.1,0-0.1,0.1-0.3l-3.3-8.6h1.5l1.8,4.9c0.3,0.6,0.5,1.3,0.6,1.9c0.1-0.6,0.3-1.3,0.6-1.9l1.8-4.9h1.5l-3.3,8.7
		c-0.3,0.9-0.6,1.7-0.8,1.9c-0.3,0.4-0.6,0.9-0.9,1.1s-0.8,0.3-1.2,0.3C358.9,44.8,358.6,44.8,358.1,44.7z"/>
	<path class="st3" d="M371.2,41.3V29.5h1.7l6.1,9.3v-9.3h1.5v11.9h-1.6l-6.2-9.3v9.3C372.7,41.3,371.2,41.3,371.2,41.3z"/>
	<path class="st3" d="M382.5,37.2c0-1.7,0.5-2.7,1.4-3.4c0.8-0.6,1.6-0.9,2.7-0.9c1.2,0,2.1,0.4,2.8,1.2c0.7,0.8,1.1,1.8,1.1,3.2
		c0,1.1-0.1,1.9-0.4,2.6c-0.3,0.6-0.8,1.1-1.5,1.5s-1.3,0.4-2.1,0.4c-1.2,0-2.1-0.4-2.9-1.2C382.7,39.7,382.5,38.5,382.5,37.2z
		 M384,37.2c0,1.1,0.3,1.9,0.8,2.4c0.4,0.6,1.1,0.8,1.8,0.8c0.7,0,1.4-0.3,1.8-0.8c0.4-0.6,0.8-1.3,0.8-2.6c0-1.1-0.3-1.8-0.8-2.4
		s-1.1-0.8-1.8-0.8c-0.7,0-1.3,0.3-1.8,0.8C384.1,35.2,384,35.9,384,37.2z"/>
	<path class="st3" d="M392.1,41.3v-8.5h1.3v1.3c0.3-0.6,0.6-1.1,0.9-1.2c0.3-0.2,0.6-0.3,0.9-0.3c0.4,0,1.1,0.2,1.5,0.4l-0.4,1.3
		c-0.3-0.2-0.8-0.3-1.1-0.3c-0.3,0-0.6,0.2-0.9,0.3c-0.3,0.1-0.4,0.4-0.6,0.8c-0.1,0.4-0.3,1.1-0.3,1.7v4.5H392.1z"/>
	<path class="st3" d="M400.7,40l0.1,1.4c-0.4,0.1-0.8,0.1-1.1,0.1c-0.6,0-0.9-0.1-1.2-0.3c-0.3-0.1-0.4-0.4-0.6-0.6
		c-0.2-0.3-0.2-0.9-0.2-1.7V34h-1.1v-1.2h1.1v-2.1l1.5-0.9v3h1.5V34h-1.5v4.9c0,0.4,0,0.7,0.2,0.7c0,0.2,0.1,0.2,0.3,0.3
		c0.1,0,0.3,0.2,0.4,0.2C400.3,40.2,400.5,40.2,400.7,40z"/>
	<path class="st3" d="M401.6,37.2c0-1.7,0.4-2.7,1.4-3.4c0.8-0.6,1.6-0.9,2.7-0.9c1.2,0,2.1,0.4,2.8,1.2c0.7,0.8,1.1,1.8,1.1,3.2
		c0,1.1-0.1,1.9-0.4,2.6c-0.3,0.6-0.8,1.1-1.5,1.5s-1.3,0.4-2.1,0.4c-1.2,0-2.1-0.4-2.9-1.2C402,39.7,401.6,38.5,401.6,37.2z
		 M403.1,37.2c0,1.1,0.3,1.9,0.8,2.4c0.4,0.6,1.1,0.8,1.8,0.8c0.7,0,1.4-0.3,1.8-0.8c0.4-0.6,0.8-1.3,0.8-2.6c0-1.1-0.3-1.8-0.8-2.4
		s-1.1-0.8-1.8-0.8c-0.7,0-1.3,0.3-1.8,0.8C403.3,35.2,403.1,35.9,403.1,37.2z"/>
	<path class="st3" d="M411.4,41.3v-8.5h1.4V34c0.6-0.9,1.5-1.3,2.7-1.3c0.4,0,1.1,0.2,1.3,0.3c0.4,0.2,0.8,0.4,0.9,0.8
		c0.1,0.3,0.3,0.6,0.4,1.1c0,0.3,0.1,0.8,0.1,1.3v5.2h-1.5v-5.2c0-0.6,0-1.1-0.1-1.3c-0.2-0.3-0.3-0.4-0.6-0.8
		c-0.3-0.3-0.6-0.3-1.1-0.3c-0.6,0-1.2,0.2-1.6,0.6c-0.4,0.4-0.6,1.2-0.6,2.3v4.7L411.4,41.3L411.4,41.3z"/>
</g>
<g class="st1">
	<path d="M6.7,67.7l4.5-11.9h1.7l4.8,11.9h-1.8l-1.4-3.6H9.7l-1.3,3.6C8.4,67.7,6.7,67.7,6.7,67.7z M10.1,62.9h4.1L13,59.6
		c-0.5-0.9-0.8-1.8-0.9-2.4c-0.2,0.8-0.3,1.5-0.6,2.3L10.1,62.9z"/>
	<path d="M18.8,67.7V55.9h1.5v11.9h-1.5V67.7z"/>
	<path d="M22.4,67.7V55.9h1.5v11.9h-1.5V67.7z"/>
	<path d="M30.7,67.7v-8.5H32v1.4c0.3-0.6,0.6-1.1,0.9-1.2c0.3-0.1,0.6-0.3,0.9-0.3c0.4,0,1,0.1,1.5,0.4l-0.5,1.4
		c-0.3-0.1-0.8-0.3-1-0.3c-0.3,0-0.6,0.1-0.9,0.3c-0.3,0.2-0.5,0.5-0.6,0.8c-0.2,0.5-0.3,1-0.3,1.6v4.5h-1.3V67.7z"/>
	<path d="M42.1,65.1l1.5,0.1c-0.3,0.9-0.6,1.5-1.4,2.1c-0.6,0.4-1.5,0.8-2.4,0.8c-1.2,0-2.3-0.5-3-1.2c-0.7-0.7-1.1-1.8-1.1-3.3
		s0.3-2.6,1.1-3.3s1.6-1.2,2.8-1.2s2.1,0.4,2.8,1.2s1.1,1.8,1.1,3.3c0,0.1,0,0.1,0,0.4h-6.3c0,0.9,0.3,1.6,0.8,2.1
		c0.4,0.5,1.1,0.8,1.8,0.8c0.6,0,1-0.1,1.3-0.4C41.5,66.1,41.8,65.6,42.1,65.1z M37.3,62.8h4.8c0-0.8-0.3-1.2-0.6-1.6
		c-0.5-0.6-1-0.9-1.8-0.9c-0.6,0-1.2,0.1-1.7,0.6C37.6,61.4,37.4,62.1,37.3,62.8z"/>
	<path d="M50.9,67.7v-1c-0.6,0.9-1.4,1.2-2.4,1.2c-0.8,0-1.4-0.1-1.9-0.6c-0.6-0.3-1.1-0.9-1.4-1.5c-0.3-0.6-0.4-1.5-0.4-2.3
		c0-0.9,0.1-1.6,0.4-2.3c0.3-0.8,0.8-1.2,1.4-1.6c0.6-0.3,1.2-0.6,1.9-0.6c0.4,0,0.9,0.1,1.4,0.3s0.8,0.4,1.1,0.9V56h1.5v11.7
		C52.5,67.7,50.9,67.7,50.9,67.7z M46.3,63.6c0,1,0.3,1.9,0.8,2.4c0.4,0.6,1.1,0.8,1.6,0.8c0.6,0,1.2-0.3,1.6-0.8
		c0.4-0.5,0.6-1.4,0.6-2.4c0-1.2-0.1-2.1-0.8-2.6c-0.6-0.4-0.9-0.8-1.6-0.8c-0.6,0-1.2,0.3-1.7,0.8C46.6,61.6,46.3,62.5,46.3,63.6z"
		/>
	<path d="M60.7,67.7l-2.6-8.5h1.5l1.4,4.9l0.4,1.8c0-0.1,0.1-0.8,0.4-1.8l1.4-4.9h1.5l1.4,4.9l0.4,1.6l0.4-1.6l1.5-4.9h1.4l-2.7,8.5
		h-1.4l-1.4-5.1L64,61.1l-1.8,6.6H60.7z"/>
	<path d="M71,57.7v-1.6h1.5v1.6H71z M71,67.7v-8.5h1.5v8.5H71z"/>
	<path d="M74.7,67.7v-8.5h1.4v1.2c0.6-0.9,1.5-1.4,2.7-1.4c0.4,0,1.1,0.1,1.4,0.3c0.4,0.1,0.8,0.4,0.9,0.8c0.1,0.3,0.3,0.6,0.4,1
		c0,0.3,0.1,0.8,0.1,1.4v5.3H80v-5.3c0-0.6,0-1-0.1-1.4c-0.1-0.3-0.3-0.4-0.6-0.8C79,60,78.7,60,78.2,60c-0.6,0-1.2,0.1-1.6,0.6
		C76.2,61,76,61.8,76,62.9v4.8C76,67.7,74.7,67.7,74.7,67.7z"/>
	<path d="M89.7,65.1l1.5,0.1c-0.3,0.9-0.6,1.5-1.4,2.1c-0.6,0.4-1.5,0.8-2.4,0.8c-1.2,0-2.3-0.5-3-1.2c-0.7-0.7-1.1-1.8-1.1-3.3
		s0.3-2.6,1.1-3.3c0.8-0.7,1.6-1.2,2.9-1.2c1.2,0,2.1,0.4,2.9,1.2s1.1,1.8,1.1,3.3c0,0.1,0,0.1,0,0.4H85c0,0.9,0.3,1.6,0.8,2.1
		c0.4,0.5,1.1,0.8,1.8,0.8c0.6,0,1.1-0.1,1.4-0.4C89.2,66.1,89.5,65.6,89.7,65.1z M85,62.8h4.8c0-0.8-0.3-1.2-0.6-1.6
		c-0.4-0.6-1.1-0.9-1.8-0.9c-0.6,0-1.2,0.1-1.6,0.6C85.3,61.4,85,62.1,85,62.8z"/>
	<path d="M92.5,65.4l1.5-0.3c0.1,0.6,0.3,1,0.6,1.4c0.3,0.3,0.9,0.4,1.5,0.4s1.2-0.1,1.5-0.4c0.3-0.3,0.5-0.6,0.5-0.9
		S98,65,97.6,64.8c-0.1-0.1-0.8-0.3-1.5-0.5c-1.1-0.3-1.8-0.4-2.3-0.8c-0.4-0.1-0.8-0.4-0.9-0.8c-0.1-0.3-0.3-0.8-0.3-1.2
		c0-0.5,0.1-0.8,0.3-1.1c0.1-0.3,0.4-0.6,0.8-0.8c0.1-0.1,0.6-0.3,0.9-0.4c0.3-0.1,0.8-0.1,1.2-0.1c0.6,0,1.2,0.1,1.8,0.3
		c0.5,0.1,0.9,0.5,1,0.8c0.3,0.3,0.5,0.8,0.5,1.4l-1.3,0.1c0-0.4-0.3-0.8-0.6-1c-0.3-0.3-0.6-0.5-1.2-0.5c-0.6,0-1.3,0.2-1.4,0.4
		c-0.3,0.1-0.4,0.4-0.4,0.8c0,0.1,0,0.3,0.1,0.4s0.3,0.3,0.6,0.5c0.1,0,0.6,0.1,1.3,0.3c1,0.3,1.8,0.5,2.1,0.6
		c0.5,0.1,0.8,0.5,0.9,0.8c0.1,0.3,0.3,0.9,0.3,1.5c0,0.5-0.1,0.9-0.5,1.4c-0.3,0.5-0.8,0.8-1.2,1.1c-0.5,0.3-1.2,0.3-1.8,0.3
		c-1.1,0-1.9-0.3-2.6-0.8C92.9,66.9,92.7,66.2,92.5,65.4z"/>
	<path d="M105.3,63.6c0-1.6,0.5-2.7,1.4-3.5c0.8-0.6,1.6-0.9,2.7-0.9c1.2,0,2.1,0.5,2.9,1.2s1,1.8,1,3.1c0,1-0.1,1.9-0.5,2.5
		c-0.3,0.6-0.8,1.1-1.5,1.5c-0.8,0.5-1.4,0.5-2.1,0.5c-1.2,0-2.1-0.5-2.9-1.2C105.7,66.1,105.3,65.1,105.3,63.6z M106.8,63.6
		c0,1,0.3,1.9,0.8,2.4c0.5,0.6,1,0.8,1.8,0.8s1.4-0.3,1.8-0.8c0.5-0.6,0.8-1.4,0.8-2.6c0-1-0.3-1.8-0.8-2.4c-0.4-0.4-1-0.8-1.8-0.8
		s-1.4,0.3-1.8,0.8C107,61.6,106.8,62.5,106.8,63.6z"/>
	<path d="M115,67.7v-8.5h1.4v1.2c0.6-0.9,1.5-1.4,2.7-1.4c0.5,0,1,0.1,1.4,0.3c0.5,0.1,0.8,0.4,0.9,0.8c0.1,0.3,0.3,0.6,0.5,1
		c0,0.3,0.1,0.8,0.1,1.4v5.3h-1.5v-5.3c0-0.6,0-1-0.1-1.4c-0.1-0.3-0.3-0.4-0.6-0.8c-0.3-0.3-0.6-0.3-1-0.3c-0.6,0-1.2,0.1-1.6,0.6
		c-0.5,0.4-0.6,1.2-0.6,2.3v4.8C116.6,67.7,115,67.7,115,67.7z"/>
	<path d="M128.2,65.4l1.5-0.3c0.1,0.6,0.3,1,0.6,1.4c0.3,0.3,0.9,0.4,1.5,0.4c0.6,0,1.2-0.1,1.5-0.4c0.3-0.3,0.5-0.6,0.5-0.9
		s-0.1-0.6-0.5-0.8c-0.1-0.1-0.8-0.3-1.5-0.5c-1-0.3-1.8-0.4-2.3-0.8c-0.5-0.1-0.8-0.4-0.9-0.8c-0.1-0.3-0.3-0.8-0.3-1.2
		c0-0.5,0.1-0.8,0.3-1.1c0.1-0.3,0.5-0.6,0.8-0.8c0.1-0.1,0.6-0.3,0.9-0.4c0.3-0.1,0.8-0.1,1.2-0.1c0.6,0,1.2,0.1,1.8,0.3
		c0.5,0.1,0.9,0.5,1,0.8c0.3,0.3,0.5,0.8,0.5,1.4l-1.4,0.1c0-0.4-0.3-0.8-0.6-1c-0.3-0.3-0.6-0.5-1.2-0.5c-0.6,0-1.2,0.1-1.4,0.3
		c-0.3,0.1-0.5,0.4-0.5,0.8c0,0.1,0,0.3,0.1,0.4c0.1,0.1,0.3,0.3,0.6,0.5c0.1,0,0.6,0.1,1.4,0.3c1,0.3,1.8,0.5,2.1,0.6
		c0.5,0.1,0.8,0.5,0.9,0.8c0.1,0.3,0.3,0.8,0.3,1.2c0,0.4-0.1,0.9-0.5,1.4c-0.3,0.4-0.8,0.8-1.2,1c-0.5,0.3-1.2,0.3-1.8,0.3
		c-1,0-2-0.3-2.5-0.8C128.7,66.9,128.3,66.2,128.2,65.4z"/>
	<path d="M142.5,66.7c-0.6,0.4-1.1,0.8-1.5,0.9c-0.5,0.1-1.1,0.3-1.7,0.3c-0.9,0-1.7-0.3-2.1-0.8c-0.5-0.4-0.8-1-0.8-1.8
		c0-0.5,0.1-0.8,0.3-1.2c0.2-0.3,0.5-0.6,0.8-0.9c0.3-0.1,0.6-0.3,1.1-0.4c0.3,0,0.8-0.1,1.3-0.1c1.2-0.1,2.1-0.3,2.5-0.5
		c0-0.1,0-0.3,0-0.4c0-0.6-0.1-1.1-0.5-1.2c-0.3-0.3-0.9-0.4-1.7-0.4s-1.2,0.1-1.5,0.3s-0.6,0.6-0.8,1.2l-1.3,0.1
		c0.1-0.6,0.3-1,0.6-1.5c0.3-0.3,0.8-0.6,1.3-0.9c0.6-0.1,1.2-0.3,2-0.3s1.4,0.1,1.8,0.3c0.5,0.1,0.8,0.5,1,0.6
		c0.1,0.3,0.3,0.6,0.5,1.1c0,0.3,0,0.8,0,1.4v1.9c0,1.4,0,2.3,0.2,2.6c0.1,0.3,0.1,0.8,0.3,1h-1.5C142.6,67.4,142.6,67.1,142.5,66.7
		z M142.5,63.6c-0.6,0.1-1.4,0.4-2.4,0.6c-0.6,0.1-1,0.1-1.2,0.3c-0.3,0.1-0.5,0.3-0.6,0.5c-0.1,0.1-0.1,0.4-0.1,0.8
		c0,0.4,0.1,0.8,0.5,0.9c0.4,0.1,0.8,0.4,1.3,0.4c0.6,0,1.1-0.1,1.5-0.3c0.5-0.3,0.8-0.6,0.9-1.1c0.2-0.3,0.3-0.8,0.3-1.5
		L142.5,63.6L142.5,63.6z"/>
	<path d="M146,67.7V55.9h1.5v11.9H146V67.7z"/>
	<path d="M155.6,65.1l1.5,0.1c-0.3,0.9-0.6,1.5-1.3,2.1c-0.6,0.4-1.5,0.8-2.4,0.8c-1.2,0-2.3-0.5-3-1.2c-0.7-0.7-1-1.8-1-3.3
		s0.3-2.6,1-3.3s1.7-1.2,2.9-1.2c1.2,0,2.1,0.4,2.9,1.2s1,1.8,1,3.3c0,0.1,0,0.1,0,0.4h-6.3c0,0.9,0.3,1.6,0.8,2.1
		c0.4,0.5,1,0.8,1.8,0.8c0.6,0,1.1-0.1,1.4-0.4C155,66.1,155.3,65.6,155.6,65.1z M150.8,62.8h4.8c0-0.8-0.3-1.2-0.6-1.6
		c-0.5-0.6-1.1-0.9-1.8-0.9c-0.6,0-1.2,0.1-1.6,0.6C151.1,61.4,150.8,62.1,150.8,62.8z"/>
	<path d="M159.7,64.9l-0.5-6.3V56h1.8v2.6l-0.5,6.3H159.7z M159.3,67.7v-1.5h1.6v1.5H159.3z"/>
	<path d="M168.4,67.7V55.9h8v1.4h-6.5v3.6h5.6v1.4h-5.6v5.5h-1.5V67.7z"/>
	<path d="M178.1,67.7v-8.5h1.4v1.4c0.3-0.6,0.6-1.1,0.9-1.2c0.3-0.1,0.6-0.3,0.9-0.3c0.5,0,1,0.1,1.5,0.4l-0.5,1.4
		c-0.3-0.1-0.8-0.3-1-0.3s-0.6,0.1-0.9,0.3c-0.3,0.2-0.4,0.5-0.6,0.8c-0.2,0.5-0.3,1.1-0.3,1.6v4.5h-1.4V67.7z"/>
	<path d="M189.4,65.1l1.5,0.1c-0.3,0.9-0.6,1.5-1.3,2.1c-0.6,0.4-1.5,0.8-2.4,0.8c-1.2,0-2.3-0.5-3-1.2c-0.7-0.7-1-1.8-1-3.3
		s0.3-2.6,1-3.3c0.7-0.7,1.7-1.2,2.9-1.2s2.1,0.4,2.9,1.2c0.8,0.8,1,1.8,1,3.3c0,0.1,0,0.1,0,0.4h-6.3c0,0.9,0.3,1.6,0.8,2.1
		c0.4,0.5,1,0.8,1.8,0.8c0.6,0,1.1-0.1,1.4-0.4C189,66.1,189.3,65.6,189.4,65.1z M184.8,62.8h4.8c0-0.8-0.3-1.2-0.6-1.6
		c-0.5-0.6-1.1-0.9-1.8-0.9c-0.6,0-1.2,0.1-1.6,0.6C185,61.4,184.8,62.1,184.8,62.8z"/>
	<path d="M198.7,65.1l1.5,0.1c-0.3,0.9-0.6,1.5-1.3,2.1c-0.6,0.4-1.5,0.8-2.4,0.8c-1.2,0-2.3-0.5-3-1.2c-0.7-0.7-1-1.8-1-3.3
		s0.3-2.6,1-3.3c0.7-0.7,1.7-1.2,2.8-1.2c1.2,0,2.1,0.4,2.8,1.2c0.7,0.8,1,1.8,1,3.3c0,0.1,0,0.1,0,0.4h-6.3c0,0.9,0.3,1.6,0.8,2.1
		s1,0.8,1.8,0.8c0.6,0,1-0.1,1.3-0.4C198.1,66.1,198.4,65.6,198.7,65.1z M193.9,62.8h4.8c0-0.8-0.3-1.2-0.6-1.6
		c-0.5-0.6-1-0.9-1.8-0.9c-0.6,0-1.2,0.1-1.7,0.6C194.2,61.4,193.9,62.1,193.9,62.8z"/>
	<path d="M206.2,68.5l1.4,0.1c0,0.5,0.1,0.8,0.4,0.9c0.3,0.3,0.9,0.5,1.5,0.5s1.2-0.1,1.5-0.5c0.3-0.3,0.6-0.6,0.8-1.2
		c0-0.3,0.2-0.9,0.2-1.8c-0.6,0.8-1.3,1.1-2.4,1.1c-1.2,0-2.1-0.5-2.7-1.2c-0.6-0.9-0.9-1.8-0.9-3c0-0.8,0.2-1.5,0.5-2.3
		s0.8-1.2,1.3-1.6c0.6-0.4,1.2-0.6,1.9-0.6c1.1,0,1.8,0.5,2.6,1.2V59h1.3v7.4c0,1.4-0.2,2.3-0.5,2.9c-0.3,0.6-0.8,1.1-1.3,1.4
		c-0.6,0.3-1.4,0.5-2.1,0.5c-1,0-1.8-0.3-2.4-0.8C206.5,70.1,206.2,69.4,206.2,68.5z M207.4,63.4c0,1.1,0.2,2,0.6,2.4
		c0.4,0.5,1,0.8,1.6,0.8s1.2-0.3,1.7-0.8c0.4-0.4,0.8-1.4,0.8-2.4s-0.3-1.8-0.8-2.4c-0.5-0.6-1.1-0.8-1.7-0.8
		c-0.6,0-1.2,0.3-1.6,0.8C207.5,61.4,207.4,62.4,207.4,63.4z"/>
	<path d="M215.6,57.7v-1.6h1.5v1.6H215.6z M215.6,67.7v-8.5h1.5v8.5H215.6z"/>
	<path d="M219.7,67.7v-7.3h-1.3v-1.2h1.3v-0.9c0-0.6,0-1.1,0.2-1.4c0.1-0.3,0.4-0.8,0.8-0.9c0.3-0.3,0.9-0.3,1.5-0.3
		c0.4,0,0.9,0,1.3,0.1l-0.1,1.2c-0.3,0-0.6-0.1-0.9-0.1c-0.4,0-0.8,0.1-0.9,0.3c-0.2,0.1-0.3,0.6-0.3,1.1v0.8h1.7v1.2h-1.8v7.5
		L219.7,67.7L219.7,67.7z"/>
	<path d="M227.1,66.6l0.1,1.4c-0.4,0.1-0.8,0.1-1,0.1c-0.6,0-0.9-0.1-1.2-0.3c-0.3-0.1-0.4-0.4-0.6-0.6c-0.1-0.2-0.2-0.9-0.2-1.6
		v-4.9h-1v-1.3h1v-2.1l1.5-0.9v3h1.5v1.2h-1.5v4.9c0,0.5,0,0.8,0.2,0.8c0,0.1,0.1,0.1,0.3,0.3c0.2,0,0.3,0.1,0.5,0.1
		C226.6,66.6,226.8,66.6,227.1,66.6z"/>
	<path d="M234.7,67.7l-2.5-8.5h1.5l1.3,4.9l0.4,1.8c0-0.1,0.2-0.8,0.5-1.8l1.3-4.9h1.5l1.3,4.9l0.5,1.6l0.4-1.6l1.5-4.9h1.3
		l-2.7,8.5h-1.5l-1.3-5.1l-0.3-1.5l-1.8,6.6H234.7z"/>
	<path d="M244.9,57.7v-1.6h1.5v1.6H244.9z M244.9,67.7v-8.5h1.5v8.5H244.9z"/>
	<path d="M251.8,66.6l0.1,1.4c-0.4,0.1-0.8,0.1-1,0.1c-0.6,0-0.9-0.1-1.2-0.3c-0.3-0.1-0.4-0.4-0.6-0.6c-0.2-0.3-0.2-0.9-0.2-1.6
		v-4.9h-1v-1.3h1v-2.1l1.5-0.9v3h1.5v1.2h-1.5v4.9c0,0.5,0,0.8,0.2,0.8c0,0.1,0.1,0.1,0.3,0.3c0.2,0,0.3,0.1,0.5,0.1
		C251.3,66.6,251.5,66.6,251.8,66.6z"/>
	<path d="M253.1,67.7V55.9h1.5v4.4c0.8-0.8,1.5-1.2,2.6-1.2c0.6,0,1.2,0.1,1.7,0.3c0.5,0.3,0.8,0.6,1,1.1c0.3,0.4,0.3,1,0.3,1.9v5.4
		h-1.5v-5.4c0-0.8-0.2-1.2-0.4-1.6c-0.3-0.3-0.8-0.4-1.4-0.4c-0.4,0-0.9,0.1-1.2,0.3c-0.3,0.2-0.6,0.5-0.8,0.9
		c-0.2,0.5-0.3,0.9-0.3,1.6v4.6L253.1,67.7L253.1,67.7z"/>
	<path d="M267,71.1V59.2h1.4v1c0.3-0.4,0.6-0.8,1-1c0.5-0.1,0.9-0.3,1.3-0.3c0.8,0,1.3,0.1,1.9,0.6c0.6,0.3,1.1,0.9,1.2,1.6
		c0.3,0.8,0.5,1.5,0.5,2.3c0,0.9-0.2,1.6-0.5,2.4s-0.8,1.2-1.3,1.6c-0.6,0.3-1.2,0.6-1.9,0.6c-0.5,0-0.9-0.1-1.4-0.3
		c-0.4-0.2-0.8-0.5-0.9-0.8v4.2L267,71.1L267,71.1z M268.3,63.6c0,1,0.1,1.9,0.6,2.4c0.5,0.6,1.1,0.8,1.7,0.8s1.2-0.3,1.6-0.8
		c0.5-0.6,0.8-1.4,0.8-2.6c0-1-0.1-1.9-0.6-2.4c-0.5-0.6-1.1-0.8-1.7-0.8c-0.6,0-1.2,0.3-1.6,0.9C268.5,61.6,268.3,62.5,268.3,63.6z
		"/>
	<path d="M281.6,67.7v-1.2c-0.6,0.9-1.5,1.5-2.7,1.5c-0.4,0-0.9-0.1-1.3-0.3c-0.5-0.1-0.8-0.4-0.9-0.8c-0.2-0.3-0.3-0.6-0.4-1
		c0-0.3-0.2-0.8-0.2-1.4v-5.3h1.5V64c0,0.8,0,1.2,0.2,1.5c0.1,0.5,0.3,0.8,0.6,0.9c0.3,0.1,0.6,0.3,1.1,0.3s0.9-0.1,1.2-0.3
		s0.6-0.6,0.8-0.9c0.2-0.4,0.3-0.9,0.3-1.6v-4.5h1.5v8.3H281.6z"/>
	<path d="M285.3,67.7v-8.5h1.3v1.4c0.3-0.6,0.6-1.1,0.9-1.2c0.3-0.1,0.6-0.3,0.9-0.3c0.5,0,1,0.1,1.5,0.4l-0.5,1.4
		c-0.3-0.1-0.8-0.3-1-0.3s-0.6,0.1-0.9,0.3s-0.4,0.5-0.6,0.8c-0.2,0.5-0.3,1.1-0.3,1.6v4.5h-1.3V67.7L285.3,67.7z"/>
	<path d="M296.3,64.7l1.3,0.1c-0.2,1.1-0.6,1.8-1.2,2.3c-0.6,0.6-1.5,0.9-2.4,0.9c-1.2,0-2.1-0.4-2.8-1.2c-0.7-0.8-1.1-1.8-1.1-3.3
		c0-0.9,0.2-1.8,0.4-2.4c0.3-0.8,0.8-1.2,1.4-1.5s1.3-0.4,2.1-0.4c0.9,0,1.7,0.3,2.3,0.8c0.6,0.4,0.9,1.2,1.2,1.9l-1.3,0.1
		c-0.2-0.6-0.3-1-0.8-1.4c-0.3-0.3-0.8-0.4-1.2-0.4c-0.8,0-1.4,0.3-1.8,0.8c-0.4,0.4-0.8,1.4-0.8,2.5c0,1.2,0.2,2,0.6,2.6
		c0.4,0.6,1,0.8,1.7,0.8c0.6,0,1.1-0.1,1.3-0.5C295.9,65.9,296.2,65.4,296.3,64.7z"/>
	<path d="M298.9,67.7V55.9h1.5v4.4c0.8-0.8,1.5-1.2,2.6-1.2c0.6,0,1.2,0.1,1.7,0.3c0.5,0.3,0.8,0.6,1,1.1c0.3,0.4,0.3,1,0.3,1.9v5.4
		h-1.5v-5.4c0-0.8-0.2-1.2-0.4-1.6c-0.3-0.3-0.8-0.4-1.4-0.4c-0.4,0-0.9,0.1-1.2,0.3c-0.3,0.2-0.6,0.5-0.8,0.9
		c-0.2,0.5-0.3,0.9-0.3,1.6v4.6L298.9,67.7L298.9,67.7z"/>
	<path d="M313.8,66.7c-0.6,0.4-1.1,0.8-1.5,0.9c-0.4,0.1-1.1,0.3-1.7,0.3c-0.9,0-1.7-0.3-2.1-0.8c-0.4-0.4-0.8-1-0.8-1.8
		c0-0.5,0.2-0.8,0.3-1.2c0.1-0.3,0.4-0.6,0.8-0.9c0.3-0.1,0.6-0.3,1-0.4c0.3,0,0.8-0.1,1.3-0.1c1.2-0.1,2.1-0.3,2.6-0.5
		c0-0.1,0-0.3,0-0.4c0-0.6-0.2-1.1-0.5-1.2c-0.3-0.3-0.9-0.4-1.7-0.4c-0.8,0-1.2,0.1-1.5,0.3c-0.3,0.3-0.6,0.6-0.8,1.2l-1.3-0.1
		c0.2-0.6,0.3-1.1,0.6-1.5c0.3-0.3,0.8-0.6,1.3-0.9c0.6-0.1,1.2-0.3,2-0.3s1.3,0.1,1.8,0.3c0.5,0.1,0.8,0.4,1,0.6
		c0.2,0.3,0.3,0.6,0.5,1c0,0.3,0,0.8,0,1.4v2c0,1.4,0,2.3,0.2,2.5c0.2,0.3,0.2,0.8,0.3,1.1h-1.5C313.9,67.4,313.8,67.1,313.8,66.7z
		 M313.6,63.6c-0.6,0.1-1.3,0.4-2.4,0.6c-0.6,0.1-1.1,0.1-1.2,0.3c-0.2,0.2-0.5,0.3-0.6,0.5s-0.1,0.4-0.1,0.8c0,0.4,0.1,0.8,0.4,0.9
		c0.3,0.3,0.8,0.4,1.3,0.4s1-0.1,1.5-0.3c0.5-0.3,0.8-0.6,0.9-1.1c0.2-0.3,0.3-0.8,0.3-1.5L313.6,63.6L313.6,63.6z"/>
	<path d="M316.8,65.4l1.5-0.3c0.2,0.6,0.3,1,0.6,1.4c0.3,0.3,0.9,0.4,1.5,0.4c0.6,0,1.2-0.1,1.5-0.4c0.3-0.3,0.5-0.6,0.5-0.9
		s-0.2-0.6-0.5-0.8c-0.2-0.1-0.8-0.3-1.5-0.5c-1-0.3-1.8-0.4-2.3-0.8c-0.5-0.1-0.8-0.4-0.9-0.8c-0.2-0.3-0.3-0.8-0.3-1.2
		c0-0.5,0.2-0.8,0.3-1.1c0.2-0.3,0.4-0.6,0.8-0.8c0.2-0.1,0.6-0.3,0.9-0.4c0.5-0.1,0.8-0.1,1.2-0.1c0.6,0,1.2,0.1,1.8,0.3
		c0.5,0.1,0.9,0.5,1,0.8c0.1,0.3,0.5,0.8,0.5,1.4l-1.3,0.1c0-0.4-0.3-0.8-0.6-1c-0.3-0.3-0.8-0.3-1.3-0.3s-1.2,0.1-1.3,0.3
		c-0.3,0.1-0.5,0.4-0.5,0.8c0,0.1,0,0.3,0.2,0.4c0.1,0.1,0.3,0.3,0.6,0.5c0.2,0,0.6,0.1,1.4,0.3c1,0.3,1.8,0.5,2.1,0.6
		c0.3,0.2,0.8,0.5,0.9,0.8c0.3,0.3,0.3,0.8,0.3,1.2s-0.2,0.9-0.5,1.4c-0.3,0.4-0.8,0.8-1.2,1c-0.6,0.3-1.2,0.3-1.8,0.3
		c-1,0-1.9-0.3-2.5-0.8C317.2,66.9,316.9,66.2,316.8,65.4z"/>
	<path d="M331.3,65.1l1.5,0.1c-0.3,0.9-0.6,1.5-1.4,2.1c-0.6,0.4-1.5,0.8-2.4,0.8c-1.2,0-2.3-0.5-3-1.2c-0.7-0.7-1.1-1.8-1.1-3.3
		s0.3-2.6,1.1-3.3c0.8-0.7,1.6-1.2,2.8-1.2c1.2,0,2.1,0.4,2.9,1.2s1,1.8,1,3.3c0,0.1,0,0.1,0,0.4h-6.3c0,0.9,0.3,1.6,0.8,2.1
		c0.4,0.5,1,0.8,1.8,0.8c0.6,0,1-0.1,1.3-0.4C330.8,66.1,331.1,65.6,331.3,65.1z M326.6,62.8h4.8c0-0.8-0.3-1.2-0.6-1.6
		c-0.5-0.6-1-0.9-1.8-0.9c-0.6,0-1.2,0.1-1.7,0.6C326.9,61.3,326.6,62.1,326.6,62.8z"/>
	<path d="M335.1,67.7v-1.5h1.6v1.5H335.1z"/>
</g>
<g class="st1">
	<path d="M8.2,94.3V82.4h7.9v1.4H9.7v3.6h5.5v1.4H9.7v5.4L8.2,94.3L8.2,94.3z"/>
	<path d="M17.9,94.3v-8.5h1.3v1.4c0.3-0.6,0.6-1,0.9-1.2c0.3-0.1,0.6-0.3,0.9-0.3c0.4,0,1,0.1,1.5,0.5L22,87.5
		c-0.3-0.1-0.8-0.3-1-0.3c-0.3,0-0.6,0.1-0.9,0.3c-0.3,0.2-0.5,0.5-0.6,0.8c-0.2,0.5-0.3,1.1-0.3,1.7v4.5h-1.3
		C17.9,94.5,17.9,94.3,17.9,94.3z"/>
	<path d="M29.2,91.4l1.5,0.2c-0.3,0.9-0.6,1.5-1.3,2.1c-0.6,0.5-1.5,0.8-2.4,0.8c-1.2,0-2.3-0.5-3-1.2c-0.8-0.7-1-1.8-1-3.3
		s0.3-2.6,1-3.3c0.7-0.7,1.7-1.2,2.8-1.2s2.1,0.5,2.8,1.2c0.7,0.7,1.1,1.7,1.1,3.2c0,0.1,0,0.1,0,0.4h-6.3c0,0.9,0.3,1.6,0.8,2.1
		s1,0.8,1.8,0.8c0.6,0,1.1-0.1,1.4-0.4C28.7,92.5,29,92.2,29.2,91.4z M24.5,89.2h4.8c0-0.8-0.3-1.2-0.6-1.6c-0.4-0.6-1-0.9-1.8-0.9
		c-0.6,0-1.2,0.1-1.7,0.6C24.9,87.9,24.5,88.4,24.5,89.2z"/>
	<path d="M38.5,91.4l1.5,0.2c-0.3,0.9-0.6,1.5-1.3,2.1c-0.6,0.5-1.5,0.8-2.4,0.8c-1.2,0-2.3-0.5-3-1.2c-0.8-0.7-1.2-1.8-1.2-3.1
		c0-1.5,0.3-2.6,1.1-3.3c0.8-0.7,1.6-1.2,2.8-1.2s2.1,0.5,2.8,1.2c0.7,0.7,1.1,1.8,1.1,3.3c0,0.1,0,0.1,0,0.4h-6.3
		c0,0.9,0.3,1.6,0.8,2.1s1.1,0.8,1.8,0.8c0.6,0,1-0.1,1.3-0.4C37.9,92.5,38.2,92.2,38.5,91.4z M33.7,89.2h4.8c0-0.8-0.3-1.2-0.6-1.6
		c-0.5-0.6-1-0.9-1.8-0.9c-0.6,0-1.2,0.1-1.7,0.6C34,87.9,33.7,88.4,33.7,89.2z"/>
	<path d="M45.7,91.7l1.5-0.3c0.1,0.6,0.3,1.1,0.6,1.4c0.3,0.3,0.9,0.4,1.5,0.4c0.6,0,1.2-0.1,1.5-0.4c0.3-0.3,0.4-0.6,0.4-0.9
		s-0.1-0.6-0.4-0.8c-0.1-0.1-0.8-0.3-1.5-0.4c-1.1-0.3-1.8-0.4-2.3-0.8c-0.4-0.1-0.8-0.4-0.9-0.8c-0.1-0.3-0.3-0.8-0.3-1.2
		s0.1-0.8,0.3-1.1c0.2-0.3,0.5-0.6,0.8-0.8c0.2-0.1,0.6-0.3,0.9-0.4c0.3-0.1,0.8-0.1,1.2-0.1c0.6,0,1.2,0.1,1.8,0.3
		c0.4,0.1,0.9,0.5,1.1,0.8c0.3,0.3,0.4,0.8,0.4,1.4l-1.4,0.1c0-0.4-0.3-0.8-0.6-1c-0.3-0.3-0.8-0.3-1.4-0.3s-1.2,0.1-1.4,0.3
		c-0.3,0.1-0.4,0.5-0.4,0.7s0,0.3,0.1,0.5c0.1,0.1,0.3,0.3,0.6,0.4c0.1,0,0.6,0.1,1.4,0.3c1.1,0.3,1.8,0.4,2.1,0.6
		c0.4,0.2,0.8,0.4,0.9,0.8c0.1,0.4,0.3,0.8,0.3,1.2c0,0.5-0.1,0.9-0.4,1.4c-0.3,0.4-0.8,0.7-1.2,1.1c-0.4,0.3-1.2,0.3-1.8,0.3
		c-1.1,0-1.9-0.3-2.6-0.8C46.3,93.2,45.8,92.7,45.7,91.7z"/>
	<path d="M54.5,94.3V82.4H56v4.2c0.8-0.8,1.5-1.2,2.6-1.2c0.6,0,1.2,0.1,1.6,0.3c0.4,0.2,0.8,0.6,1.1,1c0.1,0.5,0.3,1.1,0.3,1.9V94
		h-1.5v-5.4c0-0.8-0.1-1.2-0.4-1.6c-0.3-0.3-0.8-0.4-1.4-0.4c-0.4,0-0.9,0.1-1.2,0.3c-0.3,0.2-0.6,0.4-0.8,0.9
		c-0.1,0.4-0.3,1-0.3,1.8v4.6h-1.5C54.5,94.2,54.5,94.3,54.5,94.3z"/>
	<path d="M63.7,84.1v-1.6h1.5v1.6H63.7z M63.7,94.3v-8.5h1.5v8.5H63.7z"/>
	<path d="M67.3,97.6V85.7h1.4v1.1c0.3-0.5,0.6-0.8,1.1-1.1c0.4-0.1,0.9-0.3,1.4-0.3c0.8,0,1.4,0.1,1.9,0.6s1.1,0.9,1.2,1.6
		c0.2,0.8,0.4,1.6,0.4,2.3c0,0.9-0.1,1.7-0.4,2.4C74,93,73.5,93.5,72.9,94c-0.6,0.3-1.2,0.6-1.9,0.6c-0.4,0-0.9-0.2-1.4-0.3
		c-0.4-0.2-0.8-0.5-0.9-0.8v4.2L67.3,97.6L67.3,97.6z M68.7,90.1c0,1,0.1,1.9,0.6,2.4c0.4,0.6,1.1,0.8,1.6,0.8
		c0.6,0,1.2-0.3,1.6-0.8c0.4-0.6,0.8-1.3,0.8-2.6c0-1-0.1-1.9-0.6-2.4c-0.4-0.6-1.1-0.8-1.6-0.8c-0.6,0-1.2,0.3-1.6,0.9
		C68.9,88.2,68.7,88.9,68.7,90.1z"/>
	<path d="M76.6,97.6V85.7H78v1.1c0.3-0.5,0.6-0.8,1.1-1.1c0.4-0.1,0.8-0.3,1.3-0.3c0.8,0,1.4,0.1,1.9,0.6s1.1,0.9,1.2,1.6
		c0.3,0.8,0.4,1.5,0.4,2.3c0,0.9-0.1,1.7-0.4,2.4c-0.3,0.7-0.8,1.2-1.4,1.7c-0.6,0.3-1.2,0.6-1.9,0.6c-0.4,0-0.9-0.2-1.4-0.3
		c-0.4-0.2-0.8-0.5-0.9-0.8v4.2L76.6,97.6L76.6,97.6z M77.8,90.1c0,1,0.1,1.9,0.6,2.4c0.4,0.6,1.1,0.8,1.6,0.8
		c0.6,0,1.2-0.3,1.6-0.8c0.4-0.6,0.8-1.3,0.8-2.6c0-1-0.1-1.9-0.6-2.4c-0.4-0.6-1.1-0.8-1.6-0.8c-0.6,0-1.2,0.3-1.6,0.9
		C78.1,88.2,77.8,88.9,77.8,90.1z"/>
	<path d="M85.7,84.1v-1.6h1.5v1.6H85.7z M85.7,94.3v-8.5h1.5v8.5H85.7z"/>
	<path d="M89.3,94.3v-8.5h1.4V87c0.6-0.9,1.5-1.4,2.7-1.4c0.4,0,1.1,0.1,1.4,0.3c0.5,0.1,0.8,0.5,0.9,0.8c0.1,0.3,0.3,0.6,0.5,1
		c0,0.3,0.1,0.8,0.1,1.4v5.2h-1.5V89c0-0.6,0-1.1-0.1-1.3c-0.1-0.3-0.3-0.5-0.6-0.8c-0.3-0.3-0.6-0.3-1.1-0.3
		c-0.6,0-1.2,0.1-1.6,0.6c-0.5,0.5-0.7,1.2-0.7,2.3v4.7L89.3,94.3L89.3,94.3z"/>
	<path d="M98.2,95l1.4,0.2c0,0.5,0.1,0.8,0.5,0.9c0.3,0.3,0.9,0.5,1.5,0.5s1.2-0.1,1.5-0.5c0.3-0.3,0.6-0.6,0.8-1.2
		c0-0.3,0.1-0.9,0.1-1.8c-0.6,0.8-1.4,1.1-2.4,1.1c-1.2,0-2.1-0.5-2.7-1.2c-0.6-0.9-0.9-1.8-0.9-3c0-0.8,0.1-1.5,0.5-2.3
		c0.3-0.8,0.8-1.2,1.4-1.6c0.6-0.5,1.2-0.6,2-0.6c1,0,1.8,0.4,2.5,1.2v-0.9h1.3v7.4c0,1.3-0.1,2.3-0.5,2.8c-0.3,0.6-0.8,1-1.4,1.4
		c-0.6,0.3-1.2,0.4-2.1,0.4c-1,0-1.8-0.3-2.4-0.8C98.5,96.5,98.2,96,98.2,95z M99.4,89.8c0,1.1,0.1,1.9,0.6,2.4s1,0.8,1.6,0.8
		s1.2-0.3,1.6-0.8c0.5-0.4,0.8-1.3,0.8-2.4s-0.3-1.8-0.8-2.4s-1-0.7-1.6-0.7s-1.2,0.3-1.6,0.7C99.6,87.9,99.4,88.7,99.4,89.8z"/>
	<path d="M113.8,94.3l-2.5-8.5h1.5l1.4,4.9l0.5,1.8c0-0.1,0.1-0.8,0.5-1.8l1.4-4.9h1.5l1.4,4.9l0.5,1.7l0.5-1.7l1.5-4.9h1.4
		l-2.7,8.5h-1.5l-1.4-5.1l-0.3-1.5l-1.8,6.6H113.8z"/>
	<path d="M124.2,84.1v-1.6h1.5v1.6H124.2z M124.2,94.3v-8.5h1.5v8.5H124.2z"/>
	<path d="M130.9,92.9l0.1,1.3c-0.5,0.2-0.8,0.2-1,0.2c-0.6,0-0.9-0.2-1.2-0.3c-0.3-0.2-0.5-0.5-0.6-0.6s-0.1-0.9-0.1-1.8v-4.9h-1
		v-1.1h1v-2.1l1.5-0.9v3h1.5v1.2h-1.5v5c0,0.4,0,0.8,0.1,0.8c0,0.1,0.1,0.1,0.3,0.3c0.1,0,0.3,0.2,0.5,0.2
		C130.4,93.1,130.8,92.9,130.9,92.9z"/>
	<path d="M132.4,94.3V82.4h1.5v4.2c0.8-0.8,1.5-1.2,2.5-1.2c0.6,0,1.2,0.1,1.6,0.3c0.4,0.2,0.8,0.6,1,1c0.2,0.5,0.3,1.1,0.3,1.9V94
		h-1.5v-5.4c0-0.8-0.1-1.2-0.5-1.6c-0.3-0.3-0.8-0.4-1.4-0.4c-0.5,0-0.9,0.1-1.2,0.3c-0.3,0.2-0.6,0.4-0.8,0.9
		c-0.1,0.4-0.3,0.9-0.3,1.6v4.7L132.4,94.3L132.4,94.3z"/>
	<path d="M146,94.3v-8.5h1.3V87c0.3-0.5,0.6-0.8,1.1-1.1c0.4-0.3,0.9-0.4,1.5-0.4c0.6,0,1.2,0.1,1.5,0.4c0.3,0.3,0.8,0.6,0.9,1.1
		c0.8-1.1,1.5-1.5,2.7-1.5c0.9,0,1.5,0.3,2,0.8c0.5,0.4,0.8,1.2,0.8,2.1v5.8h-1.5v-5.4c0-0.6,0-1.1-0.1-1.2
		c-0.2-0.3-0.3-0.5-0.5-0.6c-0.3-0.1-0.6-0.3-0.9-0.3c-0.6,0-1,0.1-1.5,0.6c-0.5,0.4-0.6,1.1-0.6,1.9v5h-1.5v-5.4
		c0-0.6-0.1-1.2-0.3-1.5c-0.3-0.3-0.6-0.4-1.2-0.4c-0.4,0-0.8,0.1-1.2,0.3c-0.5,0.2-0.6,0.6-0.8,0.9c-0.2,0.3-0.2,1.1-0.2,1.8v4.5
		L146,94.3L146,94.3z"/>
	<path d="M159.8,84.1v-1.6h1.5v1.6H159.8z M159.8,94.3v-8.5h1.5v8.5H159.8z"/>
	<path d="M163.5,94.3v-8.5h1.3V87c0.6-0.9,1.5-1.4,2.7-1.4c0.5,0,1,0.1,1.4,0.3c0.4,0.1,0.8,0.5,0.9,0.8c0.1,0.3,0.3,0.6,0.5,1
		c0,0.3,0.2,0.8,0.2,1.4v5.2H169V89c0-0.6,0-1.1-0.2-1.3c-0.2-0.3-0.3-0.5-0.6-0.8c-0.3-0.3-0.6-0.3-1.1-0.3c-0.6,0-1.2,0.1-1.6,0.6
		c-0.5,0.5-0.6,1.2-0.6,2.2v4.7L163.5,94.3L163.5,94.3z"/>
	<path d="M172.6,84.1v-1.6h1.5v1.6H172.6z M172.6,94.3v-8.5h1.5v8.5H172.6z"/>
	<path d="M176.3,94.3v-8.5h1.4V87c0.3-0.5,0.6-0.8,1-1.1c0.5-0.3,0.9-0.4,1.5-0.4s1.2,0.1,1.5,0.4c0.3,0.3,0.8,0.6,0.9,1.1
		c0.8-1.1,1.5-1.5,2.7-1.5c0.9,0,1.5,0.3,2,0.8c0.5,0.4,0.8,1.2,0.8,2.1v5.8h-1.5v-5.4c0-0.6,0-1.1-0.2-1.2
		c-0.1-0.3-0.3-0.5-0.4-0.6c-0.3-0.1-0.6-0.3-0.9-0.3c-0.6,0-1,0.1-1.5,0.6c-0.5,0.4-0.6,1.1-0.6,1.9v5h-1.5v-5.4
		c0-0.6-0.2-1.2-0.3-1.5c-0.3-0.3-0.6-0.4-1.2-0.4c-0.5,0-0.8,0.1-1.2,0.3c-0.4,0.2-0.6,0.6-0.8,0.9c-0.1,0.3-0.3,1.1-0.3,1.8v4.5
		L176.3,94.3L176.3,94.3z"/>
	<path d="M195.5,94.3v-1.2c-0.6,0.9-1.5,1.5-2.7,1.5c-0.5,0-0.9-0.1-1.3-0.3c-0.4-0.1-0.8-0.5-0.9-0.8c-0.2-0.3-0.3-0.6-0.5-1.1
		c0-0.3-0.1-0.8-0.1-1.3v-5.4h1.5v4.8c0,0.8,0,1.2,0.2,1.5c0.2,0.4,0.3,0.8,0.6,0.9c0.3,0.2,0.6,0.3,1,0.3c0.4,0,0.9-0.1,1.2-0.3
		c0.5-0.1,0.6-0.6,0.8-0.9c0.2-0.4,0.3-0.9,0.3-1.7v-4.5h1.5v8.5H195.5L195.5,94.3L195.5,94.3z"/>
	<path d="M199.1,94.3v-8.5h1.3V87c0.3-0.5,0.6-0.8,1-1.1c0.5-0.3,0.9-0.4,1.5-0.4s1.2,0.1,1.5,0.4c0.3,0.3,0.8,0.6,0.9,1.1
		c0.8-1.1,1.5-1.5,2.7-1.5c0.9,0,1.5,0.3,2,0.8c0.5,0.4,0.8,1.2,0.8,2.1v5.8h-1.5v-5.4c0-0.6,0-1.1-0.2-1.2
		c-0.2-0.3-0.3-0.5-0.4-0.6c-0.3-0.1-0.6-0.3-0.9-0.3c-0.6,0-1,0.1-1.5,0.6c-0.4,0.4-0.6,1.1-0.6,1.9v5h-1.5v-5.4
		c0-0.6-0.2-1.2-0.3-1.5c-0.3-0.3-0.6-0.4-1.2-0.4c-0.5,0-0.8,0.1-1.2,0.3c-0.5,0.2-0.6,0.6-0.8,0.9s-0.3,1.1-0.3,1.8v4.5
		L199.1,94.3L199.1,94.3z"/>
	<path d="M220.5,96v-1.5c-0.8-0.1-1.3-0.3-1.8-0.5c-0.5-0.3-0.9-0.6-1.2-1.2c-0.3-0.4-0.4-1.2-0.6-1.9l1.5-0.3
		c0.1,0.8,0.3,1.3,0.6,1.6c0.5,0.5,0.9,0.8,1.5,0.9v-4.3c-0.6-0.1-1.2-0.3-1.8-0.8c-0.5-0.3-0.8-0.6-1-1c-0.3-0.5-0.3-0.9-0.3-1.5
		c0-1.1,0.3-1.8,1.1-2.6c0.4-0.4,1.2-0.8,2.1-0.8v-0.7h0.9v0.8c0.9,0.1,1.5,0.3,1.9,0.8c0.6,0.5,1.1,1.2,1.2,2.1l-1.5,0.1
		c-0.1-0.6-0.3-1-0.6-1.4c-0.3-0.3-0.6-0.4-1.1-0.6v4.2c0.8,0.1,1.2,0.3,1.5,0.4c0.4,0.2,0.8,0.4,1.1,0.8c0.3,0.3,0.4,0.6,0.6,1.1
		c0.2,0.4,0.3,0.8,0.3,1.2c0,1.1-0.3,1.8-0.9,2.5c-0.6,0.6-1.5,1-2.5,1v1.5L220.5,96L220.5,96z M220.5,83.4c-0.6,0.1-1,0.3-1.3,0.8
		c-0.3,0.3-0.5,0.8-0.5,1.4c0,0.5,0.2,0.9,0.5,1.2s0.8,0.6,1.3,0.7V83.4z M221.3,93.2c0.6,0,1-0.3,1.3-0.8s0.6-0.9,0.6-1.5
		s-0.2-0.9-0.5-1.2c-0.3-0.3-0.8-0.6-1.5-0.9L221.3,93.2L221.3,93.2z"/>
	<path d="M226.3,91.2l1.5-0.2c0.1,0.8,0.3,1.4,0.8,1.7c0.4,0.3,0.9,0.6,1.5,0.6c0.8,0,1.3-0.3,1.8-0.8c0.5-0.6,0.8-1.2,0.8-2.1
		c0-0.8-0.3-1.5-0.8-2c-0.5-0.4-1-0.8-1.8-0.8c-0.5,0-0.9,0.2-1.2,0.3s-0.6,0.4-0.9,0.8l-1.3-0.1l1.2-6h5.8V84h-4.6l-0.6,3.1
		c0.8-0.4,1.5-0.8,2.3-0.8c1.1,0,2,0.3,2.6,1c0.8,0.8,1.1,1.7,1.1,2.7s-0.3,1.9-0.9,2.7c-0.8,0.9-1.8,1.5-3.1,1.5
		c-1.1,0-2-0.3-2.7-0.9C226.8,92.9,226.3,92.2,226.3,91.2z"/>
	<path d="M235.5,88.4c0-1.3,0.2-2.5,0.5-3.3c0.3-0.9,0.8-1.5,1.3-1.9c0.6-0.5,1.3-0.8,2.1-0.8c0.6,0,1.2,0.1,1.7,0.4
		c0.4,0.3,0.9,0.6,1.2,1.1c0.3,0.4,0.6,1,0.8,1.8c0.2,0.8,0.3,1.6,0.3,2.9c0,1.3-0.2,2.5-0.4,3.3c-0.3,0.8-0.8,1.5-1.2,2
		c-0.6,0.5-1.3,0.8-2.1,0.8c-1.2,0-2.1-0.5-2.7-1.2C235.8,92.2,235.5,90.7,235.5,88.4z M237,88.4c0,2,0.3,3.2,0.8,3.9
		c0.5,0.6,1.1,0.9,1.7,0.9c0.6,0,1.2-0.3,1.6-0.9c0.5-0.6,0.8-1.9,0.8-3.9c0-1.9-0.3-3.3-0.8-3.9c-0.4-0.6-1-0.9-1.6-0.9
		s-1.2,0.3-1.7,0.9C237.1,85.1,237,86.5,237,88.4z"/>
	<path d="M249.6,97.6V85.7h1.3v1.1c0.3-0.5,0.6-0.8,1.1-1.1c0.4-0.1,0.9-0.3,1.3-0.3c0.8,0,1.3,0.1,2,0.6c0.6,0.3,1,0.9,1.2,1.6
		c0.3,0.8,0.4,1.5,0.4,2.3c0,0.9-0.1,1.7-0.4,2.4s-0.8,1.2-1.3,1.7c-0.6,0.3-1.2,0.6-2,0.6c-0.4,0-0.9-0.2-1.3-0.3
		c-0.4-0.2-0.8-0.5-0.9-0.8v4.2h-1.3v-0.1C249.7,97.6,249.6,97.6,249.6,97.6z M250.9,90.1c0,1,0.2,1.9,0.6,2.4
		c0.4,0.6,1,0.8,1.6,0.8s1.2-0.3,1.7-0.8c0.4-0.6,0.8-1.3,0.8-2.6c0-1-0.2-1.9-0.6-2.4c-0.4-0.6-1-0.8-1.6-0.8s-1.2,0.3-1.7,0.9
		C251.1,88.2,250.9,88.9,250.9,90.1z"/>
	<path d="M264.3,94.3v-1.2c-0.6,0.9-1.5,1.5-2.7,1.5c-0.5,0-0.9-0.1-1.4-0.3c-0.4-0.1-0.8-0.5-0.9-0.8c-0.2-0.3-0.3-0.6-0.5-1.1
		c0-0.3-0.2-0.8-0.2-1.3v-5.4h1.5v4.8c0,0.8,0,1.2,0.2,1.5c0.2,0.4,0.3,0.8,0.6,0.9c0.3,0.2,0.6,0.3,1.1,0.3c0.4,0,0.9-0.1,1.2-0.3
		c0.3-0.2,0.6-0.6,0.8-0.9c0.2-0.4,0.3-0.9,0.3-1.7v-4.5h1.5v8.5H264.3L264.3,94.3L264.3,94.3z"/>
	<path d="M267.8,94.3v-8.5h1.3v1.4c0.3-0.6,0.6-1,0.9-1.2c0.3-0.1,0.6-0.3,0.9-0.3c0.4,0,1.1,0.1,1.5,0.5l-0.4,1.3
		c-0.3-0.1-0.8-0.3-1.1-0.3s-0.6,0.1-0.9,0.3c-0.3,0.2-0.5,0.5-0.6,0.8c-0.2,0.5-0.3,1.1-0.3,1.7v4.5h-1.3V94.3L267.8,94.3z"/>
	<path d="M279,91.2l1.4,0.1c-0.2,1.1-0.6,1.8-1.2,2.3c-0.6,0.6-1.5,0.9-2.4,0.9c-1.2,0-2.1-0.5-2.8-1.2s-1-1.8-1-3.3
		c0-0.9,0.1-1.8,0.4-2.4c0.3-0.8,0.8-1.2,1.3-1.5c0.6-0.3,1.3-0.4,2.1-0.4c0.9,0,1.7,0.3,2.3,0.8c0.6,0.4,0.9,1.2,1.2,1.9l-1.3,0.2
		c-0.2-0.6-0.3-1.1-0.8-1.4c-0.3-0.3-0.8-0.4-1.2-0.4c-0.8,0-1.3,0.3-1.8,0.8c-0.5,0.4-0.8,1.3-0.8,2.6c0,1.2,0.1,1.9,0.6,2.5
		c0.4,0.6,1.1,0.8,1.7,0.8c0.6,0,1-0.1,1.3-0.4C278.5,92.4,278.8,91.9,279,91.2z"/>
	<path d="M281.6,94.3V82.4h1.5v4.2c0.8-0.8,1.5-1.2,2.6-1.2c0.6,0,1.2,0.1,1.7,0.3c0.5,0.3,0.8,0.6,1,1c0.3,0.5,0.3,1.1,0.3,1.9V94
		h-1.5v-5.4c0-0.8-0.2-1.2-0.4-1.6c-0.3-0.3-0.8-0.4-1.4-0.4c-0.4,0-0.9,0.1-1.2,0.3c-0.3,0.2-0.6,0.4-0.8,0.9
		c-0.2,0.4-0.3,0.9-0.3,1.6v4.7L281.6,94.3L281.6,94.3z"/>
	<path d="M296.3,93.2c-0.6,0.5-1,0.8-1.5,0.9s-1,0.3-1.7,0.3c-0.9,0-1.7-0.3-2.1-0.8s-0.8-1.1-0.8-1.8c0-0.4,0.2-0.8,0.3-1.2
		c0.2-0.3,0.5-0.6,0.8-0.9c0.3-0.1,0.6-0.3,1.1-0.4c0.3,0,0.8-0.2,1.3-0.2c1.2-0.1,2.1-0.3,2.5-0.4c0-0.1,0-0.3,0-0.4
		c0-0.6-0.1-1.1-0.4-1.2c-0.3-0.3-0.9-0.4-1.7-0.4c-0.8,0-1.2,0.1-1.5,0.3c-0.3,0.3-0.6,0.6-0.8,1.2l-1.3-0.1
		c0.2-0.6,0.3-1.1,0.6-1.5c0.3-0.3,0.8-0.6,1.3-0.9c0.6-0.1,1.2-0.3,1.9-0.3s1.4,0.1,1.8,0.3c0.4,0.1,0.8,0.4,1.1,0.6
		c0.1,0.3,0.3,0.6,0.4,1c0,0.3,0,0.8,0,1.4v1.9c0,1.4,0,2.3,0.2,2.6c0.2,0.3,0.2,0.8,0.3,1h-1.5C296.5,94,296.3,93.5,296.3,93.2z
		 M296.2,89.9c-0.6,0.2-1.3,0.5-2.4,0.6c-0.6,0.1-1.1,0.1-1.2,0.3c-0.3,0.1-0.5,0.3-0.6,0.4c-0.2,0.1-0.2,0.4-0.2,0.8
		s0.2,0.8,0.5,0.9c0.3,0.3,0.8,0.5,1.3,0.5c0.6,0,1.1-0.2,1.5-0.3c0.5-0.3,0.8-0.6,0.9-1.1c0.1-0.3,0.3-0.8,0.3-1.5L296.2,89.9
		L296.2,89.9z"/>
	<path d="M299.3,91.7l1.5-0.3c0.2,0.6,0.3,1.1,0.6,1.4c0.3,0.3,0.9,0.4,1.5,0.4c0.6,0,1.2-0.1,1.5-0.4c0.3-0.3,0.4-0.6,0.4-0.9
		s-0.1-0.6-0.4-0.8c-0.2-0.1-0.8-0.3-1.5-0.4c-1.1-0.3-1.8-0.4-2.3-0.8c-0.4-0.1-0.8-0.4-0.9-0.8s-0.3-0.8-0.3-1.2s0.1-0.8,0.3-1.1
		s0.5-0.6,0.8-0.8c0.3-0.2,0.6-0.3,0.9-0.4c0.4-0.1,0.8-0.1,1.2-0.1c0.6,0,1.2,0.1,1.8,0.3c0.4,0.1,0.9,0.5,1.1,0.8
		c0.3,0.3,0.4,0.8,0.4,1.4l-1.3,0.1c0-0.4-0.3-0.8-0.6-1c-0.3-0.3-0.8-0.3-1.3-0.3s-1.2,0.1-1.3,0.3c-0.3,0.1-0.4,0.5-0.4,0.7
		s0,0.3,0.1,0.5c0.2,0.1,0.3,0.3,0.6,0.4c0.1,0,0.6,0.1,1.3,0.3c1.1,0.3,1.8,0.4,2.1,0.6c0.4,0.2,0.8,0.4,0.9,0.8
		c0.3,0.3,0.3,0.8,0.3,1.2c0,0.5-0.2,0.9-0.4,1.4c-0.3,0.4-0.8,0.7-1.2,1.1c-0.6,0.3-1.2,0.3-1.8,0.3c-1.1,0-2-0.3-2.6-0.8
		C299.8,93.2,299.5,92.7,299.3,91.7z"/>
	<path d="M314.1,91.4l1.5,0.2c-0.3,0.9-0.6,1.5-1.4,2.1c-0.6,0.5-1.5,0.8-2.4,0.8c-1.2,0-2.3-0.5-3-1.2c-0.7-0.7-1.1-1.8-1.1-3.3
		s0.3-2.6,1.1-3.3c0.8-0.7,1.6-1.2,2.8-1.2s2.1,0.5,2.9,1.2c0.8,0.7,1,1.8,1,3.3c0,0.1,0,0.1,0,0.4h-6.3c0,0.9,0.3,1.6,0.8,2.1
		c0.4,0.5,1,0.8,1.8,0.8c0.6,0,1-0.1,1.3-0.4C313.5,92.5,313.8,92.2,314.1,91.4z M309.3,89.2h4.8c0-0.8-0.3-1.2-0.6-1.6
		c-0.4-0.6-1-0.9-1.8-0.9c-0.6,0-1.2,0.1-1.7,0.6S309.3,88.4,309.3,89.2z"/>
	<path d="M318.1,91.3l-0.5-6.3v-2.6h1.8v2.5l-0.4,6.3L318.1,91.3L318.1,91.3z M317.6,94.3v-1.6h1.7v1.6H317.6z"/>
</g>
<g class="st1">
	<path class="st4" d="M13.4,117.5l1.3,0.2c-0.2,1-0.6,1.8-1.2,2.3c-0.6,0.6-1.5,0.9-2.4,0.9c-1.2,0-2.1-0.5-2.9-1.2
		c-0.8-0.8-1-1.8-1-3.3c0-0.9,0.2-1.8,0.4-2.4c0.3-0.6,0.8-1.2,1.4-1.5s1.4-0.5,2.1-0.5c0.9,0,1.7,0.3,2.3,0.8s0.9,1.2,1.2,2
		l-1.3,0.1c-0.2-0.6-0.3-1-0.8-1.3c-0.3-0.3-0.8-0.5-1.2-0.5c-0.8,0-1.3,0.3-1.8,0.8s-0.8,1.4-0.8,2.5c0,1.2,0.2,2,0.6,2.5
		c0.5,0.6,1.1,0.8,1.7,0.8s1-0.1,1.3-0.5C13.1,118.9,13.3,118.3,13.4,117.5z"/>
	<path class="st4" d="M15.5,116.5c0-1.6,0.5-2.7,1.3-3.5c0.8-0.6,1.7-0.9,2.7-0.9c1.2,0,2.1,0.5,2.8,1.2s1,1.8,1,3.1
		c0,1-0.1,2-0.4,2.5c-0.3,0.6-0.8,1-1.5,1.5s-1.4,0.5-2.1,0.5c-1.2,0-2.1-0.5-2.8-1.2C16,119,15.5,117.9,15.5,116.5z M17,116.5
		c0,1,0.3,2,0.8,2.4c0.5,0.6,1,0.8,1.8,0.8s1.3-0.3,1.8-0.8c0.5-0.6,0.8-1.4,0.8-2.5c0-1-0.3-1.8-0.8-2.4s-1-0.8-1.8-0.8
		s-1.3,0.3-1.8,0.8S17,115.3,17,116.5z"/>
	<path class="st4" d="M25.3,120.7v-11.8h1.5v4.2c0.8-0.8,1.5-1.2,2.6-1.2c0.6,0,1.2,0.1,1.6,0.3c0.5,0.1,0.8,0.6,1.1,1
		c0.1,0.5,0.3,1,0.3,2v5.4h-1.5v-5.4c0-0.8-0.2-1.2-0.4-1.7c-0.3-0.3-0.8-0.5-1.3-0.5s-0.9,0.2-1.2,0.3c-0.3,0.2-0.6,0.5-0.8,0.9
		s-0.3,0.9-0.3,1.6v4.7h-1.5C25.3,120.5,25.3,120.7,25.3,120.7z"/>
	<path class="st4" d="M33.9,116.5c0-1.6,0.4-2.7,1.3-3.5c0.8-0.6,1.7-0.9,2.7-0.9c1.2,0,2.1,0.5,2.9,1.2c0.8,0.8,1.1,1.8,1.1,3.1
		c0,1-0.2,2-0.4,2.5c-0.3,0.6-0.7,1-1.5,1.5c-0.8,0.5-1.4,0.5-2.1,0.5c-1.2,0-2.1-0.5-2.8-1.2C34.3,119,33.9,117.9,33.9,116.5z
		 M35.4,116.5c0,1,0.3,2,0.8,2.4c0.4,0.6,1,0.8,1.8,0.8s1.3-0.3,1.8-0.8c0.5-0.6,0.8-1.4,0.8-2.5c0-1-0.3-1.8-0.8-2.4
		c-0.4-0.6-1-0.8-1.8-0.8s-1.3,0.3-1.8,0.8C35.6,114.5,35.4,115.3,35.4,116.5z"/>
	<path class="st4" d="M45.1,120.7l-2.6-8.6H44l1.3,5l0.5,1.8c0-0.2,0.1-0.8,0.4-1.8l1.4-5h1.5l1.4,5l0.4,1.6l0.4-1.6l1.5-5h1.4
		l-2.7,8.6H50l-1.4-5.1l-0.3-1.5l-1.8,6.6H45.1z"/>
	<path class="st4" d="M55.4,110.7V109h1.5v1.7H55.4z M55.4,120.7v-8.5h1.5v8.5H55.4z"/>
	<path class="st4" d="M59.2,120.7v-8.5h1.4v1.2c0.6-0.9,1.5-1.3,2.7-1.3c0.4,0,1.1,0.1,1.4,0.3c0.4,0.1,0.8,0.5,0.9,0.8
		s0.3,0.6,0.4,1c0,0.3,0.1,0.8,0.1,1.3v5.3h-1.5v-5.3c0-0.6,0-1-0.1-1.3c-0.1-0.3-0.3-0.5-0.6-0.8c-0.3-0.3-0.6-0.3-1.1-0.3
		c-0.6,0-1.2,0.1-1.6,0.6c-0.3,0.6-0.6,1.3-0.6,2.4v4.7C60.5,120.7,59.2,120.7,59.2,120.7z"/>
	<path class="st4" d="M74.2,118l1.5,0.2c-0.3,0.9-0.6,1.5-1.4,2.1c-0.6,0.5-1.5,0.8-2.4,0.8c-1.2,0-2.3-0.5-3-1.2
		c-0.7-0.7-1.1-1.8-1.1-3.3s0.3-2.5,1.1-3.3c0.8-0.8,1.6-1.2,2.9-1.2c1.2,0,2.1,0.5,2.9,1.2s1,1.7,1,3.2c0,0.2,0,0.2,0,0.5h-6.3
		c0,0.9,0.3,1.7,0.8,2.1s1.1,0.8,1.8,0.8c0.6,0,1.1-0.2,1.4-0.5C73.6,119,73.9,118.6,74.2,118z M69.4,115.6h4.8
		c0-0.8-0.3-1.2-0.6-1.7c-0.4-0.6-1.1-0.9-1.8-0.9c-0.6,0-1.2,0.1-1.6,0.6C69.7,114.2,69.4,114.9,69.4,115.6z"/>
	<path class="st4" d="M77.5,120.7v-8.5h1.4v1.4c0.3-0.6,0.6-1,0.9-1.2c0.3-0.2,0.6-0.3,0.9-0.3c0.4,0,1.1,0.1,1.5,0.5l-0.6,1.3
		c-0.3-0.1-0.8-0.3-1.1-0.3c-0.3,0-0.6,0.2-0.9,0.3c-0.3,0.2-0.4,0.5-0.6,0.8c-0.1,0.5-0.3,1-0.3,1.7v4.5
		C78.7,120.7,77.5,120.7,77.5,120.7z"/>
</g>
<g class="st1">
	<path class="st4" d="M82.9,124l-0.1-1.3c0.3,0.1,0.6,0.1,0.9,0.1s0.6,0,0.8-0.1c0.1-0.2,0.3-0.3,0.4-0.5c0.1-0.2,0.3-0.5,0.4-1
		c0-0.2,0-0.2,0.1-0.3l-3.3-8.5h1.5l1.8,5c0.3,0.6,0.4,1.3,0.6,2c0.1-0.6,0.3-1.4,0.6-2l1.8-5h1.5l-3.2,8.6c-0.3,0.9-0.6,1.6-0.8,2
		c-0.3,0.5-0.6,0.9-0.9,1c-0.3,0.1-0.8,0.3-1.2,0.3C83.5,124.2,83.2,124.2,82.9,124z"/>
</g>
<g class="st1">
	<path class="st4" d="M90.4,120.7v-1.6H92v1.6H90.4z"/>
	<path class="st4" d="M100.2,117.5l1.4,0.2c-0.1,1-0.6,1.8-1.2,2.3c-0.6,0.6-1.5,0.9-2.4,0.9c-1.2,0-2.1-0.5-2.9-1.2
		c-0.8-0.7-1.1-1.8-1.1-3.3c0-0.9,0.1-1.8,0.4-2.4c0.3-0.6,0.8-1.2,1.4-1.5s1.4-0.5,2.1-0.5c0.9,0,1.6,0.3,2.3,0.8s0.9,1.2,1.2,2
		l-1.4,0.1c-0.1-0.6-0.3-1-0.8-1.3c-0.3-0.3-0.8-0.5-1.2-0.5c-0.8,0-1.4,0.3-1.8,0.8s-0.8,1.3-0.8,2.5s0.1,2,0.6,2.5s1,0.8,1.6,0.8
		s1-0.2,1.4-0.5C99.7,118.9,100,118.3,100.2,117.5z"/>
	<path class="st4" d="M102.3,116.5c0-1.6,0.5-2.7,1.4-3.5c0.8-0.6,1.6-0.9,2.7-0.9c1.2,0,2.1,0.5,2.9,1.2s1,1.8,1,3.1
		c0,1-0.1,2-0.5,2.5c-0.3,0.6-0.8,1-1.5,1.5c-0.7,0.5-1.4,0.5-2.1,0.5c-1.2,0-2.1-0.5-2.9-1.2C102.5,119,102.3,117.9,102.3,116.5z
		 M103.8,116.5c0,1,0.3,2,0.8,2.4c0.5,0.6,1,0.8,1.8,0.8c0.8,0,1.4-0.3,1.8-0.8c0.5-0.6,0.8-1.4,0.8-2.5c0-1-0.3-1.8-0.8-2.4
		s-1-0.8-1.8-0.8c-0.8,0-1.4,0.3-1.8,0.8C103.9,114.5,103.8,115.3,103.8,116.5z"/>
	<path class="st4" d="M112,120.7v-8.5h1.4v1.2c0.3-0.5,0.6-0.8,1-1c0.5-0.3,0.9-0.5,1.5-0.5c0.6,0,1.2,0.2,1.5,0.5
		c0.3,0.3,0.8,0.6,0.9,1c0.8-1,1.5-1.5,2.7-1.5c0.9,0,1.5,0.3,2,0.8s0.8,1.2,0.8,2.1v5.8h-1.5v-5.4c0-0.6,0-1-0.1-1.2
		c-0.1-0.3-0.3-0.5-0.5-0.6c-0.3-0.1-0.6-0.3-0.9-0.3c-0.6,0-1,0.2-1.5,0.6s-0.6,1-0.6,2v5h-1.5v-5.5c0-0.6-0.1-1.2-0.3-1.5
		c-0.3-0.3-0.6-0.5-1.2-0.5c-0.5,0-0.8,0.1-1.2,0.3c-0.5,0.1-0.6,0.6-0.8,0.9c-0.2,0.3-0.3,1-0.3,1.8v4.5L112,120.7L112,120.7z"/>
	<path class="st4" d="M130.3,110.7V109h1.5v1.7H130.3z M130.3,120.7v-8.5h1.5v8.5H130.3z"/>
	<path class="st4" d="M133.3,118.2l1.5-0.3c0.1,0.6,0.3,1,0.6,1.3s0.9,0.5,1.5,0.5s1.2-0.1,1.5-0.5c0.3-0.3,0.5-0.6,0.5-0.9
		s-0.2-0.6-0.5-0.8c-0.1-0.2-0.8-0.3-1.5-0.5c-1-0.3-1.8-0.5-2.2-0.8c-0.5-0.2-0.8-0.5-0.9-0.8s-0.3-0.8-0.3-1.2s0.1-0.8,0.3-1
		c0.2-0.2,0.5-0.6,0.8-0.8c0.1-0.2,0.6-0.3,0.9-0.5c0.3-0.2,0.8-0.2,1.2-0.2c0.6,0,1.2,0.2,1.8,0.3c0.5,0.2,0.9,0.5,1.1,0.8
		c0.3,0.3,0.4,0.8,0.4,1.4l-1.3,0.1c0-0.5-0.3-0.8-0.6-1c-0.3-0.3-0.8-0.3-1.4-0.3s-1.2,0.2-1.4,0.3c-0.3,0.2-0.5,0.5-0.5,0.8
		c0,0.2,0,0.3,0.1,0.5s0.3,0.3,0.6,0.5c0.1,0,0.6,0.2,1.4,0.3c1,0.3,1.8,0.5,2.1,0.6c0.5,0.1,0.8,0.5,0.9,0.8s0.3,0.8,0.3,1.2
		s-0.2,0.9-0.5,1.4s-0.8,0.8-1.2,1s-1.2,0.3-1.8,0.3c-1,0-2-0.3-2.5-0.8C133.9,119.8,133.4,119,133.3,118.2z"/>
	<path class="st4" d="M146.6,120.7v-8.5h1.4v1.4c0.3-0.6,0.6-1,0.9-1.2c0.3-0.2,0.6-0.3,0.9-0.3c0.5,0,1,0.1,1.5,0.5l-0.5,1.3
		c-0.3-0.1-0.8-0.3-1-0.3s-0.6,0.2-0.9,0.3c-0.3,0.2-0.4,0.5-0.6,0.8c-0.2,0.5-0.3,1-0.3,1.7v4.5C148,120.7,146.6,120.7,146.6,120.7
		z"/>
	<path class="st4" d="M157.8,119.7c-0.6,0.5-1,0.8-1.5,0.9c-0.5,0.2-1,0.3-1.6,0.3c-0.9,0-1.7-0.3-2.1-0.8c-0.4-0.5-0.8-1-0.8-1.8
		c0-0.5,0.1-0.8,0.3-1.2c0.2-0.3,0.5-0.6,0.8-0.9c0.3-0.2,0.6-0.3,1-0.5c0.3,0,0.8-0.2,1.4-0.2c1.2-0.1,2.1-0.3,2.5-0.5
		c0-0.1,0-0.3,0-0.5c0-0.6-0.1-1-0.4-1.2c-0.3-0.3-0.9-0.5-1.7-0.5c-0.8,0-1.2,0.2-1.5,0.3c-0.3,0.2-0.6,0.6-0.8,1.2l-1.4,0.1
		c0.1-0.6,0.3-1,0.6-1.5c0.3-0.3,0.8-0.6,1.3-0.9c0.6-0.1,1.2-0.3,2-0.3c0.8,0,1.3,0.2,1.8,0.3c0.5,0.2,0.8,0.5,1.1,0.6
		c0.1,0.3,0.3,0.6,0.4,1c0,0.3,0,0.8,0,1.3v2c0,1.4,0,2.3,0.2,2.5c0.2,0.2,0.2,0.8,0.3,1h-1.5C157.9,120.4,157.8,120.1,157.8,119.7z
		 M157.6,116.5c-0.6,0.2-1.4,0.5-2.4,0.6c-0.6,0.1-1.1,0.1-1.2,0.3c-0.3,0.1-0.4,0.3-0.6,0.5c-0.2,0.2-0.2,0.5-0.2,0.8
		c0,0.5,0.2,0.8,0.5,0.9c0.3,0.2,0.8,0.5,1.3,0.5s1-0.1,1.5-0.3c0.5-0.3,0.8-0.6,0.9-1c0.1-0.3,0.3-0.8,0.3-1.5L157.6,116.5
		L157.6,116.5z"/>
	<path class="st4" d="M164.5,119.5l0.1,1.4c-0.4,0.1-0.8,0.1-1,0.1c-0.6,0-0.9-0.1-1.2-0.3c-0.3-0.1-0.4-0.5-0.6-0.6
		c-0.2-0.2-0.2-0.9-0.2-1.7v-5h-1v-1.2h1v-2.1l1.5-0.9v3h1.5v1.2h-1.5v5c0,0.5,0,0.8,0.2,0.8c0,0.2,0.2,0.2,0.3,0.3
		c0.1,0,0.3,0.2,0.5,0.2C164,119.5,164.2,119.5,164.5,119.5z"/>
	<path class="st4" d="M171.7,118l1.5,0.2c-0.3,0.9-0.6,1.5-1.4,2.1c-0.6,0.5-1.5,0.8-2.4,0.8c-1.2,0-2.3-0.5-3-1.2s-1.1-1.8-1.1-3.3
		s0.3-2.5,1.1-3.3s1.6-1.2,2.8-1.2s2.1,0.5,2.8,1.2s1.1,1.8,1.1,3.3c0,0.2,0,0.2,0,0.5h-6.3c0,0.9,0.3,1.7,0.8,2.1
		c0.5,0.5,1.1,0.8,1.8,0.8c0.6,0,1-0.2,1.3-0.5C171.3,119,171.5,118.6,171.7,118z M167,115.6h4.8c0-0.8-0.3-1.2-0.6-1.7
		c-0.4-0.6-1-0.9-1.8-0.9c-0.6,0-1.2,0.1-1.7,0.6C167.3,114.2,167,114.9,167,115.6z"/>
	<path class="st4" d="M180.5,120.7v-1c-0.6,0.9-1.3,1.2-2.4,1.2c-0.8,0-1.3-0.1-1.9-0.6c-0.6-0.3-1.1-0.9-1.4-1.5
		c-0.3-0.6-0.5-1.5-0.5-2.3c0-0.9,0.2-1.7,0.5-2.3c0.3-0.8,0.8-1.2,1.4-1.7c0.6-0.3,1.2-0.6,1.9-0.6c0.5,0,0.9,0.1,1.4,0.3
		c0.5,0.1,0.8,0.5,1,0.9v-4.2h1.5v11.9L180.5,120.7L180.5,120.7z M176,116.5c0,1,0.3,2,0.8,2.4c0.5,0.6,1,0.8,1.7,0.8
		c0.6,0,1.2-0.3,1.6-0.8c0.5-0.5,0.6-1.4,0.6-2.4c0-1.2-0.2-2.1-0.8-2.5s-1.1-0.8-1.7-0.8s-1.2,0.3-1.7,0.8
		C176.2,114.5,176,115.3,176,116.5z"/>
	<path class="st4" d="M289,116.5c0-1.6,0.4-2.7,1.3-3.5c0.8-0.6,1.7-0.9,2.7-0.9c1.2,0,2.1,0.5,2.8,1.2c0.7,0.7,1.1,1.8,1.1,3.1
		c0,1-0.2,2-0.4,2.5c-0.3,0.6-0.8,1-1.5,1.5c-0.7,0.5-1.4,0.5-2.1,0.5c-1.2,0-2.1-0.5-2.8-1.2S289,117.9,289,116.5z M290.5,116.5
		c0,1,0.3,2,0.8,2.4c0.4,0.6,1.1,0.8,1.8,0.8s1.3-0.3,1.8-0.8c0.5-0.6,0.8-1.4,0.8-2.5c0-1-0.3-1.8-0.8-2.4s-1-0.8-1.8-0.8
		s-1.4,0.3-1.8,0.8C290.6,114.5,290.5,115.3,290.5,116.5z"/>
	<path class="st4" d="M298.6,120.7v-8.5h1.3v1.2c0.6-0.9,1.5-1.3,2.7-1.3c0.5,0,1.1,0.1,1.4,0.3c0.4,0.1,0.8,0.5,0.9,0.8
		c0.2,0.3,0.3,0.6,0.5,1c0,0.3,0.2,0.8,0.2,1.3v5.3h-1.5v-5.3c0-0.6,0-1-0.2-1.3c-0.2-0.3-0.3-0.5-0.6-0.8c-0.3-0.3-0.6-0.3-1.1-0.3
		c-0.6,0-1.2,0.1-1.6,0.6c-0.5,0.5-0.6,1.2-0.6,2.3v4.7L298.6,120.7L298.6,120.7z"/>
	<path class="st4" d="M312.6,120.7v-11.8h4.3c0.9,0,1.7,0.1,2.1,0.3c0.6,0.3,0.9,0.6,1.3,1c0.3,0.5,0.5,1,0.5,1.5s-0.2,1-0.5,1.3
		c-0.3,0.3-0.8,0.8-1.2,1c0.8,0.2,1.2,0.6,1.7,1s0.6,1,0.6,1.8c0,0.6-0.2,1-0.3,1.5s-0.4,0.9-0.9,1c-0.3,0.3-0.8,0.5-1.4,0.6
		c-0.4,0.1-1.2,0.1-1.9,0.1h-4.3L312.6,120.7L312.6,120.7z M314.1,114h2.5c0.8,0,1.2,0,1.5-0.1c0.5-0.2,0.8-0.3,0.9-0.6
		c0.2-0.3,0.3-0.6,0.3-1c0-0.5-0.2-0.8-0.3-1c-0.1-0.2-0.4-0.5-0.8-0.6c-0.3-0.2-0.9-0.2-1.8-0.2H314L314.1,114
		C314,114,314.1,114,314.1,114z M314.1,119.4h3c0.4,0,0.9,0,1,0c0.3,0,0.6-0.2,0.9-0.3c0.3-0.2,0.4-0.3,0.6-0.6
		c0.1-0.3,0.3-0.6,0.3-1c0-0.5-0.1-0.8-0.3-1.2c-0.3-0.3-0.6-0.6-0.9-0.8c-0.3-0.1-0.9-0.1-1.8-0.1h-2.8V119.4z"/>
	<path class="st4" d="M323.3,110.7V109h1.5v1.7H323.3z M323.3,120.7v-8.5h1.5v8.5H323.3z"/>
	<path class="st4" d="M327,120.7v-8.5h1.4v1.2c0.6-0.9,1.5-1.3,2.7-1.3c0.5,0,1.1,0.1,1.4,0.3c0.5,0.1,0.8,0.5,0.9,0.8
		c0.2,0.3,0.3,0.6,0.5,1c0,0.3,0.2,0.8,0.2,1.3v5.3h-1.5v-5.3c0-0.6,0-1-0.2-1.3c-0.1-0.3-0.3-0.5-0.6-0.8c-0.3-0.3-0.6-0.3-1-0.3
		c-0.6,0-1.2,0.1-1.7,0.6s-0.6,1.2-0.6,2.3v4.7L327,120.7L327,120.7z"/>
	<path class="st4" d="M336,121.5l1.4,0.2c0,0.5,0.1,0.8,0.4,0.9c0.3,0.3,0.9,0.5,1.5,0.5c0.6,0,1.2-0.1,1.5-0.5
		c0.3-0.3,0.6-0.6,0.8-1.2c0-0.3,0.2-0.9,0.2-1.8c-0.6,0.8-1.3,1-2.4,1c-1.2,0-2.1-0.5-2.7-1.2c-0.6-0.9-0.9-1.8-0.9-3
		c0-0.8,0.2-1.5,0.5-2.3s0.8-1.2,1.4-1.6c0.6-0.3,1.2-0.6,1.9-0.6c1.1,0,1.8,0.5,2.6,1.2v-1h1.3v7.3c0,1.3-0.2,2.3-0.5,2.8
		c-0.3,0.6-0.8,1-1.3,1.4c-0.6,0.3-1.4,0.5-2.1,0.5c-1,0-1.8-0.3-2.4-0.8C336.2,123.1,336,122.4,336,121.5z M337.1,116.4
		c0,1,0.2,2,0.6,2.4c0.4,0.4,1,0.8,1.6,0.8c0.6,0,1.2-0.3,1.7-0.8c0.4-0.5,0.8-1.3,0.8-2.4s-0.3-1.8-0.8-2.4s-1.1-0.8-1.7-0.8
		c-0.6,0-1.2,0.3-1.6,0.8C337.3,114.5,337.1,115.3,337.1,116.4z"/>
	<path class="st4" d="M352.7,124.2c-0.8-1-1.5-2.3-2.1-3.6c-0.6-1.3-0.9-2.7-0.9-4.2c0-1.3,0.2-2.5,0.6-3.6c0.5-1.4,1.2-2.7,2.3-4h1
		c-0.6,1-1,2-1.3,2.4c-0.3,0.8-0.6,1.5-0.8,2.3c-0.3,1-0.3,2-0.3,3c0,2.5,0.8,5.1,2.4,7.8C353.6,124.2,352.7,124.2,352.7,124.2z"/>
</g>
<g class="st1">
	<path class="st5" d="M355.1,118l1.4-0.1c0.1,0.6,0.3,1.2,0.8,1.3c0.3,0.3,0.8,0.5,1.3,0.5s0.9-0.1,1.2-0.3c0.3-0.1,0.6-0.5,0.8-0.8
		c0.2-0.3,0.5-0.8,0.6-1.3c0.2-0.6,0.2-1.2,0.2-1.8c0,0,0-0.2,0-0.3c-0.3,0.5-0.8,0.9-1.2,1c-0.5,0.1-1,0.5-1.6,0.5
		c-1.1,0-1.8-0.3-2.6-1c-0.8-0.7-1-1.7-1-2.9s0.3-2.1,1-2.8s1.7-1,2.7-1c0.8,0,1.5,0.1,2.1,0.6c0.6,0.5,1,1,1.5,1.8
		c0.3,0.8,0.4,1.8,0.4,3.3s-0.1,2.7-0.4,3.6s-0.8,1.5-1.5,2.1c-0.6,0.5-1.4,0.8-2.3,0.8c-0.9,0-1.7-0.3-2.3-0.8
		C355.6,119.8,355.3,118.9,355.1,118z M361.1,112.7c0-0.9-0.1-1.5-0.6-2s-0.9-0.8-1.7-0.8c-0.6,0-1.2,0.3-1.6,0.8
		c-0.4,0.5-0.8,1.2-0.8,2.1c0,0.8,0.3,1.3,0.8,1.8c0.5,0.4,1,0.8,1.6,0.8c0.6,0,1.2-0.3,1.7-0.8
		C360.8,114.2,361.1,113.7,361.1,112.7z"/>
	<path class="st5" d="M366.4,114.4c-0.6-0.2-1-0.6-1.3-0.9c-0.3-0.5-0.5-0.9-0.5-1.5c0-0.9,0.3-1.6,0.9-2.1c0.6-0.5,1.5-0.9,2.4-0.9
		c1,0,1.8,0.3,2.5,0.9c0.8,0.6,0.9,1.3,0.9,2.3c0,0.6-0.2,1-0.5,1.5s-0.8,0.8-1.3,0.9c0.8,0.3,1.2,0.6,1.6,1.2
		c0.5,0.6,0.6,1.2,0.6,2c0,1-0.3,1.8-1.1,2.5c-0.8,0.7-1.6,1-2.8,1c-1.2,0-2.1-0.3-2.9-1s-1-1.5-1-2.5c0-0.8,0.2-1.3,0.6-2
		C365.1,114.9,365.6,114.5,366.4,114.4z M365.6,117.4c0,0.5,0.2,0.8,0.3,1.2s0.4,0.8,0.9,0.9c0.5,0.2,0.8,0.3,1.2,0.3
		c0.8,0,1.2-0.1,1.6-0.6c0.4-0.5,0.8-1,0.8-1.7c0-0.8-0.3-1.2-0.8-1.8c-0.5-0.5-1-0.8-1.8-0.8s-1.2,0.2-1.7,0.8
		C365.8,116,365.6,116.7,365.6,117.4z M366.1,111.9c0,0.6,0.1,1,0.6,1.3c0.3,0.3,0.9,0.6,1.3,0.6c0.6,0,1-0.2,1.3-0.6
		c0.3-0.3,0.6-0.8,0.6-1.3c0-0.6-0.1-1-0.6-1.4c-0.3-0.3-0.8-0.6-1.3-0.6s-1,0.1-1.3,0.6C366.2,111,366.1,111.4,366.1,111.9z"/>
	<path class="st5" d="M378.2,120.7v-8.5h1.4v1.4c0.3-0.6,0.6-1,0.9-1.2s0.6-0.3,0.9-0.3c0.5,0,1,0.1,1.5,0.5l-0.5,1.3
		c-0.3-0.1-0.8-0.3-1-0.3s-0.6,0.2-0.9,0.3c-0.3,0.2-0.4,0.5-0.6,0.8c-0.2,0.5-0.3,1-0.3,1.7v4.5
		C379.6,120.7,378.2,120.7,378.2,120.7z"/>
	<path class="st5" d="M389.6,118l1.5,0.2c-0.3,0.9-0.6,1.5-1.3,2.1c-0.6,0.5-1.5,0.8-2.4,0.8c-1.2,0-2.3-0.5-3-1.2s-1.1-1.8-1.1-3.3
		s0.3-2.5,1.1-3.3c0.8-0.8,1.7-1.2,2.9-1.2c1.2,0,2.1,0.5,2.8,1.2c0.7,0.7,1.1,1.8,1.1,3.3c0,0.2,0,0.2,0,0.5h-6.3
		c0,0.9,0.3,1.7,0.8,2.1s1.1,0.8,1.8,0.8c0.6,0,1.1-0.2,1.4-0.5C389.1,119,389.4,118.6,389.6,118z M384.9,115.6h4.8
		c0-0.8-0.3-1.2-0.6-1.7c-0.4-0.6-1.1-0.9-1.8-0.9c-0.6,0-1.2,0.1-1.6,0.6C385.1,114.1,384.9,114.9,384.9,115.6z"/>
	<path class="st5" d="M395.4,120.7l-3.3-8.5h1.5l1.8,5.1c0.1,0.6,0.4,1.2,0.6,1.6c0.2-0.5,0.3-1,0.6-1.6l1.9-5.3h1.5l-3.3,8.5
		L395.4,120.7L395.4,120.7z"/>
	<path class="st5" d="M401.2,110.7V109h1.5v1.7H401.2z M401.2,120.7v-8.5h1.5v8.5H401.2z"/>
	<path class="st5" d="M410.6,118l1.5,0.2c-0.3,0.9-0.6,1.5-1.3,2.1c-0.6,0.5-1.5,0.8-2.4,0.8c-1.2,0-2.3-0.5-3-1.2s-1.1-1.8-1.1-3.3
		s0.3-2.5,1.1-3.3c0.8-0.8,1.7-1.2,2.9-1.2c1.2,0,2.1,0.5,2.8,1.2c0.7,0.7,1.1,1.8,1.1,3.3c0,0.2,0,0.2,0,0.5h-6.3
		c0,0.9,0.3,1.7,0.8,2.1s1.1,0.8,1.8,0.8c0.6,0,1.1-0.2,1.4-0.5C410.2,119,410.5,118.6,410.6,118z M405.9,115.6h4.8
		c0-0.8-0.3-1.2-0.6-1.7c-0.4-0.6-1.1-0.9-1.8-0.9c-0.6,0-1.2,0.1-1.6,0.6C406.1,114.1,406,114.9,405.9,115.6z"/>
	<path class="st5" d="M415.6,120.7l-2.6-8.5h1.5l1.3,5l0.4,1.8c0-0.1,0.2-0.8,0.4-1.8l1.4-5h1.5l1.3,5l0.4,1.7l0.4-1.7l1.5-5h1.4
		l-2.7,8.5h-1.5l-1.4-5.1l-0.3-1.5l-1.8,6.6H415.6z"/>
	<path class="st5" d="M425.4,118.2l1.5-0.3c0.1,0.6,0.3,1,0.6,1.3s0.9,0.5,1.5,0.5c0.6,0,1.2-0.1,1.5-0.5c0.3-0.3,0.4-0.6,0.4-0.9
		s-0.1-0.6-0.4-0.8c-0.1-0.2-0.8-0.3-1.5-0.5c-1.1-0.3-1.8-0.5-2.3-0.8c-0.4-0.2-0.8-0.5-0.9-0.8c-0.2-0.3-0.3-0.8-0.3-1.2
		s0.1-0.8,0.3-1c0.1-0.3,0.4-0.6,0.8-0.8c0.3-0.2,0.6-0.3,0.9-0.5c0.4-0.2,0.8-0.2,1.2-0.2c0.6,0,1.2,0.2,1.8,0.3
		c0.4,0.2,0.9,0.5,1.1,0.8c0.3,0.3,0.4,0.8,0.4,1.4l-1.3,0.1c0-0.5-0.3-0.8-0.6-1c-0.3-0.3-0.8-0.3-1.3-0.3c-0.6,0-1.2,0.2-1.4,0.3
		c-0.3,0.2-0.4,0.5-0.4,0.8c0,0.2,0,0.3,0.2,0.5c0.1,0.2,0.3,0.3,0.6,0.5c0.2,0,0.6,0.2,1.4,0.3c1.1,0.3,1.8,0.5,2.1,0.6
		c0.4,0.1,0.8,0.5,0.9,0.8c0.3,0.3,0.3,0.8,0.3,1.2s-0.2,0.9-0.4,1.3c-0.3,0.5-0.8,0.8-1.2,1c-0.6,0.3-1.2,0.3-1.8,0.3
		c-1.1,0-1.9-0.3-2.6-0.8C425.8,119.8,425.5,119,425.4,118.2z"/>
</g>
<g class="st1">
	<path class="st4" d="M435.1,124.2H434c1.6-2.5,2.4-5.1,2.4-7.8c0-1-0.1-2-0.3-3c-0.1-0.8-0.4-1.7-0.8-2.3c-0.1-0.5-0.6-1.4-1.3-2.4
		h1.1c1.1,1.4,1.8,2.7,2.3,4c0.4,1.2,0.6,2.4,0.6,3.6c0,1.5-0.3,2.8-0.9,4.2C436.5,122,435.9,123.2,435.1,124.2z"/>
</g>
<polygon class="st6" points="202.9,108.9 204.7,113.7 209.8,114 205.9,117.1 207.3,122.2 202.9,119.4 198.5,122.2 199.9,117.1 
	195.8,114 201,113.7 "/>
<polygon class="st6" points="219.6,108.9 221.5,113.7 226.6,114 222.6,117.1 223.9,122.2 219.6,119.4 215.2,122.2 216.6,117.1 
	212.6,114 217.8,113.7 "/>
<polygon class="st6" points="236.8,108.9 238.8,113.7 243.8,114 239.8,117.1 241.1,122.2 236.8,119.4 232.5,122.2 233.8,117.1 
	229.9,114 235,113.7 "/>
<polygon class="st6" points="253.3,108.9 255.1,113.7 260.3,114 256.3,117.1 257.6,122.2 253.3,119.4 249,122.2 250.3,117.1 
	246.3,114 251.5,113.7 "/>
<polygon class="st7" points="269.8,108.9 271.6,113.7 276.7,114 272.8,117.1 274.1,122.2 269.8,119.4 265.5,122.2 266.8,117.1 
	262.8,114 267.8,113.7 "/>
<rect x="2" y="77.9" class="st8" width="327" height="24"/>
<path class="st9" d="M9.8,26.1c-8.5,15.7,19,13.8,10,0H9.8z M10.7,27.1h8.1C26,38.2,4,39.7,10.7,27.1L10.7,27.1z"/>
<path class="st9" d="M14,36.6v4.8c-1.5,0.2-3,0.9-4,1.9c3.1,0.2,6.3,0.2,9.5,0.2c-1-1.2-2.5-1.8-4.2-1.9v-4.9
	C14.8,36.6,14.5,36.6,14,36.6z"/>
<polygon class="st9" points="8,29.9 21.2,29.9 21.1,32.8 19.1,35.3 16.3,36.4 13.3,36.8 11,35.9 9.2,34.6 8,32.7 "/>
</svg>
