<?xml version="1.0" encoding="utf-8"?>
<!-- Generator: Adobe Illustrator 22.1.0, SVG Export Plug-In . SVG Version: 6.00 Build 0)  -->
<svg version="1.1" id="Layer_1" xmlns="http://www.w3.org/2000/svg" xmlns:xlink="http://www.w3.org/1999/xlink" x="0px" y="0px"
	 width="444px" height="133.5px" viewBox="0 0 444 133.5" style="enable-background:new 0 0 444 133.5;" xml:space="preserve">
<style type="text/css">
	.st0{fill:none;stroke:#008272;stroke-width:4;stroke-miterlimit:10;}
	.st1{fill:#0012FF;}
	.st2{enable-background:new    ;}
	.st3{fill:#009245;}
	.st4{fill:#999999;}
	.st5{fill:#737373;}
	.st6{fill:#0000FF;}
	.st7{fill:#FF8C00;}
	.st8{fill:#D2D2D2;}
	.st9{fill:#666666;}
</style>
<title>Asset 7</title>
<rect x="2" y="103.5" class="st0" width="391.5" height="28"/>
<g>
	<path class="st1" d="M24.9,9.7l1.9,0.5c-0.4,1.7-1.2,2.8-2.3,3.6c-1.1,0.8-2.4,1.2-3.9,1.2c-1.7,0-2.8-0.3-3.9-0.9
		c-1-0.6-1.8-1.7-2.3-2.8c-0.4-1-0.7-2.4-0.7-3.8c0-1.5,0.3-2.9,0.9-4c0.6-1.2,1.3-2,2.5-2.6S19.4,0,20.7,0c1.5,0,2.7,0.3,3.8,1.2
		s1.7,1.8,2.1,3.1l-1.9,0.4c-0.3-1.1-0.9-1.8-1.5-2.4c-0.6-0.4-1.5-0.8-2.4-0.8c-1.2,0-2.1,0.3-2.8,0.8c-0.8,0.6-1.3,1.2-1.7,2.3
		c-0.3,0.9-0.5,1.8-0.5,2.9c0,1.2,0.2,2.4,0.6,3.3c0.3,0.9,0.9,1.7,1.7,2.1c0.8,0.5,1.7,0.8,2.5,0.8c1,0,2-0.3,2.7-0.9
		C24.1,12,24.5,11.1,24.9,9.7z"/>
	<path class="st1" d="M28.3,9.6c0-1.9,0.6-3.4,1.7-4.4C30.9,4.4,32.1,4,33.3,4c1.5,0,2.7,0.4,3.6,1.5c0.9,0.9,1.3,2.3,1.3,4.1
		c0,1.3-0.2,2.4-0.6,3.3c-0.5,0.8-1.1,1.3-1.8,1.8s-1.7,0.6-2.6,0.6c-1.5,0-2.7-0.5-3.6-1.5S28.3,11.4,28.3,9.6z M30.2,9.6
		c0,1.3,0.3,2.4,0.9,3s1.3,1,2.3,1s1.7-0.3,2.3-1c0.6-0.6,0.9-1.7,0.9-3s-0.3-2.3-0.9-3s-1.3-1-2.3-1s-1.7,0.3-2.3,1
		S30.2,8.2,30.2,9.6z"/>
	<path class="st1" d="M40.4,15V0.3h1.8v5.3c0.9-1.1,2-1.5,3.2-1.5c0.8,0,1.5,0.2,2.1,0.5c0.6,0.3,1,0.8,1.2,1.3
		c0.3,0.6,0.4,1.4,0.4,2.4V15h-1.8V8.3c0-0.9-0.1-1.5-0.6-1.9c-0.5-0.5-0.9-0.6-1.7-0.6c-0.6,0-1.1,0.1-1.5,0.4
		c-0.4,0.3-0.9,0.6-1,1.1c-0.1,0.5-0.3,1.2-0.3,1.9V15C42.2,15,40.4,15,40.4,15z"/>
	<path class="st1" d="M51.2,9.6c0-1.9,0.6-3.4,1.6-4.4C53.7,4.4,54.9,4,56.1,4c1.5,0,2.7,0.4,3.6,1.5c0.9,0.9,1.4,2.3,1.4,4.1
		c0,1.3-0.1,2.4-0.6,3.3c-0.4,0.8-1.1,1.3-1.8,1.8c-0.7,0.5-1.6,0.6-2.6,0.6c-1.5,0-2.7-0.5-3.6-1.5C51.7,12.7,51.2,11.4,51.2,9.6z
		 M53,9.6c0,1.3,0.3,2.4,0.9,3c0.6,0.6,1.4,1,2.3,1c0.9,0,1.6-0.3,2.3-1s0.9-1.8,0.9-3.1s-0.3-2.3-0.9-3c-0.6-0.8-1.4-1.1-2.3-1.1
		c-0.9,0-1.6,0.3-2.3,1C53.2,7.1,53,8.2,53,9.6z"/>
	<path class="st1" d="M71.8,15L67.9,0.3h1.9l2.3,9.6c0.3,1,0.4,1.9,0.6,3c0.4-1.5,0.6-2.5,0.6-2.7l3-9.9h2.4l2.1,7.5
		c0.6,1.8,0.9,3.6,1.2,5.2c0.2-0.9,0.5-1.9,0.8-3.1L85,0.3h1.9l-4,14.7h-2L77.8,3.7c-0.3-0.9-0.4-1.5-0.4-1.8
		c-0.2,0.7-0.3,1.3-0.3,1.8L73.9,15H71.8z"/>
	<path class="st1" d="M88.4,2.2v-2h1.8v2.1h-1.8V2.2z M88.4,15V4.3h1.8v10.6C90.2,15,88.4,15,88.4,15z"/>
	<path class="st1" d="M93.1,15V4.3h1.6v1.5C95.5,4.6,96.5,4,98,4c0.6,0,1.2,0.2,1.8,0.3c0.6,0.3,0.9,0.6,1.2,0.9
		c0.3,0.3,0.5,0.8,0.6,1.4c0,0.3,0.1,0.9,0.1,1.8V15h-1.8V8.6c0-0.8,0-1.4-0.1-1.7S99.3,6.3,99,6c-0.3-0.1-0.8-0.3-1.2-0.3
		c-0.8,0-1.5,0.3-2,0.8c-0.6,0.4-0.9,1.3-0.9,2.8v5.8L93.1,15L93.1,15z"/>
	<path class="st1" d="M111.8,11.5l1.8,0.3c-0.3,1-0.9,2-1.6,2.5s-1.8,0.9-3,0.9c-1.5,0-2.9-0.5-3.8-1.5c-0.9-0.9-1.4-2.2-1.4-4
		s0.5-3.1,1.4-4.2s2.1-1.5,3.6-1.5s2.5,0.5,3.5,1.5c0.9,0.9,1.4,2.4,1.4,4c0,0.2,0,0.3,0,0.5h-8c0,1.2,0.5,2.1,1,2.7
		c0.6,0.6,1.4,0.9,2.3,0.9c0.6,0,1.2-0.2,1.6-0.5C111.1,12.9,111.5,12.3,111.8,11.5z M105.8,8.5h6c-0.1-0.9-0.3-1.5-0.8-2
		c-0.6-0.8-1.4-1-2.3-1s-1.5,0.3-2.1,0.9C106.3,6.9,106,7.6,105.8,8.5z"/>
	<path class="st1" d="M115.9,15V4.3h1.6v1.6c0.5-0.8,0.8-1.2,1.2-1.5c0.3-0.3,0.8-0.3,1.2-0.3c0.6,0,1.2,0.1,1.8,0.6l-0.6,1.5
		c-0.5-0.3-0.9-0.5-1.4-0.5s-0.8,0.2-1,0.3c-0.3,0.3-0.6,0.6-0.6,1.1c-0.1,0.6-0.3,1.4-0.3,2.1v5.5h-2C115.9,14.8,115.9,15,115.9,15
		z"/>
	<path class="st1" d="M122.7,19l-0.1-1.7c0.5,0.2,0.8,0.2,1,0.2c0.5,0,0.8,0,0.9-0.2c0.2-0.1,0.4-0.2,0.5-0.5
		c0.1-0.2,0.3-0.6,0.6-1.3c0-0.2,0.1-0.3,0.1-0.5l-4-10.6h2l2.3,6.1c0.3,0.7,0.6,1.6,0.7,2.4c0.1-0.9,0.5-1.7,0.8-2.4l2.3-6.1h1.8
		l-4.1,10.7c-0.5,1.2-0.8,2-1,2.4c-0.3,0.6-0.8,1-1,1.3c-0.5,0.3-0.9,0.5-1.5,0.5C123.5,19.3,123.1,19.2,122.7,19z"/>
	<path class="st1" d="M138.1,10.5V8.7h5.5v1.8H138.1z"/>
	<path class="st1" d="M12.8,17.8v-1.5h131.6v1.5H12.8z"/>
</g>
<g class="st2">
	<path class="st1" d="M144.4,17.8v-1.5h4.5v1.5H144.4z"/>
</g>
<g class="st2">
	<path class="st1" d="M148.9,15l5.7-14.7h2.1l6,14.7h-2.3l-1.7-4.5h-6l-1.6,4.5C151.1,15,148.9,15,148.9,15z M153.1,8.8h5l-1.5-4
		c-0.5-1.2-0.8-2.3-1-3c-0.1,0.9-0.5,2-0.8,2.9L153.1,8.8z"/>
	<path class="st1" d="M163.9,15V0.3h1.8V15C165.7,15,163.9,15,163.9,15z"/>
	<path class="st1" d="M168.5,15V0.3h1.8V15C170.3,15,168.5,15,168.5,15z"/>
	<path class="st1" d="M178.9,15V4.3h1.7v1.6c0.5-0.8,0.8-1.2,1.2-1.5c0.3-0.3,0.8-0.3,1.2-0.3c0.6,0,1.2,0.1,1.8,0.6L184,6.2
		c-0.5-0.3-0.9-0.5-1.4-0.5c-0.4,0-0.8,0.1-1,0.3c-0.3,0.3-0.6,0.6-0.6,1c-0.1,0.6-0.3,1.4-0.3,2.1v5.6h-1.8
		C178.9,14.8,178.9,15,178.9,15z"/>
	<path class="st1" d="M193,11.5l1.8,0.3c-0.3,1-0.9,2-1.7,2.5s-1.8,0.9-3,0.9c-1.5,0-2.8-0.5-3.8-1.5c-0.9-0.9-1.3-2.2-1.3-4
		s0.4-3.1,1.3-4.2s2.1-1.5,3.6-1.5s2.6,0.5,3.4,1.5c0.9,0.9,1.3,2.4,1.3,4c0,0.2,0,0.3,0,0.5h-8c0,1.2,0.5,2.1,1,2.7
		c0.6,0.6,1.4,0.9,2.3,0.9c0.6,0,1.2-0.2,1.7-0.5C192.4,12.9,192.7,12.3,193,11.5z M187.1,8.5h6c-0.2-0.9-0.3-1.5-0.8-2
		c-0.6-0.8-1.3-1-2.3-1s-1.5,0.3-2.1,0.9C187.5,6.9,187.1,7.6,187.1,8.5z"/>
	<path class="st1" d="M204.1,15v-1.3c-0.8,1-1.7,1.7-3,1.7c-0.9,0-1.7-0.3-2.4-0.8c-0.7-0.5-1.2-1-1.7-2s-0.6-1.8-0.6-2.8
		s0.2-2.1,0.6-2.9c0.3-0.9,0.9-1.5,1.7-1.9c0.8-0.4,1.5-0.8,2.4-0.8c0.6,0,1.2,0.1,1.7,0.5c0.4,0.3,0.9,0.6,1.2,1V0.3h1.8V15
		C205.8,15,204.1,15,204.1,15z M198.4,9.6c0,1.3,0.3,2.4,0.9,3c0.6,0.8,1.2,1,2.1,1c0.7,0,1.5-0.3,2-0.9c0.6-0.6,0.9-1.7,0.9-3
		c0-1.5-0.3-2.6-0.9-3.2c-0.6-0.8-1.2-1-2.1-1c-0.8,0-1.5,0.3-2,1C198.7,7.2,198.4,8.2,198.4,9.6z"/>
	<path class="st1" d="M216.3,15L213,4.4h1.8l1.7,6.1l0.6,2.3c0-0.2,0.2-0.9,0.6-2.3l1.7-6.3h1.8l1.6,6.2l0.6,2.1l0.6-2.1l1.8-6.2
		h1.8l-3.3,10.6h-1.9l-1.7-6.5l-0.4-1.8l-2.1,8.3L216.3,15L216.3,15z"/>
	<path class="st1" d="M229.1,2.2v-2h1.8v2.1h-1.8V2.2z M229.1,15V4.3h1.8v10.6C231,15,229.1,15,229.1,15z"/>
	<path class="st1" d="M233.8,15V4.3h1.6v1.5c0.8-1.2,2-1.8,3.5-1.8c0.6,0,1.2,0.2,1.8,0.3c0.6,0.3,0.9,0.6,1.2,0.9
		c0.3,0.3,0.5,0.8,0.6,1.4c0,0.3,0.2,0.9,0.2,1.8V15h-1.8V8.6c0-0.8,0-1.4-0.2-1.7c-0.1-0.3-0.4-0.6-0.8-0.9
		c-0.3-0.1-0.8-0.3-1.2-0.3c-0.8,0-1.5,0.3-1.9,0.8c-0.5,0.4-0.9,1.3-0.9,2.8v5.8L233.8,15L233.8,15z"/>
	<path class="st1" d="M252.6,11.5l1.8,0.3c-0.3,1-0.9,2-1.7,2.5s-1.8,0.9-3,0.9c-1.5,0-2.8-0.5-3.8-1.5c-0.9-0.9-1.3-2.2-1.3-4
		s0.5-3.1,1.3-4.2c0.9-1.1,2.1-1.5,3.6-1.5s2.5,0.5,3.5,1.5c0.9,1,1.3,2.4,1.3,4c0,0.2,0,0.3,0,0.5h-7.8c0,1.2,0.4,2.1,1,2.7
		s1.3,0.9,2.3,0.9c0.6,0,1.2-0.2,1.7-0.5C252,12.9,252.3,12.3,252.6,11.5z M246.6,8.5h6c-0.2-0.9-0.3-1.5-0.8-2
		c-0.6-0.8-1.4-1-2.3-1c-0.9,0-1.5,0.3-2.1,0.9C247,6.9,246.7,7.6,246.6,8.5z"/>
	<path class="st1" d="M256,11.8l1.8-0.3c0.1,0.7,0.4,1.2,0.9,1.7s1.1,0.6,2,0.6c0.9,0,1.5-0.2,1.8-0.5c0.5-0.3,0.6-0.8,0.6-1.2
		c0-0.4-0.2-0.7-0.6-0.9c-0.3-0.2-0.9-0.3-1.8-0.6c-1.3-0.3-2.3-0.6-2.7-0.9c-0.4-0.3-0.9-0.6-1.2-1.1c-0.3-0.5-0.4-0.9-0.4-1.5
		c0-0.4,0.1-0.9,0.3-1.4c0.2-0.4,0.5-0.8,0.9-1c0.3-0.1,0.6-0.5,1.2-0.6c0.5-0.1,1.1-0.1,1.5-0.1c0.9,0,1.5,0.1,2.3,0.3
		s1.1,0.6,1.4,1.1c0.3,0.4,0.4,0.9,0.6,1.6l-1.8,0.3c-0.2-0.6-0.3-1.1-0.8-1.4s-0.9-0.5-1.7-0.5c-0.9,0-1.3,0.2-1.8,0.5
		c-0.3,0.3-0.6,0.6-0.6,0.9c0,0.3,0,0.5,0.1,0.6c0.2,0.1,0.5,0.3,0.8,0.4c0.2,0,0.8,0.2,1.7,0.5c1.3,0.3,2.1,0.6,2.7,0.9
		c0.6,0.3,0.9,0.6,1.2,0.9c0.3,0.5,0.5,0.9,0.5,1.5s-0.2,1.2-0.6,1.7c-0.3,0.6-0.9,0.9-1.5,1.2s-1.3,0.5-2.3,0.5
		c-1.3,0-2.4-0.3-3.2-0.9C256.6,13.8,256.1,12.9,256,11.8z"/>
	<path class="st1" d="M272.1,9.6c0-1.9,0.6-3.4,1.6-4.4c0.9-0.8,2.1-1.2,3.3-1.2c1.5,0,2.7,0.4,3.6,1.5c0.9,0.9,1.3,2.3,1.3,4.1
		c0,1.3-0.2,2.4-0.6,3.3c-0.5,0.8-1,1.3-1.8,1.8s-1.7,0.6-2.6,0.6c-1.5,0-2.7-0.5-3.6-1.5S272.1,11.4,272.1,9.6z M273.8,9.6
		c0,1.3,0.3,2.4,0.9,3c0.6,0.6,1.3,1,2.3,1s1.7-0.3,2.3-1c0.6-0.7,0.9-1.8,0.9-3.1s-0.3-2.3-0.9-3c-0.6-0.8-1.3-1.1-2.3-1.1
		s-1.7,0.3-2.3,1.1C274.1,7.3,273.8,8.2,273.8,9.6z"/>
	<path class="st1" d="M284.1,15V4.3h1.6v1.5c0.8-1.2,2-1.8,3.5-1.8c0.6,0,1.2,0.2,1.8,0.3c0.6,0.3,0.9,0.6,1.2,0.9
		c0.3,0.3,0.5,0.8,0.6,1.4c0,0.3,0.2,0.9,0.2,1.8V15h-1.8V8.6c0-0.8,0-1.4-0.2-1.7c-0.1-0.3-0.4-0.6-0.8-0.9
		c-0.3-0.1-0.8-0.3-1.2-0.3c-0.8,0-1.5,0.3-1.9,0.8c-0.6,0.4-0.9,1.3-0.9,2.8v5.8L284.1,15L284.1,15z"/>
	<path class="st1" d="M300.6,11.8l1.8-0.3c0.2,0.7,0.5,1.2,0.9,1.7s1.1,0.6,1.9,0.6c0.9,0,1.5-0.2,1.8-0.5c0.4-0.3,0.6-0.8,0.6-1.2
		c0-0.4-0.2-0.7-0.6-0.9c-0.3-0.2-0.9-0.3-1.8-0.6c-1.3-0.3-2.3-0.6-2.7-0.9c-0.4-0.3-0.9-0.6-1.2-1.1c-0.3-0.4-0.5-0.9-0.5-1.5
		c0-0.4,0.2-0.9,0.3-1.4c0.2-0.4,0.5-0.8,0.9-1c0.3-0.1,0.6-0.5,1.2-0.6c0.4-0.1,1.1-0.1,1.5-0.1c0.9,0,1.5,0.1,2.3,0.3
		c0.8,0.2,1.1,0.6,1.3,1.1s0.5,0.9,0.6,1.6l-1.8,0.3c-0.1-0.6-0.3-1.1-0.8-1.4c-0.4-0.3-0.9-0.5-1.6-0.5c-0.9,0-1.4,0.2-1.8,0.5
		c-0.3,0.3-0.6,0.6-0.6,0.9c0,0.3,0,0.5,0.2,0.6s0.4,0.3,0.8,0.4c0.2,0,0.8,0.2,1.7,0.5c1.3,0.3,2.1,0.6,2.7,0.9
		c0.6,0.3,0.9,0.6,1.2,0.9c0.3,0.5,0.4,0.9,0.4,1.5s-0.1,1.2-0.6,1.7c-0.3,0.6-0.9,0.9-1.5,1.2c-0.6,0.3-1.4,0.5-2.3,0.5
		c-1.4,0-2.4-0.3-3.2-0.9C301.1,13.8,300.7,12.9,300.6,11.8z"/>
	<path class="st1" d="M318.6,13.6c-0.6,0.6-1.4,0.9-2,1.2c-0.6,0.3-1.3,0.3-2,0.3c-1.2,0-2.1-0.3-2.7-0.9c-0.6-0.6-0.9-1.3-0.9-2.2
		c0-0.5,0.2-1.1,0.3-1.5c0.3-0.5,0.6-0.8,0.9-1.1c0.4-0.3,0.8-0.4,1.3-0.6c0.3-0.1,0.9-0.1,1.7-0.3c1.5-0.1,2.5-0.5,3.3-0.6
		c0-0.3,0-0.4,0-0.4c0-0.8-0.2-1.2-0.5-1.5c-0.4-0.5-1.2-0.6-2.1-0.6s-1.5,0.1-2,0.4s-0.8,0.9-0.9,1.7l-1.8-0.3
		c0.2-0.8,0.5-1.4,0.8-1.8c0.3-0.5,0.9-0.8,1.7-1.1c0.8-0.3,1.5-0.4,2.4-0.4c0.9,0,1.7,0.1,2.3,0.3c0.6,0.1,1.1,0.5,1.2,0.8
		c0.2,0.3,0.5,0.8,0.6,1.2c0,0.3,0.2,0.9,0.2,1.6v2.4c0,1.7,0,2.7,0.2,3.1c0.2,0.5,0.3,0.9,0.4,1.3h-1.9
		C318.7,14.5,318.6,14.1,318.6,13.6z M318.4,9.6c-0.6,0.3-1.6,0.5-3,0.8c-0.8,0.2-1.2,0.3-1.6,0.3c-0.3,0.2-0.6,0.3-0.8,0.6
		c-0.2,0.2-0.3,0.5-0.3,0.8c0,0.5,0.2,0.9,0.6,1.2c0.3,0.3,0.9,0.5,1.7,0.5s1.3-0.2,1.8-0.5c0.6-0.3,0.9-0.8,1.2-1.2
		c0.2-0.5,0.3-1,0.3-1.8V9.5h0.1L318.4,9.6L318.4,9.6z"/>
	<path class="st1" d="M323.1,15V0.3h1.8V15C324.9,15,323.1,15,323.1,15z"/>
	<path class="st1" d="M334.9,11.5l1.8,0.3c-0.3,1-0.9,2-1.7,2.5c-0.8,0.5-1.8,0.9-3,0.9c-1.5,0-2.8-0.5-3.8-1.5
		c-0.9-0.9-1.3-2.2-1.3-4s0.4-3.1,1.3-4.2s2.1-1.5,3.6-1.5s2.6,0.5,3.5,1.5c0.9,1,1.4,2.4,1.4,4c0,0.2,0,0.3,0,0.5h-8
		c0,1.2,0.5,2.1,1,2.7c0.6,0.6,1.4,0.9,2.3,0.9c0.6,0,1.2-0.2,1.7-0.5C334.3,12.9,334.6,12.3,334.9,11.5z M328.9,8.5h6
		c-0.1-0.9-0.3-1.5-0.8-2c-0.6-0.8-1.3-1-2.3-1c-0.9,0-1.5,0.3-2.1,0.9C329.3,6.9,329.1,7.6,328.9,8.5z"/>
	<path class="st1" d="M340,11.2l-0.6-7.8V0.2h2.3v3.3l-0.5,7.8L340,11.2L340,11.2z M339.6,15v-2.1h2.1V15H339.6z"/>
	<path class="st1" d="M148.9,17.8v-1.5h194.4v1.5H148.9z"/>
</g>
<g class="st2">
	<path class="st3" d="M42.7,38.2l1.3,0.2c-0.2,1.1-0.6,1.8-1.2,2.3c-0.6,0.6-1.5,0.9-2.4,0.9c-1.2,0-2.1-0.4-2.8-1.2
		s-1.1-1.8-1.1-3.3c0-0.9,0.2-1.8,0.4-2.4c0.3-0.6,0.8-1.2,1.4-1.5c0.6-0.3,1.3-0.4,2.1-0.4c0.9,0,1.7,0.3,2.3,0.8s0.9,1.2,1.2,1.9
		l-1.3,0.2c-0.2-0.6-0.3-1.1-0.8-1.3C41.5,34.1,41,34,40.6,34c-0.8,0-1.4,0.3-1.8,0.8S38,36.1,38,37.3s0.2,1.9,0.6,2.6
		c0.5,0.6,1.1,0.8,1.7,0.8s1.1-0.1,1.3-0.4C42.4,39.6,42.7,39,42.7,38.2z"/>
	<path class="st3" d="M44.9,37.2c0-1.7,0.4-2.7,1.3-3.4c0.8-0.6,1.6-0.9,2.7-0.9c1.2,0,2.1,0.4,2.9,1.2c0.8,0.8,1.1,1.8,1.1,3.2
		c0,1.1-0.1,1.9-0.4,2.6c-0.3,0.6-0.8,1.1-1.5,1.5c-0.7,0.4-1.4,0.4-2.1,0.4c-1.2,0-2.1-0.4-2.9-1.2C45.2,39.7,44.9,38.5,44.9,37.2z
		 M46.3,37.2c0,1.1,0.3,1.9,0.8,2.4c0.4,0.6,1.1,0.8,1.8,0.8c0.7,0,1.4-0.3,1.8-0.8c0.4-0.6,0.8-1.3,0.8-2.6c0-1.1-0.3-1.8-0.8-2.4
		s-1.1-0.8-1.8-0.8c-0.7,0-1.4,0.3-1.8,0.8C46.6,35.2,46.3,36,46.3,37.2z"/>
	<path class="st3" d="M54.5,41.4V29.5H56v4.2c0.8-0.8,1.5-1.2,2.6-1.2c0.6,0,1.2,0.2,1.6,0.3c0.4,0.1,0.8,0.6,1.1,1.1
		c0.1,0.4,0.3,1.1,0.3,1.9v5.4h-1.5v-5.4c0-0.8-0.1-1.2-0.4-1.7c-0.3-0.3-0.8-0.4-1.4-0.4c-0.4,0-0.9,0.2-1.2,0.3s-0.6,0.4-0.8,0.9
		s-0.3,1-0.3,1.8v4.7H54.5z"/>
	<path class="st3" d="M63.2,37.2c0-1.7,0.4-2.7,1.4-3.4c0.8-0.6,1.6-0.9,2.7-0.9c1.2,0,2.1,0.4,2.9,1.2c0.8,0.8,1.1,1.8,1.1,3.2
		c0,1.1-0.1,1.9-0.4,2.6c-0.3,0.6-0.8,1.1-1.5,1.5c-0.7,0.4-1.4,0.4-2.1,0.4c-1.2,0-2.1-0.4-2.9-1.2C63.5,39.7,63.2,38.5,63.2,37.2z
		 M64.7,37.2c0,1.1,0.3,1.9,0.8,2.4c0.4,0.6,1.1,0.8,1.8,0.8c0.7,0,1.4-0.3,1.8-0.8c0.4-0.6,0.8-1.3,0.8-2.6c0-1.1-0.3-1.8-0.8-2.4
		s-1.1-0.8-1.8-0.8c-0.7,0-1.4,0.3-1.8,0.8C64.9,35.2,64.7,36,64.7,37.2z"/>
	<path class="st3" d="M74.5,41.4l-2.6-8.5h1.5l1.4,4.9l0.4,1.8c0-0.1,0.1-0.8,0.4-1.8l1.4-4.9h1.5l1.4,4.9l0.4,1.7l0.4-1.7l1.5-4.9
		h1.5L81,41.5h-1.5l-1.4-5.1l-0.3-1.5L76,41.5h-1.5V41.4z"/>
	<path class="st3" d="M84.8,31.3v-1.6h1.5v1.7L84.8,31.3L84.8,31.3z M84.8,41.4v-8.5h1.5v8.6C86.3,41.4,84.8,41.4,84.8,41.4z"/>
	<path class="st3" d="M88.4,41.4v-8.5h1.4v1.2c0.6-0.9,1.5-1.3,2.7-1.3c0.4,0,1.1,0.2,1.4,0.3c0.4,0.2,0.8,0.4,0.9,0.8
		c0.1,0.4,0.3,0.6,0.4,1.1c0,0.3,0.1,0.8,0.1,1.3v5.3h-1.5v-5.5c0-0.6,0-1.1-0.1-1.3c-0.1-0.3-0.3-0.4-0.6-0.8
		c-0.3-0.4-0.6-0.3-1.1-0.3c-0.6,0-1.2,0.2-1.6,0.6c-0.4,0.4-0.6,1.2-0.6,2.2v4.7L88.4,41.4L88.4,41.4z"/>
	<path class="st3" d="M103.4,38.7l1.5,0.1c-0.3,0.9-0.6,1.5-1.4,2.1c-0.6,0.4-1.5,0.8-2.4,0.8c-1.2,0-2.3-0.4-3-1.2
		c-0.7-0.8-1-1.8-1-3.3s0.3-2.6,1-3.3s1.6-1.2,2.9-1.2c1.3,0,2.1,0.4,2.9,1.2c0.8,0.8,1,1.8,1,3.3c0,0.1,0,0.1,0,0.4h-6.2
		c0,0.9,0.3,1.6,0.8,2.1s1,0.8,1.8,0.8c0.6,0,1-0.1,1.4-0.4C103,39.7,103.3,39.3,103.4,38.7z M98.7,36.3h4.8c0-0.7-0.3-1.2-0.6-1.6
		c-0.5-0.6-1-0.9-1.8-0.9c-0.6,0-1.2,0.2-1.6,0.6C98.9,34.9,98.8,35.5,98.7,36.3z"/>
	<path class="st3" d="M106.8,41.4v-8.5h1.4v1.3c0.3-0.6,0.6-1.1,0.9-1.2c0.3-0.2,0.6-0.3,0.9-0.3c0.5,0,1,0.2,1.5,0.4l-0.5,1.3
		c-0.3-0.2-0.8-0.3-1-0.3s-0.6,0.2-0.9,0.3s-0.5,0.4-0.6,0.8s-0.3,1.1-0.3,1.7v4.5H106.8z"/>
</g>
<g class="st2">
	<path class="st3" d="M112.2,44.7l-0.1-1.4c0.3,0.2,0.6,0.2,0.9,0.2s0.6,0,0.8-0.2c0.1-0.1,0.3-0.3,0.5-0.4c0.1-0.1,0.3-0.4,0.5-1.1
		c0-0.1,0-0.1,0.1-0.3l-3.3-8.6h1.5l1.8,4.9c0.3,0.6,0.5,1.4,0.6,1.9c0.1-0.6,0.3-1.3,0.6-1.9l1.8-4.9h1.5l-3.2,8.6
		c-0.3,0.9-0.6,1.7-0.8,1.9c-0.3,0.4-0.6,0.9-0.9,1.1c-0.3,0.2-0.8,0.3-1.2,0.3C112.9,44.8,112.4,44.8,112.2,44.7z"/>
</g>
<g class="st2">
	<path class="st3" d="M119.7,41.4v-1.7h1.6v1.7H119.7z"/>
	<path class="st3" d="M129.4,38.2l1.4,0.2c-0.1,1.1-0.6,1.8-1.2,2.3c-0.6,0.6-1.5,0.9-2.4,0.9c-1.2,0-2.1-0.4-2.9-1.2s-1-1.8-1-3.3
		c0-0.9,0.1-1.8,0.5-2.4c0.4-0.6,0.8-1.2,1.4-1.5c0.6-0.3,1.4-0.4,2.1-0.4c0.9,0,1.6,0.3,2.3,0.8s0.9,1.2,1.2,1.9l-1.4,0.2
		c-0.1-0.6-0.3-1.1-0.8-1.3c-0.3-0.3-0.8-0.4-1.2-0.4c-0.8,0-1.4,0.3-1.8,0.8c-0.4,0.5-0.8,1.3-0.8,2.6c0,1.2,0.1,1.9,0.6,2.6
		s1,0.8,1.6,0.8s1-0.2,1.4-0.4C129.1,39.6,129.3,39,129.4,38.2z"/>
	<path class="st3" d="M131.5,37.2c0-1.7,0.5-2.7,1.4-3.4c0.8-0.6,1.6-0.9,2.7-0.9c1.2,0,2.1,0.4,2.9,1.2c0.8,0.8,1,1.8,1,3.2
		c0,1.1-0.2,1.9-0.5,2.6c-0.3,0.6-0.8,1.1-1.5,1.5c-0.7,0.4-1.4,0.4-2.1,0.4c-1.2,0-2.1-0.4-2.9-1.2
		C131.9,39.7,131.5,38.5,131.5,37.2z M133,37.2c0,1.1,0.3,1.9,0.8,2.4c0.5,0.6,1,0.8,1.8,0.8s1.4-0.3,1.8-0.8
		c0.5-0.6,0.8-1.3,0.8-2.6c0-1.1-0.3-1.8-0.8-2.4s-1-0.8-1.8-0.8c-0.8,0-1.4,0.3-1.8,0.8C133.3,35.2,133,36,133,37.2z"/>
	<path class="st3" d="M141.3,41.4v-8.5h1.4v1.2c0.3-0.4,0.6-0.8,1-1.1c0.5-0.3,0.9-0.4,1.5-0.4s1.2,0.2,1.5,0.4
		c0.3,0.3,0.8,0.6,0.9,1.1c0.8-1.1,1.5-1.5,2.7-1.5c0.9,0,1.5,0.3,2,0.8s0.8,1.2,0.8,2.1v5.8h-1.5v-5.4c0-0.6,0-1.1-0.2-1.2
		c-0.1-0.3-0.3-0.4-0.4-0.6c-0.3-0.2-0.6-0.3-0.9-0.3c-0.6,0-1,0.2-1.5,0.6c-0.5,0.4-0.6,1.1-0.6,1.9v4.9h-1.5v-5.6
		c0-0.6-0.2-1.2-0.3-1.5c-0.3-0.3-0.6-0.4-1.2-0.4c-0.5,0-0.8,0.2-1.2,0.3c-0.4,0.2-0.6,0.8-0.8,1.2c-0.1,0.4-0.3,1.1-0.3,1.8v4.5
		h-1.4V41.4z"/>
	<path class="st3" d="M159,37.9v-1.5h4.5v1.5H159z"/>
	<path class="st3" d="M169.3,35.7c0-1.9,0.6-3.4,1.7-4.7c1-1.1,2.4-1.7,4-1.7c1.1,0,2.1,0.3,3,0.8c0.9,0.4,1.5,1.2,2,2.3
		c0.4,0.9,0.8,1.9,0.8,3.2c0,1.2-0.3,2.2-0.8,3.2c-0.5,0.9-1.2,1.6-2.1,2.1s-1.8,0.8-2.9,0.8c-1,0-2.1-0.3-3-0.8
		c-0.9-0.4-1.5-1.2-1.9-2.3C169.6,37.6,169.3,36.7,169.3,35.7z M171,35.7c0,1.3,0.4,2.6,1.2,3.3c0.8,0.7,1.7,1.2,2.9,1.2
		c1.2,0,2.1-0.4,2.9-1.2c0.8-0.8,1.2-1.9,1.2-3.4c0-0.9-0.1-1.8-0.4-2.6c-0.3-0.8-0.8-1.2-1.4-1.7s-1.4-0.6-2.1-0.6
		c-1,0-2.1,0.4-2.8,1.2C171.8,32.7,171,33.9,171,35.7z"/>
</g>
<g class="st2">
	<path class="st3" d="M182.8,41.4v-7.3h-1.3v-1.2h1.3V32c0-0.6,0-1.1,0.2-1.3c0.1-0.3,0.4-0.8,0.8-0.9c0.3-0.2,0.9-0.3,1.5-0.3
		c0.4,0,0.9,0,1.3,0.2l-0.2,1.2c-0.3,0-0.6-0.2-0.9-0.2c-0.5,0-0.8,0.2-0.9,0.3c-0.2,0.2-0.3,0.6-0.3,1.1v0.8h1.7v1.2h-1.7v7.3
		H182.8C182.8,41.2,182.8,41.4,182.8,41.4z"/>
</g>
<g class="st2">
	<path class="st3" d="M187,41.4v-7.3h-1.4v-1.2h1.4V32c0-0.6,0-1.1,0.1-1.3c0.2-0.3,0.5-0.8,0.8-0.9c0.3-0.3,0.9-0.3,1.5-0.3
		c0.5,0,0.9,0,1.4,0.2l-0.1,1.2c-0.3,0-0.6-0.2-0.9-0.2c-0.5,0-0.8,0.2-0.9,0.3c-0.1,0.2-0.3,0.6-0.3,1.1v0.8h1.6v1.2h-1.6v7.3H187
		C187,41.2,187,41.4,187,41.4z"/>
	<path class="st3" d="M191.2,31.3v-1.6h1.5v1.7L191.2,31.3L191.2,31.3z M191.2,41.4v-8.5h1.5v8.6C192.7,41.4,191.2,41.4,191.2,41.4z
		"/>
	<path class="st3" d="M200.5,38.2l1.3,0.2c-0.2,1.1-0.6,1.8-1.2,2.3c-0.6,0.6-1.5,0.9-2.4,0.9c-1.2,0-2.1-0.4-2.8-1.2
		c-0.7-0.8-1-1.8-1-3.3c0-0.9,0.2-1.8,0.5-2.4c0.3-0.6,0.8-1.2,1.3-1.5c0.5-0.3,1.3-0.4,2.1-0.4c0.9,0,1.7,0.3,2.3,0.8
		s0.9,1.2,1.2,1.9l-1.3,0.2c-0.2-0.6-0.3-1.1-0.8-1.3c-0.3-0.3-0.8-0.4-1.2-0.4c-0.8,0-1.3,0.3-1.8,0.8s-0.8,1.3-0.8,2.6
		c0,1.2,0.2,1.9,0.6,2.6c0.4,0.7,1,0.8,1.7,0.8c0.6,0,1-0.2,1.3-0.4C200.2,39.6,200.3,39,200.5,38.2z"/>
	<path class="st3" d="M203.2,31.3v-1.6h1.5v1.7L203.2,31.3L203.2,31.3z M203.2,41.4v-8.5h1.5v8.6C204.7,41.4,203.2,41.4,203.2,41.4z
		"/>
	<path class="st3" d="M212.3,40.3c-0.6,0.4-1,0.8-1.5,0.9c-0.5,0.1-1,0.3-1.7,0.3c-0.9,0-1.7-0.3-2.1-0.8s-0.8-1.1-0.8-1.8
		c0-0.4,0.2-0.8,0.3-1.2c0.2-0.3,0.5-0.6,0.8-0.9c0.3-0.1,0.6-0.3,1.1-0.4c0.3,0,0.8-0.1,1.3-0.1c1.2-0.2,2.1-0.3,2.5-0.4
		c0-0.2,0-0.3,0-0.4c0-0.6-0.1-1.1-0.4-1.2c-0.3-0.3-0.9-0.4-1.7-0.4s-1.2,0.2-1.5,0.3s-0.6,0.6-0.8,1.2l-1.3-0.2
		c0.2-0.6,0.3-1.1,0.6-1.5c0.3-0.3,0.8-0.6,1.3-0.9c0.6-0.2,1.2-0.3,1.9-0.3s1.4,0.2,1.8,0.3c0.4,0.1,0.8,0.4,1.1,0.6
		c0.1,0.3,0.3,0.6,0.4,1.1c0,0.3,0,0.8,0,1.3v2.1c0,1.4,0,2.3,0.2,2.6c0.2,0.3,0.2,0.8,0.3,1.1h-1.5
		C212.5,41.1,212.3,40.8,212.3,40.3z M212.2,37.2c-0.6,0.1-1.3,0.4-2.4,0.6c-0.6,0.2-1.1,0.2-1.2,0.3c-0.3,0.2-0.5,0.3-0.6,0.4
		c-0.1,0.1-0.2,0.4-0.2,0.8c0,0.4,0.2,0.8,0.5,0.9s0.8,0.4,1.3,0.4c0.6,0,1.1-0.2,1.5-0.3c0.5-0.3,0.8-0.6,0.9-1.1
		c0.1-0.3,0.3-0.8,0.3-1.5L212.2,37.2L212.2,37.2z"/>
	<path class="st3" d="M216,41.4V29.5h1.5v11.8L216,41.4L216,41.4z"/>
	<path class="st3" d="M223.6,38.8l1.5-0.3c0.2,0.6,0.3,1.1,0.6,1.4c0.3,0.3,0.9,0.4,1.5,0.4s1.2-0.2,1.5-0.4
		c0.3-0.3,0.4-0.6,0.4-0.9s-0.1-0.6-0.4-0.8c-0.2-0.1-0.8-0.3-1.5-0.4c-1.1-0.3-1.8-0.4-2.3-0.8c-0.4-0.1-0.8-0.4-0.9-0.8
		c-0.2-0.3-0.3-0.7-0.3-1.2s0.1-0.8,0.3-1.1c0.2-0.3,0.5-0.6,0.8-0.8c0.2-0.2,0.6-0.3,0.9-0.4c0.4-0.2,0.8-0.2,1.2-0.2
		c0.6,0,1.2,0.2,1.8,0.3c0.4,0.2,0.9,0.4,1.1,0.8c0.1,0.3,0.4,0.8,0.4,1.3l-1.3,0.2c0-0.4-0.3-0.8-0.6-1.1s-0.8-0.3-1.3-0.3
		s-1.2,0.2-1.3,0.3c-0.3,0.2-0.4,0.4-0.4,0.8c0,0.2,0,0.3,0.1,0.4c0.2,0.2,0.3,0.3,0.6,0.4c0.1,0,0.6,0.2,1.3,0.3
		c1.1,0.3,1.8,0.4,2.1,0.6c0.3,0.2,0.8,0.4,0.9,0.8c0.3,0.3,0.3,0.8,0.3,1.2s-0.2,0.9-0.4,1.4c-0.3,0.4-0.8,0.8-1.2,1.1
		c-0.6,0.3-1.2,0.3-1.8,0.3c-1.1,0-2-0.3-2.6-0.8C224.2,40.5,223.8,39.7,223.6,38.8z"/>
	<path class="st3" d="M232.5,31.3v-1.6h1.5v1.7L232.5,31.3L232.5,31.3z M232.5,41.4v-8.5h1.5v8.6C234,41.4,232.5,41.4,232.5,41.4z"
		/>
	<path class="st3" d="M239.2,40l0.2,1.4c-0.5,0.1-0.8,0.1-1.1,0.1c-0.6,0-0.9-0.1-1.2-0.3c-0.3-0.1-0.5-0.4-0.6-0.6
		c-0.1-0.3-0.1-0.9-0.1-1.7V34h-1.1v-1.2h1.1v-2.1l1.5-0.9v3h1.5V34h-1.5v4.9c0,0.4,0,0.8,0.1,0.8c0,0.2,0.2,0.2,0.3,0.3
		c0.2,0,0.3,0.2,0.4,0.2C238.8,40.2,239.1,40.2,239.2,40z"/>
	<path class="st3" d="M246.6,38.7l1.5,0.1c-0.3,0.9-0.6,1.5-1.4,2.1c-0.6,0.4-1.5,0.8-2.4,0.8c-1.2,0-2.3-0.4-3-1.2
		c-0.7-0.8-1.1-1.8-1.1-3.3s0.3-2.6,1.1-3.3s1.6-1.2,2.8-1.2s2.1,0.4,2.9,1.2s1,1.8,1,3.3c0,0.1,0,0.1,0,0.4h-6.3
		c0,0.9,0.3,1.6,0.8,2.1c0.4,0.4,1,0.8,1.8,0.8c0.6,0,1-0.1,1.3-0.4C246,39.7,246.3,39.3,246.6,38.7z M241.8,36.3h4.8
		c0-0.7-0.3-1.2-0.6-1.6c-0.4-0.6-1-0.9-1.8-0.9c-0.6,0-1.2,0.2-1.7,0.6C242.1,34.9,241.8,35.5,241.8,36.3z"/>
</g>
<g class="st2">
	<path class="st4" d="M267.6,37.3l1.5,0.4c-0.3,1.4-0.9,2.3-1.8,3c-0.9,0.6-1.9,1.1-3.2,1.1c-1.3,0-2.3-0.3-3.2-0.8
		c-0.8-0.4-1.3-1.2-1.8-2.3c-0.4-1.1-0.6-2.1-0.6-3.1c0-1.2,0.3-2.3,0.8-3.2c0.4-0.9,1.2-1.7,1.9-2.1c0.9-0.4,1.8-0.8,2.8-0.8
		c1.2,0,2.1,0.3,3,0.9c0.9,0.6,1.3,1.5,1.7,2.6l-1.5,0.3c-0.3-0.9-0.6-1.5-1.2-1.8c-0.5-0.4-1.2-0.6-2-0.6c-0.9,0-1.7,0.2-2.3,0.6
		s-1,1.1-1.3,1.8c-0.3,0.7-0.3,1.5-0.3,2.3c0,1.1,0.2,1.9,0.5,2.7c0.3,0.8,0.8,1.4,1.3,1.7c0.5,0.3,1.3,0.6,1.9,0.6
		c0.9,0,1.7-0.3,2.3-0.8C267,39,267.4,38.2,267.6,37.3z"/>
	<path class="st4" d="M270.4,37.2c0-1.7,0.5-2.7,1.4-3.4c0.8-0.6,1.6-0.9,2.7-0.9c1.2,0,2.1,0.4,2.8,1.2c0.7,0.8,1,1.8,1,3.2
		c0,1.1-0.1,1.9-0.4,2.6c-0.3,0.7-0.8,1.1-1.5,1.5c-0.7,0.4-1.3,0.4-2.1,0.4c-1.2,0-2.1-0.4-2.8-1.2
		C270.7,39.7,270.4,38.5,270.4,37.2z M271.8,37.2c0,1.1,0.3,1.9,0.8,2.4c0.4,0.6,1.1,0.8,1.8,0.8c0.7,0,1.3-0.3,1.8-0.8
		c0.5-0.6,0.8-1.3,0.8-2.6c0-1.1-0.3-1.8-0.8-2.4s-1-0.8-1.8-0.8c-0.8,0-1.4,0.3-1.8,0.8C272.1,35.2,271.8,36,271.8,37.2z"/>
	<path class="st4" d="M280,41.4V29.5h1.5v4.2c0.8-0.8,1.5-1.2,2.6-1.2c0.6,0,1.2,0.2,1.6,0.3c0.5,0.3,0.8,0.6,1.1,1.1
		c0.2,0.4,0.3,1.1,0.3,1.9v5.4h-1.5v-5.4c0-0.8-0.2-1.2-0.5-1.7c-0.3-0.3-0.8-0.4-1.3-0.4c-0.4,0-0.9,0.2-1.2,0.3
		c-0.3,0.2-0.6,0.4-0.8,0.9s-0.3,0.9-0.3,1.7v4.6L280,41.4L280,41.4z"/>
	<path class="st4" d="M288.7,37.2c0-1.7,0.5-2.7,1.4-3.4c0.8-0.6,1.6-0.9,2.7-0.9c1.2,0,2.1,0.4,2.8,1.2c0.7,0.8,1,1.8,1,3.2
		c0,1.1-0.1,1.9-0.4,2.6c-0.3,0.6-0.8,1.1-1.5,1.5c-0.7,0.4-1.3,0.4-2.1,0.4c-1.2,0-2.1-0.4-2.8-1.2C289,39.7,288.7,38.5,288.7,37.2
		z M290.2,37.2c0,1.1,0.3,1.9,0.8,2.4c0.5,0.6,1.1,0.8,1.8,0.8c0.7,0,1.3-0.3,1.8-0.8c0.4-0.6,0.8-1.3,0.8-2.6
		c0-1.1-0.3-1.8-0.8-2.4s-1.1-0.8-1.8-0.8c-0.7,0-1.3,0.3-1.8,0.8C290.3,35.2,290.2,36,290.2,37.2z"/>
	<path class="st4" d="M305.2,41.4l-3.1-11.8h1.6l1.8,7.8c0.2,0.8,0.3,1.7,0.4,2.4c0.3-1.2,0.5-1.9,0.6-2.3l2.3-8h1.9l1.7,6
		c0.5,1.5,0.8,2.8,0.9,4.2c0.2-0.8,0.3-1.6,0.6-2.6l1.8-7.5h1.5l-3.3,11.8h-1.5l-2.5-9c-0.2-0.8-0.3-1.2-0.3-1.3
		c-0.2,0.6-0.3,1.1-0.3,1.3l-2.5,9H305.2L305.2,41.4z"/>
	<path class="st4" d="M318.6,31.3v-1.6h1.5v1.7L318.6,31.3L318.6,31.3z M318.6,41.4v-8.5h1.5v8.6C320.1,41.4,318.6,41.4,318.6,41.4z
		"/>
	<path class="st4" d="M322.1,41.4v-8.5h1.4v1.2c0.6-0.9,1.5-1.3,2.7-1.3c0.4,0,1.1,0.2,1.3,0.3c0.5,0.2,0.8,0.4,0.9,0.8
		c0.1,0.4,0.3,0.6,0.4,1.1c0,0.3,0.2,0.8,0.2,1.3v5.3h-1.5v-5.5c0-0.6,0-1.1-0.2-1.3c-0.1-0.3-0.3-0.4-0.6-0.8
		c-0.3-0.3-0.6-0.3-1.1-0.3c-0.6,0-1.2,0.2-1.7,0.6c-0.5,0.4-0.6,1.2-0.6,2.2v4.7L322.1,41.4L322.1,41.4z"/>
	<path class="st4" d="M337.1,38.7l1.5,0.1c-0.3,0.9-0.6,1.5-1.3,2.1c-0.6,0.4-1.5,0.8-2.4,0.8c-1.2,0-2.3-0.4-3-1.2
		c-0.7-0.8-1-1.8-1-3.3s0.3-2.6,1-3.3s1.7-1.2,2.9-1.2c1.2,0,2.1,0.4,2.8,1.2c0.7,0.8,1,1.8,1,3.3c0,0.1,0,0.1,0,0.4h-6.3
		c0,0.9,0.3,1.6,0.8,2.1s1,0.8,1.8,0.8c0.6,0,1.1-0.1,1.4-0.4C336.6,39.7,336.8,39.3,337.1,38.7z M332.3,36.3h4.8
		c0-0.7-0.3-1.2-0.6-1.6c-0.5-0.6-1.1-0.9-1.8-0.9c-0.6,0-1.2,0.2-1.6,0.6C332.6,34.9,332.5,35.5,332.3,36.3z"/>
	<path class="st4" d="M340.5,41.4v-8.5h1.4v1.3c0.3-0.6,0.6-1.1,0.9-1.2c0.3-0.2,0.6-0.3,0.9-0.3c0.5,0,1,0.2,1.5,0.4l-0.5,1.3
		c-0.3-0.2-0.8-0.3-1-0.3s-0.6,0.2-0.9,0.3s-0.5,0.4-0.6,0.8c-0.2,0.4-0.3,1.1-0.3,1.7v4.5H340.5z"/>
</g>
<g class="st2">
	<path class="st4" d="M345.8,44.7l-0.1-1.4c0.3,0.2,0.6,0.2,0.9,0.2s0.6,0,0.8-0.2c0.1-0.1,0.3-0.3,0.5-0.4c0.1-0.1,0.3-0.4,0.4-1.1
		c0-0.1,0-0.1,0.2-0.3l-3.3-8.6h1.5l1.8,4.9c0.3,0.6,0.5,1.4,0.6,1.9c0.2-0.6,0.3-1.3,0.6-1.9l1.8-4.9h1.5l-3.3,8.7
		c-0.3,0.9-0.6,1.7-0.8,1.9c-0.3,0.4-0.6,0.9-0.9,1.1s-0.8,0.3-1.2,0.3C346.5,44.8,346.1,44.8,345.8,44.7z"/>
</g>
<g class="st2">
	<path class="st4" d="M353.3,41.4v-1.7h1.6v1.7c0,0.6-0.1,1.1-0.3,1.5c-0.1,0.3-0.6,0.6-1,0.9l-0.5-0.6c0.3-0.2,0.6-0.3,0.8-0.6
		c0.2-0.3,0.2-0.6,0.3-1.1L353.3,41.4L353.3,41.4z"/>
	<path class="st4" d="M362.2,41.4V29.5h1.5v10.3h5.9v1.3h-7.4V41.4z"/>
	<path class="st4" d="M371.3,41.4V29.5h1.5v10.3h5.9v1.3h-7.4V41.4z"/>
	<path class="st4" d="M389.1,37.3l1.5,0.4c-0.3,1.4-0.9,2.3-1.8,3c-0.9,0.6-1.9,1.1-3.2,1.1c-1.2,0-2.3-0.3-3.1-0.8
		c-0.8-0.4-1.4-1.2-1.8-2.3c-0.4-1.1-0.6-2.1-0.6-3.1c0-1.2,0.3-2.3,0.8-3.2c0.5-0.9,1.2-1.7,2-2.1c0.9-0.4,1.8-0.8,2.8-0.8
		c1.2,0,2.1,0.3,3,0.9c0.9,0.6,1.4,1.5,1.7,2.6l-1.5,0.3c-0.3-0.9-0.6-1.5-1.2-1.8c-0.4-0.4-1.2-0.6-1.9-0.6c-0.9,0-1.7,0.2-2.3,0.6
		c-0.6,0.4-1,1.1-1.4,1.8c-0.3,0.8-0.3,1.5-0.3,2.3c0,1.1,0.1,1.9,0.5,2.7c0.3,0.8,0.8,1.4,1.3,1.7c0.6,0.3,1.4,0.6,1.9,0.6
		c0.9,0,1.7-0.3,2.3-0.8C388.5,39,388.7,38.2,389.1,37.3z"/>
</g>
<g class="st2">
	<path d="M12.7,67.8l4.5-11.9h1.7l4.8,11.9h-1.8l-1.3-3.6h-5l-1.2,3.6C14.4,67.8,12.7,67.8,12.7,67.8z M16.1,63h4l-1.2-3.3
		c-0.4-0.9-0.7-1.8-0.9-2.4c-0.2,0.8-0.3,1.5-0.6,2.3L16.1,63z"/>
	<path d="M24.9,67.8V55.9h1.5v11.9C26.4,67.8,24.9,67.8,24.9,67.8z"/>
	<path d="M28.4,67.8V55.9h1.5v11.9C29.9,67.8,28.4,67.8,28.4,67.8z"/>
	<path d="M36.7,67.8v-8.5H38v1.4c0.3-0.6,0.6-1.1,0.9-1.2c0.3-0.1,0.6-0.3,0.9-0.3c0.4,0,1,0.1,1.5,0.4L40.8,61
		c-0.3-0.1-0.8-0.3-1-0.3c-0.3,0-0.6,0.1-0.9,0.3c-0.3,0.2-0.5,0.5-0.6,0.8c-0.2,0.5-0.3,1-0.3,1.6v4.5L36.7,67.8L36.7,67.8z"/>
	<path d="M48.1,65.1l1.5,0.1c-0.3,0.9-0.6,1.5-1.4,2.1c-0.6,0.4-1.5,0.8-2.4,0.8c-1.2,0-2.3-0.5-3-1.2c-0.7-0.7-1.1-1.8-1.1-3.3
		s0.3-2.6,1.1-3.3c0.8-0.7,1.7-1.2,2.9-1.2s2.1,0.4,2.9,1.2c0.8,0.8,1.1,1.8,1.1,3.3c0,0.1,0,0.1,0,0.4h-6.3c0,0.9,0.3,1.6,0.8,2.1
		c0.4,0.5,1.1,0.8,1.8,0.8c0.6,0,1.1-0.1,1.4-0.4C47.5,66.1,47.8,65.7,48.1,65.1z M43.3,62.8h4.8c0-0.8-0.3-1.2-0.6-1.6
		c-0.4-0.6-1-0.9-1.8-0.9c-0.6,0-1.2,0.1-1.7,0.6C43.6,61.5,43.4,62.1,43.3,62.8z"/>
	<path d="M56.9,67.8v-1c-0.6,0.9-1.4,1.2-2.4,1.2c-0.8,0-1.4-0.1-1.9-0.6c-0.6-0.3-1.1-0.9-1.4-1.5c-0.3-0.6-0.4-1.5-0.4-2.3
		c0-0.9,0.1-1.6,0.4-2.3c0.3-0.8,0.8-1.2,1.4-1.6c0.6-0.3,1.2-0.6,1.9-0.6c0.4,0,0.9,0.1,1.4,0.3s0.8,0.4,1.1,0.9v-4.2h1.5v11.7
		H56.9z M52.3,63.6c0,1,0.3,1.9,0.8,2.4c0.4,0.6,1.1,0.8,1.6,0.8c0.6,0,1.2-0.3,1.6-0.8c0.4-0.5,0.6-1.4,0.6-2.4
		c0-1.2-0.1-2.1-0.8-2.6c-0.6-0.4-0.9-0.8-1.6-0.8c-0.6,0-1.2,0.3-1.6,0.8C52.6,61.6,52.3,62.5,52.3,63.6z"/>
	<path d="M66.7,67.8l-2.6-8.5h1.5l1.4,4.9l0.4,1.8c0-0.1,0.1-0.8,0.4-1.8l1.4-4.9h1.5l1.4,4.9l0.4,1.6l0.4-1.6l1.5-4.9h1.4l-2.7,8.5
		h-1.4l-1.4-5.1L70,61.2l-1.8,6.6H66.7z"/>
	<path d="M77,57.7v-1.6h1.5v1.6H77z M77,67.8v-8.5h1.5v8.5H77z"/>
	<path d="M80.7,67.8v-8.5h1.4v1.2c0.5-1,1.4-1.4,2.6-1.4c0.4,0,1.1,0.1,1.4,0.3c0.4,0.1,0.8,0.4,0.9,0.8c0.1,0.3,0.3,0.6,0.4,1
		c0,0.3,0.1,0.8,0.1,1.4v5.3H86v-5.3c0-0.6,0-1-0.1-1.4c-0.1-0.3-0.3-0.4-0.6-0.8c-0.3-0.3-0.6-0.3-1.1-0.3c-0.6,0-1.2,0.1-1.6,0.6
		C82.2,61.1,82,61.9,82,63v4.8C82,67.8,80.7,67.8,80.7,67.8z"/>
	<path d="M95.7,65.1l1.5,0.1c-0.3,0.9-0.6,1.5-1.4,2.1c-0.6,0.4-1.5,0.8-2.4,0.8c-1.2,0-2.3-0.5-3-1.2c-0.7-0.7-1.1-1.8-1.1-3.3
		c0-1.5,0.3-2.6,1.1-3.3c0.8-0.7,1.6-1.2,2.9-1.2c1.2,0,2.1,0.4,2.9,1.2s1,1.8,1,3.3c0,0.1,0,0.1,0,0.4h-6.3c0,0.9,0.3,1.6,0.8,2.1
		c0.4,0.5,1.1,0.8,1.8,0.8c0.6,0,1.1-0.1,1.4-0.4C95.2,66.1,95.5,65.7,95.7,65.1z M91,62.8h4.8c0-0.8-0.3-1.2-0.6-1.6
		c-0.4-0.6-1.1-0.9-1.8-0.9c-0.6,0-1.2,0.1-1.6,0.6C91.3,61.5,91,62.1,91,62.8z"/>
	<path d="M98.5,65.4l1.5-0.3c0.1,0.6,0.3,1,0.6,1.4c0.3,0.3,0.9,0.4,1.5,0.4s1.2-0.1,1.5-0.4c0.3-0.3,0.5-0.6,0.5-0.9
		c0-0.3-0.1-0.6-0.5-0.8c-0.1-0.1-0.8-0.3-1.5-0.5c-1-0.3-1.8-0.4-2.3-0.8c-0.5-0.1-0.8-0.4-0.9-0.8c-0.1-0.2-0.2-0.6-0.2-1.1
		s0.1-0.8,0.3-1.1c0.1-0.3,0.5-0.6,0.8-0.8c0.1-0.1,0.6-0.3,0.9-0.4c0.3-0.1,0.8-0.1,1.2-0.1c0.6,0,1.2,0.1,1.8,0.3
		c0.5,0.1,0.9,0.5,1,0.8c0.3,0.3,0.5,0.8,0.5,1.4l-1.4,0.1c0-0.4-0.3-0.8-0.6-1c-0.3-0.3-0.6-0.5-1.2-0.5s-1.2,0.1-1.4,0.3
		c-0.3,0.1-0.5,0.4-0.5,0.8c0,0.1,0,0.3,0.1,0.4c0.1,0.1,0.3,0.3,0.6,0.5c0.1,0,0.6,0.1,1.4,0.3c1,0.3,1.8,0.5,2.1,0.6
		c0.5,0.1,0.8,0.5,0.9,0.8c0.1,0.3,0.3,0.9,0.3,1.5c0,0.5-0.1,0.9-0.5,1.4c-0.3,0.5-0.8,0.8-1.2,1.1c-0.4,0.1-1.1,0.1-1.7,0.1
		c-1,0-2-0.3-2.5-0.8C98.9,66.9,98.7,66.3,98.5,65.4z"/>
	<path d="M111.3,63.6c0-1.6,0.5-2.7,1.4-3.5c0.8-0.6,1.6-0.9,2.7-0.9c1.2,0,2.1,0.5,2.9,1.2s1,1.8,1,3.1c0,1-0.1,1.9-0.5,2.5
		c-0.3,0.6-0.8,1.1-1.5,1.5c-0.8,0.6-1.4,0.6-2.1,0.6c-1.2,0-2.1-0.5-2.9-1.2C111.7,66.1,111.3,65.1,111.3,63.6z M112.8,63.6
		c0,1,0.3,1.9,0.8,2.4c0.5,0.6,1,0.8,1.8,0.8s1.4-0.3,1.8-0.8c0.5-0.6,0.8-1.4,0.8-2.6c0-1-0.3-1.8-0.8-2.4c-0.4-0.4-1-0.8-1.8-0.8
		s-1.4,0.3-1.8,0.8C113,61.6,112.8,62.5,112.8,63.6z"/>
	<path d="M121,67.8v-8.5h1.4v1.2c0.6-0.9,1.5-1.4,2.7-1.4c0.5,0,1,0.1,1.4,0.3c0.5,0.1,0.8,0.4,0.9,0.8c0.1,0.3,0.3,0.6,0.5,1
		c0,0.3,0.1,0.8,0.1,1.4v5.3h-1.5v-5.3c0-0.6,0-1-0.1-1.4c-0.1-0.3-0.3-0.4-0.6-0.8c-0.3-0.3-0.6-0.3-1-0.3c-0.6,0-1.2,0.1-1.6,0.6
		c-0.5,0.4-0.6,1.2-0.6,2.3v4.8C122.6,67.8,121,67.8,121,67.8z"/>
	<path d="M134.2,65.4l1.5-0.3c0.1,0.6,0.3,1,0.6,1.4c0.3,0.3,0.9,0.4,1.5,0.4c0.6,0,1.2-0.1,1.5-0.4c0.3-0.3,0.5-0.6,0.5-0.9
		c0-0.3-0.1-0.6-0.5-0.8c-0.2-0.1-0.8-0.3-1.5-0.5c-1-0.3-1.8-0.4-2.3-0.8c-0.5-0.1-0.8-0.4-0.9-0.8c-0.1-0.3-0.3-0.8-0.3-1.2
		c0-0.5,0.1-0.8,0.3-1.1c0.1-0.3,0.5-0.6,0.8-0.8c0.1-0.1,0.6-0.3,0.9-0.4c0.3-0.1,0.8-0.1,1.2-0.1c0.6,0,1.2,0.1,1.8,0.3
		c0.5,0.1,0.9,0.5,1,0.8c0.3,0.3,0.5,0.8,0.5,1.4l-1.3,0.1c0-0.4-0.3-0.8-0.6-1c-0.3-0.3-0.6-0.5-1.2-0.5c-0.6,0-1.2,0.1-1.4,0.3
		c-0.3,0.1-0.5,0.4-0.5,0.8c0,0.1,0,0.3,0.1,0.4c0.1,0.1,0.3,0.3,0.6,0.5c0.1,0,0.6,0.1,1.4,0.3c1,0.3,1.8,0.5,2.1,0.6
		c0.5,0.1,0.8,0.5,0.9,0.8c0.1,0.3,0.3,0.8,0.3,1.2s-0.1,0.9-0.4,1.4c-0.3,0.4-0.8,0.8-1.2,1c-0.4,0.3-1.2,0.3-1.8,0.3
		c-1,0-2-0.3-2.5-0.8C134.7,66.9,134.3,66.3,134.2,65.4z"/>
	<path d="M148.5,66.7c-0.6,0.4-1.1,0.8-1.5,0.9c-0.5,0.1-1.1,0.3-1.7,0.3c-0.9,0-1.7-0.3-2.1-0.8c-0.5-0.4-0.8-1-0.8-1.8
		c0-0.5,0.1-0.8,0.3-1.2c0.2-0.3,0.5-0.6,0.8-0.9c0.3-0.1,0.6-0.3,1.1-0.4c0.3,0,0.8-0.1,1.3-0.1c1.2-0.1,2.1-0.3,2.5-0.5
		c0-0.1,0-0.3,0-0.4c0-0.6-0.1-1.1-0.5-1.2c-0.2-0.3-0.8-0.5-1.6-0.5c-0.8,0-1.2,0.1-1.5,0.3c-0.3,0.2-0.6,0.6-0.8,1.2l-1.3,0.1
		c0.1-0.6,0.3-1,0.6-1.5c0.3-0.3,0.8-0.6,1.3-0.9c0.6-0.1,1.2-0.3,2-0.3c0.8,0,1.4,0.1,1.8,0.3c0.5,0.1,0.8,0.5,1,0.6
		c0.1,0.3,0.3,0.6,0.5,1.1c0,0.3,0,0.8,0,1.4v1.9c0,1.4,0,2.3,0.2,2.6c0.1,0.3,0.1,0.8,0.3,1h-1.5C148.6,67.5,148.6,67.2,148.5,66.7
		z M148.5,63.6c-0.6,0.1-1.4,0.4-2.4,0.6c-0.6,0.1-1,0.1-1.2,0.3c-0.3,0.1-0.5,0.3-0.6,0.5c-0.1,0.1-0.1,0.4-0.1,0.8
		s0.1,0.8,0.5,0.9c0.4,0.1,0.8,0.4,1.3,0.4c0.6,0,1.1-0.1,1.5-0.3c0.5-0.3,0.8-0.6,0.9-1.1c0.2-0.3,0.3-0.8,0.3-1.5L148.5,63.6
		L148.5,63.6z"/>
	<path d="M152,67.8V55.9h1.5v11.9C153.5,67.8,152,67.8,152,67.8z"/>
	<path d="M161.6,65.1l1.5,0.1c-0.3,0.9-0.6,1.5-1.3,2.1c-0.6,0.4-1.5,0.8-2.4,0.8c-1.2,0-2.3-0.5-3-1.2s-1-1.8-1-3.3
		c0-1.5,0.3-2.6,1-3.3s1.7-1.2,2.9-1.2c1.2,0,2.1,0.4,2.9,1.2s1,1.8,1,3.3c0,0.1,0,0.1,0,0.4h-6.3c0,0.9,0.3,1.6,0.8,2.1
		c0.4,0.5,1,0.8,1.8,0.8c0.6,0,1.1-0.1,1.4-0.4C161,66.1,161.3,65.7,161.6,65.1z M156.8,62.8h4.8c0-0.8-0.3-1.2-0.6-1.6
		c-0.5-0.6-1.1-0.9-1.8-0.9c-0.6,0-1.2,0.1-1.6,0.6C157.1,61.5,156.8,62.1,156.8,62.8z"/>
	<path d="M165.7,64.9l-0.5-6.3v-2.5h1.8v2.6l-0.5,6.3L165.7,64.9L165.7,64.9z M165.3,67.8v-1.5h1.6v1.5H165.3z"/>
	<path d="M174.4,67.8V55.9h8v1.4h-6.5v3.6h5.6v1.4h-5.6v5.5H174.4z"/>
	<path d="M184.1,67.8v-8.5h1.4v1.4c0.3-0.6,0.6-1.1,0.9-1.2c0.3-0.1,0.6-0.3,0.9-0.3c0.5,0,1,0.1,1.5,0.4l-0.5,1.4
		c-0.3-0.1-0.8-0.3-1-0.3s-0.6,0.1-0.9,0.3c-0.3,0.2-0.4,0.5-0.6,0.8c-0.2,0.5-0.3,1.1-0.3,1.6v4.5L184.1,67.8L184.1,67.8z"/>
	<path d="M195.4,65.1l1.5,0.1c-0.3,0.9-0.6,1.5-1.3,2.1c-0.6,0.4-1.5,0.8-2.4,0.8c-1.2,0-2.3-0.5-3-1.2c-0.7-0.7-1-1.8-1-3.3
		c0-1.5,0.3-2.6,1-3.3c0.7-0.7,1.7-1.2,2.8-1.2c1.2,0,2.1,0.4,2.8,1.2c0.7,0.8,1,1.8,1,3.3c0,0.1,0,0.1,0,0.4h-6.3
		c0,0.9,0.3,1.6,0.8,2.1s1,0.8,1.8,0.8c0.6,0,1-0.1,1.3-0.4C195,66.1,195.3,65.7,195.4,65.1z M190.8,62.8h4.8c0-0.8-0.3-1.2-0.6-1.6
		c-0.5-0.6-1-0.9-1.8-0.9c-0.6,0-1.2,0.1-1.7,0.6C191,61.5,190.8,62.1,190.8,62.8z"/>
	<path d="M204.7,65.1l1.5,0.1c-0.3,0.9-0.6,1.5-1.3,2.1c-0.6,0.4-1.5,0.8-2.4,0.8c-1.2,0-2.2-0.5-3-1.2s-1-1.8-1-3.3
		c0-1.5,0.3-2.6,1-3.3s1.7-1.2,2.8-1.2c1.2,0,2.1,0.4,2.8,1.2s1.1,1.8,1.1,3.3c0,0.1,0,0.1,0,0.4h-6.3c0,0.9,0.3,1.6,0.8,2.1
		s1,0.8,1.8,0.8c0.6,0,1.1-0.1,1.3-0.4C204.1,66.1,204.4,65.7,204.7,65.1z M199.9,62.8h4.8c0-0.8-0.3-1.2-0.6-1.6
		c-0.5-0.6-1-0.9-1.8-0.9c-0.6,0-1.2,0.1-1.7,0.6C200.2,61.5,199.9,62.1,199.9,62.8z"/>
	<path d="M212.2,68.5l1.4,0.1c0,0.5,0.1,0.8,0.4,0.9c0.3,0.3,0.9,0.5,1.5,0.5s1.2-0.1,1.5-0.5c0.3-0.3,0.6-0.6,0.8-1.2
		c0-0.3,0.2-0.9,0.2-1.8c-0.6,0.8-1.3,1.1-2.4,1.1c-1.2,0-2.1-0.5-2.7-1.2c-0.6-0.9-0.9-1.8-0.9-3c0-0.8,0.2-1.5,0.5-2.3
		s0.8-1.2,1.3-1.6c0.6-0.4,1.2-0.6,1.9-0.6c1.1,0,1.8,0.5,2.6,1.2v-1h1.3v7.4c0,1.4-0.2,2.3-0.5,2.9c-0.3,0.6-0.8,1.1-1.3,1.4
		c-0.6,0.3-1.4,0.5-2.1,0.5c-1,0-1.8-0.3-2.4-0.8C212.5,70.2,212.2,69.4,212.2,68.5z M213.4,63.4c0,1.1,0.2,2,0.6,2.4
		c0.4,0.5,1,0.8,1.6,0.8s1.2-0.3,1.7-0.8c0.4-0.4,0.8-1.4,0.8-2.4c0-1-0.3-1.8-0.8-2.4c-0.5-0.6-1.1-0.8-1.7-0.8
		c-0.6,0-1.2,0.3-1.6,0.8C213.5,61.5,213.4,62.4,213.4,63.4z"/>
	<path d="M221.6,57.7v-1.6h1.5v1.6H221.6z M221.6,67.8v-8.5h1.5v8.5H221.6z"/>
	<path d="M225.7,67.8v-7.4h-1.3v-1.2h1.3v-0.9c0-0.6,0-1.1,0.2-1.4c0.1-0.3,0.4-0.8,0.8-0.9c0.3-0.3,0.9-0.3,1.5-0.3
		c0.4,0,0.9,0,1.3,0.1l-0.1,1.2c-0.3,0-0.6-0.1-0.9-0.1c-0.4,0-0.8,0.1-0.9,0.3c-0.2,0.1-0.3,0.6-0.3,1.1v0.8h1.7v1.2h-1.8v7.5
		H225.7z"/>
	<path d="M233.1,66.6l0.1,1.4c-0.4,0.1-0.8,0.1-1,0.1c-0.6,0-0.9-0.1-1.2-0.3c-0.3-0.1-0.4-0.4-0.6-0.6c-0.2-0.3-0.2-0.9-0.2-1.6
		v-4.9h-1v-1.2h1v-2.1l1.5-0.9v3h1.5v1.2h-1.5v4.9c0,0.5,0,0.8,0.2,0.8c0,0.1,0.1,0.1,0.3,0.3c0.2,0,0.3,0.1,0.5,0.1
		C232.6,66.6,232.8,66.6,233.1,66.6z"/>
	<path d="M240.7,67.8l-2.5-8.5h1.5l1.3,4.9l0.4,1.8c0-0.1,0.2-0.8,0.5-1.8l1.3-4.9h1.5l1.3,4.9l0.5,1.6l0.4-1.6l1.5-4.9h1.3
		l-2.7,8.5h-1.5l-1.3-5.1l-0.3-1.5l-1.8,6.6H240.7z"/>
	<path d="M250.9,57.7v-1.6h1.5v1.6H250.9z M250.9,67.8v-8.5h1.5v8.5H250.9z"/>
	<path d="M257.8,66.6l0.1,1.4c-0.4,0.1-0.8,0.1-1,0.1c-0.6,0-0.9-0.1-1.2-0.3c-0.3-0.1-0.4-0.4-0.6-0.6c-0.2-0.3-0.2-0.9-0.2-1.6
		v-4.9h-1v-1.2h1v-2.1l1.5-0.9v3h1.5v1.2h-1.5v4.9c0,0.5,0,0.8,0.2,0.8c0,0.1,0.1,0.1,0.3,0.3c0.2,0,0.3,0.1,0.5,0.1
		C257.3,66.6,257.5,66.6,257.8,66.6z"/>
	<path d="M259.1,67.8V55.9h1.5v4.4c0.8-0.8,1.5-1.2,2.6-1.2c0.6,0,1.2,0.1,1.7,0.3c0.5,0.3,0.8,0.6,1,1.1c0.3,0.4,0.3,1,0.3,1.9v5.4
		h-1.5v-5.4c0-0.8-0.2-1.2-0.4-1.6c-0.3-0.3-0.8-0.4-1.4-0.4c-0.4,0-0.9,0.1-1.2,0.3s-0.6,0.5-0.8,0.9c-0.2,0.5-0.3,0.9-0.3,1.6v4.6
		C260.6,67.8,259.1,67.8,259.1,67.8z"/>
	<path d="M273,71.1V59.2h1.4v1c0.3-0.4,0.6-0.8,1-1c0.5-0.1,0.9-0.3,1.3-0.3c0.8,0,1.3,0.1,1.9,0.6c0.6,0.3,1.1,0.9,1.2,1.6
		c0.3,0.8,0.5,1.5,0.5,2.3c0,0.9-0.2,1.6-0.5,2.4s-0.8,1.2-1.3,1.6c-0.6,0.3-1.2,0.6-1.9,0.6c-0.5,0-0.9-0.1-1.4-0.3
		c-0.4-0.2-0.8-0.5-0.9-0.8v4.2H273L273,71.1z M274.3,63.6c0,1,0.1,1.9,0.6,2.4c0.5,0.6,1.1,0.8,1.7,0.8s1.2-0.3,1.6-0.8
		c0.5-0.6,0.8-1.4,0.8-2.6c0-1-0.1-1.9-0.6-2.4c-0.5-0.6-1.1-0.8-1.7-0.8c-0.6,0-1.2,0.3-1.6,0.9C274.5,61.6,274.3,62.5,274.3,63.6z
		"/>
	<path d="M287.6,67.8v-1.2c-0.6,0.9-1.5,1.5-2.7,1.5c-0.4,0-0.9-0.1-1.3-0.3c-0.5-0.1-0.8-0.4-0.9-0.8c-0.2-0.3-0.3-0.6-0.4-1
		c0-0.3-0.2-0.8-0.2-1.4v-5.3h1.5v4.8c0,0.8,0,1.2,0.2,1.5c0.1,0.5,0.3,0.8,0.6,0.9c0.3,0.1,0.6,0.3,1.1,0.3s0.9-0.1,1.2-0.3
		s0.6-0.6,0.8-0.9c0.2-0.4,0.3-0.9,0.3-1.6v-4.5h1.5v8.3H287.6z"/>
	<path d="M291.3,67.8v-8.5h1.3v1.4c0.3-0.6,0.6-1.1,0.9-1.2c0.3-0.1,0.6-0.3,0.9-0.3c0.5,0,1,0.1,1.5,0.4l-0.5,1.4
		c-0.3-0.1-0.8-0.3-1-0.3s-0.6,0.1-0.9,0.3s-0.4,0.5-0.6,0.8c-0.2,0.5-0.3,1.1-0.3,1.6v4.5L291.3,67.8L291.3,67.8L291.3,67.8z"/>
	<path d="M302.3,64.8l1.3,0.1c-0.2,1.1-0.6,1.8-1.2,2.3c-0.6,0.6-1.5,0.9-2.4,0.9c-1.2,0-2.1-0.4-2.8-1.2c-0.7-0.8-1.1-1.8-1.1-3.3
		c0-0.9,0.2-1.8,0.4-2.4c0.3-0.8,0.8-1.2,1.4-1.5s1.3-0.4,2.1-0.4c0.9,0,1.7,0.3,2.3,0.8c0.6,0.4,0.9,1.2,1.2,1.9l-1.3,0.1
		c-0.2-0.6-0.3-1-0.8-1.4c-0.3-0.3-0.8-0.4-1.2-0.4c-0.8,0-1.4,0.3-1.8,0.8c-0.4,0.4-0.8,1.4-0.8,2.5c0,1.2,0.2,2,0.6,2.6
		c0.4,0.6,1,0.8,1.7,0.8c0.6,0,1.1-0.1,1.3-0.5C301.9,66,302.2,65.4,302.3,64.8z"/>
	<path d="M304.9,67.8V55.9h1.5v4.4c0.8-0.8,1.5-1.2,2.6-1.2c0.6,0,1.2,0.1,1.7,0.3c0.5,0.3,0.8,0.6,1,1.1c0.3,0.4,0.3,1,0.3,1.9v5.4
		h-1.5v-5.4c0-0.8-0.2-1.2-0.4-1.6c-0.3-0.3-0.8-0.4-1.4-0.4c-0.4,0-0.9,0.1-1.2,0.3c-0.3,0.2-0.6,0.5-0.8,0.9
		c-0.2,0.5-0.3,0.9-0.3,1.6v4.6C306.4,67.8,304.9,67.8,304.9,67.8z"/>
	<path d="M319.8,66.7c-0.6,0.4-1.1,0.8-1.5,0.9c-0.4,0.1-1.1,0.3-1.7,0.3c-0.9,0-1.7-0.3-2.1-0.8c-0.4-0.4-0.8-1-0.8-1.8
		c0-0.5,0.2-0.8,0.3-1.2c0.1-0.3,0.4-0.6,0.8-0.9c0.3-0.1,0.6-0.3,1-0.4c0.3,0,0.8-0.1,1.3-0.1c1.2-0.1,2.1-0.3,2.6-0.5
		c0-0.1,0-0.3,0-0.4c0-0.6-0.2-1.1-0.5-1.2c-0.3-0.3-0.9-0.4-1.7-0.4c-0.8,0-1.2,0.1-1.5,0.3c-0.3,0.3-0.6,0.6-0.8,1.2l-1.3-0.1
		c0.2-0.6,0.3-1.1,0.6-1.5c0.3-0.3,0.8-0.6,1.3-0.9c0.6-0.1,1.2-0.3,2-0.3s1.3,0.1,1.8,0.3c0.5,0.1,0.8,0.4,1,0.6
		c0.2,0.3,0.3,0.6,0.5,1c0,0.3,0,0.8,0,1.4v2c0,1.4,0,2.3,0.2,2.5c0.2,0.3,0.2,0.8,0.3,1.1h-1.5C319.9,67.5,319.8,67.2,319.8,66.7z
		 M319.6,63.6c-0.6,0.1-1.3,0.4-2.4,0.6c-0.6,0.1-1.1,0.1-1.2,0.3c-0.2,0.2-0.5,0.3-0.6,0.5c-0.1,0.2-0.1,0.4-0.1,0.8
		s0.1,0.8,0.4,0.9c0.3,0.3,0.8,0.4,1.3,0.4s1-0.1,1.5-0.3c0.5-0.3,0.8-0.6,0.9-1.1c0.2-0.3,0.3-0.8,0.3-1.5L319.6,63.6L319.6,63.6z"
		/>
	<path d="M322.8,65.4l1.5-0.3c0.2,0.6,0.3,1,0.6,1.4c0.3,0.3,0.9,0.4,1.5,0.4c0.6,0,1.2-0.1,1.5-0.4c0.3-0.3,0.5-0.6,0.5-0.9
		c0-0.3-0.2-0.6-0.5-0.8c-0.2-0.1-0.8-0.3-1.5-0.5c-1-0.3-1.8-0.4-2.3-0.8c-0.5-0.1-0.8-0.4-0.9-0.8c-0.2-0.3-0.3-0.8-0.3-1.2
		c0-0.5,0.2-0.8,0.3-1.1c0.2-0.3,0.4-0.6,0.8-0.8c0.2-0.1,0.6-0.3,0.9-0.4c0.5-0.1,0.8-0.1,1.2-0.1c0.6,0,1.2,0.1,1.8,0.3
		c0.5,0.1,0.9,0.5,1,0.8c0.1,0.3,0.5,0.8,0.5,1.4l-1.3,0.1c0-0.4-0.3-0.8-0.6-1c-0.3-0.3-0.8-0.3-1.3-0.3s-1.2,0.1-1.3,0.3
		c-0.3,0.1-0.5,0.4-0.5,0.8c0,0.1,0,0.3,0.2,0.4c0.1,0.1,0.3,0.3,0.6,0.5c0.2,0,0.6,0.1,1.4,0.3c1,0.3,1.8,0.5,2.1,0.6
		c0.3,0.2,0.8,0.5,0.9,0.8c0.3,0.3,0.3,0.8,0.3,1.2c0,0.4-0.2,0.9-0.5,1.4c-0.3,0.4-0.8,0.8-1.2,1c-0.6,0.3-1.2,0.3-1.8,0.3
		c-1,0-1.9-0.3-2.5-0.8C323.2,66.9,322.9,66.3,322.8,65.4z"/>
	<path d="M337.3,65.1l1.5,0.1c-0.3,0.9-0.6,1.5-1.4,2.1c-0.6,0.4-1.5,0.8-2.4,0.8c-1.2,0-2.3-0.5-3-1.2s-1.1-1.8-1.1-3.3
		c0-1.5,0.3-2.6,1.1-3.3c0.8-0.7,1.6-1.2,2.8-1.2c1.2,0,2.1,0.4,2.9,1.2s1,1.8,1,3.3c0,0.1,0,0.1,0,0.4h-6.3c0,0.9,0.3,1.6,0.8,2.1
		s1,0.8,1.8,0.8c0.6,0,1-0.1,1.3-0.4C336.8,66.1,337.1,65.7,337.3,65.1z M332.6,62.8h4.8c0-0.8-0.3-1.2-0.6-1.6
		c-0.5-0.6-1-0.9-1.8-0.9c-0.6,0-1.2,0.1-1.7,0.6C333,61.3,332.6,62.1,332.6,62.8z"/>
	<path d="M341.1,67.8v-1.5h1.6v1.5H341.1z"/>
</g>
<g class="st2">
	<path class="st5" d="M19.4,91.2l1.3,0.2c-0.2,1-0.6,1.8-1.2,2.3c-0.6,0.6-1.5,0.9-2.4,0.9c-1.2,0-2.1-0.5-2.8-1.2
		c-0.8-0.8-1-1.8-1-3.3c0-0.9,0.2-1.8,0.5-2.4s0.8-1.2,1.3-1.5c0.6-0.3,1.3-0.5,2.1-0.5c0.9,0,1.7,0.3,2.3,0.8s0.9,1.2,1.2,2
		l-1.3,0.1c-0.2-0.6-0.3-1.1-0.8-1.3c-0.3-0.3-0.8-0.5-1.2-0.5c-0.8,0-1.3,0.3-1.8,0.8s-0.8,1.4-0.8,2.6s0.2,1.9,0.6,2.6
		c0.5,0.6,1.1,0.8,1.7,0.8s1-0.2,1.3-0.5C19.1,92.4,19.3,91.9,19.4,91.2z"/>
	<path class="st5" d="M21.5,90c0-1.7,0.5-2.7,1.3-3.4c0.8-0.6,1.7-0.9,2.7-0.9c1.2,0,2.1,0.4,2.8,1.2s1,1.8,1,3.2
		c0,1.1-0.1,1.9-0.4,2.6c-0.3,0.6-0.8,1-1.5,1.5s-1.3,0.5-2.1,0.5c-1.2,0-2.1-0.5-2.8-1.2C22,92.5,21.5,91.5,21.5,90z M23,90
		c0,1.1,0.3,1.9,0.8,2.4c0.4,0.6,1.1,0.8,1.8,0.8s1.3-0.3,1.8-0.8c0.5-0.6,0.8-1.3,0.8-2.5c0-1.1-0.3-1.8-0.8-2.4s-1-0.8-1.8-0.8
		s-1.4,0.3-1.8,0.8C23.4,88.2,23,88.9,23,90z"/>
	<path class="st5" d="M31.3,94.3V82.5h1.5v4.2c0.8-0.8,1.5-1.2,2.6-1.2c0.6,0,1.2,0.2,1.6,0.3s0.8,0.6,1.1,1.1
		c0.1,0.4,0.3,1,0.3,1.9v5.4h-1.5v-5.4c0-0.8-0.2-1.2-0.4-1.7c-0.3-0.3-0.8-0.4-1.3-0.4S34.3,86.8,34,87c-0.3,0.2-0.6,0.4-0.8,0.9
		s-0.3,0.9-0.3,1.7v4.6L31.3,94.3L31.3,94.3z"/>
	<path class="st5" d="M39.9,90c0-1.7,0.4-2.7,1.3-3.4c0.8-0.6,1.6-0.9,2.7-0.9c1.2,0,2.1,0.4,2.9,1.2c0.8,0.8,1.1,1.8,1.1,3.2
		c0,1.1-0.1,1.9-0.4,2.6c-0.3,0.6-0.8,1-1.5,1.5c-0.7,0.5-1.4,0.5-2.1,0.5c-1.2,0-2.1-0.5-2.8-1.2C40.3,92.5,39.9,91.5,39.9,90z
		 M41.4,90c0,1.1,0.3,1.9,0.7,2.4c0.4,0.6,1.1,0.8,1.8,0.8s1.3-0.3,1.8-0.8c0.4-0.6,0.8-1.3,0.8-2.5c0-1.1-0.3-1.8-0.8-2.4
		s-1.1-0.8-1.8-0.8s-1.3,0.3-1.8,0.8C41.6,88.2,41.4,88.9,41.4,90z"/>
	<path class="st5" d="M51.1,94.3l-2.6-8.5H50l1.4,4.9l0.4,1.8c0-0.2,0.1-0.8,0.4-1.8l1.4-4.9h1.5l1.4,4.9l0.4,1.6l0.4-1.6l1.5-4.9
		h1.4l-2.7,8.5H56l-1.4-5.1l-0.3-1.5l-1.8,6.6H51.1z"/>
	<path class="st5" d="M61.4,84.1v-1.6h1.5v1.6H61.4z M61.4,94.3v-8.5h1.5v8.5H61.4z"/>
	<path class="st5" d="M65.2,94.3v-8.5h1.4V87c0.6-0.9,1.5-1.4,2.7-1.4c0.4,0,1.1,0.2,1.4,0.3c0.4,0.2,0.8,0.4,0.9,0.8
		s0.3,0.6,0.4,1.1c0,0.3,0.1,0.8,0.1,1.3v5.3h-1.5v-5.3c0-0.6,0-1.1-0.1-1.4c-0.1-0.3-0.3-0.4-0.6-0.8c-0.3-0.4-0.6-0.3-1.1-0.3
		c-0.6,0-1.2,0.2-1.6,0.6s-0.6,1.2-0.6,2.3v4.7L65.2,94.3L65.2,94.3z"/>
	<path class="st5" d="M80.2,91.5l1.5,0.1c-0.3,0.9-0.6,1.5-1.4,2.1c-0.6,0.5-1.5,0.8-2.4,0.8c-1.2,0-2.3-0.5-3-1.2
		c-0.7-0.7-1.1-1.8-1.1-3.3s0.3-2.6,1.1-3.3c0.8-0.7,1.6-1.2,2.9-1.2c1.2,0,2.1,0.4,2.9,1.2s1,1.8,1,3.3c0,0.1,0,0.1,0,0.4h-6.3
		c0,0.9,0.3,1.7,0.8,2.1c0.4,0.4,1.1,0.8,1.8,0.8c0.6,0,1.1-0.2,1.4-0.4C79.6,92.5,79.9,92.2,80.2,91.5z M75.4,89.2h4.8
		c0-0.8-0.3-1.2-0.6-1.7c-0.4-0.6-1.1-0.9-1.8-0.9c-0.6,0-1.2,0.1-1.6,0.6C75.7,87.9,75.4,88.5,75.4,89.2z"/>
	<path class="st5" d="M83.5,94.3v-8.5h1.4v1.3c0.3-0.6,0.6-1.1,0.9-1.2c0.3-0.2,0.6-0.3,0.9-0.3c0.4,0,1.1,0.2,1.5,0.4l-0.6,1.3
		c-0.3-0.1-0.8-0.3-1.1-0.3c-0.3,0-0.6,0.2-0.9,0.3c-0.3,0.1-0.4,0.4-0.6,0.8c-0.1,0.4-0.3,1.1-0.3,1.7v4.5
		C84.7,94.3,83.5,94.3,83.5,94.3z"/>
</g>
<g class="st2">
	<path class="st5" d="M88.9,97.6l-0.2-1.3c0.3,0.1,0.6,0.1,0.9,0.1c0.3,0,0.6,0,0.8-0.1c0.1-0.2,0.3-0.3,0.4-0.5s0.3-0.5,0.4-1
		c0-0.2,0-0.2,0.1-0.3L88,85.8h1.7l1.8,4.9c0.3,0.6,0.4,1.3,0.6,1.9c0.1-0.6,0.3-1.3,0.6-1.9l1.8-4.9H96l-3.3,8.7
		c-0.3,0.9-0.6,1.6-0.8,2c-0.3,0.5-0.6,0.9-0.9,1c-0.3,0.1-0.8,0.3-1.2,0.3C89.5,97.8,89.2,97.8,88.9,97.6z"/>
</g>
<g class="st2">
	<path class="st5" d="M96.4,94.3v-1.7H98v1.7H96.4z"/>
	<path class="st5" d="M106.2,91.2l1.4,0.2c-0.1,1-0.6,1.8-1.2,2.3c-0.6,0.6-1.5,0.9-2.4,0.9c-1.2,0-2.1-0.5-2.9-1.2
		c-0.8-0.8-1-1.8-1-3.3c0-0.9,0.1-1.8,0.5-2.4c0.3-0.6,0.8-1.2,1.4-1.5c0.6-0.3,1.4-0.5,2.1-0.5c0.9,0,1.6,0.3,2.3,0.8
		c0.6,0.5,0.9,1.2,1.2,2l-1.4,0.1c-0.1-0.6-0.3-1.1-0.8-1.3c-0.3-0.3-0.8-0.5-1.2-0.5c-0.8,0-1.4,0.3-1.8,0.8
		c-0.4,0.5-0.8,1.4-0.8,2.6s0.1,1.9,0.6,2.6c0.5,0.6,1,0.8,1.6,0.8c0.6,0,1-0.2,1.4-0.4C105.7,92.4,106,91.9,106.2,91.2z"/>
	<path class="st5" d="M108.3,90c0-1.7,0.5-2.7,1.4-3.4c0.8-0.6,1.6-0.9,2.7-0.9c1.2,0,2.1,0.4,2.9,1.2s1,1.8,1,3.2
		c0,1.1-0.1,1.9-0.5,2.6c-0.3,0.6-0.8,1-1.5,1.5c-0.7,0.5-1.4,0.5-2.1,0.5c-1.2,0-2.1-0.5-2.9-1.2S108.3,91.5,108.3,90z M109.8,90
		c0,1.1,0.3,1.9,0.8,2.4c0.5,0.6,1,0.8,1.8,0.8s1.4-0.3,1.8-0.8c0.5-0.6,0.8-1.3,0.8-2.5c0-1.1-0.3-1.8-0.8-2.4s-1-0.8-1.8-0.8
		s-1.4,0.3-1.8,0.8C109.9,88.2,109.8,88.9,109.8,90z"/>
	<path class="st5" d="M118,94.3v-8.5h1.4V87c0.3-0.4,0.6-0.8,1-1.1c0.5-0.3,0.9-0.4,1.5-0.4c0.6,0,1.2,0.1,1.5,0.4
		c0.3,0.3,0.8,0.6,0.9,1.1c0.8-1.1,1.5-1.5,2.7-1.5c0.9,0,1.5,0.3,2,0.8s0.8,1.2,0.8,2.1v5.8h-1.5v-5.4c0-0.6,0-1.1-0.1-1.2
		c-0.1-0.3-0.3-0.4-0.5-0.6c-0.3-0.2-0.6-0.3-0.9-0.3c-0.6,0-1,0.2-1.5,0.6s-0.6,1-0.6,1.9v4.9h-1.5v-5.4c0-0.6-0.1-1.2-0.3-1.5
		c-0.3-0.3-0.6-0.5-1.2-0.5c-0.5,0-0.8,0.2-1.2,0.3s-0.6,0.6-0.8,0.9c-0.2,0.3-0.3,1-0.3,1.8v4.5L118,94.3L118,94.3z"/>
	<path class="st5" d="M136.3,84.1v-1.6h1.5v1.6H136.3z M136.3,94.3v-8.5h1.5v8.5H136.3z"/>
	<path class="st5" d="M139.3,91.8l1.5-0.3c0.2,0.6,0.3,1.1,0.6,1.3c0.3,0.3,0.9,0.5,1.5,0.5s1.2-0.2,1.5-0.5s0.5-0.6,0.5-0.9
		s-0.2-0.6-0.5-0.8c-0.1-0.2-0.8-0.3-1.5-0.4c-1-0.3-1.8-0.5-2.3-0.8c-0.4-0.2-0.8-0.5-0.9-0.8c-0.1-0.3-0.3-0.8-0.3-1.2
		c0-0.4,0.2-0.8,0.3-1c0.1-0.3,0.5-0.6,0.8-0.8c0.1-0.2,0.6-0.3,0.9-0.5c0.3-0.1,0.8-0.1,1.2-0.1c0.6,0,1.2,0.1,1.8,0.3
		c0.5,0.1,0.9,0.4,1.1,0.8c0.3,0.3,0.4,0.8,0.4,1.3l-1.3,0.1c0-0.4-0.3-0.8-0.6-1.1c-0.3-0.3-0.8-0.3-1.4-0.3s-1.2,0.1-1.4,0.3
		c-0.3,0.2-0.4,0.5-0.4,0.8c0,0.2,0,0.3,0.1,0.5c0.1,0.1,0.3,0.3,0.6,0.4c0.1,0,0.6,0.1,1.3,0.3c1,0.3,1.8,0.4,2.1,0.6
		c0.5,0.2,0.8,0.4,0.9,0.8s0.3,0.8,0.3,1.2c0,0.5-0.1,0.9-0.5,1.4c-0.3,0.4-0.8,0.8-1.2,1.1s-1.2,0.3-1.8,0.3c-1,0-2-0.3-2.5-0.8
		C139.9,93.3,139.5,92.7,139.3,91.8z"/>
	<path class="st5" d="M152.6,94.3v-8.5h1.4v1.3c0.3-0.6,0.6-1.1,0.9-1.2c0.3-0.2,0.6-0.3,0.9-0.3c0.5,0,1,0.2,1.5,0.4l-0.5,1.4
		c-0.3-0.2-0.8-0.3-1-0.3s-0.6,0.2-0.9,0.3c-0.3,0.2-0.4,0.4-0.6,0.8s-0.3,1.1-0.3,1.6v4.5C154,94.3,152.6,94.3,152.6,94.3z"/>
	<path class="st5" d="M163.8,93.3c-0.6,0.5-1,0.8-1.5,0.9c-0.5,0.2-1,0.3-1.6,0.3c-0.9,0-1.7-0.3-2.1-0.8c-0.4-0.5-0.8-1.1-0.8-1.8
		c0-0.4,0.1-0.8,0.3-1.2c0.2-0.3,0.5-0.6,0.8-0.9c0.3-0.2,0.6-0.3,1-0.5c0.3,0,0.8-0.1,1.4-0.1c1.2-0.2,2.1-0.3,2.5-0.4
		c0-0.2,0-0.3,0-0.5c0-0.6-0.1-1-0.4-1.2c-0.3-0.3-0.9-0.4-1.7-0.4c-0.8,0-1.2,0.1-1.5,0.3c-0.3,0.2-0.6,0.6-0.8,1.2l-1.3-0.2
		c0.1-0.6,0.3-1,0.6-1.5c0.3-0.3,0.8-0.6,1.3-0.9c0.6-0.2,1.2-0.3,2-0.3s1.3,0.2,1.8,0.3c0.5,0.1,0.8,0.4,1.1,0.6
		c0.1,0.3,0.3,0.6,0.4,1.1c0,0.3,0,0.8,0,1.4v1.9c0,1.3,0,2.3,0.2,2.6c0.2,0.3,0.2,0.8,0.3,1h-1.5C163.9,94,163.8,93.6,163.8,93.3z
		 M163.6,90c-0.6,0.1-1.4,0.4-2.4,0.6c-0.6,0.2-1.1,0.2-1.2,0.3c-0.3,0.2-0.4,0.3-0.6,0.4c-0.2,0.2-0.2,0.5-0.2,0.8
		c0,0.5,0.2,0.8,0.5,0.9c0.3,0.1,0.8,0.4,1.3,0.4s1-0.1,1.5-0.3c0.5-0.3,0.8-0.6,0.9-1c0.1-0.3,0.3-0.8,0.3-1.5L163.6,90L163.6,90z"
		/>
	<path class="st5" d="M170.5,93l0.1,1.3c-0.4,0.1-0.8,0.1-1,0.1c-0.6,0-0.9-0.1-1.2-0.3c-0.3-0.1-0.4-0.5-0.6-0.6
		c-0.2-0.2-0.2-0.9-0.2-1.7v-4.9h-1v-1.2h1v-2.1l1.5-0.9v3h1.5v1.2h-1.5v4.9c0,0.4,0,0.8,0.2,0.8c0,0.2,0.2,0.2,0.3,0.3
		c0.1,0,0.3,0.1,0.5,0.1C170,93.1,170.2,93,170.5,93z"/>
	<path class="st5" d="M177.7,91.5l1.5,0.1c-0.3,0.9-0.6,1.5-1.4,2.1c-0.6,0.5-1.5,0.8-2.4,0.8c-1.2,0-2.3-0.5-3-1.2
		s-1.1-1.8-1.1-3.3s0.3-2.6,1.1-3.3s1.6-1.2,2.8-1.2s2.1,0.4,2.8,1.2s1.1,1.8,1.1,3.3c0,0.2,0,0.2,0,0.4h-6.3c0,0.9,0.3,1.7,0.8,2.1
		s1.1,0.8,1.8,0.8c0.6,0,1-0.2,1.3-0.4C177.3,92.5,177.5,92.2,177.7,91.5z M173,89.2h4.8c0-0.8-0.3-1.2-0.6-1.7
		c-0.4-0.6-1-0.9-1.8-0.9c-0.6,0-1.2,0.1-1.7,0.6C173.3,87.9,173,88.5,173,89.2z"/>
	<path class="st5" d="M186.5,94.3v-1c-0.6,0.9-1.3,1.2-2.4,1.2c-0.8,0-1.3-0.2-1.9-0.6c-0.6-0.3-1.1-0.9-1.4-1.5
		c-0.3-0.6-0.5-1.5-0.5-2.3c0-0.9,0.2-1.6,0.5-2.3c0.3-0.8,0.8-1.2,1.4-1.6c0.6-0.3,1.2-0.6,1.9-0.6c0.5,0,0.9,0.2,1.4,0.3
		s0.8,0.4,1,0.9v-4.2h1.5v11.9h-1.5V94.3z M182,90c0,1.1,0.3,1.9,0.8,2.4c0.5,0.6,1,0.8,1.7,0.8c0.6,0,1.2-0.3,1.6-0.8
		c0.5-0.4,0.6-1.3,0.6-2.4c0-1.2-0.2-2.1-0.8-2.6c-0.6-0.4-1.1-0.8-1.7-0.8s-1.2,0.3-1.7,0.8C182.2,88,182,88.9,182,90z"/>
	<path class="st5" d="M295,90c0-1.7,0.4-2.7,1.3-3.4c0.8-0.6,1.7-0.9,2.7-0.9c1.2,0,2.1,0.4,2.8,1.2c0.7,0.8,1.1,1.8,1.1,3.2
		c0,1.1-0.2,1.9-0.4,2.6c-0.3,0.6-0.8,1-1.5,1.5c-0.7,0.5-1.4,0.5-2.1,0.5c-1.2,0-2.1-0.5-2.8-1.2S295,91.5,295,90z M296.5,90
		c0,1.1,0.3,1.9,0.8,2.4c0.4,0.6,1.1,0.8,1.8,0.8s1.3-0.3,1.8-0.8c0.5-0.6,0.8-1.3,0.8-2.5c0-1.1-0.3-1.8-0.8-2.4s-1-0.8-1.8-0.8
		s-1.4,0.3-1.8,0.8C296.6,88.2,296.5,88.9,296.5,90z"/>
	<path class="st5" d="M304.6,94.3v-8.5h1.3V87c0.6-0.9,1.5-1.4,2.7-1.4c0.5,0,1.1,0.2,1.4,0.3c0.4,0.2,0.8,0.4,0.9,0.8
		c0.2,0.3,0.3,0.6,0.5,1.1c0,0.3,0.2,0.8,0.2,1.3v5.3h-1.5v-5.3c0-0.6,0-1.1-0.2-1.4c-0.2-0.3-0.3-0.4-0.6-0.8
		c-0.3-0.4-0.6-0.3-1.1-0.3c-0.6,0-1.2,0.2-1.6,0.6c-0.5,0.4-0.6,1.2-0.6,2.3v4.7L304.6,94.3L304.6,94.3z"/>
	<path class="st5" d="M318.6,94.3V82.5h4.3c0.9,0,1.7,0.1,2.1,0.3c0.6,0.3,0.9,0.6,1.3,1c0.3,0.5,0.5,1,0.5,1.5c0,0.4-0.2,1-0.5,1.3
		c-0.3,0.3-0.8,0.8-1.2,1.1c0.8,0.1,1.2,0.6,1.7,1.1c0.5,0.4,0.6,1,0.6,1.8c0,0.6-0.2,1.1-0.3,1.5c-0.1,0.5-0.4,0.9-0.9,1.1
		c-0.3,0.3-0.8,0.5-1.4,0.6c-0.4,0.1-1.2,0.1-1.9,0.1h-4.3L318.6,94.3L318.6,94.3z M320.1,87.4h2.5c0.8,0,1.2,0,1.5-0.1
		c0.5-0.2,0.8-0.3,0.9-0.6c0.1-0.3,0.3-0.6,0.3-1.1c0-0.4-0.2-0.8-0.3-1c-0.1-0.3-0.4-0.5-0.8-0.6s-0.9-0.1-1.8-0.1H320L320.1,87.4
		C320,87.4,320.1,87.4,320.1,87.4z M320.1,93h3c0.4,0,0.9,0,1,0c0.3,0,0.6-0.2,0.9-0.3c0.3-0.1,0.4-0.3,0.6-0.6
		c0.1-0.3,0.3-0.6,0.3-1.1s-0.1-0.8-0.3-1.2c-0.3-0.3-0.6-0.6-0.9-0.8c-0.3-0.2-0.9-0.2-1.8-0.2h-2.8V93z"/>
	<path class="st5" d="M329.3,84.1v-1.6h1.5v1.6H329.3z M329.3,94.3v-8.5h1.5v8.5H329.3z"/>
	<path class="st5" d="M333,94.3v-8.5h1.4V87c0.6-0.9,1.5-1.4,2.7-1.4c0.5,0,1.1,0.2,1.4,0.3c0.5,0.2,0.8,0.4,0.9,0.8
		c0.2,0.3,0.3,0.6,0.5,1.1c0,0.3,0.2,0.8,0.2,1.3v5.3h-1.5v-5.3c0-0.6,0-1.1-0.2-1.4c-0.1-0.3-0.3-0.4-0.6-0.8
		c-0.3-0.4-0.6-0.3-1-0.3c-0.6,0-1.2,0.2-1.7,0.6s-0.6,1.2-0.6,2.3v4.7L333,94.3L333,94.3z"/>
	<path class="st5" d="M342,95.1l1.4,0.1c0,0.5,0.1,0.8,0.4,0.9c0.3,0.3,0.9,0.5,1.5,0.5c0.6,0,1.2-0.2,1.5-0.5s0.6-0.6,0.8-1.2
		c0-0.3,0.2-0.9,0.2-1.8c-0.6,0.8-1.3,1.1-2.4,1.1c-1.2,0-2.1-0.5-2.7-1.2c-0.6-0.9-0.9-1.8-0.9-3c0-0.8,0.2-1.5,0.5-2.3
		s0.8-1.2,1.4-1.6c0.6-0.3,1.2-0.6,1.9-0.6c1.1,0,1.8,0.5,2.6,1.2v-0.9h1.3v7.3c0,1.4-0.2,2.3-0.5,2.9s-0.8,1-1.3,1.3
		c-0.6,0.3-1.4,0.5-2.1,0.5c-1,0-1.8-0.3-2.4-0.8C342.2,96.6,342,96,342,95.1z M343.1,89.8c0,1.1,0.2,2,0.6,2.4
		c0.4,0.4,1,0.8,1.6,0.8c0.6,0,1.2-0.3,1.7-0.8c0.4-0.4,0.8-1.4,0.8-2.4s-0.3-1.8-0.8-2.4s-1.1-0.8-1.7-0.8c-0.6,0-1.2,0.3-1.6,0.8
		C343.3,88,343.1,88.8,343.1,89.8z"/>
	<path class="st5" d="M358.7,97.8c-0.8-1-1.5-2.3-2.1-3.6c-0.6-1.3-0.9-2.7-0.9-4.2c0-1.4,0.2-2.6,0.6-3.6c0.5-1.3,1.2-2.7,2.3-4h1
		c-0.6,1.1-1,2-1.3,2.4c-0.3,0.8-0.6,1.5-0.8,2.3c-0.3,1.1-0.3,1.9-0.3,3c0,2.6,0.8,5.1,2.4,7.8C359.6,97.8,358.7,97.8,358.7,97.8z"
		/>
</g>
<g class="st2">
	<path class="st6" d="M361.1,91.6l1.4-0.1c0.1,0.6,0.3,1.2,0.8,1.3c0.3,0.3,0.8,0.5,1.3,0.5s0.9-0.1,1.2-0.3
		c0.3-0.2,0.6-0.4,0.8-0.8c0.2-0.3,0.5-0.8,0.6-1.3c0.2-0.6,0.2-1.2,0.2-1.8c0,0,0-0.1,0-0.3c-0.3,0.5-0.8,0.9-1.2,1.1
		s-1,0.4-1.6,0.4c-1,0-1.8-0.3-2.5-1.1s-1-1.7-1-2.9c0-1.2,0.3-2.1,1-2.8c0.7-0.7,1.7-1.1,2.7-1.1c0.8,0,1.5,0.1,2.1,0.6
		c0.6,0.5,1,1,1.5,1.8c0.3,0.8,0.5,1.8,0.5,3.3s-0.2,2.7-0.5,3.6s-0.8,1.5-1.5,2.1c-0.6,0.5-1.3,0.8-2.3,0.8c-0.9,0-1.6-0.3-2.3-0.8
		C361.6,93.4,361.3,92.5,361.1,91.6z M367.1,86.4c0-0.9-0.1-1.5-0.6-1.9c-0.4-0.5-0.9-0.8-1.7-0.8c-0.6,0-1.2,0.3-1.6,0.8
		c-0.5,0.4-0.8,1.2-0.8,2.1c0,0.8,0.3,1.4,0.8,1.8s1,0.8,1.6,0.8c0.6,0,1.2-0.3,1.7-0.8C366.8,87.9,367.1,87.1,367.1,86.4z"/>
	<path class="st6" d="M372.4,87.9c-0.6-0.1-1-0.6-1.3-0.9c-0.3-0.5-0.5-0.9-0.5-1.5c0-0.9,0.3-1.7,0.9-2.1c0.6-0.5,1.5-0.9,2.4-0.9
		c1,0,1.8,0.3,2.5,0.9c0.8,0.6,0.9,1.4,0.9,2.3c0,0.6-0.2,1.1-0.5,1.5s-0.8,0.8-1.3,0.9c0.8,0.3,1.2,0.6,1.6,1.2
		c0.4,0.6,0.6,1.2,0.6,1.9c0,1.1-0.3,1.8-1.1,2.5c-0.8,0.8-1.6,1-2.8,1c-1.2,0-2.1-0.3-2.9-1s-1-1.5-1-2.6c0-0.8,0.2-1.3,0.6-1.9
		C371.1,88.5,371.6,88,372.4,87.9z M371.6,90.9c0,0.4,0.2,0.8,0.3,1.2c0.1,0.5,0.4,0.8,0.9,0.9s0.8,0.3,1.2,0.3
		c0.8,0,1.2-0.2,1.6-0.6c0.5-0.4,0.8-1.1,0.8-1.6c0-0.8-0.3-1.2-0.8-1.8c-0.5-0.4-1-0.8-1.8-0.8s-1.2,0.1-1.7,0.8
		C371.8,89.7,371.6,90.3,371.6,90.9z M372.1,85.5c0,0.6,0.1,1.1,0.6,1.3c0.3,0.3,0.9,0.6,1.3,0.6c0.6,0,1-0.2,1.3-0.6
		c0.3-0.3,0.6-0.8,0.6-1.3c0-0.6-0.1-1.1-0.6-1.4c-0.3-0.3-0.8-0.6-1.3-0.6s-1,0.1-1.3,0.6C372.2,84.6,372.1,85,372.1,85.5z"/>
	<path class="st6" d="M384.2,94.3v-8.5h1.3v1.3c0.3-0.6,0.6-1.1,0.9-1.2c0.3-0.2,0.6-0.3,0.9-0.3c0.4,0,1.1,0.2,1.5,0.4l-0.4,1.4
		c-0.3-0.2-0.8-0.3-1.1-0.3c-0.3,0-0.6,0.2-0.9,0.3s-0.4,0.4-0.6,0.8c-0.1,0.4-0.3,1.1-0.3,1.6v4.5
		C385.5,94.3,384.2,94.3,384.2,94.3z"/>
	<path class="st6" d="M395.6,91.5l1.5,0.1c-0.3,0.9-0.6,1.5-1.3,2.1c-0.6,0.5-1.5,0.8-2.4,0.8c-1.2,0-2.3-0.5-3-1.2
		c-0.8-0.8-1.1-1.8-1.1-3.3s0.3-2.6,1.1-3.3c0.8-0.7,1.7-1.2,2.9-1.2c1.2,0,2.1,0.4,2.8,1.2c0.7,0.8,1.1,1.8,1.1,3.3
		c0,0.2,0,0.2,0,0.4h-6.3c0,0.9,0.3,1.7,0.8,2.1c0.4,0.4,1.1,0.8,1.8,0.8c0.6,0,1.1-0.2,1.4-0.4C395.1,92.5,395.4,92.2,395.6,91.5z
		 M390.9,89.2h4.8c0-0.8-0.3-1.2-0.6-1.7c-0.4-0.6-1.1-0.9-1.8-0.9c-0.6,0-1.2,0.1-1.6,0.6C391.1,87.7,390.9,88.5,390.9,89.2z"/>
	<path class="st6" d="M401.4,94.3l-3.3-8.5h1.5l1.8,5.1c0.1,0.6,0.4,1.2,0.6,1.7c0.2-0.5,0.3-1.1,0.6-1.7l1.9-5.3h1.5l-3.3,8.5
		L401.4,94.3L401.4,94.3z"/>
	<path class="st6" d="M407.2,84.1v-1.6h1.5v1.6H407.2z M407.2,94.3v-8.5h1.5v8.5H407.2z"/>
	<path class="st6" d="M416.6,91.5l1.5,0.1c-0.3,0.9-0.6,1.5-1.3,2.1c-0.6,0.5-1.5,0.8-2.4,0.8c-1.2,0-2.3-0.5-3-1.2
		c-0.8-0.8-1.1-1.8-1.1-3.3s0.3-2.6,1.1-3.3c0.8-0.7,1.7-1.2,2.9-1.2c1.2,0,2.1,0.4,2.8,1.2c0.7,0.8,1.1,1.8,1.1,3.3
		c0,0.2,0,0.2,0,0.4h-6.3c0,0.9,0.3,1.7,0.8,2.1c0.4,0.4,1.1,0.8,1.8,0.8c0.6,0,1.1-0.2,1.4-0.4C416.2,92.5,416.5,92.2,416.6,91.5z
		 M411.9,89.2h4.8c0-0.8-0.3-1.2-0.6-1.7c-0.4-0.6-1.1-0.9-1.8-0.9c-0.6,0-1.2,0.1-1.6,0.6C412.1,87.7,412,88.5,411.9,89.2z"/>
	<path class="st6" d="M421.6,94.3l-2.6-8.5h1.5l1.3,4.9l0.4,1.8c0-0.2,0.2-0.8,0.4-1.8l1.4-4.9h1.5l1.3,4.9l0.4,1.6l0.4-1.6l1.5-4.9
		h1.4l-2.7,8.5h-1.5l-1.4-5.1l-0.3-1.5l-1.8,6.6H421.6z"/>
	<path class="st6" d="M431.4,91.8l1.5-0.3c0.1,0.6,0.3,1.1,0.6,1.3c0.3,0.3,0.9,0.5,1.5,0.5c0.6,0,1.2-0.2,1.5-0.5s0.4-0.6,0.4-0.9
		s-0.1-0.6-0.4-0.8c-0.1-0.2-0.8-0.3-1.5-0.4c-1.1-0.3-1.8-0.5-2.3-0.8c-0.4-0.2-0.8-0.5-0.9-0.8c-0.2-0.3-0.3-0.8-0.3-1.2
		c0-0.4,0.1-0.8,0.3-1c0.1-0.3,0.4-0.6,0.8-0.8c0.3-0.2,0.6-0.3,0.9-0.5c0.4-0.1,0.8-0.1,1.2-0.1c0.6,0,1.2,0.1,1.8,0.3
		c0.4,0.1,0.9,0.4,1.1,0.8c0.3,0.3,0.4,0.8,0.4,1.3l-1.3,0.2c0-0.5-0.3-0.8-0.6-1.1c-0.3-0.3-0.8-0.3-1.3-0.3
		c-0.6,0-1.2,0.2-1.4,0.3c-0.3,0.1-0.4,0.4-0.4,0.8c0,0.1,0,0.3,0.2,0.4c0.1,0.2,0.3,0.3,0.6,0.4c0.2,0,0.6,0.2,1.4,0.3
		c1.1,0.3,1.8,0.4,2.1,0.6c0.4,0.1,0.8,0.4,0.9,0.8c0.3,0.3,0.3,0.8,0.3,1.2s-0.2,0.9-0.4,1.3c-0.3,0.5-0.8,0.8-1.2,1.1
		c-0.6,0.3-1.2,0.3-1.8,0.3c-1.1,0-1.9-0.3-2.6-0.8C431.8,93.3,431.5,92.7,431.4,91.8z"/>
</g>
<g class="st2">
	<path class="st5" d="M441.1,97.8H440c1.6-2.5,2.4-5.1,2.4-7.8c0-1.1-0.1-1.9-0.3-3c-0.1-0.8-0.4-1.7-0.8-2.3
		c-0.1-0.4-0.6-1.4-1.3-2.4h1.1c1.1,1.4,1.8,2.7,2.3,4c0.4,1.2,0.6,2.4,0.6,3.6c0,1.5-0.3,2.8-0.9,4.2
		C442.5,95.5,441.9,96.7,441.1,97.8z"/>
</g>
<polygon class="st7" points="205.9,81.9 207.7,86.7 212.8,87 208.9,90.1 210.3,95.2 205.9,92.4 201.5,95.2 202.9,90.1 198.8,87 
	204,86.7 "/>
<polygon class="st7" points="222.6,81.9 224.5,86.7 229.6,87 225.6,90.1 226.9,95.2 222.6,92.4 218.2,95.2 219.6,90.1 215.6,87 
	220.8,86.7 "/>
<polygon class="st7" points="239.8,81.9 241.8,86.7 246.8,87 242.8,90.1 244.1,95.2 239.8,92.4 235.5,95.2 236.8,90.1 232.9,87 
	238,86.7 "/>
<polygon class="st7" points="256.3,81.9 258.1,86.7 263.3,87 259.3,90.1 260.6,95.2 256.3,92.4 252,95.2 253.3,90.1 249.3,87 
	254.5,86.7 "/>
<polygon class="st8" points="272.8,81.9 274.6,86.7 279.7,87 275.8,90.1 277.1,95.2 272.8,92.4 268.5,95.2 269.8,90.1 265.8,87 
	270.8,86.7 "/>
<path class="st9" d="M15.8,26.1c-8.5,15.8,19,13.8,10,0H15.8z M16.9,27.1H25C32,38.2,10,39.7,16.9,27.1L16.9,27.1z"/>
<path class="st9" d="M20,36.6v4.8c-1.5,0.2-3,0.9-4,1.9c3.1,0.2,6.3,0.2,9.5,0.2c-1.1-1.2-2.5-1.8-4.2-1.9v-4.9
	C20.8,36.6,20.3,36.6,20,36.6z"/>
<polygon class="st9" points="14,30 27.2,30 27.1,32.8 25.1,35.4 22.3,36.4 19.3,36.9 17,36 15.2,34.6 14,32.7 "/>
<g>
	<path class="st1" d="M13.9,121.5v-11.9h5.3c1,0,1.8,0.2,2.4,0.3c0.6,0.2,1,0.6,1.3,1.2s0.5,1.2,0.5,1.8c0,0.9-0.3,1.5-0.8,2.1
		c-0.6,0.6-1.4,0.9-2.5,1c0.4,0.1,0.8,0.5,0.9,0.6c0.5,0.5,0.9,0.9,1.4,1.5l2.1,3.2h-2l-1.5-2.4c-0.5-0.8-0.9-1.2-1.2-1.6
		c-0.3-0.5-0.6-0.6-0.8-0.8c-0.3-0.2-0.4-0.3-0.8-0.3c-0.1,0-0.4,0-0.9,0h-1.8v5.3C15.5,121.5,13.9,121.5,13.9,121.5z M15.4,114.9
		h3.3c0.8,0,1.2,0,1.7-0.1c0.5-0.2,0.8-0.5,0.9-0.8s0.3-0.8,0.3-1c0-0.6-0.2-1-0.6-1.4c-0.5-0.3-1-0.6-2-0.6h-3.8L15.4,114.9
		L15.4,114.9z"/>
	<path class="st1" d="M31.4,118.8l1.5,0.1c-0.3,0.9-0.6,1.5-1.3,2.1c-0.8,0.6-1.5,0.8-2.4,0.8c-1.2,0-2.3-0.5-3-1.2
		s-1.1-1.8-1.1-3.3s0.3-2.5,1.1-3.3s1.7-1.2,2.8-1.2s2.1,0.5,2.8,1.2s1.1,1.8,1.1,3.3c0,0.1,0,0.1,0,0.5h-6.5c0,0.9,0.3,1.6,0.8,2.1
		s1.1,0.8,1.8,0.8c0.6,0,1.1-0.1,1.3-0.5C30.7,119.8,31.1,119.4,31.4,118.8z M26.6,116.4h4.8c0-0.8-0.3-1.2-0.6-1.6
		c-0.5-0.6-1.1-0.9-1.8-0.9c-0.6,0-1.2,0.2-1.7,0.6C26.9,115,26.6,115.6,26.6,116.4z"/>
	<path class="st1" d="M40.3,121.5v-1c-0.6,0.9-1.3,1.2-2.4,1.2c-0.8,0-1.3-0.2-1.9-0.6s-1.1-0.9-1.3-1.5c-0.3-0.6-0.5-1.5-0.5-2.3
		c0-0.9,0.2-1.6,0.5-2.3c0.3-0.6,0.8-1.2,1.3-1.6c0.6-0.3,1.2-0.6,1.9-0.6c0.5,0,0.9,0.2,1.3,0.3c0.5,0.2,0.8,0.5,1.1,0.9v-4.2h1.5
		v11.8L40.3,121.5L40.3,121.5z M35.6,117.3c0,1,0.3,2,0.8,2.4c0.5,0.6,1.1,0.8,1.7,0.8s1.2-0.3,1.7-0.8c0.4-0.5,0.6-1.3,0.6-2.4
		c0-1.2-0.3-2.1-0.8-2.5c-0.4-0.4-1.1-0.8-1.7-0.8s-1.2,0.3-1.7,0.8C35.9,115.3,35.6,116.1,35.6,117.3z"/>
	<path class="st1" d="M50,121.5l-2.6-8.5h1.5l1.4,5l0.4,1.8c0-0.2,0.1-0.8,0.4-1.8l1.4-5H54l1.4,5l0.4,1.6l0.4-1.6l1.5-5h1.4
		l-2.7,8.5h-1.5l-1.4-5.1l-0.3-1.5l-1.8,6.6H50z"/>
	<path class="st1" d="M60.4,111.4v-1.6h1.5v1.6H60.4z M60.4,121.5V113h1.5v8.5H60.4z"/>
	<path class="st1" d="M64,121.5V113h1.4v1.1c0.6-0.9,1.5-1.4,2.7-1.4c0.4,0,1.1,0.2,1.4,0.3c0.4,0.2,0.8,0.5,0.9,0.8
		c0.1,0.3,0.3,0.6,0.4,1c0,0.3,0.1,0.8,0.1,1.4v5.3h-1.5v-5.3c0-0.6,0-1-0.1-1.4c-0.1-0.3-0.3-0.6-0.6-0.8c-0.3-0.1-0.6-0.3-1.1-0.3
		c-0.6,0-1.2,0.2-1.6,0.6c-0.4,0.4-0.6,1.2-0.6,2.3v4.6L64,121.5L64,121.5z"/>
	<path class="st1" d="M79.2,118.8l1.5,0.1c-0.3,0.9-0.6,1.5-1.4,2.1c-0.8,0.6-1.5,0.8-2.4,0.8c-1.2,0-2.3-0.5-3-1.2
		c-0.7-0.7-1.1-1.8-1.1-3.3s0.3-2.5,1.1-3.3c0.8-0.8,1.6-1.2,2.8-1.2s2.1,0.5,2.9,1.2c0.8,0.7,1.1,1.8,1.1,3.3c0,0.1,0,0.1,0,0.5
		h-6.5c0,0.9,0.3,1.6,0.8,2.1s1.1,0.8,1.8,0.8c0.6,0,1.1-0.1,1.4-0.5C78.4,119.8,78.8,119.4,79.2,118.8z M74.3,116.4h4.8
		c0-0.8-0.3-1.2-0.6-1.6c-0.4-0.7-1-1-1.8-1c-0.6,0-1.2,0.2-1.6,0.6C74.7,115,74.3,115.6,74.3,116.4z"/>
	<path class="st1" d="M81.8,118.9l1.5-0.3c0.1,0.6,0.3,1,0.6,1.4c0.3,0.3,0.9,0.5,1.5,0.5c0.6,0,1.2-0.2,1.5-0.5
		c0.3-0.3,0.4-0.6,0.4-0.9s-0.1-0.6-0.4-0.8c-0.1-0.1-0.8-0.3-1.5-0.5c-1.1-0.3-1.8-0.5-2.3-0.8c-0.4-0.1-0.8-0.5-0.9-0.8
		s-0.3-0.8-0.3-1.2s0.1-0.8,0.3-1c0.1-0.3,0.4-0.6,0.8-0.8c0.3-0.1,0.6-0.3,0.9-0.5c0.4-0.1,0.8-0.1,1.2-0.1c0.6,0,1.2,0.1,1.8,0.3
		c0.4,0.1,0.9,0.5,1.1,0.8c0.3,0.3,0.4,0.8,0.4,1.3l-1.4,0.2c0-0.5-0.3-0.8-0.6-1c-0.3-0.2-0.8-0.3-1.4-0.3s-1.2,0.1-1.5,0.3
		c-0.3,0.1-0.4,0.5-0.4,0.8c0,0.1,0,0.3,0.1,0.5c0.1,0.1,0.3,0.3,0.6,0.5c0.1,0,0.6,0.1,1.4,0.3c1.1,0.3,1.8,0.5,2.1,0.6
		c0.4,0.2,0.8,0.5,0.9,0.8s0.3,0.8,0.3,1.2s-0.1,0.9-0.4,1.4c-0.3,0.5-0.8,0.8-1.2,1c-0.6,0.3-1.2,0.3-1.8,0.3
		c-1.1,0-1.9-0.3-2.6-0.8C82.4,120.6,82,119.8,81.8,118.9z"/>
	<path class="st1" d="M12.5,123.9v-1.2h77.2v1.2H12.5z"/>
</g>
<g>
	<path class="st1" d="M129.4,121.3l-3.1-11.9h1.6l1.8,7.8c0.1,0.8,0.3,1.7,0.5,2.4c0.3-1.2,0.5-2,0.6-2.3l2.3-8h2l1.6,6
		c0.5,1.5,0.8,2.8,0.9,4.2c0.1-0.8,0.3-1.7,0.6-2.5l1.8-7.7h1.5l-3.3,11.9h-1.5l-2.5-9c-0.1-0.8-0.3-1.2-0.3-1.4
		c-0.1,0.6-0.3,1-0.3,1.4l-2.5,9L129.4,121.3L129.4,121.3z"/>
	<path class="st1" d="M142.8,121.3v-11.8h1.5v4.2c0.8-0.8,1.5-1.2,2.5-1.2c0.6,0,1.2,0.2,1.7,0.3c0.4,0.3,0.8,0.6,1,1
		c0.2,0.5,0.3,1,0.3,2v5.4h-1.5v-5.4c0-0.8-0.2-1.2-0.5-1.7c-0.3-0.3-0.8-0.5-1.3-0.5s-0.9,0.2-1.2,0.3c-0.5,0.2-0.6,0.5-0.8,0.9
		c-0.1,0.5-0.3,0.9-0.3,1.6v4.7h-1.5L142.8,121.3L142.8,121.3z"/>
	<path class="st1" d="M151.9,111.1v-1.6h1.5v1.6H151.9z M151.9,121.3v-8.5h1.5v8.5H151.9z"/>
	<path class="st1" d="M158.8,120l0.2,1.3c-0.5,0.2-0.8,0.2-1.1,0.2c-0.6,0-0.9-0.2-1.2-0.3c-0.3-0.2-0.5-0.5-0.6-0.6
		c-0.1-0.1-0.1-0.9-0.1-1.6v-5h-1.1v-1.2h1.1v-2.1l1.5-0.9v3h1.5v1.2h-1.5v5c0,0.5,0,0.8,0.1,0.8c0,0.1,0.1,0.1,0.3,0.3
		c0.2,0,0.3,0.1,0.5,0.1C158.2,120.1,158.5,120,158.8,120z"/>
	<path class="st1" d="M166,118.5l1.5,0.1c-0.3,0.9-0.6,1.5-1.4,2.1c-0.8,0.6-1.5,0.8-2.4,0.8c-1.2,0-2.3-0.5-3-1.2s-1-1.8-1-3.3
		s0.3-2.5,1-3.3s1.6-1.2,2.9-1.2c1.2,0,2.1,0.5,2.8,1.2c0.7,0.7,1,1.8,1,3.3c0,0.1,0,0.1,0,0.5h-6.5c0,0.9,0.3,1.6,0.8,2.1
		s1,0.8,1.8,0.8c0.6,0,1-0.1,1.4-0.5C165.3,119.5,165.8,119.2,166,118.5z M161.2,116.2h4.8c0-0.8-0.3-1.2-0.6-1.7
		c-0.5-0.6-1-0.9-1.8-0.9c-0.6,0-1.2,0.1-1.6,0.6C161.5,114.9,161.3,115.5,161.2,116.2z"/>
	<path class="st1" d="M175.5,121.3l-2.6-8.5h1.5l1.4,5l0.5,1.8c0-0.2,0.2-0.8,0.5-1.8l1.4-5h1.5l1.3,5l0.5,1.6l0.5-1.6l1.5-5h1.3
		l-2.7,8.5h-1.5l-1.4-5.1l-0.3-1.5l-1.8,6.6H175.5z"/>
	<path class="st1" d="M185.8,111.1v-1.6h1.5v1.6H185.8z M185.8,121.3v-8.5h1.5v8.5H185.8z"/>
	<path class="st1" d="M189.5,121.3v-8.5h1.3v1.2c0.6-0.9,1.5-1.4,2.7-1.4c0.5,0,1,0.2,1.3,0.3c0.5,0.2,0.8,0.5,0.9,0.8
		c0.1,0.3,0.3,0.6,0.5,1c0,0.3,0.2,0.8,0.2,1.4v5.3h-1.5v-5.3c0-0.6,0-1-0.2-1.4c-0.2-0.3-0.3-0.6-0.6-0.8c-0.3-0.1-0.6-0.3-1-0.3
		c-0.6,0-1.2,0.2-1.7,0.6s-0.6,1.2-0.6,2.3v4.6L189.5,121.3L189.5,121.3z"/>
	<path class="st1" d="M204.6,118.5l1.5,0.1c-0.3,0.9-0.6,1.5-1.4,2.1c-0.8,0.6-1.5,0.8-2.4,0.8c-1.2,0-2.3-0.5-3-1.2s-1-1.8-1-3.3
		s0.3-2.5,1-3.3s1.7-1.2,2.8-1.2c1.2,0,2.1,0.5,2.9,1.2s1,1.8,1,3.3c0,0.1,0,0.1,0,0.5h-6.5c0,0.9,0.3,1.6,0.8,2.1s1,0.8,1.8,0.8
		c0.6,0,1.1-0.1,1.3-0.5C203.8,119.5,204.3,119.2,204.6,118.5z M199.8,116.2h4.8c0-0.8-0.3-1.2-0.6-1.7c-0.4-0.6-1-0.9-1.8-0.9
		c-0.6,0-1.2,0.1-1.7,0.6C200,114.9,199.8,115.5,199.8,116.2z"/>
	<path class="st1" d="M207.3,118.8l1.5-0.3c0.2,0.6,0.3,1,0.6,1.3s0.9,0.5,1.5,0.5s1.2-0.1,1.5-0.5c0.3-0.3,0.5-0.6,0.5-0.9
		s-0.2-0.6-0.5-0.8c-0.2-0.2-0.8-0.3-1.5-0.5c-1-0.3-1.8-0.5-2.3-0.8c-0.5-0.2-0.8-0.5-0.9-0.8s-0.3-0.8-0.3-1.2s0.2-0.8,0.3-1
		c0.2-0.3,0.4-0.6,0.8-0.8c0.3-0.2,0.6-0.3,0.9-0.5c0.5-0.2,0.8-0.2,1.2-0.2c0.6,0,1.2,0.2,1.8,0.3c0.5,0.2,0.9,0.5,1,0.8
		c0.3,0.3,0.5,0.8,0.5,1.4l-1.3,0.1c0-0.5-0.3-0.8-0.6-1s-0.8-0.3-1.3-0.3s-1.2,0.2-1.5,0.3c-0.3,0.2-0.4,0.5-0.4,0.8
		c0,0.2,0,0.3,0.1,0.5c0.2,0.2,0.3,0.3,0.6,0.5c0.1,0,0.6,0.2,1.3,0.3c1.1,0.3,1.8,0.5,2.1,0.6c0.4,0.1,0.8,0.5,0.9,0.8
		c0.2,0.3,0.3,0.8,0.3,1.2s-0.2,0.9-0.4,1.3c-0.3,0.5-0.8,0.8-1.2,1c-0.6,0.3-1.2,0.3-1.8,0.3c-1.1,0-2-0.3-2.6-0.8
		C207.8,120.3,207.4,119.7,207.3,118.8z"/>
	<path class="st1" d="M126.1,123.6v-1.2h89v1.2H126.1z"/>
</g>
<g class="st2">
	<path class="st1" d="M251.5,120.9l-3.2-11.8h1.7l1.8,7.8c0.1,0.8,0.3,1.6,0.4,2.4c0.3-1.2,0.4-2,0.6-2.3l2.3-8h2l1.6,6
		c0.5,1.5,0.8,2.9,0.9,4.2c0.1-0.8,0.3-1.6,0.6-2.5l1.8-7.6h1.5l-3.3,11.8h-1.5l-2.5-9c-0.2-0.8-0.3-1.2-0.3-1.3
		c-0.2,0.6-0.3,1-0.3,1.3l-2.6,9H251.5z"/>
	<path class="st1" d="M248.2,123.1v-1.2h14.9v1.2H248.2z"/>
</g>
<g class="st2">
	<path class="st1" d="M269.8,119.8c-0.6,0.5-1.1,0.8-1.5,0.9c-0.5,0.2-1.1,0.3-1.7,0.3c-0.9,0-1.6-0.3-2.1-0.8s-0.8-1-0.8-1.8
		c0-0.5,0.1-0.8,0.3-1.2c0.2-0.3,0.5-0.6,0.8-0.9c0.3-0.2,0.6-0.3,1-0.5c0.3,0,0.8-0.2,1.4-0.2c1.2-0.1,2.1-0.3,2.5-0.5
		c0-0.1,0-0.3,0-0.5c0-0.6-0.2-1-0.5-1.2c-0.3-0.3-0.9-0.5-1.6-0.5s-1.2,0.2-1.5,0.3c-0.3,0.3-0.6,0.6-0.8,1.2l-1.4-0.1
		c0.2-0.6,0.3-1,0.6-1.5c0.3-0.3,0.8-0.6,1.3-0.9c0.6-0.1,1.2-0.3,2-0.3c0.8,0,1.3,0.2,1.8,0.3c0.5,0.2,0.8,0.5,1.1,0.6
		c0.2,0.3,0.3,0.6,0.4,1c0,0.3,0,0.8,0,1.3v2.1c0,1.3,0,2.3,0.2,2.5c0,0.3,0.1,0.8,0.3,1h-1.5C270,120.6,269.8,120.1,269.8,119.8z
		 M269.6,116.5c-0.6,0.1-1.3,0.5-2.4,0.6c-0.6,0.2-1.1,0.2-1.2,0.3c-0.3,0.2-0.5,0.3-0.6,0.5c-0.2,0.2-0.2,0.5-0.2,0.8
		c0,0.5,0.2,0.8,0.5,0.9c0.3,0.3,0.8,0.5,1.3,0.5c0.6,0,1.1-0.2,1.5-0.3c0.5-0.2,0.8-0.6,0.9-1c0.1-0.3,0.3-0.8,0.3-1.5L269.6,116.5
		L269.6,116.5z"/>
	<path class="st1" d="M272.8,118.3l1.5-0.3c0.1,0.6,0.3,1,0.6,1.3c0.3,0.3,0.9,0.5,1.5,0.5c0.6,0,1.2-0.1,1.5-0.5
		c0.3-0.3,0.5-0.6,0.5-0.9s-0.2-0.6-0.5-0.8c-0.1-0.2-0.8-0.3-1.5-0.5c-1-0.3-1.8-0.5-2.3-0.8c-0.4-0.2-0.8-0.5-0.9-0.8
		c-0.2-0.3-0.3-0.8-0.3-1.2s0.2-0.8,0.3-1s0.4-0.6,0.8-0.8c0.3-0.2,0.6-0.3,0.9-0.5s0.8-0.2,1.2-0.2c0.6,0,1.2,0.2,1.8,0.3
		c0.5,0.2,0.9,0.5,1.2,0.8s0.5,0.8,0.5,1.4l-1.4,0.1c0-0.5-0.3-0.8-0.6-1c-0.3-0.3-0.8-0.3-1.4-0.3c-0.6,0-1.2,0.2-1.5,0.3
		c-0.3,0.2-0.4,0.5-0.4,0.8c0,0.2,0,0.3,0.2,0.5c0.2,0.2,0.3,0.3,0.6,0.5c0.2,0,0.6,0.2,1.3,0.3c1,0.3,1.8,0.5,2.1,0.6
		c0.4,0.1,0.8,0.5,0.9,0.8c0.3,0.3,0.3,0.8,0.3,1.2s-0.1,0.9-0.4,1.3s-0.8,0.8-1.2,1c-0.6,0.3-1.2,0.3-1.8,0.3
		c-1.1,0-1.9-0.3-2.6-0.8C273.4,119.8,273,119.2,272.8,118.3z"/>
	<path class="st1" d="M281.6,120.9V109h1.5v4.2c0.8-0.8,1.5-1.2,2.6-1.2c0.6,0,1.2,0.1,1.7,0.3c0.5,0.3,0.8,0.6,1,1
		c0.2,0.5,0.3,1,0.3,2v5.4h-1.5v-5.4c0-0.8-0.2-1.2-0.4-1.7c-0.3-0.3-0.8-0.5-1.4-0.5c-0.4,0-0.9,0.2-1.2,0.3
		c-0.4,0.2-0.6,0.5-0.8,0.9c-0.2,0.5-0.3,0.9-0.3,1.6v4.7h-1.5L281.6,120.9L281.6,120.9z"/>
	<path class="st1" d="M290.8,110.7v-1.6h1.5v1.6H290.8z M290.8,120.9v-8.5h1.5v8.5H290.8z"/>
	<path class="st1" d="M294.4,120.9v-8.5h1.4v1.2c0.6-0.9,1.5-1.3,2.7-1.3c0.4,0,1.1,0.1,1.3,0.3c0.5,0.1,0.8,0.5,0.9,0.8
		s0.3,0.6,0.4,1c0,0.3,0.2,0.8,0.2,1.3v5.3h-1.5v-5.3c0-0.6,0-1-0.2-1.3c-0.1-0.3-0.3-0.6-0.6-0.8c-0.3-0.2-0.6-0.3-1.1-0.3
		c-0.6,0-1.2,0.1-1.7,0.6s-0.6,1.2-0.6,2.3v4.7L294.4,120.9L294.4,120.9z"/>
	<path class="st1" d="M303.4,121.5l1.4,0.1c0,0.5,0.1,0.8,0.4,0.9c0.3,0.3,0.9,0.5,1.5,0.5s1.2-0.2,1.5-0.5s0.6-0.6,0.8-1.2
		c0-0.3,0.2-0.9,0.2-1.8c-0.6,0.8-1.3,1-2.4,1c-1.2,0-2.1-0.5-2.7-1.2c-0.6-0.8-0.9-1.8-0.9-3c0-0.8,0.2-1.5,0.5-2.3
		c0.3-0.8,0.8-1.2,1.3-1.7c0.6-0.5,1.2-0.6,1.9-0.6c1.1,0,1.8,0.5,2.6,1.2v-1h1.3v7.3c0,1.4-0.2,2.3-0.5,2.9c-0.3,0.6-0.8,1-1.3,1.3
		c-0.6,0.3-1.4,0.5-2.1,0.5c-1,0-1.8-0.3-2.4-0.8C303.7,123.1,303.4,122.5,303.4,121.5z M304.6,116.4c0,1,0.2,2,0.6,2.4
		c0.4,0.5,1.1,0.8,1.7,0.8s1.2-0.3,1.7-0.8s0.8-1.4,0.8-2.4s-0.3-1.8-0.8-2.4c-0.4-0.6-1.1-0.8-1.7-0.8s-1.2,0.3-1.7,0.8
		C304.8,114.6,304.6,115.3,304.6,116.4z"/>
	<path class="st1" d="M316,119.5l0.2,1.3c-0.5,0.2-0.8,0.2-1,0.2c-0.6,0-0.9-0.2-1.2-0.3c-0.3-0.2-0.5-0.5-0.6-0.6
		c-0.2-0.3-0.2-0.9-0.2-1.6v-5h-1v-1.2h1v-2.1l1.5-0.9v3h1.5v1.2h-1.5v5c0,0.5,0,0.8,0.2,0.8s0.2,0.1,0.3,0.3c0.1,0,0.3,0.1,0.4,0.1
		C315.6,119.5,315.7,119.5,316,119.5z"/>
	<path class="st1" d="M316.9,116.5c0-1.7,0.5-2.7,1.4-3.5c0.8-0.6,1.6-0.9,2.7-0.9c1.2,0,2.1,0.5,2.8,1.2s1,1.8,1,3.2
		c0,1-0.1,2-0.4,2.5c-0.3,0.6-0.8,1-1.5,1.5c-0.6,0.3-1.3,0.5-2.1,0.5c-1.2,0-2.1-0.5-2.8-1.2C317.2,119.1,316.9,118,316.9,116.5z
		 M318.4,116.5c0,1,0.3,2,0.8,2.4c0.5,0.6,1.1,0.8,1.8,0.8s1.3-0.3,1.8-0.8c0.4-0.6,0.8-1.3,0.8-2.5c0-1-0.3-1.8-0.8-2.4
		s-1.1-0.8-1.8-0.8s-1.3,0.3-1.8,0.8C318.6,114.6,318.4,115.5,318.4,116.5z"/>
	<path class="st1" d="M326.6,120.9v-8.5h1.4v1.2c0.6-0.9,1.5-1.3,2.7-1.3c0.4,0,1,0.1,1.3,0.3c0.5,0.1,0.8,0.5,0.9,0.8
		c0.1,0.3,0.3,0.6,0.4,1c0,0.3,0.2,0.8,0.2,1.3v5.3H332v-5.3c0-0.6,0-1-0.2-1.3c-0.1-0.3-0.3-0.6-0.6-0.8c-0.3-0.2-0.6-0.3-1.1-0.3
		c-0.6,0-1.2,0.1-1.6,0.6c-0.4,0.5-0.6,1.2-0.6,2.3v4.7L326.6,120.9L326.6,120.9z"/>
	<path class="st1" d="M342,120.9l-2.5-8.5h1.5l1.3,5l0.4,1.7c0-0.1,0.2-0.8,0.5-1.8l1.3-5h1.5l1.4,5l0.5,1.7l0.4-1.7l1.5-5h1.4
		l-2.7,8.5H347l-1.3-5.1l-0.3-1.5l-1.8,6.6H342V120.9z"/>
	<path class="st1" d="M352.3,110.7v-1.6h1.5v1.6H352.3z M352.3,120.9v-8.5h1.5v8.5H352.3z"/>
	<path class="st1" d="M355.9,120.9v-8.5h1.4v1.2c0.6-0.9,1.5-1.3,2.7-1.3c0.4,0,1,0.1,1.3,0.3c0.5,0.1,0.8,0.5,0.9,0.8
		c0.1,0.3,0.3,0.6,0.4,1c0,0.3,0.2,0.8,0.2,1.3v5.3h-1.5v-5.3c0-0.6,0-1-0.2-1.3c-0.1-0.3-0.3-0.6-0.6-0.8c-0.3-0.2-0.6-0.3-1.1-0.3
		c-0.6,0-1.2,0.1-1.6,0.6c-0.4,0.5-0.6,1.2-0.6,2.3v4.7L355.9,120.9L355.9,120.9z"/>
	<path class="st1" d="M370.9,118l1.5,0.1c-0.3,0.9-0.6,1.5-1.3,2.1c-0.6,0.5-1.5,0.8-2.4,0.8c-1.2,0-2.3-0.5-3-1.2s-1-1.8-1-3.3
		s0.3-2.5,1-3.3s1.7-1.2,2.9-1.2s2.1,0.5,2.8,1.2c0.7,0.7,1,1.8,1,3.3c0,0.1,0,0.1,0,0.5H366c0,0.9,0.3,1.6,0.8,2.1
		c0.4,0.5,1,0.8,1.8,0.8c0.6,0,1-0.1,1.4-0.5C370.5,119.1,370.7,118.6,370.9,118z M366.2,115.8h4.8c0-0.8-0.3-1.2-0.6-1.7
		c-0.5-0.6-1-0.9-1.8-0.9c-0.6,0-1.2,0.1-1.7,0.6C366.6,114.4,366.2,115,366.2,115.8z"/>
	<path class="st1" d="M373.7,118.3l1.5-0.3c0.2,0.6,0.3,1,0.6,1.3s0.9,0.5,1.5,0.5c0.6,0,1.2-0.1,1.5-0.5c0.3-0.3,0.5-0.6,0.5-0.9
		s-0.2-0.6-0.5-0.8c-0.1-0.2-0.8-0.3-1.5-0.5c-1-0.3-1.8-0.5-2.3-0.8c-0.5-0.2-0.8-0.5-0.9-0.8c-0.2-0.3-0.3-0.8-0.3-1.2
		s0.2-0.8,0.3-1s0.4-0.6,0.8-0.8c0.3-0.2,0.6-0.3,0.9-0.5s0.8-0.2,1.2-0.2c0.6,0,1.2,0.2,1.8,0.3c0.5,0.2,0.9,0.5,1.2,0.8
		s0.4,0.8,0.4,1.4l-1.3,0.1c0-0.5-0.3-0.8-0.6-1c-0.3-0.3-0.8-0.3-1.4-0.3c-0.6,0-1.2,0.2-1.5,0.3c-0.3,0.2-0.5,0.5-0.5,0.8
		c0,0.2,0,0.3,0.2,0.5c0.1,0.2,0.3,0.3,0.6,0.5c0.2,0,0.6,0.2,1.4,0.3c1,0.3,1.8,0.5,2.1,0.6c0.5,0.1,0.8,0.5,0.9,0.8
		c0.3,0.3,0.3,0.8,0.3,1.2s-0.2,0.9-0.5,1.3s-0.8,0.8-1.2,1c-0.6,0.3-1.2,0.3-1.8,0.3c-1,0-2-0.3-2.5-0.8
		C374.2,119.8,373.9,119.2,373.7,118.3z"/>
	<path class="st1" d="M263.1,123.1v-1.2h118.3v1.2H263.1z"/>
</g>
</svg>
