<?xml version="1.0" encoding="utf-8"?>
<!-- Generator: Adobe Illustrator 22.1.0, SVG Export Plug-In . SVG Version: 6.00 Build 0)  -->
<svg version="1.1" id="Layer_1" xmlns="http://www.w3.org/2000/svg" xmlns:xlink="http://www.w3.org/1999/xlink" x="0px" y="0px"
	 width="386px" height="105.5px" viewBox="0 0 386 105.5" style="enable-background:new 0 0 386 105.5;" xml:space="preserve">
<style type="text/css">
	.st0{fill:#0012FF;}
	.st1{enable-background:new    ;}
	.st2{fill:#009245;}
	.st3{fill:#999999;}
	.st4{fill:#737373;}
	.st5{fill:none;stroke:#008272;stroke-width:4;stroke-miterlimit:10;}
	.st6{fill:#666666;}
</style>
<title>Asset 17</title>
<g>
	<path class="st0" d="M20.3,9.8l2,0.5c-0.5,1.6-1.3,2.8-2.3,3.5S17.6,15,16.1,15c-1.7,0-2.8-0.3-3.9-0.9c-1-0.6-1.8-1.7-2.3-2.8
		c-0.4-1-0.7-2.4-0.7-3.8c0-1.5,0.3-2.9,0.9-4c0.6-1.2,1.4-1.9,2.6-2.6S15,0,16.3,0c1.5,0,2.7,0.3,3.8,1.2c1,0.9,1.7,1.8,2.1,3.1
		l-1.9,0.4c-0.3-1.1-0.9-1.8-1.5-2.4c-0.6-0.4-1.5-0.8-2.4-0.8c-1.2,0-2.1,0.3-2.8,0.8c-0.8,0.6-1.4,1.4-1.7,2.3
		c-0.4,1-0.6,1.9-0.6,2.9c0,1.2,0.2,2.4,0.6,3.3c0.3,0.9,0.9,1.7,1.7,2.1c0.8,0.5,1.7,0.8,2.5,0.8c1,0,2-0.3,2.7-0.9
		C19.5,12,20,11.1,20.3,9.8z"/>
	<path class="st0" d="M23.7,9.6c0-2,0.6-3.4,1.7-4.4C26.3,4.4,27.5,4,28.7,4c1.5,0,2.7,0.4,3.6,1.5c0.9,0.9,1.4,2.3,1.4,4.1
		c0,1.3-0.2,2.4-0.6,3.3c-0.4,0.8-1.1,1.3-1.8,1.8s-1.7,0.6-2.6,0.6c-1.5,0-2.7-0.5-3.6-1.5S23.7,11.4,23.7,9.6z M25.7,9.6
		c0,1.3,0.3,2.4,0.9,3c0.6,0.6,1.3,1,2.3,1s1.7-0.3,2.3-1c0.6-0.6,0.9-1.7,0.9-3s-0.3-2.3-0.9-3s-1.3-1-2.3-1s-1.7,0.3-2.3,1
		S25.7,8.3,25.7,9.6z"/>
	<path class="st0" d="M35.9,15V0.3h1.8v5.3c0.9-1.1,2-1.5,3.2-1.5c0.8,0,1.5,0.1,2.1,0.4c0.6,0.3,1,0.8,1.2,1.3
		c0.3,0.6,0.4,1.4,0.4,2.4v6.7h-1.8V8.2c0-0.9-0.2-1.5-0.6-1.9c-0.4-0.5-0.9-0.6-1.6-0.6c-0.6,0-1.1,0.1-1.5,0.4
		c-0.5,0.3-0.9,0.6-1,1.1c-0.2,0.5-0.3,1.2-0.3,1.9v5.8C37.7,15,35.9,15,35.9,15z"/>
	<path class="st0" d="M46.7,9.6c0-2,0.6-3.4,1.6-4.4C49.2,4.4,50.4,4,51.6,4c1.5,0,2.7,0.4,3.6,1.5c0.9,1,1.4,2.3,1.4,4.1
		c0,1.3-0.1,2.4-0.6,3.3c-0.4,0.8-1.1,1.3-1.8,1.8s-1.6,0.6-2.6,0.6c-1.5,0-2.7-0.5-3.6-1.5S46.7,11.4,46.7,9.6z M48.5,9.6
		c0,1.3,0.3,2.4,0.9,3c0.6,0.6,1.4,1,2.3,1c0.9,0,1.6-0.3,2.3-1c0.7-0.7,0.8-1.8,0.8-3.1s-0.3-2.2-0.9-3c-0.6-0.8-1.4-1.1-2.3-1.1
		c-0.9,0-1.6,0.3-2.3,1S48.5,8.3,48.5,9.6z"/>
	<path class="st0" d="M67.3,15L63.4,0.3h1.9l2.3,9.6c0.3,1,0.4,2,0.6,3c0.4-1.5,0.6-2.5,0.6-2.7l3-9.9h2.4l2.1,7.5
		c0.6,1.8,0.9,3.6,1.2,5.3c0.1-0.9,0.4-2,0.8-3.2l2.2-9.6h1.9L78.3,15h-1.9L73.3,3.8C73,2.9,72.9,2.3,72.9,2
		c-0.2,0.8-0.3,1.4-0.3,1.8L69.4,15H67.3z"/>
	<path class="st0" d="M83.9,2.3V0.4h1.8v2.1h-1.8V2.3z M83.9,15V4.3h1.8v10.6C85.7,15,83.9,15,83.9,15z"/>
	<path class="st0" d="M88.6,15V4.3h1.6v1.5C91,4.6,92,4,93.5,4c0.6,0,1.2,0.1,1.8,0.3c0.6,0.3,0.9,0.6,1.2,0.9
		C96.8,5.5,97,6,97.1,6.6c0,0.3,0.1,0.9,0.1,1.8V15h-1.8V8.6c0-0.8,0-1.3-0.1-1.7c-0.1-0.3-0.5-0.6-0.8-0.9
		c-0.3-0.1-0.8-0.3-1.2-0.3c-0.8,0-1.5,0.3-1.9,0.8c-0.6,0.4-0.9,1.3-0.9,2.8v5.8L88.6,15L88.6,15z"/>
	<path class="st0" d="M107.3,11.6l1.8,0.3c-0.3,1-0.9,2-1.6,2.5s-1.8,0.9-3,0.9c-1.5,0-2.9-0.5-3.8-1.5c-0.9-0.9-1.4-2.3-1.4-4.1
		s0.5-3.1,1.4-4.2c0.9-1.1,2.1-1.5,3.6-1.5s2.5,0.4,3.5,1.5c0.9,0.9,1.4,2.4,1.4,4c0,0.2,0,0.3,0,0.5h-8c0,1.2,0.5,2.1,1,2.7
		c0.6,0.6,1.4,0.9,2.3,0.9c0.6,0,1.2-0.2,1.6-0.5C106.5,12.9,107,12.3,107.3,11.6z M101.3,8.6h6c-0.1-0.9-0.3-1.5-0.8-2
		c-0.6-0.8-1.4-1-2.3-1c-0.9,0-1.4,0.3-2,0.9C101.8,6.9,101.5,7.7,101.3,8.6z"/>
	<path class="st0" d="M111.4,15V4.3h1.6v1.6c0.5-0.8,0.8-1.2,1.2-1.5c0.3-0.3,0.8-0.3,1.2-0.3c0.6,0,1.2,0.1,1.8,0.6l-0.6,1.5
		c-0.5-0.3-0.9-0.5-1.4-0.5s-0.8,0.2-1,0.3c-0.3,0.3-0.6,0.6-0.6,1.1c-0.1,0.6-0.3,1.3-0.3,2.1v5.6h-2C111.3,14.9,111.3,15,111.4,15
		z"/>
	<path class="st0" d="M118.1,19.1l-0.1-1.7c0.5,0.2,0.8,0.2,1,0.2c0.5,0,0.8,0,0.9-0.2c0.3-0.2,0.5-0.3,0.6-0.6
		c0.1-0.2,0.3-0.6,0.6-1.3c0-0.2,0.1-0.3,0.1-0.5l-4-10.6h2l2.2,6.1c0.3,0.8,0.6,1.7,0.8,2.4c0.1-0.9,0.5-1.7,0.8-2.4l2.3-6.1h1.7
		l-4,10.8c-0.5,1.2-0.8,2-1,2.4c-0.3,0.6-0.8,1-1,1.3c-0.5,0.3-0.9,0.5-1.5,0.5C119,19.4,118.5,19.2,118.1,19.1z"/>
	<path class="st0" d="M133.5,10.5V8.7h5.5v1.8H133.5z"/>
	<path class="st0" d="M8.3,17.9v-1.5h131.5v1.5H8.3z"/>
</g>
<g class="st1">
	<path class="st0" d="M139.9,17.9v-1.5h4.5v1.5H139.9z"/>
</g>
<g class="st1">
	<path class="st0" d="M144.4,15l5.7-14.7h2.1l6,14.7h-2.3l-1.6-4.5h-6.2l-1.7,4.5H144.4z M148.5,8.9h5l-1.5-4c-0.5-1.2-0.8-2.3-1-3
		c-0.2,0.9-0.5,1.9-0.8,2.8L148.5,8.9z"/>
	<path class="st0" d="M159.4,15V0.3h1.8V15H159.4z"/>
	<path class="st0" d="M164,15V0.3h1.8V15H164z"/>
	<path class="st0" d="M174.4,15V4.3h1.6v1.6c0.5-0.8,0.8-1.2,1.2-1.5c0.3-0.3,0.8-0.3,1.2-0.3c0.6,0,1.2,0.1,1.8,0.6l-0.8,1.5
		c-0.5-0.3-0.9-0.5-1.3-0.5c-0.5,0-0.8,0.1-1.1,0.3c-0.3,0.3-0.6,0.6-0.6,1c-0.2,0.6-0.3,1.4-0.3,2.1v5.6h-1.8
		C174.4,14.9,174.4,15,174.4,15z"/>
	<path class="st0" d="M188.5,11.6l1.8,0.3c-0.3,1-0.9,2-1.6,2.5c-0.7,0.5-1.8,0.9-3,0.9c-1.5,0-2.9-0.5-3.8-1.5
		c-0.9-0.9-1.4-2.3-1.4-4.1s0.5-3.1,1.4-4.2c0.9-1.1,2.1-1.5,3.6-1.5s2.5,0.4,3.5,1.5c0.9,0.9,1.4,2.4,1.4,4c0,0.2,0,0.3,0,0.5h-8
		c0,1.2,0.5,2.1,1.1,2.7c0.6,0.6,1.3,0.9,2.3,0.9c0.6,0,1.2-0.2,1.6-0.5C187.9,12.9,188.1,12.3,188.5,11.6z M182.6,8.6h6
		c-0.2-0.9-0.3-1.5-0.8-2c-0.6-0.8-1.4-1-2.3-1c-0.9,0-1.5,0.3-2.1,0.9C182.9,6.9,182.6,7.7,182.6,8.6z"/>
	<path class="st0" d="M199.5,15v-1.3c-0.8,1-1.6,1.7-3,1.7c-0.9,0-1.6-0.3-2.4-0.8s-1.2-1-1.7-2c-0.4-0.9-0.6-1.8-0.6-2.8
		s0.2-2.1,0.6-2.8c0.3-0.9,0.9-1.5,1.7-1.9s1.5-0.8,2.4-0.8c0.6,0,1.2,0.1,1.7,0.5c0.4,0.3,0.9,0.6,1.2,1V0.4h1.8v14.7L199.5,15
		L199.5,15z M193.8,9.6c0,1.3,0.3,2.4,0.9,3c0.6,0.8,1.2,1,2.1,1c0.8,0,1.5-0.3,1.9-0.9c0.6-0.6,0.9-1.7,0.9-3
		c0-1.5-0.3-2.5-0.9-3.2c-0.6-0.8-1.2-1-2.1-1c-0.8,0-1.5,0.3-2,1C194.2,7.2,193.8,8.3,193.8,9.6z"/>
	<path class="st0" d="M211.7,15l-3.3-10.6h1.8l1.6,6.1l0.6,2.3c0-0.2,0.1-0.9,0.6-2.3l1.7-6.3h1.8l1.7,6.2l0.6,2.1l0.6-2.1l1.8-6.2
		h1.8l-3.3,10.7h-2L216,8.4l-0.4-1.8l-2.1,8.3L211.7,15L211.7,15z"/>
	<path class="st0" d="M224.6,2.3V0.4h1.8v2.1h-1.8V2.3z M224.6,15V4.3h1.8v10.6C226.4,15,224.6,15,224.6,15z"/>
	<path class="st0" d="M229.3,15V4.3h1.7v1.5c0.8-1.2,1.9-1.8,3.4-1.8c0.6,0,1.2,0.1,1.8,0.3c0.6,0.3,0.9,0.6,1.2,0.9
		c0.3,0.3,0.5,0.8,0.6,1.4c0,0.3,0.1,0.9,0.1,1.8V15h-1.8V8.6c0-0.8,0-1.3-0.2-1.7c-0.2-0.3-0.4-0.6-0.8-0.9
		c-0.3-0.1-0.8-0.3-1.2-0.3c-0.8,0-1.5,0.3-2,0.8c-0.5,0.4-0.9,1.3-0.9,2.8v5.8L229.3,15L229.3,15z"/>
	<path class="st0" d="M248,11.6l1.8,0.3c-0.3,1-0.9,2-1.6,2.5s-1.8,0.9-3,0.9c-1.5,0-2.9-0.5-3.8-1.5c-0.9-0.9-1.4-2.3-1.4-4.1
		s0.5-3.1,1.4-4.2S243.5,4,245,4s2.6,0.4,3.5,1.5s1.3,2.4,1.3,4c0,0.2,0,0.3,0,0.5H242c0,1.2,0.5,2.1,1,2.7c0.6,0.6,1.4,0.9,2.3,0.9
		c0.6,0,1.2-0.2,1.7-0.5C247.4,12.9,247.7,12.3,248,11.6z M242,8.6h6c-0.2-0.9-0.3-1.5-0.8-2c-0.6-0.8-1.3-1-2.3-1s-1.5,0.3-2.1,0.9
		C242.5,6.9,242.2,7.7,242,8.6z"/>
	<path class="st0" d="M251.5,11.9l1.8-0.3c0.2,0.8,0.5,1.2,0.9,1.7s1.1,0.6,1.9,0.6c0.9,0,1.5-0.2,1.8-0.5c0.4-0.3,0.6-0.8,0.6-1.2
		c0-0.4-0.2-0.8-0.6-0.9c-0.3-0.2-0.9-0.3-1.8-0.6c-1.3-0.3-2.3-0.6-2.7-0.9s-0.9-0.6-1.2-1s-0.5-0.9-0.5-1.5c0-0.4,0.2-0.9,0.3-1.4
		c0.2-0.4,0.5-0.8,0.9-1c0.3-0.1,0.6-0.5,1.2-0.6c0.4-0.1,1.1-0.1,1.5-0.1c0.9,0,1.5,0.1,2.3,0.3s1.1,0.6,1.3,1.1
		c0.2,0.5,0.5,0.9,0.6,1.6L258,7.4c-0.1-0.6-0.3-1.1-0.8-1.4c-0.4-0.3-0.9-0.5-1.6-0.5c-0.9,0-1.4,0.2-1.8,0.5
		c-0.3,0.3-0.6,0.6-0.6,0.9c0,0.3,0,0.5,0.2,0.6s0.4,0.3,0.8,0.5c0.2,0,0.8,0.1,1.7,0.5c1.3,0.3,2.1,0.6,2.7,0.9
		c0.6,0.3,0.9,0.6,1.2,0.9c0.3,0.5,0.4,0.9,0.4,1.5s-0.1,1.2-0.6,1.7c-0.3,0.6-0.9,0.9-1.5,1.2c-0.6,0.3-1.4,0.5-2.3,0.5
		c-1.4,0-2.4-0.3-3.2-0.9C252,13.8,251.6,12.9,251.5,11.9z"/>
	<path class="st0" d="M267.5,9.6c0-2,0.6-3.4,1.7-4.4c0.9-0.8,2.1-1.2,3.3-1.2c1.5,0,2.7,0.4,3.6,1.5c0.9,0.9,1.4,2.3,1.4,4.1
		c0,1.3-0.2,2.4-0.6,3.3c-0.4,0.8-1,1.3-1.8,1.8c-0.8,0.5-1.7,0.6-2.5,0.6c-1.5,0-2.7-0.5-3.6-1.5C268,12.8,267.5,11.4,267.5,9.6z
		 M269.3,9.6c0,1.3,0.3,2.4,0.9,3c0.6,0.6,1.3,1,2.3,1c0.9,0,1.6-0.3,2.3-1c0.6-0.8,0.9-1.8,0.9-3.1s-0.3-2.2-0.9-3
		c-0.6-0.8-1.4-1.1-2.3-1.1c-0.9,0-1.7,0.3-2.3,1.1C269.6,7.2,269.3,8.3,269.3,9.6z"/>
	<path class="st0" d="M279.5,15V4.3h1.7v1.5c0.8-1.2,1.9-1.8,3.4-1.8c0.6,0,1.2,0.1,1.8,0.3c0.6,0.3,0.9,0.6,1.2,0.9
		c0.3,0.3,0.5,0.8,0.6,1.4c0,0.3,0.1,0.9,0.1,1.8V15h-1.8V8.6c0-0.8,0-1.3-0.2-1.7c-0.2-0.3-0.4-0.6-0.8-0.9
		c-0.3-0.1-0.8-0.3-1.2-0.3c-0.8,0-1.5,0.3-2,0.8c-0.6,0.4-0.9,1.3-0.9,2.8v5.8L279.5,15L279.5,15z"/>
	<path class="st0" d="M296,11.9l1.8-0.3c0.2,0.8,0.5,1.2,0.9,1.7c0.4,0.5,1,0.6,1.9,0.6c0.9,0,1.5-0.2,1.8-0.5
		c0.4-0.3,0.6-0.8,0.6-1.2c0-0.4-0.1-0.8-0.6-0.9c-0.3-0.2-0.9-0.3-1.8-0.6c-1.3-0.3-2.3-0.6-2.7-0.9c-0.5-0.3-0.9-0.6-1.2-1
		c-0.3-0.4-0.5-0.9-0.5-1.5c0-0.4,0.2-0.9,0.3-1.4c0.2-0.4,0.4-0.8,0.9-1c0.3-0.1,0.6-0.5,1.2-0.6c0.4-0.1,1-0.1,1.5-0.1
		c0.9,0,1.5,0.1,2.3,0.3s1,0.6,1.3,1.1c0.3,0.4,0.5,0.9,0.6,1.6l-1.8,0.3c-0.2-0.6-0.3-1.1-0.8-1.4s-0.9-0.5-1.7-0.5
		c-0.9,0-1.3,0.2-1.8,0.5c-0.3,0.3-0.6,0.6-0.6,0.9c0,0.3,0,0.5,0.2,0.6c0.1,0.1,0.4,0.3,0.8,0.5c0.1,0,0.8,0.1,1.6,0.5
		c1.4,0.3,2.1,0.6,2.7,0.9s0.9,0.6,1.2,0.9c0.3,0.5,0.4,0.9,0.4,1.5c0,0.6-0.2,1.2-0.6,1.7c-0.3,0.6-0.9,0.9-1.5,1.2
		c-0.6,0.3-1.3,0.5-2.3,0.5c-1.3,0-2.4-0.3-3.2-0.9C296.6,13.8,296.2,12.9,296,11.9z"/>
	<path class="st0" d="M314,13.7c-0.6,0.6-1.3,0.9-2,1.2c-0.6,0.3-1.3,0.3-1.9,0.3c-1.2,0-2.1-0.3-2.7-0.9c-0.6-0.6-0.9-1.3-0.9-2.3
		c0-0.5,0.2-1,0.3-1.5c0.3-0.5,0.6-0.8,0.9-1c0.5-0.3,0.8-0.5,1.3-0.6c0.3-0.2,0.9-0.2,1.7-0.3c1.5-0.2,2.5-0.5,3.3-0.6
		c0-0.3,0-0.5,0-0.5c0-0.7-0.1-1.2-0.4-1.5c-0.4-0.5-1.2-0.6-2.1-0.6c-0.9,0-1.5,0.1-2,0.4c-0.4,0.3-0.8,0.9-0.9,1.7l-1.8-0.3
		c0.2-0.8,0.4-1.4,0.8-1.8c0.3-0.5,0.9-0.8,1.7-1.1s1.5-0.4,2.4-0.4s1.7,0.1,2.3,0.3c0.6,0.2,1.1,0.5,1.2,0.8
		c0.2,0.3,0.5,0.8,0.6,1.2c0,0.3,0.1,0.9,0.1,1.6v2.4c0,1.7,0,2.7,0.2,3.1c0.1,0.5,0.3,0.9,0.4,1.3h-1.9
		C314.2,14.6,314,14.1,314,13.7z M313.8,9.6c-0.6,0.3-1.7,0.5-3,0.8c-0.8,0.2-1.2,0.3-1.7,0.3c-0.3,0.2-0.6,0.3-0.8,0.6
		c-0.2,0.3-0.3,0.6-0.3,0.9c0,0.5,0.1,0.9,0.6,1.2c0.3,0.3,0.9,0.5,1.7,0.5c0.8,0,1.3-0.2,1.8-0.5c0.6-0.3,0.9-0.8,1.2-1.2
		c0.1-0.5,0.3-1,0.3-1.8V9.6H313.8z"/>
	<path class="st0" d="M318.5,15V0.3h1.8V15H318.5z"/>
	<path class="st0" d="M330.3,11.6l1.8,0.3c-0.3,1-0.9,2-1.7,2.5s-1.8,0.9-3,0.9c-1.5,0-2.8-0.5-3.8-1.5c-0.9-0.9-1.3-2.3-1.3-4.1
		s0.4-3.1,1.3-4.2s2.1-1.5,3.6-1.5s2.5,0.4,3.5,1.5c0.9,1,1.3,2.4,1.3,4c0,0.2,0,0.3,0,0.5h-8c0,1.2,0.5,2.1,1,2.7
		c0.6,0.6,1.4,0.9,2.3,0.9c0.6,0,1.2-0.2,1.7-0.5C329.8,12.9,330,12.3,330.3,11.6z M324.3,8.6h6c-0.1-0.9-0.3-1.5-0.8-2
		c-0.6-0.8-1.3-1-2.3-1c-0.9,0-1.5,0.3-2.1,0.9C324.8,6.9,324.5,7.7,324.3,8.6z"/>
	<path class="st0" d="M335.5,11.3l-0.6-7.8V0.3h2.3v3.3l-0.4,7.8L335.5,11.3L335.5,11.3z M335,15v-2.1h2.1V15H335z"/>
	<path class="st0" d="M144.4,17.9v-1.5h194.4v1.5H144.4z"/>
</g>
<g class="st1">
	<path class="st2" d="M38.2,38.3l1.3,0.2c-0.2,1.1-0.6,1.8-1.2,2.3c-0.6,0.6-1.5,0.9-2.4,0.9c-1.2,0-2.1-0.4-2.9-1.2
		c-0.8-0.8-1.1-1.8-1.1-3.3c0-0.9,0.2-1.8,0.4-2.4c0.3-0.6,0.8-1.2,1.4-1.5s1.3-0.4,2.1-0.4c0.9,0,1.7,0.3,2.3,0.8s0.9,1.2,1.2,1.9
		L38,35.7c-0.2-0.6-0.3-1.1-0.8-1.3C36.9,34.1,36.4,34,36,34c-0.8,0-1.4,0.3-1.8,0.8c-0.4,0.5-0.8,1.3-0.8,2.5s0.2,1.9,0.6,2.6
		c0.5,0.6,1.1,0.8,1.7,0.8s1.1-0.1,1.3-0.4C37.8,39.6,38.2,39,38.2,38.3z"/>
	<path class="st2" d="M40.4,37.3c0-1.7,0.4-2.7,1.3-3.4c0.8-0.6,1.7-0.9,2.7-0.9c1.2,0,2.1,0.4,2.9,1.2s1.1,1.8,1.1,3.2
		c0,1.1-0.1,1.9-0.4,2.6c-0.3,0.6-0.8,1.1-1.5,1.5c-0.7,0.4-1.4,0.4-2.1,0.4c-1.2,0-2.1-0.4-2.8-1.2C40.7,39.8,40.4,38.6,40.4,37.3z
		 M41.7,37.3c0,1.1,0.3,1.9,0.8,2.4c0.4,0.6,1.1,0.8,1.8,0.8s1.4-0.3,1.8-0.8c0.4-0.6,0.8-1.3,0.8-2.6c0-1.1-0.3-1.8-0.8-2.4
		c-0.4-0.6-1.1-0.8-1.8-0.8s-1.4,0.3-1.8,0.8C42.1,35.3,41.7,36,41.7,37.3z"/>
	<path class="st2" d="M50,41.4V29.6h1.5v4.2c0.8-0.8,1.5-1.2,2.6-1.2c0.6,0,1.2,0.2,1.6,0.3c0.4,0.2,0.8,0.6,1.1,1.1
		c0.1,0.4,0.3,1.1,0.3,1.9v5.4h-1.5v-5.4c0-0.8-0.1-1.2-0.4-1.6c-0.3-0.3-0.8-0.4-1.4-0.4c-0.4,0-0.9,0.1-1.2,0.3
		c-0.3,0.1-0.6,0.4-0.8,0.9c-0.1,0.5-0.3,1-0.3,1.8v4.7H50V41.4z"/>
	<path class="st2" d="M58.7,37.3c0-1.7,0.4-2.7,1.4-3.4c0.8-0.6,1.6-0.9,2.7-0.9c1.2,0,2.1,0.4,2.9,1.2c0.8,0.8,1.1,1.8,1.1,3.2
		c0,1.1-0.1,1.9-0.4,2.6c-0.3,0.6-0.8,1.1-1.5,1.5c-0.7,0.4-1.4,0.4-2.1,0.4c-1.2,0-2.1-0.4-2.9-1.2C59,39.8,58.7,38.6,58.7,37.3z
		 M60.2,37.3c0,1.1,0.3,1.9,0.8,2.4c0.4,0.6,1.1,0.8,1.8,0.8s1.4-0.3,1.8-0.8c0.4-0.6,0.8-1.3,0.8-2.6c0-1.1-0.3-1.8-0.8-2.4
		c-0.4-0.6-1.1-0.8-1.8-0.8s-1.4,0.3-1.8,0.8C60.4,35.3,60.2,36,60.2,37.3z"/>
	<path class="st2" d="M69.9,41.4l-2.6-8.5h1.5l1.4,4.9l0.4,1.8c0-0.1,0.1-0.8,0.4-1.8l1.4-4.9H74l1.4,4.9l0.4,1.7l0.4-1.7l1.5-4.9
		h1.4l-2.7,8.6h-1.5l-1.4-5.1l-0.3-1.5l-1.8,6.6L69.9,41.4L69.9,41.4z"/>
	<path class="st2" d="M80.3,31.4v-1.7h1.5v1.7H80.3z M80.3,41.4v-8.5h1.5v8.6C81.8,41.4,80.3,41.4,80.3,41.4z"/>
	<path class="st2" d="M83.9,41.4v-8.5h1.4v1.2c0.6-0.9,1.5-1.3,2.7-1.3c0.4,0,1.1,0.1,1.4,0.3c0.4,0.1,0.8,0.4,0.9,0.8
		c0.1,0.4,0.3,0.6,0.4,1.1c0,0.3,0.1,0.8,0.1,1.3v5.2h-1.5v-5.3c0-0.6,0-1.1-0.1-1.3c-0.1-0.3-0.3-0.4-0.6-0.8s-0.6-0.3-1.1-0.3
		c-0.6,0-1.2,0.1-1.6,0.6c-0.4,0.5-0.6,1.2-0.6,2.3v4.7H83.9L83.9,41.4z"/>
	<path class="st2" d="M98.9,38.8l1.5,0.1c-0.3,0.9-0.6,1.5-1.4,2.1c-0.6,0.4-1.5,0.8-2.4,0.8c-1.2,0-2.3-0.4-3-1.2s-1.1-1.8-1.1-3.3
		s0.3-2.6,1.1-3.3s1.6-1.2,2.9-1.2s2.1,0.4,2.9,1.2s1,1.8,1,3.3c0,0.1,0,0.1,0,0.4h-6.3c0,0.9,0.3,1.6,0.8,2.1s1.1,0.8,1.8,0.8
		c0.6,0,1-0.1,1.4-0.4C98.5,39.8,98.8,39.3,98.9,38.8z M94.1,36.3h4.8c0-0.8-0.3-1.2-0.6-1.6c-0.5-0.6-1-0.9-1.8-0.9
		c-0.6,0-1.2,0.2-1.6,0.6C94.4,35,94.3,35.6,94.1,36.3z"/>
	<path class="st2" d="M102.2,41.4v-8.5h1.4v1.4c0.3-0.6,0.6-1.1,0.9-1.2c0.3-0.2,0.6-0.3,0.9-0.3c0.5,0,1,0.1,1.5,0.4l-0.5,1.3
		c-0.3-0.1-0.8-0.3-1-0.3s-0.6,0.2-0.9,0.3c-0.3,0.2-0.5,0.4-0.6,0.8s-0.3,1.1-0.3,1.7v4.5L102.2,41.4L102.2,41.4z"/>
</g>
<g class="st1">
	<path class="st2" d="M107.6,44.8l-0.1-1.4c0.3,0.2,0.6,0.2,0.9,0.2s0.6,0,0.8-0.2c0.1-0.1,0.3-0.3,0.5-0.4c0.1-0.1,0.3-0.4,0.5-1.1
		c0-0.1,0-0.1,0.1-0.3L107,33h1.5l1.8,4.9c0.3,0.6,0.5,1.4,0.6,1.9c0.1-0.6,0.3-1.3,0.6-1.9l1.8-4.9h1.5l-3.2,8.6
		c-0.3,0.9-0.6,1.7-0.8,1.9c-0.3,0.4-0.6,0.9-0.9,1.1c-0.3,0.2-0.8,0.3-1.2,0.3C108.4,44.9,107.9,44.9,107.6,44.8z"/>
</g>
<g class="st1">
	<path class="st2" d="M115.1,41.4v-1.7h1.6v1.7H115.1z"/>
	<path class="st2" d="M124.9,38.3l1.4,0.2c-0.1,1.1-0.6,1.8-1.2,2.3c-0.6,0.6-1.5,0.9-2.4,0.9c-1.2,0-2.1-0.4-2.9-1.2
		c-0.8-0.8-1-1.8-1-3.3c0-0.9,0.1-1.8,0.5-2.4c0.3-0.6,0.8-1.2,1.4-1.5c0.6-0.3,1.4-0.4,2.1-0.4c0.9,0,1.6,0.3,2.3,0.8
		s0.9,1.2,1.2,1.9l-1.4,0.1c-0.1-0.6-0.3-1.1-0.8-1.3c-0.3-0.3-0.8-0.4-1.2-0.4c-0.8,0-1.4,0.3-1.8,0.8s-0.8,1.3-0.8,2.6
		c0,1.2,0.1,1.9,0.6,2.6s1,0.8,1.6,0.8c0.6,0,1-0.2,1.4-0.4C124.5,39.6,124.7,39,124.9,38.3z"/>
	<path class="st2" d="M127,37.3c0-1.7,0.5-2.7,1.3-3.4c0.8-0.6,1.7-0.9,2.7-0.9c1.2,0,2.1,0.4,2.8,1.2s1,1.8,1,3.2
		c0,1.1-0.1,1.9-0.5,2.6c-0.3,0.6-0.8,1.1-1.5,1.5c-0.7,0.4-1.3,0.4-2.1,0.4c-1.2,0-2.1-0.4-2.9-1.2C127.4,39.8,127,38.6,127,37.3z
		 M128.5,37.3c0,1.1,0.3,1.9,0.8,2.4c0.5,0.6,1,0.8,1.8,0.8s1.4-0.3,1.8-0.8c0.5-0.6,0.8-1.3,0.8-2.6c0-1.1-0.3-1.8-0.8-2.4
		c-0.5-0.6-1-0.8-1.8-0.8s-1.4,0.3-1.8,0.8C128.8,35.3,128.5,36,128.5,37.3z"/>
	<path class="st2" d="M136.7,41.4v-8.5h1.3v1.2c0.3-0.4,0.6-0.8,1.1-1.1s0.9-0.4,1.5-0.4c0.6,0,1.2,0.2,1.5,0.4
		c0.3,0.3,0.8,0.6,0.9,1.1c0.8-1.1,1.5-1.5,2.7-1.5c0.9,0,1.5,0.3,2,0.8s0.8,1.2,0.8,2.1v5.8H147v-5.4c0-0.6,0-1.1-0.1-1.2
		c-0.2-0.3-0.3-0.4-0.5-0.6c-0.3-0.1-0.6-0.3-0.9-0.3c-0.6,0-1,0.2-1.5,0.6c-0.5,0.4-0.6,1.1-0.6,1.9v4.9h-1.5v-5.6
		c0-0.6-0.1-1.2-0.3-1.5c-0.3-0.3-0.6-0.4-1.2-0.4c-0.4,0-0.8,0.1-1.2,0.3c-0.5,0.1-0.6,0.8-0.8,1.2c-0.2,0.4-0.3,1.1-0.3,1.8v4.5
		L136.7,41.4L136.7,41.4L136.7,41.4z"/>
	<path class="st2" d="M154.4,38v-1.5h4.5V38H154.4z"/>
	<path class="st2" d="M164.8,35.8c0-1.9,0.6-3.4,1.6-4.7c1.1-1.1,2.4-1.7,4.1-1.7c1,0,2.1,0.3,3,0.8c0.9,0.4,1.5,1.2,1.9,2.3
		c0.5,0.9,0.8,1.9,0.8,3.1c0,1.2-0.3,2.3-0.8,3.2c-0.4,0.9-1.2,1.6-2.1,2.1s-1.8,0.8-2.8,0.8s-2.1-0.3-3-0.8c-0.9-0.4-1.5-1.2-2-2.3
		C165,37.7,164.8,36.8,164.8,35.8z M166.4,35.8c0,1.3,0.5,2.6,1.2,3.3c0.7,0.7,1.6,1.2,2.8,1.2c1.2,0,2.1-0.4,2.8-1.2
		c0.7-0.8,1.2-1.9,1.2-3.4c0-0.9-0.2-1.8-0.5-2.6c-0.3-0.8-0.8-1.2-1.3-1.7c-0.5-0.5-1.3-0.6-2.1-0.6c-1.1,0-2.1,0.4-2.9,1.2
		C166.8,32.8,166.4,33.9,166.4,35.8z"/>
</g>
<g class="st1">
	<path class="st2" d="M178.3,41.4V34h-1.4v-1.2h1.4v-0.9c0-0.6,0-1.1,0.1-1.3c0.2-0.3,0.5-0.8,0.8-0.9c0.3-0.2,0.9-0.3,1.5-0.3
		c0.5,0,0.9,0,1.4,0.2l-0.1,1.2c-0.3,0-0.6-0.2-0.9-0.2c-0.5,0-0.8,0.2-0.9,0.3c-0.1,0.2-0.3,0.6-0.3,1.1v0.8h1.6V34h-1.6v7.3h-1.5
		C178.3,41.3,178.3,41.4,178.3,41.4z"/>
</g>
<g class="st1">
	<path class="st2" d="M182.5,41.4V34h-1.3v-1.2h1.3v-0.9c0-0.6,0-1.1,0.2-1.3c0.1-0.3,0.4-0.8,0.8-0.9c0.3-0.3,0.9-0.3,1.5-0.3
		c0.4,0,0.9,0,1.3,0.2l-0.2,1.2c-0.3,0-0.6-0.2-0.9-0.2c-0.5,0-0.8,0.2-0.9,0.3c-0.2,0.2-0.3,0.6-0.3,1.1v0.8h1.7V34H184v7.3h-1.5
		V41.4z"/>
	<path class="st2" d="M186.6,31.4v-1.7h1.5v1.7H186.6z M186.6,41.4v-8.5h1.5v8.6C188.1,41.4,186.6,41.4,186.6,41.4z"/>
	<path class="st2" d="M196,38.3l1.3,0.2c-0.1,1.1-0.6,1.8-1.2,2.3c-0.6,0.6-1.5,0.9-2.4,0.9c-1.2,0-2.1-0.4-2.9-1.2
		c-0.8-0.8-1-1.8-1-3.3c0-0.9,0.1-1.8,0.4-2.4s0.8-1.2,1.4-1.5c0.6-0.3,1.3-0.4,2.1-0.4c0.9,0,1.7,0.3,2.3,0.8s0.9,1.2,1.2,1.9
		l-1.4,0.1c-0.1-0.6-0.3-1.1-0.8-1.3c-0.3-0.3-0.8-0.4-1.2-0.4c-0.8,0-1.3,0.3-1.8,0.8c-0.4,0.4-0.7,1.3-0.7,2.6
		c0,1.2,0.2,1.9,0.6,2.6c0.4,0.6,1,0.8,1.7,0.8s1.1-0.2,1.4-0.4C195.7,39.6,195.8,39,196,38.3z"/>
	<path class="st2" d="M198.7,31.4v-1.7h1.5v1.7H198.7z M198.7,41.4v-8.5h1.5v8.6C200.2,41.4,198.7,41.4,198.7,41.4z"/>
	<path class="st2" d="M207.8,40.4c-0.6,0.4-1,0.8-1.5,0.9c-0.4,0.1-1,0.3-1.6,0.3c-0.9,0-1.7-0.3-2.1-0.8s-0.8-1.1-0.8-1.8
		c0-0.4,0.2-0.8,0.3-1.2c0.2-0.3,0.4-0.6,0.8-0.9c0.3-0.1,0.6-0.3,1.1-0.4c0.3,0,0.8-0.1,1.3-0.1c1.2-0.2,2.1-0.3,2.6-0.4
		c0-0.2,0-0.3,0-0.4c0-0.6-0.2-1.1-0.4-1.2c-0.3-0.3-0.9-0.4-1.7-0.4s-1.2,0.1-1.5,0.3c-0.3,0.1-0.6,0.6-0.8,1.2l-1.3-0.2
		c0.1-0.6,0.3-1.1,0.6-1.5c0.3-0.3,0.8-0.6,1.4-0.9c0.6-0.2,1.2-0.3,1.9-0.3s1.3,0.1,1.8,0.3c0.4,0.1,0.8,0.4,1,0.6
		c0.2,0.3,0.3,0.6,0.5,1.1c0,0.3,0,0.8,0,1.4v2.1c0,1.4,0,2.3,0.1,2.6c0.2,0.3,0.2,0.8,0.3,1.1h-1.5C208,41.1,207.8,40.8,207.8,40.4
		z M207.7,37.3c-0.6,0.1-1.3,0.4-2.4,0.6c-0.6,0.2-1,0.2-1.2,0.3c-0.3,0.2-0.4,0.3-0.6,0.4c-0.1,0.1-0.2,0.4-0.2,0.8
		s0.2,0.8,0.5,0.9c0.3,0.1,0.8,0.4,1.3,0.4s1.1-0.2,1.5-0.3c0.4-0.3,0.8-0.6,0.9-1.1c0.2-0.3,0.3-0.8,0.3-1.5L207.7,37.3L207.7,37.3
		z"/>
	<path class="st2" d="M211.4,41.4V29.6h1.5v11.8C212.9,41.4,211.4,41.4,211.4,41.4z"/>
	<path class="st2" d="M219,38.9l1.5-0.3c0.2,0.6,0.3,1.1,0.6,1.4s0.9,0.4,1.5,0.4s1.2-0.2,1.5-0.4c0.3-0.3,0.4-0.6,0.4-0.9
		c0-0.3-0.2-0.6-0.4-0.8c-0.2-0.1-0.8-0.3-1.5-0.4c-1.1-0.3-1.8-0.4-2.3-0.8c-0.5-0.1-0.8-0.4-0.9-0.8c-0.1-0.3-0.3-0.8-0.3-1.2
		s0.2-0.8,0.3-1.1c0.2-0.3,0.5-0.6,0.8-0.8c0.2-0.1,0.6-0.3,0.9-0.4s0.8-0.1,1.2-0.1c0.6,0,1.2,0.1,1.8,0.3c0.4,0.1,0.9,0.4,1,0.8
		c0.1,0.4,0.5,0.8,0.5,1.3l-1.4,0.2c0-0.4-0.3-0.8-0.6-1.1s-0.8-0.3-1.4-0.3c-0.6,0-1.2,0.1-1.3,0.3c-0.3,0.1-0.5,0.4-0.5,0.8
		c0,0.1,0,0.3,0.2,0.4c0.2,0.1,0.3,0.3,0.6,0.4c0.2,0,0.6,0.1,1.3,0.3c1.1,0.3,1.8,0.4,2.1,0.6c0.3,0.2,0.8,0.4,0.9,0.8
		c0.3,0.3,0.3,0.8,0.3,1.2s-0.2,0.9-0.5,1.4s-0.8,0.8-1.2,1.1c-0.6,0.3-1.2,0.3-1.8,0.3c-1,0-2-0.3-2.5-0.8
		C219.7,40.5,219.2,39.8,219,38.9z"/>
	<path class="st2" d="M227.9,31.4v-1.7h1.5v1.7H227.9z M227.9,41.4v-8.5h1.5v8.6C229.4,41.4,227.9,41.4,227.9,41.4z"/>
	<path class="st2" d="M234.7,40.1l0.2,1.4c-0.5,0.1-0.8,0.1-1,0.1c-0.6,0-0.9-0.1-1.2-0.3c-0.3-0.1-0.5-0.4-0.6-0.6
		c-0.2-0.3-0.2-0.9-0.2-1.7v-4.9h-1v-1.2h1v-2.1l1.5-0.9v3h1.5v1.2h-1.5V39c0,0.4,0,0.8,0.2,0.8c0,0.2,0.2,0.2,0.3,0.3
		c0.1,0,0.3,0.2,0.4,0.2C234.2,40.3,234.5,40.3,234.7,40.1z"/>
	<path class="st2" d="M242,38.8l1.5,0.1c-0.3,0.9-0.6,1.5-1.3,2.1c-0.6,0.4-1.5,0.8-2.4,0.8c-1.2,0-2.3-0.4-3-1.2s-1-1.8-1-3.3
		s0.3-2.6,1-3.3s1.7-1.2,2.8-1.2c1.2,0,2.1,0.4,2.8,1.2s1,1.8,1,3.3c0,0.1,0,0.1,0,0.4h-6.3c0,0.9,0.3,1.6,0.8,2.1s1,0.8,1.8,0.8
		c0.6,0,1.1-0.1,1.4-0.4C241.4,39.8,241.7,39.3,242,38.8z M237.2,36.3h4.8c0-0.8-0.3-1.2-0.6-1.6c-0.4-0.6-1.1-0.9-1.8-0.9
		c-0.6,0-1.2,0.2-1.6,0.6C237.5,35,237.2,35.6,237.2,36.3z"/>
</g>
<g class="st1">
	<path class="st3" d="M263,37.4l1.5,0.4c-0.3,1.4-0.9,2.3-1.8,3c-0.9,0.6-2,1.1-3.2,1.1s-2.3-0.3-3.1-0.8c-0.8-0.4-1.4-1.2-1.8-2.3
		s-0.6-2.1-0.6-3.1c0-1.2,0.3-2.3,0.8-3.2c0.5-0.9,1.2-1.6,2-2.1c0.9-0.4,1.8-0.8,2.8-0.8c1.2,0,2.1,0.3,3,0.9
		c0.9,0.6,1.4,1.5,1.7,2.6l-1.5,0.3c-0.3-0.9-0.6-1.5-1.2-1.8c-0.5-0.4-1.2-0.6-2-0.6c-0.9,0-1.6,0.2-2.3,0.6
		c-0.6,0.4-1,1.1-1.3,1.8c-0.3,0.8-0.3,1.5-0.3,2.3c0,1.1,0.2,1.9,0.4,2.7c0.3,0.8,0.8,1.4,1.4,1.7c0.6,0.3,1.3,0.6,1.9,0.6
		c0.9,0,1.7-0.3,2.3-0.8C262.4,39,262.8,38.3,263,37.4z"/>
	<path class="st3" d="M265.8,37.3c0-1.7,0.4-2.7,1.3-3.4c0.8-0.6,1.7-0.9,2.7-0.9c1.2,0,2.1,0.4,2.8,1.2s1.1,1.8,1.1,3.2
		c0,1.1-0.2,1.9-0.4,2.6c-0.3,0.6-0.8,1.1-1.5,1.5c-0.7,0.4-1.4,0.4-2.1,0.4c-1.2,0-2.1-0.4-2.8-1.2
		C266.2,39.8,265.8,38.6,265.8,37.3z M267.2,37.3c0,1.1,0.3,1.9,0.8,2.4c0.4,0.6,1,0.8,1.8,0.8c0.8,0,1.3-0.3,1.8-0.8
		c0.5-0.6,0.8-1.3,0.8-2.6c0-1.1-0.3-1.8-0.8-2.4c-0.4-0.6-1-0.8-1.8-0.8c-0.8,0-1.3,0.3-1.8,0.8C267.5,35.3,267.2,36,267.2,37.3z"
		/>
	<path class="st3" d="M275.5,41.4V29.6h1.5v4.2c0.8-0.8,1.5-1.2,2.5-1.2c0.6,0,1.2,0.2,1.7,0.3c0.4,0.3,0.8,0.6,1.1,1.1
		c0.1,0.4,0.3,1.1,0.3,1.9v5.4H281v-5.4c0-0.8-0.2-1.2-0.5-1.6c-0.3-0.3-0.8-0.4-1.3-0.4s-0.9,0.1-1.2,0.3c-0.3,0.1-0.6,0.4-0.8,0.9
		c-0.2,0.5-0.3,0.9-0.3,1.7v4.6L275.5,41.4L275.5,41.4z"/>
	<path class="st3" d="M284.2,37.3c0-1.7,0.4-2.7,1.3-3.4c0.8-0.6,1.7-0.9,2.7-0.9c1.2,0,2.1,0.4,2.8,1.2s1.1,1.8,1.1,3.2
		c0,1.1-0.2,1.9-0.4,2.6c-0.3,0.6-0.8,1.1-1.5,1.5c-0.7,0.4-1.4,0.4-2.1,0.4c-1.2,0-2.1-0.4-2.8-1.2
		C284.5,39.8,284.2,38.6,284.2,37.3z M285.7,37.3c0,1.1,0.3,1.9,0.8,2.4c0.4,0.6,1.1,0.8,1.8,0.8c0.7,0,1.3-0.3,1.8-0.8
		c0.5-0.6,0.8-1.3,0.8-2.6c0-1.1-0.3-1.8-0.8-2.4c-0.5-0.6-1-0.8-1.8-0.8c-0.8,0-1.4,0.3-1.8,0.8C285.8,35.3,285.7,36,285.7,37.3z"
		/>
	<path class="st3" d="M300.7,41.4l-3.2-11.8h1.7l1.8,7.8c0.1,0.8,0.3,1.7,0.4,2.4c0.3-1.2,0.4-1.9,0.6-2.3l2.3-8h2l1.6,6
		c0.5,1.5,0.8,2.9,0.9,4.2c0.1-0.8,0.3-1.6,0.6-2.6l1.8-7.5h1.5l-3.3,11.8h-1.5l-2.5-9c-0.2-0.8-0.3-1.2-0.3-1.3
		c-0.2,0.6-0.3,1.1-0.3,1.3l-2.6,9H300.7L300.7,41.4z"/>
	<path class="st3" d="M314,31.4v-1.7h1.5v1.7H314z M314,41.4v-8.5h1.5v8.6C315.5,41.4,314,41.4,314,41.4z"/>
	<path class="st3" d="M317.6,41.4v-8.5h1.3v1.2c0.6-0.9,1.5-1.3,2.7-1.3c0.4,0,1,0.1,1.3,0.3c0.5,0.1,0.8,0.4,0.9,0.8
		c0.1,0.3,0.3,0.6,0.4,1.1c0,0.3,0.2,0.8,0.2,1.3v5.2H323v-5.3c0-0.6,0-1.1-0.2-1.3c-0.1-0.3-0.3-0.4-0.6-0.8s-0.6-0.3-1-0.3
		c-0.6,0-1.2,0.1-1.7,0.6c-0.4,0.4-0.6,1.2-0.6,2.3v4.7H317.6L317.6,41.4z"/>
	<path class="st3" d="M332.6,38.8l1.5,0.1c-0.3,0.9-0.6,1.5-1.3,2.1c-0.6,0.4-1.5,0.8-2.4,0.8c-1.2,0-2.3-0.4-3-1.2s-1-1.8-1-3.3
		s0.3-2.6,1-3.3s1.7-1.2,2.9-1.2c1.2,0,2.1,0.4,2.9,1.2s1,1.8,1,3.3c0,0.1,0,0.1,0,0.4h-6.3c0,0.9,0.3,1.6,0.8,2.1
		c0.4,0.4,1,0.8,1.8,0.8c0.6,0,1-0.1,1.3-0.4C332,39.8,332.3,39.3,332.6,38.8z M327.8,36.3h4.8c0-0.8-0.3-1.2-0.6-1.6
		c-0.5-0.6-1-0.9-1.8-0.9c-0.6,0-1.2,0.2-1.7,0.6C328.1,35,328,35.6,327.8,36.3z"/>
	<path class="st3" d="M335.9,41.4v-8.5h1.3v1.4c0.3-0.6,0.6-1.1,0.9-1.2c0.3-0.2,0.6-0.3,0.9-0.3c0.5,0,1,0.1,1.5,0.4l-0.5,1.3
		c-0.3-0.1-0.8-0.3-1-0.3s-0.6,0.2-0.9,0.3c-0.3,0.2-0.5,0.4-0.6,0.8s-0.3,1.1-0.3,1.7v4.5L335.9,41.4L335.9,41.4z"/>
</g>
<g class="st1">
	<path class="st3" d="M341.3,44.8l-0.1-1.4c0.3,0.2,0.6,0.2,0.9,0.2s0.6,0,0.8-0.2c0.2-0.1,0.3-0.3,0.5-0.4s0.3-0.4,0.5-1.1
		c0-0.1,0-0.1,0.1-0.3l-3.3-8.6h1.5l1.8,4.9c0.3,0.6,0.5,1.4,0.6,1.9c0.1-0.6,0.3-1.3,0.6-1.9L347,33h1.5l-3.3,8.7
		c-0.3,0.9-0.6,1.7-0.8,1.9c-0.3,0.4-0.6,0.9-0.9,1.1s-0.8,0.3-1.2,0.3C341.9,44.9,341.6,44.9,341.3,44.8z"/>
</g>
<g class="st1">
	<path class="st3" d="M348.8,41.4v-1.7h1.7v1.7c0,0.6-0.2,1.1-0.3,1.5c-0.2,0.3-0.6,0.6-1.1,0.9l-0.4-0.6c0.3-0.2,0.6-0.3,0.8-0.6
		c0.1-0.3,0.1-0.6,0.3-1.1h-0.9v-0.1C348.9,41.4,348.8,41.4,348.8,41.4z"/>
	<path class="st3" d="M357.7,41.4V29.6h1.5v10.3h5.8v1.3h-7.3V41.4z"/>
	<path class="st3" d="M366.8,41.4V29.6h1.5v10.3h5.9v1.3h-7.4V41.4z"/>
	<path class="st3" d="M384.5,37.4l1.5,0.4c-0.3,1.4-0.9,2.3-1.8,3c-0.9,0.6-2,1.1-3.1,1.1c-1.2,0-2.3-0.3-3.2-0.8
		c-0.8-0.4-1.3-1.2-1.8-2.3s-0.6-2.1-0.6-3.1c0-1.2,0.3-2.3,0.8-3.2c0.5-0.9,1.2-1.6,2-2.1c0.9-0.4,1.8-0.8,2.9-0.8
		c1.2,0,2.1,0.3,3,0.9c0.9,0.6,1.3,1.5,1.6,2.6l-1.5,0.3c-0.3-0.9-0.6-1.5-1.2-1.8c-0.4-0.4-1.2-0.6-1.9-0.6c-0.9,0-1.7,0.2-2.3,0.6
		c-0.6,0.4-1.1,1.1-1.4,1.8s-0.3,1.5-0.3,2.3c0,1.1,0.1,1.9,0.4,2.7s0.8,1.4,1.4,1.7s1.4,0.6,2,0.6c0.9,0,1.6-0.3,2.2-0.8
		C383.9,39,384.2,38.3,384.5,37.4z"/>
</g>
<g class="st1">
	<path d="M8.2,67.8l4.5-11.9h1.7l4.8,11.9h-1.8L16,64.2h-4.8l-1.4,3.6C9.8,67.8,8.2,67.8,8.2,67.8z M11.6,63h4l-1.2-3.3
		c-0.4-0.9-0.7-1.8-0.9-2.4c-0.2,0.8-0.3,1.5-0.6,2.3L11.6,63z"/>
	<path d="M20.3,67.8V56h1.5v11.9L20.3,67.8L20.3,67.8z"/>
	<path d="M23.9,67.8V56h1.5v11.9L23.9,67.8L23.9,67.8z"/>
	<path d="M32.2,67.8v-8.5h1.3v1.4c0.3-0.6,0.6-1.1,0.9-1.2c0.3-0.1,0.6-0.3,0.9-0.3c0.4,0,1.1,0.1,1.5,0.4L36.4,61
		c-0.3-0.1-0.8-0.3-1.1-0.3s-0.6,0.1-0.9,0.3c-0.3,0.2-0.5,0.5-0.6,0.8c-0.1,0.5-0.3,1-0.3,1.6v4.5L32.2,67.8L32.2,67.8z"/>
	<path d="M43.6,65.2l1.5,0.1c-0.3,0.9-0.6,1.5-1.4,2.1c-0.6,0.4-1.5,0.8-2.4,0.8c-1.2,0-2.3-0.5-3-1.2c-0.7-0.7-1.1-1.8-1.1-3.3
		s0.3-2.6,1.1-3.3c0.8-0.7,1.6-1.2,2.9-1.2c1.2,0,2.1,0.4,2.8,1.2s1.1,1.8,1.1,3.3c0,0.1,0,0.1,0,0.4h-6.3c0,0.9,0.3,1.6,0.8,2.1
		c0.4,0.5,1.1,0.8,1.8,0.8c0.6,0,1.1-0.1,1.4-0.4C42.9,66.2,43.2,65.7,43.6,65.2z M38.7,62.9h4.8c0-0.8-0.3-1.2-0.6-1.6
		c-0.5-0.6-1-0.9-1.8-0.9c-0.6,0-1.2,0.1-1.7,0.6C39.1,61.5,38.9,62.2,38.7,62.9z"/>
	<path d="M52.4,67.8v-1C51.8,67.7,51,68,50,68c-0.8,0-1.4-0.1-1.9-0.6c-0.6-0.3-1.1-0.9-1.4-1.5s-0.4-1.5-0.4-2.3
		c0-0.9,0.1-1.6,0.4-2.3c0.3-0.8,0.8-1.2,1.4-1.6c0.6-0.3,1.2-0.6,1.9-0.6c0.4,0,0.9,0.1,1.4,0.3s0.8,0.4,1.1,0.9v-4.2H54v11.7
		C54,67.8,52.4,67.8,52.4,67.8z M47.7,63.7c0,1,0.3,1.9,0.8,2.4c0.4,0.6,1.1,0.8,1.6,0.8c0.6,0,1.2-0.3,1.6-0.8
		c0.4-0.5,0.6-1.4,0.6-2.4c0-1.2-0.1-2.1-0.8-2.6c-0.6-0.4-0.9-0.8-1.6-0.8c-0.6,0-1.2,0.3-1.6,0.8C48.1,61.7,47.7,62.6,47.7,63.7z"
		/>
	<path d="M62.1,67.8l-2.6-8.5H61l1.4,4.9l0.4,1.8c0-0.1,0.1-0.8,0.4-1.8l1.4-4.9h1.5l1.4,4.9l0.5,1.7l0.4-1.6l1.5-4.9h1.4l-2.7,8.5
		h-1.5l-1.4-5.1l-0.3-1.5l-1.8,6.6L62.1,67.8C62.1,67.9,62.1,67.8,62.1,67.8z"/>
	<path d="M72.5,57.8v-1.6H74v1.6H72.5z M72.5,67.8v-8.5H74v8.5H72.5z"/>
	<path d="M76.1,67.8v-8.5h1.4v1.2c0.6-0.9,1.5-1.4,2.7-1.4c0.4,0,1.1,0.1,1.4,0.3c0.4,0.1,0.8,0.4,0.9,0.8c0.1,0.3,0.3,0.6,0.4,1
		c0,0.3,0.1,0.8,0.1,1.4v5.3h-1.5v-5.3c0-0.6,0-1-0.1-1.4c-0.1-0.3-0.3-0.4-0.6-0.8c-0.3-0.3-0.6-0.3-1.1-0.3
		c-0.6,0-1.2,0.1-1.6,0.6c-0.4,0.4-0.6,1.2-0.6,2.3v4.8C77.5,67.8,76.1,67.8,76.1,67.8z"/>
	<path d="M91.1,65.2l1.5,0.1c-0.3,0.9-0.6,1.5-1.4,2.1c-0.6,0.4-1.5,0.8-2.4,0.8c-1.2,0-2.3-0.5-3-1.2c-0.7-0.7-1.1-1.8-1.1-3.3
		s0.3-2.6,1.1-3.3s1.6-1.2,2.9-1.2c1.2,0,2.1,0.4,2.9,1.2c0.8,0.8,1.1,1.8,1.1,3.3c0,0.1,0,0.1,0,0.4h-6.3c0,0.9,0.3,1.6,0.8,2.1
		c0.4,0.5,1.1,0.8,1.8,0.8c0.6,0,1.1-0.1,1.4-0.4C90.6,66.2,90.9,65.7,91.1,65.2z M86.4,62.9h4.8c0-0.8-0.3-1.2-0.6-1.6
		c-0.4-0.6-1.1-0.9-1.8-0.9c-0.6,0-1.2,0.1-1.6,0.6C86.8,61.5,86.4,62.2,86.4,62.9z"/>
	<path d="M93.9,65.5l1.5-0.3c0.1,0.6,0.3,1,0.6,1.4c0.3,0.3,0.9,0.4,1.5,0.4s1.2-0.1,1.5-0.4s0.5-0.6,0.5-0.9c0-0.3-0.1-0.6-0.5-0.8
		c-0.1-0.1-0.8-0.3-1.5-0.5c-1-0.3-1.8-0.4-2.3-0.8c-0.4-0.1-0.8-0.4-0.9-0.8C94.2,62.5,94,62,94,61.6c0-0.5,0.1-0.8,0.3-1.1
		c0.1-0.3,0.4-0.6,0.8-0.8c0.1-0.1,0.6-0.3,0.9-0.4c0.3-0.1,0.8-0.1,1.2-0.1c0.6,0,1.2,0.1,1.8,0.3c0.5,0.1,0.9,0.5,1,0.8
		c0.3,0.3,0.5,0.8,0.5,1.4l-1.4,0.1c0-0.4-0.3-0.8-0.6-1c-0.3-0.3-0.6-0.5-1.2-0.5s-1.1,0.2-1.3,0.4c-0.3,0.1-0.5,0.4-0.5,0.8
		c0,0.1,0,0.3,0.1,0.4s0.3,0.3,0.6,0.5c0.1,0,0.6,0.1,1.4,0.3c1,0.3,1.8,0.5,2.1,0.6c0.5,0.1,0.8,0.5,0.9,0.8
		c0.1,0.3,0.3,0.9,0.3,1.5c0,0.5-0.1,0.9-0.5,1.4c-0.3,0.5-0.8,0.8-1.2,1.1c-0.5,0.3-1.2,0.3-1.8,0.3c-1,0-2-0.3-2.6-0.8
		C94.4,67,94.1,66.3,93.9,65.5z"/>
	<path d="M106.7,63.7c0-1.6,0.5-2.7,1.4-3.5c0.8-0.6,1.6-0.9,2.7-0.9c1.2,0,2.1,0.5,2.9,1.2s1,1.8,1,3.1c0,1-0.1,1.9-0.5,2.5
		c-0.3,0.6-0.8,1.1-1.5,1.5c-0.8,0.5-1.4,0.5-2.1,0.5c-1.2,0-2.1-0.5-2.9-1.2C107.1,66.2,106.7,65.2,106.7,63.7z M108.2,63.7
		c0,1,0.3,1.9,0.8,2.4c0.5,0.6,1,0.8,1.8,0.8c0.8,0,1.4-0.3,1.8-0.8c0.5-0.6,0.8-1.4,0.8-2.6c0-1-0.3-1.8-0.8-2.4
		c-0.4-0.4-1-0.8-1.8-0.8c-0.8,0-1.4,0.3-1.8,0.8C108.5,61.7,108.2,62.6,108.2,63.7z"/>
	<path d="M116.5,67.8v-8.5h1.4v1.2c0.6-0.9,1.5-1.4,2.7-1.4c0.5,0,1,0.1,1.4,0.3c0.5,0.1,0.8,0.4,0.9,0.8c0.1,0.3,0.3,0.6,0.5,1
		c0,0.3,0.1,0.8,0.1,1.4v5.3H122v-5.3c0-0.6,0-1-0.1-1.4c-0.1-0.3-0.3-0.4-0.6-0.8c-0.3-0.3-0.6-0.3-1-0.3c-0.6,0-1.2,0.1-1.6,0.6
		c-0.5,0.4-0.6,1.2-0.6,2.3v4.8C118.1,67.8,116.5,67.8,116.5,67.8z"/>
	<path d="M129.6,65.5l1.5-0.3c0.2,0.6,0.3,1,0.6,1.4c0.3,0.3,0.9,0.4,1.5,0.4s1.2-0.1,1.5-0.4s0.5-0.6,0.5-0.9
		c0-0.3-0.2-0.6-0.5-0.8c-0.1-0.1-0.8-0.3-1.5-0.5c-1-0.3-1.8-0.4-2.3-0.8c-0.5-0.1-0.8-0.4-0.9-0.8c-0.2-0.3-0.3-0.8-0.3-1.2
		c0-0.5,0.2-0.8,0.3-1.1c0.1-0.3,0.4-0.6,0.8-0.8c0.1-0.1,0.6-0.3,0.9-0.4s0.8-0.1,1.2-0.1c0.6,0,1.2,0.1,1.8,0.3
		c0.5,0.1,0.9,0.5,1,0.8c0.3,0.3,0.5,0.8,0.5,1.4l-1.4,0.1c0-0.4-0.3-0.8-0.6-1c-0.3-0.3-0.6-0.5-1.2-0.5s-1.2,0.1-1.4,0.3
		c-0.3,0.1-0.5,0.4-0.5,0.8c0,0.1,0,0.3,0.2,0.4c0.1,0.1,0.3,0.3,0.6,0.5c0.2,0,0.6,0.1,1.3,0.3c1.1,0.3,1.8,0.5,2.1,0.6
		c0.5,0.1,0.8,0.5,0.9,0.8c0.2,0.3,0.3,0.8,0.3,1.2c0,0.4-0.2,0.9-0.5,1.4c-0.3,0.4-0.8,0.8-1.2,1c-0.5,0.3-1.2,0.3-1.8,0.3
		c-1,0-2-0.3-2.5-0.8C130.1,67,129.8,66.3,129.6,65.5z"/>
	<path d="M143.9,66.8c-0.6,0.4-1,0.8-1.5,0.9c-0.4,0.1-1,0.3-1.6,0.3c-0.9,0-1.6-0.3-2.1-0.8c-0.4-0.4-0.8-1-0.8-1.8
		c0-0.5,0.2-0.8,0.3-1.2c0.1-0.3,0.4-0.6,0.8-0.9c0.3-0.1,0.6-0.3,1-0.4c0.3,0,0.8-0.1,1.4-0.1c1.2-0.1,2.1-0.3,2.5-0.5
		c0-0.1,0-0.3,0-0.4c0-0.6-0.2-1.1-0.5-1.2c-0.3-0.3-0.9-0.4-1.6-0.4c-0.7,0-1.2,0.1-1.5,0.3c-0.3,0.2-0.6,0.6-0.8,1.2l-1.3,0.1
		c0.2-0.6,0.3-1,0.6-1.5c0.3-0.3,0.8-0.6,1.4-0.9c0.6-0.1,1.2-0.3,2-0.3c0.8,0,1.3,0.1,1.8,0.3c0.5,0.1,0.8,0.5,1,0.6
		c0.2,0.3,0.3,0.6,0.5,1.1c0,0.3,0,0.8,0,1.4v1.9c0,1.4,0,2.3,0.1,2.6c0.2,0.3,0.2,0.8,0.3,1h-1.5C144,67.5,144,67.2,143.9,66.8z
		 M143.9,63.7c-0.6,0.1-1.3,0.4-2.4,0.6c-0.6,0.1-1,0.1-1.2,0.3c-0.3,0.1-0.5,0.3-0.6,0.5c-0.2,0.1-0.2,0.4-0.2,0.8
		c0,0.4,0.2,0.8,0.5,0.9c0.3,0.1,0.8,0.4,1.4,0.4s1-0.1,1.5-0.3c0.4-0.3,0.8-0.6,0.9-1.1c0.1-0.3,0.3-0.8,0.3-1.5L143.9,63.7
		L143.9,63.7z"/>
	<path d="M147.5,67.8V56h1.5v11.9L147.5,67.8L147.5,67.8z"/>
	<path d="M157.1,65.2l1.5,0.1c-0.3,0.9-0.6,1.5-1.4,2.1c-0.6,0.4-1.5,0.8-2.4,0.8c-1.2,0-2.3-0.5-3-1.2c-0.7-0.7-1.1-1.8-1.1-3.3
		s0.3-2.6,1.1-3.3c0.8-0.7,1.6-1.2,2.8-1.2c1.2,0,2.1,0.4,2.8,1.2c0.7,0.8,1.1,1.8,1.1,3.3c0,0.1,0,0.1,0,0.4h-6.3
		c0,0.9,0.3,1.6,0.8,2.1s1.1,0.8,1.8,0.8c0.6,0,1-0.1,1.3-0.4C156.5,66.2,156.8,65.7,157.1,65.2z M152.3,62.9h4.8
		c0-0.8-0.3-1.2-0.6-1.6c-0.4-0.6-1-0.9-1.8-0.9c-0.6,0-1.2,0.1-1.7,0.6C152.6,61.5,152.3,62.2,152.3,62.9z"/>
	<path d="M161.1,65l-0.4-6.3v-2.6h1.8v2.6L162,65H161.1z M160.7,67.8v-1.5h1.7v1.5H160.7z"/>
	<path d="M169.9,67.8V56h7.9v1.4h-6.4V61h5.5v1.4h-5.5v5.5L169.9,67.8L169.9,67.8z"/>
	<path d="M179.6,67.8v-8.5h1.3v1.4c0.3-0.6,0.6-1.1,0.9-1.2c0.3-0.1,0.6-0.3,0.9-0.3c0.5,0,1,0.1,1.5,0.4l-0.5,1.4
		c-0.3-0.1-0.8-0.3-1-0.3c-0.2,0-0.6,0.1-0.9,0.3s-0.5,0.5-0.6,0.8c-0.1,0.5-0.3,1.1-0.3,1.6v4.5L179.6,67.8L179.6,67.8z"/>
	<path d="M190.9,65.2l1.5,0.1c-0.3,0.9-0.6,1.5-1.4,2.1c-0.6,0.4-1.5,0.8-2.4,0.8c-1.2,0-2.3-0.5-3-1.2c-0.7-0.7-1-1.8-1-3.3
		s0.3-2.6,1-3.3s1.6-1.2,2.9-1.2c1.2,0,2.1,0.4,2.8,1.2c0.7,0.8,1,1.8,1,3.3c0,0.1,0,0.1,0,0.4H186c0,0.9,0.3,1.6,0.8,2.1
		s1,0.8,1.8,0.8c0.6,0,1-0.1,1.4-0.4C190.4,66.2,190.7,65.7,190.9,65.2z M186.2,62.9h4.8c0-0.8-0.3-1.2-0.6-1.6
		c-0.4-0.6-1-0.9-1.8-0.9c-0.6,0-1.2,0.1-1.7,0.6C186.5,61.5,186.2,62.2,186.2,62.9z"/>
	<path d="M200.2,65.2l1.5,0.1c-0.3,0.9-0.6,1.5-1.3,2.1c-0.6,0.4-1.5,0.8-2.4,0.8c-1.2,0-2.3-0.5-3-1.2c-0.7-0.7-1.1-1.8-1.1-3.3
		s0.3-2.6,1.1-3.3s1.7-1.2,2.8-1.2c1.2,0,2.1,0.4,2.8,1.2s1.1,1.8,1.1,3.3c0,0.1,0,0.1,0,0.4h-6.3c0,0.9,0.3,1.6,0.8,2.1
		c0.4,0.5,1.1,0.8,1.8,0.8c0.6,0,1-0.1,1.3-0.4C199.5,66.2,199.8,65.7,200.2,65.2z M195.3,62.9h4.8c0-0.8-0.3-1.2-0.6-1.6
		c-0.4-0.6-1-0.9-1.8-0.9c-0.6,0-1.2,0.1-1.7,0.6C195.7,61.5,195.3,62.2,195.3,62.9z"/>
	<path d="M207.7,68.6l1.3,0.1c0,0.5,0.2,0.8,0.5,0.9c0.3,0.3,0.9,0.5,1.5,0.5s1.2-0.1,1.5-0.5c0.3-0.3,0.6-0.6,0.8-1.2
		c0-0.3,0.1-0.9,0.1-1.8c-0.6,0.8-1.3,1.1-2.4,1.1c-1.2,0-2.1-0.5-2.7-1.2c-0.6-0.9-0.9-1.8-0.9-3c0-0.8,0.2-1.5,0.4-2.3
		c0.3-0.8,0.8-1.2,1.4-1.6c0.6-0.4,1.2-0.6,1.9-0.6c1.1,0,1.8,0.5,2.6,1.2v-1.1h1.3v7.4c0,1.4-0.1,2.3-0.4,2.9s-0.8,1.1-1.3,1.4
		c-0.6,0.3-1.3,0.5-2.1,0.5c-1.1,0-1.8-0.3-2.4-0.8C208,70.2,207.7,69.5,207.7,68.6z M208.8,63.5c0,1.1,0.2,2,0.6,2.4
		c0.5,0.5,1,0.8,1.7,0.8c0.6,0,1.2-0.3,1.7-0.8c0.5-0.4,0.8-1.4,0.8-2.4s-0.3-1.8-0.8-2.4c-0.5-0.6-1-0.8-1.7-0.8
		c-0.6,0-1.2,0.3-1.7,0.8C209,61.5,208.8,62.5,208.8,63.5z"/>
	<path d="M217.1,57.8v-1.6h1.5v1.6H217.1z M217.1,67.8v-8.5h1.5v8.5H217.1z"/>
	<path d="M221.2,67.8v-7.3h-1.3v-1.2h1.3v-0.9c0-0.6,0-1.1,0.2-1.4c0.2-0.3,0.5-0.8,0.8-0.9c0.3-0.3,0.9-0.3,1.5-0.3
		c0.5,0,0.9,0,1.3,0.1l-0.2,1.2c-0.3,0-0.6-0.1-0.9-0.1c-0.4,0-0.8,0.1-0.9,0.3c-0.2,0.1-0.3,0.6-0.3,1.1v0.8h1.6v1.2h-1.8v7.5
		L221.2,67.8L221.2,67.8z"/>
	<path d="M228.5,66.7l0.2,1.4c-0.4,0.1-0.8,0.1-1.1,0.1c-0.6,0-0.9-0.1-1.2-0.3c-0.3-0.1-0.4-0.4-0.6-0.6c-0.2-0.3-0.2-0.9-0.2-1.6
		v-4.9h-1.1v-1.3h1.1v-2.1l1.5-0.9v3h1.5v1.2h-1.5v4.9c0,0.5,0,0.8,0.2,0.8c0,0.1,0.2,0.1,0.3,0.3c0.2,0,0.3,0.1,0.5,0.1
		C228,66.7,228.2,66.7,228.5,66.7z"/>
	<path d="M236.2,67.8l-2.6-8.5h1.5l1.4,4.9l0.4,1.8c0-0.1,0.2-0.8,0.4-1.8l1.4-4.9h1.5l1.3,4.9l0.5,1.6l0.5-1.6l1.5-4.9h1.3
		l-2.7,8.5h-1.5l-1.3-5.1l-0.3-1.5l-1.8,6.6H236.2z"/>
	<path d="M246.3,57.8v-1.6h1.5v1.6H246.3z M246.3,67.8v-8.5h1.5v8.5H246.3z"/>
	<path d="M253.3,66.7l0.2,1.4c-0.4,0.1-0.8,0.1-1.1,0.1c-0.6,0-0.9-0.1-1.2-0.3c-0.3-0.1-0.4-0.4-0.6-0.6c-0.2-0.3-0.2-0.9-0.2-1.6
		v-4.9h-1.1v-1.3h1.1v-2.1l1.5-0.9v3h1.5v1.2h-1.5v4.9c0,0.5,0,0.8,0.2,0.8c0,0.1,0.2,0.1,0.3,0.3c0.2,0,0.3,0.1,0.5,0.1
		C252.8,66.7,253,66.7,253.3,66.7z"/>
	<path d="M254.6,67.8V56h1.5v4.4c0.8-0.8,1.5-1.2,2.6-1.2c0.6,0,1.2,0.1,1.6,0.3c0.5,0.3,0.8,0.6,1.1,1.1c0.3,0.4,0.3,1,0.3,1.9v5.4
		h-1.5v-5.4c0-0.8-0.2-1.2-0.5-1.6c-0.3-0.3-0.8-0.4-1.3-0.4c-0.4,0-0.9,0.1-1.2,0.3c-0.3,0.2-0.6,0.5-0.8,0.9
		c-0.2,0.5-0.3,0.9-0.3,1.6v4.6L254.6,67.8L254.6,67.8z"/>
	<path d="M268.4,71.2V59.3h1.3v1c0.3-0.4,0.6-0.8,1-1c0.5-0.1,0.9-0.3,1.4-0.3c0.8,0,1.3,0.1,1.9,0.6c0.6,0.3,1.1,0.9,1.2,1.6
		c0.3,0.8,0.5,1.5,0.5,2.3c0,0.9-0.2,1.6-0.5,2.4s-0.8,1.2-1.3,1.6c-0.6,0.3-1.2,0.6-2,0.6c-0.5,0-0.9-0.1-1.3-0.3
		c-0.4-0.2-0.8-0.5-0.9-0.8v4.2H268.4L268.4,71.2z M269.8,63.7c0,1,0.2,1.9,0.6,2.4c0.4,0.6,1.1,0.8,1.7,0.8s1.2-0.3,1.7-0.8
		c0.4-0.6,0.8-1.4,0.8-2.6c0-1-0.2-1.9-0.6-2.4c-0.5-0.6-1-0.8-1.7-0.8c-0.6,0-1.2,0.3-1.7,0.9C269.9,61.7,269.8,62.6,269.8,63.7z"
		/>
	<path d="M283.1,67.8v-1.2c-0.6,0.9-1.5,1.5-2.7,1.5c-0.5,0-0.9-0.1-1.4-0.3c-0.4-0.1-0.8-0.4-0.9-0.8c-0.2-0.3-0.3-0.6-0.5-1
		c0-0.3-0.2-0.8-0.2-1.4v-5.3h1.5v4.8c0,0.8,0,1.2,0.2,1.5c0.2,0.5,0.3,0.8,0.6,0.9c0.3,0.1,0.6,0.3,1.1,0.3c0.4,0,0.9-0.1,1.2-0.3
		s0.6-0.6,0.8-0.9c0.2-0.4,0.3-0.9,0.3-1.6v-4.5h1.5v8.3H283.1z"/>
	<path d="M286.7,67.8v-8.5h1.3v1.4c0.3-0.6,0.6-1.1,0.9-1.2c0.3-0.1,0.6-0.3,0.9-0.3c0.5,0,1.1,0.1,1.5,0.4l-0.4,1.4
		c-0.3-0.1-0.8-0.3-1.1-0.3s-0.6,0.1-0.9,0.3c-0.3,0.2-0.5,0.5-0.6,0.8c-0.1,0.5-0.3,1.1-0.3,1.6v4.5L286.7,67.8L286.7,67.8
		L286.7,67.8z"/>
	<path d="M297.8,64.8l1.4,0.1c-0.2,1.1-0.6,1.8-1.2,2.3c-0.6,0.6-1.5,0.9-2.4,0.9c-1.2,0-2.1-0.4-2.8-1.2c-0.7-0.8-1-1.8-1-3.3
		c0-0.9,0.1-1.8,0.4-2.4c0.3-0.8,0.8-1.2,1.3-1.5c0.6-0.3,1.3-0.4,2.1-0.4c0.9,0,1.7,0.3,2.3,0.8c0.6,0.4,0.9,1.2,1.2,1.9l-1.3,0.1
		c-0.2-0.6-0.3-1-0.8-1.4c-0.3-0.3-0.8-0.4-1.2-0.4c-0.8,0-1.3,0.3-1.8,0.8c-0.5,0.4-0.8,1.4-0.8,2.5c0,1.2,0.1,2,0.6,2.6
		s1.1,0.8,1.7,0.8c0.6,0,1-0.1,1.3-0.5C297.3,66,297.7,65.5,297.8,64.8z"/>
	<path d="M300.3,67.8V56h1.5v4.4c0.8-0.8,1.5-1.2,2.6-1.2c0.6,0,1.2,0.1,1.6,0.3c0.5,0.3,0.8,0.6,1.1,1.1c0.3,0.4,0.3,1,0.3,1.9v5.4
		h-1.5v-5.4c0-0.8-0.2-1.2-0.5-1.6c-0.3-0.3-0.8-0.4-1.3-0.4c-0.4,0-0.9,0.1-1.2,0.3s-0.6,0.5-0.8,0.9c-0.2,0.5-0.3,0.9-0.3,1.6v4.6
		L300.3,67.8L300.3,67.8z"/>
	<path d="M315.2,66.8c-0.6,0.4-1.1,0.8-1.5,0.9c-0.5,0.1-1.1,0.3-1.7,0.3c-0.9,0-1.6-0.3-2.1-0.8c-0.4-0.4-0.8-1-0.8-1.8
		c0-0.5,0.1-0.8,0.3-1.2c0.2-0.3,0.5-0.6,0.8-0.9c0.3-0.1,0.6-0.3,1-0.4c0.3,0,0.8-0.1,1.4-0.1c1.2-0.1,2.1-0.3,2.5-0.5
		c0-0.1,0-0.3,0-0.4c0-0.6-0.2-1.1-0.5-1.2c-0.3-0.3-0.9-0.4-1.6-0.4s-1.2,0.1-1.5,0.3c-0.3,0.3-0.6,0.6-0.8,1.2l-1.4-0.1
		c0.2-0.6,0.3-1.1,0.6-1.5c0.3-0.3,0.8-0.6,1.3-0.9c0.6-0.1,1.2-0.3,2-0.3c0.8,0,1.3,0.1,1.8,0.3c0.5,0.1,0.8,0.4,1.1,0.6
		c0.2,0.3,0.3,0.6,0.4,1c0,0.3,0,0.8,0,1.4v2c0,1.4,0,2.3,0.2,2.5c0.1,0.3,0.1,0.8,0.3,1.1h-1.5C315.3,67.5,315.2,67.2,315.2,66.8z
		 M315,63.7c-0.6,0.1-1.3,0.4-2.4,0.6c-0.6,0.1-1.1,0.1-1.2,0.3c-0.2,0.2-0.5,0.3-0.6,0.5c-0.2,0.1-0.2,0.4-0.2,0.8
		c0,0.4,0.2,0.8,0.5,0.9c0.3,0.3,0.8,0.4,1.3,0.4c0.6,0,1.1-0.1,1.5-0.3c0.5-0.3,0.8-0.6,0.9-1.1c0.1-0.3,0.3-0.8,0.3-1.5L315,63.7
		L315,63.7z"/>
	<path d="M318.2,65.5l1.5-0.3c0.1,0.6,0.3,1,0.6,1.4c0.3,0.3,0.9,0.4,1.5,0.4s1.2-0.1,1.5-0.4s0.5-0.6,0.5-0.9
		c0-0.3-0.2-0.6-0.5-0.8c-0.1-0.1-0.8-0.3-1.5-0.5c-1-0.3-1.8-0.4-2.3-0.8c-0.4-0.1-0.8-0.4-0.9-0.8c-0.2-0.3-0.3-0.8-0.3-1.2
		c0-0.5,0.2-0.8,0.3-1.1c0.1-0.3,0.4-0.6,0.8-0.8c0.1-0.1,0.6-0.3,0.9-0.4c0.5-0.1,0.8-0.1,1.2-0.1c0.6,0,1.2,0.1,1.8,0.3
		c0.5,0.1,0.9,0.5,1,0.8s0.5,0.8,0.5,1.4l-1.3,0.1c0-0.4-0.3-0.8-0.6-1c-0.3-0.3-0.8-0.3-1.3-0.3c-0.6,0-1.2,0.1-1.4,0.3
		c-0.3,0.1-0.4,0.4-0.4,0.8c0,0.1,0,0.3,0.2,0.4c0.2,0.1,0.3,0.3,0.6,0.5c0.2,0,0.6,0.1,1.4,0.3c1,0.3,1.8,0.5,2.1,0.6
		c0.3,0.2,0.8,0.5,0.9,0.8c0.3,0.3,0.3,0.8,0.3,1.2s-0.1,0.9-0.4,1.4c-0.3,0.4-0.8,0.8-1.2,1c-0.6,0.3-1.2,0.3-1.8,0.3
		c-1.1,0-2-0.3-2.6-0.8C318.7,67,318.3,66.3,318.2,65.5z"/>
	<path d="M332.8,65.2l1.5,0.1c-0.3,0.9-0.6,1.5-1.3,2.1c-0.6,0.4-1.5,0.8-2.4,0.8c-1.2,0-2.3-0.5-3-1.2c-0.7-0.7-1-1.8-1-3.3
		s0.3-2.6,1-3.3s1.7-1.2,2.8-1.2c1.2,0,2.1,0.4,2.9,1.2s1,1.8,1,3.3c0,0.1,0,0.1,0,0.4H328c0,0.9,0.3,1.6,0.8,2.1s1,0.8,1.8,0.8
		c0.6,0,1.1-0.1,1.4-0.4C332.3,66.2,332.6,65.7,332.8,65.2z M328.1,62.9h4.8c0-0.8-0.3-1.2-0.6-1.6c-0.5-0.6-1-0.9-1.8-0.9
		c-0.6,0-1.2,0.1-1.7,0.6C328.4,61.4,328.1,62.2,328.1,62.9z"/>
	<path d="M336.5,67.8v-1.5h1.7v1.5H336.5z"/>
</g>
<g class="st1">
	<path class="st4" d="M9.5,94.4V82.5h5.3c1,0,1.8,0.1,2.4,0.3c0.6,0.2,1,0.6,1.3,1.1c0.3,0.6,0.5,1.2,0.5,1.8c0,0.9-0.3,1.5-0.8,2.1
		c-0.6,0.6-1.3,0.9-2.5,1.1c0.5,0.2,0.8,0.4,0.9,0.6c0.4,0.4,0.9,0.9,1.3,1.5l2.1,3.1h-2l-1.5-2.4c-0.5-0.8-0.9-1.2-1.2-1.7
		s-0.6-0.6-0.8-0.8c-0.3-0.1-0.5-0.3-0.8-0.3c-0.2,0-0.5,0-0.9,0H11v5.3L9.5,94.4L9.5,94.4z M11.2,87.8h3.3c0.8,0,1.2,0,1.7-0.1
		c0.5-0.2,0.8-0.4,0.9-0.8c0.2-0.3,0.3-0.8,0.3-1.1c0-0.6-0.2-1.1-0.6-1.3c-0.5-0.3-1-0.6-2-0.6h-3.6C11.2,83.9,11.2,87.8,11.2,87.8
		z"/>
	<path class="st4" d="M27.1,91.5l1.5,0.2c-0.3,0.9-0.6,1.5-1.4,2.1c-0.6,0.5-1.5,0.8-2.4,0.8c-1.2,0-2.3-0.5-3-1.2
		c-0.8-0.7-1.1-1.8-1.1-3.3s0.3-2.6,1.1-3.3s1.6-1.2,2.8-1.2s2.1,0.4,2.8,1.2s1.1,1.8,1.1,3.3c0,0.1,0,0.1,0,0.4h-6.3
		c0,0.9,0.3,1.6,0.8,2.1s1.1,0.8,1.8,0.8c0.6,0,1-0.1,1.3-0.4C26.6,92.6,26.9,92.3,27.1,91.5z M22.2,89.3H27c0-0.8-0.3-1.2-0.6-1.6
		c-0.4-0.6-1-0.9-1.8-0.9c-0.6,0-1.2,0.2-1.7,0.6C22.5,88,22.4,88.5,22.2,89.3z"/>
	<path class="st4" d="M35.9,94.4v-1c-0.6,0.9-1.4,1.2-2.4,1.2c-0.8,0-1.3-0.1-1.9-0.6c-0.6-0.3-1.1-0.9-1.4-1.5
		c-0.3-0.6-0.4-1.5-0.4-2.3c0-0.9,0.1-1.7,0.4-2.3c0.3-0.8,0.8-1.2,1.4-1.7c0.6-0.3,1.2-0.6,1.9-0.6c0.4,0,0.9,0.1,1.3,0.3
		c0.5,0.2,0.8,0.5,1.1,0.9v-4.2h1.5v11.8L35.9,94.4L35.9,94.4z M31.4,90c0,1.1,0.3,2,0.8,2.4c0.4,0.6,1,0.8,1.6,0.8
		c0.6,0,1.2-0.3,1.6-0.8S36,91,36,90c0-1.2-0.1-2.1-0.8-2.5c-0.6-0.5-1.1-0.8-1.6-0.8c-0.6,0-1.2,0.3-1.7,0.8
		C31.6,88.1,31.4,89,31.4,90z"/>
	<path class="st4" d="M45.7,94.4l-2.6-8.5h1.5l1.4,4.9l0.4,1.8c0-0.1,0.2-0.8,0.4-1.8l1.4-4.9h1.5l1.4,4.9l0.4,1.7l0.4-1.7l1.5-4.9
		h1.4l-2.7,8.5h-1.5l-1.4-5.1l-0.3-1.5l-1.8,6.6H45.7z"/>
	<path class="st4" d="M56,84.2v-1.7h1.5v1.7H56z M56,94.4v-8.5h1.5v8.5H56z"/>
	<path class="st4" d="M59.6,94.4v-8.5H61v1.2c0.6-0.9,1.5-1.3,2.7-1.3c0.4,0,1.1,0.1,1.4,0.3c0.4,0.1,0.8,0.4,0.9,0.8
		c0.1,0.3,0.3,0.6,0.4,1c0,0.3,0.1,0.8,0.1,1.4v5.2H65v-5.3c0-0.6,0-1.1-0.1-1.3c-0.1-0.3-0.3-0.5-0.6-0.8c-0.3-0.3-0.6-0.3-1.1-0.3
		c-0.6,0-1.2,0.1-1.6,0.6c-0.4,0.5-0.6,1.2-0.6,2.3v4.7L59.6,94.4L59.6,94.4z"/>
	<path class="st4" d="M74.8,91.5l1.5,0.2c-0.3,0.9-0.6,1.5-1.4,2.1c-0.6,0.5-1.5,0.7-2.4,0.7c-1.2,0-2.3-0.5-3-1.2
		c-0.8-0.7-1.1-1.8-1.1-3.3s0.3-2.6,1.1-3.3s1.6-1.2,2.9-1.2c1.2,0,2.1,0.4,2.9,1.2c0.8,0.8,1.1,1.8,1.1,3.3c0,0.1,0,0.1,0,0.4H70
		c0,0.9,0.3,1.6,0.8,2.1s1.1,0.8,1.8,0.8c0.6,0,1.1-0.1,1.4-0.4C74.1,92.6,74.4,92.3,74.8,91.5z M69.9,89.3h4.8
		c0-0.8-0.3-1.2-0.6-1.6c-0.4-0.6-1.1-0.9-1.8-0.9c-0.6,0-1.2,0.2-1.6,0.6C70.3,88,69.9,88.5,69.9,89.3z"/>
	<path class="st4" d="M86.3,87v3.8h-3.8V87H86.3z"/>
	<path class="st4" d="M93.2,94.4V82.5h4.5c0.8,0,1.4,0,1.8,0.1c0.6,0.2,1,0.3,1.5,0.6c0.5,0.3,0.8,0.6,0.9,1.2
		c0.3,0.4,0.3,1.1,0.3,1.6c0,1.1-0.3,1.8-0.9,2.6c-0.6,0.8-1.8,1.1-3.5,1.1h-3v4.8L93.2,94.4L93.2,94.4z M94.7,88.3h3
		c1,0,1.6-0.2,2.1-0.6s0.6-0.9,0.6-1.6c0-0.5-0.1-0.9-0.3-1.2c-0.3-0.3-0.6-0.6-1-0.8c-0.3,0-0.8-0.1-1.5-0.1h-3L94.7,88.3
		L94.7,88.3z"/>
	<path class="st4" d="M104,84.2v-1.7h1.5v1.7H104z M104,94.4v-8.5h1.5v8.5H104z"/>
	<path class="st4" d="M107.6,94.4v-8.5h1.4v1.2c0.6-0.9,1.5-1.3,2.7-1.3c0.5,0,1,0.1,1.4,0.3c0.5,0.1,0.8,0.4,0.9,0.8
		c0.1,0.3,0.3,0.6,0.5,1c0,0.3,0.1,0.8,0.1,1.4v5.2H113v-5.3c0-0.6,0-1.1-0.1-1.3c-0.1-0.3-0.3-0.5-0.6-0.8s-0.6-0.3-1-0.3
		c-0.6,0-1.2,0.1-1.6,0.6c-0.6,0.4-0.7,1.1-0.7,2.2v4.7L107.6,94.4L107.6,94.4z"/>
	<path class="st4" d="M116.3,90c0-1.6,0.5-2.7,1.4-3.4c0.8-0.6,1.6-0.9,2.7-0.9c1.2,0,2.1,0.4,2.9,1.2s1,1.8,1,3.1
		c0,1.1-0.1,2-0.5,2.6c-0.3,0.6-0.8,1-1.5,1.5s-1.4,0.5-2.1,0.5c-1.2,0-2.1-0.5-2.9-1.2C116.6,92.6,116.3,91.5,116.3,90z M117.8,90
		c0,1.1,0.3,2,0.8,2.4c0.5,0.6,1,0.8,1.8,0.8c0.8,0,1.4-0.3,1.8-0.8c0.5-0.6,0.8-1.4,0.8-2.6c0-1.1-0.3-1.8-0.8-2.4s-1-0.8-1.8-0.8
		c-0.8,0-1.4,0.4-1.9,0.9C118,88.3,117.8,89,117.8,90z"/>
	<path class="st4" d="M129,93l0.2,1.3c-0.5,0.2-0.8,0.2-1.1,0.2c-0.6,0-0.9-0.2-1.2-0.3c-0.3-0.2-0.5-0.5-0.6-0.6
		c-0.1-0.1-0.1-0.9-0.1-1.6v-5h-1v-1.2h1v-2.1l1.5-0.9v3h1.5V87h-1.5v5c0,0.4,0,0.8,0.1,0.8c0,0.1,0.1,0.1,0.3,0.3
		c0.2,0,0.3,0.2,0.5,0.2C128.6,93.2,128.9,93,129,93z"/>
	<path class="st4" d="M135.2,94.4V82.5h1.7l6.1,9.3v-9.3h1.5v11.8H143l-6.1-9.3v9.3L135.2,94.4L135.2,94.4z"/>
	<path class="st4" d="M146.5,90c0-1.6,0.5-2.7,1.3-3.4c0.8-0.6,1.7-0.9,2.7-0.9c1.2,0,2.1,0.4,2.8,1.2s1,1.8,1,3.1
		c0,1.1-0.1,2-0.5,2.6c-0.3,0.6-0.8,1-1.5,1.5s-1.3,0.5-2.1,0.5c-1.2,0-2.1-0.5-2.9-1.2S146.5,91.5,146.5,90z M148,90
		c0,1.1,0.3,2,0.8,2.4c0.5,0.6,1,0.8,1.8,0.8s1.4-0.3,1.8-0.8c0.5-0.6,0.8-1.4,0.8-2.6c0-1.1-0.3-1.8-0.8-2.4s-1-0.8-1.8-0.8
		s-1.4,0.3-1.8,0.8C148.3,88.3,148,89,148,90z"/>
	<path class="st4" d="M156.2,84.2v-1.7h1.5v1.7H156.2z M156.2,94.4v-8.5h1.5v8.5H156.2z"/>
	<path class="st4" d="M159.8,94.4v-8.5h1.3v1.4c0.3-0.6,0.6-1.1,0.9-1.2c0.3-0.1,0.6-0.3,0.9-0.3c0.4,0,1,0.1,1.5,0.4l-0.4,1.3
		c-0.3-0.1-0.8-0.3-1-0.3c-0.3,0-0.6,0.1-0.9,0.3c-0.3,0.2-0.5,0.5-0.6,0.8c-0.2,0.5-0.3,1.1-0.3,1.7v4.5L159.8,94.4L159.8,94.4z"/>
	<path class="st4" d="M173.6,87v3.8h-3.8V87H173.6z"/>
	<path class="st4" d="M188.9,90.2l1.5,0.4c-0.3,1.3-0.9,2.3-1.8,3c-0.9,0.6-2,1-3.2,1c-1.2,0-2.3-0.3-3.2-0.8
		c-0.8-0.5-1.3-1.2-1.8-2.3c-0.4-1.1-0.6-2.1-0.6-3.1c0-1.2,0.3-2.3,0.8-3.2c0.5-0.9,1.2-1.6,2-2.1c0.9-0.5,1.8-0.8,2.8-0.8
		c1.2,0,2.1,0.3,3,0.9s1.4,1.5,1.7,2.6l-1.5,0.3c-0.3-0.9-0.6-1.5-1.2-1.8c-0.5-0.4-1.2-0.6-2-0.6c-0.9,0-1.7,0.2-2.3,0.6
		s-1,1.1-1.3,1.8s-0.3,1.5-0.3,2.3c0,1,0.2,1.9,0.5,2.7c0.3,0.8,0.8,1.3,1.3,1.6c0.6,0.3,1.3,0.6,2,0.6c0.9,0,1.6-0.3,2.3-0.8
		S188.6,91.3,188.9,90.2z"/>
	<path class="st4" d="M197.8,93.3c-0.6,0.5-1,0.8-1.5,0.9s-1,0.3-1.7,0.3c-0.9,0-1.7-0.3-2.1-0.8s-0.8-1.1-0.8-1.8
		c0-0.4,0.2-0.8,0.3-1.2c0.2-0.3,0.5-0.6,0.8-0.9c0.3-0.1,0.6-0.3,1.1-0.4c0.3,0,0.8-0.2,1.3-0.2c1.2-0.1,2.1-0.3,2.5-0.4
		c0-0.1,0-0.3,0-0.4c0-0.6-0.1-1.1-0.4-1.2c-0.3-0.3-0.9-0.5-1.7-0.5s-1.2,0.2-1.5,0.3s-0.6,0.6-0.8,1.2l-1.3-0.1
		c0.2-0.6,0.3-1.1,0.6-1.5c0.3-0.3,0.8-0.6,1.3-0.9c0.6-0.1,1.2-0.3,1.9-0.3s1.4,0.1,1.8,0.3s0.8,0.5,1.1,0.6
		c0.1,0.3,0.3,0.6,0.4,1.1c0,0.3,0,0.8,0,1.3v1.9c0,1.4,0,2.3,0.2,2.6c0.2,0.3,0.2,0.8,0.3,1h-1.5C197.9,94.1,197.8,93.6,197.8,93.3
		z M197.6,90c-0.6,0.2-1.3,0.5-2.4,0.6c-0.6,0.1-1,0.1-1.2,0.3c-0.3,0.1-0.4,0.3-0.6,0.4c-0.1,0.1-0.2,0.4-0.2,0.8s0.2,0.8,0.5,0.9
		c0.3,0.2,0.8,0.5,1.3,0.5s1.1-0.2,1.5-0.3c0.4-0.3,0.8-0.6,0.9-1.1c0.2-0.3,0.3-0.8,0.3-1.5L197.6,90L197.6,90z"/>
	<path class="st4" d="M202.7,94.4h-1.4V82.5h1.5v4.2c0.6-0.8,1.4-1.2,2.4-1.2c0.6,0,1,0.1,1.5,0.3c0.4,0.2,0.9,0.5,1.2,0.9
		s0.6,0.9,0.8,1.3c0.2,0.6,0.3,1.1,0.3,1.8c0,1.5-0.3,2.6-1.1,3.4s-1.7,1.2-2.6,1.2c-1,0-1.8-0.5-2.4-1.2v1.1L202.7,94.4L202.7,94.4
		z M202.7,90c0,1.1,0.1,1.8,0.4,2.3c0.4,0.8,1.1,1.1,1.8,1.1c0.6,0,1.2-0.3,1.6-0.8c0.5-0.6,0.8-1.3,0.8-2.4s-0.1-2-0.6-2.4
		S205.6,87,205,87c-0.6,0-1.2,0.3-1.6,0.8C202.8,88.3,202.7,89,202.7,90z"/>
	<path class="st4" d="M216.3,91.5l1.5,0.2c-0.3,0.9-0.6,1.5-1.3,2.1c-0.6,0.5-1.5,0.8-2.4,0.8c-1.2,0-2.3-0.5-3-1.2
		c-0.8-0.7-1.1-1.8-1.1-3.3s0.3-2.6,1.1-3.3s1.7-1.2,2.8-1.2c1.2,0,2.1,0.4,2.8,1.2s1.1,1.8,1.1,3.3c0,0.1,0,0.1,0,0.4h-6.3
		c0,0.9,0.3,1.6,0.8,2.1s1.1,0.8,1.8,0.8c0.6,0,1-0.1,1.3-0.4C215.8,92.6,216,92.3,216.3,91.5z M211.5,89.3h4.8
		c0-0.8-0.3-1.2-0.6-1.6c-0.5-0.6-1-0.9-1.8-0.9c-0.6,0-1.2,0.2-1.7,0.6C211.8,88,211.7,88.5,211.5,89.3z"/>
	<path class="st4" d="M219.7,94.4v-8.5h1.3v1.4c0.3-0.6,0.6-1.1,0.9-1.2c0.3-0.1,0.6-0.3,0.9-0.3c0.5,0,1,0.1,1.5,0.4l-0.5,1.3
		c-0.3-0.1-0.8-0.3-1-0.3s-0.6,0.1-0.9,0.3c-0.3,0.2-0.4,0.5-0.6,0.8c-0.2,0.5-0.3,1.1-0.3,1.7v4.5L219.7,94.4L219.7,94.4
		L219.7,94.4z"/>
	<path class="st4" d="M225.2,94.4v-8.5h1.3v1.2c0.6-0.9,1.5-1.3,2.7-1.3c0.5,0,1,0.1,1.3,0.3c0.4,0.1,0.8,0.4,0.9,0.8
		c0.2,0.3,0.3,0.6,0.5,1c0,0.3,0.1,0.8,0.1,1.4v5.2h-1.5v-5.3c0-0.6,0-1.1-0.1-1.3c-0.2-0.3-0.3-0.5-0.6-0.8s-0.6-0.3-1-0.3
		c-0.6,0-1.2,0.1-1.7,0.6s-0.6,1.2-0.6,2.3v4.7L225.2,94.4L225.2,94.4z"/>
	<path class="st4" d="M240.2,91.5l1.5,0.2c-0.3,0.9-0.6,1.5-1.4,2.1c-0.6,0.5-1.5,0.8-2.4,0.8c-1.2,0-2.3-0.5-3-1.2
		s-1.1-1.8-1.1-3.3s0.3-2.6,1.1-3.3s1.6-1.2,2.8-1.2s2.1,0.4,2.9,1.2s1,1.8,1,3.3c0,0.1,0,0.1,0,0.4h-6.3c0,0.9,0.3,1.6,0.8,2.1
		c0.4,0.5,1,0.8,1.8,0.8c0.6,0,1-0.1,1.3-0.4C239.6,92.6,239.9,92.3,240.2,91.5z M235.4,89.3h4.8c0-0.8-0.3-1.2-0.6-1.6
		c-0.4-0.6-1-0.9-1.8-0.9c-0.6,0-1.2,0.2-1.7,0.6C235.7,88,235.4,88.5,235.4,89.3z"/>
	<path class="st4" d="M246.7,93l0.2,1.3c-0.5,0.2-0.8,0.2-1,0.2c-0.6,0-0.9-0.2-1.2-0.3c-0.3-0.2-0.5-0.5-0.6-0.6
		c-0.2-0.3-0.2-0.9-0.2-1.6v-5h-1v-1.2h1v-2.1l1.5-0.9v3h1.5V87h-1.5v5c0,0.4,0,0.8,0.2,0.8c0,0.1,0.2,0.1,0.3,0.3
		c0.1,0,0.3,0.2,0.4,0.2C246.2,93.2,246.3,93,246.7,93z"/>
	<path class="st4" d="M252.2,90.7l1.5-0.2c0,0.6,0.3,1.1,0.4,1.5c0.3,0.5,0.6,0.8,1.2,0.9c0.6,0.1,1.2,0.3,1.8,0.3
		c0.6,0,1.1-0.2,1.7-0.3s0.8-0.4,1-0.8c0.3-0.3,0.3-0.6,0.3-1.1c0-0.3-0.2-0.8-0.3-0.9c-0.1-0.3-0.6-0.5-1-0.8
		c-0.3-0.2-1-0.3-2.1-0.6s-1.8-0.4-2.3-0.8c-0.6-0.3-1.1-0.6-1.2-1.1c-0.3-0.4-0.5-0.9-0.5-1.5s0.2-1.2,0.5-1.6s0.9-0.9,1.5-1.2
		c0.6-0.3,1.3-0.5,2.1-0.5c0.9,0,1.7,0.2,2.3,0.5c0.6,0.3,1.2,0.8,1.5,1.2c0.3,0.4,0.6,1.2,0.6,1.8l-1.5,0.1
		c-0.2-0.8-0.3-1.3-0.8-1.6c-0.5-0.5-1.2-0.6-2.1-0.6c-0.9,0-1.6,0.2-2.1,0.4c-0.5,0.3-0.6,0.8-0.6,1.2c0,0.4,0.2,0.8,0.5,1
		c0.3,0.3,1,0.6,2.4,0.9c1.2,0.3,2.1,0.6,2.6,0.8c0.8,0.3,1.2,0.8,1.5,1.2c0.3,0.4,0.4,1.1,0.4,1.7s-0.2,1.2-0.6,1.8
		c-0.3,0.6-0.9,1.1-1.5,1.3s-1.5,0.5-2.3,0.5c-1,0-2-0.1-2.7-0.5c-0.8-0.3-1.3-0.8-1.6-1.3C252.5,92.2,252.3,91.4,252.2,90.7z"/>
	<path class="st4" d="M269.2,93.3c-0.6,0.5-1.1,0.8-1.5,0.9c-0.4,0.1-1.1,0.3-1.7,0.3c-0.9,0-1.7-0.3-2.1-0.8s-0.8-1.1-0.8-1.8
		c0-0.4,0.2-0.8,0.3-1.2c0.1-0.3,0.4-0.6,0.8-0.9c0.3-0.1,0.6-0.3,1-0.4c0.3,0,0.8-0.2,1.3-0.2c1.2-0.1,2.1-0.3,2.6-0.4
		c0-0.1,0-0.3,0-0.4c0-0.6-0.2-1.1-0.5-1.2c-0.3-0.3-0.9-0.5-1.7-0.5c-0.8,0-1.2,0.2-1.5,0.3c-0.3,0.3-0.6,0.6-0.8,1.2l-1.3-0.1
		c0.2-0.6,0.3-1.1,0.6-1.5c0.3-0.3,0.8-0.6,1.3-0.9c0.6-0.1,1.2-0.3,2-0.3s1.3,0.1,1.8,0.3s0.8,0.5,1,0.6c0.2,0.3,0.3,0.6,0.5,1.1
		c0,0.3,0,0.8,0,1.3v1.9c0,1.4,0,2.3,0.2,2.6c0.2,0.3,0.2,0.8,0.3,1h-1.5C269.3,94.1,269.2,93.6,269.2,93.3z M269,90
		c-0.6,0.2-1.3,0.5-2.4,0.6c-0.6,0.1-1.1,0.1-1.2,0.3c-0.3,0.1-0.5,0.3-0.6,0.4c-0.1,0.1-0.1,0.4-0.1,0.8s0.1,0.8,0.4,0.9
		c0.3,0.3,0.8,0.5,1.3,0.5s1-0.2,1.5-0.3c0.5-0.3,0.8-0.6,0.9-1.1c0.2-0.3,0.3-0.8,0.3-1.5L269,90L269,90z"/>
	<path class="st4" d="M278.3,94.4v-1.2c-0.6,0.9-1.5,1.5-2.7,1.5c-0.4,0-0.9-0.1-1.3-0.3c-0.5-0.1-0.8-0.5-0.9-0.8
		c-0.2-0.3-0.3-0.6-0.4-1.1c0-0.3-0.2-0.8-0.2-1.3v-5.4h1.5v4.8c0,0.8,0,1.2,0.2,1.5c0.1,0.4,0.3,0.8,0.6,0.9
		c0.3,0.2,0.6,0.3,1.1,0.3s0.9-0.1,1.2-0.3c0.5-0.1,0.6-0.6,0.8-0.9c0.2-0.4,0.3-0.9,0.3-1.7v-4.5h1.5v8.6h-1.5L278.3,94.4
		L278.3,94.4z"/>
	<path class="st4" d="M284.3,94.4l-3.3-8.5h1.5l1.8,5.1c0.2,0.6,0.5,1.2,0.6,1.6c0.1-0.4,0.3-1.1,0.6-1.6l2-5.3h1.5l-3.3,8.5
		L284.3,94.4L284.3,94.4z"/>
	<path class="st4" d="M290.2,84.2v-1.7h1.5v1.7H290.2z M290.2,94.4v-8.5h1.5v8.5H290.2z"/>
	<path class="st4" d="M293.6,95.1l1.3,0.2c0,0.5,0.2,0.8,0.5,0.9c0.3,0.3,0.9,0.5,1.5,0.5c0.6,0,1.2-0.1,1.5-0.5
		c0.3-0.3,0.6-0.6,0.8-1.2c0-0.3,0.1-0.9,0.1-1.8c-0.6,0.8-1.3,1.1-2.4,1.1c-1.2,0-2.1-0.5-2.7-1.2c-0.6-0.9-0.9-1.8-0.9-3
		c0-0.8,0.2-1.5,0.4-2.3c0.3-0.8,0.8-1.2,1.4-1.7c0.6-0.3,1.2-0.6,1.9-0.6c1.1,0,1.8,0.4,2.6,1.2v-0.9h1.3v7.4
		c0,1.3-0.1,2.3-0.4,2.8c-0.3,0.6-0.8,1-1.3,1.4c-0.6,0.3-1.3,0.5-2.1,0.5c-1.1,0-1.8-0.3-2.4-0.8C293.9,96.6,293.5,96.1,293.6,95.1
		z M294.8,89.9c0,1.1,0.2,1.9,0.6,2.4c0.4,0.5,1,0.8,1.6,0.8c0.6,0,1.2-0.3,1.7-0.8c0.4-0.4,0.8-1.3,0.8-2.4s-0.3-1.8-0.8-2.4
		s-1.1-0.8-1.7-0.8c-0.6,0-1.2,0.3-1.6,0.8C295,88.1,294.8,88.8,294.8,89.9z"/>
	<path class="st4" d="M302.9,94.4v-8.5h1.3v1.2c0.6-0.9,1.5-1.3,2.7-1.3c0.4,0,1,0.1,1.3,0.3c0.5,0.1,0.8,0.4,0.9,0.8
		c0.1,0.3,0.3,0.6,0.4,1c0,0.3,0.2,0.8,0.2,1.4v5.2h-1.5v-5.3c0-0.6,0-1.1-0.2-1.3c-0.2-0.3-0.3-0.5-0.6-0.8c-0.3-0.3-0.6-0.3-1-0.3
		c-0.6,0-1.2,0.1-1.7,0.6c-0.4,0.5-0.6,1.2-0.6,2.3v4.7L302.9,94.4L302.9,94.4z"/>
	<path class="st4" d="M311.6,90c0-1.6,0.4-2.7,1.3-3.4c0.8-0.6,1.7-0.9,2.7-0.9c1.2,0,2.1,0.4,2.8,1.2c0.7,0.8,1.1,1.8,1.1,3.1
		c0,1.1-0.2,2-0.4,2.6c-0.3,0.6-0.8,1-1.5,1.5c-0.7,0.5-1.4,0.5-2.1,0.5c-1.2,0-2.1-0.5-2.8-1.2C311.9,92.6,311.6,91.5,311.6,90z
		 M313.1,90c0,1.1,0.3,2,0.8,2.4c0.4,0.6,1.1,0.8,1.8,0.8s1.3-0.3,1.8-0.8c0.5-0.6,0.8-1.4,0.8-2.6c0-1.1-0.3-1.8-0.8-2.4
		s-1-0.8-1.8-0.8s-1.4,0.3-1.8,0.8C313.3,88.3,313.1,89,313.1,90z"/>
	<path class="st4" d="M321.3,94.4v-8.5h1.4v1.2c0.6-0.9,1.5-1.3,2.7-1.3c0.4,0,1,0.1,1.3,0.3c0.5,0.1,0.8,0.4,0.9,0.8
		c0.1,0.3,0.3,0.6,0.4,1c0,0.3,0.2,0.8,0.2,1.4v5.2h-1.5v-5.3c0-0.6,0-1.1-0.2-1.3c-0.1-0.3-0.3-0.5-0.6-0.8c-0.3-0.3-0.6-0.3-1-0.3
		c-0.6,0-1.2,0.1-1.7,0.6s-0.6,1.2-0.6,2.3v4.7L321.3,94.4L321.3,94.4z"/>
</g>
<rect x="2" y="75" class="st5" width="342" height="28.5"/>
<path class="st6" d="M11.3,26.2c-8.5,15.7,19,13.8,10,0H11.3z M12.3,27.2h8.1C27.5,38.3,5.5,39.8,12.3,27.2L12.3,27.2z"/>
<path class="st6" d="M15.5,36.6v4.9c-1.5,0.2-3,0.9-4,1.9c3.1,0.2,6.3,0.2,9.5,0.2c-1-1.2-2.5-1.8-4.2-1.9v-4.9
	C16.2,36.6,16,36.6,15.5,36.6z"/>
<polygon class="st6" points="9.5,30 22.7,30 22.5,32.9 20.6,35.4 17.7,36.5 14.7,36.9 12.5,36 10.7,34.7 9.5,32.8 "/>
</svg>
