<?xml version="1.0" encoding="utf-8"?>
<!-- Generator: Adobe Illustrator 23.0.1, SVG Export Plug-In . SVG Version: 6.00 Build 0)  -->
<svg version="1.1" id="Layer_1" xmlns="http://www.w3.org/2000/svg" xmlns:xlink="http://www.w3.org/1999/xlink" x="0px" y="0px"
	 viewBox="0 0 328 412.1" style="enable-background:new 0 0 328 412.1;" xml:space="preserve">
<style type="text/css">
	.st0{fill:none;stroke:#737373;stroke-miterlimit:10;}
	.st1{fill:none;stroke:#737373;stroke-miterlimit:10;stroke-dasharray:1.59,1.59;}
	.st2{fill:#737373;}
	.st3{fill:none;stroke:#737373;stroke-miterlimit:10;stroke-dasharray:1.6123,1.6123;}
	.st4{fill:#FFFFFF;stroke:#00B294;stroke-miterlimit:10;}
	.st5{fill:none;stroke:#737373;stroke-miterlimit:10;stroke-dasharray:1.8804,1.8804;}
	.st6{fill:none;stroke:#737373;stroke-miterlimit:10;stroke-dasharray:1.7837,1.7837;}
	.st7{fill:none;stroke:#737373;stroke-miterlimit:10;stroke-dasharray:1.9796,1.9796;}
	.st8{fill:#016937;}
	.st9{fill:none;}
	.st10{enable-background:new    ;}
	.st11{fill:#FFFFFF;}
	.st12{font-family:'SegoePro-Bold';}
	.st13{font-size:9px;}
	.st14{font-family:'SegoePro';}
	.st15{fill:#EC2127;}
	.st16{fill:#505050;}
	.st17{font-size:11px;}
	.st18{fill:#444545;}
	.st19{fill:none;stroke:#00B294;stroke-miterlimit:10;}
	.st20{font-family:'Segoe';}
	.st21{fill:none;stroke:#737373;stroke-miterlimit:10;stroke-dasharray:1.4798,1.4798;}
	.st22{fill:none;stroke:#737373;stroke-miterlimit:10;stroke-dasharray:1.4571,1.4571;}
	.st23{fill:none;stroke:#737373;stroke-miterlimit:10;stroke-dasharray:1.3775,1.3775;}
	.st24{fill:none;stroke:#737373;stroke-width:0.9923;stroke-miterlimit:10;}
	.st25{fill:none;stroke:#737373;stroke-width:0.9923;stroke-miterlimit:10;stroke-dasharray:1.364,1.364;}
	.st26{fill:none;stroke:#737373;stroke-width:0.9923;stroke-miterlimit:10;stroke-dasharray:1.5018,1.5018;}
	.st27{fill:#FFFFFF;stroke:#00BCF2;stroke-miterlimit:10;}
	.st28{fill:none;stroke:#00BCF2;stroke-miterlimit:10;}
	.st29{fill:none;stroke:#CCCCCB;stroke-width:0.9941;stroke-miterlimit:10;}
</style>
<g>
	<g>
		<line class="st0" x1="75.3" y1="59.3" x2="75.3" y2="60.2"/>
		<line class="st1" x1="75.3" y1="61.8" x2="75.3" y2="86.4"/>
		<line class="st0" x1="75.3" y1="87.2" x2="75.3" y2="88.1"/>
		<g>
			<path class="st2" d="M75.3,94.1c-1.1-2.8-2.9-6.4-4.8-8.5l4.8,1.7l4.8-1.7C78.1,87.7,76.3,91.3,75.3,94.1z"/>
		</g>
	</g>
</g>
<g>
	<g>
		<line class="st0" x1="114.9" y1="287.7" x2="114.9" y2="288.4"/>
		<line class="st3" x1="114.9" y1="290" x2="114.9" y2="318.3"/>
		<line class="st0" x1="114.9" y1="319.1" x2="114.9" y2="319.8"/>
		<g>
			<path class="st2" d="M114.9,325.9c-1.1-2.8-2.9-6.4-4.8-8.5l4.8,1.7l4.8-1.7C117.8,319.5,116,323,114.9,325.9z"/>
		</g>
	</g>
</g>
<rect x="3.7" y="326.4" transform="matrix(1 -1.108658e-03 1.108658e-03 1 -0.3979 4.307016e-02)" class="st4" width="69.9" height="65.1"/>
<g>
	<g>
		<line class="st0" x1="73.7" y1="168.2" x2="73.7" y2="169.1"/>
		<line class="st5" x1="73.7" y1="171" x2="73.7" y2="200.1"/>
		<polyline class="st0" points="73.7,201.1 73.7,202 72.8,202 		"/>
		<line class="st6" x1="71" y1="202" x2="39.8" y2="202"/>
		<polyline class="st0" points="38.9,202 37.9,202 37.9,202.9 		"/>
		<line class="st7" x1="37.9" y1="204.9" x2="37.9" y2="223.7"/>
		<line class="st0" x1="37.9" y1="224.7" x2="37.9" y2="225.7"/>
		<g>
			<path class="st2" d="M37.9,231.7c-1.1-2.8-2.9-6.4-4.8-8.5l4.8,1.7l4.8-1.7C40.8,225.3,39,228.8,37.9,231.7z"/>
		</g>
	</g>
</g>
<g id="Check">
	<g id="Delete">
	</g>
</g>
<g>
	<g>
		<line class="st0" x1="74.3" y1="100.9" x2="74.3" y2="101.8"/>
		<g>
			<path class="st2" d="M74.3,107.8c-1.1-2.8-2.9-6.4-4.8-8.5l4.8,1.7l4.8-1.7C77.2,101.4,75.4,105,74.3,107.8z"/>
		</g>
	</g>
</g>
<rect x="2.3" y="232.9" class="st8" width="68" height="56.9"/>
<rect x="6.4" y="242.8" class="st9" width="59.3" height="33.9"/>
<text transform="matrix(1 -8.799999e-04 8.799999e-04 1 10.5869 252.9655)" class="st10"><tspan x="0" y="0" class="st11 st12 st13">MICROSOFT</tspan><tspan x="-3.8" y="10.8" class="st11 st12 st13">ADVERTISING</tspan></text>
<text transform="matrix(1 -8.799999e-04 8.799999e-04 1 18.7673 275.8681)" class="st11 st14 st13">accepts</text>
<rect x="79.2" y="232.9" class="st15" width="68" height="56.9"/>
<rect x="83.2" y="242.8" class="st9" width="59.3" height="33.9"/>
<rect x="12.1" y="320.4" class="st9" width="50.5" height="46.9"/>
<text transform="matrix(1 -8.799999e-04 8.799999e-04 1 24.7675 358.5132)" class="st16 st14 st13">Ads go </text>
<text transform="matrix(1 -8.799999e-04 8.799999e-04 1 25.678 370.5124)" class="st16 st14 st13">live on </text>
<text transform="matrix(1 -8.799999e-04 8.799999e-04 1 18.8886 382.5184)" class="st16 st14 st13">start date</text>
<rect x="79.7" y="326.5" transform="matrix(1 -1.108658e-03 1.108658e-03 1 -0.398 0.1273)" class="st4" width="69.9" height="65.1"/>
<rect x="86.1" y="323.7" class="st9" width="58.6" height="44.6"/>
<text transform="matrix(1 -8.799999e-04 8.799999e-04 1 95.216 361.8331)" class="st16 st14 st13">Email sent </text>
<text transform="matrix(1 -8.799999e-04 8.799999e-04 1 90.8276 375.037)" class="st16 st14 st13">to customer</text>
<g id="Delete_1_">
</g>
<rect x="32.7" y="94.8" class="st4" width="81.8" height="86.1"/>
<rect x="39" y="133.4" class="st9" width="66.8" height="55.6"/>
<text transform="matrix(1 0 0 1 48.8618 129.8919)" class="st16 st14 st13">Email sent to </text>
<text transform="matrix(1 0 0 1 47.6914 143.5002)" class="st10"><tspan x="0" y="0" class="st16 st12 st13">MICROSOFT</tspan><tspan x="-3.8" y="10.8" class="st16 st12 st13">ADVERTISING</tspan></text>
<text transform="matrix(1 0 0 1 98.0618 153.713)" class="st16 st14 st17"> </text>
<text transform="matrix(1 0 0 1 49.2618 165.9999)" class="st16 st14 st13">for approval</text>
<g>
	<g>
		<path class="st18" d="M67.3,102.5v10.7h16v-10.7H67.3z M75.3,109.1l-5.9-5.4h11.9L75.3,109.1z M72.1,107.7l-3.6,3.6v-6.9
			L72.1,107.7z M72.9,108.5l2.4,2.2l2.4-2.2l3.6,3.6h-12L72.9,108.5z M78.6,107.7l3.6-3.3v6.9L78.6,107.7z"/>
	</g>
</g>
<g>
	<g>
		<path class="st18" d="M107.8,334.2v10.7h16v-10.7H107.8z M115.8,340.7l-5.9-5.4h11.9L115.8,340.7z M112.6,339.3l-3.6,3.6V336
			L112.6,339.3z M113.4,340.1l2.4,2.2l2.4-2.2l3.6,3.6h-12.1L113.4,340.1z M119.1,339.3l3.6-3.3v6.9L119.1,339.3z"/>
	</g>
</g>
<g>
	<rect x="32.2" y="7" class="st11" width="83.1" height="64.8"/>
	<rect x="32.2" y="7" class="st19" width="83.1" height="64.8"/>
</g>
<rect x="34" y="37.9" class="st9" width="81.2" height="41.2"/>
<g>
	<text transform="matrix(1 0 0 1 51.2636 44.7159)" class="st16 st12 st13">CUSTOMER</text>
</g>
<text transform="matrix(1 0 0 1 55.4003 56.4993)" class="st16 st20 st13">creates IO</text>
<g>
	<g>
		<g>
			<g>
				<path class="st18" d="M83.5,18.3l-1.2,1.2v6.9h-12v-9.2h5.6l1.5-1.5h-8.6v12.2h15.1v-10C83.8,18,83.7,18.2,83.5,18.3z"/>
				<g>
					<path class="st18" d="M83.6,16.3c0.1,0,0.2,0,0.3-0.1c0.2-0.2,0.4-0.4,0.6-0.6c0,0,0.9-1.1-0.3-2.2c-0.4-0.4-0.9-0.6-1.2-0.6
						c-0.6,0-1,0.3-1,0.3c-0.2,0.1-0.5,0.4-0.6,0.6c-0.2,0.2-0.2,0.4,0,0.6l2,2C83.4,16.2,83.5,16.3,83.6,16.3z"/>
					<path class="st18" d="M80.4,14.7c-0.1,0-0.2,0-0.3,0.1l-6.3,6.3c-0.2,0.2-0.2,0.4,0,0.6l2,2c0.1,0.1,0.2,0.1,0.3,0.1
						s0.2,0,0.3-0.1l6.3-6.3c0.2-0.2,0.2-0.4,0-0.6l-2-2C80.6,14.7,80.5,14.7,80.4,14.7z"/>
					<path class="st18" d="M72.7,25l1.3-0.3c0.2-0.1,0.3-0.2,0.1-0.4l-1-1c-0.1-0.1-0.1-0.1-0.2-0.1s-0.2,0.1-0.2,0.2l-0.3,1.3
						C72.4,24.9,72.5,25,72.7,25L72.7,25z"/>
				</g>
			</g>
		</g>
	</g>
</g>
<g>
	<g>
		<line class="st0" x1="37.9" y1="287.7" x2="37.9" y2="288.4"/>
		<polyline class="st21" points="37.9,289.9 37.9,304.5 37.9,315.8 		"/>
		<line class="st0" x1="37.9" y1="316.5" x2="37.9" y2="317.3"/>
		<g>
			<path class="st2" d="M37.9,323.3c-1.1-2.8-2.9-6.4-4.8-8.5l4.8,1.7l4.8-1.7C40.8,317,39,320.5,37.9,323.3z"/>
		</g>
	</g>
</g>
<g>
	<g>
		<line class="st0" x1="73.7" y1="202" x2="74.4" y2="202"/>
		<line class="st22" x1="75.9" y1="202" x2="113" y2="202"/>
		<polyline class="st0" points="113.8,202 114.5,202 114.5,202.7 		"/>
		<line class="st23" x1="114.5" y1="204.1" x2="114.5" y2="225.5"/>
		<line class="st0" x1="114.5" y1="226.1" x2="114.5" y2="226.9"/>
		<g>
			<path class="st2" d="M114.5,232.9c-1.1-2.8-2.9-6.4-4.8-8.5l4.8,1.7l4.8-1.7C117.3,226.5,115.5,230.1,114.5,232.9z"/>
		</g>
	</g>
</g>
<g>
	<g>
		<line class="st24" x1="37.9" y1="304.5" x2="38.6" y2="304.5"/>
		<line class="st25" x1="39.9" y1="304.5" x2="96.5" y2="304.5"/>
		<polyline class="st24" points="97.2,304.5 97.9,304.5 97.9,305.2 		"/>
		<line class="st26" x1="97.9" y1="306.7" x2="97.9" y2="318"/>
		<line class="st24" x1="97.9" y1="318.7" x2="97.9" y2="319.4"/>
		<g>
			<path class="st2" d="M97.9,325.4c-1-2.8-2.8-6.3-4.7-8.5l4.7,1.7l4.7-1.7C100.7,319.1,99,322.6,97.9,325.4z"/>
		</g>
	</g>
</g>
<g>
	<path class="st18" d="M43.4,330.7h2.8v13.1h-15v-13.1H34v-0.9h1v0.9h7.5v-0.9h0.9V330.7z M34,331.6h-1.9v1.9h13.1v-1.9h-1.9v0.9
		h-0.9v-0.9H35v0.9h-1V331.6z M32.2,342.8h13.1v-8.4H32.2V342.8z M34,338.1v-0.9h1v0.9H34z M34,340v-0.9h1v0.9H34z M34,341.9V341h1
		v0.9H34z M36.8,336.3v-0.9h0.9v0.9H36.8z M36.8,338.1v-0.9h0.9v0.9H36.8z M36.8,340v-0.9h0.9v0.9H36.8z M36.8,341.9V341h0.9v0.9
		H36.8z M39.6,336.3v-0.9h0.9v0.9H39.6z M39.6,338.1v-0.9h0.9v0.9H39.6z M39.6,340v-0.9h0.9v0.9H39.6z M39.6,341.9V341h0.9v0.9H39.6
		z M42.4,336.3v-0.9h0.9v0.9H42.4z M42.4,338.1v-0.9h0.9v0.9H42.4z M42.4,340v-0.9h0.9v0.9H42.4z"/>
</g>
<rect x="182.1" y="326.4" transform="matrix(1 -1.108658e-03 1.108658e-03 1 -0.3978 0.2409)" class="st27" width="69.9" height="65.1"/>
<g>
	<g>
		<line class="st0" x1="252.1" y1="168.2" x2="252.1" y2="169.1"/>
		<line class="st5" x1="252.1" y1="171" x2="252.1" y2="200.1"/>
		<polyline class="st0" points="252.1,201.1 252.1,202 251.1,202 		"/>
		<line class="st6" x1="249.4" y1="202" x2="218.1" y2="202"/>
		<polyline class="st0" points="217.3,202 216.3,202 216.3,202.9 		"/>
		<line class="st7" x1="216.3" y1="204.9" x2="216.3" y2="223.7"/>
		<line class="st0" x1="216.3" y1="224.7" x2="216.3" y2="225.7"/>
		<g>
			<path class="st2" d="M216.3,231.7c-1.1-2.8-2.9-6.4-4.8-8.5l4.8,1.7l4.8-1.7C219.2,225.3,217.4,228.8,216.3,231.7z"/>
		</g>
	</g>
</g>
<g>
	<g>
		<line class="st0" x1="252.7" y1="73" x2="252.7" y2="73.9"/>
		<line class="st1" x1="252.7" y1="75.5" x2="252.7" y2="100.1"/>
		<line class="st0" x1="252.7" y1="100.9" x2="252.7" y2="101.8"/>
		<g>
			<path class="st2" d="M252.7,107.8c-1.1-2.8-2.9-6.4-4.8-8.5l4.8,1.7l4.8-1.7C255.5,101.4,253.7,105,252.7,107.8z"/>
		</g>
	</g>
</g>
<rect x="180.3" y="232.9" transform="matrix(1 -1.401850e-03 1.401850e-03 1 -0.3662 0.3012)" class="st8" width="68.8" height="56.9"/>
<rect x="184.7" y="242.8" class="st9" width="59.3" height="33.9"/>
<g>
	<text transform="matrix(1 -8.799999e-04 8.799999e-04 1 190.2764 258.0154)" class="st11 st12 st13">CUSTOMER</text>
</g>
<text transform="matrix(1 -8.799999e-04 8.799999e-04 1 243.8261 250.9424)" class="st11 st14 st17"> </text>
<text transform="matrix(1 -8.799999e-04 8.799999e-04 1 198.5377 269.184)" class="st11 st14 st13">accepts</text>
<rect x="257.6" y="232.9" class="st15" width="68" height="56.9"/>
<rect x="261.6" y="242.8" class="st9" width="59.3" height="33.9"/>
<g>
	<text transform="matrix(1 -8.799999e-04 8.799999e-04 1 266.0959 258.0163)" class="st11 st12 st13">CUSTOMER </text>
</g>
<text transform="matrix(1 -8.799999e-04 8.799999e-04 1 273.9119 269.1853)" class="st11 st14 st13">declines</text>
<rect x="190.5" y="320.4" class="st9" width="50.5" height="46.9"/>
<text transform="matrix(1 -8.799999e-04 8.799999e-04 1 203.1417 358.5123)" class="st16 st14 st13">Ads go </text>
<text transform="matrix(1 -8.799999e-04 8.799999e-04 1 204.0522 370.5115)" class="st16 st14 st13">live on </text>
<text transform="matrix(1 -8.799999e-04 8.799999e-04 1 197.2628 382.5175)" class="st16 st14 st13">start date</text>
<rect x="211.1" y="108.1" class="st27" width="81.8" height="72.8"/>
<rect x="215.7" y="133.4" class="st9" width="70.2" height="55.6"/>
<text transform="matrix(1 0 0 1 226.236 141.513)" class="st16 st14 st13">Email sent to </text>
<text transform="matrix(1 0 0 1 227.336 154.713)" class="st16 st12 st13">CUSTOMER </text>
<text transform="matrix(1 0 0 1 227.636 167.913)" class="st16 st14 st13">for approval</text>
<g>
	<g>
		<path class="st18" d="M244.7,116.1v10.7h16v-10.7H244.7z M252.7,122.7l-5.9-5.4h11.9L252.7,122.7z M249.4,121.3l-3.6,3.6V118
			L249.4,121.3z M250.3,122.1l2.4,2.2l2.4-2.2l3.6,3.6h-12.1L250.3,122.1z M256,121.3l3.6-3.3v6.9L256,121.3z"/>
	</g>
</g>
<g>
	<rect x="203.8" y="7" class="st11" width="96.7" height="75.4"/>
	<rect x="203.8" y="7" class="st28" width="96.7" height="75.4"/>
</g>
<rect x="212.4" y="37.9" class="st9" width="81.2" height="41.2"/>
<g>
	<text transform="matrix(1 0 0 1 227.387 44.7159)"><tspan x="0" y="0" class="st16 st12 st13">MICROSOFT</tspan><tspan x="-4.8" y="10.8" class="st16 st12 st13">ADVERTISING </tspan></text>
</g>
<text transform="matrix(1 0 0 1 231.5512 68.0468)" class="st16 st20 st13">creates IO</text>
<g>
	<g>
		<g>
			<g>
				<path class="st18" d="M261.9,18.3l-1.2,1.2v6.9h-12.1v-9.2h5.6l1.5-1.5h-8.6v12.2h15.1v-10C262.1,18,262,18.2,261.9,18.3z"/>
				<g>
					<path class="st18" d="M262,16.3c0.1,0,0.2,0,0.3-0.1c0.2-0.2,0.4-0.4,0.6-0.6c0,0,0.9-1.1-0.3-2.2c-0.4-0.4-0.9-0.6-1.2-0.6
						c-0.6,0-1,0.3-1,0.3c-0.2,0.1-0.5,0.4-0.6,0.6c-0.2,0.2-0.2,0.4,0,0.6l2,2C261.8,16.2,261.9,16.3,262,16.3z"/>
					<path class="st18" d="M258.8,14.7c-0.1,0-0.2,0-0.3,0.1l-6.3,6.3c-0.2,0.2-0.2,0.4,0,0.6l2,2c0.1,0.1,0.2,0.1,0.3,0.1
						s0.2,0,0.3-0.1l6.3-6.3c0.2-0.2,0.2-0.4,0-0.6l-2-2C259,14.7,258.9,14.7,258.8,14.7z"/>
					<path class="st18" d="M251.1,25l1.3-0.3c0.2-0.1,0.3-0.2,0.1-0.4l-1-1c-0.1-0.1-0.1-0.1-0.2-0.1c-0.1,0-0.2,0.1-0.2,0.2
						l-0.3,1.3C250.7,24.9,250.8,25,251.1,25C251,25,251.1,25,251.1,25z"/>
				</g>
			</g>
		</g>
	</g>
</g>
<g>
	<g>
		<line class="st0" x1="216.3" y1="287.7" x2="216.3" y2="288.4"/>
		<polyline class="st21" points="216.3,289.9 216.3,304.5 216.3,315.8 		"/>
		<line class="st0" x1="216.3" y1="316.5" x2="216.3" y2="317.3"/>
		<g>
			<path class="st2" d="M216.3,323.3c-1.1-2.8-2.9-6.4-4.8-8.5l4.8,1.7l4.8-1.7C219.1,317,217.3,320.5,216.3,323.3z"/>
		</g>
	</g>
</g>
<g>
	<g>
		<line class="st0" x1="252.1" y1="202" x2="252.8" y2="202"/>
		<line class="st22" x1="254.3" y1="202" x2="291.4" y2="202"/>
		<polyline class="st0" points="292.1,202 292.9,202 292.9,202.7 		"/>
		<line class="st23" x1="292.9" y1="204.1" x2="292.9" y2="225.5"/>
		<line class="st0" x1="292.9" y1="226.1" x2="292.9" y2="226.9"/>
		<g>
			<path class="st2" d="M292.9,232.9c-1.1-2.8-2.9-6.4-4.8-8.5l4.8,1.7l4.8-1.7C295.7,226.5,293.9,230.1,292.9,232.9z"/>
		</g>
	</g>
</g>
<g>
	<path class="st18" d="M221.8,330.7h2.8v13.1h-14.9v-13.1h2.8v-0.9h0.9v0.9h7.5v-0.9h0.9V330.7z M212.4,331.6h-1.9v1.9h13.1v-1.9
		h-1.9v0.9h-0.9v-0.9h-7.5v0.9h-0.9L212.4,331.6L212.4,331.6z M210.6,342.8h13.1v-8.4h-13.1V342.8z M212.4,338.1v-0.9h0.9v0.9H212.4
		z M212.4,340v-0.9h0.9v0.9H212.4z M212.4,341.9V341h0.9v0.9H212.4z M215.2,336.3v-0.9h0.9v0.9H215.2z M215.2,338.1v-0.9h0.9v0.9
		H215.2z M215.2,340v-0.9h0.9v0.9H215.2z M215.2,341.9V341h0.9v0.9H215.2z M218,336.3v-0.9h0.9v0.9H218z M218,338.1v-0.9h0.9v0.9
		H218z M218,340v-0.9h0.9v0.9H218z M218,341.9V341h0.9v0.9H218z M220.8,336.3v-0.9h0.9v0.9H220.8z M220.8,338.1v-0.9h0.9v0.9H220.8z
		 M220.8,340v-0.9h0.9v0.9H220.8z"/>
</g>
<line class="st29" x1="164.9" y1="-0.2" x2="164.9" y2="391.6"/>
<text transform="matrix(1 -8.799999e-04 8.799999e-04 1 86.9032 252.9655)" class="st10"><tspan x="0" y="0" class="st11 st12 st13">MICROSOFT</tspan><tspan x="-3.8" y="10.8" class="st11 st12 st13">ADVERTISING</tspan></text>
<text transform="matrix(1 -8.799999e-04 8.799999e-04 1 95.0836 275.8681)" class="st11 st14 st13">declines</text>
</svg>
