<?xml version="1.0" encoding="utf-8"?>
<!-- Generator: Adobe Illustrator 19.2.1, SVG Export Plug-In . SVG Version: 6.00 Build 0)  -->
<svg version="1.1" id="Layer_1" xmlns="http://www.w3.org/2000/svg" xmlns:xlink="http://www.w3.org/1999/xlink" x="0px" y="0px"
	 width="98.2px" height="67px" viewBox="0 0 98.2 67" style="enable-background:new 0 0 98.2 67;" xml:space="preserve">
<style type="text/css">
	.st0{fill:#008272;}
	.st1{fill:#D2D2D2;}
	.st2{fill:#333333;}
	.st3{fill:#FFFFFF;}
	.st4{fill:none;}
</style>
<path class="st0" d="M98.2,61.9c0,2.7-2.3,5.1-5,5.1C11,67,11,67,11,67c-3,0-5-2.3-5-5.1c0-50.6,0-50.6,0-50.6c0-2.7,2-5.1,5-5.1
	c82.1,0,82.1,0,82.1,0c2.7,0,5,2.3,5,5.1V61.9z"/>
<path class="st1" d="M92.2,55.9c0,2.7-2.3,5.1-5,5.1C5,61,5,61,5,61c-3,0-5-2.3-5-5.1C0,5.4,0,5.4,0,5.4c0-2.7,2-5.1,5-5.1
	c82.1,0,82.1,0,82.1,0c2.7,0,5,2.3,5,5.1V55.9z"/>
<rect y="11.1" class="st2" width="92.2" height="9.8"/>
<rect x="8.7" y="30.7" class="st3" width="51.3" height="6.1"/>
<rect x="68.4" y="30.7" class="st3" width="17.4" height="6.1"/>
<rect class="st4" width="92.5" height="60.7"/>
<rect class="st4" width="92.5" height="60.7"/>
</svg>
