<svg xmlns="http://www.w3.org/2000/svg" viewBox="0 0 59.91 59.91"><defs><style>.cls-1{fill:none;stroke:#505050;stroke-miterlimit:10;stroke-width:0.92px;}.cls-2{fill:#505050;}</style></defs><g id="Layer_2" data-name="Layer 2"><g id="Layer_1-2" data-name="Layer 1"><path class="cls-1" d="M27.56,59.36a29.5,29.5,0,1,0-27-27A29.51,29.51,0,0,0,27.56,59.36Z"/><path class="cls-2" d="M20.55,14.86a23.32,23.32,0,0,1,4.2,1.49,17.58,17.58,0,0,1,6.38,5,26.53,26.53,0,0,1,2.42,3.71l6.66,4.1L39.29,33l-2.86-.68c.4,1.33.78,2.66,1.09,4L31,40.3c-1-.91-2.05-1.84-3.06-2.8l-.63,2.88-3.81-.9-.67-7.84a24.75,24.75,0,0,1-2.18-3.85A18.82,18.82,0,0,1,19.28,24a18,18,0,0,1-.35-4.07,22.13,22.13,0,0,1,.62-4.37l.19-.81ZM38,31l.25-1-3.36-2.1c.18.42.36.86.51,1.3l.46,1.32Zm-2.44,4.55c-.14-.49-.28-1-.41-1.48s-.27-1-.42-1.45L29,36.16c.36.35.73.7,1.09,1.1l1.1,1Zm-10.5,2.61,1,.24.53-2.19-1-1c-.31-.33-.63-.68-.93-1Zm.33-5.77A34.65,34.65,0,0,0,27.81,35l6.55-4a32.66,32.66,0,0,0-1.27-3.28,26.58,26.58,0,0,0-1.67-3.11,20,20,0,0,0-2.05-2.79A18.68,18.68,0,0,0,27,19.59a14.17,14.17,0,0,0-2.73-1.67A19.15,19.15,0,0,0,21,16.74a23.22,23.22,0,0,0-.38,3.43,14.83,14.83,0,0,0,.25,3.19,17.09,17.09,0,0,0,.93,3,20.86,20.86,0,0,0,1.54,3.06,22.42,22.42,0,0,0,2,2.9Zm-.19-3a3.12,3.12,0,0,1-.87-.94,3.45,3.45,0,0,1-.44-1.21,2.9,2.9,0,0,1,0-1.31,3.61,3.61,0,0,1,.54-1.2,3.32,3.32,0,0,1,.94-.85,3.49,3.49,0,0,1,1.2-.45,3.21,3.21,0,0,1,1.31,0,3.4,3.4,0,0,1,1.21.55,3.22,3.22,0,0,1,.86.94,3.71,3.71,0,0,1,.45,1.2,3.21,3.21,0,0,1,0,1.31,3.56,3.56,0,0,1-.56,1.2,2.94,2.94,0,0,1-.94.85,3.21,3.21,0,0,1-1.19.46,3,3,0,0,1-1.31,0,3.37,3.37,0,0,1-1.26-.5ZM26.91,25a2.22,2.22,0,0,0-.6.24,1.81,1.81,0,0,0-.46.41,1.71,1.71,0,0,0-.27.6,1.27,1.27,0,0,0,0,.67,1.47,1.47,0,0,0,.23.6,1.67,1.67,0,0,0,.42.46,1.73,1.73,0,0,0,.6.28,1.47,1.47,0,0,0,.66,0,1.63,1.63,0,0,0,.6-.23,1.71,1.71,0,0,0,.47-.42,2,2,0,0,0,.27-.6,1.52,1.52,0,0,0,0-.67,1.82,1.82,0,0,0-.23-.6,1.58,1.58,0,0,0-1-.73,1.3,1.3,0,0,0-.73,0ZM39,39.94a3.32,3.32,0,0,1,.86.93,3.71,3.71,0,0,1,.45,1.2,3.61,3.61,0,0,1,0,1.31l-.77,3.28-3.28-.76a3.56,3.56,0,0,1-1.2-.56,3.06,3.06,0,0,1-.86-.93,3.71,3.71,0,0,1-.45-1.2,3.21,3.21,0,0,1,0-1.31,3.54,3.54,0,0,1,.55-1.2,3.26,3.26,0,0,1,.94-.87,3.4,3.4,0,0,1,1.2-.44,2.9,2.9,0,0,1,1.31,0A3.61,3.61,0,0,1,39,40Zm-.84,4.72.39-1.61a1.47,1.47,0,0,0,0-.66,1.88,1.88,0,0,0-.23-.61,1.57,1.57,0,0,0-.43-.46,1.48,1.48,0,0,0-.6-.27,1.52,1.52,0,0,0-.67,0,1.91,1.91,0,0,0-.6.23,1.83,1.83,0,0,0-.46.42,1.71,1.71,0,0,0-.27.6,1.47,1.47,0,0,0,0,.66,1.91,1.91,0,0,0,.23.6A1.55,1.55,0,0,0,36,44a1.74,1.74,0,0,0,.59.26Z"/></g></g></svg>