<svg xmlns="http://www.w3.org/2000/svg" viewBox="0 0 59.91 59.91"><defs><style>.cls-1{fill:none;stroke:#505050;stroke-miterlimit:10;stroke-width:0.92px;}.cls-2{fill:#505050;}</style></defs><g id="Layer_2" data-name="Layer 2"><g id="Layer_1-2" data-name="Layer 1"><path class="cls-1" d="M30,59.45A29.5,29.5,0,1,0,.46,30,29.49,29.49,0,0,0,30,59.45Z"/><path class="cls-2" d="M19.48,18.86a4.5,4.5,0,0,1,1.09-1.17A4.08,4.08,0,0,1,22,17a4.22,4.22,0,0,1,3.07.44,4.2,4.2,0,0,1,1.21,1.09L39.76,36.92l.75,8-7.35-3.07L19.62,23.45a4.11,4.11,0,0,1-.78-2.27,4,4,0,0,1,.6-2.32Zm7.15,2.84-4.08,3L33.62,39.8a5.76,5.76,0,0,1,1.69-2,5.46,5.46,0,0,1,2.4-1ZM38.32,38.29a4,4,0,0,0-2.08.77,3.7,3.7,0,0,0-.8.78,3.87,3.87,0,0,0-.54,1l3.82,1.59ZM25.7,20.43l-.48-.67c-.16-.2-.32-.4-.5-.59a2.59,2.59,0,0,0-.59-.44,2.1,2.1,0,0,0-.77-.24,2.51,2.51,0,0,0-1,.06,2.42,2.42,0,0,0-.87.42,2.87,2.87,0,0,0-.67.72,2.52,2.52,0,0,0-.34.94,2.89,2.89,0,0,0,0,.83,2.24,2.24,0,0,0,.24.7,4.31,4.31,0,0,0,.42.63l.49.66Z"/></g></g></svg>