<svg xmlns="http://www.w3.org/2000/svg" viewBox="0 0 60 60"><defs><style>.cls-1{fill:none;stroke:#505050;stroke-miterlimit:10;}.cls-2{fill:#505050;}</style></defs><g id="Layer_2" data-name="Layer 2"><g id="Layer_1-2" data-name="Layer 1"><path class="cls-1" d="M30,59.5A29.5,29.5,0,1,0,.5,30,29.5,29.5,0,0,0,30,59.5Z"/><path class="cls-2" d="M44.51,36.38a2.66,2.66,0,0,1,.42.8,2,2,0,0,1,0,1.24,2,2,0,0,1-.69,1L33.28,48a1.87,1.87,0,0,1-.74.35,1.89,1.89,0,0,1-.82,0,2.46,2.46,0,0,1-.79-.31,2.6,2.6,0,0,1-.68-.6L15.09,27.84a2.46,2.46,0,0,1-.42-.8,2.21,2.21,0,0,1-.1-.85,2.06,2.06,0,0,1,.73-1.42l11-8.53a1.83,1.83,0,0,1,.73-.35,1.94,1.94,0,0,1,.83,0,2.46,2.46,0,0,1,.79.31,2.79,2.79,0,0,1,.68.6ZM28.05,17.8a.48.48,0,0,0-.29-.19.33.33,0,0,0-.17,0,.41.41,0,0,0-.15.07l-2.26,1.76L40.9,39.75,43.17,38a.43.43,0,0,0,.11-.12.42.42,0,0,0,0-.16.48.48,0,0,0-.11-.34Zm3.5,28.62a.48.48,0,0,0,.29.19.29.29,0,0,0,.16,0,.35.35,0,0,0,.15-.07l7.46-5.77L23.88,20.45l-7.45,5.77a.35.35,0,0,0-.11.13.3.3,0,0,0-.05.16.55.55,0,0,0,.11.33ZM31.22,38l2.25,2.9-1.3,1L29.93,39Z"/></g></g></svg>