<svg xmlns="http://www.w3.org/2000/svg" viewBox="0 0 41.96 42"><defs><style>.cls-1{fill:#068273;}</style></defs><title>Global_ICon_explore2</title><g id="Layer_2" data-name="Layer 2"><g id="Layer_1-2" data-name="Layer 1"><path class="cls-1" d="M20.94,0a20.54,20.54,0,0,1,5.57.75A21,21,0,0,1,41.16,15.4,20.54,20.54,0,0,1,42,21,20.88,20.88,0,0,1,26.57,41.26a21.35,21.35,0,0,1-11.17,0A20.94,20.94,0,0,1,.74,26.6a21.35,21.35,0,0,1,0-11.17A21.13,21.13,0,0,1,20.94,0Zm1.4,39.12a17.81,17.81,0,0,0,4.28-.87A18.42,18.42,0,0,0,38.28,26.59a17.81,17.81,0,0,0,.87-4.28H36.32V19.62h2.75a17.81,17.81,0,0,0-.87-4.28A18.42,18.42,0,0,0,26.54,3.68a17.81,17.81,0,0,0-4.28-.87V5.56H19.54V2.88a17.81,17.81,0,0,0-4.28.87A18.42,18.42,0,0,0,3.6,15.42a17.81,17.81,0,0,0-.87,4.28H5.47v2.79H2.8a17.81,17.81,0,0,0,.87,4.28A18.42,18.42,0,0,0,15.34,38.43a17.81,17.81,0,0,0,4.28.87v-2.9h2.79Zm1.86-21.39,6.53,13-13-6.53-6.53-13Zm1.38,7.9-3.14-6.11-6.19-3.08,3.18,6.08Z"/></g></g></svg>