<svg xmlns="http://www.w3.org/2000/svg" width="58" height="58" viewBox="0 0 58 58"><defs><style>.a{fill:#00b294;}.b{fill:#fff;}</style></defs><title>Global_Icon_newmap</title><circle class="a" cx="29" cy="29" r="29"/><path class="b" d="M42.75,40.8H15.23l5.5-16.51h7.34V20.53a4.66,4.66,0,0,1-2.64-1.6,4.57,4.57,0,0,1-.76-1.34A4.52,4.52,0,0,1,24.41,16a4.44,4.44,0,0,1,.36-1.78,4.63,4.63,0,0,1,1-1.45,4.7,4.7,0,0,1,1.46-1A4.42,4.42,0,0,1,29,11.45a4.37,4.37,0,0,1,1.78.37,4.7,4.7,0,0,1,2.44,2.44A4.37,4.37,0,0,1,33.58,16a4.52,4.52,0,0,1-.27,1.56,4.57,4.57,0,0,1-.76,1.34,4.66,4.66,0,0,1-2.64,1.6v3.76h7.34ZM17.78,39H40.2L35.93,26.13h-6V33a.28.28,0,0,1-.11.22.75.75,0,0,1-.26.14l-.3.07-.25,0-.25,0-.3-.07a.75.75,0,0,1-.26-.14.28.28,0,0,1-.11-.22V26.13h-6ZM26.24,16a2.7,2.7,0,0,0,.22,1.08,2.74,2.74,0,0,0,1.46,1.46,2.8,2.8,0,0,0,2.15,0,2.74,2.74,0,0,0,1.46-1.46,2.8,2.8,0,0,0,0-2.15,2.74,2.74,0,0,0-1.46-1.46,2.8,2.8,0,0,0-2.15,0A2.74,2.74,0,0,0,26.45,15,2.7,2.7,0,0,0,26.24,16Z"/></svg>