<svg xmlns="http://www.w3.org/2000/svg" width="58" height="58" viewBox="0 0 58 58"><defs><style>.a{fill:#00b294;}.b{fill:#fff;}</style></defs><title>Global_Icon_Start</title><circle class="a" cx="29" cy="29" r="29"/><path class="b" d="M33.38,16.25a14.08,14.08,0,0,1,9.22,8.94,13.62,13.62,0,0,1,.21,8.07,13.82,13.82,0,0,1-1.45,3.34,14.11,14.11,0,0,1-2.24,2.82,14.37,14.37,0,0,1-2.9,2.18,14.68,14.68,0,0,1-14.51,0,14.39,14.39,0,0,1-2.9-2.18,14.08,14.08,0,0,1-2.24-2.82,13.79,13.79,0,0,1-1.45-3.34,13.64,13.64,0,0,1,.21-8.09,14.12,14.12,0,0,1,9.22-8.92l.64,1.89a12.44,12.44,0,0,0-3.48,1.73A12.23,12.23,0,0,0,19,22.49a11.89,11.89,0,0,0-1.74,3.3,11.72,11.72,0,0,0-.18,6.94A12,12,0,0,0,20.25,38a12.23,12.23,0,0,0,2.49,1.87,12.65,12.65,0,0,0,2.94,1.21,12.35,12.35,0,0,0,3.27.43,12.17,12.17,0,0,0,4.79-.94A12.55,12.55,0,0,0,37.65,38,12.18,12.18,0,0,0,40.3,34.2a11.31,11.31,0,0,0,1-4.66,11.51,11.51,0,0,0-.62-3.75,11.89,11.89,0,0,0-1.74-3.3,12.21,12.21,0,0,0-2.69-2.62,12.43,12.43,0,0,0-3.48-1.73ZM30,27.54H27.93v-16H30Z"/></svg>