<svg xmlns="http://www.w3.org/2000/svg" width="58" height="58" viewBox="0 0 58 58"><defs><style>.a{fill:#00b294;}.b{fill:#fff;}</style></defs><title>Global_Icon_Value</title><circle class="a" cx="29" cy="29" r="29"/><path class="b" d="M41.36,18.9a12.52,12.52,0,0,1,5.41,4.56,12.19,12.19,0,0,1,1.49,3.2,12.34,12.34,0,0,1,.52,3.58,12.1,12.1,0,0,1-.44,3.28,12.54,12.54,0,0,1-1.25,3,12.4,12.4,0,0,1-4.43,4.43,12.54,12.54,0,0,1-3,1.25,12.1,12.1,0,0,1-3.28.44A12.41,12.41,0,0,1,32.51,42,12,12,0,0,1,29,40.13l-4.95,4.95L9.22,30.24,26.53,12.93H41.36ZM24.05,41.58,38.89,26.74V20.65a10.43,10.43,0,0,0-1.24-.23,10,10,0,0,0-1.24-.08h-.78a3,3,0,0,1-.81-.09,1.3,1.3,0,0,1-.63-.36,1.12,1.12,0,0,1-.25-.8,1.25,1.25,0,0,1,1.24-1.24l1.86,0a9.1,9.1,0,0,1,1.84.23V15.4H27.55L12.71,30.24Zm12.36-1.45a9.52,9.52,0,0,0,3.84-.78,10,10,0,0,0,5.26-5.26A9.77,9.77,0,0,0,46,27.67a10.21,10.21,0,0,0-1-2.37,9.88,9.88,0,0,0-1.56-2,9.68,9.68,0,0,0-2.06-1.58v6.09L30.78,38.35a9.66,9.66,0,0,0,2.69,1.32A9.83,9.83,0,0,0,36.42,40.13Z"/></svg>