<?xml version="1.0" encoding="utf-8"?>
<!-- Generator: Adobe Illustrator 19.2.1, SVG Export Plug-In . SVG Version: 6.00 Build 0)  -->
<svg version="1.1" xmlns="http://www.w3.org/2000/svg" xmlns:xlink="http://www.w3.org/1999/xlink" x="0px" y="0px" width="40.5px"
	 height="40.5px" viewBox="0 0 40.5 40.5" style="enable-background:new 0 0 40.5 40.5;" xml:space="preserve">
<style type="text/css">
	.st0{fill:#FFFFFF;}
	.st1{fill:#018374;}
</style>
<g id="Layer_2">
	<g>
		<path class="st0" d="M23.5,36.9c-1.1,0-2.1-0.4-2.9-1.2l-16-16c-1.6-1.6-1.6-4.2,0-5.8l9.8-9.8c0.8-0.8,1.8-1.2,2.9-1.2
			c1.1,0,2.1,0.4,2.9,1.2l16,16c1.4,1.4,1.6,3.5,0.6,5.1c-0.2,0.3-0.3,0.5-0.6,0.7l-9.8,9.8C25.6,36.5,24.6,36.9,23.5,36.9
			L23.5,36.9z"/>
		<path class="st0" d="M17.3,3.9c0.8,0,1.6,0.3,2.2,0.9l16,16h0c1.1,1.1,1.2,2.7,0.4,3.9c-0.1,0.2-0.3,0.4-0.4,0.5L25.7,35
			c-0.6,0.6-1.4,0.9-2.2,0.9c-0.8,0-1.6-0.3-2.2-0.9l-16-16c-1.2-1.2-1.2-3.2,0-4.4L15,4.8C15.7,4.2,16.5,3.9,17.3,3.9 M17.3,1.9
			L17.3,1.9c-1.4,0-2.7,0.5-3.6,1.5l-9.8,9.8c-2,2-2,5.2,0,7.2l16,16c1,1,2.3,1.5,3.6,1.5c1.4,0,2.7-0.5,3.6-1.5l9.8-9.8
			c0.3-0.3,0.5-0.6,0.7-0.9c1.3-2,1-4.7-0.7-6.4l-0.6-0.6h0L20.9,3.4C19.9,2.4,18.6,1.9,17.3,1.9L17.3,1.9z"/>
	</g>
</g>
<g id="Layer_1">
	<g>
		<g>
			<path class="st1" d="M35.8,25c0.8-1.2,0.6-2.8-0.4-3.9h0l-16-16c-1.2-1.2-3.2-1.2-4.4,0l-9.8,9.8c-1.2,1.2-1.2,3.2,0,4.4l16,16
				c1.2,1.2,3.2,1.2,4.4,0l9.8-9.8C35.5,25.4,35.6,25.2,35.8,25z M24.5,34.2c-0.6,0.6-1.6,0.6-2.2,0l-16-16c-0.6-0.6-0.6-1.6,0-2.2
				l6-6l18.2,18.2C29.4,29.3,24.5,34.2,24.5,34.2z M34.2,24.5c0,0-0.1,0.2-0.3,0.3L15.7,6.5L16,6.3c0.3-0.3,0.7-0.5,1.1-0.5
				c0.4,0,0.8,0.2,1.1,0.5l16,16l0,0c0.3,0.3,0.5,0.7,0.5,1.1C34.7,23.8,34.5,24.2,34.2,24.5z"/>
		</g>
		<g>
			<path class="st1" d="M10.3,16.9c-0.2-0.2-0.5-0.2-0.8,0c-0.2,0.2-0.2,0.5,0,0.8l12.9,12.9c0.2,0.2,0.5,0.2,0.8,0
				c0.2-0.2,0.2-0.5,0-0.8L10.3,16.9z"/>
		</g>
		<g>
			<path class="st1" d="M24.3,28.7c0.2,0.2,0.5,0.2,0.8,0c0.2-0.2,0.2-0.5,0-0.8l-2.9-2.9c-0.2-0.2-0.5-0.2-0.8,0
				c-0.2,0.2-0.2,0.5,0,0.8L24.3,28.7z"/>
		</g>
		<g>
			<path class="st1" d="M11.4,15.1c-0.2,0.2-0.2,0.5,0,0.8l6.9,6.9c0.2,0.2,0.5,0.2,0.8,0c0.2-0.2,0.2-0.5,0-0.8l-6.9-6.9
				C11.9,14.8,11.6,14.8,11.4,15.1z"/>
		</g>
	</g>
</g>
</svg>
