<svg xmlns="http://www.w3.org/2000/svg" width="58" height="58" viewBox="0 0 58 58"><defs><style>.a{fill:#00b294;}.b{fill:#fff;}</style></defs><title>Global_Icon_explore</title><circle class="a" cx="29" cy="29" r="29"/><path class="b" d="M29,15a13.68,13.68,0,0,1,3.71.5,14,14,0,0,1,9.76,9.76A13.68,13.68,0,0,1,43,29a13.84,13.84,0,0,1-.49,3.72,13.95,13.95,0,0,1-9.76,9.76,14.22,14.22,0,0,1-7.44,0,13.95,13.95,0,0,1-9.76-9.76,14.22,14.22,0,0,1,0-7.44,13.95,13.95,0,0,1,9.76-9.76A13.84,13.84,0,0,1,29,15Zm.93,26.06a11.86,11.86,0,0,0,2.85-.58,12.3,12.3,0,0,0,2.57-1.2,12.21,12.21,0,0,0,4-4,12.3,12.3,0,0,0,1.2-2.57,11.86,11.86,0,0,0,.58-2.85H39.25V28.07h1.83a11.86,11.86,0,0,0-.58-2.85,12.3,12.3,0,0,0-1.2-2.57,12.21,12.21,0,0,0-4-4,12.3,12.3,0,0,0-2.57-1.2,11.86,11.86,0,0,0-2.85-.58v1.83H28.07V16.92a11.86,11.86,0,0,0-2.85.58,12.3,12.3,0,0,0-2.57,1.2,12.21,12.21,0,0,0-4,4,12.3,12.3,0,0,0-1.2,2.57,11.86,11.86,0,0,0-.58,2.85h1.83v1.86H16.92a11.86,11.86,0,0,0,.58,2.85,12.3,12.3,0,0,0,1.2,2.57,12.21,12.21,0,0,0,4,4,12.3,12.3,0,0,0,2.57,1.2,11.86,11.86,0,0,0,2.85.58V39.25h1.86Zm1.24-14.25,4.35,8.69-8.69-4.35-4.35-8.69Zm.92,5.26L30,28l-4.12-2.05L28,30Z"/></svg>