<svg xmlns="http://www.w3.org/2000/svg" viewBox="0 0 42 42"><defs><style>.cls-1{fill:#068273;}</style></defs><title>Global_Icon_PayHome2</title><g id="Layer_2" data-name="Layer 2"><g id="Layer_2-2" data-name="Layer 2"><path class="cls-1" d="M41.35,27.32a4.12,4.12,0,0,0-.55-5.12h0l-21-21A4.1,4.1,0,0,0,14,1.2L1.2,14a4.1,4.1,0,0,0,0,5.79l21,21a4.11,4.11,0,0,0,5.8,0L40.83,28A4.1,4.1,0,0,0,41.35,27.32ZM26.53,39.37a2.07,2.07,0,0,1-2.93,0l-21-21a2.06,2.06,0,0,1,0-2.91l7.88-7.88L34.41,31.52ZM39.37,26.56l-.38.38L15.06,3l.38-.38a2.06,2.06,0,0,1,2.91,0l21,21h0a2.07,2.07,0,0,1,0,2.91Z"/></g></g></svg>