<svg xmlns="http://www.w3.org/2000/svg" viewBox="0 0 43.11 42"><defs><style>.cls-1{fill:#068273;}</style></defs><title>Global_Icon_ManageHome2</title><g id="Layer_2" data-name="Layer 2"><g id="Layer_2-2" data-name="Layer 2"><path class="cls-1" d="M37.62,20.25v1.46L43,25l-3.36,7.89L33.4,31.57a14.21,14.21,0,0,1-1.06,1l1.44,6.12L25.65,42l-3.41-5.34H20.8L17.38,42,9.25,38.72l1.46-6.14a14.21,14.21,0,0,1-1.06-1L3.37,32.91,0,25.06l5.42-3.32V20.28L0,17,3.36,9.08l6.29,1.35q.51-.54,1.06-1L9.27,3.28,17.4,0l3.41,5.34h1.53L25.76,0l8.13,3.28L32.39,9.42a14.21,14.21,0,0,1,1.06,1l6.29-1.35,3.37,7.84ZM35.14,23l.08-1V20.05a3.8,3.8,0,0,0-.08-1l5-3-1.82-4.28L32.6,13.13a17.91,17.91,0,0,0-1.35-1.44q-.69-.66-1.49-1.35L31,4.74,26.64,3,23.51,7.83l-1-.08h-2l-1,.08L16.41,3,12.07,4.74l1.35,5.58a18.47,18.47,0,0,0-1.48,1.35q-.68.66-1.35,1.45L4.86,11.77,3,16.05l5,3-.08,1V22l.08,1L3,26l1.82,4.28,5.73-1.35a18.29,18.29,0,0,0,1.35,1.44q.69.66,1.49,1.35l-1.33,5.57L16.47,39l3.13-4.86,1,.08h2l1-.08L26.7,39,31,37.26l-1.35-5.58a17.9,17.9,0,0,0,1.48-1.35q.68-.66,1.35-1.45l5.73,1.35,1.82-4.28ZM21.56,13.25a7.94,7.94,0,0,1,3.1.61,8,8,0,0,1,2.53,1.72A7.79,7.79,0,0,1,28.9,18a7.61,7.61,0,0,1,0,6,7.8,7.8,0,0,1-1.71,2.33,8,8,0,0,1-2.53,1.65,8.21,8.21,0,0,1-6.21,0,8,8,0,0,1-2.53-1.65A7.82,7.82,0,0,1,14.21,24a7.61,7.61,0,0,1,0-6,7.82,7.82,0,0,1,1.71-2.33,8.13,8.13,0,0,1,2.53-1.65A8,8,0,0,1,21.56,13.25Zm0,13.17a5.64,5.64,0,0,0,4-1.59,5.38,5.38,0,0,0,0-7.71,5.7,5.7,0,0,0-7.91,0,5.38,5.38,0,0,0,0,7.71A5.64,5.64,0,0,0,21.56,26.42Z"/></g></g></svg>