<?xml version="1.0" encoding="utf-8"?>
<!-- Generator: Adobe Illustrator 23.1.0, SVG Export Plug-In . SVG Version: 6.00 Build 0)  -->
<svg version="1.1" id="Layer_1" xmlns="http://www.w3.org/2000/svg" xmlns:xlink="http://www.w3.org/1999/xlink" x="0px" y="0px"
	 viewBox="0 0 48 48" style="enable-background:new 0 0 48 48;" xml:space="preserve">
<style type="text/css">
	.st0{fill:#505050;}
</style>
<path class="st0" d="M33.8,1.5c0.5,0,1,0.1,1.5,0.3s0.9,0.5,1.2,0.8s0.6,0.8,0.8,1.2s0.3,0.9,0.3,1.5v37.5c0,0.5-0.1,1-0.3,1.5
	s-0.5,0.9-0.8,1.2s-0.8,0.6-1.2,0.8s-0.9,0.3-1.5,0.3H14.3c-0.5,0-1-0.1-1.5-0.3s-0.9-0.5-1.2-0.8s-0.6-0.8-0.8-1.2
	s-0.3-0.9-0.3-1.5V5.3c0-0.5,0.1-1,0.3-1.5s0.5-0.9,0.8-1.2s0.8-0.6,1.2-0.8s0.9-0.3,1.5-0.3H33.8z M27,43.5v-3h-6v3H27z M34.5,37.5
	V6h-21v31.5H34.5z"/>
</svg>
