<svg xmlns="http://www.w3.org/2000/svg" width="58" height="58" viewBox="0 0 58 58"><defs><style>.a{fill:#00b294;}.b{fill:#fff;}</style></defs><title>Global_Icon_Engagements</title><circle class="a" cx="29" cy="29" r="29"/><path class="b" d="M40.9,21.56A10,10,0,0,1,46,27.7a9.71,9.71,0,0,1,.39,2.74H43.92a7.23,7.23,0,0,0-.58-2.88,7.45,7.45,0,0,0-4-4,7.47,7.47,0,0,0-5.77,0,7.48,7.48,0,0,0-4,4,7.23,7.23,0,0,0-.58,2.88,7.3,7.3,0,0,1-.79,3.34,7.4,7.4,0,0,1-2.22,2.63,10,10,0,0,1,5.1,6.14,9.71,9.71,0,0,1,.39,2.74H29.07a7.23,7.23,0,0,0-.58-2.88,7.45,7.45,0,0,0-4-4,7.47,7.47,0,0,0-5.77,0,7.48,7.48,0,0,0-4,4,7.23,7.23,0,0,0-.58,2.88H11.75a9.71,9.71,0,0,1,.39-2.74,9.93,9.93,0,0,1,1.1-2.47,10.08,10.08,0,0,1,4-3.66A7.4,7.4,0,0,1,15,33.78a7.45,7.45,0,0,1-.21-6.22,7.48,7.48,0,0,1,4-4A7.21,7.21,0,0,1,21.65,23a7.3,7.3,0,0,1,3.34.79A7.4,7.4,0,0,1,27.62,26a9.51,9.51,0,0,1,1.88-2.59,10.55,10.55,0,0,1,2.59-1.88,7.4,7.4,0,0,1-2.22-2.63,7.45,7.45,0,0,1-.21-6.22,7.48,7.48,0,0,1,4-4,7.47,7.47,0,0,1,5.77,0,7.45,7.45,0,0,1,4,4,7.45,7.45,0,0,1-.21,6.22A7.4,7.4,0,0,1,40.9,21.56ZM21.65,35.39A4.82,4.82,0,0,0,23.57,35a5,5,0,0,0,2.64-2.64,5,5,0,0,0,0-3.85,5,5,0,0,0-2.64-2.64,5,5,0,0,0-3.85,0,5,5,0,0,0-2.64,2.64,5,5,0,0,0,0,3.85A5,5,0,0,0,19.72,35,4.82,4.82,0,0,0,21.65,35.39Zm9.9-19.8a4.82,4.82,0,0,0,.39,1.92,5,5,0,0,0,2.64,2.64,5,5,0,0,0,3.85,0,5,5,0,0,0,2.64-2.64,5,5,0,0,0,0-3.85A5,5,0,0,0,38.42,11a5,5,0,0,0-3.85,0,5,5,0,0,0-2.64,2.64A4.82,4.82,0,0,0,31.55,15.59Z"/></svg>