<svg xmlns="http://www.w3.org/2000/svg" width="58" height="58" viewBox="0 0 58 58"><defs><style>.a{fill:#00b294;}.b{fill:#fff;}</style></defs><title>Global_Icon_Manage</title><circle class="a" cx="29" cy="29" r="29"/><path class="b" d="M40.86,28.45c0,.09,0,.18,0,.27s0,.18,0,.27,0,.18,0,.27,0,.18,0,.27l4,2.45-2.48,5.82-4.64-1q-.37.4-.78.76l1.06,4.52-6,2.42-2.52-3.94H28.44l-2.52,3.94-6-2.42L21,37.55q-.41-.36-.78-.76l-4.64,1L13.09,32l4-2.45c0-.09,0-.18,0-.27s0-.18,0-.27,0-.18,0-.27,0-.18,0-.27l-4-2.45,2.48-5.82,4.64,1q.38-.4.78-.76l-1.06-4.52,6-2.42,2.52,3.94h1.13l2.52-3.94,6,2.42L37,20.45q.41.36.78.76l4.64-1L44.91,26Zm-1.83,2,.06-.72c0-.24,0-.48,0-.72s0-.47,0-.71,0-.48-.06-.71l3.69-2.24-1.34-3.16-4.23,1a13.22,13.22,0,0,0-1-1.06q-.51-.49-1.1-1L36,17l-3.25-1.31-2.31,3.59-.73-.06-.73,0q-.37,0-.74,0l-.74.06-2.3-3.59L22,17l1,4.12a13.63,13.63,0,0,0-1.09,1q-.5.49-1,1.07l-4.23-1-1.34,3.16L19,27.57l-.06.72q0,.36,0,.72t0,.71l.06.71-3.69,2.24,1.34,3.16,4.23-1a13.5,13.5,0,0,0,1,1.06q.51.49,1.1,1L22,41l3.25,1.31,2.31-3.59.73.06q.38,0,.73,0c.25,0,.5,0,.74,0l.74-.06,2.3,3.59L36,41l-1-4.12a13.21,13.21,0,0,0,1.09-1q.5-.49,1-1.07l4.23,1,1.34-3.16ZM29,23.28a5.86,5.86,0,0,1,2.29.45A5.94,5.94,0,0,1,33.16,25a5.75,5.75,0,0,1,1.26,1.82,5.62,5.62,0,0,1,0,4.46A5.76,5.76,0,0,1,33.16,33a5.93,5.93,0,0,1-1.87,1.22,6.06,6.06,0,0,1-4.58,0A5.94,5.94,0,0,1,24.84,33a5.77,5.77,0,0,1-1.26-1.82,5.62,5.62,0,0,1,0-4.46A5.77,5.77,0,0,1,24.84,25a6,6,0,0,1,1.87-1.22A5.87,5.87,0,0,1,29,23.28ZM29,33a4.16,4.16,0,0,0,2.92-1.17,4,4,0,0,0,.88-1.28,4,4,0,0,0,0-3.13,4,4,0,0,0-.88-1.28,4.21,4.21,0,0,0-5.84,0,4,4,0,0,0-.88,1.28,4,4,0,0,0,0,3.13,4,4,0,0,0,.88,1.28A4.16,4.16,0,0,0,29,33Z"/></svg>