<svg xmlns="http://www.w3.org/2000/svg" width="58" height="58" viewBox="0 0 58 58"><defs><style>.a{fill:#00b294;}.b{fill:#fff;}</style></defs><title>Global_Icon_improve</title><circle class="a" cx="29" cy="29" r="29"/><path class="b" d="M24.14,13.45a4.63,4.63,0,0,1,1.88.39,5,5,0,0,1,2.59,2.59A4.63,4.63,0,0,1,29,18.31a4.75,4.75,0,0,1-.52,2.16,4.81,4.81,0,0,1-1.43,1.71V41.63a2.86,2.86,0,0,1-.23,1.14,2.9,2.9,0,0,1-1.55,1.55,3,3,0,0,1-2.28,0,2.9,2.9,0,0,1-1.55-1.55,2.86,2.86,0,0,1-.23-1.14V22.18a4.81,4.81,0,0,1-1.43-1.71,4.82,4.82,0,0,1-.14-4,4.9,4.9,0,0,1,1-1.54,5,5,0,0,1,1.55-1A4.68,4.68,0,0,1,24.14,13.45Zm1,7.65a7,7,0,0,0,.78-.52,3.46,3.46,0,0,0,.61-.6,2.53,2.53,0,0,0,.4-.74,2.83,2.83,0,0,0,.14-.94,2.72,2.72,0,0,0-.14-.88,3.2,3.2,0,0,0-.39-.79A2.72,2.72,0,0,0,25.9,16a3,3,0,0,0-.79-.43v2.73l-1,1-1-1V15.58a2.8,2.8,0,0,0-1.4,1.06,3.2,3.2,0,0,0-.39.79,2.72,2.72,0,0,0-.14.88,2.83,2.83,0,0,0,.14.94,2.53,2.53,0,0,0,.4.74,3.46,3.46,0,0,0,.61.6,7,7,0,0,0,.78.52V41.63a1,1,0,0,0,1.94,0Zm13.6,9.84H36.77V41.63a2.86,2.86,0,0,1-.23,1.14A2.9,2.9,0,0,1,35,44.32a3,3,0,0,1-2.28,0,2.9,2.9,0,0,1-1.55-1.55,2.86,2.86,0,0,1-.23-1.14V30.94H29V29h3.89V20.66l-1.94-1.94V13.45h5.83v5.27l-1.94,1.94V29h3.89Zm-5.83-13,1,1,1-1V15.4H32.89Zm1.94,13H32.89V41.63a1,1,0,0,0,1.94,0Z"/></svg>