<svg xmlns="http://www.w3.org/2000/svg" viewBox="0 0 26.3 42"><defs><style>.cls-1{fill:#068273;}</style></defs><title>Global_Icon_improve2</title><g id="Layer_2" data-name="Layer 2"><g id="Layer_1-2" data-name="Layer 1"><path class="cls-1" d="M6.57,0A6.25,6.25,0,0,1,9.11.53,6.75,6.75,0,0,1,12.61,4a6.25,6.25,0,0,1,.53,2.54,6.42,6.42,0,0,1-.7,2.92,6.5,6.5,0,0,1-1.93,2.31V38.06a3.86,3.86,0,0,1-.31,1.54A3.92,3.92,0,0,1,8.1,41.7,4.05,4.05,0,0,1,5,41.7,3.92,3.92,0,0,1,2.93,39.6a3.86,3.86,0,0,1-.31-1.54V11.79A6.51,6.51,0,0,1,.5,4.08,6.62,6.62,0,0,1,1.85,2,6.75,6.75,0,0,1,3.94.65,6.32,6.32,0,0,1,6.57,0ZM7.93,10.33A9.45,9.45,0,0,0,9,9.63a4.67,4.67,0,0,0,.82-.81,3.42,3.42,0,0,0,.54-1,3.82,3.82,0,0,0,.19-1.27,3.67,3.67,0,0,0-.19-1.19A4.32,4.32,0,0,0,9.82,4.3,3.67,3.67,0,0,0,9,3.44a4.05,4.05,0,0,0-1.07-.58V6.55L6.53,7.9,5.18,6.55V2.88A3.78,3.78,0,0,0,3.29,4.31a4.32,4.32,0,0,0-.53,1.07,3.67,3.67,0,0,0-.19,1.19,3.82,3.82,0,0,0,.19,1.27,3.42,3.42,0,0,0,.54,1,4.67,4.67,0,0,0,.82.81,9.45,9.45,0,0,0,1.05.7V38.06a1.35,1.35,0,0,0,2.62,0ZM26.3,23.62H23.63V38.06a3.86,3.86,0,0,1-.31,1.54,3.92,3.92,0,0,1-2.08,2.09,4.05,4.05,0,0,1-3.08,0,3.92,3.92,0,0,1-2.09-2.09,3.86,3.86,0,0,1-.31-1.54V23.62H13.14V21h5.25V9.74L15.77,7.12V0h7.87V7.12L21,9.74V21h5.25ZM18.42,6.06l1.35,1.35,1.35-1.35V2.63H18.39ZM21,23.62H18.39V38.06a1.35,1.35,0,0,0,2.62,0Z"/></g></g></svg>