<svg xmlns="http://www.w3.org/2000/svg" width="58" height="58" viewBox="0 0 58 58"><defs><style>.a{fill:#00b294;}.b{fill:#fff;}</style></defs><title>Global_Icon_Monitor</title><circle class="a" cx="29" cy="29" r="29"/><path class="b" d="M57.67,33.38c-5.71,0-13.14.12-13.14.12l-2.32-9.2a1.93,1.93,0,0,0-.72-1.11,2,2,0,0,0-1.27-.43h-5L31.91,9.33a2,2,0,0,0-.71-1.14,2.1,2.1,0,0,0-2.56,0,1.93,1.93,0,0,0-.72,1.11L20.07,39.77l-5.7-5.66a2,2,0,0,0-2.9,0L8,37.61s-4,0-6.68,0A28.79,28.79,0,0,0,3,41.81l5.83-.08a2,2,0,0,0,1.45-.61l2.67-2.67,6.79,6.79a2,2,0,0,0,1.45.61,2,2,0,0,0,1.27-.43,1.93,1.93,0,0,0,.72-1.11l6.69-26,1.74,7a2,2,0,0,0,.71,1.14,2,2,0,0,0,1.29.43h5L40.93,36a2,2,0,0,0,.71,1.14,2,2,0,0,0,1.29.43l13.77,0A28.83,28.83,0,0,0,57.67,33.38Z"/></svg>