<svg xmlns="http://www.w3.org/2000/svg" width="58" height="58" viewBox="0 0 58 58"><defs><style>.a{fill:#00b294;}.b{fill:#fff;}</style></defs><title>Gobal_Icon_Pay</title><circle class="a" cx="29" cy="29" r="29"/><path class="b" d="M44.51,34.26a3.14,3.14,0,0,0-.42-3.9h0l-16-16a3.12,3.12,0,0,0-4.41,0l-9.76,9.76a3.12,3.12,0,0,0,0,4.41l16,16a3.13,3.13,0,0,0,4.42,0l9.77-9.76A3.12,3.12,0,0,0,44.51,34.26ZM33.22,43.44a1.58,1.58,0,0,1-2.23,0l-16-16a1.57,1.57,0,0,1,0-2.22l6-6L39.22,37.46ZM43,33.68l-.29.29L24.48,15.75l.29-.29a1.57,1.57,0,0,1,2.22,0l16,16h0a1.58,1.58,0,0,1,0,2.22Z"/><path class="b" d="M19.09,26.07a.53.53,0,0,0-.75.75l12.89,12.9A.53.53,0,0,0,32,39Z"/></svg>