<?xml version="1.0" encoding="utf-8"?>
<!-- Generator: Adobe Illustrator 19.2.1, SVG Export Plug-In . SVG Version: 6.00 Build 0)  -->
<svg version="1.1" id="Layer_1" xmlns="http://www.w3.org/2000/svg" xmlns:xlink="http://www.w3.org/1999/xlink" x="0px" y="0px"
	 width="40.5px" height="40.5px" viewBox="0 0 40.5 40.5" style="enable-background:new 0 0 40.5 40.5;" xml:space="preserve">
<style type="text/css">
	.st0{fill:#018374;}
	.st1{fill:#FFFFFF;}
</style>
<g>
	<path class="st0" d="M25.2,37.2c-0.6,0-1.1-0.1-1.6-0.3s-0.9-0.5-1.3-0.9s-0.6-0.8-0.9-1.3c-0.2-0.5-0.3-1-0.3-1.6v-10h-2v10
		c0,0.6-0.1,1.1-0.3,1.6c-0.2,0.5-0.5,0.9-0.9,1.3c-0.4,0.4-0.8,0.6-1.3,0.9c-0.5,0.2-1,0.3-1.6,0.3s-1.1-0.1-1.6-0.3
		s-0.9-0.5-1.3-0.9c-0.4-0.4-0.6-0.8-0.9-1.3c-0.2-0.5-0.3-1-0.3-1.6V13.7c-0.6-0.5-1-1.1-1.4-1.8c-0.4-0.8-0.6-1.7-0.6-2.7
		c0-0.8,0.2-1.6,0.5-2.3C10,6.2,10.5,5.6,11,5c0.5-0.5,1.2-1,1.9-1.3s1.5-0.5,2.3-0.5s1.6,0.2,2.3,0.5c0.8,0.3,1.4,0.8,2,1.3
		s1,1.2,1.3,1.9s0.5,1.5,0.5,2.3v-6h8V10l-2,2v7.2h4v4h-2v10c0,0.6-0.1,1.1-0.3,1.6c-0.2,0.5-0.5,0.9-0.9,1.3s-0.8,0.6-1.3,0.9
		C26.3,37.1,25.8,37.2,25.2,37.2z M23.2,19.2V12l-2-2V9.2c0,0.9-0.2,1.8-0.6,2.7c-0.3,0.7-0.8,1.3-1.4,1.8v5.5H23.2z M15.5,11.4
		l0.2-0.1c0.3-0.1,0.5-0.3,0.7-0.5c0.2-0.1,0.3-0.3,0.5-0.4c0.1-0.1,0.2-0.3,0.3-0.5c0-0.1,0-0.1,0-0.2L15.5,11.4z M13.3,9.7
		c0,0.1,0,0.1,0,0.2c0.1,0.2,0.1,0.3,0.3,0.5c0.1,0.2,0.3,0.3,0.5,0.4c0.2,0.2,0.4,0.3,0.7,0.5l0.2,0.1L13.3,9.7z"/>
	<path class="st1" d="M28.2,4.2v5.4l-2,2v8.6h4v2h-2v11c0,0.4-0.1,0.8-0.2,1.2s-0.4,0.7-0.6,1s-0.6,0.5-1,0.6s-0.8,0.2-1.2,0.2
		S24.4,36.1,24,36s-0.7-0.4-1-0.6s-0.5-0.6-0.6-1s-0.2-0.8-0.2-1.2v-11h-2v-2h4v-8.6l-2-2V4.2H28.2 M25.2,9.8l1-1V6.2h-2v2.6
		L25.2,9.8 M25.2,34.2c0.3,0,0.5-0.1,0.7-0.3s0.3-0.4,0.3-0.7v-11h-2v11c0,0.3,0.1,0.5,0.3,0.7S25,34.2,25.2,34.2 M15.2,4.2
		c0.7,0,1.3,0.1,1.9,0.4s1.1,0.6,1.6,1.1s0.8,1,1.1,1.6s0.4,1.2,0.4,1.9c0,0.8-0.2,1.5-0.5,2.2s-0.8,1.3-1.5,1.8v20
		c0,0.4-0.1,0.8-0.2,1.2s-0.4,0.7-0.6,1s-0.6,0.5-1,0.6s-0.8,0.2-1.2,0.2S14.4,36.1,14,36s-0.7-0.4-1-0.6s-0.5-0.6-0.6-1
		s-0.2-0.8-0.2-1.2v-20c-0.6-0.5-1.1-1.1-1.5-1.8s-0.5-1.4-0.5-2.2c0-0.7,0.1-1.3,0.4-1.9s0.6-1.1,1.1-1.6s1-0.8,1.6-1.1
		S14.6,4.2,15.2,4.2 M15.2,10.2l-1-1V6.4c-0.3,0.1-0.6,0.2-0.8,0.4S13,7.3,12.8,7.5S12.5,8,12.4,8.3s-0.1,0.6-0.1,0.9
		c0,0.4,0,0.7,0.1,1s0.2,0.5,0.4,0.8s0.4,0.4,0.6,0.6s0.5,0.4,0.8,0.5v21.1c0,0.3,0.1,0.5,0.3,0.7s0.4,0.3,0.7,0.3s0.5-0.1,0.7-0.3
		c0.2-0.2,0.3-0.4,0.3-0.7V12.1c0.3-0.2,0.6-0.3,0.8-0.5s0.5-0.4,0.6-0.6s0.3-0.5,0.4-0.8s0.1-0.6,0.1-1c0-0.3,0-0.6-0.1-0.9
		s-0.2-0.6-0.4-0.8S17.2,7,17,6.8s-0.5-0.3-0.8-0.4v2.8L15.2,10.2 M30.2,2.2h-2h-6h-2v2v0.1c0,0,0,0-0.1-0.1
		c-0.6-0.6-1.4-1.1-2.2-1.5c-0.9-0.4-1.8-0.6-2.7-0.6c-1,0-1.9,0.2-2.7,0.6s-1.6,0.9-2.2,1.5C9.7,4.9,9.2,5.7,8.8,6.5
		C8.4,7.4,8.2,8.3,8.2,9.2c0,1.1,0.3,2.1,0.7,3.1c0.3,0.7,0.8,1.2,1.3,1.8v19.1c0,0.7,0.1,1.3,0.4,2c0.3,0.6,0.6,1.1,1.1,1.6
		s1,0.8,1.6,1.1s1.3,0.4,2,0.4s1.3-0.1,2-0.4c0.6-0.3,1.1-0.6,1.6-1.1s0.8-1,1.1-1.6c0.3-0.6,0.4-1.3,0.4-2c0,0.7,0.1,1.3,0.4,2
		c0.3,0.6,0.6,1.1,1.1,1.6s1,0.8,1.6,1.1s1.3,0.4,2,0.4s1.3-0.1,2-0.4c0.6-0.3,1.1-0.6,1.6-1.1s0.8-1,1.1-1.6c0.3-0.6,0.4-1.3,0.4-2
		v-9h2v-2v-2v-2h-2h-2v-5.7l1.4-1.4l0.6-0.6V9.7V4.2v-2H30.2z M20.2,14.1c0.5-0.5,0.9-1.1,1.3-1.8c0.1-0.1,0.1-0.3,0.2-0.4l0.5,0.5
		v5.7h-2V14.1L20.2,14.1z"/>
</g>
</svg>
