<svg xmlns="http://www.w3.org/2000/svg" viewBox="0 0 39.38 42"><defs><style>.cls-1{fill:#068273;}</style></defs><title>Global_Icon_newmap2</title><g id="Layer_2" data-name="Layer 2"><g id="Layer_1-2" data-name="Layer 1"><path class="cls-1" d="M39.38,42H0L7.87,18.38h10.5V13a6.67,6.67,0,0,1-3.78-2.29,6.54,6.54,0,0,1-1.09-1.92,6.47,6.47,0,0,1-.37-2.28A6.35,6.35,0,0,1,13.65,4a6.63,6.63,0,0,1,1.43-2.07A6.73,6.73,0,0,1,17.17.46,6.32,6.32,0,0,1,19.7,0a6.25,6.25,0,0,1,2.55.53A6.73,6.73,0,0,1,25.74,4a6.25,6.25,0,0,1,.52,2.49,6.47,6.47,0,0,1-.39,2.23,6.54,6.54,0,0,1-1.09,1.92A6.67,6.67,0,0,1,21,13v5.38h10.5ZM3.65,39.42H35.73L29.62,21H21v9.83a.4.4,0,0,1-.16.31,1.07,1.07,0,0,1-.37.2l-.43.1h-.72l-.43-.1a1.07,1.07,0,0,1-.37-.2.4.4,0,0,1-.16-.31V21H9.82ZM15.75,6.51a3.86,3.86,0,0,0,.31,1.55,3.92,3.92,0,0,0,2.09,2.09,4,4,0,0,0,3.08,0,3.92,3.92,0,0,0,2.09-2.09,4,4,0,0,0,0-3.08,3.92,3.92,0,0,0-2.09-2.09,4,4,0,0,0-3.08,0,3.92,3.92,0,0,0-2.1,2.19A3.86,3.86,0,0,0,15.75,6.51Z"/></g></g></svg>