<?xml version="1.0" encoding="utf-8"?>
<!-- Generator: Adobe Illustrator 19.2.1, SVG Export Plug-In . SVG Version: 6.00 Build 0)  -->
<svg version="1.1" id="Layer_1" xmlns="http://www.w3.org/2000/svg" xmlns:xlink="http://www.w3.org/1999/xlink" x="0px" y="0px"
	 width="40.5px" height="40.5px" viewBox="0 0 40.5 40.5" style="enable-background:new 0 0 40.5 40.5;" xml:space="preserve">
<style type="text/css">
	.st0{fill:#018374;}
	.st1{fill:#FFFFFF;}
</style>
<title>Global_Icon_Start</title>
<path class="st0" d="M2.1,20.2L20.2,2.1l18.1,18.1L20.2,38.4L2.1,20.2z M20.2,31.3l11.1-11.1L20.2,9.2L9.2,20.2l3.6,3.5v-7h6.5
	l-1.8-1.8l3.5-3.5l7.8,7.8l-7.8,7.8l-3.2-3.2v4.9L20.2,31.3z M17.7,23.2l1.5-1.5h-1.5V23.2z"/>
<path class="st1" d="M20.2,4.2l16,16l-16,16l-16-16L20.2,4.2 M14.2,27.4v-9.2h8.6l-3.3-3.3l1.4-1.4l5.7,5.7l-5.7,5.7l-1.4-1.4
	l3.3-3.3h-6.6v9.2l4,4l13.2-13.1L20.2,7.1L7.1,20.2L14.2,27.4 M20.2,0l-2.1,2.1l-16,16L0,20.2l2.1,2.1l16,16l2.1,2.1l2.1-2.1l16-16
	l2.1-2.1l-2.1-2.1l-16-16L20.2,0L20.2,0z M19.2,28.2v-0.7l1.3,1.3l-0.3,0.3L19.2,28.2L19.2,28.2z"/>
</svg>
