<svg xmlns="http://www.w3.org/2000/svg" viewBox="0 0 37.71 42"><defs><style>.cls-1{fill:#068273;}</style></defs><title>Global_Icon_StartHome2</title><g id="Layer_2" data-name="Layer 2"><g id="Layer_2-2" data-name="Layer 2"><path class="cls-1" d="M24.66,6.19A18.49,18.49,0,0,1,36.77,17.93,17.89,17.89,0,0,1,37,28.53a18.15,18.15,0,0,1-1.9,4.39,18.53,18.53,0,0,1-2.94,3.7,18.87,18.87,0,0,1-3.81,2.86,19.28,19.28,0,0,1-19.06,0,18.9,18.9,0,0,1-3.81-2.86,18.49,18.49,0,0,1-2.94-3.7,18.11,18.11,0,0,1-1.9-4.39A17.91,17.91,0,0,1,1,17.9,18.55,18.55,0,0,1,13.06,6.19l.84,2.48a16.34,16.34,0,0,0-4.57,2.27,16.06,16.06,0,0,0-3.56,3.44,15.62,15.62,0,0,0-2.29,4.33,15.39,15.39,0,0,0-.24,9.12,15.76,15.76,0,0,0,4.16,6.92,16.06,16.06,0,0,0,3.27,2.46,16.61,16.61,0,0,0,3.86,1.59,16.22,16.22,0,0,0,4.29.56,16,16,0,0,0,6.29-1.23,16.48,16.48,0,0,0,5.14-3.38,16,16,0,0,0,3.48-5,14.85,14.85,0,0,0,1.31-6.12,15.12,15.12,0,0,0-.81-4.93A15.62,15.62,0,0,0,32,14.38a16,16,0,0,0-3.53-3.44,16.33,16.33,0,0,0-4.57-2.27ZM20.22,21H17.5V0h2.72Z"/></g></g></svg>