<svg xmlns="http://www.w3.org/2000/svg" viewBox="0 0 42.35 42.3"><defs><style>.cls-1{fill:#163567;stroke:#fff;stroke-miterlimit:10;stroke-width:0.3px;}</style></defs><title>Global_Icon_NewToSEM</title><g id="Layer_2" data-name="Layer 2"><g id="Layer_1-2" data-name="Layer 1"><g id="map"><path class="cls-1" d="M41.32,42.15a.88.88,0,0,1-.39-.09L30.79,37l-9.26,4.1a.87.87,0,0,1-.71,0L11.56,37,1.42,42.06a.88.88,0,0,1-1.26-.91l3.5-24.53a.88.88,0,0,1,.87-.75H6.28a.88.88,0,0,1,0,1.75h-1L2.13,39.74l9-4.51a.87.87,0,0,1,.75,0l9.28,4.11,9.28-4.11a.87.87,0,0,1,.75,0l9,4.51L37.06,17.62h-1a.88.88,0,0,1,0-1.75h1.75a.88.88,0,0,1,.87.75l3.5,24.53a.88.88,0,0,1-.87,1Z"/><g id="pin"><path class="cls-1" d="M21.17,34.89l-.62-.62C20.05,33.77,8.32,21.93,8.33,13A12.84,12.84,0,0,1,34,13c0,8.89-11.72,20.78-12.22,21.28Zm0-33A11.1,11.1,0,0,0,10.09,13c0,7.11,8.66,16.82,11.09,19.4C23.59,29.8,32.26,20.05,32.26,13A11.1,11.1,0,0,0,21.17,1.9Z"/><path class="cls-1" d="M21.17,18.9a6.31,6.31,0,1,1,6.31-6.31A6.32,6.32,0,0,1,21.17,18.9ZM21.17,8a4.56,4.56,0,1,0,4.56,4.56A4.57,4.57,0,0,0,21.17,8Z"/></g></g></g></g></svg>