<?xml version="1.0" encoding="utf-8"?>
<!-- Generator: Adobe Illustrator 19.2.1, SVG Export Plug-In . SVG Version: 6.00 Build 0)  -->
<svg version="1.1" id="Layer_1" xmlns="http://www.w3.org/2000/svg" xmlns:xlink="http://www.w3.org/1999/xlink" x="0px" y="0px"
	 width="40.5px" height="40.5px" viewBox="0 0 40.5 40.5" style="enable-background:new 0 0 40.5 40.5;" xml:space="preserve">
<style type="text/css">
	.st0{fill:#018374;}
	.st1{fill:#FFFFFF;}
</style>
<g>
	<path class="st0" d="M32.8,37.2V20.5h4.5v16.8L32.8,37.2L32.8,37.2z M25.4,37.2V13.1h4.4v24.1H25.4z M18,37.2v-34h4.5v34H18z
		 M10.6,37.2V20.5H15v16.8L10.6,37.2L10.6,37.2z M3.2,37.2v-9.4h4.5v9.4H3.2z"/>
	<path class="st1" d="M21.5,4.2v32H19v-32L21.5,4.2 M28.9,14.1v22.1h-2.4V14.1H28.9 M36.3,21.5v14.8h-2.5V21.5H36.3 M14.1,21.5v14.8
		h-2.4V21.5H14.1 M6.7,28.9v7.4H4.2v-7.4H6.7 M23.5,2.2h-2H19h-2v2v32v2h2h2.5h2v-2v-32V2.2L23.5,2.2z M30.9,12.1h-2h-2.4h-2v2v22.1
		v2h2h2.4h2v-2V14.1V12.1L30.9,12.1z M38.3,19.5h-2h-2.5h-2v2v14.8v2h2h2.5h2v-2V21.5V19.5L38.3,19.5z M16.1,19.5h-2h-2.4h-2v2v14.8
		v2h2h2.4h2v-2V21.5V19.5L16.1,19.5z M8.7,26.9h-2H4.2h-2v2v7.4v2h2h2.5h2v-2v-7.4V26.9L8.7,26.9z"/>
</g>
</svg>
