<?xml version="1.0" encoding="utf-8"?>
<!-- Generator: Adobe Illustrator 22.1.0, SVG Export Plug-In . SVG Version: 6.00 Build 0)  -->
<svg version="1.1" id="Layer_1" xmlns="http://www.w3.org/2000/svg" xmlns:xlink="http://www.w3.org/1999/xlink" x="0px" y="0px"
	 viewBox="0 0 290 28" style="enable-background:new 0 0 290 28;" xml:space="preserve">
<style type="text/css">
	.st0{fill:#00B294;}
</style>
<title>icon_Note_Purple</title>
<path class="st0" d="M159.4,9.7c-0.3,0.3-0.6,0.6-0.9,0.9c-0.3,0.2-0.6,0.5-0.9,0.6c-0.3,0.2-0.7,0.3-1,0.4
	c-0.4,0.1-0.8,0.2-1.3,0.1c-0.3,0-0.6,0-0.9-0.1L149,17c0.1,0.4,0.2,0.7,0.3,1.1c0.1,0.4,0.1,0.8,0.1,1.1c0,0.6-0.1,1.1-0.2,1.7
	c-0.1,0.5-0.3,1-0.5,1.4c-0.2,0.4-0.5,0.9-0.8,1.3c-0.3,0.4-0.7,0.8-1.1,1.2l-5.4-5.4l-8,8l-1.9,0.7l0.6-1.9l8-8l-5.4-5.4l0.6-0.6
	c0.7-0.7,1.4-1.2,2.3-1.5c1.6-0.6,3.3-0.7,4.9-0.2l5.3-5.4c-0.1-0.3-0.1-0.6-0.1-0.9c0-0.4,0-0.8,0.1-1.3c0.1-0.3,0.2-0.7,0.4-1
	c0.2-0.3,0.4-0.6,0.7-0.9c0.3-0.3,0.5-0.6,0.8-0.9L159.4,9.7z M155.3,10c0.5,0,1-0.1,1.5-0.4l-7-7c-0.2,0.4-0.4,1-0.4,1.5
	c0,0.2,0,0.5,0.1,0.7c0.1,0.2,0.1,0.5,0.2,0.7l-6.9,6.9l-0.7-0.3c-0.4-0.2-0.8-0.3-1.3-0.3c-0.2,0-0.5,0-0.7,0c-0.5,0-1,0.1-1.6,0.2
	c-0.5,0.2-1,0.4-1.4,0.7l9.5,9.5c0.3-0.4,0.5-0.9,0.7-1.4c0.2-0.5,0.2-1,0.2-1.5c0-0.2,0-0.5,0-0.7c0-0.2-0.1-0.4-0.1-0.6
	c-0.1-0.2-0.1-0.4-0.2-0.6l-0.3-0.7l6.9-6.9l0.7,0.2C154.8,10,155,10,155.3,10L155.3,10z"/>
<rect y="12.5" class="st0" width="123.3" height="2"/>
<rect x="166.7" y="12.5" class="st0" width="123.3" height="2"/>
</svg>
