<?xml version="1.0" encoding="utf-8"?>
<!-- Generator: Adobe Illustrator 22.1.0, SVG Export Plug-In . SVG Version: 6.00 Build 0)  -->
<svg version="1.1" id="Isolation_Mode" xmlns="http://www.w3.org/2000/svg" xmlns:xlink="http://www.w3.org/1999/xlink" x="0px"
	 y="0px" viewBox="0 0 130.9 174.5" style="enable-background:new 0 0 130.9 174.5;" xml:space="preserve">
<style type="text/css">
	.st0{fill:#007DAA;}
</style>
<path class="st0" d="M65.4,0c6,0,11.8,0.8,17.4,2.3s10.8,3.8,15.6,6.6s9.3,6.2,13.2,10.2s7.4,8.4,10.2,13.2s5,10.1,6.6,15.6
	c1.6,5.6,2.3,11.4,2.3,17.4v38.2c0,2.3-0.4,4.4-1.3,6.4s-2,3.7-3.5,5.2s-3.2,2.6-5.2,3.5s-4.1,1.3-6.4,1.3H98.2V65.4h16.4
	c1,0,1.9,0.1,2.8,0.3s1.8,0.4,2.6,0.7c0-7.7-1.4-14.9-4.2-21.6s-6.6-12.6-11.5-17.6s-10.6-9-17.3-11.9s-13.9-4.4-21.6-4.4
	c-5,0-9.8,0.7-14.5,2s-9,3.1-13,5.5s-7.7,5.2-11,8.5s-6.2,7-8.5,11s-4.2,8.4-5.5,13s-2,9.5-2,14.5v1c0.9-0.3,1.7-0.5,2.6-0.7
	s1.8-0.3,2.8-0.3h16.4V120H21.8v10.9c0,3,0.6,5.8,1.7,8.5s2.7,5,4.7,6.9s4.3,3.6,6.9,4.7s5.5,1.7,8.5,1.7c0-1.5,0.3-3,0.9-4.3
	s1.3-2.5,2.3-3.5s2.1-1.8,3.5-2.3s2.7-0.9,4.3-0.9h21.8c1.5,0,3,0.3,4.3,0.9s2.5,1.3,3.5,2.3s1.8,2.1,2.3,3.5s0.9,2.7,0.9,4.3v10.9
	c0,1.5-0.3,3-0.9,4.3s-1.3,2.5-2.3,3.5s-2.1,1.8-3.5,2.3s-2.7,0.9-4.3,0.9H54.5c-1.5,0-3-0.3-4.3-0.9s-2.5-1.3-3.5-2.3
	s-1.8-2.1-2.3-3.5s-0.9-2.7-0.9-4.3c-4.5,0-8.8-0.9-12.7-2.6s-7.4-4-10.4-7s-5.3-6.4-7-10.4s-2.6-8.2-2.6-12.7v-11.9
	c-1.6-0.6-3.1-1.4-4.5-2.4S4,114.4,3,113s-1.7-2.8-2.2-4.4s-0.8-3.3-0.8-5V65.4c0-6,0.8-11.8,2.3-17.4s3.8-10.8,6.6-15.6
	s6.2-9.3,10.2-13.2s8.4-7.4,13.2-10.2s10.1-5,15.6-6.6S59.4,0,65.4,0z M16.4,76.3c-1.5,0-2.8,0.5-3.8,1.6s-1.6,2.4-1.6,3.8v21.8
	c0,1.5,0.5,2.8,1.6,3.8s2.4,1.6,3.8,1.6h5.5V76.3H16.4z M54.5,163.6h21.8v-10.9H54.5V163.6z M120,81.8c0-1.5-0.5-2.8-1.6-3.8
	s-2.4-1.6-3.8-1.6h-5.5v32.7h5.5c1.5,0,2.8-0.5,3.8-1.6s1.6-2.4,1.6-3.8V81.8z"/>
</svg>
