<svg xmlns="http://www.w3.org/2000/svg" width="327.82" height="22.65" viewBox="0 0 327.82 22.65"><defs><style>.cls-1{fill:#727272;}.cls-2{fill:#f25022;}.cls-3{fill:#7fba00;}.cls-4{fill:#00a4ef;}.cls-5{fill:#ffb900;}.cls-6{fill:none;stroke:#363636;stroke-miterlimit:10;}.cls-7{font-size:17px;fill:#363636;font-family:SegoePro-Semibold, Segoe Pro;font-weight:600;}.cls-8{letter-spacing:-0.01em;}.cls-9{letter-spacing:0.04em;}.cls-10{letter-spacing:-0.01em;}</style></defs><title>logo_MsaIntelligence</title><g id="Layer_2" data-name="Layer 2"><g id="Layer_1-2" data-name="Layer 1"><path class="cls-1" d="M43.1,4.42V17.69H40.8V7.29h0l-4.12,10.4H35.12L30.9,7.29h0v10.4H28.74V4.42H32l3.82,9.84h0l4-9.84Zm1.93,1a1.21,1.21,0,0,1,.4-.93,1.34,1.34,0,0,1,1-.37,1.33,1.33,0,0,1,1,.38,1.29,1.29,0,0,1,0,1.84,1.41,1.41,0,0,1-1,.37,1.34,1.34,0,0,1-1-.38A1.21,1.21,0,0,1,45,5.43M47.5,17.69H45.26V8.18H47.5Zm6.79-1.63a3.19,3.19,0,0,0,1.1-.23,5,5,0,0,0,1.11-.61V17.3a4.54,4.54,0,0,1-1.22.46,6.3,6.3,0,0,1-1.49.16,4.52,4.52,0,0,1-4.73-4.72A5.44,5.44,0,0,1,50.4,9.42a4.85,4.85,0,0,1,3.8-1.48,5,5,0,0,1,1.27.16,4.63,4.63,0,0,1,1,.37v2.15A4.87,4.87,0,0,0,55.44,10a3,3,0,0,0-1.11-.21,2.8,2.8,0,0,0-2.13.86A3.23,3.23,0,0,0,51.38,13a3.07,3.07,0,0,0,.78,2.24,2.82,2.82,0,0,0,2.13.81m8.58-8a2.33,2.33,0,0,1,.48,0,1.58,1.58,0,0,1,.36.09v2.27a1.86,1.86,0,0,0-.51-.25,2.49,2.49,0,0,0-.82-.12,1.75,1.75,0,0,0-1.39.7,3.32,3.32,0,0,0-.57,2.14v4.8H58.18V8.18h2.24v1.5h0a2.6,2.6,0,0,1,.92-1.22A2.52,2.52,0,0,1,62.87,8m1,5.05a5.16,5.16,0,0,1,1.34-3.74A4.92,4.92,0,0,1,68.87,8a4.58,4.58,0,0,1,3.48,1.32,5,5,0,0,1,1.25,3.59,5,5,0,0,1-1.33,3.68,4.85,4.85,0,0,1-3.63,1.37,4.74,4.74,0,0,1-3.51-1.3,4.83,4.83,0,0,1-1.3-3.55M66.16,13a3.38,3.38,0,0,0,.68,2.27,2.38,2.38,0,0,0,1.93.79,2.23,2.23,0,0,0,1.86-.79,3.6,3.6,0,0,0,.64-2.33,3.53,3.53,0,0,0-.66-2.32,2.3,2.3,0,0,0-1.86-.78,2.37,2.37,0,0,0-1.91.82A3.61,3.61,0,0,0,66.16,13m10.77-2.33a.94.94,0,0,0,.31.76,5.23,5.23,0,0,0,1.35.69,4.58,4.58,0,0,1,1.88,1.21A2.47,2.47,0,0,1,81,15a2.59,2.59,0,0,1-1,2.15,4.35,4.35,0,0,1-2.79.82,6.5,6.5,0,0,1-1.31-.15,5.29,5.29,0,0,1-1.21-.36v-2.2a5.23,5.23,0,0,0,1.31.67,3.76,3.76,0,0,0,1.28.25,2.32,2.32,0,0,0,1.12-.21.76.76,0,0,0,.36-.71,1,1,0,0,0-.38-.78,5.33,5.33,0,0,0-1.42-.74,4.44,4.44,0,0,1-1.76-1.16,2.62,2.62,0,0,1-.51-1.65,2.62,2.62,0,0,1,1-2.12,4.07,4.07,0,0,1,2.65-.82,6,6,0,0,1,1.12.11,5,5,0,0,1,1,.28v2.13a4.94,4.94,0,0,0-1-.51,3.54,3.54,0,0,0-1.18-.21,1.69,1.69,0,0,0-1,.25.8.8,0,0,0-.36.68m5,2.4a5.16,5.16,0,0,1,1.34-3.74A4.92,4.92,0,0,1,87,8a4.58,4.58,0,0,1,3.48,1.32,5,5,0,0,1,1.25,3.59,5,5,0,0,1-1.33,3.68,4.85,4.85,0,0,1-3.63,1.37,4.74,4.74,0,0,1-3.51-1.3A4.83,4.83,0,0,1,82,13.07M84.31,13A3.38,3.38,0,0,0,85,15.27a2.38,2.38,0,0,0,1.93.79,2.23,2.23,0,0,0,1.86-.79,3.6,3.6,0,0,0,.64-2.33,3.53,3.53,0,0,0-.66-2.32,2.3,2.3,0,0,0-1.85-.78,2.35,2.35,0,0,0-1.91.82A3.55,3.55,0,0,0,84.31,13m14.86-3H95.84v7.68H93.57V10H92V8.18h1.59V6.85a3.26,3.26,0,0,1,1-2.45,3.41,3.41,0,0,1,2.5-1,5.2,5.2,0,0,1,.72,0,2.62,2.62,0,0,1,.55.13V5.54a3.61,3.61,0,0,0-.38-.16,2.11,2.11,0,0,0-.64-.09,1.35,1.35,0,0,0-1.08.44A1.9,1.9,0,0,0,95.84,7V8.18h3.33V6l2.25-.68V8.18h2.27V10h-2.27v4.45a1.85,1.85,0,0,0,.32,1.24,1.26,1.26,0,0,0,1,.36,1.54,1.54,0,0,0,.47-.09,2.14,2.14,0,0,0,.48-.23v1.85a2.44,2.44,0,0,1-.71.23,5.52,5.52,0,0,1-1,.1,2.75,2.75,0,0,1-2.12-.76,3.2,3.2,0,0,1-.71-2.27Z"/><rect class="cls-2" width="10.51" height="10.51"/><rect class="cls-3" x="11.6" width="10.51" height="10.51"/><rect class="cls-4" y="11.6" width="10.51" height="10.51"/><rect class="cls-5" x="11.6" y="11.6" width="10.51" height="10.51"/><line class="cls-6" x1="126.98" y1="0.44" x2="126.98" y2="22.65"/><text class="cls-7" transform="translate(145.81 17.07)">Ad<tspan class="cls-8" x="21.61" y="0">v</tspan><tspan x="30.06" y="0">e</tspan><tspan class="cls-9" x="39.01" y="0">r</tspan><tspan x="45.97" y="0">tising In</tspan><tspan class="cls-10" x="107.31" y="0">t</tspan><tspan x="113.38" y="0">elligence</tspan></text></g></g></svg>