<svg xmlns="http://www.w3.org/2000/svg" viewBox="0 0 32 24"><defs><style>.cls-1{fill:#323130;fill-rule:evenodd;}</style></defs><g id="Layer_2" data-name="Layer 2"><g id="Layer_1-2" data-name="Layer 1"><path class="cls-1" d="M30.19,7.71a6,6,0,0,0-1.28-1h0a4,4,0,0,0,.8-1.27,3.92,3.92,0,0,0,0-3A4.06,4.06,0,0,0,27.55.32,3.91,3.91,0,0,0,26,0a3.84,3.84,0,0,0-1.55.32,4.06,4.06,0,0,0-2.13,2.13,3.92,3.92,0,0,0,0,3,4,4,0,0,0,.8,1.27A5.8,5.8,0,0,0,21,8.69a6,6,0,0,0-2.16-2,6,6,0,0,0-5.68,0,6,6,0,0,0-2.16,2A5.8,5.8,0,0,0,8.91,6.75a4,4,0,0,0,.8-1.27,3.92,3.92,0,0,0,0-3A4.06,4.06,0,0,0,7.55.32,3.91,3.91,0,0,0,6,0,3.84,3.84,0,0,0,4.45.32,4.06,4.06,0,0,0,2.32,2.45a3.92,3.92,0,0,0,0,3,4,4,0,0,0,.8,1.27,6,6,0,0,0-1.28,1A6.08,6.08,0,0,0,.84,9a5.82,5.82,0,0,0-.62,1.45A5.7,5.7,0,0,0,0,12H2a3.91,3.91,0,0,1,.32-1.55A4.06,4.06,0,0,1,4.45,8.32,3.84,3.84,0,0,1,6,8a3.91,3.91,0,0,1,1.55.32,4.06,4.06,0,0,1,2.13,2.13A3.91,3.91,0,0,1,10,12a6.06,6.06,0,0,0,2.44,4.83A8.15,8.15,0,0,0,10.6,18.1a8,8,0,0,0-2.29,3.69A7.76,7.76,0,0,0,8,24h2a5.75,5.75,0,0,1,.48-2.33,6.11,6.11,0,0,1,3.19-3.19,5.9,5.9,0,0,1,4.66,0,6.11,6.11,0,0,1,3.19,3.19A5.75,5.75,0,0,1,22,24h2a7.76,7.76,0,0,0-.31-2.21A8,8,0,0,0,21.4,18.1a8.15,8.15,0,0,0-1.84-1.27A6.06,6.06,0,0,0,22,12a3.91,3.91,0,0,1,.32-1.55,4.06,4.06,0,0,1,2.13-2.13A3.84,3.84,0,0,1,26,8a3.91,3.91,0,0,1,1.55.32,4.06,4.06,0,0,1,2.13,2.13A3.91,3.91,0,0,1,30,12h2a5.7,5.7,0,0,0-.22-1.59A5.82,5.82,0,0,0,31.16,9,6.08,6.08,0,0,0,30.19,7.71Zm-26-2.93A1.85,1.85,0,0,1,4,4a1.85,1.85,0,0,1,.16-.78,1.81,1.81,0,0,1,.43-.63,1.81,1.81,0,0,1,.63-.43,2,2,0,0,1,1.56,0,1.81,1.81,0,0,1,.63.43,1.81,1.81,0,0,1,.43.63A1.85,1.85,0,0,1,8,4a1.85,1.85,0,0,1-.16.78,1.81,1.81,0,0,1-.43.63,1.81,1.81,0,0,1-.63.43,2,2,0,0,1-1.56,0,1.81,1.81,0,0,1-.63-.43A1.81,1.81,0,0,1,4.16,4.78ZM16,16a3.91,3.91,0,0,0,1.55-.32,4.06,4.06,0,0,0,2.13-2.13A3.84,3.84,0,0,0,20,12a3.91,3.91,0,0,0-.32-1.55,4.06,4.06,0,0,0-2.13-2.13A3.91,3.91,0,0,0,16,8a3.84,3.84,0,0,0-1.55.32,4.06,4.06,0,0,0-2.13,2.13A3.91,3.91,0,0,0,12,12a3.84,3.84,0,0,0,.32,1.55,4.06,4.06,0,0,0,2.13,2.13A3.84,3.84,0,0,0,16,16ZM24.16,4.78A1.85,1.85,0,0,1,24,4a1.85,1.85,0,0,1,.16-.78,1.81,1.81,0,0,1,.43-.63,1.81,1.81,0,0,1,.63-.43,2,2,0,0,1,1.56,0,1.81,1.81,0,0,1,.63.43,1.81,1.81,0,0,1,.43.63A1.85,1.85,0,0,1,28,4a1.85,1.85,0,0,1-.16.78,1.81,1.81,0,0,1-.43.63,1.81,1.81,0,0,1-.63.43,2,2,0,0,1-1.56,0,1.81,1.81,0,0,1-.63-.43A1.81,1.81,0,0,1,24.16,4.78Z"/></g></g></svg>