<svg xmlns="http://www.w3.org/2000/svg" xmlns:xlink="http://www.w3.org/1999/xlink" viewBox="0 0 41.3 33.09"><defs><style>.cls-1{fill:none;}.cls-2{clip-path:url(#clip-path);}.cls-3{fill:#fff;}.cls-4{fill:#323130;}</style><clipPath id="clip-path"><rect class="cls-1" width="41.3" height="33.04"/></clipPath></defs><g id="Layer_2" data-name="Layer 2"><g id="Layer_1-2" data-name="Layer 1"><g class="cls-2"><path class="cls-3" d="M27.18,10.06V.61H1.1s-.72,16.94,0,16.94H4.23v4.83l5.18-5.25,9.16.21a7,7,0,0,0,2.07,4.88,7.46,7.46,0,0,0,5,2.14,7.47,7.47,0,0,0,5.07-2.22,7,7,0,0,0,2-5,7,7,0,0,0-1.49-4.44A7.36,7.36,0,0,0,27.18,10.06Z"/><path class="cls-4" d="M41,31.37l-8.61-8.85A8.52,8.52,0,0,0,34,19.11a8.42,8.42,0,0,0-.13-3.93,8.07,8.07,0,0,0-2.1-3.71,8.5,8.5,0,0,0-3.63-2.15H28V0H0V19.1H3.43v6.65l6.73-6.64H18a8.41,8.41,0,0,0,2.19,4.16,9.56,9.56,0,0,0,1.65,1.32,8.08,8.08,0,0,0,2,.83,7.75,7.75,0,0,0,2.15.29,8.1,8.1,0,0,0,2.76-.48A8.43,8.43,0,0,0,31,24l8.59,8.79a.9.9,0,0,0,.33.25.86.86,0,0,0,.39.09,1.15,1.15,0,0,0,.41-.08.84.84,0,0,0,.31-.25,1,1,0,0,0,.28-.67A1,1,0,0,0,41,31.37ZM5.67,20.42V16.91H2.24V2.2H25.72V9a8.42,8.42,0,0,0-1.93.29,8.14,8.14,0,0,0-1.94.84,9,9,0,0,0-1.64,1.3,8.94,8.94,0,0,0-1.27,1.68,7.59,7.59,0,0,0-.82,2,8,8,0,0,0-.26,1.76H9.26ZM20.3,14.9a6.16,6.16,0,0,1,1.29-2,6.09,6.09,0,0,1,1.95-1.37,6,6,0,0,1,2.4-.5,5.83,5.83,0,0,1,2.37.5,6.38,6.38,0,0,1,2,1.38,6.74,6.74,0,0,1,1.82,4.48,6.31,6.31,0,0,1-1.82,4.5,6.19,6.19,0,0,1-2,1.4,5.71,5.71,0,0,1-4.72,0,5.88,5.88,0,0,1-2-1.37,6.49,6.49,0,0,1-1.33-2,6.64,6.64,0,0,1-.46-2.5,6.56,6.56,0,0,1,.46-2.47Z"/></g></g></g></svg>