<?xml version="1.0" encoding="utf-8"?>
<!-- Generator: Adobe Illustrator 24.3.0, SVG Export Plug-In . SVG Version: 6.00 Build 0)  -->
<svg version="1.1" id="Layer_1" xmlns="http://www.w3.org/2000/svg" xmlns:xlink="http://www.w3.org/1999/xlink" x="0px" y="0px"
	 viewBox="0 0 32.1 31" style="enable-background:new 0 0 32.1 31;" xml:space="preserve">
<style type="text/css">
	.st0{fill:none;stroke:#333333;stroke-linejoin:round;stroke-miterlimit:10;}
	.st1{fill:none;stroke:#333333;stroke-miterlimit:10;}
</style>
<g>
	<g>
		<g>
			<g>
				<path class="st0" d="M25.3,9.5c0,1.7,1.4,3.1,3.1,3.1c1.7,0,3.1-1.4,3.1-3.1v-3h-6.2V9.5z"/>
				<path class="st0" d="M19.1,9.5c0,1.7,1.4,3.1,3.1,3.1c1.7,0,3.1-1.4,3.1-3.1v-3h-6.2V9.5z"/>
				<path class="st0" d="M13,9.5c0,1.7,1.4,3.1,3.1,3.1c1.7,0,3.1-1.4,3.1-3.1v-3H13V9.5z"/>
				<path class="st0" d="M6.8,9.5c0,1.7,1.4,3.1,3.1,3.1S13,11.2,13,9.5v-3H6.8V9.5z"/>
				<path class="st0" d="M0.7,9.5c0,1.7,1.4,3.1,3.1,3.1s3.1-1.4,3.1-3.1v-3H0.7V9.5z"/>
				<polygon class="st0" points="13,6.5 13.7,0.5 18.5,0.5 19.1,6.5 				"/>
				<polygon class="st0" points="6.8,6.5 8.9,0.5 13.7,0.5 13,6.5 				"/>
				<polygon class="st0" points="0.7,6.5 4.1,0.5 8.9,0.5 6.8,6.5 				"/>
				<g>
					<polygon class="st0" points="25.3,6.5 23.3,0.5 18.5,0.5 19.2,6.5 					"/>
					<polygon class="st0" points="31.5,6.5 28,0.5 23.3,0.5 25.3,6.5 					"/>
				</g>
			</g>
			<g>
				<polyline class="st1" points="29.1,12.6 29.1,30.5 3,30.5 3,12.6 				"/>
			</g>
			<rect x="18.6" y="17.1" class="st1" width="7.1" height="13.4"/>
			<polyline class="st1" points="18.5,25.3 6.5,25.3 6.5,17.1 18.5,17.1 			"/>
			<line class="st1" x1="21" y1="23.8" x2="20.1" y2="23.8"/>
			<line class="st1" x1="6.5" y1="23.7" x2="6.5" y2="30.5"/>
			<line class="st1" x1="32.1" y1="30.5" x2="0" y2="30.5"/>
		</g>
	</g>
</g>
</svg>
