<svg xmlns="http://www.w3.org/2000/svg" xmlns:xlink="http://www.w3.org/1999/xlink" viewBox="0 0 38 38"><defs><style>.cls-1{fill:none;}.cls-2{clip-path:url(#clip-path);}.cls-3{fill:#fff;}.cls-4{fill:#333;}</style><clipPath id="clip-path" transform="translate(0 0)"><rect class="cls-1" width="38" height="38"/></clipPath></defs><g id="Layer_2" data-name="Layer 2"><g id="Layer_1-2" data-name="Layer 1"><g class="cls-2"><path class="cls-3" d="M10.08,2.33h21l6.5,6.5v26.5H10.08Z" transform="translate(0 0)"/><path class="cls-3" d="M19.08,12.33h-16v16h16Z" transform="translate(0 0)"/><path class="cls-4" d="M38,8.81V35.62a2.12,2.12,0,0,1-.19.93,2.36,2.36,0,0,1-.5.74,2.45,2.45,0,0,1-.76.52,2,2,0,0,1-.93.19H11.87a2.23,2.23,0,0,1-.92-.19,2.4,2.4,0,0,1-.75-.5,2.63,2.63,0,0,1-.52-.76,2.12,2.12,0,0,1-.18-.93V30.87H2.13a2.05,2.05,0,0,1-.81-.16,2.34,2.34,0,0,1-.69-.47,1.79,1.79,0,0,1-.46-.66A2.42,2.42,0,0,1,0,28.74V11.63a2.06,2.06,0,0,1,.17-.81,2.31,2.31,0,0,1,.46-.69,1.91,1.91,0,0,1,.67-.46,2.37,2.37,0,0,1,.83-.17H9.5V2.38a2.44,2.44,0,0,1,.18-.93A2.5,2.5,0,0,1,11,.19,2,2,0,0,1,11.87,0H29.18a2.58,2.58,0,0,1,.91.17,2.06,2.06,0,0,1,.78.52l6.44,6.44a2.06,2.06,0,0,1,.5.76A2.9,2.9,0,0,1,38,8.81ZM30.87,4.06V7.13h3.06ZM4.24,27.31H7.91l.24-.45L8.63,26c.2-.34.38-.69.57-1.07a8.94,8.94,0,0,1,.56-1,6.94,6.94,0,0,0,.45-.8,1.2,1.2,0,0,1,.19-.33c.35.77.74,1.53,1.17,2.3l1.26,2.25h3.64L12.4,20.72l4-6.47H12.91q-.6,1.11-1.17,2.22c-.37.73-.78,1.46-1.22,2.17L9.41,16.45c-.36-.73-.73-1.46-1.11-2.2H4.59l3.87,6.51Zm7.63,8.31H35.62V9.5H30.87a2.48,2.48,0,0,1-.93-.18,2.71,2.71,0,0,1-.74-.51,2.63,2.63,0,0,1-.52-.76,2.07,2.07,0,0,1-.18-.92V2.38H11.87V9.5h7.37a2.11,2.11,0,0,1,.82.17,2.4,2.4,0,0,1,.68.46,2.08,2.08,0,0,1,.47.67,2.4,2.4,0,0,1,.16.83V28.74a1.94,1.94,0,0,1-.16.82,2.66,2.66,0,0,1-.47.68,2.08,2.08,0,0,1-.67.47,2.35,2.35,0,0,1-.83.16H11.87Zm11.88-19V14.25h9.5v2.38Zm0,4.74V19h9.5v2.37Zm0,4.75V23.75h9.5v2.37Z" transform="translate(0 0)"/></g></g></g></svg>