<svg xmlns="http://www.w3.org/2000/svg" viewBox="0 0 26.55 32"><defs><style>.cls-1{fill:#323130;fill-rule:evenodd;}</style></defs><g id="Layer_2" data-name="Layer 2"><g id="Layer_1-2" data-name="Layer 1"><path class="cls-1" d="M26.12,27.47a2.79,2.79,0,0,1,.33.73,3,3,0,0,1,.1.8,3,3,0,0,1-1.8,2.77A3,3,0,0,1,23.6,32H3a3,3,0,0,1-1.16-.23,2.93,2.93,0,0,1-.94-.65,3,3,0,0,1-.63-.95A3,3,0,0,1,0,29a3,3,0,0,1,.1-.8,2.75,2.75,0,0,1,.32-.73L9.17,12a.86.86,0,0,0,.16-.53V2h-2V0H19.18V2h-2v9.44a1,1,0,0,0,.15.54Zm-14.82-16A3,3,0,0,1,10.88,13L5.79,22h15l-5.09-9a3,3,0,0,1-.42-1.54V2H11.3Zm13,18.26a.9.9,0,0,1-.68.3H3a.92.92,0,0,1-.7-.3A1,1,0,0,1,2,29a1,1,0,0,1,.14-.52L4.65,24H21.89l2.53,4.48a1.74,1.74,0,0,1,.11.25.73.73,0,0,1,0,.27A1,1,0,0,1,24.28,29.7Z"/></g></g></svg>