<svg xmlns="http://www.w3.org/2000/svg" viewBox="0 0 19.89 32"><defs><style>.cls-1{fill:#323130;fill-rule:evenodd;}</style></defs><g id="Layer_2" data-name="Layer 2"><g id="Layer_1-2" data-name="Layer 1"><path class="cls-1" d="M17.9,0a1.85,1.85,0,0,1,.78.16,1.81,1.81,0,0,1,.63.43,2.13,2.13,0,0,1,.43.63,2,2,0,0,1,.15.78V30a2,2,0,0,1-.15.78,2.13,2.13,0,0,1-.43.63,1.81,1.81,0,0,1-.63.43,1.85,1.85,0,0,1-.78.16H2a1.85,1.85,0,0,1-.78-.16,1.81,1.81,0,0,1-.63-.43,1.93,1.93,0,0,1-.42-.63A1.85,1.85,0,0,1,0,30V2a1.85,1.85,0,0,1,.16-.78A1.93,1.93,0,0,1,.58.59,1.81,1.81,0,0,1,1.21.16,1.85,1.85,0,0,1,2,0Zm0,2H2V30H17.9Zm-6,24H8v2h4Z"/></g></g></svg>